%FSLAX24Y24*%
%MOIN*%
G70*
G01*
G75*
G04 Layer_Physical_Order=2*
G04 Layer_Color=36540*
%ADD10R,0.0520X0.0385*%
%ADD11R,0.0385X0.0520*%
%ADD12C,0.0070*%
%ADD13C,0.0060*%
%ADD14C,0.0060*%
%ADD15C,0.0591*%
%ADD16C,0.0250*%
%ADD17C,0.0250*%
G36*
X19770Y18250D02*
X15570D01*
Y21250D01*
X19770D01*
Y18250D01*
D02*
G37*
%LPC*%
G36*
X16200Y21050D02*
X16071Y21033D01*
X15950Y20983D01*
X15847Y20903D01*
X15767Y20800D01*
X15717Y20679D01*
X15700Y20550D01*
X15717Y20421D01*
X15767Y20300D01*
X15847Y20197D01*
X15950Y20117D01*
X16053Y20075D01*
Y20025D01*
X15950Y19983D01*
X15847Y19903D01*
X15767Y19800D01*
X15717Y19679D01*
X15700Y19550D01*
X15717Y19421D01*
X15767Y19300D01*
X15847Y19197D01*
X15950Y19117D01*
X16071Y19067D01*
X16200Y19050D01*
X16329Y19067D01*
X16450Y19117D01*
X16553Y19197D01*
X16633Y19300D01*
X16683Y19421D01*
X16700Y19550D01*
X16683Y19679D01*
X16633Y19800D01*
X16553Y19903D01*
X16450Y19983D01*
X16347Y20025D01*
Y20075D01*
X16450Y20117D01*
X16553Y20197D01*
X16578Y20230D01*
X16628Y20233D01*
X17021Y19841D01*
X17021Y19841D01*
X17098Y19789D01*
X17190Y19770D01*
X18502D01*
X18507Y19732D01*
X18522Y19695D01*
X18507Y19658D01*
X18498Y19590D01*
X18507Y19522D01*
X18533Y19459D01*
X18575Y19405D01*
X18629Y19363D01*
X18692Y19337D01*
X18760Y19328D01*
X18828Y19337D01*
X18891Y19363D01*
X18945Y19405D01*
X18987Y19459D01*
X19013Y19522D01*
X19022Y19590D01*
X19013Y19658D01*
X18998Y19695D01*
X19013Y19732D01*
X19022Y19800D01*
X19013Y19868D01*
X18998Y19905D01*
X19013Y19942D01*
X19022Y20010D01*
X19013Y20078D01*
X18987Y20141D01*
X18945Y20195D01*
X18891Y20237D01*
X18828Y20263D01*
X18760Y20272D01*
X18692Y20263D01*
X18659Y20250D01*
X17289D01*
X16902Y20636D01*
X16901Y20642D01*
X16849Y20719D01*
X16772Y20771D01*
X16680Y20790D01*
X16650D01*
X16650Y20790D01*
X16650Y20790D01*
X16637D01*
X16633Y20800D01*
X16553Y20903D01*
X16450Y20983D01*
X16329Y21033D01*
X16200Y21050D01*
D02*
G37*
%LPD*%
D12*
X24150Y23870D02*
Y24100D01*
Y23870D02*
X24700D01*
X4530Y18070D02*
X4730D01*
X19130Y9870D02*
X19330D01*
X20600Y15280D02*
X20610Y15270D01*
X20600Y15280D02*
Y15445D01*
X19060Y16810D02*
X19100Y16770D01*
X19060Y16810D02*
Y16915D01*
X12620Y18080D02*
X12630Y18070D01*
X12890D01*
X14890Y22450D02*
X15090D01*
X6730Y22360D02*
X6850Y22480D01*
X24200Y28180D02*
Y28320D01*
Y28180D02*
X24310Y28070D01*
X20250Y28280D02*
X20340Y28190D01*
X13300Y27670D02*
X13490D01*
X4470Y27790D02*
X4610D01*
X4420Y27760D02*
X4467D01*
X1160Y28430D02*
Y28640D01*
Y28430D02*
X1720D01*
X16200Y20550D02*
X16680D01*
X16200Y19330D02*
Y19550D01*
X17190Y20010D02*
X18760D01*
X16650Y20550D02*
X17190Y20010D01*
X27370Y26170D02*
X27910Y26710D01*
Y28280D01*
X28370Y25720D02*
X28590D01*
X27370D02*
Y26200D01*
X23530Y22000D02*
X24630Y23100D01*
X23530Y21520D02*
Y22000D01*
X24560Y23170D02*
X24630Y23100D01*
X24530Y21520D02*
X24750D01*
X24700Y23870D02*
Y24360D01*
X23860D02*
X24700D01*
X23860Y23730D02*
Y24360D01*
Y23730D02*
X24840D01*
Y24500D01*
X23720D02*
X24840D01*
X23720Y23590D02*
Y24500D01*
Y23590D02*
X24980D01*
Y24640D01*
X23580D02*
X24980D01*
X23580Y23450D02*
Y24640D01*
Y23450D02*
X25120D01*
Y24780D01*
X23440D02*
X25120D01*
X23440Y23310D02*
Y24780D01*
Y23310D02*
X25260D01*
Y24920D01*
X23300D02*
X25260D01*
X23300Y23310D02*
Y24920D01*
Y23170D02*
Y23310D01*
Y23170D02*
X24560D01*
X23300Y27370D02*
X24560D01*
X23300D02*
Y27510D01*
Y29120D01*
X25260D01*
Y27510D02*
Y29120D01*
X23440Y27510D02*
X25260D01*
X23440D02*
Y28980D01*
X25120D01*
Y27650D02*
Y28980D01*
X23580Y27650D02*
X25120D01*
X23580D02*
Y28840D01*
X24980D01*
Y27790D02*
Y28840D01*
X23720Y27790D02*
X24980D01*
X23720D02*
Y28700D01*
X24840D01*
Y27930D02*
Y28700D01*
X23860Y27930D02*
X24840D01*
X23860D02*
Y28560D01*
X24700D01*
Y28070D02*
Y28560D01*
X24310Y28070D02*
X24700D01*
X24530Y25720D02*
X24750D01*
X24560Y27370D02*
X24630Y27300D01*
X23530Y25720D02*
Y26200D01*
X24630Y27300D01*
X1850Y1180D02*
X2070D01*
X18690Y28270D02*
X18870Y28450D01*
X18380Y28270D02*
X18690D01*
X17400Y29250D02*
X18380Y28270D01*
X22140Y16890D02*
Y17110D01*
X17400Y28030D02*
Y28250D01*
X20530Y25090D02*
X20670Y24950D01*
Y23710D02*
Y24950D01*
Y23710D02*
X21090Y23290D01*
Y22490D02*
Y23290D01*
X8900Y18070D02*
X10160D01*
X8900D02*
Y18210D01*
X12890Y18070D02*
Y18210D01*
X13660Y18840D02*
Y18980D01*
Y18770D02*
Y18840D01*
Y18770D02*
X14290D01*
Y19260D01*
X13450D02*
X14290D01*
X13450Y18630D02*
Y19260D01*
Y18630D02*
X14430D01*
Y19400D01*
X13310D02*
X14430D01*
X13310Y18490D02*
Y19400D01*
Y18490D02*
X14570D01*
Y19540D01*
X13170D02*
X14570D01*
X13170Y18350D02*
Y19540D01*
Y18350D02*
X14710D01*
Y19680D01*
X13030D02*
X14710D01*
X13030Y18210D02*
Y19680D01*
Y18210D02*
X14850D01*
Y19820D01*
X12890D02*
X14850D01*
X12890Y18210D02*
Y19820D01*
X8900Y18210D02*
Y19820D01*
X10860D01*
Y18210D02*
Y19820D01*
X9040Y18210D02*
X10860D01*
X9040D02*
Y19680D01*
X10720D01*
Y18350D02*
Y19680D01*
X9180Y18350D02*
X10720D01*
X9180D02*
Y19540D01*
X10580D01*
Y18490D02*
Y19540D01*
X9320Y18490D02*
X10580D01*
X9320D02*
Y19400D01*
X10440D01*
Y18630D02*
Y19400D01*
X9460Y18630D02*
X10440D01*
X9460D02*
Y19260D01*
X10300D01*
Y18770D02*
Y19260D01*
X9670Y18770D02*
X10300D01*
X9670D02*
Y18840D01*
Y18980D01*
X10130Y16420D02*
X10350D01*
X10160Y18070D02*
X10230Y18000D01*
X9130Y16420D02*
Y16900D01*
X10230Y18000D01*
X14090Y16480D02*
X14310D01*
X9580Y22450D02*
X10840D01*
Y22310D02*
Y22450D01*
Y20700D02*
Y22310D01*
X8880Y20700D02*
X10840D01*
X8880D02*
Y22310D01*
X10700D01*
Y20840D02*
Y22310D01*
X9020Y20840D02*
X10700D01*
X9020D02*
Y22170D01*
X10560D01*
Y20980D02*
Y22170D01*
X9160Y20980D02*
X10560D01*
X9160D02*
Y22030D01*
X10420D01*
Y21120D02*
Y22030D01*
X9300Y21120D02*
X10420D01*
X9300D02*
Y21890D01*
X10280D01*
Y21260D02*
Y21890D01*
X9440Y21260D02*
X10280D01*
X9440D02*
Y21750D01*
X10070D01*
Y21680D02*
Y21750D01*
Y21540D02*
Y21680D01*
X9390Y24100D02*
X9610D01*
X9510Y22520D02*
X9580Y22450D01*
X10610Y23620D02*
Y24100D01*
X9510Y22520D02*
X10610Y23620D01*
X14890Y22310D02*
Y22450D01*
X14120Y21540D02*
Y21680D01*
Y21750D01*
X13490D02*
X14120D01*
X13490Y21260D02*
Y21750D01*
Y21260D02*
X14330D01*
Y21890D01*
X13350D02*
X14330D01*
X13350Y21120D02*
Y21890D01*
Y21120D02*
X14470D01*
Y22030D01*
X13210D02*
X14470D01*
X13210Y20980D02*
Y22030D01*
Y20980D02*
X14610D01*
Y22170D01*
X13070D02*
X14610D01*
X13070Y20840D02*
Y22170D01*
Y20840D02*
X14750D01*
Y22310D01*
X12930D02*
X14750D01*
X12930Y20700D02*
Y22310D01*
Y20700D02*
X14890D01*
Y22310D01*
X13470Y24040D02*
X13690D01*
X5310D02*
X5530D01*
X6730Y20700D02*
Y22310D01*
X4770Y20700D02*
X6730D01*
X4770D02*
Y22310D01*
X6590D01*
Y20840D02*
Y22310D01*
X4910Y20840D02*
X6590D01*
X4910D02*
Y22170D01*
X6450D01*
Y20980D02*
Y22170D01*
X5050Y20980D02*
X6450D01*
X5050D02*
Y22030D01*
X6310D01*
Y21120D02*
Y22030D01*
X5190Y21120D02*
X6310D01*
X5190D02*
Y21890D01*
X6170D01*
Y21260D02*
Y21890D01*
X5330Y21260D02*
X6170D01*
X5330D02*
Y21750D01*
X5960D01*
Y21680D02*
Y21750D01*
Y21540D02*
Y21680D01*
X6730Y22310D02*
Y22360D01*
X1350Y22520D02*
X2450Y23620D01*
Y24100D01*
X1350Y22520D02*
X1420Y22450D01*
X1230Y24100D02*
X1450D01*
X1910Y21540D02*
Y21680D01*
Y21750D01*
X1280D02*
X1910D01*
X1280Y21260D02*
Y21750D01*
Y21260D02*
X2120D01*
Y21890D01*
X1140D02*
X2120D01*
X1140Y21120D02*
Y21890D01*
Y21120D02*
X2260D01*
Y22030D01*
X1000D02*
X2260D01*
X1000Y20980D02*
Y22030D01*
Y20980D02*
X2400D01*
Y22170D01*
X860D02*
X2400D01*
X860Y20840D02*
Y22170D01*
Y20840D02*
X2540D01*
Y22310D01*
X720D02*
X2540D01*
X720Y20700D02*
Y22310D01*
Y20700D02*
X2680D01*
Y22310D01*
Y22450D01*
X1420D02*
X2680D01*
X5930Y16480D02*
X6150D01*
X970Y16900D02*
X2070Y18000D01*
X970Y16420D02*
Y16900D01*
X2000Y18070D02*
X2070Y18000D01*
X1970Y16420D02*
X2190D01*
X1510Y18840D02*
Y18980D01*
Y18770D02*
Y18840D01*
Y18770D02*
X2140D01*
Y19260D01*
X1300D02*
X2140D01*
X1300Y18630D02*
Y19260D01*
Y18630D02*
X2280D01*
Y19400D01*
X1160D02*
X2280D01*
X1160Y18490D02*
Y19400D01*
Y18490D02*
X2420D01*
Y19540D01*
X1020D02*
X2420D01*
X1020Y18350D02*
Y19540D01*
Y18350D02*
X2560D01*
Y19680D01*
X880D02*
X2560D01*
X880Y18210D02*
Y19680D01*
Y18210D02*
X2700D01*
Y19820D01*
X740D02*
X2700D01*
X740Y18210D02*
Y19820D01*
X4730Y18210D02*
Y19820D01*
X6690D01*
Y18210D02*
Y19820D01*
X4870Y18210D02*
X6690D01*
X4870D02*
Y19680D01*
X6550D01*
Y18350D02*
Y19680D01*
X5010Y18350D02*
X6550D01*
X5010D02*
Y19540D01*
X6410D01*
Y18490D02*
Y19540D01*
X5150Y18490D02*
X6410D01*
X5150D02*
Y19400D01*
X6270D01*
Y18630D02*
Y19400D01*
X5290Y18630D02*
X6270D01*
X5290D02*
Y19260D01*
X6130D01*
Y18770D02*
Y19260D01*
X5500Y18770D02*
X6130D01*
X5500D02*
Y18840D01*
Y18980D01*
X4730Y18070D02*
Y18210D01*
X740Y18070D02*
Y18210D01*
Y18070D02*
X2000D01*
X9020Y27670D02*
X10280D01*
X9020D02*
Y27810D01*
X13490Y27670D02*
Y27810D01*
X14260Y28440D02*
Y28580D01*
Y28370D02*
Y28440D01*
Y28370D02*
X14890D01*
Y28860D01*
X14050D02*
X14890D01*
X14050Y28230D02*
Y28860D01*
Y28230D02*
X15030D01*
Y29000D01*
X13910D02*
X15030D01*
X13910Y28090D02*
Y29000D01*
Y28090D02*
X15170D01*
Y29140D01*
X13770D02*
X15170D01*
X13770Y27950D02*
Y29140D01*
Y27950D02*
X15310D01*
Y29280D01*
X13630D02*
X15310D01*
X13630Y27810D02*
Y29280D01*
Y27810D02*
X15450D01*
Y29420D01*
X13490D02*
X15450D01*
X13490Y27810D02*
Y29420D01*
X9020Y27810D02*
Y29420D01*
X10980D01*
Y27810D02*
Y29420D01*
X9160Y27810D02*
X10980D01*
X9160D02*
Y29280D01*
X10840D01*
Y27950D02*
Y29280D01*
X9300Y27950D02*
X10840D01*
X9300D02*
Y29140D01*
X10700D01*
Y28090D02*
Y29140D01*
X9440Y28090D02*
X10700D01*
X9440D02*
Y29000D01*
X10560D01*
Y28230D02*
Y29000D01*
X9580Y28230D02*
X10560D01*
X9580D02*
Y28860D01*
X10420D01*
Y28370D02*
Y28860D01*
X9880Y28370D02*
X10420D01*
X9880D02*
Y28440D01*
Y28580D01*
X10250Y26020D02*
X10470D01*
X10280Y27670D02*
X10350Y27600D01*
X9250Y26020D02*
Y26500D01*
X10350Y27600D01*
X14690Y26080D02*
X14910D01*
X5810Y26200D02*
X6030D01*
X550Y26560D02*
X1650Y27660D01*
X550Y26080D02*
Y26560D01*
X1580Y27730D02*
X1650Y27660D01*
X1550Y26080D02*
X1770D01*
X1720Y28430D02*
Y28920D01*
X880D02*
X1720D01*
X880Y28290D02*
Y28920D01*
Y28290D02*
X1860D01*
Y29060D01*
X740D02*
X1860D01*
X740Y28150D02*
Y29060D01*
Y28150D02*
X2000D01*
Y29200D01*
X600D02*
X2000D01*
X600Y28010D02*
Y29200D01*
Y28010D02*
X2140D01*
Y29340D01*
X460D02*
X2140D01*
X460Y27870D02*
Y29340D01*
Y27870D02*
X2280D01*
Y29480D01*
X320D02*
X2280D01*
X320Y27870D02*
Y29480D01*
X4610Y27930D02*
Y29540D01*
X6570D01*
Y27930D02*
Y29540D01*
X4750Y27930D02*
X6570D01*
X4750D02*
Y29400D01*
X6430D01*
Y28070D02*
Y29400D01*
X4890Y28070D02*
X6430D01*
X4890D02*
Y29260D01*
X6290D01*
Y28210D02*
Y29260D01*
X5030Y28210D02*
X6290D01*
X5030D02*
Y29120D01*
X6150D01*
Y28350D02*
Y29120D01*
X5170Y28350D02*
X6150D01*
X5170D02*
Y28980D01*
X6010D01*
Y28490D02*
Y28980D01*
X5380Y28490D02*
X6010D01*
X5380D02*
Y28560D01*
Y28700D01*
X4610Y27790D02*
Y27930D01*
X320Y27730D02*
Y27870D01*
Y27730D02*
X1580D01*
X20340Y28190D02*
X20630D01*
Y28820D01*
X19720D02*
X20630D01*
X19720Y28050D02*
Y28820D01*
Y28050D02*
X20770D01*
Y28960D01*
X19580D02*
X20770D01*
X19580Y27910D02*
Y28960D01*
Y27910D02*
X20910D01*
Y29100D01*
X19440D02*
X20910D01*
X19440Y27770D02*
Y29100D01*
Y27770D02*
X21050D01*
Y29240D01*
X19300D02*
X21050D01*
X19300Y27630D02*
Y29240D01*
Y27630D02*
X21190D01*
Y29380D01*
X19160D02*
X21190D01*
X19160Y27490D02*
Y29380D01*
Y27490D02*
X21330D01*
Y29520D01*
X19020D02*
X21330D01*
X19020Y27350D02*
Y29520D01*
Y27350D02*
X21470D01*
Y29660D01*
X19020D02*
X21470D01*
X18880D02*
X19020D01*
X18880Y28450D02*
Y29660D01*
X20460Y15445D02*
X20600D01*
X18010D02*
X20460D01*
X18010D02*
Y17755D01*
X20460D01*
Y15585D02*
Y17755D01*
X18150Y15585D02*
X20460D01*
X18150D02*
Y17615D01*
X20320D01*
Y15725D02*
Y17615D01*
X18290Y15725D02*
X20320D01*
X18290D02*
Y17475D01*
X20180D01*
Y15865D02*
Y17475D01*
X18430Y15865D02*
X20180D01*
X18430D02*
Y17335D01*
X20040D01*
Y16005D02*
Y17335D01*
X18570Y16005D02*
X20040D01*
X18570D02*
Y17195D01*
X19900D01*
Y16145D02*
Y17195D01*
X18710Y16145D02*
X19900D01*
X18710D02*
Y17055D01*
X19760D01*
Y16285D02*
Y17055D01*
X18850Y16285D02*
X19760D01*
X18850D02*
Y16915D01*
X19060D01*
X18500Y23480D02*
X18710D01*
Y24110D01*
X18220D02*
X18710D01*
X18220Y23270D02*
Y24110D01*
Y23270D02*
X18850D01*
Y24250D01*
X18080D02*
X18850D01*
X18080Y23130D02*
Y24250D01*
Y23130D02*
X18990D01*
Y24390D01*
X17940D02*
X18990D01*
X17940Y22990D02*
Y24390D01*
Y22990D02*
X19130D01*
Y24530D01*
X17800D02*
X19130D01*
X17800Y22850D02*
Y24530D01*
Y22850D02*
X19270D01*
Y24670D01*
X17660D02*
X19270D01*
X17660Y22710D02*
Y24670D01*
Y22710D02*
X19410D01*
Y24810D01*
X17520D02*
X19410D01*
X17520Y22570D02*
Y24810D01*
Y22570D02*
X19550D01*
Y24950D01*
X17380D02*
X19550D01*
X17380Y22430D02*
Y24950D01*
Y22430D02*
X19690D01*
Y25090D01*
X17240D02*
X19690D01*
X17240Y22290D02*
Y25090D01*
Y22290D02*
X19830D01*
Y25230D01*
X17100D02*
X19830D01*
X17100Y22150D02*
Y25230D01*
Y22150D02*
X19970D01*
Y25370D01*
X16960D02*
X19970D01*
X16960Y22010D02*
Y25370D01*
Y22010D02*
X20110D01*
Y25510D01*
X16820D02*
X20110D01*
X16820Y21870D02*
Y25510D01*
Y21870D02*
X20250D01*
Y25650D01*
X16680D02*
X20250D01*
X16680Y21730D02*
Y25650D01*
Y21730D02*
X20390D01*
Y25090D01*
X20530D01*
X19470Y10010D02*
Y13720D01*
X23390D01*
Y10150D02*
Y13720D01*
X19610Y10150D02*
X23390D01*
X19610D02*
Y13580D01*
X23250D01*
Y10290D02*
Y13580D01*
X19750Y10290D02*
X23250D01*
X19750D02*
Y13440D01*
X23110D01*
Y10430D02*
Y13440D01*
X19890Y10430D02*
X23110D01*
X19890D02*
Y13300D01*
X22970D01*
Y10570D02*
Y13300D01*
X20030Y10570D02*
X22970D01*
X20030D02*
Y13160D01*
X22830D01*
Y10710D02*
Y13160D01*
X20170Y10710D02*
X22830D01*
X20170D02*
Y13020D01*
X22690D01*
Y10850D02*
Y13020D01*
X20310Y10850D02*
X22690D01*
X20310D02*
Y12880D01*
X22550D01*
Y10990D02*
Y12880D01*
X20450Y10990D02*
X22550D01*
X20450D02*
Y12740D01*
X22410D01*
Y11130D02*
Y12740D01*
X20590Y11130D02*
X22410D01*
X20590D02*
Y12600D01*
X22270D01*
Y11270D02*
Y12600D01*
X20730Y11270D02*
X22270D01*
X20730D02*
Y12460D01*
X22130D01*
Y11410D02*
Y12460D01*
X20870Y11410D02*
X22130D01*
X20870D02*
Y12320D01*
X21990D01*
Y11550D02*
Y12320D01*
X21010Y11550D02*
X21990D01*
X21010D02*
Y12180D01*
X21850D01*
Y11690D02*
Y12180D01*
X21220Y11690D02*
X21850D01*
X21220D02*
Y11900D01*
X19470Y10010D02*
X23530D01*
Y13860D01*
X19330D02*
X23530D01*
X19330Y9870D02*
Y13860D01*
D13*
X13220Y9610D02*
X17250D01*
X13220Y9390D02*
Y9610D01*
X6160D02*
X10230D01*
X6160Y9370D02*
Y9610D01*
X27400Y11950D02*
X27490Y12040D01*
X26130Y3520D02*
X26550D01*
X26130D02*
Y5350D01*
X20370Y3410D02*
X21050D01*
X20370D02*
Y5290D01*
X13120Y1990D02*
X17190D01*
X13120Y1880D02*
Y1990D01*
X13050Y1810D02*
X13120Y1880D01*
X13950Y3350D02*
X14550D01*
X13950D02*
Y5230D01*
X7590Y4210D02*
X7850D01*
X7590D02*
Y4750D01*
X14010Y10990D02*
X14640D01*
X14010D02*
Y12850D01*
X6990Y10980D02*
X7540D01*
X6990D02*
Y12850D01*
X1770Y10960D02*
X2330D01*
X1770D02*
Y12850D01*
X950Y9610D02*
X5010D01*
X950Y9390D02*
Y9610D01*
X20190Y1150D02*
X20230D01*
X19470Y1870D02*
X20190Y1150D01*
X25950Y1210D02*
X25990D01*
X25230Y1930D02*
X25950Y1210D01*
X26070Y9250D02*
X26110D01*
X25350Y9970D02*
X26070Y9250D01*
X26850Y11950D02*
X27400D01*
X26850D02*
Y12790D01*
X27810D01*
Y11830D02*
Y12790D01*
X26730Y11830D02*
X27810D01*
X26730D02*
Y12910D01*
X27930D01*
Y11710D02*
Y12910D01*
X26610Y11710D02*
X27930D01*
X26610D02*
Y13030D01*
X28050D01*
Y11590D02*
Y13030D01*
X26490Y11590D02*
X28050D01*
X26490D02*
Y13150D01*
X26670D01*
X28170D01*
Y11470D02*
Y13150D01*
X26370Y11470D02*
X28170D01*
X26370D02*
Y13270D01*
X28290D01*
Y11350D02*
Y13270D01*
X26250Y11350D02*
X28290D01*
X26250D02*
Y13390D01*
X28410D01*
Y11230D02*
Y13390D01*
X26130Y11230D02*
X28410D01*
X26130D02*
Y13510D01*
X28530D01*
Y11110D02*
Y13510D01*
X26010Y11110D02*
X28530D01*
X26010D02*
Y13630D01*
X28650D01*
Y10990D02*
Y13630D01*
X25890Y10990D02*
X28650D01*
X25890D02*
Y13750D01*
X28770D01*
Y10870D02*
Y13750D01*
X25770Y10870D02*
X28770D01*
X25770D02*
Y13870D01*
X28890D01*
Y10750D02*
Y13870D01*
X25650Y10750D02*
X28890D01*
X25650D02*
Y13990D01*
X29010D01*
Y10630D02*
Y13990D01*
X25530Y10630D02*
X29010D01*
X25530D02*
Y14110D01*
X29130D01*
Y10510D02*
Y14110D01*
X25410Y10510D02*
X29130D01*
X25410D02*
Y14230D01*
X29250D01*
Y10390D02*
Y14230D01*
X25290Y10390D02*
X29250D01*
X25290D02*
Y14350D01*
X29370D01*
Y10270D02*
Y14350D01*
X25170Y10270D02*
X29370D01*
X25170D02*
Y14470D01*
X29490D01*
Y10150D02*
Y14470D01*
X25350Y9970D02*
Y10150D01*
X29490D01*
X25230Y2110D02*
X29370D01*
X25230Y1930D02*
Y2110D01*
X29370D02*
Y6430D01*
X25050D02*
X29370D01*
X25050Y2230D02*
Y6430D01*
Y2230D02*
X29250D01*
Y6310D01*
X25170D02*
X29250D01*
X25170Y2350D02*
Y6310D01*
Y2350D02*
X29130D01*
Y6190D01*
X25290D02*
X29130D01*
X25290Y2470D02*
Y6190D01*
Y2470D02*
X29010D01*
Y6070D01*
X25410D02*
X29010D01*
X25410Y2590D02*
Y6070D01*
Y2590D02*
X28890D01*
Y5950D01*
X25530D02*
X28890D01*
X25530Y2710D02*
Y5950D01*
Y2710D02*
X28770D01*
Y5830D01*
X25650D02*
X28770D01*
X25650Y2830D02*
Y5830D01*
Y2830D02*
X28650D01*
Y5710D01*
X25770D02*
X28650D01*
X25770Y2950D02*
Y5710D01*
Y2950D02*
X28530D01*
Y5590D01*
X25890D02*
X28530D01*
X25890Y3070D02*
Y5590D01*
Y3070D02*
X28410D01*
Y5470D01*
X26010D02*
X28410D01*
X26010Y3190D02*
Y5470D01*
Y3190D02*
X28290D01*
Y5350D01*
X26130D02*
X28290D01*
X20370Y5290D02*
X22530D01*
Y3130D02*
Y5290D01*
X20250Y3130D02*
X22530D01*
X20250D02*
Y5410D01*
X22650D01*
Y3010D02*
Y5410D01*
X20130Y3010D02*
X22650D01*
X20130D02*
Y5530D01*
X22770D01*
Y2890D02*
Y5530D01*
X20010Y2890D02*
X22770D01*
X20010D02*
Y5650D01*
X22890D01*
Y2770D02*
Y5650D01*
X19890Y2770D02*
X22890D01*
X19890D02*
Y5770D01*
X23010D01*
Y2650D02*
Y5770D01*
X19770Y2650D02*
X23010D01*
X19770D02*
Y5890D01*
X23130D01*
Y2530D02*
Y5890D01*
X19650Y2530D02*
X23130D01*
X19650D02*
Y6010D01*
X23250D01*
Y2410D02*
Y6010D01*
X19530Y2410D02*
X23250D01*
X19530D02*
Y6130D01*
X23370D01*
Y2290D02*
Y6130D01*
X19410Y2290D02*
X23370D01*
X19410D02*
Y6250D01*
X23490D01*
Y2170D02*
Y6250D01*
X19290Y2170D02*
X23490D01*
X19290D02*
Y6370D01*
X23610D01*
Y2050D02*
Y6370D01*
X19470Y1870D02*
Y2050D01*
X23610D01*
X10230Y9610D02*
Y13930D01*
X5910D02*
X10230D01*
X5910Y9730D02*
Y13930D01*
Y9730D02*
X10110D01*
Y13810D01*
X6030D02*
X10110D01*
X6030Y9850D02*
Y13810D01*
Y9850D02*
X9990D01*
Y13690D01*
X6150D02*
X9990D01*
X6150Y9970D02*
Y13690D01*
Y9970D02*
X9870D01*
Y13570D01*
X6270D02*
X9870D01*
X6270Y10090D02*
Y13570D01*
Y10090D02*
X9750D01*
Y13450D01*
X6390D02*
X9750D01*
X6390Y10210D02*
Y13450D01*
Y10210D02*
X9630D01*
Y13330D01*
X6510D02*
X9630D01*
X6510Y10330D02*
Y13330D01*
Y10330D02*
X9510D01*
Y13210D01*
X6630D02*
X9510D01*
X6630Y10450D02*
Y13210D01*
Y10450D02*
X9390D01*
Y13090D01*
X6750D02*
X9390D01*
X6750Y10570D02*
Y13090D01*
Y10570D02*
X9270D01*
Y12970D01*
X6870D02*
X9270D01*
X6870Y10690D02*
Y12970D01*
Y10690D02*
X9150D01*
Y12850D01*
X6990D02*
X9150D01*
X5010Y9610D02*
Y13930D01*
X690D02*
X5010D01*
X690Y9730D02*
Y13930D01*
Y9730D02*
X4890D01*
Y13810D01*
X810D02*
X4890D01*
X810Y9850D02*
Y13810D01*
Y9850D02*
X4770D01*
Y13690D01*
X930D02*
X4770D01*
X930Y9970D02*
Y13690D01*
Y9970D02*
X4650D01*
Y13570D01*
X1050D02*
X4650D01*
X1050Y10090D02*
Y13570D01*
Y10090D02*
X4530D01*
Y13450D01*
X1170D02*
X4530D01*
X1170Y10210D02*
Y13450D01*
Y10210D02*
X4410D01*
Y13330D01*
X1290D02*
X4410D01*
X1290Y10330D02*
Y13330D01*
Y10330D02*
X4290D01*
Y13210D01*
X1410D02*
X4290D01*
X1410Y10450D02*
Y13210D01*
Y10450D02*
X4170D01*
Y13090D01*
X1530D02*
X4170D01*
X1530Y10570D02*
Y13090D01*
Y10570D02*
X4050D01*
Y12970D01*
X1650D02*
X4050D01*
X1650Y10690D02*
Y12970D01*
Y10690D02*
X3930D01*
Y12850D01*
X1770D02*
X3930D01*
X14010D02*
X16170D01*
Y10690D02*
Y12850D01*
X13890Y10690D02*
X16170D01*
X13890D02*
Y12970D01*
X16290D01*
Y10570D02*
Y12970D01*
X13770Y10570D02*
X16290D01*
X13770D02*
Y13090D01*
X16410D01*
Y10450D02*
Y13090D01*
X13650Y10450D02*
X16410D01*
X13650D02*
Y13210D01*
X16530D01*
Y10330D02*
Y13210D01*
X13530Y10330D02*
X16530D01*
X13530D02*
Y13330D01*
X16650D01*
Y10210D02*
Y13330D01*
X13410Y10210D02*
X16650D01*
X13410D02*
Y13450D01*
X16770D01*
Y10090D02*
Y13450D01*
X13290Y10090D02*
X16770D01*
X13290D02*
Y13570D01*
X16890D01*
Y9970D02*
Y13570D01*
X13170Y9970D02*
X16890D01*
X13170D02*
Y13690D01*
X17010D01*
Y9850D02*
Y13690D01*
X13050Y9850D02*
X17010D01*
X13050D02*
Y13810D01*
X17130D01*
Y9730D02*
Y13810D01*
X12930Y9730D02*
X17130D01*
X12930D02*
Y13930D01*
X17250D01*
Y9610D02*
Y13930D01*
X17190Y1990D02*
Y6310D01*
X12870D02*
X17190D01*
X12870Y2110D02*
Y6310D01*
Y2110D02*
X17070D01*
Y6190D01*
X12990D02*
X17070D01*
X12990Y2230D02*
Y6190D01*
Y2230D02*
X16950D01*
Y6070D01*
X13110D02*
X16950D01*
X13110Y2350D02*
Y6070D01*
Y2350D02*
X16830D01*
Y5950D01*
X13230D02*
X16830D01*
X13230Y2470D02*
Y5950D01*
Y2470D02*
X16710D01*
Y5830D01*
X13350D02*
X16710D01*
X13350Y2590D02*
Y5830D01*
Y2590D02*
X16590D01*
Y5710D01*
X13470D02*
X16590D01*
X13470Y2710D02*
Y5710D01*
Y2710D02*
X16470D01*
Y5590D01*
X13590D02*
X16470D01*
X13590Y2830D02*
Y5590D01*
Y2830D02*
X16350D01*
Y5470D01*
X13710D02*
X16350D01*
X13710Y2950D02*
Y5470D01*
Y2950D02*
X16230D01*
Y5350D01*
X13830D02*
X16230D01*
X13830Y3070D02*
Y5350D01*
Y3070D02*
X16110D01*
Y5230D01*
X13950D02*
X16110D01*
X6270Y2290D02*
Y2410D01*
X9810D01*
Y6190D01*
X6150D02*
X9810D01*
X6150Y2530D02*
Y6190D01*
Y2530D02*
X9690D01*
Y6070D01*
X6270D02*
X9690D01*
X6270Y2650D02*
Y6070D01*
Y2650D02*
X9570D01*
Y5950D01*
X6390D02*
X9570D01*
X6390Y2770D02*
Y5950D01*
Y2770D02*
X9450D01*
Y5830D01*
X6510D02*
X9450D01*
X6510Y2890D02*
Y5830D01*
Y2890D02*
X9330D01*
Y5710D01*
X6630D02*
X9330D01*
X6630Y3010D02*
Y5710D01*
Y3010D02*
X9210D01*
Y5590D01*
X6750D02*
X9210D01*
X6750Y3130D02*
Y5590D01*
Y3130D02*
X9090D01*
Y5470D01*
X6870D02*
X9090D01*
X6870Y3250D02*
Y5470D01*
Y3250D02*
X8970D01*
Y5350D01*
X6990D02*
X8970D01*
X6990Y3370D02*
Y5350D01*
Y3370D02*
X8850D01*
Y5230D01*
X7110D02*
X8850D01*
X7110Y3490D02*
Y5230D01*
Y3490D02*
X8730D01*
Y5110D01*
X7230D02*
X8730D01*
X7230Y3610D02*
Y5110D01*
Y3610D02*
X8610D01*
Y4990D01*
X7350D02*
X8610D01*
X7350Y3730D02*
Y4990D01*
Y3730D02*
X8490D01*
Y4870D01*
X7470D02*
X8490D01*
X7470Y3850D02*
Y4870D01*
Y3850D02*
X8370D01*
Y3970D01*
Y4750D01*
X7590D02*
X8370D01*
X510Y2890D02*
Y3010D01*
X1110Y4030D02*
X1290D01*
X510Y3010D02*
X3450D01*
Y3130D01*
Y6310D01*
X390D02*
X3450D01*
X390Y3130D02*
Y6310D01*
Y3130D02*
X3330D01*
Y6190D01*
X510D02*
X3330D01*
X510Y3250D02*
Y6190D01*
Y3250D02*
X3210D01*
Y6070D01*
X630D02*
X3210D01*
X630Y6010D02*
Y6070D01*
Y3370D02*
Y6010D01*
Y3370D02*
X3090D01*
Y5950D01*
X750D02*
X3090D01*
X750Y3490D02*
Y5950D01*
Y3490D02*
X2970D01*
Y5830D01*
X870D02*
X2970D01*
X870Y3610D02*
Y5830D01*
Y3610D02*
X2850D01*
Y5710D01*
X990D02*
X2850D01*
X990Y5650D02*
Y5710D01*
Y3730D02*
Y5650D01*
Y3730D02*
X2730D01*
Y5590D01*
X1110D02*
X2730D01*
X1110Y4030D02*
Y5590D01*
D14*
X7470Y3850D02*
D03*
D15*
X16200Y20550D02*
D03*
Y19550D02*
D03*
X26110Y9250D02*
D03*
X27370Y25720D02*
D03*
X28370D02*
D03*
X25990Y1210D02*
D03*
X23530Y21520D02*
D03*
X24530D02*
D03*
X23530Y25720D02*
D03*
X24530D02*
D03*
X20230Y1150D02*
D03*
X1850Y1180D02*
D03*
X22140Y16890D02*
D03*
X17400Y29250D02*
D03*
Y28250D02*
D03*
X21090Y22490D02*
D03*
X9130Y16420D02*
D03*
X10130D02*
D03*
X14090Y16480D02*
D03*
X10610Y24100D02*
D03*
X9610D02*
D03*
X13690Y24040D02*
D03*
X5530D02*
D03*
X2450Y24100D02*
D03*
X1450D02*
D03*
X5930Y16480D02*
D03*
X970Y16420D02*
D03*
X1970D02*
D03*
X9250Y26020D02*
D03*
X10250D02*
D03*
X14690Y26080D02*
D03*
X5810Y26200D02*
D03*
X550Y26080D02*
D03*
X1550D02*
D03*
D16*
X24150Y24100D02*
D03*
X4520Y18060D02*
D03*
X13230Y9390D02*
D03*
X6180Y9370D02*
D03*
X27490Y12040D02*
D03*
X13120Y1780D02*
D03*
X19130Y9870D02*
D03*
X20610Y15270D02*
D03*
X19100Y16770D02*
D03*
X2330Y10960D02*
D03*
X1000Y9390D02*
D03*
X12620Y18080D02*
D03*
X15090Y22450D02*
D03*
X5520Y18980D02*
D03*
X6850Y22480D02*
D03*
X24200Y28320D02*
D03*
X20250Y28280D02*
D03*
X13300Y27670D02*
D03*
X14260Y28580D02*
D03*
X4460Y27800D02*
D03*
X18760Y20010D02*
D03*
X27910Y28280D02*
D03*
X26550Y3530D02*
D03*
X21050Y3420D02*
D03*
X7540Y10980D02*
D03*
X14640Y10970D02*
D03*
X14550Y3360D02*
D03*
X6270Y2290D02*
D03*
X7850Y4210D02*
D03*
X510Y2890D02*
D03*
X1290Y4030D02*
D03*
X13670Y18990D02*
D03*
X9670Y18980D02*
D03*
X10070Y21540D02*
D03*
X14120D02*
D03*
X5960D02*
D03*
X1910D02*
D03*
X1510Y18980D02*
D03*
X9880Y28580D02*
D03*
X1150Y28640D02*
D03*
X5380Y28700D02*
D03*
X18500Y23480D02*
D03*
X21220Y11900D02*
D03*
D17*
X4140Y20110D02*
X6990D01*
X4140Y17660D02*
Y20110D01*
Y17660D02*
X5310D01*
X13590Y9310D02*
X15090D01*
X13370Y9090D02*
X13590Y9310D01*
X12630Y9090D02*
X13370D01*
X12630D02*
Y14230D01*
X6290Y9020D02*
X6580Y9310D01*
X5610Y9020D02*
X6290D01*
X5610D02*
Y14230D01*
X6580Y9310D02*
X8070D01*
X1170Y9020D02*
X1460Y9310D01*
X390Y9020D02*
X1170D01*
X390D02*
Y14230D01*
X1460Y9310D02*
X2850D01*
X6150Y22860D02*
X7170D01*
Y20410D02*
Y22860D01*
X4470Y20410D02*
X7170D01*
X12960Y29710D02*
X15750D01*
X12960Y27350D02*
Y29710D01*
Y27350D02*
X14070D01*
X5610Y14230D02*
X10530D01*
X8550Y9310D02*
X10530D01*
Y14230D01*
X390D02*
X5310D01*
X3330Y9310D02*
X5310D01*
Y14230D01*
X17550Y9310D02*
Y14230D01*
X15570Y9310D02*
X17550D01*
X12630Y14230D02*
X17550D01*
X4470Y22690D02*
X5190D01*
X4470Y20410D02*
Y22690D01*
X2070D02*
X2850D01*
X450D02*
X1110D01*
X450Y22570D02*
Y22690D01*
X2850D02*
X2970Y22570D01*
Y20410D02*
Y22570D01*
X630Y20410D02*
X2970D01*
X450D02*
X630D01*
X450D02*
Y22570D01*
X570Y17830D02*
X1350D01*
X2310D02*
X2970D01*
Y17950D01*
X450D02*
X570Y17830D01*
X450Y17950D02*
Y20110D01*
X2790D01*
X2970D01*
Y17950D02*
Y20110D01*
X6270Y17830D02*
X6990D01*
Y20110D01*
X15750Y27430D02*
Y29710D01*
X15030Y27430D02*
X15750D01*
X11250Y27550D02*
Y29710D01*
X11070D02*
X11250D01*
X8730D02*
X11070D01*
X8730Y27550D02*
Y29710D01*
Y27550D02*
X8850Y27430D01*
X11250D02*
Y27550D01*
X10590Y27430D02*
X11250D01*
X8850D02*
X9630D01*
M02*
