%FSLAX24Y24*%
%MOIN*%
G70*
G01*
G75*
G04 Layer_Physical_Order=3*
G04 Layer_Color=16440176*
%ADD10R,0.0520X0.0385*%
%ADD11R,0.0385X0.0520*%
%ADD12C,0.0070*%
%ADD13C,0.0060*%
%ADD14C,0.0060*%
%ADD15C,0.0591*%
%ADD16C,0.0250*%
%ADD17C,0.0250*%
%ADD18C,0.0200*%
D12*
X21570Y11840D02*
X21630Y11900D01*
X21570Y11690D02*
Y11840D01*
X21010Y11690D02*
X21570D01*
X19620Y16285D02*
Y16530D01*
X19410D02*
X19620D01*
X14020Y18770D02*
Y18980D01*
X13450Y18770D02*
X14020D01*
X13710Y21750D02*
X14330D01*
X13710Y21540D02*
Y21750D01*
X5600D02*
X6170D01*
X5600Y21540D02*
Y21750D01*
X14660Y28370D02*
Y28580D01*
X14050Y28370D02*
X14660D01*
X6570Y27790D02*
Y29540D01*
X4420Y27790D02*
X6570D01*
X5790Y28640D02*
X5850Y28700D01*
X5790Y28490D02*
Y28640D01*
X5170Y28490D02*
X5790D01*
X23180Y19030D02*
X24440D01*
X23180D02*
Y19170D01*
Y20780D01*
X25140D01*
Y19170D02*
Y20780D01*
X23320Y19170D02*
X25140D01*
X23320D02*
Y20640D01*
X25000D01*
Y19310D02*
Y20640D01*
X23460Y19310D02*
X25000D01*
X23460D02*
Y20500D01*
X24860D01*
Y19450D02*
Y20500D01*
X23600Y19450D02*
X24860D01*
X23600D02*
Y20360D01*
X24720D01*
Y19590D02*
Y20360D01*
X23740Y19590D02*
X24720D01*
X23740D02*
Y20220D01*
X24580D01*
Y19730D02*
Y20220D01*
X23950Y19730D02*
X24580D01*
X23950D02*
Y19800D01*
Y19940D01*
X24410Y17380D02*
X24630D01*
X24440Y19030D02*
X24510Y18960D01*
X23410Y17380D02*
Y17860D01*
X24510Y18960D01*
X27310Y22060D02*
X28410Y23160D01*
X27310Y21580D02*
Y22060D01*
X28340Y23230D02*
X28410Y23160D01*
X28310Y21580D02*
X28530D01*
X27850Y24000D02*
Y24140D01*
Y23930D02*
Y24000D01*
Y23930D02*
X28480D01*
Y24420D01*
X27640D02*
X28480D01*
X27640Y23790D02*
Y24420D01*
Y23790D02*
X28620D01*
Y24560D01*
X27500D02*
X28620D01*
X27500Y23650D02*
Y24560D01*
Y23650D02*
X28760D01*
Y24700D01*
X27360D02*
X28760D01*
X27360Y23510D02*
Y24700D01*
Y23510D02*
X28900D01*
Y24840D01*
X27220D02*
X28900D01*
X27220Y23370D02*
Y24840D01*
Y23370D02*
X29040D01*
Y24980D01*
X27080D02*
X29040D01*
X27080Y23370D02*
Y24980D01*
Y23230D02*
Y23370D01*
Y23230D02*
X28340D01*
X12620Y18070D02*
X14850D01*
X13450Y18770D02*
Y19260D01*
X14290D01*
Y18630D02*
Y19260D01*
X13310Y18630D02*
X14290D01*
X13310D02*
Y19400D01*
X14430D01*
Y18490D02*
Y19400D01*
X13170Y18490D02*
X14430D01*
X13170D02*
Y19540D01*
X14570D01*
Y18350D02*
Y19540D01*
X13030Y18350D02*
X14570D01*
X13030D02*
Y19680D01*
X14710D01*
Y18210D02*
Y19680D01*
X12890Y18210D02*
X14710D01*
X12890D02*
Y19820D01*
X14850D01*
Y18070D02*
Y19820D01*
X12930Y22450D02*
X15090D01*
X14330Y21260D02*
Y21750D01*
X13490Y21260D02*
X14330D01*
X13490D02*
Y21890D01*
X14470D01*
Y21120D02*
Y21890D01*
X13350Y21120D02*
X14470D01*
X13350D02*
Y22030D01*
X14610D01*
Y20980D02*
Y22030D01*
X13210Y20980D02*
X14610D01*
X13210D02*
Y22170D01*
X14750D01*
Y20840D02*
Y22170D01*
X13070Y20840D02*
X14750D01*
X13070D02*
Y22310D01*
X14890D01*
Y20700D02*
Y22310D01*
X12930Y20700D02*
X14890D01*
X12930D02*
Y22450D01*
X4770Y20700D02*
Y22450D01*
Y20700D02*
X6730D01*
Y22310D01*
X4910D02*
X6730D01*
X4910Y20840D02*
Y22310D01*
Y20840D02*
X6590D01*
Y22170D01*
X5050D02*
X6590D01*
X5050Y20980D02*
Y22170D01*
Y20980D02*
X6450D01*
Y22030D01*
X5190D02*
X6450D01*
X5190Y21120D02*
Y22030D01*
Y21120D02*
X6310D01*
Y21890D01*
X5330D02*
X6310D01*
X5330Y21260D02*
Y21890D01*
Y21260D02*
X6170D01*
Y21750D01*
X4770Y22450D02*
X6850D01*
X6690Y18070D02*
Y19820D01*
X4730D02*
X6690D01*
X4730Y18210D02*
Y19820D01*
Y18210D02*
X6550D01*
Y19680D01*
X4870D02*
X6550D01*
X4870Y18350D02*
Y19680D01*
Y18350D02*
X6410D01*
Y19540D01*
X5010D02*
X6410D01*
X5010Y18490D02*
Y19540D01*
Y18490D02*
X6270D01*
Y19400D01*
X5150D02*
X6270D01*
X5150Y18630D02*
Y19400D01*
Y18630D02*
X6130D01*
Y19260D01*
X5290D02*
X6130D01*
X5290Y18770D02*
Y19260D01*
Y18770D02*
X5870D01*
Y18980D01*
X4550Y18070D02*
X6690D01*
X13300Y27670D02*
X15450D01*
X14050Y28370D02*
Y28860D01*
X14890D01*
Y28230D02*
Y28860D01*
X13910Y28230D02*
X14890D01*
X13910D02*
Y29000D01*
X15030D01*
Y28090D02*
Y29000D01*
X13770Y28090D02*
X15030D01*
X13770D02*
Y29140D01*
X15170D01*
Y27950D02*
Y29140D01*
X13630Y27950D02*
X15170D01*
X13630D02*
Y29280D01*
X15310D01*
Y27810D02*
Y29280D01*
X13490Y27810D02*
X15310D01*
X13490D02*
Y29420D01*
X15450D01*
Y27670D02*
Y29420D01*
X4610Y29540D02*
X6570D01*
X4610Y27930D02*
Y29540D01*
Y27930D02*
X6430D01*
Y29400D01*
X4750D02*
X6430D01*
X4750Y28070D02*
Y29400D01*
Y28070D02*
X6290D01*
Y29260D01*
X4890D02*
X6290D01*
X4890Y28210D02*
Y29260D01*
Y28210D02*
X6150D01*
Y29120D01*
X5030D02*
X6150D01*
X5030Y28350D02*
Y29120D01*
Y28350D02*
X6010D01*
Y28980D01*
X5170D02*
X6010D01*
X5170Y28490D02*
Y28980D01*
X20600Y15270D02*
Y17895D01*
X18010D02*
X20600D01*
X18010Y15445D02*
Y17895D01*
Y15445D02*
X20460D01*
Y17755D01*
X18150D02*
X20460D01*
X18150Y15585D02*
Y17755D01*
Y15585D02*
X20320D01*
Y17615D01*
X18290D02*
X20320D01*
X18290Y15725D02*
Y17615D01*
Y15725D02*
X20180D01*
Y17475D01*
X18430D02*
X20180D01*
X18430Y15865D02*
Y17475D01*
Y15865D02*
X20040D01*
Y17335D01*
X18570D02*
X20040D01*
X18570Y16005D02*
Y17335D01*
Y16005D02*
X19900D01*
Y17195D01*
X18710D02*
X19900D01*
X18710Y16145D02*
Y17195D01*
Y16145D02*
X19760D01*
Y17055D01*
X18850D02*
X19760D01*
X18850Y16285D02*
Y17055D01*
Y16285D02*
X19620D01*
X19130Y9870D02*
X23530D01*
Y13860D01*
X19330D02*
X23530D01*
X19330Y10010D02*
Y13860D01*
Y10010D02*
X23390D01*
Y13720D01*
X19470D02*
X23390D01*
X19470Y10150D02*
Y13720D01*
Y10150D02*
X23250D01*
Y13580D01*
X19610D02*
X23250D01*
X19610Y10290D02*
Y13580D01*
Y10290D02*
X23110D01*
Y13440D01*
X19750D02*
X23110D01*
X19750Y10430D02*
Y13440D01*
Y10430D02*
X22970D01*
Y13300D01*
X19890D02*
X22970D01*
X19890Y10570D02*
Y13300D01*
Y10570D02*
X22830D01*
Y13160D01*
X20030D02*
X22830D01*
X20030Y10710D02*
Y13160D01*
Y10710D02*
X22690D01*
Y13020D01*
X20170D02*
X22690D01*
X20170Y10850D02*
Y13020D01*
Y10850D02*
X22550D01*
Y12880D01*
X20310D02*
X22550D01*
X20310Y10990D02*
Y12880D01*
Y10990D02*
X22410D01*
Y12740D01*
X20450D02*
X22410D01*
X20450Y11130D02*
Y12740D01*
Y11130D02*
X22270D01*
Y12600D01*
X20590D02*
X22270D01*
X20590Y11270D02*
Y12600D01*
Y11270D02*
X22130D01*
Y12460D01*
X20730D02*
X22130D01*
X20730Y11410D02*
Y12460D01*
Y11410D02*
X21990D01*
Y12320D01*
X20870D02*
X21990D01*
X20870Y11550D02*
Y12320D01*
Y11550D02*
X21850D01*
Y12180D01*
X21010D02*
X21850D01*
X21010Y11690D02*
Y12180D01*
D13*
X20710Y3130D02*
Y3810D01*
Y3130D02*
X22590D01*
X12870Y1810D02*
X13050D01*
X12870D02*
Y6310D01*
X14240Y3070D02*
Y3730D01*
Y3070D02*
X16110D01*
X8100Y3970D02*
Y4460D01*
Y3970D02*
X8370D01*
X1800Y3850D02*
Y4030D01*
Y3850D02*
X2730D01*
X14310Y10690D02*
Y11350D01*
Y10690D02*
X16170D01*
X7260D02*
Y11330D01*
Y10690D02*
X9150D01*
X2060D02*
Y11280D01*
Y10690D02*
X3930D01*
X690Y9430D02*
X950D01*
X690D02*
Y13930D01*
X23130Y6490D02*
X23790D01*
Y1930D02*
Y6490D01*
X19350Y1930D02*
X23790D01*
X19350D02*
Y6370D01*
X22430Y7210D02*
X23150Y6490D01*
X19350Y6370D02*
X23670D01*
Y2050D02*
Y6370D01*
X19470Y2050D02*
X23670D01*
X19470D02*
Y6250D01*
X23550D01*
Y2170D02*
Y6250D01*
X19590Y2170D02*
X23550D01*
X19590D02*
Y6130D01*
X23430D01*
Y2290D02*
Y6130D01*
X19710Y2290D02*
X23430D01*
X19710D02*
Y6010D01*
X23310D01*
Y2410D02*
Y6010D01*
X19830Y2410D02*
X23310D01*
X19830D02*
Y5890D01*
X23190D01*
Y2530D02*
Y5890D01*
X19950Y2530D02*
X23190D01*
X19950D02*
Y5770D01*
X23070D01*
Y2650D02*
Y5770D01*
X20070Y2650D02*
X23070D01*
X20070D02*
Y5650D01*
X22950D01*
Y2770D02*
Y5650D01*
X20190Y2770D02*
X22950D01*
X20190D02*
Y5530D01*
X22830D01*
Y2890D02*
Y5530D01*
X20310Y2890D02*
X22830D01*
X20310D02*
Y5410D01*
X22710D01*
Y3010D02*
Y5410D01*
X20430Y3010D02*
X22710D01*
X20430D02*
Y5290D01*
X22590D01*
Y3130D02*
Y5290D01*
X5910Y9430D02*
X6180D01*
X5910D02*
Y13930D01*
X9150Y10690D02*
Y12850D01*
X6990D02*
X9150D01*
X6990Y10570D02*
Y12850D01*
Y10570D02*
X9270D01*
Y12970D01*
X6870D02*
X9270D01*
X6870Y10450D02*
Y12970D01*
Y10450D02*
X9390D01*
Y13090D01*
X6750D02*
X9390D01*
X6750Y10330D02*
Y13090D01*
Y10330D02*
X9510D01*
Y13210D01*
X6630D02*
X9510D01*
X6630Y10210D02*
Y13210D01*
Y10210D02*
X9630D01*
Y13330D01*
X6510D02*
X9630D01*
X6510Y10090D02*
Y13330D01*
Y10090D02*
X9750D01*
Y13450D01*
X6390D02*
X9750D01*
X6390Y9970D02*
Y13450D01*
Y9970D02*
X9870D01*
Y13570D01*
X6270D02*
X9870D01*
X6270Y9850D02*
Y13570D01*
Y9850D02*
X9990D01*
Y13690D01*
X6150D02*
X9990D01*
X6150Y9730D02*
Y13690D01*
Y9730D02*
X10110D01*
Y13810D01*
X6030D02*
X10110D01*
X6030Y9610D02*
Y13810D01*
Y9610D02*
X10230D01*
Y13930D01*
X5910D02*
X10230D01*
X3930Y10690D02*
Y12850D01*
X1770D02*
X3930D01*
X1770Y10570D02*
Y12850D01*
Y10570D02*
X4050D01*
Y12970D01*
X1650D02*
X4050D01*
X1650Y10450D02*
Y12970D01*
Y10450D02*
X4170D01*
Y13090D01*
X1530D02*
X4170D01*
X1530Y10330D02*
Y13090D01*
Y10330D02*
X4290D01*
Y13210D01*
X1410D02*
X4290D01*
X1410Y10210D02*
Y13210D01*
Y10210D02*
X4410D01*
Y13330D01*
X1290D02*
X4410D01*
X1290Y10090D02*
Y13330D01*
Y10090D02*
X4530D01*
Y13450D01*
X1170D02*
X4530D01*
X1170Y9970D02*
Y13450D01*
Y9970D02*
X4650D01*
Y13570D01*
X1050D02*
X4650D01*
X1050Y9850D02*
Y13570D01*
Y9850D02*
X4770D01*
Y13690D01*
X930D02*
X4770D01*
X930Y9730D02*
Y13690D01*
Y9730D02*
X4890D01*
Y13810D01*
X810D02*
X4890D01*
X810Y9610D02*
Y13810D01*
Y9610D02*
X5010D01*
Y13930D01*
X690D02*
X5010D01*
X12930D02*
X17250D01*
Y9610D02*
Y13930D01*
X13050Y9610D02*
X17250D01*
X13050D02*
Y13810D01*
X17130D01*
Y9730D02*
Y13810D01*
X13170Y9730D02*
X17130D01*
X13170D02*
Y13690D01*
X17010D01*
Y9850D02*
Y13690D01*
X13290Y9850D02*
X17010D01*
X13290D02*
Y13570D01*
X16890D01*
Y9970D02*
Y13570D01*
X13410Y9970D02*
X16890D01*
X13410D02*
Y13450D01*
X16770D01*
Y10090D02*
Y13450D01*
X13530Y10090D02*
X16770D01*
X13530D02*
Y13330D01*
X16650D01*
Y10210D02*
Y13330D01*
X13650Y10210D02*
X16650D01*
X13650D02*
Y13210D01*
X16530D01*
Y10330D02*
Y13210D01*
X13770Y10330D02*
X16530D01*
X13770D02*
Y13090D01*
X16410D01*
Y10450D02*
Y13090D01*
X13890Y10450D02*
X16410D01*
X13890D02*
Y12970D01*
X16290D01*
Y10570D02*
Y12970D01*
X14010Y10570D02*
X16290D01*
X14010D02*
Y12850D01*
X16170D01*
Y10690D02*
Y12850D01*
X12930Y9430D02*
Y13930D01*
Y9430D02*
X13230D01*
X16110Y3070D02*
Y5230D01*
X13950D02*
X16110D01*
X13950Y2950D02*
Y5230D01*
Y2950D02*
X16230D01*
Y5350D01*
X13830D02*
X16230D01*
X13830Y2830D02*
Y5350D01*
Y2830D02*
X16350D01*
Y5470D01*
X13710D02*
X16350D01*
X13710Y2710D02*
Y5470D01*
Y2710D02*
X16470D01*
Y5590D01*
X13590D02*
X16470D01*
X13590Y2590D02*
Y5590D01*
Y2590D02*
X16590D01*
Y5710D01*
X13470D02*
X16590D01*
X13470Y2470D02*
Y5710D01*
Y2470D02*
X16710D01*
Y5830D01*
X13350D02*
X16710D01*
X13350Y2350D02*
Y5830D01*
Y2350D02*
X16830D01*
Y5950D01*
X13230D02*
X16830D01*
X13230Y2230D02*
Y5950D01*
Y2230D02*
X16950D01*
Y6070D01*
X13110D02*
X16950D01*
X13110Y2110D02*
Y6070D01*
Y2110D02*
X17070D01*
Y6190D01*
X12990D02*
X17070D01*
X12990Y1990D02*
Y6190D01*
Y1990D02*
X17190D01*
Y6310D01*
X12870D02*
X17190D01*
X6030Y2410D02*
X6270D01*
Y2290D02*
Y2410D01*
X8370Y3970D02*
Y4870D01*
X7470D02*
X8370D01*
X7470Y3850D02*
Y4870D01*
Y3850D02*
X8490D01*
Y4990D01*
X7350D02*
X8490D01*
X7350Y3730D02*
Y4990D01*
Y3730D02*
X8610D01*
Y5110D01*
X7230D02*
X8610D01*
X7230Y3610D02*
Y5110D01*
Y3610D02*
X8730D01*
Y5230D01*
X7110D02*
X8730D01*
X7110Y3490D02*
Y5230D01*
Y3490D02*
X8850D01*
Y5350D01*
X6990D02*
X8850D01*
X6990Y3370D02*
Y5350D01*
Y3370D02*
X8970D01*
Y5470D01*
X6870D02*
X8970D01*
X6870Y3250D02*
Y5470D01*
Y3250D02*
X9090D01*
Y5590D01*
X6750D02*
X9090D01*
X6750Y3130D02*
Y5590D01*
Y3130D02*
X9210D01*
Y5710D01*
X6630D02*
X9210D01*
X6630Y3010D02*
Y5710D01*
Y3010D02*
X9330D01*
Y5830D01*
X6510D02*
X9330D01*
X6510Y2890D02*
Y5830D01*
Y2890D02*
X9450D01*
Y5950D01*
X6390D02*
X9450D01*
X6390Y2770D02*
Y5950D01*
Y2770D02*
X9570D01*
Y6070D01*
X6270D02*
X9570D01*
X6270Y2650D02*
Y6070D01*
Y2650D02*
X9690D01*
Y6190D01*
X6150D02*
X9690D01*
X6150Y2530D02*
Y6190D01*
Y2530D02*
X9810D01*
Y6310D01*
X6030D02*
X9810D01*
X6030Y6250D02*
Y6310D01*
Y2410D02*
Y6250D01*
X510Y2890D02*
Y3010D01*
X270D02*
X510D01*
X270D02*
Y3130D01*
X2730Y3850D02*
Y5590D01*
X990D02*
X2730D01*
X990Y3730D02*
Y5590D01*
Y3730D02*
X2850D01*
Y5710D01*
X870D02*
X2850D01*
X870Y3610D02*
Y5710D01*
Y3610D02*
X2970D01*
Y5830D01*
X750D02*
X2970D01*
X750Y3490D02*
Y5830D01*
Y3490D02*
X3090D01*
Y5950D01*
X630D02*
X3090D01*
X630Y3370D02*
Y5950D01*
Y3370D02*
X3210D01*
Y6070D01*
X510D02*
X3210D01*
X510Y3250D02*
Y6070D01*
Y3250D02*
X3330D01*
Y6190D01*
X390D02*
X3330D01*
X390Y3130D02*
Y6190D01*
Y3130D02*
X3450D01*
Y6310D01*
X270D02*
X3450D01*
X270Y3130D02*
Y6310D01*
D15*
X28310Y15310D02*
D03*
X23410Y17380D02*
D03*
X24410D02*
D03*
X27310Y21580D02*
D03*
X28310D02*
D03*
X28190Y7270D02*
D03*
X22430Y7210D02*
D03*
D16*
X4520Y18060D02*
D03*
X13230Y9390D02*
D03*
X6180Y9370D02*
D03*
X20720Y3810D02*
D03*
X13120Y1780D02*
D03*
X14260Y3730D02*
D03*
X8120Y4460D02*
D03*
X1800Y4110D02*
D03*
X19130Y9870D02*
D03*
X21570Y11900D02*
D03*
X20610Y15270D02*
D03*
X7260Y11330D02*
D03*
X1000Y9390D02*
D03*
X12620Y18080D02*
D03*
X14020Y18990D02*
D03*
X15090Y22450D02*
D03*
X13720Y21530D02*
D03*
X5600Y21540D02*
D03*
X6850Y22480D02*
D03*
X13300Y27670D02*
D03*
X14650Y28570D02*
D03*
X4460Y27800D02*
D03*
X5790Y28700D02*
D03*
X27390Y12430D02*
D03*
X23950Y19940D02*
D03*
X27850Y24140D02*
D03*
X26370Y5050D02*
D03*
X2060Y11280D02*
D03*
X14320Y11350D02*
D03*
X6270Y2290D02*
D03*
X510Y2890D02*
D03*
X5870Y18980D02*
D03*
X19400Y16520D02*
D03*
D17*
X13590Y9310D02*
X15090D01*
X13370Y9090D02*
X13590Y9310D01*
X12630Y9090D02*
X13370D01*
X12630D02*
Y14230D01*
X6290Y9020D02*
X6580Y9310D01*
X5610Y9020D02*
X6290D01*
X5610D02*
Y14230D01*
X6580Y9310D02*
X8070D01*
X1170Y9020D02*
X1460Y9310D01*
X390Y9020D02*
X1170D01*
X390D02*
Y14230D01*
X1460Y9310D02*
X2850D01*
X5610Y14230D02*
X10530D01*
Y9310D02*
Y14230D01*
X8550Y9310D02*
X10530D01*
X390Y14230D02*
X5310D01*
Y9310D02*
Y14230D01*
X3330Y9310D02*
X5310D01*
X15570D02*
X17550D01*
Y14230D01*
X12630D02*
X17550D01*
D18*
X27390Y12430D02*
Y12850D01*
X27210D02*
X27390D01*
X26490D02*
X27210D01*
X26490Y11410D02*
Y12850D01*
Y11410D02*
X28290D01*
Y13270D01*
X26490D02*
X28290D01*
X26070D02*
X26490D01*
X26070Y10990D02*
Y13270D01*
Y10990D02*
X28770D01*
Y13750D01*
X25470D02*
X28770D01*
X25470Y10450D02*
Y13750D01*
Y10450D02*
X29190D01*
Y14230D01*
X25470D02*
X29190D01*
X25470D02*
Y14410D01*
X26370Y15310D01*
X28310D01*
X26250Y7270D02*
X28190D01*
X25350Y6370D02*
X26250Y7270D01*
X25350Y6190D02*
Y6370D01*
Y6190D02*
X29070D01*
Y2410D02*
Y6190D01*
X25350Y2410D02*
X29070D01*
X25350D02*
Y5710D01*
X28650D01*
Y2950D02*
Y5710D01*
X25950Y2950D02*
X28650D01*
X25950D02*
Y5230D01*
X26370D01*
Y5050D02*
Y5230D01*
M02*
