%FSLAX24Y24*%
%MOIN*%
G70*
G01*
G75*
G04 Layer_Color=8388736*
%ADD10R,0.0520X0.0385*%
%ADD11R,0.0385X0.0520*%
%ADD12C,0.0070*%
%ADD13C,0.0060*%
%ADD14C,0.0060*%
%ADD15C,0.0591*%
%ADD16C,0.0250*%
%ADD17C,0.0250*%
%ADD18C,0.0200*%
%ADD19C,0.0080*%
%ADD20C,0.0079*%
%ADD21C,0.0050*%
%ADD22R,0.0560X0.0425*%
%ADD23R,0.0425X0.0560*%
%ADD24C,0.0631*%
%ADD25C,0.0290*%
D22*
X17310Y20050D02*
D03*
Y20675D02*
D03*
Y18490D02*
D03*
Y19115D02*
D03*
X21030Y16390D02*
D03*
Y15765D02*
D03*
Y17950D02*
D03*
Y17325D02*
D03*
X18510Y28750D02*
D03*
Y29375D02*
D03*
Y27190D02*
D03*
Y27815D02*
D03*
X21030Y24190D02*
D03*
Y23565D02*
D03*
Y25750D02*
D03*
Y25125D02*
D03*
D23*
X25050Y15250D02*
D03*
X25675D02*
D03*
X26610D02*
D03*
X27235D02*
D03*
X27810Y9310D02*
D03*
X27185D02*
D03*
X29370D02*
D03*
X28745D02*
D03*
X27810Y18490D02*
D03*
X27185D02*
D03*
X29370D02*
D03*
X28745D02*
D03*
X29370Y22690D02*
D03*
X28745D02*
D03*
X27810D02*
D03*
X27185D02*
D03*
X29430Y26830D02*
D03*
X28805D02*
D03*
X27870D02*
D03*
X27245D02*
D03*
X29250Y1270D02*
D03*
X28625D02*
D03*
X27690D02*
D03*
X27065D02*
D03*
X26490Y7210D02*
D03*
X27115D02*
D03*
X24930D02*
D03*
X25555D02*
D03*
X24030Y22630D02*
D03*
X23405D02*
D03*
X25590D02*
D03*
X24965D02*
D03*
X25590Y26830D02*
D03*
X24965D02*
D03*
X24030D02*
D03*
X23405D02*
D03*
X19170Y7150D02*
D03*
X19795D02*
D03*
X20730D02*
D03*
X21355D02*
D03*
X21930Y1210D02*
D03*
X21305D02*
D03*
X23490D02*
D03*
X22865D02*
D03*
X2910Y2290D02*
D03*
X2285D02*
D03*
X1350D02*
D03*
X725D02*
D03*
X17070Y1150D02*
D03*
X16445D02*
D03*
X15510D02*
D03*
X14885D02*
D03*
X9990Y1750D02*
D03*
X9365D02*
D03*
X8430D02*
D03*
X7805D02*
D03*
X17250Y8410D02*
D03*
X16625D02*
D03*
X15690D02*
D03*
X15065D02*
D03*
X10170Y8350D02*
D03*
X9545D02*
D03*
X8610D02*
D03*
X7985D02*
D03*
X4770Y8410D02*
D03*
X4145D02*
D03*
X3210D02*
D03*
X2585D02*
D03*
X23490Y9310D02*
D03*
X22865D02*
D03*
X21930D02*
D03*
X21305D02*
D03*
X15150Y17590D02*
D03*
X14525D02*
D03*
X11190Y17530D02*
D03*
X10565D02*
D03*
X9630D02*
D03*
X9005D02*
D03*
X13590Y17590D02*
D03*
X12965D02*
D03*
X8550Y22990D02*
D03*
X9175D02*
D03*
X10110D02*
D03*
X10735D02*
D03*
X14190Y22930D02*
D03*
X14815D02*
D03*
X12630D02*
D03*
X13255D02*
D03*
X4470D02*
D03*
X5095D02*
D03*
X6030D02*
D03*
X6655D02*
D03*
X1950Y22990D02*
D03*
X2575D02*
D03*
X390D02*
D03*
X1015D02*
D03*
X6990Y17590D02*
D03*
X6365D02*
D03*
X5430D02*
D03*
X4805D02*
D03*
X1470Y17530D02*
D03*
X845D02*
D03*
X3030D02*
D03*
X2405D02*
D03*
X11310Y27130D02*
D03*
X10685D02*
D03*
X9750D02*
D03*
X9125D02*
D03*
X14190Y27190D02*
D03*
X13565D02*
D03*
X15750D02*
D03*
X15125D02*
D03*
X6870Y27310D02*
D03*
X6245D02*
D03*
X5310D02*
D03*
X4685D02*
D03*
X1050Y27190D02*
D03*
X425D02*
D03*
X2610D02*
D03*
X1985D02*
D03*
D24*
X16200Y20550D02*
D03*
Y19550D02*
D03*
X29310Y15310D02*
D03*
X28310D02*
D03*
X25110Y9250D02*
D03*
X26110D02*
D03*
X23410Y17380D02*
D03*
X24410D02*
D03*
X27310D02*
D03*
X28310D02*
D03*
X27310Y21580D02*
D03*
X28310D02*
D03*
X27370Y25720D02*
D03*
X28370D02*
D03*
X24990Y1210D02*
D03*
X25990D02*
D03*
X29190Y7270D02*
D03*
X28190D02*
D03*
X23530Y21520D02*
D03*
X24530D02*
D03*
X23530Y25720D02*
D03*
X24530D02*
D03*
X23430Y7210D02*
D03*
X22430D02*
D03*
X19230Y1150D02*
D03*
X20230D02*
D03*
X850Y1180D02*
D03*
X1850D02*
D03*
X12810Y1090D02*
D03*
X13810D02*
D03*
X5730Y1690D02*
D03*
X6730D02*
D03*
X12990Y8350D02*
D03*
X13990D02*
D03*
X5910Y8290D02*
D03*
X6910D02*
D03*
X510Y8350D02*
D03*
X1510D02*
D03*
X22140Y15890D02*
D03*
Y16890D02*
D03*
X17400Y29250D02*
D03*
Y28250D02*
D03*
X19230Y9250D02*
D03*
X20230D02*
D03*
X21090Y21490D02*
D03*
Y22490D02*
D03*
X9130Y16420D02*
D03*
X10130D02*
D03*
X13090Y16480D02*
D03*
X14090D02*
D03*
X10610Y24100D02*
D03*
X9610D02*
D03*
X14690Y24040D02*
D03*
X13690D02*
D03*
X6530D02*
D03*
X5530D02*
D03*
X2450Y24100D02*
D03*
X1450D02*
D03*
X4930Y16480D02*
D03*
X5930D02*
D03*
X970Y16420D02*
D03*
X1970D02*
D03*
X9250Y26020D02*
D03*
X10250D02*
D03*
X13690Y26080D02*
D03*
X14690D02*
D03*
X4810Y26200D02*
D03*
X5810D02*
D03*
X550Y26080D02*
D03*
X1550D02*
D03*
D25*
X24150Y24100D02*
D03*
X4520Y18060D02*
D03*
X13230Y9390D02*
D03*
X6180Y9370D02*
D03*
X27490Y12040D02*
D03*
X20720Y3810D02*
D03*
X13120Y1780D02*
D03*
X14260Y3730D02*
D03*
X8120Y4460D02*
D03*
X1800Y4110D02*
D03*
X19130Y9870D02*
D03*
X21570Y11900D02*
D03*
X20610Y15270D02*
D03*
X19100Y16770D02*
D03*
X7260Y11330D02*
D03*
X2330Y10960D02*
D03*
X1000Y9390D02*
D03*
X12620Y18080D02*
D03*
X14020Y18990D02*
D03*
X15090Y22450D02*
D03*
X13720Y21530D02*
D03*
X5520Y18980D02*
D03*
X5600Y21540D02*
D03*
X6850Y22480D02*
D03*
X24200Y28320D02*
D03*
X20250Y28280D02*
D03*
X13300Y27670D02*
D03*
X14260Y28580D02*
D03*
X14650Y28570D02*
D03*
X4460Y27800D02*
D03*
X5790Y28700D02*
D03*
X18760Y20010D02*
D03*
X27390Y12430D02*
D03*
X26610Y14710D02*
D03*
X23950Y19940D02*
D03*
X27850D02*
D03*
Y24140D02*
D03*
X27910Y28280D02*
D03*
X26370Y5050D02*
D03*
X26550Y3530D02*
D03*
X26490Y6670D02*
D03*
X20730Y6610D02*
D03*
X21050Y3420D02*
D03*
X7540Y10980D02*
D03*
X2060Y11280D02*
D03*
X14640Y10970D02*
D03*
X14320Y11350D02*
D03*
X14550Y3360D02*
D03*
X6270Y2290D02*
D03*
X7850Y4210D02*
D03*
X510Y2890D02*
D03*
X1290Y4030D02*
D03*
X13670Y18990D02*
D03*
X9670Y18980D02*
D03*
X10070Y21540D02*
D03*
X14120D02*
D03*
X5960D02*
D03*
X1910D02*
D03*
X1510Y18980D02*
D03*
X5870D02*
D03*
X9880Y28580D02*
D03*
X1150Y28640D02*
D03*
X5380Y28700D02*
D03*
X19400Y16520D02*
D03*
X18500Y23480D02*
D03*
X21220Y11900D02*
D03*
M02*
