M48
;Layer_Color=9474304
;FILE_FORMAT=2:3
INCH,LZ
;TYPE=PLATED
T1F00S00C0.010
T2F00S00C0.020
T3F00S00C0.024
T4F00S00C0.025
T5F00S00C0.035
T6F00S00C0.037
T7F00S00C0.039
T8F00S00C0.043
T9F00S00C0.055
T10F00S00C0.056
T11F00S00C0.065
T12F00S00C0.069
T13F00S00C0.087
T14F00S00C0.110
T15F00S00C0.125
T16F00S00C0.128
%
T01
X04686Y07628
X04725
X04804
X04844
X04883Y07628
X04922Y07628
X04961Y07628
X05001Y07629
X0504Y07628
X0508
X05119Y07628
X05158Y07628
X05198Y07628
X05237Y07627
X05276Y07628
X05315Y07627
X05355Y07628
X05394Y07627
X05435Y07628
X05473Y07627
X05513Y07627
X05552Y07626
X05591Y07628
X05631Y07627
X0567Y07627
X05709Y07628
X05749Y07628
X05788Y07628
X05828Y07627
X05867Y07628
X05906Y07627
X05946Y07628
X05985Y07628
X06024Y07628
X06064Y07628
X06103Y07628
X06143Y07627
X06182Y07628
X06221Y07627
Y07797
X06182Y07799
X06143Y07799
X06103Y078
X06064Y078
X06024Y078
X05985Y078
X05946Y078
X05906Y078
X05867Y078
X05788Y078
X05749Y078
X05709Y078
X0567Y078
X05631Y078
X05591Y078
X05552Y078
X05513Y078
X05473Y078
X05394Y07783
X05355Y07783
X05316Y07783
X05276Y07783
X05237Y07783
X05198Y07783
X05158Y07783
X05119Y07783
X0508Y07783
X05001Y07799
X04961Y078
X04922Y078
X04883Y078
X04917Y06635
X04941Y06654
X0498
X04962Y06635
X05001
X0502Y06654
X0504Y0662
X05065Y06635
X0535Y0674
X05837Y06644
X05862Y06656
X05882Y06643
X05902Y06656
X05921Y06645
X05941Y06656
X0596Y06645
X05985Y06646
X06035Y06745
X06065
X06043Y06921
X06073Y06983
Y07022
X06095Y07042
Y07079
Y07115
Y07154
X06055Y07185
X05957Y07214
X0586Y07185
X05751Y07135
X05742Y06937
X05832Y06983
X0587Y0692
X06214Y07235
X06261Y07628
X063Y0763
X06261Y078
X0652Y07799
X06559Y078
X06598Y078
X06638Y07799
X06677Y07799
X06756Y078
X06795Y078
X06834Y078
X06913Y078
X06953Y07799
X06992Y078
X07031Y078
X07071Y078
X0711Y078
X07149Y07799
X07189Y078
X07228Y078
X07268Y078
X07307Y078
X07346Y078
X07464Y078
X07504Y078
X07543Y078
X07583Y078
X07622Y078
X0766Y078
X07701Y078
X07805Y07745
X0774Y07628
X07701
X07661Y07628
X07622Y07628
X07583Y07627
X07543Y07629
X07504Y07628
X07464Y07627
X07425Y07628
X07386Y07628
X07346Y07628
X07307Y07628
X07268Y07627
X07228Y07627
X0719Y07628
X07149Y07626
X0711Y07627
X07071Y07627
X07031Y07628
X06992Y07628
X06953Y07627
X06913Y07627
X06874Y0763
X06834Y07628
X06795Y0763
X06756Y07628
X06716Y07628
X06677Y07628
X06638Y07627
X06598Y07628
X06559Y07627
X0652Y07627
X0658Y07487
X06768Y0741
X06883Y07094
X07016Y07144
X07113Y07173
X07211Y07144
X07251Y07113
Y07074
Y07038
Y07001
X07229Y06981
Y06942
X07199Y0688
X07026Y06879
X06988Y06942
X06898Y06895
X06882Y06669
X06862Y06654
X06901
X06921Y06668
X06941Y06654
X0696Y06669
X06985Y06669
X06837Y06669
X07191Y06704
X07221
X07721Y06827
X07765Y06856
X07765Y0654
X0737Y07194
X08047Y07163
X08095Y07187
X0807Y0741
X0803Y07501
X08169Y07508
X08244Y07484
X08287Y07516
X08311Y07571
X08327Y07591
X08416Y07511
X08406Y07479
X0837Y07727
X0826Y07711
X08227Y07724
X08121Y07707
X08499Y07744
X08527Y0766
X08612Y07764
X08637Y07755
X08676Y07708
X08699Y07682
X08717Y07726
X08757Y07687
X08869Y07736
X08954Y07588
X08974Y07605
X09033Y07624
X09072Y07636
X09094Y07523
X09053Y07504
X08918Y0752
X08923Y07553
X08891Y07505
X08821Y07363
X08727Y07362
X08539Y07243
X08589Y07127
X08633Y07033
X08681Y06961
X08819Y06964
X08796Y06991
X08697Y06811
Y06765
Y06731
X08706Y06647
X08737
X08812Y06661
X08871Y06658
X08854Y06641
X08839Y06623
X08905Y06627
X08918Y06606
X08962Y06647
X08956Y0671
X0897Y0674
X09003Y06788
X09094Y06721
X09072Y06664
X09053Y06623
X09023Y06623
X08995Y0659
X08969Y06496
X09028Y06499
X09114Y06493
X09092Y06456
X08947Y0645
X08812Y06561
X08763Y06579
X0865Y06608
X08609Y06627
X08628Y06662
X08575Y06602
X08553Y06817
X08482Y06923
X0846Y0696
X08431Y06996
X08396Y06764
X08412Y06737
X08268Y06852
X0812Y06836
X08095Y0692
X0785Y06838
X09336Y06803
X0936Y07074
X09726Y07136
X09822Y07165
X09921Y07136
X09961Y07105
Y07066
Y0703
Y06993
X09939Y06973
Y06934
X09909Y06872
X09736Y06871
X09698Y06934
X09607Y06887
X09901Y06696
X09931
X09961Y06634
X0998Y06646
X1Y06657
X10039Y06618
X10063Y06626
X10142Y06618
X10134Y0665
X10165Y06681
X1013Y06587
X10244Y06618
X10272
X10303
X10335
X10402Y06614
X1039Y06579
X10392Y06488
X10356Y06499
X10433Y06477
X10468Y06468
X10494Y06461
X10521Y06456
X10528Y06618
X105
X10555Y0663
X10583Y06642
X10728Y06634
X10758
X10787
X10817Y06643
X10846Y06644
X10866Y06663
X10886Y06683
X10906Y06703
X10425Y06681
X10413Y0665
X10057Y06459
X10045Y06366
X10026Y0635
X10008Y06366
X1008Y07186
X10075Y07628
X10036
X09997
X09958
X09918
X09879
X0984
X098Y0763
X09761Y07628
X09721
X09682
X09643
X09603Y0763
X09564
X09485
X09445Y07628
X09643Y0779
X09682
X09721
X09761
X09839
X09879
X09918
X09958
X09997
X10036
X10076
X10115
X10155
X10234
X10273
X10312
X10352
X10391
X1043
X10469
X10509
X10548
X10627Y07791
X10667Y0779
X10706
X10745
X10785
X10824
X10863Y0779
X10903Y0779
Y07628
X10863
X10824
X10785
X10745
X10706
X10667
X10627
X10588
X10548
X10509
X1047
X1043
X10391
X10352
X10312
X10273
X10233
X10195
X10154
X10115
X10674Y07282
X1104Y07152
X11021Y07628
X10982
X10942
Y0779
X10981
X11021
X11068Y07764
X1128Y07785
X11319
X11359
X11398
X11437
X11477
X11516
X11555
X11595
X11673
X11713
X11752
X11791
X11831Y07783
X1187Y07785
X11909
X11949
X11988
X12027
X12067
X12106
X12185
X12225
X12264
X12303
X12343
X12382
X1242
X12461
Y07628
X12421
X12382
X12343
X12303
X12264
X12225
X12185
X12146Y0763
X12106Y07628
X12067
X12027
X11988
X1195
X11909
X1187
X11831
X11791
X11752
X11713
X11673
X11634Y0763
X11594Y07628
X11555
X11516
X11476
X11437
X11398
X11358
X11319
X1128Y07627
X11756Y07421
X11741Y07174
X11584Y0721
X11533Y07001
X11576Y06901
X11412Y069
X11413Y06839
X11386Y06823
X11358Y06807
X11335Y06791
X11307Y06776
X1128Y0676
X11252Y0674
X11197Y06717
X11201Y06663
X11161
X11122
X11087Y06654
X11063Y06638
X11039Y06622
X11014Y06604
X11001Y06521
X11001Y06493
X10986Y06475
Y06451
X1124Y06483
X11272Y0649
X11263Y06515
X11316Y06471
X11335Y0646
X11368Y06461
X11522Y06588
X11486Y0673
X11441Y06858
X11677Y06681
X11657Y06646
X1172
X11744Y06685
X11941Y06677
X11953Y06701
X11965Y06728
X1203Y06722
X12051Y06831
X12087Y0685
X12081Y06948
X12047Y07047
X12085Y07098
X12205Y0685
X12228Y0685
X12252
X12276
X12299
X12327
X12354
X12382
X12409
X12437
X12465Y0685
X12492
X1247Y06715
X12455Y06654
X12479Y06641
X12408Y06653
X12382Y06643
X12344Y06642
X12356Y06712
X12392Y06716
X12276Y06712
X12226Y06644
X12189Y06644
X1223Y065
X1227Y06491
X12301Y06484
X12464Y065
X12495
X11962Y06524
X11917Y06594
X11925Y06622
X11933Y0665
X1183Y06954
X1176Y06965
X12225Y07342
X12565Y0725
X12598Y07272
X12699Y07146
X12768Y07027
X12775Y06965
X12674
X12572Y0689
X12549Y0689
X12525Y06889
X12502Y06888
X12509Y06914
X1261Y06843
X1258Y06708
X12581Y06644
X12502Y06641
X12525Y065
X12556
X12591
X12624
X12639Y0658
X12713Y06606
X12732Y06628
X1293Y06521
X1284Y06914
X12987Y07065
X12938Y0716
X12505Y0763
X1251Y08102
X12632Y081
X1262Y08075
X12607Y08049
X12649Y08127
X12648Y08204
X12669Y083
X1267Y08373
X125Y08353
X12525Y08568
X12626Y08784
X12646Y08796
X12619Y08861
X1274Y0894
X1275Y09296
X12697Y0932
X12728Y0937
X12901Y08101
X12453Y08389
X12435Y08372
X12214Y08424
X12056Y08514
X1199Y08833
X12008Y0889
X11839Y08885
X11675Y08949
X11575Y08902
X11513Y08977
X1151Y09024
X11511Y0905
X11527Y09073
X11527Y09097
X11535Y09152
X11512Y09167
Y09205
X11511Y09237
X11535Y09226
Y09193
X11573Y092
X11579Y09158
X11557Y09246
X11555Y09281
X11535Y09262
X11511Y09286
X11524Y09317
X115Y09321
X11468Y09362
X11394
X11358Y09367
X11377Y09293
X11355Y0924
Y092
Y0916
Y0912
X11315
X11275
X11235
Y0916
X11275
X11315
Y092
X11275
X11235
Y0924
X11275
X11315
X114
Y092
Y0916
Y0912
X11414Y0907
X11306Y09067
X11247Y09066
X11205Y09067
X11118Y09102
X11075
Y09132
X11059Y0915
X11043Y09222
X11028Y0924
X1106Y09286
X1106Y09308
Y09336
Y09361
X10946Y09337
X10948Y09242
X10962Y09149
X10994Y09103
X10992Y0897
X10961Y08972
X11041Y08969
X1126Y08868
X11398Y08878
X11401Y0895
X11436
X1147Y08992
X1147Y0881
X11476Y08783
X11555
X11633Y0878
X11715Y08717
X11393Y08807
X11339Y0863
X11299Y08543
X11107
X11032Y08567
X11036Y08628
X11001
X10966
X10979Y08441
X1117Y08223
X1114Y08166
X11307Y08245
X11691Y08076
X11829Y09114
X12026Y09154
X12046Y09172
X12214Y08913
X12231Y08892
X12303Y08882
X12323Y08852
X12358Y08902
X12338Y08924
X11112Y09242
X11122Y09274
X11213Y0937
X10917Y09338
X10937Y09281
X10915Y09243
X1093Y09149
X10824Y09286
X10823Y09338
X10764Y09314
X10608Y09278
X10565Y09269
X10564Y09361
X10539
X10503Y09311
X10423Y09291
X10394Y09272
X10354
X10315
X10276
X10243
X10256Y09301
X10295
X10335
X10374
X1026Y0936
X10234Y09361
X10194Y0931
X10169Y09295
X10152Y09273
X10153Y09227
X10156Y09196
X10172Y09061
X10183Y09039
X10195Y09016
X10207Y0899
X10268Y08988
X10338Y09036
X10358Y09031
X10402Y09039
Y09075
X10403Y09111
X10358
X10323Y0915
X10412Y09154
X10402Y09
X10439Y08993
X10476Y08954
X10474Y0891
X10496Y08909
X10494Y08825
X10475Y0878
X1056Y08684
X10618Y08603
X1066Y08828
X1093Y08775
X10614Y09156
X09992Y09156
X09934Y09117
X09918Y09184
X099Y0917
X09871Y09151
X09845Y09152
X09788Y09118
X09759Y09065
Y09036
X09748Y08986
X09722Y08988
X09697Y08987
X09645Y08988
X09658Y08895
X09635Y0888
X09611
X09567Y08899
X09528Y08878
X09547Y088
X09587Y0874
X0962Y08731
X09669Y08732
X09677Y08638
X09709Y08622
X09748Y08639
X09791Y08622
X09823
X09816Y08561
X09752
X09648Y08566
X09621
X09594Y0864
X09509Y08644
X09429Y08494
X09606Y08444
X09653Y08465
X09606Y0833
X09582Y08319
X09566Y08283
X09646Y08267
X09636Y08176
X09567Y08137
X09542Y08209
X09511Y08208
X09397Y08042
X09802Y0804
X09818Y08178
X09895Y08175
X09955Y08137
X09931Y08268
Y08297
Y08327
X09919Y08405
X09958Y08394
X09983Y08373
X10016Y0832
X1002Y08278
X10207
X10197Y08307
X10187Y08337
X10177Y08366
X10188Y08397
X10246Y08396
X10256Y08366
X10266Y08337
X10276Y08307
X10285Y08278
X10285Y08169
X10228Y08166
X10236Y08067
X10203Y08066
X10133Y0804
X10463Y08065
X10439Y08277
X10276Y08445
X10246Y08465
X10217Y08484
X10187Y08504
X10217Y08573
X10197Y08593
X10177Y08612
X10236Y08553
X10256Y08533
X10276Y08514
X10232Y08731
X10219Y0875
X10204Y08768
X10187Y08784
X10171Y08802
X10015Y08835
X09975Y08802
X09993Y08782
X10011Y08761
X10028Y08738
X09978Y0874
X09961Y08619
X09939Y08604
X09901Y0864
X10055Y08633
X10055Y08987
X09978Y08988
X09951Y09009
X09968Y09038
X09984Y09061
X09884Y09063
X09892Y0904
X09902Y08986
X09824
X09746Y08832
X0976Y08813
X09393Y08819
X09376Y08999
X09506
X09515Y09067
X09605Y0906
X09614Y0918
X09646Y09188
X09678Y09196
X09712Y09205
X09722Y09358
X09697Y09358
X09646Y09357
X0962Y09356
X09748Y09359
X09772Y09354
X09795
X09824Y09358
X0985Y09354
X09874
X09901Y09359
X09925Y09346
X10004Y09358
X10055Y09355
X10123Y09358
X09812Y08422
X09754Y08356
Y08326
Y08297
X09748Y08267
X09825Y08269
X10606Y07844
X09271Y07971
X09135Y08014
X0913Y08171
X0917Y0821
X09209
X09248Y08211
X0926Y08268
X09169Y0825
X0913
X09091
Y08289
Y08328
X09052
X09013Y08327
X09014Y08366
X09051Y08368
X09091Y08367
Y08407
X0913
Y08447
X09131Y08485
X09169Y08486
X0917Y08525
Y08564
X0913
Y08526
X0909
Y08487
X09052Y08486
Y08525
X09051Y08565
Y08604
X09013Y08603
X09012Y08565
X08973Y08565
X08973Y08526
X08974Y08485
X08972Y08448
X08932
X08894Y08447
X08896Y08484
X08934Y08485
X08932Y08527
X08935Y08563
X08894Y08525
X08856Y08485
Y08445
X08855Y08407
X08777Y08406
Y08367
X08737Y08366
Y08328
Y08289
X08736Y0825
X08699Y08248
Y08287
Y08327
X08698Y08367
X08659Y08366
X08657Y08329
X0862Y08325
Y08285
Y08245
Y0821
X08658
X08659Y08248
Y08288
Y08406
X08698Y08407
X08737
X08739Y08447
X08738Y08485
X08697Y08486
Y08447
X08657
X08658Y08485
X0862
Y08525
X08658
X08698Y08524
X08736Y08526
X08737Y08564
X087Y086
X0866
X08657Y08565
X0862
Y0864
Y0868
Y0872
Y0876
X0854
Y0872
Y0868
Y0864
Y086
Y08565
X08504
X08503Y08526
X0854Y08525
X0854Y08486
X08503Y08487
X08464
X08463Y08526
X08424
X08385
Y08486
X08346Y08487
X08345Y08526
X08305Y08525
X08306Y08486
X08304Y08447
X08344Y08445
X08383Y08446
Y08407
X08385Y08369
X08346
X08345Y08329
Y0829
Y0825
X08307Y08251
X08305Y08289
X08266
Y0825
X08227
Y08211
X08188
X08186Y08249
X08148Y0825
X08109
X08069
X08031Y08251
X07992
X07991Y0829
Y0833
X0799Y08368
X07951
X07912
Y08328
X07952Y08329
X07953Y08287
X07952Y0825
X07991Y08211
X08031Y08209
X0803Y08171
Y08132
X0807
Y08172
X08109Y08171
X0811Y08133
X08147Y08131
X08186
X08187Y08171
X08148
Y0821
X08108
X0807Y08212
Y0829
Y08327
X08108Y08328
X08148
X08187
X08226
X08227Y0829
X08188
X08149
X0811
X08109Y08368
X08069Y08367
X0803
X08031Y08329
X08032Y08291
X08031Y08408
X0807
X0811
X08149
Y08369
Y08447
X08187Y08446
X08227Y08447
Y08407
X08228Y08369
X08267
Y08408
Y08329
X08305Y08328
X08306Y08368
X08384Y08328
Y08289
X08385Y08251
X08385Y08212
X08347Y08213
X08345Y08171
X08305
X08267Y08172
X08268Y08212
X08227Y08171
Y08132
X08265Y08131
X08305
X08385Y08133
X08424Y08132
X08463
X085Y08131
X0854Y0813
Y0817
X08502Y08171
X08464Y08172
X08425
X08386
X08425Y08212
X08463Y08211
Y0825
X08502
X08501Y08288
X08463Y08289
X08424Y08289
X08425Y08251
X08423Y08328
X08463
X08501Y08327
X0854Y08325
X08541Y08288
X0854Y08249
Y0821
X08503Y08211
X08502Y08368
X08503Y08408
X08502Y08446
X0854Y08445
Y08405
Y08365
X08424Y08368
X08462Y08407
X08461Y08445
X08425Y08485
X08424Y08565
X08463
Y08604
X08424Y08605
X08385
Y08566
Y08644
X08345Y08643
X08346Y08605
X08306Y08604
X08306Y08644
X08267
Y08684
X08266Y08722
X08265Y0876
Y088
Y0884
X08305
X08345
X08385
X08425
X08465
X085
Y0888
X0854
Y0892
Y08955
Y08995
Y09035
Y09075
Y09115
Y09155
Y09195
Y09235
Y09275
Y0931
Y0935
X085
X08465
Y0931
X085
Y0927
Y09235
Y09195
Y09155
X0846
X08425
Y0919
X08387
X08384Y09154
X08344
X08346Y09191
X08306Y09192
Y09232
X08344Y09233
X08345Y09271
X08306
Y0931
X08346
X08385
Y09271
X08384Y09232
X08425Y0923
X08465
Y0919
Y0927
X08425
Y0931
X08424Y0935
X08384
X08345
X08305
X08266
X08265Y09312
X08227Y09311
X08187
X08188Y0935
X0815
X08147Y09312
X08148Y09272
X08188Y09271
X08187Y09233
X08226
X08266Y09232
Y09272
X08268Y0919
X08266Y09153
X08228Y09152
X08227Y09114
X08266
X08265Y09075
X0823
X0819
Y09035
X08226Y09036
X0815Y09035
X0811
Y08995
Y08955
X0815
X0819
Y08915
X08185Y0888
Y0884
X08225
Y0888
X08265
X08305
Y08955
X08265
X08344Y08958
X08344Y08997
X08385Y08995
X08425
X08461Y08997
X0846Y09035
X08425
Y09075
X0846
X085
Y09035
Y08995
Y0892
X0846
X08425
Y0888
X0846
X08385
Y0892
Y08955
X08345Y08915
Y0876
X08385
Y0872
Y08685
X08424Y08683
X08425Y0872
X08465
X08464Y08684
X08503Y08684
X085Y08724
Y0876
X08425Y0876
X08305Y08722
X08306Y08683
X08188
X08189Y0872
X08226Y08722
X08225Y0876
X08185
X0815Y08765
X08146Y08799
X08145Y0884
X08105
X0807
X08069Y08877
X08071Y08915
X0811
Y0888
X08145
X0815Y08915
Y08995
X0807
Y09035
X0803
X07991
X0799Y09075
Y09114
X07952Y09113
Y09153
Y09192
X0799Y09193
X07991Y09232
X0803Y09233
Y0927
Y0931
Y0935
X0799
X0807Y0931
X08069Y09272
Y09193
X08031Y09192
X0803Y09154
X08068Y09155
Y09115
X0807Y09075
X0811
X0815
X08149Y09113
X08187Y09114
X08186Y09154
X08148
X08109Y09192
X08187Y09193
X08227
X08305Y09075
X08345
X08384
X08385Y09113
X08425Y09115
X08383Y09037
X0862Y09035
X08658
X08659Y08997
X08659Y08959
X0862Y0896
Y08995
Y09075
Y09115
X08659Y09115
X08659Y09154
X08657Y09192
X0862Y09195
Y09155
Y09235
Y09275
Y0931
X08657
Y09271
X08697
X08698Y09311
X08696Y0935
X08658
X0862
X08737Y09351
X08776Y0935
X08815
X08816Y09313
X08777Y09312
X08775Y09271
X08776Y09233
X08817Y09232
X08816Y09193
X08815Y09153
X08816Y09115
X08854Y09114
X08893Y09113
Y09191
X08933Y09192
X08972
X0901
X09012Y09154
X09013Y09233
X09014Y0927
X09051Y09271
X0909
X09091Y09311
X09053Y09312
X09053Y09351
X09012Y0935
X08973Y0935
X08934Y09351
X08933Y09311
X08894
X08895Y09272
X08894Y09232
X08932Y09231
X08973Y09232
X08972Y09272
X09051Y09232
X09092Y09193
X09053Y09114
X09091Y09036
X09092Y08997
X0913Y08996
Y08957
X0909Y08956
X09091Y08918
X09052Y08918
X09055Y0888
X09015
X08975
X08935
Y0884
X08895
X08855
X08775Y08877
X08737Y08878
X087Y0884
X0866
X0862Y0888
X08615Y08915
X08655
X08695
X087Y0896
X08699Y08998
X08698Y09037
Y09076
Y09115
X087Y09156
X08697Y09193
X08696Y09231
X08659Y09233
X08738Y09273
X08776Y09155
X08739Y09117
X08776Y09075
X08815Y09074
X08818Y09038
X08817Y08997
X08817Y08956
X08895Y08958
X08895Y08997
X08895Y09037
X08973Y09035
X08972Y09074
X08933Y09153
X09013Y08997
Y08957
X09015Y0884
X08975
X09055
X09095
Y0888
X0917
X0921
Y08839
Y0876
X09209Y08722
X09211Y08642
X09251
X09258Y08681
X09268Y08583
X09247Y08526
X09208
X09209Y08486
X0917Y08446
X09169Y08408
X09209Y08407
X09248Y08408
X09286Y08454
X0936Y08345
X0921Y08327
X0917Y08328
Y08367
X09131
Y08328
X0913Y0829
X0917Y08289
X09051
X09052Y08249
X09051Y0821
X09012Y0825
X08972Y08251
X08973Y08289
X08934Y08288
X08895
X08894Y0825
X08933
X08934Y08209
X08933Y08171
X09012Y08132
X08815
X08814Y08172
X08775
X08737Y08171
Y08131
X08699Y0813
X08658Y08131
X0862Y0813
Y0817
X08657Y08171
X08697Y08172
X08699Y08208
X08736Y0821
X08776
X08775Y0825
X08777Y08288
X08815Y08328
X08855
X08895Y08328
X08935Y08366
X08974Y08367
X09012Y08407
X09014Y08445
X09052Y08446
X0909Y08447
X09014Y08484
X09089Y08566
X09092Y08603
X09132Y08642
X09169Y08643
X09131Y08682
X0913Y0876
X09095
X09055
X09053Y08721
X09012Y08722
X08973
X08935Y0876
X08895
X08894Y08683
X08855Y0872
X08815
X0874
Y0876
X087
X0866Y0872
X087Y0868
X08698Y08642
X0866Y0864
X0874Y0868
X0878Y0864
X08775Y08605
X08815
X08856Y08642
X08895Y08603
X08974Y08642
X09014Y08682
X08895Y08918
X08737Y08996
X08776Y09035
X08855Y09351
X08894Y09353
X09131Y09312
X09171
X0917Y09271
X09171Y09233
X0925Y09234
X09344Y09274
X0921Y0935
X09172Y09116
X09171Y09076
X0917Y08996
X0921Y08958
X0925Y08881
Y09037
X0928Y09076
X09374Y09034
X0921Y0817
X08816Y08211
Y08249
X08854Y0825
X08867Y08075
X08559Y08091
Y0802
X08556Y07989
X08551Y07955
X08558Y07921
X08586Y07898
Y07871
X08611Y07861
Y0783
X08506Y07833
X08495Y07871
X0847Y07903
X08452Y07851
X08438Y07945
X08261Y08053
X08147Y07822
X08051
X07995Y07822
X07936Y08014
X07951Y08132
X0791Y0817
X07952Y08408
X07951Y08447
X07953Y08487
X07992
X0799Y08525
X0803
X08069Y08526
X08068Y08564
X0803Y08565
X07991
X08031Y08605
X0807
X08109
X08149
X08187Y08604
X08188Y08565
Y08526
X08227
Y08487
X08189
X08149Y08526
X08147Y08563
X08108Y08564
X08109Y08526
X0807Y08486
Y08644
Y08683
X0803
X08031Y08645
X07991Y08683
Y08723
X08031
X0807
Y08765
X0811
X0811Y0872
X0811Y08683
Y08645
X08147Y08643
X08148Y08683
X0815Y0872
X08031Y08763
X07992
X07948Y08761
X07912Y08723
X07951Y08645
X07912Y08605
X07911Y08564
X07898Y08528
X07898Y08491
X08023Y088
X0803Y0884
Y08878
X08031Y08916
X07992
X0799Y08879
Y0884
X0795Y08879
X07991Y08956
X08031
X0807Y08955
X0803Y08996
X07911
X07898Y09076
X0795Y09075
X07991Y09153
X07912Y09193
X0784Y09233
X07836Y09296
X0795Y0927
X07856Y08937
X08227Y08604
X08265Y08603
X08503Y08605
X0854Y0884
X0862Y08445
Y08405
X08776Y08525
X08816Y08485
X08934Y08407
X08737Y07837
X07735Y07816
X07641Y08253
X07489Y08254
X07488Y08174
X07465
X07443
X07419
X07421Y08293
X07429Y08445
X07457
X0748
X07504
X07526Y08445
X07549
X07583
X07603Y08483
X07648Y08526
X07671
X07701Y08408
X0771Y08369
X07687
X07735
X07788Y08564
X07673Y08724
X07532Y08929
X07505Y08914
X07555Y09086
X07587
X0762Y09072
X07633Y09145
X07739Y09125
X07742Y09104
X07747Y09059
X07401Y09077
X071Y09087
X07051Y09087
X07067Y09031
X07048Y09016
X07101Y08996
X07143Y08986
X07134Y08908
X07168Y08873
X07236Y0883
X07237Y08807
X07057Y0881
X07063Y0873
X07095Y0872
X07127
X0707Y08644
X07041Y08614
X07021Y08567
X06887Y08566
X06884Y08646
X06885Y08723
X06887Y08827
X06805Y08799
X06835Y08904
X06892Y08988
X06894Y09045
X0689Y09082
X0689Y09104
X06878Y09123
X06878Y09165
X06895Y09204
X06861Y09205
X06835Y09204
X06825Y09235
X06892Y09243
X06988Y09187
X07041Y09193
X07021Y09214
X07072Y09249
X07237Y09233
X06983Y09045
X06999Y08911
X06993Y08725
X06835Y08516
X06648Y08515
X0651Y08495
X06438Y08347
X0633Y084
X06261Y08624
X0628Y08664
X06353Y09205
X0633Y09235
X06372Y09357
X06412Y09356
X06471Y09361
X0651Y09235
X06491Y09204
X06648
X06665Y09235
X06746Y09234
X06755Y09366
X06811Y09371
X06628Y09337
X06805Y0913
X06835Y08327
X06894
X06933
X06972
X07012
X07051
X07091
X0713
X0711Y08291
X07071
X07031
X06992
X06953
X06913
X06805Y08246
X06772Y08248
X06744
X06717
X06677
X06638
X06559
X06539Y08256
X0652Y08248
X06618Y08331
X06657
X06697
X0716Y08233
X07194Y08221
X07223Y08289
X06223Y08491
X06192Y08516
X06154Y08491
X06151Y08546
X06144Y08442
X06055Y0852
X06044Y08642
X06148Y08672
X06159Y08732
X0615Y0881
X06158Y0887
X06148Y08988
X06055Y08968
X06028Y08916
X05785Y08913
X05784Y08837
X05785Y08738
Y09038
X05786Y09087
X05775Y09163
X05737Y09163
X06145Y09165
X0615Y09275
X06089Y09236
X06236Y08608
X06241Y08584
X06005Y08291
Y08244
X05965Y08245
X05926
X05785Y08285
X05861Y08124
X05516Y08132
X05511Y08167
X05548Y08241
X05555Y08368
X05577
X05602Y08369
X05259Y08347
X05237Y08309
X05198Y08262
X05179Y08232
X05218Y08215
X05158Y0815
X05141Y08132
X05125Y08045
X0514Y07995
X05048Y07957
X0508Y08198
X051Y08257
X05355Y08241
X05336Y08192
X05316Y08167
X05431Y07995
X04843Y08307
X04922Y08704
X04942Y08728
X05064Y08704
X04399Y08782
X0432Y10028
X0513Y09755
X05134Y10435
X05064Y10464
X05095Y10831
X05431Y10612
X05745Y10626
X057Y10742
X05699Y10802
X057Y10862
Y10922
X06221Y10887
X0579Y09515
X0625Y09585
X06372Y0938
X06412Y09381
X0673Y09383
X06771Y09417
X06687Y09453
X06733Y09531
X06915Y0949
X07218Y09453
X06929Y0982
X06842Y10068
X06496Y10199
X06362Y10065
X06603Y1082
X07033Y10888
X07145Y106
X07144Y10398
X07672Y10509
X078Y1082
X07801Y1092
X08048Y10688
X08072Y10481
X08056Y10408
X08031Y10374
X08087Y10354
X08088Y103
X08126Y10325
X08048Y10269
X07993Y10181
X07972Y10142
X07953Y10157
X07931Y10126
X08009Y10083
X08104Y10062
X08246Y10079
X08286Y10081
X08268Y10022
Y0998
Y09941
X08352Y09908
X08371Y09926
X08385Y09885
X08403Y09872
X08332Y09877
X0843Y09943
X08488Y09851
X08487Y09819
X08483Y09777
X08388Y09761
X08364Y09744
X08379Y09709
X085Y09676
X08431Y0958
X08425Y09467
X08424Y09429
X08385Y09428
X08385Y09389
X08425Y09388
X08465Y0939
X085
X0854
Y0943
Y0947
X085
X08465
Y0943
X085
X0862
X08658Y09429
Y0939
X0862
X08697Y09389
X08698Y0943
Y09469
X08736Y09468
X08775
Y09428
Y09389
X08738Y09391
X08736Y09428
X08815Y09429
Y09468
X08854Y09428
X08894Y09468
X08971Y09467
Y09428
X09012Y09429
X09051
Y09468
X09092Y0943
X0913Y09468
X0917Y0947
Y09429
X09171Y09391
X09209Y0939
X0921Y0943
X09247Y09428
X09131Y0939
X09052Y0939
X08933Y09388
X0909Y09575
X08847Y0971
X08771Y09691
X08881Y09791
X08897Y09809
X08915Y09825
X08862Y09834
X08923Y09953
X08735Y09983
X08714Y09965
X08694Y09943
X08673Y09924
Y1
X08568Y0998
X08546Y10146
X08451Y10164
X08419Y10117
X08349Y10178
X08298Y10269
X08211Y10126
X08312Y10024
X08221Y09807
X08202Y0969
X08142Y09666
X08108Y09699
X08184Y09583
X08187Y09468
X08225Y09469
X08226Y09429
X08187
X0815Y0943
X0811
X0807
X0803
Y0947
X0799
Y0943
X0795
Y0939
X0791
X0799
X0803
X0807
X0811
X0815
X08188Y09389
X08227
X08266
X08306
Y09428
X08344Y09429
X08345Y0939
Y09468
X08306
X08267Y09467
X08385
X08365Y09527
X08312Y09581
X0815Y0947
X0811
X0807
X07907Y09476
X08544Y0952
X08624Y09513
X08657Y09556
X08598Y103
X08798Y10325
X08951Y10408
X08951Y10481
X08862Y10546
X0895Y10688
X09074Y10871
X09331Y10827
X09161Y10408
X0915Y10218
X09112Y10202
X09036Y10211
X0895Y10201
X0898Y1012
X09003Y10113
X09044Y10093
X0915Y09955
X0919Y09954
X09341Y10092
X0858Y10811
X08554Y1091
X07928Y10455
X07899Y10429
X0938Y10807
X09478Y10778
X09715Y10689
X09764Y10669
X09862Y1065
X09871Y10079
X09837Y10062
X09803Y10079
X09764
X09624Y10031
X09545Y10003
X09547Y09969
X09393Y09968
X10061Y09971
X10097Y09888
X10117Y09849
X10037Y09872
X09978
X10073Y09782
X10079Y09716
X10146Y09676
X10223Y0968
X10365Y09687
X10437Y09709
X10477Y09686
X10511
X10551Y09721
X10591Y09689
X10637Y09686
X10676Y09687
X10753Y09692
X10765Y09493
X10843Y09488
X10844Y09521
X10932Y0949
X10933Y09825
X109Y09987
X10804Y09965
X10784Y09947
X10706Y09924
X10421Y10108
X10159Y10164
X10013Y10055
X10214Y09879
X10184Y0957
X10234Y09527
X10123Y09528
X10066Y0947
X10042Y09456
X10015Y09455
X09999Y0947
X09958Y09455
X09912Y09529
X09856Y0957
X09661Y09446
X10081Y09447
X10363Y09448
X10419Y0945
X10479Y09448
X1062Y0946
X11077Y09383
X11329Y09417
X11425Y09381
X11456
X11565Y09379
X11582Y09417
X11584Y09618
X11624Y09619
X11692
X11682Y09675
X11665Y0966
X11641Y09682
X11742Y09677
X1187Y09662
X11909Y09641
X11929Y09754
X1189Y09764
X11791Y09877
X11811Y09926
X11716Y09881
X1156Y09862
X11483Y09821
X11462Y09822
X11402Y09823
X11447Y0988
X11485Y09736
X11452Y09677
X11469Y09617
X11502
X11539Y09618
X11536Y09683
X11426Y09617
X1136Y09616
X11291Y09617
X11251
X11167Y09616
X11094Y09718
X11041Y09845
X10991Y09829
X11287Y09689
X11449Y09541
X11849Y09557
X12067Y09464
X12128Y0963
X12244Y09657
X1228Y09642
X12362Y09736
X12421Y0972
X1244Y09968
X12225Y09908
X12106Y10003
X12087Y10169
X11969Y10163
X11949Y10143
X11752Y10059
X11595Y10079
X11519Y10218
X11487Y10219
X11378Y10124
X11399Y10059
X11256Y10091
X11235Y10204
X11772Y10374
X12264Y10185
X1248Y10354
X12461Y09409
X12284Y09407
X12637Y09386
X1275Y09456
Y09616
X12751Y09776
X12823Y09856
X1257Y09759
X12598Y10124
X12665Y1188
X12704Y11915
X12786Y1181
X12838Y11809
X12942Y11843
X12941Y11917
X12102Y11727
X12071Y11313
X12019Y11337
X12044Y11247
X11909Y11293
X12179Y11334
X11604Y11527
X11461
X11357
X11134Y11881
X09755Y11881
X09537Y12019
X09487Y11686
X09445Y114
X09744Y114
X09824
X0986Y11056
X09711Y11057
X09476Y11053
X09326Y11053
X09023Y11101
X08862Y11143
X08639Y11313
X08609Y11296
X08554Y11011
X08355Y11399
X07978Y1145
X07916Y11465
X09364Y114
X07801Y1132
X078Y1122
X07801Y1112
X078Y1102
X07655Y11251
X07691Y11374
X07539Y11315
X07488Y11298
X07464Y11316
X06766Y11106
X06776Y11066
X06388Y10968
X057Y10982
X05699Y11042
Y11102
X05698Y11161
X057Y11222
Y11282
X05699Y11342
X05125Y11344
X05136Y11189
X05169Y1119
X05093Y11188
X04577Y11871
T02
X045Y0664
X046
X044Y068
Y069
Y07
X045Y0718
X046
X047
X048
X0494Y07215
X05076Y0705
X05127
X05177
X05228Y07051
X05227Y06985
X05179
X05128
X05076
X05074Y06916
X0513Y06915
X0518
X0563Y0707
X05693Y0682
X05957Y07051
X05996Y07227
X05917Y07228
X05861Y0732
X05695
X0609Y072
X06223Y06922
X06203Y06662
X048Y0664
X047
X0642Y06661
X06637
X06849Y06779
X06786Y07029
X06851Y07279
X07017
X07073Y07187
X07152Y07186
X07246Y07159
X07113Y0701
X07379Y06881
X07694Y07134
X07791Y07196
X07576Y07299
X0646Y0734
X06537Y07175
X0834Y07163
X0864Y0726
X08821Y0716
X0936Y07256
X08199Y06753
X09559Y06771
X09496Y07021
X09561Y07271
X09727
X09783Y07179
X09862Y07178
X09956Y07151
X09823Y07002
X10088Y06873
X10403Y07126
X10501Y07188
X10286Y07291
X11688Y09331
X10677Y08192
X05047Y10697
X06428Y09984
X06604Y09858
X06911Y09987
X07075Y09851
X07427Y10058
X081Y11741
X07243Y11598
X07128Y11444
X07289Y11323
X06621Y11226
X06729Y11596
X06317Y11599
X05288Y11428
X05141Y11027
X04223Y11683
T03
X12876Y08472
X12926
Y08572
X12876
Y08672
X12926
Y08772
X12876
Y08872
X12926
Y08972
X12876
Y09072
X12926
Y09172
X12876
T04
X0816Y0735
Y0765
X0846
Y0735
X10789Y07053
Y06753
X11089
Y07053
X11951Y11958
X12051
Y12058
Y12158
X11951
X1195Y12058
X09231
Y11958
X09131
X0913Y12058
X09131Y12158
X09231
T05
X07971Y06131
X0919Y06132
X0426Y0704
Y0714
Y0724
Y0734
Y0744
Y0754
X07971Y06362
X0919Y06363
X10617Y06953
Y07053
X1129Y07074
Y06974
X11684Y06963
Y07063
X12309Y07102
Y07002
X12434
Y07102
X12831Y07422
X1298Y0772
Y0782
Y0792
Y0804
Y0814
Y0824
X0432Y1026
Y1036
X0422
Y1026
X06105Y10077
Y09846
X07228Y09997
Y10228
X12954Y11216
X117Y1183
X116
X115
X114
X113
X1125Y1193
X1135
X1145
X1155
X1165
X08864Y11893
X08764
X08664
X08564
X08514Y11793
X08614
X08714
X08814
X0432Y1134
Y1124
Y1114
Y1104
Y1094
X0422
Y1104
Y1114
Y1124
Y1134
T06
X12567Y06209
X12667
X12767
X12467
X12367
X12267
X12167
X12067
X11967
X11867
X11767
X11667
X11567
X11467
X11367
X11267
X11167
X11067
X10967
X10867
X10767
X10667
X10567
X10467
X10367
X10267
X10167
X10067
X09967
X09867
X09767
X09667
X07517
X07417
X07317
X07217
X07117
X07017
X06917
X06817
X06717
X06617
X06517
X06417
X06317
X06217
X06117
X06017
X05917
X05817
X05717
X05617
X05517
X05417
X05317
X05217
X05117
X05017
X04917
X04817
X04717
X04617
X04517
X04417
Y06309
X04517
X04617
Y06409
X04517
X04417
X04717
Y06309
X04817
X04917
X05017
X05117
X05217
X05317
X05417
X05517
X05617
X05717
X05817
X05917
X06017
X06117
X06217
Y06409
X06117
X06017
X05917
X05817
X05717
X05617
X05517
X05417
X05317
X05217
X05117
X05017
X04917
X04817
X06317
Y06309
X06417
X06517
X06617
X06717
X06817
X06917
X07017
Y06409
X07117
X07217
Y06309
X07317
Y06409
X07417
X07517
Y06309
X07417
X07117
X06917Y06409
X06817
X06717
X06617
X06517
X06417
X09667
Y06309
X09767
Y06409
X09867
Y06309
X09967
X10067
X10167
X10267
X10367
X10467
X10567
Y06409
X10667
X10767
X10867
Y06309
X10767
X10667
X10467Y06409
X10367
X10267
X10167
X10067
X09967
X10967
Y06309
X11067
X11167
X11267
X11367
X11467
X11567
X11667
X11767
X11867
X11967
Y06409
X11867
X11767
X11667
X11567
X11467
X11367
X11267
X11167
X11067
X12067
Y06309
X12167
X12267
X12367
X12467
Y06409
X12367
X12267
X12167
X12567
Y06309
X12667
X12767
Y06409
X12667
T07
X0797Y0667
Y0737
X09189Y07391
Y06691
T08
X0831Y062
X0841
X0851
X0861
X0871
X0881
X12671Y11997
Y12197
X12471
Y11997
X07904Y11925
X07849Y12037
X07741
X07632
X07523
X07415
X07306
X07197
X07088
X0698
X06871
X06762
X06654
X06708Y11925
X06599
X06817
X06925
X07034
X07143
X07251
X0736
X07469
X07578
X07686
X07795
T09
X06089Y10417
X07269
Y11025
X06089
T10
X04619Y07629
X06367
X06453
X07807
X09379
X11127
X11213
X12567
T11
X1178Y1206
T12
X1117Y1206
X08994Y12023
X08384
T13
X05765Y08109
X05765Y09691
T14
X12967Y06109
X09467
X07717
X04217
X12966Y12159
X04216
T15
X04245Y06699
X04114Y0689
X045Y0763
X07925
X088Y07599
X09261Y0763
X12686
X12963Y067
X04114Y08228
Y0878
Y09843
Y10738
X045Y10557
X12686Y0995
Y1163
X09261
X08599Y11501
X07925Y1163
X045
X04114Y11594
T16
X1125Y1218
X117
X08914Y12143
X08464
X08178Y11981
X06325
M30
