G04 Layer_Color=32896*
%FSLAX25Y25*%
%MOIN*%
G70*
G01*
G75*
%ADD52C,0.00100*%
%ADD53C,0.00050*%
%ADD54C,0.00400*%
G36*
X-39259Y78578D02*
X-60892D01*
Y86545D01*
X-39259D01*
Y78578D01*
D02*
G37*
%LPC*%
G36*
X-50380Y84481D02*
X-53222D01*
Y83833D01*
X-51153D01*
Y82982D01*
X-53078D01*
Y82334D01*
X-51153D01*
Y81296D01*
X-53294D01*
Y80647D01*
X-50380D01*
Y84481D01*
D02*
G37*
G36*
X-56535D02*
X-57358D01*
X-58892Y80647D01*
X-58050D01*
X-57718Y81517D01*
X-56183D01*
X-55867Y80647D01*
X-55048D01*
X-56535Y84481D01*
D02*
G37*
G36*
X-42793Y84545D02*
X-42843D01*
X-42862Y84542D01*
X-42884D01*
X-42912Y84539D01*
X-42973Y84536D01*
X-43042Y84528D01*
X-43117Y84517D01*
X-43200Y84506D01*
X-43286Y84489D01*
X-43375Y84467D01*
X-43466Y84442D01*
X-43558Y84412D01*
X-43643Y84373D01*
X-43729Y84331D01*
X-43807Y84282D01*
X-43879Y84226D01*
X-43884Y84223D01*
X-43896Y84212D01*
X-43912Y84193D01*
X-43937Y84168D01*
X-43965Y84137D01*
X-43995Y84099D01*
X-44028Y84054D01*
X-44065Y84002D01*
X-44100Y83946D01*
X-44134Y83883D01*
X-44167Y83814D01*
X-44195Y83739D01*
X-44222Y83658D01*
X-44242Y83573D01*
X-44256Y83481D01*
X-44264Y83384D01*
X-43491Y83351D01*
Y83354D01*
X-43488Y83365D01*
X-43486Y83379D01*
X-43480Y83398D01*
X-43475Y83423D01*
X-43466Y83451D01*
X-43458Y83481D01*
X-43447Y83514D01*
X-43416Y83584D01*
X-43380Y83653D01*
X-43333Y83719D01*
X-43308Y83750D01*
X-43278Y83775D01*
X-43275Y83777D01*
X-43270Y83780D01*
X-43261Y83786D01*
X-43247Y83794D01*
X-43231Y83805D01*
X-43209Y83816D01*
X-43184Y83827D01*
X-43156Y83841D01*
X-43123Y83852D01*
X-43087Y83863D01*
X-43045Y83874D01*
X-43001Y83886D01*
X-42954Y83894D01*
X-42904Y83899D01*
X-42846Y83905D01*
X-42754D01*
X-42732Y83902D01*
X-42704Y83899D01*
X-42671Y83897D01*
X-42635Y83894D01*
X-42594Y83888D01*
X-42511Y83872D01*
X-42422Y83847D01*
X-42377Y83830D01*
X-42336Y83811D01*
X-42297Y83789D01*
X-42258Y83764D01*
X-42253Y83761D01*
X-42239Y83747D01*
X-42220Y83728D01*
X-42197Y83700D01*
X-42175Y83667D01*
X-42156Y83628D01*
X-42142Y83581D01*
X-42139Y83556D01*
X-42136Y83528D01*
Y83525D01*
Y83523D01*
X-42139Y83506D01*
X-42142Y83481D01*
X-42150Y83448D01*
X-42164Y83412D01*
X-42184Y83373D01*
X-42211Y83334D01*
X-42250Y83296D01*
X-42253D01*
X-42258Y83290D01*
X-42267Y83284D01*
X-42283Y83273D01*
X-42303Y83262D01*
X-42328Y83248D01*
X-42358Y83235D01*
X-42394Y83218D01*
X-42439Y83198D01*
X-42488Y83179D01*
X-42546Y83157D01*
X-42613Y83135D01*
X-42688Y83110D01*
X-42768Y83088D01*
X-42862Y83063D01*
X-42962Y83038D01*
X-42965D01*
X-42968Y83035D01*
X-42976D01*
X-42987Y83032D01*
X-43015Y83024D01*
X-43053Y83016D01*
X-43101Y83002D01*
X-43156Y82988D01*
X-43214Y82971D01*
X-43278Y82955D01*
X-43344Y82933D01*
X-43413Y82913D01*
X-43552Y82866D01*
X-43619Y82841D01*
X-43682Y82814D01*
X-43743Y82789D01*
X-43796Y82761D01*
X-43799Y82758D01*
X-43807Y82755D01*
X-43821Y82747D01*
X-43840Y82736D01*
X-43862Y82719D01*
X-43890Y82703D01*
X-43918Y82683D01*
X-43951Y82658D01*
X-43984Y82633D01*
X-44017Y82603D01*
X-44053Y82573D01*
X-44089Y82537D01*
X-44159Y82459D01*
X-44189Y82415D01*
X-44220Y82370D01*
X-44222Y82367D01*
X-44225Y82359D01*
X-44233Y82345D01*
X-44245Y82326D01*
X-44256Y82301D01*
X-44269Y82273D01*
X-44283Y82240D01*
X-44297Y82201D01*
X-44311Y82160D01*
X-44325Y82113D01*
X-44339Y82063D01*
X-44350Y82010D01*
X-44361Y81952D01*
X-44369Y81891D01*
X-44372Y81827D01*
X-44375Y81761D01*
Y81758D01*
Y81747D01*
Y81728D01*
X-44372Y81705D01*
X-44369Y81675D01*
X-44364Y81642D01*
X-44358Y81603D01*
X-44353Y81561D01*
X-44341Y81514D01*
X-44330Y81464D01*
X-44314Y81415D01*
X-44297Y81362D01*
X-44275Y81307D01*
X-44250Y81251D01*
X-44222Y81199D01*
X-44189Y81143D01*
X-44186Y81140D01*
X-44181Y81132D01*
X-44170Y81116D01*
X-44156Y81096D01*
X-44137Y81074D01*
X-44114Y81046D01*
X-44087Y81016D01*
X-44056Y80983D01*
X-44020Y80949D01*
X-43981Y80913D01*
X-43940Y80877D01*
X-43893Y80844D01*
X-43843Y80808D01*
X-43790Y80775D01*
X-43732Y80744D01*
X-43671Y80717D01*
X-43668Y80714D01*
X-43657Y80711D01*
X-43638Y80703D01*
X-43610Y80694D01*
X-43580Y80683D01*
X-43541Y80672D01*
X-43494Y80661D01*
X-43444Y80647D01*
X-43386Y80633D01*
X-43322Y80622D01*
X-43253Y80611D01*
X-43181Y80600D01*
X-43103Y80592D01*
X-43020Y80584D01*
X-42932Y80581D01*
X-42840Y80578D01*
X-42790D01*
X-42771Y80581D01*
X-42746D01*
X-42721Y80584D01*
X-42660Y80589D01*
X-42588Y80595D01*
X-42511Y80606D01*
X-42427Y80620D01*
X-42339Y80639D01*
X-42247Y80661D01*
X-42153Y80686D01*
X-42062Y80719D01*
X-41970Y80758D01*
X-41882Y80803D01*
X-41799Y80855D01*
X-41721Y80913D01*
X-41715Y80916D01*
X-41704Y80930D01*
X-41685Y80949D01*
X-41660Y80977D01*
X-41630Y81010D01*
X-41594Y81055D01*
X-41558Y81104D01*
X-41519Y81163D01*
X-41477Y81226D01*
X-41438Y81301D01*
X-41400Y81381D01*
X-41364Y81467D01*
X-41328Y81564D01*
X-41300Y81667D01*
X-41275Y81778D01*
X-41258Y81894D01*
X-42012Y81966D01*
Y81960D01*
X-42015Y81949D01*
X-42020Y81930D01*
X-42026Y81905D01*
X-42034Y81872D01*
X-42045Y81836D01*
X-42056Y81797D01*
X-42070Y81755D01*
X-42109Y81664D01*
X-42131Y81617D01*
X-42156Y81570D01*
X-42184Y81525D01*
X-42214Y81484D01*
X-42250Y81445D01*
X-42286Y81409D01*
X-42289Y81406D01*
X-42297Y81401D01*
X-42308Y81393D01*
X-42325Y81381D01*
X-42344Y81368D01*
X-42372Y81354D01*
X-42400Y81337D01*
X-42436Y81321D01*
X-42472Y81304D01*
X-42516Y81287D01*
X-42560Y81273D01*
X-42610Y81260D01*
X-42666Y81248D01*
X-42724Y81240D01*
X-42785Y81235D01*
X-42848Y81232D01*
X-42884D01*
X-42909Y81235D01*
X-42940Y81237D01*
X-42976Y81240D01*
X-43017Y81246D01*
X-43059Y81251D01*
X-43150Y81271D01*
X-43198Y81284D01*
X-43244Y81298D01*
X-43289Y81318D01*
X-43333Y81337D01*
X-43375Y81362D01*
X-43411Y81390D01*
X-43413Y81393D01*
X-43419Y81398D01*
X-43427Y81406D01*
X-43441Y81417D01*
X-43455Y81434D01*
X-43472Y81451D01*
X-43488Y81473D01*
X-43508Y81495D01*
X-43541Y81550D01*
X-43571Y81611D01*
X-43585Y81647D01*
X-43594Y81681D01*
X-43599Y81719D01*
X-43602Y81758D01*
Y81761D01*
Y81764D01*
Y81780D01*
X-43599Y81805D01*
X-43591Y81839D01*
X-43582Y81875D01*
X-43569Y81913D01*
X-43549Y81952D01*
X-43522Y81988D01*
X-43519Y81994D01*
X-43505Y82005D01*
X-43486Y82021D01*
X-43458Y82046D01*
X-43419Y82071D01*
X-43369Y82102D01*
X-43311Y82129D01*
X-43278Y82143D01*
X-43242Y82157D01*
X-43239D01*
X-43236Y82160D01*
X-43225Y82162D01*
X-43214Y82165D01*
X-43195Y82171D01*
X-43172Y82179D01*
X-43145Y82187D01*
X-43114Y82196D01*
X-43076Y82207D01*
X-43031Y82218D01*
X-42981Y82232D01*
X-42923Y82248D01*
X-42860Y82265D01*
X-42788Y82282D01*
X-42707Y82301D01*
X-42621Y82323D01*
X-42619D01*
X-42613Y82326D01*
X-42605D01*
X-42594Y82332D01*
X-42580Y82334D01*
X-42563Y82340D01*
X-42522Y82351D01*
X-42469Y82365D01*
X-42411Y82384D01*
X-42347Y82406D01*
X-42281Y82428D01*
X-42209Y82456D01*
X-42136Y82484D01*
X-42062Y82514D01*
X-41993Y82548D01*
X-41923Y82584D01*
X-41860Y82622D01*
X-41801Y82661D01*
X-41749Y82703D01*
X-41746Y82705D01*
X-41735Y82717D01*
X-41715Y82736D01*
X-41693Y82758D01*
X-41668Y82789D01*
X-41638Y82827D01*
X-41605Y82869D01*
X-41574Y82919D01*
X-41541Y82971D01*
X-41508Y83030D01*
X-41477Y83093D01*
X-41452Y83160D01*
X-41430Y83232D01*
X-41411Y83309D01*
X-41400Y83390D01*
X-41397Y83473D01*
Y83476D01*
Y83487D01*
Y83500D01*
X-41400Y83523D01*
X-41403Y83548D01*
X-41405Y83578D01*
X-41411Y83614D01*
X-41416Y83653D01*
X-41427Y83692D01*
X-41436Y83736D01*
X-41450Y83780D01*
X-41466Y83827D01*
X-41486Y83877D01*
X-41508Y83924D01*
X-41533Y83974D01*
X-41560Y84021D01*
X-41563Y84024D01*
X-41569Y84032D01*
X-41577Y84046D01*
X-41591Y84063D01*
X-41607Y84085D01*
X-41630Y84110D01*
X-41655Y84135D01*
X-41682Y84165D01*
X-41715Y84196D01*
X-41752Y84229D01*
X-41790Y84259D01*
X-41832Y84293D01*
X-41879Y84323D01*
X-41929Y84354D01*
X-41981Y84384D01*
X-42040Y84409D01*
X-42042Y84412D01*
X-42053Y84414D01*
X-42073Y84423D01*
X-42095Y84431D01*
X-42125Y84439D01*
X-42162Y84453D01*
X-42203Y84464D01*
X-42250Y84478D01*
X-42303Y84489D01*
X-42361Y84503D01*
X-42422Y84514D01*
X-42488Y84523D01*
X-42560Y84534D01*
X-42635Y84539D01*
X-42713Y84542D01*
X-42793Y84545D01*
D02*
G37*
G36*
X-45001Y84481D02*
X-45774D01*
Y80647D01*
X-45001D01*
Y84481D01*
D02*
G37*
G36*
X-46510D02*
X-48001D01*
X-48042Y84478D01*
X-48089D01*
X-48139Y84475D01*
X-48195Y84473D01*
X-48253Y84467D01*
X-48311Y84462D01*
X-48433Y84451D01*
X-48491Y84442D01*
X-48549Y84431D01*
X-48602Y84420D01*
X-48652Y84406D01*
X-48654D01*
X-48665Y84401D01*
X-48685Y84395D01*
X-48707Y84387D01*
X-48737Y84376D01*
X-48771Y84362D01*
X-48809Y84345D01*
X-48851Y84326D01*
X-48895Y84301D01*
X-48942Y84276D01*
X-48989Y84246D01*
X-49039Y84215D01*
X-49086Y84179D01*
X-49136Y84140D01*
X-49183Y84099D01*
X-49231Y84052D01*
X-49233Y84049D01*
X-49242Y84041D01*
X-49253Y84027D01*
X-49269Y84007D01*
X-49292Y83982D01*
X-49314Y83952D01*
X-49338Y83919D01*
X-49366Y83880D01*
X-49397Y83836D01*
X-49424Y83789D01*
X-49455Y83739D01*
X-49485Y83683D01*
X-49516Y83625D01*
X-49543Y83564D01*
X-49571Y83498D01*
X-49596Y83431D01*
X-49599Y83428D01*
X-49602Y83415D01*
X-49607Y83395D01*
X-49616Y83365D01*
X-49627Y83329D01*
X-49638Y83287D01*
X-49649Y83237D01*
X-49660Y83182D01*
X-49671Y83118D01*
X-49682Y83049D01*
X-49693Y82974D01*
X-49704Y82894D01*
X-49712Y82811D01*
X-49718Y82719D01*
X-49724Y82625D01*
Y82525D01*
Y82520D01*
Y82503D01*
Y82478D01*
X-49721Y82445D01*
Y82406D01*
X-49718Y82356D01*
X-49712Y82304D01*
X-49710Y82246D01*
X-49701Y82185D01*
X-49696Y82118D01*
X-49674Y81982D01*
X-49643Y81844D01*
X-49627Y81778D01*
X-49604Y81711D01*
X-49602Y81705D01*
X-49599Y81692D01*
X-49591Y81669D01*
X-49577Y81642D01*
X-49563Y81606D01*
X-49546Y81564D01*
X-49524Y81520D01*
X-49499Y81470D01*
X-49472Y81417D01*
X-49441Y81362D01*
X-49408Y81307D01*
X-49372Y81248D01*
X-49330Y81193D01*
X-49289Y81138D01*
X-49244Y81082D01*
X-49194Y81032D01*
X-49192Y81030D01*
X-49186Y81024D01*
X-49172Y81013D01*
X-49158Y80999D01*
X-49136Y80983D01*
X-49111Y80966D01*
X-49084Y80944D01*
X-49051Y80922D01*
X-49014Y80897D01*
X-48973Y80872D01*
X-48929Y80847D01*
X-48882Y80822D01*
X-48829Y80797D01*
X-48774Y80772D01*
X-48715Y80750D01*
X-48652Y80728D01*
X-48649D01*
X-48640Y80725D01*
X-48624Y80719D01*
X-48605Y80717D01*
X-48580Y80708D01*
X-48546Y80703D01*
X-48510Y80694D01*
X-48469Y80689D01*
X-48422Y80681D01*
X-48372Y80672D01*
X-48314Y80667D01*
X-48253Y80661D01*
X-48186Y80656D01*
X-48117Y80650D01*
X-48042Y80647D01*
X-46510D01*
Y84481D01*
D02*
G37*
%LPD*%
G36*
X-56419Y82165D02*
X-57468D01*
X-56937Y83586D01*
X-56419Y82165D01*
D02*
G37*
G36*
X-47283Y81296D02*
X-47943D01*
X-47973Y81298D01*
X-48006D01*
X-48042Y81301D01*
X-48120Y81304D01*
X-48197Y81312D01*
X-48269Y81321D01*
X-48303Y81326D01*
X-48330Y81331D01*
X-48333D01*
X-48339Y81334D01*
X-48350Y81337D01*
X-48361Y81340D01*
X-48377Y81345D01*
X-48397Y81354D01*
X-48441Y81370D01*
X-48491Y81390D01*
X-48541Y81417D01*
X-48593Y81451D01*
X-48643Y81489D01*
X-48646Y81492D01*
X-48649Y81495D01*
X-48654Y81501D01*
X-48665Y81512D01*
X-48674Y81523D01*
X-48688Y81539D01*
X-48701Y81556D01*
X-48715Y81578D01*
X-48732Y81603D01*
X-48748Y81631D01*
X-48765Y81661D01*
X-48782Y81694D01*
X-48798Y81730D01*
X-48815Y81772D01*
X-48832Y81814D01*
X-48845Y81861D01*
Y81863D01*
X-48848Y81872D01*
X-48854Y81888D01*
X-48859Y81908D01*
X-48865Y81933D01*
X-48870Y81966D01*
X-48879Y82002D01*
X-48887Y82046D01*
X-48893Y82093D01*
X-48901Y82146D01*
X-48906Y82201D01*
X-48915Y82265D01*
X-48917Y82332D01*
X-48923Y82403D01*
X-48926Y82481D01*
Y82561D01*
Y82567D01*
Y82581D01*
Y82603D01*
Y82633D01*
X-48923Y82672D01*
Y82714D01*
X-48920Y82761D01*
X-48915Y82814D01*
X-48912Y82866D01*
X-48906Y82921D01*
X-48893Y83035D01*
X-48882Y83091D01*
X-48873Y83146D01*
X-48859Y83196D01*
X-48845Y83243D01*
Y83246D01*
X-48843Y83254D01*
X-48837Y83265D01*
X-48832Y83282D01*
X-48823Y83301D01*
X-48812Y83326D01*
X-48790Y83379D01*
X-48757Y83439D01*
X-48721Y83500D01*
X-48676Y83559D01*
X-48627Y83614D01*
X-48624Y83617D01*
X-48621Y83620D01*
X-48613Y83628D01*
X-48602Y83636D01*
X-48588Y83647D01*
X-48571Y83658D01*
X-48530Y83686D01*
X-48477Y83716D01*
X-48416Y83747D01*
X-48344Y83772D01*
X-48267Y83794D01*
X-48264D01*
X-48258Y83797D01*
X-48247D01*
X-48233Y83800D01*
X-48214Y83802D01*
X-48189Y83805D01*
X-48161Y83811D01*
X-48125Y83814D01*
X-48087Y83816D01*
X-48039Y83822D01*
X-47987Y83824D01*
X-47929Y83827D01*
X-47865Y83830D01*
X-47793D01*
X-47715Y83833D01*
X-47283D01*
Y81296D01*
D02*
G37*
D52*
X2400Y64717D02*
X7400D01*
X1100Y64617D02*
X8700D01*
X100Y64517D02*
X9500D01*
X-500Y64417D02*
X10200D01*
X-1200Y64317D02*
X10700D01*
X-1700Y64217D02*
X11200D01*
X-2200Y64117D02*
X11600D01*
X-2600Y64017D02*
X11900D01*
X-3000Y63917D02*
X12200D01*
X-3300Y63817D02*
X12600D01*
X-3700Y63717D02*
X12900D01*
X5400Y63617D02*
X13100D01*
X4500D02*
X4700D01*
X-3900D02*
X3800D01*
X5700Y63517D02*
X13400D01*
X4500D02*
X4600D01*
X-4200D02*
X3500D01*
X7000Y63417D02*
X13600D01*
X6800D02*
X6900D01*
X6000D02*
X6600D01*
X4500D02*
X4600D01*
X2600D02*
X3200D01*
X2300D02*
X2400D01*
X-4500D02*
X2100D01*
X7100Y63317D02*
X13900D01*
X6800D02*
X6900D01*
X4500D02*
X4600D01*
X2300D02*
X2400D01*
X-4700D02*
X2000D01*
X7300Y63217D02*
X14100D01*
X6800D02*
X6900D01*
X4500D02*
X4600D01*
X2300D02*
X2400D01*
X-4900D02*
X1900D01*
X7400Y63117D02*
X14300D01*
X6800D02*
X6900D01*
X4500D02*
X4600D01*
X2300D02*
X2400D01*
X-5100D02*
X1900D01*
X7400Y63017D02*
X14500D01*
X6800D02*
X6900D01*
X4500D02*
X4600D01*
X2300D02*
X2400D01*
X-5300D02*
X1900D01*
X7400Y62917D02*
X14500D01*
X6800D02*
X6900D01*
X4500D02*
X4600D01*
X2300D02*
X2400D01*
X-5300D02*
X1900D01*
X7400Y62817D02*
X14500D01*
X6800D02*
X6900D01*
X5800D02*
X5900D01*
X4500D02*
X4600D01*
X3900D02*
X4000D01*
X2300D02*
X2400D01*
X-5300D02*
X1900D01*
X7400Y62717D02*
X14500D01*
X6800D02*
X6900D01*
X5800D02*
X5900D01*
X4500D02*
X4600D01*
X4200D02*
X4300D01*
X3600D02*
X3700D01*
X3000D02*
X3100D01*
X2700D02*
X2800D01*
X2300D02*
X2400D01*
X-5300D02*
X1900D01*
X7400Y62617D02*
X14500D01*
X6800D02*
X6900D01*
X5800D02*
X5900D01*
X4500D02*
X4600D01*
X4200D02*
X4300D01*
X2700D02*
X2800D01*
X2300D02*
X2400D01*
X-5300D02*
X1900D01*
X-60800D02*
X-58700D01*
X-82400D02*
X-82000D01*
X7400Y62517D02*
X14500D01*
X6800D02*
X6900D01*
X5800D02*
X5900D01*
X5500D02*
X5600D01*
X4500D02*
X4600D01*
X4200D02*
X4300D01*
X2700D02*
X2800D01*
X2300D02*
X2400D01*
X-5300D02*
X1900D01*
X-62600D02*
X-57900D01*
X-82500D02*
X-81700D01*
X-90900D02*
X-90400D01*
X11300Y62417D02*
X14500D01*
X7400D02*
X11100D01*
X6800D02*
X6900D01*
X4500D02*
X4600D01*
X3600D02*
X3700D01*
X2700D02*
X2800D01*
X2300D02*
X2400D01*
X-2000D02*
X1900D01*
X-5300D02*
X-2300D01*
X-63400D02*
X-57300D01*
X-82500D02*
X-81500D01*
X-91000D02*
X-90100D01*
X11400Y62317D02*
X14500D01*
X7400D02*
X11000D01*
X6800D02*
X6900D01*
X4500D02*
X4600D01*
X2300D02*
X2400D01*
X-2000D02*
X1900D01*
X-5400D02*
X-2300D01*
X-63900D02*
X-56800D01*
X-74100D02*
X-73200D01*
X-82600D02*
X-81200D01*
X-91000D02*
X-89900D01*
X11400Y62217D02*
X14500D01*
X7400D02*
X11000D01*
X6800D02*
X6900D01*
X4500D02*
X4600D01*
X2300D02*
X2400D01*
X-1900D02*
X1900D01*
X-5400D02*
X-2400D01*
X-64300D02*
X-56300D01*
X-74400D02*
X-72900D01*
X-82600D02*
X-81000D01*
X-91000D02*
X-89600D01*
X11400Y62117D02*
X14500D01*
X7400D02*
X10900D01*
X6800D02*
X6900D01*
X4500D02*
X4600D01*
X2300D02*
X2400D01*
X-1900D02*
X1900D01*
X-5400D02*
X-2400D01*
X-64500D02*
X-56000D01*
X-74500D02*
X-72800D01*
X-82600D02*
X-80700D01*
X-91000D02*
X-89400D01*
X11500Y62017D02*
X14500D01*
X7400D02*
X10900D01*
X6800D02*
X6900D01*
X4500D02*
X4600D01*
X2300D02*
X2400D01*
X-1900D02*
X1900D01*
X-5400D02*
X-2400D01*
X-64800D02*
X-55600D01*
X-74700D02*
X-72700D01*
X-82600D02*
X-80400D01*
X-91000D02*
X-89100D01*
X11500Y61917D02*
X14500D01*
X7400D02*
X10900D01*
X6800D02*
X6900D01*
X4500D02*
X4600D01*
X2300D02*
X2400D01*
X-1900D02*
X1900D01*
X-5400D02*
X-2400D01*
X-36800D02*
X-36300D01*
X-64900D02*
X-55300D01*
X-74800D02*
X-72600D01*
X-82600D02*
X-80200D01*
X-91000D02*
X-88800D01*
X11500Y61817D02*
X14500D01*
X7400D02*
X10900D01*
X6800D02*
X6900D01*
X5300D02*
X5400D01*
X5000D02*
X5100D01*
X4500D02*
X4600D01*
X2300D02*
X2400D01*
X-1900D02*
X1900D01*
X-5400D02*
X-2400D01*
X-31800D02*
X-31700D01*
X-37100D02*
X-35200D01*
X-65100D02*
X-55000D01*
X-74800D02*
X-72500D01*
X-82600D02*
X-79900D01*
X-91000D02*
X-88600D01*
X11500Y61717D02*
X14500D01*
X7400D02*
X10900D01*
X6800D02*
X6900D01*
X6500D02*
X6600D01*
X6300D02*
X6400D01*
X5600D02*
X5700D01*
X4500D02*
X4600D01*
X2300D02*
X2400D01*
X-1900D02*
X1900D01*
X-5400D02*
X-2400D01*
X-18900D02*
X-18700D01*
X-37200D02*
X-30800D01*
X-65200D02*
X-54700D01*
X-74900D02*
X-72400D01*
X-82600D02*
X-79600D01*
X-91000D02*
X-88300D01*
X11800Y61617D02*
X14500D01*
X7400D02*
X10600D01*
X6800D02*
X6900D01*
X6500D02*
X6600D01*
X4500D02*
X4600D01*
X3200D02*
X3300D01*
X2300D02*
X2400D01*
X-1600D02*
X1900D01*
X-5400D02*
X-2800D01*
X-14700D02*
X-13800D01*
X-19300D02*
X-17800D01*
X-37300D02*
X-30600D01*
X-65300D02*
X-54500D01*
X-75000D02*
X-72300D01*
X-82500D02*
X-79400D01*
X-91000D02*
X-88000D01*
X13600Y61517D02*
X14500D01*
X12900D02*
X13400D01*
X11700D02*
X12700D01*
X7400D02*
X10700D01*
X6800D02*
X6900D01*
X6500D02*
X6600D01*
X4500D02*
X4600D01*
X3200D02*
X3300D01*
X2300D02*
X2400D01*
X300D02*
X1900D01*
X-500D02*
X100D01*
X-1700D02*
X-600D01*
X-5400D02*
X-2700D01*
X-19500D02*
X-13600D01*
X-37300D02*
X-30400D01*
X-58600D02*
X-54300D01*
X-65400D02*
X-61000D01*
X-75000D02*
X-72300D01*
X-82500D02*
X-79100D01*
X-91000D02*
X-87800D01*
X13600Y61417D02*
X14500D01*
X13000D02*
X13300D01*
X11600D02*
X12700D01*
X9700D02*
X10800D01*
X9100D02*
X9400D01*
X7400D02*
X8800D01*
X6800D02*
X6900D01*
X6500D02*
X6600D01*
X5600D02*
X5700D01*
X4500D02*
X4600D01*
X3200D02*
X3300D01*
X2300D02*
X2400D01*
X300D02*
X1900D01*
X-300D02*
X-100D01*
X-1800D02*
X-700D01*
X-3600D02*
X-2600D01*
X-4300D02*
X-4000D01*
X-5400D02*
X-4600D01*
X-19600D02*
X-13400D01*
X-37300D02*
X-30300D01*
X-58200D02*
X-54000D01*
X-65500D02*
X-61700D01*
X-75100D02*
X-72300D01*
X-82500D02*
X-78800D01*
X-91000D02*
X-87500D01*
X13600Y61317D02*
X14500D01*
X11500D02*
X12800D01*
X9600D02*
X10800D01*
X9200D02*
X9300D01*
X7400D02*
X8800D01*
X6800D02*
X6900D01*
X6500D02*
X6600D01*
X5800D02*
X5900D01*
X4500D02*
X4600D01*
X3200D02*
X3300D01*
X2300D02*
X2400D01*
X200D02*
X1900D01*
X-1800D02*
X-600D01*
X-3700D02*
X-2500D01*
X-5400D02*
X-4500D01*
X-19700D02*
X-13400D01*
X-37200D02*
X-30200D01*
X-57700D02*
X-53800D01*
X-65500D02*
X-62000D01*
X-75100D02*
X-72200D01*
X-82500D02*
X-78600D01*
X-91000D02*
X-87200D01*
X13500Y61217D02*
X14500D01*
X11500D02*
X12800D01*
X9500D02*
X10900D01*
X7400D02*
X8900D01*
X6800D02*
X6900D01*
X4500D02*
X4600D01*
X2300D02*
X2400D01*
X200D02*
X1900D01*
X-1900D02*
X-500D01*
X-3800D02*
X-2500D01*
X-5400D02*
X-4500D01*
X-19800D02*
X-13400D01*
X-37100D02*
X-30100D01*
X-57500D02*
X-53600D01*
X-65600D02*
X-62200D01*
X-75100D02*
X-72200D01*
X-82500D02*
X-78400D01*
X-91000D02*
X-87000D01*
X13500Y61117D02*
X14500D01*
X11500D02*
X12900D01*
X9400D02*
X10900D01*
X7400D02*
X8900D01*
X6800D02*
X6900D01*
X4500D02*
X4600D01*
X2300D02*
X2400D01*
X100D02*
X1900D01*
X-1900D02*
X-400D01*
X-3900D02*
X-2500D01*
X-5400D02*
X-4400D01*
X-19900D02*
X-13400D01*
X-37000D02*
X-30100D01*
X-57200D02*
X-53400D01*
X-65600D02*
X-62400D01*
X-75100D02*
X-72200D01*
X-82500D02*
X-78300D01*
X-91000D02*
X-86800D01*
X13400Y61017D02*
X14500D01*
X11500D02*
X12900D01*
X9400D02*
X10900D01*
X7400D02*
X8900D01*
X6800D02*
X6900D01*
X4500D02*
X4600D01*
X2300D02*
X2400D01*
X100D02*
X1900D01*
X-1800D02*
X-400D01*
X-3900D02*
X-2500D01*
X-5400D02*
X-4400D01*
X-19900D02*
X-13500D01*
X-36900D02*
X-30000D01*
X-56900D02*
X-53300D01*
X-65700D02*
X-62600D01*
X-75200D02*
X-72200D01*
X-82500D02*
X-78300D01*
X-91000D02*
X-86800D01*
X13400Y60917D02*
X14500D01*
X11600D02*
X12900D01*
X9400D02*
X10800D01*
X7400D02*
X9000D01*
X6800D02*
X6900D01*
X4500D02*
X4600D01*
X2300D02*
X2400D01*
X-0D02*
X1900D01*
X-1800D02*
X-400D01*
X-3900D02*
X-2500D01*
X-5400D02*
X-4400D01*
X-20000D02*
X-13600D01*
X-36600D02*
X-29900D01*
X-56700D02*
X-53100D01*
X-65700D02*
X-62800D01*
X-75200D02*
X-72200D01*
X-82500D02*
X-78300D01*
X-91000D02*
X-86700D01*
X13300Y60817D02*
X14500D01*
X11800D02*
X12900D01*
X9400D02*
X10700D01*
X7400D02*
X9000D01*
X6800D02*
X6900D01*
X4500D02*
X4600D01*
X2300D02*
X2400D01*
X-0D02*
X1900D01*
X-1600D02*
X-400D01*
X-2200D02*
X-2100D01*
X-3900D02*
X-2700D01*
X-5400D02*
X-4300D01*
X-20100D02*
X-13800D01*
X-35700D02*
X-29900D01*
X-56500D02*
X-52900D01*
X-65700D02*
X-62900D01*
X-75200D02*
X-72200D01*
X-82500D02*
X-78400D01*
X-91000D02*
X-86800D01*
X13300Y60717D02*
X14500D01*
X12200D02*
X12900D01*
X11100D02*
X11300D01*
X9500D02*
X10200D01*
X7400D02*
X9100D01*
X6800D02*
X6900D01*
X4500D02*
X4600D01*
X2300D02*
X2400D01*
X-100D02*
X1900D01*
X-1100D02*
X-500D01*
X-2200D02*
X-2100D01*
X-3900D02*
X-3200D01*
X-5400D02*
X-4300D01*
X-20100D02*
X-14000D01*
X-35300D02*
X-29800D01*
X-56300D02*
X-52800D01*
X-65800D02*
X-63100D01*
X-75100D02*
X-72200D01*
X-82500D02*
X-78500D01*
X-91000D02*
X-86800D01*
X13200Y60617D02*
X14500D01*
X12300D02*
X12800D01*
X11100D02*
X11300D01*
X9600D02*
X10100D01*
X7400D02*
X9100D01*
X6800D02*
X6900D01*
X6000D02*
X6100D01*
X4500D02*
X4600D01*
X3900D02*
X4000D01*
X3700D02*
X3800D01*
X2300D02*
X2400D01*
X-100D02*
X1900D01*
X-1100D02*
X-600D01*
X-2300D02*
X-2000D01*
X-3700D02*
X-3300D01*
X-5400D02*
X-4200D01*
X-20100D02*
X-14400D01*
X-35000D02*
X-29800D01*
X-56200D02*
X-52600D01*
X-65800D02*
X-63200D01*
X-75100D02*
X-72200D01*
X-82500D02*
X-78700D01*
X-91000D02*
X-87000D01*
X13200Y60517D02*
X14500D01*
X11000D02*
X11400D01*
X7400D02*
X9200D01*
X6800D02*
X6900D01*
X6000D02*
X6100D01*
X4500D02*
X4600D01*
X3600D02*
X3700D01*
X3000D02*
X3100D01*
X2300D02*
X2400D01*
X-100D02*
X1900D01*
X-2300D02*
X-2000D01*
X-5500D02*
X-4200D01*
X-20200D02*
X-14700D01*
X-34800D02*
X-29800D01*
X-56000D02*
X-52500D01*
X-65800D02*
X-63400D01*
X-75100D02*
X-72200D01*
X-82500D02*
X-78900D01*
X-91000D02*
X-87200D01*
X13200Y60417D02*
X14500D01*
X12000D02*
X12100D01*
X11000D02*
X11400D01*
X10200D02*
X10400D01*
X7400D02*
X9200D01*
X6800D02*
X6900D01*
X6000D02*
X6100D01*
X4500D02*
X4600D01*
X3600D02*
X3700D01*
X3300D02*
X3400D01*
X2300D02*
X2400D01*
X-200D02*
X1900D01*
X-1400D02*
X-1200D01*
X-2400D02*
X-1900D01*
X-3100D02*
X-3000D01*
X-5500D02*
X-4100D01*
X-20200D02*
X-15100D01*
X-34600D02*
X-29700D01*
X-55900D02*
X-52300D01*
X-65800D02*
X-63500D01*
X-75100D02*
X-72200D01*
X-82500D02*
X-79100D01*
X-91000D02*
X-87400D01*
X13100Y60317D02*
X14600D01*
X12000D02*
X12200D01*
X10100D02*
X10400D01*
X7400D02*
X9300D01*
X6800D02*
X6900D01*
X6000D02*
X6100D01*
X4500D02*
X4600D01*
X3600D02*
X3700D01*
X2900D02*
X3000D01*
X2300D02*
X2400D01*
X-200D02*
X1900D01*
X-1400D02*
X-1100D01*
X-3200D02*
X-3000D01*
X-5500D02*
X-4100D01*
X-20300D02*
X-15500D01*
X-34500D02*
X-29700D01*
X-55700D02*
X-52200D01*
X-65900D02*
X-63600D01*
X-75000D02*
X-72300D01*
X-82500D02*
X-79300D01*
X-91000D02*
X-87600D01*
X13100Y60217D02*
X14600D01*
X7400D02*
X9300D01*
X6800D02*
X6900D01*
X6000D02*
X6100D01*
X5700D02*
X5800D01*
X5100D02*
X5200D01*
X4500D02*
X4600D01*
X3300D02*
X3400D01*
X2300D02*
X2400D01*
X-300D02*
X1900D01*
X-5500D02*
X-4000D01*
X-20300D02*
X-15800D01*
X-34400D02*
X-29600D01*
X-55600D02*
X-52100D01*
X-65900D02*
X-63700D01*
X-75000D02*
X-72300D01*
X-82500D02*
X-79400D01*
X-91000D02*
X-87700D01*
X13000Y60117D02*
X14600D01*
X10900D02*
X11600D01*
X7400D02*
X9400D01*
X6800D02*
X6900D01*
X4500D02*
X4600D01*
X2300D02*
X2400D01*
X-300D02*
X1900D01*
X-2500D02*
X-1700D01*
X-5500D02*
X-4000D01*
X-20400D02*
X-15900D01*
X-34300D02*
X-29600D01*
X-55400D02*
X-52000D01*
X-65900D02*
X-63800D01*
X-74900D02*
X-72400D01*
X-82500D02*
X-79500D01*
X-91000D02*
X-87800D01*
X13000Y60017D02*
X14600D01*
X11900D02*
X12600D01*
X10000D02*
X10400D01*
X7400D02*
X9400D01*
X6800D02*
X6900D01*
X4500D02*
X4600D01*
X2300D02*
X2400D01*
X-400D02*
X1900D01*
X-1400D02*
X-800D01*
X-3400D02*
X-2900D01*
X-5500D02*
X-3900D01*
X-20400D02*
X-16000D01*
X-34200D02*
X-29600D01*
X-55300D02*
X-51800D01*
X-65900D02*
X-63800D01*
X-74900D02*
X-72400D01*
X-82500D02*
X-79500D01*
X-91000D02*
X-87900D01*
X12500Y59917D02*
X14600D01*
X7400D02*
X9800D01*
X6800D02*
X6900D01*
X4500D02*
X4600D01*
X2300D02*
X2400D01*
X-800D02*
X1900D01*
X-5500D02*
X-3500D01*
X-20500D02*
X-16100D01*
X-34100D02*
X-29500D01*
X-55200D02*
X-51700D01*
X-65900D02*
X-63900D01*
X-74800D02*
X-72500D01*
X-82500D02*
X-79600D01*
X-91000D02*
X-88000D01*
X12800Y59817D02*
X14600D01*
X11100D02*
X11200D01*
X7400D02*
X9600D01*
X6800D02*
X6900D01*
X4500D02*
X4600D01*
X2300D02*
X2400D01*
X-600D02*
X1900D01*
X-2200D02*
X-2100D01*
X-5500D02*
X-3800D01*
X-20500D02*
X-16200D01*
X-34100D02*
X-29500D01*
X-55100D02*
X-51600D01*
X-65900D02*
X-64000D01*
X-74700D02*
X-72600D01*
X-82500D02*
X-79600D01*
X-91000D02*
X-88000D01*
X12800Y59717D02*
X14600D01*
X11700D02*
X11900D01*
X11000D02*
X11300D01*
X10400D02*
X10700D01*
X7400D02*
X9600D01*
X6800D02*
X6900D01*
X4500D02*
X4600D01*
X2300D02*
X2400D01*
X-600D02*
X1900D01*
X-1700D02*
X-1400D01*
X-2300D02*
X-2000D01*
X-2900D02*
X-2700D01*
X-5500D02*
X-3800D01*
X-20600D02*
X-16200D01*
X-34000D02*
X-29500D01*
X-55000D02*
X-51500D01*
X-65900D02*
X-64100D01*
X-74600D02*
X-72700D01*
X-82500D02*
X-79700D01*
X-91000D02*
X-88100D01*
X12700Y59617D02*
X14600D01*
X12300D02*
X12500D01*
X11700D02*
X11900D01*
X11100D02*
X11300D01*
X10400D02*
X10700D01*
X9900D02*
X10100D01*
X7400D02*
X9600D01*
X6800D02*
X6900D01*
X4500D02*
X4600D01*
X2300D02*
X2400D01*
X-600D02*
X1900D01*
X-1100D02*
X-900D01*
X-1700D02*
X-1400D01*
X-2300D02*
X-2100D01*
X-2900D02*
X-2700D01*
X-3500D02*
X-3300D01*
X-5500D02*
X-3800D01*
X-20600D02*
X-16300D01*
X-34000D02*
X-29400D01*
X-54900D02*
X-51400D01*
X-65900D02*
X-64100D01*
X-74500D02*
X-72900D01*
X-82500D02*
X-79700D01*
X-91000D02*
X-88100D01*
X12700Y59517D02*
X14600D01*
X12200D02*
X12500D01*
X9800D02*
X10100D01*
X7400D02*
X9600D01*
X6800D02*
X6900D01*
X4500D02*
X4600D01*
X2300D02*
X2400D01*
X-700D02*
X1900D01*
X-1100D02*
X-800D01*
X-3500D02*
X-3300D01*
X-5500D02*
X-3700D01*
X-20700D02*
X-16300D01*
X-33900D02*
X-29400D01*
X-54800D02*
X-51300D01*
X-65900D02*
X-64200D01*
X-74300D02*
X-73000D01*
X-82500D02*
X-79700D01*
X-91000D02*
X-88100D01*
X12600Y59417D02*
X14600D01*
X12300D02*
X12400D01*
X9900D02*
X10000D01*
X7400D02*
X9700D01*
X6800D02*
X6900D01*
X5400D02*
X5600D01*
X4400D02*
X4700D01*
X3600D02*
X3700D01*
X2300D02*
X2400D01*
X-700D02*
X1900D01*
X-1000D02*
X-900D01*
X-3500D02*
X-3300D01*
X-5500D02*
X-3700D01*
X-20700D02*
X-16300D01*
X-33900D02*
X-29300D01*
X-54700D02*
X-51200D01*
X-65900D02*
X-64300D01*
X-74000D02*
X-73300D01*
X-82500D02*
X-79700D01*
X-91000D02*
X-88200D01*
X12600Y59317D02*
X14600D01*
X11100D02*
X11400D01*
X7400D02*
X9700D01*
X6700D02*
X6900D01*
X4500D02*
X4600D01*
X2200D02*
X2500D01*
X-800D02*
X1900D01*
X-2300D02*
X-2000D01*
X-5500D02*
X-3600D01*
X-20700D02*
X-16300D01*
X-33800D02*
X-29300D01*
X-54600D02*
X-51100D01*
X-65900D02*
X-64300D01*
X-82500D02*
X-79700D01*
X-91000D02*
X-88200D01*
X12500Y59217D02*
X14600D01*
X12000D02*
X12200D01*
X10200D02*
X10400D01*
X7400D02*
X9700D01*
X6900D02*
X7000D01*
X4700D02*
X4800D01*
X2100D02*
X2200D01*
X-800D02*
X1900D01*
X-1400D02*
X-1200D01*
X-3100D02*
X-3000D01*
X-5500D02*
X-3600D01*
X-20800D02*
X-16300D01*
X-33800D02*
X-29300D01*
X-54500D02*
X-51000D01*
X-65900D02*
X-64400D01*
X-82500D02*
X-79700D01*
X-91000D02*
X-88200D01*
X12400Y59117D02*
X14600D01*
X7400D02*
X9800D01*
X7100D02*
X7200D01*
X4800D02*
X4900D01*
X4300D02*
X4400D01*
X2000D02*
X2100D01*
X-1000D02*
X1900D01*
X-3500D02*
X-3400D01*
X-5500D02*
X-3600D01*
X-20800D02*
X-16400D01*
X-33800D02*
X-29200D01*
X-54400D02*
X-50900D01*
X-65900D02*
X-64500D01*
X-82500D02*
X-79800D01*
X-91000D02*
X-88200D01*
X12500Y59017D02*
X14600D01*
X7200D02*
X9800D01*
X4800D02*
X4900D01*
X4300D02*
X4400D01*
X-900D02*
X2000D01*
X-5500D02*
X-3500D01*
X-20900D02*
X-16400D01*
X-33800D02*
X-29200D01*
X-54300D02*
X-50900D01*
X-65900D02*
X-64500D01*
X-82500D02*
X-79800D01*
X-91000D02*
X-88200D01*
X12300Y58917D02*
X14600D01*
X7200D02*
X10000D01*
X4700D02*
X5000D01*
X4200D02*
X4400D01*
X-1100D02*
X2000D01*
X-5500D02*
X-3300D01*
X-20900D02*
X-16400D01*
X-33800D02*
X-29100D01*
X-54300D02*
X-50800D01*
X-65900D02*
X-64600D01*
X-82500D02*
X-79800D01*
X-91000D02*
X-88200D01*
X-5500Y58817D02*
X14600D01*
X-21000D02*
X-16400D01*
X-33800D02*
X-29100D01*
X-54200D02*
X-50700D01*
X-65900D02*
X-64600D01*
X-82500D02*
X-79800D01*
X-91000D02*
X-88200D01*
X-5500Y58717D02*
X14600D01*
X-21000D02*
X-16400D01*
X-33800D02*
X-29100D01*
X-54100D02*
X-50600D01*
X-65900D02*
X-64700D01*
X-82500D02*
X-79800D01*
X-91000D02*
X-88200D01*
X-5500Y58617D02*
X14600D01*
X-21100D02*
X-16400D01*
X-33800D02*
X-29000D01*
X-54100D02*
X-50500D01*
X-65900D02*
X-64700D01*
X-82500D02*
X-79800D01*
X-91000D02*
X-88200D01*
X-5500Y58517D02*
X14600D01*
X-21100D02*
X-16400D01*
X-33800D02*
X-29000D01*
X-54000D02*
X-50500D01*
X-65900D02*
X-64700D01*
X-82500D02*
X-79800D01*
X-91000D02*
X-88200D01*
X-5500Y58417D02*
X14600D01*
X-21200D02*
X-16400D01*
X-33800D02*
X-28900D01*
X-53900D02*
X-50400D01*
X-65900D02*
X-64800D01*
X-82500D02*
X-79800D01*
X-91000D02*
X-88200D01*
X-5500Y58317D02*
X14600D01*
X-21200D02*
X-16400D01*
X-33800D02*
X-28900D01*
X-53900D02*
X-50300D01*
X-65900D02*
X-64900D01*
X-82500D02*
X-79800D01*
X-91000D02*
X-88200D01*
X-5500Y58217D02*
X14600D01*
X-21300D02*
X-16400D01*
X-33800D02*
X-28900D01*
X-53800D02*
X-50300D01*
X-65800D02*
X-64900D01*
X-82500D02*
X-79800D01*
X-91000D02*
X-88200D01*
X-5500Y58117D02*
X14600D01*
X-21300D02*
X-16300D01*
X-33800D02*
X-28800D01*
X-53700D02*
X-50200D01*
X-65800D02*
X-65000D01*
X-82500D02*
X-79800D01*
X-91000D02*
X-88200D01*
X-5500Y58017D02*
X14600D01*
X-21400D02*
X-16300D01*
X-33800D02*
X-28800D01*
X-53700D02*
X-50200D01*
X-65700D02*
X-65100D01*
X-82500D02*
X-79800D01*
X-91000D02*
X-88200D01*
X11200Y57917D02*
X14600D01*
X4700D02*
X11000D01*
X-1800D02*
X4600D01*
X-5500D02*
X-2000D01*
X-21400D02*
X-16300D01*
X-30100D02*
X-28700D01*
X-33800D02*
X-30200D01*
X-53600D02*
X-50100D01*
X-65600D02*
X-65200D01*
X-82500D02*
X-79800D01*
X-91000D02*
X-88200D01*
X11200Y57817D02*
X14600D01*
X4700D02*
X10900D01*
X-1700D02*
X4500D01*
X-5500D02*
X-2000D01*
X-17500D02*
X-16300D01*
X-21400D02*
X-17700D01*
X-29900D02*
X-28700D01*
X-33800D02*
X-30300D01*
X-53600D02*
X-50000D01*
X-82500D02*
X-79800D01*
X-91000D02*
X-88200D01*
X11300Y57717D02*
X14600D01*
X4800D02*
X10800D01*
X-1600D02*
X4400D01*
X-5500D02*
X-2100D01*
X-17500D02*
X-16300D01*
X-21500D02*
X-17800D01*
X-29900D02*
X-28700D01*
X-33800D02*
X-30300D01*
X-53500D02*
X-50000D01*
X-82500D02*
X-79800D01*
X-91000D02*
X-88200D01*
X11400Y57617D02*
X14600D01*
X4900D02*
X10700D01*
X-1500D02*
X4300D01*
X-5500D02*
X-2200D01*
X-17400D02*
X-16300D01*
X-21500D02*
X-17900D01*
X-29800D02*
X-28600D01*
X-33800D02*
X-30300D01*
X-53500D02*
X-49900D01*
X-82500D02*
X-79800D01*
X-91000D02*
X-88200D01*
X11500Y57517D02*
X14600D01*
X5000D02*
X10600D01*
X-1400D02*
X4200D01*
X-5500D02*
X-2300D01*
X-17400D02*
X-16300D01*
X-21600D02*
X-17900D01*
X-29800D02*
X-28600D01*
X-33800D02*
X-30400D01*
X-53400D02*
X-49900D01*
X-82500D02*
X-79800D01*
X-91000D02*
X-88200D01*
X11600Y57417D02*
X14600D01*
X5100D02*
X10500D01*
X-1300D02*
X4100D01*
X-5500D02*
X-2400D01*
X-17400D02*
X-16300D01*
X-21600D02*
X-18000D01*
X-29700D02*
X-28600D01*
X-33800D02*
X-30400D01*
X-53400D02*
X-49800D01*
X-82600D02*
X-79800D01*
X-91000D02*
X-88200D01*
X11700Y57317D02*
X14600D01*
X5200D02*
X10400D01*
X-1200D02*
X4000D01*
X-5500D02*
X-2500D01*
X-17400D02*
X-16300D01*
X-21700D02*
X-18000D01*
X-29700D02*
X-28500D01*
X-33800D02*
X-30400D01*
X-53300D02*
X-49800D01*
X-82600D02*
X-79800D01*
X-91000D02*
X-88200D01*
X11800Y57217D02*
X14600D01*
X5300D02*
X10300D01*
X-1100D02*
X3900D01*
X-5500D02*
X-2600D01*
X-17400D02*
X-16300D01*
X-21700D02*
X-18100D01*
X-29700D02*
X-28500D01*
X-33800D02*
X-30400D01*
X-53300D02*
X-49700D01*
X-82600D02*
X-79800D01*
X-91000D02*
X-88200D01*
X11900Y57117D02*
X14600D01*
X5400D02*
X10200D01*
X-1000D02*
X3800D01*
X-5500D02*
X-2700D01*
X-17400D02*
X-16300D01*
X-21800D02*
X-18100D01*
X-29600D02*
X-28400D01*
X-33800D02*
X-30400D01*
X-53200D02*
X-49700D01*
X-82600D02*
X-79800D01*
X-91000D02*
X-88200D01*
X12000Y57017D02*
X14600D01*
X5500D02*
X10100D01*
X-900D02*
X3700D01*
X-5400D02*
X-2800D01*
X-17400D02*
X-16300D01*
X-21800D02*
X-18200D01*
X-29600D02*
X-28400D01*
X-33800D02*
X-30400D01*
X-53200D02*
X-49600D01*
X-82600D02*
X-79800D01*
X-91000D02*
X-88200D01*
X12100Y56917D02*
X14600D01*
X5600D02*
X10000D01*
X-800D02*
X3700D01*
X-5400D02*
X-2900D01*
X-17400D02*
X-16300D01*
X-21900D02*
X-18200D01*
X-29500D02*
X-28400D01*
X-33800D02*
X-30400D01*
X-53200D02*
X-49600D01*
X-82600D02*
X-79800D01*
X-91000D02*
X-88200D01*
X12200Y56817D02*
X14600D01*
X5700D02*
X9900D01*
X-700D02*
X3600D01*
X-5400D02*
X-3000D01*
X-17400D02*
X-16300D01*
X-21900D02*
X-18300D01*
X-29500D02*
X-28300D01*
X-33800D02*
X-30400D01*
X-53100D02*
X-49500D01*
X-82600D02*
X-79800D01*
X-91000D02*
X-88200D01*
X12300Y56717D02*
X14600D01*
X5800D02*
X9800D01*
X-600D02*
X3500D01*
X-5400D02*
X-3100D01*
X-17400D02*
X-16300D01*
X-22000D02*
X-18300D01*
X-29500D02*
X-28300D01*
X-33800D02*
X-30400D01*
X-53100D02*
X-49500D01*
X-82600D02*
X-79800D01*
X-91000D02*
X-88200D01*
X12300Y56617D02*
X14600D01*
X5900D02*
X9700D01*
X-500D02*
X3400D01*
X-5400D02*
X-3100D01*
X-17400D02*
X-16300D01*
X-22000D02*
X-18300D01*
X-29400D02*
X-28200D01*
X-33800D02*
X-30400D01*
X-53100D02*
X-49500D01*
X-82600D02*
X-79800D01*
X-91000D02*
X-88200D01*
X12400Y56517D02*
X14600D01*
X5900D02*
X9600D01*
X-400D02*
X3300D01*
X-5400D02*
X-3200D01*
X-17400D02*
X-16300D01*
X-22100D02*
X-18400D01*
X-29400D02*
X-28200D01*
X-33800D02*
X-30400D01*
X-53000D02*
X-49400D01*
X-82600D02*
X-79800D01*
X-91000D02*
X-88200D01*
X12500Y56417D02*
X14600D01*
X6000D02*
X9500D01*
X-300D02*
X3200D01*
X-5400D02*
X-3300D01*
X-17400D02*
X-16200D01*
X-22100D02*
X-18400D01*
X-29300D02*
X-28200D01*
X-33800D02*
X-30400D01*
X-53000D02*
X-49400D01*
X-82600D02*
X-79800D01*
X-91000D02*
X-88200D01*
X12600Y56317D02*
X14600D01*
X6100D02*
X9400D01*
X-200D02*
X3100D01*
X-5400D02*
X-3400D01*
X-17400D02*
X-16200D01*
X-22100D02*
X-18500D01*
X-29300D02*
X-28100D01*
X-33800D02*
X-30400D01*
X-44600D02*
X-42700D01*
X-53000D02*
X-49300D01*
X-82600D02*
X-79800D01*
X-91000D02*
X-88200D01*
X12700Y56217D02*
X14600D01*
X6200D02*
X9300D01*
X-100D02*
X3000D01*
X-5400D02*
X-3500D01*
X-17400D02*
X-16200D01*
X-22200D02*
X-18500D01*
X-29300D02*
X-28100D01*
X-33800D02*
X-30400D01*
X-45200D02*
X-42000D01*
X-52900D02*
X-49300D01*
X-82600D02*
X-79800D01*
X-91000D02*
X-88200D01*
X12800Y56117D02*
X14600D01*
X6300D02*
X9200D01*
X-0D02*
X2900D01*
X-5400D02*
X-3600D01*
X-17400D02*
X-16200D01*
X-22200D02*
X-18600D01*
X-29200D02*
X-28000D01*
X-33800D02*
X-30400D01*
X-45600D02*
X-41600D01*
X-52900D02*
X-49300D01*
X-82600D02*
X-79800D01*
X-91000D02*
X-88200D01*
X12900Y56017D02*
X14600D01*
X6400D02*
X9100D01*
X100D02*
X2800D01*
X-5400D02*
X-3700D01*
X-17400D02*
X-16200D01*
X-22300D02*
X-18600D01*
X-29200D02*
X-28000D01*
X-33800D02*
X-30400D01*
X-45900D02*
X-41300D01*
X-52900D02*
X-49200D01*
X-82600D02*
X-79800D01*
X-91000D02*
X-88200D01*
X13000Y55917D02*
X14600D01*
X6500D02*
X9000D01*
X200D02*
X2700D01*
X-5400D02*
X-3800D01*
X-17400D02*
X-16200D01*
X-22300D02*
X-18700D01*
X-29100D02*
X-28000D01*
X-33800D02*
X-30400D01*
X-46100D02*
X-41000D01*
X-52800D02*
X-49200D01*
X-75000D02*
X-74500D01*
X-82600D02*
X-79800D01*
X-91000D02*
X-88200D01*
X13100Y55817D02*
X14600D01*
X6600D02*
X8900D01*
X300D02*
X2600D01*
X-5300D02*
X-3900D01*
X-17400D02*
X-16200D01*
X-22400D02*
X-18700D01*
X-29100D02*
X-27900D01*
X-33900D02*
X-30400D01*
X-46300D02*
X-40700D01*
X-52800D02*
X-49200D01*
X-75000D02*
X-74300D01*
X-82600D02*
X-79800D01*
X-91000D02*
X-88200D01*
X13200Y55717D02*
X14500D01*
X6700D02*
X8800D01*
X400D02*
X2600D01*
X-5300D02*
X-4000D01*
X-17400D02*
X-16200D01*
X-22400D02*
X-18800D01*
X-29100D02*
X-27900D01*
X-33900D02*
X-30400D01*
X-46500D02*
X-40500D01*
X-52800D02*
X-49100D01*
X-75100D02*
X-74200D01*
X-82600D02*
X-79800D01*
X-91000D02*
X-88200D01*
X13300Y55617D02*
X14500D01*
X6800D02*
X8700D01*
X500D02*
X2500D01*
X-5300D02*
X-4100D01*
X-17400D02*
X-16200D01*
X-22500D02*
X-18800D01*
X-29000D02*
X-27800D01*
X-33900D02*
X-30400D01*
X-46600D02*
X-40300D01*
X-52800D02*
X-49100D01*
X-75100D02*
X-74100D01*
X-82600D02*
X-79800D01*
X-91000D02*
X-88200D01*
X13400Y55517D02*
X14500D01*
X6900D02*
X8600D01*
X600D02*
X2400D01*
X-5300D02*
X-4100D01*
X-17400D02*
X-16200D01*
X-22500D02*
X-18900D01*
X-29000D02*
X-27800D01*
X-33900D02*
X-30400D01*
X-46700D02*
X-40100D01*
X-52700D02*
X-49100D01*
X-75100D02*
X-74000D01*
X-82600D02*
X-79800D01*
X-91000D02*
X-88200D01*
X13500Y55417D02*
X14500D01*
X7000D02*
X8500D01*
X700D02*
X2300D01*
X-5300D02*
X-4200D01*
X-17400D02*
X-16200D01*
X-22600D02*
X-18900D01*
X-28900D02*
X-27800D01*
X-33900D02*
X-30400D01*
X-42300D02*
X-39900D01*
X-46800D02*
X-43200D01*
X-52700D02*
X-49100D01*
X-75100D02*
X-73800D01*
X-82600D02*
X-79800D01*
X-91000D02*
X-88300D01*
X13500Y55317D02*
X14500D01*
X7100D02*
X8400D01*
X800D02*
X2200D01*
X-5300D02*
X-4300D01*
X-17400D02*
X-16200D01*
X-22600D02*
X-18900D01*
X-28900D02*
X-27700D01*
X-33900D02*
X-30400D01*
X-42000D02*
X-39700D01*
X-46900D02*
X-43600D01*
X-52700D02*
X-49000D01*
X-75100D02*
X-73700D01*
X-82600D02*
X-79800D01*
X-91000D02*
X-88300D01*
X13600Y55217D02*
X14500D01*
X7200D02*
X8300D01*
X800D02*
X2100D01*
X-5300D02*
X-4400D01*
X-17400D02*
X-16200D01*
X-22700D02*
X-19000D01*
X-28900D02*
X-27700D01*
X-33900D02*
X-30400D01*
X-41800D02*
X-39600D01*
X-46900D02*
X-43800D01*
X-52700D02*
X-49000D01*
X-75000D02*
X-73500D01*
X-82600D02*
X-79800D01*
X-91000D02*
X-88300D01*
X13700Y55117D02*
X14500D01*
X7200D02*
X8200D01*
X900D02*
X2000D01*
X-5300D02*
X-4500D01*
X-17400D02*
X-16200D01*
X-22700D02*
X-19000D01*
X-28800D02*
X-27700D01*
X-33900D02*
X-30400D01*
X-41600D02*
X-39400D01*
X-47000D02*
X-43900D01*
X-52700D02*
X-49000D01*
X-75000D02*
X-73400D01*
X-82600D02*
X-79800D01*
X-91000D02*
X-88300D01*
X13800Y55017D02*
X14500D01*
X7300D02*
X8100D01*
X1000D02*
X1900D01*
X-5200D02*
X-4600D01*
X-17400D02*
X-16200D01*
X-22800D02*
X-19100D01*
X-28800D02*
X-27600D01*
X-33900D02*
X-30400D01*
X-41400D02*
X-39300D01*
X-47100D02*
X-44100D01*
X-52600D02*
X-49000D01*
X-75000D02*
X-73200D01*
X-82600D02*
X-79800D01*
X-91000D02*
X-88300D01*
X13900Y54917D02*
X14500D01*
X7400D02*
X8000D01*
X1100D02*
X1800D01*
X-5200D02*
X-4700D01*
X-17400D02*
X-16200D01*
X-22800D02*
X-19100D01*
X-28700D02*
X-27600D01*
X-33900D02*
X-30400D01*
X-41300D02*
X-39100D01*
X-47100D02*
X-44200D01*
X-52600D02*
X-48900D01*
X-75000D02*
X-73100D01*
X-82600D02*
X-79800D01*
X-91000D02*
X-88300D01*
X14000Y54817D02*
X14400D01*
X7500D02*
X7900D01*
X1200D02*
X1700D01*
X-5200D02*
X-4800D01*
X-17400D02*
X-16200D01*
X-22800D02*
X-19200D01*
X-28700D02*
X-27500D01*
X-33900D02*
X-30400D01*
X-41100D02*
X-39000D01*
X-47100D02*
X-44300D01*
X-52600D02*
X-48900D01*
X-75000D02*
X-72900D01*
X-82600D02*
X-79800D01*
X-91000D02*
X-88300D01*
X14100Y54717D02*
X14400D01*
X7600D02*
X7800D01*
X1300D02*
X1600D01*
X-5200D02*
X-4900D01*
X-17400D02*
X-16200D01*
X-22900D02*
X-19200D01*
X-28700D02*
X-27500D01*
X-33900D02*
X-30400D01*
X-41000D02*
X-38900D01*
X-47100D02*
X-44400D01*
X-52600D02*
X-48900D01*
X-75000D02*
X-72700D01*
X-82600D02*
X-79800D01*
X-91000D02*
X-88300D01*
X14200Y54617D02*
X14400D01*
X1400D02*
X1500D01*
X-5200D02*
X-5000D01*
X-17400D02*
X-16100D01*
X-22900D02*
X-19300D01*
X-28600D02*
X-27500D01*
X-33900D02*
X-30400D01*
X-40900D02*
X-38700D01*
X-47100D02*
X-44500D01*
X-52600D02*
X-48900D01*
X-75000D02*
X-72400D01*
X-82600D02*
X-79800D01*
X-91000D02*
X-88300D01*
X14300Y54517D02*
X14400D01*
X-5200D02*
X-5000D01*
X-17400D02*
X-16100D01*
X-23000D02*
X-19300D01*
X-28600D02*
X-27400D01*
X-33900D02*
X-30400D01*
X-40800D02*
X-38600D01*
X-47100D02*
X-44500D01*
X-52600D02*
X-48900D01*
X-75000D02*
X-72100D01*
X-82600D02*
X-79800D01*
X-91000D02*
X-88300D01*
X14300Y54417D02*
X14400D01*
X-5200D02*
X-5000D01*
X-17400D02*
X-16100D01*
X-23000D02*
X-19400D01*
X-28500D02*
X-27400D01*
X-33900D02*
X-30400D01*
X-40700D02*
X-38500D01*
X-47100D02*
X-44600D01*
X-52600D02*
X-48800D01*
X-74900D02*
X-71900D01*
X-82600D02*
X-79800D01*
X-91000D02*
X-88300D01*
X14200Y54317D02*
X14400D01*
X-5100D02*
X-4900D01*
X-17400D02*
X-16100D01*
X-23100D02*
X-19400D01*
X-28500D02*
X-27300D01*
X-33900D02*
X-30400D01*
X-40600D02*
X-38400D01*
X-47100D02*
X-44700D01*
X-52500D02*
X-48800D01*
X-74900D02*
X-71600D01*
X-82600D02*
X-79800D01*
X-91000D02*
X-88300D01*
X14200Y54217D02*
X14300D01*
X-5100D02*
X-4900D01*
X-17400D02*
X-16100D01*
X-23100D02*
X-19500D01*
X-28500D02*
X-27300D01*
X-33900D02*
X-30400D01*
X-40500D02*
X-38300D01*
X-47100D02*
X-44800D01*
X-52500D02*
X-48800D01*
X-74900D02*
X-71300D01*
X-82600D02*
X-79800D01*
X-91000D02*
X-88300D01*
X14200Y54117D02*
X14300D01*
X-5100D02*
X-4900D01*
X-17400D02*
X-16100D01*
X-23200D02*
X-19500D01*
X-28400D02*
X-27300D01*
X-33900D02*
X-30400D01*
X-40500D02*
X-38200D01*
X-47100D02*
X-44900D01*
X-52500D02*
X-48800D01*
X-74900D02*
X-71000D01*
X-82600D02*
X-79800D01*
X-91000D02*
X-88300D01*
X14200Y54017D02*
X14300D01*
X-5100D02*
X-4900D01*
X-17400D02*
X-16100D01*
X-23200D02*
X-19500D01*
X-28400D02*
X-27200D01*
X-33900D02*
X-30400D01*
X-40400D02*
X-38100D01*
X-47100D02*
X-45000D01*
X-52500D02*
X-48800D01*
X-74900D02*
X-70800D01*
X-82600D02*
X-79800D01*
X-91000D02*
X-88300D01*
X14100Y53917D02*
X14300D01*
X-5100D02*
X-4900D01*
X-17400D02*
X-16100D01*
X-23300D02*
X-19600D01*
X-28300D02*
X-27200D01*
X-33900D02*
X-30400D01*
X-40300D02*
X-38000D01*
X-47000D02*
X-45100D01*
X-52500D02*
X-48700D01*
X-74900D02*
X-70700D01*
X-82600D02*
X-79800D01*
X-91000D02*
X-88300D01*
X14100Y53817D02*
X14300D01*
X-5100D02*
X-4900D01*
X-17400D02*
X-16100D01*
X-23300D02*
X-19600D01*
X-28300D02*
X-27100D01*
X-33900D02*
X-30400D01*
X-40300D02*
X-38000D01*
X-47000D02*
X-45200D01*
X-52500D02*
X-48700D01*
X-74900D02*
X-70700D01*
X-82600D02*
X-79800D01*
X-91000D02*
X-88300D01*
X14100Y53717D02*
X14200D01*
X-5000D02*
X-4800D01*
X-17400D02*
X-16100D01*
X-23400D02*
X-19700D01*
X-28300D02*
X-27100D01*
X-33900D02*
X-30400D01*
X-40200D02*
X-37900D01*
X-46900D02*
X-45300D01*
X-52500D02*
X-48700D01*
X-74900D02*
X-70700D01*
X-82600D02*
X-79800D01*
X-91000D02*
X-88300D01*
X14100Y53617D02*
X14200D01*
X-5000D02*
X-4800D01*
X-17400D02*
X-16100D01*
X-23400D02*
X-19700D01*
X-28200D02*
X-27100D01*
X-33900D02*
X-30400D01*
X-40100D02*
X-37800D01*
X-46800D02*
X-45500D01*
X-52500D02*
X-48700D01*
X-74900D02*
X-70700D01*
X-82600D02*
X-79800D01*
X-91000D02*
X-88300D01*
X14000Y53517D02*
X14200D01*
X-5000D02*
X-4800D01*
X-17400D02*
X-16100D01*
X-23500D02*
X-19800D01*
X-28200D02*
X-27000D01*
X-33900D02*
X-30400D01*
X-40100D02*
X-37700D01*
X-46600D02*
X-45600D01*
X-52500D02*
X-48700D01*
X-74900D02*
X-70700D01*
X-82600D02*
X-79800D01*
X-91000D02*
X-88300D01*
X14000Y53417D02*
X14200D01*
X10300D02*
X10900D01*
X-5000D02*
X-4800D01*
X-17400D02*
X-16100D01*
X-23500D02*
X-19800D01*
X-28100D02*
X-27000D01*
X-33900D02*
X-30400D01*
X-40000D02*
X-37700D01*
X-46400D02*
X-46000D01*
X-52500D02*
X-48700D01*
X-74900D02*
X-70900D01*
X-82600D02*
X-79800D01*
X-91000D02*
X-88300D01*
X14000Y53317D02*
X14100D01*
X10000D02*
X11100D01*
X-5000D02*
X-4800D01*
X-17400D02*
X-16100D01*
X-23500D02*
X-19900D01*
X-28100D02*
X-26900D01*
X-33900D02*
X-30400D01*
X-40000D02*
X-37600D01*
X-52500D02*
X-48700D01*
X-74900D02*
X-71300D01*
X-82600D02*
X-79800D01*
X-91000D02*
X-88300D01*
X14000Y53217D02*
X14100D01*
X10800D02*
X11200D01*
X9900D02*
X10700D01*
X2600D02*
X3500D01*
X-4900D02*
X-4700D01*
X-17400D02*
X-16100D01*
X-23600D02*
X-19900D01*
X-28100D02*
X-26900D01*
X-33900D02*
X-30400D01*
X-39900D02*
X-37500D01*
X-52500D02*
X-48700D01*
X-74900D02*
X-71500D01*
X-82600D02*
X-79800D01*
X-91000D02*
X-88300D01*
X13900Y53117D02*
X14100D01*
X10900D02*
X11300D01*
X9800D02*
X10600D01*
X2400D02*
X3600D01*
X-4900D02*
X-4700D01*
X-17400D02*
X-16100D01*
X-23600D02*
X-20000D01*
X-28000D02*
X-26900D01*
X-33900D02*
X-30400D01*
X-39900D02*
X-37500D01*
X-52500D02*
X-48700D01*
X-74900D02*
X-71700D01*
X-82600D02*
X-79800D01*
X-91000D02*
X-88300D01*
X13900Y53017D02*
X14100D01*
X10900D02*
X11500D01*
X9700D02*
X10600D01*
X3300D02*
X3700D01*
X2300D02*
X3100D01*
X-4900D02*
X-4700D01*
X-17400D02*
X-16100D01*
X-23700D02*
X-20000D01*
X-28000D02*
X-26800D01*
X-33900D02*
X-30500D01*
X-39800D02*
X-37400D01*
X-52500D02*
X-48600D01*
X-74900D02*
X-71800D01*
X-82600D02*
X-79800D01*
X-91000D02*
X-88300D01*
X13900Y52917D02*
X14000D01*
X9700D02*
X11600D01*
X3300D02*
X3900D01*
X2200D02*
X3000D01*
X-4900D02*
X-4700D01*
X-17400D02*
X-16000D01*
X-23700D02*
X-20100D01*
X-27900D02*
X-26800D01*
X-33900D02*
X-30500D01*
X-39800D02*
X-37400D01*
X-52500D02*
X-48600D01*
X-69400D02*
X-67700D01*
X-74900D02*
X-71900D01*
X-82600D02*
X-79800D01*
X-91000D02*
X-88300D01*
X13900Y52817D02*
X14000D01*
X9700D02*
X11400D01*
X3300D02*
X4000D01*
X2100D02*
X3100D01*
X-4900D02*
X-4700D01*
X-17400D02*
X-16000D01*
X-23800D02*
X-20100D01*
X-27900D02*
X-26800D01*
X-33900D02*
X-30500D01*
X-39800D02*
X-37300D01*
X-52500D02*
X-48600D01*
X-69500D02*
X-65600D01*
X-74900D02*
X-72000D01*
X-82600D02*
X-79800D01*
X-91000D02*
X-88300D01*
X13800Y52717D02*
X14000D01*
X9700D02*
X11300D01*
X2100D02*
X3900D01*
X-4800D02*
X-4600D01*
X-17400D02*
X-16000D01*
X-23800D02*
X-20100D01*
X-27900D02*
X-26700D01*
X-33900D02*
X-30500D01*
X-39700D02*
X-37200D01*
X-52500D02*
X-48600D01*
X-69600D02*
X-60300D01*
X-74900D02*
X-72000D01*
X-82600D02*
X-79800D01*
X-91000D02*
X-88300D01*
X13800Y52617D02*
X13900D01*
X9700D02*
X11400D01*
X2100D02*
X3700D01*
X-4800D02*
X-4600D01*
X-17400D02*
X-16000D01*
X-23900D02*
X-20200D01*
X-27800D02*
X-26700D01*
X-33900D02*
X-30500D01*
X-39700D02*
X-37200D01*
X-52500D02*
X-48700D01*
X-69700D02*
X-60100D01*
X-74900D02*
X-72100D01*
X-82600D02*
X-79800D01*
X-91000D02*
X-88300D01*
X13800Y52517D02*
X13900D01*
X9600D02*
X11400D01*
X7000D02*
X7200D01*
X2100D02*
X3700D01*
X-4800D02*
X-4600D01*
X-17400D02*
X-16000D01*
X-23900D02*
X-20200D01*
X-27800D02*
X-26600D01*
X-33900D02*
X-30500D01*
X-39700D02*
X-37200D01*
X-52500D02*
X-48700D01*
X-69700D02*
X-60000D01*
X-74900D02*
X-72100D01*
X-82600D02*
X-79800D01*
X-91000D02*
X-88300D01*
X13700Y52417D02*
X13900D01*
X9700D02*
X11500D01*
X7100D02*
X7500D01*
X2000D02*
X3800D01*
X-4800D02*
X-4600D01*
X-17400D02*
X-16000D01*
X-24000D02*
X-20300D01*
X-27700D02*
X-26600D01*
X-33900D02*
X-30500D01*
X-39600D02*
X-37100D01*
X-52500D02*
X-48700D01*
X-69700D02*
X-60000D01*
X-74900D02*
X-72100D01*
X-82600D02*
X-79800D01*
X-91000D02*
X-88300D01*
X13700Y52317D02*
X13900D01*
X9700D02*
X11300D01*
X7100D02*
X7700D01*
X2100D02*
X3900D01*
X-600D02*
X-300D01*
X-4700D02*
X-4500D01*
X-17400D02*
X-16000D01*
X-24000D02*
X-20300D01*
X-27700D02*
X-26600D01*
X-33900D02*
X-30500D01*
X-39600D02*
X-37100D01*
X-52500D02*
X-48700D01*
X-69600D02*
X-60000D01*
X-74900D02*
X-72100D01*
X-82600D02*
X-79800D01*
X-91000D02*
X-88300D01*
X13700Y52217D02*
X13800D01*
X9600D02*
X11300D01*
X7200D02*
X7900D01*
X2100D02*
X3800D01*
X-500D02*
X-0D01*
X-4700D02*
X-4500D01*
X-17400D02*
X-16000D01*
X-24100D02*
X-20400D01*
X-27700D02*
X-26500D01*
X-33900D02*
X-30500D01*
X-39600D02*
X-37000D01*
X-52500D02*
X-48700D01*
X-69600D02*
X-60000D01*
X-74900D02*
X-72200D01*
X-82600D02*
X-79800D01*
X-91000D02*
X-88300D01*
X13700Y52117D02*
X13800D01*
X9600D02*
X11300D01*
X7200D02*
X8200D01*
X2100D02*
X3700D01*
X-400D02*
X200D01*
X-4700D02*
X-4500D01*
X-17400D02*
X-16000D01*
X-24100D02*
X-20400D01*
X-27600D02*
X-26500D01*
X-33900D02*
X-30500D01*
X-39600D02*
X-37000D01*
X-52500D02*
X-48700D01*
X-69400D02*
X-60000D01*
X-74900D02*
X-72200D01*
X-82600D02*
X-79800D01*
X-91000D02*
X-88300D01*
X13600Y52017D02*
X13800D01*
X9400D02*
X11300D01*
X7300D02*
X8400D01*
X2000D02*
X3700D01*
X-400D02*
X400D01*
X-4700D02*
X-4500D01*
X-17400D02*
X-16000D01*
X-24200D02*
X-20500D01*
X-27600D02*
X-26400D01*
X-33900D02*
X-30500D01*
X-39600D02*
X-36900D01*
X-52500D02*
X-48700D01*
X-69200D02*
X-60100D01*
X-74900D02*
X-72200D01*
X-82600D02*
X-79800D01*
X-91000D02*
X-88300D01*
X13600Y51917D02*
X13700D01*
X9200D02*
X11400D01*
X7200D02*
X8900D01*
X6800D02*
X6900D01*
X1900D02*
X3700D01*
X-300D02*
X700D01*
X-4600D02*
X-4400D01*
X-17400D02*
X-16000D01*
X-24200D02*
X-20500D01*
X-27500D02*
X-26400D01*
X-33900D02*
X-30500D01*
X-39500D02*
X-36900D01*
X-52500D02*
X-48700D01*
X-68800D02*
X-60200D01*
X-74900D02*
X-72200D01*
X-82600D02*
X-79800D01*
X-91000D02*
X-88300D01*
X13600Y51817D02*
X13700D01*
X6800D02*
X11400D01*
X1800D02*
X3800D01*
X-300D02*
X1000D01*
X-4600D02*
X-4400D01*
X-17400D02*
X-16000D01*
X-24200D02*
X-20600D01*
X-27500D02*
X-26400D01*
X-33900D02*
X-30500D01*
X-39500D02*
X-36900D01*
X-52500D02*
X-48700D01*
X-68100D02*
X-60300D01*
X-74900D02*
X-72200D01*
X-82600D02*
X-79900D01*
X-91000D02*
X-88300D01*
X13500Y51717D02*
X13700D01*
X6900D02*
X11500D01*
X-800D02*
X3800D01*
X-4600D02*
X-4400D01*
X-17400D02*
X-16000D01*
X-24300D02*
X-20600D01*
X-27500D02*
X-26300D01*
X-33900D02*
X-30500D01*
X-39500D02*
X-36800D01*
X-52500D02*
X-48700D01*
X-67700D02*
X-60600D01*
X-74900D02*
X-72200D01*
X-82600D02*
X-79900D01*
X-91000D02*
X-88300D01*
X13500Y51617D02*
X13600D01*
X7000D02*
X11500D01*
X-700D02*
X3800D01*
X-4500D02*
X-4300D01*
X-17400D02*
X-16000D01*
X-24300D02*
X-20700D01*
X-27400D02*
X-26300D01*
X-33900D02*
X-30500D01*
X-39500D02*
X-36800D01*
X-52500D02*
X-48700D01*
X-67400D02*
X-62200D01*
X-74900D02*
X-72200D01*
X-82600D02*
X-79900D01*
X-91000D02*
X-88300D01*
X13500Y51517D02*
X13600D01*
X7000D02*
X11500D01*
X-700D02*
X3900D01*
X-4500D02*
X-4300D01*
X-17400D02*
X-16000D01*
X-24400D02*
X-20700D01*
X-27400D02*
X-26200D01*
X-33900D02*
X-30500D01*
X-39500D02*
X-36800D01*
X-52600D02*
X-48700D01*
X-67200D02*
X-62600D01*
X-74900D02*
X-72200D01*
X-82600D02*
X-79900D01*
X-91000D02*
X-88300D01*
X13400Y51417D02*
X13600D01*
X7100D02*
X11500D01*
X-600D02*
X3900D01*
X-4500D02*
X-4300D01*
X-17400D02*
X-16000D01*
X-24400D02*
X-20700D01*
X-27300D02*
X-26200D01*
X-33900D02*
X-30500D01*
X-39500D02*
X-36700D01*
X-52600D02*
X-48800D01*
X-67100D02*
X-62800D01*
X-74900D02*
X-72200D01*
X-82600D02*
X-79900D01*
X-91000D02*
X-88300D01*
X13400Y51317D02*
X13500D01*
X7200D02*
X11500D01*
X-500D02*
X3900D01*
X-4400D02*
X-4300D01*
X-17400D02*
X-16000D01*
X-24500D02*
X-20800D01*
X-27300D02*
X-26200D01*
X-33900D02*
X-30500D01*
X-39500D02*
X-36700D01*
X-52600D02*
X-48800D01*
X-67000D02*
X-63000D01*
X-74900D02*
X-72200D01*
X-82600D02*
X-79900D01*
X-91000D02*
X-88300D01*
X13400Y51217D02*
X13500D01*
X7300D02*
X11500D01*
X-400D02*
X3900D01*
X-4400D02*
X-4200D01*
X-17400D02*
X-16000D01*
X-24500D02*
X-20800D01*
X-27300D02*
X-26100D01*
X-33900D02*
X-30500D01*
X-39400D02*
X-36700D01*
X-52600D02*
X-48800D01*
X-66900D02*
X-63100D01*
X-74900D02*
X-72200D01*
X-82600D02*
X-79900D01*
X-91000D02*
X-88300D01*
X13300Y51117D02*
X13500D01*
X7400D02*
X11500D01*
X-300D02*
X3900D01*
X-4400D02*
X-4200D01*
X-17400D02*
X-15900D01*
X-24600D02*
X-20900D01*
X-27200D02*
X-26100D01*
X-33900D02*
X-30500D01*
X-39400D02*
X-36700D01*
X-52600D02*
X-48800D01*
X-66900D02*
X-63200D01*
X-74900D02*
X-72200D01*
X-82600D02*
X-79900D01*
X-91000D02*
X-88300D01*
X13300Y51017D02*
X13400D01*
X7500D02*
X11400D01*
X-200D02*
X3900D01*
X-4400D02*
X-4200D01*
X-17400D02*
X-15900D01*
X-24600D02*
X-20900D01*
X-27200D02*
X-26000D01*
X-33900D02*
X-30500D01*
X-39400D02*
X-36600D01*
X-52700D02*
X-48900D01*
X-66800D02*
X-63200D01*
X-74900D02*
X-72200D01*
X-82600D02*
X-79900D01*
X-91000D02*
X-88300D01*
X13300Y50917D02*
X13400D01*
X7500D02*
X11400D01*
X-100D02*
X3800D01*
X-4300D02*
X-4100D01*
X-17400D02*
X-15900D01*
X-24700D02*
X-21000D01*
X-27100D02*
X-26000D01*
X-33900D02*
X-30500D01*
X-39400D02*
X-36600D01*
X-52700D02*
X-48900D01*
X-66800D02*
X-63300D01*
X-74900D02*
X-72200D01*
X-82600D02*
X-79900D01*
X-91000D02*
X-88300D01*
X13200Y50817D02*
X13400D01*
X7400D02*
X11300D01*
X-100D02*
X3800D01*
X-4300D02*
X-4100D01*
X-17400D02*
X-15900D01*
X-24700D02*
X-21000D01*
X-27100D02*
X-26000D01*
X-33900D02*
X-30500D01*
X-39400D02*
X-36600D01*
X-52700D02*
X-48900D01*
X-66800D02*
X-63400D01*
X-74900D02*
X-72200D01*
X-82600D02*
X-79900D01*
X-91100D02*
X-88300D01*
X13200Y50717D02*
X13300D01*
X7400D02*
X11300D01*
X-100D02*
X3800D01*
X-4300D02*
X-4100D01*
X-17400D02*
X-15900D01*
X-24800D02*
X-21100D01*
X-27100D02*
X-25900D01*
X-33900D02*
X-30500D01*
X-39400D02*
X-36600D01*
X-52700D02*
X-48900D01*
X-66800D02*
X-63400D01*
X-74900D02*
X-72200D01*
X-82600D02*
X-79900D01*
X-91100D02*
X-88300D01*
X13100Y50617D02*
X13300D01*
X7300D02*
X11200D01*
X-200D02*
X3700D01*
X-4200D02*
X-4000D01*
X-17500D02*
X-15900D01*
X-24800D02*
X-21100D01*
X-27000D02*
X-25900D01*
X-33900D02*
X-30500D01*
X-39400D02*
X-36600D01*
X-52800D02*
X-48900D01*
X-66800D02*
X-63400D01*
X-74900D02*
X-72200D01*
X-82600D02*
X-79900D01*
X-91100D02*
X-88300D01*
X13100Y50517D02*
X13300D01*
X7100D02*
X11100D01*
X5400D02*
X5600D01*
X-300D02*
X3600D01*
X-4200D02*
X-4000D01*
X-17500D02*
X-15900D01*
X-24900D02*
X-21200D01*
X-27000D02*
X-25900D01*
X-34000D02*
X-30500D01*
X-39400D02*
X-36500D01*
X-52800D02*
X-49000D01*
X-66800D02*
X-63400D01*
X-74900D02*
X-72200D01*
X-82600D02*
X-79900D01*
X-91100D02*
X-88300D01*
X13100Y50417D02*
X13200D01*
X5500D02*
X11000D01*
X-400D02*
X3600D01*
X-4200D02*
X-4000D01*
X-17500D02*
X-15900D01*
X-24900D02*
X-21200D01*
X-26900D02*
X-25800D01*
X-34000D02*
X-30500D01*
X-39400D02*
X-36500D01*
X-52800D02*
X-49000D01*
X-66800D02*
X-63500D01*
X-74900D02*
X-72200D01*
X-82600D02*
X-79900D01*
X-91100D02*
X-88300D01*
X13000Y50317D02*
X13200D01*
X5700D02*
X10900D01*
X-600D02*
X3500D01*
X-2100D02*
X-1700D01*
X-4100D02*
X-3900D01*
X-17500D02*
X-15900D01*
X-24900D02*
X-21300D01*
X-26900D02*
X-25800D01*
X-34000D02*
X-30500D01*
X-39400D02*
X-36500D01*
X-52800D02*
X-49000D01*
X-66800D02*
X-63500D01*
X-74900D02*
X-72200D01*
X-82600D02*
X-79900D01*
X-91100D02*
X-88300D01*
X13000Y50217D02*
X13100D01*
X5900D02*
X10700D01*
X-2000D02*
X3300D01*
X-4100D02*
X-3900D01*
X-17500D02*
X-15900D01*
X-25000D02*
X-21300D01*
X-26900D02*
X-25700D01*
X-34000D02*
X-30500D01*
X-39400D02*
X-36500D01*
X-52900D02*
X-49100D01*
X-66800D02*
X-63500D01*
X-74900D02*
X-72200D01*
X-82600D02*
X-79900D01*
X-91100D02*
X-88300D01*
X13000Y50117D02*
X13100D01*
X6000D02*
X10600D01*
X-1800D02*
X3200D01*
X-4000D02*
X-3900D01*
X-17500D02*
X-15900D01*
X-25000D02*
X-21300D01*
X-26800D02*
X-25700D01*
X-34000D02*
X-30500D01*
X-39400D02*
X-36500D01*
X-52900D02*
X-49100D01*
X-66800D02*
X-63500D01*
X-74900D02*
X-72200D01*
X-82600D02*
X-79900D01*
X-91100D02*
X-88300D01*
X12900Y50017D02*
X13100D01*
X6000D02*
X10500D01*
X-1700D02*
X3100D01*
X-4000D02*
X-3800D01*
X-17500D02*
X-15900D01*
X-25100D02*
X-21400D01*
X-26800D02*
X-25600D01*
X-34000D02*
X-30500D01*
X-39400D02*
X-36500D01*
X-52900D02*
X-49100D01*
X-66800D02*
X-63500D01*
X-74900D02*
X-72200D01*
X-82600D02*
X-79900D01*
X-91100D02*
X-88300D01*
X12900Y49917D02*
X13000D01*
X5900D02*
X10400D01*
X-1600D02*
X2900D01*
X-4000D02*
X-3800D01*
X-17500D02*
X-15900D01*
X-25200D02*
X-21400D01*
X-26700D02*
X-25600D01*
X-34000D02*
X-30500D01*
X-39400D02*
X-36400D01*
X-53000D02*
X-49200D01*
X-66800D02*
X-63500D01*
X-74900D02*
X-72200D01*
X-82600D02*
X-79900D01*
X-91100D02*
X-88300D01*
X12800Y49817D02*
X13000D01*
X5800D02*
X10300D01*
X-1600D02*
X2800D01*
X-3900D02*
X-3700D01*
X-17500D02*
X-15900D01*
X-25200D02*
X-21500D01*
X-26700D02*
X-25500D01*
X-34000D02*
X-30500D01*
X-39500D02*
X-36400D01*
X-53000D02*
X-49200D01*
X-66800D02*
X-63500D01*
X-74900D02*
X-72200D01*
X-82600D02*
X-79900D01*
X-91100D02*
X-88300D01*
X12800Y49717D02*
X12900D01*
X8000D02*
X10300D01*
X5700D02*
X7400D01*
X-1700D02*
X2700D01*
X-3900D02*
X-3700D01*
X-17500D02*
X-15900D01*
X-26700D02*
X-21500D01*
X-34000D02*
X-30500D01*
X-39500D02*
X-36400D01*
X-53000D02*
X-49200D01*
X-66800D02*
X-63500D01*
X-74900D02*
X-72200D01*
X-82600D02*
X-79900D01*
X-91100D02*
X-88300D01*
X12700Y49617D02*
X12900D01*
X8600D02*
X10400D01*
X5700D02*
X6800D01*
X-1800D02*
X2700D01*
X-3800D02*
X-3700D01*
X-17500D02*
X-15900D01*
X-26600D02*
X-21600D01*
X-34000D02*
X-30500D01*
X-39500D02*
X-36400D01*
X-53100D02*
X-49300D01*
X-66800D02*
X-63500D01*
X-74900D02*
X-72200D01*
X-82600D02*
X-79900D01*
X-91100D02*
X-88300D01*
X12700Y49517D02*
X12900D01*
X8800D02*
X10600D01*
X5600D02*
X6500D01*
X700D02*
X2700D01*
X-1900D02*
X-500D01*
X-3800D02*
X-3600D01*
X-17500D02*
X-15900D01*
X-26600D02*
X-21600D01*
X-34000D02*
X-30500D01*
X-39500D02*
X-36400D01*
X-53100D02*
X-49300D01*
X-66800D02*
X-63500D01*
X-74900D02*
X-72200D01*
X-82600D02*
X-79900D01*
X-91100D02*
X-88300D01*
X12700Y49417D02*
X12800D01*
X8800D02*
X10400D01*
X5500D02*
X6200D01*
X1200D02*
X3000D01*
X-2000D02*
X-900D01*
X-3800D02*
X-3600D01*
X-17500D02*
X-15900D01*
X-26500D02*
X-21700D01*
X-34000D02*
X-30500D01*
X-39500D02*
X-36400D01*
X-53200D02*
X-49300D01*
X-66800D02*
X-63500D01*
X-74900D02*
X-72200D01*
X-82600D02*
X-79900D01*
X-91100D02*
X-88300D01*
X12600Y49317D02*
X12800D01*
X8700D02*
X10200D01*
X5400D02*
X6000D01*
X1200D02*
X2900D01*
X-2000D02*
X-1200D01*
X-3700D02*
X-3500D01*
X-17500D02*
X-15800D01*
X-26500D02*
X-21700D01*
X-34000D02*
X-30500D01*
X-39500D02*
X-36400D01*
X-53200D02*
X-49400D01*
X-66800D02*
X-63500D01*
X-74900D02*
X-72200D01*
X-82600D02*
X-79900D01*
X-91100D02*
X-88300D01*
X12600Y49217D02*
X12700D01*
X8500D02*
X10100D01*
X5400D02*
X5700D01*
X1100D02*
X2800D01*
X-2100D02*
X-1500D01*
X-3700D02*
X-3500D01*
X-17500D02*
X-15800D01*
X-26500D02*
X-21800D01*
X-34000D02*
X-30500D01*
X-39600D02*
X-36400D01*
X-53300D02*
X-49400D01*
X-66800D02*
X-63500D01*
X-74900D02*
X-72200D01*
X-82600D02*
X-79900D01*
X-91100D02*
X-88300D01*
X12500Y49117D02*
X12700D01*
X8400D02*
X10100D01*
X5300D02*
X5500D01*
X1000D02*
X2600D01*
X-2200D02*
X-1700D01*
X-3600D02*
X-3400D01*
X-17500D02*
X-15800D01*
X-26400D02*
X-21800D01*
X-34000D02*
X-30500D01*
X-39600D02*
X-36500D01*
X-53300D02*
X-49500D01*
X-66800D02*
X-63500D01*
X-74900D02*
X-72200D01*
X-82600D02*
X-79900D01*
X-91100D02*
X-88300D01*
X12500Y49017D02*
X12600D01*
X9500D02*
X10200D01*
X8400D02*
X9400D01*
X900D02*
X2500D01*
X-2300D02*
X-2000D01*
X-3600D02*
X-3400D01*
X-17500D02*
X-15800D01*
X-26400D02*
X-21900D01*
X-34000D02*
X-30500D01*
X-39600D02*
X-36500D01*
X-53400D02*
X-49500D01*
X-66800D02*
X-63500D01*
X-74900D02*
X-72200D01*
X-82600D02*
X-79900D01*
X-91100D02*
X-88300D01*
X12400Y48917D02*
X12600D01*
X9700D02*
X10300D01*
X8500D02*
X9100D01*
X800D02*
X2600D01*
X-2300D02*
X-2200D01*
X-3500D02*
X-3400D01*
X-17500D02*
X-15800D01*
X-26300D02*
X-21900D01*
X-34000D02*
X-30500D01*
X-39600D02*
X-36500D01*
X-53400D02*
X-49600D01*
X-66800D02*
X-63500D01*
X-74900D02*
X-72200D01*
X-82600D02*
X-79900D01*
X-91100D02*
X-88300D01*
X12400Y48817D02*
X12600D01*
X1900D02*
X2700D01*
X800D02*
X1700D01*
X-3500D02*
X-3300D01*
X-17500D02*
X-15800D01*
X-26300D02*
X-21900D01*
X-34000D02*
X-30500D01*
X-39700D02*
X-36500D01*
X-53500D02*
X-49600D01*
X-66800D02*
X-63500D01*
X-74900D02*
X-72200D01*
X-82600D02*
X-79900D01*
X-91100D02*
X-88300D01*
X12300Y48717D02*
X12500D01*
X2200D02*
X2600D01*
X1000D02*
X1300D01*
X-3500D02*
X-3300D01*
X-17500D02*
X-15800D01*
X-26300D02*
X-22000D01*
X-34000D02*
X-30500D01*
X-39700D02*
X-36500D01*
X-53500D02*
X-49700D01*
X-66800D02*
X-63500D01*
X-74900D02*
X-72200D01*
X-82600D02*
X-79900D01*
X-91100D02*
X-88300D01*
X12300Y48617D02*
X12500D01*
X-3400D02*
X-3200D01*
X-17500D02*
X-15800D01*
X-26200D02*
X-22000D01*
X-34000D02*
X-30500D01*
X-39700D02*
X-36500D01*
X-53600D02*
X-49700D01*
X-66800D02*
X-63500D01*
X-74900D02*
X-72200D01*
X-82600D02*
X-79900D01*
X-91100D02*
X-88300D01*
X12200Y48517D02*
X12400D01*
X-3400D02*
X-3200D01*
X-17500D02*
X-15800D01*
X-26200D02*
X-22100D01*
X-34000D02*
X-30600D01*
X-39800D02*
X-36600D01*
X-53600D02*
X-49800D01*
X-66800D02*
X-63500D01*
X-74900D02*
X-72200D01*
X-82600D02*
X-79900D01*
X-91100D02*
X-88300D01*
X12200Y48417D02*
X12400D01*
X-3300D02*
X-3100D01*
X-17500D02*
X-15800D01*
X-26100D02*
X-22100D01*
X-34000D02*
X-30600D01*
X-39800D02*
X-36600D01*
X-53700D02*
X-49800D01*
X-66800D02*
X-63500D01*
X-74900D02*
X-72200D01*
X-82600D02*
X-79900D01*
X-91100D02*
X-88300D01*
X12100Y48317D02*
X12300D01*
X-3300D02*
X-3100D01*
X-17500D02*
X-15800D01*
X-26100D02*
X-22200D01*
X-34000D02*
X-30600D01*
X-39800D02*
X-36600D01*
X-53800D02*
X-49900D01*
X-66800D02*
X-63500D01*
X-74900D02*
X-72200D01*
X-82600D02*
X-79900D01*
X-91100D02*
X-88300D01*
X12100Y48217D02*
X12300D01*
X-3200D02*
X-3000D01*
X-17500D02*
X-15800D01*
X-26100D02*
X-22200D01*
X-34000D02*
X-30600D01*
X-39900D02*
X-36600D01*
X-53800D02*
X-49900D01*
X-66800D02*
X-63500D01*
X-74900D02*
X-72200D01*
X-82600D02*
X-79900D01*
X-91100D02*
X-88300D01*
X12100Y48117D02*
X12200D01*
X-3200D02*
X-3000D01*
X-17500D02*
X-15800D01*
X-26000D02*
X-22300D01*
X-34000D02*
X-30600D01*
X-39900D02*
X-36700D01*
X-53900D02*
X-50000D01*
X-66800D02*
X-63400D01*
X-74900D02*
X-72200D01*
X-82600D02*
X-79900D01*
X-91100D02*
X-88300D01*
X12000Y48017D02*
X12200D01*
X-3100D02*
X-2900D01*
X-17500D02*
X-15800D01*
X-26000D02*
X-22300D01*
X-34000D02*
X-30600D01*
X-40000D02*
X-36700D01*
X-54000D02*
X-50100D01*
X-66800D02*
X-63400D01*
X-74900D02*
X-72200D01*
X-82600D02*
X-79900D01*
X-91100D02*
X-88400D01*
X11900Y47917D02*
X12100D01*
X6400D02*
X6900D01*
X-3100D02*
X-2900D01*
X-17500D02*
X-15800D01*
X-25900D02*
X-22400D01*
X-34000D02*
X-30600D01*
X-40000D02*
X-36800D01*
X-54000D02*
X-50100D01*
X-66800D02*
X-63400D01*
X-74900D02*
X-72200D01*
X-82600D02*
X-79900D01*
X-91100D02*
X-88400D01*
X11900Y47817D02*
X12100D01*
X6100D02*
X7200D01*
X-3000D02*
X-2800D01*
X-17500D02*
X-15800D01*
X-25900D02*
X-22400D01*
X-34000D02*
X-30600D01*
X-40100D02*
X-36800D01*
X-54100D02*
X-50200D01*
X-66800D02*
X-63400D01*
X-74900D02*
X-72200D01*
X-82600D02*
X-79900D01*
X-91100D02*
X-88400D01*
X11800Y47717D02*
X12000D01*
X6000D02*
X7300D01*
X-3000D02*
X-2800D01*
X-17500D02*
X-15800D01*
X-25900D02*
X-22500D01*
X-34000D02*
X-30600D01*
X-40100D02*
X-36800D01*
X-54200D02*
X-50200D01*
X-66800D02*
X-63400D01*
X-74900D02*
X-72200D01*
X-82600D02*
X-79900D01*
X-91100D02*
X-88400D01*
X11800Y47617D02*
X12000D01*
X6900D02*
X7300D01*
X5900D02*
X6700D01*
X-2900D02*
X-2700D01*
X-17500D02*
X-15700D01*
X-25800D02*
X-22500D01*
X-34000D02*
X-30600D01*
X-40200D02*
X-36900D01*
X-54300D02*
X-50300D01*
X-66800D02*
X-63400D01*
X-74900D02*
X-72200D01*
X-82600D02*
X-79900D01*
X-91100D02*
X-88400D01*
X11700Y47517D02*
X11900D01*
X6900D02*
X7600D01*
X5800D02*
X6700D01*
X-2900D02*
X-2700D01*
X-17500D02*
X-15700D01*
X-25800D02*
X-22500D01*
X-34000D02*
X-30600D01*
X-40300D02*
X-36900D01*
X-54400D02*
X-50400D01*
X-66800D02*
X-63400D01*
X-74900D02*
X-72200D01*
X-82600D02*
X-79900D01*
X-91100D02*
X-88400D01*
X11700Y47417D02*
X11900D01*
X5700D02*
X7600D01*
X-2800D02*
X-2600D01*
X-17500D02*
X-15700D01*
X-25700D02*
X-22600D01*
X-34000D02*
X-30600D01*
X-40300D02*
X-37000D01*
X-54400D02*
X-50500D01*
X-66800D02*
X-63400D01*
X-74900D02*
X-72200D01*
X-82600D02*
X-79900D01*
X-91100D02*
X-88400D01*
X11600Y47317D02*
X11800D01*
X5700D02*
X7400D01*
X-2800D02*
X-2600D01*
X-17500D02*
X-15700D01*
X-25700D02*
X-22600D01*
X-34000D02*
X-30600D01*
X-40400D02*
X-37000D01*
X-54500D02*
X-50500D01*
X-66800D02*
X-63400D01*
X-74900D02*
X-72200D01*
X-82600D02*
X-79900D01*
X-91100D02*
X-88400D01*
X11600Y47217D02*
X11700D01*
X5700D02*
X7400D01*
X-2700D02*
X-2500D01*
X-17500D02*
X-15700D01*
X-25700D02*
X-22700D01*
X-34000D02*
X-30600D01*
X-40500D02*
X-37100D01*
X-54600D02*
X-50600D01*
X-66800D02*
X-63400D01*
X-74900D02*
X-72200D01*
X-82600D02*
X-79900D01*
X-91100D02*
X-88400D01*
X11500Y47117D02*
X11700D01*
X5700D02*
X7400D01*
X-2600D02*
X-2400D01*
X-17500D02*
X-15700D01*
X-25600D02*
X-22700D01*
X-34000D02*
X-30600D01*
X-40600D02*
X-37100D01*
X-54700D02*
X-50700D01*
X-66800D02*
X-63400D01*
X-74900D02*
X-72200D01*
X-82600D02*
X-79900D01*
X-91100D02*
X-88400D01*
X11400Y47017D02*
X11600D01*
X5700D02*
X7500D01*
X3100D02*
X3200D01*
X-2600D02*
X-2400D01*
X-17500D02*
X-15700D01*
X-25600D02*
X-22800D01*
X-34000D02*
X-30600D01*
X-40600D02*
X-37200D01*
X-54800D02*
X-50800D01*
X-66800D02*
X-63400D01*
X-74900D02*
X-72200D01*
X-82600D02*
X-79900D01*
X-91100D02*
X-88400D01*
X11400Y46917D02*
X11600D01*
X5700D02*
X7500D01*
X3100D02*
X3500D01*
X-2500D02*
X-2300D01*
X-17500D02*
X-15700D01*
X-25500D02*
X-22800D01*
X-34000D02*
X-30600D01*
X-40700D02*
X-37200D01*
X-54900D02*
X-50800D01*
X-66800D02*
X-63300D01*
X-74900D02*
X-72200D01*
X-82600D02*
X-79900D01*
X-91100D02*
X-88400D01*
X11300Y46817D02*
X11500D01*
X5700D02*
X7400D01*
X3200D02*
X3700D01*
X-2500D02*
X-2300D01*
X-17500D02*
X-15700D01*
X-25500D02*
X-22900D01*
X-34000D02*
X-30600D01*
X-40800D02*
X-37300D01*
X-55000D02*
X-50900D01*
X-66800D02*
X-63300D01*
X-74900D02*
X-72200D01*
X-82600D02*
X-79900D01*
X-91100D02*
X-88400D01*
X11300Y46717D02*
X11500D01*
X5700D02*
X7300D01*
X3200D02*
X3900D01*
X-2400D02*
X-2200D01*
X-17500D02*
X-15700D01*
X-25500D02*
X-22900D01*
X-34100D02*
X-30600D01*
X-40900D02*
X-37400D01*
X-55100D02*
X-51000D01*
X-66800D02*
X-63300D01*
X-74900D02*
X-72200D01*
X-82600D02*
X-79900D01*
X-91100D02*
X-88400D01*
X11200Y46617D02*
X11400D01*
X5600D02*
X7300D01*
X3300D02*
X4200D01*
X-2400D02*
X-2200D01*
X-17500D02*
X-15700D01*
X-25400D02*
X-23000D01*
X-34100D02*
X-30600D01*
X-41000D02*
X-37400D01*
X-55200D02*
X-51100D01*
X-66800D02*
X-63300D01*
X-74900D02*
X-72200D01*
X-82600D02*
X-79900D01*
X-91100D02*
X-88400D01*
X11100Y46517D02*
X11300D01*
X5500D02*
X7400D01*
X3300D02*
X4400D01*
X-2300D02*
X-2100D01*
X-17500D02*
X-15700D01*
X-25400D02*
X-23000D01*
X-34100D02*
X-30600D01*
X-41100D02*
X-37500D01*
X-55400D02*
X-51200D01*
X-66800D02*
X-63300D01*
X-74900D02*
X-72200D01*
X-82700D02*
X-79900D01*
X-91100D02*
X-88400D01*
X11100Y46417D02*
X11300D01*
X5300D02*
X7400D01*
X3300D02*
X4800D01*
X-2200D02*
X-2000D01*
X-17500D02*
X-15700D01*
X-25300D02*
X-23100D01*
X-34100D02*
X-30600D01*
X-41300D02*
X-37600D01*
X-55500D02*
X-51300D01*
X-66800D02*
X-63300D01*
X-74900D02*
X-72200D01*
X-82700D02*
X-79900D01*
X-91100D02*
X-88400D01*
X11000Y46317D02*
X11200D01*
X2900D02*
X7400D01*
X-2200D02*
X-2000D01*
X-17500D02*
X-15700D01*
X-25300D02*
X-23100D01*
X-34200D02*
X-30600D01*
X-41400D02*
X-37600D01*
X-55600D02*
X-51400D01*
X-66800D02*
X-63200D01*
X-74900D02*
X-72300D01*
X-82700D02*
X-79900D01*
X-91100D02*
X-88400D01*
X11000Y46217D02*
X11200D01*
X2900D02*
X7500D01*
X-2100D02*
X-1900D01*
X-17500D02*
X-15700D01*
X-25300D02*
X-23100D01*
X-34200D02*
X-30600D01*
X-41500D02*
X-37700D01*
X-46800D02*
X-46400D01*
X-55800D02*
X-51500D01*
X-66800D02*
X-63200D01*
X-74900D02*
X-72300D01*
X-82700D02*
X-79900D01*
X-91200D02*
X-88400D01*
X10900Y46117D02*
X11100D01*
X3000D02*
X7500D01*
X-2000D02*
X-1800D01*
X-17500D02*
X-15700D01*
X-25200D02*
X-23200D01*
X-34200D02*
X-30600D01*
X-41700D02*
X-37800D01*
X-46900D02*
X-46200D01*
X-55900D02*
X-51600D01*
X-66800D02*
X-63200D01*
X-74900D02*
X-72300D01*
X-82800D02*
X-79900D01*
X-91200D02*
X-88400D01*
X10800Y46017D02*
X11000D01*
X3000D02*
X7500D01*
X-2000D02*
X-1800D01*
X-17600D02*
X-15700D01*
X-25200D02*
X-23200D01*
X-34300D02*
X-30600D01*
X-41900D02*
X-37900D01*
X-47000D02*
X-45900D01*
X-56100D02*
X-51800D01*
X-66700D02*
X-63100D01*
X-75000D02*
X-72200D01*
X-82800D02*
X-79900D01*
X-91200D02*
X-88400D01*
X10800Y45917D02*
X11000D01*
X3100D02*
X7500D01*
X-1900D02*
X-1700D01*
X-17600D02*
X-15700D01*
X-25100D02*
X-23300D01*
X-34300D02*
X-30600D01*
X-42100D02*
X-38000D01*
X-47000D02*
X-45700D01*
X-56200D02*
X-51900D01*
X-66700D02*
X-63100D01*
X-75000D02*
X-72200D01*
X-82800D02*
X-79900D01*
X-91200D02*
X-88400D01*
X10700Y45817D02*
X10900D01*
X3200D02*
X7500D01*
X-1800D02*
X-1600D01*
X-17600D02*
X-15600D01*
X-25100D02*
X-23300D01*
X-34400D02*
X-30600D01*
X-42300D02*
X-38000D01*
X-47000D02*
X-45400D01*
X-56300D02*
X-52000D01*
X-66700D02*
X-63000D01*
X-75000D02*
X-72200D01*
X-82900D02*
X-79900D01*
X-91300D02*
X-88400D01*
X10600Y45717D02*
X10800D01*
X3300D02*
X7500D01*
X-1800D02*
X-1600D01*
X-17700D02*
X-15600D01*
X-25100D02*
X-23400D01*
X-34500D02*
X-30500D01*
X-42700D02*
X-38100D01*
X-46900D02*
X-45000D01*
X-56500D02*
X-52100D01*
X-66600D02*
X-62900D01*
X-75100D02*
X-72200D01*
X-82900D02*
X-79900D01*
X-91300D02*
X-88300D01*
X10600Y45617D02*
X10800D01*
X3500D02*
X7500D01*
X-1700D02*
X-1500D01*
X-17800D02*
X-15600D01*
X-25000D02*
X-23400D01*
X-34500D02*
X-30500D01*
X-43100D02*
X-38200D01*
X-46900D02*
X-44600D01*
X-56700D02*
X-52300D01*
X-66600D02*
X-62800D01*
X-75100D02*
X-72200D01*
X-83000D02*
X-79800D01*
X-91400D02*
X-88300D01*
X10500Y45517D02*
X10700D01*
X3600D02*
X7500D01*
X-1600D02*
X-1400D01*
X-17800D02*
X-15500D01*
X-25000D02*
X-23500D01*
X-34600D02*
X-30400D01*
X-46800D02*
X-38300D01*
X-56900D02*
X-52400D01*
X-66500D02*
X-62700D01*
X-75200D02*
X-72200D01*
X-83000D02*
X-79800D01*
X-91400D02*
X-88300D01*
X10400Y45417D02*
X10600D01*
X3500D02*
X7400D01*
X-1600D02*
X-1400D01*
X-17900D02*
X-15500D01*
X-24900D02*
X-23500D01*
X-34700D02*
X-30400D01*
X-46700D02*
X-38500D01*
X-57100D02*
X-52500D01*
X-66400D02*
X-62600D01*
X-75200D02*
X-72100D01*
X-83100D02*
X-79700D01*
X-91500D02*
X-88200D01*
X10300Y45317D02*
X10600D01*
X3500D02*
X7400D01*
X-1500D02*
X-1300D01*
X-18100D02*
X-15400D01*
X-24900D02*
X-23600D01*
X-34900D02*
X-30300D01*
X-46600D02*
X-38600D01*
X-57300D02*
X-52700D01*
X-66400D02*
X-62500D01*
X-75300D02*
X-72100D01*
X-83200D02*
X-79700D01*
X-91600D02*
X-88200D01*
X10300Y45217D02*
X10500D01*
X3400D02*
X7300D01*
X-1400D02*
X-1200D01*
X-18200D02*
X-15300D01*
X-24900D02*
X-23600D01*
X-35000D02*
X-30200D01*
X-46400D02*
X-38700D01*
X-57600D02*
X-52900D01*
X-66300D02*
X-62300D01*
X-75400D02*
X-72000D01*
X-83300D02*
X-79600D01*
X-91700D02*
X-88100D01*
X10200Y45117D02*
X10400D01*
X3400D02*
X7200D01*
X-1400D02*
X-1200D01*
X-18400D02*
X-15200D01*
X-24800D02*
X-23700D01*
X-35300D02*
X-30000D01*
X-46300D02*
X-38800D01*
X-57800D02*
X-53000D01*
X-66100D02*
X-62200D01*
X-75500D02*
X-71900D01*
X-83500D02*
X-79500D01*
X-91800D02*
X-88000D01*
X10100Y45017D02*
X10300D01*
X3200D02*
X7200D01*
X-1300D02*
X-1100D01*
X-18600D02*
X-15100D01*
X-24800D02*
X-23700D01*
X-35500D02*
X-29900D01*
X-46100D02*
X-38900D01*
X-58100D02*
X-53200D01*
X-66000D02*
X-62000D01*
X-75700D02*
X-71800D01*
X-83700D02*
X-79300D01*
X-92000D02*
X-87900D01*
X10100Y44917D02*
X10300D01*
X2900D02*
X7000D01*
X1600D02*
X2300D01*
X-1200D02*
X-1000D01*
X-18900D02*
X-15000D01*
X-24700D02*
X-23800D01*
X-35800D02*
X-29700D01*
X-45900D02*
X-39100D01*
X-58500D02*
X-53400D01*
X-65900D02*
X-61700D01*
X-75800D02*
X-71600D01*
X-83900D02*
X-79200D01*
X-92200D02*
X-87700D01*
X10000Y44817D02*
X10200D01*
X1700D02*
X6900D01*
X-1100D02*
X-900D01*
X-19200D02*
X-14800D01*
X-24700D02*
X-23800D01*
X-36200D02*
X-29400D01*
X-45700D02*
X-39200D01*
X-58900D02*
X-53600D01*
X-65700D02*
X-61400D01*
X-76100D02*
X-71400D01*
X-84200D02*
X-79000D01*
X-92400D02*
X-87600D01*
X9900Y44717D02*
X10100D01*
X1900D02*
X6800D01*
X-1100D02*
X-900D01*
X-19500D02*
X-14500D01*
X-24600D02*
X-23900D01*
X-36600D02*
X-29000D01*
X-45500D02*
X-39400D01*
X-59600D02*
X-53800D01*
X-65500D02*
X-60800D01*
X-76300D02*
X-71200D01*
X-84400D02*
X-78700D01*
X-92700D02*
X-87400D01*
X9800Y44617D02*
X10000D01*
X2000D02*
X6700D01*
X-1000D02*
X-800D01*
X-19800D02*
X-14200D01*
X-24600D02*
X-24000D01*
X-37000D02*
X-28600D01*
X-45300D02*
X-39600D01*
X-65300D02*
X-54000D01*
X-76600D02*
X-70900D01*
X-84700D02*
X-78400D01*
X-92900D02*
X-87100D01*
X9700Y44517D02*
X10000D01*
X2100D02*
X6500D01*
X-900D02*
X-700D01*
X-20100D02*
X-13800D01*
X-24500D02*
X-24100D01*
X-37100D02*
X-28300D01*
X-45100D02*
X-39700D01*
X-65100D02*
X-54200D01*
X-76800D02*
X-70700D01*
X-84800D02*
X-78100D01*
X-93200D02*
X-86800D01*
X9700Y44417D02*
X9900D01*
X2000D02*
X6400D01*
X-800D02*
X-600D01*
X-20500D02*
X-13500D01*
X-24400D02*
X-24200D01*
X-37300D02*
X-28200D01*
X-44800D02*
X-39900D01*
X-64900D02*
X-54500D01*
X-76900D02*
X-70500D01*
X-84900D02*
X-77900D01*
X-93300D02*
X-86500D01*
X9600Y44317D02*
X9800D01*
X1900D02*
X6300D01*
X-800D02*
X-600D01*
X-20600D02*
X-13100D01*
X-37300D02*
X-28000D01*
X-44600D02*
X-40200D01*
X-64600D02*
X-54800D01*
X-77000D02*
X-70300D01*
X-85000D02*
X-77700D01*
X-93400D02*
X-86300D01*
X9500Y44217D02*
X9700D01*
X1800D02*
X6300D01*
X-700D02*
X-500D01*
X-20700D02*
X-12800D01*
X-37400D02*
X-28000D01*
X-44200D02*
X-40500D01*
X-64300D02*
X-55100D01*
X-77000D02*
X-70200D01*
X-85100D02*
X-77600D01*
X-93500D02*
X-86200D01*
X9400Y44117D02*
X9600D01*
X4600D02*
X6400D01*
X1700D02*
X2900D01*
X-600D02*
X-400D01*
X-20800D02*
X-12700D01*
X-37400D02*
X-27900D01*
X-43900D02*
X-40700D01*
X-64100D02*
X-55400D01*
X-77000D02*
X-70100D01*
X-85100D02*
X-77600D01*
X-93500D02*
X-86100D01*
X9400Y44017D02*
X9600D01*
X4800D02*
X6600D01*
X1700D02*
X2600D01*
X-500D02*
X-300D01*
X-20800D02*
X-12700D01*
X-37400D02*
X-27900D01*
X-43400D02*
X-41200D01*
X-63600D02*
X-55800D01*
X-77000D02*
X-70100D01*
X-85000D02*
X-77600D01*
X-93500D02*
X-86000D01*
X9300Y43917D02*
X9500D01*
X4800D02*
X6500D01*
X1600D02*
X2300D01*
X-400D02*
X-200D01*
X-20700D02*
X-12700D01*
X-31300D02*
X-28000D01*
X-37300D02*
X-34100D01*
X-42600D02*
X-41900D01*
X-63100D02*
X-56200D01*
X-72500D02*
X-70100D01*
X-77000D02*
X-74900D01*
X-79700D02*
X-77700D01*
X-84900D02*
X-83300D01*
X-89100D02*
X-86100D01*
X-93500D02*
X-90800D01*
X9200Y43817D02*
X9400D01*
X4700D02*
X6300D01*
X1500D02*
X2100D01*
X-400D02*
X-100D01*
X-15700D02*
X-12700D01*
X-20700D02*
X-18200D01*
X-29800D02*
X-28100D01*
X-37200D02*
X-35500D01*
X-62500D02*
X-56700D01*
X-71800D02*
X-70100D01*
X-76900D02*
X-75800D01*
X-78900D02*
X-77900D01*
X-84600D02*
X-84300D01*
X-88000D02*
X-86200D01*
X-93400D02*
X-92000D01*
X9100Y43717D02*
X9300D01*
X4600D02*
X6200D01*
X1400D02*
X1800D01*
X-300D02*
X-100D01*
X-14700D02*
X-12700D01*
X-20600D02*
X-19700D01*
X-28800D02*
X-28300D01*
X-37000D02*
X-36400D01*
X-61800D02*
X-57400D01*
X-71300D02*
X-70200D01*
X-87200D02*
X-86400D01*
X9000Y43617D02*
X9200D01*
X4500D02*
X6200D01*
X1400D02*
X1600D01*
X-200D02*
X-0D01*
X-13800D02*
X-12800D01*
X-60600D02*
X-58400D01*
X-70800D02*
X-70600D01*
X8900Y43517D02*
X9100D01*
X4400D02*
X6300D01*
X1300D02*
X1400D01*
X-100D02*
X100D01*
X8800Y43417D02*
X9000D01*
X5700D02*
X6300D01*
X4500D02*
X5200D01*
X-0D02*
X200D01*
X8700Y43317D02*
X8900D01*
X100D02*
X300D01*
X8600Y43217D02*
X8900D01*
X200D02*
X400D01*
X8600Y43117D02*
X8800D01*
X200D02*
X500D01*
X8500Y43017D02*
X8700D01*
X300D02*
X600D01*
X8400Y42917D02*
X8600D01*
X400D02*
X700D01*
X8300Y42817D02*
X8500D01*
X500D02*
X800D01*
X8200Y42717D02*
X8400D01*
X600D02*
X800D01*
X8100Y42617D02*
X8300D01*
X700D02*
X900D01*
X8000Y42517D02*
X8200D01*
X800D02*
X1000D01*
X7900Y42417D02*
X8100D01*
X900D02*
X1100D01*
X7800Y42317D02*
X8000D01*
X1000D02*
X1200D01*
X7700Y42217D02*
X7900D01*
X1100D02*
X1300D01*
X7600Y42117D02*
X7800D01*
X1200D02*
X1400D01*
X7500Y42017D02*
X7600D01*
X1300D02*
X1500D01*
X7300Y41917D02*
X7500D01*
X1400D02*
X1700D01*
X7200Y41817D02*
X7400D01*
X1500D02*
X1800D01*
X7100Y41717D02*
X7300D01*
X1600D02*
X1900D01*
X7000Y41617D02*
X7200D01*
X1700D02*
X2000D01*
X6900Y41517D02*
X7100D01*
X1900D02*
X2100D01*
X6800Y41417D02*
X7000D01*
X2000D02*
X2200D01*
X6600Y41317D02*
X6900D01*
X2100D02*
X2300D01*
X6500Y41217D02*
X6700D01*
X2200D02*
X2400D01*
X6400Y41117D02*
X6600D01*
X2300D02*
X2500D01*
X6300Y41017D02*
X6500D01*
X2400D02*
X2700D01*
X6200Y40917D02*
X6400D01*
X2600D02*
X2800D01*
X6000Y40817D02*
X6200D01*
X2700D02*
X2900D01*
X5900Y40717D02*
X6100D01*
X2800D02*
X3100D01*
X5800Y40617D02*
X6000D01*
X2900D02*
X3200D01*
X5600Y40517D02*
X5900D01*
X3000D02*
X3300D01*
X5500Y40417D02*
X5700D01*
X3200D02*
X3400D01*
X5400Y40317D02*
X5600D01*
X3300D02*
X3600D01*
X5200Y40217D02*
X5400D01*
X3400D02*
X3700D01*
X5100Y40117D02*
X5300D01*
X3600D02*
X3800D01*
X4900Y40017D02*
X5200D01*
X3700D02*
X4000D01*
X4800Y39917D02*
X5000D01*
X3800D02*
X4100D01*
X4600Y39817D02*
X4900D01*
X4000D02*
X4200D01*
X4500Y39717D02*
X4700D01*
X4100D02*
X4400D01*
X4300Y39617D02*
X4600D01*
D53*
X-24978Y68125D02*
X-24628D01*
X-17978D02*
X-17678D01*
X-28378Y68175D02*
X-28028D01*
X-27328D02*
X-26878D01*
X-26478D02*
X-26128D01*
X-25128D02*
X-24478D01*
X-23328D02*
X-22978D01*
X-22278D02*
X-21928D01*
X-21128D02*
X-20778D01*
X-20378D02*
X-19978D01*
X-19528D02*
X-19228D01*
X-18178D02*
X-17528D01*
X-16278D02*
X-15478D01*
X-15028D02*
X-14678D01*
X-13878D02*
X-13528D01*
X-13178D02*
X-12278D01*
X-28378Y68225D02*
X-28028D01*
X-27278D02*
X-26878D01*
X-26478D02*
X-26128D01*
X-25228D02*
X-24378D01*
X-23328D02*
X-22978D01*
X-22278D02*
X-21928D01*
X-21128D02*
X-20828D01*
X-20328D02*
X-19928D01*
X-19528D02*
X-19228D01*
X-18278D02*
X-17428D01*
X-16428D02*
X-15478D01*
X-15028D02*
X-14628D01*
X-13878D02*
X-13528D01*
X-13178D02*
X-12278D01*
X-28378Y68275D02*
X-28028D01*
X-27228D02*
X-26828D01*
X-26478D02*
X-26128D01*
X-25328D02*
X-24328D01*
X-23328D02*
X-22978D01*
X-22278D02*
X-21878D01*
X-21178D02*
X-20828D01*
X-20328D02*
X-19878D01*
X-19528D02*
X-19228D01*
X-18378D02*
X-17378D01*
X-16478D02*
X-15478D01*
X-14978D02*
X-14628D01*
X-13878D02*
X-13578D01*
X-13178D02*
X-12278D01*
X-28378Y68325D02*
X-28028D01*
X-27178D02*
X-26778D01*
X-26478D02*
X-26128D01*
X-25378D02*
X-24278D01*
X-23328D02*
X-22978D01*
X-22228D02*
X-21878D01*
X-21178D02*
X-20828D01*
X-20278D02*
X-19878D01*
X-19528D02*
X-19228D01*
X-18428D02*
X-17328D01*
X-16528D02*
X-15528D01*
X-14978D02*
X-14628D01*
X-13928D02*
X-13578D01*
X-13178D02*
X-12278D01*
X-28378Y68375D02*
X-28028D01*
X-27178D02*
X-26778D01*
X-26478D02*
X-26128D01*
X-25428D02*
X-24228D01*
X-23328D02*
X-22978D01*
X-22228D02*
X-21878D01*
X-21178D02*
X-20878D01*
X-20228D02*
X-19828D01*
X-19528D02*
X-19228D01*
X-18478D02*
X-17278D01*
X-16578D02*
X-15478D01*
X-14978D02*
X-14578D01*
X-13928D02*
X-13578D01*
X-13178D02*
X-12278D01*
X-28378Y68425D02*
X-28028D01*
X-27128D02*
X-26728D01*
X-26478D02*
X-26128D01*
X-25478D02*
X-24928D01*
X-24728D02*
X-24178D01*
X-23328D02*
X-22978D01*
X-22228D02*
X-21828D01*
X-21228D02*
X-20878D01*
X-20228D02*
X-19778D01*
X-19528D02*
X-19228D01*
X-18528D02*
X-17978D01*
X-17778D02*
X-17228D01*
X-16578D02*
X-16128D01*
X-15828D02*
X-15478D01*
X-14928D02*
X-14578D01*
X-13928D02*
X-13628D01*
X-13128D02*
X-12278D01*
X-28378Y68475D02*
X-28028D01*
X-27078D02*
X-26678D01*
X-26478D02*
X-26128D01*
X-25478D02*
X-25028D01*
X-24628D02*
X-24128D01*
X-23328D02*
X-22978D01*
X-22178D02*
X-20878D01*
X-20178D02*
X-19778D01*
X-19528D02*
X-19228D01*
X-18528D02*
X-18078D01*
X-17678D02*
X-17228D01*
X-16628D02*
X-16228D01*
X-15828D02*
X-15478D01*
X-14928D02*
X-14378D01*
X-14328D02*
X-13628D01*
X-12628D02*
X-12278D01*
X-28378Y68525D02*
X-28028D01*
X-27078D02*
X-26678D01*
X-26478D02*
X-26128D01*
X-25528D02*
X-25128D01*
X-24528D02*
X-24128D01*
X-23328D02*
X-22978D01*
X-22178D02*
X-20928D01*
X-20128D02*
X-19728D01*
X-19528D02*
X-19228D01*
X-18578D02*
X-18178D01*
X-17628D02*
X-17178D01*
X-16628D02*
X-16278D01*
X-15828D02*
X-15478D01*
X-14928D02*
X-13628D01*
X-12628D02*
X-12278D01*
X-28378Y68575D02*
X-28028D01*
X-27028D02*
X-26628D01*
X-26478D02*
X-26128D01*
X-25528D02*
X-25178D01*
X-24528D02*
X-24128D01*
X-23328D02*
X-22978D01*
X-22178D02*
X-20928D01*
X-20078D02*
X-19678D01*
X-19528D02*
X-19228D01*
X-18578D02*
X-18228D01*
X-17578D02*
X-17178D01*
X-16628D02*
X-16278D01*
X-15828D02*
X-15478D01*
X-14878D02*
X-13678D01*
X-12628D02*
X-12278D01*
X-28378Y68625D02*
X-28028D01*
X-26978D02*
X-26578D01*
X-26478D02*
X-26128D01*
X-25578D02*
X-25178D01*
X-24478D02*
X-24078D01*
X-23328D02*
X-22978D01*
X-22128D02*
X-20928D01*
X-20078D02*
X-19678D01*
X-19528D02*
X-19228D01*
X-18628D02*
X-18228D01*
X-17528D02*
X-17128D01*
X-16628D02*
X-16278D01*
X-15828D02*
X-15478D01*
X-14878D02*
X-13678D01*
X-12628D02*
X-12278D01*
X-28378Y68675D02*
X-28028D01*
X-26928D02*
X-26578D01*
X-26478D02*
X-26128D01*
X-25578D02*
X-25228D01*
X-24478D02*
X-24078D01*
X-23328D02*
X-22978D01*
X-22128D02*
X-20978D01*
X-20028D02*
X-19628D01*
X-19528D02*
X-19228D01*
X-18628D02*
X-18278D01*
X-17528D02*
X-17128D01*
X-16628D02*
X-16278D01*
X-15828D02*
X-15478D01*
X-14828D02*
X-13678D01*
X-12628D02*
X-12278D01*
X-28378Y68725D02*
X-28028D01*
X-26928D02*
X-26528D01*
X-26478D02*
X-26128D01*
X-25578D02*
X-25228D01*
X-24428D02*
X-24078D01*
X-23328D02*
X-22978D01*
X-22078D02*
X-20978D01*
X-19978D02*
X-19578D01*
X-19528D02*
X-19228D01*
X-18628D02*
X-18278D01*
X-17478D02*
X-17128D01*
X-16628D02*
X-16278D01*
X-15828D02*
X-15478D01*
X-14828D02*
X-13728D01*
X-12628D02*
X-12278D01*
X-28378Y68775D02*
X-28028D01*
X-26878D02*
X-26128D01*
X-25578D02*
X-25228D01*
X-24428D02*
X-24078D01*
X-23328D02*
X-22978D01*
X-22078D02*
X-21728D01*
X-21328D02*
X-20978D01*
X-19928D02*
X-19228D01*
X-18628D02*
X-18278D01*
X-17478D02*
X-17128D01*
X-16628D02*
X-16228D01*
X-15828D02*
X-15478D01*
X-14828D02*
X-14478D01*
X-14078D02*
X-13728D01*
X-12628D02*
X-12278D01*
X-28428Y68825D02*
X-27978D01*
X-26828D02*
X-26128D01*
X-25628D02*
X-25278D01*
X-24428D02*
X-24078D01*
X-23328D02*
X-22978D01*
X-22078D02*
X-21728D01*
X-21328D02*
X-21028D01*
X-19928D02*
X-19228D01*
X-18678D02*
X-18328D01*
X-17478D02*
X-17128D01*
X-16628D02*
X-16178D01*
X-15828D02*
X-15478D01*
X-14778D02*
X-14428D01*
X-14078D02*
X-13728D01*
X-12628D02*
X-12278D01*
X-28428Y68875D02*
X-27978D01*
X-26828D02*
X-26128D01*
X-25628D02*
X-25278D01*
X-24428D02*
X-24078D01*
X-23328D02*
X-22978D01*
X-22028D02*
X-21678D01*
X-21378D02*
X-21028D01*
X-19928D02*
X-19228D01*
X-18678D02*
X-18328D01*
X-17478D02*
X-17128D01*
X-16578D02*
X-15478D01*
X-14778D02*
X-14428D01*
X-14078D02*
X-13778D01*
X-12628D02*
X-12278D01*
X-28478Y68925D02*
X-27928D01*
X-26978D02*
X-26128D01*
X-25628D02*
X-25278D01*
X-24428D02*
X-24078D01*
X-23328D02*
X-22978D01*
X-22028D02*
X-21678D01*
X-21378D02*
X-21028D01*
X-20028D02*
X-19228D01*
X-18678D02*
X-18328D01*
X-17478D02*
X-17128D01*
X-16528D02*
X-15478D01*
X-14778D02*
X-14428D01*
X-14128D02*
X-13778D01*
X-12628D02*
X-12278D01*
X-28478Y68975D02*
X-27928D01*
X-27028D02*
X-26128D01*
X-25628D02*
X-25278D01*
X-24428D02*
X-24078D01*
X-23328D02*
X-22978D01*
X-22028D02*
X-21678D01*
X-21378D02*
X-21078D01*
X-20128D02*
X-19228D01*
X-18678D02*
X-18328D01*
X-17478D02*
X-17128D01*
X-16478D02*
X-15478D01*
X-14728D02*
X-14378D01*
X-14128D02*
X-13778D01*
X-12628D02*
X-12278D01*
X-28528Y69025D02*
X-27878D01*
X-27078D02*
X-26128D01*
X-25628D02*
X-25278D01*
X-24428D02*
X-24078D01*
X-23328D02*
X-22978D01*
X-21978D02*
X-21628D01*
X-21428D02*
X-21078D01*
X-20178D02*
X-19228D01*
X-18678D02*
X-18328D01*
X-17478D02*
X-17128D01*
X-16378D02*
X-15478D01*
X-14728D02*
X-14378D01*
X-14128D02*
X-13828D01*
X-12628D02*
X-12278D01*
X-28528Y69075D02*
X-27878D01*
X-27128D02*
X-26678D01*
X-26478D02*
X-26128D01*
X-25628D02*
X-25278D01*
X-24428D02*
X-24078D01*
X-23328D02*
X-22978D01*
X-21978D02*
X-21628D01*
X-21428D02*
X-21128D01*
X-20228D02*
X-19778D01*
X-19528D02*
X-19228D01*
X-18678D02*
X-18328D01*
X-17478D02*
X-17128D01*
X-16478D02*
X-15528D01*
X-14728D02*
X-14378D01*
X-14178D02*
X-13828D01*
X-12628D02*
X-12278D01*
X-28578Y69125D02*
X-28228D01*
X-28178D02*
X-27828D01*
X-27178D02*
X-26778D01*
X-26478D02*
X-26128D01*
X-25628D02*
X-25228D01*
X-24428D02*
X-24078D01*
X-23328D02*
X-22978D01*
X-21978D02*
X-21628D01*
X-21428D02*
X-21128D01*
X-20228D02*
X-19878D01*
X-19528D02*
X-19228D01*
X-18678D02*
X-18328D01*
X-17478D02*
X-17128D01*
X-16528D02*
X-16078D01*
X-15828D02*
X-15478D01*
X-14678D02*
X-14328D01*
X-14178D02*
X-13878D01*
X-12628D02*
X-12278D01*
X-28578Y69175D02*
X-28278D01*
X-28178D02*
X-27828D01*
X-27178D02*
X-26828D01*
X-26478D02*
X-26128D01*
X-25628D02*
X-25228D01*
X-24428D02*
X-24078D01*
X-23328D02*
X-22978D01*
X-21928D02*
X-21578D01*
X-21478D02*
X-21128D01*
X-20278D02*
X-19928D01*
X-19528D02*
X-19228D01*
X-18678D02*
X-18278D01*
X-17478D02*
X-17128D01*
X-16528D02*
X-16178D01*
X-15828D02*
X-15478D01*
X-14678D02*
X-14328D01*
X-14178D02*
X-13878D01*
X-12628D02*
X-12278D01*
X-28628Y69225D02*
X-28278D01*
X-28128D02*
X-27778D01*
X-27178D02*
X-26878D01*
X-26478D02*
X-26128D01*
X-25578D02*
X-25228D01*
X-24428D02*
X-24078D01*
X-23328D02*
X-22978D01*
X-21928D02*
X-21578D01*
X-21478D02*
X-21178D01*
X-20278D02*
X-19928D01*
X-19528D02*
X-19228D01*
X-18678D02*
X-18278D01*
X-17528D02*
X-17128D01*
X-16578D02*
X-16228D01*
X-15828D02*
X-15478D01*
X-14678D02*
X-14328D01*
X-14228D02*
X-13878D01*
X-12628D02*
X-12278D01*
X-28628Y69275D02*
X-28278D01*
X-28128D02*
X-27778D01*
X-27228D02*
X-26878D01*
X-26478D02*
X-26128D01*
X-25578D02*
X-25228D01*
X-24478D02*
X-24128D01*
X-23328D02*
X-22978D01*
X-21928D02*
X-21578D01*
X-21478D02*
X-21178D01*
X-20278D02*
X-19928D01*
X-19528D02*
X-19228D01*
X-18628D02*
X-18278D01*
X-17528D02*
X-17178D01*
X-16578D02*
X-16278D01*
X-15828D02*
X-15478D01*
X-14628D02*
X-14278D01*
X-14228D02*
X-13928D01*
X-12628D02*
X-12278D01*
X-28678Y69325D02*
X-28328D01*
X-28078D02*
X-27728D01*
X-27228D02*
X-26878D01*
X-26478D02*
X-26128D01*
X-25578D02*
X-25178D01*
X-24478D02*
X-24128D01*
X-23328D02*
X-22978D01*
X-21878D02*
X-21178D01*
X-20278D02*
X-19928D01*
X-19528D02*
X-19228D01*
X-18628D02*
X-18228D01*
X-17578D02*
X-17178D01*
X-16628D02*
X-16278D01*
X-15828D02*
X-15478D01*
X-14628D02*
X-14278D01*
X-14228D02*
X-13928D01*
X-12628D02*
X-12278D01*
X-28678Y69375D02*
X-28328D01*
X-28078D02*
X-27728D01*
X-27228D02*
X-26878D01*
X-26478D02*
X-26128D01*
X-25578D02*
X-25178D01*
X-24528D02*
X-24128D01*
X-23328D02*
X-22978D01*
X-21878D02*
X-21228D01*
X-20278D02*
X-19928D01*
X-19528D02*
X-19228D01*
X-18628D02*
X-18228D01*
X-17578D02*
X-17178D01*
X-16628D02*
X-16278D01*
X-15828D02*
X-15478D01*
X-14578D02*
X-13928D01*
X-12628D02*
X-12278D01*
X-28728Y69425D02*
X-28378D01*
X-28028D02*
X-27678D01*
X-27228D02*
X-26828D01*
X-26478D02*
X-26128D01*
X-25528D02*
X-25128D01*
X-24578D02*
X-24178D01*
X-23328D02*
X-22978D01*
X-21828D02*
X-21228D01*
X-20278D02*
X-19928D01*
X-19528D02*
X-19228D01*
X-18578D02*
X-18178D01*
X-17628D02*
X-17228D01*
X-16628D02*
X-16228D01*
X-15828D02*
X-15478D01*
X-14578D02*
X-13978D01*
X-12628D02*
X-12278D01*
X-28728Y69475D02*
X-28378D01*
X-28028D02*
X-27678D01*
X-27178D02*
X-26778D01*
X-26478D02*
X-26128D01*
X-25528D02*
X-25028D01*
X-24678D02*
X-24228D01*
X-23328D02*
X-22978D01*
X-21828D02*
X-21228D01*
X-20278D02*
X-19878D01*
X-19528D02*
X-19228D01*
X-18578D02*
X-18078D01*
X-17728D02*
X-17278D01*
X-16628D02*
X-16228D01*
X-15828D02*
X-15478D01*
X-14578D02*
X-13978D01*
X-12628D02*
X-12278D01*
X-28778Y69525D02*
X-28428D01*
X-28028D02*
X-27628D01*
X-27178D02*
X-26128D01*
X-25478D02*
X-24228D01*
X-23728D02*
X-22578D01*
X-21828D02*
X-21278D01*
X-20278D02*
X-19228D01*
X-18528D02*
X-17278D01*
X-16578D02*
X-15478D01*
X-14528D02*
X-13978D01*
X-12628D02*
X-12278D01*
X-28778Y69575D02*
X-28428D01*
X-27978D02*
X-27628D01*
X-27178D02*
X-26128D01*
X-25428D02*
X-24278D01*
X-23728D02*
X-22528D01*
X-21778D02*
X-21278D01*
X-20228D02*
X-19228D01*
X-18478D02*
X-17328D01*
X-16578D02*
X-15478D01*
X-14528D02*
X-14028D01*
X-12628D02*
X-12278D01*
X-28828Y69625D02*
X-28478D01*
X-27978D02*
X-27578D01*
X-27128D02*
X-26128D01*
X-25378D02*
X-24328D01*
X-23728D02*
X-22528D01*
X-21778D02*
X-21278D01*
X-20178D02*
X-19228D01*
X-18428D02*
X-17378D01*
X-16528D02*
X-15478D01*
X-14528D02*
X-14028D01*
X-12628D02*
X-12278D01*
X-28828Y69675D02*
X-28478D01*
X-27928D02*
X-27578D01*
X-27078D02*
X-26128D01*
X-25328D02*
X-24378D01*
X-23728D02*
X-22528D01*
X-21778D02*
X-21328D01*
X-20128D02*
X-19228D01*
X-18378D02*
X-17478D01*
X-16478D02*
X-15478D01*
X-14478D02*
X-14028D01*
X-12628D02*
X-12278D01*
X-28878Y69725D02*
X-28528D01*
X-27928D02*
X-27528D01*
X-26978D02*
X-26128D01*
X-25278D02*
X-24478D01*
X-23728D02*
X-22528D01*
X-21728D02*
X-21328D01*
X-20078D02*
X-19228D01*
X-18328D02*
X-17528D01*
X-16428D02*
X-15478D01*
X-14478D02*
X-14078D01*
X-12628D02*
X-12278D01*
X-28878Y69775D02*
X-28528D01*
X-27878D02*
X-27528D01*
X-26878D02*
X-26128D01*
X-25128D02*
X-24628D01*
X-23728D02*
X-22578D01*
X-21728D02*
X-21328D01*
X-19928D02*
X-19228D01*
X-18178D02*
X-17678D01*
X-16278D02*
X-15528D01*
X-14478D02*
X-14078D01*
X-12628D02*
X-12328D01*
X-25228Y71425D02*
X-24378D01*
X-23878D02*
X-23528D01*
X-22678D02*
X-22378D01*
X-21878D02*
X-21478D01*
X-20828D02*
X-20528D01*
X-19428D02*
X-18878D01*
X-17828D02*
X-17528D01*
X-16578D02*
X-16278D01*
X-15678D02*
X-15328D01*
X-14478D02*
X-14178D01*
X-13678D02*
X-13228D01*
X-12628D02*
X-12328D01*
X-25228Y71475D02*
X-24378D01*
X-23878D02*
X-23478D01*
X-22678D02*
X-22378D01*
X-21878D02*
X-21428D01*
X-20828D02*
X-20528D01*
X-19578D02*
X-18778D01*
X-17878D02*
X-17528D01*
X-16578D02*
X-16278D01*
X-15628D02*
X-15278D01*
X-14478D02*
X-14178D01*
X-13678D02*
X-13228D01*
X-12628D02*
X-12278D01*
X-25228Y71525D02*
X-24328D01*
X-23828D02*
X-23478D01*
X-22728D02*
X-22378D01*
X-21878D02*
X-21378D01*
X-20828D02*
X-20528D01*
X-19628D02*
X-18678D01*
X-17878D02*
X-17528D01*
X-16578D02*
X-16278D01*
X-15628D02*
X-15278D01*
X-14528D02*
X-14178D01*
X-13678D02*
X-13178D01*
X-12628D02*
X-12278D01*
X-25228Y71575D02*
X-24328D01*
X-23828D02*
X-23478D01*
X-22728D02*
X-22378D01*
X-21878D02*
X-21378D01*
X-20828D02*
X-20528D01*
X-19678D02*
X-18628D01*
X-17878D02*
X-17528D01*
X-16578D02*
X-16278D01*
X-15628D02*
X-15228D01*
X-14528D02*
X-14178D01*
X-13678D02*
X-13178D01*
X-12628D02*
X-12278D01*
X-25228Y71625D02*
X-24328D01*
X-23778D02*
X-23428D01*
X-22728D02*
X-22428D01*
X-21878D02*
X-21328D01*
X-20828D02*
X-20528D01*
X-19778D02*
X-18578D01*
X-17878D02*
X-17528D01*
X-16578D02*
X-16278D01*
X-15578D02*
X-15228D01*
X-14528D02*
X-14228D01*
X-13678D02*
X-13128D01*
X-12628D02*
X-12278D01*
X-25228Y71675D02*
X-24328D01*
X-23778D02*
X-23428D01*
X-22778D02*
X-22428D01*
X-21878D02*
X-21328D01*
X-20828D02*
X-20528D01*
X-19778D02*
X-18578D01*
X-17878D02*
X-17528D01*
X-16578D02*
X-16278D01*
X-15578D02*
X-15228D01*
X-14578D02*
X-14228D01*
X-13678D02*
X-13078D01*
X-12628D02*
X-12278D01*
X-24678Y71725D02*
X-24328D01*
X-23778D02*
X-23428D01*
X-22778D02*
X-22478D01*
X-21878D02*
X-21278D01*
X-20828D02*
X-20528D01*
X-19828D02*
X-19378D01*
X-19028D02*
X-18528D01*
X-17878D02*
X-17528D01*
X-16578D02*
X-16278D01*
X-15578D02*
X-15178D01*
X-14578D02*
X-14228D01*
X-13678D02*
X-13078D01*
X-12628D02*
X-12278D01*
X-24678Y71775D02*
X-24328D01*
X-23728D02*
X-22478D01*
X-21878D02*
X-21228D01*
X-20828D02*
X-20528D01*
X-19878D02*
X-19428D01*
X-18928D02*
X-18478D01*
X-17878D02*
X-17528D01*
X-16578D02*
X-16278D01*
X-15528D02*
X-14278D01*
X-13678D02*
X-13028D01*
X-12628D02*
X-12278D01*
X-24678Y71825D02*
X-24328D01*
X-23728D02*
X-22478D01*
X-21878D02*
X-21228D01*
X-20828D02*
X-20528D01*
X-19878D02*
X-19478D01*
X-18878D02*
X-18478D01*
X-17878D02*
X-17528D01*
X-16578D02*
X-16278D01*
X-15528D02*
X-14278D01*
X-13678D02*
X-13028D01*
X-12628D02*
X-12278D01*
X-24678Y71875D02*
X-24328D01*
X-23728D02*
X-22528D01*
X-21878D02*
X-21178D01*
X-20828D02*
X-20528D01*
X-19928D02*
X-19528D01*
X-18828D02*
X-18478D01*
X-17878D02*
X-17528D01*
X-16578D02*
X-16278D01*
X-15528D02*
X-14278D01*
X-13678D02*
X-12978D01*
X-12628D02*
X-12278D01*
X-24678Y71925D02*
X-24328D01*
X-23678D02*
X-22528D01*
X-21878D02*
X-21178D01*
X-20828D02*
X-20528D01*
X-19928D02*
X-19578D01*
X-18828D02*
X-18428D01*
X-17878D02*
X-17528D01*
X-16578D02*
X-16278D01*
X-15478D02*
X-14328D01*
X-13678D02*
X-12978D01*
X-12628D02*
X-12278D01*
X-24678Y71975D02*
X-24328D01*
X-23678D02*
X-22528D01*
X-21878D02*
X-21128D01*
X-20828D02*
X-20528D01*
X-19928D02*
X-19578D01*
X-18828D02*
X-18428D01*
X-17878D02*
X-17528D01*
X-16578D02*
X-16278D01*
X-15478D02*
X-14328D01*
X-13678D02*
X-12928D01*
X-12628D02*
X-12278D01*
X-24678Y72025D02*
X-24328D01*
X-23678D02*
X-23278D01*
X-22878D02*
X-22578D01*
X-21878D02*
X-21578D01*
X-21528D02*
X-21078D01*
X-20828D02*
X-20528D01*
X-19978D02*
X-19578D01*
X-18778D02*
X-18428D01*
X-17878D02*
X-17528D01*
X-16578D02*
X-16278D01*
X-15478D02*
X-15078D01*
X-14678D02*
X-14328D01*
X-13678D02*
X-13378D01*
X-13328D02*
X-12878D01*
X-12628D02*
X-12278D01*
X-24678Y72075D02*
X-24328D01*
X-23628D02*
X-23278D01*
X-22878D02*
X-22578D01*
X-21878D02*
X-21578D01*
X-21528D02*
X-21078D01*
X-20828D02*
X-20528D01*
X-19978D02*
X-19628D01*
X-18778D02*
X-18428D01*
X-17878D02*
X-17528D01*
X-16578D02*
X-16278D01*
X-15428D02*
X-15078D01*
X-14678D02*
X-14378D01*
X-13678D02*
X-13378D01*
X-13278D02*
X-12878D01*
X-12628D02*
X-12278D01*
X-24678Y72125D02*
X-24328D01*
X-23628D02*
X-23278D01*
X-22928D02*
X-22578D01*
X-21878D02*
X-21578D01*
X-21478D02*
X-21028D01*
X-20828D02*
X-20528D01*
X-19978D02*
X-19628D01*
X-18778D02*
X-18428D01*
X-17878D02*
X-17528D01*
X-16578D02*
X-16278D01*
X-15428D02*
X-15078D01*
X-14728D02*
X-14378D01*
X-13678D02*
X-13378D01*
X-13278D02*
X-12828D01*
X-12628D02*
X-12278D01*
X-8628D02*
X-7478D01*
X-24678Y72175D02*
X-24328D01*
X-23628D02*
X-23228D01*
X-22928D02*
X-22628D01*
X-21878D02*
X-21578D01*
X-21428D02*
X-21028D01*
X-20828D02*
X-20528D01*
X-19978D02*
X-19628D01*
X-18778D02*
X-18428D01*
X-17878D02*
X-17528D01*
X-16578D02*
X-16278D01*
X-15378D02*
X-15028D01*
X-14728D02*
X-14428D01*
X-13678D02*
X-13378D01*
X-13228D02*
X-12828D01*
X-12628D02*
X-12278D01*
X-8928D02*
X-7228D01*
X-24678Y72225D02*
X-24328D01*
X-23578D02*
X-23228D01*
X-22978D02*
X-22628D01*
X-21878D02*
X-21578D01*
X-21428D02*
X-20978D01*
X-20828D02*
X-20528D01*
X-19978D02*
X-19628D01*
X-18778D02*
X-18428D01*
X-17878D02*
X-17528D01*
X-16578D02*
X-16278D01*
X-15378D02*
X-15028D01*
X-14728D02*
X-14428D01*
X-13678D02*
X-13378D01*
X-13228D02*
X-12778D01*
X-12628D02*
X-12278D01*
X-9128D02*
X-7028D01*
X-24678Y72275D02*
X-24328D01*
X-23578D02*
X-23228D01*
X-22978D02*
X-22628D01*
X-21878D02*
X-21578D01*
X-21378D02*
X-20978D01*
X-20828D02*
X-20528D01*
X-19978D02*
X-19628D01*
X-18778D02*
X-18428D01*
X-17878D02*
X-17528D01*
X-16578D02*
X-16278D01*
X-15378D02*
X-15028D01*
X-14778D02*
X-14428D01*
X-13678D02*
X-13378D01*
X-13178D02*
X-12728D01*
X-12628D02*
X-12278D01*
X-9278D02*
X-6928D01*
X-24678Y72325D02*
X-24328D01*
X-23528D02*
X-23178D01*
X-22978D02*
X-22678D01*
X-21878D02*
X-21578D01*
X-21378D02*
X-20928D01*
X-20828D02*
X-20528D01*
X-19978D02*
X-19628D01*
X-18778D02*
X-18428D01*
X-17878D02*
X-17528D01*
X-16578D02*
X-16278D01*
X-15328D02*
X-14978D01*
X-14778D02*
X-14478D01*
X-13678D02*
X-13378D01*
X-13178D02*
X-12728D01*
X-12628D02*
X-12278D01*
X-9428D02*
X-6778D01*
X-24678Y72375D02*
X-24328D01*
X-23528D02*
X-23178D01*
X-23028D02*
X-22678D01*
X-21878D02*
X-21578D01*
X-21328D02*
X-20928D01*
X-20828D02*
X-20528D01*
X-19978D02*
X-19628D01*
X-18778D02*
X-18428D01*
X-17878D02*
X-17528D01*
X-16578D02*
X-16278D01*
X-15328D02*
X-14978D01*
X-14778D02*
X-14478D01*
X-13678D02*
X-13328D01*
X-13128D02*
X-12728D01*
X-12628D02*
X-12278D01*
X-9528D02*
X-6678D01*
X-24678Y72425D02*
X-24328D01*
X-23528D02*
X-23178D01*
X-23028D02*
X-22678D01*
X-21878D02*
X-21578D01*
X-21328D02*
X-20878D01*
X-20828D02*
X-20528D01*
X-19978D02*
X-19628D01*
X-18778D02*
X-18428D01*
X-17878D02*
X-17528D01*
X-16578D02*
X-16278D01*
X-15328D02*
X-14978D01*
X-14828D02*
X-14478D01*
X-13678D02*
X-13328D01*
X-13128D02*
X-12678D01*
X-12628D02*
X-12278D01*
X-9628D02*
X-6628D01*
X-24678Y72475D02*
X-24328D01*
X-23478D02*
X-23128D01*
X-23028D02*
X-22728D01*
X-21878D02*
X-21578D01*
X-21278D02*
X-20528D01*
X-19978D02*
X-19578D01*
X-18828D02*
X-18428D01*
X-17878D02*
X-17528D01*
X-16578D02*
X-16278D01*
X-15278D02*
X-14928D01*
X-14828D02*
X-14528D01*
X-13678D02*
X-13328D01*
X-13078D02*
X-12278D01*
X-9728D02*
X-6528D01*
X-24678Y72525D02*
X-24328D01*
X-23478D02*
X-23128D01*
X-23078D02*
X-22728D01*
X-21878D02*
X-21578D01*
X-21228D02*
X-20528D01*
X-19978D02*
X-19578D01*
X-18828D02*
X-18478D01*
X-17878D02*
X-17528D01*
X-16578D02*
X-16278D01*
X-15278D02*
X-14928D01*
X-14828D02*
X-14528D01*
X-13678D02*
X-13328D01*
X-13028D02*
X-12278D01*
X-9828D02*
X-6478D01*
X-24678Y72575D02*
X-24328D01*
X-23478D02*
X-23128D01*
X-23078D02*
X-22728D01*
X-21878D02*
X-21578D01*
X-21228D02*
X-20528D01*
X-19928D02*
X-19578D01*
X-18828D02*
X-18478D01*
X-17878D02*
X-17528D01*
X-16578D02*
X-16278D01*
X-15278D02*
X-14928D01*
X-14878D02*
X-14528D01*
X-13678D02*
X-13328D01*
X-13028D02*
X-12278D01*
X-9878D02*
X-6428D01*
X-24678Y72625D02*
X-24328D01*
X-23428D02*
X-22778D01*
X-21878D02*
X-21578D01*
X-21178D02*
X-20528D01*
X-19928D02*
X-19528D01*
X-18878D02*
X-18478D01*
X-17878D02*
X-17528D01*
X-16578D02*
X-16278D01*
X-15228D02*
X-14578D01*
X-13678D02*
X-13328D01*
X-12978D02*
X-12278D01*
X-9978D02*
X-6378D01*
X-24678Y72675D02*
X-24328D01*
X-23428D02*
X-22778D01*
X-21878D02*
X-21578D01*
X-21178D02*
X-20528D01*
X-19928D02*
X-19478D01*
X-18928D02*
X-18528D01*
X-17878D02*
X-17528D01*
X-16578D02*
X-16278D01*
X-15228D02*
X-14578D01*
X-13678D02*
X-13328D01*
X-12978D02*
X-12278D01*
X-10028D02*
X-6328D01*
X-24678Y72725D02*
X-24328D01*
X-23428D02*
X-22828D01*
X-21878D02*
X-21578D01*
X-21128D02*
X-20528D01*
X-19878D02*
X-19428D01*
X-18978D02*
X-18528D01*
X-17878D02*
X-17528D01*
X-16578D02*
X-16278D01*
X-15228D02*
X-14578D01*
X-13678D02*
X-13328D01*
X-12928D02*
X-12278D01*
X-10078D02*
X-8478D01*
X-7928D02*
X-6278D01*
X-24678Y72775D02*
X-24328D01*
X-23378D02*
X-22828D01*
X-21878D02*
X-21578D01*
X-21078D02*
X-20528D01*
X-19878D02*
X-19328D01*
X-19078D02*
X-18578D01*
X-17878D02*
X-17528D01*
X-16978D02*
X-16678D01*
X-16628D02*
X-15878D01*
X-15178D02*
X-14628D01*
X-13678D02*
X-13328D01*
X-12878D02*
X-12278D01*
X-10128D02*
X-8828D01*
X-7628D02*
X-6228D01*
X-24678Y72825D02*
X-24328D01*
X-23378D02*
X-22828D01*
X-21878D02*
X-21578D01*
X-21078D02*
X-20528D01*
X-19828D02*
X-18628D01*
X-17878D02*
X-17528D01*
X-17028D02*
X-15828D01*
X-15178D02*
X-14628D01*
X-13678D02*
X-13328D01*
X-12878D02*
X-12278D01*
X-10178D02*
X-9028D01*
X-7428D02*
X-6178D01*
X-24678Y72875D02*
X-24328D01*
X-23378D02*
X-22878D01*
X-21878D02*
X-21578D01*
X-21028D02*
X-20528D01*
X-19778D02*
X-18678D01*
X-17878D02*
X-17528D01*
X-17028D02*
X-15828D01*
X-15128D02*
X-14628D01*
X-13678D02*
X-13328D01*
X-12828D02*
X-12278D01*
X-10228D02*
X-9178D01*
X-7328D02*
X-6178D01*
X-24678Y72925D02*
X-24328D01*
X-23328D02*
X-22878D01*
X-21878D02*
X-21578D01*
X-21028D02*
X-20528D01*
X-19728D02*
X-18728D01*
X-17878D02*
X-17528D01*
X-17028D02*
X-15828D01*
X-15128D02*
X-14678D01*
X-13678D02*
X-13328D01*
X-12828D02*
X-12278D01*
X-10278D02*
X-9278D01*
X-7228D02*
X-6128D01*
X-24678Y72975D02*
X-24328D01*
X-23328D02*
X-22878D01*
X-21878D02*
X-21578D01*
X-20978D02*
X-20528D01*
X-19678D02*
X-18778D01*
X-17878D02*
X-17528D01*
X-17028D02*
X-15828D01*
X-15128D02*
X-14678D01*
X-13678D02*
X-13378D01*
X-12778D02*
X-12278D01*
X-10328D02*
X-9378D01*
X-7128D02*
X-6128D01*
X-24678Y73025D02*
X-24328D01*
X-23278D02*
X-22928D01*
X-21878D02*
X-21578D01*
X-20928D02*
X-20528D01*
X-19578D02*
X-18878D01*
X-17878D02*
X-17528D01*
X-17028D02*
X-15828D01*
X-15078D02*
X-14678D01*
X-13678D02*
X-13328D01*
X-12778D02*
X-12278D01*
X-10378D02*
X-9478D01*
X-7078D02*
X-6078D01*
X-19428Y73075D02*
X-19078D01*
X-10378D02*
X-9528D01*
X-7028D02*
X-6078D01*
X-10428Y73125D02*
X-9578D01*
X-6978D02*
X-6078D01*
X-10478Y73175D02*
X-9628D01*
X-6928D02*
X-6028D01*
X-10478Y73225D02*
X-9678D01*
X-6878D02*
X-6028D01*
X-10528Y73275D02*
X-9728D01*
X-6878D02*
X-6028D01*
X-10528Y73325D02*
X-9778D01*
X-6828D02*
X-6028D01*
X-10578Y73375D02*
X-9778D01*
X-6828D02*
X-5978D01*
X-10578Y73425D02*
X-9828D01*
X-6778D02*
X-5978D01*
X-10578Y73475D02*
X-9828D01*
X-6778D02*
X-5978D01*
X-10628Y73525D02*
X-9828D01*
X-6778D02*
X-5978D01*
X-10628Y73575D02*
X-9878D01*
X-6778D02*
X-5978D01*
X-10628Y73625D02*
X-9878D01*
X-6778D02*
X-5978D01*
X-10628Y73675D02*
X-9878D01*
X-6778D02*
X-5978D01*
X-10628Y73725D02*
X-9878D01*
X-6778D02*
X-5978D01*
X-10678Y73775D02*
X-9878D01*
X-6778D02*
X-6028D01*
X-10678Y73825D02*
X-9878D01*
X-6778D02*
X-6028D01*
X-10678Y73875D02*
X-9878D01*
X-6778D02*
X-6028D01*
X-10678Y73925D02*
X-9878D01*
X-6778D02*
X-6028D01*
X-10678Y73975D02*
X-9878D01*
X-6828D02*
X-6078D01*
X-10678Y74025D02*
X-9878D01*
X-6828D02*
X-6078D01*
X-10678Y74075D02*
X-9878D01*
X-6828D02*
X-6078D01*
X-10628Y74125D02*
X-9828D01*
X-6878D02*
X-6128D01*
X-10628Y74175D02*
X-9828D01*
X-6928D02*
X-6128D01*
X-10628Y74225D02*
X-9778D01*
X-6928D02*
X-6178D01*
X-10628Y74275D02*
X-9778D01*
X-6978D02*
X-6178D01*
X-10628Y74325D02*
X-9728D01*
X-7028D02*
X-6228D01*
X-10578Y74375D02*
X-9678D01*
X-7078D02*
X-6278D01*
X-10578Y74425D02*
X-9628D01*
X-7128D02*
X-6328D01*
X-10578Y74475D02*
X-9528D01*
X-7178D02*
X-6328D01*
X-10528Y74525D02*
X-9478D01*
X-7228D02*
X-6378D01*
X-10528Y74575D02*
X-9328D01*
X-7328D02*
X-6428D01*
X-29478Y74625D02*
X-29428D01*
X-29378D02*
X-28328D01*
X-13728D02*
X-12828D01*
X-10478D02*
X-9128D01*
X-7378D02*
X-6478D01*
X-29778Y74675D02*
X-28078D01*
X-13928D02*
X-12628D01*
X-10478D02*
X-6578D01*
X-29978Y74725D02*
X-27928D01*
X-25678D02*
X-24878D01*
X-22478D02*
X-21728D01*
X-20528D02*
X-19728D01*
X-17328D02*
X-16578D01*
X-14128D02*
X-12428D01*
X-10428D02*
X-6628D01*
X-4328D02*
X-3578D01*
X-2878D02*
X-2028D01*
X2122D02*
X2922D01*
X-30178Y74775D02*
X-27778D01*
X-25678D02*
X-24878D01*
X-22478D02*
X-21728D01*
X-20528D02*
X-19728D01*
X-17328D02*
X-16578D01*
X-14228D02*
X-12328D01*
X-10378D02*
X-6678D01*
X-4328D02*
X-3578D01*
X-2878D02*
X-1978D01*
X2072D02*
X2922D01*
X-30328Y74825D02*
X-27678D01*
X-25678D02*
X-24878D01*
X-22478D02*
X-21728D01*
X-20528D02*
X-19728D01*
X-17328D02*
X-16578D01*
X-14378D02*
X-12228D01*
X-10328D02*
X-6778D01*
X-4328D02*
X-3578D01*
X-2828D02*
X-1978D01*
X2072D02*
X2872D01*
X-30478Y74875D02*
X-27578D01*
X-25678D02*
X-24878D01*
X-22478D02*
X-21728D01*
X-20528D02*
X-19728D01*
X-17328D02*
X-16578D01*
X-14428D02*
X-12128D01*
X-10278D02*
X-6778D01*
X-4328D02*
X-3578D01*
X-2828D02*
X-1928D01*
X2072D02*
X2872D01*
X-30478Y74925D02*
X-27478D01*
X-25678D02*
X-24878D01*
X-22478D02*
X-21728D01*
X-20528D02*
X-19728D01*
X-17328D02*
X-16578D01*
X-14528D02*
X-12028D01*
X-10228D02*
X-6728D01*
X-4328D02*
X-3578D01*
X-2828D02*
X-1928D01*
X2022D02*
X2822D01*
X-30478Y74975D02*
X-27428D01*
X-25678D02*
X-24878D01*
X-22478D02*
X-21728D01*
X-20528D02*
X-19728D01*
X-17328D02*
X-16578D01*
X-14628D02*
X-11978D01*
X-10178D02*
X-6628D01*
X-4328D02*
X-3578D01*
X-2778D02*
X-1928D01*
X2022D02*
X2822D01*
X-30478Y75025D02*
X-27328D01*
X-25678D02*
X-24878D01*
X-22478D02*
X-21728D01*
X-20528D02*
X-19728D01*
X-17328D02*
X-16578D01*
X-14678D02*
X-11928D01*
X-10128D02*
X-6578D01*
X-4328D02*
X-3578D01*
X-2778D02*
X-1878D01*
X2022D02*
X2822D01*
X-30478Y75075D02*
X-27278D01*
X-25678D02*
X-24878D01*
X-22478D02*
X-21728D01*
X-20528D02*
X-19728D01*
X-17328D02*
X-16578D01*
X-14728D02*
X-11828D01*
X-10028D02*
X-6528D01*
X-4328D02*
X-3578D01*
X-2778D02*
X-1878D01*
X1972D02*
X2772D01*
X-30478Y75125D02*
X-27228D01*
X-25678D02*
X-24878D01*
X-22478D02*
X-21728D01*
X-20528D02*
X-19728D01*
X-17328D02*
X-16578D01*
X-14778D02*
X-11778D01*
X-9928D02*
X-6478D01*
X-4328D02*
X-3578D01*
X-2728D02*
X-1878D01*
X1972D02*
X2772D01*
X-30478Y75175D02*
X-27178D01*
X-25678D02*
X-24878D01*
X-22478D02*
X-21728D01*
X-20528D02*
X-19728D01*
X-17328D02*
X-16578D01*
X-14878D02*
X-11728D01*
X-9828D02*
X-6478D01*
X-4328D02*
X-3578D01*
X-2728D02*
X-1828D01*
X1972D02*
X2772D01*
X-30478Y75225D02*
X-27128D01*
X-25678D02*
X-24878D01*
X-22478D02*
X-21728D01*
X-20528D02*
X-19728D01*
X-17328D02*
X-16578D01*
X-14928D02*
X-11678D01*
X-9678D02*
X-6428D01*
X-4328D02*
X-3578D01*
X-2678D02*
X-1828D01*
X1922D02*
X2722D01*
X-30478Y75275D02*
X-29578D01*
X-28478D02*
X-27078D01*
X-25678D02*
X-24878D01*
X-22478D02*
X-21728D01*
X-20528D02*
X-19728D01*
X-17328D02*
X-16578D01*
X-14978D02*
X-13728D01*
X-13078D02*
X-11678D01*
X-9478D02*
X-6428D01*
X-4328D02*
X-3578D01*
X-2678D02*
X-1828D01*
X1922D02*
X2722D01*
X-30428Y75325D02*
X-29828D01*
X-28328D02*
X-27028D01*
X-25678D02*
X-24878D01*
X-22478D02*
X-21728D01*
X-20528D02*
X-19728D01*
X-17328D02*
X-16578D01*
X-15028D02*
X-13878D01*
X-12878D02*
X-11628D01*
X-7778D02*
X-6378D01*
X-4328D02*
X-3578D01*
X-2678D02*
X-1778D01*
X1922D02*
X2672D01*
X-30428Y75375D02*
X-29978D01*
X-28178D02*
X-27028D01*
X-25678D02*
X-24878D01*
X-22478D02*
X-21728D01*
X-20528D02*
X-19728D01*
X-17328D02*
X-16578D01*
X-15028D02*
X-13978D01*
X-12778D02*
X-11578D01*
X-7478D02*
X-6378D01*
X-4328D02*
X-3578D01*
X-2628D02*
X-1778D01*
X1872D02*
X2672D01*
X-30428Y75425D02*
X-30128D01*
X-28078D02*
X-26978D01*
X-25678D02*
X-24878D01*
X-22478D02*
X-21728D01*
X-20528D02*
X-19728D01*
X-17328D02*
X-16578D01*
X-15078D02*
X-14078D01*
X-12678D02*
X-11528D01*
X-7328D02*
X-6378D01*
X-4328D02*
X-3578D01*
X-2628D02*
X-1778D01*
X1872D02*
X2672D01*
X-30428Y75475D02*
X-30278D01*
X-27978D02*
X-26928D01*
X-25678D02*
X-24878D01*
X-22478D02*
X-21728D01*
X-20528D02*
X-19728D01*
X-17328D02*
X-16578D01*
X-15128D02*
X-14178D01*
X-12578D02*
X-11528D01*
X-7278D02*
X-6378D01*
X-4328D02*
X-3578D01*
X-2628D02*
X-1728D01*
X1822D02*
X2622D01*
X-30428Y75525D02*
X-30378D01*
X-27928D02*
X-26928D01*
X-25678D02*
X-24878D01*
X-22478D02*
X-21728D01*
X-20528D02*
X-19728D01*
X-17328D02*
X-16578D01*
X-15178D02*
X-14228D01*
X-12528D02*
X-11478D01*
X-7228D02*
X-6328D01*
X-4328D02*
X-3578D01*
X-2578D02*
X-1728D01*
X1822D02*
X2622D01*
X-27878Y75575D02*
X-26878D01*
X-25678D02*
X-24878D01*
X-22478D02*
X-21728D01*
X-20528D02*
X-19728D01*
X-17328D02*
X-16578D01*
X-15178D02*
X-14278D01*
X-12478D02*
X-11428D01*
X-7178D02*
X-6328D01*
X-4328D02*
X-3578D01*
X-2578D02*
X-1678D01*
X1822D02*
X2622D01*
X-27828Y75625D02*
X-26878D01*
X-25678D02*
X-24878D01*
X-22478D02*
X-21728D01*
X-20528D02*
X-19728D01*
X-17328D02*
X-16578D01*
X-15228D02*
X-14378D01*
X-12428D02*
X-11428D01*
X-7178D02*
X-6328D01*
X-4328D02*
X-3578D01*
X-2528D02*
X-1678D01*
X1772D02*
X2572D01*
X-27778Y75675D02*
X-26828D01*
X-25678D02*
X-24878D01*
X-22478D02*
X-21728D01*
X-20528D02*
X-19728D01*
X-17328D02*
X-16578D01*
X-15278D02*
X-14378D01*
X-12378D02*
X-11378D01*
X-7128D02*
X-6378D01*
X-4328D02*
X-3578D01*
X-2528D02*
X-1678D01*
X1772D02*
X2572D01*
X-27728Y75725D02*
X-26828D01*
X-25678D02*
X-24878D01*
X-22478D02*
X-21728D01*
X-20528D02*
X-19728D01*
X-17328D02*
X-16578D01*
X-15278D02*
X-14428D01*
X-12328D02*
X-11378D01*
X-7128D02*
X-6378D01*
X-4328D02*
X-3578D01*
X-2528D02*
X-1628D01*
X1772D02*
X2522D01*
X-27678Y75775D02*
X-26778D01*
X-25678D02*
X-24878D01*
X-22478D02*
X-21728D01*
X-20528D02*
X-19728D01*
X-17328D02*
X-16578D01*
X-15328D02*
X-14478D01*
X-12278D02*
X-11378D01*
X-7128D02*
X-6378D01*
X-4328D02*
X-3578D01*
X-2478D02*
X-1628D01*
X1722D02*
X2522D01*
X-27678Y75825D02*
X-26778D01*
X-25678D02*
X-24878D01*
X-22478D02*
X-21728D01*
X-20528D02*
X-19728D01*
X-17328D02*
X-16578D01*
X-15328D02*
X-14528D01*
X-12228D02*
X-11328D01*
X-7178D02*
X-6378D01*
X-4328D02*
X-3578D01*
X-2478D02*
X-1628D01*
X1722D02*
X2522D01*
X-27628Y75875D02*
X-26778D01*
X-25678D02*
X-24878D01*
X-22478D02*
X-21728D01*
X-20528D02*
X-19728D01*
X-17328D02*
X-16578D01*
X-15378D02*
X-14578D01*
X-12228D02*
X-11328D01*
X-7178D02*
X-6428D01*
X-4328D02*
X-3578D01*
X-2478D02*
X-1578D01*
X1722D02*
X2472D01*
X-27628Y75925D02*
X-26728D01*
X-25678D02*
X-24878D01*
X-22478D02*
X-21728D01*
X-20528D02*
X-19728D01*
X-17328D02*
X-16578D01*
X-15378D02*
X-14578D01*
X-12178D02*
X-11278D01*
X-7178D02*
X-6428D01*
X-4328D02*
X-3578D01*
X-2428D02*
X-1578D01*
X1672D02*
X2472D01*
X-27578Y75975D02*
X-26728D01*
X-25678D02*
X-24878D01*
X-22478D02*
X-21728D01*
X-20528D02*
X-19728D01*
X-17328D02*
X-16578D01*
X-15428D02*
X-14628D01*
X-12178D02*
X-11278D01*
X-7228D02*
X-6428D01*
X-4328D02*
X-3578D01*
X-2428D02*
X-1578D01*
X1672D02*
X2472D01*
X-27528Y76025D02*
X-26728D01*
X-25678D02*
X-24878D01*
X-22478D02*
X-21728D01*
X-20528D02*
X-19728D01*
X-17328D02*
X-16578D01*
X-15428D02*
X-14628D01*
X-12128D02*
X-11278D01*
X-7278D02*
X-6478D01*
X-4328D02*
X-3578D01*
X-2378D02*
X-1528D01*
X1622D02*
X2422D01*
X-27528Y76075D02*
X-26678D01*
X-25678D02*
X-24878D01*
X-22478D02*
X-21728D01*
X-20528D02*
X-19728D01*
X-17328D02*
X-16578D01*
X-15478D02*
X-14678D01*
X-12128D02*
X-11228D01*
X-7328D02*
X-6528D01*
X-4328D02*
X-3578D01*
X-2378D02*
X-1528D01*
X1622D02*
X2422D01*
X-27528Y76125D02*
X-26678D01*
X-25678D02*
X-24878D01*
X-22478D02*
X-21728D01*
X-20528D02*
X-19728D01*
X-17328D02*
X-16578D01*
X-15478D02*
X-14678D01*
X-12078D02*
X-11228D01*
X-8678D02*
X-7678D01*
X-7428D02*
X-6528D01*
X-4328D02*
X-3578D01*
X-2378D02*
X-1528D01*
X1622D02*
X2422D01*
X-27478Y76175D02*
X-26678D01*
X-25678D02*
X-24878D01*
X-22478D02*
X-21728D01*
X-20528D02*
X-19728D01*
X-17328D02*
X-16578D01*
X-15478D02*
X-14728D01*
X-12078D02*
X-11228D01*
X-8928D02*
X-6578D01*
X-4328D02*
X-3578D01*
X-2328D02*
X-1478D01*
X1572D02*
X2372D01*
X-27478Y76225D02*
X-26678D01*
X-25678D02*
X-24878D01*
X-22478D02*
X-21728D01*
X-20528D02*
X-19728D01*
X-17328D02*
X-16578D01*
X-15528D02*
X-14728D01*
X-12028D02*
X-11228D01*
X-9078D02*
X-6628D01*
X-4328D02*
X-3578D01*
X-2328D02*
X-1478D01*
X1572D02*
X2372D01*
X-27478Y76275D02*
X-26628D01*
X-25678D02*
X-24878D01*
X-22478D02*
X-21728D01*
X-20528D02*
X-19728D01*
X-17328D02*
X-16578D01*
X-15528D02*
X-14728D01*
X-12028D02*
X-11178D01*
X-9228D02*
X-6728D01*
X-4328D02*
X-3578D01*
X-2328D02*
X-1428D01*
X1572D02*
X2322D01*
X-27428Y76325D02*
X-26628D01*
X-25678D02*
X-24878D01*
X-22478D02*
X-21728D01*
X-20528D02*
X-19728D01*
X-17328D02*
X-16578D01*
X-15528D02*
X-14778D01*
X-12028D02*
X-11178D01*
X-9328D02*
X-6778D01*
X-4328D02*
X-3578D01*
X-2278D02*
X-1428D01*
X1522D02*
X2322D01*
X-27428Y76375D02*
X-26628D01*
X-25678D02*
X-24878D01*
X-22478D02*
X-21728D01*
X-20528D02*
X-19728D01*
X-17328D02*
X-16578D01*
X-15578D02*
X-14778D01*
X-12028D02*
X-11178D01*
X-9428D02*
X-6878D01*
X-4328D02*
X-3578D01*
X-2278D02*
X2322D01*
X-27428Y76425D02*
X-26628D01*
X-25678D02*
X-24878D01*
X-22478D02*
X-21728D01*
X-20528D02*
X-19728D01*
X-17328D02*
X-16578D01*
X-15578D02*
X-14778D01*
X-11978D02*
X-11178D01*
X-9528D02*
X-6828D01*
X-4328D02*
X-3578D01*
X-2228D02*
X2272D01*
X-27428Y76475D02*
X-26628D01*
X-25678D02*
X-24878D01*
X-22478D02*
X-21728D01*
X-20528D02*
X-19728D01*
X-17328D02*
X-16578D01*
X-15578D02*
X-14778D01*
X-11978D02*
X-11178D01*
X-9578D02*
X-6728D01*
X-4328D02*
X-3578D01*
X-2228D02*
X2272D01*
X-27428Y76525D02*
X-26578D01*
X-25678D02*
X-24878D01*
X-22478D02*
X-21728D01*
X-20528D02*
X-19728D01*
X-17328D02*
X-16578D01*
X-15578D02*
X-14828D01*
X-11978D02*
X-11178D01*
X-9678D02*
X-6678D01*
X-4328D02*
X-3578D01*
X-2228D02*
X2272D01*
X-27378Y76575D02*
X-26578D01*
X-25678D02*
X-24878D01*
X-22478D02*
X-21728D01*
X-20528D02*
X-19728D01*
X-17328D02*
X-16578D01*
X-15628D02*
X-14828D01*
X-11978D02*
X-11128D01*
X-9728D02*
X-6628D01*
X-4328D02*
X-3578D01*
X-2178D02*
X2222D01*
X-27378Y76625D02*
X-26578D01*
X-25678D02*
X-24878D01*
X-22478D02*
X-21728D01*
X-20528D02*
X-19728D01*
X-17328D02*
X-16578D01*
X-15628D02*
X-14828D01*
X-11928D02*
X-11128D01*
X-9778D02*
X-6578D01*
X-4328D02*
X-3578D01*
X-2178D02*
X2222D01*
X-27378Y76675D02*
X-26578D01*
X-25678D02*
X-24878D01*
X-22478D02*
X-21728D01*
X-20528D02*
X-19728D01*
X-17328D02*
X-16578D01*
X-15628D02*
X-14828D01*
X-11928D02*
X-11128D01*
X-9828D02*
X-8428D01*
X-7978D02*
X-6528D01*
X-4328D02*
X-3578D01*
X-2178D02*
X2172D01*
X-27378Y76725D02*
X-26578D01*
X-25678D02*
X-24878D01*
X-22478D02*
X-21728D01*
X-20528D02*
X-19728D01*
X-17328D02*
X-16578D01*
X-15628D02*
X-14828D01*
X-11928D02*
X-11128D01*
X-9878D02*
X-8728D01*
X-7728D02*
X-6478D01*
X-4328D02*
X-3578D01*
X-2128D02*
X2172D01*
X-27378Y76775D02*
X-26578D01*
X-25678D02*
X-24878D01*
X-22478D02*
X-21728D01*
X-20528D02*
X-19728D01*
X-17328D02*
X-16578D01*
X-15628D02*
X-14878D01*
X-11928D02*
X-11128D01*
X-9928D02*
X-8878D01*
X-7578D02*
X-6428D01*
X-4328D02*
X-3578D01*
X-2128D02*
X2172D01*
X-27378Y76825D02*
X-26578D01*
X-25678D02*
X-24878D01*
X-22478D02*
X-21728D01*
X-20528D02*
X-19728D01*
X-17328D02*
X-16578D01*
X-15628D02*
X-14878D01*
X-11928D02*
X-11128D01*
X-9978D02*
X-8978D01*
X-7478D02*
X-6428D01*
X-4328D02*
X-3578D01*
X-2128D02*
X2122D01*
X-27378Y76875D02*
X-26578D01*
X-25678D02*
X-24878D01*
X-22478D02*
X-21728D01*
X-20528D02*
X-19728D01*
X-17328D02*
X-16578D01*
X-15678D02*
X-14878D01*
X-11928D02*
X-11128D01*
X-10028D02*
X-9078D01*
X-7428D02*
X-6378D01*
X-4328D02*
X-3578D01*
X-2078D02*
X2122D01*
X-27378Y76925D02*
X-26578D01*
X-25678D02*
X-24878D01*
X-22478D02*
X-21728D01*
X-20528D02*
X-19728D01*
X-17328D02*
X-16578D01*
X-15678D02*
X-14878D01*
X-11928D02*
X-11128D01*
X-10028D02*
X-9128D01*
X-7328D02*
X-6378D01*
X-4378D02*
X-3578D01*
X-2078D02*
X2122D01*
X-27378Y76975D02*
X-26578D01*
X-25678D02*
X-24878D01*
X-22478D02*
X-21728D01*
X-20528D02*
X-19728D01*
X-17328D02*
X-16578D01*
X-15678D02*
X-14878D01*
X-11928D02*
X-11128D01*
X-10078D02*
X-9178D01*
X-7278D02*
X-6328D01*
X-4378D02*
X-3578D01*
X-2028D02*
X-1228D01*
X1322D02*
X2072D01*
X-27378Y77025D02*
X-26578D01*
X-25678D02*
X-24878D01*
X-22478D02*
X-21728D01*
X-20528D02*
X-19728D01*
X-17328D02*
X-16578D01*
X-15678D02*
X-14878D01*
X-11928D02*
X-11128D01*
X-10128D02*
X-9278D01*
X-7228D02*
X-6328D01*
X-4378D02*
X-3578D01*
X-2028D02*
X-1178D01*
X1272D02*
X2072D01*
X-27378Y77075D02*
X-26578D01*
X-25678D02*
X-24878D01*
X-22478D02*
X-21728D01*
X-20528D02*
X-19728D01*
X-17328D02*
X-16578D01*
X-15678D02*
X-14878D01*
X-11928D02*
X-11128D01*
X-10128D02*
X-9278D01*
X-7178D02*
X-6278D01*
X-4378D02*
X-3578D01*
X-2028D02*
X-1178D01*
X1272D02*
X2022D01*
X-27378Y77125D02*
X-26578D01*
X-25678D02*
X-24878D01*
X-22478D02*
X-21728D01*
X-20528D02*
X-19728D01*
X-17328D02*
X-16578D01*
X-15678D02*
X-14878D01*
X-11928D02*
X-11128D01*
X-10178D02*
X-9328D01*
X-7128D02*
X-6278D01*
X-4378D02*
X-3578D01*
X-1978D02*
X-1178D01*
X1272D02*
X2022D01*
X-27378Y77175D02*
X-26578D01*
X-25678D02*
X-24878D01*
X-22478D02*
X-21728D01*
X-20528D02*
X-19728D01*
X-17328D02*
X-16578D01*
X-15678D02*
X-14878D01*
X-11928D02*
X-11128D01*
X-10178D02*
X-9378D01*
X-7128D02*
X-6278D01*
X-4378D02*
X-3578D01*
X-1978D02*
X-1128D01*
X1222D02*
X2022D01*
X-27378Y77225D02*
X-26578D01*
X-25678D02*
X-24878D01*
X-22478D02*
X-21728D01*
X-20528D02*
X-19728D01*
X-17328D02*
X-16578D01*
X-15678D02*
X-14878D01*
X-11928D02*
X-11128D01*
X-10178D02*
X-9428D01*
X-7078D02*
X-6228D01*
X-4378D02*
X-3578D01*
X-1978D02*
X-1128D01*
X1222D02*
X1972D01*
X-27378Y77275D02*
X-26578D01*
X-25678D02*
X-24878D01*
X-22478D02*
X-21728D01*
X-20528D02*
X-19728D01*
X-17328D02*
X-16578D01*
X-15678D02*
X-14878D01*
X-11928D02*
X-11128D01*
X-10228D02*
X-9428D01*
X-7028D02*
X-6228D01*
X-4378D02*
X-3578D01*
X-1928D02*
X-1078D01*
X1222D02*
X1972D01*
X-30678Y77325D02*
X-26578D01*
X-25678D02*
X-24878D01*
X-22478D02*
X-21728D01*
X-20528D02*
X-19728D01*
X-17328D02*
X-16578D01*
X-15678D02*
X-14878D01*
X-11928D02*
X-11128D01*
X-10228D02*
X-9478D01*
X-7028D02*
X-6228D01*
X-4378D02*
X-3578D01*
X-1928D02*
X-1078D01*
X1172D02*
X1972D01*
X-30678Y77375D02*
X-26578D01*
X-25678D02*
X-24878D01*
X-22528D02*
X-21728D01*
X-20528D02*
X-19728D01*
X-17328D02*
X-16578D01*
X-15678D02*
X-14878D01*
X-11928D02*
X-11128D01*
X-10228D02*
X-9478D01*
X-7028D02*
X-6178D01*
X-4378D02*
X-3578D01*
X-1878D02*
X-1078D01*
X1172D02*
X1922D01*
X-30678Y77425D02*
X-26578D01*
X-25678D02*
X-24878D01*
X-22528D02*
X-21728D01*
X-20528D02*
X-19728D01*
X-17328D02*
X-16578D01*
X-15678D02*
X-14878D01*
X-11928D02*
X-11128D01*
X-10278D02*
X-9478D01*
X-6978D02*
X-6178D01*
X-4378D02*
X-3578D01*
X-1878D02*
X-1028D01*
X1172D02*
X1922D01*
X-30678Y77475D02*
X-26578D01*
X-25678D02*
X-24878D01*
X-22528D02*
X-21728D01*
X-20528D02*
X-19728D01*
X-17328D02*
X-16578D01*
X-15678D02*
X-14878D01*
X-11928D02*
X-11128D01*
X-10278D02*
X-9528D01*
X-6978D02*
X-6178D01*
X-4378D02*
X-3578D01*
X-1878D02*
X-1028D01*
X1122D02*
X1872D01*
X-30678Y77525D02*
X-26578D01*
X-25678D02*
X-24878D01*
X-22528D02*
X-21728D01*
X-20528D02*
X-19728D01*
X-17378D02*
X-16578D01*
X-15678D02*
X-14878D01*
X-11928D02*
X-11128D01*
X-10278D02*
X-9528D01*
X-6978D02*
X-6178D01*
X-4428D02*
X-3578D01*
X-1828D02*
X-1028D01*
X1122D02*
X1872D01*
X-30678Y77575D02*
X-26578D01*
X-25678D02*
X-24878D01*
X-22528D02*
X-21728D01*
X-20528D02*
X-19728D01*
X-17378D02*
X-16578D01*
X-15678D02*
X-14878D01*
X-11928D02*
X-11128D01*
X-10278D02*
X-9528D01*
X-6978D02*
X-6178D01*
X-4428D02*
X-3578D01*
X-1828D02*
X-978D01*
X1072D02*
X1872D01*
X-30678Y77625D02*
X-26578D01*
X-25678D02*
X-24878D01*
X-22528D02*
X-21728D01*
X-20528D02*
X-19728D01*
X-17378D02*
X-16578D01*
X-15628D02*
X-14878D01*
X-11928D02*
X-11128D01*
X-10328D02*
X-9528D01*
X-6928D02*
X-6178D01*
X-4428D02*
X-3578D01*
X-1828D02*
X-978D01*
X1072D02*
X1822D01*
X-30678Y77675D02*
X-26578D01*
X-25678D02*
X-24878D01*
X-22528D02*
X-21728D01*
X-20528D02*
X-19728D01*
X-17378D02*
X-16578D01*
X-15678D02*
X-14828D01*
X-11928D02*
X-11178D01*
X-10328D02*
X-9578D01*
X-6928D02*
X-6178D01*
X-4428D02*
X-3578D01*
X-1778D02*
X-928D01*
X1072D02*
X1822D01*
X-30678Y77725D02*
X-26628D01*
X-25678D02*
X-24878D01*
X-22578D02*
X-21728D01*
X-20528D02*
X-19728D01*
X-17378D02*
X-16578D01*
X-15628D02*
X-14828D01*
X-11978D02*
X-11178D01*
X-10328D02*
X-9578D01*
X-6928D02*
X-6178D01*
X-4428D02*
X-3578D01*
X-1778D02*
X-928D01*
X1022D02*
X1822D01*
X-30678Y77775D02*
X-26628D01*
X-25678D02*
X-24878D01*
X-22578D02*
X-21728D01*
X-20528D02*
X-19728D01*
X-17428D02*
X-16578D01*
X-15628D02*
X-14828D01*
X-11978D02*
X-11178D01*
X-10328D02*
X-9578D01*
X-6928D02*
X-6178D01*
X-4428D02*
X-3578D01*
X-1728D02*
X-928D01*
X1022D02*
X1772D01*
X-30678Y77825D02*
X-26628D01*
X-25678D02*
X-24878D01*
X-22578D02*
X-21728D01*
X-20528D02*
X-19728D01*
X-17428D02*
X-16578D01*
X-15628D02*
X-14828D01*
X-11978D02*
X-11178D01*
X-10328D02*
X-9578D01*
X-6928D02*
X-6178D01*
X-4478D02*
X-3578D01*
X-1728D02*
X-878D01*
X1022D02*
X1772D01*
X-30678Y77875D02*
X-26628D01*
X-25678D02*
X-24878D01*
X-22578D02*
X-21728D01*
X-20528D02*
X-19728D01*
X-17428D02*
X-16578D01*
X-15628D02*
X-14828D01*
X-11978D02*
X-11178D01*
X-10328D02*
X-9578D01*
X-6928D02*
X-6178D01*
X-4478D02*
X-3578D01*
X-1728D02*
X-878D01*
X972D02*
X1722D01*
X-30678Y77925D02*
X-29878D01*
X-27428D02*
X-26628D01*
X-25678D02*
X-24878D01*
X-22628D02*
X-21728D01*
X-20528D02*
X-19728D01*
X-17428D02*
X-16578D01*
X-15628D02*
X-14828D01*
X-11978D02*
X-11228D01*
X-10328D02*
X-9578D01*
X-6928D02*
X-6178D01*
X-4478D02*
X-3578D01*
X-1678D02*
X-878D01*
X972D02*
X1722D01*
X-30678Y77975D02*
X-29878D01*
X-27428D02*
X-26678D01*
X-25678D02*
X-24878D01*
X-22628D02*
X-21728D01*
X-20528D02*
X-19728D01*
X-17478D02*
X-16578D01*
X-15628D02*
X-14778D01*
X-12028D02*
X-11228D01*
X-10328D02*
X-9578D01*
X-6928D02*
X-6178D01*
X-4478D02*
X-3578D01*
X-1678D02*
X-828D01*
X922D02*
X1722D01*
X-30678Y78025D02*
X-29878D01*
X-27428D02*
X-26678D01*
X-25678D02*
X-24878D01*
X-22628D02*
X-21728D01*
X-20528D02*
X-19728D01*
X-17478D02*
X-16578D01*
X-15578D02*
X-14778D01*
X-12028D02*
X-11228D01*
X-10328D02*
X-9578D01*
X-6928D02*
X-6178D01*
X-4528D02*
X-3578D01*
X-1678D02*
X-828D01*
X922D02*
X1672D01*
X-30628Y78075D02*
X-29878D01*
X-27428D02*
X-26678D01*
X-25678D02*
X-24878D01*
X-22678D02*
X-21728D01*
X-20528D02*
X-19728D01*
X-17478D02*
X-16578D01*
X-15578D02*
X-14778D01*
X-12028D02*
X-11278D01*
X-10328D02*
X-9578D01*
X-6928D02*
X-6178D01*
X-4528D02*
X-3578D01*
X-1628D02*
X-828D01*
X922D02*
X1672D01*
X-30628Y78125D02*
X-29878D01*
X-27428D02*
X-26678D01*
X-25678D02*
X-24878D01*
X-22678D02*
X-21728D01*
X-20478D02*
X-19728D01*
X-17528D02*
X-16578D01*
X-15578D02*
X-14728D01*
X-12078D02*
X-11278D01*
X-10328D02*
X-9528D01*
X-6928D02*
X-6178D01*
X-4528D02*
X-3578D01*
X-1628D02*
X-778D01*
X872D02*
X1672D01*
X-30628Y78175D02*
X-29878D01*
X-27478D02*
X-26728D01*
X-25678D02*
X-24878D01*
X-22728D02*
X-21728D01*
X-20528D02*
X-19728D01*
X-17528D02*
X-16578D01*
X-15578D02*
X-14728D01*
X-12078D02*
X-11278D01*
X-10328D02*
X-9528D01*
X-6978D02*
X-6178D01*
X-4578D02*
X-3578D01*
X-1578D02*
X-778D01*
X872D02*
X1622D01*
X-30628Y78225D02*
X-29828D01*
X-27478D02*
X-26728D01*
X-25678D02*
X-24878D01*
X-22728D02*
X-21728D01*
X-20528D02*
X-19728D01*
X-17578D02*
X-16578D01*
X-15578D02*
X-14728D01*
X-12128D02*
X-11328D01*
X-10328D02*
X-9528D01*
X-6978D02*
X-6228D01*
X-4578D02*
X-3578D01*
X-1578D02*
X-728D01*
X872D02*
X1622D01*
X-30628Y78275D02*
X-29828D01*
X-27528D02*
X-26728D01*
X-25678D02*
X-24878D01*
X-22778D02*
X-21728D01*
X-20478D02*
X-19728D01*
X-17578D02*
X-16578D01*
X-15528D02*
X-14678D01*
X-12128D02*
X-11328D01*
X-10278D02*
X-9528D01*
X-6978D02*
X-6228D01*
X-4628D02*
X-3578D01*
X-1578D02*
X-728D01*
X822D02*
X1622D01*
X-30578Y78325D02*
X-29828D01*
X-27528D02*
X-26778D01*
X-25678D02*
X-24878D01*
X-22778D02*
X-21728D01*
X-20478D02*
X-19728D01*
X-17628D02*
X-16578D01*
X-15528D02*
X-14678D01*
X-12178D02*
X-11328D01*
X-10278D02*
X-9528D01*
X-6978D02*
X-6228D01*
X-4628D02*
X-3578D01*
X-1528D02*
X-728D01*
X822D02*
X1572D01*
X-30578Y78375D02*
X-29828D01*
X-27528D02*
X-26778D01*
X-25678D02*
X-24878D01*
X-22828D02*
X-21728D01*
X-20478D02*
X-19678D01*
X-17628D02*
X-16578D01*
X-15528D02*
X-14628D01*
X-12178D02*
X-11378D01*
X-10278D02*
X-9478D01*
X-7028D02*
X-6228D01*
X-4678D02*
X-3578D01*
X-1528D02*
X-678D01*
X822D02*
X1572D01*
X-30578Y78425D02*
X-29778D01*
X-27578D02*
X-26828D01*
X-25678D02*
X-24878D01*
X-22828D02*
X-21728D01*
X-20478D02*
X-19678D01*
X-17678D02*
X-16578D01*
X-15478D02*
X-14628D01*
X-12228D02*
X-11378D01*
X-10278D02*
X-9478D01*
X-7028D02*
X-6278D01*
X-4678D02*
X-3578D01*
X-1528D02*
X-678D01*
X772D02*
X1522D01*
X-30578Y78475D02*
X-29778D01*
X-27578D02*
X-26828D01*
X-25628D02*
X-24828D01*
X-22878D02*
X-21728D01*
X-20478D02*
X-19678D01*
X-17728D02*
X-16578D01*
X-15478D02*
X-14578D01*
X-12228D02*
X-11428D01*
X-10228D02*
X-9478D01*
X-7078D02*
X-6278D01*
X-4728D02*
X-3578D01*
X-1478D02*
X-678D01*
X772D02*
X1522D01*
X-30528Y78525D02*
X-29778D01*
X-27628D02*
X-26828D01*
X-25628D02*
X-24828D01*
X-22928D02*
X-21728D01*
X-20478D02*
X-19678D01*
X-17728D02*
X-16578D01*
X-15428D02*
X-14578D01*
X-12278D02*
X-11428D01*
X-10228D02*
X-9428D01*
X-7078D02*
X-6278D01*
X-4728D02*
X-3578D01*
X-1478D02*
X-628D01*
X722D02*
X1522D01*
X-30528Y78575D02*
X-29728D01*
X-27678D02*
X-26878D01*
X-25628D02*
X-24828D01*
X-22928D02*
X-21728D01*
X-20478D02*
X-19628D01*
X-17778D02*
X-16578D01*
X-15428D02*
X-14528D01*
X-12328D02*
X-11478D01*
X-10228D02*
X-9428D01*
X-7128D02*
X-6328D01*
X-4778D02*
X-3578D01*
X-1478D02*
X-628D01*
X722D02*
X1472D01*
X-30528Y78625D02*
X-29678D01*
X-27678D02*
X-26878D01*
X-25628D02*
X-24778D01*
X-22978D02*
X-21728D01*
X-20478D02*
X-19628D01*
X-17828D02*
X-17278D01*
X-17228D02*
X-16578D01*
X-15428D02*
X-14478D01*
X-12378D02*
X-11478D01*
X-10178D02*
X-9378D01*
X-7128D02*
X-6328D01*
X-4828D02*
X-3578D01*
X-1428D02*
X-578D01*
X722D02*
X1472D01*
X-30478Y78675D02*
X-29678D01*
X-27728D02*
X-26928D01*
X-25628D02*
X-24778D01*
X-23028D02*
X-22478D01*
X-22428D02*
X-21728D01*
X-20428D02*
X-19628D01*
X-17878D02*
X-16578D01*
X-15378D02*
X-14428D01*
X-12428D02*
X-11528D01*
X-10178D02*
X-9328D01*
X-7178D02*
X-6378D01*
X-4878D02*
X-4328D01*
X-4278D02*
X-3578D01*
X-1428D02*
X-578D01*
X672D02*
X1472D01*
X-30478Y78725D02*
X-29628D01*
X-27778D02*
X-26978D01*
X-25578D02*
X-24728D01*
X-23078D02*
X-22478D01*
X-22428D02*
X-21728D01*
X-20428D02*
X-19578D01*
X-17928D02*
X-17328D01*
X-17278D02*
X-16578D01*
X-15378D02*
X-14378D01*
X-12478D02*
X-11578D01*
X-10128D02*
X-9278D01*
X-7228D02*
X-6378D01*
X-4928D02*
X-4328D01*
X-4278D02*
X-3578D01*
X-1378D02*
X-578D01*
X672D02*
X1422D01*
X-30428Y78775D02*
X-29578D01*
X-27828D02*
X-26978D01*
X-25578D02*
X-24728D01*
X-23128D02*
X-22528D01*
X-22428D02*
X-21728D01*
X-20428D02*
X-19528D01*
X-17978D02*
X-17328D01*
X-17278D02*
X-16578D01*
X-15328D02*
X-14328D01*
X-12528D02*
X-11578D01*
X-10078D02*
X-9278D01*
X-7278D02*
X-6428D01*
X-4978D02*
X-4378D01*
X-4278D02*
X-3578D01*
X-1378D02*
X-528D01*
X672D02*
X1422D01*
X-30428Y78825D02*
X-29528D01*
X-27878D02*
X-27028D01*
X-25578D02*
X-24678D01*
X-23178D02*
X-22528D01*
X-22428D02*
X-21728D01*
X-20428D02*
X-19528D01*
X-18028D02*
X-17378D01*
X-17278D02*
X-16578D01*
X-15278D02*
X-14278D01*
X-12578D02*
X-11628D01*
X-10078D02*
X-9228D01*
X-7328D02*
X-6478D01*
X-5078D02*
X-4378D01*
X-4278D02*
X-3578D01*
X-1378D02*
X-528D01*
X622D02*
X1372D01*
X-30378Y78875D02*
X-29478D01*
X-27928D02*
X-27028D01*
X-25578D02*
X-24628D01*
X-23278D02*
X-22578D01*
X-22428D02*
X-21728D01*
X-20378D02*
X-19478D01*
X-18128D02*
X-17428D01*
X-17278D02*
X-16578D01*
X-15278D02*
X-14228D01*
X-12628D02*
X-11678D01*
X-10028D02*
X-9128D01*
X-7378D02*
X-6478D01*
X-5128D02*
X-4428D01*
X-4278D02*
X-3578D01*
X-1328D02*
X-528D01*
X622D02*
X1372D01*
X-30378Y78925D02*
X-29428D01*
X-27978D02*
X-27078D01*
X-25528D02*
X-24578D01*
X-23328D02*
X-22628D01*
X-22428D02*
X-21728D01*
X-20378D02*
X-19428D01*
X-18178D02*
X-17428D01*
X-17278D02*
X-16578D01*
X-15228D02*
X-14128D01*
X-12728D02*
X-11728D01*
X-9978D02*
X-9078D01*
X-7478D02*
X-6528D01*
X-5228D02*
X-4428D01*
X-4278D02*
X-3578D01*
X-1328D02*
X-478D01*
X572D02*
X1372D01*
X-30328Y78975D02*
X-29328D01*
X-28078D02*
X-27128D01*
X-25528D02*
X-24528D01*
X-23428D02*
X-22628D01*
X-22428D02*
X-21728D01*
X-20378D02*
X-19328D01*
X-18278D02*
X-17478D01*
X-17278D02*
X-16578D01*
X-15178D02*
X-14028D01*
X-12828D02*
X-11778D01*
X-9928D02*
X-8978D01*
X-7578D02*
X-6578D01*
X-5428D02*
X-4478D01*
X-4328D02*
X-3578D01*
X-1328D02*
X-478D01*
X572D02*
X1322D01*
X-30278Y79025D02*
X-29228D01*
X-28178D02*
X-27178D01*
X-25478D02*
X-24428D01*
X-23578D02*
X-22678D01*
X-22478D02*
X-21728D01*
X-20328D02*
X-19228D01*
X-18378D02*
X-17528D01*
X-17278D02*
X-16578D01*
X-15178D02*
X-13878D01*
X-12978D02*
X-11778D01*
X-9878D02*
X-8878D01*
X-7678D02*
X-6628D01*
X-5978D02*
X-4478D01*
X-4328D02*
X-3578D01*
X-1278D02*
X-478D01*
X572D02*
X1322D01*
X-30228Y79075D02*
X-29128D01*
X-28278D02*
X-27228D01*
X-25478D02*
X-24228D01*
X-23728D02*
X-22728D01*
X-22478D02*
X-21728D01*
X-20328D02*
X-19078D01*
X-18578D02*
X-17578D01*
X-17278D02*
X-16578D01*
X-15128D02*
X-13628D01*
X-13228D02*
X-11828D01*
X-10778D02*
X-8728D01*
X-7828D02*
X-6678D01*
X-5978D02*
X-4528D01*
X-4328D02*
X-3578D01*
X-1278D02*
X-428D01*
X522D02*
X1322D01*
X-30228Y79125D02*
X-28928D01*
X-28528D02*
X-27278D01*
X-25428D02*
X-22778D01*
X-22478D02*
X-21728D01*
X-20278D02*
X-17578D01*
X-17278D02*
X-16578D01*
X-15078D02*
X-11878D01*
X-10778D02*
X-8478D01*
X-8428D02*
X-8378D01*
X-8178D02*
X-8128D01*
X-8078D02*
X-6678D01*
X-5978D02*
X-4578D01*
X-4328D02*
X-3578D01*
X-1228D02*
X-428D01*
X522D02*
X1272D01*
X-30178Y79175D02*
X-27328D01*
X-25428D02*
X-22828D01*
X-22478D02*
X-21728D01*
X-20228D02*
X-17628D01*
X-17278D02*
X-16578D01*
X-15028D02*
X-11928D01*
X-10778D02*
X-6778D01*
X-5978D02*
X-4628D01*
X-4328D02*
X-3578D01*
X-1228D02*
X-378D01*
X522D02*
X1272D01*
X-30128Y79225D02*
X-27378D01*
X-25378D02*
X-22878D01*
X-22478D02*
X-21728D01*
X-20228D02*
X-17678D01*
X-17328D02*
X-16578D01*
X-14978D02*
X-12028D01*
X-10778D02*
X-6828D01*
X-5978D02*
X-4628D01*
X-4328D02*
X-3578D01*
X-1228D02*
X-378D01*
X472D02*
X1222D01*
X-30078Y79275D02*
X-27428D01*
X-25328D02*
X-22928D01*
X-22478D02*
X-21728D01*
X-20178D02*
X-17728D01*
X-17328D02*
X-16578D01*
X-14928D02*
X-12078D01*
X-10778D02*
X-6878D01*
X-5978D02*
X-4678D01*
X-4328D02*
X-3578D01*
X-1178D02*
X-378D01*
X472D02*
X1222D01*
X-30028Y79325D02*
X-27478D01*
X-25278D02*
X-22978D01*
X-22478D02*
X-21728D01*
X-20128D02*
X-17828D01*
X-17328D02*
X-16578D01*
X-14828D02*
X-12128D01*
X-10778D02*
X-6928D01*
X-5978D02*
X-4728D01*
X-4328D02*
X-3578D01*
X-1178D02*
X-328D01*
X472D02*
X1222D01*
X-29928Y79375D02*
X-27528D01*
X-25228D02*
X-23028D01*
X-22478D02*
X-21728D01*
X-20078D02*
X-17878D01*
X-17328D02*
X-16578D01*
X-14778D02*
X-12228D01*
X-10778D02*
X-7028D01*
X-5978D02*
X-4778D01*
X-4328D02*
X-3578D01*
X-1178D02*
X-328D01*
X422D02*
X1172D01*
X-29878Y79425D02*
X-27628D01*
X-25178D02*
X-23078D01*
X-22478D02*
X-21728D01*
X-20028D02*
X-17928D01*
X-17328D02*
X-16578D01*
X-14678D02*
X-12278D01*
X-10728D02*
X-7078D01*
X-5978D02*
X-4828D01*
X-4328D02*
X-3578D01*
X-1128D02*
X-328D01*
X422D02*
X1172D01*
X-29778Y79475D02*
X-27728D01*
X-25128D02*
X-23178D01*
X-22478D02*
X-21728D01*
X-19978D02*
X-18028D01*
X-17328D02*
X-16578D01*
X-14628D02*
X-12378D01*
X-10778D02*
X-7178D01*
X-5978D02*
X-4928D01*
X-4328D02*
X-3578D01*
X-1128D02*
X-278D01*
X372D02*
X1172D01*
X-29678Y79525D02*
X-27828D01*
X-25078D02*
X-23278D01*
X-22478D02*
X-21728D01*
X-19878D02*
X-18128D01*
X-17328D02*
X-16578D01*
X-14478D02*
X-12478D01*
X-10778D02*
X-7278D01*
X-5978D02*
X-4978D01*
X-4328D02*
X-3578D01*
X-1078D02*
X-278D01*
X372D02*
X1122D01*
X-29578Y79575D02*
X-27928D01*
X-24978D02*
X-23378D01*
X-22478D02*
X-21728D01*
X-19828D02*
X-18228D01*
X-17328D02*
X-16578D01*
X-14378D02*
X-12628D01*
X-10778D02*
X-7428D01*
X-5978D02*
X-5078D01*
X-4328D02*
X-3578D01*
X-1078D02*
X-228D01*
X372D02*
X1122D01*
X-29428Y79625D02*
X-28078D01*
X-24828D02*
X-23528D01*
X-22478D02*
X-21728D01*
X-19678D02*
X-18328D01*
X-17328D02*
X-16578D01*
X-14228D02*
X-12778D01*
X-10728D02*
X-7578D01*
X-5978D02*
X-5178D01*
X-4328D02*
X-3578D01*
X-1078D02*
X-228D01*
X322D02*
X1072D01*
X-29228Y79675D02*
X-28228D01*
X-24678D02*
X-23678D01*
X-19528D02*
X-18528D01*
X-14028D02*
X-12978D01*
X-8978D02*
X-7778D01*
X-5978D02*
X-5328D01*
X-1028D02*
X-228D01*
X322D02*
X1072D01*
X-28878Y79725D02*
X-28628D01*
X-24428D02*
X-24128D01*
X-24078D02*
X-24028D01*
X-23978D02*
X-23928D01*
X-19278D02*
X-19228D01*
X-19178D02*
X-19128D01*
X-19078D02*
X-18778D01*
X-13628D02*
X-13378D01*
X-8428D02*
X-8178D01*
X-5978D02*
X-5528D01*
X-1028D02*
X-178D01*
X322D02*
X1072D01*
X-1028Y79775D02*
X-178D01*
X272D02*
X1022D01*
X-978Y79825D02*
X-178D01*
X272D02*
X1022D01*
X-978Y79875D02*
X-128D01*
X272D02*
X1022D01*
X-928Y79925D02*
X-128D01*
X222D02*
X972D01*
X-928Y79975D02*
X-128D01*
X222D02*
X972D01*
X-928Y80025D02*
X-78D01*
X222D02*
X922D01*
X-878Y80075D02*
X-78D01*
X172D02*
X922D01*
X-878Y80125D02*
X-78D01*
X172D02*
X922D01*
X-878Y80175D02*
X-28D01*
X172D02*
X872D01*
X-828Y80225D02*
X-28D01*
X122D02*
X872D01*
X-828Y80275D02*
X-28D01*
X122D02*
X872D01*
X-828Y80325D02*
X-28D01*
X122D02*
X822D01*
X-778Y80375D02*
X22D01*
X122D02*
X822D01*
X-778Y80425D02*
X22D01*
X72D02*
X772D01*
X-728Y80475D02*
X22D01*
X72D02*
X772D01*
X-728Y80525D02*
X772D01*
X-728Y80575D02*
X722D01*
X-678Y80625D02*
X722D01*
X-678Y80675D02*
X722D01*
X-678Y80725D02*
X672D01*
X-628Y80775D02*
X672D01*
X-628Y80825D02*
X672D01*
X-578Y80875D02*
X622D01*
X-578Y80925D02*
X622D01*
X-578Y80975D02*
X572D01*
X-528Y81025D02*
X572D01*
X-528Y81075D02*
X572D01*
X-528Y81125D02*
X522D01*
X-478Y81175D02*
X522D01*
X-478Y81225D02*
X522D01*
X-428Y81275D02*
X472D01*
X-428Y81325D02*
X472D01*
X-428Y81375D02*
X422D01*
X-19128Y83225D02*
X-7678D01*
X-19178Y83275D02*
X-7628D01*
X-19178Y83325D02*
X-7628D01*
X-19228Y83375D02*
X-7578D01*
X-19228Y83425D02*
X-7578D01*
X-19278Y83475D02*
X-7528D01*
X-19328Y83525D02*
X-7478D01*
X-19328Y83575D02*
X-7478D01*
X-19378Y83625D02*
X-7428D01*
X-19378Y83675D02*
X-7428D01*
X-19428Y83725D02*
X-7378D01*
X-19428Y83775D02*
X-7328D01*
X-19478Y83825D02*
X-7328D01*
X-19528Y83875D02*
X-7278D01*
X-19528Y83925D02*
X-7278D01*
X-19578Y83975D02*
X-7228D01*
X-19578Y84025D02*
X-7228D01*
X-19628Y84075D02*
X-7178D01*
X-19628Y84125D02*
X-7128D01*
X-19678Y84175D02*
X-7128D01*
X-19728Y84225D02*
X-7078D01*
X-19728Y84275D02*
X-7078D01*
X-19778Y84325D02*
X-7028D01*
X-19778Y84375D02*
X-7028D01*
X-19828Y84425D02*
X-6978D01*
X-19878Y84475D02*
X-6928D01*
X-19878Y84525D02*
X-6928D01*
X-19928Y84575D02*
X-6878D01*
X-19928Y84625D02*
X-6878D01*
X-19978Y84675D02*
X-6828D01*
X-19978Y84725D02*
X-6828D01*
X-20028Y84775D02*
X-6778D01*
X-20078Y84825D02*
X-6728D01*
X-20078Y84875D02*
X-6728D01*
X-20128Y84925D02*
X-6678D01*
X-20128Y84975D02*
X-6678D01*
X-20178Y85025D02*
X-6628D01*
X-20178Y85075D02*
X-6578D01*
X-20228Y85125D02*
X-6578D01*
X-20278Y85175D02*
X-6528D01*
X-20278Y85225D02*
X-6528D01*
X-20328Y85275D02*
X-6478D01*
X-20328Y85325D02*
X-6478D01*
X-20378Y85375D02*
X-6428D01*
X-20428Y85425D02*
X-6378D01*
X-20428Y85475D02*
X-6378D01*
X-20478Y85525D02*
X-6328D01*
X-20478Y85575D02*
X-6328D01*
X-20528Y85625D02*
X-6278D01*
X-20528Y85675D02*
X-6278D01*
X-20578Y85725D02*
X-6228D01*
X-20628Y85775D02*
X-6178D01*
X-20628Y85825D02*
X-6178D01*
X-20678Y85875D02*
X-6128D01*
X-20678Y85925D02*
X-6128D01*
X-20728Y85975D02*
X-6078D01*
X-20728Y86025D02*
X-6078D01*
X-20778Y86075D02*
X-6028D01*
X-20828Y86125D02*
X-5978D01*
X-20828Y86175D02*
X-5978D01*
X-20878Y86225D02*
X-5928D01*
X-20878Y86275D02*
X-5928D01*
X-20928Y86325D02*
X-5878D01*
X-20928Y86375D02*
X-5828D01*
X-20978Y86425D02*
X-5828D01*
X-21028Y86475D02*
X-5778D01*
X-21028Y86525D02*
X-5778D01*
X-21078Y86575D02*
X-5728D01*
X-21078Y86625D02*
X-5728D01*
X-21128Y86675D02*
X-5678D01*
X-21178Y86725D02*
X-5628D01*
X-21178Y86775D02*
X-5628D01*
X-21228Y86825D02*
X-5578D01*
X-21228Y86875D02*
X-5578D01*
X-21278Y86925D02*
X-5528D01*
X-21278Y86975D02*
X-5528D01*
X-21328Y87025D02*
X-5478D01*
X-21378Y87075D02*
X-5428D01*
X-21378Y87125D02*
X-5428D01*
X-21428Y87175D02*
X-5378D01*
X-21428Y87225D02*
X-5378D01*
X-21478Y87275D02*
X-5328D01*
X-21478Y87325D02*
X-5278D01*
X-21528Y87375D02*
X-5278D01*
X-21578Y87425D02*
X-5228D01*
X-21578Y87475D02*
X-5228D01*
X-21628Y87525D02*
X-5178D01*
X-21628Y87575D02*
X-5178D01*
X-21678Y87625D02*
X-5128D01*
X-21678Y87675D02*
X-5078D01*
X-21728Y87725D02*
X-5078D01*
X-21778Y87775D02*
X-5028D01*
X-21778Y87825D02*
X-5028D01*
X-21828Y87875D02*
X-4978D01*
X-21828Y87925D02*
X-4978D01*
X-21878Y87975D02*
X-4928D01*
X-21928Y88025D02*
X-4878D01*
X-21928Y88075D02*
X-4878D01*
X-21978Y88125D02*
X-4828D01*
X-21978Y88175D02*
X-16228D01*
X-10528D02*
X-4878D01*
X-21928Y88225D02*
X-16228D01*
X-10578D02*
X-4878D01*
X-21878Y88275D02*
X-16178D01*
X-10578D02*
X-4928D01*
X-21878Y88325D02*
X-16178D01*
X-10628D02*
X-4928D01*
X-21828Y88375D02*
X-16128D01*
X-10678D02*
X-4978D01*
X-21828Y88425D02*
X-16078D01*
X-10678D02*
X-4978D01*
X-21778Y88475D02*
X-16078D01*
X-10728D02*
X-5028D01*
X-21778Y88525D02*
X-16028D01*
X-10728D02*
X-5078D01*
X-21728Y88575D02*
X-16028D01*
X-10778D02*
X-5078D01*
X-21678Y88625D02*
X-15978D01*
X-10828D02*
X-5128D01*
X-21678Y88675D02*
X-15978D01*
X-10828D02*
X-5128D01*
X-21628Y88725D02*
X-15928D01*
X-10878D02*
X-5178D01*
X-21628Y88775D02*
X-15878D01*
X-10878D02*
X-5178D01*
X-21578Y88825D02*
X-15878D01*
X-10928D02*
X-5228D01*
X-21578Y88875D02*
X-15828D01*
X-10928D02*
X-5278D01*
X-21528Y88925D02*
X-15828D01*
X-10978D02*
X-5278D01*
X-21478Y88975D02*
X-15778D01*
X-11028D02*
X-5328D01*
X-21478Y89025D02*
X-15778D01*
X-11028D02*
X-5328D01*
X-21428Y89075D02*
X-15728D01*
X-11078D02*
X-5378D01*
X-21428Y89125D02*
X-15678D01*
X-11078D02*
X-5378D01*
X-21378Y89175D02*
X-15678D01*
X-11128D02*
X-5428D01*
X-21328Y89225D02*
X-15628D01*
X-11128D02*
X-5478D01*
X-21328Y89275D02*
X-15628D01*
X-11178D02*
X-5478D01*
X-21278Y89325D02*
X-15578D01*
X-11228D02*
X-5528D01*
X-21278Y89375D02*
X-15528D01*
X-11228D02*
X-5528D01*
X-21228Y89425D02*
X-15528D01*
X-11278D02*
X-5578D01*
X-21228Y89475D02*
X-15478D01*
X-11278D02*
X-5628D01*
X-21178Y89525D02*
X-15478D01*
X-11328D02*
X-5628D01*
X-21128Y89575D02*
X-15428D01*
X-11328D02*
X-5678D01*
X-21128Y89625D02*
X-15428D01*
X-11378D02*
X-5678D01*
X-21078Y89675D02*
X-15378D01*
X-11428D02*
X-5728D01*
X-21078Y89725D02*
X-15328D01*
X-11428D02*
X-5728D01*
X-21028Y89775D02*
X-15328D01*
X-11478D02*
X-5778D01*
X-21028Y89825D02*
X-15278D01*
X-11478D02*
X-5828D01*
X-20978Y89875D02*
X-15278D01*
X-11528D02*
X-5828D01*
X-20928Y89925D02*
X-15228D01*
X-11578D02*
X-5878D01*
X-20928Y89975D02*
X-15228D01*
X-11578D02*
X-5878D01*
X-20878Y90025D02*
X-15178D01*
X-11628D02*
X-5928D01*
X-20878Y90075D02*
X-15128D01*
X-11628D02*
X-5928D01*
X-20828Y90125D02*
X-15128D01*
X-11678D02*
X-5978D01*
X-20828Y90175D02*
X-15078D01*
X-11678D02*
X-6028D01*
X-20778Y90225D02*
X-15078D01*
X-11728D02*
X-6028D01*
X-20728Y90275D02*
X-15028D01*
X-11778D02*
X-6078D01*
X-20728Y90325D02*
X-14978D01*
X-11778D02*
X-6078D01*
X-20678Y90375D02*
X-14978D01*
X-11828D02*
X-6128D01*
X-20678Y90425D02*
X-14928D01*
X-11828D02*
X-6128D01*
X-20628Y90475D02*
X-14928D01*
X-11878D02*
X-6178D01*
X-20578Y90525D02*
X-14878D01*
X-11878D02*
X-6228D01*
X-20578Y90575D02*
X-14878D01*
X-11928D02*
X-6228D01*
X-20528Y90625D02*
X-14828D01*
X-11978D02*
X-6278D01*
X-20528Y90675D02*
X-14778D01*
X-11978D02*
X-6278D01*
X-20478Y90725D02*
X-14778D01*
X-12028D02*
X-6328D01*
X-20478Y90775D02*
X-14728D01*
X-12028D02*
X-6378D01*
X-20428Y90825D02*
X-14728D01*
X-12078D02*
X-6378D01*
X-20378Y90875D02*
X-14678D01*
X-12078D02*
X-6428D01*
X-20378Y90925D02*
X-14678D01*
X-12128D02*
X-6428D01*
X-20328Y90975D02*
X-14628D01*
X-12178D02*
X-6478D01*
X-20328Y91025D02*
X-14578D01*
X-12178D02*
X-6478D01*
X-20278Y91075D02*
X-14578D01*
X-12228D02*
X-6528D01*
X-20278Y91125D02*
X-14528D01*
X-12228D02*
X-6578D01*
X-20228Y91175D02*
X-14528D01*
X-12278D02*
X-6578D01*
X-20178Y91225D02*
X-14478D01*
X-12328D02*
X-6628D01*
X-20178Y91275D02*
X-14478D01*
X-12328D02*
X-6628D01*
X-20128Y91325D02*
X-14428D01*
X-12378D02*
X-6678D01*
X-20128Y91375D02*
X-14378D01*
X-12378D02*
X-6678D01*
X-20078Y91425D02*
X-14378D01*
X-12428D02*
X-6728D01*
X-20078Y91475D02*
X-14328D01*
X-12428D02*
X-6778D01*
X-20028Y91525D02*
X-14328D01*
X-12478D02*
X-6778D01*
X-19978Y91575D02*
X-14278D01*
X-12528D02*
X-6828D01*
X-19978Y91625D02*
X-14228D01*
X-12528D02*
X-6828D01*
X-19928Y91675D02*
X-14228D01*
X-12578D02*
X-6878D01*
X-19928Y91725D02*
X-14178D01*
X-12578D02*
X-6928D01*
X-19878Y91775D02*
X-14178D01*
X-12628D02*
X-6928D01*
X-19828Y91825D02*
X-14128D01*
X-12628D02*
X-6978D01*
X-19828Y91875D02*
X-14128D01*
X-12678D02*
X-6978D01*
X-19778Y91925D02*
X-14078D01*
X-12728D02*
X-7028D01*
X-19778Y91975D02*
X-14028D01*
X-12728D02*
X-7028D01*
X-19728Y92025D02*
X-14028D01*
X-12778D02*
X-7078D01*
X-19728Y92075D02*
X-13978D01*
X-12778D02*
X-7128D01*
X-19678Y92125D02*
X-13978D01*
X-12828D02*
X-7128D01*
X-19628Y92175D02*
X-13928D01*
X-12828D02*
X-7178D01*
X-19628Y92225D02*
X-13928D01*
X-12878D02*
X-7178D01*
X-19578Y92275D02*
X-13878D01*
X-12928D02*
X-7228D01*
X-19578Y92325D02*
X-13828D01*
X-12928D02*
X-7228D01*
X-19528Y92375D02*
X-13828D01*
X-12978D02*
X-7278D01*
X-19528Y92425D02*
X-13778D01*
X-12978D02*
X-7328D01*
X-19478Y92475D02*
X-13778D01*
X-13028D02*
X-7328D01*
X-19428Y92525D02*
X-13728D01*
X-13078D02*
X-7378D01*
X-19428Y92575D02*
X-13728D01*
X-13078D02*
X-7378D01*
X-19378Y92625D02*
X-13678D01*
X-13128D02*
X-7428D01*
X-19378Y92675D02*
X-13628D01*
X-13128D02*
X-7428D01*
X-19328Y92725D02*
X-13628D01*
X-13178D02*
X-7478D01*
X-19278Y92775D02*
X-13578D01*
X-13178D02*
X-7528D01*
X-19278Y92825D02*
X-13578D01*
X-13228D02*
X-7528D01*
X-19228Y92875D02*
X-13528D01*
X-13278D02*
X-7578D01*
X-19228Y92925D02*
X-13478D01*
X-13278D02*
X-7578D01*
X-19178Y92975D02*
X-13478D01*
X-13328D02*
X-7628D01*
X-19178Y93025D02*
X-13428D01*
X-13328D02*
X-7678D01*
X-19128Y93075D02*
X-13428D01*
X-13378D02*
X-7678D01*
X-19078Y93125D02*
X-7728D01*
X-19078Y93175D02*
X-7728D01*
X-19028Y93225D02*
X-7778D01*
X-19028Y93275D02*
X-7778D01*
X-18978Y93325D02*
X-7828D01*
X-18928Y93375D02*
X-7878D01*
X-18928Y93425D02*
X-7878D01*
X-18878Y93475D02*
X-7928D01*
X-18878Y93525D02*
X-7928D01*
X-18828Y93575D02*
X-7978D01*
X-18828Y93625D02*
X-7978D01*
X-18778Y93675D02*
X-8028D01*
X-18778Y93725D02*
X-8078D01*
X-18728Y93775D02*
X-8078D01*
X-18678Y93825D02*
X-8128D01*
X-18678Y93875D02*
X-8128D01*
X-18628Y93925D02*
X-8178D01*
X-18628Y93975D02*
X-8178D01*
X-18578Y94025D02*
X-8228D01*
X-18528Y94075D02*
X-8278D01*
X-18528Y94125D02*
X-8278D01*
X-18478Y94175D02*
X-8328D01*
X-18478Y94225D02*
X-8328D01*
X-18428Y94275D02*
X-8378D01*
X-18428Y94325D02*
X-8428D01*
X-18378Y94375D02*
X-8428D01*
X-18328Y94425D02*
X-8478D01*
X-18328Y94475D02*
X-8478D01*
X-18278Y94525D02*
X-8528D01*
X-18278Y94575D02*
X-8528D01*
X-18228Y94625D02*
X-8578D01*
X-18228Y94675D02*
X-8628D01*
X-18178Y94725D02*
X-8628D01*
X-18128Y94775D02*
X-8678D01*
X-18128Y94825D02*
X-8678D01*
X-18078Y94875D02*
X-8728D01*
X-18078Y94925D02*
X-8728D01*
X-18028Y94975D02*
X-8778D01*
X-18028Y95025D02*
X-8828D01*
X-17978Y95075D02*
X-8828D01*
X-17928Y95125D02*
X-8878D01*
X-17928Y95175D02*
X-8878D01*
X-17878Y95225D02*
X-8928D01*
X-17878Y95275D02*
X-8928D01*
X-17828Y95325D02*
X-8978D01*
X-17778Y95375D02*
X-9028D01*
X-17778Y95425D02*
X-9028D01*
X-17728Y95475D02*
X-9078D01*
X-17728Y95525D02*
X-9078D01*
X-17678Y95575D02*
X-9128D01*
X-17678Y95625D02*
X-9178D01*
X-17628Y95675D02*
X-9178D01*
X-17578Y95725D02*
X-9228D01*
X-17578Y95775D02*
X-9228D01*
X-17528Y95825D02*
X-9278D01*
X-17528Y95875D02*
X-9278D01*
X-17478Y95925D02*
X-9328D01*
X-17478Y95975D02*
X-9378D01*
X-17428Y96025D02*
X-9378D01*
X-17378Y96075D02*
X-9428D01*
X-17378Y96125D02*
X-9428D01*
X-17328Y96175D02*
X-9478D01*
X-17328Y96225D02*
X-9478D01*
X-17278Y96275D02*
X-9528D01*
X-17278Y96325D02*
X-9578D01*
X-17228Y96375D02*
X-9578D01*
X-17178Y96425D02*
X-9628D01*
X-17178Y96475D02*
X-9628D01*
X-17128Y96525D02*
X-9678D01*
X-17128Y96575D02*
X-9728D01*
X-17078Y96625D02*
X-9728D01*
X-17028Y96675D02*
X-9778D01*
X-17028Y96725D02*
X-9778D01*
X-16978Y96775D02*
X-9828D01*
X-16978Y96825D02*
X-9828D01*
X-16928Y96875D02*
X-9878D01*
X-16928Y96925D02*
X-9928D01*
X-16878Y96975D02*
X-9928D01*
X-16828Y97025D02*
X-9978D01*
X-16828Y97075D02*
X-9978D01*
X-16778Y97125D02*
X-10028D01*
X-16778Y97175D02*
X-10028D01*
X-16728Y97225D02*
X-10078D01*
X-16728Y97275D02*
X-10128D01*
X-16678Y97325D02*
X-10128D01*
X-16628Y97375D02*
X-10178D01*
X-16628Y97425D02*
X-10178D01*
X-16578Y97475D02*
X-10228D01*
X-16578Y97525D02*
X-10228D01*
X-16528Y97575D02*
X-10278D01*
X-16478Y97625D02*
X-10328D01*
X-16478Y97675D02*
X-10328D01*
X-16428Y97725D02*
X-10378D01*
X-16428Y97775D02*
X-10378D01*
X-16378Y97825D02*
X-10428D01*
X-16378Y97875D02*
X-10478D01*
X-16328Y97925D02*
X-10478D01*
X-16278Y97975D02*
X-10528D01*
X-16278Y98025D02*
X-10528D01*
D54*
X522596Y147616D02*
Y149615D01*
X521597D01*
X521264Y149282D01*
Y148616D01*
X521597Y148283D01*
X522596D01*
X520597Y147616D02*
X519931D01*
X520264D01*
Y148949D01*
X520597D01*
X518931Y147616D02*
Y148949D01*
X517931D01*
X517598Y148616D01*
Y147616D01*
X516932D02*
X516265D01*
X516598D01*
Y149615D01*
X516932Y149282D01*
X515266Y147616D02*
Y148949D01*
X514599Y149615D01*
X513933Y148949D01*
Y147616D01*
Y148616D01*
X515266D01*
X313517Y147649D02*
Y149648D01*
X312518D01*
X312184Y149315D01*
Y148648D01*
X312518Y148315D01*
X313517D01*
X311518Y147649D02*
X310852D01*
X311185D01*
Y148981D01*
X311518D01*
X309852Y147649D02*
Y148981D01*
X308852D01*
X308519Y148648D01*
Y147649D01*
X306520D02*
X307853D01*
X306520Y148981D01*
Y149315D01*
X306853Y149648D01*
X307519D01*
X307853Y149315D01*
X304520Y147649D02*
X305853D01*
X304520Y148981D01*
Y149315D01*
X304854Y149648D01*
X305520D01*
X305853Y149315D01*
X303854Y147649D02*
Y148981D01*
X303187Y149648D01*
X302521Y148981D01*
Y147649D01*
Y148648D01*
X303854D01*
M02*
