M48
;Layer_Color=9474304
;FILE_FORMAT=2:5
INCH,TZ
;TYPE=PLATED
T1F00S00C0.01000
T2F00S00C0.01500
T3F00S00C0.02000
T4F00S00C0.02500
T5F00S00C0.03800
T6F00S00C0.09606
T7F00S00C0.15400
%
T01
X120962Y46928
X141000Y50600
X144500
X171000Y46965
X191000Y50600
X194500
X220962Y46928
X241000Y50600
X244500
X271000Y46965
X291000Y50635
X294500
X321000Y47000
X341000Y50635
X344500
X370962Y46928
X391000Y50600
X394500
X420962Y46928
X441000Y50635
X444500
X471000Y46965
X491000Y50635
X494500
T02
X151200Y51100
X152109Y116907
X164901
X170116Y147300
X151000Y147400
X153600Y143900
X141000
X127500Y143600
X177500
X191000Y143900
X203600
X201000Y147400
X217500Y143600
X231000Y143900
X243600
X241000Y147400
X260116Y147300
X267500Y143600
X281000Y143900
X293600
X291000Y147400
X292000Y119068
X267147Y121065
X251574Y116692
X241566Y116595
X202830Y117803
X175959Y119068
X201162Y51062
X251200Y51100
X301200Y51135
X322757Y66139
X351162Y51062
X401200Y51100
X451200
X453041Y119068
X464000
X472500
X460900Y126700
X453600Y143900
X451000Y147400
X441000Y143900
X427500Y143600
X413600Y143900
X411000Y147400
X401000Y143900
X387500Y143600
X380116Y147300
X361000Y147400
X363600Y143900
X351000
X337500Y143600
X363600Y126700
X370900
X372000Y119068
X362000
X383800
X410000Y119026
X413600Y126700
X420900
X470116Y147300
X477500Y143600
X491000Y143900
X503600
X501000Y147400
X503600Y126700
X510900
X503041Y119068
X522000Y70000
X501200Y51100
T03
X380837Y7162
X430837
X480874Y7200
X330874Y7234
X280874Y7200
X230837Y7162
X180837
X171030Y52257
X127962Y46928
X120992Y52219
X119266Y38787
X130837Y37162
X180837
X178000Y46965
X220992Y52219
X227962Y46928
X230837Y37162
X280874Y37200
X278000Y46965
X271030Y52257
X321030Y52292
X328000Y47000
X330874Y37234
X380837Y37162
X377962Y46928
X370992Y52219
X420992
X427962Y46928
X430837Y37162
X480874Y37200
X478000Y46965
X471030Y52257
T04
X-83506Y23158
X-78506
X-73506
X-68506
X-63506
X-58506
X-53506
X-48506
X-43506
X-38506
X-36006Y28158
X-41006
X-46006
X-51006
X-56006
X-61006
X-66006
X-71006
X-76006
X-81006
X-86006
T05
X-108985Y47338
X-98985
Y58232
X-108985
T06
X-104256Y28158
X-17756
T07
X-91706Y91055
X20000Y117000
X324500
X536500
M30
