G04 Layer_Color=16711935*
%FSLAX25Y25*%
%MOIN*%
G70*
G01*
G75*
%ADD15C,0.02000*%
%ADD18C,0.00500*%
%ADD20C,0.02000*%
%ADD22C,0.01000*%
%ADD51C,0.00600*%
%ADD54C,0.00400*%
%ADD57C,0.00601*%
D15*
X582000Y129000D02*
D03*
Y117000D02*
D03*
X20000Y129000D02*
D03*
Y117000D02*
D03*
X582000Y-9000D02*
D03*
X2000Y90000D02*
D03*
Y129000D02*
D03*
X-48000Y199000D02*
D03*
Y129000D02*
D03*
X2000Y-9000D02*
D03*
X-48000Y90000D02*
D03*
D18*
X118500Y150500D02*
X526500D01*
X-43772Y136377D02*
X-44105Y136711D01*
X-44771D01*
X-45105Y136377D01*
Y136044D01*
X-44771Y135711D01*
X-44105D01*
X-43772Y135378D01*
Y135044D01*
X-44105Y134711D01*
X-44771D01*
X-45105Y135044D01*
X-43105Y134711D02*
X-42439D01*
X-42772D01*
Y136711D01*
X-43105Y136377D01*
D20*
X2000Y129000D02*
X582000D01*
Y-9000D02*
Y129000D01*
X2000Y-9000D02*
X582000D01*
X2000D02*
Y90000D01*
Y129000D02*
Y199000D01*
X-48000D02*
X2000D01*
X-48000Y90000D02*
X2000D01*
X-48000Y129000D02*
Y199000D01*
Y90000D02*
Y129000D01*
D22*
X-7256Y-17469D02*
Y-1342D01*
X2000Y-17469D02*
Y-9000D01*
Y-16469D02*
X12000D01*
X-17256D02*
X-7256D01*
X2000D02*
X8000Y-18469D01*
X2000Y-16469D02*
X8000Y-14469D01*
X-13256D02*
X-7256Y-16469D01*
X-13256Y-18469D02*
X-7256Y-16469D01*
X-48000Y38710D02*
Y117000D01*
X-117604Y38710D02*
Y112870D01*
X-59310Y39710D02*
X-48000D01*
X-117604D02*
X-109494D01*
X-54000Y41710D02*
X-48000Y39710D01*
X-54000Y37710D02*
X-48000Y39710D01*
X-117604D02*
X-111604Y37710D01*
X-117604Y39710D02*
X-111604Y41710D01*
X550000Y-90854D02*
Y-1500D01*
X-117604Y-90854D02*
Y256D01*
X239690Y-89854D02*
X550000D01*
X-117604D02*
X189506D01*
X544000Y-87854D02*
X550000Y-89854D01*
X544000Y-91854D02*
X550000Y-89854D01*
X-117604D02*
X-111604Y-91854D01*
X-117604Y-89854D02*
X-111604Y-87854D01*
X-73000Y-81568D02*
Y-37323D01*
X550000Y-81568D02*
Y-1500D01*
X-73000Y-80568D02*
X211808D01*
X261992D02*
X550000D01*
X-73000D02*
X-67000Y-82568D01*
X-73000Y-80568D02*
X-67000Y-78568D01*
X544000D02*
X550000Y-80568D01*
X544000Y-82568D02*
X550000Y-80568D01*
X99500Y50678D02*
X131087D01*
X-93500Y0D02*
X101500D01*
X100500Y36835D02*
Y50678D01*
Y0D02*
Y11043D01*
X98500Y44678D02*
X100500Y50678D01*
X102500Y44678D01*
X100500Y0D02*
X102500Y6000D01*
X98500D02*
X100500Y0D01*
X-191759Y140000D02*
X-73116D01*
X-191759Y117000D02*
X-74500D01*
X-190759Y107000D02*
Y117000D01*
Y140000D02*
Y150000D01*
X-192759Y111000D02*
X-190759Y117000D01*
X-188759Y111000D01*
X-190759Y140000D02*
X-188759Y146000D01*
X-192759D02*
X-190759Y140000D01*
X-117604Y115870D02*
Y144161D01*
X-73000Y118500D02*
Y144161D01*
Y143161D02*
X-63000D01*
X-127604D02*
X-117604D01*
X-73000D02*
X-67000Y141161D01*
X-73000Y143161D02*
X-67000Y145161D01*
X-123604D02*
X-117604Y143161D01*
X-123604Y141161D02*
X-117604Y143161D01*
X-48000Y117000D02*
Y154987D01*
X-73116Y140000D02*
X-73000Y139884D01*
Y117000D02*
Y139884D01*
X-73116Y140000D02*
X-73000Y139884D01*
Y117000D02*
X-48000D01*
X-73000D02*
Y139884D01*
X-117604Y114370D02*
X-114974Y117000D01*
X-158281D02*
X-73000D01*
X-115848Y0D02*
X-97500D01*
X-117604Y1756D02*
X-115848Y0D01*
X-117604Y1756D02*
Y114370D01*
X-73000Y117000D02*
Y164097D01*
Y-35823D02*
Y117000D01*
X-48000Y-35823D02*
Y117000D01*
X-97500Y0D02*
X-93500D01*
X118500Y147500D02*
X526500D01*
X-46240Y140000D02*
X118500D01*
Y175500D01*
X120000Y177000D01*
X525000D01*
X526500Y175500D01*
Y140000D02*
Y175500D01*
Y140000D02*
X550000D01*
X-93500Y0D02*
X550000D01*
Y140000D01*
X129135Y195174D02*
X128197Y196111D01*
X126323D01*
X125386Y195174D01*
Y194237D01*
X126323Y193299D01*
X128197D01*
X129135Y192362D01*
Y191425D01*
X128197Y190488D01*
X126323D01*
X125386Y191425D01*
X133820Y190488D02*
X131946D01*
X131009Y191425D01*
Y193299D01*
X131946Y194237D01*
X133820D01*
X134758Y193299D01*
Y192362D01*
X131009D01*
X139444Y190488D02*
X137569D01*
X136632Y191425D01*
Y193299D01*
X137569Y194237D01*
X139444D01*
X140381Y193299D01*
Y192362D01*
X136632D01*
X147879Y190488D02*
Y196111D01*
X149753Y194237D01*
X151627Y196111D01*
Y190488D01*
X156313D02*
X154439D01*
X153502Y191425D01*
Y193299D01*
X154439Y194237D01*
X156313D01*
X157250Y193299D01*
Y192362D01*
X153502D01*
X162874Y194237D02*
X160062D01*
X159125Y193299D01*
Y191425D01*
X160062Y190488D01*
X162874D01*
X164748Y196111D02*
Y190488D01*
Y193299D01*
X165685Y194237D01*
X167560D01*
X168497Y193299D01*
Y190488D01*
X171308Y194237D02*
X173183D01*
X174120Y193299D01*
Y190488D01*
X171308D01*
X170371Y191425D01*
X171308Y192362D01*
X174120D01*
X175994Y190488D02*
Y194237D01*
X178806D01*
X179743Y193299D01*
Y190488D01*
X181617D02*
X183492D01*
X182555D01*
Y194237D01*
X181617D01*
X190052D02*
X187241D01*
X186303Y193299D01*
Y191425D01*
X187241Y190488D01*
X190052D01*
X192864Y194237D02*
X194738D01*
X195676Y193299D01*
Y190488D01*
X192864D01*
X191927Y191425D01*
X192864Y192362D01*
X195676D01*
X197550Y190488D02*
X199424D01*
X198487D01*
Y196111D01*
X197550D01*
X207859Y195174D02*
X208796Y196111D01*
X210671D01*
X211608Y195174D01*
Y194237D01*
X210671Y193299D01*
X209733D01*
X210671D01*
X211608Y192362D01*
Y191425D01*
X210671Y190488D01*
X208796D01*
X207859Y191425D01*
X220043Y190488D02*
Y195174D01*
Y193299D01*
X219105D01*
X220980D01*
X220043D01*
Y195174D01*
X220980Y196111D01*
X224729Y190488D02*
X226603D01*
X227540Y191425D01*
Y193299D01*
X226603Y194237D01*
X224729D01*
X223791Y193299D01*
Y191425D01*
X224729Y190488D01*
X229415Y194237D02*
Y190488D01*
Y192362D01*
X230352Y193299D01*
X231289Y194237D01*
X232226D01*
X240661Y196111D02*
Y190488D01*
Y193299D01*
X244410D01*
Y196111D01*
Y190488D01*
X247221Y194237D02*
X249096D01*
X250033Y193299D01*
Y190488D01*
X247221D01*
X246284Y191425D01*
X247221Y192362D01*
X250033D01*
X251907Y194237D02*
Y190488D01*
Y192362D01*
X252845Y193299D01*
X253782Y194237D01*
X254719D01*
X261279Y196111D02*
Y190488D01*
X258468D01*
X257530Y191425D01*
Y193299D01*
X258468Y194237D01*
X261279D01*
X270651Y188613D02*
X271588D01*
X272526Y189550D01*
Y194237D01*
X269714D01*
X268777Y193299D01*
Y191425D01*
X269714Y190488D01*
X272526D01*
X275337D02*
X277212D01*
X278149Y191425D01*
Y193299D01*
X277212Y194237D01*
X275337D01*
X274400Y193299D01*
Y191425D01*
X275337Y190488D01*
X280023D02*
X281898D01*
X280960D01*
Y196111D01*
X280023D01*
X288458D02*
Y190488D01*
X285646D01*
X284709Y191425D01*
Y193299D01*
X285646Y194237D01*
X288458D01*
X295955Y188613D02*
Y194237D01*
X298767D01*
X299704Y193299D01*
Y191425D01*
X298767Y190488D01*
X295955D01*
X301579D02*
X303453D01*
X302516D01*
Y196111D01*
X301579D01*
X307202Y194237D02*
X309076D01*
X310014Y193299D01*
Y190488D01*
X307202D01*
X306265Y191425D01*
X307202Y192362D01*
X310014D01*
X312825Y195174D02*
Y194237D01*
X311888D01*
X313762D01*
X312825D01*
Y191425D01*
X313762Y190488D01*
X316574D02*
X318448D01*
X317511D01*
Y194237D01*
X316574D01*
X321260Y190488D02*
Y194237D01*
X324071D01*
X325009Y193299D01*
Y190488D01*
X328757Y188613D02*
X329695D01*
X330632Y189550D01*
Y194237D01*
X327820D01*
X326883Y193299D01*
Y191425D01*
X327820Y190488D01*
X330632D01*
X338129Y194237D02*
Y190488D01*
Y192362D01*
X339067Y193299D01*
X340004Y194237D01*
X340941D01*
X346564Y190488D02*
X344690D01*
X343753Y191425D01*
Y193299D01*
X344690Y194237D01*
X346564D01*
X347501Y193299D01*
Y192362D01*
X343753D01*
X351250Y188613D02*
X352187D01*
X353124Y189550D01*
Y194237D01*
X350313D01*
X349376Y193299D01*
Y191425D01*
X350313Y190488D01*
X353124D01*
X354999D02*
X356873D01*
X355936D01*
Y194237D01*
X354999D01*
X360622Y190488D02*
X362496D01*
X363434Y191425D01*
Y193299D01*
X362496Y194237D01*
X360622D01*
X359685Y193299D01*
Y191425D01*
X360622Y190488D01*
X365308D02*
Y194237D01*
X368120D01*
X369057Y193299D01*
Y190488D01*
X378429D02*
X376554Y192362D01*
Y194237D01*
X378429Y196111D01*
X381240D02*
Y190488D01*
X384052D01*
X384989Y191425D01*
Y192362D01*
Y193299D01*
X384052Y194237D01*
X381240D01*
X387801Y190488D02*
X389675D01*
X390612Y191425D01*
Y193299D01*
X389675Y194237D01*
X387801D01*
X386864Y193299D01*
Y191425D01*
X387801Y190488D01*
X393424Y195174D02*
Y194237D01*
X392487D01*
X394361D01*
X393424D01*
Y191425D01*
X394361Y190488D01*
X397173Y196111D02*
Y190488D01*
Y193299D01*
X398110Y194237D01*
X399984D01*
X400921Y193299D01*
Y190488D01*
X408419D02*
X411231D01*
X412168Y191425D01*
X411231Y192362D01*
X409356D01*
X408419Y193299D01*
X409356Y194237D01*
X412168D01*
X414042Y190488D02*
X415917D01*
X414980D01*
Y194237D01*
X414042D01*
X422477Y196111D02*
Y190488D01*
X419665D01*
X418728Y191425D01*
Y193299D01*
X419665Y194237D01*
X422477D01*
X427163Y190488D02*
X425289D01*
X424351Y191425D01*
Y193299D01*
X425289Y194237D01*
X427163D01*
X428100Y193299D01*
Y192362D01*
X424351D01*
X429975Y190488D02*
X432786D01*
X433723Y191425D01*
X432786Y192362D01*
X430912D01*
X429975Y193299D01*
X430912Y194237D01*
X433723D01*
X442158Y190488D02*
X444033D01*
X444970Y191425D01*
Y193299D01*
X444033Y194237D01*
X442158D01*
X441221Y193299D01*
Y191425D01*
X442158Y190488D01*
X447781D02*
Y195174D01*
Y193299D01*
X446844D01*
X448719D01*
X447781D01*
Y195174D01*
X448719Y196111D01*
X457153D02*
Y190488D01*
X459965D01*
X460902Y191425D01*
Y192362D01*
Y193299D01*
X459965Y194237D01*
X457153D01*
X463714Y190488D02*
X465588D01*
X466525Y191425D01*
Y193299D01*
X465588Y194237D01*
X463714D01*
X462777Y193299D01*
Y191425D01*
X463714Y190488D01*
X469337Y194237D02*
X471211D01*
X472149Y193299D01*
Y190488D01*
X469337D01*
X468400Y191425D01*
X469337Y192362D01*
X472149D01*
X474023Y194237D02*
Y190488D01*
Y192362D01*
X474960Y193299D01*
X475897Y194237D01*
X476834D01*
X483395Y196111D02*
Y190488D01*
X480583D01*
X479646Y191425D01*
Y193299D01*
X480583Y194237D01*
X483395D01*
X485269Y190488D02*
X487144Y192362D01*
Y194237D01*
X485269Y196111D01*
X-166839Y23972D02*
X-172837D01*
X-169838Y20973D01*
Y24972D01*
X-172837Y30970D02*
Y26971D01*
X-169838D01*
X-170837Y28971D01*
Y29970D01*
X-169838Y30970D01*
X-167839D01*
X-166839Y29970D01*
Y27971D01*
X-167839Y26971D01*
X-171837Y32969D02*
X-172837Y33969D01*
Y35968D01*
X-171837Y36968D01*
X-167839D01*
X-166839Y35968D01*
Y33969D01*
X-167839Y32969D01*
X-171837D01*
X-166839Y38967D02*
X-170837D01*
Y39967D01*
X-169838Y40967D01*
X-166839D01*
X-169838D01*
X-170837Y41966D01*
X-169838Y42966D01*
X-166839D01*
Y44965D02*
Y46965D01*
Y45965D01*
X-170837D01*
Y44965D01*
X-166839Y49964D02*
Y51963D01*
Y50963D01*
X-172837D01*
Y49964D01*
Y60960D02*
Y64959D01*
Y62959D01*
X-166839D01*
X-172837Y66958D02*
X-166839D01*
X-169838D01*
X-170837Y67958D01*
Y69957D01*
X-169838Y70957D01*
X-166839D01*
Y75955D02*
Y73956D01*
X-167839Y72956D01*
X-169838D01*
X-170837Y73956D01*
Y75955D01*
X-169838Y76955D01*
X-168838D01*
Y72956D01*
X-170837Y78954D02*
X-166839D01*
X-168838D01*
X-169838Y79954D01*
X-170837Y80954D01*
Y81953D01*
X-166839Y84952D02*
X-170837D01*
Y85952D01*
X-169838Y86952D01*
X-166839D01*
X-169838D01*
X-170837Y87951D01*
X-169838Y88951D01*
X-166839D01*
X-172837Y90951D02*
X-166839D01*
Y93950D01*
X-167839Y94949D01*
X-171837D01*
X-172837Y93950D01*
Y90951D01*
X-166839Y96948D02*
Y98948D01*
Y97948D01*
X-170837D01*
Y96948D01*
Y102947D02*
Y104946D01*
X-169838Y105946D01*
X-166839D01*
Y102947D01*
X-167839Y101947D01*
X-168838Y102947D01*
Y105946D01*
X-166839Y107945D02*
X-170837D01*
Y108945D01*
X-169838Y109944D01*
X-166839D01*
X-169838D01*
X-170837Y110944D01*
X-169838Y111944D01*
X-166839D01*
X-158159Y122238D02*
Y128236D01*
X-156159Y126237D01*
X-154160Y128236D01*
Y122238D01*
X-148162Y126237D02*
X-151161D01*
X-152161Y125237D01*
Y123238D01*
X-151161Y122238D01*
X-148162D01*
X-142164Y127237D02*
X-143164Y128236D01*
X-145163D01*
X-146163Y127237D01*
Y123238D01*
X-145163Y122238D01*
X-143164D01*
X-142164Y123238D01*
Y125237D01*
X-144163D01*
X-140165Y122238D02*
X-138165D01*
X-139165D01*
Y126237D01*
X-140165D01*
X-135166Y122238D02*
X-133167D01*
X-134167D01*
Y128236D01*
X-135166D01*
X-130168Y122238D02*
X-128168D01*
X-129168D01*
Y128236D01*
X-130168D01*
X-115173Y127237D02*
X-116172Y128236D01*
X-118172D01*
X-119171Y127237D01*
Y123238D01*
X-118172Y122238D01*
X-116172D01*
X-115173Y123238D01*
X-113173Y126237D02*
Y122238D01*
Y124238D01*
X-112174Y125237D01*
X-111174Y126237D01*
X-110174D01*
X-107175D02*
Y123238D01*
X-106176Y122238D01*
X-103177D01*
Y121239D01*
X-104176Y120239D01*
X-105176D01*
X-103177Y122238D02*
Y126237D01*
X-100178Y122238D02*
X-98178D01*
X-97179Y123238D01*
Y125237D01*
X-98178Y126237D01*
X-100178D01*
X-101177Y125237D01*
Y123238D01*
X-100178Y122238D01*
X-95179D02*
X-92180D01*
X-91180Y123238D01*
X-92180Y124238D01*
X-94179D01*
X-95179Y125237D01*
X-94179Y126237D01*
X-91180D01*
X-88181Y127237D02*
Y126237D01*
X-89181D01*
X-87182D01*
X-88181D01*
Y123238D01*
X-87182Y122238D01*
X-83183Y126237D02*
X-81184D01*
X-80184Y125237D01*
Y122238D01*
X-83183D01*
X-84183Y123238D01*
X-83183Y124238D01*
X-80184D01*
X-77185Y127237D02*
Y126237D01*
X-78185D01*
X-76185D01*
X-77185D01*
Y123238D01*
X-76185Y122238D01*
X-174875Y131240D02*
Y137238D01*
X-170877Y131240D01*
Y137238D01*
X-165878Y131240D02*
X-167878D01*
X-168877Y132239D01*
Y134239D01*
X-167878Y135238D01*
X-165878D01*
X-164879Y134239D01*
Y133239D01*
X-168877D01*
X-159880Y131240D02*
X-161880D01*
X-162879Y132239D01*
Y134239D01*
X-161880Y135238D01*
X-159880D01*
X-158881Y134239D01*
Y133239D01*
X-162879D01*
X-152883Y137238D02*
Y131240D01*
X-155882D01*
X-156881Y132239D01*
Y134239D01*
X-155882Y135238D01*
X-152883D01*
X-147884Y131240D02*
X-149884D01*
X-150883Y132239D01*
Y134239D01*
X-149884Y135238D01*
X-147884D01*
X-146885Y134239D01*
Y133239D01*
X-150883D01*
X-140886Y137238D02*
Y131240D01*
X-143886D01*
X-144885Y132239D01*
Y134239D01*
X-143886Y135238D01*
X-140886D01*
X-131889Y136238D02*
Y135238D01*
X-132889D01*
X-130890D01*
X-131889D01*
Y132239D01*
X-130890Y131240D01*
X-126891D02*
X-124892D01*
X-123892Y132239D01*
Y134239D01*
X-124892Y135238D01*
X-126891D01*
X-127891Y134239D01*
Y132239D01*
X-126891Y131240D01*
X-115895Y135238D02*
Y132239D01*
X-114895Y131240D01*
X-113895Y132239D01*
X-112896Y131240D01*
X-111896Y132239D01*
Y135238D01*
X-108897Y131240D02*
X-106897D01*
X-105898Y132239D01*
Y134239D01*
X-106897Y135238D01*
X-108897D01*
X-109897Y134239D01*
Y132239D01*
X-108897Y131240D01*
X-103899Y135238D02*
Y131240D01*
Y133239D01*
X-102899Y134239D01*
X-101899Y135238D01*
X-100899D01*
X-97900Y131240D02*
Y137238D01*
Y133239D02*
X-94901Y135238D01*
X-97900Y133239D02*
X-94901Y131240D01*
X-85904D02*
X-83905D01*
X-84905D01*
Y135238D01*
X-85904D01*
X-80906Y131240D02*
Y135238D01*
X-77907D01*
X-76907Y134239D01*
Y131240D01*
X-71083Y166863D02*
X-77081D01*
Y169862D01*
X-76081Y170862D01*
X-74082D01*
X-73082Y169862D01*
Y166863D01*
Y168862D02*
X-71083Y170862D01*
Y175860D02*
Y173861D01*
X-72082Y172861D01*
X-74082D01*
X-75081Y173861D01*
Y175860D01*
X-74082Y176860D01*
X-73082D01*
Y172861D01*
X-71083Y179859D02*
X-76081D01*
X-74082D01*
Y178859D01*
Y180858D01*
Y179859D01*
X-76081D01*
X-77081Y180858D01*
Y187856D02*
Y183857D01*
X-74082D01*
X-75081Y185857D01*
Y186856D01*
X-74082Y187856D01*
X-72082D01*
X-71083Y186856D01*
Y184857D01*
X-72082Y183857D01*
X-77081Y193854D02*
Y189856D01*
X-74082D01*
Y191855D01*
Y189856D01*
X-71083D01*
X-77081Y201852D02*
X-71083D01*
Y204851D01*
X-72082Y205850D01*
X-73082D01*
X-74082Y204851D01*
Y201852D01*
Y204851D01*
X-75081Y205850D01*
X-76081D01*
X-77081Y204851D01*
Y201852D01*
X-71083Y208849D02*
Y210849D01*
X-72082Y211848D01*
X-74082D01*
X-75081Y210849D01*
Y208849D01*
X-74082Y207850D01*
X-72082D01*
X-71083Y208849D01*
X-75081Y214847D02*
Y216847D01*
X-74082Y217846D01*
X-71083D01*
Y214847D01*
X-72082Y213848D01*
X-73082Y214847D01*
Y217846D01*
X-75081Y219846D02*
X-71083D01*
X-73082D01*
X-74082Y220846D01*
X-75081Y221845D01*
Y222845D01*
X-77081Y229843D02*
X-71083D01*
Y226844D01*
X-72082Y225844D01*
X-74082D01*
X-75081Y226844D01*
Y229843D01*
X-71083Y240839D02*
Y238840D01*
X-72082Y237840D01*
X-74082D01*
X-75081Y238840D01*
Y240839D01*
X-74082Y241839D01*
X-73082D01*
Y237840D01*
X-77081Y247837D02*
X-71083D01*
Y244838D01*
X-72082Y243838D01*
X-74082D01*
X-75081Y244838D01*
Y247837D01*
X-69083Y251835D02*
Y252835D01*
X-70083Y253835D01*
X-75081D01*
Y250836D01*
X-74082Y249836D01*
X-72082D01*
X-71083Y250836D01*
Y253835D01*
Y258833D02*
Y256834D01*
X-72082Y255834D01*
X-74082D01*
X-75081Y256834D01*
Y258833D01*
X-74082Y259833D01*
X-73082D01*
Y255834D01*
X-52569Y207382D02*
Y203383D01*
X-46571D01*
Y207382D01*
X-49570Y203383D02*
Y205383D01*
X-52569Y213380D02*
X-46571D01*
Y210381D01*
X-47571Y209381D01*
X-49570D01*
X-50570Y210381D01*
Y213380D01*
X-44572Y217379D02*
Y218378D01*
X-45571Y219378D01*
X-50570D01*
Y216379D01*
X-49570Y215379D01*
X-47571D01*
X-46571Y216379D01*
Y219378D01*
Y224376D02*
Y222377D01*
X-47571Y221377D01*
X-49570D01*
X-50570Y222377D01*
Y224376D01*
X-49570Y225376D01*
X-48570D01*
Y221377D01*
X-52569Y236372D02*
Y234373D01*
X-51569Y233373D01*
X-47571D01*
X-46571Y234373D01*
Y236372D01*
X-47571Y237372D01*
X-51569D01*
X-52569Y236372D01*
X-46571Y240371D02*
X-51569D01*
X-49570D01*
Y239372D01*
Y241371D01*
Y240371D01*
X-51569D01*
X-52569Y241371D01*
X-51569Y254367D02*
X-52569Y253367D01*
Y251368D01*
X-51569Y250368D01*
X-50570D01*
X-49570Y251368D01*
Y253367D01*
X-48570Y254367D01*
X-47571D01*
X-46571Y253367D01*
Y251368D01*
X-47571Y250368D01*
X-52569Y256366D02*
X-46571D01*
X-49570D01*
X-50570Y257366D01*
Y259365D01*
X-49570Y260365D01*
X-46571D01*
Y262364D02*
Y264364D01*
Y263364D01*
X-50570D01*
Y262364D01*
X-46571Y270361D02*
Y268362D01*
X-47571Y267362D01*
X-49570D01*
X-50570Y268362D01*
Y270361D01*
X-49570Y271361D01*
X-48570D01*
Y267362D01*
X-46571Y273361D02*
Y275360D01*
Y274360D01*
X-52569D01*
Y273361D01*
Y282358D02*
X-46571D01*
Y279359D01*
X-47571Y278359D01*
X-49570D01*
X-50570Y279359D01*
Y282358D01*
X251200Y214423D02*
Y208800D01*
X254012D01*
X254949Y209737D01*
Y210674D01*
X254012Y211612D01*
X251200D01*
X254012D01*
X254949Y212549D01*
Y213486D01*
X254012Y214423D01*
X251200D01*
X259635D02*
X257760D01*
X256823Y213486D01*
Y209737D01*
X257760Y208800D01*
X259635D01*
X260572Y209737D01*
Y213486D01*
X259635Y214423D01*
X262446D02*
X266195D01*
X264321D01*
Y208800D01*
X251100Y249600D02*
Y255223D01*
X252974Y253349D01*
X254849Y255223D01*
Y249600D01*
X256723D02*
X258598D01*
X257660D01*
Y253349D01*
X256723D01*
X265158Y255223D02*
Y249600D01*
X262346D01*
X261409Y250537D01*
Y252412D01*
X262346Y253349D01*
X265158D01*
X270781Y249600D02*
X267032D01*
X270781Y253349D01*
Y254286D01*
X269844Y255223D01*
X267969D01*
X267032Y254286D01*
X252800Y269600D02*
Y275223D01*
X254674Y273349D01*
X256549Y275223D01*
Y269600D01*
X258423D02*
X260298D01*
X259360D01*
Y273349D01*
X258423D01*
X266858Y275223D02*
Y269600D01*
X264046D01*
X263109Y270537D01*
Y272412D01*
X264046Y273349D01*
X266858D01*
X268732Y269600D02*
X270607D01*
X269670D01*
Y275223D01*
X268732Y274286D01*
X254949Y234286D02*
X254012Y235223D01*
X252137D01*
X251200Y234286D01*
Y230537D01*
X252137Y229600D01*
X254012D01*
X254949Y230537D01*
Y232412D01*
X253074D01*
X256823Y229600D02*
Y235223D01*
X260572Y229600D01*
Y235223D01*
X262446D02*
Y229600D01*
X265258D01*
X266195Y230537D01*
Y234286D01*
X265258Y235223D01*
X262446D01*
X256049Y294686D02*
X255112Y295623D01*
X253237D01*
X252300Y294686D01*
Y290937D01*
X253237Y290000D01*
X255112D01*
X256049Y290937D01*
Y292812D01*
X254174D01*
X257923Y290000D02*
Y295623D01*
X261672Y290000D01*
Y295623D01*
X263546D02*
Y290000D01*
X266358D01*
X267295Y290937D01*
Y294686D01*
X266358Y295623D01*
X263546D01*
X252100Y315323D02*
X255849D01*
X253974D01*
Y309700D01*
X258660D02*
X260535D01*
X261472Y310637D01*
Y312512D01*
X260535Y313449D01*
X258660D01*
X257723Y312512D01*
Y310637D01*
X258660Y309700D01*
X263346Y307826D02*
Y313449D01*
X266158D01*
X267095Y312512D01*
Y310637D01*
X266158Y309700D01*
X263346D01*
X271312Y219000D02*
Y224623D01*
X268500Y221812D01*
X272249D01*
X274123Y219000D02*
Y222749D01*
X275060D01*
X275998Y221812D01*
Y219000D01*
Y221812D01*
X276935Y222749D01*
X277872Y221812D01*
Y219000D01*
X279746D02*
X281621D01*
X280684D01*
Y222749D01*
X279746D01*
X284432Y219000D02*
X286307D01*
X285369D01*
Y224623D01*
X284432D01*
X272549Y239900D02*
X268800D01*
X272549Y243649D01*
Y244586D01*
X271612Y245523D01*
X269737D01*
X268800Y244586D01*
X274423D02*
X275360Y245523D01*
X277235D01*
X278172Y244586D01*
Y240837D01*
X277235Y239900D01*
X275360D01*
X274423Y240837D01*
Y244586D01*
X285669Y242712D02*
X289418D01*
X300665Y239900D02*
X296916D01*
X300665Y243649D01*
Y244586D01*
X299728Y245523D01*
X297853D01*
X296916Y244586D01*
X306288Y239900D02*
X302539D01*
X306288Y243649D01*
Y244586D01*
X305351Y245523D01*
X303476D01*
X302539Y244586D01*
X313785Y239900D02*
Y243649D01*
X314723D01*
X315660Y242712D01*
Y239900D01*
Y242712D01*
X316597Y243649D01*
X317534Y242712D01*
Y239900D01*
X319409D02*
X321283D01*
X320346D01*
Y243649D01*
X319409D01*
X324095Y239900D02*
X325969D01*
X325032D01*
Y245523D01*
X324095D01*
X271849Y259700D02*
X268100D01*
X271849Y263449D01*
Y264386D01*
X270912Y265323D01*
X269037D01*
X268100Y264386D01*
X279346Y262512D02*
X283095D01*
X290593Y264386D02*
X291530Y265323D01*
X293404D01*
X294341Y264386D01*
Y263449D01*
X293404Y262512D01*
X292467D01*
X293404D01*
X294341Y261574D01*
Y260637D01*
X293404Y259700D01*
X291530D01*
X290593Y260637D01*
X296216Y259700D02*
Y263449D01*
X297153D01*
X298090Y262512D01*
Y259700D01*
Y262512D01*
X299027Y263449D01*
X299965Y262512D01*
Y259700D01*
X301839D02*
X303713D01*
X302776D01*
Y263449D01*
X301839D01*
X306525Y259700D02*
X308399D01*
X307462D01*
Y265323D01*
X306525D01*
X271549Y279800D02*
X267800D01*
X271549Y283549D01*
Y284486D01*
X270612Y285423D01*
X268737D01*
X267800Y284486D01*
X273423D02*
X274360Y285423D01*
X276235D01*
X277172Y284486D01*
Y280737D01*
X276235Y279800D01*
X274360D01*
X273423Y280737D01*
Y284486D01*
X284669Y282612D02*
X288418D01*
X299665Y279800D02*
X295916D01*
X299665Y283549D01*
Y284486D01*
X298727Y285423D01*
X296853D01*
X295916Y284486D01*
X305288Y279800D02*
X301539D01*
X305288Y283549D01*
Y284486D01*
X304351Y285423D01*
X302476D01*
X301539Y284486D01*
X312785Y279800D02*
Y283549D01*
X313723D01*
X314660Y282612D01*
Y279800D01*
Y282612D01*
X315597Y283549D01*
X316534Y282612D01*
Y279800D01*
X318409D02*
X320283D01*
X319346D01*
Y283549D01*
X318409D01*
X323095Y279800D02*
X324969D01*
X324032D01*
Y285423D01*
X323095D01*
X272212Y300400D02*
Y306023D01*
X269400Y303212D01*
X273149D01*
X275023Y300400D02*
Y304149D01*
X275960D01*
X276898Y303212D01*
Y300400D01*
Y303212D01*
X277835Y304149D01*
X278772Y303212D01*
Y300400D01*
X280646D02*
X282521D01*
X281584D01*
Y304149D01*
X280646D01*
X285332Y300400D02*
X287207D01*
X286269D01*
Y306023D01*
X285332D01*
X118700Y331923D02*
Y326300D01*
X121512D01*
X122449Y327237D01*
Y328174D01*
X121512Y329112D01*
X118700D01*
X121512D01*
X122449Y330049D01*
Y330986D01*
X121512Y331923D01*
X118700D01*
X125260Y326300D02*
X127135D01*
X128072Y327237D01*
Y329112D01*
X127135Y330049D01*
X125260D01*
X124323Y329112D01*
Y327237D01*
X125260Y326300D01*
X130884Y330049D02*
X132758D01*
X133695Y329112D01*
Y326300D01*
X130884D01*
X129946Y327237D01*
X130884Y328174D01*
X133695D01*
X135570Y330049D02*
Y326300D01*
Y328174D01*
X136507Y329112D01*
X137444Y330049D01*
X138381D01*
X144941Y331923D02*
Y326300D01*
X142130D01*
X141193Y327237D01*
Y329112D01*
X142130Y330049D01*
X144941D01*
X152439Y331923D02*
Y326300D01*
X155251D01*
X156188Y327237D01*
Y330986D01*
X155251Y331923D01*
X152439D01*
X158062Y326300D02*
X159937D01*
X159000D01*
Y330049D01*
X158062D01*
X162748Y326300D02*
Y330049D01*
X163685D01*
X164623Y329112D01*
Y326300D01*
Y329112D01*
X165560Y330049D01*
X166497Y329112D01*
Y326300D01*
X171183D02*
X169309D01*
X168371Y327237D01*
Y329112D01*
X169309Y330049D01*
X171183D01*
X172120Y329112D01*
Y328174D01*
X168371D01*
X173995Y326300D02*
Y330049D01*
X176806D01*
X177743Y329112D01*
Y326300D01*
X179618D02*
X182429D01*
X183367Y327237D01*
X182429Y328174D01*
X180555D01*
X179618Y329112D01*
X180555Y330049D01*
X183367D01*
X185241Y326300D02*
X187115D01*
X186178D01*
Y330049D01*
X185241D01*
X190864Y326300D02*
X192738D01*
X193676Y327237D01*
Y329112D01*
X192738Y330049D01*
X190864D01*
X189927Y329112D01*
Y327237D01*
X190864Y326300D01*
X195550D02*
Y330049D01*
X198362D01*
X199299Y329112D01*
Y326300D01*
X201173D02*
X203985D01*
X204922Y327237D01*
X203985Y328174D01*
X202111D01*
X201173Y329112D01*
X202111Y330049D01*
X204922D01*
X206797D02*
X207734D01*
Y329112D01*
X206797D01*
Y330049D01*
Y327237D02*
X207734D01*
Y326300D01*
X206797D01*
Y327237D01*
X217106Y326300D02*
X218980D01*
X218043D01*
Y331923D01*
X217106Y330986D01*
X221792Y326300D02*
Y327237D01*
X222729D01*
Y326300D01*
X221792D01*
X226478Y331923D02*
X230226D01*
Y330986D01*
X226478Y327237D01*
Y326300D01*
X232101Y330986D02*
X233038Y331923D01*
X234912D01*
X235850Y330986D01*
Y330049D01*
X234912Y329112D01*
X235850Y328174D01*
Y327237D01*
X234912Y326300D01*
X233038D01*
X232101Y327237D01*
Y328174D01*
X233038Y329112D01*
X232101Y330049D01*
Y330986D01*
X233038Y329112D02*
X234912D01*
X238661Y332860D02*
Y330986D01*
X237724Y330049D01*
X242410Y332860D02*
Y330986D01*
X241473Y330049D01*
X250845D02*
X254593Y326300D01*
X252719Y328174D01*
X254593Y330049D01*
X250845Y326300D01*
X262091Y331923D02*
X265840D01*
Y330986D01*
X262091Y327237D01*
Y326300D01*
X267714D02*
Y327237D01*
X268652D01*
Y326300D01*
X267714D01*
X272400D02*
X274275D01*
X273337D01*
Y331923D01*
X272400Y330986D01*
X277086Y326300D02*
X278961D01*
X278023D01*
Y331923D01*
X277086Y330986D01*
X282709Y332860D02*
Y330986D01*
X281772Y330049D01*
X286458Y332860D02*
Y330986D01*
X285521Y330049D01*
X118700Y309700D02*
Y315323D01*
X121512D01*
X122449Y314386D01*
Y312512D01*
X121512Y311574D01*
X118700D01*
X120574D02*
X122449Y309700D01*
X125260D02*
X127135D01*
X128072Y310637D01*
Y312512D01*
X127135Y313449D01*
X125260D01*
X124323Y312512D01*
Y310637D01*
X125260Y309700D01*
X129946Y313449D02*
Y310637D01*
X130884Y309700D01*
X133695D01*
Y313449D01*
X136507Y314386D02*
Y313449D01*
X135570D01*
X137444D01*
X136507D01*
Y310637D01*
X137444Y309700D01*
X140255D02*
X142130D01*
X141193D01*
Y313449D01*
X140255D01*
X144941Y309700D02*
Y313449D01*
X147753D01*
X148690Y312512D01*
Y309700D01*
X152439Y307826D02*
X153376D01*
X154314Y308763D01*
Y313449D01*
X151502D01*
X150565Y312512D01*
Y310637D01*
X151502Y309700D01*
X154314D01*
X161811Y315323D02*
Y309700D01*
X165560D01*
X168371Y313449D02*
X170246D01*
X171183Y312512D01*
Y309700D01*
X168371D01*
X167434Y310637D01*
X168371Y311574D01*
X171183D01*
X173057Y313449D02*
Y310637D01*
X173995Y309700D01*
X176806D01*
Y308763D01*
X175869Y307826D01*
X174932D01*
X176806Y309700D02*
Y313449D01*
X181492Y309700D02*
X179618D01*
X178681Y310637D01*
Y312512D01*
X179618Y313449D01*
X181492D01*
X182429Y312512D01*
Y311574D01*
X178681D01*
X184304Y313449D02*
Y309700D01*
Y311574D01*
X185241Y312512D01*
X186178Y313449D01*
X187115D01*
X199299Y314386D02*
X198362Y315323D01*
X196487D01*
X195550Y314386D01*
Y313449D01*
X196487Y312512D01*
X198362D01*
X199299Y311574D01*
Y310637D01*
X198362Y309700D01*
X196487D01*
X195550Y310637D01*
X202111Y314386D02*
Y313449D01*
X201173D01*
X203048D01*
X202111D01*
Y310637D01*
X203048Y309700D01*
X206797Y313449D02*
X208671D01*
X209608Y312512D01*
Y309700D01*
X206797D01*
X205859Y310637D01*
X206797Y311574D01*
X209608D01*
X215231Y313449D02*
X212420D01*
X211483Y312512D01*
Y310637D01*
X212420Y309700D01*
X215231D01*
X217106D02*
Y315323D01*
Y311574D02*
X219917Y313449D01*
X217106Y311574D02*
X219917Y309700D01*
X222729Y313449D02*
Y310637D01*
X223666Y309700D01*
X226478D01*
Y313449D01*
X228352Y307826D02*
Y313449D01*
X231164D01*
X232101Y312512D01*
Y310637D01*
X231164Y309700D01*
X228352D01*
X233975Y313449D02*
X234912D01*
Y312512D01*
X233975D01*
Y313449D01*
Y310637D02*
X234912D01*
Y309700D01*
X233975D01*
Y310637D01*
X118700Y324023D02*
Y318400D01*
X121512D01*
X122449Y319337D01*
Y320274D01*
X121512Y321212D01*
X118700D01*
X121512D01*
X122449Y322149D01*
Y323086D01*
X121512Y324023D01*
X118700D01*
X125260Y318400D02*
X127135D01*
X128072Y319337D01*
Y321212D01*
X127135Y322149D01*
X125260D01*
X124323Y321212D01*
Y319337D01*
X125260Y318400D01*
X130884Y322149D02*
X132758D01*
X133695Y321212D01*
Y318400D01*
X130884D01*
X129946Y319337D01*
X130884Y320274D01*
X133695D01*
X135570Y322149D02*
Y318400D01*
Y320274D01*
X136507Y321212D01*
X137444Y322149D01*
X138381D01*
X144941Y324023D02*
Y318400D01*
X142130D01*
X141193Y319337D01*
Y321212D01*
X142130Y322149D01*
X144941D01*
X152439Y324023D02*
X156188D01*
X154314D01*
Y318400D01*
X158062Y324023D02*
Y318400D01*
Y321212D01*
X159000Y322149D01*
X160874D01*
X161811Y321212D01*
Y318400D01*
X163685D02*
X165560D01*
X164623D01*
Y322149D01*
X163685D01*
X172120D02*
X169309D01*
X168371Y321212D01*
Y319337D01*
X169309Y318400D01*
X172120D01*
X173995D02*
Y324023D01*
Y320274D02*
X176806Y322149D01*
X173995Y320274D02*
X176806Y318400D01*
X179618D02*
Y322149D01*
X182429D01*
X183367Y321212D01*
Y318400D01*
X188052D02*
X186178D01*
X185241Y319337D01*
Y321212D01*
X186178Y322149D01*
X188052D01*
X188990Y321212D01*
Y320274D01*
X185241D01*
X190864Y318400D02*
X193676D01*
X194613Y319337D01*
X193676Y320274D01*
X191801D01*
X190864Y321212D01*
X191801Y322149D01*
X194613D01*
X196487Y318400D02*
X199299D01*
X200236Y319337D01*
X199299Y320274D01*
X197424D01*
X196487Y321212D01*
X197424Y322149D01*
X200236D01*
X202111D02*
X203048D01*
Y321212D01*
X202111D01*
Y322149D01*
Y319337D02*
X203048D01*
Y318400D01*
X202111D01*
Y319337D01*
X212420Y323086D02*
X213357Y324023D01*
X215231D01*
X216168Y323086D01*
Y319337D01*
X215231Y318400D01*
X213357D01*
X212420Y319337D01*
Y323086D01*
X218043Y318400D02*
Y319337D01*
X218980D01*
Y318400D01*
X218043D01*
X222729Y323086D02*
X223666Y324023D01*
X225540D01*
X226478Y323086D01*
Y319337D01*
X225540Y318400D01*
X223666D01*
X222729Y319337D01*
Y323086D01*
X232101Y324023D02*
X228352D01*
Y321212D01*
X230226Y322149D01*
X231164D01*
X232101Y321212D01*
Y319337D01*
X231164Y318400D01*
X229289D01*
X228352Y319337D01*
X233975D02*
X234912Y318400D01*
X236787D01*
X237724Y319337D01*
Y323086D01*
X236787Y324023D01*
X234912D01*
X233975Y323086D01*
Y322149D01*
X234912Y321212D01*
X237724D01*
X240536Y324960D02*
Y323086D01*
X239598Y322149D01*
X244284Y324960D02*
Y323086D01*
X243347Y322149D01*
X254593Y318400D02*
X252719Y320274D01*
Y322149D01*
X254593Y324023D01*
X257405Y318400D02*
X259279D01*
X258342D01*
Y322149D01*
X257405D01*
X262091Y318400D02*
Y322149D01*
X264903D01*
X265840Y321212D01*
Y318400D01*
X271463Y322149D02*
X268652D01*
X267714Y321212D01*
Y319337D01*
X268652Y318400D01*
X271463D01*
X273337D02*
X275212D01*
X274275D01*
Y324023D01*
X273337D01*
X278023Y322149D02*
Y319337D01*
X278961Y318400D01*
X281772D01*
Y322149D01*
X287395Y324023D02*
Y318400D01*
X284584D01*
X283647Y319337D01*
Y321212D01*
X284584Y322149D01*
X287395D01*
X289270Y318400D02*
X291144D01*
X290207D01*
Y322149D01*
X289270D01*
X293956Y318400D02*
Y322149D01*
X296767D01*
X297705Y321212D01*
Y318400D01*
X301453Y316526D02*
X302391D01*
X303328Y317463D01*
Y322149D01*
X300516D01*
X299579Y321212D01*
Y319337D01*
X300516Y318400D01*
X303328D01*
X311762Y322149D02*
X313637D01*
X314574Y321212D01*
Y318400D01*
X311762D01*
X310825Y319337D01*
X311762Y320274D01*
X314574D01*
X316448Y318400D02*
X318323D01*
X317386D01*
Y324023D01*
X316448D01*
X321134Y318400D02*
X323009D01*
X322072D01*
Y324023D01*
X321134D01*
X331444Y318400D02*
X333318D01*
X332381D01*
Y324023D01*
X331444D01*
X337067Y322149D02*
X338941D01*
X339878Y321212D01*
Y318400D01*
X337067D01*
X336130Y319337D01*
X337067Y320274D01*
X339878D01*
X341753Y322149D02*
Y319337D01*
X342690Y318400D01*
X345502D01*
Y317463D01*
X344564Y316526D01*
X343627D01*
X345502Y318400D02*
Y322149D01*
X350188Y318400D02*
X348313D01*
X347376Y319337D01*
Y321212D01*
X348313Y322149D01*
X350188D01*
X351125Y321212D01*
Y320274D01*
X347376D01*
X352999Y322149D02*
Y318400D01*
Y320274D01*
X353936Y321212D01*
X354873Y322149D01*
X355811D01*
X358622Y318400D02*
X361434D01*
X362371Y319337D01*
X361434Y320274D01*
X359559D01*
X358622Y321212D01*
X359559Y322149D01*
X362371D01*
X369869Y321212D02*
X373618D01*
X371743Y323086D02*
Y319337D01*
X384864Y323086D02*
X383927Y324023D01*
X382052D01*
X381115Y323086D01*
Y322149D01*
X382052Y321212D01*
X383927D01*
X384864Y320274D01*
Y319337D01*
X383927Y318400D01*
X382052D01*
X381115Y319337D01*
X387675Y318400D02*
X389550D01*
X390487Y319337D01*
Y321212D01*
X389550Y322149D01*
X387675D01*
X386738Y321212D01*
Y319337D01*
X387675Y318400D01*
X392361D02*
X394236D01*
X393299D01*
Y324023D01*
X392361D01*
X400796D02*
Y318400D01*
X397985D01*
X397047Y319337D01*
Y321212D01*
X397985Y322149D01*
X400796D01*
X405482Y318400D02*
X403608D01*
X402671Y319337D01*
Y321212D01*
X403608Y322149D01*
X405482D01*
X406419Y321212D01*
Y320274D01*
X402671D01*
X408294Y322149D02*
Y318400D01*
Y320274D01*
X409231Y321212D01*
X410168Y322149D01*
X411105D01*
X413917Y318400D02*
Y324023D01*
X415791Y322149D01*
X417666Y324023D01*
Y318400D01*
X420477Y322149D02*
X422352D01*
X423289Y321212D01*
Y318400D01*
X420477D01*
X419540Y319337D01*
X420477Y320274D01*
X423289D01*
X425163Y318400D02*
X427975D01*
X428912Y319337D01*
X427975Y320274D01*
X426100D01*
X425163Y321212D01*
X426100Y322149D01*
X428912D01*
X430787Y318400D02*
Y324023D01*
Y320274D02*
X433598Y322149D01*
X430787Y320274D02*
X433598Y318400D01*
X436410D02*
X438284Y320274D01*
Y322149D01*
X436410Y324023D01*
X122849Y338686D02*
X121912Y339623D01*
X120037D01*
X119100Y338686D01*
Y337749D01*
X120037Y336812D01*
X121912D01*
X122849Y335874D01*
Y334937D01*
X121912Y334000D01*
X120037D01*
X119100Y334937D01*
X128472D02*
Y338686D01*
X127535Y339623D01*
X125660D01*
X124723Y338686D01*
Y334937D01*
X125660Y334000D01*
X127535D01*
X126598Y335874D02*
X128472Y334000D01*
X127535D02*
X128472Y334937D01*
X130346Y339623D02*
Y334937D01*
X131284Y334000D01*
X133158D01*
X134095Y334937D01*
Y339623D01*
X135969D02*
X137844D01*
X136907D01*
Y334000D01*
X135969D01*
X137844D01*
X140656Y339623D02*
Y334000D01*
X143467D01*
X144404Y334937D01*
Y338686D01*
X143467Y339623D01*
X140656D01*
X151902Y334000D02*
Y339623D01*
X153776Y337749D01*
X155651Y339623D01*
Y334000D01*
X158462D02*
X160337D01*
X161274Y334937D01*
Y336812D01*
X160337Y337749D01*
X158462D01*
X157525Y336812D01*
Y334937D01*
X158462Y334000D01*
X163148Y337749D02*
Y334937D01*
X164085Y334000D01*
X166897D01*
Y337749D01*
X168771Y334000D02*
Y337749D01*
X171583D01*
X172520Y336812D01*
Y334000D01*
X175332Y338686D02*
Y337749D01*
X174395D01*
X176269D01*
X175332D01*
Y334937D01*
X176269Y334000D01*
X179081D02*
X180955D01*
X180018D01*
Y337749D01*
X179081D01*
X183767Y334000D02*
Y337749D01*
X186578D01*
X187515Y336812D01*
Y334000D01*
X191264Y332126D02*
X192201D01*
X193139Y333063D01*
Y337749D01*
X190327D01*
X189390Y336812D01*
Y334937D01*
X190327Y334000D01*
X193139D01*
X200636Y339623D02*
Y334000D01*
X203448D01*
X204385Y334937D01*
Y335874D01*
X203448Y336812D01*
X200636D01*
X203448D01*
X204385Y337749D01*
Y338686D01*
X203448Y339623D01*
X200636D01*
X207196Y334000D02*
X209071D01*
X210008Y334937D01*
Y336812D01*
X209071Y337749D01*
X207196D01*
X206259Y336812D01*
Y334937D01*
X207196Y334000D01*
X212820Y337749D02*
X214694D01*
X215631Y336812D01*
Y334000D01*
X212820D01*
X211882Y334937D01*
X212820Y335874D01*
X215631D01*
X217506Y337749D02*
Y334000D01*
Y335874D01*
X218443Y336812D01*
X219380Y337749D01*
X220317D01*
X226878Y339623D02*
Y334000D01*
X224066D01*
X223129Y334937D01*
Y336812D01*
X224066Y337749D01*
X226878D01*
X234375D02*
X236250Y334000D01*
X238124Y337749D01*
X239998Y338686D02*
X240936Y339623D01*
X242810D01*
X243747Y338686D01*
Y337749D01*
X242810Y336812D01*
X243747Y335874D01*
Y334937D01*
X242810Y334000D01*
X240936D01*
X239998Y334937D01*
Y335874D01*
X240936Y336812D01*
X239998Y337749D01*
Y338686D01*
X240936Y336812D02*
X242810D01*
X291200Y334600D02*
Y338349D01*
X293074Y340223D01*
X294949Y338349D01*
Y334600D01*
Y337412D01*
X291200D01*
X296823Y338349D02*
Y335537D01*
X297760Y334600D01*
X300572D01*
Y338349D01*
X304321Y332726D02*
X305258D01*
X306195Y333663D01*
Y338349D01*
X303384D01*
X302446Y337412D01*
Y335537D01*
X303384Y334600D01*
X306195D01*
X317442D02*
X313693D01*
X317442Y338349D01*
Y339286D01*
X316504Y340223D01*
X314630D01*
X313693Y339286D01*
X322128Y334600D02*
Y340223D01*
X319316Y337412D01*
X323065D01*
X325876Y339286D02*
Y338349D01*
X324939D01*
X326814D01*
X325876D01*
Y335537D01*
X326814Y334600D01*
X329625Y340223D02*
Y334600D01*
Y337412D01*
X330562Y338349D01*
X332437D01*
X333374Y337412D01*
Y334600D01*
X336185Y333663D02*
X337123Y334600D01*
Y335537D01*
X336185D01*
Y334600D01*
X337123D01*
X336185Y333663D01*
X335248Y332726D01*
X350243Y334600D02*
X346495D01*
X350243Y338349D01*
Y339286D01*
X349306Y340223D01*
X347432D01*
X346495Y339286D01*
X352118D02*
X353055Y340223D01*
X354929D01*
X355867Y339286D01*
Y335537D01*
X354929Y334600D01*
X353055D01*
X352118Y335537D01*
Y339286D01*
X357741Y334600D02*
X359615D01*
X358678D01*
Y340223D01*
X357741Y339286D01*
X362427Y340223D02*
X366176D01*
Y339286D01*
X362427Y335537D01*
Y334600D01*
X62700Y-18700D02*
Y-13077D01*
X66449Y-18700D01*
Y-13077D01*
X69260Y-18700D02*
X71135D01*
X72072Y-17763D01*
Y-15888D01*
X71135Y-14951D01*
X69260D01*
X68323Y-15888D01*
Y-17763D01*
X69260Y-18700D01*
X74884Y-14014D02*
Y-14951D01*
X73946D01*
X75821D01*
X74884D01*
Y-17763D01*
X75821Y-18700D01*
X81444D02*
X79570D01*
X78632Y-17763D01*
Y-15888D01*
X79570Y-14951D01*
X81444D01*
X82381Y-15888D01*
Y-16826D01*
X78632D01*
X84255Y-14951D02*
X85193D01*
Y-15888D01*
X84255D01*
Y-14951D01*
Y-17763D02*
X85193D01*
Y-18700D01*
X84255D01*
Y-17763D01*
X94565Y-18700D02*
Y-13077D01*
X98313Y-18700D01*
Y-13077D01*
X101125Y-18700D02*
X102999D01*
X103937Y-17763D01*
Y-15888D01*
X102999Y-14951D01*
X101125D01*
X100188Y-15888D01*
Y-17763D01*
X101125Y-18700D01*
X111434D02*
Y-13077D01*
X115183Y-18700D01*
Y-13077D01*
X117057Y-18700D02*
X118932D01*
X117995D01*
Y-14951D01*
X117057D01*
X125492D02*
X122681D01*
X121743Y-15888D01*
Y-17763D01*
X122681Y-18700D01*
X125492D01*
X127367D02*
Y-13077D01*
Y-16826D02*
X130178Y-14951D01*
X127367Y-16826D02*
X130178Y-18700D01*
X135801D02*
X133927D01*
X132990Y-17763D01*
Y-15888D01*
X133927Y-14951D01*
X135801D01*
X136739Y-15888D01*
Y-16826D01*
X132990D01*
X138613Y-18700D02*
X140487D01*
X139550D01*
Y-13077D01*
X138613D01*
X150796Y-18700D02*
X148922Y-16826D01*
Y-14951D01*
X150796Y-13077D01*
X154545Y-18700D02*
X156420D01*
X157357Y-17763D01*
Y-15888D01*
X156420Y-14951D01*
X154545D01*
X153608Y-15888D01*
Y-17763D01*
X154545Y-18700D01*
X159231Y-14951D02*
Y-18700D01*
Y-16826D01*
X160168Y-15888D01*
X161106Y-14951D01*
X162043D01*
X171415D02*
X173289D01*
X174226Y-15888D01*
Y-18700D01*
X171415D01*
X170478Y-17763D01*
X171415Y-16826D01*
X174226D01*
X176101Y-18700D02*
Y-14951D01*
X178912D01*
X179850Y-15888D01*
Y-18700D01*
X181724Y-14951D02*
Y-17763D01*
X182661Y-18700D01*
X185473D01*
Y-19637D01*
X184536Y-20574D01*
X183598D01*
X185473Y-18700D02*
Y-14951D01*
X193907Y-18700D02*
X195782D01*
X196719Y-17763D01*
Y-15888D01*
X195782Y-14951D01*
X193907D01*
X192970Y-15888D01*
Y-17763D01*
X193907Y-18700D01*
X199531Y-14014D02*
Y-14951D01*
X198593D01*
X200468D01*
X199531D01*
Y-17763D01*
X200468Y-18700D01*
X203279Y-13077D02*
Y-18700D01*
Y-15888D01*
X204217Y-14951D01*
X206091D01*
X207028Y-15888D01*
Y-18700D01*
X211714D02*
X209840D01*
X208903Y-17763D01*
Y-15888D01*
X209840Y-14951D01*
X211714D01*
X212651Y-15888D01*
Y-16826D01*
X208903D01*
X214526Y-14951D02*
Y-18700D01*
Y-16826D01*
X215463Y-15888D01*
X216400Y-14951D01*
X217337D01*
X229521Y-13077D02*
X225772D01*
Y-15888D01*
X227647D01*
X225772D01*
Y-18700D01*
X234207D02*
X232333D01*
X231395Y-17763D01*
Y-15888D01*
X232333Y-14951D01*
X234207D01*
X235144Y-15888D01*
Y-16826D01*
X231395D01*
X237019Y-14951D02*
Y-18700D01*
Y-16826D01*
X237956Y-15888D01*
X238893Y-14951D01*
X239830D01*
X242642D02*
Y-18700D01*
Y-16826D01*
X243579Y-15888D01*
X244516Y-14951D01*
X245453D01*
X249202Y-18700D02*
X251077D01*
X252014Y-17763D01*
Y-15888D01*
X251077Y-14951D01*
X249202D01*
X248265Y-15888D01*
Y-17763D01*
X249202Y-18700D01*
X253888D02*
Y-14951D01*
X254825D01*
X255763Y-15888D01*
Y-18700D01*
Y-15888D01*
X256700Y-14951D01*
X257637Y-15888D01*
Y-18700D01*
X260449Y-14951D02*
X262323D01*
X263260Y-15888D01*
Y-18700D01*
X260449D01*
X259511Y-17763D01*
X260449Y-16826D01*
X263260D01*
X267009Y-20574D02*
X267946D01*
X268883Y-19637D01*
Y-14951D01*
X266072D01*
X265135Y-15888D01*
Y-17763D01*
X266072Y-18700D01*
X268883D01*
X270758D02*
Y-14951D01*
X273569D01*
X274506Y-15888D01*
Y-18700D01*
X279192D02*
X277318D01*
X276381Y-17763D01*
Y-15888D01*
X277318Y-14951D01*
X279192D01*
X280130Y-15888D01*
Y-16826D01*
X276381D01*
X282941Y-14014D02*
Y-14951D01*
X282004D01*
X283878D01*
X282941D01*
Y-17763D01*
X283878Y-18700D01*
X286690D02*
X288564D01*
X287627D01*
Y-14951D01*
X286690D01*
X295125D02*
X292313D01*
X291376Y-15888D01*
Y-17763D01*
X292313Y-18700D01*
X295125D01*
X296999D02*
X298873Y-16826D01*
Y-14951D01*
X296999Y-13077D01*
X307308Y-18700D02*
X309183D01*
X308245D01*
Y-14951D01*
X307308D01*
X311994Y-18700D02*
X314806D01*
X315743Y-17763D01*
X314806Y-16826D01*
X312931D01*
X311994Y-15888D01*
X312931Y-14951D01*
X315743D01*
X324178Y-14014D02*
Y-14951D01*
X323241D01*
X325115D01*
X324178D01*
Y-17763D01*
X325115Y-18700D01*
X328864D02*
X330738D01*
X331675Y-17763D01*
Y-15888D01*
X330738Y-14951D01*
X328864D01*
X327927Y-15888D01*
Y-17763D01*
X328864Y-18700D01*
X339173Y-13077D02*
Y-18700D01*
X341985D01*
X342922Y-17763D01*
Y-16826D01*
Y-15888D01*
X341985Y-14951D01*
X339173D01*
X347608Y-18700D02*
X345733D01*
X344796Y-17763D01*
Y-15888D01*
X345733Y-14951D01*
X347608D01*
X348545Y-15888D01*
Y-16826D01*
X344796D01*
X356043Y-14951D02*
Y-17763D01*
X356980Y-18700D01*
X359791D01*
Y-14951D01*
X361666Y-18700D02*
X364477D01*
X365415Y-17763D01*
X364477Y-16826D01*
X362603D01*
X361666Y-15888D01*
X362603Y-14951D01*
X365415D01*
X370100Y-18700D02*
X368226D01*
X367289Y-17763D01*
Y-15888D01*
X368226Y-14951D01*
X370100D01*
X371038Y-15888D01*
Y-16826D01*
X367289D01*
X376661Y-13077D02*
Y-18700D01*
X373849D01*
X372912Y-17763D01*
Y-15888D01*
X373849Y-14951D01*
X376661D01*
X384158Y-18700D02*
X386033D01*
X385096D01*
Y-14951D01*
X384158D01*
X388844Y-18700D02*
Y-14951D01*
X391656D01*
X392593Y-15888D01*
Y-18700D01*
X401028D02*
Y-14014D01*
Y-15888D01*
X400091D01*
X401965D01*
X401028D01*
Y-14014D01*
X401965Y-13077D01*
X405714Y-14951D02*
X407588D01*
X408526Y-15888D01*
Y-18700D01*
X405714D01*
X404777Y-17763D01*
X405714Y-16826D01*
X408526D01*
X410400Y-13077D02*
Y-18700D01*
X413211D01*
X414149Y-17763D01*
Y-16826D01*
Y-15888D01*
X413211Y-14951D01*
X410400D01*
X416023D02*
Y-18700D01*
Y-16826D01*
X416960Y-15888D01*
X417898Y-14951D01*
X418835D01*
X421646Y-18700D02*
X423521D01*
X422583D01*
Y-14951D01*
X421646D01*
X430081D02*
X427270D01*
X426332Y-15888D01*
Y-17763D01*
X427270Y-18700D01*
X430081D01*
X432893Y-14951D02*
X434767D01*
X435704Y-15888D01*
Y-18700D01*
X432893D01*
X431955Y-17763D01*
X432893Y-16826D01*
X435704D01*
X438516Y-14014D02*
Y-14951D01*
X437579D01*
X439453D01*
X438516D01*
Y-17763D01*
X439453Y-18700D01*
X442265D02*
X444139D01*
X443202D01*
Y-14951D01*
X442265D01*
X447888Y-18700D02*
X449762D01*
X450699Y-17763D01*
Y-15888D01*
X449762Y-14951D01*
X447888D01*
X446951Y-15888D01*
Y-17763D01*
X447888Y-18700D01*
X452574D02*
Y-14951D01*
X455385D01*
X456322Y-15888D01*
Y-18700D01*
X458197D02*
Y-17763D01*
X459134D01*
Y-18700D01*
X458197D01*
X125000Y187823D02*
X128749D01*
X126874D01*
Y182200D01*
X130623D02*
X132498D01*
X131560D01*
Y185949D01*
X130623D01*
X135309Y180326D02*
Y185949D01*
X138121D01*
X139058Y185012D01*
Y183137D01*
X138121Y182200D01*
X135309D01*
X140932D02*
X143744D01*
X144681Y183137D01*
X143744Y184074D01*
X141869D01*
X140932Y185012D01*
X141869Y185949D01*
X144681D01*
X152179Y187823D02*
Y182200D01*
X154990D01*
X155928Y183137D01*
Y184074D01*
Y185012D01*
X154990Y185949D01*
X152179D01*
X160614Y182200D02*
X158739D01*
X157802Y183137D01*
Y185012D01*
X158739Y185949D01*
X160614D01*
X161551Y185012D01*
Y184074D01*
X157802D01*
X163425Y185949D02*
X165299Y182200D01*
X167174Y185949D01*
X171860Y182200D02*
X169985D01*
X169048Y183137D01*
Y185012D01*
X169985Y185949D01*
X171860D01*
X172797Y185012D01*
Y184074D01*
X169048D01*
X174671Y182200D02*
X176546D01*
X175609D01*
Y187823D01*
X174671D01*
X179357Y182200D02*
X181232D01*
X180295D01*
Y187823D01*
X179357D01*
X186855Y182200D02*
X184981D01*
X184043Y183137D01*
Y185012D01*
X184981Y185949D01*
X186855D01*
X187792Y185012D01*
Y184074D01*
X184043D01*
X193415Y187823D02*
Y182200D01*
X190604D01*
X189667Y183137D01*
Y185012D01*
X190604Y185949D01*
X193415D01*
X201850D02*
X203725D01*
X204662Y185012D01*
Y182200D01*
X201850D01*
X200913Y183137D01*
X201850Y184074D01*
X204662D01*
X206536Y182200D02*
X209348D01*
X210285Y183137D01*
X209348Y184074D01*
X207473D01*
X206536Y185012D01*
X207473Y185949D01*
X210285D01*
X217782Y180326D02*
Y185949D01*
X220594D01*
X221531Y185012D01*
Y183137D01*
X220594Y182200D01*
X217782D01*
X226217D02*
X224343D01*
X223406Y183137D01*
Y185012D01*
X224343Y185949D01*
X226217D01*
X227154Y185012D01*
Y184074D01*
X223406D01*
X229029Y185949D02*
Y182200D01*
Y184074D01*
X229966Y185012D01*
X230903Y185949D01*
X231840D01*
X240275Y187823D02*
Y182200D01*
X243087D01*
X244024Y183137D01*
Y184074D01*
Y185012D01*
X243087Y185949D01*
X240275D01*
X248710Y182200D02*
X246836D01*
X245898Y183137D01*
Y185012D01*
X246836Y185949D01*
X248710D01*
X249647Y185012D01*
Y184074D01*
X245898D01*
X251521Y182200D02*
X254333D01*
X255270Y183137D01*
X254333Y184074D01*
X252459D01*
X251521Y185012D01*
X252459Y185949D01*
X255270D01*
X258082Y186886D02*
Y185949D01*
X257145D01*
X259019D01*
X258082D01*
Y183137D01*
X259019Y182200D01*
X267454D02*
X270266D01*
X271203Y183137D01*
X270266Y184074D01*
X268391D01*
X267454Y185012D01*
X268391Y185949D01*
X271203D01*
X273077D02*
Y183137D01*
X274014Y182200D01*
X276826D01*
Y185949D01*
X280575Y180326D02*
X281512D01*
X282449Y181263D01*
Y185949D01*
X279637D01*
X278700Y185012D01*
Y183137D01*
X279637Y182200D01*
X282449D01*
X286198Y180326D02*
X287135D01*
X288072Y181263D01*
Y185949D01*
X285261D01*
X284323Y185012D01*
Y183137D01*
X285261Y182200D01*
X288072D01*
X292758D02*
X290884D01*
X289947Y183137D01*
Y185012D01*
X290884Y185949D01*
X292758D01*
X293695Y185012D01*
Y184074D01*
X289947D01*
X295570Y182200D02*
X298381D01*
X299319Y183137D01*
X298381Y184074D01*
X296507D01*
X295570Y185012D01*
X296507Y185949D01*
X299319D01*
X302130Y186886D02*
Y185949D01*
X301193D01*
X303067D01*
X302130D01*
Y183137D01*
X303067Y182200D01*
X305879D02*
X307753D01*
X306816D01*
Y185949D01*
X305879D01*
X311502Y182200D02*
X313376D01*
X314314Y183137D01*
Y185012D01*
X313376Y185949D01*
X311502D01*
X310565Y185012D01*
Y183137D01*
X311502Y182200D01*
X316188D02*
Y185949D01*
X319000D01*
X319937Y185012D01*
Y182200D01*
X321811D02*
Y183137D01*
X322748D01*
Y182200D01*
X321811D01*
X128498Y206121D02*
X124750D01*
Y203310D01*
X126624D01*
X124750D01*
Y200498D01*
X130373D02*
X132247D01*
X131310D01*
Y204247D01*
X130373D01*
X135059Y200498D02*
Y204247D01*
X137870D01*
X138808Y203310D01*
Y200498D01*
X142556Y198624D02*
X143494D01*
X144431Y199561D01*
Y204247D01*
X141619D01*
X140682Y203310D01*
Y201435D01*
X141619Y200498D01*
X144431D01*
X149117D02*
X147242D01*
X146305Y201435D01*
Y203310D01*
X147242Y204247D01*
X149117D01*
X150054Y203310D01*
Y202373D01*
X146305D01*
X151928Y204247D02*
Y200498D01*
Y202373D01*
X152866Y203310D01*
X153803Y204247D01*
X154740D01*
X160363Y200498D02*
X158489D01*
X157552Y201435D01*
Y203310D01*
X158489Y204247D01*
X160363D01*
X161300Y203310D01*
Y202373D01*
X157552D01*
X166923Y206121D02*
Y200498D01*
X164112D01*
X163175Y201435D01*
Y203310D01*
X164112Y204247D01*
X166923D01*
X174421Y206121D02*
X178170D01*
X176295D01*
Y200498D01*
X180044D02*
X181919D01*
X180981D01*
Y204247D01*
X180044D01*
X184730Y198624D02*
Y204247D01*
X187542D01*
X188479Y203310D01*
Y201435D01*
X187542Y200498D01*
X184730D01*
X190353D02*
X193165D01*
X194102Y201435D01*
X193165Y202373D01*
X191291D01*
X190353Y203310D01*
X191291Y204247D01*
X194102D01*
X203474Y200498D02*
X201600Y202373D01*
Y204247D01*
X203474Y206121D01*
X206286Y205184D02*
X207223Y206121D01*
X209097D01*
X210034Y205184D01*
Y204247D01*
X209097Y203310D01*
X210034Y202373D01*
Y201435D01*
X209097Y200498D01*
X207223D01*
X206286Y201435D01*
Y202373D01*
X207223Y203310D01*
X206286Y204247D01*
Y205184D01*
X207223Y203310D02*
X209097D01*
X211909Y205184D02*
X212846Y206121D01*
X214721D01*
X215658Y205184D01*
Y201435D01*
X214721Y200498D01*
X212846D01*
X211909Y201435D01*
Y205184D01*
X223155Y200498D02*
Y206121D01*
X225967D01*
X226904Y205184D01*
Y203310D01*
X225967Y202373D01*
X223155D01*
X228778Y206121D02*
Y200498D01*
X232527D01*
X238150Y205184D02*
X237213Y206121D01*
X235339D01*
X234402Y205184D01*
Y201435D01*
X235339Y200498D01*
X237213D01*
X238150Y201435D01*
X243774Y205184D02*
X242836Y206121D01*
X240962D01*
X240025Y205184D01*
Y204247D01*
X240962Y203310D01*
X242836D01*
X243774Y202373D01*
Y201435D01*
X242836Y200498D01*
X240962D01*
X240025Y201435D01*
X245648Y200498D02*
X247522Y202373D01*
Y204247D01*
X245648Y206121D01*
X250334Y204247D02*
X251271D01*
Y203310D01*
X250334D01*
Y204247D01*
Y201435D02*
X251271D01*
Y200498D01*
X250334D01*
Y201435D01*
X260643Y200498D02*
Y206121D01*
X263455D01*
X264392Y205184D01*
Y203310D01*
X263455Y202373D01*
X260643D01*
X266266Y200498D02*
X268141D01*
X267203D01*
Y206121D01*
X266266D01*
X271889Y204247D02*
X273764D01*
X274701Y203310D01*
Y200498D01*
X271889D01*
X270952Y201435D01*
X271889Y202373D01*
X274701D01*
X277513Y205184D02*
Y204247D01*
X276575D01*
X278450D01*
X277513D01*
Y201435D01*
X278450Y200498D01*
X284073D02*
X282199D01*
X281261Y201435D01*
Y203310D01*
X282199Y204247D01*
X284073D01*
X285010Y203310D01*
Y202373D01*
X281261D01*
X290633Y206121D02*
Y200498D01*
X287822D01*
X286885Y201435D01*
Y203310D01*
X287822Y204247D01*
X290633D01*
X298131D02*
Y201435D01*
X299068Y200498D01*
X300005Y201435D01*
X300943Y200498D01*
X301880Y201435D01*
Y204247D01*
X303754Y200498D02*
X305628D01*
X304691D01*
Y204247D01*
X303754D01*
X309377Y205184D02*
Y204247D01*
X308440D01*
X310314D01*
X309377D01*
Y201435D01*
X310314Y200498D01*
X313126Y206121D02*
Y200498D01*
Y203310D01*
X314063Y204247D01*
X315938D01*
X316875Y203310D01*
Y200498D01*
X324373Y206121D02*
Y200498D01*
Y203310D01*
X328121D01*
Y206121D01*
Y200498D01*
X330933Y204247D02*
X332807D01*
X333745Y203310D01*
Y200498D01*
X330933D01*
X329996Y201435D01*
X330933Y202373D01*
X333745D01*
X335619Y204247D02*
Y200498D01*
Y202373D01*
X336556Y203310D01*
X337493Y204247D01*
X338430D01*
X344991Y206121D02*
Y200498D01*
X342179D01*
X341242Y201435D01*
Y203310D01*
X342179Y204247D01*
X344991D01*
X354363Y198624D02*
X355300D01*
X356237Y199561D01*
Y204247D01*
X353426D01*
X352488Y203310D01*
Y201435D01*
X353426Y200498D01*
X356237D01*
X359049D02*
X360923D01*
X361860Y201435D01*
Y203310D01*
X360923Y204247D01*
X359049D01*
X358112Y203310D01*
Y201435D01*
X359049Y200498D01*
X363735D02*
X365609D01*
X364672D01*
Y206121D01*
X363735D01*
X372169D02*
Y200498D01*
X369358D01*
X368421Y201435D01*
Y203310D01*
X369358Y204247D01*
X372169D01*
X67449Y-34314D02*
X66512Y-33377D01*
X64637D01*
X63700Y-34314D01*
Y-38063D01*
X64637Y-39000D01*
X66512D01*
X67449Y-38063D01*
X70260Y-39000D02*
X72135D01*
X73072Y-38063D01*
Y-36188D01*
X72135Y-35251D01*
X70260D01*
X69323Y-36188D01*
Y-38063D01*
X70260Y-39000D01*
X74946Y-40874D02*
Y-35251D01*
X77758D01*
X78695Y-36188D01*
Y-38063D01*
X77758Y-39000D01*
X74946D01*
X80569Y-40874D02*
Y-35251D01*
X83381D01*
X84318Y-36188D01*
Y-38063D01*
X83381Y-39000D01*
X80569D01*
X89004D02*
X87130D01*
X86193Y-38063D01*
Y-36188D01*
X87130Y-35251D01*
X89004D01*
X89942Y-36188D01*
Y-37126D01*
X86193D01*
X91816Y-35251D02*
Y-39000D01*
Y-37126D01*
X92753Y-36188D01*
X93690Y-35251D01*
X94627D01*
X98376Y-39937D02*
X99313Y-39000D01*
Y-38063D01*
X98376D01*
Y-39000D01*
X99313D01*
X98376Y-39937D01*
X97439Y-40874D01*
X112434Y-34314D02*
X111497Y-33377D01*
X109623D01*
X108685Y-34314D01*
Y-35251D01*
X109623Y-36188D01*
X111497D01*
X112434Y-37126D01*
Y-38063D01*
X111497Y-39000D01*
X109623D01*
X108685Y-38063D01*
X115246Y-39000D02*
X117120D01*
X118057Y-38063D01*
Y-36188D01*
X117120Y-35251D01*
X115246D01*
X114309Y-36188D01*
Y-38063D01*
X115246Y-39000D01*
X119932D02*
X121806D01*
X120869D01*
Y-33377D01*
X119932D01*
X128367D02*
Y-39000D01*
X125555D01*
X124618Y-38063D01*
Y-36188D01*
X125555Y-35251D01*
X128367D01*
X133053Y-39000D02*
X131178D01*
X130241Y-38063D01*
Y-36188D01*
X131178Y-35251D01*
X133053D01*
X133990Y-36188D01*
Y-37126D01*
X130241D01*
X135864Y-35251D02*
Y-39000D01*
Y-37126D01*
X136801Y-36188D01*
X137739Y-35251D01*
X138676D01*
X142424Y-39937D02*
X143362Y-39000D01*
Y-38063D01*
X142424D01*
Y-39000D01*
X143362D01*
X142424Y-39937D01*
X141487Y-40874D01*
X152734Y-33377D02*
Y-39000D01*
Y-36188D01*
X156483D01*
Y-33377D01*
Y-39000D01*
X159294Y-35251D02*
X161169D01*
X162106Y-36188D01*
Y-39000D01*
X159294D01*
X158357Y-38063D01*
X159294Y-37126D01*
X162106D01*
X163980Y-35251D02*
Y-39000D01*
Y-37126D01*
X164917Y-36188D01*
X165854Y-35251D01*
X166792D01*
X173352Y-33377D02*
Y-39000D01*
X170540D01*
X169603Y-38063D01*
Y-36188D01*
X170540Y-35251D01*
X173352D01*
X184598Y-34314D02*
X183661Y-33377D01*
X181787D01*
X180850Y-34314D01*
Y-38063D01*
X181787Y-39000D01*
X183661D01*
X184598Y-38063D01*
Y-36188D01*
X182724D01*
X187410Y-39000D02*
X189284D01*
X190222Y-38063D01*
Y-36188D01*
X189284Y-35251D01*
X187410D01*
X186473Y-36188D01*
Y-38063D01*
X187410Y-39000D01*
X192096D02*
X193970D01*
X193033D01*
Y-33377D01*
X192096D01*
X200531D02*
Y-39000D01*
X197719D01*
X196782Y-38063D01*
Y-36188D01*
X197719Y-35251D01*
X200531D01*
X209903Y-39000D02*
X208028Y-37126D01*
Y-35251D01*
X209903Y-33377D01*
X213651Y-34314D02*
Y-35251D01*
X212714D01*
X214589D01*
X213651D01*
Y-38063D01*
X214589Y-39000D01*
X217400D02*
X219275D01*
X218337D01*
Y-35251D01*
X217400D01*
X222086Y-40874D02*
Y-35251D01*
X224898D01*
X225835Y-36188D01*
Y-38063D01*
X224898Y-39000D01*
X222086D01*
X227709D02*
X230521D01*
X231458Y-38063D01*
X230521Y-37126D01*
X228647D01*
X227709Y-36188D01*
X228647Y-35251D01*
X231458D01*
X239893Y-39000D02*
X241767D01*
X242705Y-38063D01*
Y-36188D01*
X241767Y-35251D01*
X239893D01*
X238956Y-36188D01*
Y-38063D01*
X239893Y-39000D01*
X244579D02*
Y-35251D01*
X247391D01*
X248328Y-36188D01*
Y-39000D01*
X250202D02*
X252077D01*
X251139D01*
Y-33377D01*
X250202D01*
X254888Y-35251D02*
Y-38063D01*
X255825Y-39000D01*
X258637D01*
Y-39937D01*
X257700Y-40874D01*
X256763D01*
X258637Y-39000D02*
Y-35251D01*
X260511Y-39000D02*
X262386Y-37126D01*
Y-35251D01*
X260511Y-33377D01*
X265197Y-39000D02*
Y-38063D01*
X266135D01*
Y-39000D01*
X265197D01*
X63600Y-23677D02*
X67349D01*
X65474D01*
Y-29300D01*
X69223Y-23677D02*
Y-29300D01*
Y-26488D01*
X70160Y-25551D01*
X72035D01*
X72972Y-26488D01*
Y-29300D01*
X77658D02*
X75784D01*
X74846Y-28363D01*
Y-26488D01*
X75784Y-25551D01*
X77658D01*
X78595Y-26488D01*
Y-27426D01*
X74846D01*
X87030Y-29300D02*
Y-24614D01*
Y-26488D01*
X86093D01*
X87967D01*
X87030D01*
Y-24614D01*
X87967Y-23677D01*
X91716Y-29300D02*
X93590D01*
X94528Y-28363D01*
Y-26488D01*
X93590Y-25551D01*
X91716D01*
X90779Y-26488D01*
Y-28363D01*
X91716Y-29300D01*
X96402D02*
X98276D01*
X97339D01*
Y-23677D01*
X96402D01*
X101088Y-29300D02*
X102962D01*
X102025D01*
Y-23677D01*
X101088D01*
X106711Y-29300D02*
X108585D01*
X109523Y-28363D01*
Y-26488D01*
X108585Y-25551D01*
X106711D01*
X105774Y-26488D01*
Y-28363D01*
X106711Y-29300D01*
X111397Y-25551D02*
Y-28363D01*
X112334Y-29300D01*
X113271Y-28363D01*
X114209Y-29300D01*
X115146Y-28363D01*
Y-25551D01*
X117020Y-29300D02*
X118895D01*
X117957D01*
Y-25551D01*
X117020D01*
X121706Y-29300D02*
Y-25551D01*
X124518D01*
X125455Y-26488D01*
Y-29300D01*
X129204Y-31174D02*
X130141D01*
X131078Y-30237D01*
Y-25551D01*
X128267D01*
X127329Y-26488D01*
Y-28363D01*
X128267Y-29300D01*
X131078D01*
X138576D02*
Y-25551D01*
X139513D01*
X140450Y-26488D01*
Y-29300D01*
Y-26488D01*
X141387Y-25551D01*
X142324Y-26488D01*
Y-29300D01*
X147011D02*
X145136D01*
X144199Y-28363D01*
Y-26488D01*
X145136Y-25551D01*
X147011D01*
X147948Y-26488D01*
Y-27426D01*
X144199D01*
X150759Y-24614D02*
Y-25551D01*
X149822D01*
X151697D01*
X150759D01*
Y-28363D01*
X151697Y-29300D01*
X155445Y-25551D02*
X157320D01*
X158257Y-26488D01*
Y-29300D01*
X155445D01*
X154508Y-28363D01*
X155445Y-27426D01*
X158257D01*
X160131Y-29300D02*
X162006D01*
X161068D01*
Y-23677D01*
X160131D01*
X164817Y-29300D02*
X167629D01*
X168566Y-28363D01*
X167629Y-27426D01*
X165754D01*
X164817Y-26488D01*
X165754Y-25551D01*
X168566D01*
X177001D02*
X178875D01*
X179812Y-26488D01*
Y-29300D01*
X177001D01*
X176064Y-28363D01*
X177001Y-27426D01*
X179812D01*
X181687Y-25551D02*
Y-29300D01*
Y-27426D01*
X182624Y-26488D01*
X183561Y-25551D01*
X184498D01*
X190121Y-29300D02*
X188247D01*
X187310Y-28363D01*
Y-26488D01*
X188247Y-25551D01*
X190121D01*
X191059Y-26488D01*
Y-27426D01*
X187310D01*
X199494Y-25551D02*
X201368D01*
X202305Y-26488D01*
Y-29300D01*
X199494D01*
X198556Y-28363D01*
X199494Y-27426D01*
X202305D01*
X204180Y-31174D02*
Y-25551D01*
X206991D01*
X207928Y-26488D01*
Y-28363D01*
X206991Y-29300D01*
X204180D01*
X209803Y-31174D02*
Y-25551D01*
X212614D01*
X213551Y-26488D01*
Y-28363D01*
X212614Y-29300D01*
X209803D01*
X215426Y-25551D02*
Y-29300D01*
Y-27426D01*
X216363Y-26488D01*
X217300Y-25551D01*
X218237D01*
X221986Y-29300D02*
X223861D01*
X224798Y-28363D01*
Y-26488D01*
X223861Y-25551D01*
X221986D01*
X221049Y-26488D01*
Y-28363D01*
X221986Y-29300D01*
X226672Y-25551D02*
X228547Y-29300D01*
X230421Y-25551D01*
X235107Y-29300D02*
X233233D01*
X232295Y-28363D01*
Y-26488D01*
X233233Y-25551D01*
X235107D01*
X236044Y-26488D01*
Y-27426D01*
X232295D01*
X241667Y-23677D02*
Y-29300D01*
X238856D01*
X237919Y-28363D01*
Y-26488D01*
X238856Y-25551D01*
X241667D01*
X250102Y-29300D02*
Y-24614D01*
Y-26488D01*
X249165D01*
X251039D01*
X250102D01*
Y-24614D01*
X251039Y-23677D01*
X254788Y-29300D02*
X256663D01*
X257600Y-28363D01*
Y-26488D01*
X256663Y-25551D01*
X254788D01*
X253851Y-26488D01*
Y-28363D01*
X254788Y-29300D01*
X259474Y-25551D02*
Y-29300D01*
Y-27426D01*
X260411Y-26488D01*
X261349Y-25551D01*
X262286D01*
X270720Y-31174D02*
Y-25551D01*
X273532D01*
X274469Y-26488D01*
Y-28363D01*
X273532Y-29300D01*
X270720D01*
X276344Y-25551D02*
Y-29300D01*
Y-27426D01*
X277281Y-26488D01*
X278218Y-25551D01*
X279155D01*
X282904Y-29300D02*
X284778D01*
X285716Y-28363D01*
Y-26488D01*
X284778Y-25551D01*
X282904D01*
X281967Y-26488D01*
Y-28363D01*
X282904Y-29300D01*
X291339Y-25551D02*
X288527D01*
X287590Y-26488D01*
Y-28363D01*
X288527Y-29300D01*
X291339D01*
X296025D02*
X294150D01*
X293213Y-28363D01*
Y-26488D01*
X294150Y-25551D01*
X296025D01*
X296962Y-26488D01*
Y-27426D01*
X293213D01*
X298836Y-29300D02*
X301648D01*
X302585Y-28363D01*
X301648Y-27426D01*
X299774D01*
X298836Y-26488D01*
X299774Y-25551D01*
X302585D01*
X304460Y-29300D02*
X307271D01*
X308208Y-28363D01*
X307271Y-27426D01*
X305397D01*
X304460Y-26488D01*
X305397Y-25551D01*
X308208D01*
X310083Y-29300D02*
X311957D01*
X311020D01*
Y-25551D01*
X310083D01*
X314769Y-29300D02*
Y-25551D01*
X317580D01*
X318517Y-26488D01*
Y-29300D01*
X322266Y-31174D02*
X323203D01*
X324141Y-30237D01*
Y-25551D01*
X321329D01*
X320392Y-26488D01*
Y-28363D01*
X321329Y-29300D01*
X324141D01*
X332575Y-24614D02*
Y-25551D01*
X331638D01*
X333513D01*
X332575D01*
Y-28363D01*
X333513Y-29300D01*
X336324Y-23677D02*
Y-29300D01*
Y-26488D01*
X337261Y-25551D01*
X339136D01*
X340073Y-26488D01*
Y-29300D01*
X341947D02*
X343822D01*
X342885D01*
Y-25551D01*
X341947D01*
X346633Y-29300D02*
X349445D01*
X350382Y-28363D01*
X349445Y-27426D01*
X347571D01*
X346633Y-26488D01*
X347571Y-25551D01*
X350382D01*
X357880Y-23677D02*
Y-29300D01*
X360691D01*
X361629Y-28363D01*
Y-27426D01*
Y-26488D01*
X360691Y-25551D01*
X357880D01*
X364440Y-29300D02*
X366315D01*
X367252Y-28363D01*
Y-26488D01*
X366315Y-25551D01*
X364440D01*
X363503Y-26488D01*
Y-28363D01*
X364440Y-29300D01*
X370063Y-25551D02*
X371938D01*
X372875Y-26488D01*
Y-29300D01*
X370063D01*
X369126Y-28363D01*
X370063Y-27426D01*
X372875D01*
X374749Y-25551D02*
Y-29300D01*
Y-27426D01*
X375687Y-26488D01*
X376624Y-25551D01*
X377561D01*
X384121Y-23677D02*
Y-29300D01*
X381310D01*
X380372Y-28363D01*
Y-26488D01*
X381310Y-25551D01*
X384121D01*
X385996D02*
X386933D01*
Y-26488D01*
X385996D01*
Y-25551D01*
Y-28363D02*
X386933D01*
Y-29300D01*
X385996D01*
Y-28363D01*
X63700Y-62451D02*
Y-65263D01*
X64637Y-66200D01*
X65574Y-65263D01*
X66512Y-66200D01*
X67449Y-65263D01*
Y-62451D01*
X69323Y-66200D02*
X71198D01*
X70260D01*
Y-62451D01*
X69323D01*
X74946Y-61514D02*
Y-62451D01*
X74009D01*
X75884D01*
X74946D01*
Y-65263D01*
X75884Y-66200D01*
X78695Y-60577D02*
Y-66200D01*
Y-63388D01*
X79632Y-62451D01*
X81507D01*
X82444Y-63388D01*
Y-66200D01*
X89942Y-68074D02*
Y-62451D01*
X92753D01*
X93690Y-63388D01*
Y-65263D01*
X92753Y-66200D01*
X89942D01*
X98376D02*
X96502D01*
X95565Y-65263D01*
Y-63388D01*
X96502Y-62451D01*
X98376D01*
X99313Y-63388D01*
Y-64326D01*
X95565D01*
X103999Y-66200D02*
X102125D01*
X101188Y-65263D01*
Y-63388D01*
X102125Y-62451D01*
X103999D01*
X104937Y-63388D01*
Y-64326D01*
X101188D01*
X106811Y-66200D02*
X108685D01*
X107748D01*
Y-60577D01*
X106811D01*
X112434Y-62451D02*
X114309D01*
X115246Y-63388D01*
Y-66200D01*
X112434D01*
X111497Y-65263D01*
X112434Y-64326D01*
X115246D01*
X117120Y-60577D02*
Y-66200D01*
X119932D01*
X120869Y-65263D01*
Y-64326D01*
Y-63388D01*
X119932Y-62451D01*
X117120D01*
X122743Y-66200D02*
X124618D01*
X123681D01*
Y-60577D01*
X122743D01*
X130241Y-66200D02*
X128367D01*
X127429Y-65263D01*
Y-63388D01*
X128367Y-62451D01*
X130241D01*
X131178Y-63388D01*
Y-64326D01*
X127429D01*
X138676Y-66200D02*
Y-62451D01*
X139613D01*
X140550Y-63388D01*
Y-66200D01*
Y-63388D01*
X141487Y-62451D01*
X142424Y-63388D01*
Y-66200D01*
X145236Y-62451D02*
X147110D01*
X148048Y-63388D01*
Y-66200D01*
X145236D01*
X144299Y-65263D01*
X145236Y-64326D01*
X148048D01*
X149922Y-66200D02*
X152734D01*
X153671Y-65263D01*
X152734Y-64326D01*
X150859D01*
X149922Y-63388D01*
X150859Y-62451D01*
X153671D01*
X155545Y-66200D02*
Y-60577D01*
Y-64326D02*
X158357Y-62451D01*
X155545Y-64326D02*
X158357Y-66200D01*
X168666D02*
X166792Y-64326D01*
Y-62451D01*
X168666Y-60577D01*
X171478Y-66200D02*
X174289D01*
X175226Y-65263D01*
X174289Y-64326D01*
X172415D01*
X171478Y-63388D01*
X172415Y-62451D01*
X175226D01*
X179912Y-66200D02*
X178038D01*
X177101Y-65263D01*
Y-63388D01*
X178038Y-62451D01*
X179912D01*
X180850Y-63388D01*
Y-64326D01*
X177101D01*
X185536Y-66200D02*
X183661D01*
X182724Y-65263D01*
Y-63388D01*
X183661Y-62451D01*
X185536D01*
X186473Y-63388D01*
Y-64326D01*
X182724D01*
X193970Y-66200D02*
Y-60577D01*
X195845Y-62451D01*
X197719Y-60577D01*
Y-66200D01*
X202405D02*
X200531D01*
X199593Y-65263D01*
Y-63388D01*
X200531Y-62451D01*
X202405D01*
X203342Y-63388D01*
Y-64326D01*
X199593D01*
X208965Y-62451D02*
X206154D01*
X205217Y-63388D01*
Y-65263D01*
X206154Y-66200D01*
X208965D01*
X210840Y-60577D02*
Y-66200D01*
Y-63388D01*
X211777Y-62451D01*
X213651D01*
X214589Y-63388D01*
Y-66200D01*
X225835D02*
X222086D01*
X225835Y-62451D01*
Y-61514D01*
X224898Y-60577D01*
X223023D01*
X222086Y-61514D01*
X233333Y-66200D02*
X235207D01*
X234270D01*
Y-60577D01*
X233333D01*
X238956Y-62451D02*
X240830D01*
X241767Y-63388D01*
Y-66200D01*
X238956D01*
X238019Y-65263D01*
X238956Y-64326D01*
X241767D01*
X243642Y-62451D02*
Y-65263D01*
X244579Y-66200D01*
X247391D01*
Y-67137D01*
X246453Y-68074D01*
X245516D01*
X247391Y-66200D02*
Y-62451D01*
X252077Y-66200D02*
X250202D01*
X249265Y-65263D01*
Y-63388D01*
X250202Y-62451D01*
X252077D01*
X253014Y-63388D01*
Y-64326D01*
X249265D01*
X254888Y-62451D02*
Y-66200D01*
Y-64326D01*
X255825Y-63388D01*
X256763Y-62451D01*
X257700D01*
X260511Y-66200D02*
X262386Y-64326D01*
Y-62451D01*
X260511Y-60577D01*
X274569D02*
Y-66200D01*
X271758D01*
X270820Y-65263D01*
Y-63388D01*
X271758Y-62451D01*
X274569D01*
X276444D02*
Y-65263D01*
X277381Y-66200D01*
X280192D01*
Y-62451D01*
X282067D02*
Y-66200D01*
Y-64326D01*
X283004Y-63388D01*
X283941Y-62451D01*
X284878D01*
X287690Y-66200D02*
X289564D01*
X288627D01*
Y-62451D01*
X287690D01*
X292376Y-66200D02*
Y-62451D01*
X295188D01*
X296125Y-63388D01*
Y-66200D01*
X299873Y-68074D02*
X300811D01*
X301748Y-67137D01*
Y-62451D01*
X298936D01*
X297999Y-63388D01*
Y-65263D01*
X298936Y-66200D01*
X301748D01*
X309245Y-60577D02*
Y-66200D01*
Y-63388D01*
X312994D01*
Y-60577D01*
Y-66200D01*
X314869D02*
Y-62451D01*
X316743Y-60577D01*
X318618Y-62451D01*
Y-66200D01*
Y-63388D01*
X314869D01*
X324241Y-61514D02*
X323304Y-60577D01*
X321429D01*
X320492Y-61514D01*
Y-62451D01*
X321429Y-63388D01*
X323304D01*
X324241Y-64326D01*
Y-65263D01*
X323304Y-66200D01*
X321429D01*
X320492Y-65263D01*
X326115Y-60577D02*
Y-66200D01*
X329864D01*
X337361Y-68074D02*
Y-62451D01*
X340173D01*
X341110Y-63388D01*
Y-65263D01*
X340173Y-66200D01*
X337361D01*
X342985Y-62451D02*
Y-66200D01*
Y-64326D01*
X343922Y-63388D01*
X344859Y-62451D01*
X345796D01*
X349545Y-66200D02*
X351419D01*
X352357Y-65263D01*
Y-63388D01*
X351419Y-62451D01*
X349545D01*
X348608Y-63388D01*
Y-65263D01*
X349545Y-66200D01*
X357980Y-62451D02*
X355168D01*
X354231Y-63388D01*
Y-65263D01*
X355168Y-66200D01*
X357980D01*
X362666D02*
X360791D01*
X359854Y-65263D01*
Y-63388D01*
X360791Y-62451D01*
X362666D01*
X363603Y-63388D01*
Y-64326D01*
X359854D01*
X365477Y-66200D02*
X368289D01*
X369226Y-65263D01*
X368289Y-64326D01*
X366414D01*
X365477Y-63388D01*
X366414Y-62451D01*
X369226D01*
X371100Y-66200D02*
X373912D01*
X374849Y-65263D01*
X373912Y-64326D01*
X372038D01*
X371100Y-63388D01*
X372038Y-62451D01*
X374849D01*
X64300Y-52014D02*
X65237Y-51077D01*
X67112D01*
X68049Y-52014D01*
Y-55763D01*
X67112Y-56700D01*
X65237D01*
X64300Y-55763D01*
Y-52014D01*
X69923Y-56700D02*
Y-55763D01*
X70860D01*
Y-56700D01*
X69923D01*
X74609Y-52014D02*
X75546Y-51077D01*
X77421D01*
X78358Y-52014D01*
Y-55763D01*
X77421Y-56700D01*
X75546D01*
X74609Y-55763D01*
Y-52014D01*
X83981Y-56700D02*
X80232D01*
X83981Y-52951D01*
Y-52014D01*
X83044Y-51077D01*
X81169D01*
X80232Y-52014D01*
X85856D02*
X86793Y-51077D01*
X88667D01*
X89604Y-52014D01*
Y-55763D01*
X88667Y-56700D01*
X86793D01*
X85856Y-55763D01*
Y-52014D01*
X92416Y-50140D02*
Y-52014D01*
X91479Y-52951D01*
X96165Y-50140D02*
Y-52014D01*
X95227Y-52951D01*
X98976D02*
X102725Y-56700D01*
X100851Y-54826D01*
X102725Y-52951D01*
X98976Y-56700D01*
X104599Y-52014D02*
X105537Y-51077D01*
X107411D01*
X108348Y-52014D01*
Y-55763D01*
X107411Y-56700D01*
X105537D01*
X104599Y-55763D01*
Y-52014D01*
X110223Y-56700D02*
Y-55763D01*
X111160D01*
Y-56700D01*
X110223D01*
X114909Y-52014D02*
X115846Y-51077D01*
X117720D01*
X118657Y-52014D01*
Y-55763D01*
X117720Y-56700D01*
X115846D01*
X114909Y-55763D01*
Y-52014D01*
X124281Y-51077D02*
X122406Y-52014D01*
X120532Y-53888D01*
Y-55763D01*
X121469Y-56700D01*
X123343D01*
X124281Y-55763D01*
Y-54826D01*
X123343Y-53888D01*
X120532D01*
X126155Y-52014D02*
X127092Y-51077D01*
X128967D01*
X129904Y-52014D01*
Y-55763D01*
X128967Y-56700D01*
X127092D01*
X126155Y-55763D01*
Y-52014D01*
X132715Y-50140D02*
Y-52014D01*
X131778Y-52951D01*
X136464Y-50140D02*
Y-52014D01*
X135527Y-52951D01*
X144899Y-51077D02*
Y-56700D01*
X147711D01*
X148648Y-55763D01*
Y-54826D01*
X147711Y-53888D01*
X144899D01*
X147711D01*
X148648Y-52951D01*
Y-52014D01*
X147711Y-51077D01*
X144899D01*
X151459Y-52951D02*
X153334D01*
X154271Y-53888D01*
Y-56700D01*
X151459D01*
X150522Y-55763D01*
X151459Y-54826D01*
X154271D01*
X156145Y-52951D02*
Y-56700D01*
Y-54826D01*
X157082Y-53888D01*
X158020Y-52951D01*
X158957D01*
X164580Y-56700D02*
X162706D01*
X161768Y-55763D01*
Y-53888D01*
X162706Y-52951D01*
X164580D01*
X165517Y-53888D01*
Y-54826D01*
X161768D01*
X176764Y-52014D02*
X175826Y-51077D01*
X173952D01*
X173015Y-52014D01*
Y-55763D01*
X173952Y-56700D01*
X175826D01*
X176764Y-55763D01*
X179575Y-56700D02*
X181450D01*
X182387Y-55763D01*
Y-53888D01*
X181450Y-52951D01*
X179575D01*
X178638Y-53888D01*
Y-55763D01*
X179575Y-56700D01*
X184261Y-58574D02*
Y-52951D01*
X187073D01*
X188010Y-53888D01*
Y-55763D01*
X187073Y-56700D01*
X184261D01*
X189884Y-58574D02*
Y-52951D01*
X192696D01*
X193633Y-53888D01*
Y-55763D01*
X192696Y-56700D01*
X189884D01*
X198319D02*
X196445D01*
X195508Y-55763D01*
Y-53888D01*
X196445Y-52951D01*
X198319D01*
X199256Y-53888D01*
Y-54826D01*
X195508D01*
X201131Y-52951D02*
Y-56700D01*
Y-54826D01*
X202068Y-53888D01*
X203005Y-52951D01*
X203942D01*
X212377Y-51077D02*
Y-56700D01*
X215189D01*
X216126Y-55763D01*
Y-54826D01*
X215189Y-53888D01*
X212377D01*
X215189D01*
X216126Y-52951D01*
Y-52014D01*
X215189Y-51077D01*
X212377D01*
X218937Y-56700D02*
X220812D01*
X221749Y-55763D01*
Y-53888D01*
X220812Y-52951D01*
X218937D01*
X218000Y-53888D01*
Y-55763D01*
X218937Y-56700D01*
X223623D02*
Y-52951D01*
X226435D01*
X227372Y-53888D01*
Y-56700D01*
X232995Y-51077D02*
Y-56700D01*
X230184D01*
X229247Y-55763D01*
Y-53888D01*
X230184Y-52951D01*
X232995D01*
X240493Y-58574D02*
Y-52951D01*
X243305D01*
X244242Y-53888D01*
Y-55763D01*
X243305Y-56700D01*
X240493D01*
X247053Y-52951D02*
X248928D01*
X249865Y-53888D01*
Y-56700D01*
X247053D01*
X246116Y-55763D01*
X247053Y-54826D01*
X249865D01*
X255488Y-51077D02*
Y-56700D01*
X252677D01*
X251739Y-55763D01*
Y-53888D01*
X252677Y-52951D01*
X255488D01*
X257363Y-56700D02*
X260174D01*
X261111Y-55763D01*
X260174Y-54826D01*
X258300D01*
X257363Y-53888D01*
X258300Y-52951D01*
X261111D01*
X270483Y-56700D02*
X268609Y-54826D01*
Y-52951D01*
X270483Y-51077D01*
X276106Y-56700D02*
Y-51077D01*
X273295Y-53888D01*
X277044D01*
X278918Y-52014D02*
X279855Y-51077D01*
X281730D01*
X282667Y-52014D01*
Y-52951D01*
X281730Y-53888D01*
X282667Y-54826D01*
Y-55763D01*
X281730Y-56700D01*
X279855D01*
X278918Y-55763D01*
Y-54826D01*
X279855Y-53888D01*
X278918Y-52951D01*
Y-52014D01*
X279855Y-53888D02*
X281730D01*
X290164Y-56700D02*
Y-51077D01*
X292976D01*
X293913Y-52014D01*
Y-53888D01*
X292976Y-54826D01*
X290164D01*
X295788Y-51077D02*
Y-56700D01*
X299536D01*
X305159Y-52014D02*
X304222Y-51077D01*
X302348D01*
X301411Y-52014D01*
Y-55763D01*
X302348Y-56700D01*
X304222D01*
X305159Y-55763D01*
X310783Y-52014D02*
X309845Y-51077D01*
X307971D01*
X307034Y-52014D01*
Y-52951D01*
X307971Y-53888D01*
X309845D01*
X310783Y-54826D01*
Y-55763D01*
X309845Y-56700D01*
X307971D01*
X307034Y-55763D01*
X312657Y-56700D02*
X314531Y-54826D01*
Y-52951D01*
X312657Y-51077D01*
X318280Y-57637D02*
X319217Y-56700D01*
Y-55763D01*
X318280D01*
Y-56700D01*
X319217D01*
X318280Y-57637D01*
X317343Y-58574D01*
X329527Y-52014D02*
Y-52951D01*
X328590D01*
X330464D01*
X329527D01*
Y-55763D01*
X330464Y-56700D01*
X334213D02*
X336087D01*
X337024Y-55763D01*
Y-53888D01*
X336087Y-52951D01*
X334213D01*
X333275Y-53888D01*
Y-55763D01*
X334213Y-56700D01*
X344522Y-51077D02*
Y-56700D01*
X347333D01*
X348271Y-55763D01*
Y-54826D01*
Y-53888D01*
X347333Y-52951D01*
X344522D01*
X352957Y-56700D02*
X351082D01*
X350145Y-55763D01*
Y-53888D01*
X351082Y-52951D01*
X352957D01*
X353894Y-53888D01*
Y-54826D01*
X350145D01*
X361391Y-58574D02*
Y-52951D01*
X364203D01*
X365140Y-53888D01*
Y-55763D01*
X364203Y-56700D01*
X361391D01*
X367015Y-52951D02*
Y-56700D01*
Y-54826D01*
X367952Y-53888D01*
X368889Y-52951D01*
X369826D01*
X373575Y-56700D02*
X375449D01*
X376386Y-55763D01*
Y-53888D01*
X375449Y-52951D01*
X373575D01*
X372638Y-53888D01*
Y-55763D01*
X373575Y-56700D01*
X379198Y-52014D02*
Y-52951D01*
X378261D01*
X380135D01*
X379198D01*
Y-55763D01*
X380135Y-56700D01*
X385758D02*
X383884D01*
X382947Y-55763D01*
Y-53888D01*
X383884Y-52951D01*
X385758D01*
X386696Y-53888D01*
Y-54826D01*
X382947D01*
X392319Y-52951D02*
X389507D01*
X388570Y-53888D01*
Y-55763D01*
X389507Y-56700D01*
X392319D01*
X395130Y-52014D02*
Y-52951D01*
X394193D01*
X396068D01*
X395130D01*
Y-55763D01*
X396068Y-56700D01*
X401691D02*
X399816D01*
X398879Y-55763D01*
Y-53888D01*
X399816Y-52951D01*
X401691D01*
X402628Y-53888D01*
Y-54826D01*
X398879D01*
X408251Y-51077D02*
Y-56700D01*
X405440D01*
X404502Y-55763D01*
Y-53888D01*
X405440Y-52951D01*
X408251D01*
X476800Y98200D02*
Y104198D01*
X479799D01*
X480799Y103198D01*
Y101199D01*
X479799Y100199D01*
X476800D01*
X482798Y102199D02*
Y98200D01*
Y100199D01*
X483798Y101199D01*
X484797Y102199D01*
X485797D01*
X491795Y98200D02*
X489796D01*
X488796Y99200D01*
Y101199D01*
X489796Y102199D01*
X491795D01*
X492795Y101199D01*
Y100199D01*
X488796D01*
X494794Y98200D02*
X497793D01*
X498793Y99200D01*
X497793Y100199D01*
X495794D01*
X494794Y101199D01*
X495794Y102199D01*
X498793D01*
X500792Y98200D02*
X503791D01*
X504791Y99200D01*
X503791Y100199D01*
X501792D01*
X500792Y101199D01*
X501792Y102199D01*
X504791D01*
X506790Y101199D02*
X510789D01*
X512788Y98200D02*
X514788D01*
X513788D01*
Y102199D01*
X512788D01*
X517787Y98200D02*
Y102199D01*
X520786D01*
X521785Y101199D01*
Y98200D01*
X529783D02*
Y104198D01*
X533782Y98200D01*
Y104198D01*
X535781Y102199D02*
Y99200D01*
X536781Y98200D01*
X539780D01*
Y102199D01*
X542779Y103198D02*
Y102199D01*
X541779D01*
X543778D01*
X542779D01*
Y99200D01*
X543778Y98200D01*
X293000Y96000D02*
Y101998D01*
X295999D01*
X296999Y100998D01*
Y98999D01*
X295999Y97999D01*
X293000D01*
X298998Y99999D02*
Y96000D01*
Y97999D01*
X299998Y98999D01*
X300997Y99999D01*
X301997D01*
X307995Y96000D02*
X305996D01*
X304996Y97000D01*
Y98999D01*
X305996Y99999D01*
X307995D01*
X308995Y98999D01*
Y97999D01*
X304996D01*
X310994Y96000D02*
X313993D01*
X314993Y97000D01*
X313993Y97999D01*
X311994D01*
X310994Y98999D01*
X311994Y99999D01*
X314993D01*
X316992Y96000D02*
X319991D01*
X320991Y97000D01*
X319991Y97999D01*
X317992D01*
X316992Y98999D01*
X317992Y99999D01*
X320991D01*
X322990Y98999D02*
X326989D01*
X328988Y96000D02*
X330988D01*
X329988D01*
Y99999D01*
X328988D01*
X333987Y96000D02*
Y99999D01*
X336986D01*
X337985Y98999D01*
Y96000D01*
X345983D02*
Y101998D01*
X349982Y96000D01*
Y101998D01*
X351981Y99999D02*
Y97000D01*
X352981Y96000D01*
X355980D01*
Y99999D01*
X358979Y100998D02*
Y99999D01*
X357979D01*
X359978D01*
X358979D01*
Y97000D01*
X359978Y96000D01*
X-13900Y96900D02*
Y102898D01*
X-10901D01*
X-9901Y101898D01*
Y99899D01*
X-10901Y98899D01*
X-13900D01*
X-7902Y100899D02*
Y96900D01*
Y98899D01*
X-6902Y99899D01*
X-5903Y100899D01*
X-4903D01*
X1095Y96900D02*
X-904D01*
X-1904Y97900D01*
Y99899D01*
X-904Y100899D01*
X1095D01*
X2095Y99899D01*
Y98899D01*
X-1904D01*
X4094Y96900D02*
X7093D01*
X8093Y97900D01*
X7093Y98899D01*
X5094D01*
X4094Y99899D01*
X5094Y100899D01*
X8093D01*
X10092Y96900D02*
X13091D01*
X14091Y97900D01*
X13091Y98899D01*
X11092D01*
X10092Y99899D01*
X11092Y100899D01*
X14091D01*
X16090Y99899D02*
X20089D01*
X22088Y96900D02*
X24088D01*
X23088D01*
Y100899D01*
X22088D01*
X27087Y96900D02*
Y100899D01*
X30086D01*
X31085Y99899D01*
Y96900D01*
X39083D02*
Y102898D01*
X43082Y96900D01*
Y102898D01*
X45081Y100899D02*
Y97900D01*
X46081Y96900D01*
X49080D01*
Y100899D01*
X52079Y101898D02*
Y100899D01*
X51079D01*
X53078D01*
X52079D01*
Y97900D01*
X53078Y96900D01*
D51*
X498250Y42250D02*
Y48700D01*
X509750D01*
Y42250D02*
Y48700D01*
X498250Y42250D02*
X509750D01*
X479294Y129550D02*
X485744D01*
X479294D02*
Y141050D01*
X485744D01*
Y129550D02*
Y141050D01*
X248250Y42250D02*
Y48700D01*
X259750D01*
Y42250D02*
Y48700D01*
X248250Y42250D02*
X259750D01*
X298250D02*
Y48700D01*
X309750D01*
Y42250D02*
Y48700D01*
X298250Y42250D02*
X309750D01*
X348250D02*
Y48700D01*
X359750D01*
Y42250D02*
Y48700D01*
X348250Y42250D02*
X359750D01*
X398250D02*
Y48700D01*
X409750D01*
Y42250D02*
Y48700D01*
X398250Y42250D02*
X409750D01*
X448250D02*
Y48700D01*
X459750D01*
Y42250D02*
Y48700D01*
X448250Y42250D02*
X459750D01*
X148250D02*
Y48700D01*
X159750D01*
Y42250D02*
Y48700D01*
X148250Y42250D02*
X159750D01*
X157650Y129550D02*
Y141050D01*
Y129550D02*
X164100D01*
Y141050D01*
X157650D02*
X164100D01*
X207650Y129550D02*
Y141050D01*
Y129550D02*
X214100D01*
Y141050D01*
X207650D02*
X214100D01*
X206850Y129550D02*
Y141050D01*
X200400D02*
X206850D01*
X200400Y129550D02*
Y141050D01*
Y129550D02*
X206850D01*
X507650D02*
Y141050D01*
Y129550D02*
X514100D01*
Y141050D01*
X507650D02*
X514100D01*
X506850Y129550D02*
Y141050D01*
X500400D02*
X506850D01*
X500400Y129550D02*
Y141050D01*
Y129550D02*
X506850D01*
X246850D02*
Y141050D01*
X240400D02*
X246850D01*
X240400Y129550D02*
Y141050D01*
Y129550D02*
X246850D01*
X247650D02*
Y141050D01*
Y129550D02*
X254100D01*
Y141050D01*
X247650D02*
X254100D01*
X296850Y129550D02*
Y141050D01*
X290400D02*
X296850D01*
X290400Y129550D02*
Y141050D01*
Y129550D02*
X296850D01*
X297650D02*
Y141050D01*
Y129550D02*
X304100D01*
Y141050D01*
X297650D02*
X304100D01*
X366850Y129550D02*
Y141050D01*
X360400D02*
X366850D01*
X360400Y129550D02*
Y141050D01*
Y129550D02*
X366850D01*
X367650D02*
Y141050D01*
Y129550D02*
X374100D01*
Y141050D01*
X367650D02*
X374100D01*
X416850Y129550D02*
Y141050D01*
X410400D02*
X416850D01*
X410400Y129550D02*
Y141050D01*
Y129550D02*
X416850D01*
X417650D02*
Y141050D01*
Y129550D02*
X424100D01*
Y141050D01*
X417650D02*
X424100D01*
X456850Y129550D02*
Y141050D01*
X450400D02*
X456850D01*
X450400Y129550D02*
Y141050D01*
Y129550D02*
X456850D01*
X457650D02*
Y141050D01*
Y129550D02*
X464100D01*
Y141050D01*
X457650D02*
X464100D01*
X122122Y129550D02*
X128572D01*
X122122D02*
Y141050D01*
X128572D01*
Y129550D02*
Y141050D01*
X172756Y129550D02*
X179206D01*
X172756D02*
Y141050D01*
X179206D01*
Y129550D02*
Y141050D01*
X215620Y129550D02*
X222070D01*
X215620D02*
Y141050D01*
X222070D01*
Y129550D02*
Y141050D01*
X263049Y129550D02*
X269499D01*
X263049D02*
Y141050D01*
X269499D01*
Y129550D02*
Y141050D01*
X332302Y129550D02*
X338752D01*
X332302D02*
Y141050D01*
X338752D01*
Y129550D02*
Y141050D01*
X383284Y129550D02*
X389734D01*
X383284D02*
Y141050D01*
X389734D01*
Y129550D02*
Y141050D01*
X424948Y129550D02*
X431398D01*
X424948D02*
Y141050D01*
X431398D01*
Y129550D02*
Y141050D01*
X472116Y129550D02*
X478566D01*
X472116D02*
Y141050D01*
X478566D01*
Y129550D02*
Y141050D01*
X129300Y129550D02*
X135750D01*
X129300D02*
Y141050D01*
X135750D01*
Y129550D02*
Y141050D01*
X180245Y129550D02*
X186695D01*
X180245D02*
Y141050D01*
X186695D01*
Y129550D02*
Y141050D01*
X222608Y129550D02*
X229059D01*
X222608D02*
Y141050D01*
X229059D01*
Y129550D02*
Y141050D01*
X270288Y129550D02*
X276738D01*
X270288D02*
Y141050D01*
X276738D01*
Y129550D02*
Y141050D01*
X339541Y129550D02*
X345991D01*
X339541D02*
Y141050D01*
X345991D01*
Y129550D02*
Y141050D01*
X390272Y129550D02*
X396722D01*
X390272D02*
Y141050D01*
X396722D01*
Y129550D02*
Y141050D01*
X431955Y129550D02*
X438405D01*
X431955D02*
Y141050D01*
X438405D01*
Y129550D02*
Y141050D01*
X198250Y42250D02*
Y48700D01*
X209750D01*
Y42250D02*
Y48700D01*
X198250Y42250D02*
X209750D01*
X156850Y129550D02*
Y141050D01*
X150400D02*
X156850D01*
X150400Y129550D02*
Y141050D01*
Y129550D02*
X156850D01*
X-20223Y-25867D02*
X-19223Y-24867D01*
X-17224D01*
X-16224Y-25867D01*
Y-29865D01*
X-17224Y-30865D01*
X-19223D01*
X-20223Y-29865D01*
Y-25867D01*
X-14225Y-30865D02*
Y-29865D01*
X-13225D01*
Y-30865D01*
X-14225D01*
X-9226Y-25867D02*
X-8227Y-24867D01*
X-6227D01*
X-5227Y-25867D01*
Y-29865D01*
X-6227Y-30865D01*
X-8227D01*
X-9226Y-29865D01*
Y-25867D01*
X-3228Y-29865D02*
X-2228Y-30865D01*
X-229D01*
X771Y-29865D01*
Y-25867D01*
X-229Y-24867D01*
X-2228D01*
X-3228Y-25867D01*
Y-26866D01*
X-2228Y-27866D01*
X771D01*
X2770Y-30865D02*
X4769D01*
X3770D01*
Y-26866D01*
X2770D01*
X7768Y-30865D02*
Y-26866D01*
X10767D01*
X11767Y-27866D01*
Y-30865D01*
X-107894Y41109D02*
X-106895Y42109D01*
X-104895D01*
X-103896Y41109D01*
Y37111D01*
X-104895Y36111D01*
X-106895D01*
X-107894Y37111D01*
Y41109D01*
X-101896Y36111D02*
Y37111D01*
X-100897D01*
Y36111D01*
X-101896D01*
X-96898Y42109D02*
X-92899D01*
Y41109D01*
X-96898Y37111D01*
Y36111D01*
X-90900Y41109D02*
X-89900Y42109D01*
X-87901D01*
X-86901Y41109D01*
Y37111D01*
X-87901Y36111D01*
X-89900D01*
X-90900Y37111D01*
Y41109D01*
X-76904Y36111D02*
X-78904Y38110D01*
Y40110D01*
X-76904Y42109D01*
X-73905Y36111D02*
X-71906D01*
X-72906D01*
Y40110D01*
X-73905D01*
X-68907Y36111D02*
Y40110D01*
X-65908D01*
X-64908Y39110D01*
Y36111D01*
X-62909D02*
X-60910Y38110D01*
Y40110D01*
X-62909Y42109D01*
X195104Y-87455D02*
X193105Y-88455D01*
X191106Y-90454D01*
Y-92454D01*
X192105Y-93453D01*
X194105D01*
X195104Y-92454D01*
Y-91454D01*
X194105Y-90454D01*
X191106D01*
X197104Y-93453D02*
Y-92454D01*
X198103D01*
Y-93453D01*
X197104D01*
X206101Y-87455D02*
X204101Y-88455D01*
X202102Y-90454D01*
Y-92454D01*
X203102Y-93453D01*
X205101D01*
X206101Y-92454D01*
Y-91454D01*
X205101Y-90454D01*
X202102D01*
X208100Y-88455D02*
X209100Y-87455D01*
X211099D01*
X212099Y-88455D01*
Y-89455D01*
X211099Y-90454D01*
X212099Y-91454D01*
Y-92454D01*
X211099Y-93453D01*
X209100D01*
X208100Y-92454D01*
Y-91454D01*
X209100Y-90454D01*
X208100Y-89455D01*
Y-88455D01*
X209100Y-90454D02*
X211099D01*
X222096Y-93453D02*
X220096Y-91454D01*
Y-89455D01*
X222096Y-87455D01*
X225095Y-93453D02*
X227094D01*
X226094D01*
Y-89455D01*
X225095D01*
X230093Y-93453D02*
Y-89455D01*
X233092D01*
X234092Y-90454D01*
Y-93453D01*
X236091D02*
X238090Y-91454D01*
Y-89455D01*
X236091Y-87455D01*
X217406Y-78169D02*
X215407Y-79168D01*
X213408Y-81168D01*
Y-83167D01*
X214407Y-84167D01*
X216407D01*
X217406Y-83167D01*
Y-82168D01*
X216407Y-81168D01*
X213408D01*
X219406Y-84167D02*
Y-83167D01*
X220405D01*
Y-84167D01*
X219406D01*
X228403D02*
X224404D01*
X228403Y-80168D01*
Y-79168D01*
X227403Y-78169D01*
X225404D01*
X224404Y-79168D01*
X230402D02*
X231402Y-78169D01*
X233401D01*
X234401Y-79168D01*
Y-80168D01*
X233401Y-81168D01*
X232401D01*
X233401D01*
X234401Y-82168D01*
Y-83167D01*
X233401Y-84167D01*
X231402D01*
X230402Y-83167D01*
X244398Y-84167D02*
X242398Y-82168D01*
Y-80168D01*
X244398Y-78169D01*
X247397Y-84167D02*
X249396D01*
X248396D01*
Y-80168D01*
X247397D01*
X252395Y-84167D02*
Y-80168D01*
X255394D01*
X256394Y-81168D01*
Y-84167D01*
X258393D02*
X260392Y-82168D01*
Y-80168D01*
X258393Y-78169D01*
X-202956Y103408D02*
X-203956Y104407D01*
Y106407D01*
X-202956Y107406D01*
X-198957D01*
X-197958Y106407D01*
Y104407D01*
X-198957Y103408D01*
X-202956D01*
X-197958Y109406D02*
X-198957D01*
Y110405D01*
X-197958D01*
Y109406D01*
Y118403D02*
Y114404D01*
X-201956Y118403D01*
X-202956D01*
X-203956Y117403D01*
Y115404D01*
X-202956Y114404D01*
Y120402D02*
X-203956Y121402D01*
Y123401D01*
X-202956Y124401D01*
X-201956D01*
X-200957Y123401D01*
Y122401D01*
Y123401D01*
X-199957Y124401D01*
X-198957D01*
X-197958Y123401D01*
Y121402D01*
X-198957Y120402D01*
X-197958Y134398D02*
X-199957Y132398D01*
X-201956D01*
X-203956Y134398D01*
X-197958Y137397D02*
Y139396D01*
Y138396D01*
X-201956D01*
Y137397D01*
X-197958Y142395D02*
X-201956D01*
Y145394D01*
X-200957Y146394D01*
X-197958D01*
Y148393D02*
X-199957Y150392D01*
X-201956D01*
X-203956Y148393D01*
X-120394Y155358D02*
X-119395Y156357D01*
X-117395D01*
X-116396Y155358D01*
Y151359D01*
X-117395Y150359D01*
X-119395D01*
X-120394Y151359D01*
Y155358D01*
X-114396Y150359D02*
Y151359D01*
X-113397D01*
Y150359D01*
X-114396D01*
X-106399D02*
Y156357D01*
X-109398Y153358D01*
X-105399D01*
X-99401Y156357D02*
X-103400D01*
Y153358D01*
X-101401Y154358D01*
X-100401D01*
X-99401Y153358D01*
Y151359D01*
X-100401Y150359D01*
X-102400D01*
X-103400Y151359D01*
X-89404Y150359D02*
X-91404Y152359D01*
Y154358D01*
X-89404Y156357D01*
X-86405Y150359D02*
X-84406D01*
X-85406D01*
Y154358D01*
X-86405D01*
X-81407Y150359D02*
Y154358D01*
X-78408D01*
X-77408Y153358D01*
Y150359D01*
X-75409D02*
X-73410Y152359D01*
Y154358D01*
X-75409Y156357D01*
X49125Y163000D02*
Y165249D01*
X48000Y164125D01*
X49499D01*
X50249Y164874D02*
X50624Y165249D01*
X51374D01*
X51749Y164874D01*
Y163375D01*
X51374Y163000D01*
X50624D01*
X50249Y163375D01*
Y164874D01*
X54748Y163000D02*
Y165249D01*
X55872D01*
X56247Y164874D01*
Y164125D01*
X55872Y163750D01*
X54748D01*
X58122Y165249D02*
X57372D01*
X56997Y164874D01*
Y163375D01*
X57372Y163000D01*
X58122D01*
X58497Y163375D01*
Y164874D01*
X58122Y165249D01*
X60746Y164874D02*
X60371Y165249D01*
X59621D01*
X59246Y164874D01*
Y164499D01*
X59621Y164125D01*
X60371D01*
X60746Y163750D01*
Y163375D01*
X60371Y163000D01*
X59621D01*
X59246Y163375D01*
X61496Y163000D02*
X62995Y164499D01*
X63745Y164874D02*
X64120Y165249D01*
X64869D01*
X65244Y164874D01*
Y164499D01*
X64869Y164125D01*
X65244Y163750D01*
Y163375D01*
X64869Y163000D01*
X64120D01*
X63745Y163375D01*
Y163750D01*
X64120Y164125D01*
X63745Y164499D01*
Y164874D01*
X64120Y164125D02*
X64869D01*
X65994Y164874D02*
X66369Y165249D01*
X67119D01*
X67494Y164874D01*
Y163375D01*
X67119Y163000D01*
X66369D01*
X65994Y163375D01*
Y164874D01*
X71992D02*
X71617Y165249D01*
X70868D01*
X70493Y164874D01*
Y163375D01*
X70868Y163000D01*
X71617D01*
X71992Y163375D01*
X73867Y165249D02*
X73117D01*
X72742Y164874D01*
Y163375D01*
X73117Y163000D01*
X73867D01*
X74242Y163375D01*
Y164874D01*
X73867Y165249D01*
X74991Y163000D02*
Y165249D01*
X76491Y163000D01*
Y165249D01*
X77241Y163000D02*
Y165249D01*
X78740Y163000D01*
Y165249D01*
X80989D02*
X79490D01*
Y163000D01*
X80989D01*
X79490Y164125D02*
X80239D01*
X83239Y164874D02*
X82864Y165249D01*
X82114D01*
X81739Y164874D01*
Y163375D01*
X82114Y163000D01*
X82864D01*
X83239Y163375D01*
X83988Y165249D02*
X85488D01*
X84738D01*
Y163000D01*
X86238Y165249D02*
X86987D01*
X86612D01*
Y163000D01*
X86238D01*
X86987D01*
X89237Y165249D02*
X88487D01*
X88112Y164874D01*
Y163375D01*
X88487Y163000D01*
X89237D01*
X89612Y163375D01*
Y164874D01*
X89237Y165249D01*
X90361Y163000D02*
Y165249D01*
X91861Y163000D01*
Y165249D01*
X92985Y162625D02*
X93360Y163000D01*
Y163375D01*
X92985D01*
Y163000D01*
X93360D01*
X92985Y162625D01*
X92611Y162250D01*
X98609Y165249D02*
X97109D01*
Y163000D01*
X98609D01*
X97109Y164125D02*
X97859D01*
X99358Y165249D02*
Y163000D01*
X100483D01*
X100858Y163375D01*
Y164874D01*
X100483Y165249D01*
X99358D01*
X103107Y164874D02*
X102732Y165249D01*
X101982D01*
X101608Y164874D01*
Y163375D01*
X101982Y163000D01*
X102732D01*
X103107Y163375D01*
Y164125D01*
X102357D01*
X105356Y165249D02*
X103857D01*
Y163000D01*
X105356D01*
X103857Y164125D02*
X104607D01*
X108355Y165249D02*
Y163000D01*
X109480D01*
X109855Y163375D01*
Y163750D01*
X109480Y164125D01*
X108355D01*
X109480D01*
X109855Y164499D01*
Y164874D01*
X109480Y165249D01*
X108355D01*
X111729D02*
X110980D01*
X110605Y164874D01*
Y163375D01*
X110980Y163000D01*
X111729D01*
X112104Y163375D01*
Y164874D01*
X111729Y165249D01*
X112854Y163000D02*
Y164499D01*
X113604Y165249D01*
X114354Y164499D01*
Y163000D01*
Y164125D01*
X112854D01*
X115103Y163000D02*
Y165249D01*
X116228D01*
X116603Y164874D01*
Y164125D01*
X116228Y163750D01*
X115103D01*
X115853D02*
X116603Y163000D01*
X117352Y165249D02*
Y163000D01*
X118477D01*
X118852Y163375D01*
Y164874D01*
X118477Y165249D01*
X117352D01*
D54*
X99900Y12443D02*
X99401Y12942D01*
Y13942D01*
X99900Y14442D01*
X101900D01*
X102400Y13942D01*
Y12942D01*
X101900Y12443D01*
X99900D01*
X102400Y15441D02*
X101900D01*
Y15941D01*
X102400D01*
Y15441D01*
X99401Y19940D02*
Y17941D01*
X100900D01*
X100400Y18940D01*
Y19440D01*
X100900Y19940D01*
X101900D01*
X102400Y19440D01*
Y18441D01*
X101900Y17941D01*
X102400Y20940D02*
Y21939D01*
Y21440D01*
X99401D01*
X99900Y20940D01*
X102400Y27438D02*
X101400Y26438D01*
X100400D01*
X99401Y27438D01*
X102400Y28937D02*
Y29937D01*
Y29437D01*
X100400D01*
Y28937D01*
X102400Y31436D02*
X100400D01*
Y32936D01*
X100900Y33436D01*
X102400D01*
Y34435D02*
X101400Y35435D01*
X100400D01*
X99401Y34435D01*
D57*
X118500Y150500D02*
Y175500D01*
X526500Y150500D02*
Y175500D01*
M02*
