G04 Layer_Color=32768*
%FSLAX25Y25*%
%MOIN*%
G70*
G01*
G75*
%ADD22C,0.01000*%
G36*
X526500Y175500D02*
X526500Y175500D01*
Y150500D01*
X118500D01*
Y175500D01*
X118500Y175500D01*
X120000Y177000D01*
X525000D01*
X526500Y175500D01*
D02*
G37*
D22*
X156998Y138900D02*
Y144898D01*
X159997D01*
X160996Y143899D01*
Y141899D01*
X159997Y140900D01*
X156998D01*
X162996Y138900D02*
X164995D01*
X163995D01*
Y144898D01*
X162996D01*
X168994Y142899D02*
X170993D01*
X171993Y141899D01*
Y138900D01*
X168994D01*
X167994Y139900D01*
X168994Y140900D01*
X171993D01*
X174992Y143899D02*
Y142899D01*
X173992D01*
X175991D01*
X174992D01*
Y139900D01*
X175991Y138900D01*
X181990D02*
X179990D01*
X178991Y139900D01*
Y141899D01*
X179990Y142899D01*
X181990D01*
X182989Y141899D01*
Y140900D01*
X178991D01*
X191986Y143899D02*
Y142899D01*
X190987D01*
X192986D01*
X191986D01*
Y139900D01*
X192986Y138900D01*
X195985Y144898D02*
Y138900D01*
Y141899D01*
X196985Y142899D01*
X198984D01*
X199984Y141899D01*
Y138900D01*
X201983D02*
X203982D01*
X202983D01*
Y142899D01*
X201983D01*
X206981Y138900D02*
X209981D01*
X210980Y139900D01*
X209981Y140900D01*
X207981D01*
X206981Y141899D01*
X207981Y142899D01*
X210980D01*
X218978D02*
Y138900D01*
Y140900D01*
X219977Y141899D01*
X220977Y142899D01*
X221977D01*
X227975Y138900D02*
X225975D01*
X224976Y139900D01*
Y141899D01*
X225975Y142899D01*
X227975D01*
X228974Y141899D01*
Y140900D01*
X224976D01*
X232973Y136901D02*
X233973D01*
X234973Y137901D01*
Y142899D01*
X231973D01*
X230974Y141899D01*
Y139900D01*
X231973Y138900D01*
X234973D01*
X236972D02*
X238971D01*
X237971D01*
Y142899D01*
X236972D01*
X242970Y138900D02*
X244969D01*
X245969Y139900D01*
Y141899D01*
X244969Y142899D01*
X242970D01*
X241970Y141899D01*
Y139900D01*
X242970Y138900D01*
X247968D02*
Y142899D01*
X250967D01*
X251967Y141899D01*
Y138900D01*
X260964D02*
X262963D01*
X263963Y139900D01*
Y141899D01*
X262963Y142899D01*
X260964D01*
X259964Y141899D01*
Y139900D01*
X260964Y138900D01*
X265962D02*
Y142899D01*
X268962D01*
X269961Y141899D01*
Y138900D01*
X277959Y144898D02*
Y138900D01*
X280958D01*
X281957Y139900D01*
Y140900D01*
Y141899D01*
X280958Y142899D01*
X277959D01*
X284956Y138900D02*
X286956D01*
X287955Y139900D01*
Y141899D01*
X286956Y142899D01*
X284956D01*
X283957Y141899D01*
Y139900D01*
X284956Y138900D01*
X290954Y143899D02*
Y142899D01*
X289955D01*
X291954D01*
X290954D01*
Y139900D01*
X291954Y138900D01*
X294953Y144898D02*
Y138900D01*
Y141899D01*
X295953Y142899D01*
X297952D01*
X298952Y141899D01*
Y138900D01*
X306949D02*
X309948D01*
X310948Y139900D01*
X309948Y140900D01*
X307949D01*
X306949Y141899D01*
X307949Y142899D01*
X310948D01*
X312947Y138900D02*
X314947D01*
X313947D01*
Y142899D01*
X312947D01*
X321944Y144898D02*
Y138900D01*
X318945D01*
X317946Y139900D01*
Y141899D01*
X318945Y142899D01*
X321944D01*
X326943Y138900D02*
X324943D01*
X323944Y139900D01*
Y141899D01*
X324943Y142899D01*
X326943D01*
X327942Y141899D01*
Y140900D01*
X323944D01*
X329942Y138900D02*
X332941D01*
X333940Y139900D01*
X332941Y140900D01*
X330941D01*
X329942Y141899D01*
X330941Y142899D01*
X333940D01*
X342937Y138900D02*
X344937D01*
X345937Y139900D01*
Y141899D01*
X344937Y142899D01*
X342937D01*
X341938Y141899D01*
Y139900D01*
X342937Y138900D01*
X348936D02*
Y143899D01*
Y141899D01*
X347936D01*
X349935D01*
X348936D01*
Y143899D01*
X349935Y144898D01*
X359932Y143899D02*
Y142899D01*
X358932D01*
X360932D01*
X359932D01*
Y139900D01*
X360932Y138900D01*
X363931Y144898D02*
Y138900D01*
Y141899D01*
X364930Y142899D01*
X366930D01*
X367929Y141899D01*
Y138900D01*
X372928D02*
X370929D01*
X369929Y139900D01*
Y141899D01*
X370929Y142899D01*
X372928D01*
X373927Y141899D01*
Y140900D01*
X369929D01*
X381925Y144898D02*
Y138900D01*
X384924D01*
X385924Y139900D01*
Y140900D01*
Y141899D01*
X384924Y142899D01*
X381925D01*
X388923Y138900D02*
X390922D01*
X391922Y139900D01*
Y141899D01*
X390922Y142899D01*
X388923D01*
X387923Y141899D01*
Y139900D01*
X388923Y138900D01*
X394921Y142899D02*
X396920D01*
X397920Y141899D01*
Y138900D01*
X394921D01*
X393921Y139900D01*
X394921Y140900D01*
X397920D01*
X399919Y142899D02*
Y138900D01*
Y140900D01*
X400919Y141899D01*
X401918Y142899D01*
X402918D01*
X409916Y144898D02*
Y138900D01*
X406917D01*
X405917Y139900D01*
Y141899D01*
X406917Y142899D01*
X409916D01*
X417913D02*
Y139900D01*
X418913Y138900D01*
X419913Y139900D01*
X420912Y138900D01*
X421912Y139900D01*
Y142899D01*
X423911Y138900D02*
X425911D01*
X424911D01*
Y142899D01*
X423911D01*
X429909Y143899D02*
Y142899D01*
X428910D01*
X430909D01*
X429909D01*
Y139900D01*
X430909Y138900D01*
X433908Y144898D02*
Y138900D01*
Y141899D01*
X434908Y142899D01*
X436907D01*
X437907Y141899D01*
Y138900D01*
X449903Y143899D02*
X448903Y144898D01*
X446904D01*
X445904Y143899D01*
Y139900D01*
X446904Y138900D01*
X448903D01*
X449903Y139900D01*
Y141899D01*
X447904D01*
X452902Y138900D02*
X454901D01*
X455901Y139900D01*
Y141899D01*
X454901Y142899D01*
X452902D01*
X451902Y141899D01*
Y139900D01*
X452902Y138900D01*
X457900D02*
X459900D01*
X458900D01*
Y144898D01*
X457900D01*
X466897D02*
Y138900D01*
X463898D01*
X462899Y139900D01*
Y141899D01*
X463898Y142899D01*
X466897D01*
M02*
