G04 Layer_Physical_Order=5*
G04 Layer_Color=128*
%FSLAX25Y25*%
%MOIN*%
G70*
G01*
G75*
%ADD22C,0.01000*%
%ADD29C,0.04000*%
%ADD30C,0.06000*%
%ADD31C,0.05000*%
G04:AMPARAMS|DCode=32|XSize=214mil|YSize=214mil|CornerRadius=0mil|HoleSize=0mil|Usage=FLASHONLY|Rotation=0.000|XOffset=0mil|YOffset=0mil|HoleType=Round|Shape=Relief|Width=10mil|Gap=10mil|Entries=4|*
%AMTHD32*
7,0,0,0.21400,0.19400,0.01000,45*
%
%ADD32THD32*%
%ADD33C,0.07800*%
G04:AMPARAMS|DCode=34|XSize=156.063mil|YSize=156.063mil|CornerRadius=0mil|HoleSize=0mil|Usage=FLASHONLY|Rotation=0.000|XOffset=0mil|YOffset=0mil|HoleType=Round|Shape=Relief|Width=10mil|Gap=10mil|Entries=4|*
%AMTHD34*
7,0,0,0.15606,0.13606,0.01000,45*
%
%ADD34THD34*%
%ADD35C,0.06500*%
%ADD36C,0.05500*%
D22*
X255149Y234126D02*
X254212Y235063D01*
X252337D01*
X251400Y234126D01*
Y230377D01*
X252337Y229440D01*
X254212D01*
X255149Y230377D01*
Y232252D01*
X253274D01*
X257023Y229440D02*
Y235063D01*
X260772Y229440D01*
Y235063D01*
X262646D02*
Y229440D01*
X265458D01*
X266395Y230377D01*
Y234126D01*
X265458Y235063D01*
X262646D01*
X275767Y229440D02*
X273893Y231314D01*
Y233189D01*
X275767Y235063D01*
X278579Y229440D02*
Y235063D01*
X281390D01*
X282328Y234126D01*
Y232252D01*
X281390Y231314D01*
X278579D01*
X284202Y229440D02*
X286076D01*
X285139D01*
Y235063D01*
X284202D01*
X289825Y233189D02*
X291699D01*
X292637Y232252D01*
Y229440D01*
X289825D01*
X288888Y230377D01*
X289825Y231314D01*
X292637D01*
X294511Y229440D02*
Y233189D01*
X297323D01*
X298260Y232252D01*
Y229440D01*
X302946D02*
X301071D01*
X300134Y230377D01*
Y232252D01*
X301071Y233189D01*
X302946D01*
X303883Y232252D01*
Y231314D01*
X300134D01*
X305757Y229440D02*
X307632Y231314D01*
Y233189D01*
X305757Y235063D01*
X481509Y-49459D02*
X480572Y-48522D01*
X478697D01*
X477760Y-49459D01*
Y-53208D01*
X478697Y-54145D01*
X480572D01*
X481509Y-53208D01*
Y-51333D01*
X479635D01*
X483384Y-54145D02*
Y-48522D01*
X487132Y-54145D01*
Y-48522D01*
X489007D02*
Y-54145D01*
X491818D01*
X492756Y-53208D01*
Y-49459D01*
X491818Y-48522D01*
X489007D01*
X502127Y-54145D02*
X500253Y-52271D01*
Y-50396D01*
X502127Y-48522D01*
X504939Y-54145D02*
Y-48522D01*
X507751D01*
X508688Y-49459D01*
Y-51333D01*
X507751Y-52271D01*
X504939D01*
X510562Y-54145D02*
X512437D01*
X511499D01*
Y-48522D01*
X510562D01*
X516185Y-50396D02*
X518060D01*
X518997Y-51333D01*
Y-54145D01*
X516185D01*
X515248Y-53208D01*
X516185Y-52271D01*
X518997D01*
X520871Y-54145D02*
Y-50396D01*
X523683D01*
X524620Y-51333D01*
Y-54145D01*
X529306D02*
X527432D01*
X526495Y-53208D01*
Y-51333D01*
X527432Y-50396D01*
X529306D01*
X530243Y-51333D01*
Y-52271D01*
X526495D01*
X532118Y-54145D02*
X533992Y-52271D01*
Y-50396D01*
X532118Y-48522D01*
D29*
X-117636Y1772D02*
X-115864Y0D01*
X-117636Y1772D02*
Y114339D01*
X-114975Y117000D01*
X-49327D01*
X-47940Y118387D01*
Y138270D01*
X-46240Y139969D01*
X87969D01*
X88000Y140000D01*
X118500D01*
Y175500D01*
X120000Y177000D01*
X525000D01*
X526500Y175500D01*
Y140000D02*
Y175500D01*
Y140000D02*
X550000D01*
X550000Y140000D02*
X550000Y140000D01*
X550000Y0D02*
Y140000D01*
X-115864Y0D02*
X550000D01*
D30*
X427962Y46928D02*
D03*
X420992Y52219D02*
D03*
X370992D02*
D03*
X377962Y46928D02*
D03*
X328000Y47000D02*
D03*
X321030Y52292D02*
D03*
X271030Y52257D02*
D03*
X278000Y46965D02*
D03*
X227962Y46928D02*
D03*
X220992Y52219D02*
D03*
X171030Y52257D02*
D03*
X178000Y46965D02*
D03*
X127962Y46928D02*
D03*
X120992Y52219D02*
D03*
X471030Y52257D02*
D03*
X478000Y46965D02*
D03*
X480874Y37200D02*
D03*
Y7200D02*
D03*
X430837Y37162D02*
D03*
Y7162D02*
D03*
X380837Y37162D02*
D03*
Y7162D02*
D03*
X330874Y37234D02*
D03*
Y7234D02*
D03*
X280874Y37200D02*
D03*
Y7200D02*
D03*
X230837Y7162D02*
D03*
X180837D02*
D03*
X230837Y37162D02*
D03*
X180837D02*
D03*
X130837D02*
D03*
X119266Y38787D02*
D03*
D31*
X420962Y46928D02*
D03*
X370962D02*
D03*
X321000Y47000D02*
D03*
X271000Y46965D02*
D03*
X220962Y46928D02*
D03*
X171000Y46965D02*
D03*
X120962Y46928D02*
D03*
X144500Y50600D02*
D03*
X194500D02*
D03*
X244500D02*
D03*
X294500Y50635D02*
D03*
X341000D02*
D03*
X344500D02*
D03*
X394500Y50600D02*
D03*
X441000Y50635D02*
D03*
X444500D02*
D03*
X491000D02*
D03*
X494500D02*
D03*
X141000Y50600D02*
D03*
X291000Y50635D02*
D03*
X191000Y50600D02*
D03*
X241000D02*
D03*
X391000D02*
D03*
X471000Y46965D02*
D03*
D32*
X-91706Y91055D02*
D03*
X324500Y117000D02*
D03*
X20000D02*
D03*
X536500D02*
D03*
D33*
X-98985Y58232D02*
D03*
X-108985D02*
D03*
X-98985Y47338D02*
D03*
X-108985D02*
D03*
D34*
X-17756Y28158D02*
D03*
X-104256D02*
D03*
D35*
X-36006D02*
D03*
X-83506Y23158D02*
D03*
X-78506D02*
D03*
X-73506D02*
D03*
X-68506D02*
D03*
X-63506D02*
D03*
X-58506D02*
D03*
X-53506D02*
D03*
X-48506D02*
D03*
X-43506D02*
D03*
X-38506D02*
D03*
X-41006Y28158D02*
D03*
X-46006D02*
D03*
X-51006D02*
D03*
X-56006D02*
D03*
X-61006D02*
D03*
X-66006D02*
D03*
X-71006D02*
D03*
X-76006D02*
D03*
X-81006D02*
D03*
X-86006D02*
D03*
D36*
X291000Y147400D02*
D03*
X241000D02*
D03*
X201000D02*
D03*
X151000D02*
D03*
X510900Y126700D02*
D03*
X501000Y147400D02*
D03*
X503600Y126700D02*
D03*
X451000Y147400D02*
D03*
X460900Y126700D02*
D03*
X363600D02*
D03*
X370900D02*
D03*
X361000Y147400D02*
D03*
X372000Y119068D02*
D03*
X491000Y143900D02*
D03*
X441000D02*
D03*
X401000D02*
D03*
X351000D02*
D03*
X281000D02*
D03*
X231000D02*
D03*
X191000D02*
D03*
X141000D02*
D03*
X413600Y126700D02*
D03*
X420900D02*
D03*
X411000Y147400D02*
D03*
X292000Y119068D02*
D03*
X410000Y119026D02*
D03*
X453600Y143900D02*
D03*
X413600D02*
D03*
X363600D02*
D03*
X293600D02*
D03*
X243600D02*
D03*
X503600D02*
D03*
X203600D02*
D03*
X153600D02*
D03*
X501200Y51100D02*
D03*
X451200D02*
D03*
X401200D02*
D03*
X177500Y143600D02*
D03*
X217500D02*
D03*
X267500D02*
D03*
X337500D02*
D03*
X387500D02*
D03*
X427500D02*
D03*
X477500D02*
D03*
X453041Y119068D02*
D03*
X503041D02*
D03*
X362000D02*
D03*
X170116Y147300D02*
D03*
X260116D02*
D03*
X380116D02*
D03*
X470116D02*
D03*
X175959Y119068D02*
D03*
X383800D02*
D03*
X464000D02*
D03*
X472500D02*
D03*
X522000Y70000D02*
D03*
X127500Y143600D02*
D03*
X351162Y51062D02*
D03*
X267147Y121065D02*
D03*
X202830Y117803D02*
D03*
X152109Y116907D02*
D03*
X164901D02*
D03*
X241566Y116595D02*
D03*
X251574Y116692D02*
D03*
X151200Y51100D02*
D03*
X201162Y51062D02*
D03*
X251200Y51100D02*
D03*
X301200Y51135D02*
D03*
X322757Y66139D02*
D03*
M02*
