G04 Layer_Color=8388736*
%FSLAX25Y25*%
%MOIN*%
G70*
G01*
G75*
%ADD22C,0.01000*%
%ADD58R,0.02333X0.06903*%
D22*
X154400Y-11700D02*
Y-5702D01*
X158399Y-11700D01*
Y-5702D01*
X161398Y-11700D02*
X163397D01*
X164397Y-10700D01*
Y-8701D01*
X163397Y-7701D01*
X161398D01*
X160398Y-8701D01*
Y-10700D01*
X161398Y-11700D01*
X173394Y-6702D02*
Y-7701D01*
X172394D01*
X174393D01*
X173394D01*
Y-10700D01*
X174393Y-11700D01*
X177393D02*
X179392D01*
X178392D01*
Y-7701D01*
X177393D01*
X182391Y-11700D02*
Y-7701D01*
X185390D01*
X186390Y-8701D01*
Y-11700D01*
X188389D02*
Y-7701D01*
X191388D01*
X192388Y-8701D01*
Y-11700D01*
X194387D02*
X196386D01*
X195387D01*
Y-7701D01*
X194387D01*
X199385Y-11700D02*
Y-7701D01*
X202384D01*
X203384Y-8701D01*
Y-11700D01*
X207383Y-13699D02*
X208383D01*
X209382Y-12700D01*
Y-7701D01*
X206383D01*
X205383Y-8701D01*
Y-10700D01*
X206383Y-11700D01*
X209382D01*
X218379Y-7701D02*
X220379D01*
X221378Y-8701D01*
Y-11700D01*
X218379D01*
X217380Y-10700D01*
X218379Y-9701D01*
X221378D01*
X224377Y-6702D02*
Y-7701D01*
X223378D01*
X225377D01*
X224377D01*
Y-10700D01*
X225377Y-11700D01*
X235374Y-6702D02*
Y-7701D01*
X234374D01*
X236373D01*
X235374D01*
Y-10700D01*
X236373Y-11700D01*
X239372Y-5702D02*
Y-11700D01*
Y-8701D01*
X240372Y-7701D01*
X242372D01*
X243371Y-8701D01*
Y-11700D01*
X248370D02*
X246370D01*
X245371Y-10700D01*
Y-8701D01*
X246370Y-7701D01*
X248370D01*
X249369Y-8701D01*
Y-9701D01*
X245371D01*
X251369Y-11700D02*
X254368D01*
X255367Y-10700D01*
X254368Y-9701D01*
X252368D01*
X251369Y-8701D01*
X252368Y-7701D01*
X255367D01*
X260366Y-11700D02*
X258366D01*
X257367Y-10700D01*
Y-8701D01*
X258366Y-7701D01*
X260366D01*
X261365Y-8701D01*
Y-9701D01*
X257367D01*
X269363Y-11700D02*
X271362D01*
X270362D01*
Y-5702D01*
X269363D01*
X275361Y-11700D02*
X277360D01*
X278360Y-10700D01*
Y-8701D01*
X277360Y-7701D01*
X275361D01*
X274361Y-8701D01*
Y-10700D01*
X275361Y-11700D01*
X284358Y-7701D02*
X281359D01*
X280359Y-8701D01*
Y-10700D01*
X281359Y-11700D01*
X284358D01*
X287357Y-7701D02*
X289356D01*
X290356Y-8701D01*
Y-11700D01*
X287357D01*
X286357Y-10700D01*
X287357Y-9701D01*
X290356D01*
X293355Y-6702D02*
Y-7701D01*
X292355D01*
X294355D01*
X293355D01*
Y-10700D01*
X294355Y-11700D01*
X297354D02*
X299353D01*
X298353D01*
Y-7701D01*
X297354D01*
X303352Y-11700D02*
X305351D01*
X306351Y-10700D01*
Y-8701D01*
X305351Y-7701D01*
X303352D01*
X302352Y-8701D01*
Y-10700D01*
X303352Y-11700D01*
X308350D02*
Y-7701D01*
X311349D01*
X312349Y-8701D01*
Y-11700D01*
X314348D02*
X317347D01*
X318347Y-10700D01*
X317347Y-9701D01*
X315348D01*
X314348Y-8701D01*
X315348Y-7701D01*
X318347D01*
X326344Y-8701D02*
X330343D01*
X342339Y-7701D02*
X339340D01*
X338340Y-8701D01*
Y-10700D01*
X339340Y-11700D01*
X342339D01*
X345338Y-7701D02*
X347338D01*
X348337Y-8701D01*
Y-11700D01*
X345338D01*
X344338Y-10700D01*
X345338Y-9701D01*
X348337D01*
X350337Y-11700D02*
Y-7701D01*
X353336D01*
X354335Y-8701D01*
Y-11700D01*
X362333Y-7701D02*
Y-10700D01*
X363332Y-11700D01*
X366331D01*
Y-7701D01*
X368331Y-11700D02*
X371330D01*
X372329Y-10700D01*
X371330Y-9701D01*
X369331D01*
X368331Y-8701D01*
X369331Y-7701D01*
X372329D01*
X377328Y-11700D02*
X375328D01*
X374329Y-10700D01*
Y-8701D01*
X375328Y-7701D01*
X377328D01*
X378328Y-8701D01*
Y-9701D01*
X374329D01*
X386325Y-13699D02*
Y-7701D01*
X389324D01*
X390324Y-8701D01*
Y-10700D01*
X389324Y-11700D01*
X386325D01*
X395322D02*
X393323D01*
X392323Y-10700D01*
Y-8701D01*
X393323Y-7701D01*
X395322D01*
X396322Y-8701D01*
Y-9701D01*
X392323D01*
X401320Y-11700D02*
X399321D01*
X398321Y-10700D01*
Y-8701D01*
X399321Y-7701D01*
X401320D01*
X402320Y-8701D01*
Y-9701D01*
X398321D01*
X404319Y-11700D02*
X406319D01*
X405319D01*
Y-5702D01*
X404319D01*
X410317Y-7701D02*
X412317D01*
X413316Y-8701D01*
Y-11700D01*
X410317D01*
X409317Y-10700D01*
X410317Y-9701D01*
X413316D01*
X415316Y-5702D02*
Y-11700D01*
X418315D01*
X419314Y-10700D01*
Y-9701D01*
Y-8701D01*
X418315Y-7701D01*
X415316D01*
X421314Y-11700D02*
X423313D01*
X422313D01*
Y-5702D01*
X421314D01*
X429311Y-11700D02*
X427312D01*
X426312Y-10700D01*
Y-8701D01*
X427312Y-7701D01*
X429311D01*
X430311Y-8701D01*
Y-9701D01*
X426312D01*
X438308Y-11700D02*
Y-7701D01*
X439308D01*
X440308Y-8701D01*
Y-11700D01*
Y-8701D01*
X441307Y-7701D01*
X442307Y-8701D01*
Y-11700D01*
X445306Y-7701D02*
X447305D01*
X448305Y-8701D01*
Y-11700D01*
X445306D01*
X444306Y-10700D01*
X445306Y-9701D01*
X448305D01*
X450304Y-11700D02*
X453303D01*
X454303Y-10700D01*
X453303Y-9701D01*
X451304D01*
X450304Y-8701D01*
X451304Y-7701D01*
X454303D01*
X456302Y-11700D02*
Y-5702D01*
Y-9701D02*
X459301Y-7701D01*
X456302Y-9701D02*
X459301Y-11700D01*
D58*
X523995Y12859D02*
D03*
Y22859D02*
D03*
X483995Y7259D02*
D03*
Y17259D02*
D03*
X484033Y27297D02*
D03*
X483995Y37259D02*
D03*
X473995Y12859D02*
D03*
Y22859D02*
D03*
X433995Y7259D02*
D03*
Y17259D02*
D03*
Y27259D02*
D03*
Y37259D02*
D03*
X423995Y12859D02*
D03*
X424033Y22896D02*
D03*
X383995Y7259D02*
D03*
Y37259D02*
D03*
Y17259D02*
D03*
Y27259D02*
D03*
X374033Y22896D02*
D03*
Y12896D02*
D03*
X333995Y7259D02*
D03*
Y17259D02*
D03*
Y27259D02*
D03*
Y37259D02*
D03*
X323995Y12859D02*
D03*
Y22859D02*
D03*
X283995Y7259D02*
D03*
Y17259D02*
D03*
Y27259D02*
D03*
Y37259D02*
D03*
X273995Y12859D02*
D03*
X274033Y22931D02*
D03*
X233995Y37259D02*
D03*
Y7259D02*
D03*
Y17259D02*
D03*
Y27259D02*
D03*
X224033Y22896D02*
D03*
Y12896D02*
D03*
X183995Y7259D02*
D03*
Y17259D02*
D03*
Y27259D02*
D03*
Y37259D02*
D03*
X173995Y12859D02*
D03*
Y22859D02*
D03*
X133995Y7259D02*
D03*
Y17259D02*
D03*
Y27259D02*
D03*
Y37259D02*
D03*
M02*
