G04 Layer_Physical_Order=3*
G04 Layer_Color=36540*
%FSLAX25Y25*%
%MOIN*%
G70*
G01*
G75*
%ADD15C,0.02000*%
%ADD19C,0.03700*%
%ADD22C,0.01000*%
%ADD23C,0.03500*%
%ADD28C,0.03000*%
%ADD29C,0.04000*%
%ADD37C,0.00800*%
%ADD38C,0.11400*%
%ADD39C,0.04300*%
%ADD40C,0.06400*%
%ADD41C,0.07700*%
%ADD42C,0.08700*%
%ADD43C,0.09700*%
%ADD44C,0.09900*%
%ADD45C,0.08400*%
%ADD46C,0.03000*%
%ADD47C,0.07600*%
%ADD48C,0.05400*%
%ADD49C,0.06700*%
G36*
X-40068Y27220D02*
X-40049Y27075D01*
X-39808Y26493D01*
Y26322D01*
Y24994D01*
X-40128Y24780D01*
X-40625Y24036D01*
X-40800Y23158D01*
X-40625Y22280D01*
X-40128Y21536D01*
X-39808Y21322D01*
Y20879D01*
X-39793Y20864D01*
X-42162D01*
X-42263Y21107D01*
Y21282D01*
X-41884Y21536D01*
X-41386Y22280D01*
X-41212Y23158D01*
X-41386Y24036D01*
X-41884Y24780D01*
X-42263Y25034D01*
Y26901D01*
X-41006Y28158D01*
X-40068Y27220D01*
D02*
G37*
G36*
X-44808Y26960D02*
Y26322D01*
Y24994D01*
X-45128Y24780D01*
X-45625Y24036D01*
X-45800Y23158D01*
X-45625Y22280D01*
X-45128Y21536D01*
X-44808Y21322D01*
Y20963D01*
X-44849Y20864D01*
X-47263D01*
Y21282D01*
X-46884Y21536D01*
X-46386Y22280D01*
X-46212Y23158D01*
X-46386Y24036D01*
X-46884Y24780D01*
X-47263Y25034D01*
Y26901D01*
X-46006Y28158D01*
X-44808Y26960D01*
D02*
G37*
G36*
X4537Y133372D02*
X10974Y133345D01*
X31266D01*
X44781Y133345D01*
Y122080D01*
X38796Y108599D01*
X38806Y108591D01*
X37456Y107051D01*
X35470Y105310D01*
X33274Y103843D01*
X30906Y102675D01*
X28486Y101854D01*
X19635Y101890D01*
X14765Y101890D01*
Y101849D01*
X11839Y102013D01*
X8950Y102504D01*
X6134Y103315D01*
X3427Y104437D01*
X862Y105854D01*
X-1528Y107550D01*
X-3713Y109503D01*
X-4791Y110638D01*
X-6257Y112351D01*
Y123838D01*
X2340Y132435D01*
X2321Y132454D01*
X2321Y132454D01*
X2970Y132952D01*
X3726Y133265D01*
X4537Y133372D01*
X4537Y133372D01*
D02*
G37*
G36*
X346853Y133911D02*
X353105Y127660D01*
Y108834D01*
X341881D01*
X337050Y113665D01*
X336692Y114023D01*
X336934Y115031D01*
X337089Y117000D01*
X336934Y118969D01*
X336473Y120890D01*
X335717Y122715D01*
X334685Y124400D01*
X333402Y125902D01*
X331900Y127185D01*
X330215Y128217D01*
X328390Y128973D01*
X326469Y129434D01*
X324500Y129589D01*
X322531Y129434D01*
X320610Y128973D01*
X318785Y128217D01*
X317100Y127185D01*
X315598Y125902D01*
X314315Y124400D01*
X313832Y123611D01*
X308111Y123611D01*
X269579Y123611D01*
X268913Y124122D01*
X268061Y124475D01*
X267147Y124595D01*
X266234Y124475D01*
X265382Y124122D01*
X264716Y123611D01*
X145374Y123611D01*
X143754Y121992D01*
X127689D01*
X127838Y133272D01*
X134569Y139465D01*
X339963Y139465D01*
X341300Y139465D01*
X346853Y133911D01*
D02*
G37*
%LPC*%
G36*
X20000Y129589D02*
X18031Y129434D01*
X16110Y128973D01*
X14285Y128217D01*
X12600Y127185D01*
X11098Y125902D01*
X9815Y124400D01*
X8783Y122715D01*
X8027Y120890D01*
X7566Y118969D01*
X7411Y117000D01*
X7566Y115031D01*
X8027Y113110D01*
X8783Y111285D01*
X9815Y109600D01*
X11098Y108098D01*
X12600Y106815D01*
X14285Y105783D01*
X16110Y105027D01*
X18031Y104566D01*
X20000Y104411D01*
X21969Y104566D01*
X23890Y105027D01*
X25715Y105783D01*
X27400Y106815D01*
X28902Y108098D01*
X30185Y109600D01*
X31217Y111285D01*
X31973Y113110D01*
X32434Y115031D01*
X32589Y117000D01*
X32434Y118969D01*
X31973Y120890D01*
X31217Y122715D01*
X30185Y124400D01*
X28902Y125902D01*
X27400Y127185D01*
X25715Y128217D01*
X23890Y128973D01*
X21969Y129434D01*
X20000Y129589D01*
D02*
G37*
%LPD*%
D15*
X420962Y46928D02*
D03*
X370962D02*
D03*
X321000Y47000D02*
D03*
X271000Y46965D02*
D03*
X220962Y46928D02*
D03*
X171000Y46965D02*
D03*
X120962Y46928D02*
D03*
X144500Y50600D02*
D03*
X194500D02*
D03*
X244500D02*
D03*
X294500Y50635D02*
D03*
X341000D02*
D03*
X344500D02*
D03*
X394500Y50600D02*
D03*
X441000Y50635D02*
D03*
X444500D02*
D03*
X491000D02*
D03*
X494500D02*
D03*
X141000Y50600D02*
D03*
X291000Y50635D02*
D03*
X191000Y50600D02*
D03*
X241000D02*
D03*
X391000D02*
D03*
X471000Y46965D02*
D03*
D19*
X478000D02*
X478038Y47003D01*
X474915Y43880D02*
X478000Y46965D01*
X474915Y13159D02*
X480874Y7200D01*
X474915Y13159D02*
Y43880D01*
X427962Y46928D02*
X428000Y46965D01*
X424877Y43843D02*
X427962Y46928D01*
X424877Y13121D02*
X430837Y7162D01*
X424877Y13121D02*
Y43843D01*
X377962Y46928D02*
X378000Y46965D01*
X374877Y43843D02*
X377962Y46928D01*
X374877Y13121D02*
X380837Y7162D01*
X374877Y13121D02*
Y43843D01*
X328000Y47000D02*
X328038Y47038D01*
X324915Y43915D02*
X328000Y47000D01*
X324915Y13194D02*
X330874Y7234D01*
X324915Y13194D02*
Y43915D01*
X278000Y46965D02*
X278038Y47003D01*
X274915Y43880D02*
X278000Y46965D01*
X274915Y13159D02*
X280874Y7200D01*
X274915Y13159D02*
Y43880D01*
X227962Y46928D02*
X228000Y46965D01*
X224877Y43843D02*
X227962Y46928D01*
X224877Y13121D02*
X230837Y7162D01*
X224877Y13121D02*
Y43843D01*
X174877D02*
X178000Y46965D01*
X174877Y13121D02*
Y43843D01*
Y13121D02*
X180837Y7162D01*
X8229Y11156D02*
X75539D01*
X110105Y45721D02*
X114494D01*
X75539Y11156D02*
X110105Y45721D01*
X-40148Y4907D02*
X1980D01*
X8229Y11156D01*
X114494Y45721D02*
X120992Y52219D01*
X-46006Y10765D02*
X-40148Y4907D01*
X-46006Y10765D02*
Y19025D01*
X119266Y38787D02*
X121992D01*
X127962Y44757D01*
Y46928D01*
D22*
X130071Y127701D02*
X141968D01*
X149243Y134976D01*
X338219D01*
X348187Y125009D01*
X252200Y269500D02*
Y275498D01*
X254199Y273499D01*
X256199Y275498D01*
Y269500D01*
X258198D02*
X260197D01*
X259198D01*
Y273499D01*
X258198D01*
X267195Y275498D02*
Y269500D01*
X264196D01*
X263196Y270500D01*
Y272499D01*
X264196Y273499D01*
X267195D01*
X269195Y269500D02*
X271194D01*
X270194D01*
Y275498D01*
X269195Y274498D01*
X282190Y269500D02*
X280191Y271499D01*
Y273499D01*
X282190Y275498D01*
X289188Y274498D02*
X288188Y275498D01*
X286189D01*
X285189Y274498D01*
Y273499D01*
X286189Y272499D01*
X288188D01*
X289188Y271499D01*
Y270500D01*
X288188Y269500D01*
X286189D01*
X285189Y270500D01*
X291187Y269500D02*
X293187D01*
X292187D01*
Y273499D01*
X291187D01*
X298185Y267501D02*
X299185D01*
X300184Y268500D01*
Y273499D01*
X297185D01*
X296186Y272499D01*
Y270500D01*
X297185Y269500D01*
X300184D01*
X302184D02*
Y273499D01*
X305183D01*
X306183Y272499D01*
Y269500D01*
X309182Y273499D02*
X311181D01*
X312181Y272499D01*
Y269500D01*
X309182D01*
X308182Y270500D01*
X309182Y271499D01*
X312181D01*
X314180Y269500D02*
X316179D01*
X315180D01*
Y275498D01*
X314180D01*
X325176Y269500D02*
X327176D01*
X326176D01*
Y275498D01*
X325176D01*
X331174Y273499D02*
X333174D01*
X334173Y272499D01*
Y269500D01*
X331174D01*
X330175Y270500D01*
X331174Y271499D01*
X334173D01*
X336173Y273499D02*
Y270500D01*
X337173Y269500D01*
X340172D01*
Y268500D01*
X339172Y267501D01*
X338172D01*
X340172Y269500D02*
Y273499D01*
X345170Y269500D02*
X343171D01*
X342171Y270500D01*
Y272499D01*
X343171Y273499D01*
X345170D01*
X346170Y272499D01*
Y271499D01*
X342171D01*
X348169Y273499D02*
Y269500D01*
Y271499D01*
X349169Y272499D01*
X350168Y273499D01*
X351168D01*
X354167Y269500D02*
X356166Y271499D01*
Y273499D01*
X354167Y275498D01*
X477952Y-37074D02*
Y-31076D01*
X479951Y-33075D01*
X481951Y-31076D01*
Y-37074D01*
X483950D02*
X485950D01*
X484950D01*
Y-33075D01*
X483950D01*
X492947Y-31076D02*
Y-37074D01*
X489948D01*
X488949Y-36074D01*
Y-34075D01*
X489948Y-33075D01*
X492947D01*
X494947Y-37074D02*
X496946D01*
X495946D01*
Y-31076D01*
X494947Y-32076D01*
X507942Y-37074D02*
X505943Y-35075D01*
Y-33075D01*
X507942Y-31076D01*
X514940Y-32076D02*
X513940Y-31076D01*
X511941D01*
X510942Y-32076D01*
Y-33075D01*
X511941Y-34075D01*
X513940D01*
X514940Y-35075D01*
Y-36074D01*
X513940Y-37074D01*
X511941D01*
X510942Y-36074D01*
X516939Y-37074D02*
X518939D01*
X517939D01*
Y-33075D01*
X516939D01*
X523937Y-39073D02*
X524937D01*
X525937Y-38074D01*
Y-33075D01*
X522938D01*
X521938Y-34075D01*
Y-36074D01*
X522938Y-37074D01*
X525937D01*
X527936D02*
Y-33075D01*
X530935D01*
X531935Y-34075D01*
Y-37074D01*
X534934Y-33075D02*
X536933D01*
X537933Y-34075D01*
Y-37074D01*
X534934D01*
X533934Y-36074D01*
X534934Y-35075D01*
X537933D01*
X539932Y-37074D02*
X541931D01*
X540932D01*
Y-31076D01*
X539932D01*
X550928Y-37074D02*
X552928D01*
X551928D01*
Y-31076D01*
X550928D01*
X556927Y-33075D02*
X558926D01*
X559926Y-34075D01*
Y-37074D01*
X556927D01*
X555927Y-36074D01*
X556927Y-35075D01*
X559926D01*
X561925Y-33075D02*
Y-36074D01*
X562925Y-37074D01*
X565924D01*
Y-38074D01*
X564924Y-39073D01*
X563924D01*
X565924Y-37074D02*
Y-33075D01*
X570922Y-37074D02*
X568923D01*
X567923Y-36074D01*
Y-34075D01*
X568923Y-33075D01*
X570922D01*
X571922Y-34075D01*
Y-35075D01*
X567923D01*
X573921Y-33075D02*
Y-37074D01*
Y-35075D01*
X574921Y-34075D01*
X575920Y-33075D01*
X576920D01*
X579919Y-37074D02*
X581918Y-35075D01*
Y-33075D01*
X579919Y-31076D01*
D23*
X427962Y46928D02*
D03*
X420992Y52219D02*
D03*
X370992D02*
D03*
X377962Y46928D02*
D03*
X328000Y47000D02*
D03*
X321030Y52292D02*
D03*
X271030Y52257D02*
D03*
X278000Y46965D02*
D03*
X227962Y46928D02*
D03*
X220992Y52219D02*
D03*
X171030Y52257D02*
D03*
X178000Y46965D02*
D03*
X127962Y46928D02*
D03*
X120992Y52219D02*
D03*
X-36006Y28158D02*
D03*
X-41006D02*
D03*
X-46006D02*
D03*
X-51006D02*
D03*
X-56006D02*
D03*
X-61006D02*
D03*
X-66006D02*
D03*
X-71006D02*
D03*
X471030Y52257D02*
D03*
X478000Y46965D02*
D03*
X480874Y7200D02*
D03*
X430837Y7162D02*
D03*
X380837D02*
D03*
X330874Y7234D02*
D03*
X280874Y7200D02*
D03*
X230837Y7162D02*
D03*
X180837D02*
D03*
X119266Y38787D02*
D03*
D28*
X372000Y119068D02*
D03*
X292000D02*
D03*
X410000Y119026D02*
D03*
X453041Y119068D02*
D03*
X503041D02*
D03*
X362000D02*
D03*
X175959D02*
D03*
X383800D02*
D03*
X464000D02*
D03*
X472500D02*
D03*
X267147Y121065D02*
D03*
X202830Y117803D02*
D03*
X152109Y116907D02*
D03*
X164901D02*
D03*
X241566Y116595D02*
D03*
X251574Y116692D02*
D03*
D29*
X-46006Y19025D02*
Y19690D01*
X-41006Y19025D02*
Y19690D01*
X-71006Y28158D02*
Y29535D01*
X-74724Y33253D02*
X-71006Y29535D01*
X-82619Y33253D02*
X-74724D01*
X-85886Y36520D02*
X-82619Y33253D01*
X-85886Y36520D02*
Y41522D01*
X-66006Y28158D02*
Y31862D01*
X-73076Y38932D02*
X-66006Y31862D01*
X-73076Y38932D02*
Y40458D01*
X-63226Y37199D02*
Y39256D01*
Y37199D02*
X-61006Y34979D01*
Y28158D02*
Y34979D01*
X-56006Y28158D02*
Y33343D01*
X-54494Y34854D01*
Y36166D01*
X-50099Y30912D02*
Y31194D01*
X-46918Y34375D01*
D37*
X341038Y50672D02*
X342038Y49672D01*
X375335Y47165D02*
X378000D01*
X293538Y49638D02*
X294538Y50638D01*
X275372Y47203D02*
X278038D01*
X191038Y50638D02*
X192038Y49638D01*
X225335Y47165D02*
X228000D01*
X120925Y46855D02*
X122667D01*
X325372Y47238D02*
X328038D01*
X175372Y47203D02*
X178038D01*
X425335Y47165D02*
X428000D01*
X493538Y49638D02*
X494538Y50638D01*
X475372Y47203D02*
X478038D01*
X125335Y47165D02*
X127962D01*
X194500Y50600D02*
X194538Y50638D01*
X193538Y49638D02*
X194500Y50600D01*
X344500Y50635D02*
X344538Y50672D01*
X343538Y49672D02*
X344500Y50635D01*
X343538Y46651D02*
Y49672D01*
X332903Y52292D02*
X334183Y51012D01*
X328757Y52292D02*
X332903D01*
X328038Y47138D02*
Y47238D01*
X325038Y48572D02*
X328757Y52292D01*
X325038Y47572D02*
X325372Y47238D01*
X325038Y47572D02*
Y48572D01*
X340824Y43938D02*
X343538Y46651D01*
X334183Y45806D02*
Y51012D01*
X336051Y43938D02*
X340824D01*
X334183Y45806D02*
X336051Y43938D01*
X340203Y45438D02*
X342038Y47272D01*
Y49672D01*
X328136Y53792D02*
X333524D01*
X323538Y49194D02*
X328136Y53792D01*
X333524D02*
X335683Y51633D01*
X323538Y47572D02*
Y49194D01*
X322965Y47000D02*
X323538Y47572D01*
X321000Y47000D02*
X322965D01*
X335683Y46427D02*
X336672Y45438D01*
X335683Y46427D02*
Y51633D01*
X336672Y45438D02*
X340203D01*
X493538Y46616D02*
Y49638D01*
X478757Y52257D02*
X482903D01*
X473538Y49159D02*
X478136Y53757D01*
X483525D01*
X485683Y51598D01*
X482903Y52257D02*
X484183Y50977D01*
Y45771D02*
Y50977D01*
X485683Y46392D02*
Y51598D01*
Y46392D02*
X486672Y45403D01*
X490203D01*
X484183Y45771D02*
X486051Y43903D01*
X490824D01*
X471000Y46965D02*
X472965D01*
X473538Y47538D01*
Y49159D01*
X490203Y45403D02*
X492038Y47238D01*
Y49638D01*
X491038Y50638D02*
X492038Y49638D01*
X475038Y47538D02*
X475372Y47203D01*
X478038Y47103D02*
Y47203D01*
X475038Y47538D02*
Y48538D01*
X478757Y52257D01*
X490824Y43903D02*
X493538Y46616D01*
X443500Y46579D02*
Y49600D01*
X444500Y50600D01*
X428719Y52219D02*
X432865D01*
X423500Y49121D02*
X428098Y53719D01*
X433487D01*
X435645Y51561D01*
X432865Y52219D02*
X434145Y50939D01*
Y45733D02*
Y50939D01*
X435645Y46355D02*
Y51561D01*
Y46355D02*
X436635Y45365D01*
X440165D01*
X434145Y45733D02*
X436013Y43865D01*
X440787D01*
X420962Y46928D02*
X422928D01*
X423500Y47500D01*
Y49121D01*
X440165Y45365D02*
X442000Y47200D01*
Y49600D01*
X441000Y50600D02*
X442000Y49600D01*
X425000Y47500D02*
X425335Y47165D01*
X428000Y47065D02*
Y47165D01*
X425000Y47500D02*
Y48500D01*
X428719Y52219D01*
X440787Y43865D02*
X443500Y46579D01*
X393500D02*
Y49600D01*
X394500Y50600D01*
X378719Y52219D02*
X382866D01*
X384145Y50939D01*
Y45733D02*
Y50939D01*
Y45733D02*
X386013Y43865D01*
X390787D01*
X375000Y47500D02*
X375335Y47165D01*
X378000Y47065D02*
Y47165D01*
X375000Y47500D02*
Y48500D01*
X378719Y52219D01*
X390787Y43865D02*
X393500Y46579D01*
X293538Y46616D02*
Y49638D01*
X278757Y52257D02*
X282903D01*
X284183Y50977D01*
Y45771D02*
Y50977D01*
Y45771D02*
X286051Y43903D01*
X290824D01*
X275038Y47538D02*
X275372Y47203D01*
X278038Y47103D02*
Y47203D01*
X275038Y47538D02*
Y48538D01*
X278757Y52257D01*
X290824Y43903D02*
X293538Y46616D01*
X243500Y46579D02*
Y49600D01*
X244500Y50600D01*
X228719Y52219D02*
X232866D01*
X234145Y50939D01*
Y45733D02*
Y50939D01*
Y45733D02*
X236013Y43865D01*
X240787D01*
X225000Y47500D02*
X225335Y47165D01*
X228000Y47065D02*
Y47165D01*
X225000Y47500D02*
Y48500D01*
X228719Y52219D01*
X240787Y43865D02*
X243500Y46579D01*
X193538Y46616D02*
Y49638D01*
X178757Y52257D02*
X182903D01*
X184183Y50977D01*
Y45771D02*
Y50977D01*
Y45771D02*
X186051Y43903D01*
X190824D01*
X175038Y47538D02*
X175372Y47203D01*
X178038Y47103D02*
Y47203D01*
X175038Y47538D02*
Y48538D01*
X178757Y52257D01*
X190824Y43903D02*
X193538Y46616D01*
X140787Y43865D02*
X143500Y46579D01*
X125000Y48500D02*
X128719Y52219D01*
X125000Y47500D02*
Y48500D01*
Y47500D02*
X125335Y47165D01*
X136013Y43865D02*
X140787D01*
X134145Y45733D02*
X136013Y43865D01*
X134145Y45733D02*
Y50939D01*
X132866Y52219D02*
X134145Y50939D01*
X128719Y52219D02*
X132866D01*
X143500Y49600D02*
X144500Y50600D01*
X143500Y46579D02*
Y49600D01*
X409959Y119068D02*
X410000Y119026D01*
X362000Y119068D02*
X372000D01*
X383800D02*
X409959D01*
X453041D02*
X464000D01*
X472500D02*
X503041D01*
X141000Y50600D02*
X142000Y49600D01*
Y47200D02*
Y49600D01*
X140165Y45365D02*
X142000Y47200D01*
X123500Y47500D02*
Y49121D01*
X122928Y46928D02*
X123500Y47500D01*
X120962Y46928D02*
X122928D01*
X136635Y45365D02*
X140165D01*
X135645Y46355D02*
X136635Y45365D01*
X135645Y46355D02*
Y51561D01*
X133487Y53719D02*
X135645Y51561D01*
X128098Y53719D02*
X133487D01*
X123500Y49121D02*
X128098Y53719D01*
X291038Y50638D02*
X292038Y49638D01*
Y47238D02*
Y49638D01*
X290203Y45403D02*
X292038Y47238D01*
X273538Y47538D02*
Y49159D01*
X272965Y46965D02*
X273538Y47538D01*
X271000Y46965D02*
X272965D01*
X286672Y45403D02*
X290203D01*
X285683Y46392D02*
X286672Y45403D01*
X285683Y46392D02*
Y51598D01*
X283524Y53757D02*
X285683Y51598D01*
X278136Y53757D02*
X283524D01*
X273538Y49159D02*
X278136Y53757D01*
X173538Y49159D02*
X178136Y53757D01*
X183525D01*
X185683Y51598D01*
Y46392D02*
Y51598D01*
Y46392D02*
X186672Y45403D01*
X190203D01*
X171000Y46965D02*
X172965D01*
X173538Y47538D01*
Y49159D01*
X190203Y45403D02*
X192038Y47238D01*
Y49638D01*
X241000Y50600D02*
X242000Y49600D01*
Y47200D02*
Y49600D01*
X240165Y45365D02*
X242000Y47200D01*
X223500Y47500D02*
Y49121D01*
X222928Y46928D02*
X223500Y47500D01*
X220962Y46928D02*
X222928D01*
X236635Y45365D02*
X240165D01*
X235645Y46355D02*
X236635Y45365D01*
X235645Y46355D02*
Y51561D01*
X233487Y53719D02*
X235645Y51561D01*
X228098Y53719D02*
X233487D01*
X223500Y49121D02*
X228098Y53719D01*
X267147Y121065D02*
X269145Y119068D01*
X292000D01*
X177306Y117803D02*
X202830D01*
X176000Y119026D02*
X176082D01*
X177306Y117803D01*
X152109Y116907D02*
X164901D01*
X241566Y116595D02*
X241662Y116692D01*
X251574D01*
X373500Y49121D02*
X378098Y53719D01*
X383487D01*
X385645Y51561D01*
Y46355D02*
Y51561D01*
Y46355D02*
X386635Y45365D01*
X390165D01*
X370962Y46928D02*
X372928D01*
X373500Y47500D01*
Y49121D01*
X390165Y45365D02*
X392000Y47200D01*
Y49600D01*
X391000Y50600D02*
X392000Y49600D01*
D38*
X-31719Y107440D02*
X-20237D01*
X348187Y116979D02*
Y125009D01*
Y116979D02*
X361044Y104122D01*
X-9604Y118073D02*
X924D01*
X419165Y104122D02*
X468704Y54583D01*
X361044Y104122D02*
X419165D01*
X37613Y127701D02*
X130071D01*
X-20237Y107440D02*
X-9604Y118073D01*
D39*
X-1582Y23490D02*
X70320D01*
X-20189Y41179D02*
X72237D01*
X70320Y23490D02*
X105118Y58288D01*
X-12019Y13054D02*
X-1582Y23490D01*
X72237Y41179D02*
X96768Y65709D01*
X186358D02*
X191101Y60966D01*
X96768Y65709D02*
X186358D01*
X105118Y58288D02*
X164999D01*
X212246Y60966D02*
X220992Y52219D01*
X191101Y60966D02*
X212246D01*
X164999Y58288D02*
X171030Y52257D01*
X-33210Y28158D02*
X-20189Y41179D01*
X-36006Y28158D02*
X-33210D01*
X-36207Y13054D02*
X-12019D01*
X-41006Y17853D02*
X-36207Y13054D01*
X-41006Y17853D02*
Y19025D01*
D40*
X-20915Y55772D02*
X71888D01*
X90241Y74125D01*
X227667D02*
X232645Y69147D01*
X90241Y74125D02*
X227667D01*
X254140Y69147D02*
X270461Y52826D01*
X232645Y69147D02*
X254140D01*
D41*
X-23722Y68563D02*
X67179D01*
X280805Y66384D02*
X306937D01*
X262946Y84243D02*
X280805Y66384D01*
X82858Y84243D02*
X262946D01*
X67179Y68563D02*
X82858Y84243D01*
X306937Y66384D02*
X320139Y53183D01*
D42*
X-27269Y80614D02*
X56883D01*
X345754Y77457D02*
X369624Y53587D01*
X283804Y82955D02*
X310215D01*
X315713Y77457D01*
X345754D01*
X56883Y80614D02*
X71829Y95560D01*
X271199D01*
X283804Y82955D01*
D43*
X-28771Y93935D02*
X45030D01*
X319125Y92890D02*
X352252D01*
X314135Y97880D02*
X319125Y92890D01*
X296791Y97880D02*
X314135D01*
X352252Y92890D02*
X364551Y80590D01*
X286693Y107977D02*
X296791Y97880D01*
X59072Y107977D02*
X286693D01*
X45030Y93935D02*
X59072Y107977D01*
X364551Y80590D02*
X392621D01*
X419143Y54199D01*
D44*
X-85886Y53274D02*
X-31719Y107440D01*
X-85886Y41522D02*
Y53274D01*
D45*
X-73076Y49629D02*
X-28771Y93935D01*
X-73076Y40458D02*
Y49629D01*
D46*
X33495Y131819D02*
X37613Y127701D01*
X11335Y131819D02*
X33495D01*
X924Y121408D02*
X11335Y131819D01*
X924Y118073D02*
Y121408D01*
X120992Y52219D02*
X120992D01*
X-51006Y30005D02*
X-50099Y30912D01*
X-51006Y28158D02*
Y30005D01*
D47*
X-63226Y44657D02*
X-27269Y80614D01*
X-63226Y39256D02*
Y44657D01*
D48*
X-46918Y34375D02*
X-42313D01*
X-20915Y55772D01*
D49*
X-54494Y36166D02*
Y37791D01*
X-23722Y68563D01*
M02*
