G04 Layer_Color=8388736*
%FSLAX25Y25*%
%MOIN*%
G70*
G01*
G75*
%ADD10R,0.03800X0.03200*%
%ADD11R,0.03850X0.05200*%
%ADD14R,0.03200X0.03800*%
%ADD15C,0.02000*%
%ADD16R,0.02000X0.06000*%
%ADD17R,0.07000X0.25000*%
%ADD23C,0.03500*%
%ADD24C,0.45000*%
%ADD26C,0.21700*%
%ADD27C,0.12598*%
%ADD28C,0.03000*%
%ADD55C,0.01500*%
%ADD56C,0.07200*%
G36*
X526500Y175500D02*
X526500Y175500D01*
Y150500D01*
X118500D01*
Y175500D01*
X118500Y175500D01*
X120000Y177000D01*
X525000D01*
X526500Y175500D01*
D02*
G37*
D10*
X293600Y132500D02*
D03*
X300900D02*
D03*
X243600D02*
D03*
X250900D02*
D03*
X203600D02*
D03*
X210900D02*
D03*
X482494D02*
D03*
Y138100D02*
D03*
X160900Y132500D02*
D03*
Y138100D02*
D03*
X210900D02*
D03*
X203600D02*
D03*
X510900Y132500D02*
D03*
Y138100D02*
D03*
X503600D02*
D03*
Y132500D02*
D03*
X243600Y138100D02*
D03*
X250900D02*
D03*
X293600D02*
D03*
X300900D02*
D03*
X363600D02*
D03*
Y132500D02*
D03*
X370900D02*
D03*
Y138100D02*
D03*
X413600D02*
D03*
Y132500D02*
D03*
X420900D02*
D03*
Y138100D02*
D03*
X453600D02*
D03*
Y132500D02*
D03*
X460900D02*
D03*
Y138100D02*
D03*
X125322Y132500D02*
D03*
Y138100D02*
D03*
X175955Y132500D02*
D03*
Y138100D02*
D03*
X218820Y132500D02*
D03*
Y138100D02*
D03*
X266249Y132500D02*
D03*
Y138100D02*
D03*
X335502Y132500D02*
D03*
Y138100D02*
D03*
X386484Y132500D02*
D03*
Y138100D02*
D03*
X428148Y132500D02*
D03*
Y138100D02*
D03*
X475316Y132500D02*
D03*
Y138100D02*
D03*
X132500Y132500D02*
D03*
Y138100D02*
D03*
X183445Y132500D02*
D03*
Y138100D02*
D03*
X225809Y132500D02*
D03*
Y138100D02*
D03*
X273488Y132500D02*
D03*
Y138100D02*
D03*
X342741Y132500D02*
D03*
Y138100D02*
D03*
X393472Y132500D02*
D03*
Y138100D02*
D03*
X435155Y132500D02*
D03*
Y138100D02*
D03*
X153600D02*
D03*
Y132500D02*
D03*
D11*
X427962Y46928D02*
D03*
X420962D02*
D03*
X370962D02*
D03*
X377962D02*
D03*
X328000Y47000D02*
D03*
X321000D02*
D03*
X271000Y46965D02*
D03*
X278000D02*
D03*
X227962Y46928D02*
D03*
X220962D02*
D03*
X171000Y46965D02*
D03*
X178000D02*
D03*
X127962Y46928D02*
D03*
X120962D02*
D03*
X471000Y46965D02*
D03*
X478000D02*
D03*
D14*
X501200Y45500D02*
D03*
X506800D02*
D03*
X251200D02*
D03*
X256800D02*
D03*
X301200D02*
D03*
X306800D02*
D03*
X351200D02*
D03*
X356800D02*
D03*
X401200D02*
D03*
X406800D02*
D03*
X451200D02*
D03*
X456800D02*
D03*
X151200D02*
D03*
X156800D02*
D03*
X201200D02*
D03*
X206800D02*
D03*
D15*
X226891Y-268458D02*
D03*
X144500Y50600D02*
D03*
X194500D02*
D03*
X244500D02*
D03*
X294500Y50635D02*
D03*
X341000D02*
D03*
X344500D02*
D03*
X394500Y50600D02*
D03*
X441000Y50635D02*
D03*
X444500D02*
D03*
X491000D02*
D03*
X494500D02*
D03*
X141000Y50600D02*
D03*
X291000Y50635D02*
D03*
X191000Y50600D02*
D03*
X241000D02*
D03*
X391000D02*
D03*
D16*
X184000Y37401D02*
D03*
X224000Y13000D02*
D03*
Y23000D02*
D03*
X184000Y27401D02*
D03*
Y17401D02*
D03*
Y7401D02*
D03*
X284000D02*
D03*
Y17401D02*
D03*
Y27401D02*
D03*
X324000Y23000D02*
D03*
Y13000D02*
D03*
X284000Y37401D02*
D03*
X334000D02*
D03*
X374000Y13000D02*
D03*
Y23000D02*
D03*
X334000Y27401D02*
D03*
Y17401D02*
D03*
Y7401D02*
D03*
X384000D02*
D03*
Y17401D02*
D03*
Y27401D02*
D03*
X424000Y23000D02*
D03*
Y13000D02*
D03*
X384000Y37401D02*
D03*
X434000D02*
D03*
X474000Y13000D02*
D03*
Y23000D02*
D03*
X434000Y27401D02*
D03*
Y17401D02*
D03*
Y7401D02*
D03*
X484000D02*
D03*
Y17401D02*
D03*
Y27401D02*
D03*
X524000Y23000D02*
D03*
Y13000D02*
D03*
X484000Y37401D02*
D03*
X234000D02*
D03*
X274000Y13000D02*
D03*
Y23000D02*
D03*
X234000Y27401D02*
D03*
Y17401D02*
D03*
Y7401D02*
D03*
X134000D02*
D03*
Y17401D02*
D03*
Y27401D02*
D03*
X174000Y23000D02*
D03*
Y13000D02*
D03*
X134000Y37401D02*
D03*
D17*
X517500Y163500D02*
D03*
X507500D02*
D03*
X497500D02*
D03*
X487500D02*
D03*
X477500D02*
D03*
X467500D02*
D03*
X457500D02*
D03*
X447500D02*
D03*
X437500D02*
D03*
X427500D02*
D03*
X417500D02*
D03*
X407500D02*
D03*
X397500D02*
D03*
X387500D02*
D03*
X377500D02*
D03*
X367500D02*
D03*
X357500D02*
D03*
X347500D02*
D03*
X337500D02*
D03*
X327500D02*
D03*
X317500D02*
D03*
X307500D02*
D03*
X297500D02*
D03*
X287500D02*
D03*
X277500D02*
D03*
X267500D02*
D03*
X257500D02*
D03*
X247500D02*
D03*
X237500D02*
D03*
X227500D02*
D03*
X217500D02*
D03*
X207500D02*
D03*
X197500D02*
D03*
X187500D02*
D03*
X177500D02*
D03*
X167500D02*
D03*
X157500D02*
D03*
X137500D02*
D03*
X127500D02*
D03*
X147500D02*
D03*
D23*
X-36006Y28158D02*
D03*
X-83506Y23158D02*
D03*
X-78506D02*
D03*
X-73506D02*
D03*
X-68506D02*
D03*
X-63506D02*
D03*
X-58506D02*
D03*
X-53506D02*
D03*
X-48506D02*
D03*
X-43506D02*
D03*
X-38506D02*
D03*
X-41006Y28158D02*
D03*
X-46006D02*
D03*
X-51006D02*
D03*
X-56006D02*
D03*
X-61006D02*
D03*
X-66006D02*
D03*
X-71006D02*
D03*
X-76006D02*
D03*
X-81006D02*
D03*
X-86006D02*
D03*
X480874Y37200D02*
D03*
Y7200D02*
D03*
X430837Y37162D02*
D03*
Y7162D02*
D03*
X380837Y37162D02*
D03*
Y7162D02*
D03*
X330874Y37234D02*
D03*
Y7234D02*
D03*
X280874Y37200D02*
D03*
Y7200D02*
D03*
X230837Y7162D02*
D03*
X180837D02*
D03*
X230837Y37162D02*
D03*
X180837D02*
D03*
X130837D02*
D03*
X119266Y38787D02*
D03*
D24*
X-91706Y91055D02*
D03*
D26*
X324500Y117000D02*
D03*
X20000D02*
D03*
X536500D02*
D03*
D27*
X-17756Y28158D02*
D03*
X-104256D02*
D03*
D28*
X291000Y147400D02*
D03*
X241000D02*
D03*
X201000D02*
D03*
X151000D02*
D03*
X510900Y126700D02*
D03*
X501000Y147400D02*
D03*
X503600Y126700D02*
D03*
X451000Y147400D02*
D03*
X460900Y126700D02*
D03*
X363600D02*
D03*
X370900D02*
D03*
X361000Y147400D02*
D03*
X372000Y119068D02*
D03*
X491000Y143900D02*
D03*
X441000D02*
D03*
X401000D02*
D03*
X351000D02*
D03*
X281000D02*
D03*
X231000D02*
D03*
X191000D02*
D03*
X141000D02*
D03*
X413600Y126700D02*
D03*
X420900D02*
D03*
X411000Y147400D02*
D03*
X292000Y119068D02*
D03*
X410000Y119026D02*
D03*
X453600Y143900D02*
D03*
X413600D02*
D03*
X363600D02*
D03*
X293600D02*
D03*
X243600D02*
D03*
X503600D02*
D03*
X203600D02*
D03*
X153600D02*
D03*
X501200Y51100D02*
D03*
X451200D02*
D03*
X401200D02*
D03*
X177500Y143600D02*
D03*
X217500D02*
D03*
X267500D02*
D03*
X337500D02*
D03*
X387500D02*
D03*
X427500D02*
D03*
X477500D02*
D03*
X453041Y119068D02*
D03*
X503041D02*
D03*
X362000D02*
D03*
X170116Y147300D02*
D03*
X260116D02*
D03*
X380116D02*
D03*
X470116D02*
D03*
X175959Y119068D02*
D03*
X383800D02*
D03*
X464000D02*
D03*
X472500D02*
D03*
X522000Y70000D02*
D03*
X127500Y143600D02*
D03*
X351162Y51062D02*
D03*
X267147Y121065D02*
D03*
X202830Y117803D02*
D03*
X152109Y116907D02*
D03*
X164901D02*
D03*
X241566Y116595D02*
D03*
X251574Y116692D02*
D03*
X151200Y51100D02*
D03*
X201162Y51062D02*
D03*
X251200Y51100D02*
D03*
X301200Y51135D02*
D03*
X322757Y66139D02*
D03*
D55*
X427962Y46928D02*
D03*
X420992Y52219D02*
D03*
X370992D02*
D03*
X377962Y46928D02*
D03*
X328000Y47000D02*
D03*
X321030Y52292D02*
D03*
X271030Y52257D02*
D03*
X278000Y46965D02*
D03*
X227962Y46928D02*
D03*
X220992Y52219D02*
D03*
X171030Y52257D02*
D03*
X178000Y46965D02*
D03*
X127962Y46928D02*
D03*
X120992Y52219D02*
D03*
X471030Y52257D02*
D03*
X478000Y46965D02*
D03*
D56*
X-98985Y58232D02*
D03*
X-108985D02*
D03*
X-98985Y47338D02*
D03*
X-108985D02*
D03*
M02*
