G04 Layer_Physical_Order=6*
G04 Layer_Color=16711680*
%FSLAX25Y25*%
%MOIN*%
G70*
G01*
G75*
%ADD15C,0.02000*%
%ADD17R,0.07000X0.25000*%
%ADD20C,0.02000*%
%ADD22C,0.01000*%
%ADD23C,0.03500*%
%ADD24C,0.45000*%
%ADD25C,0.06200*%
%ADD26C,0.21700*%
%ADD27C,0.12598*%
%ADD28C,0.03000*%
%ADD37C,0.00800*%
D15*
X420962Y46928D02*
D03*
X370962D02*
D03*
X321000Y47000D02*
D03*
X271000Y46965D02*
D03*
X220962Y46928D02*
D03*
X171000Y46965D02*
D03*
X120962Y46928D02*
D03*
X144500Y50600D02*
D03*
X194500D02*
D03*
X244500D02*
D03*
X294500Y50635D02*
D03*
X341000D02*
D03*
X344500D02*
D03*
X394500Y50600D02*
D03*
X441000Y50635D02*
D03*
X444500D02*
D03*
X491000D02*
D03*
X494500D02*
D03*
X141000Y50600D02*
D03*
X291000Y50635D02*
D03*
X191000Y50600D02*
D03*
X241000D02*
D03*
X391000D02*
D03*
X471000Y46965D02*
D03*
D17*
X137500Y163500D02*
D03*
X517500D02*
D03*
X507500D02*
D03*
X497500D02*
D03*
X487500D02*
D03*
X477500D02*
D03*
X467500D02*
D03*
X457500D02*
D03*
X447500D02*
D03*
X437500D02*
D03*
X427500D02*
D03*
X417500D02*
D03*
X407500D02*
D03*
X397500D02*
D03*
X387500D02*
D03*
X377500D02*
D03*
X367500D02*
D03*
X357500D02*
D03*
X347500D02*
D03*
X337500D02*
D03*
X327500D02*
D03*
X317500D02*
D03*
X307500D02*
D03*
X297500D02*
D03*
X287500D02*
D03*
X277500D02*
D03*
X267500D02*
D03*
X257500D02*
D03*
X247500D02*
D03*
X237500D02*
D03*
X227500D02*
D03*
X217500D02*
D03*
X207500D02*
D03*
X197500D02*
D03*
X187500D02*
D03*
X177500D02*
D03*
X167500D02*
D03*
X157500D02*
D03*
X147500D02*
D03*
X127500D02*
D03*
D20*
X501162Y51062D02*
Y57944D01*
X451162Y51062D02*
Y57944D01*
X401125Y51025D02*
Y57907D01*
X251125Y51025D02*
Y57907D01*
X301087Y50987D02*
Y57869D01*
X514834Y62834D02*
X522000Y70000D01*
X496272Y62834D02*
X514834D01*
X451200Y57982D02*
X456052Y62834D01*
X496272D01*
X501162Y57944D01*
X401200Y57982D02*
X406052Y62834D01*
X446272D01*
X451162Y57944D01*
X351162D02*
X356015Y62797D01*
X396235D01*
X401125Y57907D01*
X351162Y51062D02*
Y57944D01*
X251125Y57907D02*
X255977Y62759D01*
X296197D01*
X301087Y57869D01*
X201162Y57944D02*
X206015Y62797D01*
X246235D01*
X251125Y57907D01*
X196272Y62834D02*
X201162Y57944D01*
X156052Y62834D02*
X196272D01*
X151200Y57982D02*
X156052Y62834D01*
X201162Y51062D02*
Y57944D01*
X151200Y51100D02*
Y57982D01*
X301087Y57869D02*
X309357Y66139D01*
X322757D01*
D22*
X251400Y214323D02*
Y208700D01*
X254212D01*
X255149Y209637D01*
Y210574D01*
X254212Y211512D01*
X251400D01*
X254212D01*
X255149Y212449D01*
Y213386D01*
X254212Y214323D01*
X251400D01*
X259835D02*
X257960D01*
X257023Y213386D01*
Y209637D01*
X257960Y208700D01*
X259835D01*
X260772Y209637D01*
Y213386D01*
X259835Y214323D01*
X262646D02*
X266395D01*
X264521D01*
Y208700D01*
X477952Y-56770D02*
Y-62393D01*
X480764D01*
X481701Y-61456D01*
Y-60518D01*
X480764Y-59581D01*
X477952D01*
X480764D01*
X481701Y-58644D01*
Y-57707D01*
X480764Y-56770D01*
X477952D01*
X486387D02*
X484513D01*
X483575Y-57707D01*
Y-61456D01*
X484513Y-62393D01*
X486387D01*
X487324Y-61456D01*
Y-57707D01*
X486387Y-56770D01*
X489198D02*
X492947D01*
X491073D01*
Y-62393D01*
D23*
X427962Y46928D02*
D03*
X420992Y52219D02*
D03*
X370992D02*
D03*
X377962Y46928D02*
D03*
X328000Y47000D02*
D03*
X321030Y52292D02*
D03*
X271030Y52257D02*
D03*
X278000Y46965D02*
D03*
X227962Y46928D02*
D03*
X220992Y52219D02*
D03*
X171030Y52257D02*
D03*
X178000Y46965D02*
D03*
X127962Y46928D02*
D03*
X120992Y52219D02*
D03*
X-36006Y28158D02*
D03*
X-83506Y23158D02*
D03*
X-78506D02*
D03*
X-73506D02*
D03*
X-68506D02*
D03*
X-63506D02*
D03*
X-58506D02*
D03*
X-53506D02*
D03*
X-48506D02*
D03*
X-43506D02*
D03*
X-38506D02*
D03*
X-41006Y28158D02*
D03*
X-46006D02*
D03*
X-51006D02*
D03*
X-56006D02*
D03*
X-61006D02*
D03*
X-66006D02*
D03*
X-71006D02*
D03*
X-76006D02*
D03*
X-81006D02*
D03*
X-86006D02*
D03*
X471030Y52257D02*
D03*
X478000Y46965D02*
D03*
X480874Y37200D02*
D03*
Y7200D02*
D03*
X430837Y37162D02*
D03*
Y7162D02*
D03*
X380837Y37162D02*
D03*
Y7162D02*
D03*
X330874Y37234D02*
D03*
Y7234D02*
D03*
X280874Y37200D02*
D03*
Y7200D02*
D03*
X230837Y7162D02*
D03*
X180837D02*
D03*
X230837Y37162D02*
D03*
X180837D02*
D03*
X130837D02*
D03*
X119266Y38787D02*
D03*
D24*
X-91706Y91055D02*
D03*
D25*
X-98985Y58232D02*
D03*
X-108985D02*
D03*
X-98985Y47338D02*
D03*
X-108985D02*
D03*
D26*
X324500Y117000D02*
D03*
X20000D02*
D03*
X536500D02*
D03*
D27*
X-17756Y28158D02*
D03*
X-104256D02*
D03*
D28*
X291000Y147400D02*
D03*
X241000D02*
D03*
X201000D02*
D03*
X151000D02*
D03*
X510900Y126700D02*
D03*
X501000Y147400D02*
D03*
X503600Y126700D02*
D03*
X451000Y147400D02*
D03*
X460900Y126700D02*
D03*
X363600D02*
D03*
X370900D02*
D03*
X361000Y147400D02*
D03*
X372000Y119068D02*
D03*
X491000Y143900D02*
D03*
X441000D02*
D03*
X401000D02*
D03*
X351000D02*
D03*
X281000D02*
D03*
X231000D02*
D03*
X191000D02*
D03*
X141000D02*
D03*
X413600Y126700D02*
D03*
X420900D02*
D03*
X411000Y147400D02*
D03*
X292000Y119068D02*
D03*
X410000Y119026D02*
D03*
X453600Y143900D02*
D03*
X413600D02*
D03*
X363600D02*
D03*
X293600D02*
D03*
X243600D02*
D03*
X503600D02*
D03*
X203600D02*
D03*
X153600D02*
D03*
X501200Y51100D02*
D03*
X451200D02*
D03*
X401200D02*
D03*
X177500Y143600D02*
D03*
X217500D02*
D03*
X267500D02*
D03*
X337500D02*
D03*
X387500D02*
D03*
X427500D02*
D03*
X477500D02*
D03*
X453041Y119068D02*
D03*
X503041D02*
D03*
X362000D02*
D03*
X170116Y147300D02*
D03*
X260116D02*
D03*
X380116D02*
D03*
X470116D02*
D03*
X175959Y119068D02*
D03*
X383800D02*
D03*
X464000D02*
D03*
X472500D02*
D03*
X522000Y70000D02*
D03*
X127500Y143600D02*
D03*
X351162Y51062D02*
D03*
X267147Y121065D02*
D03*
X202830Y117803D02*
D03*
X152109Y116907D02*
D03*
X164901D02*
D03*
X241566Y116595D02*
D03*
X251574Y116692D02*
D03*
X151200Y51100D02*
D03*
X201162Y51062D02*
D03*
X251200Y51100D02*
D03*
X301200Y51135D02*
D03*
X322757Y66139D02*
D03*
D37*
X288821Y147400D02*
X291000D01*
X287500Y148721D02*
Y163500D01*
Y148721D02*
X288821Y147400D01*
X238686D02*
X241000D01*
X237500Y148586D02*
Y163500D01*
Y148586D02*
X238686Y147400D01*
X198848D02*
X201000D01*
X197500Y148748D02*
Y163500D01*
Y148748D02*
X198848Y147400D01*
X147500Y148574D02*
Y163500D01*
X148674Y147400D02*
X151000D01*
X147500Y148574D02*
X148674Y147400D01*
X499537D02*
X501000D01*
X497500Y149437D02*
Y163500D01*
Y149437D02*
X499537Y147400D01*
X447500Y149122D02*
Y163500D01*
X449222Y147400D02*
X451000D01*
X447500Y149122D02*
X449222Y147400D01*
X357500Y148843D02*
Y163500D01*
X358943Y147400D02*
X361000D01*
X357500Y148843D02*
X358943Y147400D01*
X168199Y147300D02*
X170116D01*
X167500Y147999D02*
X168199Y147300D01*
X167500Y147999D02*
Y163500D01*
X258203Y147300D02*
X260116D01*
X257500Y148003D02*
X258203Y147300D01*
X257500Y148003D02*
Y163500D01*
X409301Y147400D02*
X411000D01*
X407500Y149201D02*
X409301Y147400D01*
X407500Y149201D02*
Y163500D01*
X487500Y147300D02*
X490900Y143900D01*
X487500Y147300D02*
Y163500D01*
X490900Y143900D02*
X491000D01*
X437500Y147300D02*
X440900Y143900D01*
X437500Y147300D02*
Y163500D01*
X440900Y143900D02*
X441000D01*
X397500Y147300D02*
Y163500D01*
X400900Y143900D02*
X401000D01*
X397500Y147300D02*
X400900Y143900D01*
X347500Y147300D02*
Y163500D01*
X350900Y143900D02*
X351000D01*
X347500Y147300D02*
X350900Y143900D01*
X280900D02*
X281000D01*
X277500Y147300D02*
Y163500D01*
Y147300D02*
X280900Y143900D01*
X230900D02*
X231000D01*
X227500Y147300D02*
Y163500D01*
Y147300D02*
X230900Y143900D01*
X190900D02*
X191000D01*
X187500Y147300D02*
Y163500D01*
Y147300D02*
X190900Y143900D01*
X137500Y147300D02*
X140900Y143900D01*
X137500Y147300D02*
Y163500D01*
X140900Y143900D02*
X141000D01*
X453600D02*
X457500Y147800D01*
Y163500D01*
X413600Y143900D02*
X417500Y147800D01*
Y163500D01*
X363600Y143900D02*
X367500Y147800D01*
Y163500D01*
X293600Y143900D02*
X297500Y147800D01*
Y163500D01*
X243600Y143900D02*
X247500Y147800D01*
Y163500D01*
X507500Y147800D02*
Y163500D01*
X503600Y143900D02*
X507500Y147800D01*
X207500D02*
Y163500D01*
X203600Y143900D02*
X207500Y147800D01*
X153600Y143900D02*
X157500Y147800D01*
Y163500D01*
X177500Y143600D02*
Y163500D01*
X217500Y143600D02*
Y163500D01*
X267500Y143600D02*
Y163500D01*
X337500Y143600D02*
Y163500D01*
X387500Y143600D02*
Y163500D01*
X427500Y143600D02*
Y163500D01*
X477500Y143600D02*
Y163500D01*
X377500Y149916D02*
Y163500D01*
Y149916D02*
X380116Y147300D01*
X467500Y149916D02*
Y163500D01*
Y149916D02*
X470116Y147300D01*
X127500Y143600D02*
Y163500D01*
M02*
