M48
;Layer_Color=9474304
;FILE_FORMAT=2:5
INCH,LZ
;TYPE=PLATED
T1F00S00C0.02500
T2F00S00C0.02800
T3F00S00C0.05000
%
T01
X0641Y0236
Y0246
Y0256
Y0266
Y0296
Y0306
X0611
Y0296
X0596
Y0306
X0566
Y0296
X0551
Y0306
X0521
Y0296
X0506
Y0306
X0476
Y0296
Y0266
Y0256
Y0246
Y0236
X0506
Y0246
Y0256
Y0266
X0521
Y0256
Y0246
Y0236
X0551
Y0246
Y0256
Y0266
X0566
Y0256
Y0246
Y0236
X0596
Y0246
Y0256
Y0266
X0611
Y0256
Y0246
Y0236
X0461
Y0246
Y0256
Y0266
X0431
Y0256
Y0246
Y0236
X0416
Y0246
Y0256
Y0266
X0386
Y0256
Y0246
Y0236
X0371
Y0246
Y0256
Y0266
X0341
Y0256
Y0246
Y0236
X0326
Y0246
Y0256
Y0266
Y0296
Y0306
X0341
Y0296
X0371
Y0306
X0386
Y0296
X0416
Y0306
X0431
Y0296
X0461
Y0306
X0296
Y0296
X0281
Y0306
X0251
Y0296
X0236
Y0306
X0206
Y0296
X0191
Y0306
X0161
Y0296
Y0266
Y0256
Y0246
Y0236
X0191
Y0246
Y0256
Y0266
X0206
Y0256
Y0246
Y0236
X0236
Y0246
Y0256
Y0266
X0251
Y0256
Y0246
Y0236
X0281
Y0246
Y0256
Y0266
X0296
Y0256
Y0246
Y0236
Y0316
Y0326
X0281
Y0316
X0251
Y0326
X0236
Y0316
X0206
Y0326
X0191
Y0316
X0161
Y0326
Y0356
Y0366
Y0376
Y0386
X0191
Y0376
Y0366
Y0356
X0206
Y0366
Y0376
Y0386
X0236
Y0376
Y0366
Y0356
X0251
Y0366
Y0376
Y0386
X0281
Y0376
Y0366
Y0356
X0296
Y0366
Y0376
Y0386
X0326
Y0376
Y0366
Y0356
X0341
Y0366
Y0376
Y0386
X0371
Y0376
Y0366
Y0356
X0386
Y0366
Y0376
Y0386
X0416
Y0376
Y0366
Y0356
X0431
Y0366
Y0376
Y0386
X0461
Y0376
Y0366
Y0356
Y0326
Y0316
X0431
Y0326
X0416
Y0316
X0386
Y0326
X0371
Y0316
X0341
Y0326
X0326
Y0316
X0476
Y0326
X0506
Y0316
X0521
Y0326
X0551
Y0316
X0566
Y0326
X0596
Y0316
X0611
Y0326
Y0356
Y0366
Y0376
Y0386
X0596
Y0376
Y0366
Y0356
X0566
Y0366
Y0376
Y0386
X0551
Y0376
Y0366
Y0356
X0521
Y0366
Y0376
Y0386
X0506
Y0376
Y0366
Y0356
X0476
Y0366
Y0376
Y0386
X0641
Y0376
Y0366
Y0356
Y0326
Y0316
T02
X06275Y0249
X0638Y0241
Y0301
X06275Y0309
X0616Y0312
X0593Y0301
X05825Y0309
X0571Y0312
X0548Y0301
X05375Y0309
X0526Y0312
X0503Y0301
X04925Y0309
X0481Y0312
Y0252
X04875Y02545
X04925Y0249
X0503Y0241
X0526Y0252
X05325Y02545
X05375Y0249
X0548Y0241
X0571Y0252
X05775Y02545
X05825Y0249
X0593Y0241
X0616Y0252
X06225Y02545
X0458Y0241
X04475Y0249
X04425Y02545
X0436Y0252
X0413Y0241
X04025Y0249
X03975Y02545
X0391Y0252
X0368Y0241
X03575Y0249
X03525Y02545
X0346Y0252
X0323Y0241
X03125Y0249
Y0309
X0323Y0301
X0346Y0312
X03575Y0309
X0368Y0301
X0391Y0312
X04025Y0309
X0413Y0301
X0436Y0312
X04475Y0309
X0458Y0301
X0301Y0312
X0278Y0301
X02675Y0309
X0256Y0312
X0233Y0301
X02225Y0309
X0211Y0312
X0188Y0301
X01775Y0309
X0166Y0312
Y0252
X01725Y02545
X01775Y0249
X0188Y0241
X0211Y0252
X02175Y02545
X02225Y0249
X0233Y0241
X0256Y0252
X02625Y02545
X02675Y0249
X0278Y0241
X0301Y0252
X03075Y02545
Y03145
X02625
X02175
X01725
X01775Y0369
X01725Y03745
X0166Y0372
X0188Y0361
X0211Y0372
X02175Y03745
X02225Y0369
X0233Y0361
X0256Y0372
X02625Y03745
X02675Y0369
X0278Y0361
X0301Y0372
X03075Y03745
X03125Y0369
X0323Y0361
X0346Y0372
X03525Y03745
X03575Y0369
X0368Y0361
X0391Y0372
X03975Y03745
X04025Y0369
X0413Y0361
X0436Y0372
X04425Y03745
X04475Y0369
X0458Y0361
X04425Y03145
X03975
X03525
X04875
X05325
X05775
X06225
Y03745
X0616Y0372
X0593Y0361
X05825Y0369
X05775Y03745
X0571Y0372
X0548Y0361
X05375Y0369
X05325Y03745
X0526Y0372
X0503Y0361
X04925Y0369
X04875Y03745
X0481Y0372
X06275Y0369
X0638Y0361
T03
X0476Y02235
X0521
X0566
X0611
Y02835
X0566
X0521
X0476
X0431
X0386
X0341
Y02235
X0386
X0431
X0296
X0251
X0206
X0161
Y02835
X0206
X0251
X0296
Y03435
X0251
X0206
X0161
X0341
X0386
X0431
X0476
X0521
X0566
X0611
M30
