%FSLAX25Y25*%
%MOIN*%
G70*
G01*
G75*
G04 Layer_Physical_Order=1*
G04 Layer_Color=255*
%ADD10R,0.03600X0.03200*%
%ADD11C,0.02000*%
%ADD12R,0.02600X0.08000*%
%ADD13C,0.02000*%
%ADD14C,0.00500*%
%ADD15C,0.00300*%
%ADD16R,0.07000X0.07000*%
%ADD17R,0.04000X0.04000*%
%ADD18C,0.04000*%
%ADD19C,0.05000*%
D10*
X177500Y231500D02*
D03*
X183500D02*
D03*
X177500Y224000D02*
D03*
X183500D02*
D03*
X222500Y231500D02*
D03*
X228500D02*
D03*
X222500Y224000D02*
D03*
X228500D02*
D03*
X267500Y231500D02*
D03*
X273500D02*
D03*
X267500Y224000D02*
D03*
X273500D02*
D03*
X312500Y231500D02*
D03*
X318500D02*
D03*
X312500Y224000D02*
D03*
X318500D02*
D03*
X357500Y231500D02*
D03*
X363500D02*
D03*
X357500Y224000D02*
D03*
X363500D02*
D03*
X402500Y231500D02*
D03*
X408500D02*
D03*
X402500Y224000D02*
D03*
X408500D02*
D03*
X447500Y231500D02*
D03*
X453500D02*
D03*
X447500Y224000D02*
D03*
X453500D02*
D03*
X492500Y231500D02*
D03*
X498500D02*
D03*
X492500Y224000D02*
D03*
X498500D02*
D03*
X537500Y231500D02*
D03*
X543500D02*
D03*
X537500Y224000D02*
D03*
X543500D02*
D03*
X582500Y231500D02*
D03*
X588500D02*
D03*
X582500Y224000D02*
D03*
X588500D02*
D03*
X627500Y231500D02*
D03*
X633500D02*
D03*
X627500Y224000D02*
D03*
X633500D02*
D03*
X177500Y291500D02*
D03*
X183500D02*
D03*
X177500Y284000D02*
D03*
X183500D02*
D03*
X222500Y291500D02*
D03*
X228500D02*
D03*
X222500Y284000D02*
D03*
X228500D02*
D03*
X267500Y291500D02*
D03*
X273500D02*
D03*
X267500Y284000D02*
D03*
X273500D02*
D03*
X312500Y291500D02*
D03*
X318500D02*
D03*
X312500Y284000D02*
D03*
X318500D02*
D03*
X357500Y291500D02*
D03*
X363500D02*
D03*
X357500Y284000D02*
D03*
X363500D02*
D03*
X402500Y291500D02*
D03*
X408500D02*
D03*
X402500Y284000D02*
D03*
X408500D02*
D03*
X447500Y291500D02*
D03*
X453500D02*
D03*
X447500Y284000D02*
D03*
X453500D02*
D03*
X492500Y291500D02*
D03*
X498500D02*
D03*
X492500Y284000D02*
D03*
X498500D02*
D03*
X537500Y291500D02*
D03*
X543500D02*
D03*
X537500Y284000D02*
D03*
X543500D02*
D03*
X582500Y291500D02*
D03*
X588500D02*
D03*
X582500Y284000D02*
D03*
X588500D02*
D03*
X627500Y291500D02*
D03*
X633500D02*
D03*
X627500Y284000D02*
D03*
X633500D02*
D03*
X177500Y351500D02*
D03*
X183500D02*
D03*
X177500Y344000D02*
D03*
X183500D02*
D03*
X222500Y351500D02*
D03*
X228500D02*
D03*
X222500Y344000D02*
D03*
X228500D02*
D03*
X267500Y351500D02*
D03*
X273500D02*
D03*
X267500Y344000D02*
D03*
X273500D02*
D03*
X312500Y351500D02*
D03*
X318500D02*
D03*
X312500Y344000D02*
D03*
X318500D02*
D03*
X357500Y351500D02*
D03*
X363500D02*
D03*
X357500Y344000D02*
D03*
X363500D02*
D03*
X402500Y351500D02*
D03*
X408500D02*
D03*
X402500Y344000D02*
D03*
X408500D02*
D03*
X447500Y351500D02*
D03*
X453500D02*
D03*
X447500Y344000D02*
D03*
X453500D02*
D03*
X492500Y351500D02*
D03*
X498500D02*
D03*
X492500Y344000D02*
D03*
X498500D02*
D03*
X537500Y351500D02*
D03*
X543500D02*
D03*
X537500Y344000D02*
D03*
X543500D02*
D03*
X582500Y351500D02*
D03*
X588500D02*
D03*
X582500Y344000D02*
D03*
X588500D02*
D03*
X627500Y351500D02*
D03*
X633500D02*
D03*
X627500Y344000D02*
D03*
X633500D02*
D03*
D11*
X164500Y239000D02*
D03*
X209500D02*
D03*
X254500D02*
D03*
X299500D02*
D03*
X344500D02*
D03*
X389500D02*
D03*
X434500D02*
D03*
X479500D02*
D03*
X524500D02*
D03*
X569500D02*
D03*
X614500D02*
D03*
X164500Y299000D02*
D03*
X209500D02*
D03*
X254500D02*
D03*
X299500D02*
D03*
X344500D02*
D03*
X389500D02*
D03*
X434500D02*
D03*
X479500D02*
D03*
X524500D02*
D03*
X569500D02*
D03*
X614500D02*
D03*
X164500Y359000D02*
D03*
X209500D02*
D03*
X254500D02*
D03*
X299500D02*
D03*
X344500D02*
D03*
X389500D02*
D03*
X434500D02*
D03*
X479500D02*
D03*
X524500D02*
D03*
X569500D02*
D03*
X614500D02*
D03*
D12*
X177500Y241500D02*
D03*
X172500D02*
D03*
X182500D02*
D03*
X167500D02*
D03*
X182500Y262000D02*
D03*
X167500D02*
D03*
X172500D02*
D03*
X177500D02*
D03*
X222500Y241500D02*
D03*
X217500D02*
D03*
X227500D02*
D03*
X212500D02*
D03*
X227500Y262000D02*
D03*
X212500D02*
D03*
X217500D02*
D03*
X222500D02*
D03*
X267500Y241500D02*
D03*
X262500D02*
D03*
X272500D02*
D03*
X257500D02*
D03*
X272500Y262000D02*
D03*
X257500D02*
D03*
X262500D02*
D03*
X267500D02*
D03*
X312500Y241500D02*
D03*
X307500D02*
D03*
X317500D02*
D03*
X302500D02*
D03*
X317500Y262000D02*
D03*
X302500D02*
D03*
X307500D02*
D03*
X312500D02*
D03*
X357500Y241500D02*
D03*
X352500D02*
D03*
X362500D02*
D03*
X347500D02*
D03*
X362500Y262000D02*
D03*
X347500D02*
D03*
X352500D02*
D03*
X357500D02*
D03*
X402500Y241500D02*
D03*
X397500D02*
D03*
X407500D02*
D03*
X392500D02*
D03*
X407500Y262000D02*
D03*
X392500D02*
D03*
X397500D02*
D03*
X402500D02*
D03*
X447500Y241500D02*
D03*
X442500D02*
D03*
X452500D02*
D03*
X437500D02*
D03*
X452500Y262000D02*
D03*
X437500D02*
D03*
X442500D02*
D03*
X447500D02*
D03*
X492500Y241500D02*
D03*
X487500D02*
D03*
X497500D02*
D03*
X482500D02*
D03*
X497500Y262000D02*
D03*
X482500D02*
D03*
X487500D02*
D03*
X492500D02*
D03*
X537500Y241500D02*
D03*
X532500D02*
D03*
X542500D02*
D03*
X527500D02*
D03*
X542500Y262000D02*
D03*
X527500D02*
D03*
X532500D02*
D03*
X537500D02*
D03*
X582500Y241500D02*
D03*
X577500D02*
D03*
X587500D02*
D03*
X572500D02*
D03*
X587500Y262000D02*
D03*
X572500D02*
D03*
X577500D02*
D03*
X582500D02*
D03*
X627500Y241500D02*
D03*
X622500D02*
D03*
X632500D02*
D03*
X617500D02*
D03*
X632500Y262000D02*
D03*
X617500D02*
D03*
X622500D02*
D03*
X627500D02*
D03*
X177500Y301500D02*
D03*
X172500D02*
D03*
X182500D02*
D03*
X167500D02*
D03*
X182500Y322000D02*
D03*
X167500D02*
D03*
X172500D02*
D03*
X177500D02*
D03*
X222500Y301500D02*
D03*
X217500D02*
D03*
X227500D02*
D03*
X212500D02*
D03*
X227500Y322000D02*
D03*
X212500D02*
D03*
X217500D02*
D03*
X222500D02*
D03*
X267500Y301500D02*
D03*
X262500D02*
D03*
X272500D02*
D03*
X257500D02*
D03*
X272500Y322000D02*
D03*
X257500D02*
D03*
X262500D02*
D03*
X267500D02*
D03*
X312500Y301500D02*
D03*
X307500D02*
D03*
X317500D02*
D03*
X302500D02*
D03*
X317500Y322000D02*
D03*
X302500D02*
D03*
X307500D02*
D03*
X312500D02*
D03*
X357500Y301500D02*
D03*
X352500D02*
D03*
X362500D02*
D03*
X347500D02*
D03*
X362500Y322000D02*
D03*
X347500D02*
D03*
X352500D02*
D03*
X357500D02*
D03*
X402500Y301500D02*
D03*
X397500D02*
D03*
X407500D02*
D03*
X392500D02*
D03*
X407500Y322000D02*
D03*
X392500D02*
D03*
X397500D02*
D03*
X402500D02*
D03*
X447500Y301500D02*
D03*
X442500D02*
D03*
X452500D02*
D03*
X437500D02*
D03*
X452500Y322000D02*
D03*
X437500D02*
D03*
X442500D02*
D03*
X447500D02*
D03*
X492500Y301500D02*
D03*
X487500D02*
D03*
X497500D02*
D03*
X482500D02*
D03*
X497500Y322000D02*
D03*
X482500D02*
D03*
X487500D02*
D03*
X492500D02*
D03*
X537500Y301500D02*
D03*
X532500D02*
D03*
X542500D02*
D03*
X527500D02*
D03*
X542500Y322000D02*
D03*
X527500D02*
D03*
X532500D02*
D03*
X537500D02*
D03*
X582500Y301500D02*
D03*
X577500D02*
D03*
X587500D02*
D03*
X572500D02*
D03*
X587500Y322000D02*
D03*
X572500D02*
D03*
X577500D02*
D03*
X582500D02*
D03*
X627500Y301500D02*
D03*
X622500D02*
D03*
X632500D02*
D03*
X617500D02*
D03*
X632500Y322000D02*
D03*
X617500D02*
D03*
X622500D02*
D03*
X627500D02*
D03*
X177500Y361500D02*
D03*
X172500D02*
D03*
X182500D02*
D03*
X167500D02*
D03*
X182500Y382000D02*
D03*
X167500D02*
D03*
X172500D02*
D03*
X177500D02*
D03*
X222500Y361500D02*
D03*
X217500D02*
D03*
X227500D02*
D03*
X212500D02*
D03*
X227500Y382000D02*
D03*
X212500D02*
D03*
X217500D02*
D03*
X222500D02*
D03*
X267500Y361500D02*
D03*
X262500D02*
D03*
X272500D02*
D03*
X257500D02*
D03*
X272500Y382000D02*
D03*
X257500D02*
D03*
X262500D02*
D03*
X267500D02*
D03*
X312500Y361500D02*
D03*
X307500D02*
D03*
X317500D02*
D03*
X302500D02*
D03*
X317500Y382000D02*
D03*
X302500D02*
D03*
X307500D02*
D03*
X312500D02*
D03*
X357500Y361500D02*
D03*
X352500D02*
D03*
X362500D02*
D03*
X347500D02*
D03*
X362500Y382000D02*
D03*
X347500D02*
D03*
X352500D02*
D03*
X357500D02*
D03*
X402500Y361500D02*
D03*
X397500D02*
D03*
X407500D02*
D03*
X392500D02*
D03*
X407500Y382000D02*
D03*
X392500D02*
D03*
X397500D02*
D03*
X402500D02*
D03*
X447500Y361500D02*
D03*
X442500D02*
D03*
X452500D02*
D03*
X437500D02*
D03*
X452500Y382000D02*
D03*
X437500D02*
D03*
X442500D02*
D03*
X447500D02*
D03*
X492500Y361500D02*
D03*
X487500D02*
D03*
X497500D02*
D03*
X482500D02*
D03*
X497500Y382000D02*
D03*
X482500D02*
D03*
X487500D02*
D03*
X492500D02*
D03*
X537500Y361500D02*
D03*
X532500D02*
D03*
X542500D02*
D03*
X527500D02*
D03*
X542500Y382000D02*
D03*
X527500D02*
D03*
X532500D02*
D03*
X537500D02*
D03*
X582500Y361500D02*
D03*
X577500D02*
D03*
X587500D02*
D03*
X572500D02*
D03*
X587500Y382000D02*
D03*
X572500D02*
D03*
X577500D02*
D03*
X582500D02*
D03*
X627500Y361500D02*
D03*
X622500D02*
D03*
X632500D02*
D03*
X617500D02*
D03*
X632500Y382000D02*
D03*
X617500D02*
D03*
X622500D02*
D03*
X627500D02*
D03*
D13*
X167500Y230000D02*
Y241500D01*
X161000Y223500D02*
X167500Y230000D01*
X182500Y241500D02*
X183000Y241000D01*
X188000D01*
X182500Y254000D02*
Y262000D01*
X177500Y249000D02*
X182500Y254000D01*
X181000Y269500D02*
X188500D01*
X177500Y266000D02*
X181000Y269500D01*
X177500Y262000D02*
Y266000D01*
X188500Y269500D02*
X191000Y267000D01*
Y266000D02*
Y267000D01*
X166000Y252364D02*
X168000Y254364D01*
X166000Y252000D02*
Y252364D01*
X168000Y254364D02*
Y261500D01*
X172500Y254500D02*
Y262000D01*
X167500D02*
X168000Y261500D01*
X172500Y229000D02*
Y241500D01*
Y229000D02*
X177500Y224000D01*
Y231500D02*
Y241500D01*
X191000Y230000D02*
Y236000D01*
X189000Y228000D02*
X191000Y230000D01*
X183500Y228000D02*
X189000D01*
X183500D02*
Y231500D01*
Y224000D02*
Y228000D01*
X212500Y230000D02*
Y241500D01*
X206000Y223500D02*
X212500Y230000D01*
X227500Y241500D02*
X228000Y241000D01*
X233000D01*
X227500Y254000D02*
Y262000D01*
X222500Y249000D02*
X227500Y254000D01*
X226000Y269500D02*
X233500D01*
X222500Y266000D02*
X226000Y269500D01*
X222500Y262000D02*
Y266000D01*
X233500Y269500D02*
X236000Y267000D01*
Y266000D02*
Y267000D01*
X211000Y252364D02*
X213000Y254364D01*
X211000Y252000D02*
Y252364D01*
X213000Y254364D02*
Y261500D01*
X217500Y254500D02*
Y262000D01*
X212500D02*
X213000Y261500D01*
X217500Y229000D02*
Y241500D01*
Y229000D02*
X222500Y224000D01*
Y231500D02*
Y241500D01*
X236000Y230000D02*
Y236000D01*
X234000Y228000D02*
X236000Y230000D01*
X228500Y228000D02*
X234000D01*
X228500D02*
Y231500D01*
Y224000D02*
Y228000D01*
X257500Y230000D02*
Y241500D01*
X251000Y223500D02*
X257500Y230000D01*
X272500Y241500D02*
X273000Y241000D01*
X278000D01*
X272500Y254000D02*
Y262000D01*
X267500Y249000D02*
X272500Y254000D01*
X271000Y269500D02*
X278500D01*
X267500Y266000D02*
X271000Y269500D01*
X267500Y262000D02*
Y266000D01*
X278500Y269500D02*
X281000Y267000D01*
Y266000D02*
Y267000D01*
X256000Y252364D02*
X258000Y254364D01*
X256000Y252000D02*
Y252364D01*
X258000Y254364D02*
Y261500D01*
X262500Y254500D02*
Y262000D01*
X257500D02*
X258000Y261500D01*
X262500Y229000D02*
Y241500D01*
Y229000D02*
X267500Y224000D01*
Y231500D02*
Y241500D01*
X281000Y230000D02*
Y236000D01*
X279000Y228000D02*
X281000Y230000D01*
X273500Y228000D02*
X279000D01*
X273500D02*
Y231500D01*
Y224000D02*
Y228000D01*
X302500Y230000D02*
Y241500D01*
X296000Y223500D02*
X302500Y230000D01*
X317500Y241500D02*
X318000Y241000D01*
X323000D01*
X317500Y254000D02*
Y262000D01*
X312500Y249000D02*
X317500Y254000D01*
X316000Y269500D02*
X323500D01*
X312500Y266000D02*
X316000Y269500D01*
X312500Y262000D02*
Y266000D01*
X323500Y269500D02*
X326000Y267000D01*
Y266000D02*
Y267000D01*
X301000Y252364D02*
X303000Y254364D01*
X301000Y252000D02*
Y252364D01*
X303000Y254364D02*
Y261500D01*
X307500Y254500D02*
Y262000D01*
X302500D02*
X303000Y261500D01*
X307500Y229000D02*
Y241500D01*
Y229000D02*
X312500Y224000D01*
Y231500D02*
Y241500D01*
X326000Y230000D02*
Y236000D01*
X324000Y228000D02*
X326000Y230000D01*
X318500Y228000D02*
X324000D01*
X318500D02*
Y231500D01*
Y224000D02*
Y228000D01*
X347500Y230000D02*
Y241500D01*
X341000Y223500D02*
X347500Y230000D01*
X362500Y241500D02*
X363000Y241000D01*
X368000D01*
X362500Y254000D02*
Y262000D01*
X357500Y249000D02*
X362500Y254000D01*
X361000Y269500D02*
X368500D01*
X357500Y266000D02*
X361000Y269500D01*
X357500Y262000D02*
Y266000D01*
X368500Y269500D02*
X371000Y267000D01*
Y266000D02*
Y267000D01*
X346000Y252364D02*
X348000Y254364D01*
X346000Y252000D02*
Y252364D01*
X348000Y254364D02*
Y261500D01*
X352500Y254500D02*
Y262000D01*
X347500D02*
X348000Y261500D01*
X352500Y229000D02*
Y241500D01*
Y229000D02*
X357500Y224000D01*
Y231500D02*
Y241500D01*
X371000Y230000D02*
Y236000D01*
X369000Y228000D02*
X371000Y230000D01*
X363500Y228000D02*
X369000D01*
X363500D02*
Y231500D01*
Y224000D02*
Y228000D01*
X392500Y230000D02*
Y241500D01*
X386000Y223500D02*
X392500Y230000D01*
X407500Y241500D02*
X408000Y241000D01*
X413000D01*
X407500Y254000D02*
Y262000D01*
X402500Y249000D02*
X407500Y254000D01*
X406000Y269500D02*
X413500D01*
X402500Y266000D02*
X406000Y269500D01*
X402500Y262000D02*
Y266000D01*
X413500Y269500D02*
X416000Y267000D01*
Y266000D02*
Y267000D01*
X391000Y252364D02*
X393000Y254364D01*
X391000Y252000D02*
Y252364D01*
X393000Y254364D02*
Y261500D01*
X397500Y254500D02*
Y262000D01*
X392500D02*
X393000Y261500D01*
X397500Y229000D02*
Y241500D01*
Y229000D02*
X402500Y224000D01*
Y231500D02*
Y241500D01*
X416000Y230000D02*
Y236000D01*
X414000Y228000D02*
X416000Y230000D01*
X408500Y228000D02*
X414000D01*
X408500D02*
Y231500D01*
Y224000D02*
Y228000D01*
X437500Y230000D02*
Y241500D01*
X431000Y223500D02*
X437500Y230000D01*
X452500Y241500D02*
X453000Y241000D01*
X458000D01*
X452500Y254000D02*
Y262000D01*
X447500Y249000D02*
X452500Y254000D01*
X451000Y269500D02*
X458500D01*
X447500Y266000D02*
X451000Y269500D01*
X447500Y262000D02*
Y266000D01*
X458500Y269500D02*
X461000Y267000D01*
Y266000D02*
Y267000D01*
X436000Y252364D02*
X438000Y254364D01*
X436000Y252000D02*
Y252364D01*
X438000Y254364D02*
Y261500D01*
X442500Y254500D02*
Y262000D01*
X437500D02*
X438000Y261500D01*
X442500Y229000D02*
Y241500D01*
Y229000D02*
X447500Y224000D01*
Y231500D02*
Y241500D01*
X461000Y230000D02*
Y236000D01*
X459000Y228000D02*
X461000Y230000D01*
X453500Y228000D02*
X459000D01*
X453500D02*
Y231500D01*
Y224000D02*
Y228000D01*
X482500Y230000D02*
Y241500D01*
X476000Y223500D02*
X482500Y230000D01*
X497500Y241500D02*
X498000Y241000D01*
X503000D01*
X497500Y254000D02*
Y262000D01*
X492500Y249000D02*
X497500Y254000D01*
X496000Y269500D02*
X503500D01*
X492500Y266000D02*
X496000Y269500D01*
X492500Y262000D02*
Y266000D01*
X503500Y269500D02*
X506000Y267000D01*
Y266000D02*
Y267000D01*
X481000Y252364D02*
X483000Y254364D01*
X481000Y252000D02*
Y252364D01*
X483000Y254364D02*
Y261500D01*
X487500Y254500D02*
Y262000D01*
X482500D02*
X483000Y261500D01*
X487500Y229000D02*
Y241500D01*
Y229000D02*
X492500Y224000D01*
Y231500D02*
Y241500D01*
X506000Y230000D02*
Y236000D01*
X504000Y228000D02*
X506000Y230000D01*
X498500Y228000D02*
X504000D01*
X498500D02*
Y231500D01*
Y224000D02*
Y228000D01*
X527500Y230000D02*
Y241500D01*
X521000Y223500D02*
X527500Y230000D01*
X542500Y241500D02*
X543000Y241000D01*
X548000D01*
X542500Y254000D02*
Y262000D01*
X537500Y249000D02*
X542500Y254000D01*
X541000Y269500D02*
X548500D01*
X537500Y266000D02*
X541000Y269500D01*
X537500Y262000D02*
Y266000D01*
X548500Y269500D02*
X551000Y267000D01*
Y266000D02*
Y267000D01*
X526000Y252364D02*
X528000Y254364D01*
X526000Y252000D02*
Y252364D01*
X528000Y254364D02*
Y261500D01*
X532500Y254500D02*
Y262000D01*
X527500D02*
X528000Y261500D01*
X532500Y229000D02*
Y241500D01*
Y229000D02*
X537500Y224000D01*
Y231500D02*
Y241500D01*
X551000Y230000D02*
Y236000D01*
X549000Y228000D02*
X551000Y230000D01*
X543500Y228000D02*
X549000D01*
X543500D02*
Y231500D01*
Y224000D02*
Y228000D01*
X572500Y230000D02*
Y241500D01*
X566000Y223500D02*
X572500Y230000D01*
X587500Y241500D02*
X588000Y241000D01*
X593000D01*
X587500Y254000D02*
Y262000D01*
X582500Y249000D02*
X587500Y254000D01*
X586000Y269500D02*
X593500D01*
X582500Y266000D02*
X586000Y269500D01*
X582500Y262000D02*
Y266000D01*
X593500Y269500D02*
X596000Y267000D01*
Y266000D02*
Y267000D01*
X571000Y252364D02*
X573000Y254364D01*
X571000Y252000D02*
Y252364D01*
X573000Y254364D02*
Y261500D01*
X577500Y254500D02*
Y262000D01*
X572500D02*
X573000Y261500D01*
X577500Y229000D02*
Y241500D01*
Y229000D02*
X582500Y224000D01*
Y231500D02*
Y241500D01*
X596000Y230000D02*
Y236000D01*
X594000Y228000D02*
X596000Y230000D01*
X588500Y228000D02*
X594000D01*
X588500D02*
Y231500D01*
Y224000D02*
Y228000D01*
X617500Y230000D02*
Y241500D01*
X611000Y223500D02*
X617500Y230000D01*
X632500Y241500D02*
X633000Y241000D01*
X638000D01*
X632500Y254000D02*
Y262000D01*
X627500Y249000D02*
X632500Y254000D01*
X631000Y269500D02*
X638500D01*
X627500Y266000D02*
X631000Y269500D01*
X627500Y262000D02*
Y266000D01*
X638500Y269500D02*
X641000Y267000D01*
Y266000D02*
Y267000D01*
X616000Y252364D02*
X618000Y254364D01*
X616000Y252000D02*
Y252364D01*
X618000Y254364D02*
Y261500D01*
X622500Y254500D02*
Y262000D01*
X617500D02*
X618000Y261500D01*
X622500Y229000D02*
Y241500D01*
Y229000D02*
X627500Y224000D01*
Y231500D02*
Y241500D01*
X641000Y230000D02*
Y236000D01*
X639000Y228000D02*
X641000Y230000D01*
X633500Y228000D02*
X639000D01*
X633500D02*
Y231500D01*
Y224000D02*
Y228000D01*
X167500Y290000D02*
Y301500D01*
X161000Y283500D02*
X167500Y290000D01*
X182500Y301500D02*
X183000Y301000D01*
X188000D01*
X182500Y314000D02*
Y322000D01*
X177500Y309000D02*
X182500Y314000D01*
X181000Y329500D02*
X188500D01*
X177500Y326000D02*
X181000Y329500D01*
X177500Y322000D02*
Y326000D01*
X188500Y329500D02*
X191000Y327000D01*
Y326000D02*
Y327000D01*
X166000Y312364D02*
X168000Y314364D01*
X166000Y312000D02*
Y312364D01*
X168000Y314364D02*
Y321500D01*
X172500Y314500D02*
Y322000D01*
X167500D02*
X168000Y321500D01*
X172500Y289000D02*
Y301500D01*
Y289000D02*
X177500Y284000D01*
Y291500D02*
Y301500D01*
X191000Y290000D02*
Y296000D01*
X189000Y288000D02*
X191000Y290000D01*
X183500Y288000D02*
X189000D01*
X183500D02*
Y291500D01*
Y284000D02*
Y288000D01*
X212500Y290000D02*
Y301500D01*
X206000Y283500D02*
X212500Y290000D01*
X227500Y301500D02*
X228000Y301000D01*
X233000D01*
X227500Y314000D02*
Y322000D01*
X222500Y309000D02*
X227500Y314000D01*
X226000Y329500D02*
X233500D01*
X222500Y326000D02*
X226000Y329500D01*
X222500Y322000D02*
Y326000D01*
X233500Y329500D02*
X236000Y327000D01*
Y326000D02*
Y327000D01*
X211000Y312364D02*
X213000Y314364D01*
X211000Y312000D02*
Y312364D01*
X213000Y314364D02*
Y321500D01*
X217500Y314500D02*
Y322000D01*
X212500D02*
X213000Y321500D01*
X217500Y289000D02*
Y301500D01*
Y289000D02*
X222500Y284000D01*
Y291500D02*
Y301500D01*
X236000Y290000D02*
Y296000D01*
X234000Y288000D02*
X236000Y290000D01*
X228500Y288000D02*
X234000D01*
X228500D02*
Y291500D01*
Y284000D02*
Y288000D01*
X257500Y290000D02*
Y301500D01*
X251000Y283500D02*
X257500Y290000D01*
X272500Y301500D02*
X273000Y301000D01*
X278000D01*
X272500Y314000D02*
Y322000D01*
X267500Y309000D02*
X272500Y314000D01*
X271000Y329500D02*
X278500D01*
X267500Y326000D02*
X271000Y329500D01*
X267500Y322000D02*
Y326000D01*
X278500Y329500D02*
X281000Y327000D01*
Y326000D02*
Y327000D01*
X256000Y312364D02*
X258000Y314364D01*
X256000Y312000D02*
Y312364D01*
X258000Y314364D02*
Y321500D01*
X262500Y314500D02*
Y322000D01*
X257500D02*
X258000Y321500D01*
X262500Y289000D02*
Y301500D01*
Y289000D02*
X267500Y284000D01*
Y291500D02*
Y301500D01*
X281000Y290000D02*
Y296000D01*
X279000Y288000D02*
X281000Y290000D01*
X273500Y288000D02*
X279000D01*
X273500D02*
Y291500D01*
Y284000D02*
Y288000D01*
X302500Y290000D02*
Y301500D01*
X296000Y283500D02*
X302500Y290000D01*
X317500Y301500D02*
X318000Y301000D01*
X323000D01*
X317500Y314000D02*
Y322000D01*
X312500Y309000D02*
X317500Y314000D01*
X316000Y329500D02*
X323500D01*
X312500Y326000D02*
X316000Y329500D01*
X312500Y322000D02*
Y326000D01*
X323500Y329500D02*
X326000Y327000D01*
Y326000D02*
Y327000D01*
X301000Y312364D02*
X303000Y314364D01*
X301000Y312000D02*
Y312364D01*
X303000Y314364D02*
Y321500D01*
X307500Y314500D02*
Y322000D01*
X302500D02*
X303000Y321500D01*
X307500Y289000D02*
Y301500D01*
Y289000D02*
X312500Y284000D01*
Y291500D02*
Y301500D01*
X326000Y290000D02*
Y296000D01*
X324000Y288000D02*
X326000Y290000D01*
X318500Y288000D02*
X324000D01*
X318500D02*
Y291500D01*
Y284000D02*
Y288000D01*
X347500Y290000D02*
Y301500D01*
X341000Y283500D02*
X347500Y290000D01*
X362500Y301500D02*
X363000Y301000D01*
X368000D01*
X362500Y314000D02*
Y322000D01*
X357500Y309000D02*
X362500Y314000D01*
X361000Y329500D02*
X368500D01*
X357500Y326000D02*
X361000Y329500D01*
X357500Y322000D02*
Y326000D01*
X368500Y329500D02*
X371000Y327000D01*
Y326000D02*
Y327000D01*
X346000Y312364D02*
X348000Y314364D01*
X346000Y312000D02*
Y312364D01*
X348000Y314364D02*
Y321500D01*
X352500Y314500D02*
Y322000D01*
X347500D02*
X348000Y321500D01*
X352500Y289000D02*
Y301500D01*
Y289000D02*
X357500Y284000D01*
Y291500D02*
Y301500D01*
X371000Y290000D02*
Y296000D01*
X369000Y288000D02*
X371000Y290000D01*
X363500Y288000D02*
X369000D01*
X363500D02*
Y291500D01*
Y284000D02*
Y288000D01*
X392500Y290000D02*
Y301500D01*
X386000Y283500D02*
X392500Y290000D01*
X407500Y301500D02*
X408000Y301000D01*
X413000D01*
X407500Y314000D02*
Y322000D01*
X402500Y309000D02*
X407500Y314000D01*
X406000Y329500D02*
X413500D01*
X402500Y326000D02*
X406000Y329500D01*
X402500Y322000D02*
Y326000D01*
X413500Y329500D02*
X416000Y327000D01*
Y326000D02*
Y327000D01*
X391000Y312364D02*
X393000Y314364D01*
X391000Y312000D02*
Y312364D01*
X393000Y314364D02*
Y321500D01*
X397500Y314500D02*
Y322000D01*
X392500D02*
X393000Y321500D01*
X397500Y289000D02*
Y301500D01*
Y289000D02*
X402500Y284000D01*
Y291500D02*
Y301500D01*
X416000Y290000D02*
Y296000D01*
X414000Y288000D02*
X416000Y290000D01*
X408500Y288000D02*
X414000D01*
X408500D02*
Y291500D01*
Y284000D02*
Y288000D01*
X437500Y290000D02*
Y301500D01*
X431000Y283500D02*
X437500Y290000D01*
X452500Y301500D02*
X453000Y301000D01*
X458000D01*
X452500Y314000D02*
Y322000D01*
X447500Y309000D02*
X452500Y314000D01*
X451000Y329500D02*
X458500D01*
X447500Y326000D02*
X451000Y329500D01*
X447500Y322000D02*
Y326000D01*
X458500Y329500D02*
X461000Y327000D01*
Y326000D02*
Y327000D01*
X436000Y312364D02*
X438000Y314364D01*
X436000Y312000D02*
Y312364D01*
X438000Y314364D02*
Y321500D01*
X442500Y314500D02*
Y322000D01*
X437500D02*
X438000Y321500D01*
X442500Y289000D02*
Y301500D01*
Y289000D02*
X447500Y284000D01*
Y291500D02*
Y301500D01*
X461000Y290000D02*
Y296000D01*
X459000Y288000D02*
X461000Y290000D01*
X453500Y288000D02*
X459000D01*
X453500D02*
Y291500D01*
Y284000D02*
Y288000D01*
X482500Y290000D02*
Y301500D01*
X476000Y283500D02*
X482500Y290000D01*
X497500Y301500D02*
X498000Y301000D01*
X503000D01*
X497500Y314000D02*
Y322000D01*
X492500Y309000D02*
X497500Y314000D01*
X496000Y329500D02*
X503500D01*
X492500Y326000D02*
X496000Y329500D01*
X492500Y322000D02*
Y326000D01*
X503500Y329500D02*
X506000Y327000D01*
Y326000D02*
Y327000D01*
X481000Y312364D02*
X483000Y314364D01*
X481000Y312000D02*
Y312364D01*
X483000Y314364D02*
Y321500D01*
X487500Y314500D02*
Y322000D01*
X482500D02*
X483000Y321500D01*
X487500Y289000D02*
Y301500D01*
Y289000D02*
X492500Y284000D01*
Y291500D02*
Y301500D01*
X506000Y290000D02*
Y296000D01*
X504000Y288000D02*
X506000Y290000D01*
X498500Y288000D02*
X504000D01*
X498500D02*
Y291500D01*
Y284000D02*
Y288000D01*
X527500Y290000D02*
Y301500D01*
X521000Y283500D02*
X527500Y290000D01*
X542500Y301500D02*
X543000Y301000D01*
X548000D01*
X542500Y314000D02*
Y322000D01*
X537500Y309000D02*
X542500Y314000D01*
X541000Y329500D02*
X548500D01*
X537500Y326000D02*
X541000Y329500D01*
X537500Y322000D02*
Y326000D01*
X548500Y329500D02*
X551000Y327000D01*
Y326000D02*
Y327000D01*
X526000Y312364D02*
X528000Y314364D01*
X526000Y312000D02*
Y312364D01*
X528000Y314364D02*
Y321500D01*
X532500Y314500D02*
Y322000D01*
X527500D02*
X528000Y321500D01*
X532500Y289000D02*
Y301500D01*
Y289000D02*
X537500Y284000D01*
Y291500D02*
Y301500D01*
X551000Y290000D02*
Y296000D01*
X549000Y288000D02*
X551000Y290000D01*
X543500Y288000D02*
X549000D01*
X543500D02*
Y291500D01*
Y284000D02*
Y288000D01*
X572500Y290000D02*
Y301500D01*
X566000Y283500D02*
X572500Y290000D01*
X587500Y301500D02*
X588000Y301000D01*
X593000D01*
X587500Y314000D02*
Y322000D01*
X582500Y309000D02*
X587500Y314000D01*
X586000Y329500D02*
X593500D01*
X582500Y326000D02*
X586000Y329500D01*
X582500Y322000D02*
Y326000D01*
X593500Y329500D02*
X596000Y327000D01*
Y326000D02*
Y327000D01*
X571000Y312364D02*
X573000Y314364D01*
X571000Y312000D02*
Y312364D01*
X573000Y314364D02*
Y321500D01*
X577500Y314500D02*
Y322000D01*
X572500D02*
X573000Y321500D01*
X577500Y289000D02*
Y301500D01*
Y289000D02*
X582500Y284000D01*
Y291500D02*
Y301500D01*
X596000Y290000D02*
Y296000D01*
X594000Y288000D02*
X596000Y290000D01*
X588500Y288000D02*
X594000D01*
X588500D02*
Y291500D01*
Y284000D02*
Y288000D01*
X617500Y290000D02*
Y301500D01*
X611000Y283500D02*
X617500Y290000D01*
X632500Y301500D02*
X633000Y301000D01*
X638000D01*
X632500Y314000D02*
Y322000D01*
X627500Y309000D02*
X632500Y314000D01*
X631000Y329500D02*
X638500D01*
X627500Y326000D02*
X631000Y329500D01*
X627500Y322000D02*
Y326000D01*
X638500Y329500D02*
X641000Y327000D01*
Y326000D02*
Y327000D01*
X616000Y312364D02*
X618000Y314364D01*
X616000Y312000D02*
Y312364D01*
X618000Y314364D02*
Y321500D01*
X622500Y314500D02*
Y322000D01*
X617500D02*
X618000Y321500D01*
X622500Y289000D02*
Y301500D01*
Y289000D02*
X627500Y284000D01*
Y291500D02*
Y301500D01*
X641000Y290000D02*
Y296000D01*
X639000Y288000D02*
X641000Y290000D01*
X633500Y288000D02*
X639000D01*
X633500D02*
Y291500D01*
Y284000D02*
Y288000D01*
X167500Y350000D02*
Y361500D01*
X161000Y343500D02*
X167500Y350000D01*
X182500Y361500D02*
X183000Y361000D01*
X188000D01*
X182500Y374000D02*
Y382000D01*
X177500Y369000D02*
X182500Y374000D01*
X181000Y389500D02*
X188500D01*
X177500Y386000D02*
X181000Y389500D01*
X177500Y382000D02*
Y386000D01*
X188500Y389500D02*
X191000Y387000D01*
Y386000D02*
Y387000D01*
X166000Y372364D02*
X168000Y374364D01*
X166000Y372000D02*
Y372364D01*
X168000Y374364D02*
Y381500D01*
X172500Y374500D02*
Y382000D01*
X167500D02*
X168000Y381500D01*
X172500Y349000D02*
Y361500D01*
Y349000D02*
X177500Y344000D01*
Y351500D02*
Y361500D01*
X191000Y350000D02*
Y356000D01*
X189000Y348000D02*
X191000Y350000D01*
X183500Y348000D02*
X189000D01*
X183500D02*
Y351500D01*
Y344000D02*
Y348000D01*
X212500Y350000D02*
Y361500D01*
X206000Y343500D02*
X212500Y350000D01*
X227500Y361500D02*
X228000Y361000D01*
X233000D01*
X227500Y374000D02*
Y382000D01*
X222500Y369000D02*
X227500Y374000D01*
X226000Y389500D02*
X233500D01*
X222500Y386000D02*
X226000Y389500D01*
X222500Y382000D02*
Y386000D01*
X233500Y389500D02*
X236000Y387000D01*
Y386000D02*
Y387000D01*
X211000Y372364D02*
X213000Y374364D01*
X211000Y372000D02*
Y372364D01*
X213000Y374364D02*
Y381500D01*
X217500Y374500D02*
Y382000D01*
X212500D02*
X213000Y381500D01*
X217500Y349000D02*
Y361500D01*
Y349000D02*
X222500Y344000D01*
Y351500D02*
Y361500D01*
X236000Y350000D02*
Y356000D01*
X234000Y348000D02*
X236000Y350000D01*
X228500Y348000D02*
X234000D01*
X228500D02*
Y351500D01*
Y344000D02*
Y348000D01*
X257500Y350000D02*
Y361500D01*
X251000Y343500D02*
X257500Y350000D01*
X272500Y361500D02*
X273000Y361000D01*
X278000D01*
X272500Y374000D02*
Y382000D01*
X267500Y369000D02*
X272500Y374000D01*
X271000Y389500D02*
X278500D01*
X267500Y386000D02*
X271000Y389500D01*
X267500Y382000D02*
Y386000D01*
X278500Y389500D02*
X281000Y387000D01*
Y386000D02*
Y387000D01*
X256000Y372364D02*
X258000Y374364D01*
X256000Y372000D02*
Y372364D01*
X258000Y374364D02*
Y381500D01*
X262500Y374500D02*
Y382000D01*
X257500D02*
X258000Y381500D01*
X262500Y349000D02*
Y361500D01*
Y349000D02*
X267500Y344000D01*
Y351500D02*
Y361500D01*
X281000Y350000D02*
Y356000D01*
X279000Y348000D02*
X281000Y350000D01*
X273500Y348000D02*
X279000D01*
X273500D02*
Y351500D01*
Y344000D02*
Y348000D01*
X302500Y350000D02*
Y361500D01*
X296000Y343500D02*
X302500Y350000D01*
X317500Y361500D02*
X318000Y361000D01*
X323000D01*
X317500Y374000D02*
Y382000D01*
X312500Y369000D02*
X317500Y374000D01*
X316000Y389500D02*
X323500D01*
X312500Y386000D02*
X316000Y389500D01*
X312500Y382000D02*
Y386000D01*
X323500Y389500D02*
X326000Y387000D01*
Y386000D02*
Y387000D01*
X301000Y372364D02*
X303000Y374364D01*
X301000Y372000D02*
Y372364D01*
X303000Y374364D02*
Y381500D01*
X307500Y374500D02*
Y382000D01*
X302500D02*
X303000Y381500D01*
X307500Y349000D02*
Y361500D01*
Y349000D02*
X312500Y344000D01*
Y351500D02*
Y361500D01*
X326000Y350000D02*
Y356000D01*
X324000Y348000D02*
X326000Y350000D01*
X318500Y348000D02*
X324000D01*
X318500D02*
Y351500D01*
Y344000D02*
Y348000D01*
X347500Y350000D02*
Y361500D01*
X341000Y343500D02*
X347500Y350000D01*
X362500Y361500D02*
X363000Y361000D01*
X368000D01*
X362500Y374000D02*
Y382000D01*
X357500Y369000D02*
X362500Y374000D01*
X361000Y389500D02*
X368500D01*
X357500Y386000D02*
X361000Y389500D01*
X357500Y382000D02*
Y386000D01*
X368500Y389500D02*
X371000Y387000D01*
Y386000D02*
Y387000D01*
X346000Y372364D02*
X348000Y374364D01*
X346000Y372000D02*
Y372364D01*
X348000Y374364D02*
Y381500D01*
X352500Y374500D02*
Y382000D01*
X347500D02*
X348000Y381500D01*
X352500Y349000D02*
Y361500D01*
Y349000D02*
X357500Y344000D01*
Y351500D02*
Y361500D01*
X371000Y350000D02*
Y356000D01*
X369000Y348000D02*
X371000Y350000D01*
X363500Y348000D02*
X369000D01*
X363500D02*
Y351500D01*
Y344000D02*
Y348000D01*
X392500Y350000D02*
Y361500D01*
X386000Y343500D02*
X392500Y350000D01*
X407500Y361500D02*
X408000Y361000D01*
X413000D01*
X407500Y374000D02*
Y382000D01*
X402500Y369000D02*
X407500Y374000D01*
X406000Y389500D02*
X413500D01*
X402500Y386000D02*
X406000Y389500D01*
X402500Y382000D02*
Y386000D01*
X413500Y389500D02*
X416000Y387000D01*
Y386000D02*
Y387000D01*
X391000Y372364D02*
X393000Y374364D01*
X391000Y372000D02*
Y372364D01*
X393000Y374364D02*
Y381500D01*
X397500Y374500D02*
Y382000D01*
X392500D02*
X393000Y381500D01*
X397500Y349000D02*
Y361500D01*
Y349000D02*
X402500Y344000D01*
Y351500D02*
Y361500D01*
X416000Y350000D02*
Y356000D01*
X414000Y348000D02*
X416000Y350000D01*
X408500Y348000D02*
X414000D01*
X408500D02*
Y351500D01*
Y344000D02*
Y348000D01*
X437500Y350000D02*
Y361500D01*
X431000Y343500D02*
X437500Y350000D01*
X452500Y361500D02*
X453000Y361000D01*
X458000D01*
X452500Y374000D02*
Y382000D01*
X447500Y369000D02*
X452500Y374000D01*
X451000Y389500D02*
X458500D01*
X447500Y386000D02*
X451000Y389500D01*
X447500Y382000D02*
Y386000D01*
X458500Y389500D02*
X461000Y387000D01*
Y386000D02*
Y387000D01*
X436000Y372364D02*
X438000Y374364D01*
X436000Y372000D02*
Y372364D01*
X438000Y374364D02*
Y381500D01*
X442500Y374500D02*
Y382000D01*
X437500D02*
X438000Y381500D01*
X442500Y349000D02*
Y361500D01*
Y349000D02*
X447500Y344000D01*
Y351500D02*
Y361500D01*
X461000Y350000D02*
Y356000D01*
X459000Y348000D02*
X461000Y350000D01*
X453500Y348000D02*
X459000D01*
X453500D02*
Y351500D01*
Y344000D02*
Y348000D01*
X482500Y350000D02*
Y361500D01*
X476000Y343500D02*
X482500Y350000D01*
X497500Y361500D02*
X498000Y361000D01*
X503000D01*
X497500Y374000D02*
Y382000D01*
X492500Y369000D02*
X497500Y374000D01*
X496000Y389500D02*
X503500D01*
X492500Y386000D02*
X496000Y389500D01*
X492500Y382000D02*
Y386000D01*
X503500Y389500D02*
X506000Y387000D01*
Y386000D02*
Y387000D01*
X481000Y372364D02*
X483000Y374364D01*
X481000Y372000D02*
Y372364D01*
X483000Y374364D02*
Y381500D01*
X487500Y374500D02*
Y382000D01*
X482500D02*
X483000Y381500D01*
X487500Y349000D02*
Y361500D01*
Y349000D02*
X492500Y344000D01*
Y351500D02*
Y361500D01*
X506000Y350000D02*
Y356000D01*
X504000Y348000D02*
X506000Y350000D01*
X498500Y348000D02*
X504000D01*
X498500D02*
Y351500D01*
Y344000D02*
Y348000D01*
X527500Y350000D02*
Y361500D01*
X521000Y343500D02*
X527500Y350000D01*
X542500Y361500D02*
X543000Y361000D01*
X548000D01*
X542500Y374000D02*
Y382000D01*
X537500Y369000D02*
X542500Y374000D01*
X541000Y389500D02*
X548500D01*
X537500Y386000D02*
X541000Y389500D01*
X537500Y382000D02*
Y386000D01*
X548500Y389500D02*
X551000Y387000D01*
Y386000D02*
Y387000D01*
X526000Y372364D02*
X528000Y374364D01*
X526000Y372000D02*
Y372364D01*
X528000Y374364D02*
Y381500D01*
X532500Y374500D02*
Y382000D01*
X527500D02*
X528000Y381500D01*
X532500Y349000D02*
Y361500D01*
Y349000D02*
X537500Y344000D01*
Y351500D02*
Y361500D01*
X551000Y350000D02*
Y356000D01*
X549000Y348000D02*
X551000Y350000D01*
X543500Y348000D02*
X549000D01*
X543500D02*
Y351500D01*
Y344000D02*
Y348000D01*
X572500Y350000D02*
Y361500D01*
X566000Y343500D02*
X572500Y350000D01*
X587500Y361500D02*
X588000Y361000D01*
X593000D01*
X587500Y374000D02*
Y382000D01*
X582500Y369000D02*
X587500Y374000D01*
X586000Y389500D02*
X593500D01*
X582500Y386000D02*
X586000Y389500D01*
X582500Y382000D02*
Y386000D01*
X593500Y389500D02*
X596000Y387000D01*
Y386000D02*
Y387000D01*
X571000Y372364D02*
X573000Y374364D01*
X571000Y372000D02*
Y372364D01*
X573000Y374364D02*
Y381500D01*
X577500Y374500D02*
Y382000D01*
X572500D02*
X573000Y381500D01*
X577500Y349000D02*
Y361500D01*
Y349000D02*
X582500Y344000D01*
Y351500D02*
Y361500D01*
X596000Y350000D02*
Y356000D01*
X594000Y348000D02*
X596000Y350000D01*
X588500Y348000D02*
X594000D01*
X588500D02*
Y351500D01*
Y344000D02*
Y348000D01*
X617500Y350000D02*
Y361500D01*
X611000Y343500D02*
X617500Y350000D01*
X632500Y361500D02*
X633000Y361000D01*
X638000D01*
X632500Y374000D02*
Y382000D01*
X627500Y369000D02*
X632500Y374000D01*
X631000Y389500D02*
X638500D01*
X627500Y386000D02*
X631000Y389500D01*
X627500Y382000D02*
Y386000D01*
X638500Y389500D02*
X641000Y387000D01*
Y386000D02*
Y387000D01*
X616000Y372364D02*
X618000Y374364D01*
X616000Y372000D02*
Y372364D01*
X618000Y374364D02*
Y381500D01*
X622500Y374500D02*
Y382000D01*
X617500D02*
X618000Y381500D01*
X622500Y349000D02*
Y361500D01*
Y349000D02*
X627500Y344000D01*
Y351500D02*
Y361500D01*
X641000Y350000D02*
Y356000D01*
X639000Y348000D02*
X641000Y350000D01*
X633500Y348000D02*
X639000D01*
X633500D02*
Y351500D01*
Y344000D02*
Y348000D01*
D14*
X160499Y232499D02*
X159500D01*
X160000D01*
Y230000D01*
X159500Y229500D01*
X159000D01*
X158500Y230000D01*
X163498Y229500D02*
X161499D01*
X163498Y231499D01*
Y231999D01*
X162999Y232499D01*
X161999D01*
X161499Y231999D01*
X188500Y222500D02*
Y225499D01*
X189999D01*
X190499Y224999D01*
Y224000D01*
X189999Y223500D01*
X188500D01*
X189500D02*
X190499Y222500D01*
X191499Y224999D02*
X191999Y225499D01*
X192999D01*
X193498Y224999D01*
Y224499D01*
X192999Y224000D01*
X192499D01*
X192999D01*
X193498Y223500D01*
Y223000D01*
X192999Y222500D01*
X191999D01*
X191499Y223000D01*
X188500Y218500D02*
Y221499D01*
X189999D01*
X190499Y220999D01*
Y220000D01*
X189999Y219500D01*
X188500D01*
X189500D02*
X190499Y218500D01*
X193498D02*
X191499D01*
X193498Y220499D01*
Y220999D01*
X192999Y221499D01*
X191999D01*
X191499Y220999D01*
X205499Y232499D02*
X204500D01*
X204999D01*
Y230000D01*
X204500Y229500D01*
X204000D01*
X203500Y230000D01*
X208498Y229500D02*
X206499D01*
X208498Y231499D01*
Y231999D01*
X207998Y232499D01*
X206999D01*
X206499Y231999D01*
X233500Y222500D02*
Y225499D01*
X234999D01*
X235499Y224999D01*
Y224000D01*
X234999Y223500D01*
X233500D01*
X234500D02*
X235499Y222500D01*
X236499Y224999D02*
X236999Y225499D01*
X237999D01*
X238498Y224999D01*
Y224499D01*
X237999Y224000D01*
X237499D01*
X237999D01*
X238498Y223500D01*
Y223000D01*
X237999Y222500D01*
X236999D01*
X236499Y223000D01*
X233500Y218500D02*
Y221499D01*
X234999D01*
X235499Y220999D01*
Y220000D01*
X234999Y219500D01*
X233500D01*
X234500D02*
X235499Y218500D01*
X238498D02*
X236499D01*
X238498Y220499D01*
Y220999D01*
X237999Y221499D01*
X236999D01*
X236499Y220999D01*
X250499Y232499D02*
X249500D01*
X249999D01*
Y230000D01*
X249500Y229500D01*
X249000D01*
X248500Y230000D01*
X253498Y229500D02*
X251499D01*
X253498Y231499D01*
Y231999D01*
X252998Y232499D01*
X251999D01*
X251499Y231999D01*
X278500Y222500D02*
Y225499D01*
X279999D01*
X280499Y224999D01*
Y224000D01*
X279999Y223500D01*
X278500D01*
X279500D02*
X280499Y222500D01*
X281499Y224999D02*
X281999Y225499D01*
X282998D01*
X283498Y224999D01*
Y224499D01*
X282998Y224000D01*
X282499D01*
X282998D01*
X283498Y223500D01*
Y223000D01*
X282998Y222500D01*
X281999D01*
X281499Y223000D01*
X278500Y218500D02*
Y221499D01*
X279999D01*
X280499Y220999D01*
Y220000D01*
X279999Y219500D01*
X278500D01*
X279500D02*
X280499Y218500D01*
X283498D02*
X281499D01*
X283498Y220499D01*
Y220999D01*
X282998Y221499D01*
X281999D01*
X281499Y220999D01*
X295499Y232499D02*
X294500D01*
X295000D01*
Y230000D01*
X294500Y229500D01*
X294000D01*
X293500Y230000D01*
X298498Y229500D02*
X296499D01*
X298498Y231499D01*
Y231999D01*
X297998Y232499D01*
X296999D01*
X296499Y231999D01*
X323500Y222500D02*
Y225499D01*
X324999D01*
X325499Y224999D01*
Y224000D01*
X324999Y223500D01*
X323500D01*
X324500D02*
X325499Y222500D01*
X326499Y224999D02*
X326999Y225499D01*
X327998D01*
X328498Y224999D01*
Y224499D01*
X327998Y224000D01*
X327499D01*
X327998D01*
X328498Y223500D01*
Y223000D01*
X327998Y222500D01*
X326999D01*
X326499Y223000D01*
X323500Y218500D02*
Y221499D01*
X324999D01*
X325499Y220999D01*
Y220000D01*
X324999Y219500D01*
X323500D01*
X324500D02*
X325499Y218500D01*
X328498D02*
X326499D01*
X328498Y220499D01*
Y220999D01*
X327998Y221499D01*
X326999D01*
X326499Y220999D01*
X340499Y232499D02*
X339500D01*
X340000D01*
Y230000D01*
X339500Y229500D01*
X339000D01*
X338500Y230000D01*
X343498Y229500D02*
X341499D01*
X343498Y231499D01*
Y231999D01*
X342999Y232499D01*
X341999D01*
X341499Y231999D01*
X368500Y222500D02*
Y225499D01*
X370000D01*
X370499Y224999D01*
Y224000D01*
X370000Y223500D01*
X368500D01*
X369500D02*
X370499Y222500D01*
X371499Y224999D02*
X371999Y225499D01*
X372998D01*
X373498Y224999D01*
Y224499D01*
X372998Y224000D01*
X372499D01*
X372998D01*
X373498Y223500D01*
Y223000D01*
X372998Y222500D01*
X371999D01*
X371499Y223000D01*
X368500Y218500D02*
Y221499D01*
X370000D01*
X370499Y220999D01*
Y220000D01*
X370000Y219500D01*
X368500D01*
X369500D02*
X370499Y218500D01*
X373498D02*
X371499D01*
X373498Y220499D01*
Y220999D01*
X372998Y221499D01*
X371999D01*
X371499Y220999D01*
X385499Y232499D02*
X384500D01*
X384999D01*
Y230000D01*
X384500Y229500D01*
X384000D01*
X383500Y230000D01*
X388498Y229500D02*
X386499D01*
X388498Y231499D01*
Y231999D01*
X387999Y232499D01*
X386999D01*
X386499Y231999D01*
X413500Y222500D02*
Y225499D01*
X414999D01*
X415499Y224999D01*
Y224000D01*
X414999Y223500D01*
X413500D01*
X414500D02*
X415499Y222500D01*
X416499Y224999D02*
X416999Y225499D01*
X417999D01*
X418498Y224999D01*
Y224499D01*
X417999Y224000D01*
X417499D01*
X417999D01*
X418498Y223500D01*
Y223000D01*
X417999Y222500D01*
X416999D01*
X416499Y223000D01*
X413500Y218500D02*
Y221499D01*
X414999D01*
X415499Y220999D01*
Y220000D01*
X414999Y219500D01*
X413500D01*
X414500D02*
X415499Y218500D01*
X418498D02*
X416499D01*
X418498Y220499D01*
Y220999D01*
X417999Y221499D01*
X416999D01*
X416499Y220999D01*
X430499Y232499D02*
X429500D01*
X429999D01*
Y230000D01*
X429500Y229500D01*
X429000D01*
X428500Y230000D01*
X433498Y229500D02*
X431499D01*
X433498Y231499D01*
Y231999D01*
X432999Y232499D01*
X431999D01*
X431499Y231999D01*
X458500Y222500D02*
Y225499D01*
X460000D01*
X460499Y224999D01*
Y224000D01*
X460000Y223500D01*
X458500D01*
X459500D02*
X460499Y222500D01*
X461499Y224999D02*
X461999Y225499D01*
X462998D01*
X463498Y224999D01*
Y224499D01*
X462998Y224000D01*
X462499D01*
X462998D01*
X463498Y223500D01*
Y223000D01*
X462998Y222500D01*
X461999D01*
X461499Y223000D01*
X458500Y218500D02*
Y221499D01*
X460000D01*
X460499Y220999D01*
Y220000D01*
X460000Y219500D01*
X458500D01*
X459500D02*
X460499Y218500D01*
X463498D02*
X461499D01*
X463498Y220499D01*
Y220999D01*
X462998Y221499D01*
X461999D01*
X461499Y220999D01*
X475499Y232499D02*
X474500D01*
X475000D01*
Y230000D01*
X474500Y229500D01*
X474000D01*
X473500Y230000D01*
X478498Y229500D02*
X476499D01*
X478498Y231499D01*
Y231999D01*
X477998Y232499D01*
X476999D01*
X476499Y231999D01*
X503500Y222500D02*
Y225499D01*
X504999D01*
X505499Y224999D01*
Y224000D01*
X504999Y223500D01*
X503500D01*
X504500D02*
X505499Y222500D01*
X506499Y224999D02*
X506999Y225499D01*
X507999D01*
X508498Y224999D01*
Y224499D01*
X507999Y224000D01*
X507499D01*
X507999D01*
X508498Y223500D01*
Y223000D01*
X507999Y222500D01*
X506999D01*
X506499Y223000D01*
X503500Y218500D02*
Y221499D01*
X504999D01*
X505499Y220999D01*
Y220000D01*
X504999Y219500D01*
X503500D01*
X504500D02*
X505499Y218500D01*
X508498D02*
X506499D01*
X508498Y220499D01*
Y220999D01*
X507999Y221499D01*
X506999D01*
X506499Y220999D01*
X520499Y232499D02*
X519500D01*
X520000D01*
Y230000D01*
X519500Y229500D01*
X519000D01*
X518500Y230000D01*
X523498Y229500D02*
X521499D01*
X523498Y231499D01*
Y231999D01*
X522999Y232499D01*
X521999D01*
X521499Y231999D01*
X548500Y222500D02*
Y225499D01*
X550000D01*
X550499Y224999D01*
Y224000D01*
X550000Y223500D01*
X548500D01*
X549500D02*
X550499Y222500D01*
X551499Y224999D02*
X551999Y225499D01*
X552998D01*
X553498Y224999D01*
Y224499D01*
X552998Y224000D01*
X552499D01*
X552998D01*
X553498Y223500D01*
Y223000D01*
X552998Y222500D01*
X551999D01*
X551499Y223000D01*
X548500Y218500D02*
Y221499D01*
X550000D01*
X550499Y220999D01*
Y220000D01*
X550000Y219500D01*
X548500D01*
X549500D02*
X550499Y218500D01*
X553498D02*
X551499D01*
X553498Y220499D01*
Y220999D01*
X552998Y221499D01*
X551999D01*
X551499Y220999D01*
X565499Y232499D02*
X564500D01*
X564999D01*
Y230000D01*
X564500Y229500D01*
X564000D01*
X563500Y230000D01*
X568498Y229500D02*
X566499D01*
X568498Y231499D01*
Y231999D01*
X567999Y232499D01*
X566999D01*
X566499Y231999D01*
X593500Y222500D02*
Y225499D01*
X595000D01*
X595499Y224999D01*
Y224000D01*
X595000Y223500D01*
X593500D01*
X594500D02*
X595499Y222500D01*
X596499Y224999D02*
X596999Y225499D01*
X597999D01*
X598498Y224999D01*
Y224499D01*
X597999Y224000D01*
X597499D01*
X597999D01*
X598498Y223500D01*
Y223000D01*
X597999Y222500D01*
X596999D01*
X596499Y223000D01*
X593500Y218500D02*
Y221499D01*
X595000D01*
X595499Y220999D01*
Y220000D01*
X595000Y219500D01*
X593500D01*
X594500D02*
X595499Y218500D01*
X598498D02*
X596499D01*
X598498Y220499D01*
Y220999D01*
X597999Y221499D01*
X596999D01*
X596499Y220999D01*
X610499Y232499D02*
X609500D01*
X610000D01*
Y230000D01*
X609500Y229500D01*
X609000D01*
X608500Y230000D01*
X613498Y229500D02*
X611499D01*
X613498Y231499D01*
Y231999D01*
X612998Y232499D01*
X611999D01*
X611499Y231999D01*
X638500Y222500D02*
Y225499D01*
X639999D01*
X640499Y224999D01*
Y224000D01*
X639999Y223500D01*
X638500D01*
X639500D02*
X640499Y222500D01*
X641499Y224999D02*
X641999Y225499D01*
X642999D01*
X643498Y224999D01*
Y224499D01*
X642999Y224000D01*
X642499D01*
X642999D01*
X643498Y223500D01*
Y223000D01*
X642999Y222500D01*
X641999D01*
X641499Y223000D01*
X638500Y218500D02*
Y221499D01*
X639999D01*
X640499Y220999D01*
Y220000D01*
X639999Y219500D01*
X638500D01*
X639500D02*
X640499Y218500D01*
X643498D02*
X641499D01*
X643498Y220499D01*
Y220999D01*
X642999Y221499D01*
X641999D01*
X641499Y220999D01*
X160499Y292499D02*
X159500D01*
X160000D01*
Y290000D01*
X159500Y289500D01*
X159000D01*
X158500Y290000D01*
X163498Y289500D02*
X161499D01*
X163498Y291499D01*
Y291999D01*
X162999Y292499D01*
X161999D01*
X161499Y291999D01*
X188500Y282500D02*
Y285499D01*
X189999D01*
X190499Y284999D01*
Y283999D01*
X189999Y283500D01*
X188500D01*
X189500D02*
X190499Y282500D01*
X191499Y284999D02*
X191999Y285499D01*
X192999D01*
X193498Y284999D01*
Y284499D01*
X192999Y283999D01*
X192499D01*
X192999D01*
X193498Y283500D01*
Y283000D01*
X192999Y282500D01*
X191999D01*
X191499Y283000D01*
X188500Y278500D02*
Y281499D01*
X189999D01*
X190499Y280999D01*
Y279999D01*
X189999Y279500D01*
X188500D01*
X189500D02*
X190499Y278500D01*
X193498D02*
X191499D01*
X193498Y280499D01*
Y280999D01*
X192999Y281499D01*
X191999D01*
X191499Y280999D01*
X205499Y292499D02*
X204500D01*
X204999D01*
Y290000D01*
X204500Y289500D01*
X204000D01*
X203500Y290000D01*
X208498Y289500D02*
X206499D01*
X208498Y291499D01*
Y291999D01*
X207998Y292499D01*
X206999D01*
X206499Y291999D01*
X233500Y282500D02*
Y285499D01*
X234999D01*
X235499Y284999D01*
Y283999D01*
X234999Y283500D01*
X233500D01*
X234500D02*
X235499Y282500D01*
X236499Y284999D02*
X236999Y285499D01*
X237999D01*
X238498Y284999D01*
Y284499D01*
X237999Y283999D01*
X237499D01*
X237999D01*
X238498Y283500D01*
Y283000D01*
X237999Y282500D01*
X236999D01*
X236499Y283000D01*
X233500Y278500D02*
Y281499D01*
X234999D01*
X235499Y280999D01*
Y279999D01*
X234999Y279500D01*
X233500D01*
X234500D02*
X235499Y278500D01*
X238498D02*
X236499D01*
X238498Y280499D01*
Y280999D01*
X237999Y281499D01*
X236999D01*
X236499Y280999D01*
X250499Y292499D02*
X249500D01*
X249999D01*
Y290000D01*
X249500Y289500D01*
X249000D01*
X248500Y290000D01*
X253498Y289500D02*
X251499D01*
X253498Y291499D01*
Y291999D01*
X252998Y292499D01*
X251999D01*
X251499Y291999D01*
X278500Y282500D02*
Y285499D01*
X279999D01*
X280499Y284999D01*
Y283999D01*
X279999Y283500D01*
X278500D01*
X279500D02*
X280499Y282500D01*
X281499Y284999D02*
X281999Y285499D01*
X282998D01*
X283498Y284999D01*
Y284499D01*
X282998Y283999D01*
X282499D01*
X282998D01*
X283498Y283500D01*
Y283000D01*
X282998Y282500D01*
X281999D01*
X281499Y283000D01*
X278500Y278500D02*
Y281499D01*
X279999D01*
X280499Y280999D01*
Y279999D01*
X279999Y279500D01*
X278500D01*
X279500D02*
X280499Y278500D01*
X283498D02*
X281499D01*
X283498Y280499D01*
Y280999D01*
X282998Y281499D01*
X281999D01*
X281499Y280999D01*
X295499Y292499D02*
X294500D01*
X295000D01*
Y290000D01*
X294500Y289500D01*
X294000D01*
X293500Y290000D01*
X298498Y289500D02*
X296499D01*
X298498Y291499D01*
Y291999D01*
X297998Y292499D01*
X296999D01*
X296499Y291999D01*
X323500Y282500D02*
Y285499D01*
X324999D01*
X325499Y284999D01*
Y283999D01*
X324999Y283500D01*
X323500D01*
X324500D02*
X325499Y282500D01*
X326499Y284999D02*
X326999Y285499D01*
X327998D01*
X328498Y284999D01*
Y284499D01*
X327998Y283999D01*
X327499D01*
X327998D01*
X328498Y283500D01*
Y283000D01*
X327998Y282500D01*
X326999D01*
X326499Y283000D01*
X323500Y278500D02*
Y281499D01*
X324999D01*
X325499Y280999D01*
Y279999D01*
X324999Y279500D01*
X323500D01*
X324500D02*
X325499Y278500D01*
X328498D02*
X326499D01*
X328498Y280499D01*
Y280999D01*
X327998Y281499D01*
X326999D01*
X326499Y280999D01*
X340499Y292499D02*
X339500D01*
X340000D01*
Y290000D01*
X339500Y289500D01*
X339000D01*
X338500Y290000D01*
X343498Y289500D02*
X341499D01*
X343498Y291499D01*
Y291999D01*
X342999Y292499D01*
X341999D01*
X341499Y291999D01*
X368500Y282500D02*
Y285499D01*
X370000D01*
X370499Y284999D01*
Y283999D01*
X370000Y283500D01*
X368500D01*
X369500D02*
X370499Y282500D01*
X371499Y284999D02*
X371999Y285499D01*
X372998D01*
X373498Y284999D01*
Y284499D01*
X372998Y283999D01*
X372499D01*
X372998D01*
X373498Y283500D01*
Y283000D01*
X372998Y282500D01*
X371999D01*
X371499Y283000D01*
X368500Y278500D02*
Y281499D01*
X370000D01*
X370499Y280999D01*
Y279999D01*
X370000Y279500D01*
X368500D01*
X369500D02*
X370499Y278500D01*
X373498D02*
X371499D01*
X373498Y280499D01*
Y280999D01*
X372998Y281499D01*
X371999D01*
X371499Y280999D01*
X385499Y292499D02*
X384500D01*
X384999D01*
Y290000D01*
X384500Y289500D01*
X384000D01*
X383500Y290000D01*
X388498Y289500D02*
X386499D01*
X388498Y291499D01*
Y291999D01*
X387999Y292499D01*
X386999D01*
X386499Y291999D01*
X413500Y282500D02*
Y285499D01*
X414999D01*
X415499Y284999D01*
Y283999D01*
X414999Y283500D01*
X413500D01*
X414500D02*
X415499Y282500D01*
X416499Y284999D02*
X416999Y285499D01*
X417999D01*
X418498Y284999D01*
Y284499D01*
X417999Y283999D01*
X417499D01*
X417999D01*
X418498Y283500D01*
Y283000D01*
X417999Y282500D01*
X416999D01*
X416499Y283000D01*
X413500Y278500D02*
Y281499D01*
X414999D01*
X415499Y280999D01*
Y279999D01*
X414999Y279500D01*
X413500D01*
X414500D02*
X415499Y278500D01*
X418498D02*
X416499D01*
X418498Y280499D01*
Y280999D01*
X417999Y281499D01*
X416999D01*
X416499Y280999D01*
X430499Y292499D02*
X429500D01*
X429999D01*
Y290000D01*
X429500Y289500D01*
X429000D01*
X428500Y290000D01*
X433498Y289500D02*
X431499D01*
X433498Y291499D01*
Y291999D01*
X432999Y292499D01*
X431999D01*
X431499Y291999D01*
X458500Y282500D02*
Y285499D01*
X460000D01*
X460499Y284999D01*
Y283999D01*
X460000Y283500D01*
X458500D01*
X459500D02*
X460499Y282500D01*
X461499Y284999D02*
X461999Y285499D01*
X462998D01*
X463498Y284999D01*
Y284499D01*
X462998Y283999D01*
X462499D01*
X462998D01*
X463498Y283500D01*
Y283000D01*
X462998Y282500D01*
X461999D01*
X461499Y283000D01*
X458500Y278500D02*
Y281499D01*
X460000D01*
X460499Y280999D01*
Y279999D01*
X460000Y279500D01*
X458500D01*
X459500D02*
X460499Y278500D01*
X463498D02*
X461499D01*
X463498Y280499D01*
Y280999D01*
X462998Y281499D01*
X461999D01*
X461499Y280999D01*
X475499Y292499D02*
X474500D01*
X475000D01*
Y290000D01*
X474500Y289500D01*
X474000D01*
X473500Y290000D01*
X478498Y289500D02*
X476499D01*
X478498Y291499D01*
Y291999D01*
X477998Y292499D01*
X476999D01*
X476499Y291999D01*
X503500Y282500D02*
Y285499D01*
X504999D01*
X505499Y284999D01*
Y283999D01*
X504999Y283500D01*
X503500D01*
X504500D02*
X505499Y282500D01*
X506499Y284999D02*
X506999Y285499D01*
X507999D01*
X508498Y284999D01*
Y284499D01*
X507999Y283999D01*
X507499D01*
X507999D01*
X508498Y283500D01*
Y283000D01*
X507999Y282500D01*
X506999D01*
X506499Y283000D01*
X503500Y278500D02*
Y281499D01*
X504999D01*
X505499Y280999D01*
Y279999D01*
X504999Y279500D01*
X503500D01*
X504500D02*
X505499Y278500D01*
X508498D02*
X506499D01*
X508498Y280499D01*
Y280999D01*
X507999Y281499D01*
X506999D01*
X506499Y280999D01*
X520499Y292499D02*
X519500D01*
X520000D01*
Y290000D01*
X519500Y289500D01*
X519000D01*
X518500Y290000D01*
X523498Y289500D02*
X521499D01*
X523498Y291499D01*
Y291999D01*
X522999Y292499D01*
X521999D01*
X521499Y291999D01*
X548500Y282500D02*
Y285499D01*
X550000D01*
X550499Y284999D01*
Y283999D01*
X550000Y283500D01*
X548500D01*
X549500D02*
X550499Y282500D01*
X551499Y284999D02*
X551999Y285499D01*
X552998D01*
X553498Y284999D01*
Y284499D01*
X552998Y283999D01*
X552499D01*
X552998D01*
X553498Y283500D01*
Y283000D01*
X552998Y282500D01*
X551999D01*
X551499Y283000D01*
X548500Y278500D02*
Y281499D01*
X550000D01*
X550499Y280999D01*
Y279999D01*
X550000Y279500D01*
X548500D01*
X549500D02*
X550499Y278500D01*
X553498D02*
X551499D01*
X553498Y280499D01*
Y280999D01*
X552998Y281499D01*
X551999D01*
X551499Y280999D01*
X565499Y292499D02*
X564500D01*
X564999D01*
Y290000D01*
X564500Y289500D01*
X564000D01*
X563500Y290000D01*
X568498Y289500D02*
X566499D01*
X568498Y291499D01*
Y291999D01*
X567999Y292499D01*
X566999D01*
X566499Y291999D01*
X593500Y282500D02*
Y285499D01*
X595000D01*
X595499Y284999D01*
Y283999D01*
X595000Y283500D01*
X593500D01*
X594500D02*
X595499Y282500D01*
X596499Y284999D02*
X596999Y285499D01*
X597999D01*
X598498Y284999D01*
Y284499D01*
X597999Y283999D01*
X597499D01*
X597999D01*
X598498Y283500D01*
Y283000D01*
X597999Y282500D01*
X596999D01*
X596499Y283000D01*
X593500Y278500D02*
Y281499D01*
X595000D01*
X595499Y280999D01*
Y279999D01*
X595000Y279500D01*
X593500D01*
X594500D02*
X595499Y278500D01*
X598498D02*
X596499D01*
X598498Y280499D01*
Y280999D01*
X597999Y281499D01*
X596999D01*
X596499Y280999D01*
X610499Y292499D02*
X609500D01*
X610000D01*
Y290000D01*
X609500Y289500D01*
X609000D01*
X608500Y290000D01*
X613498Y289500D02*
X611499D01*
X613498Y291499D01*
Y291999D01*
X612998Y292499D01*
X611999D01*
X611499Y291999D01*
X638500Y282500D02*
Y285499D01*
X639999D01*
X640499Y284999D01*
Y283999D01*
X639999Y283500D01*
X638500D01*
X639500D02*
X640499Y282500D01*
X641499Y284999D02*
X641999Y285499D01*
X642999D01*
X643498Y284999D01*
Y284499D01*
X642999Y283999D01*
X642499D01*
X642999D01*
X643498Y283500D01*
Y283000D01*
X642999Y282500D01*
X641999D01*
X641499Y283000D01*
X638500Y278500D02*
Y281499D01*
X639999D01*
X640499Y280999D01*
Y279999D01*
X639999Y279500D01*
X638500D01*
X639500D02*
X640499Y278500D01*
X643498D02*
X641499D01*
X643498Y280499D01*
Y280999D01*
X642999Y281499D01*
X641999D01*
X641499Y280999D01*
X160499Y352499D02*
X159500D01*
X160000D01*
Y350000D01*
X159500Y349500D01*
X159000D01*
X158500Y350000D01*
X163498Y349500D02*
X161499D01*
X163498Y351499D01*
Y351999D01*
X162999Y352499D01*
X161999D01*
X161499Y351999D01*
X188500Y342500D02*
Y345499D01*
X189999D01*
X190499Y344999D01*
Y344000D01*
X189999Y343500D01*
X188500D01*
X189500D02*
X190499Y342500D01*
X191499Y344999D02*
X191999Y345499D01*
X192999D01*
X193498Y344999D01*
Y344499D01*
X192999Y344000D01*
X192499D01*
X192999D01*
X193498Y343500D01*
Y343000D01*
X192999Y342500D01*
X191999D01*
X191499Y343000D01*
X188500Y338500D02*
Y341499D01*
X189999D01*
X190499Y340999D01*
Y340000D01*
X189999Y339500D01*
X188500D01*
X189500D02*
X190499Y338500D01*
X193498D02*
X191499D01*
X193498Y340499D01*
Y340999D01*
X192999Y341499D01*
X191999D01*
X191499Y340999D01*
X205499Y352499D02*
X204500D01*
X204999D01*
Y350000D01*
X204500Y349500D01*
X204000D01*
X203500Y350000D01*
X208498Y349500D02*
X206499D01*
X208498Y351499D01*
Y351999D01*
X207998Y352499D01*
X206999D01*
X206499Y351999D01*
X233500Y342500D02*
Y345499D01*
X234999D01*
X235499Y344999D01*
Y344000D01*
X234999Y343500D01*
X233500D01*
X234500D02*
X235499Y342500D01*
X236499Y344999D02*
X236999Y345499D01*
X237999D01*
X238498Y344999D01*
Y344499D01*
X237999Y344000D01*
X237499D01*
X237999D01*
X238498Y343500D01*
Y343000D01*
X237999Y342500D01*
X236999D01*
X236499Y343000D01*
X233500Y338500D02*
Y341499D01*
X234999D01*
X235499Y340999D01*
Y340000D01*
X234999Y339500D01*
X233500D01*
X234500D02*
X235499Y338500D01*
X238498D02*
X236499D01*
X238498Y340499D01*
Y340999D01*
X237999Y341499D01*
X236999D01*
X236499Y340999D01*
X250499Y352499D02*
X249500D01*
X249999D01*
Y350000D01*
X249500Y349500D01*
X249000D01*
X248500Y350000D01*
X253498Y349500D02*
X251499D01*
X253498Y351499D01*
Y351999D01*
X252998Y352499D01*
X251999D01*
X251499Y351999D01*
X278500Y342500D02*
Y345499D01*
X279999D01*
X280499Y344999D01*
Y344000D01*
X279999Y343500D01*
X278500D01*
X279500D02*
X280499Y342500D01*
X281499Y344999D02*
X281999Y345499D01*
X282998D01*
X283498Y344999D01*
Y344499D01*
X282998Y344000D01*
X282499D01*
X282998D01*
X283498Y343500D01*
Y343000D01*
X282998Y342500D01*
X281999D01*
X281499Y343000D01*
X278500Y338500D02*
Y341499D01*
X279999D01*
X280499Y340999D01*
Y340000D01*
X279999Y339500D01*
X278500D01*
X279500D02*
X280499Y338500D01*
X283498D02*
X281499D01*
X283498Y340499D01*
Y340999D01*
X282998Y341499D01*
X281999D01*
X281499Y340999D01*
X295499Y352499D02*
X294500D01*
X295000D01*
Y350000D01*
X294500Y349500D01*
X294000D01*
X293500Y350000D01*
X298498Y349500D02*
X296499D01*
X298498Y351499D01*
Y351999D01*
X297998Y352499D01*
X296999D01*
X296499Y351999D01*
X323500Y342500D02*
Y345499D01*
X324999D01*
X325499Y344999D01*
Y344000D01*
X324999Y343500D01*
X323500D01*
X324500D02*
X325499Y342500D01*
X326499Y344999D02*
X326999Y345499D01*
X327998D01*
X328498Y344999D01*
Y344499D01*
X327998Y344000D01*
X327499D01*
X327998D01*
X328498Y343500D01*
Y343000D01*
X327998Y342500D01*
X326999D01*
X326499Y343000D01*
X323500Y338500D02*
Y341499D01*
X324999D01*
X325499Y340999D01*
Y340000D01*
X324999Y339500D01*
X323500D01*
X324500D02*
X325499Y338500D01*
X328498D02*
X326499D01*
X328498Y340499D01*
Y340999D01*
X327998Y341499D01*
X326999D01*
X326499Y340999D01*
X340499Y352499D02*
X339500D01*
X340000D01*
Y350000D01*
X339500Y349500D01*
X339000D01*
X338500Y350000D01*
X343498Y349500D02*
X341499D01*
X343498Y351499D01*
Y351999D01*
X342999Y352499D01*
X341999D01*
X341499Y351999D01*
X368500Y342500D02*
Y345499D01*
X370000D01*
X370499Y344999D01*
Y344000D01*
X370000Y343500D01*
X368500D01*
X369500D02*
X370499Y342500D01*
X371499Y344999D02*
X371999Y345499D01*
X372998D01*
X373498Y344999D01*
Y344499D01*
X372998Y344000D01*
X372499D01*
X372998D01*
X373498Y343500D01*
Y343000D01*
X372998Y342500D01*
X371999D01*
X371499Y343000D01*
X368500Y338500D02*
Y341499D01*
X370000D01*
X370499Y340999D01*
Y340000D01*
X370000Y339500D01*
X368500D01*
X369500D02*
X370499Y338500D01*
X373498D02*
X371499D01*
X373498Y340499D01*
Y340999D01*
X372998Y341499D01*
X371999D01*
X371499Y340999D01*
X385499Y352499D02*
X384500D01*
X384999D01*
Y350000D01*
X384500Y349500D01*
X384000D01*
X383500Y350000D01*
X388498Y349500D02*
X386499D01*
X388498Y351499D01*
Y351999D01*
X387999Y352499D01*
X386999D01*
X386499Y351999D01*
X413500Y342500D02*
Y345499D01*
X414999D01*
X415499Y344999D01*
Y344000D01*
X414999Y343500D01*
X413500D01*
X414500D02*
X415499Y342500D01*
X416499Y344999D02*
X416999Y345499D01*
X417999D01*
X418498Y344999D01*
Y344499D01*
X417999Y344000D01*
X417499D01*
X417999D01*
X418498Y343500D01*
Y343000D01*
X417999Y342500D01*
X416999D01*
X416499Y343000D01*
X413500Y338500D02*
Y341499D01*
X414999D01*
X415499Y340999D01*
Y340000D01*
X414999Y339500D01*
X413500D01*
X414500D02*
X415499Y338500D01*
X418498D02*
X416499D01*
X418498Y340499D01*
Y340999D01*
X417999Y341499D01*
X416999D01*
X416499Y340999D01*
X430499Y352499D02*
X429500D01*
X429999D01*
Y350000D01*
X429500Y349500D01*
X429000D01*
X428500Y350000D01*
X433498Y349500D02*
X431499D01*
X433498Y351499D01*
Y351999D01*
X432999Y352499D01*
X431999D01*
X431499Y351999D01*
X458500Y342500D02*
Y345499D01*
X460000D01*
X460499Y344999D01*
Y344000D01*
X460000Y343500D01*
X458500D01*
X459500D02*
X460499Y342500D01*
X461499Y344999D02*
X461999Y345499D01*
X462998D01*
X463498Y344999D01*
Y344499D01*
X462998Y344000D01*
X462499D01*
X462998D01*
X463498Y343500D01*
Y343000D01*
X462998Y342500D01*
X461999D01*
X461499Y343000D01*
X458500Y338500D02*
Y341499D01*
X460000D01*
X460499Y340999D01*
Y340000D01*
X460000Y339500D01*
X458500D01*
X459500D02*
X460499Y338500D01*
X463498D02*
X461499D01*
X463498Y340499D01*
Y340999D01*
X462998Y341499D01*
X461999D01*
X461499Y340999D01*
X475499Y352499D02*
X474500D01*
X475000D01*
Y350000D01*
X474500Y349500D01*
X474000D01*
X473500Y350000D01*
X478498Y349500D02*
X476499D01*
X478498Y351499D01*
Y351999D01*
X477998Y352499D01*
X476999D01*
X476499Y351999D01*
X503500Y342500D02*
Y345499D01*
X504999D01*
X505499Y344999D01*
Y344000D01*
X504999Y343500D01*
X503500D01*
X504500D02*
X505499Y342500D01*
X506499Y344999D02*
X506999Y345499D01*
X507999D01*
X508498Y344999D01*
Y344499D01*
X507999Y344000D01*
X507499D01*
X507999D01*
X508498Y343500D01*
Y343000D01*
X507999Y342500D01*
X506999D01*
X506499Y343000D01*
X503500Y338500D02*
Y341499D01*
X504999D01*
X505499Y340999D01*
Y340000D01*
X504999Y339500D01*
X503500D01*
X504500D02*
X505499Y338500D01*
X508498D02*
X506499D01*
X508498Y340499D01*
Y340999D01*
X507999Y341499D01*
X506999D01*
X506499Y340999D01*
X520499Y352499D02*
X519500D01*
X520000D01*
Y350000D01*
X519500Y349500D01*
X519000D01*
X518500Y350000D01*
X523498Y349500D02*
X521499D01*
X523498Y351499D01*
Y351999D01*
X522999Y352499D01*
X521999D01*
X521499Y351999D01*
X548500Y342500D02*
Y345499D01*
X550000D01*
X550499Y344999D01*
Y344000D01*
X550000Y343500D01*
X548500D01*
X549500D02*
X550499Y342500D01*
X551499Y344999D02*
X551999Y345499D01*
X552998D01*
X553498Y344999D01*
Y344499D01*
X552998Y344000D01*
X552499D01*
X552998D01*
X553498Y343500D01*
Y343000D01*
X552998Y342500D01*
X551999D01*
X551499Y343000D01*
X548500Y338500D02*
Y341499D01*
X550000D01*
X550499Y340999D01*
Y340000D01*
X550000Y339500D01*
X548500D01*
X549500D02*
X550499Y338500D01*
X553498D02*
X551499D01*
X553498Y340499D01*
Y340999D01*
X552998Y341499D01*
X551999D01*
X551499Y340999D01*
X565499Y352499D02*
X564500D01*
X564999D01*
Y350000D01*
X564500Y349500D01*
X564000D01*
X563500Y350000D01*
X568498Y349500D02*
X566499D01*
X568498Y351499D01*
Y351999D01*
X567999Y352499D01*
X566999D01*
X566499Y351999D01*
X593500Y342500D02*
Y345499D01*
X595000D01*
X595499Y344999D01*
Y344000D01*
X595000Y343500D01*
X593500D01*
X594500D02*
X595499Y342500D01*
X596499Y344999D02*
X596999Y345499D01*
X597999D01*
X598498Y344999D01*
Y344499D01*
X597999Y344000D01*
X597499D01*
X597999D01*
X598498Y343500D01*
Y343000D01*
X597999Y342500D01*
X596999D01*
X596499Y343000D01*
X593500Y338500D02*
Y341499D01*
X595000D01*
X595499Y340999D01*
Y340000D01*
X595000Y339500D01*
X593500D01*
X594500D02*
X595499Y338500D01*
X598498D02*
X596499D01*
X598498Y340499D01*
Y340999D01*
X597999Y341499D01*
X596999D01*
X596499Y340999D01*
X610499Y352499D02*
X609500D01*
X610000D01*
Y350000D01*
X609500Y349500D01*
X609000D01*
X608500Y350000D01*
X613498Y349500D02*
X611499D01*
X613498Y351499D01*
Y351999D01*
X612998Y352499D01*
X611999D01*
X611499Y351999D01*
X638500Y342500D02*
Y345499D01*
X639999D01*
X640499Y344999D01*
Y344000D01*
X639999Y343500D01*
X638500D01*
X639500D02*
X640499Y342500D01*
X641499Y344999D02*
X641999Y345499D01*
X642999D01*
X643498Y344999D01*
Y344499D01*
X642999Y344000D01*
X642499D01*
X642999D01*
X643498Y343500D01*
Y343000D01*
X642999Y342500D01*
X641999D01*
X641499Y343000D01*
X638500Y338500D02*
Y341499D01*
X639999D01*
X640499Y340999D01*
Y340000D01*
X639999Y339500D01*
X638500D01*
X639500D02*
X640499Y338500D01*
X643498D02*
X641499D01*
X643498Y340499D01*
Y340999D01*
X642999Y341499D01*
X641999D01*
X641499Y340999D01*
D15*
X163501Y241000D02*
X165167D01*
X165500Y241333D01*
Y242000D01*
X165167Y242333D01*
X163501D01*
X165500Y242999D02*
Y243666D01*
Y243333D01*
X163501D01*
X163834Y242999D01*
X208501Y241000D02*
X210167D01*
X210500Y241333D01*
Y242000D01*
X210167Y242333D01*
X208501D01*
X210500Y242999D02*
Y243666D01*
Y243333D01*
X208501D01*
X208834Y242999D01*
X253501Y241000D02*
X255167D01*
X255500Y241333D01*
Y242000D01*
X255167Y242333D01*
X253501D01*
X255500Y242999D02*
Y243666D01*
Y243333D01*
X253501D01*
X253834Y242999D01*
X298501Y241000D02*
X300167D01*
X300500Y241333D01*
Y242000D01*
X300167Y242333D01*
X298501D01*
X300500Y242999D02*
Y243666D01*
Y243333D01*
X298501D01*
X298834Y242999D01*
X343501Y241000D02*
X345167D01*
X345500Y241333D01*
Y242000D01*
X345167Y242333D01*
X343501D01*
X345500Y242999D02*
Y243666D01*
Y243333D01*
X343501D01*
X343834Y242999D01*
X388501Y241000D02*
X390167D01*
X390500Y241333D01*
Y242000D01*
X390167Y242333D01*
X388501D01*
X390500Y242999D02*
Y243666D01*
Y243333D01*
X388501D01*
X388834Y242999D01*
X433501Y241000D02*
X435167D01*
X435500Y241333D01*
Y242000D01*
X435167Y242333D01*
X433501D01*
X435500Y242999D02*
Y243666D01*
Y243333D01*
X433501D01*
X433834Y242999D01*
X478501Y241000D02*
X480167D01*
X480500Y241333D01*
Y242000D01*
X480167Y242333D01*
X478501D01*
X480500Y242999D02*
Y243666D01*
Y243333D01*
X478501D01*
X478834Y242999D01*
X523501Y241000D02*
X525167D01*
X525500Y241333D01*
Y242000D01*
X525167Y242333D01*
X523501D01*
X525500Y242999D02*
Y243666D01*
Y243333D01*
X523501D01*
X523834Y242999D01*
X568501Y241000D02*
X570167D01*
X570500Y241333D01*
Y242000D01*
X570167Y242333D01*
X568501D01*
X570500Y242999D02*
Y243666D01*
Y243333D01*
X568501D01*
X568834Y242999D01*
X613501Y241000D02*
X615167D01*
X615500Y241333D01*
Y242000D01*
X615167Y242333D01*
X613501D01*
X615500Y242999D02*
Y243666D01*
Y243333D01*
X613501D01*
X613834Y242999D01*
X163501Y301000D02*
X165167D01*
X165500Y301333D01*
Y302000D01*
X165167Y302333D01*
X163501D01*
X165500Y302999D02*
Y303666D01*
Y303333D01*
X163501D01*
X163834Y302999D01*
X208501Y301000D02*
X210167D01*
X210500Y301333D01*
Y302000D01*
X210167Y302333D01*
X208501D01*
X210500Y302999D02*
Y303666D01*
Y303333D01*
X208501D01*
X208834Y302999D01*
X253501Y301000D02*
X255167D01*
X255500Y301333D01*
Y302000D01*
X255167Y302333D01*
X253501D01*
X255500Y302999D02*
Y303666D01*
Y303333D01*
X253501D01*
X253834Y302999D01*
X298501Y301000D02*
X300167D01*
X300500Y301333D01*
Y302000D01*
X300167Y302333D01*
X298501D01*
X300500Y302999D02*
Y303666D01*
Y303333D01*
X298501D01*
X298834Y302999D01*
X343501Y301000D02*
X345167D01*
X345500Y301333D01*
Y302000D01*
X345167Y302333D01*
X343501D01*
X345500Y302999D02*
Y303666D01*
Y303333D01*
X343501D01*
X343834Y302999D01*
X388501Y301000D02*
X390167D01*
X390500Y301333D01*
Y302000D01*
X390167Y302333D01*
X388501D01*
X390500Y302999D02*
Y303666D01*
Y303333D01*
X388501D01*
X388834Y302999D01*
X433501Y301000D02*
X435167D01*
X435500Y301333D01*
Y302000D01*
X435167Y302333D01*
X433501D01*
X435500Y302999D02*
Y303666D01*
Y303333D01*
X433501D01*
X433834Y302999D01*
X478501Y301000D02*
X480167D01*
X480500Y301333D01*
Y302000D01*
X480167Y302333D01*
X478501D01*
X480500Y302999D02*
Y303666D01*
Y303333D01*
X478501D01*
X478834Y302999D01*
X523501Y301000D02*
X525167D01*
X525500Y301333D01*
Y302000D01*
X525167Y302333D01*
X523501D01*
X525500Y302999D02*
Y303666D01*
Y303333D01*
X523501D01*
X523834Y302999D01*
X568501Y301000D02*
X570167D01*
X570500Y301333D01*
Y302000D01*
X570167Y302333D01*
X568501D01*
X570500Y302999D02*
Y303666D01*
Y303333D01*
X568501D01*
X568834Y302999D01*
X613501Y301000D02*
X615167D01*
X615500Y301333D01*
Y302000D01*
X615167Y302333D01*
X613501D01*
X615500Y302999D02*
Y303666D01*
Y303333D01*
X613501D01*
X613834Y302999D01*
X163501Y361000D02*
X165167D01*
X165500Y361333D01*
Y362000D01*
X165167Y362333D01*
X163501D01*
X165500Y362999D02*
Y363666D01*
Y363333D01*
X163501D01*
X163834Y362999D01*
X208501Y361000D02*
X210167D01*
X210500Y361333D01*
Y362000D01*
X210167Y362333D01*
X208501D01*
X210500Y362999D02*
Y363666D01*
Y363333D01*
X208501D01*
X208834Y362999D01*
X253501Y361000D02*
X255167D01*
X255500Y361333D01*
Y362000D01*
X255167Y362333D01*
X253501D01*
X255500Y362999D02*
Y363666D01*
Y363333D01*
X253501D01*
X253834Y362999D01*
X298501Y361000D02*
X300167D01*
X300500Y361333D01*
Y362000D01*
X300167Y362333D01*
X298501D01*
X300500Y362999D02*
Y363666D01*
Y363333D01*
X298501D01*
X298834Y362999D01*
X343501Y361000D02*
X345167D01*
X345500Y361333D01*
Y362000D01*
X345167Y362333D01*
X343501D01*
X345500Y362999D02*
Y363666D01*
Y363333D01*
X343501D01*
X343834Y362999D01*
X388501Y361000D02*
X390167D01*
X390500Y361333D01*
Y362000D01*
X390167Y362333D01*
X388501D01*
X390500Y362999D02*
Y363666D01*
Y363333D01*
X388501D01*
X388834Y362999D01*
X433501Y361000D02*
X435167D01*
X435500Y361333D01*
Y362000D01*
X435167Y362333D01*
X433501D01*
X435500Y362999D02*
Y363666D01*
Y363333D01*
X433501D01*
X433834Y362999D01*
X478501Y361000D02*
X480167D01*
X480500Y361333D01*
Y362000D01*
X480167Y362333D01*
X478501D01*
X480500Y362999D02*
Y363666D01*
Y363333D01*
X478501D01*
X478834Y362999D01*
X523501Y361000D02*
X525167D01*
X525500Y361333D01*
Y362000D01*
X525167Y362333D01*
X523501D01*
X525500Y362999D02*
Y363666D01*
Y363333D01*
X523501D01*
X523834Y362999D01*
X568501Y361000D02*
X570167D01*
X570500Y361333D01*
Y362000D01*
X570167Y362333D01*
X568501D01*
X570500Y362999D02*
Y363666D01*
Y363333D01*
X568501D01*
X568834Y362999D01*
X613501Y361000D02*
X615167D01*
X615500Y361333D01*
Y362000D01*
X615167Y362333D01*
X613501D01*
X615500Y362999D02*
Y363666D01*
Y363333D01*
X613501D01*
X613834Y362999D01*
D16*
X161000Y223500D02*
D03*
X206000D02*
D03*
X251000D02*
D03*
X296000D02*
D03*
X341000D02*
D03*
X386000D02*
D03*
X431000D02*
D03*
X476000D02*
D03*
X521000D02*
D03*
X566000D02*
D03*
X611000D02*
D03*
X161000Y283500D02*
D03*
X206000D02*
D03*
X251000D02*
D03*
X296000D02*
D03*
X341000D02*
D03*
X386000D02*
D03*
X431000D02*
D03*
X476000D02*
D03*
X521000D02*
D03*
X566000D02*
D03*
X611000D02*
D03*
X161000Y343500D02*
D03*
X206000D02*
D03*
X251000D02*
D03*
X296000D02*
D03*
X341000D02*
D03*
X386000D02*
D03*
X431000D02*
D03*
X476000D02*
D03*
X521000D02*
D03*
X566000D02*
D03*
X611000D02*
D03*
D17*
X161000Y266000D02*
D03*
X206000D02*
D03*
X251000D02*
D03*
X296000D02*
D03*
X341000D02*
D03*
X386000D02*
D03*
X431000D02*
D03*
X476000D02*
D03*
X521000D02*
D03*
X566000D02*
D03*
X611000D02*
D03*
X161000Y326000D02*
D03*
X206000D02*
D03*
X251000D02*
D03*
X296000D02*
D03*
X341000D02*
D03*
X386000D02*
D03*
X431000D02*
D03*
X476000D02*
D03*
X521000D02*
D03*
X566000D02*
D03*
X611000D02*
D03*
X161000Y386000D02*
D03*
X206000D02*
D03*
X251000D02*
D03*
X296000D02*
D03*
X341000D02*
D03*
X386000D02*
D03*
X431000D02*
D03*
X476000D02*
D03*
X521000D02*
D03*
X566000D02*
D03*
X611000D02*
D03*
D18*
X161000Y256000D02*
D03*
Y246000D02*
D03*
Y236000D02*
D03*
X191000D02*
D03*
Y246000D02*
D03*
Y256000D02*
D03*
Y266000D02*
D03*
X206000Y256000D02*
D03*
Y246000D02*
D03*
Y236000D02*
D03*
X236000D02*
D03*
Y246000D02*
D03*
Y256000D02*
D03*
Y266000D02*
D03*
X251000Y256000D02*
D03*
Y246000D02*
D03*
Y236000D02*
D03*
X281000D02*
D03*
Y246000D02*
D03*
Y256000D02*
D03*
Y266000D02*
D03*
X296000Y256000D02*
D03*
Y246000D02*
D03*
Y236000D02*
D03*
X326000D02*
D03*
Y246000D02*
D03*
Y256000D02*
D03*
Y266000D02*
D03*
X341000Y256000D02*
D03*
Y246000D02*
D03*
Y236000D02*
D03*
X371000D02*
D03*
Y246000D02*
D03*
Y256000D02*
D03*
Y266000D02*
D03*
X386000Y256000D02*
D03*
Y246000D02*
D03*
Y236000D02*
D03*
X416000D02*
D03*
Y246000D02*
D03*
Y256000D02*
D03*
Y266000D02*
D03*
X431000Y256000D02*
D03*
Y246000D02*
D03*
Y236000D02*
D03*
X461000D02*
D03*
Y246000D02*
D03*
Y256000D02*
D03*
Y266000D02*
D03*
X476000Y256000D02*
D03*
Y246000D02*
D03*
Y236000D02*
D03*
X506000D02*
D03*
Y246000D02*
D03*
Y256000D02*
D03*
Y266000D02*
D03*
X521000Y256000D02*
D03*
Y246000D02*
D03*
Y236000D02*
D03*
X551000D02*
D03*
Y246000D02*
D03*
Y256000D02*
D03*
Y266000D02*
D03*
X566000Y256000D02*
D03*
Y246000D02*
D03*
Y236000D02*
D03*
X596000D02*
D03*
Y246000D02*
D03*
Y256000D02*
D03*
Y266000D02*
D03*
X611000Y256000D02*
D03*
Y246000D02*
D03*
Y236000D02*
D03*
X641000D02*
D03*
Y246000D02*
D03*
Y256000D02*
D03*
Y266000D02*
D03*
X161000Y316000D02*
D03*
Y306000D02*
D03*
Y296000D02*
D03*
X191000D02*
D03*
Y306000D02*
D03*
Y316000D02*
D03*
Y326000D02*
D03*
X206000Y316000D02*
D03*
Y306000D02*
D03*
Y296000D02*
D03*
X236000D02*
D03*
Y306000D02*
D03*
Y316000D02*
D03*
Y326000D02*
D03*
X251000Y316000D02*
D03*
Y306000D02*
D03*
Y296000D02*
D03*
X281000D02*
D03*
Y306000D02*
D03*
Y316000D02*
D03*
Y326000D02*
D03*
X296000Y316000D02*
D03*
Y306000D02*
D03*
Y296000D02*
D03*
X326000D02*
D03*
Y306000D02*
D03*
Y316000D02*
D03*
Y326000D02*
D03*
X341000Y316000D02*
D03*
Y306000D02*
D03*
Y296000D02*
D03*
X371000D02*
D03*
Y306000D02*
D03*
Y316000D02*
D03*
Y326000D02*
D03*
X386000Y316000D02*
D03*
Y306000D02*
D03*
Y296000D02*
D03*
X416000D02*
D03*
Y306000D02*
D03*
Y316000D02*
D03*
Y326000D02*
D03*
X431000Y316000D02*
D03*
Y306000D02*
D03*
Y296000D02*
D03*
X461000D02*
D03*
Y306000D02*
D03*
Y316000D02*
D03*
Y326000D02*
D03*
X476000Y316000D02*
D03*
Y306000D02*
D03*
Y296000D02*
D03*
X506000D02*
D03*
Y306000D02*
D03*
Y316000D02*
D03*
Y326000D02*
D03*
X521000Y316000D02*
D03*
Y306000D02*
D03*
Y296000D02*
D03*
X551000D02*
D03*
Y306000D02*
D03*
Y316000D02*
D03*
Y326000D02*
D03*
X566000Y316000D02*
D03*
Y306000D02*
D03*
Y296000D02*
D03*
X596000D02*
D03*
Y306000D02*
D03*
Y316000D02*
D03*
Y326000D02*
D03*
X611000Y316000D02*
D03*
Y306000D02*
D03*
Y296000D02*
D03*
X641000D02*
D03*
Y306000D02*
D03*
Y316000D02*
D03*
Y326000D02*
D03*
X161000Y376000D02*
D03*
Y366000D02*
D03*
Y356000D02*
D03*
X191000D02*
D03*
Y366000D02*
D03*
Y376000D02*
D03*
Y386000D02*
D03*
X206000Y376000D02*
D03*
Y366000D02*
D03*
Y356000D02*
D03*
X236000D02*
D03*
Y366000D02*
D03*
Y376000D02*
D03*
Y386000D02*
D03*
X251000Y376000D02*
D03*
Y366000D02*
D03*
Y356000D02*
D03*
X281000D02*
D03*
Y366000D02*
D03*
Y376000D02*
D03*
Y386000D02*
D03*
X296000Y376000D02*
D03*
Y366000D02*
D03*
Y356000D02*
D03*
X326000D02*
D03*
Y366000D02*
D03*
Y376000D02*
D03*
Y386000D02*
D03*
X341000Y376000D02*
D03*
Y366000D02*
D03*
Y356000D02*
D03*
X371000D02*
D03*
Y366000D02*
D03*
Y376000D02*
D03*
Y386000D02*
D03*
X386000Y376000D02*
D03*
Y366000D02*
D03*
Y356000D02*
D03*
X416000D02*
D03*
Y366000D02*
D03*
Y376000D02*
D03*
Y386000D02*
D03*
X431000Y376000D02*
D03*
Y366000D02*
D03*
Y356000D02*
D03*
X461000D02*
D03*
Y366000D02*
D03*
Y376000D02*
D03*
Y386000D02*
D03*
X476000Y376000D02*
D03*
Y366000D02*
D03*
Y356000D02*
D03*
X506000D02*
D03*
Y366000D02*
D03*
Y376000D02*
D03*
Y386000D02*
D03*
X521000Y376000D02*
D03*
Y366000D02*
D03*
Y356000D02*
D03*
X551000D02*
D03*
Y366000D02*
D03*
Y376000D02*
D03*
Y386000D02*
D03*
X566000Y376000D02*
D03*
Y366000D02*
D03*
Y356000D02*
D03*
X596000D02*
D03*
Y366000D02*
D03*
Y376000D02*
D03*
Y386000D02*
D03*
X611000Y376000D02*
D03*
Y366000D02*
D03*
Y356000D02*
D03*
X641000D02*
D03*
Y366000D02*
D03*
Y376000D02*
D03*
Y386000D02*
D03*
D19*
X188000Y241000D02*
D03*
X177500Y249000D02*
D03*
X172500Y254500D02*
D03*
X166000Y252000D02*
D03*
X233000Y241000D02*
D03*
X222500Y249000D02*
D03*
X217500Y254500D02*
D03*
X211000Y252000D02*
D03*
X278000Y241000D02*
D03*
X267500Y249000D02*
D03*
X262500Y254500D02*
D03*
X256000Y252000D02*
D03*
X323000Y241000D02*
D03*
X312500Y249000D02*
D03*
X307500Y254500D02*
D03*
X301000Y252000D02*
D03*
X368000Y241000D02*
D03*
X357500Y249000D02*
D03*
X352500Y254500D02*
D03*
X346000Y252000D02*
D03*
X413000Y241000D02*
D03*
X402500Y249000D02*
D03*
X397500Y254500D02*
D03*
X391000Y252000D02*
D03*
X458000Y241000D02*
D03*
X447500Y249000D02*
D03*
X442500Y254500D02*
D03*
X436000Y252000D02*
D03*
X503000Y241000D02*
D03*
X492500Y249000D02*
D03*
X487500Y254500D02*
D03*
X481000Y252000D02*
D03*
X548000Y241000D02*
D03*
X537500Y249000D02*
D03*
X532500Y254500D02*
D03*
X526000Y252000D02*
D03*
X593000Y241000D02*
D03*
X582500Y249000D02*
D03*
X577500Y254500D02*
D03*
X571000Y252000D02*
D03*
X638000Y241000D02*
D03*
X627500Y249000D02*
D03*
X622500Y254500D02*
D03*
X616000Y252000D02*
D03*
X188000Y301000D02*
D03*
X177500Y309000D02*
D03*
X172500Y314500D02*
D03*
X166000Y312000D02*
D03*
X233000Y301000D02*
D03*
X222500Y309000D02*
D03*
X217500Y314500D02*
D03*
X211000Y312000D02*
D03*
X278000Y301000D02*
D03*
X267500Y309000D02*
D03*
X262500Y314500D02*
D03*
X256000Y312000D02*
D03*
X323000Y301000D02*
D03*
X312500Y309000D02*
D03*
X307500Y314500D02*
D03*
X301000Y312000D02*
D03*
X368000Y301000D02*
D03*
X357500Y309000D02*
D03*
X352500Y314500D02*
D03*
X346000Y312000D02*
D03*
X413000Y301000D02*
D03*
X402500Y309000D02*
D03*
X397500Y314500D02*
D03*
X391000Y312000D02*
D03*
X458000Y301000D02*
D03*
X447500Y309000D02*
D03*
X442500Y314500D02*
D03*
X436000Y312000D02*
D03*
X503000Y301000D02*
D03*
X492500Y309000D02*
D03*
X487500Y314500D02*
D03*
X481000Y312000D02*
D03*
X548000Y301000D02*
D03*
X537500Y309000D02*
D03*
X532500Y314500D02*
D03*
X526000Y312000D02*
D03*
X593000Y301000D02*
D03*
X582500Y309000D02*
D03*
X577500Y314500D02*
D03*
X571000Y312000D02*
D03*
X638000Y301000D02*
D03*
X627500Y309000D02*
D03*
X622500Y314500D02*
D03*
X616000Y312000D02*
D03*
X188000Y361000D02*
D03*
X177500Y369000D02*
D03*
X172500Y374500D02*
D03*
X166000Y372000D02*
D03*
X233000Y361000D02*
D03*
X222500Y369000D02*
D03*
X217500Y374500D02*
D03*
X211000Y372000D02*
D03*
X278000Y361000D02*
D03*
X267500Y369000D02*
D03*
X262500Y374500D02*
D03*
X256000Y372000D02*
D03*
X323000Y361000D02*
D03*
X312500Y369000D02*
D03*
X307500Y374500D02*
D03*
X301000Y372000D02*
D03*
X368000Y361000D02*
D03*
X357500Y369000D02*
D03*
X352500Y374500D02*
D03*
X346000Y372000D02*
D03*
X413000Y361000D02*
D03*
X402500Y369000D02*
D03*
X397500Y374500D02*
D03*
X391000Y372000D02*
D03*
X458000Y361000D02*
D03*
X447500Y369000D02*
D03*
X442500Y374500D02*
D03*
X436000Y372000D02*
D03*
X503000Y361000D02*
D03*
X492500Y369000D02*
D03*
X487500Y374500D02*
D03*
X481000Y372000D02*
D03*
X548000Y361000D02*
D03*
X537500Y369000D02*
D03*
X532500Y374500D02*
D03*
X526000Y372000D02*
D03*
X593000Y361000D02*
D03*
X582500Y369000D02*
D03*
X577500Y374500D02*
D03*
X571000Y372000D02*
D03*
X638000Y361000D02*
D03*
X627500Y369000D02*
D03*
X622500Y374500D02*
D03*
X616000Y372000D02*
D03*
M02*
