G04 Layer_Color=8388736*
%FSLAX25Y25*%
%MOIN*%
G70*
G01*
G75*
%ADD10R,0.07000X0.07874*%
%ADD12C,0.00500*%
%ADD60C,0.03200*%
%ADD61R,0.09758X0.08774*%
%ADD62C,0.19200*%
%ADD63C,0.04400*%
%ADD64C,0.13498*%
%ADD65C,0.02900*%
%ADD66C,0.05900*%
D10*
X555492Y268058D02*
D03*
Y283774D02*
D03*
Y248341D02*
D03*
Y232625D02*
D03*
Y212908D02*
D03*
Y197192D02*
D03*
Y177475D02*
D03*
Y161759D02*
D03*
D12*
X634707Y239474D02*
X636039D01*
X635373D01*
Y237474D01*
X637039D02*
X637706D01*
X638039Y237807D01*
Y238474D01*
X637706Y238807D01*
X637039D01*
X636706Y238474D01*
Y237807D01*
X637039Y237474D01*
X638705Y236808D02*
Y238807D01*
X639705D01*
X640038Y238474D01*
Y237807D01*
X639705Y237474D01*
X638705D01*
X642037Y239140D02*
X641704Y239474D01*
X641038D01*
X640705Y239140D01*
Y238807D01*
X641038Y238474D01*
X641704D01*
X642037Y238141D01*
Y237807D01*
X641704Y237474D01*
X641038D01*
X640705Y237807D01*
X643037Y237474D02*
X643704D01*
X644037Y237807D01*
Y238474D01*
X643704Y238807D01*
X643037D01*
X642704Y238474D01*
Y237807D01*
X643037Y237474D01*
X644703D02*
X645370D01*
X645037D01*
Y239474D01*
X644703D01*
X647702D02*
Y237474D01*
X646703D01*
X646370Y237807D01*
Y238474D01*
X646703Y238807D01*
X647702D01*
X649368Y237474D02*
X648702D01*
X648369Y237807D01*
Y238474D01*
X648702Y238807D01*
X649368D01*
X649702Y238474D01*
Y238141D01*
X648369D01*
X650368Y238807D02*
Y237474D01*
Y238141D01*
X650701Y238474D01*
X651035Y238807D01*
X651368D01*
D60*
X540102Y254123D02*
D03*
X551263D02*
D03*
X540102Y289556D02*
D03*
X551263D02*
D03*
X540102Y273840D02*
D03*
X551263D02*
D03*
Y238407D02*
D03*
X540102D02*
D03*
X551263Y218690D02*
D03*
X540102D02*
D03*
X551263Y202974D02*
D03*
X540102D02*
D03*
X551263Y183257D02*
D03*
X540102D02*
D03*
X551263Y167541D02*
D03*
X540102D02*
D03*
D61*
X545668Y161753D02*
D03*
Y177501D02*
D03*
Y197186D02*
D03*
Y212934D02*
D03*
Y232619D02*
D03*
Y248367D02*
D03*
Y268052D02*
D03*
Y283800D02*
D03*
D62*
X591551Y144057D02*
D03*
Y301496D02*
D03*
X506830Y301565D02*
D03*
X534206Y144057D02*
D03*
D63*
X512299Y211553D02*
D03*
X507299Y164053D02*
D03*
Y169053D02*
D03*
Y174053D02*
D03*
Y179053D02*
D03*
Y184053D02*
D03*
Y189053D02*
D03*
Y194053D02*
D03*
Y199053D02*
D03*
Y204053D02*
D03*
Y209053D02*
D03*
X512299Y206553D02*
D03*
Y201553D02*
D03*
Y196553D02*
D03*
Y191553D02*
D03*
Y186553D02*
D03*
Y181553D02*
D03*
Y176553D02*
D03*
Y171553D02*
D03*
Y166553D02*
D03*
Y161553D02*
D03*
D64*
Y143303D02*
D03*
Y229803D02*
D03*
D65*
X542892Y277592D02*
D03*
X548473D02*
D03*
X545682D02*
D03*
Y261844D02*
D03*
X548473D02*
D03*
X542892D02*
D03*
X545682Y242160D02*
D03*
X548473D02*
D03*
X542892D02*
D03*
X545682Y226411D02*
D03*
X548473D02*
D03*
X542892D02*
D03*
X545682Y206726D02*
D03*
X548473D02*
D03*
X542892D02*
D03*
X545682Y190978D02*
D03*
X548473D02*
D03*
X542892D02*
D03*
X545682Y171293D02*
D03*
X548473D02*
D03*
X542892D02*
D03*
X545682Y155545D02*
D03*
X548473D02*
D03*
X542892D02*
D03*
X545682Y289556D02*
D03*
X548473D02*
D03*
X542892D02*
D03*
X540102Y277592D02*
D03*
X551263D02*
D03*
X540102Y261844D02*
D03*
Y242160D02*
D03*
X551263Y226411D02*
D03*
X540102D02*
D03*
Y206726D02*
D03*
Y171293D02*
D03*
Y155545D02*
D03*
X551263D02*
D03*
Y171293D02*
D03*
Y190978D02*
D03*
Y206726D02*
D03*
Y242160D02*
D03*
Y261844D02*
D03*
Y289556D02*
D03*
X540102D02*
D03*
Y273840D02*
D03*
X551263D02*
D03*
X542892D02*
D03*
X548473D02*
D03*
X545682D02*
D03*
X540102Y254123D02*
D03*
X551263D02*
D03*
X542892D02*
D03*
X548473D02*
D03*
X545682D02*
D03*
X540102Y238407D02*
D03*
X551263D02*
D03*
X542892D02*
D03*
X548473D02*
D03*
X545682D02*
D03*
X540102Y218690D02*
D03*
X551263D02*
D03*
X542892D02*
D03*
X548473D02*
D03*
X545682D02*
D03*
X540102Y202974D02*
D03*
X551263D02*
D03*
X542892D02*
D03*
X548473D02*
D03*
X545682D02*
D03*
X540102Y183257D02*
D03*
X551263D02*
D03*
X542892D02*
D03*
X548473D02*
D03*
X545682D02*
D03*
X540102Y167541D02*
D03*
X551263D02*
D03*
X542892D02*
D03*
X548473D02*
D03*
X545682D02*
D03*
X540102Y190978D02*
D03*
D66*
X555492Y268058D02*
D03*
Y283774D02*
D03*
Y248341D02*
D03*
Y232625D02*
D03*
Y212908D02*
D03*
Y197192D02*
D03*
Y177475D02*
D03*
Y161759D02*
D03*
M02*
