G04 Layer_Physical_Order=4*
G04 Layer_Color=16440176*
%FSLAX25Y25*%
%MOIN*%
G70*
G01*
G75*
%ADD10R,0.07000X0.07874*%
%ADD12C,0.00500*%
%ADD18C,0.03500*%
%ADD20C,0.02000*%
%ADD21C,0.05000*%
%ADD23C,0.04000*%
%ADD32C,0.03800*%
%ADD33C,0.03000*%
%ADD34C,0.05000*%
%ADD35C,0.06000*%
%ADD37C,0.03100*%
%ADD38C,0.03500*%
%ADD47R,0.14852X0.11732*%
%ADD48R,0.01937X0.08278*%
G36*
X515298Y204954D02*
X515261Y204972D01*
X515203Y204989D01*
X515124Y205004D01*
X515024Y205017D01*
X514759Y205037D01*
X513976Y205053D01*
Y208053D01*
X514204Y208054D01*
X515203Y208116D01*
X515261Y208133D01*
X515298Y208152D01*
Y204954D01*
D02*
G37*
G36*
X522838Y199573D02*
X522799Y199560D01*
X522746Y199531D01*
X522679Y199485D01*
X522599Y199423D01*
X522398Y199250D01*
X521834Y198708D01*
X519712Y200829D01*
X519872Y200991D01*
X520535Y201742D01*
X520564Y201795D01*
X520577Y201834D01*
X522838Y199573D01*
D02*
G37*
G36*
X517225Y175010D02*
X517976Y174347D01*
X518028Y174318D01*
X518068Y174305D01*
X515806Y172044D01*
X515794Y172083D01*
X515764Y172136D01*
X515719Y172203D01*
X515657Y172283D01*
X515484Y172484D01*
X514942Y173048D01*
X517063Y175170D01*
X517225Y175010D01*
D02*
G37*
D10*
X555492Y283774D02*
D03*
Y268058D02*
D03*
Y232625D02*
D03*
Y248341D02*
D03*
Y197192D02*
D03*
Y212908D02*
D03*
Y161759D02*
D03*
Y177475D02*
D03*
D12*
X634432Y256333D02*
Y258332D01*
X635098Y257666D01*
X635765Y258332D01*
Y256333D01*
X636431D02*
X637098D01*
X636764D01*
Y257666D01*
X636431D01*
X639430Y258332D02*
Y256333D01*
X638431D01*
X638097Y256666D01*
Y257333D01*
X638431Y257666D01*
X639430D01*
X641430Y256333D02*
X640097D01*
X641430Y257666D01*
Y257999D01*
X641096Y258332D01*
X640430D01*
X640097Y257999D01*
D18*
X512299Y211553D02*
D03*
Y206553D02*
D03*
Y201553D02*
D03*
Y196553D02*
D03*
Y191553D02*
D03*
Y186553D02*
D03*
Y181553D02*
D03*
Y176553D02*
D03*
D20*
X545682Y289556D02*
D03*
X548473D02*
D03*
X542892D02*
D03*
X551263D02*
D03*
X540102D02*
D03*
Y273840D02*
D03*
X551263D02*
D03*
X542892D02*
D03*
X548473D02*
D03*
X545682D02*
D03*
X540102Y254123D02*
D03*
X551263D02*
D03*
X542892D02*
D03*
X548473D02*
D03*
X545682D02*
D03*
X540102Y238407D02*
D03*
X551263D02*
D03*
X542892D02*
D03*
X548473D02*
D03*
X545682D02*
D03*
X540102Y218690D02*
D03*
X551263D02*
D03*
X542892D02*
D03*
X548473D02*
D03*
X545682D02*
D03*
X540102Y202974D02*
D03*
X551263D02*
D03*
X542892D02*
D03*
X548473D02*
D03*
X545682D02*
D03*
X540102Y183257D02*
D03*
X551263D02*
D03*
X542892D02*
D03*
X548473D02*
D03*
X545682D02*
D03*
X540102Y167541D02*
D03*
X551263D02*
D03*
X542892D02*
D03*
X548473D02*
D03*
X545682D02*
D03*
D21*
X555492Y268058D02*
D03*
Y283774D02*
D03*
Y248341D02*
D03*
Y232625D02*
D03*
Y212908D02*
D03*
Y197192D02*
D03*
Y177475D02*
D03*
Y161759D02*
D03*
D23*
X517786Y170210D02*
Y172325D01*
X522557Y201553D02*
X524364Y203360D01*
X516499Y206553D02*
X518100Y208154D01*
Y214609D01*
X524364Y203360D02*
Y233678D01*
X516134Y216576D02*
X518100Y214609D01*
X525073Y175155D02*
X543661D01*
X544748Y176242D01*
X524364Y233678D02*
X536677Y245991D01*
X544277D01*
X544742Y246456D01*
D32*
X524240Y194554D02*
X530754Y201068D01*
Y225383D01*
X535562Y230191D01*
X540264D01*
X541444Y231371D01*
D33*
X514807Y175305D02*
X517786Y172325D01*
X513547Y175305D02*
X514807D01*
X512299Y176553D02*
X513547Y175305D01*
X515578Y179053D02*
X521176D01*
X513078Y181553D02*
X515578Y179053D01*
X503995Y212661D02*
X504665Y213330D01*
X503031Y212661D02*
X503995D01*
X504665Y213330D02*
X510522D01*
X512299Y211553D01*
Y206553D02*
X516499D01*
X515915Y199236D02*
X520240D01*
X513599Y201553D02*
X515915Y199236D01*
X512299Y201553D02*
X513599D01*
X515906Y194040D02*
X523726D01*
X513392Y196553D02*
X515906Y194040D01*
X512299Y196553D02*
X513392D01*
X513250Y191553D02*
X515750Y189053D01*
X512299Y191553D02*
X513250D01*
X513227Y186553D02*
X515727Y184053D01*
X512299Y186553D02*
X513227D01*
X512299Y181553D02*
X513078D01*
X523726Y194040D02*
X524240Y194554D01*
X520240Y199236D02*
X522557Y201553D01*
X521176Y179053D02*
X525073Y175155D01*
X515727Y184053D02*
X532600D01*
X515750Y189053D02*
X526128D01*
D34*
X514078Y218772D02*
X516134Y216716D01*
Y216576D02*
Y216716D01*
X517786Y170210D02*
X528082Y159914D01*
X540885D01*
X543055Y162084D01*
D35*
X493449Y244856D02*
X531058Y282465D01*
X493449Y218802D02*
Y244856D01*
X531058Y282465D02*
X543454D01*
X503026Y212656D02*
X503031Y212661D01*
X499596Y212656D02*
X503026D01*
X508073Y218772D02*
X514078D01*
X501583Y225262D02*
X508073Y218772D01*
X493449Y218802D02*
X499596Y212656D01*
X501583Y225262D02*
Y236622D01*
X531658Y266697D01*
X541451D01*
X541786Y267032D01*
D37*
X539359Y210297D02*
X544154D01*
X535559Y206496D02*
X539359Y210297D01*
X526128Y189053D02*
X535559Y198484D01*
Y206496D01*
D38*
X538664Y194861D02*
X544909D01*
X532600Y184053D02*
X535272Y186724D01*
Y191469D01*
X538664Y194861D01*
D47*
X545625Y285290D02*
D03*
Y269573D02*
D03*
Y249857D02*
D03*
Y234140D02*
D03*
Y214424D02*
D03*
Y198707D02*
D03*
Y178991D02*
D03*
Y163274D02*
D03*
D48*
X551059Y283563D02*
D03*
M02*
