G04 Layer_Color=16711935*
%FSLAX25Y25*%
%MOIN*%
G70*
G01*
G75*
%ADD12C,0.00500*%
%ADD22C,0.01000*%
%ADD36C,0.02000*%
%ADD67C,0.00600*%
D12*
X519578Y307415D02*
Y306082D01*
X520245Y305415D01*
X520911Y306082D01*
Y307415D01*
X521578Y305415D02*
X522244D01*
X521911D01*
Y306748D01*
X521578D01*
X523577D02*
X524243D01*
X524577Y306415D01*
Y305415D01*
X523577D01*
X523244Y305749D01*
X523577Y306082D01*
X524577D01*
X525243Y305415D02*
X526243D01*
X526576Y305749D01*
X526243Y306082D01*
X525576D01*
X525243Y306415D01*
X525576Y306748D01*
X526576D01*
X530575D02*
X529575D01*
X529242Y306415D01*
Y305749D01*
X529575Y305415D01*
X530575D01*
X531574D02*
X532241D01*
X532574Y305749D01*
Y306415D01*
X532241Y306748D01*
X531574D01*
X531241Y306415D01*
Y305749D01*
X531574Y305415D01*
X533241D02*
Y306748D01*
X534240D01*
X534573Y306415D01*
Y305415D01*
X535240D02*
Y306748D01*
X536239D01*
X536573Y306415D01*
Y305415D01*
X538239D02*
X537572D01*
X537239Y305749D01*
Y306415D01*
X537572Y306748D01*
X538239D01*
X538572Y306415D01*
Y306082D01*
X537239D01*
X540571Y306748D02*
X539572D01*
X539239Y306415D01*
Y305749D01*
X539572Y305415D01*
X540571D01*
X541571Y307081D02*
Y306748D01*
X541238D01*
X541904D01*
X541571D01*
Y305749D01*
X541904Y305415D01*
X544903Y307415D02*
X546236D01*
X545570D01*
Y305415D01*
X547236D02*
X547902D01*
X548236Y305749D01*
Y306415D01*
X547902Y306748D01*
X547236D01*
X546903Y306415D01*
Y305749D01*
X547236Y305415D01*
X548902Y304749D02*
Y306748D01*
X549902D01*
X550235Y306415D01*
Y305749D01*
X549902Y305415D01*
X548902D01*
X552901D02*
X553567D01*
X553234D01*
Y307415D01*
X552901D01*
X554900Y306748D02*
X555567D01*
X555900Y306415D01*
Y305415D01*
X554900D01*
X554567Y305749D01*
X554900Y306082D01*
X555900D01*
X556566Y306748D02*
Y305749D01*
X556899Y305415D01*
X557899D01*
Y305082D01*
X557566Y304749D01*
X557233D01*
X557899Y305415D02*
Y306748D01*
X559565Y305415D02*
X558899D01*
X558566Y305749D01*
Y306415D01*
X558899Y306748D01*
X559565D01*
X559899Y306415D01*
Y306082D01*
X558566D01*
X560565Y306748D02*
Y305415D01*
Y306082D01*
X560898Y306415D01*
X561231Y306748D01*
X561565D01*
X564897Y307081D02*
Y306748D01*
X564564D01*
X565230D01*
X564897D01*
Y305749D01*
X565230Y305415D01*
X566563D02*
X567229D01*
X567563Y305749D01*
Y306415D01*
X567229Y306748D01*
X566563D01*
X566230Y306415D01*
Y305749D01*
X566563Y305415D01*
X570228D02*
Y307415D01*
X570895Y306748D01*
X571561Y307415D01*
Y305415D01*
X572228D02*
X572894D01*
X572561D01*
Y306748D01*
X572228D01*
X575227Y307415D02*
Y305415D01*
X574227D01*
X573894Y305749D01*
Y306415D01*
X574227Y306748D01*
X575227D01*
X577893Y305415D02*
X578559D01*
X578226D01*
Y307415D01*
X577893Y307081D01*
X519278Y301815D02*
Y300482D01*
X519945Y299815D01*
X520611Y300482D01*
Y301815D01*
X521278Y299815D02*
X521944D01*
X521611D01*
Y301148D01*
X521278D01*
X523277D02*
X523943D01*
X524277Y300815D01*
Y299815D01*
X523277D01*
X522944Y300149D01*
X523277Y300482D01*
X524277D01*
X524943Y299815D02*
X525943D01*
X526276Y300149D01*
X525943Y300482D01*
X525276D01*
X524943Y300815D01*
X525276Y301148D01*
X526276D01*
X530275D02*
X529275D01*
X528942Y300815D01*
Y300149D01*
X529275Y299815D01*
X530275D01*
X531274D02*
X531941D01*
X532274Y300149D01*
Y300815D01*
X531941Y301148D01*
X531274D01*
X530941Y300815D01*
Y300149D01*
X531274Y299815D01*
X532940D02*
Y301148D01*
X533940D01*
X534273Y300815D01*
Y299815D01*
X534940D02*
Y301148D01*
X535940D01*
X536273Y300815D01*
Y299815D01*
X537939D02*
X537272D01*
X536939Y300149D01*
Y300815D01*
X537272Y301148D01*
X537939D01*
X538272Y300815D01*
Y300482D01*
X536939D01*
X540271Y301148D02*
X539272D01*
X538939Y300815D01*
Y300149D01*
X539272Y299815D01*
X540271D01*
X541271Y301481D02*
Y301148D01*
X540938D01*
X541604D01*
X541271D01*
Y300149D01*
X541604Y299815D01*
X544603Y301815D02*
Y299815D01*
X545603D01*
X545936Y300149D01*
Y300482D01*
X545603Y300815D01*
X544603D01*
X545603D01*
X545936Y301148D01*
Y301481D01*
X545603Y301815D01*
X544603D01*
X546936Y299815D02*
X547602D01*
X547936Y300149D01*
Y300815D01*
X547602Y301148D01*
X546936D01*
X546603Y300815D01*
Y300149D01*
X546936Y299815D01*
X548602Y299149D02*
Y301148D01*
X549602D01*
X549935Y300815D01*
Y300149D01*
X549602Y299815D01*
X548602D01*
X552601D02*
X553267D01*
X552934D01*
Y301815D01*
X552601D01*
X554600Y301148D02*
X555267D01*
X555600Y300815D01*
Y299815D01*
X554600D01*
X554267Y300149D01*
X554600Y300482D01*
X555600D01*
X556266Y301148D02*
Y300149D01*
X556600Y299815D01*
X557599D01*
Y299482D01*
X557266Y299149D01*
X556933D01*
X557599Y299815D02*
Y301148D01*
X559265Y299815D02*
X558599D01*
X558266Y300149D01*
Y300815D01*
X558599Y301148D01*
X559265D01*
X559598Y300815D01*
Y300482D01*
X558266D01*
X560265Y301148D02*
Y299815D01*
Y300482D01*
X560598Y300815D01*
X560931Y301148D01*
X561265D01*
X564597Y301481D02*
Y301148D01*
X564264D01*
X564930D01*
X564597D01*
Y300149D01*
X564930Y299815D01*
X566263D02*
X566929D01*
X567263Y300149D01*
Y300815D01*
X566929Y301148D01*
X566263D01*
X565930Y300815D01*
Y300149D01*
X566263Y299815D01*
X569929D02*
Y301815D01*
X570595Y301148D01*
X571261Y301815D01*
Y299815D01*
X571928D02*
X572594D01*
X572261D01*
Y301148D01*
X571928D01*
X574927Y301815D02*
Y299815D01*
X573927D01*
X573594Y300149D01*
Y300815D01*
X573927Y301148D01*
X574927D01*
X578926Y299815D02*
X577593D01*
X578926Y301148D01*
Y301481D01*
X578592Y301815D01*
X577926D01*
X577593Y301481D01*
D22*
X536800Y192600D02*
Y194600D01*
X535800Y181800D02*
X537100D01*
X536800Y171800D02*
Y181800D01*
Y193600D02*
Y203600D01*
X534800Y175800D02*
X536800Y181800D01*
X538800Y175800D01*
X536800Y193600D02*
X538800Y199600D01*
X534800D02*
X536800Y193600D01*
X473791Y313307D02*
X488175D01*
X473791Y132195D02*
X486175D01*
X474791Y222751D02*
Y313307D01*
Y132195D02*
Y222751D01*
X472791Y307307D02*
X474791Y313307D01*
X476791Y307307D01*
X474791Y132195D02*
X476791Y138195D01*
X472791D02*
X474791Y132195D01*
X602151Y144057D02*
X604187D01*
X602151Y301496D02*
X604187D01*
X603187Y144057D02*
Y200083D01*
Y242270D02*
Y301496D01*
Y144057D02*
X605187Y150057D01*
X601187D02*
X603187Y144057D01*
X601187Y295496D02*
X603187Y301496D01*
X605187Y295496D01*
X610236Y315307D02*
Y325500D01*
X488175Y315307D02*
Y325500D01*
X568199Y324500D02*
X610236D01*
X488175D02*
X527012D01*
X604236Y326500D02*
X610236Y324500D01*
X604236Y322500D02*
X610236Y324500D01*
X488175D02*
X494175Y322500D01*
X488175Y324500D02*
X494175Y326500D01*
X535000Y287800D02*
X538900D01*
X535000Y279800D02*
X538400D01*
X536000Y269800D02*
Y279800D01*
Y287800D02*
Y297800D01*
X534000Y273800D02*
X536000Y279800D01*
X538000Y273800D01*
X536000Y287800D02*
X538000Y293800D01*
X534000D02*
X536000Y287800D01*
X536800Y244500D02*
X540700D01*
X536800Y236500D02*
X540200D01*
X537800Y226500D02*
Y236500D01*
Y244500D02*
Y254500D01*
X535800Y230500D02*
X537800Y236500D01*
X539800Y230500D01*
X537800Y244500D02*
X539800Y250500D01*
X535800D02*
X537800Y244500D01*
X612236Y132195D02*
X619336D01*
X602151Y144057D02*
X619336D01*
X618336Y132195D02*
Y138126D01*
Y144057D01*
Y132195D02*
X620336Y138195D01*
X616336D02*
X618336Y132195D01*
X616336Y138057D02*
X618336Y144057D01*
X620336Y138057D01*
X610236Y122213D02*
Y130246D01*
X591551Y122213D02*
Y133457D01*
X600894Y123213D02*
X610236D01*
X591551D02*
X600894D01*
X604236Y125213D02*
X610236Y123213D01*
X604236Y121213D02*
X610236Y123213D01*
X591551D02*
X597551Y121213D01*
X591551Y123213D02*
X597551Y125213D01*
X610236Y315307D02*
Y330759D01*
X591551Y312096D02*
Y330759D01*
X600894Y329759D02*
X610236D01*
X591551D02*
X600894D01*
X604236Y331759D02*
X610236Y329759D01*
X604236Y327759D02*
X610236Y329759D01*
X591551D02*
X597551Y327759D01*
X591551Y329759D02*
X597551Y331759D01*
X610236Y106154D02*
Y153868D01*
X534206Y106154D02*
Y133457D01*
X591078Y107154D02*
X610236D01*
X534206D02*
X550890D01*
X604236Y109154D02*
X610236Y107154D01*
X604236Y105154D02*
X610236Y107154D01*
X534206D02*
X540206Y105154D01*
X534206Y107154D02*
X540206Y109154D01*
D36*
X610236Y155868D02*
Y289685D01*
X488175Y132195D02*
X610236D01*
X488175D02*
Y313307D01*
X610236D01*
Y289685D02*
Y313307D01*
Y132246D02*
Y155868D01*
D67*
X535401Y204600D02*
X534401Y205600D01*
Y207599D01*
X535401Y208599D01*
X536400D01*
X537400Y207599D01*
Y206599D01*
Y207599D01*
X538400Y208599D01*
X539399D01*
X540399Y207599D01*
Y205600D01*
X539399Y204600D01*
X540399Y210598D02*
X539399D01*
Y211598D01*
X540399D01*
Y210598D01*
X535401Y215596D02*
X534401Y216596D01*
Y218596D01*
X535401Y219595D01*
X539399D01*
X540399Y218596D01*
Y216596D01*
X539399Y215596D01*
X535401D01*
Y221595D02*
X534401Y222594D01*
Y224593D01*
X535401Y225593D01*
X539399D01*
X540399Y224593D01*
Y222594D01*
X539399Y221595D01*
X535401D01*
X470811Y227339D02*
X464813D01*
X467812Y224340D01*
Y228338D01*
X464813Y234336D02*
X465812Y232337D01*
X467812Y230338D01*
X469811D01*
X470811Y231337D01*
Y233337D01*
X469811Y234336D01*
X468811D01*
X467812Y233337D01*
Y230338D01*
X470811Y236336D02*
X469811D01*
Y237335D01*
X470811D01*
Y236336D01*
X465812Y241334D02*
X464813Y242334D01*
Y244333D01*
X465812Y245333D01*
X469811D01*
X470811Y244333D01*
Y242334D01*
X469811Y241334D01*
X465812D01*
Y247332D02*
X464813Y248332D01*
Y250331D01*
X465812Y251331D01*
X469811D01*
X470811Y250331D01*
Y248332D01*
X469811Y247332D01*
X465812D01*
X470811Y253330D02*
X466812D01*
Y254330D01*
X467812Y255330D01*
X470811D01*
X467812D01*
X466812Y256329D01*
X467812Y257329D01*
X470811D01*
Y259328D02*
X466812D01*
Y260328D01*
X467812Y261328D01*
X470811D01*
X467812D01*
X466812Y262327D01*
X467812Y263327D01*
X470811D01*
X601787Y201683D02*
X600788Y202682D01*
Y204682D01*
X601787Y205681D01*
X602787D01*
X603787Y204682D01*
Y203682D01*
Y204682D01*
X604786Y205681D01*
X605786D01*
X606786Y204682D01*
Y202682D01*
X605786Y201683D01*
Y207681D02*
X606786Y208680D01*
Y210680D01*
X605786Y211679D01*
X601787D01*
X600788Y210680D01*
Y208680D01*
X601787Y207681D01*
X602787D01*
X603787Y208680D01*
Y211679D01*
X606786Y213679D02*
X605786D01*
Y214679D01*
X606786D01*
Y213679D01*
X605786Y218677D02*
X606786Y219677D01*
Y221676D01*
X605786Y222676D01*
X601787D01*
X600788Y221676D01*
Y219677D01*
X601787Y218677D01*
X602787D01*
X603787Y219677D01*
Y222676D01*
X605786Y224675D02*
X606786Y225675D01*
Y227674D01*
X605786Y228674D01*
X601787D01*
X600788Y227674D01*
Y225675D01*
X601787Y224675D01*
X602787D01*
X603787Y225675D01*
Y228674D01*
X606786Y230673D02*
X602787D01*
Y231673D01*
X603787Y232673D01*
X606786D01*
X603787D01*
X602787Y233672D01*
X603787Y234672D01*
X606786D01*
Y236671D02*
X602787D01*
Y237671D01*
X603787Y238671D01*
X606786D01*
X603787D01*
X602787Y239670D01*
X603787Y240670D01*
X606786D01*
X528612Y325899D02*
X529611Y326899D01*
X531611D01*
X532610Y325899D01*
Y324900D01*
X531611Y323900D01*
X530611D01*
X531611D01*
X532610Y322900D01*
Y321901D01*
X531611Y320901D01*
X529611D01*
X528612Y321901D01*
X534610Y320901D02*
X536609D01*
X535609D01*
Y326899D01*
X534610Y325899D01*
X539608Y320901D02*
Y321901D01*
X540608D01*
Y320901D01*
X539608D01*
X544606Y325899D02*
X545606Y326899D01*
X547606D01*
X548605Y325899D01*
Y321901D01*
X547606Y320901D01*
X545606D01*
X544606Y321901D01*
Y325899D01*
X550604D02*
X551604Y326899D01*
X553604D01*
X554603Y325899D01*
Y321901D01*
X553604Y320901D01*
X551604D01*
X550604Y321901D01*
Y325899D01*
X556603Y320901D02*
Y324900D01*
X557602D01*
X558602Y323900D01*
Y320901D01*
Y323900D01*
X559602Y324900D01*
X560601Y323900D01*
Y320901D01*
X562601D02*
Y324900D01*
X563600D01*
X564600Y323900D01*
Y320901D01*
Y323900D01*
X565600Y324900D01*
X566599Y323900D01*
Y320901D01*
X528802Y275702D02*
Y271703D01*
X524803Y275702D01*
X523804D01*
X522804Y274702D01*
Y272703D01*
X523804Y271703D01*
X528802Y277701D02*
X527802D01*
Y278701D01*
X528802D01*
Y277701D01*
X523804Y282700D02*
X522804Y283699D01*
Y285699D01*
X523804Y286699D01*
X527802D01*
X528802Y285699D01*
Y283699D01*
X527802Y282700D01*
X523804D01*
Y288698D02*
X522804Y289698D01*
Y291697D01*
X523804Y292697D01*
X524803D01*
X525803Y291697D01*
Y290697D01*
Y291697D01*
X526803Y292697D01*
X527802D01*
X528802Y291697D01*
Y289698D01*
X527802Y288698D01*
X530602Y232402D02*
Y228403D01*
X526603Y232402D01*
X525604D01*
X524604Y231402D01*
Y229403D01*
X525604Y228403D01*
X530602Y234401D02*
X529602D01*
Y235401D01*
X530602D01*
Y234401D01*
X525604Y239400D02*
X524604Y240400D01*
Y242399D01*
X525604Y243398D01*
X529602D01*
X530602Y242399D01*
Y240400D01*
X529602Y239400D01*
X525604D01*
Y245398D02*
X524604Y246398D01*
Y248397D01*
X525604Y249397D01*
X526603D01*
X527603Y248397D01*
Y247397D01*
Y248397D01*
X528603Y249397D01*
X529602D01*
X530602Y248397D01*
Y246398D01*
X529602Y245398D01*
X624463Y122615D02*
X623463Y123614D01*
Y125613D01*
X624463Y126613D01*
X625462D01*
X626462Y125613D01*
Y124614D01*
Y125613D01*
X627461Y126613D01*
X628461D01*
X629461Y125613D01*
Y123614D01*
X628461Y122615D01*
X629461Y128612D02*
X628461D01*
Y129612D01*
X629461D01*
Y128612D01*
X624463Y133611D02*
X623463Y134611D01*
Y136610D01*
X624463Y137610D01*
X628461D01*
X629461Y136610D01*
Y134611D01*
X628461Y133611D01*
X624463D01*
X629461Y139609D02*
Y141608D01*
Y140609D01*
X623463D01*
X624463Y139609D01*
X629461Y144607D02*
X625462D01*
Y145607D01*
X626462Y146607D01*
X629461D01*
X626462D01*
X625462Y147606D01*
X626462Y148606D01*
X629461D01*
Y150605D02*
X625462D01*
Y151605D01*
X626462Y152605D01*
X629461D01*
X626462D01*
X625462Y153604D01*
X626462Y154604D01*
X629461D01*
X577461Y114319D02*
Y120317D01*
X574462Y117318D01*
X578461D01*
X580460Y114319D02*
Y115319D01*
X581460D01*
Y114319D01*
X580460D01*
X585459Y120317D02*
X589457D01*
Y119318D01*
X585459Y115319D01*
Y114319D01*
X595456Y120317D02*
X591457D01*
Y117318D01*
X593456Y118318D01*
X594456D01*
X595456Y117318D01*
Y115319D01*
X594456Y114319D01*
X592456D01*
X591457Y115319D01*
X597455Y114319D02*
Y118318D01*
X598455D01*
X599454Y117318D01*
Y114319D01*
Y117318D01*
X600454Y118318D01*
X601453Y117318D01*
Y114319D01*
X603453D02*
Y118318D01*
X604453D01*
X605452Y117318D01*
Y114319D01*
Y117318D01*
X606452Y118318D01*
X607452Y117318D01*
Y114319D01*
X588678Y334094D02*
Y340092D01*
X585679Y337093D01*
X589678D01*
X591677Y334094D02*
Y335094D01*
X592677D01*
Y334094D01*
X591677D01*
X596676Y340092D02*
X600674D01*
Y339092D01*
X596676Y335094D01*
Y334094D01*
X606672Y340092D02*
X602674D01*
Y337093D01*
X604673Y338093D01*
X605673D01*
X606672Y337093D01*
Y335094D01*
X605673Y334094D01*
X603674D01*
X602674Y335094D01*
X608672Y334094D02*
Y338093D01*
X609671D01*
X610671Y337093D01*
Y334094D01*
Y337093D01*
X611671Y338093D01*
X612671Y337093D01*
Y334094D01*
X614670D02*
Y338093D01*
X615670D01*
X616669Y337093D01*
Y334094D01*
Y337093D01*
X617669Y338093D01*
X618669Y337093D01*
Y334094D01*
X552490Y106040D02*
X554489D01*
X553490D01*
Y112038D01*
X552490Y111038D01*
X557488Y107040D02*
X558488Y106040D01*
X560487D01*
X561487Y107040D01*
Y111038D01*
X560487Y112038D01*
X558488D01*
X557488Y111038D01*
Y110039D01*
X558488Y109039D01*
X561487D01*
X563486Y106040D02*
Y107040D01*
X564486D01*
Y106040D01*
X563486D01*
X568485Y111038D02*
X569485Y112038D01*
X571484D01*
X572483Y111038D01*
Y110039D01*
X571484Y109039D01*
X570484D01*
X571484D01*
X572483Y108039D01*
Y107040D01*
X571484Y106040D01*
X569485D01*
X568485Y107040D01*
X574483Y106040D02*
X576482D01*
X575483D01*
Y112038D01*
X574483Y111038D01*
X579481Y106040D02*
Y110039D01*
X580481D01*
X581481Y109039D01*
Y106040D01*
Y109039D01*
X582480Y110039D01*
X583480Y109039D01*
Y106040D01*
X585479D02*
Y110039D01*
X586479D01*
X587479Y109039D01*
Y106040D01*
Y109039D01*
X588478Y110039D01*
X589478Y109039D01*
Y106040D01*
M02*
