G04 Layer_Physical_Order=1*
G04 Layer_Color=255*
%FSLAX25Y25*%
%MOIN*%
G70*
G01*
G75*
%ADD10R,0.07000X0.07874*%
%ADD11R,0.08858X0.07874*%
%ADD12C,0.00500*%
%ADD13R,0.08817X0.04141*%
%ADD14R,0.02876X0.03466*%
%ADD15R,0.02696X0.03135*%
%ADD16R,0.02993X0.08741*%
%ADD17C,0.18300*%
%ADD18C,0.03500*%
%ADD19C,0.12598*%
%ADD20C,0.02000*%
%ADD21C,0.05000*%
D10*
X555492Y283774D02*
D03*
Y268058D02*
D03*
Y232625D02*
D03*
Y248341D02*
D03*
Y197192D02*
D03*
Y212908D02*
D03*
Y161759D02*
D03*
Y177475D02*
D03*
D11*
X545668Y161753D02*
D03*
Y177501D02*
D03*
Y197186D02*
D03*
Y212934D02*
D03*
Y232619D02*
D03*
Y248367D02*
D03*
Y268052D02*
D03*
Y283800D02*
D03*
D12*
X634575Y268887D02*
X635908D01*
X635241D01*
Y266887D01*
X636907D02*
X637574D01*
X637907Y267220D01*
Y267887D01*
X637574Y268220D01*
X636907D01*
X636574Y267887D01*
Y267220D01*
X636907Y266887D01*
X638574Y266221D02*
Y268220D01*
X639573D01*
X639907Y267887D01*
Y267220D01*
X639573Y266887D01*
X638574D01*
D13*
X545682Y262315D02*
D03*
Y242630D02*
D03*
Y226882D02*
D03*
Y207197D02*
D03*
Y191449D02*
D03*
Y171764D02*
D03*
Y156016D02*
D03*
Y278063D02*
D03*
D14*
X539836Y277726D02*
D03*
Y261977D02*
D03*
Y242292D02*
D03*
Y226544D02*
D03*
Y206859D02*
D03*
Y191111D02*
D03*
Y171426D02*
D03*
Y155678D02*
D03*
D15*
X551439Y277560D02*
D03*
Y261812D02*
D03*
Y242127D02*
D03*
Y206694D02*
D03*
Y171261D02*
D03*
Y155513D02*
D03*
Y190946D02*
D03*
Y226379D02*
D03*
D16*
X539894Y267622D02*
D03*
Y283339D02*
D03*
Y247906D02*
D03*
Y232189D02*
D03*
Y212473D02*
D03*
Y196756D02*
D03*
Y177040D02*
D03*
Y161323D02*
D03*
D17*
X591551Y144057D02*
D03*
Y301496D02*
D03*
X506830Y301565D02*
D03*
X534206Y144057D02*
D03*
D18*
X512299Y211553D02*
D03*
X507299Y164053D02*
D03*
Y169053D02*
D03*
Y174053D02*
D03*
Y179053D02*
D03*
Y184053D02*
D03*
Y189053D02*
D03*
Y194053D02*
D03*
Y199053D02*
D03*
Y204053D02*
D03*
Y209053D02*
D03*
X512299Y206553D02*
D03*
Y201553D02*
D03*
Y196553D02*
D03*
Y191553D02*
D03*
Y186553D02*
D03*
Y181553D02*
D03*
Y176553D02*
D03*
Y171553D02*
D03*
Y166553D02*
D03*
Y161553D02*
D03*
D19*
Y143303D02*
D03*
Y229803D02*
D03*
D20*
X542892Y277592D02*
D03*
X548473D02*
D03*
X545682D02*
D03*
Y261844D02*
D03*
X548473D02*
D03*
X542892D02*
D03*
X545682Y242160D02*
D03*
X548473D02*
D03*
X542892D02*
D03*
X545682Y226411D02*
D03*
X548473D02*
D03*
X542892D02*
D03*
X545682Y206726D02*
D03*
X548473D02*
D03*
X542892D02*
D03*
X545682Y190978D02*
D03*
X548473D02*
D03*
X542892D02*
D03*
X545682Y171293D02*
D03*
X548473D02*
D03*
X542892D02*
D03*
X545682Y155545D02*
D03*
X548473D02*
D03*
X542892D02*
D03*
X545682Y289556D02*
D03*
X548473D02*
D03*
X542892D02*
D03*
X540102Y277592D02*
D03*
X551263D02*
D03*
X540102Y261844D02*
D03*
Y242160D02*
D03*
X551263Y226411D02*
D03*
X540102D02*
D03*
Y206726D02*
D03*
Y171293D02*
D03*
Y155545D02*
D03*
X551263D02*
D03*
Y171293D02*
D03*
Y190978D02*
D03*
Y206726D02*
D03*
Y242160D02*
D03*
Y261844D02*
D03*
Y289556D02*
D03*
X540102D02*
D03*
Y273840D02*
D03*
X551263D02*
D03*
X542892D02*
D03*
X548473D02*
D03*
X545682D02*
D03*
X540102Y254123D02*
D03*
X551263D02*
D03*
X542892D02*
D03*
X548473D02*
D03*
X545682D02*
D03*
X540102Y238407D02*
D03*
X551263D02*
D03*
X542892D02*
D03*
X548473D02*
D03*
X545682D02*
D03*
X540102Y218690D02*
D03*
X551263D02*
D03*
X542892D02*
D03*
X548473D02*
D03*
X545682D02*
D03*
X540102Y202974D02*
D03*
X551263D02*
D03*
X542892D02*
D03*
X548473D02*
D03*
X545682D02*
D03*
X540102Y183257D02*
D03*
X551263D02*
D03*
X542892D02*
D03*
X548473D02*
D03*
X545682D02*
D03*
X540102Y167541D02*
D03*
X551263D02*
D03*
X542892D02*
D03*
X548473D02*
D03*
X545682D02*
D03*
X540102Y190978D02*
D03*
D21*
X555492Y268058D02*
D03*
Y283774D02*
D03*
Y248341D02*
D03*
Y232625D02*
D03*
Y212908D02*
D03*
Y197192D02*
D03*
Y177475D02*
D03*
Y161759D02*
D03*
M02*
