G04 Layer_Physical_Order=3*
G04 Layer_Color=36540*
%FSLAX25Y25*%
%MOIN*%
G70*
G01*
G75*
%ADD10R,0.07000X0.07874*%
%ADD12C,0.00500*%
%ADD15R,0.02696X0.03135*%
%ADD18C,0.03500*%
%ADD20C,0.02000*%
%ADD21C,0.05000*%
%ADD23C,0.04000*%
%ADD32C,0.03800*%
%ADD33C,0.03000*%
%ADD34C,0.05000*%
%ADD35C,0.06000*%
%ADD36C,0.02000*%
%ADD37C,0.03100*%
%ADD38C,0.03500*%
%ADD39R,0.13252X0.11704*%
%ADD40R,0.13252X0.11739*%
%ADD41R,0.13252X0.11708*%
%ADD42R,0.13252X0.12274*%
%ADD43R,0.13252X0.11711*%
%ADD44R,0.13252X0.11746*%
%ADD45R,0.13252X0.11735*%
%ADD46R,0.13252X0.11719*%
G36*
X514594Y202840D02*
X514578Y202855D01*
X514135D01*
X513921Y203175D01*
X513177Y203672D01*
X512299Y203847D01*
X511421Y203672D01*
X510677Y203175D01*
X510463Y202855D01*
X508577D01*
X508549Y202828D01*
Y202855D01*
X508497D01*
X507299Y204053D01*
X508557Y205310D01*
X510424D01*
X510677Y204931D01*
X511421Y204433D01*
X512299Y204259D01*
X513177Y204433D01*
X513921Y204931D01*
X514175Y205310D01*
X514594D01*
Y202840D01*
D02*
G37*
G36*
X518379Y204399D02*
X518339Y204386D01*
X518286Y204357D01*
X518220Y204311D01*
X518140Y204250D01*
X517939Y204077D01*
X517374Y203534D01*
X515253Y205656D01*
X515413Y205817D01*
X516075Y206568D01*
X516105Y206621D01*
X516117Y206661D01*
X518379Y204399D01*
D02*
G37*
G36*
X514594Y197840D02*
X514578Y197855D01*
X514135D01*
X513921Y198175D01*
X513177Y198672D01*
X512299Y198847D01*
X511421Y198672D01*
X510677Y198175D01*
X510463Y197855D01*
X508577D01*
X508549Y197828D01*
Y197855D01*
X508497D01*
X507299Y199053D01*
X508557Y200310D01*
X510424D01*
X510677Y199931D01*
X511421Y199433D01*
X512299Y199259D01*
X513177Y199433D01*
X513921Y199931D01*
X514175Y200310D01*
X514594D01*
Y197840D01*
D02*
G37*
G36*
X517188Y197461D02*
X517154Y197479D01*
X517098Y197494D01*
X517020Y197508D01*
X516921Y197520D01*
X516496Y197545D01*
X515877Y197553D01*
Y200553D01*
X516105Y200554D01*
X517098Y200611D01*
X517154Y200627D01*
X517188Y200644D01*
Y197461D01*
D02*
G37*
G36*
X514594Y192840D02*
X514578Y192855D01*
X514135D01*
X513921Y193175D01*
X513177Y193672D01*
X512299Y193847D01*
X511421Y193672D01*
X510677Y193175D01*
X510463Y192855D01*
X508577D01*
X508549Y192828D01*
Y192855D01*
X508497D01*
X507299Y194053D01*
X508557Y195310D01*
X510424D01*
X510677Y194931D01*
X511421Y194433D01*
X512299Y194259D01*
X513177Y194433D01*
X513921Y194931D01*
X514175Y195310D01*
X514594D01*
Y192840D01*
D02*
G37*
G36*
X522581Y192533D02*
X522564Y192537D01*
X522526Y192540D01*
X522276Y192548D01*
X521415Y192553D01*
Y195553D01*
X522581Y195572D01*
Y192533D01*
D02*
G37*
G36*
X514594Y187840D02*
X514578Y187855D01*
X514135D01*
X513921Y188175D01*
X513177Y188672D01*
X512299Y188847D01*
X511421Y188672D01*
X510677Y188175D01*
X510463Y187855D01*
X508577D01*
X508549Y187828D01*
Y187855D01*
X508497D01*
X507299Y189053D01*
X508557Y190310D01*
X510424D01*
X510677Y189931D01*
X511421Y189433D01*
X512299Y189259D01*
X513177Y189433D01*
X513921Y189931D01*
X514175Y190310D01*
X514594D01*
Y187840D01*
D02*
G37*
G36*
Y182840D02*
X514578Y182855D01*
X514135D01*
X513921Y183175D01*
X513177Y183672D01*
X512299Y183847D01*
X511421Y183672D01*
X510677Y183175D01*
X510463Y182855D01*
X508577D01*
X508549Y182828D01*
Y182855D01*
X508497D01*
X507299Y184053D01*
X508557Y185310D01*
X510424D01*
X510677Y184931D01*
X511421Y184433D01*
X512299Y184259D01*
X513177Y184433D01*
X513921Y184931D01*
X514175Y185310D01*
X514594D01*
Y182840D01*
D02*
G37*
G36*
Y177840D02*
X514578Y177855D01*
X514135D01*
X513921Y178175D01*
X513177Y178672D01*
X512299Y178847D01*
X511421Y178672D01*
X510677Y178175D01*
X510463Y177855D01*
X508577D01*
X508549Y177828D01*
Y177855D01*
X508497D01*
X507299Y179053D01*
X508557Y180310D01*
X510424D01*
X510677Y179931D01*
X511421Y179433D01*
X512299Y179259D01*
X513177Y179433D01*
X513921Y179931D01*
X514175Y180310D01*
X514594D01*
Y177840D01*
D02*
G37*
G36*
Y172840D02*
X514578Y172855D01*
X514135D01*
X513921Y173175D01*
X513177Y173672D01*
X512299Y173847D01*
X511421Y173672D01*
X510677Y173175D01*
X510463Y172855D01*
X508497D01*
X507299Y174053D01*
X508557Y175310D01*
X510424D01*
X510677Y174931D01*
X511421Y174433D01*
X512299Y174259D01*
X513177Y174433D01*
X513921Y174931D01*
X514175Y175310D01*
X514594D01*
Y172840D01*
D02*
G37*
D10*
X555492Y268058D02*
D03*
Y283774D02*
D03*
Y248341D02*
D03*
Y232625D02*
D03*
Y212908D02*
D03*
Y197192D02*
D03*
Y177475D02*
D03*
Y161759D02*
D03*
D12*
X507299Y194053D02*
X514700D01*
X507299Y204053D02*
X514700D01*
X507299Y199053D02*
X514700D01*
X507299Y189053D02*
X514700D01*
X507299Y184053D02*
X514700D01*
X507299Y179053D02*
X514700D01*
X507299Y174053D02*
X514700D01*
X634632Y259833D02*
Y261832D01*
X635298Y261166D01*
X635965Y261832D01*
Y259833D01*
X636631D02*
X637298D01*
X636964D01*
Y261166D01*
X636631D01*
X639630Y261832D02*
Y259833D01*
X638630D01*
X638297Y260166D01*
Y260833D01*
X638630Y261166D01*
X639630D01*
X640297Y259833D02*
X640963D01*
X640630D01*
Y261832D01*
X640297Y261499D01*
D15*
X551439Y277560D02*
D03*
Y226379D02*
D03*
Y155513D02*
D03*
Y171261D02*
D03*
Y190946D02*
D03*
Y206694D02*
D03*
Y242127D02*
D03*
Y261812D02*
D03*
D18*
X507299Y174053D02*
D03*
Y179053D02*
D03*
Y184053D02*
D03*
Y189053D02*
D03*
Y194053D02*
D03*
Y199053D02*
D03*
Y204053D02*
D03*
Y209053D02*
D03*
D20*
X542892Y277592D02*
D03*
X548473D02*
D03*
X545682D02*
D03*
Y261844D02*
D03*
X548473D02*
D03*
X542892D02*
D03*
X545682Y242160D02*
D03*
X548473D02*
D03*
X542892D02*
D03*
X545682Y226411D02*
D03*
X548473D02*
D03*
X542892D02*
D03*
X545682Y206726D02*
D03*
X548473D02*
D03*
X542892D02*
D03*
X545682Y190978D02*
D03*
X548473D02*
D03*
X542892D02*
D03*
X545682Y171293D02*
D03*
X548473D02*
D03*
X542892D02*
D03*
X545682Y155545D02*
D03*
X548473D02*
D03*
X542892D02*
D03*
X540102Y277592D02*
D03*
X551263D02*
D03*
X540102Y261844D02*
D03*
Y242160D02*
D03*
X551263Y226411D02*
D03*
X540102D02*
D03*
Y206726D02*
D03*
Y171293D02*
D03*
Y155545D02*
D03*
X551263D02*
D03*
Y171293D02*
D03*
Y190978D02*
D03*
Y206726D02*
D03*
Y242160D02*
D03*
Y261844D02*
D03*
X540102Y190978D02*
D03*
D21*
X555492Y268058D02*
D03*
Y283774D02*
D03*
Y248341D02*
D03*
Y232625D02*
D03*
Y212908D02*
D03*
Y197192D02*
D03*
Y177475D02*
D03*
Y161759D02*
D03*
D23*
X524364Y203360D02*
Y233678D01*
X518097Y206379D02*
Y214612D01*
X516134Y216576D02*
X518097Y214612D01*
X520057Y199053D02*
X524364Y203360D01*
X517844Y170152D02*
Y172268D01*
X518400Y199053D02*
X520057D01*
X524364Y233678D02*
X536728Y246042D01*
X541028D01*
X525061Y175168D02*
X540891D01*
D32*
X523722Y194053D02*
X530754Y201085D01*
Y225382D01*
X535563Y230191D01*
X542009D01*
D33*
X515500Y194053D02*
X523722D01*
X515102Y184053D02*
X532600D01*
X515102Y179053D02*
X521176D01*
X516059Y174053D02*
X517844Y172268D01*
X515771Y204053D02*
X518097Y206379D01*
X515500Y204053D02*
X515771D01*
X515102Y174053D02*
X516059D01*
X515500Y199053D02*
X518400D01*
X521176Y179053D02*
X525061Y175168D01*
X515102Y189053D02*
X526128D01*
D34*
X514078Y218772D02*
X516134Y216716D01*
Y216576D02*
Y216716D01*
X503696Y212656D02*
X507299Y209053D01*
X517844Y170152D02*
X528073Y159923D01*
X541074D01*
D35*
X508073Y218772D02*
X514078D01*
X501583Y225262D02*
X508073Y218772D01*
X531058Y282465D02*
X540887D01*
X493449Y244856D02*
X531058Y282465D01*
X501583Y225262D02*
Y236622D01*
X493449Y218802D02*
Y244856D01*
Y218802D02*
X499596Y212656D01*
X503696D01*
X501583Y236622D02*
X531709Y266748D01*
X541029D01*
D36*
X514700Y204053D02*
X515500D01*
X514700Y189053D02*
X515102D01*
X514700Y179053D02*
X515102D01*
X514700Y174053D02*
X515102D01*
X514700Y184053D02*
X515102D01*
X514700Y194053D02*
X515500D01*
X514700Y199053D02*
X515500D01*
D37*
X535559Y206496D02*
X538542Y209480D01*
X541074D01*
X526128Y189053D02*
X535559Y198484D01*
Y206496D01*
D38*
X532600Y184053D02*
X535249Y186702D01*
Y191447D01*
X537589Y193786D01*
X541166D01*
D39*
X544848Y246411D02*
D03*
D40*
Y230681D02*
D03*
D41*
Y210980D02*
D03*
D42*
X544850Y194998D02*
D03*
D43*
X544848Y175549D02*
D03*
D44*
Y159818D02*
D03*
D45*
Y266112D02*
D03*
D46*
Y281852D02*
D03*
M02*
