G04 Layer_Physical_Order=2*
G04 Layer_Color=36540*
%FSLAX25Y25*%
%MOIN*%
G70*
G01*
G75*
%ADD21C,0.01500*%
%ADD22C,0.04000*%
%ADD26C,0.09842*%
%ADD28C,0.05905*%
%ADD29C,0.06000*%
%ADD30C,0.07000*%
%ADD31R,0.07000X0.07000*%
%ADD32C,0.02000*%
%ADD33C,0.04000*%
%ADD34R,0.14800X0.01300*%
G36*
X123522Y43088D02*
X123048Y42927D01*
X122995Y42996D01*
X122118Y43669D01*
X121096Y44092D01*
X120000Y44236D01*
X118904Y44092D01*
X117882Y43669D01*
X117005Y42996D01*
X116952Y42927D01*
X116478Y43088D01*
Y48200D01*
X123522D01*
Y43088D01*
D02*
G37*
G36*
X117005Y37005D02*
X117882Y36331D01*
X118904Y35908D01*
X120000Y35764D01*
X121096Y35908D01*
X122118Y36331D01*
X122995Y37005D01*
X123048Y37073D01*
X123522Y36912D01*
Y36412D01*
X117238Y30128D01*
X95750D01*
X95184Y30016D01*
X94705Y29695D01*
X91055Y26045D01*
X90734Y25566D01*
X90622Y25000D01*
Y14112D01*
X84688Y8178D01*
X82500D01*
X81934Y8066D01*
X81455Y7745D01*
X78955Y5245D01*
X78634Y4766D01*
X78522Y4200D01*
Y3934D01*
X77882Y3669D01*
X77004Y2995D01*
X76331Y2118D01*
X75908Y1096D01*
X75764Y0D01*
X75908Y-1096D01*
X76331Y-2118D01*
X77004Y-2995D01*
X77792Y-3600D01*
X77730Y-3964D01*
X77660Y-4100D01*
X72340D01*
X72270Y-3964D01*
X72208Y-3600D01*
X72996Y-2995D01*
X73669Y-2118D01*
X74092Y-1096D01*
X74236Y0D01*
X74092Y1096D01*
X73669Y2118D01*
X72996Y2995D01*
X72372Y3474D01*
X72291Y4101D01*
X77912Y9722D01*
X84300D01*
X84866Y9834D01*
X85345Y10155D01*
X89345Y14155D01*
X89666Y14634D01*
X89778Y15200D01*
Y26088D01*
X94512Y30822D01*
X111100D01*
X111666Y30934D01*
X112145Y31255D01*
X116045Y35155D01*
X116366Y35634D01*
X116478Y36200D01*
Y36912D01*
X116952Y37073D01*
X117005Y37005D01*
D02*
G37*
G36*
X239100Y-4100D02*
X232340D01*
X232270Y-3964D01*
X232208Y-3600D01*
X232996Y-2995D01*
X233669Y-2118D01*
X234092Y-1096D01*
X234236Y0D01*
X234092Y1096D01*
X233669Y2118D01*
X232996Y2995D01*
X232118Y3669D01*
X231096Y4092D01*
X230000Y4236D01*
X228904Y4092D01*
X227882Y3669D01*
X227005Y2995D01*
X226331Y2118D01*
X225908Y1096D01*
X225764Y0D01*
X225908Y-1096D01*
X226331Y-2118D01*
X227005Y-2995D01*
X227792Y-3600D01*
X227730Y-3964D01*
X227660Y-4100D01*
X222340D01*
X222270Y-3964D01*
X222208Y-3600D01*
X222995Y-2995D01*
X223669Y-2118D01*
X224092Y-1096D01*
X224236Y0D01*
X224092Y1096D01*
X223669Y2118D01*
X222995Y2995D01*
X222118Y3669D01*
X221096Y4092D01*
X220000Y4236D01*
X218904Y4092D01*
X217882Y3669D01*
X217004Y2995D01*
X216331Y2118D01*
X215908Y1096D01*
X215764Y0D01*
X215908Y-1096D01*
X216331Y-2118D01*
X217004Y-2995D01*
X217792Y-3600D01*
X217730Y-3964D01*
X217660Y-4100D01*
X212340D01*
X212270Y-3964D01*
X212208Y-3600D01*
X212996Y-2995D01*
X213669Y-2118D01*
X214092Y-1096D01*
X214236Y0D01*
X214092Y1096D01*
X213669Y2118D01*
X212996Y2995D01*
X212118Y3669D01*
X211096Y4092D01*
X210000Y4236D01*
X208904Y4092D01*
X207882Y3669D01*
X207004Y2995D01*
X206331Y2118D01*
X205908Y1096D01*
X205764Y0D01*
X205908Y-1096D01*
X206331Y-2118D01*
X207004Y-2995D01*
X207792Y-3600D01*
X207730Y-3964D01*
X207660Y-4100D01*
X202340D01*
X202270Y-3964D01*
X202208Y-3600D01*
X202995Y-2995D01*
X203669Y-2118D01*
X204092Y-1096D01*
X204236Y0D01*
X204092Y1096D01*
X203669Y2118D01*
X202995Y2995D01*
X202118Y3669D01*
X201096Y4092D01*
X200000Y4236D01*
X198904Y4092D01*
X197882Y3669D01*
X197004Y2995D01*
X196331Y2118D01*
X195908Y1096D01*
X195764Y0D01*
X195908Y-1096D01*
X196331Y-2118D01*
X197004Y-2995D01*
X197792Y-3600D01*
X197730Y-3964D01*
X197660Y-4100D01*
X192340D01*
X192270Y-3964D01*
X192208Y-3600D01*
X192996Y-2995D01*
X193669Y-2118D01*
X194092Y-1096D01*
X194236Y0D01*
X194092Y1096D01*
X193669Y2118D01*
X192996Y2995D01*
X192118Y3669D01*
X191096Y4092D01*
X190000Y4236D01*
X188904Y4092D01*
X187882Y3669D01*
X187004Y2995D01*
X186331Y2118D01*
X185908Y1096D01*
X185764Y0D01*
X185908Y-1096D01*
X186331Y-2118D01*
X187004Y-2995D01*
X187792Y-3600D01*
X187730Y-3964D01*
X187660Y-4100D01*
X182340D01*
X182270Y-3964D01*
X182208Y-3600D01*
X182995Y-2995D01*
X183669Y-2118D01*
X184092Y-1096D01*
X184236Y0D01*
X184092Y1096D01*
X183669Y2118D01*
X182995Y2995D01*
X182118Y3669D01*
X181096Y4092D01*
X180000Y4236D01*
X178904Y4092D01*
X177882Y3669D01*
X177005Y2995D01*
X176331Y2118D01*
X175908Y1096D01*
X175764Y0D01*
X175908Y-1096D01*
X176331Y-2118D01*
X177005Y-2995D01*
X177792Y-3600D01*
X177730Y-3964D01*
X177660Y-4100D01*
X172340D01*
X172270Y-3964D01*
X172208Y-3600D01*
X172995Y-2995D01*
X173669Y-2118D01*
X174092Y-1096D01*
X174236Y0D01*
X174092Y1096D01*
X173669Y2118D01*
X172995Y2995D01*
X172118Y3669D01*
X171096Y4092D01*
X170000Y4236D01*
X168904Y4092D01*
X167882Y3669D01*
X167005Y2995D01*
X166331Y2118D01*
X165908Y1096D01*
X165764Y0D01*
X165908Y-1096D01*
X166331Y-2118D01*
X167005Y-2995D01*
X167792Y-3600D01*
X167730Y-3964D01*
X167660Y-4100D01*
X162340D01*
X162270Y-3964D01*
X162208Y-3600D01*
X162996Y-2995D01*
X163669Y-2118D01*
X164092Y-1096D01*
X164236Y0D01*
X164092Y1096D01*
X163669Y2118D01*
X162996Y2995D01*
X162118Y3669D01*
X161096Y4092D01*
X160000Y4236D01*
X158904Y4092D01*
X157882Y3669D01*
X157004Y2995D01*
X156331Y2118D01*
X155908Y1096D01*
X155764Y0D01*
X155908Y-1096D01*
X156331Y-2118D01*
X157004Y-2995D01*
X157792Y-3600D01*
X157730Y-3964D01*
X157660Y-4100D01*
X152340D01*
X152270Y-3964D01*
X152208Y-3600D01*
X152996Y-2995D01*
X153669Y-2118D01*
X154092Y-1096D01*
X154236Y0D01*
X154092Y1096D01*
X153669Y2118D01*
X152996Y2995D01*
X152118Y3669D01*
X151096Y4092D01*
X150000Y4236D01*
X148904Y4092D01*
X147882Y3669D01*
X147004Y2995D01*
X146331Y2118D01*
X145908Y1096D01*
X145764Y0D01*
X145908Y-1096D01*
X146331Y-2118D01*
X147004Y-2995D01*
X147792Y-3600D01*
X147730Y-3964D01*
X147660Y-4100D01*
X142340D01*
X142270Y-3964D01*
X142208Y-3600D01*
X142996Y-2995D01*
X143669Y-2118D01*
X144092Y-1096D01*
X144236Y0D01*
X144092Y1096D01*
X143669Y2118D01*
X142996Y2995D01*
X142118Y3669D01*
X141096Y4092D01*
X140000Y4236D01*
X138904Y4092D01*
X137882Y3669D01*
X137004Y2995D01*
X136331Y2118D01*
X135908Y1096D01*
X135764Y0D01*
X135908Y-1096D01*
X136331Y-2118D01*
X137004Y-2995D01*
X137792Y-3600D01*
X137730Y-3964D01*
X137660Y-4100D01*
X132340D01*
X132270Y-3964D01*
X132208Y-3600D01*
X132995Y-2995D01*
X133669Y-2118D01*
X134092Y-1096D01*
X134236Y0D01*
X134092Y1096D01*
X133669Y2118D01*
X132995Y2995D01*
X132118Y3669D01*
X131096Y4092D01*
X130000Y4236D01*
X128904Y4092D01*
X127882Y3669D01*
X127005Y2995D01*
X126331Y2118D01*
X125908Y1096D01*
X125764Y0D01*
X125908Y-1096D01*
X126331Y-2118D01*
X127005Y-2995D01*
X127792Y-3600D01*
X127730Y-3964D01*
X127660Y-4100D01*
X112340D01*
X112270Y-3964D01*
X112208Y-3600D01*
X112996Y-2995D01*
X113669Y-2118D01*
X114092Y-1096D01*
X114236Y0D01*
X114092Y1096D01*
X113669Y2118D01*
X112996Y2995D01*
X112118Y3669D01*
X111096Y4092D01*
X110000Y4236D01*
X108904Y4092D01*
X107882Y3669D01*
X107004Y2995D01*
X106331Y2118D01*
X105908Y1096D01*
X105764Y0D01*
X105908Y-1096D01*
X106331Y-2118D01*
X107004Y-2995D01*
X107792Y-3600D01*
X107730Y-3964D01*
X107660Y-4100D01*
X102340D01*
X102270Y-3964D01*
X102208Y-3600D01*
X102996Y-2995D01*
X103669Y-2118D01*
X104092Y-1096D01*
X104236Y0D01*
X104092Y1096D01*
X103669Y2118D01*
X102996Y2995D01*
X102118Y3669D01*
X101096Y4092D01*
X100000Y4236D01*
X98904Y4092D01*
X97882Y3669D01*
X97004Y2995D01*
X96331Y2118D01*
X95908Y1096D01*
X95764Y0D01*
X95908Y-1096D01*
X96331Y-2118D01*
X97004Y-2995D01*
X97792Y-3600D01*
X97730Y-3964D01*
X97660Y-4100D01*
X92340D01*
X92270Y-3964D01*
X92208Y-3600D01*
X92996Y-2995D01*
X93669Y-2118D01*
X94092Y-1096D01*
X94236Y0D01*
X94092Y1096D01*
X93669Y2118D01*
X92996Y2995D01*
X92118Y3669D01*
X91096Y4092D01*
X90000Y4236D01*
X88904Y4092D01*
X87882Y3669D01*
X87005Y2995D01*
X86331Y2118D01*
X85908Y1096D01*
X85764Y0D01*
X85908Y-1096D01*
X86331Y-2118D01*
X87005Y-2995D01*
X87792Y-3600D01*
X87730Y-3964D01*
X87660Y-4100D01*
X82340D01*
X82270Y-3964D01*
X82208Y-3600D01*
X82995Y-2995D01*
X83669Y-2118D01*
X84092Y-1096D01*
X84236Y0D01*
X84092Y1096D01*
X83669Y2118D01*
X82995Y2995D01*
X82202Y3604D01*
X82055Y4164D01*
X83112Y5222D01*
X85300D01*
X85866Y5334D01*
X86345Y5655D01*
X93145Y12455D01*
X93466Y12934D01*
X93578Y13500D01*
Y24388D01*
X96362Y27172D01*
X117850D01*
X118416Y27284D01*
X118895Y27605D01*
X126045Y34755D01*
X126366Y35234D01*
X126478Y35800D01*
Y36912D01*
X126952Y37073D01*
X127005Y37005D01*
X127882Y36331D01*
X128904Y35908D01*
X130000Y35764D01*
X131096Y35908D01*
X132118Y36331D01*
X132995Y37005D01*
X133669Y37882D01*
X134092Y38904D01*
X134236Y40000D01*
X134092Y41096D01*
X133669Y42118D01*
X132995Y42996D01*
X132118Y43669D01*
X131096Y44092D01*
X130000Y44236D01*
X128904Y44092D01*
X127882Y43669D01*
X127005Y42996D01*
X126952Y42927D01*
X126478Y43088D01*
Y48200D01*
X126800D01*
Y55300D01*
X126478D01*
Y56788D01*
X135745Y66055D01*
X136066Y66534D01*
X136178Y67100D01*
Y75188D01*
X145912Y84922D01*
X183200D01*
X183766Y85034D01*
X184245Y85355D01*
X191045Y92155D01*
X191366Y92634D01*
X191478Y93200D01*
Y96066D01*
X192118Y96331D01*
X192996Y97004D01*
X193669Y97882D01*
X194092Y98904D01*
X194236Y100000D01*
X194092Y101096D01*
X193669Y102118D01*
X192996Y102996D01*
X192118Y103669D01*
X191096Y104092D01*
X190000Y104236D01*
X188904Y104092D01*
X187882Y103669D01*
X187004Y102996D01*
X186331Y102118D01*
X185908Y101096D01*
X185764Y100000D01*
X185908Y98904D01*
X186331Y97882D01*
X187004Y97004D01*
X187882Y96331D01*
X188522Y96066D01*
Y93812D01*
X182588Y87878D01*
X145300D01*
X144734Y87766D01*
X144255Y87445D01*
X133655Y76845D01*
X133334Y76366D01*
X133222Y75800D01*
Y72214D01*
X132722Y71962D01*
X132363Y72201D01*
X131700Y72333D01*
X131037Y72201D01*
X130474Y71826D01*
X130099Y71263D01*
X129967Y70600D01*
X130099Y69937D01*
X130474Y69374D01*
X131037Y68999D01*
X131700Y68867D01*
X132363Y68999D01*
X132722Y69238D01*
X133222Y68986D01*
Y67712D01*
X123955Y58445D01*
X123634Y57966D01*
X123522Y57400D01*
Y55300D01*
X122400D01*
X122400Y60709D01*
X128645Y66955D01*
X128966Y67434D01*
X129078Y68000D01*
Y74288D01*
X143712Y88922D01*
X170400D01*
X170966Y89034D01*
X171445Y89355D01*
X178264Y96173D01*
X178904Y95908D01*
X180000Y95764D01*
X181096Y95908D01*
X182118Y96331D01*
X182995Y97004D01*
X183669Y97882D01*
X184092Y98904D01*
X184236Y100000D01*
X184092Y101096D01*
X183669Y102118D01*
X182995Y102996D01*
X182118Y103669D01*
X181096Y104092D01*
X180000Y104236D01*
X178904Y104092D01*
X177882Y103669D01*
X177005Y102996D01*
X176331Y102118D01*
X175908Y101096D01*
X175764Y100000D01*
X175908Y98904D01*
X176173Y98264D01*
X169788Y91878D01*
X143100D01*
X142534Y91766D01*
X142055Y91445D01*
X127862Y77253D01*
X127400Y77444D01*
X127400Y91700D01*
X119344D01*
X119153Y92162D01*
X121045Y94055D01*
X121366Y94534D01*
X121478Y95100D01*
Y96066D01*
X122118Y96331D01*
X122995Y97004D01*
X123669Y97882D01*
X124092Y98904D01*
X124236Y100000D01*
X124092Y101096D01*
X123669Y102118D01*
X122995Y102996D01*
X122118Y103669D01*
X121096Y104092D01*
X120000Y104236D01*
X118904Y104092D01*
X117882Y103669D01*
X117005Y102996D01*
X116331Y102118D01*
X115908Y101096D01*
X115764Y100000D01*
X115908Y98904D01*
X116331Y97882D01*
X117005Y97004D01*
X117882Y96331D01*
X118345Y96139D01*
X118414Y95604D01*
X106188Y83378D01*
X82750D01*
X82396Y83732D01*
X82400Y87600D01*
X73700D01*
Y86443D01*
X73674Y86426D01*
X73299Y85863D01*
X73167Y85200D01*
X73299Y84537D01*
X73674Y83974D01*
X73700Y83957D01*
Y83378D01*
X60100D01*
X59534Y83266D01*
X59055Y82945D01*
X48154Y72044D01*
X47937Y72001D01*
X47374Y71626D01*
X46999Y71063D01*
X46867Y70400D01*
X46999Y69737D01*
X47374Y69174D01*
X47937Y68799D01*
X48600Y68667D01*
X49263Y68799D01*
X49826Y69174D01*
X50201Y69737D01*
X50244Y69954D01*
X60712Y80422D01*
X73700D01*
X73700Y65000D01*
X79635Y65000D01*
X79937Y64799D01*
X80600Y64667D01*
X81263Y64799D01*
X81565Y65000D01*
X82379D01*
X82393Y80422D01*
X106800D01*
X107366Y80534D01*
X107845Y80855D01*
X114381Y87390D01*
X114600Y87299D01*
Y87299D01*
X118253Y87310D01*
X118606Y86957D01*
X118593Y73000D01*
X126122D01*
Y68612D01*
X122862Y65353D01*
X122400Y65544D01*
Y67786D01*
X122463Y67799D01*
X123026Y68174D01*
X123401Y68737D01*
X123533Y69400D01*
X123401Y70063D01*
X123026Y70626D01*
X122463Y71001D01*
X122400Y71014D01*
Y71200D01*
X113721Y71200D01*
X113707Y56075D01*
X113634Y55966D01*
X113522Y55400D01*
Y43088D01*
X113048Y42927D01*
X112996Y42996D01*
X112118Y43669D01*
X111096Y44092D01*
X110000Y44236D01*
X108904Y44092D01*
X107882Y43669D01*
X107004Y42996D01*
X106331Y42118D01*
X105908Y41096D01*
X105764Y40000D01*
X105908Y38904D01*
X106331Y37882D01*
X107004Y37005D01*
X107882Y36331D01*
X108904Y35908D01*
X110000Y35764D01*
X111096Y35908D01*
X112118Y36331D01*
X112634Y36727D01*
X113194Y36527D01*
X113202Y36493D01*
X110488Y33778D01*
X93900D01*
X93334Y33666D01*
X92855Y33345D01*
X87255Y27745D01*
X86934Y27266D01*
X86822Y26700D01*
Y15812D01*
X83688Y12678D01*
X77300D01*
X76734Y12566D01*
X76255Y12245D01*
X68955Y4945D01*
X68634Y4466D01*
X68529Y3937D01*
X67882Y3669D01*
X67005Y2995D01*
X66331Y2118D01*
X65908Y1096D01*
X65764Y0D01*
X65908Y-1096D01*
X66331Y-2118D01*
X67005Y-2995D01*
X67792Y-3600D01*
X67730Y-3964D01*
X67660Y-4100D01*
X62340D01*
X62270Y-3964D01*
X62208Y-3600D01*
X62995Y-2995D01*
X63669Y-2118D01*
X64092Y-1096D01*
X64236Y0D01*
X64092Y1096D01*
X63669Y2118D01*
X62995Y2995D01*
X62118Y3669D01*
X61478Y3934D01*
Y5500D01*
X61366Y6066D01*
X61045Y6545D01*
X46545Y21045D01*
X46066Y21366D01*
X45500Y21478D01*
X45472D01*
X44910Y22835D01*
X44009Y24009D01*
X42835Y24910D01*
X41467Y25477D01*
X40000Y25670D01*
X38533Y25477D01*
X37176Y24915D01*
X36478Y25612D01*
Y36912D01*
X36952Y37073D01*
X37005Y37005D01*
X37882Y36331D01*
X38904Y35908D01*
X40000Y35764D01*
X41096Y35908D01*
X42118Y36331D01*
X42996Y37005D01*
X43669Y37882D01*
X44092Y38904D01*
X44236Y40000D01*
X44092Y41096D01*
X43669Y42118D01*
X42996Y42996D01*
X42118Y43669D01*
X41096Y44092D01*
X40000Y44236D01*
X38904Y44092D01*
X37882Y43669D01*
X37005Y42996D01*
X36952Y42927D01*
X36478Y43088D01*
Y48400D01*
X45493Y48400D01*
X45507Y63200D01*
X45010D01*
X44926Y63326D01*
X44363Y63701D01*
X43700Y63833D01*
X43037Y63701D01*
X42474Y63326D01*
X42390Y63200D01*
X31800Y63200D01*
X31800Y57066D01*
X31300Y56914D01*
X31226Y57026D01*
X30663Y57401D01*
X30000Y57533D01*
X29337Y57401D01*
X28774Y57026D01*
X28399Y56463D01*
X28267Y55800D01*
X28399Y55137D01*
X28774Y54574D01*
X29337Y54199D01*
X29554Y54155D01*
X31800Y51909D01*
Y48400D01*
X33522D01*
Y43088D01*
X33048Y42927D01*
X32996Y42996D01*
X32118Y43669D01*
X31096Y44092D01*
X30000Y44236D01*
X28904Y44092D01*
X27882Y43669D01*
X27005Y42996D01*
X26331Y42118D01*
X25908Y41096D01*
X25764Y40000D01*
X25908Y38904D01*
X26331Y37882D01*
X27005Y37005D01*
X27882Y36331D01*
X28904Y35908D01*
X30000Y35764D01*
X31096Y35908D01*
X32118Y36331D01*
X32996Y37005D01*
X33048Y37073D01*
X33522Y36912D01*
Y25000D01*
X33634Y24434D01*
X33955Y23955D01*
X35085Y22824D01*
X34523Y21467D01*
X34330Y20000D01*
X34523Y18533D01*
X35090Y17165D01*
X35991Y15991D01*
X37165Y15090D01*
X38533Y14523D01*
X40000Y14330D01*
X41467Y14523D01*
X42835Y15090D01*
X44009Y15991D01*
X44910Y17165D01*
X45129Y17693D01*
X45619Y17790D01*
X58522Y4888D01*
Y3934D01*
X57882Y3669D01*
X57004Y2995D01*
X56331Y2118D01*
X55908Y1096D01*
X55764Y0D01*
X55908Y-1096D01*
X56331Y-2118D01*
X57004Y-2995D01*
X57792Y-3600D01*
X57730Y-3964D01*
X57660Y-4100D01*
X52340D01*
X52270Y-3964D01*
X52208Y-3600D01*
X52996Y-2995D01*
X53669Y-2118D01*
X54092Y-1096D01*
X54236Y0D01*
X54092Y1096D01*
X53669Y2118D01*
X52996Y2995D01*
X52118Y3669D01*
X51478Y3934D01*
Y5000D01*
X51366Y5566D01*
X51045Y6045D01*
X46445Y10645D01*
X45966Y10966D01*
X45400Y11078D01*
X31012D01*
X24915Y17176D01*
X25477Y18533D01*
X25670Y20000D01*
X25477Y21467D01*
X24910Y22835D01*
X24009Y24009D01*
X22835Y24910D01*
X21467Y25477D01*
X20000Y25670D01*
X18533Y25477D01*
X17176Y24915D01*
X16478Y25612D01*
Y36912D01*
X16952Y37073D01*
X17005Y37005D01*
X17882Y36331D01*
X18904Y35908D01*
X20000Y35764D01*
X21096Y35908D01*
X22118Y36331D01*
X22996Y37005D01*
X23669Y37882D01*
X24092Y38904D01*
X24236Y40000D01*
X24092Y41096D01*
X23669Y42118D01*
X22996Y42996D01*
X22118Y43669D01*
X21096Y44092D01*
X20000Y44236D01*
X18904Y44092D01*
X17882Y43669D01*
X17005Y42996D01*
X16952Y42927D01*
X16478Y43088D01*
Y44100D01*
X16366Y44666D01*
X16045Y45145D01*
X10345Y50845D01*
X9866Y51166D01*
X9300Y51278D01*
X8749D01*
X8396Y51632D01*
X8407Y63400D01*
X7415D01*
X7263Y63501D01*
X6600Y63633D01*
X5937Y63501D01*
X5785Y63400D01*
X-5300Y63400D01*
X-5300Y48600D01*
X-4743D01*
X-4726Y48574D01*
X-4163Y48199D01*
X-3500Y48067D01*
X-2837Y48199D01*
X-2653Y48322D01*
X8688D01*
X13454Y43555D01*
X13418Y43267D01*
X13251Y43160D01*
X12904Y43066D01*
X12118Y43669D01*
X11096Y44092D01*
X10000Y44236D01*
X8904Y44092D01*
X7882Y43669D01*
X7005Y42996D01*
X6331Y42118D01*
X5908Y41096D01*
X5764Y40000D01*
X5908Y38904D01*
X6331Y37882D01*
X7005Y37005D01*
X7882Y36331D01*
X8904Y35908D01*
X10000Y35764D01*
X11096Y35908D01*
X12118Y36331D01*
X12995Y37005D01*
X13048Y37073D01*
X13522Y36912D01*
Y25000D01*
X13634Y24434D01*
X13955Y23955D01*
X15085Y22824D01*
X14523Y21467D01*
X14330Y20000D01*
X14523Y18533D01*
X15090Y17165D01*
X15991Y15991D01*
X17165Y15090D01*
X18533Y14523D01*
X20000Y14330D01*
X21467Y14523D01*
X22824Y15085D01*
X29355Y8555D01*
X29834Y8234D01*
X30400Y8122D01*
X44788D01*
X48514Y4396D01*
X48466Y3911D01*
X47882Y3669D01*
X47005Y2995D01*
X46331Y2118D01*
X45908Y1096D01*
X45764Y0D01*
X45908Y-1096D01*
X46331Y-2118D01*
X47005Y-2995D01*
X47792Y-3600D01*
X47730Y-3964D01*
X47660Y-4100D01*
X32340D01*
X32270Y-3964D01*
X32208Y-3600D01*
X32996Y-2995D01*
X33669Y-2118D01*
X34092Y-1096D01*
X34236Y0D01*
X34092Y1096D01*
X33669Y2118D01*
X32996Y2995D01*
X32118Y3669D01*
X31096Y4092D01*
X30000Y4236D01*
X28904Y4092D01*
X27882Y3669D01*
X27005Y2995D01*
X26331Y2118D01*
X25908Y1096D01*
X25764Y0D01*
X25908Y-1096D01*
X26331Y-2118D01*
X27005Y-2995D01*
X27792Y-3600D01*
X27730Y-3964D01*
X27660Y-4100D01*
X22340D01*
X22270Y-3964D01*
X22208Y-3600D01*
X22996Y-2995D01*
X23669Y-2118D01*
X24092Y-1096D01*
X24236Y0D01*
X24092Y1096D01*
X23669Y2118D01*
X22996Y2995D01*
X22118Y3669D01*
X21096Y4092D01*
X20000Y4236D01*
X18904Y4092D01*
X17882Y3669D01*
X17005Y2995D01*
X16331Y2118D01*
X15908Y1096D01*
X15764Y0D01*
X15908Y-1096D01*
X16331Y-2118D01*
X17005Y-2995D01*
X17792Y-3600D01*
X17730Y-3964D01*
X17660Y-4100D01*
X12340D01*
X12270Y-3964D01*
X12208Y-3600D01*
X12995Y-2995D01*
X13669Y-2118D01*
X14092Y-1096D01*
X14236Y0D01*
X14092Y1096D01*
X13669Y2118D01*
X12995Y2995D01*
X12118Y3669D01*
X11096Y4092D01*
X10000Y4236D01*
X8904Y4092D01*
X7882Y3669D01*
X7005Y2995D01*
X6331Y2118D01*
X5908Y1096D01*
X5764Y0D01*
X5908Y-1096D01*
X6331Y-2118D01*
X7005Y-2995D01*
X7792Y-3600D01*
X7730Y-3964D01*
X7660Y-4100D01*
X-9100D01*
Y124100D01*
X-4200D01*
Y115800D01*
X4200D01*
Y124100D01*
X7660D01*
X7730Y123964D01*
X7792Y123600D01*
X7005Y122995D01*
X6331Y122118D01*
X5908Y121096D01*
X5764Y120000D01*
X5908Y118904D01*
X6331Y117882D01*
X7005Y117005D01*
X7882Y116331D01*
X8904Y115908D01*
X10000Y115764D01*
X11096Y115908D01*
X12118Y116331D01*
X12995Y117005D01*
X13669Y117882D01*
X14092Y118904D01*
X14236Y120000D01*
X14092Y121096D01*
X13669Y122118D01*
X12995Y122995D01*
X12208Y123600D01*
X12270Y123964D01*
X12340Y124100D01*
X17660D01*
X17730Y123964D01*
X17792Y123600D01*
X17005Y122995D01*
X16331Y122118D01*
X15908Y121096D01*
X15764Y120000D01*
X15908Y118904D01*
X16331Y117882D01*
X17005Y117005D01*
X17882Y116331D01*
X18904Y115908D01*
X20000Y115764D01*
X21096Y115908D01*
X22118Y116331D01*
X22996Y117005D01*
X23669Y117882D01*
X24092Y118904D01*
X24236Y120000D01*
X24092Y121096D01*
X23669Y122118D01*
X22996Y122995D01*
X22208Y123600D01*
X22270Y123964D01*
X22340Y124100D01*
X27660D01*
X27730Y123964D01*
X27792Y123600D01*
X27005Y122995D01*
X26331Y122118D01*
X25908Y121096D01*
X25764Y120000D01*
X25908Y118904D01*
X26331Y117882D01*
X27005Y117005D01*
X27882Y116331D01*
X28904Y115908D01*
X30000Y115764D01*
X31096Y115908D01*
X32118Y116331D01*
X32996Y117005D01*
X33669Y117882D01*
X34092Y118904D01*
X34236Y120000D01*
X34092Y121096D01*
X33669Y122118D01*
X32996Y122995D01*
X32208Y123600D01*
X32270Y123964D01*
X32340Y124100D01*
X37660D01*
X37730Y123964D01*
X37792Y123600D01*
X37005Y122995D01*
X36331Y122118D01*
X35908Y121096D01*
X35764Y120000D01*
X35908Y118904D01*
X36331Y117882D01*
X37005Y117005D01*
X37882Y116331D01*
X38904Y115908D01*
X40000Y115764D01*
X41096Y115908D01*
X42118Y116331D01*
X42996Y117005D01*
X43669Y117882D01*
X44092Y118904D01*
X44236Y120000D01*
X44092Y121096D01*
X43669Y122118D01*
X42996Y122995D01*
X42208Y123600D01*
X42270Y123964D01*
X42340Y124100D01*
X175800D01*
Y115800D01*
X184200D01*
Y124100D01*
X187660D01*
X187730Y123964D01*
X187792Y123600D01*
X187004Y122995D01*
X186331Y122118D01*
X185908Y121096D01*
X185764Y120000D01*
X185908Y118904D01*
X186331Y117882D01*
X187004Y117005D01*
X187882Y116331D01*
X188904Y115908D01*
X190000Y115764D01*
X191096Y115908D01*
X192118Y116331D01*
X192996Y117005D01*
X193669Y117882D01*
X194092Y118904D01*
X194236Y120000D01*
X194092Y121096D01*
X193669Y122118D01*
X192996Y122995D01*
X192208Y123600D01*
X192270Y123964D01*
X192340Y124100D01*
X197660D01*
X197730Y123964D01*
X197792Y123600D01*
X197004Y122995D01*
X196331Y122118D01*
X195908Y121096D01*
X195764Y120000D01*
X195908Y118904D01*
X196331Y117882D01*
X197004Y117005D01*
X197882Y116331D01*
X198904Y115908D01*
X200000Y115764D01*
X201096Y115908D01*
X202118Y116331D01*
X202995Y117005D01*
X203669Y117882D01*
X204092Y118904D01*
X204236Y120000D01*
X204092Y121096D01*
X203669Y122118D01*
X202995Y122995D01*
X202208Y123600D01*
X202270Y123964D01*
X202340Y124100D01*
X207660D01*
X207730Y123964D01*
X207792Y123600D01*
X207004Y122995D01*
X206331Y122118D01*
X205908Y121096D01*
X205764Y120000D01*
X205908Y118904D01*
X206331Y117882D01*
X207004Y117005D01*
X207882Y116331D01*
X208904Y115908D01*
X210000Y115764D01*
X211096Y115908D01*
X212118Y116331D01*
X212996Y117005D01*
X213669Y117882D01*
X214092Y118904D01*
X214236Y120000D01*
X214092Y121096D01*
X213669Y122118D01*
X212996Y122995D01*
X212208Y123600D01*
X212270Y123964D01*
X212340Y124100D01*
X217660D01*
X217730Y123964D01*
X217792Y123600D01*
X217004Y122995D01*
X216331Y122118D01*
X215908Y121096D01*
X215764Y120000D01*
X215908Y118904D01*
X216331Y117882D01*
X217004Y117005D01*
X217882Y116331D01*
X218904Y115908D01*
X220000Y115764D01*
X221096Y115908D01*
X222118Y116331D01*
X222995Y117005D01*
X223669Y117882D01*
X224092Y118904D01*
X224236Y120000D01*
X224092Y121096D01*
X223669Y122118D01*
X222995Y122995D01*
X222208Y123600D01*
X222270Y123964D01*
X222340Y124100D01*
X239100D01*
Y-4100D01*
D02*
G37*
%LPC*%
G36*
X230000Y44236D02*
X228904Y44092D01*
X227882Y43669D01*
X227005Y42996D01*
X226331Y42118D01*
X225908Y41096D01*
X225764Y40000D01*
X225908Y38904D01*
X226331Y37882D01*
X227005Y37005D01*
X227882Y36331D01*
X228904Y35908D01*
X230000Y35764D01*
X231096Y35908D01*
X232118Y36331D01*
X232996Y37005D01*
X233669Y37882D01*
X234092Y38904D01*
X234236Y40000D01*
X234092Y41096D01*
X233669Y42118D01*
X232996Y42996D01*
X232118Y43669D01*
X231096Y44092D01*
X230000Y44236D01*
D02*
G37*
G36*
X48600Y63433D02*
X47937Y63301D01*
X47374Y62926D01*
X46999Y62363D01*
X46867Y61700D01*
X46999Y61037D01*
X47374Y60474D01*
X47937Y60099D01*
X48600Y59967D01*
X49263Y60099D01*
X49826Y60474D01*
X50201Y61037D01*
X50333Y61700D01*
X50201Y62363D01*
X49826Y62926D01*
X49263Y63301D01*
X48600Y63433D01*
D02*
G37*
G36*
X142200Y58733D02*
X141537Y58601D01*
X140974Y58226D01*
X140599Y57663D01*
X140467Y57000D01*
X140599Y56337D01*
X140974Y55774D01*
X141537Y55399D01*
X142200Y55267D01*
X142863Y55399D01*
X143426Y55774D01*
X143801Y56337D01*
X143933Y57000D01*
X143801Y57663D01*
X143426Y58226D01*
X142863Y58601D01*
X142200Y58733D01*
D02*
G37*
G36*
X200000Y44236D02*
X198904Y44092D01*
X197882Y43669D01*
X197004Y42996D01*
X196331Y42118D01*
X195908Y41096D01*
X195764Y40000D01*
X195908Y38904D01*
X196331Y37882D01*
X197004Y37005D01*
X197882Y36331D01*
X198904Y35908D01*
X200000Y35764D01*
X201096Y35908D01*
X202118Y36331D01*
X202995Y37005D01*
X203669Y37882D01*
X204092Y38904D01*
X204236Y40000D01*
X204092Y41096D01*
X203669Y42118D01*
X202995Y42996D01*
X202118Y43669D01*
X201096Y44092D01*
X200000Y44236D01*
D02*
G37*
G36*
X190000D02*
X188904Y44092D01*
X187882Y43669D01*
X187004Y42996D01*
X186331Y42118D01*
X185908Y41096D01*
X185764Y40000D01*
X185908Y38904D01*
X186331Y37882D01*
X187004Y37005D01*
X187882Y36331D01*
X188904Y35908D01*
X190000Y35764D01*
X191096Y35908D01*
X192118Y36331D01*
X192996Y37005D01*
X193669Y37882D01*
X194092Y38904D01*
X194236Y40000D01*
X194092Y41096D01*
X193669Y42118D01*
X192996Y42996D01*
X192118Y43669D01*
X191096Y44092D01*
X190000Y44236D01*
D02*
G37*
G36*
X220000D02*
X218904Y44092D01*
X217882Y43669D01*
X217004Y42996D01*
X216331Y42118D01*
X215908Y41096D01*
X215764Y40000D01*
X215908Y38904D01*
X216331Y37882D01*
X217004Y37005D01*
X217882Y36331D01*
X218904Y35908D01*
X220000Y35764D01*
X221096Y35908D01*
X222118Y36331D01*
X222995Y37005D01*
X223669Y37882D01*
X224092Y38904D01*
X224236Y40000D01*
X224092Y41096D01*
X223669Y42118D01*
X222995Y42996D01*
X222118Y43669D01*
X221096Y44092D01*
X220000Y44236D01*
D02*
G37*
G36*
X210000D02*
X208904Y44092D01*
X207882Y43669D01*
X207004Y42996D01*
X206331Y42118D01*
X205908Y41096D01*
X205764Y40000D01*
X205908Y38904D01*
X206331Y37882D01*
X207004Y37005D01*
X207882Y36331D01*
X208904Y35908D01*
X210000Y35764D01*
X211096Y35908D01*
X212118Y36331D01*
X212996Y37005D01*
X213669Y37882D01*
X214092Y38904D01*
X214236Y40000D01*
X214092Y41096D01*
X213669Y42118D01*
X212996Y42996D01*
X212118Y43669D01*
X211096Y44092D01*
X210000Y44236D01*
D02*
G37*
G36*
X11500Y63633D02*
X10837Y63501D01*
X10274Y63126D01*
X9899Y62563D01*
X9767Y61900D01*
X9899Y61237D01*
X10274Y60674D01*
X10837Y60299D01*
X11500Y60167D01*
X12163Y60299D01*
X12726Y60674D01*
X13101Y61237D01*
X13233Y61900D01*
X13101Y62563D01*
X12726Y63126D01*
X12163Y63501D01*
X11500Y63633D01*
D02*
G37*
G36*
X80600Y64033D02*
X79937Y63901D01*
X79374Y63526D01*
X79290Y63400D01*
X68700Y63400D01*
X68700Y57266D01*
X68200Y57114D01*
X68126Y57226D01*
X67563Y57601D01*
X66900Y57733D01*
X66237Y57601D01*
X65674Y57226D01*
X65299Y56663D01*
X65255Y56446D01*
X63955Y55145D01*
X63634Y54666D01*
X63522Y54100D01*
Y43088D01*
X63048Y42927D01*
X62995Y42996D01*
X62118Y43669D01*
X61096Y44092D01*
X60000Y44236D01*
X58904Y44092D01*
X57882Y43669D01*
X57004Y42996D01*
X56331Y42118D01*
X55908Y41096D01*
X55764Y40000D01*
X55908Y38904D01*
X56331Y37882D01*
X57004Y37005D01*
X57882Y36331D01*
X58904Y35908D01*
X60000Y35764D01*
X61096Y35908D01*
X62118Y36331D01*
X62995Y37005D01*
X63048Y37073D01*
X63522Y36912D01*
Y25612D01*
X62824Y24915D01*
X61467Y25477D01*
X60000Y25670D01*
X58533Y25477D01*
X57165Y24910D01*
X55991Y24009D01*
X55090Y22835D01*
X54523Y21467D01*
X54330Y20000D01*
X54523Y18533D01*
X55090Y17165D01*
X55991Y15991D01*
X57165Y15090D01*
X58533Y14523D01*
X60000Y14330D01*
X61467Y14523D01*
X62835Y15090D01*
X64009Y15991D01*
X64910Y17165D01*
X65477Y18533D01*
X65670Y20000D01*
X65477Y21467D01*
X64915Y22824D01*
X66045Y23955D01*
X66366Y24434D01*
X66478Y25000D01*
Y36912D01*
X66952Y37073D01*
X67005Y37005D01*
X67882Y36331D01*
X68904Y35908D01*
X70000Y35764D01*
X71096Y35908D01*
X72118Y36331D01*
X72996Y37005D01*
X73669Y37882D01*
X74092Y38904D01*
X74236Y40000D01*
X74092Y41096D01*
X73669Y42118D01*
X72996Y42996D01*
X72118Y43669D01*
X71096Y44092D01*
X70000Y44236D01*
X68904Y44092D01*
X67882Y43669D01*
X67005Y42996D01*
X66952Y42927D01*
X66478Y43088D01*
Y53488D01*
X67346Y54356D01*
X67563Y54399D01*
X68126Y54774D01*
X68200Y54886D01*
X68700Y54734D01*
X68700Y48600D01*
X82393Y48600D01*
X82407Y63400D01*
X81910D01*
X81826Y63526D01*
X81263Y63901D01*
X80600Y64033D01*
D02*
G37*
G36*
X218500Y68832D02*
X217534Y68705D01*
X216634Y68332D01*
X215861Y67739D01*
X215268Y66966D01*
X214895Y66066D01*
X214768Y65100D01*
X214895Y64134D01*
X215268Y63234D01*
X215861Y62461D01*
X216634Y61868D01*
X217534Y61495D01*
X218500Y61368D01*
X219466Y61495D01*
X220366Y61868D01*
X221139Y62461D01*
X221732Y63234D01*
X222105Y64134D01*
X222232Y65100D01*
X222105Y66066D01*
X221732Y66966D01*
X221139Y67739D01*
X220366Y68332D01*
X219466Y68705D01*
X218500Y68832D01*
D02*
G37*
G36*
X45500Y87400D02*
X36800D01*
Y86243D01*
X36774Y86226D01*
X36399Y85663D01*
X36267Y85000D01*
X36399Y84337D01*
X36774Y83774D01*
X36800Y83757D01*
X36800Y64800D01*
X42735Y64800D01*
X43037Y64599D01*
X43700Y64467D01*
X44363Y64599D01*
X44665Y64800D01*
X45479D01*
X45500Y87400D01*
D02*
G37*
G36*
X200000Y104236D02*
X198904Y104092D01*
X197882Y103669D01*
X197004Y102996D01*
X196331Y102118D01*
X195908Y101096D01*
X195764Y100000D01*
X195908Y98904D01*
X196331Y97882D01*
X197004Y97004D01*
X197882Y96331D01*
X198130Y96228D01*
X198248Y95639D01*
X183255Y80645D01*
X182934Y80166D01*
X182822Y79600D01*
Y70412D01*
X176606Y64197D01*
X166700Y64206D01*
Y69277D01*
X173900D01*
X174605Y69370D01*
X175262Y69642D01*
X175826Y70074D01*
X176258Y70638D01*
X176531Y71295D01*
X176623Y72000D01*
X176531Y72705D01*
X176258Y73362D01*
X175826Y73926D01*
X175262Y74358D01*
X174605Y74630D01*
X173900Y74723D01*
X166700D01*
Y76292D01*
X148900Y76308D01*
X148900Y68551D01*
X148074Y67726D01*
X147642Y67162D01*
X147370Y66505D01*
X147277Y65800D01*
Y62978D01*
X139700D01*
X139134Y62866D01*
X138655Y62545D01*
X137579Y61469D01*
X137237Y61401D01*
X136674Y61026D01*
X136299Y60463D01*
X136167Y59800D01*
X136299Y59137D01*
X136674Y58574D01*
X137237Y58199D01*
X137900Y58067D01*
X138563Y58199D01*
X139126Y58574D01*
X139501Y59137D01*
X139520Y59229D01*
X140312Y60022D01*
X147277D01*
Y55828D01*
X138074Y46626D01*
X137642Y46062D01*
X137370Y45405D01*
X137277Y44700D01*
Y43204D01*
X137004Y42996D01*
X136331Y42118D01*
X135908Y41096D01*
X135764Y40000D01*
X135908Y38904D01*
X136331Y37882D01*
X137004Y37005D01*
X137882Y36331D01*
X138904Y35908D01*
X140000Y35764D01*
X141096Y35908D01*
X142118Y36331D01*
X142996Y37005D01*
X143669Y37882D01*
X144092Y38904D01*
X144236Y40000D01*
X144092Y41096D01*
X143669Y42118D01*
X142996Y42996D01*
X142835Y43118D01*
X142810Y43659D01*
X151926Y52774D01*
X152358Y53338D01*
X152630Y53995D01*
X152723Y54700D01*
Y55200D01*
X153522D01*
Y43088D01*
X153048Y42927D01*
X152996Y42996D01*
X152118Y43669D01*
X151096Y44092D01*
X150000Y44236D01*
X148904Y44092D01*
X147882Y43669D01*
X147004Y42996D01*
X146331Y42118D01*
X145908Y41096D01*
X145764Y40000D01*
X145908Y38904D01*
X146331Y37882D01*
X147004Y37005D01*
X147882Y36331D01*
X148904Y35908D01*
X150000Y35764D01*
X151096Y35908D01*
X152118Y36331D01*
X152996Y37005D01*
X153048Y37073D01*
X153522Y36912D01*
Y34212D01*
X149788Y30478D01*
X129000D01*
X128434Y30366D01*
X127955Y30045D01*
X122824Y24915D01*
X121467Y25477D01*
X120000Y25670D01*
X118533Y25477D01*
X117165Y24910D01*
X115991Y24009D01*
X115090Y22835D01*
X114523Y21467D01*
X114330Y20000D01*
X114523Y18533D01*
X115090Y17165D01*
X115991Y15991D01*
X117165Y15090D01*
X118533Y14523D01*
X120000Y14330D01*
X121467Y14523D01*
X122835Y15090D01*
X124009Y15991D01*
X124910Y17165D01*
X125477Y18533D01*
X125670Y20000D01*
X125477Y21467D01*
X124915Y22824D01*
X129612Y27522D01*
X150400D01*
X150966Y27634D01*
X151445Y27955D01*
X156045Y32555D01*
X156366Y33034D01*
X156478Y33600D01*
Y36912D01*
X156952Y37073D01*
X157004Y37005D01*
X157882Y36331D01*
X158904Y35908D01*
X160000Y35764D01*
X161096Y35908D01*
X162118Y36331D01*
X162184Y36382D01*
X162514Y36005D01*
X157955Y31445D01*
X157634Y30966D01*
X157522Y30400D01*
Y30341D01*
X157158Y30191D01*
X156395Y29605D01*
X155809Y28842D01*
X155441Y27954D01*
X155316Y27000D01*
X155441Y26046D01*
X155809Y25158D01*
X156331Y24478D01*
X156192Y23978D01*
X152300D01*
X151734Y23866D01*
X151255Y23545D01*
X149188Y21478D01*
X145472D01*
X144910Y22835D01*
X144009Y24009D01*
X142835Y24910D01*
X141467Y25477D01*
X140000Y25670D01*
X138533Y25477D01*
X137165Y24910D01*
X135991Y24009D01*
X135090Y22835D01*
X134523Y21467D01*
X134330Y20000D01*
X134523Y18533D01*
X135090Y17165D01*
X135991Y15991D01*
X137165Y15090D01*
X138533Y14523D01*
X140000Y14330D01*
X141467Y14523D01*
X142835Y15090D01*
X144009Y15991D01*
X144910Y17165D01*
X145472Y18522D01*
X149800D01*
X150366Y18634D01*
X150845Y18955D01*
X152912Y21022D01*
X155031D01*
X155347Y20653D01*
X155347Y20522D01*
Y13347D01*
X162653D01*
Y20522D01*
X162653Y20653D01*
X162969Y21022D01*
X166000D01*
X166566Y21134D01*
X167045Y21455D01*
X170762Y25171D01*
X171252Y25073D01*
X171331Y24882D01*
X172004Y24004D01*
X172882Y23331D01*
X173904Y22908D01*
X175000Y22764D01*
X176096Y22908D01*
X177118Y23331D01*
X177996Y24004D01*
X178669Y24882D01*
X179092Y25904D01*
X179236Y27000D01*
X179092Y28096D01*
X178669Y29118D01*
X177996Y29996D01*
X177118Y30669D01*
X176096Y31092D01*
X175000Y31236D01*
X173904Y31092D01*
X172882Y30669D01*
X172004Y29996D01*
X171331Y29118D01*
X171066Y28478D01*
X170500D01*
X169934Y28366D01*
X169455Y28045D01*
X165388Y23978D01*
X161808D01*
X161669Y24478D01*
X162191Y25158D01*
X162559Y26046D01*
X162684Y27000D01*
X162559Y27954D01*
X162191Y28842D01*
X161605Y29605D01*
X161165Y29943D01*
X161133Y30442D01*
X166045Y35355D01*
X166366Y35834D01*
X166478Y36400D01*
Y36912D01*
X166952Y37073D01*
X167005Y37005D01*
X167882Y36331D01*
X168904Y35908D01*
X170000Y35764D01*
X171096Y35908D01*
X172118Y36331D01*
X172995Y37005D01*
X173669Y37882D01*
X174092Y38904D01*
X174236Y40000D01*
X174092Y41096D01*
X173669Y42118D01*
X172995Y42996D01*
X172118Y43669D01*
X171096Y44092D01*
X170000Y44236D01*
X168904Y44092D01*
X167882Y43669D01*
X167005Y42996D01*
X166952Y42927D01*
X166478Y43088D01*
Y44100D01*
X166366Y44666D01*
X166045Y45145D01*
X159978Y51212D01*
Y54747D01*
X160432Y55200D01*
X164800D01*
Y53665D01*
X164799Y53663D01*
X164667Y53000D01*
X164799Y52337D01*
X164800Y52335D01*
Y50200D01*
X179300Y50200D01*
X179300Y62709D01*
X185345Y68755D01*
X185666Y69234D01*
X185778Y69800D01*
Y78988D01*
X201045Y94255D01*
X201366Y94734D01*
X201478Y95300D01*
Y96066D01*
X202118Y96331D01*
X202995Y97004D01*
X203669Y97882D01*
X204092Y98904D01*
X204236Y100000D01*
X204092Y101096D01*
X203669Y102118D01*
X202995Y102996D01*
X202118Y103669D01*
X201096Y104092D01*
X200000Y104236D01*
D02*
G37*
G36*
X62300Y64333D02*
X61637Y64201D01*
X61074Y63826D01*
X60699Y63263D01*
X60567Y62600D01*
X60699Y61937D01*
X61074Y61374D01*
X61637Y60999D01*
X62300Y60867D01*
X62963Y60999D01*
X63526Y61374D01*
X63901Y61937D01*
X64033Y62600D01*
X63901Y63263D01*
X63526Y63826D01*
X62963Y64201D01*
X62300Y64333D01*
D02*
G37*
G36*
X85500Y63633D02*
X84837Y63501D01*
X84274Y63126D01*
X83899Y62563D01*
X83767Y61900D01*
X83899Y61237D01*
X84274Y60674D01*
X84837Y60299D01*
X85500Y60167D01*
X86163Y60299D01*
X86726Y60674D01*
X87101Y61237D01*
X87233Y61900D01*
X87101Y62563D01*
X86726Y63126D01*
X86163Y63501D01*
X85500Y63633D01*
D02*
G37*
G36*
X99200Y64533D02*
X98537Y64401D01*
X97974Y64026D01*
X97599Y63463D01*
X97467Y62800D01*
X97599Y62137D01*
X97974Y61574D01*
X98537Y61199D01*
X99200Y61067D01*
X99863Y61199D01*
X100426Y61574D01*
X100801Y62137D01*
X100933Y62800D01*
X100801Y63463D01*
X100426Y64026D01*
X99863Y64401D01*
X99200Y64533D01*
D02*
G37*
G36*
X25200D02*
X24537Y64401D01*
X23974Y64026D01*
X23599Y63463D01*
X23467Y62800D01*
X23599Y62137D01*
X23974Y61574D01*
X24537Y61199D01*
X25200Y61067D01*
X25863Y61199D01*
X26426Y61574D01*
X26801Y62137D01*
X26933Y62800D01*
X26801Y63463D01*
X26426Y64026D01*
X25863Y64401D01*
X25200Y64533D01*
D02*
G37*
G36*
X80000Y25670D02*
X78533Y25477D01*
X77165Y24910D01*
X75991Y24009D01*
X75090Y22835D01*
X74523Y21467D01*
X74330Y20000D01*
X74523Y18533D01*
X75090Y17165D01*
X75991Y15991D01*
X77165Y15090D01*
X78533Y14523D01*
X80000Y14330D01*
X81467Y14523D01*
X82835Y15090D01*
X84009Y15991D01*
X84910Y17165D01*
X85477Y18533D01*
X85670Y20000D01*
X85477Y21467D01*
X84910Y22835D01*
X84009Y24009D01*
X82835Y24910D01*
X81467Y25477D01*
X80000Y25670D01*
D02*
G37*
G36*
X179200Y21200D02*
X170800D01*
Y12800D01*
X179200D01*
Y21200D01*
D02*
G37*
G36*
X185000Y31236D02*
X183904Y31092D01*
X182882Y30669D01*
X182004Y29996D01*
X181331Y29118D01*
X180908Y28096D01*
X180764Y27000D01*
X180908Y25904D01*
X181331Y24882D01*
X182004Y24004D01*
X182882Y23331D01*
X183904Y22908D01*
X185000Y22764D01*
X186096Y22908D01*
X187118Y23331D01*
X187996Y24004D01*
X188669Y24882D01*
X189092Y25904D01*
X189236Y27000D01*
X189092Y28096D01*
X188669Y29118D01*
X187996Y29996D01*
X187118Y30669D01*
X186096Y31092D01*
X185000Y31236D01*
D02*
G37*
G36*
X100000Y25670D02*
X98533Y25477D01*
X97165Y24910D01*
X95991Y24009D01*
X95090Y22835D01*
X94523Y21467D01*
X94330Y20000D01*
X94523Y18533D01*
X95090Y17165D01*
X95991Y15991D01*
X97165Y15090D01*
X98533Y14523D01*
X100000Y14330D01*
X101467Y14523D01*
X102835Y15090D01*
X104009Y15991D01*
X104910Y17165D01*
X105477Y18533D01*
X105670Y20000D01*
X105477Y21467D01*
X104910Y22835D01*
X104009Y24009D01*
X102835Y24910D01*
X101467Y25477D01*
X100000Y25670D01*
D02*
G37*
G36*
X195000Y21236D02*
X193904Y21092D01*
X192882Y20669D01*
X192005Y19996D01*
X191331Y19118D01*
X190908Y18096D01*
X190764Y17000D01*
X190908Y15904D01*
X191331Y14882D01*
X192005Y14005D01*
X192882Y13331D01*
X193904Y12908D01*
X195000Y12764D01*
X196096Y12908D01*
X197118Y13331D01*
X197995Y14005D01*
X198669Y14882D01*
X199092Y15904D01*
X199236Y17000D01*
X199092Y18096D01*
X198669Y19118D01*
X197995Y19996D01*
X197118Y20669D01*
X196096Y21092D01*
X195000Y21236D01*
D02*
G37*
G36*
X185000D02*
X183904Y21092D01*
X182882Y20669D01*
X182004Y19996D01*
X181331Y19118D01*
X180908Y18096D01*
X180764Y17000D01*
X180908Y15904D01*
X181331Y14882D01*
X182004Y14005D01*
X182882Y13331D01*
X183904Y12908D01*
X185000Y12764D01*
X186096Y12908D01*
X187118Y13331D01*
X187996Y14005D01*
X188669Y14882D01*
X189092Y15904D01*
X189236Y17000D01*
X189092Y18096D01*
X188669Y19118D01*
X187996Y19996D01*
X187118Y20669D01*
X186096Y21092D01*
X185000Y21236D01*
D02*
G37*
G36*
X215000D02*
X213904Y21092D01*
X212882Y20669D01*
X212004Y19996D01*
X211331Y19118D01*
X210908Y18096D01*
X210764Y17000D01*
X210908Y15904D01*
X211331Y14882D01*
X212004Y14005D01*
X212882Y13331D01*
X213904Y12908D01*
X215000Y12764D01*
X216096Y12908D01*
X217118Y13331D01*
X217996Y14005D01*
X218669Y14882D01*
X219092Y15904D01*
X219236Y17000D01*
X219092Y18096D01*
X218669Y19118D01*
X217996Y19996D01*
X217118Y20669D01*
X216096Y21092D01*
X215000Y21236D01*
D02*
G37*
G36*
X205000D02*
X203904Y21092D01*
X202882Y20669D01*
X202005Y19996D01*
X201331Y19118D01*
X200908Y18096D01*
X200764Y17000D01*
X200908Y15904D01*
X201331Y14882D01*
X202005Y14005D01*
X202882Y13331D01*
X203904Y12908D01*
X205000Y12764D01*
X206096Y12908D01*
X207118Y13331D01*
X207996Y14005D01*
X208669Y14882D01*
X209092Y15904D01*
X209236Y17000D01*
X209092Y18096D01*
X208669Y19118D01*
X207996Y19996D01*
X207118Y20669D01*
X206096Y21092D01*
X205000Y21236D01*
D02*
G37*
G36*
X195000Y31236D02*
X193904Y31092D01*
X192882Y30669D01*
X192005Y29996D01*
X191331Y29118D01*
X190908Y28096D01*
X190764Y27000D01*
X190908Y25904D01*
X191331Y24882D01*
X192005Y24004D01*
X192882Y23331D01*
X193904Y22908D01*
X195000Y22764D01*
X196096Y22908D01*
X197118Y23331D01*
X197995Y24004D01*
X198669Y24882D01*
X199092Y25904D01*
X199236Y27000D01*
X199092Y28096D01*
X198669Y29118D01*
X197995Y29996D01*
X197118Y30669D01*
X196096Y31092D01*
X195000Y31236D01*
D02*
G37*
G36*
X90000Y44236D02*
X88904Y44092D01*
X87882Y43669D01*
X87005Y42996D01*
X86331Y42118D01*
X85908Y41096D01*
X85764Y40000D01*
X85908Y38904D01*
X86331Y37882D01*
X87005Y37005D01*
X87882Y36331D01*
X88904Y35908D01*
X90000Y35764D01*
X91096Y35908D01*
X92118Y36331D01*
X92996Y37005D01*
X93669Y37882D01*
X94092Y38904D01*
X94236Y40000D01*
X94092Y41096D01*
X93669Y42118D01*
X92996Y42996D01*
X92118Y43669D01*
X91096Y44092D01*
X90000Y44236D01*
D02*
G37*
G36*
X80000D02*
X78904Y44092D01*
X77882Y43669D01*
X77004Y42996D01*
X76331Y42118D01*
X75908Y41096D01*
X75764Y40000D01*
X75908Y38904D01*
X76331Y37882D01*
X77004Y37005D01*
X77882Y36331D01*
X78904Y35908D01*
X80000Y35764D01*
X81096Y35908D01*
X82118Y36331D01*
X82995Y37005D01*
X83669Y37882D01*
X84092Y38904D01*
X84236Y40000D01*
X84092Y41096D01*
X83669Y42118D01*
X82995Y42996D01*
X82118Y43669D01*
X81096Y44092D01*
X80000Y44236D01*
D02*
G37*
G36*
X180000D02*
X178904Y44092D01*
X177882Y43669D01*
X177005Y42996D01*
X176331Y42118D01*
X175908Y41096D01*
X175764Y40000D01*
X175908Y38904D01*
X176331Y37882D01*
X177005Y37005D01*
X177882Y36331D01*
X178904Y35908D01*
X180000Y35764D01*
X181096Y35908D01*
X182118Y36331D01*
X182995Y37005D01*
X183669Y37882D01*
X184092Y38904D01*
X184236Y40000D01*
X184092Y41096D01*
X183669Y42118D01*
X182995Y42996D01*
X182118Y43669D01*
X181096Y44092D01*
X180000Y44236D01*
D02*
G37*
G36*
X100000D02*
X98904Y44092D01*
X97882Y43669D01*
X97004Y42996D01*
X96331Y42118D01*
X95908Y41096D01*
X95764Y40000D01*
X95908Y38904D01*
X96331Y37882D01*
X97004Y37005D01*
X97882Y36331D01*
X98904Y35908D01*
X100000Y35764D01*
X101096Y35908D01*
X102118Y36331D01*
X102996Y37005D01*
X103669Y37882D01*
X104092Y38904D01*
X104236Y40000D01*
X104092Y41096D01*
X103669Y42118D01*
X102996Y42996D01*
X102118Y43669D01*
X101096Y44092D01*
X100000Y44236D01*
D02*
G37*
G36*
X215000Y31236D02*
X213904Y31092D01*
X212882Y30669D01*
X212004Y29996D01*
X211331Y29118D01*
X210908Y28096D01*
X210764Y27000D01*
X210908Y25904D01*
X211331Y24882D01*
X212004Y24004D01*
X212882Y23331D01*
X213904Y22908D01*
X215000Y22764D01*
X216096Y22908D01*
X217118Y23331D01*
X217996Y24004D01*
X218669Y24882D01*
X219092Y25904D01*
X219236Y27000D01*
X219092Y28096D01*
X218669Y29118D01*
X217996Y29996D01*
X217118Y30669D01*
X216096Y31092D01*
X215000Y31236D01*
D02*
G37*
G36*
X205000D02*
X203904Y31092D01*
X202882Y30669D01*
X202005Y29996D01*
X201331Y29118D01*
X200908Y28096D01*
X200764Y27000D01*
X200908Y25904D01*
X201331Y24882D01*
X202005Y24004D01*
X202882Y23331D01*
X203904Y22908D01*
X205000Y22764D01*
X206096Y22908D01*
X207118Y23331D01*
X207996Y24004D01*
X208669Y24882D01*
X209092Y25904D01*
X209236Y27000D01*
X209092Y28096D01*
X208669Y29118D01*
X207996Y29996D01*
X207118Y30669D01*
X206096Y31092D01*
X205000Y31236D01*
D02*
G37*
G36*
X50000Y44236D02*
X48904Y44092D01*
X47882Y43669D01*
X47005Y42996D01*
X46331Y42118D01*
X45908Y41096D01*
X45764Y40000D01*
X45908Y38904D01*
X46331Y37882D01*
X47005Y37005D01*
X47882Y36331D01*
X48904Y35908D01*
X50000Y35764D01*
X51096Y35908D01*
X52118Y36331D01*
X52996Y37005D01*
X53669Y37882D01*
X54092Y38904D01*
X54236Y40000D01*
X54092Y41096D01*
X53669Y42118D01*
X52996Y42996D01*
X52118Y43669D01*
X51096Y44092D01*
X50000Y44236D01*
D02*
G37*
G36*
X30000Y34223D02*
X29295Y34130D01*
X28638Y33858D01*
X28074Y33426D01*
X27642Y32862D01*
X27369Y32205D01*
X27277Y31500D01*
X27369Y30795D01*
X27642Y30138D01*
X28074Y29574D01*
X28638Y29142D01*
X29295Y28870D01*
X30000Y28777D01*
X30705Y28870D01*
X31362Y29142D01*
X31926Y29574D01*
X32358Y30138D01*
X32631Y30795D01*
X32723Y31500D01*
X32631Y32205D01*
X32358Y32862D01*
X31926Y33426D01*
X31362Y33858D01*
X30705Y34130D01*
X30000Y34223D01*
D02*
G37*
G36*
X8400Y87600D02*
X-300D01*
Y86443D01*
X-326Y86426D01*
X-701Y85863D01*
X-833Y85200D01*
X-701Y84537D01*
X-326Y83974D01*
X-300Y83957D01*
X-300Y65000D01*
X8379Y65000D01*
X8400Y87600D01*
D02*
G37*
G36*
X230000Y104236D02*
X228904Y104092D01*
X227882Y103669D01*
X227005Y102996D01*
X226331Y102118D01*
X225908Y101096D01*
X225764Y100000D01*
X225908Y98904D01*
X226331Y97882D01*
X227005Y97004D01*
X227882Y96331D01*
X228904Y95908D01*
X230000Y95764D01*
X231096Y95908D01*
X232118Y96331D01*
X232996Y97004D01*
X233669Y97882D01*
X234092Y98904D01*
X234236Y100000D01*
X234092Y101096D01*
X233669Y102118D01*
X232996Y102996D01*
X232118Y103669D01*
X231096Y104092D01*
X230000Y104236D01*
D02*
G37*
G36*
X220000D02*
X218904Y104092D01*
X217882Y103669D01*
X217004Y102996D01*
X216331Y102118D01*
X215908Y101096D01*
X215764Y100000D01*
X215908Y98904D01*
X216331Y97882D01*
X217004Y97004D01*
X217882Y96331D01*
X218904Y95908D01*
X220000Y95764D01*
X221096Y95908D01*
X222118Y96331D01*
X222995Y97004D01*
X223669Y97882D01*
X224092Y98904D01*
X224236Y100000D01*
X224092Y101096D01*
X223669Y102118D01*
X222995Y102996D01*
X222118Y103669D01*
X221096Y104092D01*
X220000Y104236D01*
D02*
G37*
G36*
X0Y114236D02*
X-1096Y114092D01*
X-2118Y113669D01*
X-2995Y112996D01*
X-3669Y112118D01*
X-4092Y111096D01*
X-4236Y110000D01*
X-4092Y108904D01*
X-3669Y107882D01*
X-2995Y107004D01*
X-2118Y106331D01*
X-1096Y105908D01*
X0Y105764D01*
X1096Y105908D01*
X2118Y106331D01*
X2995Y107004D01*
X3669Y107882D01*
X4092Y108904D01*
X4236Y110000D01*
X4092Y111096D01*
X3669Y112118D01*
X2995Y112996D01*
X2118Y113669D01*
X1096Y114092D01*
X0Y114236D01*
D02*
G37*
G36*
X4200Y104200D02*
X-4200D01*
Y95800D01*
X4200D01*
Y104200D01*
D02*
G37*
G36*
X210000Y104236D02*
X208904Y104092D01*
X207882Y103669D01*
X207004Y102996D01*
X206331Y102118D01*
X205908Y101096D01*
X205764Y100000D01*
X205908Y98904D01*
X206331Y97882D01*
X207004Y97004D01*
X207882Y96331D01*
X208904Y95908D01*
X210000Y95764D01*
X211096Y95908D01*
X212118Y96331D01*
X212996Y97004D01*
X213669Y97882D01*
X214092Y98904D01*
X214236Y100000D01*
X214092Y101096D01*
X213669Y102118D01*
X212996Y102996D01*
X212118Y103669D01*
X211096Y104092D01*
X210000Y104236D01*
D02*
G37*
G36*
X150000D02*
X148904Y104092D01*
X147882Y103669D01*
X147004Y102996D01*
X146331Y102118D01*
X145908Y101096D01*
X145764Y100000D01*
X145908Y98904D01*
X146331Y97882D01*
X147004Y97004D01*
X147882Y96331D01*
X148904Y95908D01*
X150000Y95764D01*
X151096Y95908D01*
X152118Y96331D01*
X152996Y97004D01*
X153669Y97882D01*
X154092Y98904D01*
X154236Y100000D01*
X154092Y101096D01*
X153669Y102118D01*
X152996Y102996D01*
X152118Y103669D01*
X151096Y104092D01*
X150000Y104236D01*
D02*
G37*
G36*
X130000D02*
X128904Y104092D01*
X127882Y103669D01*
X127005Y102996D01*
X126331Y102118D01*
X125908Y101096D01*
X125764Y100000D01*
X125908Y98904D01*
X126331Y97882D01*
X127005Y97004D01*
X127882Y96331D01*
X128904Y95908D01*
X130000Y95764D01*
X131096Y95908D01*
X132118Y96331D01*
X132995Y97004D01*
X133669Y97882D01*
X134092Y98904D01*
X134236Y100000D01*
X134092Y101096D01*
X133669Y102118D01*
X132995Y102996D01*
X132118Y103669D01*
X131096Y104092D01*
X130000Y104236D01*
D02*
G37*
G36*
X170000D02*
X168904Y104092D01*
X167882Y103669D01*
X167005Y102996D01*
X166331Y102118D01*
X165908Y101096D01*
X165764Y100000D01*
X165908Y98904D01*
X166331Y97882D01*
X167005Y97004D01*
X167882Y96331D01*
X168904Y95908D01*
X170000Y95764D01*
X171096Y95908D01*
X172118Y96331D01*
X172995Y97004D01*
X173669Y97882D01*
X174092Y98904D01*
X174236Y100000D01*
X174092Y101096D01*
X173669Y102118D01*
X172995Y102996D01*
X172118Y103669D01*
X171096Y104092D01*
X170000Y104236D01*
D02*
G37*
G36*
X160000D02*
X158904Y104092D01*
X157882Y103669D01*
X157004Y102996D01*
X156331Y102118D01*
X155908Y101096D01*
X155764Y100000D01*
X155908Y98904D01*
X156331Y97882D01*
X157004Y97004D01*
X157882Y96331D01*
X158904Y95908D01*
X160000Y95764D01*
X161096Y95908D01*
X162118Y96331D01*
X162996Y97004D01*
X163669Y97882D01*
X164092Y98904D01*
X164236Y100000D01*
X164092Y101096D01*
X163669Y102118D01*
X162996Y102996D01*
X162118Y103669D01*
X161096Y104092D01*
X160000Y104236D01*
D02*
G37*
G36*
X200000Y114236D02*
X198904Y114092D01*
X197882Y113669D01*
X197004Y112996D01*
X196331Y112118D01*
X195908Y111096D01*
X195764Y110000D01*
X195908Y108904D01*
X196331Y107882D01*
X197004Y107004D01*
X197882Y106331D01*
X198904Y105908D01*
X200000Y105764D01*
X201096Y105908D01*
X202118Y106331D01*
X202995Y107004D01*
X203669Y107882D01*
X204092Y108904D01*
X204236Y110000D01*
X204092Y111096D01*
X203669Y112118D01*
X202995Y112996D01*
X202118Y113669D01*
X201096Y114092D01*
X200000Y114236D01*
D02*
G37*
G36*
X190000D02*
X188904Y114092D01*
X187882Y113669D01*
X187004Y112996D01*
X186331Y112118D01*
X185908Y111096D01*
X185764Y110000D01*
X185908Y108904D01*
X186331Y107882D01*
X187004Y107004D01*
X187882Y106331D01*
X188904Y105908D01*
X190000Y105764D01*
X191096Y105908D01*
X192118Y106331D01*
X192996Y107004D01*
X193669Y107882D01*
X194092Y108904D01*
X194236Y110000D01*
X194092Y111096D01*
X193669Y112118D01*
X192996Y112996D01*
X192118Y113669D01*
X191096Y114092D01*
X190000Y114236D01*
D02*
G37*
G36*
X220000D02*
X218904Y114092D01*
X217882Y113669D01*
X217004Y112996D01*
X216331Y112118D01*
X215908Y111096D01*
X215764Y110000D01*
X215908Y108904D01*
X216331Y107882D01*
X217004Y107004D01*
X217882Y106331D01*
X218904Y105908D01*
X220000Y105764D01*
X221096Y105908D01*
X222118Y106331D01*
X222995Y107004D01*
X223669Y107882D01*
X224092Y108904D01*
X224236Y110000D01*
X224092Y111096D01*
X223669Y112118D01*
X222995Y112996D01*
X222118Y113669D01*
X221096Y114092D01*
X220000Y114236D01*
D02*
G37*
G36*
X210000D02*
X208904Y114092D01*
X207882Y113669D01*
X207004Y112996D01*
X206331Y112118D01*
X205908Y111096D01*
X205764Y110000D01*
X205908Y108904D01*
X206331Y107882D01*
X207004Y107004D01*
X207882Y106331D01*
X208904Y105908D01*
X210000Y105764D01*
X211096Y105908D01*
X212118Y106331D01*
X212996Y107004D01*
X213669Y107882D01*
X214092Y108904D01*
X214236Y110000D01*
X214092Y111096D01*
X213669Y112118D01*
X212996Y112996D01*
X212118Y113669D01*
X211096Y114092D01*
X210000Y114236D01*
D02*
G37*
G36*
X180000D02*
X178904Y114092D01*
X177882Y113669D01*
X177005Y112996D01*
X176331Y112118D01*
X175908Y111096D01*
X175764Y110000D01*
X175908Y108904D01*
X176331Y107882D01*
X177005Y107004D01*
X177882Y106331D01*
X178904Y105908D01*
X180000Y105764D01*
X181096Y105908D01*
X182118Y106331D01*
X182995Y107004D01*
X183669Y107882D01*
X184092Y108904D01*
X184236Y110000D01*
X184092Y111096D01*
X183669Y112118D01*
X182995Y112996D01*
X182118Y113669D01*
X181096Y114092D01*
X180000Y114236D01*
D02*
G37*
G36*
X20000D02*
X18904Y114092D01*
X17882Y113669D01*
X17005Y112996D01*
X16331Y112118D01*
X15908Y111096D01*
X15764Y110000D01*
X15908Y108904D01*
X16331Y107882D01*
X17005Y107004D01*
X17882Y106331D01*
X18904Y105908D01*
X20000Y105764D01*
X21096Y105908D01*
X22118Y106331D01*
X22996Y107004D01*
X23669Y107882D01*
X24092Y108904D01*
X24236Y110000D01*
X24092Y111096D01*
X23669Y112118D01*
X22996Y112996D01*
X22118Y113669D01*
X21096Y114092D01*
X20000Y114236D01*
D02*
G37*
G36*
X10000D02*
X8904Y114092D01*
X7882Y113669D01*
X7005Y112996D01*
X6331Y112118D01*
X5908Y111096D01*
X5764Y110000D01*
X5908Y108904D01*
X6331Y107882D01*
X7005Y107004D01*
X7882Y106331D01*
X8904Y105908D01*
X10000Y105764D01*
X11096Y105908D01*
X12118Y106331D01*
X12995Y107004D01*
X13669Y107882D01*
X14092Y108904D01*
X14236Y110000D01*
X14092Y111096D01*
X13669Y112118D01*
X12995Y112996D01*
X12118Y113669D01*
X11096Y114092D01*
X10000Y114236D01*
D02*
G37*
G36*
X40000D02*
X38904Y114092D01*
X37882Y113669D01*
X37005Y112996D01*
X36331Y112118D01*
X35908Y111096D01*
X35764Y110000D01*
X35908Y108904D01*
X36331Y107882D01*
X37005Y107004D01*
X37882Y106331D01*
X38904Y105908D01*
X40000Y105764D01*
X41096Y105908D01*
X42118Y106331D01*
X42996Y107004D01*
X43669Y107882D01*
X44092Y108904D01*
X44236Y110000D01*
X44092Y111096D01*
X43669Y112118D01*
X42996Y112996D01*
X42118Y113669D01*
X41096Y114092D01*
X40000Y114236D01*
D02*
G37*
G36*
X30000D02*
X28904Y114092D01*
X27882Y113669D01*
X27005Y112996D01*
X26331Y112118D01*
X25908Y111096D01*
X25764Y110000D01*
X25908Y108904D01*
X26331Y107882D01*
X27005Y107004D01*
X27882Y106331D01*
X28904Y105908D01*
X30000Y105764D01*
X31096Y105908D01*
X32118Y106331D01*
X32996Y107004D01*
X33669Y107882D01*
X34092Y108904D01*
X34236Y110000D01*
X34092Y111096D01*
X33669Y112118D01*
X32996Y112996D01*
X32118Y113669D01*
X31096Y114092D01*
X30000Y114236D01*
D02*
G37*
G36*
X137000Y91933D02*
X136337Y91801D01*
X135774Y91426D01*
X135399Y90863D01*
X135267Y90200D01*
X135399Y89537D01*
X135774Y88974D01*
X136337Y88599D01*
X137000Y88467D01*
X137663Y88599D01*
X138226Y88974D01*
X138601Y89537D01*
X138733Y90200D01*
X138601Y90863D01*
X138226Y91426D01*
X137663Y91801D01*
X137000Y91933D01*
D02*
G37*
G36*
X218500Y78832D02*
X217534Y78705D01*
X216634Y78332D01*
X215861Y77739D01*
X215268Y76966D01*
X214895Y76066D01*
X214768Y75100D01*
X214895Y74134D01*
X215268Y73234D01*
X215861Y72461D01*
X216634Y71868D01*
X217534Y71495D01*
X218500Y71368D01*
X219466Y71495D01*
X220366Y71868D01*
X221139Y72461D01*
X221732Y73234D01*
X222105Y74134D01*
X222232Y75100D01*
X222105Y76066D01*
X221732Y76966D01*
X221139Y77739D01*
X220366Y78332D01*
X219466Y78705D01*
X218500Y78832D01*
D02*
G37*
G36*
X30000Y104236D02*
X28904Y104092D01*
X27882Y103669D01*
X27005Y102996D01*
X26331Y102118D01*
X25908Y101096D01*
X25764Y100000D01*
X25908Y98904D01*
X26331Y97882D01*
X27005Y97004D01*
X27882Y96331D01*
X28904Y95908D01*
X30000Y95764D01*
X31096Y95908D01*
X32118Y96331D01*
X32996Y97004D01*
X33669Y97882D01*
X34092Y98904D01*
X34236Y100000D01*
X34092Y101096D01*
X33669Y102118D01*
X32996Y102996D01*
X32118Y103669D01*
X31096Y104092D01*
X30000Y104236D01*
D02*
G37*
G36*
X20000D02*
X18904Y104092D01*
X17882Y103669D01*
X17005Y102996D01*
X16331Y102118D01*
X15908Y101096D01*
X15764Y100000D01*
X15908Y98904D01*
X16331Y97882D01*
X17005Y97004D01*
X17882Y96331D01*
X18904Y95908D01*
X20000Y95764D01*
X21096Y95908D01*
X22118Y96331D01*
X22996Y97004D01*
X23669Y97882D01*
X24092Y98904D01*
X24236Y100000D01*
X24092Y101096D01*
X23669Y102118D01*
X22996Y102996D01*
X22118Y103669D01*
X21096Y104092D01*
X20000Y104236D01*
D02*
G37*
G36*
X105900Y74633D02*
X105237Y74501D01*
X104674Y74126D01*
X104299Y73563D01*
X104167Y72900D01*
X104299Y72237D01*
X104674Y71674D01*
X105237Y71299D01*
X105900Y71167D01*
X106563Y71299D01*
X107126Y71674D01*
X107501Y72237D01*
X107633Y72900D01*
X107501Y73563D01*
X107126Y74126D01*
X106563Y74501D01*
X105900Y74633D01*
D02*
G37*
G36*
X-3500Y70233D02*
X-4163Y70101D01*
X-4726Y69726D01*
X-5101Y69163D01*
X-5233Y68500D01*
X-5101Y67837D01*
X-4726Y67274D01*
X-4163Y66899D01*
X-3500Y66767D01*
X-2837Y66899D01*
X-2274Y67274D01*
X-1899Y67837D01*
X-1767Y68500D01*
X-1899Y69163D01*
X-2274Y69726D01*
X-2837Y70101D01*
X-3500Y70233D01*
D02*
G37*
G36*
X33600Y70033D02*
X32937Y69901D01*
X32374Y69526D01*
X31999Y68963D01*
X31867Y68300D01*
X31999Y67637D01*
X32374Y67074D01*
X32937Y66699D01*
X33600Y66567D01*
X34263Y66699D01*
X34826Y67074D01*
X35201Y67637D01*
X35333Y68300D01*
X35201Y68963D01*
X34826Y69526D01*
X34263Y69901D01*
X33600Y70033D01*
D02*
G37*
G36*
X85500Y72333D02*
X84837Y72201D01*
X84274Y71826D01*
X83899Y71263D01*
X83767Y70600D01*
X83899Y69937D01*
X84274Y69374D01*
X84837Y68999D01*
X85500Y68867D01*
X86163Y68999D01*
X86726Y69374D01*
X87101Y69937D01*
X87233Y70600D01*
X87101Y71263D01*
X86726Y71826D01*
X86163Y72201D01*
X85500Y72333D01*
D02*
G37*
G36*
X70500Y70233D02*
X69837Y70101D01*
X69274Y69726D01*
X68899Y69163D01*
X68767Y68500D01*
X68899Y67837D01*
X69274Y67274D01*
X69837Y66899D01*
X70500Y66767D01*
X71163Y66899D01*
X71726Y67274D01*
X72101Y67837D01*
X72233Y68500D01*
X72101Y69163D01*
X71726Y69726D01*
X71163Y70101D01*
X70500Y70233D01*
D02*
G37*
G36*
X90000Y104236D02*
X88904Y104092D01*
X87882Y103669D01*
X87005Y102996D01*
X86331Y102118D01*
X85908Y101096D01*
X85764Y100000D01*
X85908Y98904D01*
X86331Y97882D01*
X87005Y97004D01*
X87882Y96331D01*
X88904Y95908D01*
X90000Y95764D01*
X91096Y95908D01*
X92118Y96331D01*
X92996Y97004D01*
X93669Y97882D01*
X94092Y98904D01*
X94236Y100000D01*
X94092Y101096D01*
X93669Y102118D01*
X92996Y102996D01*
X92118Y103669D01*
X91096Y104092D01*
X90000Y104236D01*
D02*
G37*
G36*
X80000D02*
X78904Y104092D01*
X77882Y103669D01*
X77004Y102996D01*
X76331Y102118D01*
X75908Y101096D01*
X75764Y100000D01*
X75908Y98904D01*
X76331Y97882D01*
X77004Y97004D01*
X77882Y96331D01*
X78904Y95908D01*
X80000Y95764D01*
X81096Y95908D01*
X82118Y96331D01*
X82995Y97004D01*
X83669Y97882D01*
X84092Y98904D01*
X84236Y100000D01*
X84092Y101096D01*
X83669Y102118D01*
X82995Y102996D01*
X82118Y103669D01*
X81096Y104092D01*
X80000Y104236D01*
D02*
G37*
G36*
X110000D02*
X108904Y104092D01*
X107882Y103669D01*
X107004Y102996D01*
X106331Y102118D01*
X105908Y101096D01*
X105764Y100000D01*
X105908Y98904D01*
X106331Y97882D01*
X107004Y97004D01*
X107882Y96331D01*
X108904Y95908D01*
X110000Y95764D01*
X111096Y95908D01*
X112118Y96331D01*
X112996Y97004D01*
X113669Y97882D01*
X114092Y98904D01*
X114236Y100000D01*
X114092Y101096D01*
X113669Y102118D01*
X112996Y102996D01*
X112118Y103669D01*
X111096Y104092D01*
X110000Y104236D01*
D02*
G37*
G36*
X100000D02*
X98904Y104092D01*
X97882Y103669D01*
X97004Y102996D01*
X96331Y102118D01*
X95908Y101096D01*
X95764Y100000D01*
X95908Y98904D01*
X96173Y98264D01*
X91488Y93578D01*
X33000D01*
X32434Y93466D01*
X31955Y93145D01*
X11054Y72245D01*
X10837Y72201D01*
X10274Y71826D01*
X9899Y71263D01*
X9767Y70600D01*
X9899Y69937D01*
X10274Y69374D01*
X10837Y68999D01*
X11500Y68867D01*
X12163Y68999D01*
X12726Y69374D01*
X13101Y69937D01*
X13145Y70154D01*
X33612Y90622D01*
X92100D01*
X92666Y90734D01*
X93145Y91055D01*
X98264Y96173D01*
X98904Y95908D01*
X100000Y95764D01*
X101096Y95908D01*
X102118Y96331D01*
X102996Y97004D01*
X103669Y97882D01*
X104092Y98904D01*
X104236Y100000D01*
X104092Y101096D01*
X103669Y102118D01*
X102996Y102996D01*
X102118Y103669D01*
X101096Y104092D01*
X100000Y104236D01*
D02*
G37*
G36*
X70000D02*
X68904Y104092D01*
X67882Y103669D01*
X67005Y102996D01*
X66331Y102118D01*
X65908Y101096D01*
X65764Y100000D01*
X65908Y98904D01*
X66331Y97882D01*
X67005Y97004D01*
X67882Y96331D01*
X68904Y95908D01*
X70000Y95764D01*
X71096Y95908D01*
X72118Y96331D01*
X72996Y97004D01*
X73669Y97882D01*
X74092Y98904D01*
X74236Y100000D01*
X74092Y101096D01*
X73669Y102118D01*
X72996Y102996D01*
X72118Y103669D01*
X71096Y104092D01*
X70000Y104236D01*
D02*
G37*
G36*
X50000D02*
X48904Y104092D01*
X47882Y103669D01*
X47005Y102996D01*
X46331Y102118D01*
X45908Y101096D01*
X45764Y100000D01*
X45908Y98904D01*
X46331Y97882D01*
X47005Y97004D01*
X47882Y96331D01*
X48904Y95908D01*
X50000Y95764D01*
X51096Y95908D01*
X52118Y96331D01*
X52996Y97004D01*
X53669Y97882D01*
X54092Y98904D01*
X54236Y100000D01*
X54092Y101096D01*
X53669Y102118D01*
X52996Y102996D01*
X52118Y103669D01*
X51096Y104092D01*
X50000Y104236D01*
D02*
G37*
G36*
X40000D02*
X38904Y104092D01*
X37882Y103669D01*
X37005Y102996D01*
X36331Y102118D01*
X35908Y101096D01*
X35764Y100000D01*
X35908Y98904D01*
X36331Y97882D01*
X37005Y97004D01*
X37882Y96331D01*
X38904Y95908D01*
X40000Y95764D01*
X41096Y95908D01*
X42118Y96331D01*
X42996Y97004D01*
X43669Y97882D01*
X44092Y98904D01*
X44236Y100000D01*
X44092Y101096D01*
X43669Y102118D01*
X42996Y102996D01*
X42118Y103669D01*
X41096Y104092D01*
X40000Y104236D01*
D02*
G37*
G36*
X60000D02*
X58904Y104092D01*
X57882Y103669D01*
X57004Y102996D01*
X56331Y102118D01*
X55908Y101096D01*
X55764Y100000D01*
X55908Y98904D01*
X56331Y97882D01*
X57004Y97004D01*
X57882Y96331D01*
X58904Y95908D01*
X60000Y95764D01*
X61096Y95908D01*
X62118Y96331D01*
X62995Y97004D01*
X63669Y97882D01*
X64092Y98904D01*
X64236Y100000D01*
X64092Y101096D01*
X63669Y102118D01*
X62995Y102996D01*
X62118Y103669D01*
X61096Y104092D01*
X60000Y104236D01*
D02*
G37*
%LPD*%
G36*
X157022Y55200D02*
Y50600D01*
X157134Y50034D01*
X157455Y49555D01*
X163454Y43555D01*
X163418Y43267D01*
X163251Y43160D01*
X162904Y43066D01*
X162118Y43669D01*
X161096Y44092D01*
X160000Y44236D01*
X158904Y44092D01*
X157882Y43669D01*
X157004Y42996D01*
X156952Y42927D01*
X156478Y43088D01*
Y55200D01*
X157022D01*
D02*
G37*
D21*
X-3500Y49800D02*
X9300D01*
X20000Y20000D02*
X30400Y9600D01*
X45400D01*
X50000Y5000D01*
Y0D02*
Y5000D01*
X60000Y0D02*
Y5500D01*
X45500Y20000D02*
X60000Y5500D01*
X40000Y20000D02*
X45500D01*
X35000Y25000D02*
X40000Y20000D01*
X30000Y55800D02*
X35000Y50800D01*
X80000Y0D02*
Y4200D01*
X70000Y3900D02*
X77300Y11200D01*
X84300D01*
X70000Y0D02*
Y3900D01*
X92100Y13500D02*
Y25000D01*
X95750Y28650D01*
X84300Y11200D02*
X88300Y15200D01*
Y26700D01*
X80000Y4200D02*
X82500Y6700D01*
X85300D01*
X92100Y13500D01*
X88300Y26700D02*
X93900Y32300D01*
X190000Y93200D02*
Y100000D01*
X140000Y20000D02*
X149800D01*
X152300Y22500D01*
X166000D01*
X170500Y27000D01*
X175000D01*
X93900Y32300D02*
X111100D01*
X115000Y36200D01*
X95750Y28650D02*
X117850D01*
X159000Y27000D02*
Y30400D01*
X165000Y36400D01*
Y44100D01*
X158500Y50600D02*
X165000Y44100D01*
X158500Y50600D02*
Y55700D01*
X159800Y57000D01*
X166800Y56700D02*
X171200D01*
X184300Y69800D01*
Y79600D01*
X200000Y95300D01*
Y100000D01*
X11500Y70600D02*
X33000Y92100D01*
X92100D01*
X100000Y100000D01*
X48600Y70400D02*
X60100Y81900D01*
X106800D01*
X120000Y95100D01*
Y100000D01*
X127600Y74900D02*
X143100Y90400D01*
X115000Y36200D02*
Y55400D01*
X127600Y68000D01*
Y74900D01*
X134700Y67100D02*
Y75800D01*
X120000Y20000D02*
X129000Y29000D01*
X150400D01*
X139700Y61500D02*
X150000D01*
X183200Y86400D02*
X190000Y93200D01*
X134700Y75800D02*
X145300Y86400D01*
X183200D01*
X143100Y90400D02*
X170400D01*
X180000Y100000D01*
X155000Y62200D02*
X159800Y67000D01*
X138000Y59800D02*
X139700Y61500D01*
X137900Y59800D02*
X138000D01*
X15000Y25000D02*
X20000Y20000D01*
X15000Y25000D02*
Y44100D01*
X9300Y49800D02*
X15000Y44100D01*
X117850Y28650D02*
X125000Y35800D01*
Y57400D01*
X134700Y67100D01*
X150400Y29000D02*
X155000Y33600D01*
Y62200D01*
X65000Y25000D02*
Y54100D01*
X66900Y56000D01*
X60000Y20000D02*
X65000Y25000D01*
X35000D02*
Y50800D01*
D22*
X140000Y40000D02*
Y44700D01*
X150000Y54700D01*
Y65800D02*
X156200Y72000D01*
X173900D01*
X150000Y54700D02*
Y61500D01*
Y65800D01*
D26*
X60000Y20000D02*
D03*
X40000D02*
D03*
X20000D02*
D03*
X0D02*
D03*
X120000D02*
D03*
X140000D02*
D03*
D28*
X159000Y27000D02*
D03*
D29*
X218500Y85100D02*
D03*
Y55100D02*
D03*
D30*
X200000Y100000D02*
D03*
X190000D02*
D03*
X180000D02*
D03*
X140000D02*
D03*
X120000D02*
D03*
X100000D02*
D03*
X10000D02*
D03*
X120000Y0D02*
D03*
X80000D02*
D03*
X70000D02*
D03*
X60000D02*
D03*
X50000D02*
D03*
X40000D02*
D03*
X175000Y27000D02*
D03*
X140000Y40000D02*
D03*
D31*
X0Y0D02*
D03*
Y40000D02*
D03*
D32*
X48600Y70400D02*
D03*
X33700Y85000D02*
D03*
X56800Y87900D02*
D03*
X60100Y54900D02*
D03*
X105900Y66900D02*
D03*
X97000Y55100D02*
D03*
X70600Y85200D02*
D03*
X93700Y88100D02*
D03*
X23000Y55100D02*
D03*
X-3400Y85200D02*
D03*
X19700Y88100D02*
D03*
X11500Y70600D02*
D03*
X186500Y8500D02*
D03*
X231000Y8000D02*
D03*
X138000Y71000D02*
D03*
X106000Y59700D02*
D03*
X105100Y88400D02*
D03*
X115100Y73500D02*
D03*
X-3500Y49800D02*
D03*
X30000Y55800D02*
D03*
X66900Y56000D02*
D03*
X167500Y29000D02*
D03*
X159800Y57000D02*
D03*
X162000Y54500D02*
D03*
X159800Y67000D02*
D03*
X166800Y56700D02*
D03*
X54800Y31100D02*
D03*
X74000Y30900D02*
D03*
X83600D02*
D03*
X110000Y20400D02*
D03*
X129900Y20000D02*
D03*
X56700Y115700D02*
D03*
X80200Y116000D02*
D03*
X105100D02*
D03*
X129700D02*
D03*
X161600Y115500D02*
D03*
X203100Y55200D02*
D03*
X236200Y17700D02*
D03*
Y28800D02*
D03*
X172200Y78700D02*
D03*
X234500Y115500D02*
D03*
X61200Y31000D02*
D03*
X70500Y15500D02*
D03*
X232400Y74700D02*
D03*
X155300Y80000D02*
D03*
X137900Y59800D02*
D03*
X147100Y8300D02*
D03*
D33*
X193000Y76000D02*
D03*
X173900Y72000D02*
D03*
X21200Y30400D02*
D03*
X46400Y30550D02*
D03*
X178200Y91600D02*
D03*
D34*
X3700Y64250D02*
D03*
M02*
