G04 Layer_Physical_Order=1*
G04 Layer_Color=255*
%FSLAX25Y25*%
%MOIN*%
G70*
G01*
G75*
%ADD10R,0.05200X0.03850*%
%ADD11R,0.03600X0.03200*%
%ADD12R,0.02600X0.08000*%
%ADD13R,0.03200X0.03600*%
%ADD14R,0.07874X0.03850*%
%ADD15R,0.08000X0.02600*%
%ADD16R,0.03600X0.03600*%
%ADD17R,0.03600X0.05000*%
%ADD18R,0.03850X0.05200*%
%ADD19C,0.05000*%
%ADD20C,0.03000*%
%ADD21C,0.01500*%
%ADD22C,0.04000*%
%ADD23C,0.01000*%
%ADD24C,0.02000*%
%ADD25R,0.13655X0.01216*%
%ADD26C,0.09842*%
%ADD27R,0.05905X0.05905*%
%ADD28C,0.05905*%
%ADD29C,0.06000*%
%ADD30C,0.07000*%
%ADD31R,0.07000X0.07000*%
%ADD32C,0.02000*%
%ADD33C,0.04000*%
G36*
X240000Y-5000D02*
X-10000D01*
Y125000D01*
X240000D01*
Y-5000D01*
D02*
G37*
%LPC*%
G36*
X30000Y34223D02*
X29295Y34130D01*
X28638Y33858D01*
X28074Y33426D01*
X27642Y32862D01*
X27369Y32205D01*
X27277Y31500D01*
X27369Y30795D01*
X27642Y30138D01*
X28074Y29574D01*
X28638Y29142D01*
X29295Y28870D01*
X30000Y28777D01*
X30705Y28870D01*
X31362Y29142D01*
X31512Y29257D01*
X32675D01*
Y27300D01*
X37925D01*
Y33900D01*
X32675D01*
Y33743D01*
X31512D01*
X31362Y33858D01*
X30705Y34130D01*
X30000Y34223D01*
D02*
G37*
G36*
X215000Y31236D02*
X213904Y31092D01*
X212882Y30669D01*
X212004Y29996D01*
X211331Y29118D01*
X210908Y28096D01*
X210764Y27000D01*
X210908Y25904D01*
X211331Y24882D01*
X212004Y24004D01*
X212882Y23331D01*
X213904Y22908D01*
X215000Y22764D01*
X216096Y22908D01*
X217118Y23331D01*
X217996Y24004D01*
X218669Y24882D01*
X219092Y25904D01*
X219236Y27000D01*
X219092Y28096D01*
X218669Y29118D01*
X217996Y29996D01*
X217118Y30669D01*
X216096Y31092D01*
X215000Y31236D01*
D02*
G37*
G36*
X40000Y44236D02*
X38904Y44092D01*
X37882Y43669D01*
X37005Y42996D01*
X36331Y42118D01*
X35908Y41096D01*
X35764Y40000D01*
X35908Y38904D01*
X36331Y37882D01*
X37005Y37005D01*
X37882Y36331D01*
X38904Y35908D01*
X40000Y35764D01*
X41096Y35908D01*
X42118Y36331D01*
X42996Y37005D01*
X43669Y37882D01*
X44092Y38904D01*
X44236Y40000D01*
X44092Y41096D01*
X43669Y42118D01*
X42996Y42996D01*
X42118Y43669D01*
X41096Y44092D01*
X40000Y44236D01*
D02*
G37*
G36*
X30000D02*
X28904Y44092D01*
X27882Y43669D01*
X27005Y42996D01*
X26331Y42118D01*
X25908Y41096D01*
X25764Y40000D01*
X25908Y38904D01*
X26331Y37882D01*
X27005Y37005D01*
X27882Y36331D01*
X28904Y35908D01*
X30000Y35764D01*
X31096Y35908D01*
X32118Y36331D01*
X32996Y37005D01*
X33669Y37882D01*
X34092Y38904D01*
X34236Y40000D01*
X34092Y41096D01*
X33669Y42118D01*
X32996Y42996D01*
X32118Y43669D01*
X31096Y44092D01*
X30000Y44236D01*
D02*
G37*
G36*
X185000Y31236D02*
X183904Y31092D01*
X182882Y30669D01*
X182004Y29996D01*
X181331Y29118D01*
X180908Y28096D01*
X180764Y27000D01*
X180908Y25904D01*
X181331Y24882D01*
X182004Y24004D01*
X182882Y23331D01*
X183904Y22908D01*
X185000Y22764D01*
X186096Y22908D01*
X187118Y23331D01*
X187996Y24004D01*
X188669Y24882D01*
X189092Y25904D01*
X189236Y27000D01*
X189092Y28096D01*
X188669Y29118D01*
X187996Y29996D01*
X187118Y30669D01*
X186096Y31092D01*
X185000Y31236D01*
D02*
G37*
G36*
X40000Y25670D02*
X38533Y25477D01*
X37165Y24910D01*
X35991Y24009D01*
X35090Y22835D01*
X34523Y21467D01*
X34330Y20000D01*
X34523Y18533D01*
X35090Y17165D01*
X35991Y15991D01*
X37165Y15090D01*
X38533Y14523D01*
X40000Y14330D01*
X41467Y14523D01*
X42835Y15090D01*
X44009Y15991D01*
X44910Y17165D01*
X45477Y18533D01*
X45670Y20000D01*
X45477Y21467D01*
X44910Y22835D01*
X44009Y24009D01*
X42835Y24910D01*
X41467Y25477D01*
X40000Y25670D01*
D02*
G37*
G36*
X205000Y31236D02*
X203904Y31092D01*
X202882Y30669D01*
X202005Y29996D01*
X201331Y29118D01*
X200908Y28096D01*
X200764Y27000D01*
X200908Y25904D01*
X201331Y24882D01*
X202005Y24004D01*
X202882Y23331D01*
X203904Y22908D01*
X205000Y22764D01*
X206096Y22908D01*
X207118Y23331D01*
X207996Y24004D01*
X208669Y24882D01*
X209092Y25904D01*
X209236Y27000D01*
X209092Y28096D01*
X208669Y29118D01*
X207996Y29996D01*
X207118Y30669D01*
X206096Y31092D01*
X205000Y31236D01*
D02*
G37*
G36*
X195000D02*
X193904Y31092D01*
X192882Y30669D01*
X192005Y29996D01*
X191331Y29118D01*
X190908Y28096D01*
X190764Y27000D01*
X190908Y25904D01*
X191331Y24882D01*
X192005Y24004D01*
X192882Y23331D01*
X193904Y22908D01*
X195000Y22764D01*
X196096Y22908D01*
X197118Y23331D01*
X197995Y24004D01*
X198669Y24882D01*
X199092Y25904D01*
X199236Y27000D01*
X199092Y28096D01*
X198669Y29118D01*
X197995Y29996D01*
X197118Y30669D01*
X196096Y31092D01*
X195000Y31236D01*
D02*
G37*
G36*
X50000Y44236D02*
X48904Y44092D01*
X47882Y43669D01*
X47005Y42996D01*
X46331Y42118D01*
X45908Y41096D01*
X45764Y40000D01*
X45908Y38904D01*
X46331Y37882D01*
X47005Y37005D01*
X47882Y36331D01*
X48904Y35908D01*
X50000Y35764D01*
X51096Y35908D01*
X52118Y36331D01*
X52996Y37005D01*
X53669Y37882D01*
X54092Y38904D01*
X54236Y40000D01*
X54092Y41096D01*
X53669Y42118D01*
X52996Y42996D01*
X52118Y43669D01*
X51096Y44092D01*
X50000Y44236D01*
D02*
G37*
G36*
X200000D02*
X198904Y44092D01*
X197882Y43669D01*
X197004Y42996D01*
X196331Y42118D01*
X195908Y41096D01*
X195764Y40000D01*
X195908Y38904D01*
X196331Y37882D01*
X197004Y37005D01*
X197882Y36331D01*
X198904Y35908D01*
X200000Y35764D01*
X201096Y35908D01*
X202118Y36331D01*
X202995Y37005D01*
X203669Y37882D01*
X204092Y38904D01*
X204236Y40000D01*
X204092Y41096D01*
X203669Y42118D01*
X202995Y42996D01*
X202118Y43669D01*
X201096Y44092D01*
X200000Y44236D01*
D02*
G37*
G36*
X190000D02*
X188904Y44092D01*
X187882Y43669D01*
X187004Y42996D01*
X186331Y42118D01*
X185908Y41096D01*
X185764Y40000D01*
X185908Y38904D01*
X186331Y37882D01*
X187004Y37005D01*
X187882Y36331D01*
X188904Y35908D01*
X190000Y35764D01*
X191096Y35908D01*
X192118Y36331D01*
X192996Y37005D01*
X193669Y37882D01*
X194092Y38904D01*
X194236Y40000D01*
X194092Y41096D01*
X193669Y42118D01*
X192996Y42996D01*
X192118Y43669D01*
X191096Y44092D01*
X190000Y44236D01*
D02*
G37*
G36*
X220000D02*
X218904Y44092D01*
X217882Y43669D01*
X217004Y42996D01*
X216331Y42118D01*
X215908Y41096D01*
X215764Y40000D01*
X215908Y38904D01*
X216331Y37882D01*
X217004Y37005D01*
X217882Y36331D01*
X218904Y35908D01*
X220000Y35764D01*
X221096Y35908D01*
X222118Y36331D01*
X222995Y37005D01*
X223669Y37882D01*
X224092Y38904D01*
X224236Y40000D01*
X224092Y41096D01*
X223669Y42118D01*
X222995Y42996D01*
X222118Y43669D01*
X221096Y44092D01*
X220000Y44236D01*
D02*
G37*
G36*
X210000D02*
X208904Y44092D01*
X207882Y43669D01*
X207004Y42996D01*
X206331Y42118D01*
X205908Y41096D01*
X205764Y40000D01*
X205908Y38904D01*
X206331Y37882D01*
X207004Y37005D01*
X207882Y36331D01*
X208904Y35908D01*
X210000Y35764D01*
X211096Y35908D01*
X212118Y36331D01*
X212996Y37005D01*
X213669Y37882D01*
X214092Y38904D01*
X214236Y40000D01*
X214092Y41096D01*
X213669Y42118D01*
X212996Y42996D01*
X212118Y43669D01*
X211096Y44092D01*
X210000Y44236D01*
D02*
G37*
G36*
X70000D02*
X68904Y44092D01*
X67882Y43669D01*
X67005Y42996D01*
X66331Y42118D01*
X65908Y41096D01*
X65764Y40000D01*
X65908Y38904D01*
X66331Y37882D01*
X67005Y37005D01*
X67882Y36331D01*
X68904Y35908D01*
X70000Y35764D01*
X71096Y35908D01*
X72118Y36331D01*
X72996Y37005D01*
X73669Y37882D01*
X74092Y38904D01*
X74236Y40000D01*
X74092Y41096D01*
X73669Y42118D01*
X72996Y42996D01*
X72118Y43669D01*
X71096Y44092D01*
X70000Y44236D01*
D02*
G37*
G36*
X60000D02*
X58904Y44092D01*
X57882Y43669D01*
X57004Y42996D01*
X56331Y42118D01*
X55908Y41096D01*
X55764Y40000D01*
X55908Y38904D01*
X56331Y37882D01*
X57004Y37005D01*
X57882Y36331D01*
X58904Y35908D01*
X60000Y35764D01*
X61096Y35908D01*
X62118Y36331D01*
X62995Y37005D01*
X63669Y37882D01*
X64092Y38904D01*
X64236Y40000D01*
X64092Y41096D01*
X63669Y42118D01*
X62995Y42996D01*
X62118Y43669D01*
X61096Y44092D01*
X60000Y44236D01*
D02*
G37*
G36*
X140000D02*
X138904Y44092D01*
X137882Y43669D01*
X137004Y42996D01*
X136331Y42118D01*
X135908Y41096D01*
X135764Y40000D01*
X135908Y38904D01*
X136331Y37882D01*
X137004Y37005D01*
X137882Y36331D01*
X138904Y35908D01*
X140000Y35764D01*
X141096Y35908D01*
X142118Y36331D01*
X142996Y37005D01*
X143669Y37882D01*
X144092Y38904D01*
X144236Y40000D01*
X144092Y41096D01*
X143669Y42118D01*
X142996Y42996D01*
X142118Y43669D01*
X141096Y44092D01*
X140000Y44236D01*
D02*
G37*
G36*
X80000D02*
X78904Y44092D01*
X77882Y43669D01*
X77004Y42996D01*
X76331Y42118D01*
X75908Y41096D01*
X75764Y40000D01*
X75908Y38904D01*
X76331Y37882D01*
X77004Y37005D01*
X77882Y36331D01*
X78904Y35908D01*
X80000Y35764D01*
X81096Y35908D01*
X82118Y36331D01*
X82995Y37005D01*
X83669Y37882D01*
X84092Y38904D01*
X84236Y40000D01*
X84092Y41096D01*
X83669Y42118D01*
X82995Y42996D01*
X82118Y43669D01*
X81096Y44092D01*
X80000Y44236D01*
D02*
G37*
G36*
Y4236D02*
X78904Y4092D01*
X77882Y3669D01*
X77004Y2995D01*
X76331Y2118D01*
X75908Y1096D01*
X75764Y0D01*
X75908Y-1096D01*
X76331Y-2118D01*
X77004Y-2995D01*
X77882Y-3669D01*
X78904Y-4092D01*
X80000Y-4236D01*
X81096Y-4092D01*
X82118Y-3669D01*
X82995Y-2995D01*
X83669Y-2118D01*
X84092Y-1096D01*
X84236Y0D01*
X84092Y1096D01*
X83669Y2118D01*
X82995Y2995D01*
X82118Y3669D01*
X81096Y4092D01*
X80000Y4236D01*
D02*
G37*
G36*
X70000D02*
X68904Y4092D01*
X67882Y3669D01*
X67005Y2995D01*
X66331Y2118D01*
X65908Y1096D01*
X65764Y0D01*
X65908Y-1096D01*
X66331Y-2118D01*
X67005Y-2995D01*
X67882Y-3669D01*
X68904Y-4092D01*
X70000Y-4236D01*
X71096Y-4092D01*
X72118Y-3669D01*
X72996Y-2995D01*
X73669Y-2118D01*
X74092Y-1096D01*
X74236Y0D01*
X74092Y1096D01*
X73669Y2118D01*
X72996Y2995D01*
X72118Y3669D01*
X71096Y4092D01*
X70000Y4236D01*
D02*
G37*
G36*
X150000D02*
X148904Y4092D01*
X147882Y3669D01*
X147004Y2995D01*
X146331Y2118D01*
X145908Y1096D01*
X145764Y0D01*
X145908Y-1096D01*
X146331Y-2118D01*
X147004Y-2995D01*
X147882Y-3669D01*
X148904Y-4092D01*
X150000Y-4236D01*
X151096Y-4092D01*
X152118Y-3669D01*
X152996Y-2995D01*
X153669Y-2118D01*
X154092Y-1096D01*
X154236Y0D01*
X154092Y1096D01*
X153669Y2118D01*
X152996Y2995D01*
X152118Y3669D01*
X151096Y4092D01*
X150000Y4236D01*
D02*
G37*
G36*
X120000Y25670D02*
X118533Y25477D01*
X117165Y24910D01*
X115991Y24009D01*
X115090Y22835D01*
X114523Y21467D01*
X114330Y20000D01*
X114523Y18533D01*
X115090Y17165D01*
X115991Y15991D01*
X117165Y15090D01*
X118533Y14523D01*
X120000Y14330D01*
X121467Y14523D01*
X122824Y15085D01*
X128522Y9388D01*
Y3934D01*
X127882Y3669D01*
X127005Y2995D01*
X126331Y2118D01*
X125908Y1096D01*
X125764Y0D01*
X125908Y-1096D01*
X126331Y-2118D01*
X127005Y-2995D01*
X127882Y-3669D01*
X128904Y-4092D01*
X130000Y-4236D01*
X131096Y-4092D01*
X132118Y-3669D01*
X132995Y-2995D01*
X133669Y-2118D01*
X134092Y-1096D01*
X134236Y0D01*
X134092Y1096D01*
X133669Y2118D01*
X132995Y2995D01*
X132118Y3669D01*
X131478Y3934D01*
Y10000D01*
X131366Y10566D01*
X131045Y11045D01*
X124915Y17176D01*
X125477Y18533D01*
X125670Y20000D01*
X125477Y21467D01*
X124910Y22835D01*
X124009Y24009D01*
X122835Y24910D01*
X121467Y25477D01*
X120000Y25670D01*
D02*
G37*
G36*
X30000Y4236D02*
X28904Y4092D01*
X27882Y3669D01*
X27005Y2995D01*
X26331Y2118D01*
X25908Y1096D01*
X25764Y0D01*
X25908Y-1096D01*
X26331Y-2118D01*
X27005Y-2995D01*
X27882Y-3669D01*
X28904Y-4092D01*
X30000Y-4236D01*
X31096Y-4092D01*
X32118Y-3669D01*
X32996Y-2995D01*
X33669Y-2118D01*
X34092Y-1096D01*
X34236Y0D01*
X34092Y1096D01*
X33669Y2118D01*
X32996Y2995D01*
X32118Y3669D01*
X31096Y4092D01*
X30000Y4236D01*
D02*
G37*
G36*
X10000D02*
X8904Y4092D01*
X7882Y3669D01*
X7005Y2995D01*
X6331Y2118D01*
X5908Y1096D01*
X5764Y0D01*
X5908Y-1096D01*
X6331Y-2118D01*
X7005Y-2995D01*
X7882Y-3669D01*
X8904Y-4092D01*
X10000Y-4236D01*
X11096Y-4092D01*
X12118Y-3669D01*
X12995Y-2995D01*
X13669Y-2118D01*
X14092Y-1096D01*
X14236Y0D01*
X14092Y1096D01*
X13669Y2118D01*
X12995Y2995D01*
X12118Y3669D01*
X11096Y4092D01*
X10000Y4236D01*
D02*
G37*
G36*
X60000D02*
X58904Y4092D01*
X57882Y3669D01*
X57004Y2995D01*
X56331Y2118D01*
X55908Y1096D01*
X55764Y0D01*
X55908Y-1096D01*
X56331Y-2118D01*
X57004Y-2995D01*
X57882Y-3669D01*
X58904Y-4092D01*
X60000Y-4236D01*
X61096Y-4092D01*
X62118Y-3669D01*
X62995Y-2995D01*
X63669Y-2118D01*
X64092Y-1096D01*
X64236Y0D01*
X64092Y1096D01*
X63669Y2118D01*
X62995Y2995D01*
X62118Y3669D01*
X61096Y4092D01*
X60000Y4236D01*
D02*
G37*
G36*
X50000D02*
X48904Y4092D01*
X47882Y3669D01*
X47005Y2995D01*
X46331Y2118D01*
X45908Y1096D01*
X45764Y0D01*
X45908Y-1096D01*
X46331Y-2118D01*
X47005Y-2995D01*
X47882Y-3669D01*
X48904Y-4092D01*
X50000Y-4236D01*
X51096Y-4092D01*
X52118Y-3669D01*
X52996Y-2995D01*
X53669Y-2118D01*
X54092Y-1096D01*
X54236Y0D01*
X54092Y1096D01*
X53669Y2118D01*
X52996Y2995D01*
X52118Y3669D01*
X51096Y4092D01*
X50000Y4236D01*
D02*
G37*
G36*
X200000D02*
X198904Y4092D01*
X197882Y3669D01*
X197004Y2995D01*
X196331Y2118D01*
X195908Y1096D01*
X195764Y0D01*
X195908Y-1096D01*
X196331Y-2118D01*
X197004Y-2995D01*
X197882Y-3669D01*
X198904Y-4092D01*
X200000Y-4236D01*
X201096Y-4092D01*
X202118Y-3669D01*
X202995Y-2995D01*
X203669Y-2118D01*
X204092Y-1096D01*
X204236Y0D01*
X204092Y1096D01*
X203669Y2118D01*
X202995Y2995D01*
X202118Y3669D01*
X201096Y4092D01*
X200000Y4236D01*
D02*
G37*
G36*
X205000Y21236D02*
X203904Y21092D01*
X202882Y20669D01*
X202005Y19996D01*
X201331Y19118D01*
X200908Y18096D01*
X200764Y17000D01*
X200908Y15904D01*
X201331Y14882D01*
X202005Y14005D01*
X202882Y13331D01*
X203904Y12908D01*
X205000Y12764D01*
X206096Y12908D01*
X207118Y13331D01*
X207996Y14005D01*
X208669Y14882D01*
X209092Y15904D01*
X209236Y17000D01*
X209092Y18096D01*
X208669Y19118D01*
X207996Y19996D01*
X207118Y20669D01*
X206096Y21092D01*
X205000Y21236D01*
D02*
G37*
G36*
X195000D02*
X193904Y21092D01*
X192882Y20669D01*
X192005Y19996D01*
X191331Y19118D01*
X190908Y18096D01*
X190764Y17000D01*
X190908Y15904D01*
X191331Y14882D01*
X192005Y14005D01*
X192882Y13331D01*
X193904Y12908D01*
X195000Y12764D01*
X196096Y12908D01*
X197118Y13331D01*
X197995Y14005D01*
X198669Y14882D01*
X199092Y15904D01*
X199236Y17000D01*
X199092Y18096D01*
X198669Y19118D01*
X197995Y19996D01*
X197118Y20669D01*
X196096Y21092D01*
X195000Y21236D01*
D02*
G37*
G36*
X20000Y25670D02*
X18533Y25477D01*
X17165Y24910D01*
X15991Y24009D01*
X15090Y22835D01*
X14523Y21467D01*
X14330Y20000D01*
X14523Y18533D01*
X15090Y17165D01*
X15991Y15991D01*
X17165Y15090D01*
X18533Y14523D01*
X20000Y14330D01*
X21467Y14523D01*
X22835Y15090D01*
X24009Y15991D01*
X24910Y17165D01*
X25477Y18533D01*
X25670Y20000D01*
X25477Y21467D01*
X24910Y22835D01*
X24009Y24009D01*
X22835Y24910D01*
X21467Y25477D01*
X20000Y25670D01*
D02*
G37*
G36*
X215000Y21236D02*
X213904Y21092D01*
X212882Y20669D01*
X212004Y19996D01*
X211331Y19118D01*
X210908Y18096D01*
X210764Y17000D01*
X210908Y15904D01*
X211331Y14882D01*
X212004Y14005D01*
X212882Y13331D01*
X213904Y12908D01*
X215000Y12764D01*
X216096Y12908D01*
X217118Y13331D01*
X217996Y14005D01*
X218669Y14882D01*
X219092Y15904D01*
X219236Y17000D01*
X219092Y18096D01*
X218669Y19118D01*
X217996Y19996D01*
X217118Y20669D01*
X216096Y21092D01*
X215000Y21236D01*
D02*
G37*
G36*
X220000Y4236D02*
X218904Y4092D01*
X217882Y3669D01*
X217004Y2995D01*
X216331Y2118D01*
X215908Y1096D01*
X215764Y0D01*
X215908Y-1096D01*
X216331Y-2118D01*
X217004Y-2995D01*
X217882Y-3669D01*
X218904Y-4092D01*
X220000Y-4236D01*
X221096Y-4092D01*
X222118Y-3669D01*
X222995Y-2995D01*
X223669Y-2118D01*
X224092Y-1096D01*
X224236Y0D01*
X224092Y1096D01*
X223669Y2118D01*
X222995Y2995D01*
X222118Y3669D01*
X221096Y4092D01*
X220000Y4236D01*
D02*
G37*
G36*
X210000D02*
X208904Y4092D01*
X207882Y3669D01*
X207004Y2995D01*
X206331Y2118D01*
X205908Y1096D01*
X205764Y0D01*
X205908Y-1096D01*
X206331Y-2118D01*
X207004Y-2995D01*
X207882Y-3669D01*
X208904Y-4092D01*
X210000Y-4236D01*
X211096Y-4092D01*
X212118Y-3669D01*
X212996Y-2995D01*
X213669Y-2118D01*
X214092Y-1096D01*
X214236Y0D01*
X214092Y1096D01*
X213669Y2118D01*
X212996Y2995D01*
X212118Y3669D01*
X211096Y4092D01*
X210000Y4236D01*
D02*
G37*
G36*
X185000Y21236D02*
X183904Y21092D01*
X182882Y20669D01*
X182004Y19996D01*
X181331Y19118D01*
X180908Y18096D01*
X180764Y17000D01*
X180908Y15904D01*
X181331Y14882D01*
X182004Y14005D01*
X182882Y13331D01*
X183904Y12908D01*
X185000Y12764D01*
X186096Y12908D01*
X187118Y13331D01*
X187996Y14005D01*
X188669Y14882D01*
X189092Y15904D01*
X189236Y17000D01*
X189092Y18096D01*
X188669Y19118D01*
X187996Y19996D01*
X187118Y20669D01*
X186096Y21092D01*
X185000Y21236D01*
D02*
G37*
G36*
X230000Y4236D02*
X228904Y4092D01*
X227882Y3669D01*
X227005Y2995D01*
X226331Y2118D01*
X225908Y1096D01*
X225764Y0D01*
X225908Y-1096D01*
X226331Y-2118D01*
X227005Y-2995D01*
X227882Y-3669D01*
X228904Y-4092D01*
X230000Y-4236D01*
X231096Y-4092D01*
X232118Y-3669D01*
X232996Y-2995D01*
X233669Y-2118D01*
X234092Y-1096D01*
X234236Y0D01*
X234092Y1096D01*
X233669Y2118D01*
X232996Y2995D01*
X232118Y3669D01*
X231096Y4092D01*
X230000Y4236D01*
D02*
G37*
G36*
X50000Y104236D02*
X48904Y104092D01*
X47882Y103669D01*
X47005Y102996D01*
X46331Y102118D01*
X45908Y101096D01*
X45764Y100000D01*
X45908Y98904D01*
X46331Y97882D01*
X47005Y97004D01*
X47882Y96331D01*
X48904Y95908D01*
X50000Y95764D01*
X51096Y95908D01*
X52118Y96331D01*
X52996Y97004D01*
X53669Y97882D01*
X54092Y98904D01*
X54236Y100000D01*
X54092Y101096D01*
X53669Y102118D01*
X52996Y102996D01*
X52118Y103669D01*
X51096Y104092D01*
X50000Y104236D01*
D02*
G37*
G36*
X40000D02*
X38904Y104092D01*
X37882Y103669D01*
X37005Y102996D01*
X36331Y102118D01*
X35908Y101096D01*
X35764Y100000D01*
X35908Y98904D01*
X36331Y97882D01*
X37005Y97004D01*
X37882Y96331D01*
X38904Y95908D01*
X40000Y95764D01*
X41096Y95908D01*
X42118Y96331D01*
X42996Y97004D01*
X43669Y97882D01*
X44092Y98904D01*
X44236Y100000D01*
X44092Y101096D01*
X43669Y102118D01*
X42996Y102996D01*
X42118Y103669D01*
X41096Y104092D01*
X40000Y104236D01*
D02*
G37*
G36*
X70000D02*
X68904Y104092D01*
X67882Y103669D01*
X67005Y102996D01*
X66331Y102118D01*
X65908Y101096D01*
X65764Y100000D01*
X65908Y98904D01*
X66331Y97882D01*
X67005Y97004D01*
X67882Y96331D01*
X68904Y95908D01*
X70000Y95764D01*
X71096Y95908D01*
X72118Y96331D01*
X72996Y97004D01*
X73669Y97882D01*
X74092Y98904D01*
X74236Y100000D01*
X74092Y101096D01*
X73669Y102118D01*
X72996Y102996D01*
X72118Y103669D01*
X71096Y104092D01*
X70000Y104236D01*
D02*
G37*
G36*
X60000D02*
X58904Y104092D01*
X57882Y103669D01*
X57004Y102996D01*
X56331Y102118D01*
X55908Y101096D01*
X55764Y100000D01*
X55908Y98904D01*
X56331Y97882D01*
X57004Y97004D01*
X57882Y96331D01*
X58904Y95908D01*
X60000Y95764D01*
X61096Y95908D01*
X62118Y96331D01*
X62995Y97004D01*
X63669Y97882D01*
X64092Y98904D01*
X64236Y100000D01*
X64092Y101096D01*
X63669Y102118D01*
X62995Y102996D01*
X62118Y103669D01*
X61096Y104092D01*
X60000Y104236D01*
D02*
G37*
G36*
X88500Y88000D02*
X83500D01*
Y83400D01*
X84522D01*
Y81200D01*
X83500D01*
Y71800D01*
X83718D01*
X83923Y71300D01*
X83899Y71263D01*
X83767Y70600D01*
X83899Y69937D01*
X84274Y69374D01*
X84837Y68999D01*
X85500Y68867D01*
X86163Y68999D01*
X86726Y69374D01*
X87101Y69937D01*
X87233Y70600D01*
X87101Y71263D01*
X87077Y71300D01*
X87282Y71800D01*
X87500D01*
Y81200D01*
X87478D01*
Y83400D01*
X88500D01*
Y88000D01*
D02*
G37*
G36*
X14500D02*
X9500D01*
Y83400D01*
X10522D01*
Y81200D01*
X9500D01*
Y71800D01*
X9718D01*
X9923Y71300D01*
X9899Y71263D01*
X9767Y70600D01*
X9899Y69937D01*
X10274Y69374D01*
X10837Y68999D01*
X11500Y68867D01*
X12163Y68999D01*
X12726Y69374D01*
X13101Y69937D01*
X13233Y70600D01*
X13101Y71263D01*
X13077Y71300D01*
X13282Y71800D01*
X13500D01*
Y81200D01*
X13478D01*
Y83400D01*
X14500D01*
Y88000D01*
D02*
G37*
G36*
X30000Y104236D02*
X28904Y104092D01*
X27882Y103669D01*
X27005Y102996D01*
X26331Y102118D01*
X25908Y101096D01*
X25764Y100000D01*
X25908Y98904D01*
X26331Y97882D01*
X27005Y97004D01*
X27882Y96331D01*
X28904Y95908D01*
X30000Y95764D01*
X31096Y95908D01*
X32118Y96331D01*
X32996Y97004D01*
X33669Y97882D01*
X34092Y98904D01*
X34236Y100000D01*
X34092Y101096D01*
X33669Y102118D01*
X32996Y102996D01*
X32118Y103669D01*
X31096Y104092D01*
X30000Y104236D01*
D02*
G37*
G36*
X137000Y91933D02*
X136337Y91801D01*
X135774Y91426D01*
X135399Y90863D01*
X135267Y90200D01*
X135399Y89537D01*
X135774Y88974D01*
X136337Y88599D01*
X137000Y88467D01*
X137663Y88599D01*
X138226Y88974D01*
X138601Y89537D01*
X138733Y90200D01*
X138601Y90863D01*
X138226Y91426D01*
X137663Y91801D01*
X137000Y91933D01*
D02*
G37*
G36*
X162900Y123428D02*
X52500D01*
X51665Y123318D01*
X50886Y122995D01*
X50218Y122482D01*
X41613Y113878D01*
X41096Y114092D01*
X40000Y114236D01*
X38904Y114092D01*
X37882Y113669D01*
X37307Y113228D01*
X32693D01*
X32118Y113669D01*
X31096Y114092D01*
X30000Y114236D01*
X28904Y114092D01*
X27882Y113669D01*
X27307Y113228D01*
X22693D01*
X22118Y113669D01*
X21096Y114092D01*
X20000Y114236D01*
X18904Y114092D01*
X17882Y113669D01*
X17307Y113228D01*
X12693D01*
X12118Y113669D01*
X11096Y114092D01*
X10000Y114236D01*
X8904Y114092D01*
X7882Y113669D01*
X7307Y113228D01*
X2693D01*
X2118Y113669D01*
X1096Y114092D01*
X0Y114236D01*
X-1096Y114092D01*
X-2118Y113669D01*
X-2995Y112996D01*
X-3669Y112118D01*
X-4092Y111096D01*
X-4236Y110000D01*
X-4092Y108904D01*
X-3669Y107882D01*
X-3228Y107307D01*
Y104200D01*
X-4200D01*
Y95800D01*
X-3228D01*
Y95000D01*
X-3118Y94165D01*
X-2795Y93386D01*
X-2282Y92718D01*
X-282Y90718D01*
X386Y90205D01*
X1165Y89882D01*
X2000Y89772D01*
X21663D01*
X22772Y88663D01*
Y80337D01*
X15718Y73282D01*
X15205Y72614D01*
X14882Y71835D01*
X14772Y71000D01*
Y68337D01*
X11563Y65128D01*
X11500D01*
X10665Y65018D01*
X9886Y64695D01*
X9218Y64182D01*
X8806Y63645D01*
X8407Y63400D01*
X7415D01*
X7263Y63501D01*
X6600Y63633D01*
X5937Y63501D01*
X5785Y63400D01*
X-5300Y63400D01*
Y60700D01*
X-5500D01*
Y51300D01*
X-5300D01*
Y48600D01*
X-4743D01*
X-4726Y48574D01*
X-4163Y48199D01*
X-3500Y48067D01*
X-2837Y48199D01*
X-2274Y48574D01*
X-2257Y48600D01*
X8393Y48600D01*
X8396Y51300D01*
X8500D01*
Y59732D01*
X9000Y59901D01*
X9218Y59618D01*
X9500Y59401D01*
Y51300D01*
X13500D01*
Y58751D01*
X13735Y58782D01*
X14272Y59005D01*
X14772Y58710D01*
Y51366D01*
X3850Y45222D01*
X3776Y45159D01*
X3695Y45105D01*
X3671Y45069D01*
X3639Y45041D01*
X3595Y44954D01*
X3541Y44873D01*
X3532Y44831D01*
X3513Y44792D01*
X3505Y44695D01*
X3486Y44600D01*
Y35137D01*
X3491Y35116D01*
X3488Y35094D01*
X3517Y34980D01*
X3541Y34864D01*
X3553Y34846D01*
X3558Y34825D01*
X3630Y34730D01*
X3695Y34632D01*
X3713Y34620D01*
X3726Y34603D01*
X3829Y34543D01*
X3927Y34477D01*
X3948Y34473D01*
X3967Y34462D01*
X6523Y33579D01*
X6772Y30259D01*
Y13000D01*
X6882Y12165D01*
X7205Y11386D01*
X7718Y10718D01*
X10718Y7718D01*
X11386Y7205D01*
X12165Y6882D01*
X13000Y6772D01*
X15663D01*
X16772Y5663D01*
Y2693D01*
X16331Y2118D01*
X15908Y1096D01*
X15764Y0D01*
X15908Y-1096D01*
X16331Y-2118D01*
X17005Y-2995D01*
X17882Y-3669D01*
X18904Y-4092D01*
X20000Y-4236D01*
X21096Y-4092D01*
X22118Y-3669D01*
X22996Y-2995D01*
X23669Y-2118D01*
X24092Y-1096D01*
X24236Y0D01*
X24092Y1096D01*
X23669Y2118D01*
X23228Y2693D01*
Y7000D01*
X23118Y7835D01*
X22795Y8614D01*
X22282Y9282D01*
X19282Y12282D01*
X18614Y12795D01*
X17835Y13118D01*
X17000Y13228D01*
X14337D01*
X13228Y14337D01*
Y30643D01*
X14267Y32184D01*
X14295Y32250D01*
X14334Y32310D01*
X14348Y32377D01*
X14374Y32440D01*
X14375Y32512D01*
X14389Y32583D01*
Y32672D01*
X14632Y33099D01*
X14699Y33127D01*
X14769Y33141D01*
X14827Y33179D01*
X14890Y33205D01*
X14941Y33255D01*
X15001Y33295D01*
X15039Y33352D01*
X15088Y33401D01*
X16505Y35501D01*
X16533Y35567D01*
X16572Y35627D01*
X16586Y35694D01*
X16612Y35758D01*
X16613Y35829D01*
X16627Y35900D01*
Y36735D01*
X17127Y36911D01*
X17882Y36331D01*
X18904Y35908D01*
X20000Y35764D01*
X21096Y35908D01*
X22118Y36331D01*
X22996Y37005D01*
X23669Y37882D01*
X24092Y38904D01*
X24236Y40000D01*
X24092Y41096D01*
X23669Y42118D01*
X22996Y42996D01*
X22118Y43669D01*
X21096Y44092D01*
X20980Y44107D01*
X20795Y44636D01*
X20926Y44772D01*
X89000D01*
X89835Y44882D01*
X90614Y45205D01*
X91282Y45718D01*
X94282Y48718D01*
X94795Y49386D01*
X95118Y50165D01*
X95228Y51000D01*
Y68663D01*
X103337Y76772D01*
X104167D01*
Y72900D01*
X104299Y72237D01*
X104674Y71674D01*
X105237Y71299D01*
X105900Y71167D01*
X106563Y71299D01*
X107126Y71674D01*
X107506Y71373D01*
X107434Y71266D01*
X107322Y70700D01*
Y66512D01*
X105788Y64978D01*
X104900D01*
X104334Y64866D01*
X103855Y64545D01*
X101555Y62245D01*
X101234Y61766D01*
X101122Y61200D01*
Y52312D01*
X93955Y45145D01*
X93634Y44666D01*
X93522Y44100D01*
Y43088D01*
X93048Y42927D01*
X92996Y42996D01*
X92118Y43669D01*
X91096Y44092D01*
X90000Y44236D01*
X88904Y44092D01*
X87882Y43669D01*
X87005Y42996D01*
X86331Y42118D01*
X85908Y41096D01*
X85764Y40000D01*
X85908Y38904D01*
X86331Y37882D01*
X87005Y37005D01*
X87882Y36331D01*
X88904Y35908D01*
X90000Y35764D01*
X91096Y35908D01*
X92118Y36331D01*
X92996Y37005D01*
X93048Y37073D01*
X93522Y36912D01*
Y35612D01*
X82824Y24915D01*
X81467Y25477D01*
X80000Y25670D01*
X78533Y25477D01*
X77165Y24910D01*
X75991Y24009D01*
X75090Y22835D01*
X74523Y21467D01*
X74330Y20000D01*
X74523Y18533D01*
X75090Y17165D01*
X75991Y15991D01*
X77165Y15090D01*
X78522Y14528D01*
Y12600D01*
X78634Y12034D01*
X78955Y11555D01*
X81555Y8955D01*
X82034Y8634D01*
X82314Y8578D01*
X82265Y8078D01*
X66212D01*
X61478Y12812D01*
Y14528D01*
X62835Y15090D01*
X64009Y15991D01*
X64910Y17165D01*
X65477Y18533D01*
X65670Y20000D01*
X65477Y21467D01*
X64910Y22835D01*
X64009Y24009D01*
X62835Y24910D01*
X61467Y25477D01*
X60000Y25670D01*
X58533Y25477D01*
X57165Y24910D01*
X55991Y24009D01*
X55090Y22835D01*
X54523Y21467D01*
X54330Y20000D01*
X54523Y18533D01*
X55090Y17165D01*
X55991Y15991D01*
X57165Y15090D01*
X58522Y14528D01*
Y12200D01*
X58634Y11634D01*
X58955Y11155D01*
X64555Y5555D01*
X65034Y5234D01*
X65600Y5122D01*
X87488D01*
X88248Y4361D01*
X88130Y3772D01*
X87882Y3669D01*
X87005Y2995D01*
X86331Y2118D01*
X85908Y1096D01*
X85764Y0D01*
X85908Y-1096D01*
X86331Y-2118D01*
X87005Y-2995D01*
X87882Y-3669D01*
X88904Y-4092D01*
X90000Y-4236D01*
X91096Y-4092D01*
X92118Y-3669D01*
X92996Y-2995D01*
X93669Y-2118D01*
X94092Y-1096D01*
X94236Y0D01*
X94092Y1096D01*
X93669Y2118D01*
X92996Y2995D01*
X92118Y3669D01*
X91478Y3934D01*
Y4700D01*
X91366Y5266D01*
X91045Y5745D01*
X89145Y7645D01*
X88666Y7966D01*
X88386Y8022D01*
X88435Y8522D01*
X92788D01*
X97477Y3832D01*
X97444Y3333D01*
X97004Y2995D01*
X96331Y2118D01*
X95908Y1096D01*
X95764Y0D01*
X95908Y-1096D01*
X96331Y-2118D01*
X97004Y-2995D01*
X97882Y-3669D01*
X98904Y-4092D01*
X100000Y-4236D01*
X101096Y-4092D01*
X102118Y-3669D01*
X102996Y-2995D01*
X103669Y-2118D01*
X104092Y-1096D01*
X104236Y0D01*
X104092Y1096D01*
X103669Y2118D01*
X102996Y2995D01*
X102118Y3669D01*
X101352Y3986D01*
X101045Y4445D01*
X94445Y11045D01*
X93966Y11366D01*
X93400Y11478D01*
X83212D01*
X81478Y13212D01*
Y14528D01*
X82835Y15090D01*
X84009Y15991D01*
X84910Y17165D01*
X85477Y18533D01*
X85670Y20000D01*
X85477Y21467D01*
X84915Y22824D01*
X96045Y33955D01*
X96366Y34434D01*
X96478Y35000D01*
Y36912D01*
X96952Y37073D01*
X97004Y37005D01*
X97882Y36331D01*
X98904Y35908D01*
X100000Y35764D01*
X101096Y35908D01*
X102118Y36331D01*
X102996Y37005D01*
X103048Y37073D01*
X103522Y36912D01*
Y35112D01*
X98955Y30545D01*
X98634Y30066D01*
X98522Y29500D01*
Y25472D01*
X97165Y24910D01*
X95991Y24009D01*
X95090Y22835D01*
X94523Y21467D01*
X94330Y20000D01*
X94523Y18533D01*
X95090Y17165D01*
X95991Y15991D01*
X97165Y15090D01*
X98533Y14523D01*
X100000Y14330D01*
X101467Y14523D01*
X102824Y15085D01*
X108522Y9388D01*
Y3934D01*
X107882Y3669D01*
X107004Y2995D01*
X106331Y2118D01*
X105908Y1096D01*
X105764Y0D01*
X105908Y-1096D01*
X106331Y-2118D01*
X107004Y-2995D01*
X107882Y-3669D01*
X108904Y-4092D01*
X110000Y-4236D01*
X111096Y-4092D01*
X112118Y-3669D01*
X112996Y-2995D01*
X113669Y-2118D01*
X114092Y-1096D01*
X114236Y0D01*
X114092Y1096D01*
X113669Y2118D01*
X112996Y2995D01*
X112118Y3669D01*
X111478Y3934D01*
Y10000D01*
X111366Y10566D01*
X111045Y11045D01*
X104915Y17176D01*
X105477Y18533D01*
X105670Y20000D01*
X105477Y21467D01*
X104910Y22835D01*
X104009Y24009D01*
X102835Y24910D01*
X101478Y25472D01*
Y28888D01*
X106045Y33455D01*
X106366Y33934D01*
X106478Y34500D01*
Y36912D01*
X106952Y37073D01*
X107004Y37005D01*
X107882Y36331D01*
X108522Y36066D01*
Y35100D01*
X108634Y34534D01*
X108955Y34055D01*
X116155Y26855D01*
X116634Y26534D01*
X117200Y26422D01*
X143088D01*
X145022Y24488D01*
Y23511D01*
X144522Y23341D01*
X144009Y24009D01*
X142835Y24910D01*
X141467Y25477D01*
X140000Y25670D01*
X138533Y25477D01*
X137165Y24910D01*
X135991Y24009D01*
X135090Y22835D01*
X134523Y21467D01*
X134330Y20000D01*
X134523Y18533D01*
X135090Y17165D01*
X135991Y15991D01*
X137165Y15090D01*
X138522Y14528D01*
Y3934D01*
X137882Y3669D01*
X137004Y2995D01*
X136331Y2118D01*
X135908Y1096D01*
X135764Y0D01*
X135908Y-1096D01*
X136331Y-2118D01*
X137004Y-2995D01*
X137882Y-3669D01*
X138904Y-4092D01*
X140000Y-4236D01*
X141096Y-4092D01*
X142118Y-3669D01*
X142996Y-2995D01*
X143669Y-2118D01*
X144092Y-1096D01*
X144236Y0D01*
X144092Y1096D01*
X143669Y2118D01*
X142996Y2995D01*
X142118Y3669D01*
X141478Y3934D01*
Y14528D01*
X142835Y15090D01*
X144009Y15991D01*
X144522Y16659D01*
X145022Y16489D01*
Y13500D01*
X145134Y12934D01*
X145455Y12455D01*
X156173Y1736D01*
X155908Y1096D01*
X155764Y0D01*
X155908Y-1096D01*
X156331Y-2118D01*
X157004Y-2995D01*
X157882Y-3669D01*
X158904Y-4092D01*
X160000Y-4236D01*
X161096Y-4092D01*
X162118Y-3669D01*
X162996Y-2995D01*
X163669Y-2118D01*
X164092Y-1096D01*
X164236Y0D01*
X164092Y1096D01*
X163669Y2118D01*
X162996Y2995D01*
X162118Y3669D01*
X161096Y4092D01*
X160478Y4173D01*
X160346Y4445D01*
X160328Y4697D01*
X160357Y4722D01*
X163188D01*
X166173Y1736D01*
X165908Y1096D01*
X165764Y0D01*
X165908Y-1096D01*
X166331Y-2118D01*
X167005Y-2995D01*
X167882Y-3669D01*
X168904Y-4092D01*
X170000Y-4236D01*
X171096Y-4092D01*
X172118Y-3669D01*
X172995Y-2995D01*
X173669Y-2118D01*
X174092Y-1096D01*
X174236Y0D01*
X174092Y1096D01*
X173669Y2118D01*
X172995Y2995D01*
X172118Y3669D01*
X171096Y4092D01*
X170000Y4236D01*
X168904Y4092D01*
X168264Y3827D01*
X165631Y6460D01*
X165823Y6922D01*
X170988D01*
X176173Y1736D01*
X175908Y1096D01*
X175764Y0D01*
X175908Y-1096D01*
X176331Y-2118D01*
X177005Y-2995D01*
X177882Y-3669D01*
X178904Y-4092D01*
X180000Y-4236D01*
X181096Y-4092D01*
X182118Y-3669D01*
X182995Y-2995D01*
X183669Y-2118D01*
X184092Y-1096D01*
X184236Y0D01*
X184092Y1096D01*
X183669Y2118D01*
X182995Y2995D01*
X182118Y3669D01*
X181096Y4092D01*
X180000Y4236D01*
X178904Y4092D01*
X178264Y3827D01*
X172769Y9322D01*
X172940Y9810D01*
X172950Y9822D01*
X178088D01*
X186173Y1736D01*
X185908Y1096D01*
X185764Y0D01*
X185908Y-1096D01*
X186331Y-2118D01*
X187004Y-2995D01*
X187882Y-3669D01*
X188904Y-4092D01*
X190000Y-4236D01*
X191096Y-4092D01*
X192118Y-3669D01*
X192996Y-2995D01*
X193669Y-2118D01*
X194092Y-1096D01*
X194236Y0D01*
X194092Y1096D01*
X193669Y2118D01*
X192996Y2995D01*
X192118Y3669D01*
X191096Y4092D01*
X190000Y4236D01*
X188904Y4092D01*
X188264Y3827D01*
X179745Y12345D01*
X179562Y12468D01*
X179254Y12750D01*
X179200Y13150D01*
Y21200D01*
X170800D01*
Y13498D01*
X170300Y13291D01*
X165778Y17812D01*
Y30400D01*
X165666Y30966D01*
X165345Y31445D01*
X162445Y34345D01*
X161966Y34666D01*
X161400Y34778D01*
X159312D01*
X158597Y35494D01*
X158880Y35918D01*
X158904Y35908D01*
X160000Y35764D01*
X161096Y35908D01*
X162118Y36331D01*
X162996Y37005D01*
X163669Y37882D01*
X164092Y38904D01*
X164236Y40000D01*
X164092Y41096D01*
X163669Y42118D01*
X162996Y42996D01*
X162118Y43669D01*
X161096Y44092D01*
X160000Y44236D01*
X158904Y44092D01*
X157882Y43669D01*
X157004Y42996D01*
X156952Y42927D01*
X156478Y43088D01*
Y44000D01*
X156366Y44566D01*
X156045Y45045D01*
X153545Y47545D01*
X153066Y47866D01*
X152500Y47978D01*
X149612D01*
X148278Y49312D01*
Y54811D01*
X148700Y55000D01*
X158100D01*
Y55200D01*
X164800D01*
Y53665D01*
X164799Y53663D01*
X164667Y53000D01*
X164799Y52337D01*
X164800Y52335D01*
Y50200D01*
X169200Y50200D01*
Y50000D01*
X172677D01*
Y47100D01*
X172770Y46632D01*
X173035Y46235D01*
X173776Y45493D01*
Y42799D01*
X173276Y42629D01*
X172995Y42996D01*
X172118Y43669D01*
X171096Y44092D01*
X170000Y44236D01*
X168904Y44092D01*
X167882Y43669D01*
X167005Y42996D01*
X166331Y42118D01*
X165908Y41096D01*
X165764Y40000D01*
X165908Y38904D01*
X166331Y37882D01*
X167005Y37005D01*
X167882Y36331D01*
X168904Y35908D01*
X170000Y35764D01*
X171096Y35908D01*
X172118Y36331D01*
X172995Y37005D01*
X173276Y37371D01*
X173776Y37201D01*
Y31039D01*
X172882Y30669D01*
X172004Y29996D01*
X171331Y29118D01*
X170908Y28096D01*
X170764Y27000D01*
X170908Y25904D01*
X171331Y24882D01*
X172004Y24004D01*
X172882Y23331D01*
X173904Y22908D01*
X175000Y22764D01*
X176096Y22908D01*
X177118Y23331D01*
X177996Y24004D01*
X178669Y24882D01*
X179092Y25904D01*
X179236Y27000D01*
X179092Y28096D01*
X178669Y29118D01*
X177996Y29996D01*
X177118Y30669D01*
X176224Y31039D01*
Y37201D01*
X176724Y37371D01*
X177005Y37005D01*
X177882Y36331D01*
X178904Y35908D01*
X180000Y35764D01*
X181096Y35908D01*
X182118Y36331D01*
X182995Y37005D01*
X183669Y37882D01*
X184092Y38904D01*
X184236Y40000D01*
X184092Y41096D01*
X183669Y42118D01*
X182995Y42996D01*
X182118Y43669D01*
X181096Y44092D01*
X180000Y44236D01*
X178904Y44092D01*
X177882Y43669D01*
X177005Y42996D01*
X176724Y42629D01*
X176224Y42799D01*
Y46000D01*
X176130Y46468D01*
X175865Y46865D01*
X175124Y47607D01*
Y50000D01*
X178600D01*
Y50200D01*
X179300D01*
X179300Y64194D01*
X166700Y64206D01*
Y69900D01*
X166800D01*
X166800Y76300D01*
X167291Y76322D01*
X167488D01*
X171250Y72559D01*
X171177Y72000D01*
X171270Y71295D01*
X171542Y70638D01*
X171974Y70074D01*
X172422Y69731D01*
Y69000D01*
X169200D01*
Y65000D01*
X178600D01*
Y69000D01*
X175378D01*
Y69731D01*
X175412Y69757D01*
X175500D01*
X176358Y69928D01*
X177086Y70414D01*
X179686Y73014D01*
X180172Y73742D01*
X180343Y74600D01*
Y75775D01*
X181400D01*
Y81025D01*
X174800D01*
Y75775D01*
X175396D01*
X175603Y75275D01*
X174855Y74527D01*
X174605Y74630D01*
X173900Y74723D01*
X173341Y74650D01*
X169145Y78845D01*
X168666Y79166D01*
X168100Y79278D01*
X164512D01*
X163100Y80691D01*
Y83600D01*
X158100D01*
Y78600D01*
X161009D01*
X162809Y76800D01*
X162785Y76610D01*
X162635Y76300D01*
X161800D01*
Y76300D01*
X161796Y76296D01*
X149652Y76308D01*
X149460Y76770D01*
X166045Y93355D01*
X166366Y93834D01*
X166478Y94400D01*
Y96912D01*
X166952Y97073D01*
X167005Y97004D01*
X167882Y96331D01*
X168904Y95908D01*
X170000Y95764D01*
X171096Y95908D01*
X172118Y96331D01*
X172995Y97004D01*
X173669Y97882D01*
X174092Y98904D01*
X174236Y100000D01*
X174092Y101096D01*
X173669Y102118D01*
X172995Y102996D01*
X172118Y103669D01*
X171096Y104092D01*
X170000Y104236D01*
X168904Y104092D01*
X167882Y103669D01*
X167005Y102996D01*
X166952Y102927D01*
X166478Y103088D01*
Y103600D01*
X166366Y104166D01*
X166045Y104645D01*
X163845Y106845D01*
X163366Y107166D01*
X162800Y107278D01*
X135800D01*
X135234Y107166D01*
X134755Y106845D01*
X131736Y103827D01*
X131096Y104092D01*
X130000Y104236D01*
X128904Y104092D01*
X127882Y103669D01*
X127005Y102996D01*
X126331Y102118D01*
X125908Y101096D01*
X125764Y100000D01*
X125908Y98904D01*
X126331Y97882D01*
X127005Y97004D01*
X127882Y96331D01*
X128904Y95908D01*
X130000Y95764D01*
X131096Y95908D01*
X132118Y96331D01*
X132995Y97004D01*
X133669Y97882D01*
X134092Y98904D01*
X134236Y100000D01*
X134092Y101096D01*
X133827Y101736D01*
X136412Y104322D01*
X148152D01*
X148251Y103822D01*
X147882Y103669D01*
X147004Y102996D01*
X146331Y102118D01*
X145908Y101096D01*
X145764Y100000D01*
X145908Y98904D01*
X146331Y97882D01*
X147004Y97004D01*
X147882Y96331D01*
X148522Y96066D01*
Y94812D01*
X137588Y83878D01*
X134900D01*
Y84900D01*
X134078D01*
Y85800D01*
X133966Y86366D01*
X133645Y86845D01*
X133100Y87391D01*
Y91900D01*
X128100D01*
Y87300D01*
X129221D01*
X129234Y87234D01*
X129555Y86755D01*
X130909Y85400D01*
X130702Y84900D01*
X130300D01*
Y79900D01*
X134900D01*
Y80922D01*
X138200D01*
X138766Y81034D01*
X139245Y81355D01*
X151045Y93155D01*
X151366Y93634D01*
X151478Y94200D01*
Y96066D01*
X152118Y96331D01*
X152996Y97004D01*
X153669Y97882D01*
X154092Y98904D01*
X154236Y100000D01*
X154092Y101096D01*
X153669Y102118D01*
X152996Y102996D01*
X152118Y103669D01*
X151749Y103822D01*
X151848Y104322D01*
X158151D01*
X158251Y103822D01*
X157882Y103669D01*
X157004Y102996D01*
X156331Y102118D01*
X155908Y101096D01*
X155764Y100000D01*
X155908Y98904D01*
X156331Y97882D01*
X157004Y97004D01*
X157741Y96439D01*
X157866Y95857D01*
X142255Y80245D01*
X141934Y79766D01*
X141822Y79200D01*
Y62348D01*
X139967Y60492D01*
X139393Y60626D01*
X139126Y61026D01*
X138563Y61401D01*
X137900Y61533D01*
X137237Y61401D01*
X136674Y61026D01*
X136299Y60463D01*
X136167Y59800D01*
X136260Y59328D01*
X135949Y58828D01*
X134900D01*
Y60300D01*
X130300D01*
Y55300D01*
X130402D01*
X130609Y54800D01*
X129255Y53445D01*
X128934Y52966D01*
X128901Y52800D01*
X127800D01*
Y48200D01*
X132800D01*
Y52800D01*
X132800Y52800D01*
X132800D01*
X133130Y53139D01*
X133545Y53555D01*
X133866Y54034D01*
X133978Y54600D01*
Y55300D01*
X134900D01*
Y55872D01*
X138915D01*
X139481Y55984D01*
X139960Y56305D01*
X140133Y56478D01*
X140266Y56438D01*
X140639Y56276D01*
X140974Y55774D01*
X141537Y55399D01*
X142200Y55267D01*
X142863Y55399D01*
X143426Y55774D01*
X143801Y56337D01*
X143933Y57000D01*
X143801Y57663D01*
X143426Y58226D01*
X142924Y58561D01*
X142762Y58934D01*
X142722Y59067D01*
X144345Y60690D01*
X144666Y61169D01*
X144778Y61735D01*
Y78588D01*
X161045Y94855D01*
X161366Y95334D01*
X161478Y95900D01*
Y96066D01*
X162118Y96331D01*
X162996Y97004D01*
X163048Y97073D01*
X163522Y96912D01*
Y95012D01*
X145755Y77245D01*
X145434Y76766D01*
X145322Y76200D01*
Y48700D01*
X145434Y48134D01*
X145755Y47655D01*
X147955Y45455D01*
X148434Y45134D01*
X149000Y45022D01*
X151888D01*
X153351Y43558D01*
X153318Y43361D01*
X152777Y43163D01*
X152118Y43669D01*
X151096Y44092D01*
X150000Y44236D01*
X148904Y44092D01*
X147882Y43669D01*
X147004Y42996D01*
X146331Y42118D01*
X145908Y41096D01*
X145764Y40000D01*
X145908Y38904D01*
X146331Y37882D01*
X147004Y37005D01*
X147882Y36331D01*
X148904Y35908D01*
X150000Y35764D01*
X151096Y35908D01*
X152118Y36331D01*
X152996Y37005D01*
X153071Y37103D01*
X153542Y36896D01*
X153634Y36434D01*
X153955Y35955D01*
X157655Y32255D01*
X158134Y31934D01*
X158700Y31822D01*
X160788D01*
X162822Y29788D01*
Y28626D01*
X162322Y28526D01*
X162191Y28842D01*
X161605Y29605D01*
X160842Y30191D01*
X159954Y30559D01*
X159000Y30684D01*
X158046Y30559D01*
X157158Y30191D01*
X156395Y29605D01*
X155809Y28842D01*
X155441Y27954D01*
X155316Y27000D01*
X155441Y26046D01*
X155809Y25158D01*
X156395Y24395D01*
X157158Y23809D01*
X158046Y23441D01*
X159000Y23316D01*
X159954Y23441D01*
X160842Y23809D01*
X161605Y24395D01*
X162191Y25158D01*
X162322Y25474D01*
X162822Y25374D01*
Y21083D01*
X162653Y20653D01*
X155347D01*
Y14597D01*
X154885Y14405D01*
X153378Y15912D01*
Y27000D01*
X153266Y27566D01*
X152945Y28045D01*
X146545Y34445D01*
X146066Y34766D01*
X145500Y34878D01*
X133712D01*
X132466Y36125D01*
X132499Y36623D01*
X132995Y37005D01*
X133669Y37882D01*
X134092Y38904D01*
X134236Y40000D01*
X134092Y41096D01*
X133669Y42118D01*
X132995Y42996D01*
X132118Y43669D01*
X131096Y44092D01*
X130000Y44236D01*
X128904Y44092D01*
X127882Y43669D01*
X127005Y42996D01*
X126331Y42118D01*
X125908Y41096D01*
X125764Y40000D01*
X125908Y38904D01*
X126331Y37882D01*
X127005Y37005D01*
X127882Y36331D01*
X128616Y36027D01*
X128634Y35934D01*
X128955Y35455D01*
X131369Y33040D01*
X131177Y32578D01*
X124712D01*
X121681Y35609D01*
X121775Y36189D01*
X122118Y36331D01*
X122995Y37005D01*
X123669Y37882D01*
X124092Y38904D01*
X124236Y40000D01*
X124092Y41096D01*
X123669Y42118D01*
X122995Y42996D01*
X122118Y43669D01*
X121096Y44092D01*
X120000Y44236D01*
X118904Y44092D01*
X117882Y43669D01*
X117005Y42996D01*
X116331Y42118D01*
X115908Y41096D01*
X115764Y40000D01*
X115908Y38904D01*
X116331Y37882D01*
X117005Y37005D01*
X117882Y36331D01*
X118522Y36066D01*
Y35200D01*
X118634Y34634D01*
X118955Y34155D01*
X123055Y30055D01*
X123318Y29878D01*
X123167Y29378D01*
X117812D01*
X111586Y35604D01*
X111655Y36139D01*
X112118Y36331D01*
X112996Y37005D01*
X113669Y37882D01*
X114092Y38904D01*
X114236Y40000D01*
X114092Y41096D01*
X113669Y42118D01*
X112996Y42996D01*
X112118Y43669D01*
X111096Y44092D01*
X110000Y44236D01*
X109348Y44151D01*
X109115Y44624D01*
X111645Y47155D01*
X111966Y47634D01*
X112078Y48200D01*
X113200D01*
Y52800D01*
X112078D01*
Y55200D01*
X112600D01*
Y64600D01*
X110277D01*
X110009Y65100D01*
X110166Y65334D01*
X110278Y65900D01*
Y70088D01*
X115891Y75700D01*
X117600D01*
Y85100D01*
X117078D01*
Y85400D01*
X116966Y85966D01*
X116645Y86445D01*
X116249Y86842D01*
X116439Y87305D01*
X118253Y87310D01*
X118606Y86957D01*
X118605Y85100D01*
X118600D01*
Y80209D01*
X118593Y73000D01*
X127400D01*
X127400Y75700D01*
X127600D01*
Y85100D01*
X127400D01*
X127400Y91700D01*
X127100D01*
Y91900D01*
X122100D01*
Y91700D01*
X119400D01*
Y92000D01*
X114400D01*
Y87778D01*
X113400D01*
Y92000D01*
X108400D01*
Y87400D01*
X109461D01*
X109534Y87034D01*
X109855Y86555D01*
X110809Y85600D01*
X110602Y85100D01*
X108600D01*
Y83228D01*
X102000D01*
X101165Y83118D01*
X100386Y82795D01*
X99718Y82282D01*
X89718Y72282D01*
X89205Y71614D01*
X88882Y70835D01*
X88772Y70000D01*
Y52755D01*
X88723Y52722D01*
X88223Y52989D01*
Y56000D01*
X88130Y56705D01*
X87858Y57362D01*
X87500Y57829D01*
Y60700D01*
X87282D01*
X87077Y61200D01*
X87101Y61237D01*
X87233Y61900D01*
X87101Y62563D01*
X86726Y63126D01*
X86163Y63501D01*
X85500Y63633D01*
X84837Y63501D01*
X84274Y63126D01*
X83899Y62563D01*
X83767Y61900D01*
X83899Y61237D01*
X83923Y61200D01*
X83718Y60700D01*
X83500D01*
Y57829D01*
X83141Y57362D01*
X83000Y57020D01*
X82500Y57119D01*
Y60700D01*
X82500D01*
X82405Y60796D01*
X82407Y63400D01*
X81910D01*
X81826Y63526D01*
X81263Y63901D01*
X80600Y64033D01*
X79937Y63901D01*
X79374Y63526D01*
X79290Y63400D01*
X68700Y63400D01*
Y60700D01*
X68500D01*
Y57478D01*
X67747D01*
X67563Y57601D01*
X66900Y57733D01*
X66237Y57601D01*
X65674Y57226D01*
X65299Y56663D01*
X65167Y56000D01*
X65299Y55337D01*
X65674Y54774D01*
X66237Y54399D01*
X66900Y54267D01*
X67563Y54399D01*
X67747Y54522D01*
X68500D01*
Y51300D01*
X68030Y51228D01*
X51323D01*
Y55800D01*
X51231Y56505D01*
X50958Y57162D01*
X50600Y57629D01*
Y60500D01*
X50382D01*
X50177Y61000D01*
X50201Y61037D01*
X50333Y61700D01*
X50201Y62363D01*
X49826Y62926D01*
X49263Y63301D01*
X48600Y63433D01*
X47937Y63301D01*
X47374Y62926D01*
X46999Y62363D01*
X46867Y61700D01*
X46999Y61037D01*
X47023Y61000D01*
X46818Y60500D01*
X46600D01*
Y57629D01*
X46242Y57162D01*
X46100Y56820D01*
X45600Y56919D01*
Y60500D01*
X45600D01*
X45505Y60596D01*
X45507Y63200D01*
X45010D01*
X44926Y63326D01*
X44363Y63701D01*
X43700Y63833D01*
X43037Y63701D01*
X42474Y63326D01*
X42390Y63200D01*
X31800Y63200D01*
Y60500D01*
X31600D01*
Y57278D01*
X30847D01*
X30663Y57401D01*
X30000Y57533D01*
X29337Y57401D01*
X28774Y57026D01*
X28399Y56463D01*
X28267Y55800D01*
X28399Y55137D01*
X28774Y54574D01*
X29337Y54199D01*
X30000Y54067D01*
X30663Y54199D01*
X30847Y54322D01*
X31600D01*
Y51228D01*
X21228D01*
Y67000D01*
Y69663D01*
X28282Y76718D01*
X28795Y77386D01*
X29118Y78165D01*
X29228Y79000D01*
Y90000D01*
X29118Y90835D01*
X28795Y91614D01*
X28282Y92282D01*
X25282Y95282D01*
X24614Y95795D01*
X23835Y96118D01*
X23000Y96228D01*
X22804D01*
X22635Y96728D01*
X22996Y97004D01*
X23669Y97882D01*
X24092Y98904D01*
X24236Y100000D01*
X24092Y101096D01*
X23669Y102118D01*
X22996Y102996D01*
X22118Y103669D01*
X21096Y104092D01*
X20000Y104236D01*
X18904Y104092D01*
X17882Y103669D01*
X17005Y102996D01*
X16331Y102118D01*
X15908Y101096D01*
X15764Y100000D01*
X15908Y98904D01*
X16331Y97882D01*
X17005Y97004D01*
X17365Y96728D01*
X17196Y96228D01*
X4200D01*
Y104200D01*
X3228D01*
Y106772D01*
X7307D01*
X7882Y106331D01*
X8904Y105908D01*
X10000Y105764D01*
X11096Y105908D01*
X12118Y106331D01*
X12693Y106772D01*
X17307D01*
X17882Y106331D01*
X18904Y105908D01*
X20000Y105764D01*
X21096Y105908D01*
X22118Y106331D01*
X22693Y106772D01*
X27307D01*
X27882Y106331D01*
X28904Y105908D01*
X30000Y105764D01*
X31096Y105908D01*
X32118Y106331D01*
X32693Y106772D01*
X37307D01*
X37882Y106331D01*
X38904Y105908D01*
X40000Y105764D01*
X41096Y105908D01*
X42118Y106331D01*
X42774Y106835D01*
X43135Y106882D01*
X43914Y107205D01*
X44582Y107718D01*
X53837Y116972D01*
X161563D01*
X170818Y107718D01*
X171486Y107205D01*
X172265Y106882D01*
X173100Y106772D01*
X177307D01*
X177882Y106331D01*
X178904Y105908D01*
X180000Y105764D01*
X181096Y105908D01*
X182118Y106331D01*
X182386Y106537D01*
X182886Y106290D01*
Y103645D01*
X182438Y103423D01*
X182118Y103669D01*
X181096Y104092D01*
X180000Y104236D01*
X178904Y104092D01*
X177882Y103669D01*
X177005Y102996D01*
X176331Y102118D01*
X175908Y101096D01*
X175764Y100000D01*
X175908Y98904D01*
X176331Y97882D01*
X177005Y97004D01*
X177882Y96331D01*
X178904Y95908D01*
X180000Y95764D01*
X181096Y95908D01*
X182118Y96331D01*
X182438Y96577D01*
X182886Y96355D01*
Y90800D01*
X182941Y90527D01*
X183095Y90295D01*
X187795Y85595D01*
X188027Y85441D01*
X188300Y85386D01*
X191358D01*
X191393Y85393D01*
X191428Y85390D01*
X191528Y85420D01*
X191631Y85441D01*
X191660Y85460D01*
X191694Y85471D01*
X191775Y85537D01*
X191862Y85595D01*
X191882Y85625D01*
X191882Y85625D01*
X194118D01*
X194118Y85625D01*
X194138Y85595D01*
X194225Y85537D01*
X194306Y85471D01*
X194340Y85460D01*
X194369Y85441D01*
X194472Y85420D01*
X194572Y85390D01*
X194607Y85393D01*
X194642Y85386D01*
X199772D01*
Y81100D01*
X199882Y80265D01*
X200205Y79486D01*
X200718Y78818D01*
X201386Y78305D01*
X202165Y77982D01*
X202221Y77975D01*
X202188Y77475D01*
X201363D01*
Y72225D01*
X204164D01*
X204386Y72055D01*
X205165Y71732D01*
X206000Y71622D01*
X217227D01*
X217534Y71495D01*
X218500Y71368D01*
X219466Y71495D01*
X220366Y71868D01*
X221139Y72461D01*
X221732Y73234D01*
X222105Y74134D01*
X222232Y75100D01*
X222105Y76066D01*
X221732Y76966D01*
X221139Y77739D01*
X220366Y78332D01*
X219466Y78705D01*
X218500Y78832D01*
X217534Y78705D01*
X216634Y78332D01*
X216303Y78078D01*
X210885D01*
X210637Y78475D01*
Y83725D01*
X207836D01*
X207614Y83895D01*
X206835Y84218D01*
X206228Y84298D01*
Y89000D01*
Y91753D01*
X212216Y91887D01*
X212305Y91906D01*
X212396Y91914D01*
X212439Y91936D01*
X212488Y91947D01*
X212562Y91999D01*
X212643Y92041D01*
X212953Y92286D01*
X224200D01*
X224473Y92341D01*
X224705Y92495D01*
X227405Y95195D01*
X227559Y95427D01*
X227614Y95700D01*
Y95946D01*
X228114Y96235D01*
X228904Y95908D01*
X230000Y95764D01*
X231096Y95908D01*
X232118Y96331D01*
X232996Y97004D01*
X233669Y97882D01*
X234092Y98904D01*
X234236Y100000D01*
X234092Y101096D01*
X233669Y102118D01*
X232996Y102996D01*
X232118Y103669D01*
X231096Y104092D01*
X230000Y104236D01*
X228904Y104092D01*
X228114Y103765D01*
X227614Y104054D01*
Y111900D01*
X227559Y112173D01*
X227405Y112405D01*
X226805Y113005D01*
X226573Y113159D01*
X226300Y113214D01*
X222745D01*
X222718Y113208D01*
X222118Y113669D01*
X221096Y114092D01*
X220000Y114236D01*
X218904Y114092D01*
X217882Y113669D01*
X217307Y113228D01*
X212693D01*
X212118Y113669D01*
X211096Y114092D01*
X210000Y114236D01*
X208904Y114092D01*
X207882Y113669D01*
X207307Y113228D01*
X202693D01*
X202118Y113669D01*
X201096Y114092D01*
X200000Y114236D01*
X198904Y114092D01*
X197882Y113669D01*
X197307Y113228D01*
X192693D01*
X192118Y113669D01*
X191096Y114092D01*
X190000Y114236D01*
X188904Y114092D01*
X187882Y113669D01*
X187307Y113228D01*
X182693D01*
X182118Y113669D01*
X181096Y114092D01*
X180000Y114236D01*
X178904Y114092D01*
X177882Y113669D01*
X177307Y113228D01*
X174437D01*
X165182Y122482D01*
X164514Y122995D01*
X163735Y123318D01*
X162900Y123428D01*
D02*
G37*
G36*
X120000Y104236D02*
X118904Y104092D01*
X117882Y103669D01*
X117005Y102996D01*
X116331Y102118D01*
X115908Y101096D01*
X115764Y100000D01*
X115908Y98904D01*
X116331Y97882D01*
X117005Y97004D01*
X117882Y96331D01*
X118904Y95908D01*
X120000Y95764D01*
X121096Y95908D01*
X122118Y96331D01*
X122995Y97004D01*
X123669Y97882D01*
X124092Y98904D01*
X124236Y100000D01*
X124092Y101096D01*
X123669Y102118D01*
X122995Y102996D01*
X122118Y103669D01*
X121096Y104092D01*
X120000Y104236D01*
D02*
G37*
G36*
X220000Y124236D02*
X218904Y124092D01*
X217882Y123669D01*
X217307Y123228D01*
X212693D01*
X212118Y123669D01*
X211096Y124092D01*
X210000Y124236D01*
X208904Y124092D01*
X207882Y123669D01*
X207307Y123228D01*
X202693D01*
X202118Y123669D01*
X201096Y124092D01*
X200000Y124236D01*
X198904Y124092D01*
X197882Y123669D01*
X197307Y123228D01*
X192693D01*
X192118Y123669D01*
X191096Y124092D01*
X190000Y124236D01*
X188904Y124092D01*
X187882Y123669D01*
X187307Y123228D01*
X184200D01*
Y124200D01*
X175800D01*
Y115800D01*
X184200D01*
Y116772D01*
X187307D01*
X187882Y116331D01*
X188904Y115908D01*
X190000Y115764D01*
X191096Y115908D01*
X192118Y116331D01*
X192693Y116772D01*
X197307D01*
X197882Y116331D01*
X198904Y115908D01*
X200000Y115764D01*
X201096Y115908D01*
X202118Y116331D01*
X202693Y116772D01*
X207307D01*
X207882Y116331D01*
X208904Y115908D01*
X210000Y115764D01*
X211096Y115908D01*
X212118Y116331D01*
X212693Y116772D01*
X217307D01*
X217882Y116331D01*
X218904Y115908D01*
X220000Y115764D01*
X221096Y115908D01*
X222118Y116331D01*
X222995Y117005D01*
X223669Y117882D01*
X224092Y118904D01*
X224236Y120000D01*
X224092Y121096D01*
X223669Y122118D01*
X222995Y122995D01*
X222118Y123669D01*
X221096Y124092D01*
X220000Y124236D01*
D02*
G37*
G36*
X40000D02*
X38904Y124092D01*
X37882Y123669D01*
X37307Y123228D01*
X32693D01*
X32118Y123669D01*
X31096Y124092D01*
X30000Y124236D01*
X28904Y124092D01*
X27882Y123669D01*
X27307Y123228D01*
X22693D01*
X22118Y123669D01*
X21096Y124092D01*
X20000Y124236D01*
X18904Y124092D01*
X17882Y123669D01*
X17307Y123228D01*
X12693D01*
X12118Y123669D01*
X11096Y124092D01*
X10000Y124236D01*
X8904Y124092D01*
X7882Y123669D01*
X7307Y123228D01*
X4200D01*
Y124200D01*
X-4200D01*
Y115800D01*
X4200D01*
Y116772D01*
X7307D01*
X7882Y116331D01*
X8904Y115908D01*
X10000Y115764D01*
X11096Y115908D01*
X12118Y116331D01*
X12693Y116772D01*
X17307D01*
X17882Y116331D01*
X18904Y115908D01*
X20000Y115764D01*
X21096Y115908D01*
X22118Y116331D01*
X22693Y116772D01*
X27307D01*
X27882Y116331D01*
X28904Y115908D01*
X30000Y115764D01*
X31096Y115908D01*
X32118Y116331D01*
X32693Y116772D01*
X37307D01*
X37882Y116331D01*
X38904Y115908D01*
X40000Y115764D01*
X41096Y115908D01*
X42118Y116331D01*
X42996Y117005D01*
X43669Y117882D01*
X44092Y118904D01*
X44236Y120000D01*
X44092Y121096D01*
X43669Y122118D01*
X42996Y122995D01*
X42118Y123669D01*
X41096Y124092D01*
X40000Y124236D01*
D02*
G37*
G36*
X90000Y104236D02*
X88904Y104092D01*
X87882Y103669D01*
X87005Y102996D01*
X86331Y102118D01*
X85908Y101096D01*
X85764Y100000D01*
X85908Y98904D01*
X86331Y97882D01*
X87005Y97004D01*
X87882Y96331D01*
X88904Y95908D01*
X90000Y95764D01*
X91096Y95908D01*
X92118Y96331D01*
X92996Y97004D01*
X93669Y97882D01*
X94092Y98904D01*
X94236Y100000D01*
X94092Y101096D01*
X93669Y102118D01*
X92996Y102996D01*
X92118Y103669D01*
X91096Y104092D01*
X90000Y104236D01*
D02*
G37*
G36*
X80000D02*
X78904Y104092D01*
X77882Y103669D01*
X77004Y102996D01*
X76331Y102118D01*
X75908Y101096D01*
X75764Y100000D01*
X75908Y98904D01*
X76331Y97882D01*
X77004Y97004D01*
X77882Y96331D01*
X78904Y95908D01*
X80000Y95764D01*
X81096Y95908D01*
X82118Y96331D01*
X82995Y97004D01*
X83669Y97882D01*
X84092Y98904D01*
X84236Y100000D01*
X84092Y101096D01*
X83669Y102118D01*
X82995Y102996D01*
X82118Y103669D01*
X81096Y104092D01*
X80000Y104236D01*
D02*
G37*
G36*
X110000D02*
X108904Y104092D01*
X107882Y103669D01*
X107004Y102996D01*
X106331Y102118D01*
X105908Y101096D01*
X105764Y100000D01*
X105908Y98904D01*
X106331Y97882D01*
X107004Y97004D01*
X107882Y96331D01*
X108904Y95908D01*
X110000Y95764D01*
X111096Y95908D01*
X112118Y96331D01*
X112996Y97004D01*
X113669Y97882D01*
X114092Y98904D01*
X114236Y100000D01*
X114092Y101096D01*
X113669Y102118D01*
X112996Y102996D01*
X112118Y103669D01*
X111096Y104092D01*
X110000Y104236D01*
D02*
G37*
G36*
X100000D02*
X98904Y104092D01*
X97882Y103669D01*
X97004Y102996D01*
X96331Y102118D01*
X95908Y101096D01*
X95764Y100000D01*
X95908Y98904D01*
X96331Y97882D01*
X97004Y97004D01*
X97882Y96331D01*
X98904Y95908D01*
X100000Y95764D01*
X101096Y95908D01*
X102118Y96331D01*
X102996Y97004D01*
X103669Y97882D01*
X104092Y98904D01*
X104236Y100000D01*
X104092Y101096D01*
X103669Y102118D01*
X102996Y102996D01*
X102118Y103669D01*
X101096Y104092D01*
X100000Y104236D01*
D02*
G37*
G36*
X99200Y64533D02*
X98537Y64401D01*
X97974Y64026D01*
X97599Y63463D01*
X97467Y62800D01*
X97599Y62137D01*
X97974Y61574D01*
X98537Y61199D01*
X99200Y61067D01*
X99863Y61199D01*
X100426Y61574D01*
X100801Y62137D01*
X100933Y62800D01*
X100801Y63463D01*
X100426Y64026D01*
X99863Y64401D01*
X99200Y64533D01*
D02*
G37*
G36*
X45600Y87800D02*
X40600D01*
Y87400D01*
X36800D01*
Y86243D01*
X36774Y86226D01*
X36399Y85663D01*
X36267Y85000D01*
X36399Y84337D01*
X36774Y83774D01*
X36800Y83757D01*
Y81000D01*
X36600D01*
Y71600D01*
X36800D01*
Y65000D01*
X42457Y65000D01*
X42474Y64974D01*
X43037Y64599D01*
X43700Y64467D01*
X44363Y64599D01*
X44926Y64974D01*
X44943Y65000D01*
X45479D01*
X45485Y71600D01*
X45600D01*
Y81000D01*
X45600D01*
X45494Y81106D01*
X45496Y83200D01*
X45600D01*
Y87800D01*
D02*
G37*
G36*
X8500Y88000D02*
X3500D01*
Y87600D01*
X-300D01*
Y86443D01*
X-326Y86426D01*
X-701Y85863D01*
X-833Y85200D01*
X-701Y84537D01*
X-326Y83974D01*
X-300Y83957D01*
Y81200D01*
X-500D01*
Y71800D01*
X-300D01*
Y65200D01*
X5935Y65200D01*
X5937Y65199D01*
X6600Y65067D01*
X7263Y65199D01*
X7265Y65200D01*
X8379D01*
X8385Y71800D01*
X8500D01*
Y81200D01*
X8500D01*
X8394Y81306D01*
X8396Y83400D01*
X8500D01*
Y88000D01*
D02*
G37*
G36*
X25200Y64533D02*
X24537Y64401D01*
X23974Y64026D01*
X23599Y63463D01*
X23467Y62800D01*
X23599Y62137D01*
X23974Y61574D01*
X24537Y61199D01*
X25200Y61067D01*
X25863Y61199D01*
X26426Y61574D01*
X26801Y62137D01*
X26933Y62800D01*
X26801Y63463D01*
X26426Y64026D01*
X25863Y64401D01*
X25200Y64533D01*
D02*
G37*
G36*
X230000Y44236D02*
X228904Y44092D01*
X227882Y43669D01*
X227005Y42996D01*
X226331Y42118D01*
X225908Y41096D01*
X225764Y40000D01*
X225908Y38904D01*
X226331Y37882D01*
X227005Y37005D01*
X227882Y36331D01*
X228904Y35908D01*
X230000Y35764D01*
X231096Y35908D01*
X232118Y36331D01*
X232996Y37005D01*
X233669Y37882D01*
X234092Y38904D01*
X234236Y40000D01*
X234092Y41096D01*
X233669Y42118D01*
X232996Y42996D01*
X232118Y43669D01*
X231096Y44092D01*
X230000Y44236D01*
D02*
G37*
G36*
X131700Y72333D02*
X131037Y72201D01*
X130853Y72078D01*
X129300D01*
X128734Y71966D01*
X128255Y71645D01*
X124555Y67945D01*
X124234Y67466D01*
X124122Y66900D01*
Y64600D01*
X123600D01*
Y55300D01*
X122600D01*
Y64600D01*
X122400D01*
Y67786D01*
X122463Y67799D01*
X123026Y68174D01*
X123401Y68737D01*
X123533Y69400D01*
X123401Y70063D01*
X123026Y70626D01*
X122463Y71001D01*
X122400Y71014D01*
Y71200D01*
X113721Y71200D01*
X113715Y64600D01*
X113600D01*
Y55200D01*
X113700D01*
Y48100D01*
X113800Y48200D01*
X126800D01*
Y52800D01*
Y55200D01*
X127600D01*
Y64600D01*
X127078D01*
Y66288D01*
X129912Y69122D01*
X130853D01*
X131037Y68999D01*
X131700Y68867D01*
X132363Y68999D01*
X132926Y69374D01*
X133301Y69937D01*
X133433Y70600D01*
X133301Y71263D01*
X132926Y71826D01*
X132363Y72201D01*
X131700Y72333D01*
D02*
G37*
G36*
X62300Y64333D02*
X61637Y64201D01*
X61074Y63826D01*
X60699Y63263D01*
X60567Y62600D01*
X60699Y61937D01*
X61074Y61374D01*
X61637Y60999D01*
X62300Y60867D01*
X62963Y60999D01*
X63526Y61374D01*
X63901Y61937D01*
X64033Y62600D01*
X63901Y63263D01*
X63526Y63826D01*
X62963Y64201D01*
X62300Y64333D01*
D02*
G37*
G36*
X82500Y88000D02*
X77500D01*
Y87600D01*
X73700D01*
Y86443D01*
X73674Y86426D01*
X73299Y85863D01*
X73167Y85200D01*
X73299Y84537D01*
X73674Y83974D01*
X73700Y83957D01*
Y81200D01*
X73500D01*
Y71800D01*
X73700D01*
Y65200D01*
X79357Y65200D01*
X79374Y65174D01*
X79937Y64799D01*
X80600Y64667D01*
X81263Y64799D01*
X81826Y65174D01*
X81843Y65200D01*
X82379D01*
X82385Y71800D01*
X82500D01*
Y81200D01*
X82500D01*
X82394Y81306D01*
X82396Y83400D01*
X82500D01*
Y88000D01*
D02*
G37*
G36*
X72500Y81200D02*
X68500D01*
Y71800D01*
X69022D01*
Y69347D01*
X68899Y69163D01*
X68767Y68500D01*
X68899Y67837D01*
X69274Y67274D01*
X69837Y66899D01*
X70500Y66767D01*
X71163Y66899D01*
X71726Y67274D01*
X72101Y67837D01*
X72233Y68500D01*
X72101Y69163D01*
X71978Y69347D01*
Y71800D01*
X72500D01*
Y81200D01*
D02*
G37*
G36*
X-1500D02*
X-5500D01*
Y71800D01*
X-4978D01*
Y69347D01*
X-5101Y69163D01*
X-5233Y68500D01*
X-5101Y67837D01*
X-4726Y67274D01*
X-4163Y66899D01*
X-3500Y66767D01*
X-2837Y66899D01*
X-2274Y67274D01*
X-1899Y67837D01*
X-1767Y68500D01*
X-1899Y69163D01*
X-2022Y69347D01*
Y71800D01*
X-1500D01*
Y81200D01*
D02*
G37*
G36*
X51600Y87800D02*
X46600D01*
Y83200D01*
X47622D01*
Y81000D01*
X46600D01*
Y71600D01*
X46818D01*
X47023Y71100D01*
X46999Y71063D01*
X46867Y70400D01*
X46999Y69737D01*
X47374Y69174D01*
X47937Y68799D01*
X48600Y68667D01*
X49263Y68799D01*
X49826Y69174D01*
X50201Y69737D01*
X50333Y70400D01*
X50201Y71063D01*
X50177Y71100D01*
X50382Y71600D01*
X50600D01*
Y81000D01*
X50578D01*
Y83200D01*
X51600D01*
Y87800D01*
D02*
G37*
G36*
X218500Y68832D02*
X217534Y68705D01*
X216634Y68332D01*
X216628Y68328D01*
X210900D01*
X210065Y68218D01*
X209286Y67895D01*
X208618Y67382D01*
X207563Y66328D01*
X196300D01*
Y66375D01*
X189700D01*
Y61125D01*
X190482D01*
X190718Y60818D01*
X191386Y60305D01*
X192165Y59982D01*
X193000Y59872D01*
X208900D01*
X209735Y59982D01*
X210514Y60305D01*
X210898Y60600D01*
X211200D01*
Y60835D01*
X212237Y61872D01*
X216628D01*
X216634Y61868D01*
X217534Y61495D01*
X218500Y61368D01*
X219466Y61495D01*
X220366Y61868D01*
X221139Y62461D01*
X221732Y63234D01*
X222105Y64134D01*
X222232Y65100D01*
X222105Y66066D01*
X221732Y66966D01*
X221139Y67739D01*
X220366Y68332D01*
X219466Y68705D01*
X218500Y68832D01*
D02*
G37*
G36*
X35600Y81000D02*
X31600D01*
Y71600D01*
X32122D01*
Y69147D01*
X31999Y68963D01*
X31867Y68300D01*
X31999Y67637D01*
X32374Y67074D01*
X32937Y66699D01*
X33600Y66567D01*
X34263Y66699D01*
X34826Y67074D01*
X35201Y67637D01*
X35333Y68300D01*
X35201Y68963D01*
X35078Y69147D01*
Y71600D01*
X35600D01*
Y81000D01*
D02*
G37*
%LPD*%
G36*
X226900Y111900D02*
Y102859D01*
X226331Y102118D01*
X225908Y101096D01*
X225764Y100000D01*
X225908Y98904D01*
X226331Y97882D01*
X226900Y97141D01*
Y95700D01*
X224200Y93000D01*
X212705D01*
X212200Y92600D01*
X199772Y92324D01*
Y89000D01*
Y86100D01*
X194642D01*
X194491Y86600D01*
X194586Y86664D01*
X195072Y87392D01*
X195243Y88250D01*
Y91200D01*
X190757D01*
Y88250D01*
X190928Y87392D01*
X191414Y86664D01*
X191509Y86600D01*
X191358Y86100D01*
X188300D01*
X183600Y90800D01*
Y97792D01*
X183669Y97882D01*
X184092Y98904D01*
X184236Y100000D01*
X184092Y101096D01*
X183669Y102118D01*
X183600Y102208D01*
Y106772D01*
X183900D01*
Y112500D01*
X215900D01*
Y106772D01*
X220000D01*
X220835Y106882D01*
X221614Y107205D01*
X222282Y107718D01*
X222795Y108386D01*
X223118Y109165D01*
X223228Y110000D01*
X223118Y110835D01*
X222795Y111614D01*
X222499Y112000D01*
X222745Y112500D01*
X226300D01*
X226900Y111900D01*
D02*
G37*
G36*
X20394Y45906D02*
X20310Y45413D01*
X15913Y43300D01*
Y41109D01*
X15908Y41096D01*
X15764Y40000D01*
X15908Y38904D01*
X15913Y38892D01*
Y35900D01*
X14496Y33800D01*
X13675D01*
Y32583D01*
X12000Y30100D01*
X7500Y30100D01*
X7200Y34100D01*
X4200Y35137D01*
Y44600D01*
X15400Y50900D01*
X20394Y45906D01*
D02*
G37*
G36*
X108600Y62956D02*
Y55200D01*
X109122D01*
Y52800D01*
X108200D01*
Y48200D01*
X108200Y48200D01*
X108200D01*
X108056Y47747D01*
X103955Y43645D01*
X103634Y43166D01*
X103605Y43022D01*
X103071Y42897D01*
X102996Y42996D01*
X102118Y43669D01*
X101096Y44092D01*
X100000Y44236D01*
X98904Y44092D01*
X97882Y43669D01*
X97096Y43066D01*
X96749Y43160D01*
X96582Y43267D01*
X96546Y43555D01*
X103645Y50655D01*
X103966Y51134D01*
X104078Y51700D01*
Y60588D01*
X105512Y62022D01*
X106400D01*
X106966Y62134D01*
X107445Y62455D01*
X108138Y63147D01*
X108600Y62956D01*
D02*
G37*
%LPC*%
G36*
X220000Y104236D02*
X218904Y104092D01*
X217882Y103669D01*
X217004Y102996D01*
X216331Y102118D01*
X215908Y101096D01*
X215764Y100000D01*
X215908Y98904D01*
X216331Y97882D01*
X217004Y97004D01*
X217882Y96331D01*
X218904Y95908D01*
X220000Y95764D01*
X221096Y95908D01*
X222118Y96331D01*
X222995Y97004D01*
X223669Y97882D01*
X224092Y98904D01*
X224236Y100000D01*
X224092Y101096D01*
X223669Y102118D01*
X222995Y102996D01*
X222118Y103669D01*
X221096Y104092D01*
X220000Y104236D01*
D02*
G37*
G36*
X190000D02*
X188904Y104092D01*
X187882Y103669D01*
X187004Y102996D01*
X186331Y102118D01*
X185908Y101096D01*
X185764Y100000D01*
X185908Y98904D01*
X186331Y97882D01*
X187004Y97004D01*
X187882Y96331D01*
X188904Y95908D01*
X190000Y95764D01*
X191096Y95908D01*
X192118Y96331D01*
X192996Y97004D01*
X193669Y97882D01*
X194092Y98904D01*
X194236Y100000D01*
X194092Y101096D01*
X193669Y102118D01*
X192996Y102996D01*
X192118Y103669D01*
X191096Y104092D01*
X190000Y104236D01*
D02*
G37*
G36*
X210000D02*
X208904Y104092D01*
X207882Y103669D01*
X207004Y102996D01*
X206331Y102118D01*
X205908Y101096D01*
X205764Y100000D01*
X205908Y98904D01*
X206331Y97882D01*
X207004Y97004D01*
X207882Y96331D01*
X208904Y95908D01*
X210000Y95764D01*
X211096Y95908D01*
X212118Y96331D01*
X212996Y97004D01*
X213669Y97882D01*
X214092Y98904D01*
X214236Y100000D01*
X214092Y101096D01*
X213669Y102118D01*
X212996Y102996D01*
X212118Y103669D01*
X211096Y104092D01*
X210000Y104236D01*
D02*
G37*
G36*
X200000D02*
X198904Y104092D01*
X197882Y103669D01*
X197004Y102996D01*
X196331Y102118D01*
X195908Y101096D01*
X195764Y100000D01*
X195908Y98904D01*
X196331Y97882D01*
X197004Y97004D01*
X197882Y96331D01*
X198904Y95908D01*
X200000Y95764D01*
X201096Y95908D01*
X202118Y96331D01*
X202995Y97004D01*
X202997Y97007D01*
D01*
X203669Y97882D01*
X204092Y98904D01*
X204236Y100000D01*
X204092Y101096D01*
X203669Y102118D01*
X202995Y102996D01*
X202118Y103669D01*
X201096Y104092D01*
X200000Y104236D01*
D02*
G37*
G36*
X10000Y44236D02*
X8904Y44092D01*
X7882Y43669D01*
X7005Y42996D01*
X6331Y42118D01*
X5908Y41096D01*
X5764Y40000D01*
X5908Y38904D01*
X6331Y37882D01*
X7005Y37005D01*
X7882Y36331D01*
X8904Y35908D01*
X10000Y35764D01*
X11096Y35908D01*
X12118Y36331D01*
X12995Y37005D01*
X13669Y37882D01*
X14092Y38904D01*
X14236Y40000D01*
X14092Y41096D01*
X13669Y42118D01*
X12995Y42996D01*
X12118Y43669D01*
X11096Y44092D01*
X10000Y44236D01*
D02*
G37*
%LPD*%
D10*
X193000Y70000D02*
D03*
Y63750D02*
D03*
Y88250D02*
D03*
Y82000D02*
D03*
X178100Y84650D02*
D03*
Y78400D02*
D03*
D11*
X6000Y85700D02*
D03*
X12000D02*
D03*
X80000D02*
D03*
X86000D02*
D03*
X43100Y85500D02*
D03*
X49100D02*
D03*
X130300Y50500D02*
D03*
X124300D02*
D03*
X130600Y89600D02*
D03*
X124600D02*
D03*
X116700Y50500D02*
D03*
X110700D02*
D03*
X203000Y89000D02*
D03*
X209000D02*
D03*
X116900Y89700D02*
D03*
X110900D02*
D03*
D12*
X11500Y56000D02*
D03*
X-3500Y76500D02*
D03*
X6500D02*
D03*
X11500D02*
D03*
X6500Y56000D02*
D03*
X1500D02*
D03*
X-3500D02*
D03*
X1500Y76500D02*
D03*
X85500Y56000D02*
D03*
X70500Y76500D02*
D03*
X80500D02*
D03*
X85500D02*
D03*
X80500Y56000D02*
D03*
X75500D02*
D03*
X70500D02*
D03*
X75500Y76500D02*
D03*
X48600Y55800D02*
D03*
X33600Y76300D02*
D03*
X43600D02*
D03*
X48600D02*
D03*
X43600Y55800D02*
D03*
X38600D02*
D03*
X33600D02*
D03*
X38600Y76300D02*
D03*
X110600Y80400D02*
D03*
X125600Y59900D02*
D03*
X115600D02*
D03*
X110600D02*
D03*
X115600Y80400D02*
D03*
X120600D02*
D03*
X125600D02*
D03*
X120600Y59900D02*
D03*
D13*
X132600Y63800D02*
D03*
Y57800D02*
D03*
Y76400D02*
D03*
Y82400D02*
D03*
X208900Y57100D02*
D03*
Y63100D02*
D03*
D14*
X206000Y81100D02*
D03*
Y74850D02*
D03*
D15*
X173900Y67000D02*
D03*
X153400Y52000D02*
D03*
Y62000D02*
D03*
Y67000D02*
D03*
X173900Y62000D02*
D03*
Y57000D02*
D03*
Y52000D02*
D03*
X153400Y57000D02*
D03*
D16*
X168100Y81100D02*
D03*
X160600D02*
D03*
D17*
X164300Y73100D02*
D03*
D18*
X16300Y30500D02*
D03*
X10050D02*
D03*
X41550Y30600D02*
D03*
X35300D02*
D03*
D19*
X193000Y63100D02*
X208900D01*
X203000Y81100D02*
Y89000D01*
X11500Y61900D02*
X12900D01*
X10000Y13000D02*
Y33000D01*
X89000Y48000D02*
X92000Y51000D01*
Y70000D01*
X102000Y80000D01*
X0Y95000D02*
Y100000D01*
Y95000D02*
X2000Y93000D01*
X23000D01*
X26000Y90000D01*
Y79000D02*
Y90000D01*
X18000Y71000D02*
X26000Y79000D01*
X12900Y61900D02*
X18000Y67000D01*
Y71000D01*
X0Y110000D02*
X10000D01*
X20000D01*
X30000D01*
X40000D01*
X180000D02*
X190000D01*
X200000D01*
X210000D01*
X220000D01*
X10000Y13000D02*
X13000Y10000D01*
X17000D01*
X20000Y7000D01*
Y0D02*
Y7000D01*
X18000Y48000D02*
Y67000D01*
Y48000D02*
X89000D01*
X210900Y65100D02*
X218500D01*
X208900Y63100D02*
X210900Y65100D01*
X193000Y71000D02*
Y76000D01*
Y80600D01*
X206000Y74850D02*
X218250D01*
X218500Y75100D01*
X210900Y55100D02*
X218500D01*
X208900Y57100D02*
X210900Y55100D01*
X210400Y89000D02*
X214600D01*
X218500Y85100D01*
X102000Y80000D02*
X106000D01*
X109000D01*
X0Y120000D02*
X10000D01*
X20000D01*
X30000D01*
X40000D01*
X180000D02*
X190000D01*
X200000D01*
X210000D01*
X220000D01*
X0Y100000D02*
Y110000D01*
X203000Y81100D02*
X206000D01*
X203000Y89000D02*
Y93300D01*
X162900Y120200D02*
X173100Y110000D01*
X180000D01*
X40000D02*
X42300D01*
X52500Y120200D01*
X162900D01*
D20*
X178200Y84650D02*
Y91600D01*
X16400Y30400D02*
X21200D01*
X30000Y31500D02*
X34800D01*
X41600Y30550D02*
X46400D01*
X173900Y72000D02*
X175500D01*
X178100Y74600D01*
Y78400D01*
X193000Y88250D02*
Y94300D01*
D21*
X48600Y70400D02*
Y76300D01*
Y55800D02*
Y61700D01*
Y76300D02*
X49100Y76800D01*
Y85500D01*
X43100D02*
X43600Y85000D01*
Y76300D02*
Y85000D01*
X33600Y68300D02*
Y76300D01*
X38600Y55800D02*
X43600D01*
X43700Y55900D01*
Y62100D01*
X110600Y50600D02*
Y59900D01*
X115600Y54800D02*
Y59900D01*
Y54800D02*
X116700Y53700D01*
X115600Y80400D02*
Y85400D01*
X114700Y86300D02*
X115600Y85400D01*
X112200Y86300D02*
X114700D01*
X110900Y87600D02*
X112200Y86300D01*
X110900Y87600D02*
Y89700D01*
X124500D02*
X124600Y89600D01*
X120600Y80400D02*
Y89600D01*
X120700Y89700D01*
X116900D02*
X120700D01*
X124500D01*
X125600Y59900D02*
Y66900D01*
X129300Y70600D01*
X131700D01*
X130600Y87800D02*
Y89600D01*
Y87800D02*
X132600Y85800D01*
Y82400D02*
Y85800D01*
X38000Y85000D02*
X38600Y84400D01*
Y76300D02*
Y84400D01*
X132600Y63800D02*
X134800D01*
X85500Y56000D02*
Y61900D01*
X70500Y68500D02*
Y76500D01*
X85500Y70600D02*
Y76500D01*
X80500D02*
Y85200D01*
X80000Y85700D02*
X80500Y85200D01*
X86000Y77000D02*
Y85700D01*
X85500Y76500D02*
X86000Y77000D01*
X80600Y56100D02*
Y62300D01*
X80500Y56000D02*
X80600Y56100D01*
Y66400D02*
Y76400D01*
X80500Y76500D02*
X80600Y76400D01*
X75500Y56000D02*
X80500D01*
X-3500Y68500D02*
Y76500D01*
X11500Y70600D02*
Y76500D01*
X6500D02*
Y85200D01*
X6000Y85700D02*
X6500Y85200D01*
X12000Y77000D02*
Y85700D01*
X11500Y76500D02*
X12000Y77000D01*
X6500Y56000D02*
X6600Y56100D01*
X900Y85200D02*
X1500Y84600D01*
Y76500D02*
Y84600D01*
X6500Y76500D02*
X6600Y76400D01*
X1500Y56000D02*
X6500D01*
X43600Y76300D02*
X43700Y76200D01*
Y66200D02*
Y76200D01*
X11500Y56000D02*
Y61900D01*
X140000Y20000D02*
X142000Y22000D01*
X140000Y0D02*
Y20000D01*
X134800Y63800D02*
X138000Y67000D01*
Y71000D01*
X132600Y76400D02*
X135600D01*
X125600Y80400D02*
Y85700D01*
X110600Y50600D02*
X110700Y50500D01*
X116700D02*
Y53700D01*
Y50500D02*
X124300D01*
X120600Y59900D02*
Y68200D01*
X121800Y69400D01*
X-3500Y49800D02*
Y56000D01*
X30000Y55800D02*
X33600D01*
X66900Y56000D02*
X70500D01*
X100000Y0D02*
Y3400D01*
X93400Y10000D02*
X100000Y3400D01*
X82600Y10000D02*
X93400D01*
X80000Y12600D02*
X82600Y10000D01*
X80000Y12600D02*
Y20000D01*
X90000Y0D02*
Y4700D01*
X88100Y6600D02*
X90000Y4700D01*
X65600Y6600D02*
X88100D01*
X60000Y12200D02*
X65600Y6600D01*
X60000Y12200D02*
Y20000D01*
X110000Y0D02*
Y10000D01*
X100000Y20000D02*
X110000Y10000D01*
X130000Y0D02*
Y10000D01*
X120000Y20000D02*
X130000Y10000D01*
X110000Y35100D02*
Y40000D01*
X120000Y35200D02*
Y40000D01*
Y35200D02*
X124100Y31100D01*
X130000Y36500D02*
Y40000D01*
Y36500D02*
X133100Y33400D01*
X145500D01*
X124100Y31100D02*
X144300D01*
X149400Y26000D01*
X171600Y8400D02*
X180000Y0D01*
X163800Y6200D02*
X170000Y0D01*
X145500Y33400D02*
X151900Y27000D01*
X146500Y13500D02*
Y25100D01*
Y13500D02*
X160000Y0D01*
X151900Y15300D02*
Y27000D01*
Y15300D02*
X158800Y8400D01*
X171600D01*
X149400Y14100D02*
Y26000D01*
Y14100D02*
X157300Y6200D01*
X163800D01*
X153400Y57000D02*
X159800D01*
X153400Y52000D02*
X159500D01*
X162000Y54500D01*
X153400Y67000D02*
X159800D01*
X173600Y56700D02*
X173900Y57000D01*
X166800Y56700D02*
X173600D01*
X173900Y67000D02*
Y72000D01*
X178700Y11300D02*
X190000Y0D01*
X170200Y11300D02*
X178700D01*
X164300Y17200D02*
X170200Y11300D01*
X164300Y17200D02*
Y30400D01*
X161400Y33300D02*
X164300Y30400D01*
X158700Y33300D02*
X161400D01*
X149000Y46500D02*
X152500D01*
X153400Y62000D02*
Y67000D01*
X100000Y20000D02*
Y29500D01*
X115600Y77500D02*
Y80400D01*
X108800Y70700D02*
X115600Y77500D01*
X108800Y65900D02*
Y70700D01*
X102600Y51700D02*
Y61200D01*
X104900Y63500D01*
X106400D01*
X108800Y65900D01*
X166400Y53000D02*
X167400Y52000D01*
X173900D01*
Y57000D02*
Y62000D01*
X75500Y76500D02*
Y84600D01*
X74900Y85200D02*
X75500Y84600D01*
X135800Y105800D02*
X162800D01*
X146800Y48700D02*
X149000Y46500D01*
X132600Y57800D02*
X133050Y57350D01*
X132500Y57700D02*
X132600Y57800D01*
X132500Y54600D02*
Y57700D01*
X130300Y52400D02*
X132500Y54600D01*
X130300Y50500D02*
Y52400D01*
X143300Y79200D02*
X160000Y95900D01*
Y100000D01*
X132600Y82400D02*
X138200D01*
X150000Y94200D01*
Y100000D01*
X146800Y48700D02*
Y76200D01*
X159800Y67000D02*
Y71100D01*
X161800Y73100D01*
X164300D01*
X168100Y81100D02*
X169800D01*
X172200Y78700D01*
X168100Y77800D02*
X173900Y72000D01*
X163900Y77800D02*
X168100D01*
X160600Y81100D02*
X163900Y77800D01*
X138000Y71000D02*
Y74000D01*
X135600Y76400D02*
X138000Y74000D01*
X16300Y30500D02*
X16400Y30400D01*
X34800Y31500D02*
X35200Y31100D01*
X143700Y27900D02*
X146500Y25100D01*
X110000Y35100D02*
X117200Y27900D01*
X143700D01*
X130000Y100000D02*
X135800Y105800D01*
X155000Y37000D02*
X158700Y33300D01*
X155000Y37000D02*
Y44000D01*
X152500Y46500D02*
X155000Y44000D01*
X6600Y66800D02*
Y76400D01*
Y56100D02*
Y61900D01*
X80000Y20000D02*
X95000Y35000D01*
Y44100D01*
X102600Y51700D01*
X100000Y29500D02*
X105000Y34500D01*
Y42600D01*
X110600Y48200D01*
Y50600D01*
X138915Y57350D02*
X143300Y61735D01*
X133050Y57350D02*
X138915D01*
X143300Y61735D02*
Y79200D01*
X146800Y76200D02*
X165000Y94400D01*
Y103600D01*
X162800Y105800D02*
X165000Y103600D01*
X125000Y86300D02*
X125600Y85700D01*
D22*
X48600Y50300D02*
Y55800D01*
X85500Y50500D02*
Y56000D01*
D23*
X173900Y47100D02*
Y52000D01*
Y47100D02*
X175000Y46000D01*
Y27000D02*
Y46000D01*
D24*
X105900Y72900D02*
Y79900D01*
X106000Y80000D01*
D25*
X1928Y64350D02*
D03*
D26*
X60000Y20000D02*
D03*
X40000D02*
D03*
X20000D02*
D03*
X80000D02*
D03*
X100000D02*
D03*
X0D02*
D03*
X120000D02*
D03*
X140000D02*
D03*
D27*
X159000Y17000D02*
D03*
D28*
Y27000D02*
D03*
D29*
X218500Y85100D02*
D03*
Y75100D02*
D03*
Y65100D02*
D03*
Y55100D02*
D03*
D30*
X180000Y110000D02*
D03*
X190000D02*
D03*
X200000D02*
D03*
Y120000D02*
D03*
X190000D02*
D03*
X210000D02*
D03*
X220000D02*
D03*
Y110000D02*
D03*
X210000D02*
D03*
X0D02*
D03*
X10000D02*
D03*
X20000D02*
D03*
Y120000D02*
D03*
X10000D02*
D03*
X30000D02*
D03*
X40000D02*
D03*
Y110000D02*
D03*
X30000D02*
D03*
X220000Y100000D02*
D03*
X210000D02*
D03*
X200000D02*
D03*
X190000D02*
D03*
X180000D02*
D03*
X170000D02*
D03*
X160000D02*
D03*
X150000D02*
D03*
X140000D02*
D03*
X130000D02*
D03*
X120000D02*
D03*
X110000D02*
D03*
X100000D02*
D03*
X90000D02*
D03*
X80000D02*
D03*
X70000D02*
D03*
X60000D02*
D03*
X50000D02*
D03*
X40000D02*
D03*
X30000D02*
D03*
X20000D02*
D03*
X10000D02*
D03*
X230000D02*
D03*
X220000Y0D02*
D03*
X210000D02*
D03*
X200000D02*
D03*
X190000D02*
D03*
X180000D02*
D03*
X170000D02*
D03*
X160000D02*
D03*
X150000D02*
D03*
X140000D02*
D03*
X130000D02*
D03*
X120000D02*
D03*
X110000D02*
D03*
X100000D02*
D03*
X90000D02*
D03*
X80000D02*
D03*
X70000D02*
D03*
X60000D02*
D03*
X50000D02*
D03*
X40000D02*
D03*
X30000D02*
D03*
X20000D02*
D03*
X10000D02*
D03*
X230000D02*
D03*
X175000Y27000D02*
D03*
X185000D02*
D03*
X195000D02*
D03*
Y17000D02*
D03*
X185000D02*
D03*
X205000D02*
D03*
X215000D02*
D03*
Y27000D02*
D03*
X205000D02*
D03*
X230000Y40000D02*
D03*
X10000D02*
D03*
X20000D02*
D03*
X30000D02*
D03*
X40000D02*
D03*
X50000D02*
D03*
X60000D02*
D03*
X70000D02*
D03*
X80000D02*
D03*
X90000D02*
D03*
X100000D02*
D03*
X110000D02*
D03*
X120000D02*
D03*
X130000D02*
D03*
X140000D02*
D03*
X150000D02*
D03*
X160000D02*
D03*
X170000D02*
D03*
X180000D02*
D03*
X190000D02*
D03*
X200000D02*
D03*
X210000D02*
D03*
X220000D02*
D03*
D31*
X180000Y120000D02*
D03*
X0D02*
D03*
Y100000D02*
D03*
Y0D02*
D03*
X175000Y17000D02*
D03*
X0Y40000D02*
D03*
D32*
X48600Y70400D02*
D03*
Y61700D02*
D03*
X33700Y85000D02*
D03*
X33600Y68300D02*
D03*
X56800Y87900D02*
D03*
X62300Y62600D02*
D03*
X60100Y54900D02*
D03*
X43700Y62100D02*
D03*
X105900Y72900D02*
D03*
Y66900D02*
D03*
X131700Y70600D02*
D03*
X38000Y85000D02*
D03*
X97000Y55100D02*
D03*
X85500Y61900D02*
D03*
X70500Y68500D02*
D03*
X70600Y85200D02*
D03*
X93700Y88100D02*
D03*
X99200Y62800D02*
D03*
X85500Y70600D02*
D03*
X80600Y62300D02*
D03*
Y66400D02*
D03*
X23000Y55100D02*
D03*
X11500Y61900D02*
D03*
X-3500Y68500D02*
D03*
X-3400Y85200D02*
D03*
X19700Y88100D02*
D03*
X25200Y62800D02*
D03*
X11500Y70600D02*
D03*
X900Y85200D02*
D03*
X186500Y8500D02*
D03*
X231000Y8000D02*
D03*
X43700Y66200D02*
D03*
X138000Y71000D02*
D03*
X106000Y59700D02*
D03*
X105100Y88400D02*
D03*
X137000Y90200D02*
D03*
X121800Y69400D02*
D03*
X115100Y73500D02*
D03*
X-3500Y49800D02*
D03*
X30000Y55800D02*
D03*
X66900Y56000D02*
D03*
X167500Y29000D02*
D03*
X159800Y57000D02*
D03*
X162000Y54500D02*
D03*
X159800Y67000D02*
D03*
X166800Y56700D02*
D03*
X163200Y60900D02*
D03*
X164000Y67500D02*
D03*
X142200Y57000D02*
D03*
X166400Y53000D02*
D03*
X74900Y85200D02*
D03*
X54800Y31100D02*
D03*
X74000Y30900D02*
D03*
X83600D02*
D03*
X110000Y20400D02*
D03*
X129900Y20000D02*
D03*
X56700Y115700D02*
D03*
X80200Y116000D02*
D03*
X105100D02*
D03*
X129700D02*
D03*
X161600Y115500D02*
D03*
X203100Y55200D02*
D03*
X236200Y17700D02*
D03*
Y28800D02*
D03*
X172200Y78700D02*
D03*
X234500Y115500D02*
D03*
X61200Y31000D02*
D03*
X70500Y15500D02*
D03*
X232400Y74700D02*
D03*
X155300Y80000D02*
D03*
X6600Y66800D02*
D03*
Y61900D02*
D03*
X137900Y59800D02*
D03*
X125000Y86300D02*
D03*
X147100Y8300D02*
D03*
D33*
X193000Y76000D02*
D03*
X173900Y72000D02*
D03*
X21200Y30400D02*
D03*
X30000Y31500D02*
D03*
X46400Y30550D02*
D03*
X178200Y91600D02*
D03*
M02*
