M48
;Layer_Color=9474304
;FILE_FORMAT=2:5
INCH,TZ
;TYPE=PLATED
T1F00S00C0.01000
T2F00S00C0.02000
T3F00S00C0.03543
T4F00S00C0.04000
T5F00S00C0.06299
%
T01
X147100Y8300
X186500Y8500
X231000Y8000
X236200Y17700
X129900Y20000
X110000Y20400
X70500Y15500
X74000Y30900
X83600
X61200Y31000
X54800Y31100
X60100Y54900
X66900Y56000
X62300Y62600
X70500Y68500
X80600Y66400
Y62300
X85500Y61900
Y70600
X99200Y62800
X97000Y55100
X106000Y59700
X105900Y66900
Y72900
X115100Y73500
X121800Y69400
X131700Y70600
X138000Y71000
X137900Y59800
X137000Y90200
X125000Y86300
X105100Y88400
X93700Y88100
X74900Y85200
X70600
X56800Y87900
X38000Y85000
X33700
X33600Y68300
X43700Y66200
Y62100
X48600Y61700
Y70400
X25200Y62800
X23000Y55100
X30000Y55800
X11500Y61900
X6600
Y66800
X11500Y70600
X-3500Y68500
X-3400Y85200
X900
X19700Y88100
X-3500Y49800
X56700Y115700
X80200Y116000
X105100
X129700
X161600Y115500
X155300Y80000
X159800Y67000
X164000Y67500
X163200Y60900
X159800Y57000
X162000Y54500
X166400Y53000
X166800Y56700
X142200Y57000
X172200Y78700
X167500Y29000
X203100Y55200
X232400Y74700
X234500Y115500
X236200Y28800
T02
X21200Y30400
X30000Y31500
X46400Y30550
X173900Y72000
X193000Y76000
X178200Y91600
T03
X159000Y17000
Y27000
T04
X140000Y0
X150000
X160000
X170000
X180000
X190000
X200000
X210000
X220000
X230000
X215000Y17000
X205000
X195000
Y27000
X185000
X175000
Y17000
X185000
X205000Y27000
X215000
X130000Y0
X120000
X110000
X100000
X90000
X80000
X70000
X60000
X50000
X40000
X30000
X20000
X10000
X0
Y40000
X10000
X20000
X30000
X40000
X50000
X60000
X70000
X80000
X90000
X100000
X110000
X120000
X130000
Y100000
X120000
X110000
X100000
X90000
X80000
X70000
X60000
X50000
X40000
Y110000
Y120000
X30000
X20000
Y110000
X10000
X0
Y120000
X10000
Y100000
X20000
X30000
Y110000
X0Y100000
X140000
X150000
X160000
X170000
X180000
Y110000
X190000
X200000
Y120000
X190000
X180000
X210000
X220000
Y110000
X210000
Y100000
X220000
X230000
X218500Y85100
Y75100
Y65100
Y55100
X220000Y40000
X230000
X210000
X200000
X190000
X180000
X170000
X160000
X150000
X140000
X190000Y100000
X200000
T05
X140000Y20000
X120000
X100000
X80000
X60000
X40000
X20000
X0
M30
