G04 Layer_Color=8388736*
%FSLAX25Y25*%
%MOIN*%
G70*
G01*
G75*
%ADD41R,0.02000X0.00700*%
%ADD42R,0.01300X0.00500*%
%ADD43R,0.01800X0.00600*%
%ADD44R,0.01400X0.00700*%
%ADD45R,0.01900X0.00700*%
%ADD46R,0.02000X0.01100*%
%ADD47R,0.01200X0.02600*%
%ADD48R,0.01100X0.01800*%
%ADD49R,0.00800X0.02900*%
%ADD50R,0.06000X0.04650*%
%ADD51R,0.04400X0.04000*%
%ADD52R,0.03400X0.08800*%
%ADD53R,0.04000X0.04400*%
%ADD54R,0.08674X0.04650*%
%ADD55R,0.08800X0.03400*%
%ADD56R,0.04400X0.04400*%
%ADD57R,0.04400X0.05800*%
%ADD58R,0.04650X0.06000*%
%ADD59C,0.10642*%
%ADD60R,0.06706X0.06706*%
%ADD61C,0.06706*%
%ADD62C,0.06800*%
%ADD63C,0.07800*%
%ADD64R,0.07800X0.07800*%
%ADD65C,0.02800*%
%ADD66C,0.04800*%
D41*
X6600Y60650D02*
D03*
X85500D02*
D03*
X11500Y71850D02*
D03*
Y60650D02*
D03*
D42*
X124850Y84950D02*
D03*
D43*
X48600Y71700D02*
D03*
D44*
Y60350D02*
D03*
D45*
X85450Y71850D02*
D03*
D46*
X-3500Y51250D02*
D03*
D47*
X18900Y30400D02*
D03*
D48*
X32650Y31500D02*
D03*
D49*
X44100Y30550D02*
D03*
D50*
X193000Y70000D02*
D03*
Y63750D02*
D03*
Y88250D02*
D03*
Y82000D02*
D03*
X178100Y84650D02*
D03*
Y78400D02*
D03*
D51*
X6000Y85700D02*
D03*
X12000D02*
D03*
X80000D02*
D03*
X86000D02*
D03*
X43100Y85500D02*
D03*
X49100D02*
D03*
X130300Y50500D02*
D03*
X124300D02*
D03*
X130600Y89600D02*
D03*
X124600D02*
D03*
X116700Y50500D02*
D03*
X110700D02*
D03*
X203000Y89000D02*
D03*
X209000D02*
D03*
X116900Y89700D02*
D03*
X110900D02*
D03*
D52*
X11500Y56000D02*
D03*
X-3500Y76500D02*
D03*
X6500D02*
D03*
X11500D02*
D03*
X6500Y56000D02*
D03*
X1500D02*
D03*
X-3500D02*
D03*
X1500Y76500D02*
D03*
X85500Y56000D02*
D03*
X70500Y76500D02*
D03*
X80500D02*
D03*
X85500D02*
D03*
X80500Y56000D02*
D03*
X75500D02*
D03*
X70500D02*
D03*
X75500Y76500D02*
D03*
X48600Y55800D02*
D03*
X33600Y76300D02*
D03*
X43600D02*
D03*
X48600D02*
D03*
X43600Y55800D02*
D03*
X38600D02*
D03*
X33600D02*
D03*
X38600Y76300D02*
D03*
X110600Y80400D02*
D03*
X125600Y59900D02*
D03*
X115600D02*
D03*
X110600D02*
D03*
X115600Y80400D02*
D03*
X120600D02*
D03*
X125600D02*
D03*
X120600Y59900D02*
D03*
D53*
X132600Y63800D02*
D03*
Y57800D02*
D03*
Y76400D02*
D03*
Y82400D02*
D03*
X208900Y57100D02*
D03*
Y63100D02*
D03*
D54*
X206000Y81100D02*
D03*
Y74850D02*
D03*
D55*
X173900Y67000D02*
D03*
X153400Y52000D02*
D03*
Y62000D02*
D03*
Y67000D02*
D03*
X173900Y62000D02*
D03*
Y57000D02*
D03*
Y52000D02*
D03*
X153400Y57000D02*
D03*
D56*
X168100Y81100D02*
D03*
X160600D02*
D03*
D57*
X164300Y73100D02*
D03*
D58*
X16300Y30500D02*
D03*
X10050D02*
D03*
X41550Y30600D02*
D03*
X35300D02*
D03*
D59*
X60000Y20000D02*
D03*
X40000D02*
D03*
X20000D02*
D03*
X80000D02*
D03*
X100000D02*
D03*
X0D02*
D03*
X120000D02*
D03*
X140000D02*
D03*
D60*
X159000Y17000D02*
D03*
D61*
Y27000D02*
D03*
D62*
X218500Y85100D02*
D03*
Y75100D02*
D03*
Y65100D02*
D03*
Y55100D02*
D03*
D63*
X180000Y110000D02*
D03*
X190000D02*
D03*
X200000D02*
D03*
Y120000D02*
D03*
X190000D02*
D03*
X210000D02*
D03*
X220000D02*
D03*
Y110000D02*
D03*
X210000D02*
D03*
X0D02*
D03*
X10000D02*
D03*
X20000D02*
D03*
Y120000D02*
D03*
X10000D02*
D03*
X30000D02*
D03*
X40000D02*
D03*
Y110000D02*
D03*
X30000D02*
D03*
X220000Y100000D02*
D03*
X210000D02*
D03*
X200000D02*
D03*
X190000D02*
D03*
X180000D02*
D03*
X170000D02*
D03*
X160000D02*
D03*
X150000D02*
D03*
X140000D02*
D03*
X130000D02*
D03*
X120000D02*
D03*
X110000D02*
D03*
X100000D02*
D03*
X90000D02*
D03*
X80000D02*
D03*
X70000D02*
D03*
X60000D02*
D03*
X50000D02*
D03*
X40000D02*
D03*
X30000D02*
D03*
X20000D02*
D03*
X10000D02*
D03*
X230000D02*
D03*
X220000Y0D02*
D03*
X210000D02*
D03*
X200000D02*
D03*
X190000D02*
D03*
X180000D02*
D03*
X170000D02*
D03*
X160000D02*
D03*
X150000D02*
D03*
X140000D02*
D03*
X130000D02*
D03*
X120000D02*
D03*
X110000D02*
D03*
X100000D02*
D03*
X90000D02*
D03*
X80000D02*
D03*
X70000D02*
D03*
X60000D02*
D03*
X50000D02*
D03*
X40000D02*
D03*
X30000D02*
D03*
X20000D02*
D03*
X10000D02*
D03*
X230000D02*
D03*
X175000Y27000D02*
D03*
X185000D02*
D03*
X195000D02*
D03*
Y17000D02*
D03*
X185000D02*
D03*
X205000D02*
D03*
X215000D02*
D03*
Y27000D02*
D03*
X205000D02*
D03*
X230000Y40000D02*
D03*
X10000D02*
D03*
X20000D02*
D03*
X30000D02*
D03*
X40000D02*
D03*
X50000D02*
D03*
X60000D02*
D03*
X70000D02*
D03*
X80000D02*
D03*
X90000D02*
D03*
X100000D02*
D03*
X110000D02*
D03*
X120000D02*
D03*
X130000D02*
D03*
X140000D02*
D03*
X150000D02*
D03*
X160000D02*
D03*
X170000D02*
D03*
X180000D02*
D03*
X190000D02*
D03*
X200000D02*
D03*
X210000D02*
D03*
X220000D02*
D03*
D64*
X180000Y120000D02*
D03*
X0D02*
D03*
Y100000D02*
D03*
Y0D02*
D03*
X175000Y17000D02*
D03*
X0Y40000D02*
D03*
D65*
X48600Y70400D02*
D03*
Y61700D02*
D03*
X33700Y85000D02*
D03*
X33600Y68300D02*
D03*
X56800Y87900D02*
D03*
X62300Y62600D02*
D03*
X60100Y54900D02*
D03*
X43700Y62100D02*
D03*
X105900Y72900D02*
D03*
Y66900D02*
D03*
X131700Y70600D02*
D03*
X38000Y85000D02*
D03*
X97000Y55100D02*
D03*
X85500Y61900D02*
D03*
X70500Y68500D02*
D03*
X70600Y85200D02*
D03*
X93700Y88100D02*
D03*
X99200Y62800D02*
D03*
X85500Y70600D02*
D03*
X80600Y62300D02*
D03*
Y66400D02*
D03*
X23000Y55100D02*
D03*
X11500Y61900D02*
D03*
X-3500Y68500D02*
D03*
X-3400Y85200D02*
D03*
X19700Y88100D02*
D03*
X25200Y62800D02*
D03*
X11500Y70600D02*
D03*
X900Y85200D02*
D03*
X186500Y8500D02*
D03*
X231000Y8000D02*
D03*
X43700Y66200D02*
D03*
X138000Y71000D02*
D03*
X106000Y59700D02*
D03*
X105100Y88400D02*
D03*
X137000Y90200D02*
D03*
X121800Y69400D02*
D03*
X115100Y73500D02*
D03*
X-3500Y49800D02*
D03*
X30000Y55800D02*
D03*
X66900Y56000D02*
D03*
X167500Y29000D02*
D03*
X159800Y57000D02*
D03*
X162000Y54500D02*
D03*
X159800Y67000D02*
D03*
X166800Y56700D02*
D03*
X163200Y60900D02*
D03*
X164000Y67500D02*
D03*
X142200Y57000D02*
D03*
X166400Y53000D02*
D03*
X74900Y85200D02*
D03*
X54800Y31100D02*
D03*
X74000Y30900D02*
D03*
X83600D02*
D03*
X110000Y20400D02*
D03*
X129900Y20000D02*
D03*
X56700Y115700D02*
D03*
X80200Y116000D02*
D03*
X105100D02*
D03*
X129700D02*
D03*
X161600Y115500D02*
D03*
X203100Y55200D02*
D03*
X236200Y17700D02*
D03*
Y28800D02*
D03*
X172200Y78700D02*
D03*
X234500Y115500D02*
D03*
X61200Y31000D02*
D03*
X70500Y15500D02*
D03*
X232400Y74700D02*
D03*
X155300Y80000D02*
D03*
X6600Y66800D02*
D03*
Y61900D02*
D03*
X137900Y59800D02*
D03*
X125000Y86300D02*
D03*
X147100Y8300D02*
D03*
D66*
X193000Y76000D02*
D03*
X173900Y72000D02*
D03*
X21200Y30400D02*
D03*
X30000Y31500D02*
D03*
X46400Y30550D02*
D03*
X178200Y91600D02*
D03*
M02*
