G04 Layer_Color=16711935*
%FSLAX25Y25*%
%MOIN*%
G70*
G01*
G75*
%ADD23C,0.01000*%
%ADD51R,0.04400X0.04000*%
%ADD53R,0.04000X0.04400*%
%ADD56R,0.04400X0.04400*%
%ADD57R,0.04400X0.05800*%
%ADD59C,0.10642*%
%ADD60R,0.06706X0.06706*%
%ADD61C,0.06706*%
%ADD62C,0.06800*%
%ADD63C,0.07800*%
%ADD64R,0.07800X0.07800*%
%ADD65C,0.02800*%
%ADD66C,0.04800*%
%ADD67R,0.03000X0.02000*%
%ADD68R,0.01000X0.02000*%
%ADD69R,0.01100X0.02000*%
%ADD70R,0.04400X0.04400*%
%ADD71R,0.05800X0.04400*%
D23*
X121800Y68800D02*
Y69400D01*
Y68800D02*
Y69100D01*
Y68800D02*
X123100Y67500D01*
D51*
X56800Y76100D02*
D03*
X50800D02*
D03*
X56800Y83100D02*
D03*
X50800D02*
D03*
X125000Y91100D02*
D03*
X131000D02*
D03*
X153500Y57000D02*
D03*
X147500D02*
D03*
X17500Y55100D02*
D03*
X11500D02*
D03*
X91500D02*
D03*
X85500D02*
D03*
X54600Y54900D02*
D03*
X48600D02*
D03*
X93700Y83300D02*
D03*
X87700D02*
D03*
X93700Y76300D02*
D03*
X87700D02*
D03*
X19700Y83300D02*
D03*
X13700D02*
D03*
X19700Y76300D02*
D03*
X13700D02*
D03*
X215000Y8000D02*
D03*
X209000D02*
D03*
X195000D02*
D03*
X201000D02*
D03*
X181000D02*
D03*
X175000D02*
D03*
X155000D02*
D03*
X161000D02*
D03*
X125300Y73500D02*
D03*
X119300D02*
D03*
X168000Y67500D02*
D03*
X174000D02*
D03*
D53*
X43100Y76400D02*
D03*
Y82400D02*
D03*
X110500Y86600D02*
D03*
Y80600D02*
D03*
X117400Y86600D02*
D03*
Y80600D02*
D03*
X166600Y22900D02*
D03*
Y16900D02*
D03*
X38800Y59600D02*
D03*
Y65600D02*
D03*
X33700Y73400D02*
D03*
Y79400D02*
D03*
X70600Y73600D02*
D03*
Y79600D02*
D03*
X75700Y59800D02*
D03*
Y65800D02*
D03*
X80000Y76600D02*
D03*
Y82600D02*
D03*
X-3400Y73600D02*
D03*
Y79600D02*
D03*
X1700Y59800D02*
D03*
Y65800D02*
D03*
X6000Y76600D02*
D03*
Y82600D02*
D03*
X223000Y11000D02*
D03*
Y17000D02*
D03*
X110700Y66900D02*
D03*
Y72900D02*
D03*
X118000Y59700D02*
D03*
Y65700D02*
D03*
X124600Y59700D02*
D03*
Y65700D02*
D03*
X131400D02*
D03*
Y59700D02*
D03*
D56*
X174700Y61000D02*
D03*
X167200D02*
D03*
D57*
X171000Y53000D02*
D03*
D59*
X60000Y20000D02*
D03*
X40000D02*
D03*
X20000D02*
D03*
X80000D02*
D03*
X100000D02*
D03*
X0D02*
D03*
X120000D02*
D03*
X140000D02*
D03*
D60*
X159000Y17000D02*
D03*
D61*
Y27000D02*
D03*
D62*
X218500Y85100D02*
D03*
Y75100D02*
D03*
Y65100D02*
D03*
Y55100D02*
D03*
D63*
X180000Y110000D02*
D03*
X190000D02*
D03*
X200000D02*
D03*
Y120000D02*
D03*
X190000D02*
D03*
X210000D02*
D03*
X220000D02*
D03*
Y110000D02*
D03*
X210000D02*
D03*
X0D02*
D03*
X10000D02*
D03*
X20000D02*
D03*
Y120000D02*
D03*
X10000D02*
D03*
X30000D02*
D03*
X40000D02*
D03*
Y110000D02*
D03*
X30000D02*
D03*
X220000Y100000D02*
D03*
X210000D02*
D03*
X200000D02*
D03*
X190000D02*
D03*
X180000D02*
D03*
X170000D02*
D03*
X160000D02*
D03*
X150000D02*
D03*
X140000D02*
D03*
X130000D02*
D03*
X120000D02*
D03*
X110000D02*
D03*
X100000D02*
D03*
X90000D02*
D03*
X80000D02*
D03*
X70000D02*
D03*
X60000D02*
D03*
X50000D02*
D03*
X40000D02*
D03*
X30000D02*
D03*
X20000D02*
D03*
X10000D02*
D03*
X230000D02*
D03*
X220000Y0D02*
D03*
X210000D02*
D03*
X200000D02*
D03*
X190000D02*
D03*
X180000D02*
D03*
X170000D02*
D03*
X160000D02*
D03*
X150000D02*
D03*
X140000D02*
D03*
X130000D02*
D03*
X120000D02*
D03*
X110000D02*
D03*
X100000D02*
D03*
X90000D02*
D03*
X80000D02*
D03*
X70000D02*
D03*
X60000D02*
D03*
X50000D02*
D03*
X40000D02*
D03*
X30000D02*
D03*
X20000D02*
D03*
X10000D02*
D03*
X230000D02*
D03*
X175000Y27000D02*
D03*
X185000D02*
D03*
X195000D02*
D03*
Y17000D02*
D03*
X185000D02*
D03*
X205000D02*
D03*
X215000D02*
D03*
Y27000D02*
D03*
X205000D02*
D03*
X230000Y40000D02*
D03*
X10000D02*
D03*
X20000D02*
D03*
X30000D02*
D03*
X40000D02*
D03*
X50000D02*
D03*
X60000D02*
D03*
X70000D02*
D03*
X80000D02*
D03*
X90000D02*
D03*
X100000D02*
D03*
X110000D02*
D03*
X120000D02*
D03*
X130000D02*
D03*
X140000D02*
D03*
X150000D02*
D03*
X160000D02*
D03*
X170000D02*
D03*
X180000D02*
D03*
X190000D02*
D03*
X200000D02*
D03*
X210000D02*
D03*
X220000D02*
D03*
D64*
X180000Y120000D02*
D03*
X0D02*
D03*
Y100000D02*
D03*
Y0D02*
D03*
X175000Y17000D02*
D03*
X0Y40000D02*
D03*
D65*
X48600Y70400D02*
D03*
Y61700D02*
D03*
X33700Y85000D02*
D03*
X33600Y68300D02*
D03*
X56800Y87900D02*
D03*
X62300Y62600D02*
D03*
X60100Y54900D02*
D03*
X43700Y62100D02*
D03*
X105900Y72900D02*
D03*
Y66900D02*
D03*
X131700Y70600D02*
D03*
X38000Y85000D02*
D03*
X97000Y55100D02*
D03*
X85500Y61900D02*
D03*
X70500Y68500D02*
D03*
X70600Y85200D02*
D03*
X93700Y88100D02*
D03*
X99200Y62800D02*
D03*
X85500Y70600D02*
D03*
X80600Y62300D02*
D03*
Y66400D02*
D03*
X23000Y55100D02*
D03*
X11500Y61900D02*
D03*
X-3500Y68500D02*
D03*
X-3400Y85200D02*
D03*
X19700Y88100D02*
D03*
X25200Y62800D02*
D03*
X11500Y70600D02*
D03*
X900Y85200D02*
D03*
X186500Y8500D02*
D03*
X231000Y8000D02*
D03*
X43700Y66200D02*
D03*
X138000Y71000D02*
D03*
X106000Y59700D02*
D03*
X105100Y88400D02*
D03*
X137000Y90200D02*
D03*
X121800Y69400D02*
D03*
X115100Y73500D02*
D03*
X-3500Y49800D02*
D03*
X30000Y55800D02*
D03*
X66900Y56000D02*
D03*
X167500Y29000D02*
D03*
X159800Y57000D02*
D03*
X162000Y54500D02*
D03*
X159800Y67000D02*
D03*
X166800Y56700D02*
D03*
X163200Y60900D02*
D03*
X164000Y67500D02*
D03*
X142200Y57000D02*
D03*
X166400Y53000D02*
D03*
X74900Y85200D02*
D03*
X54800Y31100D02*
D03*
X74000Y30900D02*
D03*
X83600D02*
D03*
X110000Y20400D02*
D03*
X129900Y20000D02*
D03*
X56700Y115700D02*
D03*
X80200Y116000D02*
D03*
X105100D02*
D03*
X129700D02*
D03*
X161600Y115500D02*
D03*
X203100Y55200D02*
D03*
X236200Y17700D02*
D03*
Y28800D02*
D03*
X172200Y78700D02*
D03*
X234500Y115500D02*
D03*
X61200Y31000D02*
D03*
X70500Y15500D02*
D03*
X232400Y74700D02*
D03*
X155300Y80000D02*
D03*
X6600Y66800D02*
D03*
Y61900D02*
D03*
X137900Y59800D02*
D03*
X125000Y86300D02*
D03*
X147100Y8300D02*
D03*
D66*
X193000Y76000D02*
D03*
X173900Y72000D02*
D03*
X21200Y30400D02*
D03*
X30000Y31500D02*
D03*
X46400Y30550D02*
D03*
X178200Y91600D02*
D03*
D67*
X173900Y69700D02*
D03*
D68*
X165400Y67500D02*
D03*
D69*
X164650Y60900D02*
D03*
D70*
X56800Y62600D02*
D03*
Y70100D02*
D03*
X93700Y62800D02*
D03*
Y70300D02*
D03*
X19700Y62800D02*
D03*
Y70300D02*
D03*
D71*
X48800Y66300D02*
D03*
X85700Y66500D02*
D03*
X11700D02*
D03*
M02*
