M48
;Layer_Color=9474304
;FILE_FORMAT=2:4
INCH,LZ
;TYPE=PLATED
T1F00S00C0.0100
T2F00S00C0.0130
T3F00S00C0.0150
T4F00S00C0.0157
T5F00S00C0.0280
T6F00S00C0.0300
T7F00S00C0.0350
T8F00S00C0.0390
T9F00S00C0.0620
T10F00S00C0.0670
T11F00S00C0.0870
%
T01
X03765Y0137
X0388Y01385
X04005Y0138
X03975Y0147
X0405Y01505
X04165Y0148
X0427Y01385
X0438Y0149
X03895Y01505
X0377
X03885Y01575
Y01665
X0389Y01795
Y01905
X03885Y02045
X03985Y0209
Y02155
Y0222
X039854Y022797
X03985Y0234
X04055Y02345
X0413
X04175
X0421Y023
X0434Y02295
Y02355
Y0244
Y0249
Y02535
X0444Y02515
X04375Y02675
X04335
Y02835
X04375
Y02895
X04335
Y02945
X04375Y0297
X0439Y03005
X04375Y03045
X04335Y0307
Y0312
X04435Y03115
X0444Y0293
X04205Y02895
X04155Y02875
X04105
X04045
X0398
Y02945
Y0301
Y03075
X042025Y03095
X0421Y0277
X04205Y02635
X0422Y02525
X04165Y02515
X0406
X04035Y02665
X03965Y027
X04025Y028
X0412Y02715
X038692Y0293
X03775Y0297
X03755Y02895
X03765Y02555
X03845Y0251
X03785Y02415
X0389Y0238
X0387Y02295
X0373Y0232
X04055Y0209
X0411
X04155Y02095
X0418Y02075
X04205Y0212
Y0202
X0414Y02025
X0404
Y01905
X04145
X04195Y0188
X0418Y0181
X0421Y01735
Y0168
X043247Y016703
X0444Y0167
Y01785
X0433Y01795
X04335Y0206
X04375
X043777Y021003
X04335Y02105
Y0216
X0437Y02175
X04385Y0222
X04445
X0437Y02265
X0409Y0173
X0407Y01655
X04065Y0157
X03386Y01871
X03191Y01861
X03231Y01761
X03205Y01698
X03261Y02571
X03262Y02621
X032526Y028194
X033038Y028182
X031585Y028435
X03205Y03037
X02586
X025395Y028435
X026336Y028194
X026848Y028182
X02643Y02621
X02642Y02571
X02572Y01861
X02612Y01761
X02586Y01698
X02767Y01871
X03021Y01926
X02402
X01811Y02537
X01998Y0274
X01951Y02792
X020006Y029834
X020518Y029822
X019065Y030075
X014468Y029822
X013956Y029834
X013015Y030075
X01346Y02792
X01393Y0274
X01206Y02537
X01348Y03201
X01444Y0331
X02049
X01953Y03201
X02542Y03321
X02637Y03306
X02687Y03336
X02767Y03341
X02687Y03506
X02682Y03146
X03301
X03306Y03336
X03256Y03306
X03161Y03321
X03386Y03341
X03306Y03506
X0381Y0354
X03885Y0352
X0389Y03405
X03785Y0336
X0373Y0332
X0377Y0324
X0373Y0319
X0382Y03175
X0399Y0313
X04095
X04135
X04085Y03285
X0422Y03295
X0418Y0335
X042Y0339
X04195Y035
X04155Y0353
X0421Y0358
X0417Y03785
X0408Y03805
Y0394
X039902Y038837
X0388Y0394
X0383Y038747
X03695Y0386
X0373Y0394
X0385Y036342
X03942Y032903
X04105Y0343
X04325Y03445
X0437
X04335Y03315
Y0327
Y0322
X0443Y03215
X04385Y03785
X04275Y0389
T02
X032674Y029574
Y030046
X033146
Y029574
X026956
X026484
Y030046
X026956
X014586Y031284
Y031756
X014114
Y031284
X020164
X020636
Y031756
X020164
T03
X03356Y02716
X02737
X02104Y0288
X01499
T04
X040565Y021621
Y0222
Y022779
X041028Y022491
Y021909
X041599Y0222
X042061
X043469
Y03005
X042061
X041599
X041028Y030341
Y029759
X040565Y029471
Y03005
Y030629
T05
X03146Y01951
X03211Y02131
X03327Y02398
X03405Y02396
X03541Y02495
Y0271
X03405Y02646
X03326Y02579
X03541Y02913
Y03104
Y02233
Y02013
Y01765
X02922
Y02013
Y02233
Y02495
Y0271
X02786Y02646
X02707Y02579
X02708Y02398
X02786Y02396
X02592Y02131
X02527Y01951
X02289Y01929
Y02177
Y02397
X02183Y02455
X02117
X02047Y02454
X01921Y02472
X0192Y02204
X01906Y01985
X01684Y01929
Y02177
Y02397
X01578Y02455
X01684Y02659
Y02874
X01819Y02818
X01814Y03
X01684Y03077
X02289
Y02874
Y02659
X02922Y02913
Y03104
X03066Y016
X02447
X01814Y01764
X01209
X01301Y01985
X01315Y02204
X01316Y02472
X01442Y02454
X01512Y02455
X01214Y02818
X01209Y03
X01214Y03308
X01274Y03588
X01684Y03418
Y03268
X01819Y03308
X01879Y03588
X02289Y03418
Y03268
X02515Y03604
X02922Y03254
X03134Y03604
X03541Y03254
T06
X0397Y018423
X040881
X0397Y019604
T07
X03765Y038
X03865
X03965
T08
X02517Y01546
X02617
X02717
X02817
X03136
X03236
X03336
X03436
X02182Y01702
X02082
X01982
X01882
X01577
X01477
X01377
X01277
X01286Y03827
X01386
X01486
X01586
X01891
X01991
X02091
X02191
X02523Y0384
X02623
X02723
X02823
X03142
X03242
X03342
X03442
T09
X0427Y01485
Y0379
T10
X0417Y01385
X0437
Y01585
X0417
Y0369
X0437
Y0389
X0417
T11
X0377Y01675
Y021278
M30
