%FSLAX24Y24*%
%MOIN*%
G70*
G01*
G75*
G04 Layer_Physical_Order=1*
G04 Layer_Color=255*
%ADD10R,0.0140X0.0400*%
%ADD11R,0.0450X0.0600*%
%ADD12R,0.0320X0.0360*%
%ADD13R,0.0394X0.1063*%
%ADD14R,0.0394X0.1063*%
%ADD15R,0.1004X0.1063*%
%ADD16R,0.0360X0.0320*%
%ADD17R,0.0260X0.0800*%
%ADD18O,0.0138X0.0669*%
%ADD19R,0.1063X0.1102*%
%ADD20C,0.1000*%
%ADD21C,0.0500*%
%ADD22C,0.0200*%
%ADD23C,0.0100*%
%ADD24C,0.0750*%
%ADD25R,0.0260X0.0500*%
%ADD26R,0.1063X0.0866*%
%ADD27C,0.0600*%
%ADD28R,0.0394X0.0394*%
%ADD29R,0.1028X0.0339*%
%ADD30R,0.0650X0.0701*%
%ADD31R,0.1402X0.1799*%
%ADD32R,0.0598X0.0598*%
%ADD33R,0.0385X0.0520*%
%ADD34R,0.0520X0.0385*%
%ADD35R,0.0846X0.0532*%
%ADD36R,0.0532X0.0846*%
%ADD37R,0.0400X0.0140*%
%ADD38R,0.0700X0.0700*%
%ADD39C,0.0700*%
%ADD40C,0.0200*%
%ADD41C,0.0280*%
%ADD42C,0.0500*%
%ADD43C,0.0260*%
%ADD44C,0.1000*%
%ADD45C,0.1100*%
%ADD46C,0.0600*%
%ADD47C,0.0591*%
%ADD48R,0.0591X0.0591*%
%ADD49C,0.0252*%
%ADD50C,0.1024*%
G36*
X20072Y24080D02*
Y25020D01*
X20070Y25030D01*
Y26010D01*
X22230D01*
Y24080D01*
X20072D01*
D02*
G37*
%LPC*%
G36*
X20900Y24920D02*
Y25320D01*
X20770D01*
Y24920D01*
X20900D01*
D02*
G37*
G36*
Y25420D02*
Y25820D01*
X20770D01*
Y25420D01*
X20900D01*
D02*
G37*
G36*
X20766Y24490D02*
X20520D01*
Y24244D01*
X20548Y24248D01*
X20621Y24278D01*
X20684Y24326D01*
X20732Y24389D01*
X20762Y24462D01*
X20766Y24490D01*
D02*
G37*
G36*
X21130Y25420D02*
Y25820D01*
X21000D01*
Y25420D01*
X21130D01*
D02*
G37*
G36*
X21120Y24254D02*
Y24500D01*
X20874D01*
X20878Y24472D01*
X20908Y24399D01*
X20956Y24336D01*
X21019Y24288D01*
X21092Y24258D01*
X21120Y24254D01*
D02*
G37*
G36*
Y24600D02*
Y24846D01*
X21092Y24842D01*
X21019Y24812D01*
X20956Y24764D01*
X20908Y24701D01*
X20878Y24628D01*
X20874Y24600D01*
X21120D01*
D02*
G37*
G36*
X20766Y24590D02*
X20762Y24618D01*
X20732Y24691D01*
X20684Y24754D01*
X20621Y24802D01*
X20548Y24832D01*
X20520Y24836D01*
Y24590D01*
X20766D01*
D02*
G37*
G36*
X20400Y25420D02*
Y25820D01*
X20270D01*
Y25420D01*
X20400D01*
D02*
G37*
G36*
X20420Y24244D02*
Y24490D01*
X20174D01*
X20178Y24462D01*
X20208Y24389D01*
X20256Y24326D01*
X20319Y24278D01*
X20392Y24248D01*
X20420Y24244D01*
D02*
G37*
G36*
Y24590D02*
Y24836D01*
X20392Y24832D01*
X20319Y24802D01*
X20256Y24754D01*
X20208Y24691D01*
X20178Y24618D01*
X20174Y24590D01*
X20420D01*
D02*
G37*
G36*
X20630Y24920D02*
Y25320D01*
X20500D01*
Y24920D01*
X20630D01*
D02*
G37*
G36*
Y25420D02*
Y25820D01*
X20500D01*
Y25420D01*
X20630D01*
D02*
G37*
G36*
X20400Y24920D02*
Y25320D01*
X20270D01*
Y24920D01*
X20400D01*
D02*
G37*
G36*
X21130D02*
Y25320D01*
X21000D01*
Y24920D01*
X21130D01*
D02*
G37*
G36*
X21900D02*
Y25320D01*
X21770D01*
Y24920D01*
X21900D01*
D02*
G37*
G36*
Y25420D02*
Y25820D01*
X21770D01*
Y25420D01*
X21900D01*
D02*
G37*
G36*
X21780Y24254D02*
Y24500D01*
X21534D01*
X21538Y24472D01*
X21568Y24399D01*
X21616Y24336D01*
X21679Y24288D01*
X21752Y24258D01*
X21780Y24254D01*
D02*
G37*
G36*
X22126Y24600D02*
X22122Y24628D01*
X22092Y24701D01*
X22044Y24764D01*
X21981Y24812D01*
X21908Y24842D01*
X21880Y24846D01*
Y24600D01*
X22126D01*
D02*
G37*
G36*
X22130Y24920D02*
Y25320D01*
X22000D01*
Y24920D01*
X22130D01*
D02*
G37*
G36*
Y25420D02*
Y25820D01*
X22000D01*
Y25420D01*
X22130D01*
D02*
G37*
G36*
X22126Y24500D02*
X21880D01*
Y24254D01*
X21908Y24258D01*
X21981Y24288D01*
X22044Y24336D01*
X22092Y24399D01*
X22122Y24472D01*
X22126Y24500D01*
D02*
G37*
G36*
X21400Y25420D02*
Y25820D01*
X21270D01*
Y25420D01*
X21400D01*
D02*
G37*
G36*
X21466Y24500D02*
X21220D01*
Y24254D01*
X21248Y24258D01*
X21321Y24288D01*
X21384Y24336D01*
X21432Y24399D01*
X21462Y24472D01*
X21466Y24500D01*
D02*
G37*
G36*
Y24600D02*
X21462Y24628D01*
X21432Y24701D01*
X21384Y24764D01*
X21321Y24812D01*
X21248Y24842D01*
X21220Y24846D01*
Y24600D01*
X21466D01*
D02*
G37*
G36*
X21400Y24920D02*
Y25320D01*
X21270D01*
Y24920D01*
X21400D01*
D02*
G37*
G36*
X21780Y24600D02*
Y24846D01*
X21752Y24842D01*
X21679Y24812D01*
X21616Y24764D01*
X21568Y24701D01*
X21538Y24628D01*
X21534Y24600D01*
X21780D01*
D02*
G37*
G36*
X21630Y24920D02*
Y25320D01*
X21500D01*
Y24920D01*
X21630D01*
D02*
G37*
G36*
Y25420D02*
Y25820D01*
X21500D01*
Y25420D01*
X21630D01*
D02*
G37*
%LPD*%
G36*
X26587Y23590D02*
X26584Y23601D01*
X26584D01*
X26584Y23601D01*
Y24417D01*
X26600D01*
Y25383D01*
X26584D01*
Y26014D01*
X27500Y26850D01*
X28510D01*
Y25540D01*
X28070D01*
Y24330D01*
X28510D01*
Y23590D01*
X26587D01*
D02*
G37*
%LPC*%
G36*
X27366Y25840D02*
X27362Y25868D01*
X27332Y25941D01*
X27284Y26004D01*
X27221Y26052D01*
X27148Y26082D01*
X27120Y26086D01*
Y25840D01*
X27366D01*
D02*
G37*
G36*
X27030Y23684D02*
Y23930D01*
X26784D01*
X26788Y23902D01*
X26818Y23829D01*
X26866Y23766D01*
X26929Y23718D01*
X27002Y23688D01*
X27030Y23684D01*
D02*
G37*
G36*
X27376Y24030D02*
X27372Y24058D01*
X27342Y24131D01*
X27294Y24194D01*
X27231Y24242D01*
X27158Y24272D01*
X27130Y24276D01*
Y24030D01*
X27376D01*
D02*
G37*
G36*
X27366Y25740D02*
X27120D01*
Y25494D01*
X27148Y25498D01*
X27221Y25528D01*
X27284Y25576D01*
X27332Y25639D01*
X27362Y25712D01*
X27366Y25740D01*
D02*
G37*
G36*
X27030Y24030D02*
Y24276D01*
X27002Y24272D01*
X26929Y24242D01*
X26866Y24194D01*
X26818Y24131D01*
X26788Y24058D01*
X26784Y24030D01*
X27030D01*
D02*
G37*
G36*
X27232Y24417D02*
Y24850D01*
X26700D01*
Y24417D01*
X27232D01*
D02*
G37*
G36*
Y24950D02*
Y25383D01*
X26700D01*
Y24950D01*
X27232D01*
D02*
G37*
G36*
X27020Y25494D02*
Y25740D01*
X26774D01*
X26778Y25712D01*
X26808Y25639D01*
X26856Y25576D01*
X26919Y25528D01*
X26992Y25498D01*
X27020Y25494D01*
D02*
G37*
G36*
Y25840D02*
Y26086D01*
X26992Y26082D01*
X26919Y26052D01*
X26856Y26004D01*
X26808Y25941D01*
X26778Y25868D01*
X26774Y25840D01*
X27020D01*
D02*
G37*
G36*
X28156Y26410D02*
X27910D01*
Y26164D01*
X27938Y26168D01*
X28011Y26198D01*
X28074Y26246D01*
X28122Y26309D01*
X28152Y26382D01*
X28156Y26410D01*
D02*
G37*
G36*
Y26510D02*
X28152Y26538D01*
X28122Y26611D01*
X28074Y26674D01*
X28011Y26722D01*
X27938Y26752D01*
X27910Y26756D01*
Y26510D01*
X28156D01*
D02*
G37*
G36*
Y23910D02*
X27910D01*
Y23664D01*
X27938Y23668D01*
X28011Y23698D01*
X28074Y23746D01*
X28122Y23809D01*
X28152Y23882D01*
X28156Y23910D01*
D02*
G37*
G36*
Y24010D02*
X28152Y24038D01*
X28122Y24111D01*
X28074Y24174D01*
X28011Y24222D01*
X27938Y24252D01*
X27910Y24256D01*
Y24010D01*
X28156D01*
D02*
G37*
G36*
X27810Y23664D02*
Y23910D01*
X27564D01*
X27568Y23882D01*
X27598Y23809D01*
X27646Y23746D01*
X27709Y23698D01*
X27782Y23668D01*
X27810Y23664D01*
D02*
G37*
G36*
Y26510D02*
Y26756D01*
X27782Y26752D01*
X27709Y26722D01*
X27646Y26674D01*
X27598Y26611D01*
X27568Y26538D01*
X27564Y26510D01*
X27810D01*
D02*
G37*
G36*
X27376Y23930D02*
X27130D01*
Y23684D01*
X27158Y23688D01*
X27231Y23718D01*
X27294Y23766D01*
X27342Y23829D01*
X27372Y23902D01*
X27376Y23930D01*
D02*
G37*
G36*
X27810Y24010D02*
Y24256D01*
X27782Y24252D01*
X27709Y24222D01*
X27646Y24174D01*
X27598Y24111D01*
X27568Y24038D01*
X27564Y24010D01*
X27810D01*
D02*
G37*
G36*
Y26164D02*
Y26410D01*
X27564D01*
X27568Y26382D01*
X27598Y26309D01*
X27646Y26246D01*
X27709Y26198D01*
X27782Y26168D01*
X27810Y26164D01*
D02*
G37*
%LPD*%
G36*
X44600Y39650D02*
Y13050D01*
X44550Y13000D01*
X36400D01*
Y39650D01*
X44600D01*
D02*
G37*
%LPC*%
G36*
X41750Y13800D02*
Y13202D01*
X41827Y13209D01*
X41950Y13247D01*
X42063Y13307D01*
X42162Y13388D01*
X42243Y13487D01*
X42303Y13600D01*
X42341Y13723D01*
X42348Y13800D01*
X41750D01*
D02*
G37*
G36*
X39297Y19604D02*
X39310Y19500D01*
X39351Y19403D01*
X39415Y19319D01*
X39498Y19255D01*
X39596Y19215D01*
X39700Y19201D01*
X39804Y19215D01*
X39893Y19251D01*
X42347D01*
Y18700D01*
X42359Y18609D01*
X42394Y18523D01*
X42440Y18464D01*
Y18220D01*
D01*
D01*
X42440Y18220D01*
Y18180D01*
X42440D01*
Y17836D01*
X42394Y17777D01*
X42359Y17691D01*
X42347Y17600D01*
Y16121D01*
X42298Y16109D01*
X42243Y16213D01*
X42162Y16312D01*
X42063Y16393D01*
X41950Y16453D01*
X41827Y16491D01*
X41750Y16498D01*
Y15202D01*
X41827Y15209D01*
X41950Y15247D01*
X42063Y15307D01*
X42162Y15388D01*
X42243Y15487D01*
X42298Y15591D01*
X42347Y15579D01*
Y15336D01*
X42274Y15276D01*
X42199Y15185D01*
X42143Y15081D01*
X42109Y14968D01*
X42097Y14850D01*
X42109Y14732D01*
X42143Y14619D01*
X42199Y14515D01*
X42274Y14424D01*
X42365Y14349D01*
X42469Y14293D01*
X42582Y14259D01*
X42700Y14247D01*
X42818Y14259D01*
X42931Y14293D01*
X43035Y14349D01*
X43126Y14424D01*
X43201Y14515D01*
X43257Y14619D01*
X43291Y14732D01*
X43303Y14850D01*
X43291Y14968D01*
X43257Y15081D01*
X43201Y15185D01*
X43126Y15276D01*
X43053Y15336D01*
Y15579D01*
X43102Y15591D01*
X43157Y15487D01*
X43238Y15388D01*
X43337Y15307D01*
X43450Y15247D01*
X43573Y15209D01*
X43650Y15202D01*
Y16498D01*
X43573Y16491D01*
X43450Y16453D01*
X43337Y16393D01*
X43238Y16312D01*
X43157Y16213D01*
X43097Y16100D01*
X43060Y15981D01*
X43060D01*
Y15981D01*
X43059Y15977D01*
X43059D01*
X43053Y15978D01*
Y16897D01*
X43350D01*
X43441Y16909D01*
X43527Y16944D01*
X43586Y16990D01*
X43830D01*
X43830Y16990D01*
X43870Y16990D01*
Y16990D01*
X44100D01*
Y17510D01*
X43870D01*
D01*
X43870D01*
X43870Y17510D01*
X43830D01*
Y17510D01*
X43586D01*
X43527Y17556D01*
X43441Y17591D01*
X43350Y17603D01*
X43053D01*
X43041Y17691D01*
X43006Y17777D01*
X42960Y17836D01*
Y18180D01*
X42960D01*
Y18180D01*
X42960Y18180D01*
Y18220D01*
X42960D01*
Y18464D01*
X43006Y18523D01*
X43041Y18609D01*
X43053Y18700D01*
Y18990D01*
X43197D01*
Y18750D01*
X43209Y18659D01*
X43244Y18573D01*
X43270Y18540D01*
Y18240D01*
X43830D01*
X43830Y18240D01*
X43870Y18240D01*
Y18240D01*
X44100D01*
Y18760D01*
X43903D01*
Y19790D01*
X44100D01*
Y20310D01*
X43870D01*
D01*
X43870D01*
X43870Y20310D01*
X43830D01*
Y20310D01*
X43270D01*
Y20010D01*
X43244Y19977D01*
X43209Y19891D01*
X43197Y19800D01*
Y19510D01*
X43053D01*
Y19850D01*
X43041Y19941D01*
X43006Y20027D01*
X42960Y20086D01*
Y20330D01*
X42960D01*
Y20330D01*
X42960Y20330D01*
Y20370D01*
X42960D01*
Y20614D01*
X43006Y20673D01*
X43041Y20759D01*
X43053Y20850D01*
Y21100D01*
X43120D01*
Y21898D01*
X42322D01*
Y21100D01*
X42347D01*
Y20850D01*
X42359Y20759D01*
X42394Y20673D01*
X42440Y20614D01*
Y20370D01*
D01*
D01*
X42440Y20370D01*
Y20330D01*
X42440D01*
Y20086D01*
X42394Y20027D01*
X42366Y19957D01*
X39893D01*
X39804Y19994D01*
X39700Y20008D01*
X39596Y19994D01*
X39498Y19954D01*
X39415Y19890D01*
X39351Y19806D01*
X39310Y19709D01*
X39297Y19604D01*
D02*
G37*
G36*
X41750Y14498D02*
Y13900D01*
X42348D01*
X42341Y13977D01*
X42303Y14100D01*
X42243Y14213D01*
X42162Y14312D01*
X42063Y14393D01*
X41950Y14453D01*
X41827Y14491D01*
X41750Y14498D01*
D02*
G37*
G36*
Y39548D02*
Y38950D01*
X42348D01*
X42341Y39027D01*
X42303Y39150D01*
X42243Y39263D01*
X42162Y39362D01*
X42063Y39443D01*
X41950Y39503D01*
X41827Y39541D01*
X41750Y39548D01*
D02*
G37*
G36*
Y38850D02*
Y38252D01*
X41827Y38259D01*
X41950Y38297D01*
X42063Y38357D01*
X42162Y38438D01*
X42243Y38537D01*
X42303Y38650D01*
X42341Y38773D01*
X42348Y38850D01*
X41750D01*
D02*
G37*
G36*
X43052Y13800D02*
X43059Y13723D01*
X43097Y13600D01*
X43157Y13487D01*
X43238Y13388D01*
X43337Y13307D01*
X43450Y13247D01*
X43573Y13209D01*
X43650Y13202D01*
Y13800D01*
X43052D01*
D02*
G37*
G36*
X43750Y39548D02*
Y38950D01*
X44348D01*
X44341Y39027D01*
X44303Y39150D01*
X44243Y39263D01*
X44162Y39362D01*
X44063Y39443D01*
X43950Y39503D01*
X43827Y39541D01*
X43750Y39548D01*
D02*
G37*
G36*
X43052Y13900D02*
X43650D01*
Y14498D01*
X43573Y14491D01*
X43450Y14453D01*
X43337Y14393D01*
X43238Y14312D01*
X43157Y14213D01*
X43097Y14100D01*
X43059Y13977D01*
X43052Y13900D01*
D02*
G37*
G36*
Y38950D02*
X43650D01*
Y39548D01*
X43573Y39541D01*
X43450Y39503D01*
X43337Y39443D01*
X43238Y39362D01*
X43157Y39263D01*
X43097Y39150D01*
X43059Y39027D01*
X43052Y38950D01*
D02*
G37*
G36*
Y38850D02*
X43059Y38773D01*
X43097Y38650D01*
X43157Y38537D01*
X43238Y38438D01*
X43337Y38357D01*
X43450Y38297D01*
X43573Y38259D01*
X43650Y38252D01*
Y38850D01*
X43052D01*
D02*
G37*
G36*
X41052Y13800D02*
X41059Y13723D01*
X41097Y13600D01*
X41157Y13487D01*
X41238Y13388D01*
X41337Y13307D01*
X41450Y13247D01*
X41573Y13209D01*
X41650Y13202D01*
Y13800D01*
X41052D01*
D02*
G37*
G36*
Y38950D02*
X41650D01*
Y39548D01*
X41573Y39541D01*
X41450Y39503D01*
X41337Y39443D01*
X41238Y39362D01*
X41157Y39263D01*
X41097Y39150D01*
X41059Y39027D01*
X41052Y38950D01*
D02*
G37*
G36*
Y38850D02*
X41059Y38773D01*
X41097Y38650D01*
X41157Y38537D01*
X41238Y38438D01*
X41337Y38357D01*
X41450Y38297D01*
X41573Y38259D01*
X41650Y38252D01*
Y38850D01*
X41052D01*
D02*
G37*
G36*
X41250Y24930D02*
Y24700D01*
X41460D01*
Y24930D01*
X41250D01*
D02*
G37*
G36*
X41092Y33450D02*
Y32977D01*
X41407D01*
Y33450D01*
X41092D01*
D02*
G37*
G36*
X41250Y32730D02*
Y32500D01*
X41460D01*
Y32730D01*
X41250D01*
D02*
G37*
G36*
X41052Y15800D02*
X41059Y15723D01*
X41097Y15600D01*
X41157Y15487D01*
X41238Y15388D01*
X41337Y15307D01*
X41450Y15247D01*
X41573Y15209D01*
X41650Y15202D01*
Y15800D01*
X41052D01*
D02*
G37*
G36*
Y13900D02*
X41650D01*
Y14498D01*
X41573Y14491D01*
X41450Y14453D01*
X41337Y14393D01*
X41238Y14312D01*
X41157Y14213D01*
X41097Y14100D01*
X41059Y13977D01*
X41052Y13900D01*
D02*
G37*
G36*
Y15900D02*
X41650D01*
Y16498D01*
X41573Y16491D01*
X41450Y16453D01*
X41337Y16393D01*
X41238Y16312D01*
X41157Y16213D01*
X41097Y16100D01*
X41059Y15977D01*
X41052Y15900D01*
D02*
G37*
G36*
Y36950D02*
X41650D01*
Y37548D01*
X41573Y37541D01*
X41450Y37503D01*
X41337Y37443D01*
X41238Y37362D01*
X41157Y37263D01*
X41097Y37150D01*
X41059Y37027D01*
X41052Y36950D01*
D02*
G37*
G36*
Y36850D02*
X41059Y36773D01*
X41097Y36650D01*
X41157Y36537D01*
X41238Y36438D01*
X41337Y36357D01*
X41450Y36297D01*
X41573Y36259D01*
X41650Y36252D01*
Y36850D01*
X41052D01*
D02*
G37*
G36*
X44200Y35150D02*
Y34840D01*
X44443D01*
Y35150D01*
X44200D01*
D02*
G37*
G36*
Y34110D02*
Y33800D01*
X44443D01*
Y34110D01*
X44200D01*
D02*
G37*
G36*
Y35560D02*
Y35250D01*
X44443D01*
Y35560D01*
X44200D01*
D02*
G37*
G36*
Y17510D02*
Y17300D01*
X44430D01*
Y17510D01*
X44200D01*
D02*
G37*
G36*
Y17200D02*
Y16990D01*
X44430D01*
Y17200D01*
X44200D01*
D02*
G37*
G36*
Y26360D02*
Y26050D01*
X44443D01*
Y26360D01*
X44200D01*
D02*
G37*
G36*
Y25950D02*
Y25640D01*
X44443D01*
Y25950D01*
X44200D01*
D02*
G37*
G36*
Y27550D02*
Y27240D01*
X44443D01*
Y27550D01*
X44200D01*
D02*
G37*
G36*
Y33700D02*
Y33390D01*
X44443D01*
Y33700D01*
X44200D01*
D02*
G37*
G36*
Y27960D02*
Y27650D01*
X44443D01*
Y27960D01*
X44200D01*
D02*
G37*
G36*
Y18450D02*
Y18240D01*
X44430D01*
Y18450D01*
X44200D01*
D02*
G37*
G36*
X43750Y16498D02*
Y15900D01*
X44348D01*
X44341Y15977D01*
X44303Y16100D01*
X44243Y16213D01*
X44162Y16312D01*
X44063Y16393D01*
X43950Y16453D01*
X43827Y16491D01*
X43750Y16498D01*
D02*
G37*
G36*
Y15800D02*
Y15202D01*
X43827Y15209D01*
X43950Y15247D01*
X44063Y15307D01*
X44162Y15388D01*
X44243Y15487D01*
X44303Y15600D01*
X44341Y15723D01*
X44348Y15800D01*
X43750D01*
D02*
G37*
G36*
Y36850D02*
Y36252D01*
X43827Y36259D01*
X43950Y36297D01*
X44063Y36357D01*
X44162Y36438D01*
X44243Y36537D01*
X44303Y36650D01*
X44341Y36773D01*
X44348Y36850D01*
X43750D01*
D02*
G37*
G36*
Y38850D02*
Y38252D01*
X43827Y38259D01*
X43950Y38297D01*
X44063Y38357D01*
X44162Y38438D01*
X44243Y38537D01*
X44303Y38650D01*
X44341Y38773D01*
X44348Y38850D01*
X43750D01*
D02*
G37*
G36*
Y37548D02*
Y36950D01*
X44348D01*
X44341Y37027D01*
X44303Y37150D01*
X44243Y37263D01*
X44162Y37362D01*
X44063Y37443D01*
X43950Y37503D01*
X43827Y37541D01*
X43750Y37548D01*
D02*
G37*
G36*
X44200Y20000D02*
Y19790D01*
X44430D01*
Y20000D01*
X44200D01*
D02*
G37*
G36*
Y18760D02*
Y18550D01*
X44430D01*
Y18760D01*
X44200D01*
D02*
G37*
G36*
Y20310D02*
Y20100D01*
X44430D01*
Y20310D01*
X44200D01*
D02*
G37*
G36*
X43750Y14498D02*
Y13900D01*
X44348D01*
X44341Y13977D01*
X44303Y14100D01*
X44243Y14213D01*
X44162Y14312D01*
X44063Y14393D01*
X43950Y14453D01*
X43827Y14491D01*
X43750Y14498D01*
D02*
G37*
G36*
Y13800D02*
Y13202D01*
X43827Y13209D01*
X43950Y13247D01*
X44063Y13307D01*
X44162Y13388D01*
X44243Y13487D01*
X44303Y13600D01*
X44341Y13723D01*
X44348Y13800D01*
X43750D01*
D02*
G37*
G36*
X41092Y34023D02*
Y33550D01*
X41407D01*
Y34023D01*
X41092D01*
D02*
G37*
G36*
X39255Y38395D02*
Y38050D01*
X39600D01*
Y38395D01*
X39255D01*
D02*
G37*
G36*
Y37950D02*
Y37605D01*
X39600D01*
Y37950D01*
X39255D01*
D02*
G37*
G36*
X39150Y36420D02*
Y36300D01*
X39400D01*
Y36420D01*
X39150D01*
D02*
G37*
G36*
X38650Y28300D02*
Y28050D01*
X38770D01*
Y28300D01*
X38650D01*
D02*
G37*
G36*
X38251Y38000D02*
X38265Y37897D01*
X38305Y37801D01*
X38368Y37718D01*
X38451Y37655D01*
X38547Y37615D01*
X38650Y37601D01*
X38753Y37615D01*
X38849Y37655D01*
X38932Y37718D01*
X38995Y37801D01*
X39035Y37897D01*
X39049Y38000D01*
X39035Y38103D01*
X38995Y38199D01*
X38932Y38282D01*
X38849Y38345D01*
X38753Y38385D01*
X38650Y38399D01*
X38547Y38385D01*
X38451Y38345D01*
X38368Y38282D01*
X38305Y38199D01*
X38265Y38103D01*
X38251Y38000D01*
D02*
G37*
G36*
X39500Y36420D02*
Y36300D01*
X39750D01*
Y36420D01*
X39500D01*
D02*
G37*
G36*
X39700Y32730D02*
Y32500D01*
X39910D01*
Y32730D01*
X39700D01*
D02*
G37*
G36*
X39177Y16008D02*
Y15693D01*
X39650D01*
Y16008D01*
X39177D01*
D02*
G37*
G36*
X39390Y32730D02*
Y32500D01*
X39600D01*
Y32730D01*
X39390D01*
D02*
G37*
G36*
X39177Y16424D02*
Y16108D01*
X39650D01*
Y16424D01*
X39177D01*
D02*
G37*
G36*
X37251Y38000D02*
X37265Y37897D01*
X37305Y37801D01*
X37368Y37718D01*
X37451Y37655D01*
X37547Y37615D01*
X37650Y37601D01*
X37753Y37615D01*
X37849Y37655D01*
X37932Y37718D01*
X37995Y37801D01*
X38035Y37897D01*
X38049Y38000D01*
X38035Y38103D01*
X37995Y38199D01*
X37932Y38282D01*
X37849Y38345D01*
X37753Y38385D01*
X37650Y38399D01*
X37547Y38385D01*
X37451Y38345D01*
X37368Y38282D01*
X37305Y38199D01*
X37265Y38103D01*
X37251Y38000D01*
D02*
G37*
G36*
X37920Y35060D02*
Y34850D01*
X38150D01*
Y35060D01*
X37920D01*
D02*
G37*
G36*
X36740Y27870D02*
X36740Y27839D01*
Y27830D01*
X36740D01*
Y27830D01*
Y27830D01*
Y27270D01*
X37260D01*
Y27397D01*
X37497D01*
Y27000D01*
X37497Y27000D01*
X37509Y26909D01*
X37544Y26823D01*
X37600Y26750D01*
X38750Y25600D01*
X38823Y25544D01*
X38909Y25509D01*
X39000Y25497D01*
X39434D01*
Y25433D01*
X39300Y25300D01*
X39244Y25227D01*
X39209Y25141D01*
X39197Y25050D01*
Y24968D01*
X39190D01*
Y24383D01*
D01*
D01*
X39190Y24383D01*
Y24343D01*
X39190D01*
Y23758D01*
X39356D01*
X39373Y23744D01*
X39459Y23709D01*
X39550Y23697D01*
X40400D01*
X41200D01*
X41782D01*
Y23640D01*
X42332D01*
X42332Y23640D01*
Y23640D01*
X42368Y23640D01*
X42368Y23640D01*
Y23300D01*
X42322D01*
Y22502D01*
X43120D01*
Y23300D01*
X43074D01*
Y24750D01*
X43062Y24841D01*
X43027Y24927D01*
X42970Y25000D01*
X42960Y25008D01*
Y25280D01*
X42960D01*
Y25280D01*
X42960Y25280D01*
Y25320D01*
X42960D01*
Y25564D01*
X43006Y25623D01*
X43015Y25647D01*
X43232D01*
Y25640D01*
X43818D01*
X43818Y25640D01*
X43857Y25640D01*
Y25640D01*
X44100D01*
Y26360D01*
X43857D01*
D01*
X43857D01*
X43857Y26360D01*
X43818D01*
Y26360D01*
X43232D01*
Y26353D01*
X43046D01*
X43041Y26391D01*
X43010Y26466D01*
Y26767D01*
X43010D01*
Y26767D01*
X43010Y26767D01*
Y26807D01*
X43010D01*
Y27247D01*
X43232D01*
Y27240D01*
X43818D01*
X43818Y27240D01*
X43857Y27240D01*
Y27240D01*
X44100D01*
Y27960D01*
X43857D01*
D01*
X43857D01*
X43857Y27960D01*
X43818D01*
Y27960D01*
X43232D01*
Y27953D01*
X42965D01*
X42960Y27966D01*
Y28230D01*
X42960D01*
Y28230D01*
X42960Y28230D01*
Y28270D01*
X42960D01*
Y28464D01*
X43006Y28523D01*
X43041Y28609D01*
X43053Y28700D01*
Y28950D01*
X43120D01*
Y29748D01*
X42322D01*
Y28950D01*
X42347D01*
Y28700D01*
X42359Y28609D01*
X42394Y28523D01*
X42440Y28464D01*
Y28270D01*
D01*
D01*
X42440Y28270D01*
Y28230D01*
X42440D01*
Y28080D01*
X42400Y28050D01*
X42344Y27977D01*
X42309Y27891D01*
X42297Y27800D01*
Y27392D01*
X42290D01*
Y26807D01*
D01*
D01*
X42290Y26807D01*
Y26767D01*
X42290D01*
Y26182D01*
X42347D01*
Y25800D01*
X42359Y25709D01*
X42394Y25623D01*
X42440Y25564D01*
Y25320D01*
D01*
D01*
X42440Y25320D01*
Y25280D01*
X42440D01*
Y24959D01*
X42415Y24927D01*
X42380Y24841D01*
X42368Y24750D01*
Y24360D01*
X42368Y24360D01*
X42332Y24360D01*
X42332Y24360D01*
Y24360D01*
X42066D01*
X41991Y24391D01*
X41900Y24403D01*
X41460D01*
Y24600D01*
X41200D01*
X40940D01*
Y24403D01*
X40660D01*
Y24600D01*
X40400D01*
X40140D01*
Y24403D01*
X39910D01*
Y24911D01*
X40050Y25050D01*
X40050Y25050D01*
Y25050D01*
X40050Y25050D01*
Y25050D01*
X40050Y25050D01*
X40050D01*
X40050D01*
D01*
D01*
Y25050D01*
X40050D01*
X40106Y25123D01*
X40141Y25209D01*
X40153Y25300D01*
Y25327D01*
X40166D01*
Y26373D01*
X39434D01*
Y26203D01*
X39146D01*
X38203Y27146D01*
Y27390D01*
X38730D01*
Y27910D01*
X38503D01*
Y28050D01*
X38520D01*
X38550D01*
Y28650D01*
X38520D01*
X38270D01*
X38253D01*
Y28900D01*
X38241Y28959D01*
X38208Y29008D01*
X37908Y29308D01*
X37859Y29341D01*
X37800Y29353D01*
X37410D01*
Y29550D01*
X37150D01*
X36890D01*
Y29320D01*
D01*
D01*
X36890Y29320D01*
Y29280D01*
X36890D01*
Y28955D01*
X36859Y28909D01*
X36847Y28850D01*
Y28430D01*
X36740D01*
Y27870D01*
X36740D01*
D02*
G37*
G36*
X36890Y29880D02*
Y29650D01*
X37100D01*
Y29880D01*
X36890D01*
D02*
G37*
G36*
X37200D02*
Y29650D01*
X37410D01*
Y29880D01*
X37200D01*
D02*
G37*
G36*
X38250Y35060D02*
Y34540D01*
X38480D01*
X38480Y34540D01*
X38520Y34540D01*
Y34540D01*
X39080D01*
Y34547D01*
X39370D01*
Y34440D01*
X39897D01*
Y34023D01*
X39534D01*
Y33803D01*
X39250D01*
X39159Y33791D01*
X39073Y33756D01*
X39000Y33700D01*
X38550Y33250D01*
X38494Y33177D01*
X38459Y33091D01*
X38447Y33000D01*
Y32768D01*
X38440D01*
Y32183D01*
D01*
D01*
X38440Y32183D01*
Y32143D01*
X38440D01*
Y31558D01*
X38606D01*
X38623Y31544D01*
X38709Y31509D01*
X38800Y31497D01*
X39650D01*
X40400D01*
X41200D01*
X41782D01*
Y31390D01*
X42343D01*
X42378Y31354D01*
X42375Y31150D01*
X42322D01*
Y30352D01*
X43120D01*
Y31150D01*
X43116D01*
X43081Y31186D01*
X43103Y32444D01*
X43093Y32536D01*
X43059Y32621D01*
X43004Y32695D01*
X42960Y32730D01*
Y32980D01*
X42960D01*
Y32980D01*
X42960Y32980D01*
Y33020D01*
X42960D01*
Y33264D01*
X43006Y33323D01*
X43036Y33397D01*
X43232D01*
Y33390D01*
X43818D01*
X43818Y33390D01*
X43857Y33390D01*
Y33390D01*
X44100D01*
Y34110D01*
X43857D01*
D01*
X43857D01*
X43857Y34110D01*
X43818D01*
Y34110D01*
X43232D01*
Y34103D01*
X43015D01*
X43010Y34116D01*
Y34418D01*
X43010D01*
Y34418D01*
X43010Y34418D01*
Y34457D01*
X43010D01*
Y34847D01*
X43232D01*
Y34840D01*
X43818D01*
X43818Y34840D01*
X43857Y34840D01*
Y34840D01*
X44100D01*
Y35560D01*
X43857D01*
D01*
X43857D01*
X43857Y35560D01*
X43818D01*
Y35560D01*
X43232D01*
Y35553D01*
X43003D01*
Y36836D01*
X43053Y36838D01*
X43059Y36773D01*
X43097Y36650D01*
X43157Y36537D01*
X43238Y36438D01*
X43337Y36357D01*
X43450Y36297D01*
X43573Y36259D01*
X43650Y36252D01*
Y37548D01*
X43573Y37541D01*
X43450Y37503D01*
X43337Y37443D01*
X43238Y37362D01*
X43157Y37263D01*
X43097Y37150D01*
X43059Y37027D01*
X43053Y36962D01*
X43003Y36964D01*
Y37382D01*
X43035Y37399D01*
X43126Y37474D01*
X43201Y37565D01*
X43257Y37669D01*
X43291Y37782D01*
X43303Y37900D01*
X43291Y38018D01*
X43257Y38131D01*
X43201Y38235D01*
X43126Y38326D01*
X43035Y38401D01*
X42931Y38457D01*
X42818Y38491D01*
X42700Y38503D01*
X42582Y38491D01*
X42469Y38457D01*
X42365Y38401D01*
X42274Y38326D01*
X42199Y38235D01*
X42143Y38131D01*
X42109Y38018D01*
X42097Y37900D01*
X42109Y37782D01*
X42143Y37669D01*
X42199Y37565D01*
X42274Y37474D01*
X42297Y37455D01*
Y37265D01*
X42248Y37253D01*
X42243Y37263D01*
X42162Y37362D01*
X42063Y37443D01*
X41950Y37503D01*
X41827Y37541D01*
X41750Y37548D01*
Y36252D01*
X41827Y36259D01*
X41950Y36297D01*
X42063Y36357D01*
X42162Y36438D01*
X42243Y36537D01*
X42248Y36547D01*
X42297Y36535D01*
Y35043D01*
X42290D01*
Y34457D01*
D01*
D01*
X42290Y34457D01*
Y34418D01*
X42290D01*
Y33832D01*
X42347D01*
Y33500D01*
X42359Y33409D01*
X42394Y33323D01*
X42440Y33264D01*
Y33020D01*
D01*
D01*
X42440Y33020D01*
Y32980D01*
X42440D01*
Y32615D01*
X42411Y32547D01*
X42397Y32456D01*
X42391Y32110D01*
X42368D01*
X42368D01*
X42355Y32110D01*
X42355Y32110D01*
Y32110D01*
X42211D01*
X42152Y32156D01*
X42066Y32191D01*
X41975Y32203D01*
X41460D01*
Y32400D01*
X41200D01*
X40940D01*
Y32203D01*
X40660D01*
Y32400D01*
X40400D01*
X40140D01*
Y32203D01*
X39910D01*
Y32400D01*
X39650D01*
X39390D01*
Y32203D01*
X39160D01*
Y32768D01*
X39153D01*
Y32854D01*
X39396Y33097D01*
X39534D01*
Y32977D01*
X40266D01*
Y33366D01*
X40500Y33600D01*
X40556Y33673D01*
X40591Y33759D01*
X40603Y33850D01*
Y35150D01*
X40591Y35241D01*
X40556Y35327D01*
X40500Y35400D01*
X40427Y35456D01*
X40410Y35463D01*
Y35780D01*
X40410D01*
Y35780D01*
X40410Y35780D01*
Y35820D01*
X40410D01*
Y36380D01*
X39890D01*
Y36153D01*
X39750D01*
Y36200D01*
X39450D01*
X39150D01*
Y35903D01*
X38950D01*
X38891Y35891D01*
X38842Y35858D01*
X38492Y35508D01*
X38459Y35459D01*
X38447Y35400D01*
Y35060D01*
X38250D01*
D02*
G37*
G36*
X38650Y28650D02*
Y28400D01*
X38770D01*
Y28650D01*
X38650D01*
D02*
G37*
G36*
X36640Y35870D02*
X36640Y35839D01*
Y35830D01*
X36640D01*
Y35830D01*
Y35830D01*
Y35270D01*
X37160D01*
Y35347D01*
X37300D01*
Y35330D01*
X37900D01*
Y35330D01*
X37910D01*
X37912Y35322D01*
X37956Y35256D01*
X38022Y35212D01*
X38100Y35196D01*
X38178Y35212D01*
X38244Y35256D01*
X38288Y35322D01*
X38304Y35400D01*
X38288Y35478D01*
X38244Y35544D01*
X38178Y35588D01*
X38115Y35601D01*
X38108Y35608D01*
X38059Y35641D01*
X38000Y35653D01*
X37900D01*
Y36420D01*
X37300D01*
Y36403D01*
X37160D01*
Y36430D01*
X36640D01*
Y35870D01*
X36640D01*
D02*
G37*
G36*
X37920Y34750D02*
Y34540D01*
X38150D01*
Y34750D01*
X37920D01*
D02*
G37*
G36*
X37546Y29700D02*
X37562Y29622D01*
X37606Y29556D01*
X37672Y29512D01*
X37750Y29496D01*
X37828Y29512D01*
X37894Y29556D01*
X37938Y29622D01*
X37951Y29685D01*
X37958Y29692D01*
X37958Y29692D01*
X37958Y29692D01*
X37958D01*
X37958Y29692D01*
X37958D01*
X37991Y29741D01*
X38003Y29800D01*
Y29900D01*
X38020D01*
X38270D01*
X38520D01*
X38770D01*
Y30500D01*
X38753D01*
Y30640D01*
X38780D01*
Y31160D01*
X38220D01*
D01*
X38220D01*
X38220Y31160D01*
X38180D01*
Y31160D01*
X37620D01*
Y30640D01*
X37697D01*
Y30500D01*
X37680D01*
Y29900D01*
X37680D01*
Y29890D01*
X37672Y29888D01*
X37606Y29844D01*
X37562Y29778D01*
X37546Y29700D01*
D02*
G37*
G36*
X39700Y38395D02*
Y38050D01*
X40045D01*
Y38395D01*
X39700D01*
D02*
G37*
G36*
X40676Y33450D02*
Y32977D01*
X40992D01*
Y33450D01*
X40676D01*
D02*
G37*
G36*
X40940Y32730D02*
Y32500D01*
X41150D01*
Y32730D01*
X40940D01*
D02*
G37*
G36*
X40676Y34023D02*
Y33550D01*
X40992D01*
Y34023D01*
X40676D01*
D02*
G37*
G36*
X40576Y26373D02*
Y25900D01*
X40892D01*
Y26373D01*
X40576D01*
D02*
G37*
G36*
Y25800D02*
Y25327D01*
X40892D01*
Y25800D01*
X40576D01*
D02*
G37*
G36*
X40992Y26373D02*
Y25900D01*
X41307D01*
Y26373D01*
X40992D01*
D02*
G37*
G36*
Y25800D02*
Y25327D01*
X41307D01*
Y25800D01*
X40992D01*
D02*
G37*
G36*
X40931Y18373D02*
Y18026D01*
X40986Y18034D01*
X41083Y18074D01*
X41166Y18138D01*
X41231Y18221D01*
X41271Y18319D01*
X41278Y18373D01*
X40931D01*
D02*
G37*
G36*
X40940Y24930D02*
Y24700D01*
X41150D01*
Y24930D01*
X40940D01*
D02*
G37*
G36*
X40931Y18820D02*
Y18473D01*
X41278D01*
X41271Y18528D01*
X41231Y18625D01*
X41166Y18709D01*
X41083Y18773D01*
X40986Y18813D01*
X40931Y18820D01*
D02*
G37*
G36*
X40484Y18373D02*
X40491Y18319D01*
X40532Y18221D01*
X40596Y18138D01*
X40679Y18074D01*
X40777Y18034D01*
X40831Y18026D01*
Y18373D01*
X40484D01*
D02*
G37*
G36*
X39750Y16424D02*
Y16108D01*
X40223D01*
Y16424D01*
X39750D01*
D02*
G37*
G36*
Y16008D02*
Y15693D01*
X40223D01*
Y16008D01*
X39750D01*
D02*
G37*
G36*
X39700Y37950D02*
Y37605D01*
X40045D01*
Y37950D01*
X39700D01*
D02*
G37*
G36*
X39177Y17566D02*
Y16834D01*
X40223D01*
Y17566D01*
X40053D01*
Y18230D01*
X40090Y18319D01*
X40103Y18423D01*
X40090Y18528D01*
X40049Y18625D01*
X39985Y18709D01*
X39902Y18773D01*
X39804Y18813D01*
X39700Y18827D01*
X39596Y18813D01*
X39498Y18773D01*
X39415Y18709D01*
X39351Y18625D01*
X39310Y18528D01*
X39297Y18423D01*
X39310Y18319D01*
X39347Y18230D01*
Y17566D01*
X39177D01*
D02*
G37*
G36*
X40140Y32730D02*
Y32500D01*
X40350D01*
Y32730D01*
X40140D01*
D02*
G37*
G36*
X40450Y24930D02*
Y24700D01*
X40660D01*
Y24930D01*
X40450D01*
D02*
G37*
G36*
X40484Y18473D02*
X40831D01*
Y18820D01*
X40777Y18813D01*
X40679Y18773D01*
X40596Y18709D01*
X40532Y18625D01*
X40491Y18528D01*
X40484Y18473D01*
D02*
G37*
G36*
X40140Y24930D02*
Y24700D01*
X40350D01*
Y24930D01*
X40140D01*
D02*
G37*
G36*
X40450Y32730D02*
Y32500D01*
X40660D01*
Y32730D01*
X40450D01*
D02*
G37*
%LPD*%
G36*
X37410Y28720D02*
Y28736D01*
X37456Y28755D01*
X37496Y28716D01*
Y27750D01*
X37498Y27742D01*
X37466Y27703D01*
X37260D01*
Y27830D01*
X37260D01*
Y27830D01*
X37260Y27830D01*
Y27870D01*
X37260D01*
Y28430D01*
X37153D01*
Y28720D01*
X37410D01*
D02*
G37*
G36*
X39134Y35196D02*
X39865D01*
X39898Y35158D01*
X39897Y35150D01*
Y34960D01*
X39370D01*
Y34853D01*
X39080D01*
Y35060D01*
X39064D01*
X39045Y35106D01*
X39134Y35196D01*
D02*
G37*
G36*
X32777Y23590D02*
X32774Y23601D01*
X32774D01*
X32774Y23601D01*
Y24417D01*
X32790D01*
Y25383D01*
X32774D01*
Y26014D01*
X33690Y26850D01*
X34700D01*
Y25540D01*
X34260D01*
Y24330D01*
X34700D01*
Y23590D01*
X32777D01*
D02*
G37*
%LPC*%
G36*
X33556Y25840D02*
X33552Y25868D01*
X33522Y25941D01*
X33474Y26004D01*
X33411Y26052D01*
X33338Y26082D01*
X33310Y26086D01*
Y25840D01*
X33556D01*
D02*
G37*
G36*
X33220Y23684D02*
Y23930D01*
X32974D01*
X32978Y23902D01*
X33008Y23829D01*
X33056Y23766D01*
X33119Y23718D01*
X33192Y23688D01*
X33220Y23684D01*
D02*
G37*
G36*
X33566Y24030D02*
X33562Y24058D01*
X33532Y24131D01*
X33484Y24194D01*
X33421Y24242D01*
X33348Y24272D01*
X33320Y24276D01*
Y24030D01*
X33566D01*
D02*
G37*
G36*
X33556Y25740D02*
X33310D01*
Y25494D01*
X33338Y25498D01*
X33411Y25528D01*
X33474Y25576D01*
X33522Y25639D01*
X33552Y25712D01*
X33556Y25740D01*
D02*
G37*
G36*
X33220Y24030D02*
Y24276D01*
X33192Y24272D01*
X33119Y24242D01*
X33056Y24194D01*
X33008Y24131D01*
X32978Y24058D01*
X32974Y24030D01*
X33220D01*
D02*
G37*
G36*
X33421Y24417D02*
Y24850D01*
X32890D01*
Y24417D01*
X33421D01*
D02*
G37*
G36*
Y24950D02*
Y25383D01*
X32890D01*
Y24950D01*
X33421D01*
D02*
G37*
G36*
X33210Y25494D02*
Y25740D01*
X32964D01*
X32968Y25712D01*
X32998Y25639D01*
X33046Y25576D01*
X33109Y25528D01*
X33182Y25498D01*
X33210Y25494D01*
D02*
G37*
G36*
Y25840D02*
Y26086D01*
X33182Y26082D01*
X33109Y26052D01*
X33046Y26004D01*
X32998Y25941D01*
X32968Y25868D01*
X32964Y25840D01*
X33210D01*
D02*
G37*
G36*
X34346Y26410D02*
X34100D01*
Y26164D01*
X34128Y26168D01*
X34201Y26198D01*
X34264Y26246D01*
X34312Y26309D01*
X34342Y26382D01*
X34346Y26410D01*
D02*
G37*
G36*
Y26510D02*
X34342Y26538D01*
X34312Y26611D01*
X34264Y26674D01*
X34201Y26722D01*
X34128Y26752D01*
X34100Y26756D01*
Y26510D01*
X34346D01*
D02*
G37*
G36*
Y23910D02*
X34100D01*
Y23664D01*
X34128Y23668D01*
X34201Y23698D01*
X34264Y23746D01*
X34312Y23809D01*
X34342Y23882D01*
X34346Y23910D01*
D02*
G37*
G36*
Y24010D02*
X34342Y24038D01*
X34312Y24111D01*
X34264Y24174D01*
X34201Y24222D01*
X34128Y24252D01*
X34100Y24256D01*
Y24010D01*
X34346D01*
D02*
G37*
G36*
X34000Y23664D02*
Y23910D01*
X33754D01*
X33758Y23882D01*
X33788Y23809D01*
X33836Y23746D01*
X33899Y23698D01*
X33972Y23668D01*
X34000Y23664D01*
D02*
G37*
G36*
Y26510D02*
Y26756D01*
X33972Y26752D01*
X33899Y26722D01*
X33836Y26674D01*
X33788Y26611D01*
X33758Y26538D01*
X33754Y26510D01*
X34000D01*
D02*
G37*
G36*
X33566Y23930D02*
X33320D01*
Y23684D01*
X33348Y23688D01*
X33421Y23718D01*
X33484Y23766D01*
X33532Y23829D01*
X33562Y23902D01*
X33566Y23930D01*
D02*
G37*
G36*
X34000Y24010D02*
Y24256D01*
X33972Y24252D01*
X33899Y24222D01*
X33836Y24174D01*
X33788Y24111D01*
X33758Y24038D01*
X33754Y24010D01*
X34000D01*
D02*
G37*
G36*
Y26164D02*
Y26410D01*
X33754D01*
X33758Y26382D01*
X33788Y26309D01*
X33836Y26246D01*
X33899Y26198D01*
X33972Y26168D01*
X34000Y26164D01*
D02*
G37*
%LPD*%
G36*
X14022Y24080D02*
Y25020D01*
X14020Y25030D01*
Y26010D01*
X16180D01*
Y24080D01*
X14022D01*
D02*
G37*
%LPC*%
G36*
X14850Y24920D02*
Y25320D01*
X14720D01*
Y24920D01*
X14850D01*
D02*
G37*
G36*
Y25420D02*
Y25820D01*
X14720D01*
Y25420D01*
X14850D01*
D02*
G37*
G36*
X14716Y24490D02*
X14470D01*
Y24244D01*
X14498Y24248D01*
X14571Y24278D01*
X14634Y24326D01*
X14682Y24389D01*
X14712Y24462D01*
X14716Y24490D01*
D02*
G37*
G36*
X15080Y25420D02*
Y25820D01*
X14950D01*
Y25420D01*
X15080D01*
D02*
G37*
G36*
X15070Y24254D02*
Y24500D01*
X14824D01*
X14828Y24472D01*
X14858Y24399D01*
X14906Y24336D01*
X14969Y24288D01*
X15042Y24258D01*
X15070Y24254D01*
D02*
G37*
G36*
Y24600D02*
Y24846D01*
X15042Y24842D01*
X14969Y24812D01*
X14906Y24764D01*
X14858Y24701D01*
X14828Y24628D01*
X14824Y24600D01*
X15070D01*
D02*
G37*
G36*
X14716Y24590D02*
X14712Y24618D01*
X14682Y24691D01*
X14634Y24754D01*
X14571Y24802D01*
X14498Y24832D01*
X14470Y24836D01*
Y24590D01*
X14716D01*
D02*
G37*
G36*
X14350Y25420D02*
Y25820D01*
X14220D01*
Y25420D01*
X14350D01*
D02*
G37*
G36*
X14370Y24244D02*
Y24490D01*
X14124D01*
X14128Y24462D01*
X14158Y24389D01*
X14206Y24326D01*
X14269Y24278D01*
X14342Y24248D01*
X14370Y24244D01*
D02*
G37*
G36*
Y24590D02*
Y24836D01*
X14342Y24832D01*
X14269Y24802D01*
X14206Y24754D01*
X14158Y24691D01*
X14128Y24618D01*
X14124Y24590D01*
X14370D01*
D02*
G37*
G36*
X14580Y24920D02*
Y25320D01*
X14450D01*
Y24920D01*
X14580D01*
D02*
G37*
G36*
Y25420D02*
Y25820D01*
X14450D01*
Y25420D01*
X14580D01*
D02*
G37*
G36*
X14350Y24920D02*
Y25320D01*
X14220D01*
Y24920D01*
X14350D01*
D02*
G37*
G36*
X15080D02*
Y25320D01*
X14950D01*
Y24920D01*
X15080D01*
D02*
G37*
G36*
X15850D02*
Y25320D01*
X15720D01*
Y24920D01*
X15850D01*
D02*
G37*
G36*
Y25420D02*
Y25820D01*
X15720D01*
Y25420D01*
X15850D01*
D02*
G37*
G36*
X15730Y24254D02*
Y24500D01*
X15484D01*
X15488Y24472D01*
X15518Y24399D01*
X15566Y24336D01*
X15629Y24288D01*
X15702Y24258D01*
X15730Y24254D01*
D02*
G37*
G36*
X16076Y24600D02*
X16072Y24628D01*
X16042Y24701D01*
X15994Y24764D01*
X15931Y24812D01*
X15858Y24842D01*
X15830Y24846D01*
Y24600D01*
X16076D01*
D02*
G37*
G36*
X16080Y24920D02*
Y25320D01*
X15950D01*
Y24920D01*
X16080D01*
D02*
G37*
G36*
Y25420D02*
Y25820D01*
X15950D01*
Y25420D01*
X16080D01*
D02*
G37*
G36*
X16076Y24500D02*
X15830D01*
Y24254D01*
X15858Y24258D01*
X15931Y24288D01*
X15994Y24336D01*
X16042Y24399D01*
X16072Y24472D01*
X16076Y24500D01*
D02*
G37*
G36*
X15350Y25420D02*
Y25820D01*
X15220D01*
Y25420D01*
X15350D01*
D02*
G37*
G36*
X15416Y24500D02*
X15170D01*
Y24254D01*
X15198Y24258D01*
X15271Y24288D01*
X15334Y24336D01*
X15382Y24399D01*
X15412Y24472D01*
X15416Y24500D01*
D02*
G37*
G36*
Y24600D02*
X15412Y24628D01*
X15382Y24701D01*
X15334Y24764D01*
X15271Y24812D01*
X15198Y24842D01*
X15170Y24846D01*
Y24600D01*
X15416D01*
D02*
G37*
G36*
X15350Y24920D02*
Y25320D01*
X15220D01*
Y24920D01*
X15350D01*
D02*
G37*
G36*
X15730Y24600D02*
Y24846D01*
X15702Y24842D01*
X15629Y24812D01*
X15566Y24764D01*
X15518Y24701D01*
X15488Y24628D01*
X15484Y24600D01*
X15730D01*
D02*
G37*
G36*
X15580Y24920D02*
Y25320D01*
X15450D01*
Y24920D01*
X15580D01*
D02*
G37*
G36*
Y25420D02*
Y25820D01*
X15450D01*
Y25420D01*
X15580D01*
D02*
G37*
%LPD*%
D10*
X18280Y24280D02*
D03*
X18030D02*
D03*
X18530Y26130D02*
D03*
X18030D02*
D03*
X18280D02*
D03*
X17780Y24280D02*
D03*
Y26130D02*
D03*
X18530Y24280D02*
D03*
X37850Y30200D02*
D03*
X38600Y28350D02*
D03*
Y30200D02*
D03*
X38100Y28350D02*
D03*
X38350D02*
D03*
X37850D02*
D03*
X38350Y30200D02*
D03*
X38100D02*
D03*
X12230Y24280D02*
D03*
X11980D02*
D03*
X12480Y26130D02*
D03*
X11980D02*
D03*
X12230D02*
D03*
X11730Y24280D02*
D03*
Y26130D02*
D03*
X12480Y24280D02*
D03*
D11*
X19020Y19070D02*
D03*
X20070D02*
D03*
X12970D02*
D03*
X14020D02*
D03*
D12*
X18890Y31050D02*
D03*
Y30450D02*
D03*
Y32450D02*
D03*
Y31850D02*
D03*
X18940Y33450D02*
D03*
Y34050D02*
D03*
X19640D02*
D03*
Y33450D02*
D03*
X20420Y34400D02*
D03*
Y33800D02*
D03*
X19790Y29000D02*
D03*
Y28400D02*
D03*
X20490Y29000D02*
D03*
Y28400D02*
D03*
X21240Y33500D02*
D03*
Y34100D02*
D03*
X21940D02*
D03*
Y33500D02*
D03*
X21890Y31350D02*
D03*
Y31950D02*
D03*
X21690Y29400D02*
D03*
Y28800D02*
D03*
X28020Y27160D02*
D03*
Y27760D02*
D03*
X28220Y30310D02*
D03*
Y29710D02*
D03*
X28270Y31860D02*
D03*
Y32460D02*
D03*
X27570D02*
D03*
Y31860D02*
D03*
X26820Y26760D02*
D03*
Y27360D02*
D03*
X26120Y26760D02*
D03*
Y27360D02*
D03*
X25720Y23860D02*
D03*
Y24460D02*
D03*
X25020Y23860D02*
D03*
Y24460D02*
D03*
X26870Y32160D02*
D03*
Y32760D02*
D03*
X25970Y31810D02*
D03*
Y32410D02*
D03*
X25270D02*
D03*
Y31810D02*
D03*
X25220Y30210D02*
D03*
Y30810D02*
D03*
Y28810D02*
D03*
Y29410D02*
D03*
X42700Y17900D02*
D03*
Y18500D02*
D03*
Y20050D02*
D03*
Y20650D02*
D03*
Y25000D02*
D03*
Y25600D02*
D03*
Y27950D02*
D03*
Y28550D02*
D03*
Y32700D02*
D03*
Y33300D02*
D03*
X40400Y24650D02*
D03*
Y24050D02*
D03*
X41200Y32450D02*
D03*
Y31850D02*
D03*
Y24650D02*
D03*
Y24050D02*
D03*
X40400Y32450D02*
D03*
Y31850D02*
D03*
X39650Y32450D02*
D03*
Y31850D02*
D03*
X37000Y28150D02*
D03*
Y27550D02*
D03*
X37150Y29600D02*
D03*
Y29000D02*
D03*
X36900Y36150D02*
D03*
Y35550D02*
D03*
X40150Y36100D02*
D03*
Y35500D02*
D03*
X34210Y27160D02*
D03*
Y27760D02*
D03*
X34410Y30310D02*
D03*
Y29710D02*
D03*
X34460Y31860D02*
D03*
Y32460D02*
D03*
X33760D02*
D03*
Y31860D02*
D03*
X33010Y26760D02*
D03*
Y27360D02*
D03*
X32310Y26760D02*
D03*
Y27360D02*
D03*
X31910Y23860D02*
D03*
Y24460D02*
D03*
X31210Y23860D02*
D03*
Y24460D02*
D03*
X33060Y32160D02*
D03*
Y32760D02*
D03*
X32160Y31810D02*
D03*
Y32410D02*
D03*
X31460D02*
D03*
Y31810D02*
D03*
X31410Y30210D02*
D03*
Y30810D02*
D03*
Y28810D02*
D03*
Y29410D02*
D03*
X12840Y31050D02*
D03*
Y30450D02*
D03*
Y32450D02*
D03*
Y31850D02*
D03*
X12890Y33450D02*
D03*
Y34050D02*
D03*
X13590D02*
D03*
Y33450D02*
D03*
X14370Y34400D02*
D03*
Y33800D02*
D03*
X13740Y29000D02*
D03*
Y28400D02*
D03*
X14440Y29000D02*
D03*
Y28400D02*
D03*
X15190Y33500D02*
D03*
Y34100D02*
D03*
X15890D02*
D03*
Y33500D02*
D03*
X15840Y31350D02*
D03*
Y31950D02*
D03*
X15640Y29400D02*
D03*
Y28800D02*
D03*
D13*
X20980Y19100D02*
D03*
X28820Y17510D02*
D03*
X35010D02*
D03*
X14930Y19100D02*
D03*
D14*
X22161D02*
D03*
X27639Y17510D02*
D03*
X33829D02*
D03*
X16111Y19100D02*
D03*
D15*
X19230Y20980D02*
D03*
X21730D02*
D03*
X19230Y23120D02*
D03*
X21730D02*
D03*
X19660Y35900D02*
D03*
X22160D02*
D03*
X28520Y36060D02*
D03*
X26020D02*
D03*
X25920Y22360D02*
D03*
X28420D02*
D03*
X25920Y20160D02*
D03*
X28420D02*
D03*
X34710Y36060D02*
D03*
X32210D02*
D03*
X32110Y22360D02*
D03*
X34610D02*
D03*
X32110Y20160D02*
D03*
X34610D02*
D03*
X13180Y20980D02*
D03*
X15680D02*
D03*
X13180Y23120D02*
D03*
X15680D02*
D03*
X13610Y35900D02*
D03*
X16110D02*
D03*
D16*
X18560Y26840D02*
D03*
X17960D02*
D03*
X28170Y33910D02*
D03*
X28770D02*
D03*
Y33210D02*
D03*
X28170D02*
D03*
X25120Y34010D02*
D03*
X25720D02*
D03*
X28170Y34610D02*
D03*
X28770D02*
D03*
X25070Y25610D02*
D03*
X25670D02*
D03*
X26720Y18010D02*
D03*
X26120D02*
D03*
Y18710D02*
D03*
X26720D02*
D03*
X44150Y17250D02*
D03*
X43550D02*
D03*
X44150Y20050D02*
D03*
X43550D02*
D03*
X44150Y18500D02*
D03*
X43550D02*
D03*
X43300Y19250D02*
D03*
X42700D02*
D03*
X39650Y34700D02*
D03*
X40250D02*
D03*
X38500Y30900D02*
D03*
X37900D02*
D03*
X38450Y27650D02*
D03*
X37850D02*
D03*
X38200Y34800D02*
D03*
X38800D02*
D03*
X34360Y33910D02*
D03*
X34960D02*
D03*
Y33210D02*
D03*
X34360D02*
D03*
X31310Y34010D02*
D03*
X31910D02*
D03*
X34360Y34610D02*
D03*
X34960D02*
D03*
X31260Y25610D02*
D03*
X31860D02*
D03*
X32910Y18010D02*
D03*
X32310D02*
D03*
Y18710D02*
D03*
X32910D02*
D03*
X12510Y26840D02*
D03*
X11910D02*
D03*
D17*
X21950Y25370D02*
D03*
X20450Y27420D02*
D03*
X21450D02*
D03*
X21950D02*
D03*
X21450Y25370D02*
D03*
X20950D02*
D03*
X20450D02*
D03*
X20950Y27420D02*
D03*
X15900Y25370D02*
D03*
X14400Y27420D02*
D03*
X15400D02*
D03*
X15900D02*
D03*
X15400Y25370D02*
D03*
X14900D02*
D03*
X14400D02*
D03*
X14900Y27420D02*
D03*
D18*
X21296Y32642D02*
D03*
X21040D02*
D03*
X20784D02*
D03*
X20528D02*
D03*
X20272D02*
D03*
X20016D02*
D03*
X19760D02*
D03*
X19504D02*
D03*
X21296Y30398D02*
D03*
X21040D02*
D03*
X20784D02*
D03*
X20528D02*
D03*
X20272D02*
D03*
X20016D02*
D03*
X19760D02*
D03*
X19504D02*
D03*
X25824Y28688D02*
D03*
X26080D02*
D03*
X26336D02*
D03*
X26592D02*
D03*
X26848D02*
D03*
X27104D02*
D03*
X27360D02*
D03*
X27616D02*
D03*
X25824Y30932D02*
D03*
X26080D02*
D03*
X26336D02*
D03*
X26592D02*
D03*
X26848D02*
D03*
X27104D02*
D03*
X27360D02*
D03*
X27616D02*
D03*
X32014Y28688D02*
D03*
X32270D02*
D03*
X32526D02*
D03*
X32782D02*
D03*
X33038D02*
D03*
X33294D02*
D03*
X33550D02*
D03*
X33806D02*
D03*
X32014Y30932D02*
D03*
X32270D02*
D03*
X32526D02*
D03*
X32782D02*
D03*
X33038D02*
D03*
X33294D02*
D03*
X33550D02*
D03*
X33806D02*
D03*
X15246Y32642D02*
D03*
X14990D02*
D03*
X14734D02*
D03*
X14478D02*
D03*
X14222D02*
D03*
X13966D02*
D03*
X13710D02*
D03*
X13454D02*
D03*
X15246Y30398D02*
D03*
X14990D02*
D03*
X14734D02*
D03*
X14478D02*
D03*
X14222D02*
D03*
X13966D02*
D03*
X13710D02*
D03*
X13454D02*
D03*
D19*
X20400Y31520D02*
D03*
X26720Y29810D02*
D03*
X32910D02*
D03*
X14350Y31520D02*
D03*
D20*
X19690Y17750D02*
Y17080D01*
X18330Y17750D02*
X19690D01*
X18820Y17730D02*
Y17020D01*
X22810Y19100D02*
Y18736D01*
Y20350D02*
Y19100D01*
X22800Y23120D02*
Y20980D01*
Y28740D02*
Y23120D01*
X21006Y17746D02*
X21820D01*
X22810Y18736D02*
X21820Y17746D01*
X22800Y34100D02*
Y28740D01*
Y35900D02*
Y34100D01*
Y37400D02*
Y35900D01*
X21910Y38290D02*
X22800Y37400D01*
X20820Y17560D02*
Y17020D01*
X21006Y17746D02*
X20820Y17560D01*
X21820Y17746D02*
Y17020D01*
X22300Y27420D02*
X22700D01*
X18140Y30000D02*
Y28230D01*
X19210Y21000D02*
X19230Y20980D01*
X18140Y28230D02*
X18190Y28180D01*
X18926Y38270D02*
Y35834D01*
X18190Y28180D02*
X19040Y27330D01*
X19680Y26690D01*
X18790Y35880D02*
X18140Y35230D01*
Y30000D01*
X22800Y20980D02*
Y20350D01*
X19210Y24720D02*
Y21000D01*
X24660Y16110D02*
X25230Y15540D01*
X29140Y18710D02*
Y17096D01*
X29130Y20160D02*
Y18710D01*
Y22360D02*
Y20160D01*
Y31040D02*
Y22360D01*
Y33210D02*
Y31040D01*
Y36900D02*
Y33210D01*
X27170Y16060D02*
Y15460D01*
X27220Y16110D02*
X27170Y16060D01*
X27220Y16110D02*
X28154D01*
Y15476D01*
X25286Y38400D02*
Y35994D01*
X28230Y38400D02*
Y37800D01*
X29140Y17096D02*
X28154Y16110D01*
X28230Y37800D02*
X29130Y36900D01*
X25920Y21310D02*
Y20160D01*
Y22360D02*
Y21310D01*
Y20160D02*
X25270Y19510D01*
X30850Y16110D02*
X31420Y15540D01*
X35330Y18710D02*
Y17096D01*
X35320Y20160D02*
Y18710D01*
Y22360D02*
Y20160D01*
Y31040D02*
Y22360D01*
Y33210D02*
Y31040D01*
Y36900D02*
Y33210D01*
X33360Y16060D02*
Y15460D01*
X33410Y16110D02*
X33360Y16060D01*
X33410Y16110D02*
X34344D01*
Y15476D01*
X31476Y38400D02*
Y35994D01*
X34420Y38400D02*
Y37800D01*
X35330Y17096D02*
X34344Y16110D01*
X34420Y37800D02*
X35320Y36900D01*
X32110Y21310D02*
Y20160D01*
Y22360D02*
Y21310D01*
Y20160D02*
X31460Y19510D01*
X13640Y17750D02*
Y17080D01*
X12280Y17750D02*
X13640D01*
X12770Y17730D02*
Y17020D01*
X16760Y19100D02*
Y18736D01*
Y20350D02*
Y19100D01*
X16750Y23120D02*
Y20980D01*
Y28740D02*
Y23120D01*
X14956Y17746D02*
X15770D01*
X16760Y18736D02*
X15770Y17746D01*
X16750Y34100D02*
Y28740D01*
Y35900D02*
Y34100D01*
Y37400D02*
Y35900D01*
X15860Y38290D02*
X16750Y37400D01*
X14770Y17560D02*
Y17020D01*
X14956Y17746D02*
X14770Y17560D01*
X15770Y17746D02*
Y17020D01*
X16250Y27420D02*
X16650D01*
X12090Y30000D02*
Y28230D01*
X13160Y21000D02*
X13180Y20980D01*
X12090Y28230D02*
X12140Y28180D01*
X12876Y38270D02*
Y35834D01*
X12140Y28180D02*
X12990Y27330D01*
X13630Y26690D01*
X12740Y35880D02*
X12090Y35230D01*
Y30000D01*
X16750Y20980D02*
Y20350D01*
X13160Y24720D02*
Y21000D01*
D21*
X19690Y17810D02*
Y17080D01*
X21910Y38270D02*
Y37460D01*
Y38290D02*
Y38270D01*
X20950Y27420D02*
Y26690D01*
X20800Y26540D01*
X22830Y20980D02*
X22870Y20940D01*
X19020Y19820D02*
Y19070D01*
X20070Y17980D02*
X19840Y17750D01*
X20070Y18190D02*
X19690Y17810D01*
X20980Y19100D02*
X20070Y18190D01*
Y18900D02*
Y18190D01*
Y17980D01*
X21730Y23120D02*
X22800D01*
X22950D01*
X21730Y20980D02*
X22800D01*
X22830D01*
X22300Y19100D02*
X22810D01*
X22870Y19040D01*
X21910Y37460D02*
X21230Y36780D01*
Y34300D01*
X26720Y29810D02*
X26580Y29670D01*
X26484Y29574D01*
X40250Y34700D02*
Y35150D01*
X37850Y27000D02*
Y27500D01*
X40883Y32450D02*
X41042Y32608D01*
X40883Y32450D02*
X40400D01*
X42654Y19604D02*
X42700Y19650D01*
X42654Y19604D02*
X39700D01*
X41042Y32608D02*
Y33500D01*
X44150Y27600D02*
Y33750D01*
X40942Y24692D02*
Y25850D01*
X44150Y21519D02*
Y26000D01*
Y16300D02*
Y17250D01*
Y20050D02*
Y21269D01*
Y36450D02*
X43700Y36900D01*
X44150Y35200D02*
Y36450D01*
X41700Y17604D02*
X40881Y18423D01*
X41700Y15850D02*
Y17604D01*
X43700Y15850D02*
X44150Y16300D01*
X40942Y24650D02*
X40660D01*
X38800Y32650D02*
Y33000D01*
X39900Y33500D02*
X40250Y33850D01*
X38800Y33000D02*
X39250Y33450D01*
X39850D02*
X39250D01*
X40250Y33850D02*
Y34700D01*
X40400Y32450D02*
X39910D01*
X44150Y18500D02*
Y20050D01*
Y17250D02*
Y18500D01*
X39700Y17200D02*
Y18423D01*
X39800Y25850D02*
X39000D01*
X37850Y27000D01*
X39800Y25300D02*
Y25850D01*
X39550Y25050D02*
X39800Y25300D01*
X39550Y24800D02*
Y25050D01*
X39650Y31850D02*
X38800D01*
X40400D02*
X39650D01*
X41200D02*
X40400D01*
X41975D02*
X41200D01*
X40400Y24050D02*
X39550D01*
X41200D02*
X40400D01*
X41900D02*
X41200D01*
X43550Y18750D02*
Y19800D01*
X43350Y17250D02*
X42750D01*
X42700Y14850D02*
Y17600D01*
X43300Y33750D02*
X42762D01*
X43350Y35200D02*
X42700D01*
Y33500D02*
Y33950D01*
X44150Y33750D02*
Y35200D01*
Y26000D02*
Y27600D01*
X43400D02*
X42700D01*
X43350Y26000D02*
X42712D01*
X42650Y34900D02*
Y37850D01*
X42721Y30751D02*
X42750Y32450D01*
X42721Y22901D02*
Y24750D01*
X42700Y28700D02*
Y29328D01*
X42650Y27250D02*
Y27800D01*
X42700Y25800D02*
Y26300D01*
Y20850D02*
Y21250D01*
Y19250D02*
Y19850D01*
Y18700D02*
Y19250D01*
X32910Y29810D02*
X32770Y29670D01*
X32674Y29574D01*
X13640Y17810D02*
Y17080D01*
X15860Y38270D02*
Y37460D01*
Y38290D02*
Y38270D01*
X14900Y27420D02*
Y26690D01*
X14750Y26540D01*
X16780Y20980D02*
X16820Y20940D01*
X12970Y19820D02*
Y19070D01*
X14020Y17980D02*
X13790Y17750D01*
X14020Y18190D02*
X13640Y17810D01*
X14930Y19100D02*
X14020Y18190D01*
Y18900D02*
Y18190D01*
Y17980D01*
X15680Y23120D02*
X16750D01*
X16900D01*
X15680Y20980D02*
X16750D01*
X16780D01*
X16250Y19100D02*
X16760D01*
X16820Y19040D01*
X15860Y37460D02*
X15180Y36780D01*
Y34300D01*
D22*
X19494Y31046D02*
Y30328D01*
X19490Y31050D02*
X19494Y31046D01*
X21030Y30328D02*
Y28800D01*
X19969Y31520D02*
X19494Y31046D01*
X19969Y31520D02*
X20400D01*
X20272Y31648D02*
X20400Y31520D01*
X20800Y33460D02*
X20730Y33390D01*
X20540Y34400D02*
X20800D01*
X20390Y33390D02*
X20730D01*
X20390D02*
X20272Y33272D01*
X20800Y33900D02*
Y33460D01*
X21000Y34100D02*
X20800Y33900D01*
X21000Y34100D02*
X21240D01*
X21940D01*
X20880Y34400D02*
X21120Y34160D01*
X29130Y18710D02*
X29140D01*
X27670D02*
X29130D01*
X25286Y35994D02*
X24570Y35278D01*
X26592Y30932D02*
Y29938D01*
X27360Y28688D02*
Y27160D01*
X25770Y18710D02*
X26120D01*
X25770D02*
X25720Y18660D01*
Y18610D01*
X26120Y18010D02*
Y17610D01*
X26720Y18710D02*
X27670D01*
X26720D02*
Y18010D01*
X25820Y29410D02*
X25824Y29406D01*
Y28688D01*
X27420Y22360D02*
X28420D01*
X25920Y23860D02*
X27420Y22360D01*
X25720Y23860D02*
X25920D01*
X26592Y29938D02*
X26720Y29810D01*
X25020Y23860D02*
X25720D01*
X24570Y35278D02*
Y34560D01*
X25120Y34010D01*
X28120Y34610D02*
Y34010D01*
X26470Y34510D02*
Y34010D01*
X25720D02*
X26470D01*
X28120D01*
X40250Y35150D02*
X40000Y35400D01*
X39050D01*
X37850Y27600D02*
X37700Y27750D01*
X37850Y27500D02*
Y27600D01*
X37700Y28800D02*
X37550Y28950D01*
X37700Y27750D02*
Y28800D01*
X38850Y35200D02*
X39050Y35400D01*
X38692Y28692D02*
Y29300D01*
X35320Y18710D02*
X35330D01*
X33860D02*
X35320D01*
X31476Y35994D02*
X30760Y35278D01*
X32782Y30932D02*
Y29938D01*
X33550Y28688D02*
Y27160D01*
X31960Y18710D02*
X32310D01*
X31960D02*
X31910Y18660D01*
Y18610D01*
X32310Y18010D02*
Y17610D01*
X32910Y18710D02*
X33860D01*
X32910D02*
Y18010D01*
X32010Y29410D02*
X32014Y29406D01*
Y28688D01*
X33610Y22360D02*
X34610D01*
X32110Y23860D02*
X33610Y22360D01*
X31910Y23860D02*
X32110D01*
X32782Y29938D02*
X32910Y29810D01*
X31210Y23860D02*
X31910D01*
X30760Y35278D02*
Y34560D01*
X31310Y34010D01*
X34310Y34610D02*
Y34010D01*
X32660Y34510D02*
Y34010D01*
X31910D02*
X32660D01*
X34310D01*
X13444Y31046D02*
Y30328D01*
X13440Y31050D02*
X13444Y31046D01*
X14980Y30328D02*
Y28800D01*
X13919Y31520D02*
X13444Y31046D01*
X13919Y31520D02*
X14350D01*
X14222Y31648D02*
X14350Y31520D01*
X14750Y33460D02*
X14680Y33390D01*
X14490Y34400D02*
X14750D01*
X14340Y33390D02*
X14680D01*
X14340D02*
X14222Y33272D01*
X14750Y33900D02*
Y33460D01*
X14950Y34100D02*
X14750Y33900D01*
X14950Y34100D02*
X15190D01*
X15890D01*
X14830Y34400D02*
X15070Y34160D01*
D23*
X20518Y33022D02*
Y32572D01*
X20300Y38870D02*
X20905Y38265D01*
X18420Y38870D02*
X20300D01*
X17530Y37980D02*
Y25530D01*
X18420Y38870D02*
X17530Y37980D01*
X20490Y33100D02*
X20518Y33072D01*
X19640Y33450D02*
X19750Y33340D01*
X18890Y31850D02*
X19390D01*
X21030Y30690D02*
Y30328D01*
X21690Y31350D02*
X21030Y30690D01*
X21690Y31350D02*
X21890D01*
X21286Y32572D02*
X21290Y32568D01*
Y32550D01*
X21890Y31950D01*
X21940Y33500D02*
X21590Y33150D01*
X19012Y32572D02*
X19494D01*
X18940Y33450D02*
Y32500D01*
X18890Y32450D01*
X19012Y32572D02*
X18940Y32500D01*
Y34050D02*
X19640D01*
X18890Y30250D02*
X19065Y30075D01*
X18890Y30450D02*
Y30250D01*
X20355Y33865D02*
X20006Y33516D01*
Y32572D01*
X20518Y30328D02*
Y29822D01*
X20006Y30328D02*
Y29834D01*
X21286Y29804D02*
X21690Y29400D01*
X21286Y30328D02*
Y29804D01*
X21040Y28800D02*
X21690D01*
X20774Y30328D02*
Y29534D01*
X20490Y29250D01*
Y29000D01*
X20262Y30328D02*
Y29472D01*
X19790Y29000D01*
X19750Y30328D02*
Y29560D01*
X19490Y29300D01*
X21240Y33150D02*
X21590D01*
X21240D02*
X21040Y32950D01*
X19530Y31990D02*
X19390Y31850D01*
X22890Y34180D02*
X22810Y34100D01*
X19530Y32010D02*
Y31990D01*
X18890Y31050D02*
X19490D01*
X20450Y28360D02*
Y27420D01*
X20490Y28400D02*
X20450Y28360D01*
X19490Y29300D02*
Y28810D01*
X21450Y27960D02*
Y27420D01*
X19490Y28810D02*
X19600Y28700D01*
X20710D01*
X21450Y27960D01*
X17780Y26820D02*
Y26130D01*
X17800Y26840D02*
X17780Y26820D01*
X17790Y25690D02*
X18110Y25370D01*
X17790Y26120D02*
Y25690D01*
X17780Y26130D02*
X17790Y26120D01*
X19790Y28400D02*
Y27590D01*
X17780Y25280D02*
Y24280D01*
X18280Y26530D02*
Y26130D01*
X18495Y26745D02*
X18280Y26530D01*
X18560Y26850D02*
Y26840D01*
X19040Y27330D02*
X18560Y26850D01*
X18530Y26130D02*
X18860D01*
X19970Y25020D01*
Y20060D01*
X19470Y19560D01*
X20070Y19070D02*
Y18900D01*
Y19490D02*
Y19070D01*
X19780Y19490D02*
X20070D01*
X19780D02*
X19690Y19400D01*
Y18660D01*
X19020Y19070D02*
X19320D01*
X19470Y19560D02*
Y19220D01*
X19320Y19070D01*
X18530Y24280D02*
Y18760D01*
X18710Y18580D01*
X19610D01*
X19690Y18660D02*
X19610Y18580D01*
X21040Y32950D02*
Y32652D01*
X21030Y32642D01*
Y32572D01*
X22160Y35900D02*
X22800D01*
X22950D01*
X22800Y34100D02*
X22810D01*
X17530Y25530D02*
X17780Y25280D01*
X20272Y33272D02*
Y32642D01*
X21240Y33500D02*
X20774Y33034D01*
Y32572D01*
X19790Y27590D02*
X19980Y27400D01*
X19065Y30075D02*
X19330Y29810D01*
Y28100D01*
X19510Y27920D01*
X19750Y33340D02*
Y32210D01*
X19530Y31990D01*
X26230Y38400D02*
Y37800D01*
X25860Y30350D02*
X25720Y30210D01*
X25860Y30370D02*
Y30350D01*
X24020Y18820D02*
X25860Y16980D01*
X24020Y19260D02*
Y18820D01*
X27320Y26780D02*
Y25710D01*
X25850Y26310D02*
X26435Y25725D01*
X25820Y27660D02*
Y26320D01*
X26820Y26760D02*
X26430Y26370D01*
Y26210D01*
X27040Y27060D02*
X27320Y26780D01*
X26420Y27060D02*
X27040D01*
X27370Y31310D02*
Y30942D01*
X27570Y31510D02*
X27370Y31310D01*
X27570Y31510D02*
X27920D01*
X24020Y19760D02*
X25170Y18610D01*
X24020Y31810D02*
Y19760D01*
X25420Y33210D02*
X24020Y31810D01*
X25170Y18610D02*
X25720D01*
X26080Y27920D02*
X25820Y27660D01*
X26080Y28688D02*
Y27920D01*
X26592Y27832D02*
X26120Y27360D01*
X26592Y28688D02*
Y27832D01*
X26420Y27060D02*
X26120Y26760D01*
X26820Y27610D02*
Y27360D01*
X27104Y27894D02*
X26820Y27610D01*
X27104Y28688D02*
Y27894D01*
X27370Y27160D02*
X28020D01*
X27616Y28688D02*
Y28164D01*
X28020Y27760D01*
X26336Y28688D02*
Y28194D01*
X26848Y28688D02*
Y28182D01*
X26336Y31876D02*
Y30932D01*
X26620Y32160D02*
X26336Y31876D01*
X26620Y32160D02*
X26870D01*
X25395Y28435D02*
Y26385D01*
X25670Y26110D01*
Y25610D01*
X25220Y28810D02*
Y28610D01*
X25395Y28435D01*
X25670Y25610D02*
X25720Y25560D01*
Y24460D01*
X25070Y25610D02*
Y24510D01*
X25270Y32410D02*
X25970D01*
X25342Y30932D02*
X25270Y30860D01*
X25220Y30810D01*
X25270Y31810D02*
Y30860D01*
X25342Y30932D02*
X25824D01*
X27420Y31860D02*
X27104Y31544D01*
Y30932D01*
X28270Y31860D02*
X27920Y31510D01*
X27370Y30942D02*
X27360Y30932D01*
X26230Y37800D02*
X27245Y36785D01*
Y34510D01*
X27620Y30910D02*
X28220Y30310D01*
X27620Y30928D02*
Y30910D01*
X27616Y30932D02*
X27620Y30928D01*
X28020Y29710D02*
X28220D01*
X28020D02*
X27360Y29050D01*
Y28688D01*
X27670Y33410D02*
X27870Y33210D01*
X28170D01*
X27570Y33510D02*
X27670Y33410D01*
X27245Y33510D02*
X27570D01*
X26870Y33360D02*
Y32760D01*
Y35060D02*
Y34510D01*
Y32760D02*
X27270D01*
X27570Y32460D01*
X28270D01*
X26080Y30932D02*
Y30570D01*
X25720Y30210D01*
X25220D02*
X25720D01*
X25970Y31810D02*
X26080Y31700D01*
Y30932D01*
X27420Y31860D02*
X27570D01*
X26820Y31460D02*
X26848Y31432D01*
X26495Y33185D02*
X26370Y33060D01*
X26495Y33510D02*
Y33185D01*
X26848Y31382D02*
Y30932D01*
X38800Y34800D02*
X38600Y35000D01*
Y35400D01*
X38950Y35750D01*
X39450D02*
X38950D01*
X38350Y36192D02*
X38500Y36342D01*
X38350Y34950D02*
Y36192D01*
X38200Y34800D02*
X38350Y34950D01*
X40050Y36000D02*
X39450D01*
X38600Y30800D02*
X38500Y30900D01*
X38600Y30200D02*
Y30800D01*
X39650Y34700D02*
X38900D01*
X37750Y27550D02*
X37000D01*
Y28150D02*
Y28850D01*
X40050Y36000D02*
X40150Y36100D01*
X37600Y36250D02*
X37000D01*
X36900Y36150D02*
X37000Y36250D01*
X37600Y35500D02*
X36950D01*
X36900Y35550D01*
X38000Y35500D02*
X37600D01*
X38100Y35400D02*
X38000Y35500D01*
X37750Y29700D02*
X37850Y29800D01*
Y30200D01*
Y30850D01*
X38692Y29300D02*
X38642Y29350D01*
X38100Y28350D02*
Y28900D01*
X37800Y29200D01*
X37350D01*
X38350Y27750D02*
Y28350D01*
X37150Y29000D02*
X37350Y29200D01*
X37850Y30850D02*
X37900Y30900D01*
X38450Y27650D02*
X38350Y27750D01*
X32420Y38400D02*
Y37800D01*
X32050Y30350D02*
X31910Y30210D01*
X32050Y30370D02*
Y30350D01*
X30210Y18820D02*
X32050Y16980D01*
X30210Y19260D02*
Y18820D01*
X33510Y26780D02*
Y25710D01*
X32040Y26310D02*
X32625Y25725D01*
X32010Y27660D02*
Y26320D01*
X33010Y26760D02*
X32620Y26370D01*
Y26210D01*
X33230Y27060D02*
X33510Y26780D01*
X32610Y27060D02*
X33230D01*
X33560Y31310D02*
Y30942D01*
X33760Y31510D02*
X33560Y31310D01*
X33760Y31510D02*
X34110D01*
X30210Y19760D02*
X31360Y18610D01*
X30210Y31810D02*
Y19760D01*
X31610Y33210D02*
X30210Y31810D01*
X31360Y18610D02*
X31910D01*
X32270Y27920D02*
X32010Y27660D01*
X32270Y28688D02*
Y27920D01*
X32782Y27832D02*
X32310Y27360D01*
X32782Y28688D02*
Y27832D01*
X32610Y27060D02*
X32310Y26760D01*
X33010Y27610D02*
Y27360D01*
X33294Y27894D02*
X33010Y27610D01*
X33294Y28688D02*
Y27894D01*
X33560Y27160D02*
X34210D01*
X33806Y28688D02*
Y28164D01*
X34210Y27760D01*
X32526Y28688D02*
Y28194D01*
X33038Y28688D02*
Y28182D01*
X32526Y31876D02*
Y30932D01*
X32810Y32160D02*
X32526Y31876D01*
X32810Y32160D02*
X33060D01*
X31585Y28435D02*
Y26385D01*
X31860Y26110D01*
Y25610D01*
X31410Y28810D02*
Y28610D01*
X31585Y28435D01*
X31860Y25610D02*
X31910Y25560D01*
Y24460D01*
X31260Y25610D02*
Y24510D01*
X31460Y32410D02*
X32160D01*
X31532Y30932D02*
X31460Y30860D01*
X31410Y30810D01*
X31460Y31810D02*
Y30860D01*
X31532Y30932D02*
X32014D01*
X33610Y31860D02*
X33294Y31544D01*
Y30932D01*
X34460Y31860D02*
X34110Y31510D01*
X33560Y30942D02*
X33550Y30932D01*
X32420Y37800D02*
X33435Y36785D01*
Y34510D01*
X33810Y30910D02*
X34410Y30310D01*
X33810Y30928D02*
Y30910D01*
X33806Y30932D02*
X33810Y30928D01*
X34210Y29710D02*
X34410D01*
X34210D02*
X33550Y29050D01*
Y28688D01*
X33860Y33410D02*
X34060Y33210D01*
X34360D01*
X33760Y33510D02*
X33860Y33410D01*
X33435Y33510D02*
X33760D01*
X33060Y33360D02*
Y32760D01*
Y35060D02*
Y34510D01*
Y32760D02*
X33460D01*
X33760Y32460D01*
X34460D01*
X32270Y30932D02*
Y30570D01*
X31910Y30210D01*
X31410D02*
X31910D01*
X32160Y31810D02*
X32270Y31700D01*
Y30932D01*
X33610Y31860D02*
X33760D01*
X33010Y31460D02*
X33038Y31432D01*
X32685Y33185D02*
X32560Y33060D01*
X32685Y33510D02*
Y33185D01*
X33038Y31382D02*
Y30932D01*
X14468Y33022D02*
Y32572D01*
X14250Y38870D02*
X14855Y38265D01*
X12370Y38870D02*
X14250D01*
X11480Y37980D02*
Y25530D01*
X12370Y38870D02*
X11480Y37980D01*
X14440Y33100D02*
X14468Y33072D01*
X13590Y33450D02*
X13700Y33340D01*
X12840Y31850D02*
X13340D01*
X14980Y30690D02*
Y30328D01*
X15640Y31350D02*
X14980Y30690D01*
X15640Y31350D02*
X15840D01*
X15236Y32572D02*
X15240Y32568D01*
Y32550D01*
X15840Y31950D01*
X15890Y33500D02*
X15540Y33150D01*
X12962Y32572D02*
X13444D01*
X12890Y33450D02*
Y32500D01*
X12840Y32450D01*
X12962Y32572D02*
X12890Y32500D01*
Y34050D02*
X13590D01*
X12840Y30250D02*
X13015Y30075D01*
X12840Y30450D02*
Y30250D01*
X14305Y33865D02*
X13956Y33516D01*
Y32572D01*
X14468Y30328D02*
Y29822D01*
X13956Y30328D02*
Y29834D01*
X15236Y29804D02*
X15640Y29400D01*
X15236Y30328D02*
Y29804D01*
X14990Y28800D02*
X15640D01*
X14724Y30328D02*
Y29534D01*
X14440Y29250D01*
Y29000D01*
X14212Y30328D02*
Y29472D01*
X13740Y29000D01*
X13700Y30328D02*
Y29560D01*
X13440Y29300D01*
X15190Y33150D02*
X15540D01*
X15190D02*
X14990Y32950D01*
X13480Y31990D02*
X13340Y31850D01*
X16840Y34180D02*
X16760Y34100D01*
X13480Y32010D02*
Y31990D01*
X12840Y31050D02*
X13440D01*
X14400Y28360D02*
Y27420D01*
X14440Y28400D02*
X14400Y28360D01*
X13440Y29300D02*
Y28810D01*
X15400Y27960D02*
Y27420D01*
X13440Y28810D02*
X13550Y28700D01*
X14660D01*
X15400Y27960D01*
X11730Y26820D02*
Y26130D01*
X11750Y26840D02*
X11730Y26820D01*
X11740Y25690D02*
X12060Y25370D01*
X11740Y26120D02*
Y25690D01*
X11730Y26130D02*
X11740Y26120D01*
X13740Y28400D02*
Y27590D01*
X11730Y25280D02*
Y24280D01*
X12230Y26530D02*
Y26130D01*
X12445Y26745D02*
X12230Y26530D01*
X12510Y26850D02*
Y26840D01*
X12990Y27330D02*
X12510Y26850D01*
X12480Y26130D02*
X12810D01*
X13920Y25020D01*
Y20060D01*
X13420Y19560D01*
X14020Y19070D02*
Y18900D01*
Y19490D02*
Y19070D01*
X13730Y19490D02*
X14020D01*
X13730D02*
X13640Y19400D01*
Y18660D01*
X12970Y19070D02*
X13270D01*
X13420Y19560D02*
Y19220D01*
X13270Y19070D01*
X12480Y24280D02*
Y18760D01*
X12660Y18580D01*
X13560D01*
X13640Y18660D02*
X13560Y18580D01*
X14990Y32950D02*
Y32652D01*
X14980Y32642D01*
Y32572D01*
X16110Y35900D02*
X16750D01*
X16900D01*
X16750Y34100D02*
X16760D01*
X11480Y25530D02*
X11730Y25280D01*
X14222Y33272D02*
Y32642D01*
X15190Y33500D02*
X14724Y33034D01*
Y32572D01*
X13740Y27590D02*
X13930Y27400D01*
X13015Y30075D02*
X13280Y29810D01*
Y28100D01*
X13460Y27920D01*
X13700Y33340D02*
Y32210D01*
X13480Y31990D01*
D24*
X19750Y26540D02*
X20800D01*
X19230Y20980D02*
Y20030D01*
X19020Y19820D01*
X25730Y16370D02*
Y15900D01*
Y16370D02*
X26080D01*
X25210D02*
X25730D01*
X25170Y15460D02*
X26170D01*
X26090Y15540D02*
X26170Y15460D01*
Y16280D02*
Y15460D01*
X27220Y17510D02*
X26080Y16370D01*
X25230Y16350D02*
Y15540D01*
X25210Y16370D02*
X25230Y16350D01*
X27220Y17510D02*
X27639D01*
X31920Y16370D02*
Y15900D01*
Y16370D02*
X32270D01*
X31400D02*
X31920D01*
X31360Y15460D02*
X32360D01*
X32280Y15540D02*
X32360Y15460D01*
Y16280D02*
Y15460D01*
X33410Y17510D02*
X32270Y16370D01*
X31420Y16350D02*
Y15540D01*
X31400Y16370D02*
X31420Y16350D01*
X33410Y17510D02*
X33829D01*
X13700Y26540D02*
X14750D01*
X13180Y20980D02*
Y20030D01*
X12970Y19820D01*
D25*
X26495Y34510D02*
D03*
X27245D02*
D03*
X26495Y33510D02*
D03*
X27245D02*
D03*
X26870Y34510D02*
D03*
X32685D02*
D03*
X33435D02*
D03*
X32685Y33510D02*
D03*
X33435D02*
D03*
X33060Y34510D02*
D03*
D26*
X28658Y24900D02*
D03*
X26650D02*
D03*
X34848D02*
D03*
X32840D02*
D03*
D27*
X24450Y20330D02*
X25270Y19510D01*
X24980Y29670D02*
X26580D01*
X24980D02*
X24450Y29140D01*
Y20330D01*
X30640D02*
X31460Y19510D01*
X31170Y29670D02*
X32770D01*
X31170D02*
X30640Y29140D01*
Y20330D01*
D28*
X43469Y30050D02*
D03*
Y22200D02*
D03*
D29*
X42760Y30050D02*
D03*
Y22200D02*
D03*
D30*
X41926Y30050D02*
D03*
Y22200D02*
D03*
D31*
X40900Y30050D02*
D03*
Y22200D02*
D03*
D32*
X42721Y30751D02*
D03*
X42721Y29349D02*
D03*
X42721Y22901D02*
D03*
X42721Y21499D02*
D03*
D33*
X44150Y26000D02*
D03*
X43525D02*
D03*
X44150Y27600D02*
D03*
X43525D02*
D03*
X44150Y33750D02*
D03*
X43525D02*
D03*
X44150Y35200D02*
D03*
X43525D02*
D03*
X42700Y24000D02*
D03*
X42075D02*
D03*
X42700Y31750D02*
D03*
X42075D02*
D03*
D34*
X42650Y27100D02*
D03*
Y26475D02*
D03*
Y34750D02*
D03*
Y34125D02*
D03*
X39550Y24050D02*
D03*
Y24675D02*
D03*
X38800Y31850D02*
D03*
Y32475D02*
D03*
D35*
X39700Y16058D02*
D03*
Y17200D02*
D03*
D36*
X40942Y25850D02*
D03*
X39800D02*
D03*
X41042Y33500D02*
D03*
X39900D02*
D03*
D37*
X37600Y35500D02*
D03*
X39450Y36250D02*
D03*
X37600D02*
D03*
X39450Y35750D02*
D03*
Y36000D02*
D03*
Y35500D02*
D03*
X37600Y36000D02*
D03*
Y35750D02*
D03*
D38*
X18820Y17020D02*
D03*
X21910Y38270D02*
D03*
X25170Y15460D02*
D03*
X28230Y38400D02*
D03*
X31360Y15460D02*
D03*
X34420Y38400D02*
D03*
X12770Y17020D02*
D03*
X15860Y38270D02*
D03*
D39*
X19820Y17020D02*
D03*
X20820D02*
D03*
X21820D02*
D03*
X20910Y38270D02*
D03*
X19910D02*
D03*
X18910D02*
D03*
X26170Y15460D02*
D03*
X27170D02*
D03*
X28170D02*
D03*
X27230Y38400D02*
D03*
X26230D02*
D03*
X25230D02*
D03*
X32360Y15460D02*
D03*
X33360D02*
D03*
X34360D02*
D03*
X33420Y38400D02*
D03*
X32420D02*
D03*
X31420D02*
D03*
X13770Y17020D02*
D03*
X14770D02*
D03*
X15770D02*
D03*
X14860Y38270D02*
D03*
X13860D02*
D03*
X12860D02*
D03*
D40*
X20490Y33100D02*
D03*
X19065Y30075D02*
D03*
X20518Y29822D02*
D03*
X20006Y29834D02*
D03*
X19530Y32010D02*
D03*
X18110Y25370D02*
D03*
X19980Y27400D02*
D03*
X19510Y27920D02*
D03*
X25860Y30370D02*
D03*
Y16980D02*
D03*
X26420Y25710D02*
D03*
X26430Y26210D02*
D03*
X24020Y19260D02*
D03*
X25420Y33210D02*
D03*
X26336Y28194D02*
D03*
X26848Y28182D02*
D03*
X25720Y18610D02*
D03*
X26120Y17610D02*
D03*
X27670Y18710D02*
D03*
X25395Y28435D02*
D03*
X27670Y33410D02*
D03*
X26870Y33360D02*
D03*
Y35060D02*
D03*
X26820Y31460D02*
D03*
X26370Y33060D02*
D03*
X38800Y13850D02*
D03*
X37700Y15050D02*
D03*
X40050Y13800D02*
D03*
X37650Y13700D02*
D03*
X37300Y31900D02*
D03*
X38900Y19050D02*
D03*
Y17950D02*
D03*
X38850Y16650D02*
D03*
X40700Y16550D02*
D03*
X44400Y17850D02*
D03*
Y25150D02*
D03*
X44450Y22200D02*
D03*
X44350Y31150D02*
D03*
X44400Y29300D02*
D03*
X44300Y32150D02*
D03*
X36950Y38600D02*
D03*
X39902Y38837D02*
D03*
X38300Y38747D02*
D03*
X38800Y39400D02*
D03*
X37300D02*
D03*
X38900Y34050D02*
D03*
X37300Y33200D02*
D03*
X38450Y25100D02*
D03*
X42100Y16800D02*
D03*
X43800Y14900D02*
D03*
X42700Y13850D02*
D03*
X41650Y14800D02*
D03*
X42750Y38900D02*
D03*
X43850Y37850D02*
D03*
X41700D02*
D03*
X41800Y33500D02*
D03*
X41050Y34300D02*
D03*
X39420Y32903D02*
D03*
X40850Y32850D02*
D03*
X40600Y25150D02*
D03*
X40350Y26650D02*
D03*
X41650Y25150D02*
D03*
X38950Y15050D02*
D03*
X40500D02*
D03*
X40650Y15700D02*
D03*
X39750Y14700D02*
D03*
X38850Y15750D02*
D03*
Y20450D02*
D03*
X42100Y23000D02*
D03*
X41800Y18100D02*
D03*
X42050Y20200D02*
D03*
X41800Y20750D02*
D03*
X41400Y20250D02*
D03*
X40400D02*
D03*
X41450Y19050D02*
D03*
X40400D02*
D03*
X42100Y17350D02*
D03*
X41950Y18800D02*
D03*
X40900Y17300D02*
D03*
X40800Y39400D02*
D03*
Y38050D02*
D03*
X41200Y27150D02*
D03*
X40250Y28000D02*
D03*
X39650Y27000D02*
D03*
X38700Y22950D02*
D03*
X37300Y23200D02*
D03*
X37850Y24150D02*
D03*
X37650Y25550D02*
D03*
X37700Y32400D02*
D03*
X37850Y33600D02*
D03*
X38200Y31750D02*
D03*
X38900Y23800D02*
D03*
X42200Y25250D02*
D03*
X42050Y26350D02*
D03*
X42100Y27700D02*
D03*
X42200Y32950D02*
D03*
X42000Y33900D02*
D03*
X41950Y35000D02*
D03*
X41550Y35300D02*
D03*
X42100Y35800D02*
D03*
X43750Y26750D02*
D03*
X43350D02*
D03*
X43700Y34450D02*
D03*
X43250D02*
D03*
X43350Y33150D02*
D03*
Y32700D02*
D03*
Y32200D02*
D03*
Y31200D02*
D03*
X43750Y28950D02*
D03*
Y28350D02*
D03*
X43350D02*
D03*
Y28950D02*
D03*
X43750Y20600D02*
D03*
X43350Y21050D02*
D03*
X43400Y24400D02*
D03*
Y23550D02*
D03*
Y24900D02*
D03*
Y25350D02*
D03*
X43777Y21003D02*
D03*
X43350Y20600D02*
D03*
X44400Y16700D02*
D03*
X43247Y16703D02*
D03*
X43300Y17950D02*
D03*
X41750Y23450D02*
D03*
X41300D02*
D03*
X40550D02*
D03*
X39850Y23400D02*
D03*
X39854Y22797D02*
D03*
X39850Y22200D02*
D03*
Y21550D02*
D03*
Y20900D02*
D03*
X40550D02*
D03*
X41100D02*
D03*
X41550Y20950D02*
D03*
X42050Y21200D02*
D03*
X43350Y21600D02*
D03*
X43400Y22950D02*
D03*
X43350Y30700D02*
D03*
Y29450D02*
D03*
X42025Y30950D02*
D03*
X41350Y31300D02*
D03*
X40950D02*
D03*
X39900D02*
D03*
X39800Y30750D02*
D03*
Y30100D02*
D03*
Y29450D02*
D03*
Y28750D02*
D03*
X40450D02*
D03*
X41050D02*
D03*
X41550D02*
D03*
X42050Y28950D02*
D03*
X43900Y30050D02*
D03*
X43750Y30450D02*
D03*
Y29700D02*
D03*
X43700Y22650D02*
D03*
X43850Y22200D02*
D03*
X43700Y21750D02*
D03*
X38850Y35200D02*
D03*
X38100Y35400D02*
D03*
X38500Y36342D02*
D03*
X37750Y29700D02*
D03*
X38692Y29300D02*
D03*
X37550Y28950D02*
D03*
X32050Y30370D02*
D03*
Y16980D02*
D03*
X32610Y25710D02*
D03*
X32620Y26210D02*
D03*
X30210Y19260D02*
D03*
X31610Y33210D02*
D03*
X32526Y28194D02*
D03*
X33038Y28182D02*
D03*
X31910Y18610D02*
D03*
X32310Y17610D02*
D03*
X33860Y18710D02*
D03*
X31585Y28435D02*
D03*
X33860Y33410D02*
D03*
X33060Y33360D02*
D03*
Y35060D02*
D03*
X33010Y31460D02*
D03*
X32560Y33060D02*
D03*
X14440Y33100D02*
D03*
X13015Y30075D02*
D03*
X14468Y29822D02*
D03*
X13956Y29834D02*
D03*
X13480Y32010D02*
D03*
X12060Y25370D02*
D03*
X13930Y27400D02*
D03*
X13460Y27920D02*
D03*
D41*
X21040Y28800D02*
D03*
X27370Y27160D02*
D03*
X33560D02*
D03*
X14990Y28800D02*
D03*
D42*
X22890Y34180D02*
D03*
Y32680D02*
D03*
Y30770D02*
D03*
Y28740D02*
D03*
Y26590D02*
D03*
Y23970D02*
D03*
Y21770D02*
D03*
Y19290D02*
D03*
X18140Y17640D02*
D03*
X18790Y35880D02*
D03*
X18190Y33080D02*
D03*
Y28180D02*
D03*
X18140Y30000D02*
D03*
X21830Y24550D02*
D03*
X21170D02*
D03*
X20470Y24540D02*
D03*
X19210Y24720D02*
D03*
X19200Y22040D02*
D03*
X19060Y19850D02*
D03*
X25150Y36040D02*
D03*
X24470Y16000D02*
D03*
X29220Y17650D02*
D03*
Y20130D02*
D03*
Y22330D02*
D03*
Y24950D02*
D03*
Y27100D02*
D03*
Y29130D02*
D03*
Y31040D02*
D03*
Y32540D02*
D03*
X27070Y25790D02*
D03*
X27080Y23980D02*
D03*
X25920Y21310D02*
D03*
X25270Y19510D02*
D03*
X27860Y23960D02*
D03*
Y26460D02*
D03*
X31340Y36040D02*
D03*
X30660Y16000D02*
D03*
X35410Y17650D02*
D03*
Y20130D02*
D03*
Y22330D02*
D03*
Y24950D02*
D03*
Y27100D02*
D03*
Y29130D02*
D03*
Y31040D02*
D03*
Y32540D02*
D03*
X33260Y25790D02*
D03*
X33270Y23980D02*
D03*
X32110Y21310D02*
D03*
X31460Y19510D02*
D03*
X34050Y23960D02*
D03*
Y26460D02*
D03*
X16840Y34180D02*
D03*
Y32680D02*
D03*
Y30770D02*
D03*
Y28740D02*
D03*
Y26590D02*
D03*
Y23970D02*
D03*
Y21770D02*
D03*
Y19290D02*
D03*
X12090Y17640D02*
D03*
X12740Y35880D02*
D03*
X12140Y33080D02*
D03*
Y28180D02*
D03*
X12090Y30000D02*
D03*
X15780Y24550D02*
D03*
X15120D02*
D03*
X14420Y24540D02*
D03*
X13160Y24720D02*
D03*
X13150Y22040D02*
D03*
X13010Y19850D02*
D03*
D43*
X20636Y31756D02*
D03*
Y31284D02*
D03*
X20164Y31756D02*
D03*
Y31284D02*
D03*
X26484Y29574D02*
D03*
Y30046D02*
D03*
X26956Y29574D02*
D03*
Y30046D02*
D03*
X32674Y29574D02*
D03*
Y30046D02*
D03*
X33146Y29574D02*
D03*
Y30046D02*
D03*
X14586Y31756D02*
D03*
Y31284D02*
D03*
X14114Y31756D02*
D03*
Y31284D02*
D03*
D44*
X42700Y14850D02*
D03*
Y37900D02*
D03*
D45*
X43700Y13850D02*
D03*
X41700D02*
D03*
Y15850D02*
D03*
X43700D02*
D03*
X41700Y36900D02*
D03*
X43700D02*
D03*
Y38900D02*
D03*
X41700D02*
D03*
D46*
X39700Y18423D02*
D03*
Y19604D02*
D03*
X40881Y18423D02*
D03*
D47*
X37650Y38000D02*
D03*
X38650D02*
D03*
D48*
X39650D02*
D03*
D49*
X41028Y30341D02*
D03*
Y29759D02*
D03*
X40565Y29471D02*
D03*
Y30629D02*
D03*
Y30050D02*
D03*
X42061D02*
D03*
X41599D02*
D03*
X43469D02*
D03*
X41028Y22491D02*
D03*
Y21909D02*
D03*
X40565Y21621D02*
D03*
Y22779D02*
D03*
Y22200D02*
D03*
X42061D02*
D03*
X41599D02*
D03*
X43469D02*
D03*
D50*
X37700Y21278D02*
D03*
Y16750D02*
D03*
M02*
