%FSLAX24Y24*%
%MOIN*%
G70*
G01*
G75*
G04 Layer_Physical_Order=2*
G04 Layer_Color=16711680*
%ADD10R,0.0140X0.0400*%
%ADD11R,0.0450X0.0600*%
%ADD12R,0.0320X0.0360*%
%ADD13R,0.0394X0.1063*%
%ADD14R,0.0394X0.1063*%
%ADD15R,0.1004X0.1063*%
%ADD16R,0.0360X0.0320*%
%ADD17R,0.0260X0.0800*%
%ADD18O,0.0138X0.0669*%
%ADD19R,0.1063X0.1102*%
%ADD20C,0.1000*%
%ADD21C,0.0500*%
%ADD22C,0.0200*%
%ADD23C,0.0100*%
%ADD24C,0.0750*%
%ADD25R,0.0260X0.0500*%
%ADD26R,0.1063X0.0866*%
%ADD27C,0.0600*%
%ADD28R,0.0394X0.0394*%
%ADD29R,0.1028X0.0339*%
%ADD30R,0.0650X0.0701*%
%ADD31R,0.1402X0.1799*%
%ADD32R,0.0598X0.0598*%
%ADD33R,0.0385X0.0520*%
%ADD34R,0.0520X0.0385*%
%ADD35R,0.0846X0.0532*%
%ADD36R,0.0532X0.0846*%
%ADD37R,0.0400X0.0140*%
%ADD38R,0.0700X0.0700*%
%ADD39C,0.0700*%
%ADD40C,0.0200*%
%ADD41C,0.0280*%
%ADD42C,0.0500*%
%ADD43C,0.0260*%
%ADD44C,0.1000*%
%ADD45C,0.1100*%
%ADD46C,0.0600*%
%ADD47C,0.0591*%
%ADD48R,0.0591X0.0591*%
%ADD49C,0.0252*%
%ADD50C,0.1024*%
%ADD51R,0.0800X0.0260*%
%ADD52C,0.0400*%
%ADD53C,0.0250*%
G36*
X20100Y24080D02*
Y26330D01*
X22245D01*
Y24080D01*
X20100D01*
D02*
G37*
%LPC*%
G36*
X21120Y24600D02*
Y24846D01*
X21092Y24842D01*
X21019Y24812D01*
X20956Y24764D01*
X20908Y24701D01*
X20878Y24628D01*
X20874Y24600D01*
X21120D01*
D02*
G37*
G36*
Y24254D02*
Y24500D01*
X20874D01*
X20878Y24472D01*
X20908Y24399D01*
X20956Y24336D01*
X21019Y24288D01*
X21092Y24258D01*
X21120Y24254D01*
D02*
G37*
G36*
X21450Y25680D02*
Y26113D01*
X20919D01*
Y25680D01*
X21450D01*
D02*
G37*
G36*
X20766Y24490D02*
X20520D01*
Y24244D01*
X20548Y24248D01*
X20621Y24278D01*
X20684Y24326D01*
X20732Y24389D01*
X20762Y24462D01*
X20766Y24490D01*
D02*
G37*
G36*
X20420Y24590D02*
Y24836D01*
X20392Y24832D01*
X20319Y24802D01*
X20256Y24754D01*
X20208Y24691D01*
X20178Y24618D01*
X20174Y24590D01*
X20420D01*
D02*
G37*
G36*
Y24244D02*
Y24490D01*
X20174D01*
X20178Y24462D01*
X20208Y24389D01*
X20256Y24326D01*
X20319Y24278D01*
X20392Y24248D01*
X20420Y24244D01*
D02*
G37*
G36*
X20766Y24590D02*
X20762Y24618D01*
X20732Y24691D01*
X20684Y24754D01*
X20621Y24802D01*
X20548Y24832D01*
X20520Y24836D01*
Y24590D01*
X20766D01*
D02*
G37*
G36*
X21450Y25147D02*
Y25580D01*
X20919D01*
Y25147D01*
X21450D01*
D02*
G37*
G36*
X22081D02*
Y25580D01*
X21550D01*
Y25147D01*
X22081D01*
D02*
G37*
G36*
Y25680D02*
Y26113D01*
X21550D01*
Y25680D01*
X22081D01*
D02*
G37*
G36*
X22126Y24500D02*
X21880D01*
Y24254D01*
X21908Y24258D01*
X21981Y24288D01*
X22044Y24336D01*
X22092Y24399D01*
X22122Y24472D01*
X22126Y24500D01*
D02*
G37*
G36*
Y24600D02*
X22122Y24628D01*
X22092Y24701D01*
X22044Y24764D01*
X21981Y24812D01*
X21908Y24842D01*
X21880Y24846D01*
Y24600D01*
X22126D01*
D02*
G37*
G36*
X21466Y24500D02*
X21220D01*
Y24254D01*
X21248Y24258D01*
X21321Y24288D01*
X21384Y24336D01*
X21432Y24399D01*
X21462Y24472D01*
X21466Y24500D01*
D02*
G37*
G36*
Y24600D02*
X21462Y24628D01*
X21432Y24701D01*
X21384Y24764D01*
X21321Y24812D01*
X21248Y24842D01*
X21220Y24846D01*
Y24600D01*
X21466D01*
D02*
G37*
G36*
X21780Y24254D02*
Y24500D01*
X21534D01*
X21538Y24472D01*
X21568Y24399D01*
X21616Y24336D01*
X21679Y24288D01*
X21752Y24258D01*
X21780Y24254D01*
D02*
G37*
G36*
Y24600D02*
Y24846D01*
X21752Y24842D01*
X21679Y24812D01*
X21616Y24764D01*
X21568Y24701D01*
X21538Y24628D01*
X21534Y24600D01*
X21780D01*
D02*
G37*
%LPD*%
G36*
X28490Y23600D02*
X28490Y23600D01*
X28486Y23590D01*
X26590D01*
X26580Y23600D01*
Y26000D01*
X27500Y26850D01*
X28500D01*
Y23610D01*
X28490Y23600D01*
D02*
G37*
G36*
X25472Y18010D02*
X25320D01*
Y18010D01*
Y18030D01*
X25320Y18045D01*
X25320Y18045D01*
X25320D01*
Y18160D01*
X24870D01*
X24420D01*
Y18045D01*
X24385Y18010D01*
X24130D01*
Y19155D01*
X24161Y19201D01*
X24173Y19260D01*
X24161Y19319D01*
X24130Y19365D01*
Y19756D01*
X24169Y19841D01*
X25157D01*
X25167Y19792D01*
X25119Y19772D01*
X25056Y19724D01*
X25008Y19661D01*
X24978Y19588D01*
X24974Y19560D01*
X25270D01*
Y19510D01*
X25320D01*
Y19214D01*
X25348Y19218D01*
X25421Y19248D01*
X25484Y19296D01*
X25532Y19359D01*
X25550Y19355D01*
Y18010D01*
X25472D01*
D02*
G37*
G36*
X27740Y29020D02*
X27740Y29020D01*
X27700Y29020D01*
Y29020D01*
X27140D01*
Y28950D01*
X26950D01*
Y29020D01*
X26390D01*
X26390Y29020D01*
X26350Y29020D01*
Y29020D01*
X26120D01*
Y28760D01*
X26020D01*
Y29020D01*
X25860D01*
X25836Y29064D01*
X25861Y29101D01*
X25873Y29160D01*
Y30167D01*
X25875Y30169D01*
X25938Y30182D01*
X26004Y30226D01*
X26048Y30292D01*
X26064Y30370D01*
X26048Y30448D01*
X26004Y30514D01*
X25938Y30558D01*
X25860Y30574D01*
X25782Y30558D01*
X25716Y30514D01*
X25672Y30448D01*
X25659Y30385D01*
X25612Y30338D01*
X25579Y30289D01*
X25567Y30230D01*
Y29223D01*
X25319Y28975D01*
X25273Y28995D01*
Y33015D01*
X25317Y33038D01*
X25342Y33022D01*
X25420Y33006D01*
X25498Y33022D01*
X25564Y33066D01*
X25608Y33132D01*
X25624Y33210D01*
X25622Y33221D01*
X25653Y33260D01*
X25675D01*
Y33620D01*
X25965D01*
Y33260D01*
X26223D01*
X26238Y33212D01*
X26226Y33204D01*
X26182Y33138D01*
X26166Y33060D01*
X26182Y32982D01*
X26226Y32916D01*
X26292Y32872D01*
X26355Y32859D01*
X26467Y32747D01*
Y31660D01*
X26479Y31601D01*
X26512Y31552D01*
X26619Y31445D01*
X26632Y31382D01*
X26676Y31316D01*
X26742Y31272D01*
X26820Y31256D01*
X26898Y31272D01*
X26964Y31316D01*
X27008Y31382D01*
X27024Y31460D01*
X27008Y31538D01*
X26964Y31604D01*
X26898Y31648D01*
X26835Y31661D01*
X26773Y31723D01*
Y32810D01*
X26763Y32859D01*
X26761Y32869D01*
X26728Y32918D01*
X26571Y33075D01*
X26558Y33138D01*
X26514Y33204D01*
X26448Y33248D01*
X26424Y33253D01*
X26425Y33260D01*
X26425Y33260D01*
X26425Y33260D01*
Y33620D01*
X27538D01*
X27553Y33572D01*
X27526Y33554D01*
X27482Y33488D01*
X27466Y33410D01*
X27482Y33332D01*
X27526Y33266D01*
X27592Y33222D01*
X27655Y33209D01*
X28217Y32647D01*
Y29020D01*
X27740D01*
D02*
G37*
G36*
X26531Y15634D02*
X26519Y15662D01*
X26455Y15745D01*
X26372Y15809D01*
X26274Y15850D01*
X26220Y15857D01*
Y15063D01*
X26170Y15057D01*
X26145Y15060D01*
X26141Y15010D01*
X24110D01*
Y17930D01*
X24420D01*
Y17890D01*
X24420D01*
Y17760D01*
X24870D01*
X25320D01*
Y17890D01*
X25320D01*
Y17895D01*
X25355Y17930D01*
X25543D01*
Y16489D01*
X25564Y16464D01*
X25625Y16389D01*
X26580D01*
Y15644D01*
X26531Y15634D01*
D02*
G37*
%LPC*%
G36*
X25570Y15060D02*
Y15410D01*
X25220D01*
Y15060D01*
X25570D01*
D02*
G37*
G36*
X25320Y17260D02*
Y17390D01*
X24920D01*
Y17260D01*
X25320D01*
D02*
G37*
G36*
X25220Y19214D02*
Y19460D01*
X24974D01*
X24978Y19432D01*
X25008Y19359D01*
X25056Y19296D01*
X25119Y19248D01*
X25192Y19218D01*
X25220Y19214D01*
D02*
G37*
G36*
X25320Y17030D02*
Y17160D01*
X24920D01*
Y17030D01*
X25320D01*
D02*
G37*
G36*
X25570Y15510D02*
Y15860D01*
X25220D01*
Y15510D01*
X25570D01*
D02*
G37*
G36*
X26820Y33410D02*
Y33554D01*
X26792Y33548D01*
X26726Y33504D01*
X26682Y33438D01*
X26676Y33410D01*
X26820D01*
D02*
G37*
G36*
Y33166D02*
Y33310D01*
X26676D01*
X26682Y33282D01*
X26726Y33216D01*
X26792Y33172D01*
X26820Y33166D01*
D02*
G37*
G36*
X27020Y25840D02*
Y26086D01*
X26992Y26082D01*
X26919Y26052D01*
X26856Y26004D01*
X26808Y25941D01*
X26778Y25868D01*
X26774Y25840D01*
X27020D01*
D02*
G37*
G36*
X26434Y29349D02*
Y29524D01*
X26259D01*
X26267Y29484D01*
X26318Y29408D01*
X26394Y29357D01*
X26434Y29349D01*
D02*
G37*
G36*
X26120Y15510D02*
Y15857D01*
X26066Y15850D01*
X25968Y15809D01*
X25885Y15745D01*
X25821Y15662D01*
X25780Y15564D01*
X25773Y15510D01*
X26120D01*
D02*
G37*
G36*
Y15063D02*
Y15410D01*
X25773D01*
X25780Y15356D01*
X25821Y15258D01*
X25885Y15175D01*
X25968Y15111D01*
X26066Y15070D01*
X26120Y15063D01*
D02*
G37*
G36*
X26434Y30096D02*
Y30271D01*
X26394Y30263D01*
X26318Y30212D01*
X26267Y30136D01*
X26259Y30096D01*
X26434D01*
D02*
G37*
G36*
X25320Y17530D02*
Y17660D01*
X24920D01*
Y17530D01*
X25320D01*
D02*
G37*
G36*
X24820Y18260D02*
Y18390D01*
X24420D01*
Y18260D01*
X24820D01*
D02*
G37*
G36*
Y17530D02*
Y17660D01*
X24420D01*
Y17530D01*
X24820D01*
D02*
G37*
G36*
Y17260D02*
Y17390D01*
X24420D01*
Y17260D01*
X24820D01*
D02*
G37*
G36*
Y18530D02*
Y18660D01*
X24420D01*
Y18530D01*
X24820D01*
D02*
G37*
G36*
X24420Y16050D02*
Y16296D01*
X24392Y16292D01*
X24319Y16262D01*
X24256Y16214D01*
X24208Y16151D01*
X24178Y16078D01*
X24174Y16050D01*
X24420D01*
D02*
G37*
G36*
Y15704D02*
Y15950D01*
X24174D01*
X24178Y15922D01*
X24208Y15849D01*
X24256Y15786D01*
X24319Y15738D01*
X24392Y15708D01*
X24420Y15704D01*
D02*
G37*
G36*
X24820Y18760D02*
Y18890D01*
X24420D01*
Y18760D01*
X24820D01*
D02*
G37*
G36*
X25320D02*
Y18890D01*
X24920D01*
Y18760D01*
X25320D01*
D02*
G37*
G36*
Y18530D02*
Y18660D01*
X24920D01*
Y18530D01*
X25320D01*
D02*
G37*
G36*
Y18260D02*
Y18390D01*
X24920D01*
Y18260D01*
X25320D01*
D02*
G37*
G36*
X25120Y15510D02*
Y15860D01*
X24782D01*
D01*
X24776Y15868D01*
D01*
X24754Y15902D01*
X24762Y15922D01*
X24766Y15950D01*
X24520D01*
Y15704D01*
X24548Y15708D01*
X24621Y15738D01*
X24684Y15786D01*
X24723Y15836D01*
X24746Y15829D01*
D01*
X24768Y15821D01*
D01*
X24770Y15820D01*
Y15510D01*
X25120D01*
D02*
G37*
G36*
X24820Y17030D02*
Y17160D01*
X24420D01*
Y17030D01*
X24820D01*
D02*
G37*
G36*
X24766Y16050D02*
X24762Y16078D01*
X24732Y16151D01*
X24684Y16214D01*
X24621Y16262D01*
X24548Y16292D01*
X24520Y16296D01*
Y16050D01*
X24766D01*
D02*
G37*
G36*
X25120Y15060D02*
Y15410D01*
X24770D01*
Y15060D01*
X25120D01*
D02*
G37*
G36*
X28320Y24280D02*
Y24410D01*
X27870D01*
X27420D01*
Y24280D01*
X27720D01*
X27730Y24231D01*
X27709Y24222D01*
X27646Y24174D01*
X27598Y24111D01*
X27568Y24038D01*
X27564Y24010D01*
X27860D01*
X28156D01*
X28152Y24038D01*
X28122Y24111D01*
X28074Y24174D01*
X28011Y24222D01*
X27990Y24231D01*
X28000Y24280D01*
X28320D01*
D02*
G37*
G36*
X27810Y23664D02*
Y23910D01*
X27564D01*
X27568Y23882D01*
X27598Y23809D01*
X27646Y23746D01*
X27709Y23698D01*
X27782Y23668D01*
X27810Y23664D01*
D02*
G37*
G36*
X28156Y26510D02*
X28152Y26538D01*
X28122Y26611D01*
X28074Y26674D01*
X28011Y26722D01*
X27938Y26752D01*
X27910Y26756D01*
Y26510D01*
X28156D01*
D02*
G37*
G36*
X27810D02*
Y26756D01*
X27782Y26752D01*
X27709Y26722D01*
X27646Y26674D01*
X27598Y26611D01*
X27568Y26538D01*
X27564Y26510D01*
X27810D01*
D02*
G37*
G36*
X27820Y25010D02*
Y25140D01*
X27420D01*
Y25010D01*
X27820D01*
D02*
G37*
G36*
Y24780D02*
Y24910D01*
X27420D01*
Y24780D01*
X27820D01*
D02*
G37*
G36*
Y24510D02*
Y24640D01*
X27420D01*
Y24510D01*
X27820D01*
D02*
G37*
G36*
X28156Y23910D02*
X27910D01*
Y23664D01*
X27938Y23668D01*
X28011Y23698D01*
X28074Y23746D01*
X28122Y23809D01*
X28152Y23882D01*
X28156Y23910D01*
D02*
G37*
G36*
X28320Y24780D02*
Y24910D01*
X27920D01*
Y24780D01*
X28320D01*
D02*
G37*
G36*
Y24510D02*
Y24640D01*
X27920D01*
Y24510D01*
X28320D01*
D02*
G37*
G36*
Y26010D02*
Y26140D01*
X28000D01*
X27990Y26189D01*
X28011Y26198D01*
X28074Y26246D01*
X28122Y26309D01*
X28152Y26382D01*
X28156Y26410D01*
X27860D01*
X27564D01*
X27568Y26382D01*
X27598Y26309D01*
X27646Y26246D01*
X27709Y26198D01*
X27730Y26189D01*
X27720Y26140D01*
X27420D01*
Y26010D01*
X27870D01*
X28320D01*
D02*
G37*
G36*
Y25010D02*
Y25140D01*
X27920D01*
Y25010D01*
X28320D01*
D02*
G37*
G36*
Y25780D02*
Y25910D01*
X27920D01*
Y25780D01*
X28320D01*
D02*
G37*
G36*
Y25510D02*
Y25640D01*
X27920D01*
Y25510D01*
X28320D01*
D02*
G37*
G36*
Y25280D02*
Y25410D01*
X27920D01*
Y25280D01*
X28320D01*
D02*
G37*
G36*
X27064Y33310D02*
X26920D01*
Y33166D01*
X26948Y33172D01*
X27014Y33216D01*
X27058Y33282D01*
X27064Y33310D01*
D02*
G37*
G36*
X27181Y30096D02*
X27173Y30136D01*
X27122Y30212D01*
X27046Y30263D01*
X27006Y30271D01*
Y30096D01*
X27181D01*
D02*
G37*
G36*
Y29524D02*
X27006D01*
Y29349D01*
X27046Y29357D01*
X27122Y29408D01*
X27173Y29484D01*
X27181Y29524D01*
D02*
G37*
G36*
X27064Y33410D02*
X27058Y33438D01*
X27014Y33504D01*
X26948Y33548D01*
X26920Y33554D01*
Y33410D01*
X27064D01*
D02*
G37*
G36*
X27020Y25494D02*
Y25740D01*
X26774D01*
X26778Y25712D01*
X26808Y25639D01*
X26856Y25576D01*
X26919Y25528D01*
X26992Y25498D01*
X27020Y25494D01*
D02*
G37*
G36*
X27030Y24030D02*
Y24276D01*
X27002Y24272D01*
X26929Y24242D01*
X26866Y24194D01*
X26818Y24131D01*
X26788Y24058D01*
X26784Y24030D01*
X27030D01*
D02*
G37*
G36*
Y23684D02*
Y23930D01*
X26784D01*
X26788Y23902D01*
X26818Y23829D01*
X26866Y23766D01*
X26929Y23718D01*
X27002Y23688D01*
X27030Y23684D01*
D02*
G37*
G36*
X27181Y29624D02*
X27173Y29663D01*
X27122Y29740D01*
X27054Y29785D01*
Y29835D01*
X27122Y29880D01*
X27173Y29957D01*
X27181Y29996D01*
X26956D01*
Y30046D01*
X26906D01*
Y30271D01*
X26867Y30263D01*
X26790Y30212D01*
X26745Y30144D01*
X26695D01*
X26650Y30212D01*
X26573Y30263D01*
X26534Y30271D01*
Y30046D01*
X26484D01*
Y29996D01*
X26259D01*
X26267Y29957D01*
X26318Y29880D01*
X26386Y29835D01*
Y29785D01*
X26318Y29740D01*
X26267Y29663D01*
X26259Y29624D01*
X26484D01*
Y29574D01*
X26534D01*
Y29349D01*
X26573Y29357D01*
X26650Y29408D01*
X26695Y29476D01*
X26745D01*
X26790Y29408D01*
X26867Y29357D01*
X26906Y29349D01*
Y29574D01*
X26956D01*
Y29624D01*
X27181D01*
D02*
G37*
G36*
X27820Y25780D02*
Y25910D01*
X27420D01*
Y25812D01*
X27418Y25812D01*
D01*
D01*
D01*
X27370Y25809D01*
X27373Y25790D01*
X27371Y25780D01*
X27420D01*
Y25780D01*
X27422D01*
Y25780D01*
X27820D01*
D02*
G37*
G36*
Y25510D02*
Y25640D01*
X27420D01*
Y25510D01*
X27820D01*
D02*
G37*
G36*
Y25280D02*
Y25410D01*
X27420D01*
Y25280D01*
X27820D01*
D02*
G37*
G36*
X27376Y23930D02*
X27130D01*
Y23684D01*
X27158Y23688D01*
X27231Y23718D01*
X27294Y23766D01*
X27342Y23829D01*
X27372Y23902D01*
X27376Y23930D01*
D02*
G37*
G36*
X27366Y25840D02*
X27362Y25868D01*
X27332Y25941D01*
X27284Y26004D01*
X27221Y26052D01*
X27148Y26082D01*
X27120Y26086D01*
Y25840D01*
X27366D01*
D02*
G37*
G36*
Y25740D02*
X27120D01*
Y25494D01*
X27148Y25498D01*
X27221Y25528D01*
X27284Y25576D01*
X27332Y25639D01*
X27362Y25712D01*
X27366Y25740D01*
D02*
G37*
G36*
X27376Y24030D02*
X27372Y24058D01*
X27342Y24131D01*
X27294Y24194D01*
X27231Y24242D01*
X27158Y24272D01*
X27130Y24276D01*
Y24030D01*
X27376D01*
D02*
G37*
%LPD*%
G36*
X44535Y39650D02*
X44554Y39604D01*
X44550Y39600D01*
Y13000D01*
X36400D01*
Y19853D01*
X36447Y19869D01*
X36500Y19800D01*
X38127Y18174D01*
X38200Y18118D01*
X38285Y18082D01*
X38377Y18070D01*
X39507D01*
X39596Y18034D01*
X39700Y18020D01*
X39804Y18034D01*
X39902Y18074D01*
X39985Y18138D01*
X40049Y18221D01*
X40090Y18319D01*
X40103Y18423D01*
X40090Y18528D01*
X40049Y18625D01*
X39985Y18709D01*
X39902Y18773D01*
X39804Y18813D01*
X39700Y18827D01*
X39596Y18813D01*
X39507Y18776D01*
X38523D01*
X37103Y20196D01*
Y30132D01*
X37149Y30152D01*
X37184Y30117D01*
Y29727D01*
X37524D01*
X37546Y29700D01*
X37562Y29622D01*
X37606Y29556D01*
X37672Y29512D01*
X37750Y29496D01*
X37828Y29512D01*
X37894Y29556D01*
X37938Y29622D01*
X37954Y29700D01*
X37938Y29778D01*
X37916Y29812D01*
Y30773D01*
X37526D01*
X37103Y31196D01*
Y34834D01*
X38073D01*
Y35174D01*
X38100Y35196D01*
X38178Y35212D01*
X38244Y35256D01*
X38288Y35322D01*
X38304Y35400D01*
X38288Y35478D01*
X38244Y35544D01*
X38178Y35588D01*
X38100Y35604D01*
X38022Y35588D01*
X37988Y35566D01*
X37103D01*
Y35976D01*
X37500D01*
Y36707D01*
X37103D01*
Y37104D01*
X37606Y37607D01*
X37650Y37601D01*
X37753Y37615D01*
X37849Y37655D01*
X37932Y37718D01*
X37995Y37801D01*
X38035Y37897D01*
X38049Y38000D01*
X38035Y38103D01*
X37995Y38199D01*
X37932Y38282D01*
X37849Y38345D01*
X37753Y38385D01*
X37650Y38399D01*
X37547Y38385D01*
X37455Y38347D01*
X37409Y38341D01*
X37323Y38306D01*
X37250Y38250D01*
X36500Y37500D01*
X36444Y37427D01*
X36410Y37343D01*
X36410D01*
Y37343D01*
X36409Y37341D01*
X36409D01*
X36400Y37342D01*
Y39650D01*
X44535D01*
D02*
G37*
%LPC*%
G36*
X41750Y14498D02*
Y13900D01*
X42348D01*
X42341Y13977D01*
X42303Y14100D01*
X42243Y14213D01*
X42162Y14312D01*
X42063Y14393D01*
X41950Y14453D01*
X41827Y14491D01*
X41750Y14498D01*
D02*
G37*
G36*
Y15800D02*
Y15202D01*
X41827Y15209D01*
X41950Y15247D01*
X42063Y15307D01*
X42162Y15388D01*
X42243Y15487D01*
X42303Y15600D01*
X42341Y15723D01*
X42348Y15800D01*
X41750D01*
D02*
G37*
G36*
Y16498D02*
Y15900D01*
X42348D01*
X42341Y15977D01*
X42303Y16100D01*
X42243Y16213D01*
X42162Y16312D01*
X42063Y16393D01*
X41950Y16453D01*
X41827Y16491D01*
X41750Y16498D01*
D02*
G37*
G36*
Y13800D02*
Y13202D01*
X41827Y13209D01*
X41950Y13247D01*
X42063Y13307D01*
X42162Y13388D01*
X42243Y13487D01*
X42303Y13600D01*
X42341Y13723D01*
X42348Y13800D01*
X41750D01*
D02*
G37*
G36*
X43052Y38950D02*
X43650D01*
Y39548D01*
X43573Y39541D01*
X43450Y39503D01*
X43337Y39443D01*
X43238Y39362D01*
X43157Y39263D01*
X43097Y39150D01*
X43059Y39027D01*
X43052Y38950D01*
D02*
G37*
G36*
X42097Y14850D02*
X42109Y14732D01*
X42143Y14619D01*
X42199Y14515D01*
X42274Y14424D01*
X42365Y14349D01*
X42469Y14293D01*
X42582Y14259D01*
X42700Y14247D01*
X42818Y14259D01*
X42931Y14293D01*
X43035Y14349D01*
X43126Y14424D01*
X43201Y14515D01*
X43257Y14619D01*
X43291Y14732D01*
X43303Y14850D01*
X43291Y14968D01*
X43257Y15081D01*
X43201Y15185D01*
X43126Y15276D01*
X43035Y15351D01*
X42931Y15407D01*
X42818Y15441D01*
X42700Y15453D01*
X42582Y15441D01*
X42469Y15407D01*
X42365Y15351D01*
X42274Y15276D01*
X42199Y15185D01*
X42143Y15081D01*
X42109Y14968D01*
X42097Y14850D01*
D02*
G37*
G36*
Y37900D02*
X42109Y37782D01*
X42143Y37669D01*
X42199Y37565D01*
X42274Y37474D01*
X42365Y37399D01*
X42469Y37343D01*
X42582Y37309D01*
X42700Y37297D01*
X42818Y37309D01*
X42931Y37343D01*
X43035Y37399D01*
X43126Y37474D01*
X43201Y37565D01*
X43257Y37669D01*
X43291Y37782D01*
X43303Y37900D01*
X43291Y38018D01*
X43257Y38131D01*
X43201Y38235D01*
X43126Y38326D01*
X43035Y38401D01*
X42931Y38457D01*
X42818Y38491D01*
X42700Y38503D01*
X42582Y38491D01*
X42469Y38457D01*
X42365Y38401D01*
X42274Y38326D01*
X42199Y38235D01*
X42143Y38131D01*
X42109Y38018D01*
X42097Y37900D01*
D02*
G37*
G36*
X41750Y36850D02*
Y36252D01*
X41827Y36259D01*
X41950Y36297D01*
X42063Y36357D01*
X42162Y36438D01*
X42243Y36537D01*
X42303Y36650D01*
X42341Y36773D01*
X42348Y36850D01*
X41750D01*
D02*
G37*
G36*
X41052Y13900D02*
X41650D01*
Y14498D01*
X41573Y14491D01*
X41450Y14453D01*
X41337Y14393D01*
X41238Y14312D01*
X41157Y14213D01*
X41097Y14100D01*
X41059Y13977D01*
X41052Y13900D01*
D02*
G37*
G36*
Y15800D02*
X41059Y15723D01*
X41097Y15600D01*
X41157Y15487D01*
X41238Y15388D01*
X41337Y15307D01*
X41450Y15247D01*
X41573Y15209D01*
X41650Y15202D01*
Y15800D01*
X41052D01*
D02*
G37*
G36*
Y15900D02*
X41650D01*
Y16498D01*
X41573Y16491D01*
X41450Y16453D01*
X41337Y16393D01*
X41238Y16312D01*
X41157Y16213D01*
X41097Y16100D01*
X41059Y15977D01*
X41052Y15900D01*
D02*
G37*
G36*
Y13800D02*
X41059Y13723D01*
X41097Y13600D01*
X41157Y13487D01*
X41238Y13388D01*
X41337Y13307D01*
X41450Y13247D01*
X41573Y13209D01*
X41650Y13202D01*
Y13800D01*
X41052D01*
D02*
G37*
G36*
X41750Y37548D02*
Y36950D01*
X42348D01*
X42341Y37027D01*
X42303Y37150D01*
X42243Y37263D01*
X42162Y37362D01*
X42063Y37443D01*
X41950Y37503D01*
X41827Y37541D01*
X41750Y37548D01*
D02*
G37*
G36*
Y38850D02*
Y38252D01*
X41827Y38259D01*
X41950Y38297D01*
X42063Y38357D01*
X42162Y38438D01*
X42243Y38537D01*
X42303Y38650D01*
X42341Y38773D01*
X42348Y38850D01*
X41750D01*
D02*
G37*
G36*
Y39548D02*
Y38950D01*
X42348D01*
X42341Y39027D01*
X42303Y39150D01*
X42243Y39263D01*
X42162Y39362D01*
X42063Y39443D01*
X41950Y39503D01*
X41827Y39541D01*
X41750Y39548D01*
D02*
G37*
G36*
X43750Y36850D02*
Y36252D01*
X43827Y36259D01*
X43950Y36297D01*
X44063Y36357D01*
X44162Y36438D01*
X44243Y36537D01*
X44303Y36650D01*
X44341Y36773D01*
X44348Y36850D01*
X43750D01*
D02*
G37*
G36*
Y37548D02*
Y36950D01*
X44348D01*
X44341Y37027D01*
X44303Y37150D01*
X44243Y37263D01*
X44162Y37362D01*
X44063Y37443D01*
X43950Y37503D01*
X43827Y37541D01*
X43750Y37548D01*
D02*
G37*
G36*
Y38850D02*
Y38252D01*
X43827Y38259D01*
X43950Y38297D01*
X44063Y38357D01*
X44162Y38438D01*
X44243Y38537D01*
X44303Y38650D01*
X44341Y38773D01*
X44348Y38850D01*
X43750D01*
D02*
G37*
G36*
Y16498D02*
Y15900D01*
X44348D01*
X44341Y15977D01*
X44303Y16100D01*
X44243Y16213D01*
X44162Y16312D01*
X44063Y16393D01*
X43950Y16453D01*
X43827Y16491D01*
X43750Y16498D01*
D02*
G37*
G36*
Y13800D02*
Y13202D01*
X43827Y13209D01*
X43950Y13247D01*
X44063Y13307D01*
X44162Y13388D01*
X44243Y13487D01*
X44303Y13600D01*
X44341Y13723D01*
X44348Y13800D01*
X43750D01*
D02*
G37*
G36*
Y14498D02*
Y13900D01*
X44348D01*
X44341Y13977D01*
X44303Y14100D01*
X44243Y14213D01*
X44162Y14312D01*
X44063Y14393D01*
X43950Y14453D01*
X43827Y14491D01*
X43750Y14498D01*
D02*
G37*
G36*
Y15800D02*
Y15202D01*
X43827Y15209D01*
X43950Y15247D01*
X44063Y15307D01*
X44162Y15388D01*
X44243Y15487D01*
X44303Y15600D01*
X44341Y15723D01*
X44348Y15800D01*
X43750D01*
D02*
G37*
G36*
Y39548D02*
Y38950D01*
X44348D01*
X44341Y39027D01*
X44303Y39150D01*
X44243Y39263D01*
X44162Y39362D01*
X44063Y39443D01*
X43950Y39503D01*
X43827Y39541D01*
X43750Y39548D01*
D02*
G37*
G36*
X43052Y36850D02*
X43059Y36773D01*
X43097Y36650D01*
X43157Y36537D01*
X43238Y36438D01*
X43337Y36357D01*
X43450Y36297D01*
X43573Y36259D01*
X43650Y36252D01*
Y36850D01*
X43052D01*
D02*
G37*
G36*
Y36950D02*
X43650D01*
Y37548D01*
X43573Y37541D01*
X43450Y37503D01*
X43337Y37443D01*
X43238Y37362D01*
X43157Y37263D01*
X43097Y37150D01*
X43059Y37027D01*
X43052Y36950D01*
D02*
G37*
G36*
Y38850D02*
X43059Y38773D01*
X43097Y38650D01*
X43157Y38537D01*
X43238Y38438D01*
X43337Y38357D01*
X43450Y38297D01*
X43573Y38259D01*
X43650Y38252D01*
Y38850D01*
X43052D01*
D02*
G37*
G36*
Y15900D02*
X43650D01*
Y16498D01*
X43573Y16491D01*
X43450Y16453D01*
X43337Y16393D01*
X43238Y16312D01*
X43157Y16213D01*
X43097Y16100D01*
X43059Y15977D01*
X43052Y15900D01*
D02*
G37*
G36*
Y13800D02*
X43059Y13723D01*
X43097Y13600D01*
X43157Y13487D01*
X43238Y13388D01*
X43337Y13307D01*
X43450Y13247D01*
X43573Y13209D01*
X43650Y13202D01*
Y13800D01*
X43052D01*
D02*
G37*
G36*
Y13900D02*
X43650D01*
Y14498D01*
X43573Y14491D01*
X43450Y14453D01*
X43337Y14393D01*
X43238Y14312D01*
X43157Y14213D01*
X43097Y14100D01*
X43059Y13977D01*
X43052Y13900D01*
D02*
G37*
G36*
Y15800D02*
X43059Y15723D01*
X43097Y15600D01*
X43157Y15487D01*
X43238Y15388D01*
X43337Y15307D01*
X43450Y15247D01*
X43573Y15209D01*
X43650Y15202D01*
Y15800D01*
X43052D01*
D02*
G37*
G36*
X38742Y28823D02*
Y28350D01*
X39057D01*
Y28823D01*
X38742D01*
D02*
G37*
G36*
Y30200D02*
Y29727D01*
X39057D01*
Y30200D01*
X38742D01*
D02*
G37*
G36*
Y30773D02*
Y30300D01*
X39057D01*
Y30773D01*
X38742D01*
D02*
G37*
G36*
Y28250D02*
Y27777D01*
X39057D01*
Y28250D01*
X38742D01*
D02*
G37*
G36*
X39255Y38395D02*
Y38050D01*
X39600D01*
Y38395D01*
X39255D01*
D02*
G37*
G36*
X38977Y36292D02*
Y35976D01*
X39450D01*
Y36292D01*
X38977D01*
D02*
G37*
G36*
Y36707D02*
Y36392D01*
X39450D01*
Y36707D01*
X38977D01*
D02*
G37*
G36*
X38251Y38000D02*
X38265Y37897D01*
X38305Y37801D01*
X38368Y37718D01*
X38451Y37655D01*
X38547Y37615D01*
X38650Y37601D01*
X38753Y37615D01*
X38849Y37655D01*
X38932Y37718D01*
X38995Y37801D01*
X39035Y37897D01*
X39049Y38000D01*
X39035Y38103D01*
X38995Y38199D01*
X38932Y38282D01*
X38849Y38345D01*
X38753Y38385D01*
X38650Y38399D01*
X38547Y38385D01*
X38451Y38345D01*
X38368Y38282D01*
X38305Y38199D01*
X38265Y38103D01*
X38251Y38000D01*
D02*
G37*
G36*
X37600Y36292D02*
Y35976D01*
X38073D01*
Y36292D01*
X37600D01*
D02*
G37*
G36*
Y36707D02*
Y36392D01*
X38073D01*
Y36707D01*
X37600D01*
D02*
G37*
G36*
X37184Y28823D02*
Y27777D01*
X37916D01*
Y28823D01*
X37779D01*
Y28950D01*
X37762Y29038D01*
X37712Y29112D01*
X37638Y29162D01*
X37550Y29179D01*
X37462Y29162D01*
X37388Y29112D01*
X37338Y29038D01*
X37321Y28950D01*
Y28823D01*
X37184D01*
D02*
G37*
G36*
X38326Y30773D02*
Y30300D01*
X38642D01*
Y30773D01*
X38326D01*
D02*
G37*
G36*
Y28250D02*
Y27777D01*
X38642D01*
Y28250D01*
X38326D01*
D02*
G37*
G36*
Y28823D02*
Y28350D01*
X38642D01*
Y28823D01*
X38326D01*
D02*
G37*
G36*
Y30200D02*
Y29727D01*
X38642D01*
Y30200D01*
X38326D01*
D02*
G37*
G36*
X40931Y18373D02*
Y18026D01*
X40986Y18034D01*
X41083Y18074D01*
X41166Y18138D01*
X41231Y18221D01*
X41271Y18319D01*
X41278Y18373D01*
X40931D01*
D02*
G37*
G36*
Y18820D02*
Y18473D01*
X41278D01*
X41271Y18528D01*
X41231Y18625D01*
X41166Y18709D01*
X41083Y18773D01*
X40986Y18813D01*
X40931Y18820D01*
D02*
G37*
G36*
X40484Y18373D02*
X40491Y18319D01*
X40532Y18221D01*
X40596Y18138D01*
X40679Y18074D01*
X40777Y18034D01*
X40831Y18026D01*
Y18373D01*
X40484D01*
D02*
G37*
G36*
X41052Y38950D02*
X41650D01*
Y39548D01*
X41573Y39541D01*
X41450Y39503D01*
X41337Y39443D01*
X41238Y39362D01*
X41157Y39263D01*
X41097Y39150D01*
X41059Y39027D01*
X41052Y38950D01*
D02*
G37*
G36*
Y36850D02*
X41059Y36773D01*
X41097Y36650D01*
X41157Y36537D01*
X41238Y36438D01*
X41337Y36357D01*
X41450Y36297D01*
X41573Y36259D01*
X41650Y36252D01*
Y36850D01*
X41052D01*
D02*
G37*
G36*
Y36950D02*
X41650D01*
Y37548D01*
X41573Y37541D01*
X41450Y37503D01*
X41337Y37443D01*
X41238Y37362D01*
X41157Y37263D01*
X41097Y37150D01*
X41059Y37027D01*
X41052Y36950D01*
D02*
G37*
G36*
Y38850D02*
X41059Y38773D01*
X41097Y38650D01*
X41157Y38537D01*
X41238Y38438D01*
X41337Y38357D01*
X41450Y38297D01*
X41573Y38259D01*
X41650Y38252D01*
Y38850D01*
X41052D01*
D02*
G37*
G36*
X40484Y18473D02*
X40831D01*
Y18820D01*
X40777Y18813D01*
X40679Y18773D01*
X40596Y18709D01*
X40532Y18625D01*
X40491Y18528D01*
X40484Y18473D01*
D02*
G37*
G36*
X39550Y36292D02*
Y35976D01*
X40023D01*
Y36292D01*
X39550D01*
D02*
G37*
G36*
Y36707D02*
Y36392D01*
X40023D01*
Y36707D01*
X39550D01*
D02*
G37*
G36*
X39255Y37950D02*
Y37605D01*
X39600D01*
Y37950D01*
X39255D01*
D02*
G37*
G36*
X38621Y35200D02*
X38638Y35112D01*
X38688Y35038D01*
X38762Y34988D01*
X38850Y34971D01*
X38977D01*
Y34834D01*
X40023D01*
Y35566D01*
X38977D01*
Y35429D01*
X38850D01*
X38762Y35412D01*
X38688Y35362D01*
X38638Y35288D01*
X38621Y35200D01*
D02*
G37*
G36*
X39297Y19604D02*
X39310Y19500D01*
X39351Y19403D01*
X39415Y19319D01*
X39498Y19255D01*
X39596Y19215D01*
X39700Y19201D01*
X39804Y19215D01*
X39902Y19255D01*
X39985Y19319D01*
X40049Y19403D01*
X40090Y19500D01*
X40103Y19604D01*
X40090Y19709D01*
X40049Y19806D01*
X39985Y19890D01*
X39902Y19954D01*
X39804Y19994D01*
X39700Y20008D01*
X39596Y19994D01*
X39498Y19954D01*
X39415Y19890D01*
X39351Y19806D01*
X39310Y19709D01*
X39297Y19604D01*
D02*
G37*
G36*
X39700Y37950D02*
Y37605D01*
X40045D01*
Y37950D01*
X39700D01*
D02*
G37*
G36*
Y38395D02*
Y38050D01*
X40045D01*
Y38395D01*
X39700D01*
D02*
G37*
%LPD*%
G36*
X34680Y23600D02*
X34680Y23600D01*
X34676Y23590D01*
X32780D01*
X32770Y23600D01*
Y26000D01*
X33690Y26850D01*
X34690D01*
Y23610D01*
X34680Y23600D01*
D02*
G37*
G36*
X31662Y18010D02*
X31510D01*
Y18010D01*
Y18030D01*
X31510Y18045D01*
X31510Y18045D01*
X31510D01*
Y18160D01*
X31060D01*
X30610D01*
Y18045D01*
X30575Y18010D01*
X30320D01*
Y19155D01*
X30351Y19201D01*
X30363Y19260D01*
X30351Y19319D01*
X30320Y19365D01*
Y19756D01*
X30359Y19841D01*
X31347D01*
X31357Y19792D01*
X31309Y19772D01*
X31246Y19724D01*
X31198Y19661D01*
X31168Y19588D01*
X31164Y19560D01*
X31460D01*
Y19510D01*
X31510D01*
Y19214D01*
X31538Y19218D01*
X31611Y19248D01*
X31674Y19296D01*
X31722Y19359D01*
X31740Y19355D01*
Y18010D01*
X31662D01*
D02*
G37*
G36*
X33930Y29020D02*
X33930Y29020D01*
X33890Y29020D01*
Y29020D01*
X33330D01*
Y28950D01*
X33140D01*
Y29020D01*
X32580D01*
X32580Y29020D01*
X32540Y29020D01*
Y29020D01*
X32310D01*
Y28760D01*
X32210D01*
Y29020D01*
X32050D01*
X32026Y29064D01*
X32051Y29101D01*
X32063Y29160D01*
Y30167D01*
X32065Y30169D01*
X32128Y30182D01*
X32194Y30226D01*
X32238Y30292D01*
X32254Y30370D01*
X32238Y30448D01*
X32194Y30514D01*
X32128Y30558D01*
X32050Y30574D01*
X31972Y30558D01*
X31906Y30514D01*
X31862Y30448D01*
X31849Y30385D01*
X31802Y30338D01*
X31769Y30289D01*
X31757Y30230D01*
Y29223D01*
X31509Y28975D01*
X31463Y28995D01*
Y33015D01*
X31507Y33038D01*
X31532Y33022D01*
X31610Y33006D01*
X31688Y33022D01*
X31754Y33066D01*
X31798Y33132D01*
X31814Y33210D01*
X31812Y33221D01*
X31843Y33260D01*
X31865D01*
Y33620D01*
X32155D01*
Y33260D01*
X32413D01*
X32428Y33212D01*
X32416Y33204D01*
X32372Y33138D01*
X32356Y33060D01*
X32372Y32982D01*
X32416Y32916D01*
X32482Y32872D01*
X32545Y32859D01*
X32657Y32747D01*
Y31660D01*
X32669Y31601D01*
X32702Y31552D01*
X32809Y31445D01*
X32822Y31382D01*
X32866Y31316D01*
X32932Y31272D01*
X33010Y31256D01*
X33088Y31272D01*
X33154Y31316D01*
X33198Y31382D01*
X33214Y31460D01*
X33198Y31538D01*
X33154Y31604D01*
X33088Y31648D01*
X33025Y31661D01*
X32963Y31723D01*
Y32810D01*
X32953Y32859D01*
X32951Y32869D01*
X32918Y32918D01*
X32761Y33075D01*
X32748Y33138D01*
X32704Y33204D01*
X32638Y33248D01*
X32614Y33253D01*
X32615Y33260D01*
X32615Y33260D01*
X32615Y33260D01*
Y33620D01*
X33728D01*
X33743Y33572D01*
X33716Y33554D01*
X33672Y33488D01*
X33656Y33410D01*
X33672Y33332D01*
X33716Y33266D01*
X33782Y33222D01*
X33845Y33209D01*
X34407Y32647D01*
Y29020D01*
X33930D01*
D02*
G37*
G36*
X32721Y15634D02*
X32709Y15662D01*
X32645Y15745D01*
X32562Y15809D01*
X32464Y15850D01*
X32410Y15857D01*
Y15063D01*
X32360Y15057D01*
X32335Y15060D01*
X32331Y15010D01*
X30300D01*
Y17930D01*
X30610D01*
Y17890D01*
X30610D01*
Y17760D01*
X31060D01*
X31510D01*
Y17890D01*
X31510D01*
Y17895D01*
X31545Y17930D01*
X31733D01*
Y16489D01*
X31754Y16464D01*
X31815Y16389D01*
X32770D01*
Y15644D01*
X32721Y15634D01*
D02*
G37*
%LPC*%
G36*
X31760Y15060D02*
Y15410D01*
X31410D01*
Y15060D01*
X31760D01*
D02*
G37*
G36*
X31510Y17260D02*
Y17390D01*
X31110D01*
Y17260D01*
X31510D01*
D02*
G37*
G36*
X31410Y19214D02*
Y19460D01*
X31164D01*
X31168Y19432D01*
X31198Y19359D01*
X31246Y19296D01*
X31309Y19248D01*
X31382Y19218D01*
X31410Y19214D01*
D02*
G37*
G36*
X31510Y17030D02*
Y17160D01*
X31110D01*
Y17030D01*
X31510D01*
D02*
G37*
G36*
X31760Y15510D02*
Y15860D01*
X31410D01*
Y15510D01*
X31760D01*
D02*
G37*
G36*
X33010Y33410D02*
Y33554D01*
X32982Y33548D01*
X32916Y33504D01*
X32872Y33438D01*
X32866Y33410D01*
X33010D01*
D02*
G37*
G36*
Y33166D02*
Y33310D01*
X32866D01*
X32872Y33282D01*
X32916Y33216D01*
X32982Y33172D01*
X33010Y33166D01*
D02*
G37*
G36*
X33210Y25840D02*
Y26086D01*
X33182Y26082D01*
X33109Y26052D01*
X33046Y26004D01*
X32998Y25941D01*
X32968Y25868D01*
X32964Y25840D01*
X33210D01*
D02*
G37*
G36*
X32624Y29349D02*
Y29524D01*
X32449D01*
X32457Y29484D01*
X32508Y29408D01*
X32584Y29357D01*
X32624Y29349D01*
D02*
G37*
G36*
X32310Y15510D02*
Y15857D01*
X32256Y15850D01*
X32158Y15809D01*
X32075Y15745D01*
X32011Y15662D01*
X31970Y15564D01*
X31963Y15510D01*
X32310D01*
D02*
G37*
G36*
Y15063D02*
Y15410D01*
X31963D01*
X31970Y15356D01*
X32011Y15258D01*
X32075Y15175D01*
X32158Y15111D01*
X32256Y15070D01*
X32310Y15063D01*
D02*
G37*
G36*
X32624Y30096D02*
Y30271D01*
X32584Y30263D01*
X32508Y30212D01*
X32457Y30136D01*
X32449Y30096D01*
X32624D01*
D02*
G37*
G36*
X31510Y17530D02*
Y17660D01*
X31110D01*
Y17530D01*
X31510D01*
D02*
G37*
G36*
X31010Y18260D02*
Y18390D01*
X30610D01*
Y18260D01*
X31010D01*
D02*
G37*
G36*
Y17530D02*
Y17660D01*
X30610D01*
Y17530D01*
X31010D01*
D02*
G37*
G36*
Y17260D02*
Y17390D01*
X30610D01*
Y17260D01*
X31010D01*
D02*
G37*
G36*
Y18530D02*
Y18660D01*
X30610D01*
Y18530D01*
X31010D01*
D02*
G37*
G36*
X30610Y16050D02*
Y16296D01*
X30582Y16292D01*
X30509Y16262D01*
X30446Y16214D01*
X30398Y16151D01*
X30368Y16078D01*
X30364Y16050D01*
X30610D01*
D02*
G37*
G36*
Y15704D02*
Y15950D01*
X30364D01*
X30368Y15922D01*
X30398Y15849D01*
X30446Y15786D01*
X30509Y15738D01*
X30582Y15708D01*
X30610Y15704D01*
D02*
G37*
G36*
X31010Y18760D02*
Y18890D01*
X30610D01*
Y18760D01*
X31010D01*
D02*
G37*
G36*
X31510D02*
Y18890D01*
X31110D01*
Y18760D01*
X31510D01*
D02*
G37*
G36*
Y18530D02*
Y18660D01*
X31110D01*
Y18530D01*
X31510D01*
D02*
G37*
G36*
Y18260D02*
Y18390D01*
X31110D01*
Y18260D01*
X31510D01*
D02*
G37*
G36*
X31310Y15510D02*
Y15860D01*
X30972D01*
D01*
X30966Y15868D01*
D01*
X30944Y15902D01*
X30952Y15922D01*
X30956Y15950D01*
X30710D01*
Y15704D01*
X30738Y15708D01*
X30811Y15738D01*
X30874Y15786D01*
X30913Y15836D01*
X30936Y15829D01*
D01*
X30958Y15821D01*
D01*
X30960Y15820D01*
Y15510D01*
X31310D01*
D02*
G37*
G36*
X31010Y17030D02*
Y17160D01*
X30610D01*
Y17030D01*
X31010D01*
D02*
G37*
G36*
X30956Y16050D02*
X30952Y16078D01*
X30922Y16151D01*
X30874Y16214D01*
X30811Y16262D01*
X30738Y16292D01*
X30710Y16296D01*
Y16050D01*
X30956D01*
D02*
G37*
G36*
X31310Y15060D02*
Y15410D01*
X30960D01*
Y15060D01*
X31310D01*
D02*
G37*
G36*
X34510Y24280D02*
Y24410D01*
X34060D01*
X33610D01*
Y24280D01*
X33910D01*
X33920Y24231D01*
X33899Y24222D01*
X33836Y24174D01*
X33788Y24111D01*
X33758Y24038D01*
X33754Y24010D01*
X34050D01*
X34346D01*
X34342Y24038D01*
X34312Y24111D01*
X34264Y24174D01*
X34201Y24222D01*
X34180Y24231D01*
X34190Y24280D01*
X34510D01*
D02*
G37*
G36*
X34000Y23664D02*
Y23910D01*
X33754D01*
X33758Y23882D01*
X33788Y23809D01*
X33836Y23746D01*
X33899Y23698D01*
X33972Y23668D01*
X34000Y23664D01*
D02*
G37*
G36*
X34346Y26510D02*
X34342Y26538D01*
X34312Y26611D01*
X34264Y26674D01*
X34201Y26722D01*
X34128Y26752D01*
X34100Y26756D01*
Y26510D01*
X34346D01*
D02*
G37*
G36*
X34000D02*
Y26756D01*
X33972Y26752D01*
X33899Y26722D01*
X33836Y26674D01*
X33788Y26611D01*
X33758Y26538D01*
X33754Y26510D01*
X34000D01*
D02*
G37*
G36*
X34010Y25010D02*
Y25140D01*
X33610D01*
Y25010D01*
X34010D01*
D02*
G37*
G36*
Y24780D02*
Y24910D01*
X33610D01*
Y24780D01*
X34010D01*
D02*
G37*
G36*
Y24510D02*
Y24640D01*
X33610D01*
Y24510D01*
X34010D01*
D02*
G37*
G36*
X34346Y23910D02*
X34100D01*
Y23664D01*
X34128Y23668D01*
X34201Y23698D01*
X34264Y23746D01*
X34312Y23809D01*
X34342Y23882D01*
X34346Y23910D01*
D02*
G37*
G36*
X34510Y24780D02*
Y24910D01*
X34110D01*
Y24780D01*
X34510D01*
D02*
G37*
G36*
Y24510D02*
Y24640D01*
X34110D01*
Y24510D01*
X34510D01*
D02*
G37*
G36*
Y26010D02*
Y26140D01*
X34190D01*
X34180Y26189D01*
X34201Y26198D01*
X34264Y26246D01*
X34312Y26309D01*
X34342Y26382D01*
X34346Y26410D01*
X34050D01*
X33754D01*
X33758Y26382D01*
X33788Y26309D01*
X33836Y26246D01*
X33899Y26198D01*
X33920Y26189D01*
X33910Y26140D01*
X33610D01*
Y26010D01*
X34060D01*
X34510D01*
D02*
G37*
G36*
Y25010D02*
Y25140D01*
X34110D01*
Y25010D01*
X34510D01*
D02*
G37*
G36*
Y25780D02*
Y25910D01*
X34110D01*
Y25780D01*
X34510D01*
D02*
G37*
G36*
Y25510D02*
Y25640D01*
X34110D01*
Y25510D01*
X34510D01*
D02*
G37*
G36*
Y25280D02*
Y25410D01*
X34110D01*
Y25280D01*
X34510D01*
D02*
G37*
G36*
X33254Y33310D02*
X33110D01*
Y33166D01*
X33138Y33172D01*
X33204Y33216D01*
X33248Y33282D01*
X33254Y33310D01*
D02*
G37*
G36*
X33371Y30096D02*
X33363Y30136D01*
X33312Y30212D01*
X33236Y30263D01*
X33196Y30271D01*
Y30096D01*
X33371D01*
D02*
G37*
G36*
Y29524D02*
X33196D01*
Y29349D01*
X33236Y29357D01*
X33312Y29408D01*
X33363Y29484D01*
X33371Y29524D01*
D02*
G37*
G36*
X33254Y33410D02*
X33248Y33438D01*
X33204Y33504D01*
X33138Y33548D01*
X33110Y33554D01*
Y33410D01*
X33254D01*
D02*
G37*
G36*
X33210Y25494D02*
Y25740D01*
X32964D01*
X32968Y25712D01*
X32998Y25639D01*
X33046Y25576D01*
X33109Y25528D01*
X33182Y25498D01*
X33210Y25494D01*
D02*
G37*
G36*
X33220Y24030D02*
Y24276D01*
X33192Y24272D01*
X33119Y24242D01*
X33056Y24194D01*
X33008Y24131D01*
X32978Y24058D01*
X32974Y24030D01*
X33220D01*
D02*
G37*
G36*
Y23684D02*
Y23930D01*
X32974D01*
X32978Y23902D01*
X33008Y23829D01*
X33056Y23766D01*
X33119Y23718D01*
X33192Y23688D01*
X33220Y23684D01*
D02*
G37*
G36*
X33371Y29624D02*
X33363Y29663D01*
X33312Y29740D01*
X33244Y29785D01*
Y29835D01*
X33312Y29880D01*
X33363Y29957D01*
X33371Y29996D01*
X33146D01*
Y30046D01*
X33096D01*
Y30271D01*
X33057Y30263D01*
X32980Y30212D01*
X32935Y30144D01*
X32885D01*
X32840Y30212D01*
X32763Y30263D01*
X32724Y30271D01*
Y30046D01*
X32674D01*
Y29996D01*
X32449D01*
X32457Y29957D01*
X32508Y29880D01*
X32576Y29835D01*
Y29785D01*
X32508Y29740D01*
X32457Y29663D01*
X32449Y29624D01*
X32674D01*
Y29574D01*
X32724D01*
Y29349D01*
X32763Y29357D01*
X32840Y29408D01*
X32885Y29476D01*
X32935D01*
X32980Y29408D01*
X33057Y29357D01*
X33096Y29349D01*
Y29574D01*
X33146D01*
Y29624D01*
X33371D01*
D02*
G37*
G36*
X34010Y25780D02*
Y25910D01*
X33610D01*
Y25812D01*
X33608Y25812D01*
D01*
D01*
D01*
X33560Y25809D01*
X33563Y25790D01*
X33561Y25780D01*
X33610D01*
Y25780D01*
X33612D01*
Y25780D01*
X34010D01*
D02*
G37*
G36*
Y25510D02*
Y25640D01*
X33610D01*
Y25510D01*
X34010D01*
D02*
G37*
G36*
Y25280D02*
Y25410D01*
X33610D01*
Y25280D01*
X34010D01*
D02*
G37*
G36*
X33566Y23930D02*
X33320D01*
Y23684D01*
X33348Y23688D01*
X33421Y23718D01*
X33484Y23766D01*
X33532Y23829D01*
X33562Y23902D01*
X33566Y23930D01*
D02*
G37*
G36*
X33556Y25840D02*
X33552Y25868D01*
X33522Y25941D01*
X33474Y26004D01*
X33411Y26052D01*
X33338Y26082D01*
X33310Y26086D01*
Y25840D01*
X33556D01*
D02*
G37*
G36*
Y25740D02*
X33310D01*
Y25494D01*
X33338Y25498D01*
X33411Y25528D01*
X33474Y25576D01*
X33522Y25639D01*
X33552Y25712D01*
X33556Y25740D01*
D02*
G37*
G36*
X33566Y24030D02*
X33562Y24058D01*
X33532Y24131D01*
X33484Y24194D01*
X33421Y24242D01*
X33348Y24272D01*
X33320Y24276D01*
Y24030D01*
X33566D01*
D02*
G37*
%LPD*%
G36*
X14050Y24080D02*
Y26330D01*
X16195D01*
Y24080D01*
X14050D01*
D02*
G37*
%LPC*%
G36*
X15070Y24600D02*
Y24846D01*
X15042Y24842D01*
X14969Y24812D01*
X14906Y24764D01*
X14858Y24701D01*
X14828Y24628D01*
X14824Y24600D01*
X15070D01*
D02*
G37*
G36*
Y24254D02*
Y24500D01*
X14824D01*
X14828Y24472D01*
X14858Y24399D01*
X14906Y24336D01*
X14969Y24288D01*
X15042Y24258D01*
X15070Y24254D01*
D02*
G37*
G36*
X15400Y25680D02*
Y26113D01*
X14869D01*
Y25680D01*
X15400D01*
D02*
G37*
G36*
X14716Y24490D02*
X14470D01*
Y24244D01*
X14498Y24248D01*
X14571Y24278D01*
X14634Y24326D01*
X14682Y24389D01*
X14712Y24462D01*
X14716Y24490D01*
D02*
G37*
G36*
X14370Y24590D02*
Y24836D01*
X14342Y24832D01*
X14269Y24802D01*
X14206Y24754D01*
X14158Y24691D01*
X14128Y24618D01*
X14124Y24590D01*
X14370D01*
D02*
G37*
G36*
Y24244D02*
Y24490D01*
X14124D01*
X14128Y24462D01*
X14158Y24389D01*
X14206Y24326D01*
X14269Y24278D01*
X14342Y24248D01*
X14370Y24244D01*
D02*
G37*
G36*
X14716Y24590D02*
X14712Y24618D01*
X14682Y24691D01*
X14634Y24754D01*
X14571Y24802D01*
X14498Y24832D01*
X14470Y24836D01*
Y24590D01*
X14716D01*
D02*
G37*
G36*
X15400Y25147D02*
Y25580D01*
X14869D01*
Y25147D01*
X15400D01*
D02*
G37*
G36*
X16032D02*
Y25580D01*
X15500D01*
Y25147D01*
X16032D01*
D02*
G37*
G36*
Y25680D02*
Y26113D01*
X15500D01*
Y25680D01*
X16032D01*
D02*
G37*
G36*
X16076Y24500D02*
X15830D01*
Y24254D01*
X15858Y24258D01*
X15931Y24288D01*
X15994Y24336D01*
X16042Y24399D01*
X16072Y24472D01*
X16076Y24500D01*
D02*
G37*
G36*
Y24600D02*
X16072Y24628D01*
X16042Y24701D01*
X15994Y24764D01*
X15931Y24812D01*
X15858Y24842D01*
X15830Y24846D01*
Y24600D01*
X16076D01*
D02*
G37*
G36*
X15416Y24500D02*
X15170D01*
Y24254D01*
X15198Y24258D01*
X15271Y24288D01*
X15334Y24336D01*
X15382Y24399D01*
X15412Y24472D01*
X15416Y24500D01*
D02*
G37*
G36*
Y24600D02*
X15412Y24628D01*
X15382Y24701D01*
X15334Y24764D01*
X15271Y24812D01*
X15198Y24842D01*
X15170Y24846D01*
Y24600D01*
X15416D01*
D02*
G37*
G36*
X15730Y24254D02*
Y24500D01*
X15484D01*
X15488Y24472D01*
X15518Y24399D01*
X15566Y24336D01*
X15629Y24288D01*
X15702Y24258D01*
X15730Y24254D01*
D02*
G37*
G36*
Y24600D02*
Y24846D01*
X15702Y24842D01*
X15629Y24812D01*
X15566Y24764D01*
X15518Y24701D01*
X15488Y24628D01*
X15484Y24600D01*
X15730D01*
D02*
G37*
%LPD*%
D12*
X18070Y21210D02*
D03*
Y20610D02*
D03*
X18060Y19180D02*
D03*
Y19780D02*
D03*
Y22480D02*
D03*
Y23080D02*
D03*
X12020Y21210D02*
D03*
Y20610D02*
D03*
X12010Y19180D02*
D03*
Y19780D02*
D03*
Y22480D02*
D03*
Y23080D02*
D03*
D15*
X19230Y23120D02*
D03*
X21730D02*
D03*
X19230Y20990D02*
D03*
X21730D02*
D03*
X19660Y35900D02*
D03*
X22160D02*
D03*
X28520Y36060D02*
D03*
X26020D02*
D03*
X25920Y20160D02*
D03*
X28420D02*
D03*
X25920Y22360D02*
D03*
X28420D02*
D03*
X34710Y36060D02*
D03*
X32210D02*
D03*
X32110Y20160D02*
D03*
X34610D02*
D03*
X32110Y22360D02*
D03*
X34610D02*
D03*
X13180Y23120D02*
D03*
X15680D02*
D03*
X13180Y20990D02*
D03*
X15680D02*
D03*
X13610Y35900D02*
D03*
X16110D02*
D03*
D16*
X20490Y29250D02*
D03*
X21090D02*
D03*
X20340Y30400D02*
D03*
X19740D02*
D03*
X21690D02*
D03*
X21090D02*
D03*
X27420Y28760D02*
D03*
X28020D02*
D03*
X26070D02*
D03*
X26670D02*
D03*
X27420Y27610D02*
D03*
X26820D02*
D03*
X33610Y28760D02*
D03*
X34210D02*
D03*
X32260D02*
D03*
X32860D02*
D03*
X33610Y27610D02*
D03*
X33010D02*
D03*
X14440Y29250D02*
D03*
X15040D02*
D03*
X14290Y30400D02*
D03*
X13690D02*
D03*
X15640D02*
D03*
X15040D02*
D03*
D20*
X22800Y23080D02*
Y20920D01*
Y18726D01*
Y27660D02*
Y23080D01*
Y28740D02*
Y28160D01*
X20990Y17750D02*
X21824D01*
X22800Y33920D02*
Y28740D01*
Y37400D02*
Y33920D01*
X21920Y38280D02*
X22800Y37400D01*
X20820Y17580D02*
Y17020D01*
X20990Y17750D02*
X20820Y17580D01*
X21824Y17750D02*
Y17024D01*
X22800Y18726D02*
X21824Y17750D01*
X18926Y38270D02*
Y36016D01*
X18220Y35310D01*
X18140Y30000D02*
Y28700D01*
Y35200D02*
Y30000D01*
X19230Y25238D02*
Y23120D01*
Y20990D01*
X22800Y33920D02*
X20636Y31756D01*
X18140Y28570D02*
Y28180D01*
X27196Y16126D02*
X28170D01*
X29130Y20130D02*
Y17086D01*
Y27100D02*
Y20130D01*
Y36900D02*
Y27100D01*
X27170Y16100D02*
Y15460D01*
X27196Y16126D02*
X27170Y16100D01*
X28170Y16126D02*
Y15460D01*
X29130Y17086D02*
X28170Y16126D01*
X28230Y38400D02*
Y37800D01*
X24670Y27060D02*
Y25610D01*
X28230Y37800D02*
X29130Y36900D01*
X24670Y35360D02*
Y27160D01*
X25286Y38250D02*
Y35976D01*
X25920Y20160D02*
X25270Y19510D01*
X25920Y21310D02*
Y20160D01*
Y22360D02*
Y21310D01*
X25286Y35976D02*
X24670Y35360D01*
X25920Y24110D02*
Y22360D01*
X33386Y16126D02*
X34360D01*
X35320Y20130D02*
Y17086D01*
Y27100D02*
Y20130D01*
Y36900D02*
Y27100D01*
X33360Y16100D02*
Y15460D01*
X33386Y16126D02*
X33360Y16100D01*
X34360Y16126D02*
Y15460D01*
X35320Y17086D02*
X34360Y16126D01*
X34420Y38400D02*
Y37800D01*
X30860Y27060D02*
Y25610D01*
X34420Y37800D02*
X35320Y36900D01*
X30860Y35360D02*
Y27160D01*
X31476Y38250D02*
Y35976D01*
X32110Y20160D02*
X31460Y19510D01*
X32110Y21310D02*
Y20160D01*
Y22360D02*
Y21310D01*
X31476Y35976D02*
X30860Y35360D01*
X32110Y24110D02*
Y22360D01*
X16750Y23080D02*
Y20920D01*
Y18726D01*
Y27660D02*
Y23080D01*
Y28740D02*
Y28160D01*
X14940Y17750D02*
X15774D01*
X16750Y33920D02*
Y28740D01*
Y37400D02*
Y33920D01*
X15870Y38280D02*
X16750Y37400D01*
X14770Y17580D02*
Y17020D01*
X14940Y17750D02*
X14770Y17580D01*
X15774Y17750D02*
Y17024D01*
X16750Y18726D02*
X15774Y17750D01*
X12876Y38270D02*
Y36016D01*
X12170Y35310D01*
X12090Y30000D02*
Y28700D01*
Y35200D02*
Y30000D01*
X13180Y25238D02*
Y23120D01*
Y20990D01*
X16750Y33920D02*
X14586Y31756D01*
X12090Y28570D02*
Y28180D01*
D21*
X21730Y23120D02*
X22760D01*
X22800Y23080D01*
X21730Y20990D02*
X22730D01*
X22800Y20920D01*
X20636Y31756D02*
Y31284D01*
X20164Y31756D02*
X20636D01*
X20164D02*
Y31284D01*
X20636D01*
X20990Y28750D02*
X20810Y28570D01*
X27370Y27160D02*
X27270Y27060D01*
X24670D02*
X27270D01*
X24670Y25610D02*
X24820Y25460D01*
X40250Y37400D02*
X39550D01*
X40750Y36900D02*
X40250Y37400D01*
X39650Y36292D02*
X39908Y36342D01*
X38692Y30250D02*
Y30892D01*
Y30200D02*
Y30250D01*
Y30892D02*
X40400Y32600D01*
Y35850D01*
X39908Y36342D01*
X41700Y36900D02*
X40750D01*
X39650Y36292D02*
Y37800D01*
X39700Y18423D02*
X38377D01*
X36750Y20050D01*
Y31050D01*
X36800Y35200D02*
X36750Y35250D01*
Y37250D01*
Y31050D02*
Y35250D01*
X37550Y35200D02*
X36800D01*
X37550Y30250D02*
X36750Y31050D01*
Y37250D02*
X37500Y38000D01*
X37650D02*
X37500D01*
X33560Y27160D02*
X33460Y27060D01*
X30860D02*
X33460D01*
X30860Y25610D02*
X31010Y25460D01*
X15680Y23120D02*
X16710D01*
X16750Y23080D01*
X15680Y20990D02*
X16680D01*
X16750Y20920D01*
X14586Y31756D02*
Y31284D01*
X14114Y31756D02*
X14586D01*
X14114D02*
Y31284D01*
X14586D01*
X14940Y28750D02*
X14760Y28570D01*
D22*
X26170Y35310D02*
X26620D01*
X27370Y36060D02*
X26620Y35310D01*
X27370Y36060D02*
X28520D01*
X24670Y35360D02*
X24695D01*
X25720Y18610D02*
Y17560D01*
X26070Y17210D01*
X26920D01*
X26120Y18010D02*
Y17610D01*
X26320Y18210D02*
X26120Y18010D01*
X26320Y18210D02*
X26920D01*
Y18710D02*
X27670D01*
X27120Y30210D02*
X26956Y30046D01*
X27120Y33110D02*
Y30210D01*
X26870Y33360D02*
X27120Y33110D01*
X26170Y35310D02*
X25820Y34960D01*
Y34610D01*
X26195D02*
Y34235D01*
X26070Y34110D01*
X25620D02*
X26070D01*
X25445Y34285D02*
X25620Y34110D01*
X25445Y34610D02*
Y34285D01*
X24695Y35360D02*
X25445Y34610D01*
X37550Y36292D02*
X37600Y36342D01*
X38692Y30200D02*
X38642Y30250D01*
X39650Y36292D02*
X38500Y36342D01*
X37600D01*
X38692Y28300D02*
Y29300D01*
Y30200D01*
X32360Y35310D02*
X32810D01*
X33560Y36060D02*
X32810Y35310D01*
X33560Y36060D02*
X34710D01*
X30860Y35360D02*
X30885D01*
X31910Y18610D02*
Y17560D01*
X32260Y17210D01*
X33110D01*
X32310Y18010D02*
Y17610D01*
X32510Y18210D02*
X32310Y18010D01*
X32510Y18210D02*
X33110D01*
Y18710D02*
X33860D01*
X33310Y30210D02*
X33146Y30046D01*
X33310Y33110D02*
Y30210D01*
X33060Y33360D02*
X33310Y33110D01*
X32360Y35310D02*
X32010Y34960D01*
Y34610D01*
X32385D02*
Y34235D01*
X32260Y34110D01*
X31810D02*
X32260D01*
X31635Y34285D02*
X31810Y34110D01*
X31635Y34610D02*
Y34285D01*
X30885Y35360D02*
X31635Y34610D01*
D23*
X19910Y38270D02*
Y37600D01*
X19390Y30800D02*
X19065Y30475D01*
Y30075D01*
X20006Y29834D02*
X20040Y29800D01*
X20340Y30400D02*
X19990Y30050D01*
Y29850D01*
X20006Y29834D01*
X20890Y30400D02*
X21090D01*
X20890D02*
X20518Y30028D01*
Y29822D01*
X19740Y30400D02*
Y29750D01*
X20240Y29250D01*
X20490D01*
X21090D02*
X21340D01*
X21690Y30400D02*
Y29600D01*
X21340Y29250D01*
X21090D02*
Y28850D01*
X21040Y28800D02*
X20990Y28750D01*
X21090Y28850D02*
X21040Y28800D01*
X19530Y32010D02*
X19390Y31870D01*
Y30800D01*
X20490Y37020D02*
Y33100D01*
X19910Y37600D02*
X20490Y37020D01*
X18020Y22360D02*
X18070Y22310D01*
Y21210D01*
X18720Y25980D02*
X18110Y25370D01*
X18720Y27180D02*
Y25980D01*
X18070Y20610D02*
Y19790D01*
X17820Y19180D02*
X18060D01*
X17750Y19250D02*
X17820Y19180D01*
X17750Y23010D02*
Y19250D01*
X17800Y23060D02*
X17750Y23010D01*
X17800Y23060D02*
X18040D01*
X18060Y23080D02*
X18040Y23060D01*
X18070Y20610D02*
X18850D01*
X19230Y20990D02*
X18850Y20610D01*
X17850Y24070D02*
X18350Y23570D01*
Y22660D01*
X18170Y22480D01*
X18060D02*
X18170D01*
X19740Y30860D02*
Y30400D01*
X20164Y31284D02*
X19740Y30860D01*
X19980Y27400D02*
Y26530D01*
X20380Y26130D01*
X19200Y27660D02*
X18720Y27180D01*
X22800Y27940D02*
Y27660D01*
X19165Y27875D02*
X19465D01*
X19165D02*
X17850Y26560D01*
Y24070D01*
X19200Y27660D02*
X22800D01*
X24020Y38190D02*
Y19260D01*
X24700Y38870D02*
X24020Y38190D01*
X24700Y38870D02*
X26760D01*
X27230Y38400D01*
X25720Y30230D02*
Y29160D01*
X25860Y30370D02*
X25720Y30230D01*
X25930Y16910D02*
X27620D01*
X25860Y16980D02*
X25930Y16910D01*
X26400Y25040D02*
X26320Y24960D01*
X26400Y25640D02*
Y25040D01*
X26470Y25710D02*
X26400Y25640D01*
X25820Y25960D02*
X26180D01*
X26430Y26210D02*
X26180Y25960D01*
X27720Y17010D02*
X27620Y16910D01*
X27720Y17610D02*
Y17010D01*
X27620Y17710D02*
X27720Y17610D01*
X25420Y33585D02*
Y33210D01*
X25820Y24960D02*
X26320D01*
X27420Y27210D02*
X27370Y27160D01*
X27320Y27110D01*
X27420Y27610D02*
Y27210D01*
X28370Y28310D02*
X28020Y27960D01*
X27670Y27610D01*
X28020Y28760D02*
Y27960D01*
X27420Y27610D02*
X27670D01*
X26570D02*
X26820D01*
X26070Y28110D02*
X26570Y27610D01*
X26070Y28760D02*
Y28110D01*
Y29160D02*
Y28760D01*
X26484Y29574D02*
X26070Y29160D01*
X26848Y28388D02*
Y28182D01*
X27220Y28760D02*
X26848Y28388D01*
X27220Y28760D02*
X27420D01*
X26320Y28210D02*
X26336Y28194D01*
X26320Y28410D02*
Y28210D01*
X26670Y28760D02*
X26320Y28410D01*
X26336Y28194D02*
X26370Y28160D01*
X26920Y17710D02*
X27620D01*
X26620Y31660D02*
X26820Y31460D01*
X26620Y32810D02*
Y31660D01*
X26370Y33060D02*
X26620Y32810D01*
X25395Y28835D02*
Y28435D01*
X25720Y29160D02*
X25395Y28835D01*
X28370Y32710D02*
Y28310D01*
X27670Y33410D02*
X28370Y32710D01*
X26870Y35060D02*
Y33360D01*
X38100Y35400D02*
X37750D01*
X37550Y35200D02*
X37750Y35400D01*
Y29700D02*
Y30050D01*
X37550Y30250D01*
X30210Y38190D02*
Y19260D01*
X30890Y38870D02*
X30210Y38190D01*
X30890Y38870D02*
X32950D01*
X33420Y38400D01*
X31910Y30230D02*
Y29160D01*
X32050Y30370D02*
X31910Y30230D01*
X32120Y16910D02*
X33810D01*
X32050Y16980D02*
X32120Y16910D01*
X32590Y25040D02*
X32510Y24960D01*
X32590Y25640D02*
Y25040D01*
X32660Y25710D02*
X32590Y25640D01*
X32010Y25960D02*
X32370D01*
X32620Y26210D02*
X32370Y25960D01*
X33910Y17010D02*
X33810Y16910D01*
X33910Y17610D02*
Y17010D01*
X33810Y17710D02*
X33910Y17610D01*
X31610Y33585D02*
Y33210D01*
X32010Y24960D02*
X32510D01*
X33610Y27210D02*
X33560Y27160D01*
X33510Y27110D01*
X33610Y27610D02*
Y27210D01*
X34560Y28310D02*
X34210Y27960D01*
X33860Y27610D01*
X34210Y28760D02*
Y27960D01*
X33610Y27610D02*
X33860D01*
X32760D02*
X33010D01*
X32260Y28110D02*
X32760Y27610D01*
X32260Y28760D02*
Y28110D01*
Y29160D02*
Y28760D01*
X32674Y29574D02*
X32260Y29160D01*
X33038Y28388D02*
Y28182D01*
X33410Y28760D02*
X33038Y28388D01*
X33410Y28760D02*
X33610D01*
X32510Y28210D02*
X32526Y28194D01*
X32510Y28410D02*
Y28210D01*
X32860Y28760D02*
X32510Y28410D01*
X32526Y28194D02*
X32560Y28160D01*
X33110Y17710D02*
X33810D01*
X32810Y31660D02*
X33010Y31460D01*
X32810Y32810D02*
Y31660D01*
X32560Y33060D02*
X32810Y32810D01*
X31585Y28835D02*
Y28435D01*
X31910Y29160D02*
X31585Y28835D01*
X34560Y32710D02*
Y28310D01*
X33860Y33410D02*
X34560Y32710D01*
X33060Y35060D02*
Y33360D01*
X13860Y38270D02*
Y37600D01*
X13340Y30800D02*
X13015Y30475D01*
Y30075D01*
X13956Y29834D02*
X13990Y29800D01*
X14290Y30400D02*
X13940Y30050D01*
Y29850D01*
X13956Y29834D01*
X14840Y30400D02*
X15040D01*
X14840D02*
X14468Y30028D01*
Y29822D01*
X13690Y30400D02*
Y29750D01*
X14190Y29250D01*
X14440D01*
X15040D02*
X15290D01*
X15640Y30400D02*
Y29600D01*
X15290Y29250D01*
X15040D02*
Y28850D01*
X14990Y28800D02*
X14940Y28750D01*
X15040Y28850D02*
X14990Y28800D01*
X13480Y32010D02*
X13340Y31870D01*
Y30800D01*
X14440Y37020D02*
Y33100D01*
X13860Y37600D02*
X14440Y37020D01*
X11970Y22360D02*
X12020Y22310D01*
Y21210D01*
X12670Y25980D02*
X12060Y25370D01*
X12670Y27180D02*
Y25980D01*
X12020Y20610D02*
Y19790D01*
X11770Y19180D02*
X12010D01*
X11700Y19250D02*
X11770Y19180D01*
X11700Y23010D02*
Y19250D01*
X11750Y23060D02*
X11700Y23010D01*
X11750Y23060D02*
X11990D01*
X12010Y23080D02*
X11990Y23060D01*
X12020Y20610D02*
X12800D01*
X13180Y20990D02*
X12800Y20610D01*
X11800Y24070D02*
X12300Y23570D01*
Y22660D01*
X12120Y22480D01*
X12010D02*
X12120D01*
X13690Y30860D02*
Y30400D01*
X14114Y31284D02*
X13690Y30860D01*
X13930Y27400D02*
Y26530D01*
X14330Y26130D01*
X13150Y27660D02*
X12670Y27180D01*
X16750Y27940D02*
Y27660D01*
X13115Y27875D02*
X13415D01*
X13115D02*
X11800Y26560D01*
Y24070D01*
X13150Y27660D02*
X16750D01*
D24*
X19230Y20990D02*
Y20040D01*
X19030Y19840D01*
X19020D02*
X19030D01*
X18140Y28570D02*
X20810D01*
X13180Y20990D02*
Y20040D01*
X12980Y19840D01*
X12970D02*
X12980D01*
X12090Y28570D02*
X14760D01*
D25*
X26195Y34610D02*
D03*
X25445D02*
D03*
X26195Y33610D02*
D03*
X25445D02*
D03*
X25820Y34610D02*
D03*
X32385D02*
D03*
X31635D02*
D03*
X32385Y33610D02*
D03*
X31635D02*
D03*
X32010Y34610D02*
D03*
D26*
X21500Y25630D02*
D03*
X19492D02*
D03*
X15450D02*
D03*
X13442D02*
D03*
D27*
X24820Y25460D02*
X25820D01*
X31010D02*
X32010D01*
D35*
X37550Y36342D02*
D03*
Y35200D02*
D03*
X39500Y36342D02*
D03*
Y35200D02*
D03*
D36*
X38692Y28300D02*
D03*
X37550D02*
D03*
X38692Y30250D02*
D03*
X37550D02*
D03*
D38*
X18820Y17020D02*
D03*
X21910Y38270D02*
D03*
X25170Y15460D02*
D03*
X28230Y38400D02*
D03*
X31360Y15460D02*
D03*
X34420Y38400D02*
D03*
X12770Y17020D02*
D03*
X15860Y38270D02*
D03*
D39*
X19820Y17020D02*
D03*
X20820D02*
D03*
X21820D02*
D03*
X20910Y38270D02*
D03*
X19910D02*
D03*
X18910D02*
D03*
X26170Y15460D02*
D03*
X27170D02*
D03*
X28170D02*
D03*
X27230Y38400D02*
D03*
X26230D02*
D03*
X25230D02*
D03*
X32360Y15460D02*
D03*
X33360D02*
D03*
X34360D02*
D03*
X33420Y38400D02*
D03*
X32420D02*
D03*
X31420D02*
D03*
X13770Y17020D02*
D03*
X14770D02*
D03*
X15770D02*
D03*
X14860Y38270D02*
D03*
X13860D02*
D03*
X12860D02*
D03*
D40*
X20490Y33100D02*
D03*
X19065Y30075D02*
D03*
X20518Y29822D02*
D03*
X20006Y29834D02*
D03*
X19530Y32010D02*
D03*
X18110Y25370D02*
D03*
X19980Y27400D02*
D03*
X19510Y27920D02*
D03*
X25860Y30370D02*
D03*
Y16980D02*
D03*
X26420Y25710D02*
D03*
X26430Y26210D02*
D03*
X24020Y19260D02*
D03*
X25420Y33210D02*
D03*
X26336Y28194D02*
D03*
X26848Y28182D02*
D03*
X25720Y18610D02*
D03*
X26120Y17610D02*
D03*
X27670Y18710D02*
D03*
X25395Y28435D02*
D03*
X27670Y33410D02*
D03*
X26870Y33360D02*
D03*
Y35060D02*
D03*
X26820Y31460D02*
D03*
X26370Y33060D02*
D03*
X38800Y13850D02*
D03*
X37700Y15050D02*
D03*
X40050Y13800D02*
D03*
X37650Y13700D02*
D03*
X37300Y31900D02*
D03*
X38900Y19050D02*
D03*
Y17950D02*
D03*
X38850Y16650D02*
D03*
X40700Y16550D02*
D03*
X44400Y17850D02*
D03*
Y25150D02*
D03*
X44450Y22200D02*
D03*
X44350Y31150D02*
D03*
X44400Y29300D02*
D03*
X44300Y32150D02*
D03*
X36950Y38600D02*
D03*
X39902Y38837D02*
D03*
X38300Y38747D02*
D03*
X38800Y39400D02*
D03*
X37300D02*
D03*
X38900Y34050D02*
D03*
X37300Y33200D02*
D03*
X38450Y25100D02*
D03*
X42100Y16800D02*
D03*
X43800Y14900D02*
D03*
X42700Y13850D02*
D03*
X41650Y14800D02*
D03*
X42750Y38900D02*
D03*
X43850Y37850D02*
D03*
X41700D02*
D03*
X41800Y33500D02*
D03*
X41050Y34300D02*
D03*
X39420Y32903D02*
D03*
X40850Y32850D02*
D03*
X40600Y25150D02*
D03*
X40350Y26650D02*
D03*
X41650Y25150D02*
D03*
X38950Y15050D02*
D03*
X40500D02*
D03*
X40650Y15700D02*
D03*
X39750Y14700D02*
D03*
X38850Y15750D02*
D03*
Y20450D02*
D03*
X42100Y23000D02*
D03*
X41800Y18100D02*
D03*
X42050Y20200D02*
D03*
X41800Y20750D02*
D03*
X41400Y20250D02*
D03*
X40400D02*
D03*
X41450Y19050D02*
D03*
X40400D02*
D03*
X42100Y17350D02*
D03*
X41950Y18800D02*
D03*
X40900Y17300D02*
D03*
X40800Y39400D02*
D03*
Y38050D02*
D03*
X41200Y27150D02*
D03*
X40250Y28000D02*
D03*
X39650Y27000D02*
D03*
X38700Y22950D02*
D03*
X37300Y23200D02*
D03*
X37850Y24150D02*
D03*
X37650Y25550D02*
D03*
X37700Y32400D02*
D03*
X37850Y33600D02*
D03*
X38200Y31750D02*
D03*
X38900Y23800D02*
D03*
X42200Y25250D02*
D03*
X42050Y26350D02*
D03*
X42100Y27700D02*
D03*
X42200Y32950D02*
D03*
X42000Y33900D02*
D03*
X41950Y35000D02*
D03*
X41550Y35300D02*
D03*
X42100Y35800D02*
D03*
X43750Y26750D02*
D03*
X43350D02*
D03*
X43700Y34450D02*
D03*
X43250D02*
D03*
X43350Y33150D02*
D03*
Y32700D02*
D03*
Y32200D02*
D03*
Y31200D02*
D03*
X43750Y28950D02*
D03*
Y28350D02*
D03*
X43350D02*
D03*
Y28950D02*
D03*
X43750Y20600D02*
D03*
X43350Y21050D02*
D03*
X43400Y24400D02*
D03*
Y23550D02*
D03*
Y24900D02*
D03*
Y25350D02*
D03*
X43777Y21003D02*
D03*
X43350Y20600D02*
D03*
X44400Y16700D02*
D03*
X43247Y16703D02*
D03*
X43300Y17950D02*
D03*
X41750Y23450D02*
D03*
X41300D02*
D03*
X40550D02*
D03*
X39850Y23400D02*
D03*
X39854Y22797D02*
D03*
X39850Y22200D02*
D03*
Y21550D02*
D03*
Y20900D02*
D03*
X40550D02*
D03*
X41100D02*
D03*
X41550Y20950D02*
D03*
X42050Y21200D02*
D03*
X43350Y21600D02*
D03*
X43400Y22950D02*
D03*
X43350Y30700D02*
D03*
Y29450D02*
D03*
X42025Y30950D02*
D03*
X41350Y31300D02*
D03*
X40950D02*
D03*
X39900D02*
D03*
X39800Y30750D02*
D03*
Y30100D02*
D03*
Y29450D02*
D03*
Y28750D02*
D03*
X40450D02*
D03*
X41050D02*
D03*
X41550D02*
D03*
X42050Y28950D02*
D03*
X43900Y30050D02*
D03*
X43750Y30450D02*
D03*
Y29700D02*
D03*
X43700Y22650D02*
D03*
X43850Y22200D02*
D03*
X43700Y21750D02*
D03*
X38850Y35200D02*
D03*
X38100Y35400D02*
D03*
X38500Y36342D02*
D03*
X37750Y29700D02*
D03*
X38692Y29300D02*
D03*
X37550Y28950D02*
D03*
X32050Y30370D02*
D03*
Y16980D02*
D03*
X32610Y25710D02*
D03*
X32620Y26210D02*
D03*
X30210Y19260D02*
D03*
X31610Y33210D02*
D03*
X32526Y28194D02*
D03*
X33038Y28182D02*
D03*
X31910Y18610D02*
D03*
X32310Y17610D02*
D03*
X33860Y18710D02*
D03*
X31585Y28435D02*
D03*
X33860Y33410D02*
D03*
X33060Y33360D02*
D03*
Y35060D02*
D03*
X33010Y31460D02*
D03*
X32560Y33060D02*
D03*
X14440Y33100D02*
D03*
X13015Y30075D02*
D03*
X14468Y29822D02*
D03*
X13956Y29834D02*
D03*
X13480Y32010D02*
D03*
X12060Y25370D02*
D03*
X13930Y27400D02*
D03*
X13460Y27920D02*
D03*
D41*
X21040Y28800D02*
D03*
X27370Y27160D02*
D03*
X33560D02*
D03*
X14990Y28800D02*
D03*
D42*
X22890Y34180D02*
D03*
Y32680D02*
D03*
Y30770D02*
D03*
Y28740D02*
D03*
Y26590D02*
D03*
Y23970D02*
D03*
Y21770D02*
D03*
Y19290D02*
D03*
X18140Y17640D02*
D03*
X18790Y35880D02*
D03*
X18190Y33080D02*
D03*
Y28180D02*
D03*
X18140Y30000D02*
D03*
X21830Y24550D02*
D03*
X21170D02*
D03*
X20470Y24540D02*
D03*
X19210Y24720D02*
D03*
X19200Y22040D02*
D03*
X19060Y19850D02*
D03*
X25150Y36040D02*
D03*
X24470Y16000D02*
D03*
X29220Y17650D02*
D03*
Y20130D02*
D03*
Y22330D02*
D03*
Y24950D02*
D03*
Y27100D02*
D03*
Y29130D02*
D03*
Y31040D02*
D03*
Y32540D02*
D03*
X27070Y25790D02*
D03*
X27080Y23980D02*
D03*
X25920Y21310D02*
D03*
X25270Y19510D02*
D03*
X27860Y23960D02*
D03*
Y26460D02*
D03*
X31340Y36040D02*
D03*
X30660Y16000D02*
D03*
X35410Y17650D02*
D03*
Y20130D02*
D03*
Y22330D02*
D03*
Y24950D02*
D03*
Y27100D02*
D03*
Y29130D02*
D03*
Y31040D02*
D03*
Y32540D02*
D03*
X33260Y25790D02*
D03*
X33270Y23980D02*
D03*
X32110Y21310D02*
D03*
X31460Y19510D02*
D03*
X34050Y23960D02*
D03*
Y26460D02*
D03*
X16840Y34180D02*
D03*
Y32680D02*
D03*
Y30770D02*
D03*
Y28740D02*
D03*
Y26590D02*
D03*
Y23970D02*
D03*
Y21770D02*
D03*
Y19290D02*
D03*
X12090Y17640D02*
D03*
X12740Y35880D02*
D03*
X12140Y33080D02*
D03*
Y28180D02*
D03*
X12090Y30000D02*
D03*
X15780Y24550D02*
D03*
X15120D02*
D03*
X14420Y24540D02*
D03*
X13160Y24720D02*
D03*
X13150Y22040D02*
D03*
X13010Y19850D02*
D03*
D43*
X20636Y31756D02*
D03*
Y31284D02*
D03*
X20164Y31756D02*
D03*
Y31284D02*
D03*
X26484Y29574D02*
D03*
Y30046D02*
D03*
X26956Y29574D02*
D03*
Y30046D02*
D03*
X32674Y29574D02*
D03*
Y30046D02*
D03*
X33146Y29574D02*
D03*
Y30046D02*
D03*
X14586Y31756D02*
D03*
Y31284D02*
D03*
X14114Y31756D02*
D03*
Y31284D02*
D03*
D44*
X42700Y14850D02*
D03*
Y37900D02*
D03*
D45*
X43700Y13850D02*
D03*
X41700D02*
D03*
Y15850D02*
D03*
X43700D02*
D03*
X41700Y36900D02*
D03*
X43700D02*
D03*
Y38900D02*
D03*
X41700D02*
D03*
D46*
X39700Y18423D02*
D03*
Y19604D02*
D03*
X40881Y18423D02*
D03*
D47*
X37650Y38000D02*
D03*
X38650D02*
D03*
D48*
X39650D02*
D03*
D49*
X41028Y30341D02*
D03*
Y29759D02*
D03*
X40565Y29471D02*
D03*
Y30629D02*
D03*
Y30050D02*
D03*
X42061D02*
D03*
X41599D02*
D03*
X43469D02*
D03*
X41028Y22491D02*
D03*
Y21909D02*
D03*
X40565Y21621D02*
D03*
Y22779D02*
D03*
Y22200D02*
D03*
X42061D02*
D03*
X41599D02*
D03*
X43469D02*
D03*
D50*
X37700Y21278D02*
D03*
Y16750D02*
D03*
D51*
X24870Y18210D02*
D03*
X26920Y18710D02*
D03*
Y18210D02*
D03*
Y17710D02*
D03*
X24870Y17210D02*
D03*
Y17710D02*
D03*
Y18710D02*
D03*
X26920Y17210D02*
D03*
X25820Y25460D02*
D03*
X27870Y25960D02*
D03*
Y25460D02*
D03*
Y24960D02*
D03*
X25820Y24460D02*
D03*
Y24960D02*
D03*
Y25960D02*
D03*
X27870Y24460D02*
D03*
X31060Y18210D02*
D03*
X33110Y18710D02*
D03*
Y18210D02*
D03*
Y17710D02*
D03*
X31060Y17210D02*
D03*
Y17710D02*
D03*
Y18710D02*
D03*
X33110Y17210D02*
D03*
X32010Y25460D02*
D03*
X34060Y25960D02*
D03*
Y25460D02*
D03*
Y24960D02*
D03*
X32010Y24460D02*
D03*
Y24960D02*
D03*
Y25960D02*
D03*
X34060Y24460D02*
D03*
D52*
X27080Y23980D02*
X27100Y23960D01*
X27070Y25790D02*
X27080Y25780D01*
X27860Y26460D02*
X27870Y26450D01*
Y23970D02*
X27860Y23960D01*
X33270Y23980D02*
X33290Y23960D01*
X33260Y25790D02*
X33270Y25780D01*
X34050Y26460D02*
X34060Y26450D01*
Y23970D02*
X34050Y23960D01*
D53*
X39500Y35200D02*
X38850D01*
X37550Y28300D02*
Y28950D01*
M02*
