%FSLAX24Y24*%
%MOIN*%
G70*
G01*
G75*
G04 Layer_Color=32896*
%ADD10R,0.0140X0.0400*%
%ADD11R,0.0450X0.0600*%
%ADD12R,0.0320X0.0360*%
%ADD13R,0.0394X0.1063*%
%ADD14R,0.0394X0.1063*%
%ADD15R,0.1004X0.1063*%
%ADD16R,0.0360X0.0320*%
%ADD17R,0.0260X0.0800*%
%ADD18O,0.0138X0.0669*%
%ADD19R,0.1063X0.1102*%
%ADD20C,0.1000*%
%ADD21C,0.0500*%
%ADD22C,0.0200*%
%ADD23C,0.0100*%
%ADD24C,0.0750*%
%ADD25R,0.0260X0.0500*%
%ADD26R,0.1063X0.0866*%
%ADD27C,0.0600*%
%ADD28R,0.0394X0.0394*%
%ADD29R,0.1028X0.0339*%
%ADD30R,0.0650X0.0701*%
%ADD31R,0.1402X0.1799*%
%ADD32R,0.0598X0.0598*%
%ADD33R,0.0385X0.0520*%
%ADD34R,0.0520X0.0385*%
%ADD35R,0.0846X0.0532*%
%ADD36R,0.0532X0.0846*%
%ADD37R,0.0400X0.0140*%
%ADD38R,0.0700X0.0700*%
%ADD39C,0.0700*%
%ADD40C,0.0200*%
%ADD41C,0.0280*%
%ADD42C,0.0500*%
%ADD43C,0.0260*%
%ADD44C,0.1000*%
%ADD45C,0.1100*%
%ADD46C,0.0600*%
%ADD47C,0.0591*%
%ADD48R,0.0591X0.0591*%
%ADD49C,0.0252*%
%ADD50C,0.1024*%
%ADD51R,0.0800X0.0260*%
%ADD52C,0.0400*%
%ADD53C,0.0250*%
%ADD54C,0.0079*%
%ADD55C,0.0098*%
%ADD56C,0.0060*%
%ADD57C,0.0080*%
%ADD58C,0.0050*%
%ADD59R,0.4000X0.0500*%
%ADD60R,0.0220X0.0480*%
%ADD61R,0.0530X0.0680*%
%ADD62R,0.0400X0.0440*%
%ADD63R,0.0474X0.1143*%
%ADD64R,0.0474X0.1143*%
%ADD65R,0.1084X0.1143*%
%ADD66R,0.0440X0.0400*%
%ADD67R,0.0340X0.0880*%
%ADD68O,0.0218X0.0749*%
%ADD69R,0.1143X0.1182*%
%ADD70R,0.0340X0.0580*%
%ADD71R,0.1143X0.0946*%
%ADD72R,0.0474X0.0474*%
%ADD73R,0.1108X0.0419*%
%ADD74R,0.0730X0.0781*%
%ADD75R,0.1482X0.1879*%
%ADD76R,0.0678X0.0678*%
%ADD77R,0.0465X0.0600*%
%ADD78R,0.0600X0.0465*%
%ADD79R,0.0926X0.0612*%
%ADD80R,0.0612X0.0926*%
%ADD81R,0.0480X0.0220*%
%ADD82R,0.0780X0.0780*%
%ADD83C,0.0780*%
%ADD84C,0.0360*%
%ADD85C,0.0580*%
%ADD86C,0.1080*%
%ADD87C,0.1180*%
%ADD88C,0.0680*%
%ADD89C,0.0671*%
%ADD90R,0.0671X0.0671*%
%ADD91C,0.0332*%
%ADD92C,0.1104*%
%ADD93R,0.0880X0.0340*%
%ADD94C,0.0340*%
D23*
X19118Y27008D02*
X21894D01*
Y25039D02*
Y24252D01*
Y27008D02*
Y26221D01*
X19098Y27008D02*
Y26201D01*
Y25039D02*
Y24272D01*
X19118Y24252D02*
X21894D01*
X19098Y24272D02*
X19118Y24252D01*
X13068Y27008D02*
X15844D01*
Y25039D02*
Y24252D01*
Y27008D02*
Y26221D01*
X13048Y27008D02*
Y26201D01*
Y25039D02*
Y24272D01*
X13068Y24252D02*
X15844D01*
X13048Y24272D02*
X13068Y24252D01*
D54*
X18480Y23720D02*
Y22520D01*
X21230Y24120D02*
X22480D01*
X18880D02*
X18480Y23720D01*
X18880Y24120D02*
X19730D01*
X22480D02*
Y22120D01*
X21230D02*
X22480D01*
X18480Y22520D02*
X18880Y22120D01*
X19730D01*
X18480Y21590D02*
Y20390D01*
X21230Y21990D02*
X22480D01*
X18880D02*
X18480Y21590D01*
X18880Y21990D02*
X19730D01*
X22480D02*
Y19990D01*
X21230D02*
X22480D01*
X18480Y20390D02*
X18880Y19990D01*
X19730D01*
X18910Y36500D02*
Y35300D01*
X21660Y36900D02*
X22910D01*
X19310D02*
X18910Y36500D01*
X19310Y36900D02*
X20160D01*
X22910D02*
Y34900D01*
X21660D02*
X22910D01*
X18910Y35300D02*
X19310Y34900D01*
X20160D01*
X26295Y16910D02*
G03*
X25495Y16910I-400J0D01*
G01*
X24841Y16731D02*
G03*
X24841Y16731I0J79D01*
G01*
X25070Y34531D02*
G03*
X25070Y34531I0J79D01*
G01*
X27245Y24160D02*
G03*
X26445Y24160I-400J0D01*
G01*
X25791Y23981D02*
G03*
X25791Y23981I0J79D01*
G01*
X26295Y16910D02*
X27445D01*
X24345D02*
X25495D01*
X27445Y19010D02*
Y16910D01*
X24345Y19010D02*
X27445D01*
X24345D02*
Y16910D01*
X25220Y34220D02*
X25220Y34000D01*
X25120Y34220D02*
X25120Y34000D01*
X25060Y34220D02*
X25060Y34000D01*
X25280Y34000D02*
X25060Y34000D01*
X25280Y34220D02*
X25280Y34000D01*
X25280Y34220D02*
X25060Y34220D01*
X25170Y34610D02*
X25170Y33610D01*
X26470Y34610D02*
X26470Y33610D01*
X27245Y24160D02*
X28395D01*
X25295D02*
X26445D01*
X28395Y26260D02*
Y24160D01*
X25295Y26260D02*
X28395D01*
X25295D02*
Y24160D01*
X25670Y35060D02*
X26520D01*
X25270Y35460D02*
X25670Y35060D01*
X28020D02*
X29270D01*
Y37060D02*
Y35060D01*
X25670Y37060D02*
X26520D01*
X25670D02*
X25270Y36660D01*
X28020Y37060D02*
X29270D01*
X25270Y36660D02*
Y35460D01*
X27920Y21160D02*
X28770D01*
X29170Y20760D01*
X25170Y21160D02*
X26420D01*
X25170D02*
Y19160D01*
X27920D02*
X28770D01*
X29170Y19560D02*
X28770Y19160D01*
X25170D02*
X26420D01*
X29170Y20760D02*
Y19560D01*
X27920Y23360D02*
X28770D01*
X29170Y22960D01*
X25170Y23360D02*
X26420D01*
X25170D02*
Y21360D01*
X27920D02*
X28770D01*
X29170Y21760D02*
X28770Y21360D01*
X25170D02*
X26420D01*
X29170Y22960D02*
Y21760D01*
X37274Y34570D02*
X36999Y34846D01*
Y36968D01*
X38101Y34846D02*
Y36968D01*
X37822Y34567D02*
X37274D01*
X37826Y34570D02*
X38101Y34846D01*
Y36968D02*
X36999D01*
X39224Y34570D02*
X38949Y34846D01*
Y36968D01*
X40051Y34846D02*
Y36968D01*
X39772Y34567D02*
X39224D01*
X39776Y34570D02*
X40051Y34846D01*
Y36968D02*
X38949D01*
X36920Y28576D02*
X37196Y28851D01*
X39318D02*
X37196D01*
X39318Y27749D02*
X37196D01*
X36917Y28028D02*
Y28576D01*
X37196Y27749D02*
X36920Y28024D01*
X39318Y27749D02*
Y28851D01*
X36920Y30526D02*
X37196Y30801D01*
X39318D02*
X37196D01*
X39318Y29699D02*
X37196D01*
X36917Y29978D02*
Y30526D01*
X37196Y29699D02*
X36920Y29974D01*
X39318Y29699D02*
Y30801D01*
X32485Y16910D02*
G03*
X31685Y16910I-400J0D01*
G01*
X31031Y16731D02*
G03*
X31031Y16731I0J79D01*
G01*
X31260Y34531D02*
G03*
X31260Y34531I0J79D01*
G01*
X33435Y24160D02*
G03*
X32635Y24160I-400J0D01*
G01*
X31981Y23981D02*
G03*
X31981Y23981I0J79D01*
G01*
X32485Y16910D02*
X33635D01*
X30535D02*
X31685D01*
X33635Y19010D02*
Y16910D01*
X30535Y19010D02*
X33635D01*
X30535D02*
Y16910D01*
X31410Y34220D02*
X31410Y34000D01*
X31310Y34220D02*
X31310Y34000D01*
X31250Y34220D02*
X31250Y34000D01*
X31470Y34000D02*
X31250Y34000D01*
X31470Y34220D02*
X31470Y34000D01*
X31470Y34220D02*
X31250Y34220D01*
X31360Y34610D02*
X31360Y33610D01*
X32660Y34610D02*
X32660Y33610D01*
X33435Y24160D02*
X34585D01*
X31485D02*
X32635D01*
X34585Y26260D02*
Y24160D01*
X31485Y26260D02*
X34585D01*
X31485D02*
Y24160D01*
X31860Y35060D02*
X32710D01*
X31460Y35460D02*
X31860Y35060D01*
X34210D02*
X35460D01*
Y37060D02*
Y35060D01*
X31860Y37060D02*
X32710D01*
X31860D02*
X31460Y36660D01*
X34210Y37060D02*
X35460D01*
X31460Y36660D02*
Y35460D01*
X34110Y21160D02*
X34960D01*
X35360Y20760D01*
X31360Y21160D02*
X32610D01*
X31360D02*
Y19160D01*
X34110D02*
X34960D01*
X35360Y19560D02*
X34960Y19160D01*
X31360D02*
X32610D01*
X35360Y20760D02*
Y19560D01*
X34110Y23360D02*
X34960D01*
X35360Y22960D01*
X31360Y23360D02*
X32610D01*
X31360D02*
Y21360D01*
X34110D02*
X34960D01*
X35360Y21760D02*
X34960Y21360D01*
X31360D02*
X32610D01*
X35360Y22960D02*
Y21760D01*
X12430Y23720D02*
Y22520D01*
X15180Y24120D02*
X16430D01*
X12830D02*
X12430Y23720D01*
X12830Y24120D02*
X13680D01*
X16430D02*
Y22120D01*
X15180D02*
X16430D01*
X12430Y22520D02*
X12830Y22120D01*
X13680D01*
X12430Y21590D02*
Y20390D01*
X15180Y21990D02*
X16430D01*
X12830D02*
X12430Y21590D01*
X12830Y21990D02*
X13680D01*
X16430D02*
Y19990D01*
X15180D02*
X16430D01*
X12430Y20390D02*
X12830Y19990D01*
X13680D01*
X12860Y36500D02*
Y35300D01*
X15610Y36900D02*
X16860D01*
X13260D02*
X12860Y36500D01*
X13260Y36900D02*
X14110D01*
X16860D02*
Y34900D01*
X15610D02*
X16860D01*
X12860Y35300D02*
X13260Y34900D01*
X14110D01*
D57*
X20160Y29550D02*
Y28950D01*
X21420D01*
X20160Y29550D02*
X21420D01*
Y28950D01*
X20670Y30700D02*
Y30100D01*
X19410Y30700D02*
X20670D01*
X19410Y30100D02*
X20670D01*
X19410Y30700D02*
Y30100D01*
X22020Y30700D02*
Y30100D01*
X20760Y30700D02*
X22020D01*
X20760Y30100D02*
X22020D01*
X20760Y30700D02*
Y30100D01*
X17770Y21540D02*
X18370D01*
X17770D02*
Y20280D01*
X18370Y21540D02*
Y20280D01*
X17770D02*
X18370D01*
X17760Y18850D02*
X18360D01*
Y20110D02*
Y18850D01*
X17760Y20110D02*
Y18850D01*
Y20110D02*
X18360D01*
X17760Y22150D02*
X18360D01*
Y23410D02*
Y22150D01*
X17760Y23410D02*
Y22150D01*
Y23410D02*
X18360D01*
X27090Y29060D02*
Y28460D01*
X28350D01*
X27090Y29060D02*
X28350D01*
Y28460D01*
X25740Y29060D02*
Y28460D01*
X27000D01*
X25740Y29060D02*
X27000D01*
Y28460D01*
X27750Y27910D02*
Y27310D01*
X26490Y27910D02*
X27750D01*
X26490Y27310D02*
X27750D01*
X26490Y27910D02*
Y27310D01*
X33280Y29060D02*
Y28460D01*
X34540D01*
X33280Y29060D02*
X34540D01*
Y28460D01*
X31930Y29060D02*
Y28460D01*
X33190D01*
X31930Y29060D02*
X33190D01*
Y28460D01*
X33940Y27910D02*
Y27310D01*
X32680Y27910D02*
X33940D01*
X32680Y27310D02*
X33940D01*
X32680Y27910D02*
Y27310D01*
X14110Y29550D02*
Y28950D01*
X15370D01*
X14110Y29550D02*
X15370D01*
Y28950D01*
X14620Y30700D02*
Y30100D01*
X13360Y30700D02*
X14620D01*
X13360Y30100D02*
X14620D01*
X13360Y30700D02*
Y30100D01*
X15970Y30700D02*
Y30100D01*
X14710Y30700D02*
X15970D01*
X14710Y30100D02*
X15970D01*
X14710Y30700D02*
Y30100D01*
X11720Y21540D02*
X12320D01*
X11720D02*
Y20280D01*
X12320Y21540D02*
Y20280D01*
X11720D02*
X12320D01*
X11710Y18850D02*
X12310D01*
Y20110D02*
Y18850D01*
X11710Y20110D02*
Y18850D01*
Y20110D02*
X12310D01*
X11710Y22150D02*
X12310D01*
Y23410D02*
Y22150D01*
X11710Y23410D02*
Y22150D01*
Y23410D02*
X12310D01*
D58*
X17960Y23570D02*
X17910Y23520D01*
X17810D01*
X17760Y23570D01*
Y23770D01*
X17810Y23820D01*
X17910D01*
X17960Y23770D01*
X18060Y23570D02*
X18110Y23520D01*
X18210D01*
X18260Y23570D01*
Y23620D01*
X18210Y23670D01*
X18160D01*
X18210D01*
X18260Y23720D01*
Y23770D01*
X18210Y23820D01*
X18110D01*
X18060Y23770D01*
X18760Y36540D02*
X18810Y36490D01*
Y36390D01*
X18760Y36340D01*
X18560D01*
X18510Y36390D01*
Y36490D01*
X18560Y36540D01*
X18810Y36840D02*
X18760Y36740D01*
X18660Y36640D01*
X18560D01*
X18510Y36690D01*
Y36790D01*
X18560Y36840D01*
X18610D01*
X18660Y36790D01*
Y36640D01*
X21830Y29170D02*
X21880Y29120D01*
Y29020D01*
X21830Y28970D01*
X21630D01*
X21580Y29020D01*
Y29120D01*
X21630Y29170D01*
Y29270D02*
X21580Y29320D01*
Y29420D01*
X21630Y29470D01*
X21830D01*
X21880Y29420D01*
Y29320D01*
X21830Y29270D01*
X21780D01*
X21730Y29320D01*
Y29470D01*
X21210Y30880D02*
X21160Y30830D01*
X21060D01*
X21010Y30880D01*
Y31080D01*
X21060Y31130D01*
X21160D01*
X21210Y31080D01*
X21310Y31130D02*
X21410D01*
X21360D01*
Y30830D01*
X21310Y30880D01*
X21560D02*
X21610Y30830D01*
X21710D01*
X21760Y30880D01*
Y31080D01*
X21710Y31130D01*
X21610D01*
X21560Y31080D01*
Y30880D01*
X19740Y30850D02*
X19690Y30800D01*
X19590D01*
X19540Y30850D01*
Y31050D01*
X19590Y31100D01*
X19690D01*
X19740Y31050D01*
X19840Y31100D02*
X19940D01*
X19890D01*
Y30800D01*
X19840Y30850D01*
X20090D02*
X20140Y30800D01*
X20240D01*
X20290Y30850D01*
Y30900D01*
X20240Y30950D01*
X20190D01*
X20240D01*
X20290Y31000D01*
Y31050D01*
X20240Y31100D01*
X20140D01*
X20090Y31050D01*
X22850Y22870D02*
X22900Y22820D01*
Y22720D01*
X22850Y22670D01*
X22650D01*
X22600Y22720D01*
Y22820D01*
X22650Y22870D01*
X22600Y22970D02*
Y23070D01*
Y23020D01*
X22900D01*
X22850Y22970D01*
X22900Y23420D02*
Y23220D01*
X22750D01*
X22800Y23320D01*
Y23370D01*
X22750Y23420D01*
X22650D01*
X22600Y23370D01*
Y23270D01*
X22650Y23220D01*
X22850Y20780D02*
X22900Y20730D01*
Y20630D01*
X22850Y20580D01*
X22650D01*
X22600Y20630D01*
Y20730D01*
X22650Y20780D01*
X22600Y20880D02*
Y20980D01*
Y20930D01*
X22900D01*
X22850Y20880D01*
X22900Y21130D02*
Y21330D01*
X22850D01*
X22650Y21130D01*
X22600D01*
X19420Y27140D02*
X19120D01*
Y27340D01*
Y27440D02*
Y27540D01*
Y27490D01*
X19420D01*
X19370Y27440D01*
X17840Y18730D02*
Y18430D01*
X17990D01*
X18040Y18480D01*
Y18580D01*
X17990Y18630D01*
X17840D01*
X17940D02*
X18040Y18730D01*
X18140Y18480D02*
X18190Y18430D01*
X18290D01*
X18340Y18480D01*
Y18530D01*
X18290Y18580D01*
X18240D01*
X18290D01*
X18340Y18630D01*
Y18680D01*
X18290Y18730D01*
X18190D01*
X18140Y18680D01*
X17750Y21940D02*
Y21640D01*
X17900D01*
X17950Y21690D01*
Y21790D01*
X17900Y21840D01*
X17750D01*
X17850D02*
X17950Y21940D01*
X18050Y21640D02*
Y21940D01*
X18200D01*
X18250Y21890D01*
Y21840D01*
Y21790D01*
X18200Y21740D01*
X18050D01*
X18400Y21690D02*
Y21740D01*
X18350D01*
X18450D01*
X18400D01*
Y21890D01*
X18450Y21940D01*
X17950Y37360D02*
Y37560D01*
X18050Y37660D01*
X18150Y37560D01*
Y37360D01*
X18250Y37660D02*
X18350D01*
X18300D01*
Y37460D01*
X18250D01*
X18500Y37660D02*
Y37460D01*
X18650D01*
X18700Y37510D01*
Y37660D01*
X19599Y37410D02*
X19549Y37360D01*
X19450D01*
X19400Y37410D01*
Y37460D01*
X19450Y37510D01*
X19549D01*
X19599Y37560D01*
Y37610D01*
X19549Y37660D01*
X19450D01*
X19400Y37610D01*
X19699Y37660D02*
Y37460D01*
X19849D01*
X19899Y37510D01*
Y37660D01*
X20199Y37460D02*
X20049D01*
X19999Y37510D01*
Y37610D01*
X20049Y37660D01*
X20199D01*
X20799Y37410D02*
X20749Y37360D01*
X20649D01*
X20599Y37410D01*
Y37460D01*
X20649Y37510D01*
X20749D01*
X20799Y37560D01*
Y37610D01*
X20749Y37660D01*
X20649D01*
X20599Y37610D01*
X21049Y37660D02*
X20949D01*
X20899Y37610D01*
Y37510D01*
X20949Y37460D01*
X21049D01*
X21099Y37510D01*
Y37560D01*
X20899D01*
X21199Y37660D02*
Y37460D01*
X21349D01*
X21399Y37510D01*
Y37660D01*
X21499D02*
X21649D01*
X21699Y37610D01*
X21649Y37560D01*
X21549D01*
X21499Y37510D01*
X21549Y37460D01*
X21699D01*
X22299Y37410D02*
X22249Y37360D01*
X22149D01*
X22099Y37410D01*
Y37610D01*
X22149Y37660D01*
X22249D01*
X22299Y37610D01*
Y37510D01*
X22199D01*
X22399Y37660D02*
Y37460D01*
X22549D01*
X22599Y37510D01*
Y37660D01*
X22898Y37360D02*
Y37660D01*
X22748D01*
X22698Y37610D01*
Y37510D01*
X22748Y37460D01*
X22898D01*
X18470Y17620D02*
Y17820D01*
X18570Y17920D01*
X18670Y17820D01*
Y17620D01*
X18820Y17920D02*
X18920D01*
X18970Y17870D01*
Y17770D01*
X18920Y17720D01*
X18820D01*
X18770Y17770D01*
Y17870D01*
X18820Y17920D01*
X19370Y17620D02*
Y17820D01*
X19470Y17920D01*
X19570Y17820D01*
Y17620D01*
X19720Y17920D02*
X19820D01*
X19870Y17870D01*
Y17770D01*
X19820Y17720D01*
X19720D01*
X19670Y17770D01*
Y17870D01*
X19720Y17920D01*
X20469Y17670D02*
X20419Y17620D01*
X20319D01*
X20269Y17670D01*
Y17870D01*
X20319Y17920D01*
X20419D01*
X20469Y17870D01*
Y17770D01*
X20369D01*
X20569Y17920D02*
Y17720D01*
X20719D01*
X20769Y17770D01*
Y17920D01*
X21069Y17620D02*
Y17920D01*
X20919D01*
X20869Y17870D01*
Y17770D01*
X20919Y17720D01*
X21069D01*
X21669Y17670D02*
X21619Y17620D01*
X21519D01*
X21469Y17670D01*
Y17870D01*
X21519Y17920D01*
X21619D01*
X21669Y17870D01*
Y17770D01*
X21569D01*
X21769Y17920D02*
Y17720D01*
X21919D01*
X21969Y17770D01*
Y17920D01*
X22269Y17620D02*
Y17920D01*
X22119D01*
X22069Y17870D01*
Y17770D01*
X22119Y17720D01*
X22269D01*
X22500Y26620D02*
Y26720D01*
X22450Y26770D01*
X22300D01*
Y26620D01*
X22350Y26570D01*
X22400Y26620D01*
Y26770D01*
X22600Y27070D02*
X22300D01*
Y26920D01*
X22350Y26870D01*
X22450D01*
X22500Y26920D01*
Y27070D01*
Y27220D02*
Y27320D01*
X22450Y27370D01*
X22300D01*
Y27220D01*
X22350Y27170D01*
X22400Y27220D01*
Y27370D01*
X22300Y27470D02*
X22500D01*
Y27520D01*
X22450Y27570D01*
X22300D01*
X22450D01*
X22500Y27620D01*
X22450Y27670D01*
X22300D01*
X22200Y27770D02*
Y27820D01*
X22250Y27870D01*
X22500D01*
X22300Y28119D02*
Y28219D01*
X22350Y28269D01*
X22450D01*
X22500Y28219D01*
Y28119D01*
X22450Y28070D01*
X22350D01*
X22300Y28119D01*
X22600Y28369D02*
X22300D01*
X22450D01*
X22500Y28419D01*
Y28519D01*
X22450Y28569D01*
X22300D01*
Y28669D02*
X22500D01*
Y28819D01*
X22450Y28869D01*
X22300D01*
X22200Y29069D02*
Y29119D01*
X22250Y29169D01*
X22500D01*
Y29019D01*
X22450Y28969D01*
X22350D01*
X22300Y29019D01*
Y29169D01*
Y29269D02*
Y29369D01*
Y29319D01*
X22500D01*
Y29269D01*
X22300Y29519D02*
Y29619D01*
Y29569D01*
X22600D01*
Y29519D01*
Y29769D02*
X22300D01*
Y29919D01*
X22350Y29969D01*
X22400D01*
X22450D01*
X22500Y29919D01*
Y29769D01*
X22300Y30219D02*
Y30119D01*
X22350Y30069D01*
X22450D01*
X22500Y30119D01*
Y30219D01*
X22450Y30269D01*
X22400D01*
Y30069D01*
X22500Y30369D02*
X22300D01*
X22400D01*
X22450Y30419D01*
X22500Y30469D01*
Y30519D01*
X22550Y30719D02*
X22500D01*
Y30669D01*
Y30769D01*
Y30719D01*
X22350D01*
X22300Y30769D01*
X22400Y31069D02*
X22450D01*
Y31019D01*
X22400D01*
Y31069D01*
X22450Y31119D01*
X22550D01*
X22600Y31069D01*
Y30969D01*
X22550Y30919D01*
X22350D01*
X22300Y30969D01*
Y31119D01*
X22200Y31318D02*
Y31368D01*
X22250Y31418D01*
X22500D01*
Y31268D01*
X22450Y31219D01*
X22350D01*
X22300Y31268D01*
Y31418D01*
Y31518D02*
X22500D01*
Y31568D01*
X22450Y31618D01*
X22300D01*
X22450D01*
X22500Y31668D01*
X22450Y31718D01*
X22300D01*
X22500Y31868D02*
Y31968D01*
X22450Y32018D01*
X22300D01*
Y31868D01*
X22350Y31818D01*
X22400Y31868D01*
Y32018D01*
X22300Y32118D02*
Y32218D01*
Y32168D01*
X22500D01*
Y32118D01*
X22300Y32368D02*
Y32468D01*
Y32418D01*
X22600D01*
Y32368D01*
X22300Y32618D02*
X22350D01*
Y32668D01*
X22300D01*
Y32618D01*
X22500Y33068D02*
Y32918D01*
X22450Y32868D01*
X22350D01*
X22300Y32918D01*
Y33068D01*
Y33218D02*
Y33318D01*
X22350Y33368D01*
X22450D01*
X22500Y33318D01*
Y33218D01*
X22450Y33168D01*
X22350D01*
X22300Y33218D01*
Y33468D02*
X22500D01*
Y33518D01*
X22450Y33568D01*
X22300D01*
X22450D01*
X22500Y33618D01*
X22450Y33668D01*
X22300D01*
X17620Y23900D02*
X17920D01*
X17820Y24000D01*
X17920Y24100D01*
X17620D01*
X17820Y24400D02*
Y24250D01*
X17770Y24200D01*
X17670D01*
X17620Y24250D01*
Y24400D01*
X17870Y24700D02*
X17920Y24650D01*
Y24550D01*
X17870Y24500D01*
X17670D01*
X17620Y24550D01*
Y24650D01*
X17670Y24700D01*
X17770D01*
Y24600D01*
X17620Y24800D02*
Y24900D01*
Y24850D01*
X17820D01*
Y24800D01*
X17620Y25050D02*
Y25150D01*
Y25100D01*
X17920D01*
Y25050D01*
X17620Y25300D02*
Y25400D01*
Y25350D01*
X17920D01*
Y25300D01*
X17870Y26049D02*
X17920Y25999D01*
Y25899D01*
X17870Y25849D01*
X17670D01*
X17620Y25899D01*
Y25999D01*
X17670Y26049D01*
X17620Y26199D02*
Y26299D01*
X17670Y26349D01*
X17770D01*
X17820Y26299D01*
Y26199D01*
X17770Y26149D01*
X17670D01*
X17620Y26199D01*
Y26449D02*
Y26599D01*
X17670Y26649D01*
X17720Y26599D01*
Y26499D01*
X17770Y26449D01*
X17820Y26499D01*
Y26649D01*
X17620Y26749D02*
X17820D01*
Y26799D01*
X17770Y26849D01*
X17620D01*
X17770D01*
X17820Y26899D01*
X17770Y26949D01*
X17620D01*
Y27099D02*
Y27199D01*
X17670Y27249D01*
X17770D01*
X17820Y27199D01*
Y27099D01*
X17770Y27049D01*
X17670D01*
X17620Y27099D01*
Y27349D02*
Y27449D01*
Y27399D01*
X17920D01*
Y27349D01*
X17620Y27649D02*
Y27749D01*
X17670Y27799D01*
X17770D01*
X17820Y27749D01*
Y27649D01*
X17770Y27599D01*
X17670D01*
X17620Y27649D01*
X17520Y27999D02*
Y28049D01*
X17570Y28099D01*
X17820D01*
Y27949D01*
X17770Y27899D01*
X17670D01*
X17620Y27949D01*
Y28099D01*
X17820Y28199D02*
X17670D01*
X17620Y28249D01*
Y28399D01*
X17570D01*
X17520Y28349D01*
Y28299D01*
X17620Y28399D02*
X17820D01*
X17870Y28998D02*
X17920Y28948D01*
Y28848D01*
X17870Y28798D01*
X17820D01*
X17770Y28848D01*
Y28948D01*
X17720Y28998D01*
X17670D01*
X17620Y28948D01*
Y28848D01*
X17670Y28798D01*
X17620Y29248D02*
Y29148D01*
X17670Y29098D01*
X17770D01*
X17820Y29148D01*
Y29248D01*
X17770Y29298D01*
X17720D01*
Y29098D01*
X17520Y29398D02*
X17820D01*
Y29548D01*
X17770Y29598D01*
X17670D01*
X17620Y29548D01*
Y29398D01*
X17870Y29748D02*
X17820D01*
Y29698D01*
Y29798D01*
Y29748D01*
X17670D01*
X17620Y29798D01*
Y30448D02*
Y30248D01*
X17820Y30448D01*
X17870D01*
X17920Y30398D01*
Y30298D01*
X17870Y30248D01*
Y30548D02*
X17920Y30598D01*
Y30698D01*
X17870Y30748D01*
X17670D01*
X17620Y30698D01*
Y30598D01*
X17670Y30548D01*
X17870D01*
X17620Y30848D02*
Y30948D01*
Y30898D01*
X17920D01*
X17870Y30848D01*
X17620Y31098D02*
Y31198D01*
Y31148D01*
X17920D01*
X17870Y31098D01*
X24570Y27470D02*
Y27570D01*
X24520Y27620D01*
X24370D01*
Y27470D01*
X24420Y27420D01*
X24470Y27470D01*
Y27620D01*
X24670Y27920D02*
X24370D01*
Y27770D01*
X24420Y27720D01*
X24520D01*
X24570Y27770D01*
Y27920D01*
Y28070D02*
Y28170D01*
X24520Y28220D01*
X24370D01*
Y28070D01*
X24420Y28020D01*
X24470Y28070D01*
Y28220D01*
X24370Y28320D02*
X24570D01*
Y28370D01*
X24520Y28420D01*
X24370D01*
X24520D01*
X24570Y28470D01*
X24520Y28520D01*
X24370D01*
X24270Y28620D02*
Y28670D01*
X24320Y28720D01*
X24570D01*
X24370Y28970D02*
Y29069D01*
X24420Y29119D01*
X24520D01*
X24570Y29069D01*
Y28970D01*
X24520Y28920D01*
X24420D01*
X24370Y28970D01*
X24670Y29219D02*
X24370D01*
X24520D01*
X24570Y29269D01*
Y29369D01*
X24520Y29419D01*
X24370D01*
Y29519D02*
X24570D01*
Y29669D01*
X24520Y29719D01*
X24370D01*
X24270Y29919D02*
Y29969D01*
X24320Y30019D01*
X24570D01*
Y29869D01*
X24520Y29819D01*
X24420D01*
X24370Y29869D01*
Y30019D01*
Y30119D02*
Y30219D01*
Y30169D01*
X24570D01*
Y30119D01*
X24370Y30369D02*
Y30469D01*
Y30419D01*
X24670D01*
Y30369D01*
Y30619D02*
X24370D01*
Y30769D01*
X24420Y30819D01*
X24470D01*
X24520D01*
X24570Y30769D01*
Y30619D01*
X24370Y31069D02*
Y30969D01*
X24420Y30919D01*
X24520D01*
X24570Y30969D01*
Y31069D01*
X24520Y31119D01*
X24470D01*
Y30919D01*
X24570Y31219D02*
X24370D01*
X24470D01*
X24520Y31269D01*
X24570Y31319D01*
Y31369D01*
X24620Y31569D02*
X24570D01*
Y31519D01*
Y31619D01*
Y31569D01*
X24420D01*
X24370Y31619D01*
X24470Y31919D02*
X24520D01*
Y31869D01*
X24470D01*
Y31919D01*
X24520Y31969D01*
X24620D01*
X24670Y31919D01*
Y31819D01*
X24620Y31769D01*
X24420D01*
X24370Y31819D01*
Y31969D01*
X24270Y32168D02*
Y32218D01*
X24320Y32268D01*
X24570D01*
Y32118D01*
X24520Y32069D01*
X24420D01*
X24370Y32118D01*
Y32268D01*
Y32368D02*
X24570D01*
Y32418D01*
X24520Y32468D01*
X24370D01*
X24520D01*
X24570Y32518D01*
X24520Y32568D01*
X24370D01*
X24570Y32718D02*
Y32818D01*
X24520Y32868D01*
X24370D01*
Y32718D01*
X24420Y32668D01*
X24470Y32718D01*
Y32868D01*
X24370Y32968D02*
Y33068D01*
Y33018D01*
X24570D01*
Y32968D01*
X24370Y33218D02*
Y33318D01*
Y33268D01*
X24670D01*
Y33218D01*
X24370Y33468D02*
X24420D01*
Y33518D01*
X24370D01*
Y33468D01*
X24570Y33918D02*
Y33768D01*
X24520Y33718D01*
X24420D01*
X24370Y33768D01*
Y33918D01*
Y34068D02*
Y34168D01*
X24420Y34218D01*
X24520D01*
X24570Y34168D01*
Y34068D01*
X24520Y34018D01*
X24420D01*
X24370Y34068D01*
Y34318D02*
X24570D01*
Y34368D01*
X24520Y34418D01*
X24370D01*
X24520D01*
X24570Y34468D01*
X24520Y34518D01*
X24370D01*
X24570Y34420D02*
X24820D01*
X24870Y34370D01*
Y34270D01*
X24820Y34220D01*
X24570D01*
X24870Y33970D02*
X24570D01*
X24720Y34120D01*
Y33920D01*
X24420Y19160D02*
Y19410D01*
X24470Y19460D01*
X24570D01*
X24620Y19410D01*
Y19160D01*
X24720Y19210D02*
X24770Y19160D01*
X24870D01*
X24920Y19210D01*
Y19260D01*
X24870Y19310D01*
X24820D01*
X24870D01*
X24920Y19360D01*
Y19410D01*
X24870Y19460D01*
X24770D01*
X24720Y19410D01*
X28750Y24420D02*
Y24220D01*
X28700Y24170D01*
X28600D01*
X28550Y24220D01*
Y24420D01*
X28600Y24470D01*
X28700D01*
X28650Y24370D02*
X28750Y24470D01*
X28700D02*
X28750Y24420D01*
X28850Y24470D02*
X28950D01*
X28900D01*
Y24170D01*
X28850Y24220D01*
X25020Y20110D02*
X25070Y20060D01*
Y19960D01*
X25020Y19910D01*
X24820D01*
X24770Y19960D01*
Y20060D01*
X24820Y20110D01*
X24770Y20210D02*
Y20310D01*
Y20260D01*
X25070D01*
X25020Y20210D01*
X25070Y20460D02*
Y20660D01*
X25020D01*
X24820Y20460D01*
X24770D01*
X25020Y22110D02*
X25070Y22060D01*
Y21960D01*
X25020Y21910D01*
X24820D01*
X24770Y21960D01*
Y22060D01*
X24820Y22110D01*
X24770Y22210D02*
Y22310D01*
Y22260D01*
X25070D01*
X25020Y22210D01*
X25070Y22660D02*
Y22460D01*
X24920D01*
X24970Y22560D01*
Y22610D01*
X24920Y22660D01*
X24820D01*
X24770Y22610D01*
Y22510D01*
X24820Y22460D01*
X26070Y29210D02*
X26020Y29160D01*
X25920D01*
X25870Y29210D01*
Y29410D01*
X25920Y29460D01*
X26020D01*
X26070Y29410D01*
X26170Y29460D02*
X26270D01*
X26220D01*
Y29160D01*
X26170Y29210D01*
X26420D02*
X26470Y29160D01*
X26570D01*
X26620Y29210D01*
Y29260D01*
X26570Y29310D01*
X26520D01*
X26570D01*
X26620Y29360D01*
Y29410D01*
X26570Y29460D01*
X26470D01*
X26420Y29410D01*
X27540Y29240D02*
X27490Y29190D01*
X27390D01*
X27340Y29240D01*
Y29440D01*
X27390Y29490D01*
X27490D01*
X27540Y29440D01*
X27640Y29490D02*
X27740D01*
X27690D01*
Y29190D01*
X27640Y29240D01*
X27890D02*
X27940Y29190D01*
X28040D01*
X28090Y29240D01*
Y29440D01*
X28040Y29490D01*
X27940D01*
X27890Y29440D01*
Y29240D01*
X28160Y27530D02*
X28210Y27480D01*
Y27380D01*
X28160Y27330D01*
X27960D01*
X27910Y27380D01*
Y27480D01*
X27960Y27530D01*
Y27630D02*
X27910Y27680D01*
Y27780D01*
X27960Y27830D01*
X28160D01*
X28210Y27780D01*
Y27680D01*
X28160Y27630D01*
X28110D01*
X28060Y27680D01*
Y27830D01*
X25120Y36700D02*
X25170Y36650D01*
Y36550D01*
X25120Y36500D01*
X24920D01*
X24870Y36550D01*
Y36650D01*
X24920Y36700D01*
X25170Y37000D02*
X25120Y36900D01*
X25020Y36800D01*
X24920D01*
X24870Y36850D01*
Y36950D01*
X24920Y37000D01*
X24970D01*
X25020Y36950D01*
Y36800D01*
X24900Y15900D02*
Y16100D01*
X25000Y16200D01*
X25100Y16100D01*
Y15900D01*
X25250Y16200D02*
X25350D01*
X25400Y16150D01*
Y16050D01*
X25350Y16000D01*
X25250D01*
X25200Y16050D01*
Y16150D01*
X25250Y16200D01*
X25800Y15900D02*
Y16100D01*
X25900Y16200D01*
X26000Y16100D01*
Y15900D01*
X26150Y16200D02*
X26250D01*
X26300Y16150D01*
Y16050D01*
X26250Y16000D01*
X26150D01*
X26100Y16050D01*
Y16150D01*
X26150Y16200D01*
X26899Y15950D02*
X26849Y15900D01*
X26749D01*
X26699Y15950D01*
Y16150D01*
X26749Y16200D01*
X26849D01*
X26899Y16150D01*
Y16050D01*
X26799D01*
X26999Y16200D02*
Y16000D01*
X27149D01*
X27199Y16050D01*
Y16200D01*
X27499Y15900D02*
Y16200D01*
X27349D01*
X27299Y16150D01*
Y16050D01*
X27349Y16000D01*
X27499D01*
X28099Y15950D02*
X28049Y15900D01*
X27949D01*
X27899Y15950D01*
Y16150D01*
X27949Y16200D01*
X28049D01*
X28099Y16150D01*
Y16050D01*
X27999D01*
X28199Y16200D02*
Y16000D01*
X28349D01*
X28399Y16050D01*
Y16200D01*
X28699Y15900D02*
Y16200D01*
X28549D01*
X28499Y16150D01*
Y16050D01*
X28549Y16000D01*
X28699D01*
X24350Y37550D02*
Y37750D01*
X24450Y37850D01*
X24550Y37750D01*
Y37550D01*
X24650Y37850D02*
X24750D01*
X24700D01*
Y37650D01*
X24650D01*
X24900Y37850D02*
Y37650D01*
X25050D01*
X25100Y37700D01*
Y37850D01*
X25999Y37600D02*
X25949Y37550D01*
X25850D01*
X25800Y37600D01*
Y37650D01*
X25850Y37700D01*
X25949D01*
X25999Y37750D01*
Y37800D01*
X25949Y37850D01*
X25850D01*
X25800Y37800D01*
X26099Y37850D02*
Y37650D01*
X26249D01*
X26299Y37700D01*
Y37850D01*
X26599Y37650D02*
X26449D01*
X26399Y37700D01*
Y37800D01*
X26449Y37850D01*
X26599D01*
X27199Y37600D02*
X27149Y37550D01*
X27049D01*
X26999Y37600D01*
Y37650D01*
X27049Y37700D01*
X27149D01*
X27199Y37750D01*
Y37800D01*
X27149Y37850D01*
X27049D01*
X26999Y37800D01*
X27449Y37850D02*
X27349D01*
X27299Y37800D01*
Y37700D01*
X27349Y37650D01*
X27449D01*
X27499Y37700D01*
Y37750D01*
X27299D01*
X27599Y37850D02*
Y37650D01*
X27749D01*
X27799Y37700D01*
Y37850D01*
X27899D02*
X28049D01*
X28099Y37800D01*
X28049Y37750D01*
X27949D01*
X27899Y37700D01*
X27949Y37650D01*
X28099D01*
X28699Y37600D02*
X28649Y37550D01*
X28549D01*
X28499Y37600D01*
Y37800D01*
X28549Y37850D01*
X28649D01*
X28699Y37800D01*
Y37700D01*
X28599D01*
X28799Y37850D02*
Y37650D01*
X28949D01*
X28998Y37700D01*
Y37850D01*
X29298Y37550D02*
Y37850D01*
X29148D01*
X29098Y37800D01*
Y37700D01*
X29148Y37650D01*
X29298D01*
X36650Y20350D02*
Y20250D01*
X36700Y20200D01*
X36850D01*
Y20350D01*
X36800Y20400D01*
X36750Y20350D01*
Y20200D01*
X36550Y19900D02*
X36850D01*
Y20050D01*
X36800Y20100D01*
X36700D01*
X36650Y20050D01*
Y19900D01*
Y19750D02*
Y19650D01*
X36700Y19600D01*
X36850D01*
Y19750D01*
X36800Y19800D01*
X36750Y19750D01*
Y19600D01*
X36850Y19500D02*
X36650D01*
Y19450D01*
X36700Y19400D01*
X36850D01*
X36700D01*
X36650Y19350D01*
X36700Y19300D01*
X36850D01*
X36950Y19200D02*
Y19150D01*
X36900Y19100D01*
X36650D01*
X36850Y18851D02*
Y18751D01*
X36800Y18701D01*
X36700D01*
X36650Y18751D01*
Y18851D01*
X36700Y18900D01*
X36800D01*
X36850Y18851D01*
X36550Y18601D02*
X36850D01*
X36700D01*
X36650Y18551D01*
Y18451D01*
X36700Y18401D01*
X36850D01*
Y18301D02*
X36650D01*
Y18151D01*
X36700Y18101D01*
X36850D01*
X36950Y17901D02*
Y17851D01*
X36900Y17801D01*
X36650D01*
Y17951D01*
X36700Y18001D01*
X36800D01*
X36850Y17951D01*
Y17801D01*
Y17701D02*
Y17601D01*
Y17651D01*
X36650D01*
Y17701D01*
X36850Y17451D02*
Y17351D01*
Y17401D01*
X36550D01*
Y17451D01*
Y17201D02*
X36850D01*
Y17051D01*
X36800Y17001D01*
X36750D01*
X36700D01*
X36650Y17051D01*
Y17201D01*
X36850Y16751D02*
Y16851D01*
X36800Y16901D01*
X36700D01*
X36650Y16851D01*
Y16751D01*
X36700Y16701D01*
X36750D01*
Y16901D01*
X36650Y16601D02*
X36850D01*
X36750D01*
X36700Y16551D01*
X36650Y16501D01*
Y16451D01*
X36600Y16251D02*
X36650D01*
Y16301D01*
Y16201D01*
Y16251D01*
X36800D01*
X36850Y16201D01*
X36750Y15901D02*
X36700D01*
Y15951D01*
X36750D01*
Y15901D01*
X36700Y15851D01*
X36600D01*
X36550Y15901D01*
Y16001D01*
X36600Y16051D01*
X36800D01*
X36850Y16001D01*
Y15851D01*
X36950Y15652D02*
Y15602D01*
X36900Y15552D01*
X36650D01*
Y15702D01*
X36700Y15752D01*
X36800D01*
X36850Y15702D01*
Y15552D01*
Y15452D02*
X36650D01*
Y15402D01*
X36700Y15352D01*
X36850D01*
X36700D01*
X36650Y15302D01*
X36700Y15252D01*
X36850D01*
X36650Y15102D02*
Y15002D01*
X36700Y14952D01*
X36850D01*
Y15102D01*
X36800Y15152D01*
X36750Y15102D01*
Y14952D01*
X36850Y14852D02*
Y14752D01*
Y14802D01*
X36650D01*
Y14852D01*
X36850Y14602D02*
Y14502D01*
Y14552D01*
X36550D01*
Y14602D01*
X36850Y14352D02*
X36800D01*
Y14302D01*
X36850D01*
Y14352D01*
X36650Y13902D02*
Y14052D01*
X36700Y14102D01*
X36800D01*
X36850Y14052D01*
Y13902D01*
Y13752D02*
Y13652D01*
X36800Y13602D01*
X36700D01*
X36650Y13652D01*
Y13752D01*
X36700Y13802D01*
X36800D01*
X36850Y13752D01*
Y13502D02*
X36650D01*
Y13452D01*
X36700Y13402D01*
X36850D01*
X36700D01*
X36650Y13352D01*
X36700Y13302D01*
X36850D01*
X36500Y30800D02*
X36450Y30850D01*
Y30950D01*
X36500Y31000D01*
X36700D01*
X36750Y30950D01*
Y30850D01*
X36700Y30800D01*
X36750Y30700D02*
Y30600D01*
Y30650D01*
X36450D01*
X36500Y30700D01*
X36800Y30450D02*
Y30250D01*
X36750Y30150D02*
X36450D01*
Y30000D01*
X36500Y29950D01*
X36600D01*
X36650Y30000D01*
Y30150D01*
X36750Y29850D02*
Y29750D01*
Y29800D01*
X36450D01*
X36500Y29850D01*
X36900Y34150D02*
X36850Y34100D01*
X36750D01*
X36700Y34150D01*
Y34350D01*
X36750Y34400D01*
X36850D01*
X36900Y34350D01*
X37000Y34400D02*
X37100D01*
X37050D01*
Y34100D01*
X37000Y34150D01*
X37250Y34450D02*
X37450D01*
X37550Y34400D02*
Y34100D01*
X37700D01*
X37750Y34150D01*
Y34250D01*
X37700Y34300D01*
X37550D01*
X38050Y34400D02*
X37850D01*
X38050Y34200D01*
Y34150D01*
X38000Y34100D01*
X37900D01*
X37850Y34150D01*
X36500Y28200D02*
X36450Y28250D01*
Y28350D01*
X36500Y28400D01*
X36700D01*
X36750Y28350D01*
Y28250D01*
X36700Y28200D01*
X36500Y28100D02*
X36450Y28050D01*
Y27950D01*
X36500Y27900D01*
X36550D01*
X36600Y27950D01*
Y28000D01*
Y27950D01*
X36650Y27900D01*
X36700D01*
X36750Y27950D01*
Y28050D01*
X36700Y28100D01*
X36800Y27800D02*
Y27600D01*
X36750Y27500D02*
X36450D01*
Y27350D01*
X36500Y27300D01*
X36600D01*
X36650Y27350D01*
Y27500D01*
X36750Y27200D02*
Y27100D01*
Y27150D01*
X36450D01*
X36500Y27200D01*
X39500Y34150D02*
X39450Y34100D01*
X39350D01*
X39300Y34150D01*
Y34350D01*
X39350Y34400D01*
X39450D01*
X39500Y34350D01*
X39600Y34150D02*
X39650Y34100D01*
X39750D01*
X39800Y34150D01*
Y34200D01*
X39750Y34250D01*
X39700D01*
X39750D01*
X39800Y34300D01*
Y34350D01*
X39750Y34400D01*
X39650D01*
X39600Y34350D01*
X39900Y34450D02*
X40100D01*
X40200Y34400D02*
Y34100D01*
X40350D01*
X40400Y34150D01*
Y34250D01*
X40350Y34300D01*
X40200D01*
X40700Y34400D02*
X40500D01*
X40700Y34200D01*
Y34150D01*
X40650Y34100D01*
X40550D01*
X40500Y34150D01*
X30760Y27470D02*
Y27570D01*
X30710Y27620D01*
X30560D01*
Y27470D01*
X30610Y27420D01*
X30660Y27470D01*
Y27620D01*
X30860Y27920D02*
X30560D01*
Y27770D01*
X30610Y27720D01*
X30710D01*
X30760Y27770D01*
Y27920D01*
Y28070D02*
Y28170D01*
X30710Y28220D01*
X30560D01*
Y28070D01*
X30610Y28020D01*
X30660Y28070D01*
Y28220D01*
X30560Y28320D02*
X30760D01*
Y28370D01*
X30710Y28420D01*
X30560D01*
X30710D01*
X30760Y28470D01*
X30710Y28520D01*
X30560D01*
X30460Y28620D02*
Y28670D01*
X30510Y28720D01*
X30760D01*
X30560Y28970D02*
Y29069D01*
X30610Y29119D01*
X30710D01*
X30760Y29069D01*
Y28970D01*
X30710Y28920D01*
X30610D01*
X30560Y28970D01*
X30860Y29219D02*
X30560D01*
X30710D01*
X30760Y29269D01*
Y29369D01*
X30710Y29419D01*
X30560D01*
Y29519D02*
X30760D01*
Y29669D01*
X30710Y29719D01*
X30560D01*
X30460Y29919D02*
Y29969D01*
X30510Y30019D01*
X30760D01*
Y29869D01*
X30710Y29819D01*
X30610D01*
X30560Y29869D01*
Y30019D01*
Y30119D02*
Y30219D01*
Y30169D01*
X30760D01*
Y30119D01*
X30560Y30369D02*
Y30469D01*
Y30419D01*
X30860D01*
Y30369D01*
Y30619D02*
X30560D01*
Y30769D01*
X30610Y30819D01*
X30660D01*
X30710D01*
X30760Y30769D01*
Y30619D01*
X30560Y31069D02*
Y30969D01*
X30610Y30919D01*
X30710D01*
X30760Y30969D01*
Y31069D01*
X30710Y31119D01*
X30660D01*
Y30919D01*
X30760Y31219D02*
X30560D01*
X30660D01*
X30710Y31269D01*
X30760Y31319D01*
Y31369D01*
X30810Y31569D02*
X30760D01*
Y31519D01*
Y31619D01*
Y31569D01*
X30610D01*
X30560Y31619D01*
X30660Y31919D02*
X30710D01*
Y31869D01*
X30660D01*
Y31919D01*
X30710Y31969D01*
X30810D01*
X30860Y31919D01*
Y31819D01*
X30810Y31769D01*
X30610D01*
X30560Y31819D01*
Y31969D01*
X30460Y32168D02*
Y32218D01*
X30510Y32268D01*
X30760D01*
Y32118D01*
X30710Y32069D01*
X30610D01*
X30560Y32118D01*
Y32268D01*
Y32368D02*
X30760D01*
Y32418D01*
X30710Y32468D01*
X30560D01*
X30710D01*
X30760Y32518D01*
X30710Y32568D01*
X30560D01*
X30760Y32718D02*
Y32818D01*
X30710Y32868D01*
X30560D01*
Y32718D01*
X30610Y32668D01*
X30660Y32718D01*
Y32868D01*
X30560Y32968D02*
Y33068D01*
Y33018D01*
X30760D01*
Y32968D01*
X30560Y33218D02*
Y33318D01*
Y33268D01*
X30860D01*
Y33218D01*
X30560Y33468D02*
X30610D01*
Y33518D01*
X30560D01*
Y33468D01*
X30760Y33918D02*
Y33768D01*
X30710Y33718D01*
X30610D01*
X30560Y33768D01*
Y33918D01*
Y34068D02*
Y34168D01*
X30610Y34218D01*
X30710D01*
X30760Y34168D01*
Y34068D01*
X30710Y34018D01*
X30610D01*
X30560Y34068D01*
Y34318D02*
X30760D01*
Y34368D01*
X30710Y34418D01*
X30560D01*
X30710D01*
X30760Y34468D01*
X30710Y34518D01*
X30560D01*
X30760Y34420D02*
X31010D01*
X31060Y34370D01*
Y34270D01*
X31010Y34220D01*
X30760D01*
X31060Y33970D02*
X30760D01*
X30910Y34120D01*
Y33920D01*
X30610Y19160D02*
Y19410D01*
X30660Y19460D01*
X30760D01*
X30810Y19410D01*
Y19160D01*
X30910Y19210D02*
X30960Y19160D01*
X31060D01*
X31110Y19210D01*
Y19260D01*
X31060Y19310D01*
X31010D01*
X31060D01*
X31110Y19360D01*
Y19410D01*
X31060Y19460D01*
X30960D01*
X30910Y19410D01*
X34940Y24420D02*
Y24220D01*
X34890Y24170D01*
X34790D01*
X34740Y24220D01*
Y24420D01*
X34790Y24470D01*
X34890D01*
X34840Y24370D02*
X34940Y24470D01*
X34890D02*
X34940Y24420D01*
X35040Y24470D02*
X35140D01*
X35090D01*
Y24170D01*
X35040Y24220D01*
X31210Y20110D02*
X31260Y20060D01*
Y19960D01*
X31210Y19910D01*
X31010D01*
X30960Y19960D01*
Y20060D01*
X31010Y20110D01*
X30960Y20210D02*
Y20310D01*
Y20260D01*
X31260D01*
X31210Y20210D01*
X31260Y20460D02*
Y20660D01*
X31210D01*
X31010Y20460D01*
X30960D01*
X31210Y22110D02*
X31260Y22060D01*
Y21960D01*
X31210Y21910D01*
X31010D01*
X30960Y21960D01*
Y22060D01*
X31010Y22110D01*
X30960Y22210D02*
Y22310D01*
Y22260D01*
X31260D01*
X31210Y22210D01*
X31260Y22660D02*
Y22460D01*
X31110D01*
X31160Y22560D01*
Y22610D01*
X31110Y22660D01*
X31010D01*
X30960Y22610D01*
Y22510D01*
X31010Y22460D01*
X32260Y29210D02*
X32210Y29160D01*
X32110D01*
X32060Y29210D01*
Y29410D01*
X32110Y29460D01*
X32210D01*
X32260Y29410D01*
X32360Y29460D02*
X32460D01*
X32410D01*
Y29160D01*
X32360Y29210D01*
X32610D02*
X32660Y29160D01*
X32760D01*
X32810Y29210D01*
Y29260D01*
X32760Y29310D01*
X32710D01*
X32760D01*
X32810Y29360D01*
Y29410D01*
X32760Y29460D01*
X32660D01*
X32610Y29410D01*
X33730Y29240D02*
X33680Y29190D01*
X33580D01*
X33530Y29240D01*
Y29440D01*
X33580Y29490D01*
X33680D01*
X33730Y29440D01*
X33830Y29490D02*
X33930D01*
X33880D01*
Y29190D01*
X33830Y29240D01*
X34080D02*
X34130Y29190D01*
X34230D01*
X34280Y29240D01*
Y29440D01*
X34230Y29490D01*
X34130D01*
X34080Y29440D01*
Y29240D01*
X34350Y27530D02*
X34400Y27480D01*
Y27380D01*
X34350Y27330D01*
X34150D01*
X34100Y27380D01*
Y27480D01*
X34150Y27530D01*
Y27630D02*
X34100Y27680D01*
Y27780D01*
X34150Y27830D01*
X34350D01*
X34400Y27780D01*
Y27680D01*
X34350Y27630D01*
X34300D01*
X34250Y27680D01*
Y27830D01*
X31310Y36700D02*
X31360Y36650D01*
Y36550D01*
X31310Y36500D01*
X31110D01*
X31060Y36550D01*
Y36650D01*
X31110Y36700D01*
X31360Y37000D02*
X31310Y36900D01*
X31210Y36800D01*
X31110D01*
X31060Y36850D01*
Y36950D01*
X31110Y37000D01*
X31160D01*
X31210Y36950D01*
Y36800D01*
X31090Y15900D02*
Y16100D01*
X31190Y16200D01*
X31290Y16100D01*
Y15900D01*
X31440Y16200D02*
X31540D01*
X31590Y16150D01*
Y16050D01*
X31540Y16000D01*
X31440D01*
X31390Y16050D01*
Y16150D01*
X31440Y16200D01*
X31990Y15900D02*
Y16100D01*
X32090Y16200D01*
X32190Y16100D01*
Y15900D01*
X32340Y16200D02*
X32440D01*
X32490Y16150D01*
Y16050D01*
X32440Y16000D01*
X32340D01*
X32290Y16050D01*
Y16150D01*
X32340Y16200D01*
X33089Y15950D02*
X33039Y15900D01*
X32939D01*
X32889Y15950D01*
Y16150D01*
X32939Y16200D01*
X33039D01*
X33089Y16150D01*
Y16050D01*
X32989D01*
X33189Y16200D02*
Y16000D01*
X33339D01*
X33389Y16050D01*
Y16200D01*
X33689Y15900D02*
Y16200D01*
X33539D01*
X33489Y16150D01*
Y16050D01*
X33539Y16000D01*
X33689D01*
X34289Y15950D02*
X34239Y15900D01*
X34139D01*
X34089Y15950D01*
Y16150D01*
X34139Y16200D01*
X34239D01*
X34289Y16150D01*
Y16050D01*
X34189D01*
X34389Y16200D02*
Y16000D01*
X34539D01*
X34589Y16050D01*
Y16200D01*
X34889Y15900D02*
Y16200D01*
X34739D01*
X34689Y16150D01*
Y16050D01*
X34739Y16000D01*
X34889D01*
X30540Y37550D02*
Y37750D01*
X30640Y37850D01*
X30740Y37750D01*
Y37550D01*
X30840Y37850D02*
X30940D01*
X30890D01*
Y37650D01*
X30840D01*
X31090Y37850D02*
Y37650D01*
X31240D01*
X31290Y37700D01*
Y37850D01*
X32189Y37600D02*
X32139Y37550D01*
X32040D01*
X31990Y37600D01*
Y37650D01*
X32040Y37700D01*
X32139D01*
X32189Y37750D01*
Y37800D01*
X32139Y37850D01*
X32040D01*
X31990Y37800D01*
X32289Y37850D02*
Y37650D01*
X32439D01*
X32489Y37700D01*
Y37850D01*
X32789Y37650D02*
X32639D01*
X32589Y37700D01*
Y37800D01*
X32639Y37850D01*
X32789D01*
X33389Y37600D02*
X33339Y37550D01*
X33239D01*
X33189Y37600D01*
Y37650D01*
X33239Y37700D01*
X33339D01*
X33389Y37750D01*
Y37800D01*
X33339Y37850D01*
X33239D01*
X33189Y37800D01*
X33639Y37850D02*
X33539D01*
X33489Y37800D01*
Y37700D01*
X33539Y37650D01*
X33639D01*
X33689Y37700D01*
Y37750D01*
X33489D01*
X33789Y37850D02*
Y37650D01*
X33939D01*
X33989Y37700D01*
Y37850D01*
X34089D02*
X34239D01*
X34289Y37800D01*
X34239Y37750D01*
X34139D01*
X34089Y37700D01*
X34139Y37650D01*
X34289D01*
X34889Y37600D02*
X34839Y37550D01*
X34739D01*
X34689Y37600D01*
Y37800D01*
X34739Y37850D01*
X34839D01*
X34889Y37800D01*
Y37700D01*
X34789D01*
X34989Y37850D02*
Y37650D01*
X35139D01*
X35189Y37700D01*
Y37850D01*
X35488Y37550D02*
Y37850D01*
X35338D01*
X35288Y37800D01*
Y37700D01*
X35338Y37650D01*
X35488D01*
X11910Y23570D02*
X11860Y23520D01*
X11760D01*
X11710Y23570D01*
Y23770D01*
X11760Y23820D01*
X11860D01*
X11910Y23770D01*
X12010Y23570D02*
X12060Y23520D01*
X12160D01*
X12210Y23570D01*
Y23620D01*
X12160Y23670D01*
X12110D01*
X12160D01*
X12210Y23720D01*
Y23770D01*
X12160Y23820D01*
X12060D01*
X12010Y23770D01*
X12710Y36540D02*
X12760Y36490D01*
Y36390D01*
X12710Y36340D01*
X12510D01*
X12460Y36390D01*
Y36490D01*
X12510Y36540D01*
X12760Y36840D02*
X12710Y36740D01*
X12610Y36640D01*
X12510D01*
X12460Y36690D01*
Y36790D01*
X12510Y36840D01*
X12560D01*
X12610Y36790D01*
Y36640D01*
X15780Y29170D02*
X15830Y29120D01*
Y29020D01*
X15780Y28970D01*
X15580D01*
X15530Y29020D01*
Y29120D01*
X15580Y29170D01*
Y29270D02*
X15530Y29320D01*
Y29420D01*
X15580Y29470D01*
X15780D01*
X15830Y29420D01*
Y29320D01*
X15780Y29270D01*
X15730D01*
X15680Y29320D01*
Y29470D01*
X15160Y30880D02*
X15110Y30830D01*
X15010D01*
X14960Y30880D01*
Y31080D01*
X15010Y31130D01*
X15110D01*
X15160Y31080D01*
X15260Y31130D02*
X15360D01*
X15310D01*
Y30830D01*
X15260Y30880D01*
X15510D02*
X15560Y30830D01*
X15660D01*
X15710Y30880D01*
Y31080D01*
X15660Y31130D01*
X15560D01*
X15510Y31080D01*
Y30880D01*
X13690Y30850D02*
X13640Y30800D01*
X13540D01*
X13490Y30850D01*
Y31050D01*
X13540Y31100D01*
X13640D01*
X13690Y31050D01*
X13790Y31100D02*
X13890D01*
X13840D01*
Y30800D01*
X13790Y30850D01*
X14040D02*
X14090Y30800D01*
X14190D01*
X14240Y30850D01*
Y30900D01*
X14190Y30950D01*
X14140D01*
X14190D01*
X14240Y31000D01*
Y31050D01*
X14190Y31100D01*
X14090D01*
X14040Y31050D01*
X16800Y22870D02*
X16850Y22820D01*
Y22720D01*
X16800Y22670D01*
X16600D01*
X16550Y22720D01*
Y22820D01*
X16600Y22870D01*
X16550Y22970D02*
Y23070D01*
Y23020D01*
X16850D01*
X16800Y22970D01*
X16850Y23420D02*
Y23220D01*
X16700D01*
X16750Y23320D01*
Y23370D01*
X16700Y23420D01*
X16600D01*
X16550Y23370D01*
Y23270D01*
X16600Y23220D01*
X16800Y20780D02*
X16850Y20730D01*
Y20630D01*
X16800Y20580D01*
X16600D01*
X16550Y20630D01*
Y20730D01*
X16600Y20780D01*
X16550Y20880D02*
Y20980D01*
Y20930D01*
X16850D01*
X16800Y20880D01*
X16850Y21130D02*
Y21330D01*
X16800D01*
X16600Y21130D01*
X16550D01*
X13370Y27140D02*
X13070D01*
Y27340D01*
Y27440D02*
Y27540D01*
Y27490D01*
X13370D01*
X13320Y27440D01*
X11790Y18730D02*
Y18430D01*
X11940D01*
X11990Y18480D01*
Y18580D01*
X11940Y18630D01*
X11790D01*
X11890D02*
X11990Y18730D01*
X12090Y18480D02*
X12140Y18430D01*
X12240D01*
X12290Y18480D01*
Y18530D01*
X12240Y18580D01*
X12190D01*
X12240D01*
X12290Y18630D01*
Y18680D01*
X12240Y18730D01*
X12140D01*
X12090Y18680D01*
X11700Y21940D02*
Y21640D01*
X11850D01*
X11900Y21690D01*
Y21790D01*
X11850Y21840D01*
X11700D01*
X11800D02*
X11900Y21940D01*
X12000Y21640D02*
Y21940D01*
X12150D01*
X12200Y21890D01*
Y21840D01*
Y21790D01*
X12150Y21740D01*
X12000D01*
X12350Y21690D02*
Y21740D01*
X12300D01*
X12400D01*
X12350D01*
Y21890D01*
X12400Y21940D01*
X11900Y37360D02*
Y37560D01*
X12000Y37660D01*
X12100Y37560D01*
Y37360D01*
X12200Y37660D02*
X12300D01*
X12250D01*
Y37460D01*
X12200D01*
X12450Y37660D02*
Y37460D01*
X12600D01*
X12650Y37510D01*
Y37660D01*
X13549Y37410D02*
X13499Y37360D01*
X13400D01*
X13350Y37410D01*
Y37460D01*
X13400Y37510D01*
X13499D01*
X13549Y37560D01*
Y37610D01*
X13499Y37660D01*
X13400D01*
X13350Y37610D01*
X13649Y37660D02*
Y37460D01*
X13799D01*
X13849Y37510D01*
Y37660D01*
X14149Y37460D02*
X13999D01*
X13949Y37510D01*
Y37610D01*
X13999Y37660D01*
X14149D01*
X14749Y37410D02*
X14699Y37360D01*
X14599D01*
X14549Y37410D01*
Y37460D01*
X14599Y37510D01*
X14699D01*
X14749Y37560D01*
Y37610D01*
X14699Y37660D01*
X14599D01*
X14549Y37610D01*
X14999Y37660D02*
X14899D01*
X14849Y37610D01*
Y37510D01*
X14899Y37460D01*
X14999D01*
X15049Y37510D01*
Y37560D01*
X14849D01*
X15149Y37660D02*
Y37460D01*
X15299D01*
X15349Y37510D01*
Y37660D01*
X15449D02*
X15599D01*
X15649Y37610D01*
X15599Y37560D01*
X15499D01*
X15449Y37510D01*
X15499Y37460D01*
X15649D01*
X16249Y37410D02*
X16199Y37360D01*
X16099D01*
X16049Y37410D01*
Y37610D01*
X16099Y37660D01*
X16199D01*
X16249Y37610D01*
Y37510D01*
X16149D01*
X16349Y37660D02*
Y37460D01*
X16499D01*
X16549Y37510D01*
Y37660D01*
X16848Y37360D02*
Y37660D01*
X16698D01*
X16648Y37610D01*
Y37510D01*
X16698Y37460D01*
X16848D01*
X12420Y17620D02*
Y17820D01*
X12520Y17920D01*
X12620Y17820D01*
Y17620D01*
X12770Y17920D02*
X12870D01*
X12920Y17870D01*
Y17770D01*
X12870Y17720D01*
X12770D01*
X12720Y17770D01*
Y17870D01*
X12770Y17920D01*
X13320Y17620D02*
Y17820D01*
X13420Y17920D01*
X13520Y17820D01*
Y17620D01*
X13670Y17920D02*
X13770D01*
X13820Y17870D01*
Y17770D01*
X13770Y17720D01*
X13670D01*
X13620Y17770D01*
Y17870D01*
X13670Y17920D01*
X14419Y17670D02*
X14369Y17620D01*
X14269D01*
X14219Y17670D01*
Y17870D01*
X14269Y17920D01*
X14369D01*
X14419Y17870D01*
Y17770D01*
X14319D01*
X14519Y17920D02*
Y17720D01*
X14669D01*
X14719Y17770D01*
Y17920D01*
X15019Y17620D02*
Y17920D01*
X14869D01*
X14819Y17870D01*
Y17770D01*
X14869Y17720D01*
X15019D01*
X15619Y17670D02*
X15569Y17620D01*
X15469D01*
X15419Y17670D01*
Y17870D01*
X15469Y17920D01*
X15569D01*
X15619Y17870D01*
Y17770D01*
X15519D01*
X15719Y17920D02*
Y17720D01*
X15869D01*
X15919Y17770D01*
Y17920D01*
X16219Y17620D02*
Y17920D01*
X16069D01*
X16019Y17870D01*
Y17770D01*
X16069Y17720D01*
X16219D01*
X16450Y26620D02*
Y26720D01*
X16400Y26770D01*
X16250D01*
Y26620D01*
X16300Y26570D01*
X16350Y26620D01*
Y26770D01*
X16550Y27070D02*
X16250D01*
Y26920D01*
X16300Y26870D01*
X16400D01*
X16450Y26920D01*
Y27070D01*
Y27220D02*
Y27320D01*
X16400Y27370D01*
X16250D01*
Y27220D01*
X16300Y27170D01*
X16350Y27220D01*
Y27370D01*
X16250Y27470D02*
X16450D01*
Y27520D01*
X16400Y27570D01*
X16250D01*
X16400D01*
X16450Y27620D01*
X16400Y27670D01*
X16250D01*
X16150Y27770D02*
Y27820D01*
X16200Y27870D01*
X16450D01*
X16250Y28119D02*
Y28219D01*
X16300Y28269D01*
X16400D01*
X16450Y28219D01*
Y28119D01*
X16400Y28070D01*
X16300D01*
X16250Y28119D01*
X16550Y28369D02*
X16250D01*
X16400D01*
X16450Y28419D01*
Y28519D01*
X16400Y28569D01*
X16250D01*
Y28669D02*
X16450D01*
Y28819D01*
X16400Y28869D01*
X16250D01*
X16150Y29069D02*
Y29119D01*
X16200Y29169D01*
X16450D01*
Y29019D01*
X16400Y28969D01*
X16300D01*
X16250Y29019D01*
Y29169D01*
Y29269D02*
Y29369D01*
Y29319D01*
X16450D01*
Y29269D01*
X16250Y29519D02*
Y29619D01*
Y29569D01*
X16550D01*
Y29519D01*
Y29769D02*
X16250D01*
Y29919D01*
X16300Y29969D01*
X16350D01*
X16400D01*
X16450Y29919D01*
Y29769D01*
X16250Y30219D02*
Y30119D01*
X16300Y30069D01*
X16400D01*
X16450Y30119D01*
Y30219D01*
X16400Y30269D01*
X16350D01*
Y30069D01*
X16450Y30369D02*
X16250D01*
X16350D01*
X16400Y30419D01*
X16450Y30469D01*
Y30519D01*
X16500Y30719D02*
X16450D01*
Y30669D01*
Y30769D01*
Y30719D01*
X16300D01*
X16250Y30769D01*
X16350Y31069D02*
X16400D01*
Y31019D01*
X16350D01*
Y31069D01*
X16400Y31119D01*
X16500D01*
X16550Y31069D01*
Y30969D01*
X16500Y30919D01*
X16300D01*
X16250Y30969D01*
Y31119D01*
X16150Y31318D02*
Y31368D01*
X16200Y31418D01*
X16450D01*
Y31268D01*
X16400Y31219D01*
X16300D01*
X16250Y31268D01*
Y31418D01*
Y31518D02*
X16450D01*
Y31568D01*
X16400Y31618D01*
X16250D01*
X16400D01*
X16450Y31668D01*
X16400Y31718D01*
X16250D01*
X16450Y31868D02*
Y31968D01*
X16400Y32018D01*
X16250D01*
Y31868D01*
X16300Y31818D01*
X16350Y31868D01*
Y32018D01*
X16250Y32118D02*
Y32218D01*
Y32168D01*
X16450D01*
Y32118D01*
X16250Y32368D02*
Y32468D01*
Y32418D01*
X16550D01*
Y32368D01*
X16250Y32618D02*
X16300D01*
Y32668D01*
X16250D01*
Y32618D01*
X16450Y33068D02*
Y32918D01*
X16400Y32868D01*
X16300D01*
X16250Y32918D01*
Y33068D01*
Y33218D02*
Y33318D01*
X16300Y33368D01*
X16400D01*
X16450Y33318D01*
Y33218D01*
X16400Y33168D01*
X16300D01*
X16250Y33218D01*
Y33468D02*
X16450D01*
Y33518D01*
X16400Y33568D01*
X16250D01*
X16400D01*
X16450Y33618D01*
X16400Y33668D01*
X16250D01*
X11570Y23900D02*
X11870D01*
X11770Y24000D01*
X11870Y24100D01*
X11570D01*
X11770Y24400D02*
Y24250D01*
X11720Y24200D01*
X11620D01*
X11570Y24250D01*
Y24400D01*
X11820Y24700D02*
X11870Y24650D01*
Y24550D01*
X11820Y24500D01*
X11620D01*
X11570Y24550D01*
Y24650D01*
X11620Y24700D01*
X11720D01*
Y24600D01*
X11570Y24800D02*
Y24900D01*
Y24850D01*
X11770D01*
Y24800D01*
X11570Y25050D02*
Y25150D01*
Y25100D01*
X11870D01*
Y25050D01*
X11570Y25300D02*
Y25400D01*
Y25350D01*
X11870D01*
Y25300D01*
X11820Y26049D02*
X11870Y25999D01*
Y25899D01*
X11820Y25849D01*
X11620D01*
X11570Y25899D01*
Y25999D01*
X11620Y26049D01*
X11570Y26199D02*
Y26299D01*
X11620Y26349D01*
X11720D01*
X11770Y26299D01*
Y26199D01*
X11720Y26149D01*
X11620D01*
X11570Y26199D01*
Y26449D02*
Y26599D01*
X11620Y26649D01*
X11670Y26599D01*
Y26499D01*
X11720Y26449D01*
X11770Y26499D01*
Y26649D01*
X11570Y26749D02*
X11770D01*
Y26799D01*
X11720Y26849D01*
X11570D01*
X11720D01*
X11770Y26899D01*
X11720Y26949D01*
X11570D01*
Y27099D02*
Y27199D01*
X11620Y27249D01*
X11720D01*
X11770Y27199D01*
Y27099D01*
X11720Y27049D01*
X11620D01*
X11570Y27099D01*
Y27349D02*
Y27449D01*
Y27399D01*
X11870D01*
Y27349D01*
X11570Y27649D02*
Y27749D01*
X11620Y27799D01*
X11720D01*
X11770Y27749D01*
Y27649D01*
X11720Y27599D01*
X11620D01*
X11570Y27649D01*
X11470Y27999D02*
Y28049D01*
X11520Y28099D01*
X11770D01*
Y27949D01*
X11720Y27899D01*
X11620D01*
X11570Y27949D01*
Y28099D01*
X11770Y28199D02*
X11620D01*
X11570Y28249D01*
Y28399D01*
X11520D01*
X11470Y28349D01*
Y28299D01*
X11570Y28399D02*
X11770D01*
X11820Y28998D02*
X11870Y28948D01*
Y28848D01*
X11820Y28798D01*
X11770D01*
X11720Y28848D01*
Y28948D01*
X11670Y28998D01*
X11620D01*
X11570Y28948D01*
Y28848D01*
X11620Y28798D01*
X11570Y29248D02*
Y29148D01*
X11620Y29098D01*
X11720D01*
X11770Y29148D01*
Y29248D01*
X11720Y29298D01*
X11670D01*
Y29098D01*
X11470Y29398D02*
X11770D01*
Y29548D01*
X11720Y29598D01*
X11620D01*
X11570Y29548D01*
Y29398D01*
X11820Y29748D02*
X11770D01*
Y29698D01*
Y29798D01*
Y29748D01*
X11620D01*
X11570Y29798D01*
Y30448D02*
Y30248D01*
X11770Y30448D01*
X11820D01*
X11870Y30398D01*
Y30298D01*
X11820Y30248D01*
Y30548D02*
X11870Y30598D01*
Y30698D01*
X11820Y30748D01*
X11620D01*
X11570Y30698D01*
Y30598D01*
X11620Y30548D01*
X11820D01*
X11570Y30848D02*
Y30948D01*
Y30898D01*
X11870D01*
X11820Y30848D01*
X11570Y31098D02*
Y31198D01*
Y31148D01*
X11870D01*
X11820Y31098D01*
M02*
