G04 Layer_Color=32768*
%FSLAX25Y25*%
%MOIN*%
G70*
G01*
G75*
%ADD19C,0.01000*%
%ADD51R,0.12866X1.92527*%
D19*
X117298Y213846D02*
Y223843D01*
X123963Y213846D01*
Y223843D01*
X132293D02*
X128961D01*
X127295Y222177D01*
Y215512D01*
X128961Y213846D01*
X132293D01*
X133959Y215512D01*
Y222177D01*
X132293Y223843D01*
X147288D02*
X153953D01*
X150621D01*
Y213846D01*
X162284Y223843D02*
X158951D01*
X157285Y222177D01*
Y215512D01*
X158951Y213846D01*
X162284D01*
X163950Y215512D01*
Y222177D01*
X162284Y223843D01*
X167282Y213846D02*
Y223843D01*
X172280D01*
X173946Y222177D01*
Y218845D01*
X172280Y217178D01*
X167282D01*
X193940Y222177D02*
X192274Y223843D01*
X188942D01*
X187275Y222177D01*
Y220511D01*
X188942Y218845D01*
X192274D01*
X193940Y217178D01*
Y215512D01*
X192274Y213846D01*
X188942D01*
X187275Y215512D01*
X197272Y223843D02*
X200605D01*
X198938D01*
Y213846D01*
X197272D01*
X200605D01*
X205603Y223843D02*
Y213846D01*
X210601D01*
X212267Y215512D01*
Y222177D01*
X210601Y223843D01*
X205603D01*
X222264D02*
X215600D01*
Y213846D01*
X222264D01*
X215600Y218845D02*
X218932D01*
X235593Y223843D02*
X242258D01*
X238925D01*
Y213846D01*
X245590Y223843D02*
X248922D01*
X247256D01*
Y213846D01*
X245590D01*
X248922D01*
X253921D02*
Y223843D01*
X260585Y213846D01*
Y223843D01*
X263917Y213846D02*
Y223843D01*
X270582Y213846D01*
Y223843D01*
X273914D02*
X277246D01*
X275580D01*
Y213846D01*
X273914D01*
X277246D01*
X282245D02*
Y223843D01*
X288909Y213846D01*
Y223843D01*
X298906Y222177D02*
X297240Y223843D01*
X293908D01*
X292242Y222177D01*
Y215512D01*
X293908Y213846D01*
X297240D01*
X298906Y215512D01*
Y218845D01*
X295574D01*
X312235Y223843D02*
X315567D01*
X313901D01*
Y213846D01*
X312235D01*
X315567D01*
X320566D02*
Y223843D01*
X327230Y213846D01*
Y223843D01*
X340559D02*
Y213846D01*
Y218845D01*
X347224D01*
Y223843D01*
Y213846D01*
X350556Y223843D02*
X353888D01*
X352222D01*
Y213846D01*
X350556D01*
X353888D01*
X365551Y222177D02*
X363885Y223843D01*
X360553D01*
X358887Y222177D01*
Y215512D01*
X360553Y213846D01*
X363885D01*
X365551Y215512D01*
Y218845D01*
X362219D01*
X368883Y223843D02*
Y213846D01*
Y218845D01*
X375548D01*
Y223843D01*
Y213846D01*
X378880Y223843D02*
Y213846D01*
X385545D01*
X388877Y223843D02*
X392209D01*
X390543D01*
Y213846D01*
X388877D01*
X392209D01*
X403872Y222177D02*
X402206Y223843D01*
X398874D01*
X397208Y222177D01*
Y215512D01*
X398874Y213846D01*
X402206D01*
X403872Y215512D01*
Y218845D01*
X400540D01*
X407204Y223843D02*
Y213846D01*
Y218845D01*
X413869D01*
Y223843D01*
Y213846D01*
X417201Y223843D02*
X423866D01*
X420533D01*
Y213846D01*
X433862Y223843D02*
X427198D01*
Y213846D01*
X433862D01*
X427198Y218845D02*
X430530D01*
X437195Y223843D02*
Y213846D01*
X442193D01*
X443859Y215512D01*
Y222177D01*
X442193Y223843D01*
X437195D01*
X457188Y213846D02*
Y223843D01*
X462187D01*
X463853Y222177D01*
Y218845D01*
X462187Y217178D01*
X457188D01*
X460521D02*
X463853Y213846D01*
X473849Y223843D02*
X467185D01*
Y213846D01*
X473849D01*
X467185Y218845D02*
X470517D01*
X483846Y222177D02*
X482180Y223843D01*
X478848D01*
X477182Y222177D01*
Y215512D01*
X478848Y213846D01*
X482180D01*
X483846Y215512D01*
Y218845D01*
X480514D01*
X487179Y223843D02*
X490511D01*
X488845D01*
Y213846D01*
X487179D01*
X490511D01*
X500507Y223843D02*
X497175D01*
X495509Y222177D01*
Y215512D01*
X497175Y213846D01*
X500507D01*
X502174Y215512D01*
Y222177D01*
X500507Y223843D01*
X505506Y213846D02*
Y223843D01*
X512170Y213846D01*
Y223843D01*
X522167Y222177D02*
X520501Y223843D01*
X517169D01*
X515503Y222177D01*
Y220511D01*
X517169Y218845D01*
X520501D01*
X522167Y217178D01*
Y215512D01*
X520501Y213846D01*
X517169D01*
X515503Y215512D01*
D51*
X218630Y98193D02*
D03*
X606850Y98093D02*
D03*
M02*
