G04 Layer_Physical_Order=3*
G04 Layer_Color=32768*
%FSLAX25Y25*%
%MOIN*%
G70*
G01*
G75*
%ADD19C,0.01000*%
%ADD24C,0.05000*%
%ADD28C,0.04000*%
%ADD29C,0.19400*%
G04:AMPARAMS|DCode=30|XSize=160mil|YSize=160mil|CornerRadius=0mil|HoleSize=0mil|Usage=FLASHONLY|Rotation=0.000|XOffset=0mil|YOffset=0mil|HoleType=Round|Shape=Relief|Width=10mil|Gap=10mil|Entries=4|*
%AMTHD30*
7,0,0,0.16000,0.14000,0.01000,45*
%
%ADD30THD30*%
%ADD31C,0.07000*%
D19*
X686705Y87300D02*
Y94000D01*
X693305D01*
Y87300D02*
Y94000D01*
X686705Y87300D02*
X693305D01*
X686705Y103100D02*
Y109700D01*
X693305D01*
Y103100D02*
Y109700D01*
X686705Y103100D02*
X693305D01*
X689991Y83577D02*
X690026Y83542D01*
X689991Y94000D02*
Y102970D01*
X707947Y83542D02*
Y113547D01*
X689991Y113547D02*
X707946D01*
X689991Y109700D02*
Y113547D01*
Y83577D02*
Y87300D01*
X690026Y83542D02*
X707947D01*
X630381Y451511D02*
X629382Y452511D01*
X627382D01*
X626383Y451511D01*
Y447513D01*
X627382Y446513D01*
X629382D01*
X630381Y447513D01*
Y449512D01*
X628382D01*
X632381Y450512D02*
Y446513D01*
Y448512D01*
X633380Y449512D01*
X634380Y450512D01*
X635380D01*
X639378Y446513D02*
X641378D01*
X642377Y447513D01*
Y449512D01*
X641378Y450512D01*
X639378D01*
X638379Y449512D01*
Y447513D01*
X639378Y446513D01*
X644377Y450512D02*
Y447513D01*
X645376Y446513D01*
X648376D01*
Y450512D01*
X650375Y446513D02*
Y450512D01*
X653374D01*
X654374Y449512D01*
Y446513D01*
X660372Y452511D02*
Y446513D01*
X657373D01*
X656373Y447513D01*
Y449512D01*
X657373Y450512D01*
X660372D01*
X668369Y446513D02*
Y452511D01*
X671368D01*
X672368Y451511D01*
Y449512D01*
X671368Y448512D01*
X668369D01*
X674367Y446513D02*
X676366D01*
X675367D01*
Y452511D01*
X674367D01*
X680365Y450512D02*
X682365D01*
X683364Y449512D01*
Y446513D01*
X680365D01*
X679365Y447513D01*
X680365Y448512D01*
X683364D01*
X685363Y446513D02*
Y450512D01*
X688363D01*
X689362Y449512D01*
Y446513D01*
X694361D02*
X692361D01*
X691362Y447513D01*
Y449512D01*
X692361Y450512D01*
X694361D01*
X695360Y449512D01*
Y448512D01*
X691362D01*
X703358Y446513D02*
X705357D01*
X704357D01*
Y452511D01*
X703358Y451511D01*
X716354Y446513D02*
X714354Y448512D01*
Y450512D01*
X716354Y452511D01*
X723351Y451511D02*
X722352Y452511D01*
X720352D01*
X719352Y451511D01*
Y447513D01*
X720352Y446513D01*
X722352D01*
X723351Y447513D01*
Y449512D01*
X721352D01*
X725351Y446513D02*
Y450512D01*
X728350D01*
X729349Y449512D01*
Y446513D01*
X735347Y452511D02*
Y446513D01*
X732348D01*
X731349Y447513D01*
Y449512D01*
X732348Y450512D01*
X735347D01*
X737347Y446513D02*
X739346Y448512D01*
Y450512D01*
X737347Y452511D01*
D24*
X55150Y97992D02*
D03*
X65780Y107441D02*
D03*
X62236D02*
D03*
X58693D02*
D03*
X55150D02*
D03*
X65780Y116890D02*
D03*
X62236D02*
D03*
X58693D02*
D03*
X55150D02*
D03*
X65780Y126339D02*
D03*
X62236D02*
D03*
X58693D02*
D03*
X55150D02*
D03*
X65780Y135787D02*
D03*
X62236D02*
D03*
X58693D02*
D03*
X55150D02*
D03*
X65780Y145236D02*
D03*
X62236D02*
D03*
X58693D02*
D03*
X55150D02*
D03*
X65780Y154685D02*
D03*
X62236D02*
D03*
X58693D02*
D03*
X55150D02*
D03*
X65780Y164134D02*
D03*
X62236D02*
D03*
X58693D02*
D03*
X55150D02*
D03*
X55150Y173583D02*
D03*
X58693D02*
D03*
X62236D02*
D03*
X65780D02*
D03*
X123748Y77913D02*
D03*
X127291D02*
D03*
X130835D02*
D03*
X134378D02*
D03*
X123748Y68465D02*
D03*
X127291D02*
D03*
X130835D02*
D03*
X134378D02*
D03*
X123748Y59016D02*
D03*
X127291D02*
D03*
X130835D02*
D03*
X134378D02*
D03*
X123748Y49567D02*
D03*
X127291D02*
D03*
X130835D02*
D03*
X134378D02*
D03*
X123748Y40118D02*
D03*
X127291D02*
D03*
X130835D02*
D03*
X134378D02*
D03*
X123748Y30669D02*
D03*
X127291D02*
D03*
X130835D02*
D03*
X134378D02*
D03*
X123748Y21220D02*
D03*
X127291D02*
D03*
X130835D02*
D03*
X134378D02*
D03*
X123748Y11772D02*
D03*
X127291D02*
D03*
X130835D02*
D03*
X134378D02*
D03*
Y87362D02*
D03*
X50712Y14337D02*
D03*
X104718Y185860D02*
D03*
X50624Y19280D02*
D03*
X104630Y190804D02*
D03*
X32906Y174764D02*
D03*
X36449D02*
D03*
X39992D02*
D03*
X43536D02*
D03*
X32906Y165315D02*
D03*
X36449D02*
D03*
X39992D02*
D03*
X43536D02*
D03*
X32906Y155866D02*
D03*
X36449D02*
D03*
X39992D02*
D03*
X43536D02*
D03*
X32906Y146417D02*
D03*
X36449D02*
D03*
X39992D02*
D03*
X43536D02*
D03*
X32906Y136969D02*
D03*
X36449D02*
D03*
X39992D02*
D03*
X43536D02*
D03*
X32906Y127520D02*
D03*
X36449D02*
D03*
X39992D02*
D03*
X43536D02*
D03*
X32906Y118071D02*
D03*
X36449D02*
D03*
X39992D02*
D03*
X43536D02*
D03*
X32906Y108622D02*
D03*
X36449D02*
D03*
X39992D02*
D03*
X43536D02*
D03*
X32906Y99173D02*
D03*
X112134Y12953D02*
D03*
X108591D02*
D03*
X105047D02*
D03*
X101504D02*
D03*
X112134Y22402D02*
D03*
X108591D02*
D03*
X105047D02*
D03*
X101504D02*
D03*
X112134Y31850D02*
D03*
X108591D02*
D03*
X105047D02*
D03*
X101504D02*
D03*
X112134Y41299D02*
D03*
X108591D02*
D03*
X105047D02*
D03*
X101504D02*
D03*
X112134Y50748D02*
D03*
X108591D02*
D03*
X105047D02*
D03*
X101504D02*
D03*
X112134Y60197D02*
D03*
X108591D02*
D03*
X105047D02*
D03*
X101504D02*
D03*
X112134Y69646D02*
D03*
X108591D02*
D03*
X105047D02*
D03*
X101504D02*
D03*
X112134Y79094D02*
D03*
X108591D02*
D03*
X105047D02*
D03*
X101504D02*
D03*
X112134Y88543D02*
D03*
D28*
X0Y0D02*
X727533D01*
Y196900D01*
X0D02*
X727533D01*
X0Y0D02*
Y196900D01*
D29*
X711656Y59080D02*
D03*
Y137820D02*
D03*
D30*
X651728Y11902D02*
D03*
Y185100D02*
D03*
X198428Y185100D02*
D03*
X198428Y11902D02*
D03*
X11811Y185100D02*
D03*
Y11902D02*
D03*
D31*
X649211Y90576D02*
D03*
X683677Y71094D02*
D03*
Y78829D02*
D03*
X684227Y118071D02*
D03*
Y125806D02*
D03*
X674561Y71094D02*
D03*
X675111Y125806D02*
D03*
X656534Y90576D02*
D03*
M02*
