G04 Layer_Color=16711935*
%FSLAX25Y25*%
%MOIN*%
G70*
G01*
G75*
%ADD39C,0.00500*%
%ADD50C,0.00300*%
D39*
X694541Y93497D02*
X694208Y93164D01*
Y92497D01*
X694541Y92164D01*
X695874D01*
X696207Y92497D01*
Y93164D01*
X695874Y93497D01*
X694874Y94164D02*
X695874D01*
X696207Y94497D01*
Y95496D01*
X694874D01*
X694541Y96496D02*
X694874D01*
Y96163D01*
Y96829D01*
Y96496D01*
X695874D01*
X696207Y96829D01*
Y100162D02*
Y100828D01*
X695874Y101161D01*
X695207D01*
X694874Y100828D01*
Y100162D01*
X695207Y99828D01*
X695874D01*
X696207Y100162D01*
X694874Y101828D02*
X695874D01*
X696207Y102161D01*
Y103161D01*
X694874D01*
X694541Y104160D02*
X694874D01*
Y103827D01*
Y104493D01*
Y104160D01*
X695874D01*
X696207Y104493D01*
X698140Y89665D02*
X697807Y89332D01*
Y88665D01*
X698140Y88332D01*
X699473D01*
X699806Y88665D01*
Y89332D01*
X699473Y89665D01*
X698473Y90665D02*
Y91331D01*
X698807Y91664D01*
X699806D01*
Y90665D01*
X699473Y90331D01*
X699140Y90665D01*
Y91664D01*
X699806Y92331D02*
Y93331D01*
X699473Y93664D01*
X699140Y93331D01*
Y92664D01*
X698807Y92331D01*
X698473Y92664D01*
Y93664D01*
X698140Y94663D02*
X698473D01*
Y94330D01*
Y94997D01*
Y94663D01*
X699473D01*
X699806Y94997D01*
Y96996D02*
Y96329D01*
X699473Y95996D01*
X698807D01*
X698473Y96329D01*
Y96996D01*
X698807Y97329D01*
X699140D01*
Y95996D01*
X699806Y97996D02*
Y98662D01*
Y98329D01*
X697807D01*
Y97996D01*
X699806Y99662D02*
Y100328D01*
Y99995D01*
X697807D01*
Y99662D01*
X698473Y101661D02*
Y102328D01*
X698807Y102661D01*
X699806D01*
Y101661D01*
X699473Y101328D01*
X699140Y101661D01*
Y102661D01*
X698140Y103661D02*
X698473D01*
Y103327D01*
Y103994D01*
Y103661D01*
X699473D01*
X699806Y103994D01*
Y105993D02*
Y105327D01*
X699473Y104993D01*
X698807D01*
X698473Y105327D01*
Y105993D01*
X698807Y106326D01*
X699140D01*
Y104993D01*
X697807Y108326D02*
X699806D01*
Y107326D01*
X699473Y106993D01*
X698807D01*
X698473Y107326D01*
Y108326D01*
X701406Y94830D02*
X702739D01*
X703406Y95496D01*
X702739Y96163D01*
X701406D01*
X703406Y96829D02*
Y97496D01*
Y97163D01*
X702073D01*
Y96829D01*
Y98829D02*
Y99495D01*
X702406Y99828D01*
X703406D01*
Y98829D01*
X703072Y98496D01*
X702739Y98829D01*
Y99828D01*
X703406Y100495D02*
Y101495D01*
X703072Y101828D01*
X702739Y101495D01*
Y100828D01*
X702406Y100495D01*
X702073Y100828D01*
Y101828D01*
X658166Y-3701D02*
Y-5700D01*
X659166D01*
X659499Y-5367D01*
Y-5034D01*
X659166Y-4701D01*
X658166D01*
X659166D01*
X659499Y-4368D01*
Y-4034D01*
X659166Y-3701D01*
X658166D01*
X660499Y-5700D02*
X661165D01*
X661498Y-5367D01*
Y-4701D01*
X661165Y-4368D01*
X660499D01*
X660166Y-4701D01*
Y-5367D01*
X660499Y-5700D01*
X662498Y-4368D02*
X663165D01*
X663498Y-4701D01*
Y-5700D01*
X662498D01*
X662165Y-5367D01*
X662498Y-5034D01*
X663498D01*
X664164Y-4368D02*
Y-5700D01*
Y-5034D01*
X664497Y-4701D01*
X664831Y-4368D01*
X665164D01*
X667496Y-3701D02*
Y-5700D01*
X666497D01*
X666163Y-5367D01*
Y-4701D01*
X666497Y-4368D01*
X667496D01*
X670496Y-5700D02*
X671162D01*
X671495Y-5367D01*
Y-4701D01*
X671162Y-4368D01*
X670496D01*
X670162Y-4701D01*
Y-5367D01*
X670496Y-5700D01*
X672162Y-4368D02*
Y-5367D01*
X672495Y-5700D01*
X673494D01*
Y-4368D01*
X674494Y-4034D02*
Y-4368D01*
X674161D01*
X674827D01*
X674494D01*
Y-5367D01*
X674827Y-5700D01*
X675827D02*
X676494D01*
X676160D01*
Y-3701D01*
X675827D01*
X677493Y-5700D02*
X678160D01*
X677826D01*
Y-4368D01*
X677493D01*
X679159Y-5700D02*
Y-4368D01*
X680159D01*
X680492Y-4701D01*
Y-5700D01*
X682158D02*
X681492D01*
X681159Y-5367D01*
Y-4701D01*
X681492Y-4368D01*
X682158D01*
X682492Y-4701D01*
Y-5034D01*
X681159D01*
D50*
X707946Y113547D02*
X707947Y113547D01*
X689991Y83506D02*
X690026Y83542D01*
X689991Y83506D02*
Y113547D01*
X0Y196900D02*
X727533D01*
Y39D02*
Y196900D01*
X0Y0D02*
X727533D01*
X0D02*
Y196900D01*
X690026Y83542D02*
X707947D01*
Y113547D01*
X689991Y113547D02*
X707946D01*
M02*
