G04 Layer_Color=32896*
%FSLAX25Y25*%
%MOIN*%
G70*
G01*
G75*
%ADD19C,0.01000*%
%ADD51R,0.12866X1.92527*%
D19*
X117860Y226500D02*
Y236496D01*
X124524Y226500D01*
Y236496D01*
X132855D02*
X129523D01*
X127857Y234830D01*
Y228166D01*
X129523Y226500D01*
X132855D01*
X134521Y228166D01*
Y234830D01*
X132855Y236496D01*
X147850D02*
Y226500D01*
X152848D01*
X154515Y228166D01*
Y229832D01*
X152848Y231498D01*
X147850D01*
X152848D01*
X154515Y233164D01*
Y234830D01*
X152848Y236496D01*
X147850D01*
X162845D02*
X159513D01*
X157847Y234830D01*
Y228166D01*
X159513Y226500D01*
X162845D01*
X164511Y228166D01*
Y234830D01*
X162845Y236496D01*
X167844D02*
X174508D01*
X171176D01*
Y226500D01*
X177840Y236496D02*
X184505D01*
X181173D01*
Y226500D01*
X192836Y236496D02*
X189503D01*
X187837Y234830D01*
Y228166D01*
X189503Y226500D01*
X192836D01*
X194502Y228166D01*
Y234830D01*
X192836Y236496D01*
X197834Y226500D02*
Y236496D01*
X201166Y233164D01*
X204499Y236496D01*
Y226500D01*
X224492Y234830D02*
X222826Y236496D01*
X219494D01*
X217828Y234830D01*
Y233164D01*
X219494Y231498D01*
X222826D01*
X224492Y229832D01*
Y228166D01*
X222826Y226500D01*
X219494D01*
X217828Y228166D01*
X227824Y236496D02*
X231157D01*
X229490D01*
Y226500D01*
X227824D01*
X231157D01*
X236155Y236496D02*
Y226500D01*
X241153D01*
X242819Y228166D01*
Y234830D01*
X241153Y236496D01*
X236155D01*
X252816D02*
X246152D01*
Y226500D01*
X252816D01*
X246152Y231498D02*
X249484D01*
X266145Y236496D02*
X272810D01*
X269478D01*
Y226500D01*
X276142Y236496D02*
X279474D01*
X277808D01*
Y226500D01*
X276142D01*
X279474D01*
X284473D02*
Y236496D01*
X291137Y226500D01*
Y236496D01*
X294469Y226500D02*
Y236496D01*
X301134Y226500D01*
Y236496D01*
X304466D02*
X307799D01*
X306132D01*
Y226500D01*
X304466D01*
X307799D01*
X312797D02*
Y236496D01*
X319461Y226500D01*
Y236496D01*
X329458Y234830D02*
X327792Y236496D01*
X324460D01*
X322794Y234830D01*
Y228166D01*
X324460Y226500D01*
X327792D01*
X329458Y228166D01*
Y231498D01*
X326126D01*
X342787Y236496D02*
X346119D01*
X344453D01*
Y226500D01*
X342787D01*
X346119D01*
X351118D02*
Y236496D01*
X357782Y226500D01*
Y236496D01*
X371111D02*
Y226500D01*
Y231498D01*
X377776D01*
Y236496D01*
Y226500D01*
X381108Y236496D02*
X384440D01*
X382774D01*
Y226500D01*
X381108D01*
X384440D01*
X396103Y234830D02*
X394437Y236496D01*
X391105D01*
X389439Y234830D01*
Y228166D01*
X391105Y226500D01*
X394437D01*
X396103Y228166D01*
Y231498D01*
X392771D01*
X399435Y236496D02*
Y226500D01*
Y231498D01*
X406100D01*
Y236496D01*
Y226500D01*
X409432Y236496D02*
Y226500D01*
X416097D01*
X419429Y236496D02*
X422761D01*
X421095D01*
Y226500D01*
X419429D01*
X422761D01*
X434424Y234830D02*
X432758Y236496D01*
X429426D01*
X427760Y234830D01*
Y228166D01*
X429426Y226500D01*
X432758D01*
X434424Y228166D01*
Y231498D01*
X431092D01*
X437756Y236496D02*
Y226500D01*
Y231498D01*
X444421D01*
Y236496D01*
Y226500D01*
X447753Y236496D02*
X454418D01*
X451086D01*
Y226500D01*
X464415Y236496D02*
X457750D01*
Y226500D01*
X464415D01*
X457750Y231498D02*
X461082D01*
X467747Y236496D02*
Y226500D01*
X472745D01*
X474411Y228166D01*
Y234830D01*
X472745Y236496D01*
X467747D01*
X487740Y226500D02*
Y236496D01*
X492739D01*
X494405Y234830D01*
Y231498D01*
X492739Y229832D01*
X487740D01*
X491073D02*
X494405Y226500D01*
X504402Y236496D02*
X497737D01*
Y226500D01*
X504402D01*
X497737Y231498D02*
X501069D01*
X514398Y234830D02*
X512732Y236496D01*
X509400D01*
X507734Y234830D01*
Y228166D01*
X509400Y226500D01*
X512732D01*
X514398Y228166D01*
Y231498D01*
X511066D01*
X517731Y236496D02*
X521063D01*
X519397D01*
Y226500D01*
X517731D01*
X521063D01*
X531060Y236496D02*
X527727D01*
X526061Y234830D01*
Y228166D01*
X527727Y226500D01*
X531060D01*
X532726Y228166D01*
Y234830D01*
X531060Y236496D01*
X536058Y226500D02*
Y236496D01*
X542723Y226500D01*
Y236496D01*
X552719Y234830D02*
X551053Y236496D01*
X547721D01*
X546055Y234830D01*
Y233164D01*
X547721Y231498D01*
X551053D01*
X552719Y229832D01*
Y228166D01*
X551053Y226500D01*
X547721D01*
X546055Y228166D01*
D51*
X218630Y98193D02*
D03*
X606850Y98093D02*
D03*
M02*
