G04 Layer_Physical_Order=6*
G04 Layer_Color=16711680*
%FSLAX25Y25*%
%MOIN*%
G70*
G01*
G75*
%ADD10R,0.07000X0.07000*%
%ADD12R,0.03937X0.02362*%
%ADD13R,0.04500X0.06000*%
%ADD14R,0.06693X0.01181*%
%ADD17C,0.00600*%
%ADD18C,0.00601*%
%ADD19C,0.01000*%
%ADD22C,0.21700*%
%ADD23C,0.15000*%
%ADD24C,0.05000*%
%ADD25C,0.02000*%
%ADD33R,0.22026X0.30435*%
%ADD34R,0.21878X0.30171*%
G36*
X622507Y182480D02*
X623235Y182185D01*
X623259Y182217D01*
X625487Y180167D01*
X629723Y175844D01*
X633731Y171308D01*
X637499Y166571D01*
X641017Y161645D01*
X644276Y156544D01*
X647267Y151282D01*
X649982Y145872D01*
X652415Y140329D01*
X654557Y134668D01*
X656404Y128904D01*
X657951Y123052D01*
X659194Y117128D01*
X660128Y111147D01*
X660753Y105127D01*
X661066Y99082D01*
X661066Y93029D01*
X660753Y86984D01*
X660128Y80963D01*
X659194Y74983D01*
X657951Y69058D01*
X656404Y63206D01*
X654557Y57442D01*
X652415Y51781D01*
X649982Y46238D01*
X647267Y40828D01*
X644276Y35566D01*
X641017Y30465D01*
X637499Y25539D01*
X633731Y20802D01*
X629723Y16266D01*
X625487Y11943D01*
X623259Y9893D01*
X623235Y9926D01*
X623235D01*
X622507Y9630D01*
X620963Y9335D01*
X619391Y9347D01*
X617852Y9665D01*
X616404Y10278D01*
X615103Y11161D01*
X614000Y12281D01*
X613137Y13595D01*
X612842Y14323D01*
X612842Y177787D01*
X612842Y177787D01*
Y177787D01*
X613137Y178516D01*
X614000Y179829D01*
X615103Y180949D01*
X616404Y181832D01*
X617852Y182445D01*
X619391Y182763D01*
X620963Y182775D01*
X622507Y182480D01*
D02*
G37*
D10*
X689991Y90676D02*
D03*
Y106393D02*
D03*
D12*
X215682Y165753D02*
D03*
Y170635D02*
D03*
Y175516D02*
D03*
Y160871D02*
D03*
Y155989D02*
D03*
X221587Y158430D02*
D03*
Y153548D02*
D03*
Y148666D02*
D03*
Y143784D02*
D03*
Y138902D02*
D03*
Y134020D02*
D03*
Y129139D02*
D03*
Y124257D02*
D03*
Y119375D02*
D03*
Y114493D02*
D03*
Y109611D02*
D03*
Y104729D02*
D03*
Y99847D02*
D03*
Y94965D02*
D03*
Y90083D02*
D03*
Y85202D02*
D03*
Y80320D02*
D03*
Y75438D02*
D03*
Y70556D02*
D03*
Y65674D02*
D03*
Y60792D02*
D03*
Y55910D02*
D03*
Y51028D02*
D03*
Y46146D02*
D03*
Y41265D02*
D03*
Y36383D02*
D03*
Y31501D02*
D03*
Y26619D02*
D03*
Y21737D02*
D03*
X215682Y151107D02*
D03*
Y146225D02*
D03*
Y141343D02*
D03*
Y136461D02*
D03*
Y131579D02*
D03*
Y126698D02*
D03*
Y121816D02*
D03*
Y116934D02*
D03*
Y112052D02*
D03*
Y107170D02*
D03*
Y102288D02*
D03*
Y97406D02*
D03*
Y92524D02*
D03*
Y87642D02*
D03*
Y82761D02*
D03*
Y77879D02*
D03*
Y72997D02*
D03*
Y68115D02*
D03*
Y63233D02*
D03*
Y58351D02*
D03*
Y53469D02*
D03*
Y48587D02*
D03*
Y43705D02*
D03*
Y38824D02*
D03*
Y33942D02*
D03*
Y29060D02*
D03*
Y24178D02*
D03*
Y19296D02*
D03*
X221587Y173075D02*
D03*
Y168194D02*
D03*
Y163312D02*
D03*
Y177957D02*
D03*
X215682Y14414D02*
D03*
X221587Y16855D02*
D03*
X603910Y14581D02*
D03*
Y19463D02*
D03*
Y24345D02*
D03*
Y29227D02*
D03*
Y34109D02*
D03*
Y38991D02*
D03*
Y43873D02*
D03*
Y48755D02*
D03*
Y53636D02*
D03*
Y58518D02*
D03*
Y63400D02*
D03*
Y68282D02*
D03*
Y73164D02*
D03*
Y78046D02*
D03*
Y82928D02*
D03*
Y87810D02*
D03*
Y92692D02*
D03*
Y97574D02*
D03*
Y102455D02*
D03*
Y107337D02*
D03*
X609816Y17022D02*
D03*
Y21904D02*
D03*
Y26786D02*
D03*
Y31668D02*
D03*
Y36550D02*
D03*
Y41432D02*
D03*
Y46314D02*
D03*
Y51196D02*
D03*
Y56077D02*
D03*
Y60959D02*
D03*
Y65841D02*
D03*
Y70723D02*
D03*
Y75605D02*
D03*
Y80487D02*
D03*
Y85369D02*
D03*
Y90251D02*
D03*
Y95133D02*
D03*
Y100014D02*
D03*
Y104896D02*
D03*
X603910Y112219D02*
D03*
Y117101D02*
D03*
Y121983D02*
D03*
Y126865D02*
D03*
Y131747D02*
D03*
Y136629D02*
D03*
Y141511D02*
D03*
Y146393D02*
D03*
Y151274D02*
D03*
Y156156D02*
D03*
Y161038D02*
D03*
Y165920D02*
D03*
Y170802D02*
D03*
Y175684D02*
D03*
X609816Y109778D02*
D03*
Y114660D02*
D03*
Y119542D02*
D03*
Y124424D02*
D03*
Y129306D02*
D03*
Y134188D02*
D03*
Y139070D02*
D03*
Y143951D02*
D03*
Y148833D02*
D03*
Y153715D02*
D03*
Y158597D02*
D03*
Y163479D02*
D03*
Y168361D02*
D03*
Y173243D02*
D03*
Y178125D02*
D03*
D13*
X62876Y16701D02*
D03*
X73377D02*
D03*
X116848Y188171D02*
D03*
X127348D02*
D03*
D14*
X71882Y79094D02*
D03*
Y76732D02*
D03*
Y81457D02*
D03*
Y86181D02*
D03*
Y83819D02*
D03*
Y97992D02*
D03*
Y95630D02*
D03*
Y88543D02*
D03*
Y93268D02*
D03*
Y90906D02*
D03*
Y102717D02*
D03*
Y100354D02*
D03*
Y105079D02*
D03*
Y112165D02*
D03*
Y107441D02*
D03*
Y121614D02*
D03*
Y126339D02*
D03*
Y123976D02*
D03*
Y114528D02*
D03*
Y119252D02*
D03*
Y116890D02*
D03*
Y135787D02*
D03*
Y140512D02*
D03*
Y138150D02*
D03*
Y128701D02*
D03*
Y133425D02*
D03*
Y131063D02*
D03*
Y149961D02*
D03*
Y154685D02*
D03*
Y152323D02*
D03*
Y142874D02*
D03*
Y147599D02*
D03*
Y145236D02*
D03*
Y164134D02*
D03*
Y168858D02*
D03*
Y166496D02*
D03*
Y157047D02*
D03*
Y161772D02*
D03*
Y159409D02*
D03*
Y178307D02*
D03*
Y180669D02*
D03*
Y171221D02*
D03*
Y175945D02*
D03*
Y173583D02*
D03*
X94126Y85000D02*
D03*
Y89724D02*
D03*
Y87362D02*
D03*
Y77913D02*
D03*
Y82638D02*
D03*
Y80276D02*
D03*
X71882Y109803D02*
D03*
X94126Y94449D02*
D03*
Y92087D02*
D03*
Y99173D02*
D03*
Y96811D02*
D03*
Y108622D02*
D03*
Y113347D02*
D03*
Y110984D02*
D03*
Y101535D02*
D03*
Y106260D02*
D03*
Y103898D02*
D03*
Y115709D02*
D03*
Y120433D02*
D03*
Y118071D02*
D03*
Y125157D02*
D03*
Y122795D02*
D03*
Y162953D02*
D03*
Y167677D02*
D03*
Y165315D02*
D03*
Y155866D02*
D03*
Y160591D02*
D03*
Y158228D02*
D03*
Y177126D02*
D03*
Y181850D02*
D03*
Y179488D02*
D03*
Y170039D02*
D03*
Y174764D02*
D03*
Y172402D02*
D03*
Y134606D02*
D03*
Y139331D02*
D03*
Y136969D02*
D03*
Y127520D02*
D03*
Y132244D02*
D03*
Y129882D02*
D03*
Y148780D02*
D03*
Y153504D02*
D03*
Y151142D02*
D03*
Y141693D02*
D03*
Y146417D02*
D03*
Y144055D02*
D03*
X140480Y14134D02*
D03*
Y11772D02*
D03*
Y16496D02*
D03*
Y21220D02*
D03*
Y18858D02*
D03*
Y33031D02*
D03*
Y30669D02*
D03*
Y23583D02*
D03*
Y28307D02*
D03*
Y25945D02*
D03*
Y37756D02*
D03*
Y35394D02*
D03*
Y40118D02*
D03*
Y47205D02*
D03*
Y42480D02*
D03*
Y56654D02*
D03*
Y61378D02*
D03*
Y59016D02*
D03*
Y49567D02*
D03*
Y54291D02*
D03*
Y51929D02*
D03*
Y70827D02*
D03*
Y75551D02*
D03*
Y73189D02*
D03*
Y63740D02*
D03*
Y68465D02*
D03*
Y66102D02*
D03*
Y85000D02*
D03*
Y89724D02*
D03*
Y87362D02*
D03*
Y77913D02*
D03*
Y82638D02*
D03*
Y80276D02*
D03*
Y99173D02*
D03*
Y103898D02*
D03*
Y101535D02*
D03*
Y92087D02*
D03*
Y96811D02*
D03*
Y94449D02*
D03*
Y113347D02*
D03*
Y115709D02*
D03*
Y106260D02*
D03*
Y110984D02*
D03*
Y108622D02*
D03*
X162724Y20039D02*
D03*
Y24764D02*
D03*
Y22402D02*
D03*
Y12953D02*
D03*
Y17677D02*
D03*
Y15315D02*
D03*
X140480Y44843D02*
D03*
X162724Y29488D02*
D03*
Y27126D02*
D03*
Y34213D02*
D03*
Y31850D02*
D03*
Y43661D02*
D03*
Y48386D02*
D03*
Y46024D02*
D03*
Y36575D02*
D03*
Y41299D02*
D03*
Y38937D02*
D03*
Y50748D02*
D03*
Y55472D02*
D03*
Y53110D02*
D03*
Y60197D02*
D03*
Y57835D02*
D03*
Y97992D02*
D03*
Y102717D02*
D03*
Y100354D02*
D03*
Y90906D02*
D03*
Y95630D02*
D03*
Y93268D02*
D03*
Y112165D02*
D03*
Y116890D02*
D03*
Y114528D02*
D03*
Y105079D02*
D03*
Y109803D02*
D03*
Y107441D02*
D03*
Y69646D02*
D03*
Y74370D02*
D03*
Y72008D02*
D03*
Y62559D02*
D03*
Y67283D02*
D03*
Y64921D02*
D03*
Y83819D02*
D03*
Y88543D02*
D03*
Y86181D02*
D03*
Y76732D02*
D03*
Y81457D02*
D03*
Y79094D02*
D03*
D17*
X138999Y150960D02*
X197877D01*
X131731Y158228D02*
X138999Y150960D01*
X139828Y152960D02*
X197877D01*
X132197Y160591D02*
X139828Y152960D01*
X140656Y154960D02*
X197877D01*
X132664Y162953D02*
X140656Y154960D01*
X141485Y156960D02*
X197877D01*
X133130Y165315D02*
X141485Y156960D01*
X162601Y116766D02*
X162724Y116890D01*
X148561Y116766D02*
X162601D01*
X147503Y115709D02*
X148561Y116766D01*
X149161Y114528D02*
X162724D01*
X147979Y113347D02*
X149161Y114528D01*
X162829Y116786D02*
X174175D01*
X127348Y188171D02*
X161567D01*
X124317Y110984D02*
X140480D01*
X121955Y113347D02*
X124317Y110984D01*
X94126Y113347D02*
X121955D01*
X123750Y108622D02*
X140480D01*
X121388Y110984D02*
X123750Y108622D01*
X94126Y110984D02*
X121388D01*
X120871Y108622D02*
X123233Y106260D01*
X94126Y108622D02*
X120871D01*
X122413Y103898D02*
X140480D01*
X120051Y106260D02*
X122413Y103898D01*
X94126Y106260D02*
X120051D01*
X122766Y115709D02*
X125128Y113347D01*
X94126Y115709D02*
X122766D01*
X123232Y118071D02*
X125594Y115709D01*
X94126Y118071D02*
X123232D01*
X125594Y115709D02*
X140480D01*
X125128Y113347D02*
X140480D01*
X73377Y16788D02*
X86971D01*
X95095Y8664D01*
X179348D01*
X140480Y115709D02*
X140688Y115917D01*
X162724Y114528D02*
X172279D01*
X175817Y110990D01*
X149665Y112165D02*
X170948D01*
X174899Y108214D01*
X162724Y109803D02*
X169580D01*
X173944Y105439D01*
X150597Y107441D02*
X168683D01*
X173460Y102663D01*
X162724Y105079D02*
X168075D01*
X173266Y99888D01*
X162724Y53110D02*
X172883D01*
X162724Y50748D02*
X173349D01*
X162724Y48386D02*
X173815D01*
X162724Y46024D02*
X174281D01*
X162724Y43661D02*
X174748D01*
X162724Y41299D02*
X175214D01*
X162724Y38937D02*
X175680D01*
X162724Y36575D02*
X176146D01*
X162724Y34213D02*
X176612D01*
X162724Y31850D02*
X177079D01*
X162724Y29488D02*
X177545D01*
X162724Y27126D02*
X178011D01*
X162724Y24764D02*
X178477D01*
X162724Y22402D02*
X178944D01*
X162724Y20039D02*
X179410D01*
X162724Y17677D02*
X179876D01*
X162724Y15315D02*
X180342D01*
X162724Y12953D02*
X180808D01*
X162724Y76732D02*
X168220D01*
X162724Y79094D02*
X167754D01*
X162724Y81457D02*
X167288D01*
X162724Y83819D02*
X166822D01*
X162724Y86181D02*
X166356D01*
X162724Y88543D02*
X165890D01*
X180808Y12953D02*
X193636Y25781D01*
X180342Y15315D02*
X192808Y27781D01*
X179876Y17677D02*
X191979Y29781D01*
X179410Y20039D02*
X191151Y31781D01*
X178944Y22402D02*
X190322Y33781D01*
X178477Y24764D02*
X189494Y35781D01*
X178011Y27126D02*
X188666Y37781D01*
X177545Y29488D02*
X187837Y39781D01*
X177079Y31850D02*
X187009Y41781D01*
X176612Y34213D02*
X186180Y43781D01*
X176146Y36575D02*
X185352Y45781D01*
X175680Y38937D02*
X184524Y47781D01*
X175214Y41299D02*
X183695Y49781D01*
X174748Y43661D02*
X182867Y51781D01*
X174281Y46024D02*
X182038Y53781D01*
X173815Y48386D02*
X181210Y55781D01*
X173349Y50748D02*
X180382Y57781D01*
X172883Y53110D02*
X179553Y59781D01*
X165890Y88543D02*
X174458Y97112D01*
X166356Y86181D02*
X174511Y94336D01*
X166822Y83819D02*
X170310Y87307D01*
X167288Y81457D02*
X171724Y85893D01*
X167754Y79094D02*
X173139Y84479D01*
X168220Y76732D02*
X172781Y81293D01*
X94126Y181850D02*
X136393D01*
X94126Y179488D02*
X135927D01*
X94126Y177126D02*
X135461D01*
X94126Y174764D02*
X134995D01*
X94126Y172402D02*
X134528D01*
X94126Y170039D02*
X134062D01*
X94126Y167677D02*
X133596D01*
X94126Y165315D02*
X133130D01*
X94126Y162953D02*
X132664D01*
X94126Y160591D02*
X132197D01*
X94126Y158228D02*
X131731D01*
X94126Y155866D02*
X131265D01*
X94126Y153504D02*
X130799D01*
X94126Y151142D02*
X130332D01*
X94126Y148780D02*
X129866D01*
X94126Y146417D02*
X129400D01*
X94126Y144055D02*
X128934D01*
X94126Y141693D02*
X128468D01*
X94126Y139331D02*
X128001D01*
X94126Y136969D02*
X127535D01*
X94126Y134606D02*
X127069D01*
X94126Y132244D02*
X126603D01*
X94126Y129882D02*
X126137D01*
X94126Y127520D02*
X125670D01*
X126137Y129882D02*
X129058Y126960D01*
X126603Y132244D02*
X129887Y128960D01*
X127069Y134606D02*
X130715Y130960D01*
X127535Y136969D02*
X131544Y132960D01*
X128001Y139331D02*
X132372Y134960D01*
X128468Y141693D02*
X133200Y136960D01*
X128934Y144055D02*
X134029Y138960D01*
X129400Y146417D02*
X134857Y140960D01*
X129866Y148780D02*
X135686Y142960D01*
X130332Y151142D02*
X136514Y144960D01*
X130799Y153504D02*
X137343Y146960D01*
X131265Y155866D02*
X138171Y148960D01*
X140480Y115709D02*
X147503D01*
X140480Y113347D02*
X147979D01*
X140480Y108622D02*
X148950D01*
X140480Y110984D02*
X148484D01*
X149665Y112165D01*
X148950Y108622D02*
X150131Y109803D01*
X162724D01*
X123233Y106260D02*
X149416D01*
X150597Y107441D01*
X151262Y105079D02*
X162724D01*
X140480Y103898D02*
X150081D01*
X151262Y105079D01*
X161567Y188171D02*
X176778Y172960D01*
X129058Y126960D02*
X197877D01*
X130715Y130960D02*
X197877D01*
X131544Y132960D02*
X197877D01*
X132372Y134960D02*
X197877D01*
X133200Y136960D02*
X197877D01*
X134029Y138960D02*
X197877D01*
X134857Y140960D02*
X197877D01*
X135686Y142960D02*
X197877D01*
X136514Y144960D02*
X197877D01*
X137343Y146960D02*
X197877D01*
X138171Y148960D02*
X197877D01*
X142313Y158960D02*
X197877D01*
X143141Y160960D02*
X197877D01*
X143970Y162960D02*
X197877D01*
X144798Y164960D02*
X197877D01*
X145627Y166960D02*
X197877D01*
X146455Y168960D02*
X197877D01*
X136393Y181850D02*
X147283Y170960D01*
X197877D01*
X135927Y179488D02*
X146455Y168960D01*
X135461Y177126D02*
X145627Y166960D01*
X134995Y174764D02*
X144798Y164960D01*
X134528Y172402D02*
X143970Y162960D01*
X134062Y170039D02*
X143141Y160960D01*
X133596Y167677D02*
X142313Y158960D01*
X129887Y128960D02*
X197877D01*
X94126Y122795D02*
X124738D01*
X126665Y120868D01*
X94126Y120433D02*
X124272D01*
X125837Y118868D01*
X125670Y127520D02*
X128322Y124868D01*
X125837Y118868D02*
X147834D01*
X147856Y118890D01*
X163553D01*
X163575Y118868D02*
X177247D01*
X126665Y120868D02*
X147006D01*
X147028Y120890D02*
X164381D01*
X164403Y120868D02*
X179792D01*
X146199Y122890D02*
X165210D01*
X128322Y124868D02*
X145349D01*
X145371Y124890D01*
X166038D01*
X166060Y124868D01*
X197877D01*
X162724Y69646D02*
X169558D01*
X162724Y67283D02*
X170025D01*
X162724Y64921D02*
X170491D01*
X162724Y62559D02*
X170957D01*
X162724Y60197D02*
X171423D01*
X162724Y57835D02*
X171889D01*
X162724Y55472D02*
X172356D01*
X172000Y66370D02*
X175411Y69781D01*
X171172Y68370D02*
X174933Y72132D01*
X170344Y70370D02*
X174881Y74907D01*
X169515Y72370D02*
X174828Y77683D01*
X162724Y72008D02*
X169092D01*
X162724Y74370D02*
X168687D01*
X174775Y80458D01*
X169092Y72008D02*
X169454Y72370D01*
X169515D01*
X169558Y69646D02*
X170283Y70370D01*
X170344D01*
X170025Y67283D02*
X171111Y68370D01*
X171172D01*
X170491Y64921D02*
X171940Y66370D01*
X172000D01*
X170957Y62559D02*
X172768Y64370D01*
X172829D01*
X171423Y60197D02*
X173597Y62370D01*
X171889Y57835D02*
X174425Y60370D01*
X172356Y55472D02*
X175253Y58370D01*
X165232Y122868D02*
X182335D01*
X94126Y125157D02*
X125204D01*
X127494Y122868D01*
X147006Y120868D02*
X147028Y120890D01*
X127494Y122868D02*
X146177D01*
X212647Y175516D02*
X215682D01*
X212647Y177957D02*
X221587D01*
X212647Y173075D02*
X221587D01*
X212647Y170635D02*
X215682D01*
X212647Y168194D02*
X221587D01*
X212647Y165753D02*
X215682D01*
X212647Y163312D02*
X221587D01*
X212647Y160871D02*
X215682D01*
X212647Y158430D02*
X221587D01*
X212647Y155989D02*
X215682D01*
X212647Y153548D02*
X221587D01*
X212647Y151107D02*
X215682D01*
X212647Y148666D02*
X221587D01*
X212647Y146225D02*
X215682D01*
X212647Y143784D02*
X221587D01*
X212647Y141343D02*
X215682D01*
X212647Y138902D02*
X221587D01*
X212647Y136461D02*
X215682D01*
X212647Y134020D02*
X221587D01*
X212647Y131579D02*
X215682D01*
X212647Y129139D02*
X221587D01*
X212647Y126698D02*
X215682D01*
X212647Y124257D02*
X221587D01*
X212647Y121816D02*
X215682D01*
X212647Y119375D02*
X221587D01*
X212647Y116934D02*
X215682D01*
X212647Y114493D02*
X221587D01*
X212647Y112052D02*
X215682D01*
X212647Y109611D02*
X221587D01*
X212647Y107170D02*
X215682D01*
X212647Y104729D02*
X221587D01*
X212647Y102288D02*
X215682D01*
X212647Y99847D02*
X221587D01*
X212647Y97406D02*
X215682D01*
X212647Y94965D02*
X221587D01*
X212647Y92524D02*
X215682D01*
X212647Y90083D02*
X221587D01*
X212647Y87642D02*
X215682D01*
X212647Y85202D02*
X221587D01*
X212647Y82761D02*
X215682D01*
X212647Y80320D02*
X221587D01*
X212647Y77879D02*
X215682D01*
X212647Y75438D02*
X221587D01*
X212647Y72997D02*
X215682D01*
X212647Y70556D02*
X221587D01*
X212647Y68115D02*
X215682D01*
X212647Y63233D02*
X215682D01*
X212647Y60792D02*
X221587D01*
X212647Y58351D02*
X215682D01*
X212647Y55910D02*
X221587D01*
X212647Y53469D02*
X215682D01*
X212647Y51028D02*
X221587D01*
X212647Y48587D02*
X215682D01*
X212647Y46146D02*
X221587D01*
X212647Y43705D02*
X215682D01*
X212647Y41265D02*
X221587D01*
X212647Y38824D02*
X215682D01*
X212647Y36383D02*
X221587D01*
X212647Y33942D02*
X215682D01*
X212647Y31501D02*
X221587D01*
X212647Y29060D02*
X215682D01*
X212647Y26619D02*
X221587D01*
X212647Y24178D02*
X215682D01*
X212647Y21737D02*
X221587D01*
X212647Y19296D02*
X215682D01*
X212647Y16855D02*
X221587D01*
X212647Y14414D02*
X215682D01*
X179348Y8664D02*
X192999Y22315D01*
X172829Y64370D02*
X176239Y67781D01*
X176900Y65674D02*
X221587D01*
X609816Y178125D02*
X612851D01*
X603910Y175684D02*
X612851D01*
X609816Y173243D02*
X612851D01*
X603910Y170802D02*
X612851D01*
X609816Y168361D02*
X612851D01*
X603910Y165920D02*
X612851D01*
X609816Y163479D02*
X612851D01*
X603910Y161038D02*
X612851D01*
X609816Y158597D02*
X612851D01*
X603910Y156156D02*
X612851D01*
X609816Y153715D02*
X612851D01*
X603910Y151274D02*
X612851D01*
X609816Y148833D02*
X612851D01*
X603910Y146393D02*
X612851D01*
X609816Y143951D02*
X612851D01*
X603910Y141511D02*
X612851D01*
X609816Y139070D02*
X612851D01*
X603910Y136629D02*
X612851D01*
X609816Y134188D02*
X612851D01*
X603910Y131747D02*
X612851D01*
X609816Y129306D02*
X612851D01*
X609816Y124424D02*
X612851D01*
X603910Y121983D02*
X612851D01*
X609816Y119542D02*
X612851D01*
X603910Y117101D02*
X612851D01*
X609816Y114660D02*
X612851D01*
X603910Y112219D02*
X612851D01*
X609816Y109778D02*
X612851D01*
X603910Y107337D02*
X612851D01*
X609816Y104896D02*
X612851D01*
X603910Y102455D02*
X612851D01*
X609816Y100014D02*
X612851D01*
X603910Y97574D02*
X612851D01*
X609816Y95133D02*
X612851D01*
X603910Y92692D02*
X612851D01*
X609816Y90251D02*
X612851D01*
X603910Y87810D02*
X612851D01*
X609816Y85369D02*
X612851D01*
X603910Y82928D02*
X612851D01*
X609816Y80487D02*
X612851D01*
X603910Y78046D02*
X612851D01*
X609816Y75605D02*
X612851D01*
X603910Y73164D02*
X612851D01*
X609816Y70723D02*
X612851D01*
X603910Y68282D02*
X612851D01*
X609816Y65841D02*
X612851D01*
X603910Y63400D02*
X612851D01*
X609816Y60959D02*
X612851D01*
X603910Y58518D02*
X612851D01*
X609816Y56077D02*
X612851D01*
X603910Y53637D02*
X612851D01*
X609816Y51196D02*
X612851D01*
X603910Y48755D02*
X612851D01*
X609816Y46314D02*
X612851D01*
X603910Y43873D02*
X612851D01*
X609816Y41432D02*
X612851D01*
X603910Y38991D02*
X612851D01*
X609816Y36550D02*
X612851D01*
X603910Y34109D02*
X612851D01*
X609816Y31668D02*
X612851D01*
X603910Y29227D02*
X612851D01*
X609816Y26786D02*
X612851D01*
X603910Y24345D02*
X612851D01*
X609816Y21904D02*
X612851D01*
X603910Y19463D02*
X612851D01*
X603910Y14581D02*
X612851D01*
X609816Y17022D02*
X612851D01*
X62236Y105079D02*
X71882D01*
X55150Y97992D02*
X62236Y105079D01*
X65780Y107441D02*
X71882D01*
X64599Y109803D02*
X71882D01*
X62236Y107441D02*
X64599Y109803D01*
X63417Y112165D02*
X71882D01*
X58693Y107441D02*
X63417Y112165D01*
X62236Y114528D02*
X71882D01*
X55150Y107441D02*
X62236Y114528D01*
X65780Y116890D02*
X71882D01*
X64599Y119252D02*
X71882D01*
X62236Y116890D02*
X64599Y119252D01*
X63417Y121614D02*
X71882D01*
X58693Y116890D02*
X63417Y121614D01*
X62236Y123976D02*
X71882D01*
X55150Y116890D02*
X62236Y123976D01*
X65780Y126339D02*
X71882D01*
X64599Y128701D02*
X71882D01*
X62236Y126339D02*
X64599Y128701D01*
X63417Y131063D02*
X71882D01*
X58693Y126339D02*
X63417Y131063D01*
X62236Y133425D02*
X71882D01*
X55150Y126339D02*
X62236Y133425D01*
X65780Y135787D02*
X71882D01*
X64599Y138150D02*
X71882D01*
X62236Y135787D02*
X64599Y138150D01*
X63417Y140512D02*
X71882D01*
X58693Y135787D02*
X63417Y140512D01*
X62236Y142874D02*
X71882D01*
X55150Y135787D02*
X62236Y142874D01*
X65780Y145236D02*
X71882D01*
X64599Y147599D02*
X71882D01*
X62236Y145236D02*
X64599Y147599D01*
X63417Y149961D02*
X71882D01*
X58693Y145236D02*
X63417Y149961D01*
X62236Y152323D02*
X71882D01*
X55150Y145236D02*
X62236Y152323D01*
X65780Y154685D02*
X71882D01*
X64599Y157047D02*
X71882D01*
X62236Y154685D02*
X64599Y157047D01*
X63417Y159409D02*
X71882D01*
X58693Y154685D02*
X63417Y159409D01*
X62236Y161772D02*
X71882D01*
X55150Y154685D02*
X62236Y161772D01*
X65780Y164134D02*
X71882D01*
X64599Y166496D02*
X71882D01*
X62236Y164134D02*
X64599Y166496D01*
X63417Y168858D02*
X71882D01*
X58693Y164134D02*
X63417Y168858D01*
X62236Y171221D02*
X71882D01*
X55150Y164134D02*
X62236Y171221D01*
X55150Y173583D02*
X62236Y180669D01*
X71882D01*
X58693Y173583D02*
X63417Y178307D01*
X71882D01*
X62236Y173583D02*
X64599Y175945D01*
X71882D01*
X65780Y173583D02*
X71882D01*
X123748Y77913D02*
X130835Y85000D01*
X140480D01*
X127291Y77913D02*
X132016Y82638D01*
X140480D01*
X130835Y77913D02*
X133197Y80276D01*
X140480D01*
X134378Y77913D02*
X140480D01*
X123748Y68465D02*
X130835Y75551D01*
X140480D01*
X127291Y68465D02*
X132016Y73189D01*
X140480D01*
X130835Y68465D02*
X133197Y70827D01*
X140480D01*
X134378Y68465D02*
X140480D01*
X123748Y59016D02*
X130835Y66102D01*
X140480D01*
X127291Y59016D02*
X132016Y63740D01*
X140480D01*
X130835Y59016D02*
X133197Y61378D01*
X140480D01*
X134378Y59016D02*
X140480D01*
X123748Y49567D02*
X130835Y56654D01*
X140480D01*
X127291Y49567D02*
X132016Y54291D01*
X140480D01*
X130835Y49567D02*
X133197Y51929D01*
X140480D01*
X134378Y49567D02*
X140480D01*
X123748Y40118D02*
X130835Y47205D01*
X140480D01*
X127291Y40118D02*
X132016Y44843D01*
X140480D01*
X130835Y40118D02*
X133197Y42480D01*
X140480D01*
X134378Y40118D02*
X140480D01*
X123748Y30669D02*
X130835Y37756D01*
X140480D01*
X127291Y30669D02*
X132016Y35394D01*
X140480D01*
X130835Y30669D02*
X133197Y33031D01*
X140480D01*
X134378Y30669D02*
X140480D01*
X123748Y21220D02*
X130835Y28307D01*
X140480D01*
X127291Y21220D02*
X132016Y25945D01*
X140480D01*
X130835Y21220D02*
X133197Y23583D01*
X140480D01*
X134378Y21220D02*
X140480D01*
X123748Y11772D02*
X130835Y18858D01*
X140480D01*
X127291Y11772D02*
X132016Y16496D01*
X140480D01*
X130835Y11772D02*
X133197Y14134D01*
X140480D01*
X134378Y11772D02*
X140480D01*
X134378Y87362D02*
X140480D01*
X50712Y14337D02*
X51933Y15558D01*
X62829D01*
X104718Y185860D02*
X105938Y187081D01*
X116834D01*
X603910Y126865D02*
X612851D01*
D18*
X176778Y172960D02*
X200003D01*
X205000Y177957D01*
X212647D01*
X197877Y170960D02*
X200837D01*
X205394Y175516D01*
X212647D01*
X197877Y168960D02*
X201751D01*
X205866Y173075D01*
X212647D01*
X197877Y166960D02*
X202507D01*
X206181Y170635D01*
X212647D01*
X197877Y164960D02*
X202869D01*
X206103Y168194D01*
X212647D01*
X197877Y162960D02*
X203783D01*
X206575Y165753D01*
X212647D01*
X197877Y160960D02*
X204280D01*
X206632Y163312D01*
X212647D01*
X197877Y158960D02*
X205391D01*
X207302Y160871D01*
X212647D01*
X197877Y156960D02*
X206260D01*
X207730Y158430D01*
X212647D01*
X197877Y154960D02*
X206847D01*
X207875Y155989D01*
X212647D01*
X197877Y152960D02*
X207392D01*
X207980Y153548D01*
X212647D01*
X197877Y150960D02*
X212500D01*
X197877Y148960D02*
X210518D01*
X210812Y148666D01*
X212647D01*
X197877Y146960D02*
X210618D01*
X211353Y146225D01*
X212647D01*
X197877Y144960D02*
X209992D01*
X211168Y143784D01*
X212647D01*
X197877Y142960D02*
X209729D01*
X211346Y141343D01*
X212647D01*
X197877Y140960D02*
X208335D01*
X210392Y138902D01*
X212647D01*
X197877Y138960D02*
X207466D01*
X209964Y136461D01*
X212647D01*
X197877Y136960D02*
X206031D01*
X208971Y134020D01*
X212647D01*
X197877Y134960D02*
X204637D01*
X208017Y131579D01*
X212647D01*
X197877Y132960D02*
X203889D01*
X207710Y129139D01*
X212647D01*
X197877Y130960D02*
X202252D01*
X206515Y126698D01*
X212647D01*
X197877Y128960D02*
X201161D01*
X205865Y124257D01*
X212647D01*
X197877Y126960D02*
X199504D01*
X204648Y121816D01*
X212647D01*
X197877Y124868D02*
X203370Y119375D01*
X212647D01*
X182335Y122868D02*
X196279D01*
X202213Y116934D01*
X212647D01*
X179792Y120868D02*
X195129D01*
X201504Y114493D01*
X212647D01*
X177247Y118868D02*
X194266D01*
X201082Y112052D01*
X212647D01*
X174175Y116786D02*
X193413D01*
X200588Y109611D01*
X212647D01*
X175817Y110990D02*
X196345D01*
X200165Y107170D01*
X212647D01*
X174899Y108214D02*
X196544D01*
X200029Y104729D01*
X212647D01*
X173944Y105439D02*
X196169D01*
X199320Y102288D01*
X212647D01*
X173460Y102663D02*
X196225D01*
X199041Y99847D01*
X212647D01*
X173266Y99888D02*
X195994D01*
X198475Y97406D01*
X212647D01*
X174458Y97112D02*
X196407D01*
X198554Y94965D01*
X212647D01*
X174511Y94336D02*
X196247D01*
X198059Y92524D01*
X212647D01*
X210590Y14414D02*
X212647D01*
X192999Y22315D02*
X202689D01*
X210590Y14414D01*
X193636Y25781D02*
X201590D01*
X210516Y16855D01*
X212647D01*
X192808Y27781D02*
X202064D01*
X210549Y19296D01*
X212647D01*
X191979Y29781D02*
X202323D01*
X210367Y21737D01*
X212647D01*
X191151Y31781D02*
X202474D01*
X210077Y24178D01*
X212647D01*
X190322Y33781D02*
X203056D01*
X210218Y26619D01*
X212647D01*
X189494Y35781D02*
X203422D01*
X210143Y29060D01*
X212647D01*
X188666Y37781D02*
X204058D01*
X210338Y31501D01*
X212647D01*
X187837Y39781D02*
X204532D01*
X210371Y33942D01*
X212647D01*
X187009Y41781D02*
X205006D01*
X210404Y36383D01*
X212647D01*
X186180Y43781D02*
X205211D01*
X210168Y38824D01*
X212647D01*
X185352Y45781D02*
X205685D01*
X210201Y41265D01*
X212647D01*
X184524Y47781D02*
X206321D01*
X210396Y43705D01*
X212647D01*
X183695Y49781D02*
X206741D01*
X210375Y46146D01*
X212647D01*
X182867Y51781D02*
X207591D01*
X210785Y48587D01*
X212647D01*
X182038Y53781D02*
X208012D01*
X210764Y51028D01*
X212647D01*
X181210Y55781D02*
X208593D01*
X210905Y53469D01*
X212647D01*
X180382Y57781D02*
X209061D01*
X210931Y55910D01*
X212647D01*
X179553Y59781D02*
X209570D01*
X211000Y58351D01*
X212647D01*
X175253Y58370D02*
X178152Y61268D01*
X212171D01*
X212647Y60792D01*
X176574Y68115D02*
X212647D01*
X176239Y67781D02*
X176574Y68115D01*
X175411Y69781D02*
X176186Y70556D01*
X212647D01*
X174933Y72132D02*
X175799Y72997D01*
X212647D01*
X174881Y74907D02*
X175411Y75438D01*
X212647D01*
X174828Y77683D02*
X175024Y77879D01*
X212647D01*
X174775Y80458D02*
X212508D01*
X212647Y80320D01*
X172781Y81293D02*
X174249Y82761D01*
X212647D01*
X173139Y84479D02*
X173861Y85202D01*
X212647D01*
X173474Y87642D02*
X212647D01*
X171724Y85893D02*
X173474Y87642D01*
X170310Y87307D02*
X173086Y90083D01*
X212647D01*
X173597Y62370D02*
X176900Y65674D01*
X174425Y60370D02*
X177288Y63233D01*
X212647D01*
D19*
X646562Y379582D02*
Y373584D01*
X649561D01*
X650561Y374583D01*
Y375583D01*
X649561Y376583D01*
X646562D01*
X649561D01*
X650561Y377582D01*
Y378582D01*
X649561Y379582D01*
X646562D01*
X653560Y373584D02*
X655559D01*
X656559Y374583D01*
Y376583D01*
X655559Y377582D01*
X653560D01*
X652560Y376583D01*
Y374583D01*
X653560Y373584D01*
X659558Y378582D02*
Y377582D01*
X658558D01*
X660558D01*
X659558D01*
Y374583D01*
X660558Y373584D01*
X664556Y378582D02*
Y377582D01*
X663557D01*
X665556D01*
X664556D01*
Y374583D01*
X665556Y373584D01*
X669555D02*
X671554D01*
X672554Y374583D01*
Y376583D01*
X671554Y377582D01*
X669555D01*
X668555Y376583D01*
Y374583D01*
X669555Y373584D01*
X674553D02*
Y377582D01*
X675553D01*
X676552Y376583D01*
Y373584D01*
Y376583D01*
X677552Y377582D01*
X678552Y376583D01*
Y373584D01*
X686549Y379582D02*
Y373584D01*
X690548D01*
X693547Y377582D02*
X695546D01*
X696546Y376583D01*
Y373584D01*
X693547D01*
X692547Y374583D01*
X693547Y375583D01*
X696546D01*
X698545Y377582D02*
Y374583D01*
X699545Y373584D01*
X702544D01*
Y372584D01*
X701544Y371584D01*
X700545D01*
X702544Y373584D02*
Y377582D01*
X707543Y373584D02*
X705543D01*
X704543Y374583D01*
Y376583D01*
X705543Y377582D01*
X707543D01*
X708542Y376583D01*
Y375583D01*
X704543D01*
X710541Y377582D02*
Y373584D01*
Y375583D01*
X711541Y376583D01*
X712541Y377582D01*
X713541D01*
D22*
X711656Y59080D02*
D03*
Y137820D02*
D03*
D23*
X651728Y11902D02*
D03*
Y185100D02*
D03*
X198428Y185100D02*
D03*
X198428Y11902D02*
D03*
X11811Y185100D02*
D03*
Y11902D02*
D03*
D24*
X649211Y90576D02*
D03*
X683677Y71094D02*
D03*
Y78829D02*
D03*
X684227Y118071D02*
D03*
Y125806D02*
D03*
X674561Y71094D02*
D03*
X675111Y125806D02*
D03*
X656534Y90576D02*
D03*
X689991Y90676D02*
D03*
Y106393D02*
D03*
D25*
X55150Y97992D02*
D03*
X65780Y107441D02*
D03*
X62236D02*
D03*
X58693D02*
D03*
X55150D02*
D03*
X65780Y116890D02*
D03*
X62236D02*
D03*
X58693D02*
D03*
X55150D02*
D03*
X65780Y126339D02*
D03*
X62236D02*
D03*
X58693D02*
D03*
X55150D02*
D03*
X65780Y135787D02*
D03*
X62236D02*
D03*
X58693D02*
D03*
X55150D02*
D03*
X65780Y145236D02*
D03*
X62236D02*
D03*
X58693D02*
D03*
X55150D02*
D03*
X65780Y154685D02*
D03*
X62236D02*
D03*
X58693D02*
D03*
X55150D02*
D03*
X65780Y164134D02*
D03*
X62236D02*
D03*
X58693D02*
D03*
X55150D02*
D03*
X55150Y173583D02*
D03*
X58693D02*
D03*
X62236D02*
D03*
X65780D02*
D03*
X123748Y77913D02*
D03*
X127291D02*
D03*
X130835D02*
D03*
X134378D02*
D03*
X123748Y68465D02*
D03*
X127291D02*
D03*
X130835D02*
D03*
X134378D02*
D03*
X123748Y59016D02*
D03*
X127291D02*
D03*
X130835D02*
D03*
X134378D02*
D03*
X123748Y49567D02*
D03*
X127291D02*
D03*
X130835D02*
D03*
X134378D02*
D03*
X123748Y40118D02*
D03*
X127291D02*
D03*
X130835D02*
D03*
X134378D02*
D03*
X123748Y30669D02*
D03*
X127291D02*
D03*
X130835D02*
D03*
X134378D02*
D03*
X123748Y21220D02*
D03*
X127291D02*
D03*
X130835D02*
D03*
X134378D02*
D03*
X123748Y11772D02*
D03*
X127291D02*
D03*
X130835D02*
D03*
X134378D02*
D03*
Y87362D02*
D03*
X50712Y14337D02*
D03*
X104718Y185860D02*
D03*
X50624Y19280D02*
D03*
X104630Y190804D02*
D03*
X32906Y174764D02*
D03*
X36449D02*
D03*
X39992D02*
D03*
X43536D02*
D03*
X32906Y165315D02*
D03*
X36449D02*
D03*
X39992D02*
D03*
X43536D02*
D03*
X32906Y155866D02*
D03*
X36449D02*
D03*
X39992D02*
D03*
X43536D02*
D03*
X32906Y146417D02*
D03*
X36449D02*
D03*
X39992D02*
D03*
X43536D02*
D03*
X32906Y136969D02*
D03*
X36449D02*
D03*
X39992D02*
D03*
X43536D02*
D03*
X32906Y127520D02*
D03*
X36449D02*
D03*
X39992D02*
D03*
X43536D02*
D03*
X32906Y118071D02*
D03*
X36449D02*
D03*
X39992D02*
D03*
X43536D02*
D03*
X32906Y108622D02*
D03*
X36449D02*
D03*
X39992D02*
D03*
X43536D02*
D03*
X32906Y99173D02*
D03*
X112134Y12953D02*
D03*
X108591D02*
D03*
X105047D02*
D03*
X101504D02*
D03*
X112134Y22402D02*
D03*
X108591D02*
D03*
X105047D02*
D03*
X101504D02*
D03*
X112134Y31850D02*
D03*
X108591D02*
D03*
X105047D02*
D03*
X101504D02*
D03*
X112134Y41299D02*
D03*
X108591D02*
D03*
X105047D02*
D03*
X101504D02*
D03*
X112134Y50748D02*
D03*
X108591D02*
D03*
X105047D02*
D03*
X101504D02*
D03*
X112134Y60197D02*
D03*
X108591D02*
D03*
X105047D02*
D03*
X101504D02*
D03*
X112134Y69646D02*
D03*
X108591D02*
D03*
X105047D02*
D03*
X101504D02*
D03*
X112134Y79094D02*
D03*
X108591D02*
D03*
X105047D02*
D03*
X101504D02*
D03*
X112134Y88543D02*
D03*
D33*
X679498Y81066D02*
D03*
D34*
X679974Y115966D02*
D03*
M02*
