G04 Layer_Physical_Order=2*
G04 Layer_Color=36540*
%FSLAX25Y25*%
%MOIN*%
G70*
G01*
G75*
%ADD10R,0.07000X0.07000*%
%ADD17C,0.00600*%
%ADD18C,0.00601*%
%ADD19C,0.01000*%
%ADD24C,0.05000*%
%ADD25C,0.02000*%
%ADD26C,0.01200*%
%ADD27R,0.35424X0.17254*%
G36*
X622507Y182474D02*
X623235Y182179D01*
X623259Y182211D01*
X625487Y180162D01*
X629723Y175839D01*
X633731Y171302D01*
X637499Y166565D01*
X641017Y161639D01*
X644276Y156539D01*
X647267Y151276D01*
X649982Y145866D01*
X652415Y140323D01*
X654557Y134662D01*
X656404Y128898D01*
X657951Y123046D01*
X659194Y117122D01*
X660128Y111142D01*
X660753Y105121D01*
X661066Y99076D01*
X661066Y93023D01*
X660753Y86978D01*
X660128Y80957D01*
X659194Y74977D01*
X657951Y69053D01*
X656404Y63201D01*
X654557Y57436D01*
X652415Y51775D01*
X649982Y46232D01*
X647267Y40822D01*
X644276Y35560D01*
X641017Y30459D01*
X637499Y25534D01*
X633731Y20796D01*
X629723Y16260D01*
X625487Y11937D01*
X623259Y9888D01*
X623235Y9920D01*
X623235D01*
X622507Y9625D01*
X620963Y9330D01*
X619391Y9341D01*
X617852Y9660D01*
X616404Y10272D01*
X615103Y11155D01*
X614000Y12275D01*
X613137Y13589D01*
X612842Y14317D01*
X612842Y177781D01*
X612842Y177781D01*
Y177781D01*
X613137Y178510D01*
X614000Y179823D01*
X615103Y180943D01*
X616404Y181826D01*
X617852Y182439D01*
X619391Y182757D01*
X620963Y182769D01*
X622507Y182474D01*
D02*
G37*
%LPC*%
G36*
X656534Y93703D02*
X655725Y93596D01*
X654971Y93284D01*
X654323Y92787D01*
X653826Y92139D01*
X653514Y91385D01*
X653407Y90576D01*
X653514Y89767D01*
X653826Y89013D01*
X654323Y88365D01*
X654971Y87868D01*
X655725Y87556D01*
X656534Y87449D01*
X657343Y87556D01*
X658098Y87868D01*
X658745Y88365D01*
X659242Y89013D01*
X659554Y89767D01*
X659661Y90576D01*
X659554Y91385D01*
X659242Y92139D01*
X658745Y92787D01*
X658098Y93284D01*
X657343Y93596D01*
X656534Y93703D01*
D02*
G37*
G36*
X649211D02*
X648402Y93596D01*
X647648Y93284D01*
X647000Y92787D01*
X646503Y92139D01*
X646191Y91385D01*
X646085Y90576D01*
X646191Y89767D01*
X646503Y89013D01*
X647000Y88365D01*
X647648Y87868D01*
X648402Y87556D01*
X649211Y87449D01*
X650021Y87556D01*
X650775Y87868D01*
X651422Y88365D01*
X651919Y89013D01*
X652232Y89767D01*
X652338Y90576D01*
X652232Y91385D01*
X651919Y92139D01*
X651422Y92787D01*
X650775Y93284D01*
X650021Y93596D01*
X649211Y93703D01*
D02*
G37*
%LPD*%
D10*
X689991Y90676D02*
D03*
Y106393D02*
D03*
D17*
X71882Y157047D02*
X143890D01*
X150188Y150750D01*
X171159Y56495D02*
X195838D01*
X161869Y47205D02*
X171159Y56495D01*
X192340Y23711D02*
X195838D01*
X177292Y8664D02*
X192340Y23711D01*
X189650Y27809D02*
X195838D01*
X175974Y14134D02*
X189650Y27809D01*
X160337Y76985D02*
X195838D01*
X154178Y70827D02*
X160337Y76985D01*
X190955Y25760D02*
X195838D01*
X176967Y11772D02*
X190955Y25760D01*
X188505Y29858D02*
X195838D01*
X175143Y16496D02*
X188505Y29858D01*
X186813Y31907D02*
X195838D01*
X173764Y18858D02*
X186813Y31907D01*
X159211Y79034D02*
X195838D01*
X153366Y73189D02*
X159211Y79034D01*
X154912Y68465D02*
X161384Y74936D01*
X195838D01*
X156259Y83132D02*
X195838D01*
X151040Y77913D02*
X156259Y83132D01*
X154870Y85181D02*
X195838D01*
X149964Y80276D02*
X154870Y85181D01*
X153480Y87230D02*
X195838D01*
X148888Y82638D02*
X153480Y87230D01*
X152054Y89279D02*
X195838D01*
X147774Y85000D02*
X152054Y89279D01*
X150368Y91328D02*
X195838D01*
X146402Y87362D02*
X150368Y91328D01*
X179624Y44201D02*
X195838D01*
X180475Y42152D02*
X195838D01*
X181694Y40103D02*
X195838D01*
X183104Y38054D02*
X195838D01*
X184090Y36005D02*
X195838D01*
X185210Y33956D02*
X195838D01*
X172474Y21220D02*
X185210Y33956D01*
X171668Y23583D02*
X184090Y36005D01*
X170995Y25945D02*
X183104Y38054D01*
X169898Y28307D02*
X181694Y40103D01*
X168992Y30669D02*
X180475Y42152D01*
X168454Y33032D02*
X179624Y44201D01*
X167216Y35394D02*
X178073Y46250D01*
X165878Y37756D02*
X176422Y48299D01*
X164841Y40118D02*
X175071Y50348D01*
X163603Y42480D02*
X173520Y52397D01*
X162717Y44843D02*
X172321Y54446D01*
X161090Y49567D02*
X170067Y58544D01*
X160504Y51929D02*
X169168Y60593D01*
X158090Y59016D02*
X165815Y66740D01*
X158728Y56654D02*
X166766Y64691D01*
X159228Y54291D02*
X167579Y62642D01*
X157452Y61378D02*
X164864Y68789D01*
X156815Y63740D02*
X163913Y70838D01*
X156325Y66102D02*
X163110Y72887D01*
X152006Y75551D02*
X157538Y81083D01*
X178073Y46250D02*
X195838D01*
X176422Y48299D02*
X195838D01*
X175071Y50348D02*
X195838D01*
X173520Y52397D02*
X195838D01*
X172321Y54446D02*
X195838D01*
X170067Y58544D02*
X195838D01*
X169168Y60593D02*
X195838D01*
X167579Y62642D02*
X195838D01*
X166766Y64691D02*
X195838D01*
X165815Y66740D02*
X195838D01*
X164864Y68789D02*
X195838D01*
X163913Y70838D02*
X195838D01*
X163110Y72887D02*
X195838D01*
X157538Y81083D02*
X195838D01*
X212638Y94976D02*
X215673D01*
X212638Y92535D02*
X221578D01*
X212638Y90094D02*
X215673D01*
X212638Y87653D02*
X221578D01*
X212638Y85212D02*
X215673D01*
X212638Y82771D02*
X221578D01*
X212638Y77889D02*
X221578D01*
X212638Y75449D02*
X215673D01*
X212638Y73008D02*
X221578D01*
X212638Y70567D02*
X215673D01*
X212638Y68126D02*
X221578D01*
X212638Y65685D02*
X215673D01*
X212638Y63244D02*
X221578D01*
X212638Y60803D02*
X215673D01*
X212638Y58362D02*
X221578D01*
X212638Y55921D02*
X215673D01*
X212638Y53480D02*
X221578D01*
X212638Y51039D02*
X215673D01*
X212638Y48598D02*
X221578D01*
X212638Y46157D02*
X215673D01*
X212638Y43716D02*
X221578D01*
X212638Y41275D02*
X215673D01*
X212638Y38834D02*
X221578D01*
X212638Y36393D02*
X215673D01*
X212638Y33952D02*
X221578D01*
X212638Y31512D02*
X215673D01*
X212638Y29070D02*
X221578D01*
X212638Y26630D02*
X215673D01*
X212638Y24189D02*
X221578D01*
X212638Y21748D02*
X215673D01*
X212638Y19307D02*
X221578D01*
X212638Y16866D02*
X215673D01*
X212638Y14425D02*
X221578D01*
X212638Y80330D02*
X215673D01*
X127514Y113347D02*
X140480D01*
X126333Y114528D02*
X127514Y113347D01*
X126892Y110984D02*
X140480D01*
X125711Y112165D02*
X126892Y110984D01*
X126017Y108622D02*
X168706D01*
X124836Y109803D02*
X126017Y108622D01*
X125004Y106260D02*
X166361D01*
X123823Y107441D02*
X125004Y106260D01*
X123303Y103898D02*
X163945D01*
X122122Y105079D02*
X123303Y103898D01*
X127370Y116890D02*
X128551Y115709D01*
X140480D01*
X140688Y115917D01*
X163776Y171240D02*
X195838D01*
X154346Y180669D02*
X163776Y171240D01*
X162643Y169191D02*
X195838D01*
X153526Y178307D02*
X162643Y169191D01*
X152409Y175945D02*
X161212Y167142D01*
X151218Y173583D02*
X159708Y165093D01*
X149561Y171221D02*
X157738Y163044D01*
X148462Y168858D02*
X156326Y160995D01*
X147699Y166496D02*
X155249Y158946D01*
X146321Y164134D02*
X153558Y156897D01*
X145469Y161772D02*
X152393Y154848D01*
X144576Y159409D02*
X151187Y152799D01*
X143000Y154685D02*
X148984Y148701D01*
X141983Y152323D02*
X147655Y146652D01*
X141185Y149961D02*
X146543Y144603D01*
X140647Y147599D02*
X145692Y142554D01*
X139872Y145236D02*
X144603Y140505D01*
X139057Y142874D02*
X143476Y138456D01*
X138349Y140512D02*
X142455Y136407D01*
X137418Y138150D02*
X141210Y134358D01*
X136352Y135787D02*
X139831Y132309D01*
X135779Y133425D02*
X138945Y130260D01*
X134904Y131063D02*
X137757Y128210D01*
X133805Y128701D02*
X136345Y126162D01*
X132807Y126339D02*
X135033Y124112D01*
X130454Y121614D02*
X132053Y120015D01*
X128703Y119252D02*
X129990Y117965D01*
X172638Y165093D02*
X195838Y165093D01*
X107183Y188250D02*
X161487D01*
X176449Y173289D01*
X195838D01*
X177195Y113765D02*
X195872D01*
X174906Y110990D02*
X195872D01*
X169958Y102663D02*
X186166D01*
X163945Y103898D02*
X167955Y99888D01*
X166361Y106260D02*
X169958Y102663D01*
X168706Y108622D02*
X171889Y105439D01*
X186166D01*
X140480Y110984D02*
X170933D01*
X173703Y108214D01*
X195107D01*
X140480Y113347D02*
X172549D01*
X174906Y110990D01*
X140688Y115917D02*
X175044D01*
X177195Y113765D01*
X129990Y117965D02*
X178149D01*
X179574Y116541D01*
X195872D01*
X181914Y119317D02*
X195872D01*
X181216Y120015D02*
X181914Y119317D01*
X132053Y120015D02*
X181216D01*
X133437Y122092D02*
X195872D01*
X131552Y123976D02*
X133437Y122092D01*
X135033Y124112D02*
X195838D01*
X136345Y126162D02*
X195838D01*
X137757Y128210D02*
X195838D01*
X138945Y130260D02*
X195838D01*
X139831Y132309D02*
X195838D01*
X141210Y134358D02*
X195838D01*
X142455Y136407D02*
X195838D01*
X143476Y138456D02*
X195838D01*
X144603Y140505D02*
X195838D01*
X145692Y142554D02*
X195838D01*
X146543Y144603D02*
X195838D01*
X147655Y146652D02*
X195838D01*
X148984Y148701D02*
X195838D01*
X150188Y150750D02*
X195838D01*
X151187Y152799D02*
X195838D01*
X152393Y154848D02*
X195838D01*
X153558Y156897D02*
X195838D01*
X155249Y158946D02*
X195838D01*
X177638Y160995D02*
X195838Y160995D01*
X157738Y163044D02*
X195838D01*
X212638Y175527D02*
X221578D01*
X212638Y177968D02*
X215673D01*
X212638Y173086D02*
X215673D01*
X212638Y170645D02*
X221578D01*
X212638Y168204D02*
X215673D01*
X212638Y165763D02*
X221578D01*
X212638Y163322D02*
X215673D01*
X212638Y160881D02*
X221578D01*
X212638Y158441D02*
X215673D01*
X212638Y156000D02*
X221578D01*
X212638Y153559D02*
X215673D01*
X212638Y151118D02*
X221578D01*
X212638Y148677D02*
X215673D01*
X212638Y146236D02*
X221578D01*
X212638Y143795D02*
X215673D01*
X212638Y141354D02*
X221578D01*
X212638Y138913D02*
X215673D01*
X212638Y136472D02*
X221578D01*
X212638Y134031D02*
X215673D01*
X212638Y131590D02*
X221578D01*
X212638Y129149D02*
X215673D01*
X212638Y126708D02*
X221578D01*
X212638Y124267D02*
X215673D01*
X212638Y121826D02*
X221578D01*
X212638Y119386D02*
X215673D01*
X212638Y116945D02*
X221578D01*
X212638Y114504D02*
X215673D01*
X212638Y112063D02*
X221578D01*
X212638Y109622D02*
X215673D01*
X212638Y107181D02*
X221578D01*
X212638Y104740D02*
X215673D01*
X212638Y102299D02*
X221578D01*
X212638Y99858D02*
X215673D01*
X212638Y97417D02*
X221578D01*
X161212Y167142D02*
X195838D01*
X159708Y165093D02*
X172638D01*
X195838D01*
X156326Y160995D02*
X177638D01*
X195838D01*
X167955Y99888D02*
X186166D01*
X135640Y14134D02*
X138002Y11772D01*
X137229Y15709D02*
X138804Y14134D01*
X139420Y17284D02*
X140207Y16496D01*
X50624Y19280D02*
X53177Y16727D01*
X104630Y190804D02*
X107183Y188250D01*
X121040Y14134D02*
X135640D01*
X119859Y12953D02*
X121040Y14134D01*
X112134Y12953D02*
X119859D01*
X120866Y18858D02*
X143484D01*
X119685Y20039D02*
X120866Y18858D01*
X108591Y20039D02*
X119685D01*
X117630Y17284D02*
X139420D01*
X138804Y14134D02*
X143484D01*
X117630Y15709D02*
X137229D01*
X138002Y11772D02*
X143484D01*
X101504Y12953D02*
X108591Y20039D01*
Y12953D02*
X110953Y15315D01*
X117236D01*
X105047Y12953D02*
X109772Y17677D01*
X117236D01*
X117630Y17284D01*
X117236Y15315D02*
X117630Y15709D01*
X121040Y23583D02*
X135640D01*
X119859Y22402D02*
X121040Y23583D01*
X112134Y22402D02*
X119859D01*
X120866Y28307D02*
X143484D01*
X119685Y29488D02*
X120866Y28307D01*
X108591Y29488D02*
X119685D01*
X117630Y26732D02*
X139420D01*
X138804Y23583D02*
X143484D01*
X137229Y25157D02*
X138804Y23583D01*
X117630Y25157D02*
X137229D01*
X138002Y21220D02*
X143484D01*
X135640Y23583D02*
X138002Y21220D01*
X101504Y22402D02*
X108591Y29488D01*
Y22402D02*
X110953Y24764D01*
X117236D01*
X105047Y22402D02*
X109772Y27126D01*
X117236D01*
X117630Y26732D01*
X117236Y24764D02*
X117630Y25157D01*
X121040Y33031D02*
X135640D01*
X119859Y31850D02*
X121040Y33031D01*
X112134Y31850D02*
X119859D01*
X120866Y37756D02*
X143484D01*
X119685Y38937D02*
X120866Y37756D01*
X108591Y38937D02*
X119685D01*
X140172Y35429D02*
X143484D01*
X139420Y36181D02*
X140172Y35429D01*
X117630Y36181D02*
X139420D01*
X138804Y33031D02*
X143484D01*
X137229Y34606D02*
X138804Y33031D01*
X117630Y34606D02*
X137229D01*
X138002Y30669D02*
X143484D01*
X135640Y33031D02*
X138002Y30669D01*
X101504Y31850D02*
X108591Y38937D01*
Y31850D02*
X110953Y34213D01*
X117236D01*
X105047Y31850D02*
X109772Y36575D01*
X117236D01*
X117630Y36181D01*
X117236Y34213D02*
X117630Y34606D01*
X121040Y42480D02*
X135640D01*
X119859Y41299D02*
X121040Y42480D01*
X112134Y41299D02*
X119859D01*
X120866Y47205D02*
X143484D01*
X119685Y48386D02*
X120866Y47205D01*
X108591Y48386D02*
X119685D01*
X140172Y44878D02*
X143484D01*
X139420Y45630D02*
X140172Y44878D01*
X117630Y45630D02*
X139420D01*
X138804Y42480D02*
X143484D01*
X137229Y44055D02*
X138804Y42480D01*
X117630Y44055D02*
X137229D01*
X138002Y40118D02*
X143484D01*
X135640Y42480D02*
X138002Y40118D01*
X101504Y41299D02*
X108591Y48386D01*
Y41299D02*
X110953Y43661D01*
X117236D01*
X105047Y41299D02*
X109772Y46024D01*
X117236D01*
X117630Y45630D01*
X117236Y43661D02*
X117630Y44055D01*
X121040Y51929D02*
X135640D01*
X119859Y50748D02*
X121040Y51929D01*
X112134Y50748D02*
X119859D01*
X120866Y56654D02*
X143484D01*
X119685Y57835D02*
X120866Y56654D01*
X108591Y57835D02*
X119685D01*
X140172Y54326D02*
X143484D01*
X139420Y55079D02*
X140172Y54326D01*
X117630Y55079D02*
X139420D01*
X137229Y53504D02*
X138804Y51929D01*
X117630Y53504D02*
X137229D01*
X138002Y49567D02*
X143484D01*
X135640Y51929D02*
X138002Y49567D01*
X101504Y50748D02*
X108591Y57835D01*
Y50748D02*
X110953Y53110D01*
X117236D01*
X105047Y50748D02*
X109772Y55472D01*
X117236D01*
X117630Y55079D01*
X117236Y53110D02*
X117630Y53504D01*
X121040Y61378D02*
X135640D01*
X119859Y60197D02*
X121040Y61378D01*
X112134Y60197D02*
X119859D01*
X120866Y66102D02*
X143484D01*
X119685Y67283D02*
X120866Y66102D01*
X108591Y67283D02*
X119685D01*
X140172Y63775D02*
X143484D01*
X139420Y64528D02*
X140172Y63775D01*
X117630Y64528D02*
X139420D01*
X138804Y61378D02*
X143484D01*
X137229Y62953D02*
X138804Y61378D01*
X117630Y62953D02*
X137229D01*
X135640Y61378D02*
X138002Y59016D01*
X101504Y60197D02*
X108591Y67283D01*
Y60197D02*
X110953Y62559D01*
X117236D01*
X105047Y60197D02*
X109772Y64921D01*
X117236D01*
X117630Y64528D01*
X117236Y62559D02*
X117630Y62953D01*
X121040Y70827D02*
X135640D01*
X119859Y69646D02*
X121040Y70827D01*
X112134Y69646D02*
X119859D01*
X120866Y75551D02*
X143484D01*
X119685Y76732D02*
X120866Y75551D01*
X108591Y76732D02*
X119685D01*
X140172Y73224D02*
X143484D01*
X139420Y73976D02*
X140172Y73224D01*
X117630Y73976D02*
X139420D01*
X138804Y70827D02*
X143484D01*
X137229Y72402D02*
X138804Y70827D01*
X117630Y72402D02*
X137229D01*
X138002Y68465D02*
X143484D01*
X135640Y70827D02*
X138002Y68465D01*
X101504Y69646D02*
X108591Y76732D01*
Y69646D02*
X110953Y72008D01*
X117236D01*
X105047Y69646D02*
X109772Y74370D01*
X117236D01*
X117630Y73976D01*
X117236Y72008D02*
X117630Y72402D01*
X121040Y80276D02*
X135640D01*
X119859Y79094D02*
X121040Y80276D01*
X112134Y79094D02*
X119859D01*
X120866Y85000D02*
X143484D01*
X119685Y86181D02*
X120866Y85000D01*
X108591Y86181D02*
X119685D01*
X140172Y82673D02*
X143484D01*
X139420Y83425D02*
X140172Y82673D01*
X117630Y83425D02*
X139420D01*
X138804Y80276D02*
X143484D01*
X137229Y81850D02*
X138804Y80276D01*
X117630Y81850D02*
X137229D01*
X138002Y77913D02*
X143484D01*
X135640Y80276D02*
X138002Y77913D01*
X101504Y79094D02*
X108591Y86181D01*
Y79094D02*
X110953Y81457D01*
X117236D01*
X105047Y79094D02*
X109772Y83819D01*
X117236D01*
X117630Y83425D01*
X117236Y81457D02*
X117630Y81850D01*
X121040Y89724D02*
X135640D01*
X119859Y88543D02*
X121040Y89724D01*
X112134Y88543D02*
X119859D01*
X135640Y89724D02*
X138002Y87362D01*
X52442Y109803D02*
X67042D01*
X51261Y108622D02*
X52442Y109803D01*
X43536Y108622D02*
X51261D01*
X52268Y114528D02*
X74886D01*
X51086Y115709D02*
X52268Y114528D01*
X39992Y115709D02*
X51086D01*
X71574Y112200D02*
X74886D01*
X70821Y112953D02*
X71574Y112200D01*
X49032Y112953D02*
X70821D01*
X70206Y109803D02*
X74886D01*
X68631Y111378D02*
X70206Y109803D01*
X49032Y111378D02*
X68631D01*
X69404Y107441D02*
X74886D01*
X67042Y109803D02*
X69404Y107441D01*
X32906Y108622D02*
X39992Y115709D01*
Y108622D02*
X42354Y110984D01*
X48638D01*
X36449Y108622D02*
X41173Y113347D01*
X48638D01*
X49032Y112953D01*
X48638Y110984D02*
X49032Y111378D01*
X52442Y119252D02*
X67042D01*
X51261Y118071D02*
X52442Y119252D01*
X43536Y118071D02*
X51261D01*
X52267Y123976D02*
X74886D01*
X51086Y125157D02*
X52267Y123976D01*
X39992Y125157D02*
X51086D01*
X71574Y121649D02*
X74886D01*
X70821Y122402D02*
X71574Y121649D01*
X49032Y122402D02*
X70821D01*
X70206Y119252D02*
X74886D01*
X68631Y120827D02*
X70206Y119252D01*
X49031Y120827D02*
X68631D01*
X69404Y116890D02*
X74886D01*
X67042Y119252D02*
X69404Y116890D01*
X32906Y118071D02*
X39992Y125157D01*
Y118071D02*
X42354Y120433D01*
X48638D01*
X36449Y118071D02*
X41173Y122795D01*
X48638D01*
X49032Y122402D01*
X48638Y120433D02*
X49031Y120827D01*
X52442Y128701D02*
X67042D01*
X51261Y127520D02*
X52442Y128701D01*
X43536Y127520D02*
X51261D01*
X52267Y133425D02*
X74886D01*
X51086Y134606D02*
X52267Y133425D01*
X39992Y134606D02*
X51086D01*
X71574Y131098D02*
X74886D01*
X70821Y131850D02*
X71574Y131098D01*
X49031Y131850D02*
X70821D01*
X70206Y128701D02*
X74886D01*
X68631Y130276D02*
X70206Y128701D01*
X49031Y130276D02*
X68631D01*
X67042Y128701D02*
X69404Y126339D01*
X32906Y127520D02*
X39992Y134606D01*
Y127520D02*
X42354Y129882D01*
X48638D01*
X36449Y127520D02*
X41173Y132244D01*
X48638D01*
X49031Y131850D01*
X48638Y129882D02*
X49031Y130276D01*
X52442Y138150D02*
X67042D01*
X51261Y136969D02*
X52442Y138150D01*
X43536Y136969D02*
X51261D01*
X52267Y142874D02*
X74886D01*
X51086Y144055D02*
X52267Y142874D01*
X39992Y144055D02*
X51086D01*
X71574Y140547D02*
X74886D01*
X70821Y141299D02*
X71574Y140547D01*
X49032Y141299D02*
X70821D01*
X68631Y139725D02*
X70206Y138150D01*
X49031Y139725D02*
X68631D01*
X69404Y135787D02*
X74886D01*
X67042Y138150D02*
X69404Y135787D01*
X32906Y136969D02*
X39992Y144055D01*
Y136969D02*
X42354Y139331D01*
X48638D01*
X36449Y136969D02*
X41173Y141693D01*
X48638D01*
X49032Y141299D01*
X48638Y139331D02*
X49031Y139725D01*
X52442Y147599D02*
X67042D01*
X51261Y146417D02*
X52442Y147599D01*
X43536Y146417D02*
X51261D01*
X51086Y153504D02*
X52268Y152323D01*
X39992Y153504D02*
X51086D01*
X71574Y149996D02*
X74886D01*
X70821Y150748D02*
X71574Y149996D01*
X49032Y150748D02*
X70821D01*
X68631Y149173D02*
X70206Y147599D01*
X49032Y149173D02*
X68631D01*
X69404Y145236D02*
X74886D01*
X67042Y147599D02*
X69404Y145236D01*
X32906Y146417D02*
X39992Y153504D01*
Y146417D02*
X42354Y148780D01*
X48638D01*
X36449Y146417D02*
X41173Y151142D01*
X48638D01*
X49032Y150748D01*
X48638Y148780D02*
X49032Y149173D01*
X52442Y157047D02*
X67042D01*
X51261Y155866D02*
X52442Y157047D01*
X43536Y155866D02*
X51261D01*
X52268Y161772D02*
X74886D01*
X51086Y162953D02*
X52268Y161772D01*
X39992Y162953D02*
X51086D01*
X71574Y159444D02*
X74886D01*
X70821Y160197D02*
X71574Y159444D01*
X49032Y160197D02*
X70821D01*
X70206Y157047D02*
X74886D01*
X68631Y158622D02*
X70206Y157047D01*
X49032Y158622D02*
X68631D01*
X69404Y154685D02*
X74886D01*
X67042Y157047D02*
X69404Y154685D01*
X32906Y155866D02*
X39992Y162953D01*
Y155866D02*
X42354Y158228D01*
X48638D01*
X36449Y155866D02*
X41173Y160591D01*
X48638D01*
X49032Y160197D01*
X48638Y158228D02*
X49032Y158622D01*
X52442Y166496D02*
X67042D01*
X51261Y165315D02*
X52442Y166496D01*
X43536Y165315D02*
X51261D01*
X52267Y171221D02*
X74886D01*
X51086Y172402D02*
X52267Y171221D01*
X39992Y172402D02*
X51086D01*
X71574Y168893D02*
X74886D01*
X70821Y169646D02*
X71574Y168893D01*
X49032Y169646D02*
X70821D01*
X70206Y166496D02*
X147699D01*
X68631Y168071D02*
X70206Y166496D01*
X49031Y168071D02*
X68631D01*
X69404Y164134D02*
X74886D01*
X67042Y166496D02*
X69404Y164134D01*
X32906Y165315D02*
X39992Y172402D01*
Y165315D02*
X42354Y167677D01*
X48638D01*
X36449Y165315D02*
X41173Y170039D01*
X48638D01*
X49032Y169646D01*
X48638Y167677D02*
X49031Y168071D01*
X52442Y175945D02*
X67042D01*
X51261Y174764D02*
X52442Y175945D01*
X43536Y174764D02*
X51261D01*
X51086Y181850D02*
X52267Y180669D01*
X39992Y181850D02*
X51086D01*
X71574Y178342D02*
X74886D01*
X70821Y179095D02*
X71574Y178342D01*
X49032Y179095D02*
X70821D01*
X68631Y177520D02*
X70206Y175945D01*
X49031Y177520D02*
X68631D01*
X69404Y173583D02*
X74886D01*
X67042Y175945D02*
X69404Y173583D01*
X32906Y174764D02*
X39992Y181850D01*
Y174764D02*
X42354Y177126D01*
X48638D01*
X36449Y174764D02*
X41173Y179488D01*
X48638D01*
X49032Y179095D01*
X48638Y177126D02*
X49031Y177520D01*
X52267Y105079D02*
X74886D01*
X51086Y106260D02*
X52267Y105079D01*
X39992Y106260D02*
X51086D01*
X32906Y99173D02*
X39992Y106260D01*
X139420Y26732D02*
X140172Y25980D01*
X71882Y105079D02*
X118236D01*
X71882Y107441D02*
X118236D01*
X71882Y109803D02*
X118236D01*
X71882Y112165D02*
X118236D01*
X71882Y114528D02*
X118236D01*
X71882Y116890D02*
X127370D01*
X71882Y119252D02*
X128703D01*
X71882Y121614D02*
X130454D01*
X71882Y123976D02*
X131552D01*
X69404Y126339D02*
X132807D01*
X71882Y128701D02*
X133805D01*
X71882Y131063D02*
X134904D01*
X71882Y133425D02*
X135779D01*
X71882Y135787D02*
X136352D01*
X70206Y138150D02*
X137418D01*
X71882Y140512D02*
X138349D01*
X71882Y142874D02*
X139057D01*
X71882Y145236D02*
X139872D01*
X70206Y147599D02*
X140647D01*
X71882Y149961D02*
X141185D01*
X52268Y152323D02*
X141983D01*
X71882Y154685D02*
X143000D01*
X71882Y159409D02*
X144576D01*
X71882Y161772D02*
X145469D01*
X71882Y164134D02*
X146321D01*
X71882Y168858D02*
X148462D01*
X71882Y171221D02*
X149561D01*
X71882Y173583D02*
X151218D01*
X70206Y175945D02*
X152409D01*
X71882Y178307D02*
X153526D01*
X52267Y180669D02*
X154346D01*
X53177Y16727D02*
X87118D01*
X95182Y8664D01*
X177292D01*
X140480Y14134D02*
X175975D01*
X138002Y87362D02*
X146375D01*
X140480Y85000D02*
X147826D01*
X140480Y82638D02*
X148886D01*
X140480Y80276D02*
X149916D01*
X140480Y77913D02*
X151034D01*
X140480Y75551D02*
X151993D01*
X140480Y73189D02*
X153383D01*
X140480Y70827D02*
X154179D01*
X140480Y68465D02*
X154913D01*
X140480Y66102D02*
X156303D01*
X140480Y63740D02*
X156770D01*
X140480Y61378D02*
X157442D01*
X138002Y59016D02*
X158094D01*
X140480Y56654D02*
X158705D01*
X140480Y54291D02*
X159213D01*
X138804Y51929D02*
X160501D01*
X140480Y49567D02*
X161091D01*
X140480Y47205D02*
X161846D01*
X140480Y44843D02*
X162723D01*
X140480Y42480D02*
X163600D01*
X140480Y40118D02*
X164826D01*
X140480Y37756D02*
X165847D01*
X140480Y35394D02*
X167196D01*
X140480Y33032D02*
X168422D01*
X140480Y30669D02*
X168972D01*
X140480Y28307D02*
X169890D01*
X140480Y25945D02*
X170993D01*
X140480Y23583D02*
X171665D01*
X140480Y21220D02*
X172461D01*
X140480Y18858D02*
X173707D01*
X140207Y16496D02*
X175159D01*
X140480Y11772D02*
X176975D01*
X118236Y105079D02*
X122128D01*
X118236Y107441D02*
X123826D01*
X118236Y109803D02*
X124846D01*
X118236Y112165D02*
X125703D01*
X118236Y114528D02*
X126324D01*
D18*
X195838Y23711D02*
X200447D01*
X209733Y14425D01*
X212638D01*
X195838Y25760D02*
X200690D01*
X209584Y16866D01*
X212638D01*
X210299Y19307D02*
X212638D01*
X201797Y27809D02*
X210299Y19307D01*
X195838Y27809D02*
X201797D01*
X195838Y29858D02*
X202148D01*
X210259Y21748D01*
X212638D01*
X210085Y24189D02*
X212638D01*
X202366Y31907D02*
X210085Y24189D01*
X195838Y31907D02*
X202366D01*
X195838Y33956D02*
X203029D01*
X210355Y26630D01*
X212638D01*
X210537Y29070D02*
X212638D01*
X203602Y36005D02*
X210537Y29070D01*
X195838Y36005D02*
X203602D01*
X195838Y38054D02*
X203820D01*
X210363Y31512D01*
X212638D01*
X210722Y33952D02*
X212638D01*
X204572Y40103D02*
X210722Y33952D01*
X195838Y40103D02*
X204572D01*
X195838Y42152D02*
X204390D01*
X210148Y36393D01*
X212638D01*
X210152Y38834D02*
X212638D01*
X204785Y44201D02*
X210152Y38834D01*
X195838Y44201D02*
X204785D01*
X195838Y46250D02*
X205003D01*
X209978Y41275D01*
X212638D01*
X209849Y43716D02*
X212638D01*
X205266Y48299D02*
X209849Y43716D01*
X195838Y48299D02*
X205266D01*
X195838Y50348D02*
X205573D01*
X209764Y46157D01*
X212638D01*
X209767Y48598D02*
X212638D01*
X205968Y52397D02*
X209767Y48598D01*
X195838Y52397D02*
X205968D01*
X195838Y54446D02*
X206053D01*
X209460Y51039D01*
X212638D01*
X209331Y53480D02*
X212638D01*
X206315Y56495D02*
X209331Y53480D01*
X195838Y56495D02*
X206315D01*
X195838Y58544D02*
X206444D01*
X209068Y55921D01*
X212638D01*
X209205Y58362D02*
X212638D01*
X206974Y60593D02*
X209205Y58362D01*
X195838Y60593D02*
X206974D01*
X195838Y62642D02*
X207458D01*
X209298Y60803D01*
X212638D01*
X209924Y63244D02*
X212638D01*
X208476Y64691D02*
X209924Y63244D01*
X195838Y64691D02*
X208476D01*
X195838Y66740D02*
X208338D01*
X209394Y65685D01*
X212638D01*
X208909Y68126D02*
X212638D01*
X208245Y68789D02*
X208909Y68126D01*
X195838Y68789D02*
X208245D01*
X195838Y70838D02*
X208063D01*
X208335Y70567D01*
X212638D01*
X210625Y73008D02*
X212638D01*
X210505Y72887D02*
X210625Y73008D01*
X195838Y72887D02*
X210505D01*
X212177Y75449D02*
X212638D01*
X211665Y74936D02*
X212177Y75449D01*
X195838Y74936D02*
X211665D01*
X195838Y76985D02*
X209714D01*
X210618Y77889D01*
X212638D01*
X210303Y80330D02*
X212638D01*
X209007Y79034D02*
X210303Y80330D01*
X195838Y79034D02*
X209007D01*
X195838Y81083D02*
X206299D01*
X207987Y82771D01*
X212638D01*
X207761Y85212D02*
X212638D01*
X205681Y83132D02*
X207761Y85212D01*
X195838Y83132D02*
X205681D01*
X195838Y85181D02*
X205241D01*
X207713Y87653D01*
X212638D01*
X207087Y90094D02*
X212638D01*
X204223Y87230D02*
X207087Y90094D01*
X195838Y87230D02*
X204223D01*
X195838Y89279D02*
X202049D01*
X205305Y92535D01*
X212638D01*
X204146Y94976D02*
X212638D01*
X200498Y91328D02*
X204146Y94976D01*
X195838Y91328D02*
X200498D01*
X195838Y173289D02*
X201339D01*
X206019Y177968D01*
X212638D01*
X206298Y175527D02*
X212638D01*
X202011Y171240D02*
X206298Y175527D01*
X195838Y171240D02*
X202011D01*
X195838Y169191D02*
X202682D01*
X206577Y173086D01*
X212638D01*
X203497Y167142D02*
X207000Y170645D01*
X212638D01*
X195838Y167142D02*
X203497D01*
X195838Y165093D02*
X203953D01*
X207065Y168204D01*
X212638D01*
X195838Y163044D02*
X204696D01*
X207416Y165763D01*
X212638D01*
X195838Y160995D02*
X205088D01*
X207416Y163322D01*
X212638D01*
X195838Y158946D02*
X205777D01*
X207713Y160881D01*
X212638D01*
X195838Y156897D02*
X206732D01*
X208275Y158441D01*
X212638D01*
X195838Y154848D02*
X207023D01*
X208175Y156000D01*
X212638D01*
X195838Y152799D02*
X207838D01*
X208598Y153559D01*
X212638D01*
X195838Y150750D02*
X208509D01*
X208877Y151118D01*
X212638D01*
X195838Y148701D02*
X212614D01*
X212638Y148677D01*
X195838Y146652D02*
X210801D01*
X211217Y146236D01*
X212638D01*
X195838Y144603D02*
X208483D01*
X209291Y143795D01*
X212638D01*
X195838Y142554D02*
X207812D01*
X209011Y141354D01*
X212638D01*
X195838Y140505D02*
X206639D01*
X208231Y138913D01*
X212638D01*
X195838Y138456D02*
X205395D01*
X207379Y136472D01*
X212638D01*
X195838Y136407D02*
X204366D01*
X206742Y134031D01*
X212638D01*
X195838Y134358D02*
X203623D01*
X206391Y131590D01*
X212638D01*
X195838Y132309D02*
X202308D01*
X205467Y129149D01*
X212638D01*
X195838Y130260D02*
X201422D01*
X204973Y126708D01*
X212638D01*
X195838Y128210D02*
X200607D01*
X204550Y124267D01*
X212638D01*
X195838Y126162D02*
X199220D01*
X203555Y121826D01*
X212638D01*
X195838Y124112D02*
X198191D01*
X202918Y119386D01*
X212638D01*
X195872Y122092D02*
X197061D01*
X202209Y116945D01*
X212638D01*
X195872Y119317D02*
X196615D01*
X201428Y114504D01*
X212638D01*
X195872Y116541D02*
X196313D01*
X200791Y112063D01*
X212638D01*
X195872Y113765D02*
X196010D01*
X200154Y109622D01*
X212638D01*
X195872Y110990D02*
X195922D01*
X199731Y107181D01*
X212638D01*
X190381Y97417D02*
X212638D01*
X193238Y99858D02*
X212638D01*
X195521Y102299D02*
X212638D01*
X198581Y104740D02*
X212638D01*
X195107Y108214D02*
X198581Y104740D01*
X186166Y105439D02*
X192382D01*
X195521Y102299D01*
X186166Y102663D02*
X190432D01*
X193238Y99858D01*
X187911Y99888D02*
X190381Y97417D01*
X186166Y99888D02*
X187911D01*
D19*
X644849Y470022D02*
Y476020D01*
X646848Y474021D01*
X648847Y476020D01*
Y470022D01*
X650847D02*
X652846D01*
X651847D01*
Y474021D01*
X650847D01*
X659844Y476020D02*
Y470022D01*
X656845D01*
X655845Y471022D01*
Y473021D01*
X656845Y474021D01*
X659844D01*
X667841Y476020D02*
Y470022D01*
X671840D01*
X674839Y474021D02*
X676838D01*
X677838Y473021D01*
Y470022D01*
X674839D01*
X673839Y471022D01*
X674839Y472021D01*
X677838D01*
X679837Y474021D02*
Y471022D01*
X680837Y470022D01*
X683836D01*
Y469022D01*
X682836Y468023D01*
X681837D01*
X683836Y470022D02*
Y474021D01*
X688834Y470022D02*
X686835D01*
X685836Y471022D01*
Y473021D01*
X686835Y474021D01*
X688834D01*
X689834Y473021D01*
Y472021D01*
X685836D01*
X691834Y474021D02*
Y470022D01*
Y472021D01*
X692833Y473021D01*
X693833Y474021D01*
X694833D01*
X703830Y470022D02*
X705829D01*
X704829D01*
Y476020D01*
X703830Y475020D01*
D24*
X684227Y118071D02*
D03*
Y125806D02*
D03*
X675111D02*
D03*
X689991Y90676D02*
D03*
Y106393D02*
D03*
D25*
X50624Y19280D02*
D03*
X104630Y190804D02*
D03*
X32906Y174764D02*
D03*
X36449D02*
D03*
X39992D02*
D03*
X43536D02*
D03*
X32906Y165315D02*
D03*
X36449D02*
D03*
X39992D02*
D03*
X43536D02*
D03*
X32906Y155866D02*
D03*
X36449D02*
D03*
X39992D02*
D03*
X43536D02*
D03*
X32906Y146417D02*
D03*
X36449D02*
D03*
X39992D02*
D03*
X43536D02*
D03*
X32906Y136969D02*
D03*
X36449D02*
D03*
X39992D02*
D03*
X43536D02*
D03*
X32906Y127520D02*
D03*
X36449D02*
D03*
X39992D02*
D03*
X43536D02*
D03*
X32906Y118071D02*
D03*
X36449D02*
D03*
X39992D02*
D03*
X43536D02*
D03*
X32906Y108622D02*
D03*
X36449D02*
D03*
X39992D02*
D03*
X43536D02*
D03*
X32906Y99173D02*
D03*
X112134Y12953D02*
D03*
X108591D02*
D03*
X105047D02*
D03*
X101504D02*
D03*
X112134Y22402D02*
D03*
X108591D02*
D03*
X105047D02*
D03*
X101504D02*
D03*
X112134Y31850D02*
D03*
X108591D02*
D03*
X105047D02*
D03*
X101504D02*
D03*
X112134Y41299D02*
D03*
X108591D02*
D03*
X105047D02*
D03*
X101504D02*
D03*
X112134Y50748D02*
D03*
X108591D02*
D03*
X105047D02*
D03*
X101504D02*
D03*
X112134Y60197D02*
D03*
X108591D02*
D03*
X105047D02*
D03*
X101504D02*
D03*
X112134Y69646D02*
D03*
X108591D02*
D03*
X105047D02*
D03*
X101504D02*
D03*
X112134Y79094D02*
D03*
X108591D02*
D03*
X105047D02*
D03*
X101504D02*
D03*
X112134Y88543D02*
D03*
D26*
X215638Y177781D02*
X612842D01*
X215638Y14317D02*
X612842D01*
X215638Y16757D02*
X612842D01*
X215638Y19197D02*
X612842D01*
X215638Y21637D02*
X612842D01*
X215638Y24076D02*
X612842D01*
X215638Y26516D02*
X612842D01*
X215638Y28956D02*
X612842D01*
X215638Y31396D02*
X612842D01*
X215638Y33836D02*
X612842D01*
X215638Y36275D02*
X612842D01*
X215638Y38715D02*
X612842D01*
X215638Y41155D02*
X612842D01*
X215638Y43595D02*
X612842D01*
X215638Y46034D02*
X612842D01*
X215638Y48474D02*
X612842D01*
X215638Y50914D02*
X612842D01*
X215638Y53354D02*
X612842D01*
X215638Y55793D02*
X612842D01*
X215638Y58233D02*
X612842D01*
X215638Y60673D02*
X612842D01*
X215638Y63113D02*
X612842D01*
X215638Y65552D02*
X612842D01*
X215638Y67992D02*
X612842D01*
X215638Y70432D02*
X612842D01*
X215638Y72872D02*
X612842D01*
X215638Y75311D02*
X612842D01*
X215638Y77751D02*
X612842D01*
X215638Y80191D02*
X612842D01*
X215638Y82631D02*
X612842D01*
X215638Y85070D02*
X612842D01*
X215638Y87510D02*
X612842D01*
X215638Y89950D02*
X612842D01*
X215638Y92390D02*
X612842D01*
X215638Y94829D02*
X612842D01*
X215638Y97269D02*
X612842D01*
X215638Y99709D02*
X612842D01*
X215638Y102149D02*
X612842D01*
X215638Y104588D02*
X612842D01*
X215638Y107028D02*
X612842D01*
X215638Y109468D02*
X612842D01*
X215638Y111908D02*
X612842D01*
X215638Y114348D02*
X612842D01*
X215638Y116787D02*
X612842D01*
X215638Y119227D02*
X612842D01*
X215638Y121667D02*
X612842D01*
X215638Y124107D02*
X612842D01*
X215638Y126546D02*
X612842D01*
X215638Y128986D02*
X612842D01*
X215638Y131426D02*
X612842D01*
X215638Y133866D02*
X612842D01*
X215638Y136305D02*
X612842D01*
X215638Y138745D02*
X612842D01*
X215638Y141185D02*
X612842D01*
X215638Y143625D02*
X612842D01*
X215638Y146064D02*
X612842D01*
X215638Y148504D02*
X612842D01*
X215638Y150944D02*
X612842D01*
X215638Y153384D02*
X612842D01*
X215638Y155824D02*
X612842D01*
X215638Y158263D02*
X612842D01*
X215638Y160703D02*
X612842D01*
X215638Y163143D02*
X612842D01*
X215638Y165583D02*
X612842D01*
X215638Y168022D02*
X612842D01*
X215638Y170462D02*
X612842D01*
X215638Y172902D02*
X612842D01*
X215638Y175341D02*
X612842D01*
D27*
X673188Y122534D02*
D03*
M02*
