M48
;Layer_Color=9474304
;FILE_FORMAT=2:5
INCH,TZ
;TYPE=PLATED
T1F00S00C0.01000
T2F00S00C0.03000
T3F00S00C0.10000
T4F00S00C0.15400
%
T01
X123748Y11772
X127291
X130835
X134378
X134378Y21220
X130835
X127291
X123748
Y30669
X127291
X130835
X134378
Y40118
X130835
X127291
X123748
Y49567
X127291
X130835
X134378
X134378Y59016
X130835
X127291
X123748
Y68465
X127291
X130835
X134378
X134378Y77913
X130835
X127291
X123748
X134378Y87362
X112134Y88543
Y79094
X108591
X105047
X101504
X101504Y69646
X105047
X108591
X112134
X112134Y60197
X108591
X105047
X101504
X101504Y50748
X105047
X108591
X112134
X112134Y41299
X108591
X105047
X101504
X101504Y31850
X105047
X108591
X112134
X112134Y22402
X108591
X105047
X101504
X101504Y12953
X105047
X108591
X112134
X50712Y14337
X50624Y19280
X55150Y97992
X55150Y107441
X58693
X62236
X65780
Y116890
X62236
X58693
X55150
Y126339
X58693
X62236
X65780
Y135787
X62236
X58693
X55150
X55150Y145236
X58693
X62236
X65780
X43536Y146417
X39992
X36449
X32906
X32906Y136969
X36449
X39992
X43536
X43536Y127520
X39992
X36449
X32906
X32906Y118071
X36449
X39992
X43536
X43536Y108622
X39992
X36449
X32906
X32906Y99173
X32906Y155866
X36449
X39992
X43536
X43536Y165315
X39992
X36449
X32906
Y174764
X36449
X39992
X43536
X55150Y173583
X58693
X62236
X65780
X65780Y164134
X62236
X58693
X55150
X55150Y154685
X58693
X62236
X65780
X104718Y185860
X104630Y190804
T02
X649211Y90576
X656534
X689991Y90676
Y106393
X684227Y118071
Y125806
X675111
X674561Y71094
X683677
Y78829
T03
X651728Y11902
X198428
X11811Y11902
Y185100
X198428Y185100
X651728Y185100
T04
X711656Y59080
Y137820
M30
