G04 Layer_Physical_Order=5*
G04 Layer_Color=16440176*
%FSLAX25Y25*%
%MOIN*%
G70*
G01*
G75*
%ADD10R,0.07000X0.07000*%
%ADD17C,0.00600*%
%ADD18C,0.00601*%
%ADD19C,0.01000*%
%ADD24C,0.05000*%
%ADD25C,0.02000*%
%ADD26C,0.01200*%
%ADD32R,0.35625X0.17254*%
G36*
X622507Y182474D02*
X623235Y182179D01*
X623259Y182211D01*
X625487Y180162D01*
X629723Y175839D01*
X633731Y171302D01*
X637499Y166565D01*
X641017Y161639D01*
X644276Y156539D01*
X647267Y151276D01*
X649982Y145866D01*
X652415Y140323D01*
X654557Y134662D01*
X656404Y128898D01*
X657951Y123046D01*
X659194Y117122D01*
X660128Y111142D01*
X660753Y105121D01*
X661066Y99076D01*
X661066Y93023D01*
X660753Y86978D01*
X660128Y80957D01*
X659194Y74977D01*
X657951Y69053D01*
X656404Y63201D01*
X654557Y57436D01*
X652415Y51775D01*
X649982Y46232D01*
X647267Y40822D01*
X644276Y35560D01*
X641017Y30459D01*
X637499Y25534D01*
X633731Y20796D01*
X629723Y16260D01*
X625487Y11937D01*
X623259Y9888D01*
X623235Y9920D01*
X623235D01*
X622507Y9625D01*
X620963Y9330D01*
X619391Y9341D01*
X617852Y9660D01*
X616404Y10272D01*
X615103Y11155D01*
X614000Y12275D01*
X613137Y13589D01*
X612842Y14317D01*
X612842Y177781D01*
X612842Y177781D01*
Y177781D01*
X613137Y178510D01*
X614000Y179823D01*
X615103Y180943D01*
X616404Y181826D01*
X617852Y182439D01*
X619391Y182757D01*
X620963Y182769D01*
X622507Y182474D01*
D02*
G37*
%LPC*%
G36*
X656534Y93703D02*
X655725Y93596D01*
X654971Y93284D01*
X654323Y92787D01*
X653826Y92139D01*
X653514Y91385D01*
X653407Y90576D01*
X653514Y89767D01*
X653826Y89013D01*
X654323Y88365D01*
X654971Y87868D01*
X655725Y87556D01*
X656534Y87449D01*
X657343Y87556D01*
X658098Y87868D01*
X658745Y88365D01*
X659242Y89013D01*
X659554Y89767D01*
X659661Y90576D01*
X659554Y91385D01*
X659242Y92139D01*
X658745Y92787D01*
X658098Y93284D01*
X657343Y93596D01*
X656534Y93703D01*
D02*
G37*
G36*
X649211D02*
X648402Y93596D01*
X647648Y93284D01*
X647000Y92787D01*
X646503Y92139D01*
X646191Y91385D01*
X646085Y90576D01*
X646191Y89767D01*
X646503Y89013D01*
X647000Y88365D01*
X647648Y87868D01*
X648402Y87556D01*
X649211Y87449D01*
X650021Y87556D01*
X650775Y87868D01*
X651422Y88365D01*
X651919Y89013D01*
X652232Y89767D01*
X652338Y90576D01*
X652232Y91385D01*
X651919Y92139D01*
X651422Y92787D01*
X650775Y93284D01*
X650021Y93596D01*
X649211Y93703D01*
D02*
G37*
%LPD*%
D10*
X689991Y106393D02*
D03*
Y90676D02*
D03*
D17*
X166060Y124868D02*
X197877D01*
X151262Y105079D02*
X168075D01*
X150131Y109803D02*
X169580D01*
X149161Y114528D02*
X172279D01*
X148561Y116766D02*
X162601D01*
X147503Y115709D02*
X148561Y116766D01*
X147979Y113347D02*
X149161Y114528D01*
X162601Y116762D02*
X174175Y116786D01*
X124317Y110984D02*
X140480D01*
X123750Y108622D02*
X140480D01*
X122413Y103898D02*
X140480D01*
X125594Y115709D02*
X140480D01*
X125128Y113347D02*
X140480D01*
X172279Y114528D02*
X175817Y110990D01*
X149665Y112165D02*
X170948D01*
X174899Y108214D01*
X169580Y109803D02*
X173944Y105439D01*
X150597Y107441D02*
X168683D01*
X173460Y102663D01*
X168075Y105079D02*
X173266Y99888D01*
X180808Y12953D02*
X193636Y25781D01*
X180342Y15315D02*
X192808Y27781D01*
X179876Y17677D02*
X191979Y29781D01*
X179410Y20039D02*
X191151Y31781D01*
X178944Y22402D02*
X190322Y33781D01*
X178477Y24764D02*
X189494Y35781D01*
X178011Y27126D02*
X188666Y37781D01*
X177545Y29488D02*
X187837Y39781D01*
X177079Y31850D02*
X187009Y41781D01*
X176612Y34213D02*
X186180Y43781D01*
X176146Y36575D02*
X185352Y45781D01*
X175680Y38937D02*
X184524Y47781D01*
X175214Y41299D02*
X183695Y49781D01*
X174748Y43661D02*
X182867Y51781D01*
X174281Y46024D02*
X182038Y53781D01*
X173815Y48386D02*
X181210Y55781D01*
X173349Y50748D02*
X180382Y57781D01*
X172883Y53110D02*
X179553Y59781D01*
X165890Y88543D02*
X174458Y97112D01*
X166356Y86181D02*
X174511Y94336D01*
X166822Y83819D02*
X170310Y87307D01*
X167288Y81457D02*
X171724Y85893D01*
X167754Y79094D02*
X173139Y84479D01*
X168220Y76732D02*
X172781Y81293D01*
X140480Y115709D02*
X147503D01*
X140480Y113347D02*
X147979D01*
X140480Y108622D02*
X148950D01*
X140480Y110984D02*
X148484D01*
X149665Y112165D01*
X148950Y108622D02*
X150131Y109803D01*
X123233Y106260D02*
X149416D01*
X150597Y107441D01*
X140480Y103898D02*
X150081D01*
X151262Y105079D01*
X129058Y126960D02*
X197877D01*
X130715Y130960D02*
X197877D01*
X131544Y132960D02*
X197877D01*
X132372Y134960D02*
X197877D01*
X133200Y136960D02*
X197877D01*
X134029Y138960D02*
X197877D01*
X134857Y140960D02*
X197877D01*
X135686Y142960D02*
X197877D01*
X136514Y144960D02*
X197877D01*
X137343Y146960D02*
X197877D01*
X138171Y148960D02*
X197877D01*
X138999Y150960D02*
X197877D01*
X139828Y152960D02*
X197877D01*
X140656Y154960D02*
X197877D01*
X141485Y156960D02*
X197877D01*
X142313Y158960D02*
X197877D01*
X143141Y160960D02*
X197877D01*
X143970Y162960D02*
X197877D01*
X144798Y164960D02*
X197877D01*
X145627Y166960D02*
X197877D01*
X146455Y168960D02*
X197877D01*
X147283Y170960D02*
X197877D01*
X129887Y128960D02*
X197877D01*
X125837Y118868D02*
X147834D01*
X147856Y118890D01*
X163553D01*
X163575Y118868D02*
X177247D01*
X126665Y120868D02*
X147006D01*
X147028Y120890D02*
X164381D01*
X164403Y120868D02*
X179792D01*
X146199Y122890D02*
X165210D01*
X128322Y124868D02*
X145349D01*
X145371Y124890D01*
X166038D01*
X172000Y66370D02*
X175411Y69781D01*
X171172Y68370D02*
X174933Y72132D01*
X170344Y70370D02*
X174881Y74907D01*
X169515Y72370D02*
X174828Y77683D01*
X168687Y74370D02*
X174775Y80458D01*
X169092Y72008D02*
X169454Y72370D01*
X169515D01*
X169558Y69646D02*
X170283Y70370D01*
X170344D01*
X170025Y67283D02*
X171111Y68370D01*
X171172D01*
X170491Y64921D02*
X171940Y66370D01*
X172000D01*
X170957Y62559D02*
X172768Y64370D01*
X172829D01*
X171423Y60197D02*
X173597Y62370D01*
X171889Y57835D02*
X174425Y60370D01*
X172356Y55472D02*
X175253Y58370D01*
X165232Y122868D02*
X182335D01*
X147006Y120868D02*
X147028Y120890D01*
X127494Y122868D02*
X146177D01*
X212647Y175516D02*
X215682D01*
X212647Y177957D02*
X221587D01*
X212647Y173075D02*
X221587D01*
X212647Y170635D02*
X215682D01*
X212647Y168194D02*
X221587D01*
X212647Y165753D02*
X215682D01*
X212647Y163312D02*
X221587D01*
X212647Y160871D02*
X215682D01*
X212647Y158430D02*
X221587D01*
X212647Y155989D02*
X215682D01*
X212647Y153548D02*
X221587D01*
X212647Y151107D02*
X215682D01*
X212647Y148666D02*
X221587D01*
X212647Y146225D02*
X215682D01*
X212647Y143784D02*
X221587D01*
X212647Y141343D02*
X215682D01*
X212647Y138902D02*
X221587D01*
X212647Y136461D02*
X215682D01*
X212647Y134020D02*
X221587D01*
X212647Y131579D02*
X215682D01*
X212647Y129139D02*
X221587D01*
X212647Y126698D02*
X215682D01*
X212647Y124257D02*
X221587D01*
X212647Y121816D02*
X215682D01*
X212647Y119375D02*
X221587D01*
X212647Y116934D02*
X215682D01*
X212647Y114493D02*
X221587D01*
X212647Y112052D02*
X215682D01*
X212647Y109611D02*
X221587D01*
X212647Y107170D02*
X215682D01*
X212647Y104729D02*
X221587D01*
X212647Y102288D02*
X215682D01*
X212647Y99847D02*
X221587D01*
X212647Y97406D02*
X215682D01*
X212647Y94965D02*
X221587D01*
X212647Y92524D02*
X215682D01*
X212647Y90083D02*
X221587D01*
X212647Y87642D02*
X215682D01*
X212647Y85202D02*
X221587D01*
X212647Y82761D02*
X215682D01*
X212647Y80320D02*
X221587D01*
X212647Y77879D02*
X215682D01*
X212647Y75438D02*
X221587D01*
X212647Y72997D02*
X215682D01*
X212647Y70556D02*
X221587D01*
X212647Y68115D02*
X215682D01*
X212647Y63233D02*
X215682D01*
X212647Y60792D02*
X221587D01*
X212647Y58351D02*
X215682D01*
X212647Y55910D02*
X221587D01*
X212647Y53469D02*
X215682D01*
X212647Y51028D02*
X221587D01*
X212647Y48587D02*
X215682D01*
X212647Y46146D02*
X221587D01*
X212647Y43705D02*
X215682D01*
X212647Y41265D02*
X221587D01*
X212647Y38824D02*
X215682D01*
X212647Y36383D02*
X221587D01*
X212647Y33942D02*
X215682D01*
X212647Y31501D02*
X221587D01*
X212647Y29060D02*
X215682D01*
X212647Y26619D02*
X221587D01*
X212647Y24178D02*
X215682D01*
X212647Y21737D02*
X221587D01*
X212647Y19296D02*
X215682D01*
X212647Y16855D02*
X221587D01*
X212647Y14414D02*
X215682D01*
X179348Y8664D02*
X192999Y22315D01*
X172829Y64370D02*
X176239Y67781D01*
X176900Y65674D02*
X221587D01*
X128934Y144055D02*
X128934Y144055D01*
X129400Y146417D02*
X129400Y146417D01*
X130332Y151142D02*
X130333Y151142D01*
X130799Y153504D02*
Y153504D01*
X131265Y155866D02*
Y155866D01*
X131731Y158228D02*
Y158228D01*
X132664Y162953D02*
Y162953D01*
X133130Y165315D02*
X133130Y165315D01*
X133596Y167677D02*
X133596Y167677D01*
X134062Y170039D02*
X134062Y170039D01*
X134528Y172402D02*
Y172402D01*
X134995Y174764D02*
X134995D01*
X134995Y174764D01*
X128934Y144055D02*
X134029Y138960D01*
X129400Y146417D02*
X134857Y140960D01*
X129866Y148780D02*
X135686Y142960D01*
X130332Y151142D02*
X136514Y144960D01*
X130799Y153504D02*
X137343Y146960D01*
X131265Y155866D02*
X138171Y148960D01*
X131731Y158228D02*
X138999Y150960D01*
X132197Y160591D02*
X139828Y152960D01*
X134995Y174764D02*
X144798Y164960D01*
X134528Y172402D02*
X143970Y162960D01*
X134062Y170039D02*
X143141Y160960D01*
X133596Y167677D02*
X142313Y158960D01*
X133130Y165315D02*
X141485Y156960D01*
X132664Y162953D02*
X140656Y154960D01*
X124707Y122795D02*
X126612Y120890D01*
X124304Y120433D02*
X125847Y118890D01*
X89258Y120433D02*
X124304D01*
X88209Y122795D02*
X124707D01*
X125204Y125157D02*
Y125157D01*
X87486Y125157D02*
X125204D01*
X125670Y127520D02*
X125670Y127520D01*
X66961D02*
X125670D01*
X126137Y129882D02*
X126137Y129882D01*
X89258D02*
X126137D01*
X126603Y132244D02*
X126603Y132244D01*
X88209D02*
X126603D01*
X127069Y134606D02*
Y134606D01*
X87486Y134606D02*
X127069D01*
X66961Y136969D02*
X127535D01*
X128001Y139331D02*
Y139331D01*
X89258Y139331D02*
X128001D01*
X128468Y141693D02*
Y141693D01*
X88209Y141693D02*
X128468D01*
X87486Y144055D02*
X128934D01*
X66961Y146417D02*
X129400D01*
X89258Y148780D02*
X129866D01*
X87486Y153504D02*
X130799D01*
X66961Y155866D02*
X131265D01*
X89258Y158228D02*
X131731D01*
X88209Y160591D02*
X132197D01*
X87486Y162953D02*
X132664D01*
X66961Y165315D02*
X133130D01*
X88209Y170039D02*
X134062D01*
X87486Y172402D02*
X134528D01*
X66961Y174764D02*
X134995D01*
X135461Y177126D02*
X135461Y177126D01*
X89258D02*
X135461D01*
X135927Y179488D02*
X135927Y179488D01*
X136393Y181850D02*
Y181850D01*
X87486Y181850D02*
X136393D01*
X162724Y53110D02*
X172883D01*
X162724Y50748D02*
X173349D01*
X162724Y48386D02*
X173815D01*
X162724Y46024D02*
X174281D01*
X162724Y43661D02*
X174748D01*
X162724Y41299D02*
X175214D01*
X162724Y38937D02*
X175680D01*
X162724Y36575D02*
X176146D01*
X162724Y34213D02*
X176612D01*
X162724Y31850D02*
X177079D01*
X162724Y29488D02*
X177545D01*
X162724Y27126D02*
X178011D01*
X162724Y24764D02*
X178477D01*
X162724Y22402D02*
X178944D01*
X156085Y20039D02*
X179410D01*
X156807Y17677D02*
X179876D01*
X157857Y15315D02*
X180342D01*
X135559Y12953D02*
X180808D01*
X95014Y8664D02*
X179348D01*
X162724Y76732D02*
X168220D01*
X135559Y79094D02*
X167754D01*
X162724Y81457D02*
X167288D01*
X162724Y86181D02*
X166356D01*
X135559Y88543D02*
X165890D01*
X126137Y129882D02*
X129058Y126960D01*
X126603Y132244D02*
X129887Y128960D01*
X127069Y134606D02*
X130715Y130960D01*
X127535Y136969D02*
X131544Y132960D01*
X128001Y139331D02*
X132372Y134960D01*
X128468Y141693D02*
X133200Y136960D01*
X161487Y188250D02*
X176778Y172960D01*
X136393Y181850D02*
X147283Y170960D01*
X135927Y179488D02*
X146455Y168960D01*
X135461Y177126D02*
X145627Y166960D01*
X125670Y127520D02*
X128322Y124868D01*
X162724Y69646D02*
X169558D01*
X162724Y67283D02*
X170025D01*
X162724Y64921D02*
X170491D01*
X162724Y62559D02*
X170957D01*
X162724Y60197D02*
X171423D01*
X162724Y57835D02*
X171889D01*
X162724Y55472D02*
X172356D01*
X162724Y72008D02*
X169092D01*
X162724Y74370D02*
X168687D01*
X125204Y125157D02*
X127494Y122868D01*
X58693Y173583D02*
X63417Y178307D01*
X55150Y173583D02*
X62236Y180669D01*
X64992Y176339D02*
X88471D01*
X89258Y177126D01*
X62236Y173583D02*
X64992Y176339D01*
X65780Y173583D02*
X66961Y174764D01*
X62236Y180669D02*
X86305D01*
X87486Y181850D01*
X63417Y178307D02*
X87028D01*
X88209Y179488D01*
X135927D01*
X58693Y164134D02*
X63417Y168858D01*
X55150Y164134D02*
X62236Y171221D01*
X64992Y166890D02*
X88471D01*
X89258Y167677D01*
X133596D01*
X62236Y164134D02*
X64992Y166890D01*
X65780Y164134D02*
X66961Y165315D01*
X62236Y171221D02*
X86305D01*
X87486Y172402D01*
X63417Y168858D02*
X87028D01*
X88209Y170039D01*
X58693Y154685D02*
X63417Y159409D01*
X55150Y154685D02*
X62236Y161772D01*
X64992Y157441D02*
X88471D01*
X89258Y158228D01*
X62236Y154685D02*
X64992Y157441D01*
X65780Y154685D02*
X66961Y155866D01*
X62236Y161772D02*
X86305D01*
X87486Y162953D01*
X63417Y159409D02*
X87028D01*
X88209Y160591D01*
X58693Y145236D02*
X63417Y149961D01*
X55150Y145236D02*
X62236Y152323D01*
X64992Y147992D02*
X88471D01*
X89258Y148780D01*
X62236Y145236D02*
X64992Y147992D01*
X65780Y145236D02*
X66961Y146417D01*
X62236Y152323D02*
X86305D01*
X87486Y153504D01*
X63417Y149961D02*
X87028D01*
X88209Y151142D01*
X130333D01*
X58693Y135787D02*
X63417Y140512D01*
X55150Y135787D02*
X62236Y142874D01*
X64992Y138543D02*
X88471D01*
X89258Y139331D01*
X62236Y135787D02*
X64992Y138543D01*
X65780Y135787D02*
X66961Y136969D01*
X62236Y142874D02*
X86305D01*
X87486Y144055D01*
X63417Y140512D02*
X87028D01*
X88209Y141693D01*
X58693Y126339D02*
X63417Y131063D01*
X55150Y126339D02*
X62236Y133425D01*
X64992Y129095D02*
X88471D01*
X89258Y129882D01*
X62236Y126339D02*
X64992Y129095D01*
X65780Y126339D02*
X66961Y127520D01*
X62236Y133425D02*
X86305D01*
X87486Y134606D01*
X63417Y131063D02*
X87028D01*
X88209Y132244D01*
X58693Y116890D02*
X63417Y121614D01*
X55150Y116890D02*
X62236Y123976D01*
X64992Y119646D02*
X88471D01*
X89258Y120433D01*
X62236Y116890D02*
X64992Y119646D01*
X65780Y116890D02*
X66961Y118071D01*
X62236Y123976D02*
X86305D01*
X87486Y125157D01*
X63417Y121614D02*
X87028D01*
X88209Y122795D01*
X58693Y107441D02*
X63417Y112165D01*
X55150Y107441D02*
X62236Y114528D01*
X64992Y110197D02*
X88471D01*
X89258Y110984D01*
X62236Y107441D02*
X64992Y110197D01*
X65780Y107441D02*
X66961Y108622D01*
X62236Y114528D02*
X86305D01*
X87486Y115709D01*
X63417Y112165D02*
X87028D01*
X88209Y113347D01*
X55150Y97992D02*
X62236Y105079D01*
X86305D01*
X87486Y106260D01*
X134378Y87362D02*
X135559Y88543D01*
X127291Y77913D02*
X132016Y82638D01*
X123748Y77913D02*
X130835Y85000D01*
X133591Y80669D02*
X157069D01*
X157857Y81457D01*
X162724D01*
X130835Y77913D02*
X133591Y80669D01*
X134378Y77913D02*
X135559Y79094D01*
X130835Y85000D02*
X154903D01*
X156085Y86181D01*
X162724D01*
X132016Y82638D02*
X155626D01*
X156807Y83819D01*
X166822D01*
X127291Y68465D02*
X132016Y73189D01*
X123748Y68465D02*
X130835Y75551D01*
X133591Y71220D02*
X157069D01*
X157857Y72008D01*
X162724D01*
X130835Y68465D02*
X133591Y71220D01*
X134378Y68465D02*
X135559Y69646D01*
X162724D01*
X130835Y75551D02*
X154903D01*
X156084Y76732D01*
X162724D01*
X132016Y73189D02*
X155626D01*
X156807Y74370D01*
X162724D01*
X127291Y59016D02*
X132016Y63740D01*
X123748Y59016D02*
X130835Y66102D01*
X133591Y61772D02*
X157069D01*
X157857Y62559D01*
X162724D01*
X130835Y59016D02*
X133591Y61772D01*
X134378Y59016D02*
X135559Y60197D01*
X162724D01*
X130835Y66102D02*
X154903D01*
X156084Y67283D01*
X162724D01*
X132016Y63740D02*
X155626D01*
X156807Y64921D01*
X162724D01*
X127291Y49567D02*
X132016Y54291D01*
X123748Y49567D02*
X130835Y56654D01*
X133591Y52323D02*
X157069D01*
X157857Y53110D01*
X162724D01*
X130835Y49567D02*
X133591Y52323D01*
X134378Y49567D02*
X135559Y50748D01*
X162724D01*
X130835Y56654D02*
X154903D01*
X156084Y57835D01*
X162724D01*
X132016Y54291D02*
X155626D01*
X156807Y55472D01*
X162724D01*
X127291Y40118D02*
X132016Y44843D01*
X123748Y40118D02*
X130835Y47205D01*
X133591Y42874D02*
X157069D01*
X157857Y43661D01*
X162724D01*
X130835Y40118D02*
X133591Y42874D01*
X134378Y40118D02*
X135559Y41299D01*
X162724D01*
X130835Y47205D02*
X154903D01*
X156084Y48386D01*
X162724D01*
X132016Y44843D02*
X155626D01*
X156807Y46024D01*
X162724D01*
X127291Y30669D02*
X132016Y35394D01*
X123748Y30669D02*
X130835Y37756D01*
X133591Y33425D02*
X157069D01*
X157857Y34213D01*
X162724D01*
X130835Y30669D02*
X133591Y33425D01*
X134378Y30669D02*
X135559Y31850D01*
X162724D01*
X130835Y37756D02*
X154903D01*
X156084Y38937D01*
X162724D01*
X132016Y35394D02*
X155626D01*
X156807Y36575D01*
X162724D01*
X127291Y21220D02*
X132016Y25945D01*
X123748Y21220D02*
X130835Y28307D01*
X133591Y23976D02*
X157069D01*
X157857Y24764D01*
X162724D01*
X130835Y21220D02*
X133591Y23976D01*
X134378Y21220D02*
X135559Y22402D01*
X162724D01*
X130835Y28307D02*
X154903D01*
X156084Y29488D01*
X162724D01*
X132016Y25945D02*
X155626D01*
X156807Y27126D01*
X162724D01*
X155626Y16496D02*
X156807Y17677D01*
X132016Y16496D02*
X155626D01*
X154903Y18858D02*
X156085Y20039D01*
X130835Y18858D02*
X154903D01*
X134378Y11772D02*
X135559Y12953D01*
X130835Y11772D02*
X133591Y14528D01*
X157069D02*
X157857Y15315D01*
X133591Y14528D02*
X157069D01*
X123748Y11772D02*
X130835Y18858D01*
X127291Y11772D02*
X132016Y16496D01*
X107108Y188250D02*
X161487D01*
X50712Y14337D02*
X53102Y16727D01*
X86960Y16718D02*
X95014Y8664D01*
X53111Y16718D02*
X86960D01*
X53102Y16727D02*
X53111Y16718D01*
X104718Y185860D02*
X107108Y188250D01*
X87486Y106260D02*
X120086D01*
X122389Y103956D01*
X66961Y108622D02*
X120906D01*
X123268Y106260D01*
X89258Y110984D02*
X121395D01*
X123766Y108614D01*
X88209Y113347D02*
X121975D01*
X124337Y110984D01*
X66961Y118071D02*
X123255D01*
X125617Y115709D01*
X87486D02*
X122795D01*
X125157Y113347D01*
D18*
X197877Y124868D02*
X203370Y119375D01*
X176778Y172960D02*
X200003D01*
X205000Y177957D01*
X212647D01*
X197877Y170960D02*
X200837D01*
X205394Y175516D01*
X212647D01*
X197877Y168960D02*
X201751D01*
X205866Y173075D01*
X212647D01*
X197877Y166960D02*
X202507D01*
X206181Y170635D01*
X212647D01*
X197877Y164960D02*
X202869D01*
X206103Y168194D01*
X212647D01*
X197877Y162960D02*
X203783D01*
X206575Y165753D01*
X212647D01*
X197877Y160960D02*
X204280D01*
X206632Y163312D01*
X212647D01*
X197877Y158960D02*
X205391D01*
X207302Y160871D01*
X212647D01*
X197877Y156960D02*
X206260D01*
X207730Y158430D01*
X212647D01*
X197877Y154960D02*
X206847D01*
X207875Y155989D01*
X212647D01*
X197877Y152960D02*
X207392D01*
X207980Y153548D01*
X212647D01*
X197877Y150960D02*
X212500D01*
X197877Y148960D02*
X210518D01*
X210812Y148666D01*
X212647D01*
X197877Y146960D02*
X210618D01*
X211353Y146225D01*
X212647D01*
X197877Y144960D02*
X209992D01*
X211168Y143784D01*
X212647D01*
X197877Y142960D02*
X209729D01*
X211346Y141343D01*
X212647D01*
X197877Y140960D02*
X208335D01*
X210392Y138902D01*
X212647D01*
X197877Y138960D02*
X207466D01*
X209964Y136461D01*
X212647D01*
X197877Y136960D02*
X206031D01*
X208971Y134020D01*
X212647D01*
X197877Y134960D02*
X204637D01*
X208017Y131579D01*
X212647D01*
X197877Y132960D02*
X203889D01*
X207710Y129139D01*
X212647D01*
X197877Y130960D02*
X202252D01*
X206515Y126698D01*
X212647D01*
X197877Y128960D02*
X201161D01*
X205865Y124257D01*
X212647D01*
X197877Y126960D02*
X199504D01*
X204648Y121816D01*
X212647D01*
X203370Y119375D02*
X212647D01*
X182335Y122868D02*
X196279D01*
X202213Y116934D01*
X212647D01*
X179792Y120868D02*
X195129D01*
X201504Y114493D01*
X212647D01*
X177247Y118868D02*
X194266D01*
X201082Y112052D01*
X212647D01*
X174175Y116786D02*
X193413D01*
X200588Y109611D01*
X212647D01*
X175817Y110990D02*
X196345D01*
X200165Y107170D01*
X212647D01*
X174899Y108214D02*
X196544D01*
X200029Y104729D01*
X212647D01*
X173944Y105439D02*
X196169D01*
X199320Y102288D01*
X212647D01*
X173460Y102663D02*
X196225D01*
X199041Y99847D01*
X212647D01*
X173266Y99888D02*
X195994D01*
X198475Y97406D01*
X212647D01*
X174458Y97112D02*
X196407D01*
X198554Y94965D01*
X212647D01*
X174511Y94336D02*
X196247D01*
X198059Y92524D01*
X212647D01*
X210590Y14414D02*
X212647D01*
X192999Y22315D02*
X202689D01*
X210590Y14414D01*
X193636Y25781D02*
X201590D01*
X210516Y16855D01*
X212647D01*
X192808Y27781D02*
X202064D01*
X210549Y19296D01*
X212647D01*
X191979Y29781D02*
X202323D01*
X210367Y21737D01*
X212647D01*
X191151Y31781D02*
X202474D01*
X210077Y24178D01*
X212647D01*
X190322Y33781D02*
X203056D01*
X210218Y26619D01*
X212647D01*
X189494Y35781D02*
X203422D01*
X210143Y29060D01*
X212647D01*
X188666Y37781D02*
X204058D01*
X210338Y31501D01*
X212647D01*
X187837Y39781D02*
X204532D01*
X210371Y33942D01*
X212647D01*
X187009Y41781D02*
X205006D01*
X210404Y36383D01*
X212647D01*
X186180Y43781D02*
X205211D01*
X210168Y38824D01*
X212647D01*
X185352Y45781D02*
X205685D01*
X210201Y41265D01*
X212647D01*
X184524Y47781D02*
X206321D01*
X210396Y43705D01*
X212647D01*
X183695Y49781D02*
X206741D01*
X210375Y46146D01*
X212647D01*
X182867Y51781D02*
X207591D01*
X210785Y48587D01*
X212647D01*
X182038Y53781D02*
X208012D01*
X210764Y51028D01*
X212647D01*
X181210Y55781D02*
X208593D01*
X210905Y53469D01*
X212647D01*
X180382Y57781D02*
X209061D01*
X210931Y55910D01*
X212647D01*
X179553Y59781D02*
X209570D01*
X211000Y58351D01*
X212647D01*
X175253Y58370D02*
X178152Y61268D01*
X212171D01*
X212647Y60792D01*
X176574Y68115D02*
X212647D01*
X176239Y67781D02*
X176574Y68115D01*
X175411Y69781D02*
X176186Y70556D01*
X212647D01*
X174933Y72132D02*
X175799Y72997D01*
X212647D01*
X174881Y74907D02*
X175411Y75438D01*
X212647D01*
X174828Y77683D02*
X175024Y77879D01*
X212647D01*
X174775Y80458D02*
X212508D01*
X212647Y80320D01*
X172781Y81293D02*
X174249Y82761D01*
X212647D01*
X173139Y84479D02*
X173861Y85202D01*
X212647D01*
X173474Y87642D02*
X212647D01*
X171724Y85893D02*
X173474Y87642D01*
X170310Y87307D02*
X173086Y90083D01*
X212647D01*
X173597Y62370D02*
X176900Y65674D01*
X174425Y60370D02*
X177288Y63233D01*
X212647D01*
D19*
X642130Y397706D02*
Y403703D01*
X644129Y401704D01*
X646129Y403703D01*
Y397706D01*
X648128D02*
X650128D01*
X649128D01*
Y401704D01*
X648128D01*
X657125Y403703D02*
Y397706D01*
X654126D01*
X653126Y398705D01*
Y400704D01*
X654126Y401704D01*
X657125D01*
X665123Y403703D02*
Y397706D01*
X669121D01*
X672120Y401704D02*
X674120D01*
X675119Y400704D01*
Y397706D01*
X672120D01*
X671121Y398705D01*
X672120Y399705D01*
X675119D01*
X677119Y401704D02*
Y398705D01*
X678119Y397706D01*
X681117D01*
Y396706D01*
X680118Y395706D01*
X679118D01*
X681117Y397706D02*
Y401704D01*
X686116Y397706D02*
X684117D01*
X683117Y398705D01*
Y400704D01*
X684117Y401704D01*
X686116D01*
X687115Y400704D01*
Y399705D01*
X683117D01*
X689115Y401704D02*
Y397706D01*
Y399705D01*
X690115Y400704D01*
X691114Y401704D01*
X692114D01*
X705110Y397706D02*
X701111D01*
X705110Y401704D01*
Y402704D01*
X704110Y403703D01*
X702111D01*
X701111Y402704D01*
D24*
X683677Y71094D02*
D03*
Y78829D02*
D03*
X674561Y71094D02*
D03*
X689991Y90676D02*
D03*
Y106393D02*
D03*
D25*
X55150Y97992D02*
D03*
X65780Y107441D02*
D03*
X62236D02*
D03*
X58693D02*
D03*
X55150D02*
D03*
X65780Y116890D02*
D03*
X62236D02*
D03*
X58693D02*
D03*
X55150D02*
D03*
X65780Y126339D02*
D03*
X62236D02*
D03*
X58693D02*
D03*
X55150D02*
D03*
X65780Y135787D02*
D03*
X62236D02*
D03*
X58693D02*
D03*
X55150D02*
D03*
X65780Y145236D02*
D03*
X62236D02*
D03*
X58693D02*
D03*
X55150D02*
D03*
X65780Y154685D02*
D03*
X62236D02*
D03*
X58693D02*
D03*
X55150D02*
D03*
X65780Y164134D02*
D03*
X62236D02*
D03*
X58693D02*
D03*
X55150D02*
D03*
X55150Y173583D02*
D03*
X58693D02*
D03*
X62236D02*
D03*
X65780D02*
D03*
X123748Y77913D02*
D03*
X127291D02*
D03*
X130835D02*
D03*
X134378D02*
D03*
X123748Y68465D02*
D03*
X127291D02*
D03*
X130835D02*
D03*
X134378D02*
D03*
X123748Y59016D02*
D03*
X127291D02*
D03*
X130835D02*
D03*
X134378D02*
D03*
X123748Y49567D02*
D03*
X127291D02*
D03*
X130835D02*
D03*
X134378D02*
D03*
X123748Y40118D02*
D03*
X127291D02*
D03*
X130835D02*
D03*
X134378D02*
D03*
X123748Y30669D02*
D03*
X127291D02*
D03*
X130835D02*
D03*
X134378D02*
D03*
X123748Y21220D02*
D03*
X127291D02*
D03*
X130835D02*
D03*
X134378D02*
D03*
X123748Y11772D02*
D03*
X127291D02*
D03*
X130835D02*
D03*
X134378D02*
D03*
Y87362D02*
D03*
X50712Y14337D02*
D03*
X104718Y185860D02*
D03*
D26*
X215638Y175341D02*
X612842D01*
X215638Y172902D02*
X612842D01*
X215638Y170462D02*
X612842D01*
X215638Y168022D02*
X612842D01*
X215638Y165583D02*
X612842D01*
X215638Y163143D02*
X612842D01*
X215638Y160703D02*
X612842D01*
X215638Y158263D02*
X612842D01*
X215638Y155824D02*
X612842D01*
X215638Y153384D02*
X612842D01*
X215638Y150944D02*
X612842D01*
X215638Y148504D02*
X612842D01*
X215638Y146064D02*
X612842D01*
X215638Y143625D02*
X612842D01*
X215638Y141185D02*
X612842D01*
X215638Y138745D02*
X612842D01*
X215638Y136305D02*
X612842D01*
X215638Y133866D02*
X612842D01*
X215638Y131426D02*
X612842D01*
X215638Y128986D02*
X612842D01*
X215638Y126546D02*
X612842D01*
X215638Y124107D02*
X612842D01*
X215638Y121667D02*
X612842D01*
X215638Y119227D02*
X612842D01*
X215638Y116787D02*
X612842D01*
X215638Y114348D02*
X612842D01*
X215638Y111908D02*
X612842D01*
X215638Y109468D02*
X612842D01*
X215638Y107028D02*
X612842D01*
X215638Y104588D02*
X612842D01*
X215638Y102149D02*
X612842D01*
X215638Y99709D02*
X612842D01*
X215638Y97269D02*
X612842D01*
X215638Y94829D02*
X612842D01*
X215638Y92390D02*
X612842D01*
X215638Y89950D02*
X612842D01*
X215638Y87510D02*
X612842D01*
X215638Y85070D02*
X612842D01*
X215638Y82631D02*
X612842D01*
X215638Y80191D02*
X612842D01*
X215638Y77751D02*
X612842D01*
X215638Y75311D02*
X612842D01*
X215638Y72872D02*
X612842D01*
X215638Y70432D02*
X612842D01*
X215638Y67992D02*
X612842D01*
X215638Y65552D02*
X612842D01*
X215638Y63113D02*
X612842D01*
X215638Y60673D02*
X612842D01*
X215638Y58233D02*
X612842D01*
X215638Y55793D02*
X612842D01*
X215638Y53354D02*
X612842D01*
X215638Y50914D02*
X612842D01*
X215638Y48474D02*
X612842D01*
X215638Y46034D02*
X612842D01*
X215638Y43595D02*
X612842D01*
X215638Y41155D02*
X612842D01*
X215638Y38715D02*
X612842D01*
X215638Y36275D02*
X612842D01*
X215638Y33836D02*
X612842D01*
X215638Y31396D02*
X612842D01*
X215638Y28956D02*
X612842D01*
X215638Y26516D02*
X612842D01*
X215638Y24076D02*
X612842D01*
X215638Y21637D02*
X612842D01*
X215638Y19197D02*
X612842D01*
X215638Y16757D02*
X612842D01*
X215638Y14317D02*
X612842D01*
X215638Y177781D02*
X612842D01*
D32*
X672738Y74366D02*
D03*
M02*
