G04 Layer_Color=8421504*
%FSLAX25Y25*%
%MOIN*%
G70*
G01*
G75*
%ADD13R,0.04500X0.06000*%
%ADD14R,0.06693X0.01181*%
%ADD15R,0.06000X0.04500*%
D13*
X62832Y16727D02*
D03*
X73332D02*
D03*
X116838Y188250D02*
D03*
X127338D02*
D03*
D14*
X118236Y20039D02*
D03*
Y24764D02*
D03*
Y22402D02*
D03*
Y12953D02*
D03*
Y17677D02*
D03*
Y15315D02*
D03*
Y36575D02*
D03*
Y34213D02*
D03*
Y27126D02*
D03*
Y31850D02*
D03*
Y29488D02*
D03*
Y41299D02*
D03*
Y38937D02*
D03*
Y43661D02*
D03*
Y48386D02*
D03*
Y46024D02*
D03*
Y57835D02*
D03*
Y62559D02*
D03*
Y60197D02*
D03*
Y50748D02*
D03*
Y55472D02*
D03*
Y53110D02*
D03*
Y72008D02*
D03*
Y76732D02*
D03*
Y74370D02*
D03*
Y64921D02*
D03*
Y69646D02*
D03*
Y67283D02*
D03*
Y88543D02*
D03*
Y90906D02*
D03*
Y79094D02*
D03*
Y86181D02*
D03*
Y81457D02*
D03*
Y100354D02*
D03*
Y105079D02*
D03*
Y102717D02*
D03*
Y93268D02*
D03*
Y97992D02*
D03*
Y95630D02*
D03*
Y114528D02*
D03*
Y116890D02*
D03*
Y107441D02*
D03*
Y112165D02*
D03*
Y109803D02*
D03*
X140480Y18858D02*
D03*
Y23583D02*
D03*
Y21220D02*
D03*
Y11772D02*
D03*
Y16496D02*
D03*
Y14134D02*
D03*
Y35394D02*
D03*
Y33032D02*
D03*
Y25945D02*
D03*
Y30669D02*
D03*
Y28307D02*
D03*
Y44843D02*
D03*
Y49567D02*
D03*
Y47205D02*
D03*
Y37756D02*
D03*
Y42480D02*
D03*
Y40118D02*
D03*
Y51929D02*
D03*
Y56654D02*
D03*
Y54291D02*
D03*
Y61378D02*
D03*
Y59016D02*
D03*
Y70827D02*
D03*
Y75551D02*
D03*
Y73189D02*
D03*
Y63740D02*
D03*
Y68465D02*
D03*
Y66102D02*
D03*
Y77913D02*
D03*
X118236Y83819D02*
D03*
X140480Y80276D02*
D03*
Y82638D02*
D03*
Y87362D02*
D03*
Y85000D02*
D03*
Y96811D02*
D03*
Y101535D02*
D03*
Y99173D02*
D03*
Y89724D02*
D03*
Y94449D02*
D03*
Y92087D02*
D03*
Y110984D02*
D03*
Y115709D02*
D03*
Y113347D02*
D03*
Y103898D02*
D03*
Y108622D02*
D03*
Y106260D02*
D03*
X49638Y85000D02*
D03*
Y89724D02*
D03*
Y87362D02*
D03*
Y77913D02*
D03*
Y82638D02*
D03*
Y80276D02*
D03*
Y101535D02*
D03*
Y99173D02*
D03*
Y92087D02*
D03*
Y96811D02*
D03*
Y94449D02*
D03*
Y106260D02*
D03*
Y103898D02*
D03*
Y108622D02*
D03*
Y113347D02*
D03*
Y110984D02*
D03*
Y122795D02*
D03*
Y127520D02*
D03*
Y125157D02*
D03*
Y115709D02*
D03*
Y120433D02*
D03*
Y118071D02*
D03*
Y136969D02*
D03*
Y141693D02*
D03*
Y139331D02*
D03*
Y129882D02*
D03*
Y134606D02*
D03*
Y132244D02*
D03*
Y153504D02*
D03*
Y155866D02*
D03*
Y144055D02*
D03*
Y151142D02*
D03*
Y146417D02*
D03*
Y165315D02*
D03*
Y170039D02*
D03*
Y167677D02*
D03*
Y158228D02*
D03*
Y162953D02*
D03*
Y160591D02*
D03*
Y179488D02*
D03*
Y181850D02*
D03*
Y172402D02*
D03*
Y177126D02*
D03*
Y174764D02*
D03*
X71882Y83819D02*
D03*
Y88543D02*
D03*
Y86181D02*
D03*
Y76732D02*
D03*
Y81457D02*
D03*
Y79094D02*
D03*
Y100354D02*
D03*
Y97992D02*
D03*
Y90906D02*
D03*
Y95630D02*
D03*
Y93268D02*
D03*
Y109803D02*
D03*
Y114528D02*
D03*
Y112165D02*
D03*
Y102717D02*
D03*
Y107441D02*
D03*
Y105079D02*
D03*
Y116890D02*
D03*
Y121614D02*
D03*
Y119252D02*
D03*
Y126339D02*
D03*
Y123976D02*
D03*
Y135787D02*
D03*
Y140512D02*
D03*
Y138150D02*
D03*
Y128701D02*
D03*
Y133425D02*
D03*
Y131063D02*
D03*
Y142874D02*
D03*
X49638Y148780D02*
D03*
X71882Y145236D02*
D03*
Y147599D02*
D03*
Y152323D02*
D03*
Y149961D02*
D03*
Y161772D02*
D03*
Y166496D02*
D03*
Y164134D02*
D03*
Y154685D02*
D03*
Y159409D02*
D03*
Y157047D02*
D03*
Y175945D02*
D03*
Y180669D02*
D03*
Y178307D02*
D03*
Y168858D02*
D03*
Y173583D02*
D03*
Y171221D02*
D03*
D15*
X670487Y116722D02*
D03*
Y106222D02*
D03*
Y80406D02*
D03*
Y90906D02*
D03*
M02*
