%FSLAX23Y23*%
%MOIN*%
G70*
G01*
G75*
G04 Layer_Color=32896*
%ADD10C,0.010*%
%ADD11R,0.039X0.043*%
%ADD12C,0.040*%
%ADD13R,0.102X0.087*%
%ADD14R,0.087X0.102*%
%ADD15R,0.024X0.094*%
%ADD16R,0.043X0.039*%
%ADD17R,0.039X0.043*%
%ADD18R,0.010X0.039*%
%ADD19R,0.020X0.039*%
%ADD20R,0.028X0.035*%
%ADD21R,0.106X0.063*%
%ADD22R,0.157X0.138*%
%ADD23R,0.041X0.083*%
%ADD24R,0.413X0.406*%
%ADD25R,0.051X0.063*%
%ADD26R,0.033X0.039*%
%ADD27O,0.016X0.063*%
%ADD28R,0.134X0.085*%
%ADD29R,0.041X0.085*%
%ADD30R,0.033X0.039*%
%ADD31R,0.041X0.085*%
%ADD32R,0.026X0.075*%
%ADD33R,0.138X0.079*%
%ADD34R,0.047X0.039*%
%ADD35R,0.134X0.075*%
%ADD36R,0.138X0.157*%
%ADD37R,0.079X0.138*%
%ADD38R,0.016X0.063*%
%ADD39R,0.063X0.051*%
%ADD40R,0.063X0.106*%
%ADD41R,0.014X0.053*%
%ADD42O,0.250X0.080*%
%ADD43R,0.124X0.202*%
%ADD44O,0.031X0.010*%
%ADD45R,0.031X0.010*%
%ADD46R,0.010X0.031*%
%ADD47O,0.080X0.250*%
%ADD48R,0.024X0.087*%
%ADD49R,0.024X0.087*%
%ADD50C,0.020*%
%ADD51R,0.039X0.047*%
%ADD52R,0.018X0.081*%
%ADD53R,0.047X0.102*%
%ADD54R,0.081X0.018*%
%ADD55R,0.047X0.043*%
%ADD56R,0.047X0.043*%
%ADD57R,0.059X0.020*%
%ADD58R,0.059X0.020*%
%ADD59R,0.035X0.028*%
%ADD60R,0.083X0.041*%
%ADD61R,0.406X0.413*%
%ADD62R,0.039X0.033*%
%ADD63R,0.039X0.033*%
%ADD64R,0.059X0.014*%
%ADD65R,0.087X0.024*%
%ADD66R,0.012X0.065*%
%ADD67R,0.087X0.024*%
%ADD68R,0.049X0.015*%
%ADD69R,0.213X0.118*%
%ADD70R,0.138X0.016*%
%ADD71R,0.057X0.022*%
%ADD72R,0.012X0.063*%
%ADD73R,0.063X0.012*%
%ADD74R,0.102X0.047*%
%ADD75R,0.014X0.053*%
%ADD76R,0.010X0.065*%
%ADD77R,0.012X0.016*%
%ADD78R,0.228X0.189*%
%ADD79R,0.016X0.012*%
%ADD80O,0.014X0.059*%
%ADD81R,0.014X0.059*%
%ADD82C,0.005*%
%ADD83C,0.008*%
%ADD84C,0.020*%
%ADD85C,0.004*%
%ADD86C,0.012*%
%ADD87C,0.006*%
%ADD88C,0.015*%
%ADD89C,0.009*%
%ADD90C,0.130*%
%ADD91C,0.050*%
%ADD92C,0.039*%
%ADD93R,0.039X0.039*%
%ADD94C,0.059*%
%ADD95R,0.059X0.059*%
%ADD96R,0.091X0.091*%
%ADD97C,0.091*%
%ADD98C,0.060*%
%ADD99R,0.059X0.059*%
%ADD100C,0.065*%
%ADD101R,0.060X0.060*%
%ADD102C,0.068*%
%ADD103R,0.059X0.059*%
%ADD104C,0.059*%
%ADD105R,0.100X0.050*%
%ADD106O,0.100X0.050*%
%ADD107C,0.150*%
%ADD108C,0.098*%
%ADD109C,0.083*%
%ADD110C,0.082*%
%ADD111C,0.067*%
%ADD112R,0.067X0.067*%
%ADD113C,0.187*%
%ADD114O,0.050X0.100*%
%ADD115R,0.050X0.100*%
%ADD116C,0.144*%
%ADD117C,0.055*%
%ADD118C,0.016*%
%ADD119C,0.036*%
%ADD120C,0.160*%
%ADD121C,0.020*%
%ADD122C,0.030*%
%ADD123R,0.063X0.071*%
%ADD124R,0.071X0.063*%
%ADD125R,0.039X0.020*%
%ADD126R,0.039X0.010*%
%ADD127C,0.010*%
%ADD128C,0.008*%
%ADD129C,0.004*%
%ADD130C,0.001*%
%ADD131C,0.001*%
%ADD132C,0.007*%
%ADD133C,0.006*%
%ADD134R,0.146X0.031*%
%ADD135R,0.110X0.410*%
%ADD136R,0.110X0.405*%
D10*
X13017Y11614D02*
G03*
X13017Y11614I-65J0D01*
G01*
X13040Y7380D02*
G03*
X13040Y7380I-65J0D01*
G01*
X4202Y6549D02*
G03*
X4202Y6549I-65J0D01*
G01*
X10830Y12000D02*
Y12060D01*
X10810Y12040D01*
X10790Y12060D01*
Y12000D01*
X10740D02*
X10760D01*
X10770Y12010D01*
Y12030D01*
X10760Y12040D01*
X10740D01*
X10730Y12030D01*
Y12020D01*
X10770D01*
X10710Y12040D02*
X10670D01*
X10710Y12000D01*
X10670D01*
X10650Y12040D02*
X10610D01*
X10650Y12000D01*
X10610D01*
X10580Y12040D02*
X10560D01*
X10550Y12030D01*
Y12000D01*
X10580D01*
X10590Y12010D01*
X10580Y12020D01*
X10550D01*
X10530Y12000D02*
Y12040D01*
X10500D01*
X10490Y12030D01*
Y12000D01*
X10470D02*
X10450D01*
X10460D01*
Y12040D01*
X10470D01*
X10420Y12000D02*
Y12040D01*
X10390D01*
X10380Y12030D01*
Y12000D01*
X10330D02*
X10350D01*
X10360Y12010D01*
Y12030D01*
X10350Y12040D01*
X10330D01*
X10320Y12030D01*
Y12020D01*
X10360D01*
X10240Y12000D02*
Y12060D01*
X10220Y12040D01*
X10200Y12060D01*
Y12000D01*
X10170D02*
X10150D01*
X10140Y12010D01*
Y12030D01*
X10150Y12040D01*
X10170D01*
X10180Y12030D01*
Y12010D01*
X10170Y12000D01*
X10080Y12060D02*
Y12000D01*
X10110D01*
X10120Y12010D01*
Y12030D01*
X10110Y12040D01*
X10080D01*
X10060D02*
Y12010D01*
X10050Y12000D01*
X10020D01*
Y12040D01*
X10000Y12000D02*
X9980D01*
X9990D01*
Y12060D01*
X10000D01*
X9920Y12000D02*
X9940D01*
X9950Y12010D01*
Y12030D01*
X9940Y12040D01*
X9920D01*
X9910Y12030D01*
Y12020D01*
X9950D01*
X9830Y12060D02*
X9810D01*
X9820D01*
Y12000D01*
X9830D01*
X9810D01*
X9780Y12060D02*
X9760D01*
X9770D01*
Y12000D01*
X9780D01*
X9760D01*
X5865D02*
Y12060D01*
X5845Y12040D01*
X5825Y12060D01*
Y12000D01*
X5775D02*
X5795D01*
X5805Y12010D01*
Y12030D01*
X5795Y12040D01*
X5775D01*
X5765Y12030D01*
Y12020D01*
X5805D01*
X5745Y12040D02*
X5705D01*
X5745Y12000D01*
X5705D01*
X5685Y12040D02*
X5645D01*
X5685Y12000D01*
X5645D01*
X5615Y12040D02*
X5595D01*
X5585Y12030D01*
Y12000D01*
X5615D01*
X5625Y12010D01*
X5615Y12020D01*
X5585D01*
X5565Y12000D02*
Y12040D01*
X5535D01*
X5525Y12030D01*
Y12000D01*
X5505D02*
X5485D01*
X5495D01*
Y12040D01*
X5505D01*
X5455Y12000D02*
Y12040D01*
X5425D01*
X5415Y12030D01*
Y12000D01*
X5365D02*
X5385D01*
X5395Y12010D01*
Y12030D01*
X5385Y12040D01*
X5365D01*
X5355Y12030D01*
Y12020D01*
X5395D01*
X5275Y12000D02*
Y12060D01*
X5255Y12040D01*
X5235Y12060D01*
Y12000D01*
X5205D02*
X5185D01*
X5175Y12010D01*
Y12030D01*
X5185Y12040D01*
X5205D01*
X5215Y12030D01*
Y12010D01*
X5205Y12000D01*
X5115Y12060D02*
Y12000D01*
X5145D01*
X5155Y12010D01*
Y12030D01*
X5145Y12040D01*
X5115D01*
X5095D02*
Y12010D01*
X5085Y12000D01*
X5055D01*
Y12040D01*
X5035Y12000D02*
X5015D01*
X5025D01*
Y12060D01*
X5035D01*
X4955Y12000D02*
X4975D01*
X4985Y12010D01*
Y12030D01*
X4975Y12040D01*
X4955D01*
X4945Y12030D01*
Y12020D01*
X4985D01*
X4865Y12060D02*
X4845D01*
X4855D01*
Y12000D01*
X4865D01*
X4845D01*
X12174Y10765D02*
Y10685D01*
X12170Y10765D02*
X12147Y10696D01*
X12174Y10765D02*
X12147Y10685D01*
X12120Y10765D02*
X12147Y10685D01*
X12120Y10765D02*
Y10685D01*
X12116Y10765D02*
Y10685D01*
X12185Y10765D02*
X12170D01*
X12120D02*
X12105D01*
X12185Y10685D02*
X12162D01*
X12132D02*
X12105D01*
X12050Y10727D02*
X12054Y10723D01*
X12050Y10719D01*
X12046Y10723D01*
Y10727D01*
X12054Y10735D01*
X12062Y10738D01*
X12073D01*
X12084Y10735D01*
X12092Y10727D01*
X12096Y10715D01*
Y10708D01*
X12092Y10696D01*
X12084Y10689D01*
X12073Y10685D01*
X12065D01*
X12054Y10689D01*
X12046Y10696D01*
X12073Y10738D02*
X12081Y10735D01*
X12088Y10727D01*
X12092Y10715D01*
Y10708D01*
X12088Y10696D01*
X12081Y10689D01*
X12073Y10685D01*
X11981Y10754D02*
X11977Y10742D01*
Y10765D01*
X11981Y10754D01*
X11988Y10761D01*
X12000Y10765D01*
X12008D01*
X12019Y10761D01*
X12027Y10754D01*
X12030Y10746D01*
X12034Y10735D01*
Y10715D01*
X12030Y10704D01*
X12027Y10696D01*
X12019Y10689D01*
X12008Y10685D01*
X12000D01*
X11988Y10689D01*
X11981Y10696D01*
X12008Y10765D02*
X12015Y10761D01*
X12023Y10754D01*
X12027Y10746D01*
X12030Y10735D01*
Y10715D01*
X12027Y10704D01*
X12023Y10696D01*
X12015Y10689D01*
X12008Y10685D01*
X11981Y10715D02*
Y10685D01*
X11977Y10715D02*
Y10685D01*
X11992Y10715D02*
X11966D01*
X11944Y10765D02*
X11948Y10761D01*
X11944Y10757D01*
X11940Y10761D01*
X11944Y10765D01*
Y10738D02*
Y10685D01*
X11940Y10738D02*
Y10685D01*
X11955Y10738D02*
X11940D01*
X11955Y10685D02*
X11929D01*
X11903Y10765D02*
Y10685D01*
X11899Y10765D02*
Y10685D01*
X11914Y10765D02*
X11899D01*
X11914Y10685D02*
X11888D01*
X11862Y10765D02*
Y10685D01*
X11858Y10765D02*
Y10685D01*
X11873Y10765D02*
X11858D01*
X11873Y10685D02*
X11846D01*
X11749Y10765D02*
Y10685D01*
X11745Y10765D02*
Y10685D01*
X11760Y10765D02*
X11722D01*
X11710Y10761D01*
X11703Y10754D01*
X11699Y10746D01*
X11695Y10735D01*
Y10715D01*
X11699Y10704D01*
X11703Y10696D01*
X11710Y10689D01*
X11722Y10685D01*
X11760D01*
X11722Y10765D02*
X11714Y10761D01*
X11707Y10754D01*
X11703Y10746D01*
X11699Y10735D01*
Y10715D01*
X11703Y10704D01*
X11707Y10696D01*
X11714Y10689D01*
X11722Y10685D01*
X11673Y10765D02*
X11677Y10761D01*
X11673Y10757D01*
X11669Y10761D01*
X11673Y10765D01*
Y10738D02*
Y10685D01*
X11669Y10738D02*
Y10685D01*
X11685Y10738D02*
X11669D01*
X11685Y10685D02*
X11658D01*
X11621Y10738D02*
X11628Y10735D01*
X11632Y10731D01*
X11636Y10723D01*
Y10715D01*
X11632Y10708D01*
X11628Y10704D01*
X11621Y10700D01*
X11613D01*
X11605Y10704D01*
X11602Y10708D01*
X11598Y10715D01*
Y10723D01*
X11602Y10731D01*
X11605Y10735D01*
X11613Y10738D01*
X11621D01*
X11628Y10735D02*
X11632Y10727D01*
Y10712D01*
X11628Y10704D01*
X11605D02*
X11602Y10712D01*
Y10727D01*
X11605Y10735D01*
X11602Y10731D02*
X11598Y10735D01*
X11590Y10738D01*
Y10735D01*
X11598D01*
X11632Y10708D02*
X11636Y10704D01*
X11640Y10696D01*
Y10693D01*
X11636Y10685D01*
X11624Y10681D01*
X11605D01*
X11594Y10677D01*
X11590Y10674D01*
X11640Y10693D02*
X11636Y10689D01*
X11624Y10685D01*
X11605D01*
X11594Y10681D01*
X11590Y10674D01*
Y10670D01*
X11594Y10662D01*
X11605Y10658D01*
X11628D01*
X11640Y10662D01*
X11643Y10670D01*
Y10674D01*
X11640Y10681D01*
X11628Y10685D01*
X11567Y10765D02*
X11571Y10761D01*
X11567Y10757D01*
X11563Y10761D01*
X11567Y10765D01*
Y10738D02*
Y10685D01*
X11563Y10738D02*
Y10685D01*
X11578Y10738D02*
X11563D01*
X11578Y10685D02*
X11552D01*
X11514D02*
X11518Y10689D01*
X11522Y10700D01*
Y10765D01*
X11526D01*
Y10700D01*
X11522Y10689D01*
X11514Y10685D01*
X11507D01*
X11499Y10689D01*
X11495Y10696D01*
X11537Y10738D02*
X11507D01*
X11475Y10731D02*
Y10727D01*
X11478D01*
Y10731D01*
X11475Y10735D01*
X11467Y10738D01*
X11452D01*
X11444Y10735D01*
X11440Y10731D01*
X11437Y10723D01*
Y10696D01*
X11433Y10689D01*
X11429Y10685D01*
X11440Y10731D02*
Y10696D01*
X11437Y10689D01*
X11429Y10685D01*
X11425D01*
X11440Y10723D02*
X11444Y10719D01*
X11467Y10715D01*
X11478Y10712D01*
X11482Y10704D01*
Y10696D01*
X11478Y10689D01*
X11467Y10685D01*
X11456D01*
X11448Y10689D01*
X11440Y10696D01*
X11467Y10715D02*
X11475Y10712D01*
X11478Y10704D01*
Y10696D01*
X11475Y10689D01*
X11467Y10685D01*
X11402Y10765D02*
Y10685D01*
X11399Y10765D02*
Y10685D01*
X11414Y10765D02*
X11399D01*
X11414Y10685D02*
X11387D01*
X11270Y10761D02*
X11274Y10757D01*
X11270Y10754D01*
X11266Y10757D01*
Y10761D01*
X11270Y10765D01*
X11278D01*
X11285Y10761D01*
X11289Y10754D01*
Y10685D01*
X11278Y10765D02*
X11282Y10761D01*
X11285Y10754D01*
Y10685D01*
X11301Y10738D02*
X11270D01*
X11301Y10685D02*
X11274D01*
X11241Y10765D02*
Y10685D01*
X11237Y10765D02*
X11215Y10696D01*
X11241Y10765D02*
X11215Y10685D01*
X11188Y10765D02*
X11215Y10685D01*
X11188Y10765D02*
Y10685D01*
X11184Y10765D02*
Y10685D01*
X11253Y10765D02*
X11237D01*
X11188D02*
X11173D01*
X11253Y10685D02*
X11230D01*
X11199D02*
X11173D01*
X11152Y10765D02*
Y10708D01*
X11148Y10696D01*
X11141Y10689D01*
X11129Y10685D01*
X11122D01*
X11110Y10689D01*
X11103Y10696D01*
X11099Y10708D01*
Y10765D01*
X11148D02*
Y10708D01*
X11144Y10696D01*
X11137Y10689D01*
X11129Y10685D01*
X11164Y10765D02*
X11137D01*
X11110D02*
X11087D01*
X11070D02*
X11021Y10685D01*
X11066Y10765D02*
X11017Y10685D01*
Y10765D02*
X11070Y10685D01*
X11078Y10765D02*
X11055D01*
X11032D02*
X11009D01*
X11078Y10685D02*
X11055D01*
X11032D02*
X11009D01*
X10916Y10765D02*
Y10685D01*
X10912Y10765D02*
Y10685D01*
X10889Y10742D02*
Y10712D01*
X10927Y10765D02*
X10866D01*
Y10742D01*
X10870Y10765D01*
X10912Y10727D02*
X10889D01*
X10927Y10685D02*
X10900D01*
X10844Y10765D02*
Y10685D01*
X10840Y10765D02*
Y10685D01*
X10855Y10765D02*
X10809D01*
X10798Y10761D01*
X10794Y10757D01*
X10790Y10750D01*
Y10738D01*
X10794Y10731D01*
X10798Y10727D01*
X10809Y10723D01*
X10840D01*
X10809Y10765D02*
X10802Y10761D01*
X10798Y10757D01*
X10794Y10750D01*
Y10738D01*
X10798Y10731D01*
X10802Y10727D01*
X10809Y10723D01*
X10855Y10685D02*
X10828D01*
X10726Y10754D02*
X10722Y10742D01*
Y10765D01*
X10726Y10754D01*
X10734Y10761D01*
X10745Y10765D01*
X10753D01*
X10764Y10761D01*
X10772Y10754D01*
X10776Y10746D01*
X10780Y10735D01*
Y10715D01*
X10776Y10704D01*
X10772Y10696D01*
X10764Y10689D01*
X10753Y10685D01*
X10745D01*
X10734Y10689D01*
X10726Y10696D01*
X10753Y10765D02*
X10761Y10761D01*
X10768Y10754D01*
X10772Y10746D01*
X10776Y10735D01*
Y10715D01*
X10772Y10704D01*
X10768Y10696D01*
X10761Y10689D01*
X10753Y10685D01*
X10726Y10715D02*
Y10685D01*
X10722Y10715D02*
Y10685D01*
X10738Y10715D02*
X10711D01*
X10666Y10765D02*
X10693Y10685D01*
X10666Y10765D02*
X10640Y10685D01*
X10666Y10754D02*
X10644Y10685D01*
X10686Y10708D02*
X10651D01*
X10701Y10685D02*
X10678D01*
X10655D02*
X10632D01*
X10538Y10765D02*
Y10685D01*
X10535Y10765D02*
X10512Y10696D01*
X10538Y10765D02*
X10512Y10685D01*
X10485Y10765D02*
X10512Y10685D01*
X10485Y10765D02*
Y10685D01*
X10481Y10765D02*
Y10685D01*
X10550Y10765D02*
X10535D01*
X10485D02*
X10470D01*
X10550Y10685D02*
X10527D01*
X10497D02*
X10470D01*
X10438Y10738D02*
X10449Y10735D01*
X10457Y10727D01*
X10461Y10715D01*
Y10708D01*
X10457Y10696D01*
X10449Y10689D01*
X10438Y10685D01*
X10430D01*
X10419Y10689D01*
X10411Y10696D01*
X10407Y10708D01*
Y10715D01*
X10411Y10727D01*
X10419Y10735D01*
X10430Y10738D01*
X10438D01*
X10446Y10735D01*
X10453Y10727D01*
X10457Y10715D01*
Y10708D01*
X10453Y10696D01*
X10446Y10689D01*
X10438Y10685D01*
X10430D02*
X10423Y10689D01*
X10415Y10696D01*
X10411Y10708D01*
Y10715D01*
X10415Y10727D01*
X10423Y10735D01*
X10430Y10738D01*
X10373Y10685D02*
X10377Y10689D01*
X10380Y10700D01*
Y10765D01*
X10384D01*
Y10700D01*
X10380Y10689D01*
X10373Y10685D01*
X10365D01*
X10358Y10689D01*
X10354Y10696D01*
X10396Y10738D02*
X10365D01*
X10329Y10765D02*
Y10685D01*
X10326Y10765D02*
Y10685D01*
Y10727D02*
X10318Y10735D01*
X10307Y10738D01*
X10299D01*
X10288Y10735D01*
X10284Y10727D01*
Y10685D01*
X10299Y10738D02*
X10291Y10735D01*
X10288Y10727D01*
Y10685D01*
X10341Y10765D02*
X10326D01*
X10341Y10685D02*
X10314D01*
X10299D02*
X10272D01*
X10258Y10715D02*
X10212D01*
Y10723D01*
X10216Y10731D01*
X10220Y10735D01*
X10228Y10738D01*
X10239D01*
X10251Y10735D01*
X10258Y10727D01*
X10262Y10715D01*
Y10708D01*
X10258Y10696D01*
X10251Y10689D01*
X10239Y10685D01*
X10232D01*
X10220Y10689D01*
X10212Y10696D01*
X10216Y10715D02*
Y10727D01*
X10220Y10735D01*
X10239Y10738D02*
X10247Y10735D01*
X10254Y10727D01*
X10258Y10715D01*
Y10708D01*
X10254Y10696D01*
X10247Y10689D01*
X10239Y10685D01*
X10189Y10738D02*
Y10685D01*
X10185Y10738D02*
Y10685D01*
Y10715D02*
X10181Y10727D01*
X10174Y10735D01*
X10166Y10738D01*
X10155D01*
X10151Y10735D01*
Y10731D01*
X10155Y10727D01*
X10158Y10731D01*
X10155Y10735D01*
X10200Y10738D02*
X10185D01*
X10200Y10685D02*
X10174D01*
X10127Y10765D02*
Y10685D01*
X10123Y10765D02*
Y10685D01*
Y10727D02*
X10116Y10735D01*
X10108Y10738D01*
X10100D01*
X10089Y10735D01*
X10081Y10727D01*
X10078Y10715D01*
Y10708D01*
X10081Y10696D01*
X10089Y10689D01*
X10100Y10685D01*
X10108D01*
X10116Y10689D01*
X10123Y10696D01*
X10100Y10738D02*
X10093Y10735D01*
X10085Y10727D01*
X10081Y10715D01*
Y10708D01*
X10085Y10696D01*
X10093Y10689D01*
X10100Y10685D01*
X10139Y10765D02*
X10123D01*
X10044Y10738D02*
X10055Y10735D01*
X10063Y10727D01*
X10067Y10715D01*
Y10708D01*
X10063Y10696D01*
X10055Y10689D01*
X10044Y10685D01*
X10036D01*
X10025Y10689D01*
X10017Y10696D01*
X10013Y10708D01*
Y10715D01*
X10017Y10727D01*
X10025Y10735D01*
X10036Y10738D01*
X10044D01*
X10051Y10735D01*
X10059Y10727D01*
X10063Y10715D01*
Y10708D01*
X10059Y10696D01*
X10051Y10689D01*
X10044Y10685D01*
X10036D02*
X10029Y10689D01*
X10021Y10696D01*
X10017Y10708D01*
Y10715D01*
X10021Y10727D01*
X10029Y10735D01*
X10036Y10738D01*
X9994Y10731D02*
Y10727D01*
X9998D01*
Y10731D01*
X9994Y10735D01*
X9986Y10738D01*
X9971D01*
X9963Y10735D01*
X9960Y10731D01*
X9956Y10723D01*
Y10696D01*
X9952Y10689D01*
X9948Y10685D01*
X9960Y10731D02*
Y10696D01*
X9956Y10689D01*
X9948Y10685D01*
X9944D01*
X9960Y10723D02*
X9963Y10719D01*
X9986Y10715D01*
X9998Y10712D01*
X10001Y10704D01*
Y10696D01*
X9998Y10689D01*
X9986Y10685D01*
X9975D01*
X9967Y10689D01*
X9960Y10696D01*
X9986Y10715D02*
X9994Y10712D01*
X9998Y10704D01*
Y10696D01*
X9994Y10689D01*
X9986Y10685D01*
X9921Y10738D02*
Y10685D01*
X9918Y10738D02*
Y10685D01*
Y10715D02*
X9914Y10727D01*
X9906Y10735D01*
X9899Y10738D01*
X9887D01*
X9883Y10735D01*
Y10731D01*
X9887Y10727D01*
X9891Y10731D01*
X9887Y10735D01*
X9933Y10738D02*
X9918D01*
X9933Y10685D02*
X9906D01*
X9826Y10765D02*
Y10685D01*
X9822Y10765D02*
Y10685D01*
X9826Y10727D02*
X9833Y10735D01*
X9841Y10738D01*
X9848D01*
X9860Y10735D01*
X9867Y10727D01*
X9871Y10715D01*
Y10708D01*
X9867Y10696D01*
X9860Y10689D01*
X9848Y10685D01*
X9841D01*
X9833Y10689D01*
X9826Y10696D01*
X9848Y10738D02*
X9856Y10735D01*
X9864Y10727D01*
X9867Y10715D01*
Y10708D01*
X9864Y10696D01*
X9856Y10689D01*
X9848Y10685D01*
X9837Y10765D02*
X9822D01*
X9826Y10685D02*
X9810D01*
D83*
X8853Y11718D02*
X8860Y11725D01*
X8873D01*
X8880Y11718D01*
Y11712D01*
X8873Y11705D01*
X8860D01*
X8853Y11698D01*
Y11692D01*
X8860Y11685D01*
X8873D01*
X8880Y11692D01*
X8813Y11725D02*
X8840D01*
Y11685D01*
X8813D01*
X8840Y11705D02*
X8827D01*
X8800Y11685D02*
Y11725D01*
X8780D01*
X8773Y11718D01*
Y11705D01*
X8780Y11698D01*
X8800D01*
X8787D02*
X8773Y11685D01*
X8760Y11725D02*
X8747D01*
X8753D01*
Y11685D01*
X8760D01*
X8747D01*
X8727D02*
Y11712D01*
X8713Y11725D01*
X8700Y11712D01*
Y11685D01*
Y11705D01*
X8727D01*
X8687Y11725D02*
Y11685D01*
X8660D01*
X8580Y11718D02*
X8587Y11725D01*
X8600D01*
X8607Y11718D01*
Y11692D01*
X8600Y11685D01*
X8587D01*
X8580Y11692D01*
X8547Y11725D02*
X8560D01*
X8567Y11718D01*
Y11692D01*
X8560Y11685D01*
X8547D01*
X8540Y11692D01*
Y11718D01*
X8547Y11725D01*
X8527Y11685D02*
Y11725D01*
X8513Y11712D01*
X8500Y11725D01*
Y11685D01*
X8487D02*
Y11725D01*
X8473Y11712D01*
X8460Y11725D01*
Y11685D01*
X7133Y11838D02*
X7140Y11845D01*
X7153D01*
X7160Y11838D01*
Y11832D01*
X7153Y11825D01*
X7140D01*
X7133Y11818D01*
Y11812D01*
X7140Y11805D01*
X7153D01*
X7160Y11812D01*
X7093D02*
Y11838D01*
X7100Y11845D01*
X7113D01*
X7120Y11838D01*
Y11812D01*
X7113Y11805D01*
X7100D01*
X7107Y11818D02*
X7093Y11805D01*
X7100D02*
X7093Y11812D01*
X7080Y11845D02*
Y11812D01*
X7073Y11805D01*
X7060D01*
X7053Y11812D01*
Y11845D01*
X7040D02*
X7027D01*
X7033D01*
Y11805D01*
X7040D01*
X7027D01*
X7007Y11845D02*
Y11805D01*
X6987D01*
X6980Y11812D01*
Y11838D01*
X6987Y11845D01*
X7007D01*
X6900Y11838D02*
X6907Y11845D01*
X6920D01*
X6927Y11838D01*
Y11812D01*
X6920Y11805D01*
X6907D01*
X6900Y11812D01*
X6887Y11845D02*
X6860D01*
X6873D01*
Y11805D01*
X6847D02*
Y11845D01*
X6827D01*
X6820Y11838D01*
Y11825D01*
X6827Y11818D01*
X6847D01*
X6833D02*
X6820Y11805D01*
X6807Y11845D02*
Y11805D01*
X6780D01*
X9895Y11910D02*
Y11950D01*
X9875D01*
X9868Y11943D01*
Y11930D01*
X9875Y11923D01*
X9895D01*
X9848Y11910D02*
X9835D01*
X9828Y11917D01*
Y11930D01*
X9835Y11937D01*
X9848D01*
X9855Y11930D01*
Y11917D01*
X9848Y11910D01*
X9815Y11937D02*
Y11917D01*
X9808Y11910D01*
X9802Y11917D01*
X9795Y11910D01*
X9788Y11917D01*
Y11937D01*
X9755Y11910D02*
X9768D01*
X9775Y11917D01*
Y11930D01*
X9768Y11937D01*
X9755D01*
X9748Y11930D01*
Y11923D01*
X9775D01*
X9735Y11937D02*
Y11910D01*
Y11923D01*
X9728Y11930D01*
X9722Y11937D01*
X9715D01*
X9628Y11943D02*
X9635Y11950D01*
X9648D01*
X9655Y11943D01*
Y11917D01*
X9648Y11910D01*
X9635D01*
X9628Y11917D01*
Y11930D01*
X9642D01*
X9608Y11910D02*
X9595D01*
X9588Y11917D01*
Y11930D01*
X9595Y11937D01*
X9608D01*
X9615Y11930D01*
Y11917D01*
X9608Y11910D01*
X9568D02*
X9555D01*
X9548Y11917D01*
Y11930D01*
X9555Y11937D01*
X9568D01*
X9575Y11930D01*
Y11917D01*
X9568Y11910D01*
X9508Y11950D02*
Y11910D01*
X9528D01*
X9535Y11917D01*
Y11930D01*
X9528Y11937D01*
X9508D01*
X9442Y11910D02*
X9455Y11923D01*
Y11937D01*
X9442Y11950D01*
X9395Y11943D02*
X9402Y11950D01*
X9415D01*
X9422Y11943D01*
Y11917D01*
X9415Y11910D01*
X9402D01*
X9395Y11917D01*
Y11930D01*
X9408D01*
X9382Y11910D02*
X9369Y11923D01*
Y11937D01*
X9382Y11950D01*
X9868Y11885D02*
X9895D01*
Y11845D01*
X9868D01*
X9895Y11865D02*
X9882D01*
X9855Y11885D02*
X9828D01*
X9842D01*
Y11845D01*
X9815Y11885D02*
Y11845D01*
Y11865D01*
X9788D01*
Y11885D01*
Y11845D01*
X9748Y11885D02*
X9775D01*
Y11845D01*
X9748D01*
X9775Y11865D02*
X9762D01*
X9735Y11845D02*
Y11885D01*
X9715D01*
X9708Y11878D01*
Y11865D01*
X9715Y11858D01*
X9735D01*
X9722D02*
X9708Y11845D01*
X9695D02*
Y11885D01*
X9668Y11845D01*
Y11885D01*
X9628D02*
X9655D01*
Y11845D01*
X9628D01*
X9655Y11865D02*
X9642D01*
X9615Y11885D02*
X9588D01*
X9602D01*
Y11845D01*
X9535D02*
Y11885D01*
X9515D01*
X9508Y11878D01*
Y11865D01*
X9515Y11858D01*
X9535D01*
X9522D02*
X9508Y11845D01*
X9495Y11885D02*
X9468Y11845D01*
Y11885D02*
X9495Y11845D01*
X9402D02*
X9415Y11858D01*
Y11872D01*
X9402Y11885D01*
X9355Y11878D02*
X9362Y11885D01*
X9375D01*
X9382Y11878D01*
Y11852D01*
X9375Y11845D01*
X9362D01*
X9355Y11852D01*
Y11865D01*
X9369D01*
X9342Y11845D02*
X9329Y11858D01*
Y11872D01*
X9342Y11885D01*
X9868Y11815D02*
X9895D01*
Y11775D01*
X9868D01*
X9895Y11795D02*
X9882D01*
X9855Y11815D02*
X9828D01*
X9842D01*
Y11775D01*
X9815Y11815D02*
Y11775D01*
Y11795D01*
X9788D01*
Y11815D01*
Y11775D01*
X9748Y11815D02*
X9775D01*
Y11775D01*
X9748D01*
X9775Y11795D02*
X9762D01*
X9735Y11775D02*
Y11815D01*
X9715D01*
X9708Y11808D01*
Y11795D01*
X9715Y11788D01*
X9735D01*
X9722D02*
X9708Y11775D01*
X9695D02*
Y11815D01*
X9668Y11775D01*
Y11815D01*
X9628D02*
X9655D01*
Y11775D01*
X9628D01*
X9655Y11795D02*
X9642D01*
X9615Y11815D02*
X9588D01*
X9602D01*
Y11775D01*
X9535Y11815D02*
X9508D01*
X9522D01*
Y11775D01*
X9495Y11815D02*
X9468Y11775D01*
Y11815D02*
X9495Y11775D01*
X9402D02*
X9415Y11788D01*
Y11802D01*
X9402Y11815D01*
X9355Y11808D02*
X9362Y11815D01*
X9375D01*
X9382Y11808D01*
Y11782D01*
X9375Y11775D01*
X9362D01*
X9355Y11782D01*
Y11795D01*
X9369D01*
X9342Y11775D02*
X9329Y11788D01*
Y11802D01*
X9342Y11815D01*
X10105Y11945D02*
Y11905D01*
X10078D01*
X10038Y11945D02*
X10065D01*
Y11905D01*
X10038D01*
X10065Y11925D02*
X10052D01*
X10025Y11945D02*
Y11905D01*
X10005D01*
X9998Y11912D01*
Y11938D01*
X10005Y11945D01*
X10025D01*
X9985Y11905D02*
X9965D01*
X9958Y11912D01*
X9965Y11918D01*
X9978D01*
X9985Y11925D01*
X9978Y11932D01*
X9958D01*
X9945D02*
X9938D01*
Y11925D01*
X9945D01*
Y11932D01*
Y11912D02*
X9938D01*
Y11905D01*
X9945D01*
Y11912D01*
X11433Y11750D02*
X11460D01*
Y11710D01*
X11433D01*
X11460Y11730D02*
X11447D01*
X11420Y11750D02*
X11393D01*
X11407D01*
Y11710D01*
X11380Y11750D02*
Y11710D01*
Y11730D01*
X11353D01*
Y11750D01*
Y11710D01*
X11313Y11750D02*
X11340D01*
Y11710D01*
X11313D01*
X11340Y11730D02*
X11327D01*
X11300Y11710D02*
Y11750D01*
X11280D01*
X11273Y11743D01*
Y11730D01*
X11280Y11723D01*
X11300D01*
X11287D02*
X11273Y11710D01*
X11260D02*
Y11750D01*
X11233Y11710D01*
Y11750D01*
X11193D02*
X11220D01*
Y11710D01*
X11193D01*
X11220Y11730D02*
X11207D01*
X11180Y11750D02*
X11153D01*
X11167D01*
Y11710D01*
X12390Y12110D02*
Y12150D01*
X12370D01*
X12363Y12143D01*
Y12130D01*
X12370Y12123D01*
X12390D01*
X12350Y12110D02*
Y12150D01*
X12330D01*
X12323Y12143D01*
Y12130D01*
X12330Y12123D01*
X12350D01*
X12337D02*
X12323Y12110D01*
X12290Y12150D02*
X12303D01*
X12310Y12143D01*
Y12117D01*
X12303Y12110D01*
X12290D01*
X12283Y12117D01*
Y12143D01*
X12290Y12150D01*
X12243Y12143D02*
X12250Y12150D01*
X12263D01*
X12270Y12143D01*
Y12117D01*
X12263Y12110D01*
X12250D01*
X12243Y12117D01*
Y12130D01*
X12257D01*
X12330Y12030D02*
Y11990D01*
X12303D01*
X12263Y12030D02*
X12290D01*
Y11990D01*
X12263D01*
X12290Y12010D02*
X12277D01*
X12250Y12030D02*
Y11990D01*
X12230D01*
X12223Y11997D01*
Y12023D01*
X12230Y12030D01*
X12250D01*
X12210Y11990D02*
X12190D01*
X12183Y11997D01*
X12190Y12003D01*
X12203D01*
X12210Y12010D01*
X12203Y12017D01*
X12183D01*
X12170D02*
X12163D01*
Y12010D01*
X12170D01*
Y12017D01*
Y11997D02*
X12163D01*
Y11990D01*
X12170D01*
Y11997D01*
X12525Y11760D02*
Y11795D01*
X12508D01*
X12502Y11789D01*
Y11777D01*
X12508Y11772D01*
X12525D01*
X12490Y11760D02*
Y11795D01*
X12473D01*
X12467Y11789D01*
Y11777D01*
X12473Y11772D01*
X12490D01*
X12478D02*
X12467Y11760D01*
X12438Y11795D02*
X12449D01*
X12455Y11789D01*
Y11766D01*
X12449Y11760D01*
X12438D01*
X12432Y11766D01*
Y11789D01*
X12438Y11795D01*
X12397Y11789D02*
X12403Y11795D01*
X12414D01*
X12420Y11789D01*
Y11766D01*
X12414Y11760D01*
X12403D01*
X12397Y11766D01*
Y11777D01*
X12408D01*
X12350Y11795D02*
Y11760D01*
X12333D01*
X12327Y11766D01*
Y11789D01*
X12333Y11795D01*
X12350D01*
X12298D02*
X12309D01*
X12315Y11789D01*
Y11766D01*
X12309Y11760D01*
X12298D01*
X12292Y11766D01*
Y11789D01*
X12298Y11795D01*
X12280Y11760D02*
Y11795D01*
X12257Y11760D01*
Y11795D01*
X12222D02*
X12245D01*
Y11760D01*
X12222D01*
X12245Y11777D02*
X12233D01*
X12163Y11760D02*
X12175Y11772D01*
Y11783D01*
X12163Y11795D01*
X12123Y11789D02*
X12128Y11795D01*
X12140D01*
X12146Y11789D01*
Y11766D01*
X12140Y11760D01*
X12128D01*
X12123Y11766D01*
Y11777D01*
X12134D01*
X12111Y11760D02*
X12099Y11772D01*
Y11783D01*
X12111Y11795D01*
X12517Y11940D02*
X12540D01*
Y11922D01*
X12528D01*
X12540D01*
Y11905D01*
X12505D02*
Y11940D01*
X12488D01*
X12482Y11934D01*
Y11922D01*
X12488Y11917D01*
X12505D01*
X12447Y11934D02*
X12453Y11940D01*
X12464D01*
X12470Y11934D01*
Y11911D01*
X12464Y11905D01*
X12453D01*
X12447Y11911D01*
Y11922D01*
X12458D01*
X12435Y11905D02*
Y11928D01*
X12423Y11940D01*
X12412Y11928D01*
Y11905D01*
Y11922D01*
X12435D01*
X12365Y11940D02*
X12353D01*
X12359D01*
Y11905D01*
X12365D01*
X12353D01*
X12336D02*
Y11940D01*
X12313Y11905D01*
Y11940D01*
X12301D02*
X12289D01*
X12295D01*
Y11905D01*
X12301D01*
X12289D01*
X12272Y11940D02*
X12248D01*
X12260D01*
Y11905D01*
X12190D02*
X12202Y11917D01*
Y11928D01*
X12190Y11940D01*
X12173Y11905D02*
Y11940D01*
X12155D01*
X12149Y11934D01*
Y11922D01*
X12155Y11917D01*
X12173D01*
X12161D02*
X12149Y11905D01*
X12138D02*
X12126Y11917D01*
Y11928D01*
X12138Y11940D01*
X12535Y11865D02*
Y11830D01*
X12512D01*
X12500Y11865D02*
X12488D01*
X12494D01*
Y11830D01*
X12500D01*
X12488D01*
X12471Y11865D02*
X12448D01*
X12459D01*
Y11830D01*
X12401Y11865D02*
X12378D01*
X12389D01*
Y11830D01*
X12348Y11865D02*
X12360D01*
X12366Y11859D01*
Y11836D01*
X12360Y11830D01*
X12348D01*
X12343Y11836D01*
Y11859D01*
X12348Y11865D01*
X12273Y11859D02*
X12278Y11865D01*
X12290D01*
X12296Y11859D01*
Y11853D01*
X12290Y11847D01*
X12278D01*
X12273Y11842D01*
Y11836D01*
X12278Y11830D01*
X12290D01*
X12296Y11836D01*
X12261Y11865D02*
Y11830D01*
X12238D01*
X12226D02*
Y11853D01*
X12214Y11865D01*
X12203Y11853D01*
Y11830D01*
Y11847D01*
X12226D01*
X12191Y11865D02*
Y11842D01*
X12179Y11830D01*
X12168Y11842D01*
Y11865D01*
X12133D02*
X12156D01*
Y11830D01*
X12133D01*
X12156Y11847D02*
X12144D01*
X12074Y11830D02*
X12086Y11842D01*
Y11853D01*
X12074Y11865D01*
X12057D02*
Y11859D01*
X12045Y11847D01*
X12033Y11859D01*
Y11865D01*
X12045Y11847D02*
Y11830D01*
X12022D02*
X12010Y11842D01*
Y11853D01*
X12022Y11865D01*
X10485Y10350D02*
X10505Y10370D01*
X10485Y10390D01*
X10425Y10350D02*
X10405D01*
X10398Y10357D01*
X10405Y10363D01*
X10418D01*
X10425Y10370D01*
X10418Y10377D01*
X10398D01*
X10378Y10383D02*
Y10377D01*
X10385D01*
X10372D01*
X10378D01*
Y10357D01*
X10372Y10350D01*
X10345Y10377D02*
X10332D01*
X10325Y10370D01*
Y10350D01*
X10345D01*
X10352Y10357D01*
X10345Y10363D01*
X10325D01*
X10312Y10377D02*
Y10350D01*
Y10363D01*
X10305Y10370D01*
X10298Y10377D01*
X10292D01*
X10272Y10350D02*
X10258D01*
X10265D01*
Y10377D01*
X10272D01*
X10238Y10350D02*
Y10377D01*
X10218D01*
X10212Y10370D01*
Y10350D01*
X10198D02*
X10178D01*
X10172Y10357D01*
X10178Y10363D01*
X10192D01*
X10198Y10370D01*
X10192Y10377D01*
X10172D01*
X10158Y10350D02*
Y10390D01*
Y10363D02*
X10138Y10377D01*
X10158Y10363D02*
X10138Y10350D01*
X10118Y10377D02*
Y10357D01*
X10112Y10350D01*
X10092D01*
Y10343D01*
X10098Y10337D01*
X10105D01*
X10092Y10350D02*
Y10377D01*
X10058Y10363D02*
Y10370D01*
X10065D01*
Y10363D01*
X10058D01*
X10052Y10370D01*
Y10383D01*
X10058Y10390D01*
X10072D01*
X10078Y10383D01*
Y10357D01*
X10072Y10350D01*
X10052D01*
X10038D02*
X10025D01*
X10032D01*
Y10390D01*
X10038D01*
X10005Y10337D02*
Y10377D01*
X9985D01*
X9979Y10370D01*
Y10357D01*
X9985Y10350D01*
X10005D01*
X9965D02*
X9945D01*
X9939Y10357D01*
X9945Y10363D01*
X9959D01*
X9965Y10370D01*
X9959Y10377D01*
X9939D01*
X9925Y10350D02*
Y10357D01*
X9919D01*
Y10350D01*
X9925D01*
X9892Y10377D02*
Y10357D01*
X9885Y10350D01*
X9865D01*
Y10377D01*
X9852Y10350D02*
Y10377D01*
X9845D01*
X9839Y10370D01*
Y10350D01*
Y10370D01*
X9832Y10377D01*
X9825Y10370D01*
Y10350D01*
X9805D02*
X9792D01*
X9785Y10357D01*
Y10370D01*
X9792Y10377D01*
X9805D01*
X9812Y10370D01*
Y10357D01*
X9805Y10350D01*
X9772D02*
Y10377D01*
X9752D01*
X9745Y10370D01*
Y10350D01*
X9725Y10383D02*
Y10377D01*
X9732D01*
X9719D01*
X9725D01*
Y10357D01*
X9719Y10350D01*
X9699Y10377D02*
Y10350D01*
Y10363D01*
X9692Y10370D01*
X9685Y10377D01*
X9679D01*
X9639Y10350D02*
X9652D01*
X9659Y10357D01*
Y10370D01*
X9652Y10377D01*
X9639D01*
X9632Y10370D01*
Y10363D01*
X9659D01*
X9612Y10377D02*
X9599D01*
X9592Y10370D01*
Y10350D01*
X9612D01*
X9619Y10357D01*
X9612Y10363D01*
X9592D01*
X9579Y10350D02*
X9565D01*
X9572D01*
Y10390D01*
X9579D01*
X9545Y10350D02*
Y10357D01*
X9539D01*
Y10350D01*
X9545D01*
X9485Y10377D02*
X9505D01*
X9512Y10370D01*
Y10357D01*
X9505Y10350D01*
X9485D01*
X9465Y10377D02*
X9452D01*
X9445Y10370D01*
Y10350D01*
X9465D01*
X9472Y10357D01*
X9465Y10363D01*
X9445D01*
X9392Y10350D02*
X9372Y10370D01*
X9392Y10390D01*
X10905Y10455D02*
X10925Y10475D01*
X10905Y10495D01*
X10845Y10455D02*
Y10482D01*
X10838D01*
X10832Y10475D01*
Y10455D01*
Y10475D01*
X10825Y10482D01*
X10818Y10475D01*
Y10455D01*
X10798Y10482D02*
X10785D01*
X10778Y10475D01*
Y10455D01*
X10798D01*
X10805Y10462D01*
X10798Y10468D01*
X10778D01*
X10758Y10488D02*
Y10482D01*
X10765D01*
X10752D01*
X10758D01*
Y10462D01*
X10752Y10455D01*
X10725Y10488D02*
Y10482D01*
X10732D01*
X10718D01*
X10725D01*
Y10462D01*
X10718Y10455D01*
X10698D02*
Y10462D01*
X10692D01*
Y10455D01*
X10698D01*
X10638Y10495D02*
Y10455D01*
X10658D01*
X10665Y10462D01*
Y10475D01*
X10658Y10482D01*
X10638D01*
X10618Y10455D02*
X10605D01*
X10598Y10462D01*
Y10475D01*
X10605Y10482D01*
X10618D01*
X10625Y10475D01*
Y10462D01*
X10618Y10455D01*
X10585Y10495D02*
Y10455D01*
X10565D01*
X10558Y10462D01*
Y10468D01*
Y10475D01*
X10565Y10482D01*
X10585D01*
X10545Y10495D02*
Y10455D01*
X10525D01*
X10518Y10462D01*
Y10468D01*
Y10475D01*
X10525Y10482D01*
X10545D01*
X10505Y10455D02*
X10485D01*
X10478Y10462D01*
X10485Y10468D01*
X10498D01*
X10505Y10475D01*
X10498Y10482D01*
X10478D01*
X10445Y10468D02*
Y10475D01*
X10452D01*
Y10468D01*
X10445D01*
X10438Y10475D01*
Y10488D01*
X10445Y10495D01*
X10458D01*
X10465Y10488D01*
Y10462D01*
X10458Y10455D01*
X10438D01*
X10425D02*
Y10482D01*
X10418D01*
X10412Y10475D01*
Y10455D01*
Y10475D01*
X10405Y10482D01*
X10399Y10475D01*
Y10455D01*
X10359Y10482D02*
X10379D01*
X10385Y10475D01*
Y10462D01*
X10379Y10455D01*
X10359D01*
X10332Y10442D02*
X10325D01*
X10319Y10448D01*
Y10482D01*
X10339D01*
X10345Y10475D01*
Y10462D01*
X10339Y10455D01*
X10319D01*
X10305D02*
X10292D01*
X10299D01*
Y10482D01*
X10305D01*
X10272Y10455D02*
X10259D01*
X10265D01*
Y10495D01*
X10272D01*
X10239Y10455D02*
X10225D01*
X10232D01*
Y10495D01*
X10239D01*
X10205Y10455D02*
Y10462D01*
X10199D01*
Y10455D01*
X10205D01*
X10145Y10482D02*
X10165D01*
X10172Y10475D01*
Y10462D01*
X10165Y10455D01*
X10145D01*
X10125Y10482D02*
X10112D01*
X10105Y10475D01*
Y10455D01*
X10125D01*
X10132Y10462D01*
X10125Y10468D01*
X10105D01*
X10052Y10455D02*
X10032Y10475D01*
X10052Y10495D01*
X12171Y10410D02*
Y10350D01*
X12169Y10410D02*
X12134Y10356D01*
X12169Y10404D02*
X12134Y10350D01*
Y10410D02*
Y10350D01*
X12180Y10410D02*
X12169D01*
X12143D02*
X12126D01*
X12180Y10350D02*
X12163D01*
X12115Y10356D02*
X12118Y10353D01*
X12115Y10350D01*
X12113Y10353D01*
X12115Y10356D01*
X12063Y10401D02*
X12060Y10410D01*
Y10393D01*
X12063Y10401D01*
X12069Y10407D01*
X12077Y10410D01*
X12086D01*
X12095Y10407D01*
X12100Y10401D01*
Y10396D01*
X12097Y10390D01*
X12095Y10387D01*
X12089Y10384D01*
X12072Y10379D01*
X12066Y10376D01*
X12060Y10370D01*
X12100Y10396D02*
X12095Y10390D01*
X12089Y10387D01*
X12072Y10381D01*
X12066Y10379D01*
X12063Y10376D01*
X12060Y10370D01*
Y10359D01*
X12066Y10353D01*
X12075Y10350D01*
X12083D01*
X12092Y10353D01*
X12097Y10359D01*
X12100Y10367D01*
Y10350D01*
X12097Y10359D01*
X12034Y10350D02*
X12037Y10353D01*
X12040Y10361D01*
Y10410D01*
X12043D01*
Y10361D01*
X12040Y10353D01*
X12034Y10350D01*
X12029D01*
X12023Y10353D01*
X12020Y10359D01*
X12051Y10390D02*
X12029D01*
X12005Y10384D02*
Y10381D01*
X12007D01*
Y10384D01*
X12005Y10387D01*
X11999Y10390D01*
X11987D01*
X11982Y10387D01*
X11979Y10384D01*
X11976Y10379D01*
Y10359D01*
X11973Y10353D01*
X11970Y10350D01*
X11979Y10384D02*
Y10359D01*
X11976Y10353D01*
X11970Y10350D01*
X11967D01*
X11979Y10379D02*
X11982Y10376D01*
X11999Y10373D01*
X12007Y10370D01*
X12010Y10364D01*
Y10359D01*
X12007Y10353D01*
X11999Y10350D01*
X11990D01*
X11985Y10353D01*
X11979Y10359D01*
X11999Y10373D02*
X12005Y10370D01*
X12007Y10364D01*
Y10359D01*
X12005Y10353D01*
X11999Y10350D01*
X11950Y10390D02*
Y10350D01*
X11947Y10390D02*
Y10350D01*
Y10373D02*
X11945Y10381D01*
X11939Y10387D01*
X11933Y10390D01*
X11925D01*
X11922Y10387D01*
Y10384D01*
X11925Y10381D01*
X11927Y10384D01*
X11925Y10387D01*
X11959Y10390D02*
X11947D01*
X11959Y10350D02*
X11939D01*
X11904Y10410D02*
X11907Y10407D01*
X11904Y10404D01*
X11901Y10407D01*
X11904Y10410D01*
Y10390D02*
Y10350D01*
X11901Y10390D02*
Y10350D01*
X11913Y10390D02*
X11901D01*
X11913Y10350D02*
X11893D01*
X11873Y10390D02*
Y10350D01*
X11870Y10390D02*
Y10350D01*
Y10381D02*
X11865Y10387D01*
X11856Y10390D01*
X11850D01*
X11842Y10387D01*
X11839Y10381D01*
Y10350D01*
X11850Y10390D02*
X11845Y10387D01*
X11842Y10381D01*
Y10350D01*
X11882Y10390D02*
X11870D01*
X11882Y10350D02*
X11862D01*
X11850D02*
X11830D01*
X11794Y10384D02*
X11791Y10390D01*
Y10379D01*
X11794Y10384D01*
X11797Y10387D01*
X11803Y10390D01*
X11814D01*
X11820Y10387D01*
X11823Y10384D01*
Y10379D01*
X11820Y10376D01*
X11814Y10373D01*
X11800Y10367D01*
X11794Y10364D01*
X11791Y10361D01*
X11823Y10381D02*
X11820Y10379D01*
X11814Y10376D01*
X11800Y10370D01*
X11794Y10367D01*
X11791Y10364D01*
Y10356D01*
X11794Y10353D01*
X11800Y10350D01*
X11811D01*
X11817Y10353D01*
X11820Y10356D01*
X11823Y10361D01*
Y10350D01*
X11820Y10356D01*
X11773Y10410D02*
Y10350D01*
X11770Y10410D02*
Y10350D01*
X11742Y10390D02*
X11770Y10361D01*
X11756Y10373D02*
X11739Y10350D01*
X11759Y10373D02*
X11742Y10350D01*
X11782Y10410D02*
X11770D01*
X11750Y10390D02*
X11733D01*
X11782Y10350D02*
X11762D01*
X11750D02*
X11733D01*
X11716Y10410D02*
X11719Y10407D01*
X11716Y10404D01*
X11714Y10407D01*
X11716Y10410D01*
Y10390D02*
Y10350D01*
X11714Y10390D02*
Y10350D01*
X11725Y10390D02*
X11714D01*
X11725Y10350D02*
X11705D01*
X11691D02*
X11694Y10353D01*
X11691Y10356D01*
X11688Y10353D01*
Y10347D01*
X11691Y10341D01*
X11694Y10339D01*
X11614Y10410D02*
Y10367D01*
X11611Y10359D01*
X11605Y10353D01*
X11596Y10350D01*
X11591D01*
X11582Y10353D01*
X11576Y10359D01*
X11574Y10367D01*
Y10410D01*
X11611D02*
Y10367D01*
X11608Y10359D01*
X11602Y10353D01*
X11596Y10350D01*
X11622Y10410D02*
X11602D01*
X11582D02*
X11565D01*
X11549Y10390D02*
Y10350D01*
X11546Y10390D02*
Y10350D01*
Y10381D02*
X11541Y10387D01*
X11532Y10390D01*
X11526D01*
X11518Y10387D01*
X11515Y10381D01*
Y10350D01*
X11526Y10390D02*
X11521Y10387D01*
X11518Y10381D01*
Y10350D01*
X11558Y10390D02*
X11546D01*
X11558Y10350D02*
X11538D01*
X11526D02*
X11506D01*
X11490Y10410D02*
X11493Y10407D01*
X11490Y10404D01*
X11487Y10407D01*
X11490Y10410D01*
Y10390D02*
Y10350D01*
X11487Y10390D02*
Y10350D01*
X11499Y10390D02*
X11487D01*
X11499Y10350D02*
X11479D01*
X11462Y10390D02*
X11445Y10350D01*
X11459Y10390D02*
X11445Y10356D01*
X11428Y10390D02*
X11445Y10350D01*
X11468Y10390D02*
X11451D01*
X11439D02*
X11422D01*
X11411Y10373D02*
X11377D01*
Y10379D01*
X11380Y10384D01*
X11382Y10387D01*
X11388Y10390D01*
X11397D01*
X11405Y10387D01*
X11411Y10381D01*
X11414Y10373D01*
Y10367D01*
X11411Y10359D01*
X11405Y10353D01*
X11397Y10350D01*
X11391D01*
X11382Y10353D01*
X11377Y10359D01*
X11380Y10373D02*
Y10381D01*
X11382Y10387D01*
X11397Y10390D02*
X11402Y10387D01*
X11408Y10381D01*
X11411Y10373D01*
Y10367D01*
X11408Y10359D01*
X11402Y10353D01*
X11397Y10350D01*
X11359Y10390D02*
Y10350D01*
X11356Y10390D02*
Y10350D01*
Y10373D02*
X11353Y10381D01*
X11348Y10387D01*
X11342Y10390D01*
X11333D01*
X11330Y10387D01*
Y10384D01*
X11333Y10381D01*
X11336Y10384D01*
X11333Y10387D01*
X11368Y10390D02*
X11356D01*
X11368Y10350D02*
X11348D01*
X11293Y10384D02*
X11290Y10390D01*
Y10379D01*
X11293Y10384D01*
X11296Y10387D01*
X11301Y10390D01*
X11313D01*
X11318Y10387D01*
X11321Y10384D01*
Y10379D01*
X11318Y10376D01*
X11313Y10373D01*
X11298Y10367D01*
X11293Y10364D01*
X11290Y10361D01*
X11321Y10381D02*
X11318Y10379D01*
X11313Y10376D01*
X11298Y10370D01*
X11293Y10367D01*
X11290Y10364D01*
Y10356D01*
X11293Y10353D01*
X11298Y10350D01*
X11310D01*
X11316Y10353D01*
X11318Y10356D01*
X11321Y10361D01*
Y10350D01*
X11318Y10356D01*
X11272Y10410D02*
X11274Y10407D01*
X11272Y10404D01*
X11269Y10407D01*
X11272Y10410D01*
Y10390D02*
Y10350D01*
X11269Y10390D02*
Y10350D01*
X11280Y10390D02*
X11269D01*
X11280Y10350D02*
X11260D01*
X11232D02*
X11235Y10353D01*
X11238Y10361D01*
Y10410D01*
X11241D01*
Y10361D01*
X11238Y10353D01*
X11232Y10350D01*
X11226D01*
X11221Y10353D01*
X11218Y10359D01*
X11249Y10390D02*
X11226D01*
X11202D02*
X11185Y10350D01*
X11200Y10390D02*
X11185Y10356D01*
X11168Y10390D02*
X11185Y10350D01*
X11191Y10339D01*
X11197Y10333D01*
X11202Y10330D01*
X11205D01*
X11208Y10333D01*
X11205Y10336D01*
X11202Y10333D01*
X11208Y10390D02*
X11191D01*
X11180D02*
X11163D01*
X11083D02*
X11092Y10387D01*
X11097Y10381D01*
X11100Y10373D01*
Y10367D01*
X11097Y10359D01*
X11092Y10353D01*
X11083Y10350D01*
X11077D01*
X11069Y10353D01*
X11063Y10359D01*
X11060Y10367D01*
Y10373D01*
X11063Y10381D01*
X11069Y10387D01*
X11077Y10390D01*
X11083D01*
X11089Y10387D01*
X11095Y10381D01*
X11097Y10373D01*
Y10367D01*
X11095Y10359D01*
X11089Y10353D01*
X11083Y10350D01*
X11077D02*
X11072Y10353D01*
X11066Y10359D01*
X11063Y10367D01*
Y10373D01*
X11066Y10381D01*
X11072Y10387D01*
X11077Y10390D01*
X11029Y10407D02*
X11031Y10404D01*
X11029Y10401D01*
X11026Y10404D01*
Y10407D01*
X11029Y10410D01*
X11034D01*
X11040Y10407D01*
X11043Y10401D01*
Y10350D01*
X11034Y10410D02*
X11037Y10407D01*
X11040Y10401D01*
Y10350D01*
X11051Y10390D02*
X11029D01*
X11051Y10350D02*
X11031D01*
X10953Y10410D02*
Y10350D01*
X10950Y10410D02*
X10933Y10359D01*
X10953Y10410D02*
X10933Y10350D01*
X10913Y10410D02*
X10933Y10350D01*
X10913Y10410D02*
Y10350D01*
X10910Y10410D02*
Y10350D01*
X10961Y10410D02*
X10950D01*
X10913D02*
X10901D01*
X10961Y10350D02*
X10944D01*
X10921D02*
X10901D01*
X10877Y10390D02*
X10886Y10387D01*
X10892Y10381D01*
X10895Y10373D01*
Y10367D01*
X10892Y10359D01*
X10886Y10353D01*
X10877Y10350D01*
X10872D01*
X10863Y10353D01*
X10857Y10359D01*
X10855Y10367D01*
Y10373D01*
X10857Y10381D01*
X10863Y10387D01*
X10872Y10390D01*
X10877D01*
X10883Y10387D01*
X10889Y10381D01*
X10892Y10373D01*
Y10367D01*
X10889Y10359D01*
X10883Y10353D01*
X10877Y10350D01*
X10872D02*
X10866Y10353D01*
X10860Y10359D01*
X10857Y10367D01*
Y10373D01*
X10860Y10381D01*
X10866Y10387D01*
X10872Y10390D01*
X10837D02*
Y10350D01*
X10834Y10390D02*
Y10350D01*
Y10381D02*
X10829Y10387D01*
X10820Y10390D01*
X10814D01*
X10806Y10387D01*
X10803Y10381D01*
Y10350D01*
X10814Y10390D02*
X10809Y10387D01*
X10806Y10381D01*
Y10350D01*
X10846Y10390D02*
X10834D01*
X10846Y10350D02*
X10826D01*
X10814D02*
X10794D01*
X10769D02*
X10772Y10353D01*
X10775Y10361D01*
Y10410D01*
X10778D01*
Y10361D01*
X10775Y10353D01*
X10769Y10350D01*
X10764D01*
X10758Y10353D01*
X10755Y10359D01*
X10787Y10390D02*
X10764D01*
X10737D02*
Y10350D01*
X10734Y10390D02*
Y10350D01*
Y10373D02*
X10731Y10381D01*
X10725Y10387D01*
X10720Y10390D01*
X10711D01*
X10708Y10387D01*
Y10384D01*
X10711Y10381D01*
X10714Y10384D01*
X10711Y10387D01*
X10745Y10390D02*
X10734D01*
X10745Y10350D02*
X10725D01*
X10696Y10373D02*
X10662D01*
Y10379D01*
X10665Y10384D01*
X10668Y10387D01*
X10673Y10390D01*
X10682D01*
X10691Y10387D01*
X10696Y10381D01*
X10699Y10373D01*
Y10367D01*
X10696Y10359D01*
X10691Y10353D01*
X10682Y10350D01*
X10676D01*
X10668Y10353D01*
X10662Y10359D01*
X10665Y10373D02*
Y10381D01*
X10668Y10387D01*
X10682Y10390D02*
X10688Y10387D01*
X10693Y10381D01*
X10696Y10373D01*
Y10367D01*
X10693Y10359D01*
X10688Y10353D01*
X10682Y10350D01*
X10647Y10384D02*
Y10381D01*
X10650D01*
Y10384D01*
X10647Y10387D01*
X10641Y10390D01*
X10630D01*
X10624Y10387D01*
X10621Y10384D01*
X10619Y10379D01*
Y10359D01*
X10616Y10353D01*
X10613Y10350D01*
X10621Y10384D02*
Y10359D01*
X10619Y10353D01*
X10613Y10350D01*
X10610D01*
X10621Y10379D02*
X10624Y10376D01*
X10641Y10373D01*
X10650Y10370D01*
X10653Y10364D01*
Y10359D01*
X10650Y10353D01*
X10641Y10350D01*
X10633D01*
X10627Y10353D01*
X10621Y10359D01*
X10641Y10373D02*
X10647Y10370D01*
X10650Y10364D01*
Y10359D01*
X10647Y10353D01*
X10641Y10350D01*
X10593Y10410D02*
Y10350D01*
X10590Y10410D02*
Y10350D01*
X10601Y10410D02*
X10590D01*
X10601Y10350D02*
X10581D01*
X12176Y10515D02*
Y10455D01*
X12174Y10515D02*
X12156Y10464D01*
X12176Y10515D02*
X12156Y10455D01*
X12136Y10515D02*
X12156Y10455D01*
X12136Y10515D02*
Y10455D01*
X12134Y10515D02*
Y10455D01*
X12185Y10515D02*
X12174D01*
X12136D02*
X12125D01*
X12185Y10455D02*
X12168D01*
X12145D02*
X12125D01*
X12115Y10461D02*
X12118Y10458D01*
X12115Y10455D01*
X12112Y10458D01*
X12115Y10461D01*
X12092Y10515D02*
Y10455D01*
X12089Y10515D02*
Y10455D01*
X12100Y10515D02*
X12072D01*
X12063Y10512D01*
X12057Y10506D01*
X12054Y10501D01*
X12052Y10492D01*
Y10478D01*
X12054Y10469D01*
X12057Y10464D01*
X12063Y10458D01*
X12072Y10455D01*
X12100D01*
X12072Y10515D02*
X12066Y10512D01*
X12060Y10506D01*
X12057Y10501D01*
X12054Y10492D01*
Y10478D01*
X12057Y10469D01*
X12060Y10464D01*
X12066Y10458D01*
X12072Y10455D01*
X12026Y10495D02*
X12035Y10492D01*
X12041Y10486D01*
X12044Y10478D01*
Y10472D01*
X12041Y10464D01*
X12035Y10458D01*
X12026Y10455D01*
X12021D01*
X12012Y10458D01*
X12006Y10464D01*
X12004Y10472D01*
Y10478D01*
X12006Y10486D01*
X12012Y10492D01*
X12021Y10495D01*
X12026D01*
X12032Y10492D01*
X12038Y10486D01*
X12041Y10478D01*
Y10472D01*
X12038Y10464D01*
X12032Y10458D01*
X12026Y10455D01*
X12021D02*
X12015Y10458D01*
X12009Y10464D01*
X12006Y10472D01*
Y10478D01*
X12009Y10486D01*
X12015Y10492D01*
X12021Y10495D01*
X11986Y10515D02*
Y10455D01*
X11983Y10515D02*
Y10455D01*
Y10486D02*
X11978Y10492D01*
X11972Y10495D01*
X11966D01*
X11958Y10492D01*
X11952Y10486D01*
X11949Y10478D01*
Y10472D01*
X11952Y10464D01*
X11958Y10458D01*
X11966Y10455D01*
X11972D01*
X11978Y10458D01*
X11983Y10464D01*
X11966Y10495D02*
X11960Y10492D01*
X11955Y10486D01*
X11952Y10478D01*
Y10472D01*
X11955Y10464D01*
X11960Y10458D01*
X11966Y10455D01*
X11995Y10515D02*
X11983D01*
X11932D02*
Y10455D01*
X11929Y10515D02*
Y10455D01*
Y10486D02*
X11924Y10492D01*
X11918Y10495D01*
X11912D01*
X11904Y10492D01*
X11898Y10486D01*
X11895Y10478D01*
Y10472D01*
X11898Y10464D01*
X11904Y10458D01*
X11912Y10455D01*
X11918D01*
X11924Y10458D01*
X11929Y10464D01*
X11912Y10495D02*
X11906Y10492D01*
X11901Y10486D01*
X11898Y10478D01*
Y10472D01*
X11901Y10464D01*
X11906Y10458D01*
X11912Y10455D01*
X11941Y10515D02*
X11929D01*
X11858Y10489D02*
X11855Y10495D01*
Y10484D01*
X11858Y10489D01*
X11861Y10492D01*
X11867Y10495D01*
X11878D01*
X11884Y10492D01*
X11887Y10489D01*
Y10484D01*
X11884Y10481D01*
X11878Y10478D01*
X11864Y10472D01*
X11858Y10469D01*
X11855Y10466D01*
X11887Y10486D02*
X11884Y10484D01*
X11878Y10481D01*
X11864Y10475D01*
X11858Y10472D01*
X11855Y10469D01*
Y10461D01*
X11858Y10458D01*
X11864Y10455D01*
X11875D01*
X11881Y10458D01*
X11884Y10461D01*
X11887Y10466D01*
Y10455D01*
X11884Y10461D01*
X11843Y10455D02*
X11846Y10458D01*
X11843Y10461D01*
X11840Y10458D01*
Y10452D01*
X11843Y10446D01*
X11846Y10444D01*
X11765Y10515D02*
Y10455D01*
X11762Y10515D02*
X11745Y10464D01*
X11765Y10515D02*
X11745Y10455D01*
X11725Y10515D02*
X11745Y10455D01*
X11725Y10515D02*
Y10455D01*
X11722Y10515D02*
Y10455D01*
X11774Y10515D02*
X11762D01*
X11725D02*
X11714D01*
X11774Y10455D02*
X11757D01*
X11734D02*
X11714D01*
X11673Y10486D02*
X11675Y10484D01*
X11673Y10481D01*
X11670Y10484D01*
Y10486D01*
X11675Y10492D01*
X11681Y10495D01*
X11690D01*
X11698Y10492D01*
X11704Y10486D01*
X11707Y10478D01*
Y10472D01*
X11704Y10464D01*
X11698Y10458D01*
X11690Y10455D01*
X11684D01*
X11675Y10458D01*
X11670Y10464D01*
X11690Y10495D02*
X11695Y10492D01*
X11701Y10486D01*
X11704Y10478D01*
Y10472D01*
X11701Y10464D01*
X11695Y10458D01*
X11690Y10455D01*
X11621Y10506D02*
X11618Y10498D01*
Y10515D01*
X11621Y10506D01*
X11626Y10512D01*
X11635Y10515D01*
X11641D01*
X11649Y10512D01*
X11655Y10506D01*
X11658Y10501D01*
X11661Y10492D01*
Y10478D01*
X11658Y10469D01*
X11655Y10464D01*
X11649Y10458D01*
X11641Y10455D01*
X11635D01*
X11626Y10458D01*
X11621Y10464D01*
X11641Y10515D02*
X11646Y10512D01*
X11652Y10506D01*
X11655Y10501D01*
X11658Y10492D01*
Y10478D01*
X11655Y10469D01*
X11652Y10464D01*
X11646Y10458D01*
X11641Y10455D01*
X11621Y10478D02*
Y10455D01*
X11618Y10478D02*
Y10455D01*
X11629Y10478D02*
X11609D01*
X11593Y10515D02*
X11596Y10512D01*
X11593Y10509D01*
X11590Y10512D01*
X11593Y10515D01*
Y10495D02*
Y10455D01*
X11590Y10495D02*
Y10455D01*
X11601Y10495D02*
X11590D01*
X11601Y10455D02*
X11581D01*
X11562Y10515D02*
Y10455D01*
X11559Y10515D02*
Y10455D01*
X11571Y10515D02*
X11559D01*
X11571Y10455D02*
X11551D01*
X11531Y10515D02*
Y10455D01*
X11528Y10515D02*
Y10455D01*
X11540Y10515D02*
X11528D01*
X11540Y10455D02*
X11520D01*
X11446Y10515D02*
Y10472D01*
X11443Y10464D01*
X11438Y10458D01*
X11429Y10455D01*
X11423D01*
X11415Y10458D01*
X11409Y10464D01*
X11406Y10472D01*
Y10515D01*
X11443D02*
Y10472D01*
X11441Y10464D01*
X11435Y10458D01*
X11429Y10455D01*
X11455Y10515D02*
X11435D01*
X11415D02*
X11398D01*
X11382Y10495D02*
Y10455D01*
X11379Y10495D02*
Y10455D01*
Y10486D02*
X11373Y10492D01*
X11365Y10495D01*
X11359D01*
X11351Y10492D01*
X11348Y10486D01*
Y10455D01*
X11359Y10495D02*
X11353Y10492D01*
X11351Y10486D01*
Y10455D01*
X11391Y10495D02*
X11379D01*
X11391Y10455D02*
X11371D01*
X11359D02*
X11339D01*
X11323Y10515D02*
X11326Y10512D01*
X11323Y10509D01*
X11320Y10512D01*
X11323Y10515D01*
Y10495D02*
Y10455D01*
X11320Y10495D02*
Y10455D01*
X11331Y10495D02*
X11320D01*
X11331Y10455D02*
X11311D01*
X11295Y10495D02*
X11278Y10455D01*
X11292Y10495D02*
X11278Y10461D01*
X11261Y10495D02*
X11278Y10455D01*
X11301Y10495D02*
X11283D01*
X11272D02*
X11255D01*
X11244Y10478D02*
X11209D01*
Y10484D01*
X11212Y10489D01*
X11215Y10492D01*
X11221Y10495D01*
X11229D01*
X11238Y10492D01*
X11244Y10486D01*
X11247Y10478D01*
Y10472D01*
X11244Y10464D01*
X11238Y10458D01*
X11229Y10455D01*
X11224D01*
X11215Y10458D01*
X11209Y10464D01*
X11212Y10478D02*
Y10486D01*
X11215Y10492D01*
X11229Y10495D02*
X11235Y10492D01*
X11241Y10486D01*
X11244Y10478D01*
Y10472D01*
X11241Y10464D01*
X11235Y10458D01*
X11229Y10455D01*
X11192Y10495D02*
Y10455D01*
X11189Y10495D02*
Y10455D01*
Y10478D02*
X11186Y10486D01*
X11180Y10492D01*
X11175Y10495D01*
X11166D01*
X11163Y10492D01*
Y10489D01*
X11166Y10486D01*
X11169Y10489D01*
X11166Y10492D01*
X11200Y10495D02*
X11189D01*
X11200Y10455D02*
X11180D01*
X11126Y10489D02*
X11123Y10495D01*
Y10484D01*
X11126Y10489D01*
X11128Y10492D01*
X11134Y10495D01*
X11146D01*
X11151Y10492D01*
X11154Y10489D01*
Y10484D01*
X11151Y10481D01*
X11146Y10478D01*
X11131Y10472D01*
X11126Y10469D01*
X11123Y10466D01*
X11154Y10486D02*
X11151Y10484D01*
X11146Y10481D01*
X11131Y10475D01*
X11126Y10472D01*
X11123Y10469D01*
Y10461D01*
X11126Y10458D01*
X11131Y10455D01*
X11143D01*
X11148Y10458D01*
X11151Y10461D01*
X11154Y10466D01*
Y10455D01*
X11151Y10461D01*
X11104Y10515D02*
X11107Y10512D01*
X11104Y10509D01*
X11102Y10512D01*
X11104Y10515D01*
Y10495D02*
Y10455D01*
X11102Y10495D02*
Y10455D01*
X11113Y10495D02*
X11102D01*
X11113Y10455D02*
X11093D01*
X11065D02*
X11068Y10458D01*
X11071Y10466D01*
Y10515D01*
X11074D01*
Y10466D01*
X11071Y10458D01*
X11065Y10455D01*
X11059D01*
X11054Y10458D01*
X11051Y10464D01*
X11082Y10495D02*
X11059D01*
X11035D02*
X11018Y10455D01*
X11032Y10495D02*
X11018Y10461D01*
X11001Y10495D02*
X11018Y10455D01*
X11024Y10444D01*
X11030Y10438D01*
X11035Y10435D01*
X11038D01*
X11041Y10438D01*
X11038Y10441D01*
X11035Y10438D01*
X11041Y10495D02*
X11024D01*
X11012D02*
X10995D01*
X12176Y10625D02*
Y10565D01*
X12174Y10625D02*
Y10565D01*
X12185Y10625D02*
X12151D01*
X12142Y10622D01*
X12139Y10619D01*
X12136Y10614D01*
Y10608D01*
X12139Y10602D01*
X12142Y10599D01*
X12151Y10596D01*
X12174D01*
X12151Y10625D02*
X12145Y10622D01*
X12142Y10619D01*
X12139Y10614D01*
Y10608D01*
X12142Y10602D01*
X12145Y10599D01*
X12151Y10596D01*
X12185Y10565D02*
X12165D01*
X12159Y10596D02*
X12154Y10594D01*
X12151Y10591D01*
X12142Y10571D01*
X12139Y10568D01*
X12136D01*
X12134Y10571D01*
X12154Y10594D02*
X12151Y10588D01*
X12145Y10568D01*
X12142Y10565D01*
X12136D01*
X12134Y10571D01*
Y10574D01*
X12123Y10588D02*
X12089D01*
Y10594D01*
X12092Y10599D01*
X12094Y10602D01*
X12100Y10605D01*
X12109D01*
X12117Y10602D01*
X12123Y10596D01*
X12126Y10588D01*
Y10582D01*
X12123Y10574D01*
X12117Y10568D01*
X12109Y10565D01*
X12103D01*
X12094Y10568D01*
X12089Y10574D01*
X12092Y10588D02*
Y10596D01*
X12094Y10602D01*
X12109Y10605D02*
X12114Y10602D01*
X12120Y10596D01*
X12123Y10588D01*
Y10582D01*
X12120Y10574D01*
X12114Y10568D01*
X12109Y10565D01*
X12074Y10605D02*
X12057Y10565D01*
X12071Y10605D02*
X12057Y10571D01*
X12040Y10605D02*
X12057Y10565D01*
X12080Y10605D02*
X12062D01*
X12051D02*
X12034D01*
X12023Y10571D02*
X12026Y10568D01*
X12023Y10565D01*
X12020Y10568D01*
X12023Y10571D01*
X11951Y10614D02*
X11948Y10611D01*
X11951Y10608D01*
X11954Y10611D01*
Y10614D01*
X11951Y10619D01*
X11948Y10622D01*
X11939Y10625D01*
X11928D01*
X11919Y10622D01*
X11916Y10616D01*
Y10608D01*
X11919Y10602D01*
X11928Y10599D01*
X11936D01*
X11928Y10625D02*
X11922Y10622D01*
X11919Y10616D01*
Y10608D01*
X11922Y10602D01*
X11928Y10599D01*
X11922Y10596D01*
X11916Y10591D01*
X11914Y10585D01*
Y10576D01*
X11916Y10571D01*
X11919Y10568D01*
X11928Y10565D01*
X11939D01*
X11948Y10568D01*
X11951Y10571D01*
X11954Y10576D01*
Y10579D01*
X11951Y10582D01*
X11948Y10579D01*
X11951Y10576D01*
X11919Y10594D02*
X11916Y10585D01*
Y10576D01*
X11919Y10571D01*
X11922Y10568D01*
X11928Y10565D01*
X11851Y10591D02*
X11799D01*
X11729Y10625D02*
Y10565D01*
X11726Y10625D02*
X11709Y10574D01*
X11729Y10625D02*
X11709Y10565D01*
X11689Y10625D02*
X11709Y10565D01*
X11689Y10625D02*
Y10565D01*
X11686Y10625D02*
Y10565D01*
X11738Y10625D02*
X11726D01*
X11689D02*
X11678D01*
X11738Y10565D02*
X11721D01*
X11698D02*
X11678D01*
X11665Y10599D02*
Y10596D01*
X11668D01*
Y10599D01*
X11665Y10602D01*
X11659Y10605D01*
X11648D01*
X11642Y10602D01*
X11639Y10599D01*
X11637Y10594D01*
Y10574D01*
X11634Y10568D01*
X11631Y10565D01*
X11639Y10599D02*
Y10574D01*
X11637Y10568D01*
X11631Y10565D01*
X11628D01*
X11639Y10594D02*
X11642Y10591D01*
X11659Y10588D01*
X11668Y10585D01*
X11671Y10579D01*
Y10574D01*
X11668Y10568D01*
X11659Y10565D01*
X11651D01*
X11645Y10568D01*
X11639Y10574D01*
X11659Y10588D02*
X11665Y10585D01*
X11668Y10579D01*
Y10574D01*
X11665Y10568D01*
X11659Y10565D01*
X11585Y10625D02*
Y10565D01*
X11582Y10625D02*
Y10565D01*
X11585Y10596D02*
X11591Y10602D01*
X11597Y10605D01*
X11602D01*
X11611Y10602D01*
X11617Y10596D01*
X11619Y10588D01*
Y10582D01*
X11617Y10574D01*
X11611Y10568D01*
X11602Y10565D01*
X11597D01*
X11591Y10568D01*
X11585Y10574D01*
X11602Y10605D02*
X11608Y10602D01*
X11614Y10596D01*
X11617Y10588D01*
Y10582D01*
X11614Y10574D01*
X11608Y10568D01*
X11602Y10565D01*
X11594Y10625D02*
X11582D01*
X11585Y10565D02*
X11574D01*
X11563Y10588D02*
X11528D01*
Y10594D01*
X11531Y10599D01*
X11534Y10602D01*
X11540Y10605D01*
X11548D01*
X11557Y10602D01*
X11563Y10596D01*
X11565Y10588D01*
Y10582D01*
X11563Y10574D01*
X11557Y10568D01*
X11548Y10565D01*
X11543D01*
X11534Y10568D01*
X11528Y10574D01*
X11531Y10588D02*
Y10596D01*
X11534Y10602D01*
X11548Y10605D02*
X11554Y10602D01*
X11560Y10596D01*
X11563Y10588D01*
Y10582D01*
X11560Y10574D01*
X11554Y10568D01*
X11548Y10565D01*
X11457Y10625D02*
X11459Y10622D01*
X11457Y10619D01*
X11454Y10622D01*
X11457Y10625D01*
Y10605D02*
Y10565D01*
X11454Y10605D02*
Y10565D01*
X11465Y10605D02*
X11454D01*
X11465Y10565D02*
X11445D01*
X11426Y10605D02*
Y10565D01*
X11423Y10605D02*
Y10565D01*
Y10596D02*
X11417Y10602D01*
X11409Y10605D01*
X11403D01*
X11394Y10602D01*
X11391Y10596D01*
Y10565D01*
X11403Y10605D02*
X11397Y10602D01*
X11394Y10596D01*
Y10565D01*
X11434Y10605D02*
X11423D01*
X11434Y10565D02*
X11414D01*
X11403D02*
X11383D01*
X11281Y10616D02*
X11278Y10608D01*
Y10625D01*
X11281Y10616D01*
X11287Y10622D01*
X11295Y10625D01*
X11301D01*
X11310Y10622D01*
X11315Y10616D01*
X11318Y10611D01*
X11321Y10602D01*
Y10588D01*
X11318Y10579D01*
X11315Y10574D01*
X11310Y10568D01*
X11301Y10565D01*
X11295D01*
X11287Y10568D01*
X11281Y10574D01*
X11278Y10579D01*
X11301Y10625D02*
X11307Y10622D01*
X11313Y10616D01*
X11315Y10611D01*
X11318Y10602D01*
Y10588D01*
X11315Y10579D01*
X11313Y10574D01*
X11307Y10568D01*
X11301Y10565D01*
X11244Y10625D02*
X11264Y10565D01*
X11244Y10625D02*
X11224Y10565D01*
X11244Y10616D02*
X11227Y10565D01*
X11258Y10582D02*
X11233D01*
X11270Y10565D02*
X11253D01*
X11235D02*
X11218D01*
X11202Y10625D02*
Y10565D01*
X11199Y10625D02*
X11165Y10571D01*
X11199Y10619D02*
X11165Y10565D01*
Y10625D02*
Y10565D01*
X11211Y10625D02*
X11199D01*
X11174D02*
X11156D01*
X11211Y10565D02*
X11193D01*
X11123Y10625D02*
X11143Y10565D01*
X11123Y10625D02*
X11103Y10565D01*
X11123Y10616D02*
X11106Y10565D01*
X11138Y10582D02*
X11112D01*
X11149Y10565D02*
X11132D01*
X11115D02*
X11098D01*
X11081Y10625D02*
Y10565D01*
X11078Y10625D02*
Y10565D01*
X11090Y10625D02*
X11061D01*
X11053Y10622D01*
X11047Y10616D01*
X11044Y10611D01*
X11041Y10602D01*
Y10588D01*
X11044Y10579D01*
X11047Y10574D01*
X11053Y10568D01*
X11061Y10565D01*
X11090D01*
X11061Y10625D02*
X11056Y10622D01*
X11050Y10616D01*
X11047Y10611D01*
X11044Y10602D01*
Y10588D01*
X11047Y10579D01*
X11050Y10574D01*
X11056Y10568D01*
X11061Y10565D01*
X11008Y10625D02*
X11028Y10565D01*
X11008Y10625D02*
X10988Y10565D01*
X11008Y10616D02*
X10990Y10565D01*
X11022Y10582D02*
X10996D01*
X11033Y10565D02*
X11016D01*
X10999D02*
X10982D01*
X10920Y10591D02*
X10869D01*
X10770Y10616D02*
X10767Y10625D01*
Y10608D01*
X10770Y10616D01*
X10776Y10622D01*
X10784Y10625D01*
X10793D01*
X10801Y10622D01*
X10807Y10616D01*
Y10611D01*
X10804Y10605D01*
X10801Y10602D01*
X10796Y10599D01*
X10778Y10594D01*
X10773Y10591D01*
X10767Y10585D01*
X10807Y10611D02*
X10801Y10605D01*
X10796Y10602D01*
X10778Y10596D01*
X10773Y10594D01*
X10770Y10591D01*
X10767Y10585D01*
Y10574D01*
X10773Y10568D01*
X10781Y10565D01*
X10790D01*
X10798Y10568D01*
X10804Y10574D01*
X10807Y10582D01*
Y10565D01*
X10804Y10574D01*
X10755Y10588D02*
X10721D01*
Y10594D01*
X10724Y10599D01*
X10727Y10602D01*
X10732Y10605D01*
X10741D01*
X10750Y10602D01*
X10755Y10596D01*
X10758Y10588D01*
Y10582D01*
X10755Y10574D01*
X10750Y10568D01*
X10741Y10565D01*
X10735D01*
X10727Y10568D01*
X10721Y10574D01*
X10724Y10588D02*
Y10596D01*
X10727Y10602D01*
X10741Y10605D02*
X10747Y10602D01*
X10752Y10596D01*
X10755Y10588D01*
Y10582D01*
X10752Y10574D01*
X10747Y10568D01*
X10741Y10565D01*
X10703Y10605D02*
Y10545D01*
X10700Y10605D02*
Y10545D01*
Y10596D02*
X10695Y10602D01*
X10689Y10605D01*
X10683D01*
X10675Y10602D01*
X10669Y10596D01*
X10666Y10588D01*
Y10582D01*
X10669Y10574D01*
X10675Y10568D01*
X10683Y10565D01*
X10689D01*
X10695Y10568D01*
X10700Y10574D01*
X10683Y10605D02*
X10678Y10602D01*
X10672Y10596D01*
X10669Y10588D01*
Y10582D01*
X10672Y10574D01*
X10678Y10568D01*
X10683Y10565D01*
X10712Y10605D02*
X10700D01*
X10712Y10545D02*
X10692D01*
X10641Y10565D02*
X10644Y10568D01*
X10646Y10576D01*
Y10625D01*
X10649D01*
Y10576D01*
X10646Y10568D01*
X10641Y10565D01*
X10635D01*
X10629Y10568D01*
X10626Y10574D01*
X10658Y10605D02*
X10635D01*
X10614Y10588D02*
X10580D01*
Y10594D01*
X10582Y10599D01*
X10585Y10602D01*
X10591Y10605D01*
X10600D01*
X10608Y10602D01*
X10614Y10596D01*
X10617Y10588D01*
Y10582D01*
X10614Y10574D01*
X10608Y10568D01*
X10600Y10565D01*
X10594D01*
X10585Y10568D01*
X10580Y10574D01*
X10582Y10588D02*
Y10596D01*
X10585Y10602D01*
X10600Y10605D02*
X10605Y10602D01*
X10611Y10596D01*
X10614Y10588D01*
Y10582D01*
X10611Y10574D01*
X10605Y10568D01*
X10600Y10565D01*
X10562Y10605D02*
Y10565D01*
X10559Y10605D02*
Y10565D01*
Y10596D02*
X10553Y10602D01*
X10545Y10605D01*
X10539D01*
X10530Y10602D01*
X10528Y10596D01*
Y10565D01*
X10539Y10605D02*
X10533Y10602D01*
X10530Y10596D01*
Y10565D01*
X10528Y10596D02*
X10522Y10602D01*
X10513Y10605D01*
X10508D01*
X10499Y10602D01*
X10496Y10596D01*
Y10565D01*
X10508Y10605D02*
X10502Y10602D01*
X10499Y10596D01*
Y10565D01*
X10570Y10605D02*
X10559D01*
X10570Y10565D02*
X10550D01*
X10539D02*
X10519D01*
X10508D02*
X10488D01*
X10475Y10625D02*
Y10565D01*
X10472Y10625D02*
Y10565D01*
Y10596D02*
X10466Y10602D01*
X10460Y10605D01*
X10455D01*
X10446Y10602D01*
X10440Y10596D01*
X10437Y10588D01*
Y10582D01*
X10440Y10574D01*
X10446Y10568D01*
X10455Y10565D01*
X10460D01*
X10466Y10568D01*
X10472Y10574D01*
X10455Y10605D02*
X10449Y10602D01*
X10443Y10596D01*
X10440Y10588D01*
Y10582D01*
X10443Y10574D01*
X10449Y10568D01*
X10455Y10565D01*
X10483Y10625D02*
X10472D01*
X10426Y10588D02*
X10392D01*
Y10594D01*
X10395Y10599D01*
X10398Y10602D01*
X10403Y10605D01*
X10412D01*
X10421Y10602D01*
X10426Y10596D01*
X10429Y10588D01*
Y10582D01*
X10426Y10574D01*
X10421Y10568D01*
X10412Y10565D01*
X10406D01*
X10398Y10568D01*
X10392Y10574D01*
X10395Y10588D02*
Y10596D01*
X10398Y10602D01*
X10412Y10605D02*
X10418Y10602D01*
X10423Y10596D01*
X10426Y10588D01*
Y10582D01*
X10423Y10574D01*
X10418Y10568D01*
X10412Y10565D01*
X10374Y10605D02*
Y10565D01*
X10371Y10605D02*
Y10565D01*
Y10588D02*
X10369Y10596D01*
X10363Y10602D01*
X10357Y10605D01*
X10349D01*
X10346Y10602D01*
Y10599D01*
X10349Y10596D01*
X10351Y10599D01*
X10349Y10602D01*
X10383Y10605D02*
X10371D01*
X10383Y10565D02*
X10363D01*
X10280Y10614D02*
X10277Y10611D01*
X10280Y10608D01*
X10283Y10611D01*
Y10614D01*
X10280Y10619D01*
X10277Y10622D01*
X10268Y10625D01*
X10257D01*
X10248Y10622D01*
X10245Y10619D01*
X10243Y10614D01*
Y10608D01*
X10245Y10602D01*
X10254Y10596D01*
X10268Y10591D01*
X10274Y10588D01*
X10280Y10582D01*
X10283Y10574D01*
Y10565D01*
X10257Y10625D02*
X10251Y10622D01*
X10248Y10619D01*
X10245Y10614D01*
Y10608D01*
X10248Y10602D01*
X10257Y10596D01*
X10268Y10591D01*
X10283Y10571D02*
X10280Y10574D01*
X10274D01*
X10260Y10568D01*
X10251D01*
X10245Y10571D01*
X10243Y10574D01*
Y10579D01*
X10274Y10574D02*
X10260Y10565D01*
X10248D01*
X10245Y10568D01*
X10243Y10574D01*
X10217Y10625D02*
X10225Y10622D01*
X10231Y10614D01*
X10234Y10599D01*
Y10591D01*
X10231Y10576D01*
X10225Y10568D01*
X10217Y10565D01*
X10211D01*
X10202Y10568D01*
X10197Y10576D01*
X10194Y10591D01*
Y10599D01*
X10197Y10614D01*
X10202Y10622D01*
X10211Y10625D01*
X10217D01*
X10222Y10622D01*
X10225Y10619D01*
X10228Y10614D01*
X10231Y10599D01*
Y10591D01*
X10228Y10576D01*
X10225Y10571D01*
X10222Y10568D01*
X10217Y10565D01*
X10211D02*
X10205Y10568D01*
X10202Y10571D01*
X10199Y10576D01*
X10197Y10591D01*
Y10599D01*
X10199Y10614D01*
X10202Y10619D01*
X10205Y10622D01*
X10211Y10625D01*
X10168D02*
X10176Y10622D01*
X10182Y10614D01*
X10185Y10599D01*
Y10591D01*
X10182Y10576D01*
X10176Y10568D01*
X10168Y10565D01*
X10162D01*
X10153Y10568D01*
X10148Y10576D01*
X10145Y10591D01*
Y10599D01*
X10148Y10614D01*
X10153Y10622D01*
X10162Y10625D01*
X10168D01*
X10173Y10622D01*
X10176Y10619D01*
X10179Y10614D01*
X10182Y10599D01*
Y10591D01*
X10179Y10576D01*
X10176Y10571D01*
X10173Y10568D01*
X10168Y10565D01*
X10162D02*
X10156Y10568D01*
X10153Y10571D01*
X10151Y10576D01*
X10148Y10591D01*
Y10599D01*
X10151Y10614D01*
X10153Y10619D01*
X10156Y10622D01*
X10162Y10625D01*
X10136D02*
Y10608D01*
Y10614D02*
X10133Y10619D01*
X10127Y10625D01*
X10122D01*
X10107Y10616D01*
X10102D01*
X10099Y10619D01*
X10096Y10625D01*
X10133Y10619D02*
X10127Y10622D01*
X10122D01*
X10107Y10616D01*
X10096Y10625D02*
Y10616D01*
X10099Y10608D01*
X10110Y10594D01*
X10113Y10588D01*
X10116Y10579D01*
Y10565D01*
X10099Y10608D02*
X10113Y10594D01*
X10116Y10588D01*
X10119Y10579D01*
Y10565D01*
X10084D02*
X10087Y10568D01*
X10084Y10571D01*
X10081Y10568D01*
Y10562D01*
X10084Y10556D01*
X10087Y10554D01*
X10007Y10625D02*
Y10565D01*
X10004Y10625D02*
X9987Y10574D01*
X10007Y10625D02*
X9987Y10565D01*
X9967Y10625D02*
X9987Y10565D01*
X9967Y10625D02*
Y10565D01*
X9964Y10625D02*
Y10565D01*
X10015Y10625D02*
X10004D01*
X9967D02*
X9955D01*
X10015Y10565D02*
X9998D01*
X9975D02*
X9955D01*
X9931Y10605D02*
X9940Y10602D01*
X9945Y10596D01*
X9948Y10588D01*
Y10582D01*
X9945Y10574D01*
X9940Y10568D01*
X9931Y10565D01*
X9925D01*
X9917Y10568D01*
X9911Y10574D01*
X9908Y10582D01*
Y10588D01*
X9911Y10596D01*
X9917Y10602D01*
X9925Y10605D01*
X9931D01*
X9937Y10602D01*
X9943Y10596D01*
X9945Y10588D01*
Y10582D01*
X9943Y10574D01*
X9937Y10568D01*
X9931Y10565D01*
X9925D02*
X9920Y10568D01*
X9914Y10574D01*
X9911Y10582D01*
Y10588D01*
X9914Y10596D01*
X9920Y10602D01*
X9925Y10605D01*
X9891D02*
Y10565D01*
X9888Y10605D02*
Y10565D01*
Y10596D02*
X9882Y10602D01*
X9874Y10605D01*
X9868D01*
X9859Y10602D01*
X9857Y10596D01*
Y10565D01*
X9868Y10605D02*
X9862Y10602D01*
X9859Y10596D01*
Y10565D01*
X9899Y10605D02*
X9888D01*
X9899Y10565D02*
X9879D01*
X9868D02*
X9848D01*
X9823D02*
X9826Y10568D01*
X9829Y10576D01*
Y10625D01*
X9832D01*
Y10576D01*
X9829Y10568D01*
X9823Y10565D01*
X9818D01*
X9812Y10568D01*
X9809Y10574D01*
X9840Y10605D02*
X9818D01*
X9791D02*
Y10565D01*
X9788Y10605D02*
Y10565D01*
Y10588D02*
X9785Y10596D01*
X9779Y10602D01*
X9774Y10605D01*
X9765D01*
X9762Y10602D01*
Y10599D01*
X9765Y10596D01*
X9768Y10599D01*
X9765Y10602D01*
X9799Y10605D02*
X9788D01*
X9799Y10565D02*
X9779D01*
X9750Y10588D02*
X9716D01*
Y10594D01*
X9719Y10599D01*
X9722Y10602D01*
X9727Y10605D01*
X9736D01*
X9744Y10602D01*
X9750Y10596D01*
X9753Y10588D01*
Y10582D01*
X9750Y10574D01*
X9744Y10568D01*
X9736Y10565D01*
X9730D01*
X9722Y10568D01*
X9716Y10574D01*
X9719Y10588D02*
Y10596D01*
X9722Y10602D01*
X9736Y10605D02*
X9742Y10602D01*
X9747Y10596D01*
X9750Y10588D01*
Y10582D01*
X9747Y10574D01*
X9742Y10568D01*
X9736Y10565D01*
X9701Y10599D02*
Y10596D01*
X9704D01*
Y10599D01*
X9701Y10602D01*
X9695Y10605D01*
X9684D01*
X9678Y10602D01*
X9675Y10599D01*
X9672Y10594D01*
Y10574D01*
X9670Y10568D01*
X9667Y10565D01*
X9675Y10599D02*
Y10574D01*
X9672Y10568D01*
X9667Y10565D01*
X9664D01*
X9675Y10594D02*
X9678Y10591D01*
X9695Y10588D01*
X9704Y10585D01*
X9707Y10579D01*
Y10574D01*
X9704Y10568D01*
X9695Y10565D01*
X9687D01*
X9681Y10568D01*
X9675Y10574D01*
X9695Y10588D02*
X9701Y10585D01*
X9704Y10579D01*
Y10574D01*
X9701Y10568D01*
X9695Y10565D01*
X9647Y10625D02*
Y10565D01*
X9644Y10625D02*
Y10565D01*
X9655Y10625D02*
X9644D01*
X9655Y10565D02*
X9635D01*
D84*
X13185Y6000D02*
Y12300D01*
X3999Y6000D02*
Y12299D01*
Y6000D02*
X13185D01*
X4575Y12150D02*
Y12299D01*
Y12150D02*
X6200D01*
Y12300D01*
X9350Y12150D02*
Y12300D01*
Y12150D02*
X10975D01*
Y12300D01*
X3999Y12299D02*
X4574D01*
X6200Y12300D02*
X9349D01*
X10975D02*
X13185D01*
D87*
X6051Y8867D02*
Y8887D01*
X6041D01*
X6038Y8884D01*
Y8877D01*
X6041Y8874D01*
X6051D01*
X6044D02*
X6038Y8867D01*
X6031Y8870D02*
X6028Y8867D01*
X6021D01*
X6018Y8870D01*
Y8884D01*
X6021Y8887D01*
X6028D01*
X6031Y8884D01*
Y8880D01*
X6028Y8877D01*
X6018D01*
X6011Y8884D02*
X6008Y8887D01*
X6001D01*
X5998Y8884D01*
Y8870D01*
X6001Y8867D01*
X6008D01*
X6011Y8870D01*
Y8884D01*
X6046Y8692D02*
Y8712D01*
X6036D01*
X6033Y8709D01*
Y8702D01*
X6036Y8699D01*
X6046D01*
X6039D02*
X6033Y8692D01*
X6026Y8709D02*
X6023Y8712D01*
X6016D01*
X6013Y8709D01*
Y8705D01*
X6016Y8702D01*
X6013Y8699D01*
Y8695D01*
X6016Y8692D01*
X6023D01*
X6026Y8695D01*
Y8699D01*
X6023Y8702D01*
X6026Y8705D01*
Y8709D01*
X6023Y8702D02*
X6016D01*
X6006Y8695D02*
X6003Y8692D01*
X5996D01*
X5993Y8695D01*
Y8709D01*
X5996Y8712D01*
X6003D01*
X6006Y8709D01*
Y8705D01*
X6003Y8702D01*
X5993D01*
X5982Y9178D02*
X5962D01*
Y9168D01*
X5966Y9165D01*
X5972D01*
X5976Y9168D01*
Y9178D01*
Y9171D02*
X5982Y9165D01*
X5966Y9158D02*
X5962Y9155D01*
Y9148D01*
X5966Y9145D01*
X5969D01*
X5972Y9148D01*
X5976Y9145D01*
X5979D01*
X5982Y9148D01*
Y9155D01*
X5979Y9158D01*
X5976D01*
X5972Y9155D01*
X5969Y9158D01*
X5966D01*
X5972Y9155D02*
Y9148D01*
X5962Y9125D02*
X5966Y9131D01*
X5972Y9138D01*
X5979D01*
X5982Y9135D01*
Y9128D01*
X5979Y9125D01*
X5976D01*
X5972Y9128D01*
Y9138D01*
X6077Y9030D02*
X6057D01*
Y9020D01*
X6060Y9016D01*
X6067D01*
X6070Y9020D01*
Y9030D01*
Y9023D02*
X6077Y9016D01*
X6060Y9010D02*
X6057Y9006D01*
Y9000D01*
X6060Y8996D01*
X6063D01*
X6067Y9000D01*
X6070Y8996D01*
X6073D01*
X6077Y9000D01*
Y9006D01*
X6073Y9010D01*
X6070D01*
X6067Y9006D01*
X6063Y9010D01*
X6060D01*
X6067Y9006D02*
Y9000D01*
X6057Y8976D02*
Y8990D01*
X6067D01*
X6063Y8983D01*
Y8980D01*
X6067Y8976D01*
X6073D01*
X6077Y8980D01*
Y8986D01*
X6073Y8990D01*
X6254Y8798D02*
X6234D01*
Y8788D01*
X6237Y8785D01*
X6244D01*
X6247Y8788D01*
Y8798D01*
Y8792D02*
X6254Y8785D01*
X6237Y8778D02*
X6234Y8775D01*
Y8768D01*
X6237Y8765D01*
X6241D01*
X6244Y8768D01*
X6247Y8765D01*
X6251D01*
X6254Y8768D01*
Y8775D01*
X6251Y8778D01*
X6247D01*
X6244Y8775D01*
X6241Y8778D01*
X6237D01*
X6244Y8775D02*
Y8768D01*
X6254Y8748D02*
X6234D01*
X6244Y8758D01*
Y8745D01*
X6695Y9104D02*
X6698Y9101D01*
Y9094D01*
X6695Y9091D01*
X6681D01*
X6678Y9094D01*
Y9101D01*
X6681Y9104D01*
X6678Y9124D02*
Y9111D01*
X6691Y9124D01*
X6695D01*
X6698Y9121D01*
Y9114D01*
X6695Y9111D01*
Y9131D02*
X6698Y9134D01*
Y9141D01*
X6695Y9144D01*
X6691D01*
X6688Y9141D01*
X6685Y9144D01*
X6681D01*
X6678Y9141D01*
Y9134D01*
X6681Y9131D01*
X6685D01*
X6688Y9134D01*
X6691Y9131D01*
X6695D01*
X6688Y9134D02*
Y9141D01*
X6698Y9151D02*
Y9164D01*
X6695D01*
X6681Y9151D01*
X6678D01*
X6681Y8621D02*
X6678Y8624D01*
Y8631D01*
X6681Y8634D01*
X6695D01*
X6698Y8631D01*
Y8624D01*
X6695Y8621D01*
X6698Y8601D02*
Y8614D01*
X6685Y8601D01*
X6681D01*
X6678Y8604D01*
Y8611D01*
X6681Y8614D01*
Y8594D02*
X6678Y8591D01*
Y8584D01*
X6681Y8581D01*
X6685D01*
X6688Y8584D01*
X6691Y8581D01*
X6695D01*
X6698Y8584D01*
Y8591D01*
X6695Y8594D01*
X6691D01*
X6688Y8591D01*
X6685Y8594D01*
X6681D01*
X6688Y8591D02*
Y8584D01*
X6678Y8561D02*
X6681Y8567D01*
X6688Y8574D01*
X6695D01*
X6698Y8571D01*
Y8564D01*
X6695Y8561D01*
X6691D01*
X6688Y8564D01*
Y8574D01*
X6262Y8920D02*
X6265Y8923D01*
X6272D01*
X6275Y8920D01*
Y8906D01*
X6272Y8903D01*
X6265D01*
X6262Y8906D01*
X6242Y8903D02*
X6255D01*
X6242Y8916D01*
Y8920D01*
X6245Y8923D01*
X6252D01*
X6255Y8920D01*
X6235D02*
X6232Y8923D01*
X6225D01*
X6222Y8920D01*
Y8916D01*
X6225Y8913D01*
X6222Y8910D01*
Y8906D01*
X6225Y8903D01*
X6232D01*
X6235Y8906D01*
Y8910D01*
X6232Y8913D01*
X6235Y8916D01*
Y8920D01*
X6232Y8913D02*
X6225D01*
X6202Y8923D02*
X6215D01*
Y8913D01*
X6208Y8916D01*
X6205D01*
X6202Y8913D01*
Y8906D01*
X6205Y8903D01*
X6212D01*
X6215Y8906D01*
X6228Y8610D02*
X6225Y8613D01*
Y8620D01*
X6228Y8623D01*
X6242D01*
X6245Y8620D01*
Y8613D01*
X6242Y8610D01*
X6245Y8590D02*
Y8603D01*
X6232Y8590D01*
X6228D01*
X6225Y8593D01*
Y8600D01*
X6228Y8603D01*
Y8583D02*
X6225Y8580D01*
Y8573D01*
X6228Y8570D01*
X6232D01*
X6235Y8573D01*
X6238Y8570D01*
X6242D01*
X6245Y8573D01*
Y8580D01*
X6242Y8583D01*
X6238D01*
X6235Y8580D01*
X6232Y8583D01*
X6228D01*
X6235Y8580D02*
Y8573D01*
X6228Y8563D02*
X6225Y8560D01*
Y8553D01*
X6228Y8550D01*
X6232D01*
X6235Y8553D01*
Y8556D01*
Y8553D01*
X6238Y8550D01*
X6242D01*
X6245Y8553D01*
Y8560D01*
X6242Y8563D01*
X6498Y8988D02*
X6501Y8985D01*
Y8978D01*
X6498Y8975D01*
X6484D01*
X6481Y8978D01*
Y8985D01*
X6484Y8988D01*
X6481Y9008D02*
Y8995D01*
X6494Y9008D01*
X6498D01*
X6501Y9005D01*
Y8998D01*
X6498Y8995D01*
Y9015D02*
X6501Y9018D01*
Y9025D01*
X6498Y9028D01*
X6494D01*
X6491Y9025D01*
X6488Y9028D01*
X6484D01*
X6481Y9025D01*
Y9018D01*
X6484Y9015D01*
X6488D01*
X6491Y9018D01*
X6494Y9015D01*
X6498D01*
X6491Y9018D02*
Y9025D01*
X6481Y9048D02*
Y9035D01*
X6494Y9048D01*
X6498D01*
X6501Y9045D01*
Y9038D01*
X6498Y9035D01*
X6808Y8738D02*
X6811Y8735D01*
Y8728D01*
X6808Y8725D01*
X6794D01*
X6791Y8728D01*
Y8735D01*
X6794Y8738D01*
X6791Y8758D02*
Y8745D01*
X6804Y8758D01*
X6808D01*
X6811Y8755D01*
Y8748D01*
X6808Y8745D01*
Y8765D02*
X6811Y8768D01*
Y8775D01*
X6808Y8778D01*
X6804D01*
X6801Y8775D01*
X6798Y8778D01*
X6794D01*
X6791Y8775D01*
Y8768D01*
X6794Y8765D01*
X6798D01*
X6801Y8768D01*
X6804Y8765D01*
X6808D01*
X6801Y8768D02*
Y8775D01*
X6791Y8785D02*
Y8792D01*
Y8788D01*
X6811D01*
X6808Y8785D01*
X6827Y8731D02*
X6824Y8734D01*
Y8741D01*
X6827Y8744D01*
X6841D01*
X6844Y8741D01*
Y8734D01*
X6841Y8731D01*
X6844Y8711D02*
Y8724D01*
X6831Y8711D01*
X6827D01*
X6824Y8714D01*
Y8721D01*
X6827Y8724D01*
Y8704D02*
X6824Y8701D01*
Y8694D01*
X6827Y8691D01*
X6831D01*
X6834Y8694D01*
X6837Y8691D01*
X6841D01*
X6844Y8694D01*
Y8701D01*
X6841Y8704D01*
X6837D01*
X6834Y8701D01*
X6831Y8704D01*
X6827D01*
X6834Y8701D02*
Y8694D01*
X6827Y8684D02*
X6824Y8681D01*
Y8674D01*
X6827Y8671D01*
X6841D01*
X6844Y8674D01*
Y8681D01*
X6841Y8684D01*
X6827D01*
X6093Y8327D02*
X6090Y8330D01*
Y8337D01*
X6093Y8340D01*
X6107D01*
X6110Y8337D01*
Y8330D01*
X6107Y8327D01*
X6110Y8307D02*
Y8320D01*
X6097Y8307D01*
X6093D01*
X6090Y8310D01*
Y8317D01*
X6093Y8320D01*
X6090Y8300D02*
Y8287D01*
X6093D01*
X6107Y8300D01*
X6110D01*
X6107Y8280D02*
X6110Y8277D01*
Y8270D01*
X6107Y8267D01*
X6093D01*
X6090Y8270D01*
Y8277D01*
X6093Y8280D01*
X6097D01*
X6100Y8277D01*
Y8267D01*
X6841Y9225D02*
X6844Y9222D01*
Y9215D01*
X6841Y9212D01*
X6827D01*
X6824Y9215D01*
Y9222D01*
X6827Y9225D01*
X6824Y9245D02*
Y9232D01*
X6837Y9245D01*
X6841D01*
X6844Y9242D01*
Y9235D01*
X6841Y9232D01*
X6844Y9252D02*
Y9265D01*
X6841D01*
X6827Y9252D01*
X6824D01*
X6841Y9272D02*
X6844Y9275D01*
Y9282D01*
X6841Y9285D01*
X6837D01*
X6834Y9282D01*
X6831Y9285D01*
X6827D01*
X6824Y9282D01*
Y9275D01*
X6827Y9272D01*
X6831D01*
X6834Y9275D01*
X6837Y9272D01*
X6841D01*
X6834Y9275D02*
Y9282D01*
X6115Y9161D02*
X6111Y9158D01*
X6105D01*
X6101Y9161D01*
Y9175D01*
X6105Y9178D01*
X6111D01*
X6115Y9175D01*
X6135Y9178D02*
X6121D01*
X6135Y9165D01*
Y9161D01*
X6131Y9158D01*
X6125D01*
X6121Y9161D01*
X6141Y9158D02*
X6155D01*
Y9161D01*
X6141Y9175D01*
Y9178D01*
X6161Y9158D02*
X6175D01*
Y9161D01*
X6161Y9175D01*
Y9178D01*
X9744Y9988D02*
X9740Y9985D01*
X9734D01*
X9730Y9988D01*
Y10002D01*
X9734Y10005D01*
X9740D01*
X9744Y10002D01*
X9760Y10005D02*
Y9985D01*
X9750Y9995D01*
X9764D01*
X9784Y10005D02*
X9770D01*
X9784Y9992D01*
Y9988D01*
X9780Y9985D01*
X9774D01*
X9770Y9988D01*
X11574Y8974D02*
X11578Y8978D01*
X11584D01*
X11588Y8974D01*
Y8961D01*
X11584Y8958D01*
X11578D01*
X11574Y8961D01*
X11554Y8958D02*
X11568D01*
X11554Y8971D01*
Y8974D01*
X11558Y8978D01*
X11564D01*
X11568Y8974D01*
X11548D02*
X11544Y8978D01*
X11538D01*
X11534Y8974D01*
Y8971D01*
X11538Y8968D01*
X11541D01*
X11538D01*
X11534Y8964D01*
Y8961D01*
X11538Y8958D01*
X11544D01*
X11548Y8961D01*
X11514Y8978D02*
X11521Y8974D01*
X11528Y8968D01*
Y8961D01*
X11524Y8958D01*
X11518D01*
X11514Y8961D01*
Y8964D01*
X11518Y8968D01*
X11528D01*
X11313Y8868D02*
X11316Y8865D01*
Y8858D01*
X11313Y8855D01*
X11299D01*
X11296Y8858D01*
Y8865D01*
X11299Y8868D01*
X11296Y8888D02*
Y8875D01*
X11309Y8888D01*
X11313D01*
X11316Y8885D01*
Y8878D01*
X11313Y8875D01*
Y8895D02*
X11316Y8898D01*
Y8905D01*
X11313Y8908D01*
X11309D01*
X11306Y8905D01*
Y8902D01*
Y8905D01*
X11303Y8908D01*
X11299D01*
X11296Y8905D01*
Y8898D01*
X11299Y8895D01*
X11316Y8915D02*
Y8928D01*
X11313D01*
X11299Y8915D01*
X11296D01*
X11184Y8801D02*
X11188Y8798D01*
Y8791D01*
X11184Y8788D01*
X11171D01*
X11168Y8791D01*
Y8798D01*
X11171Y8801D01*
X11168Y8821D02*
Y8808D01*
X11181Y8821D01*
X11184D01*
X11188Y8818D01*
Y8811D01*
X11184Y8808D01*
Y8828D02*
X11188Y8831D01*
Y8838D01*
X11184Y8841D01*
X11181D01*
X11178Y8838D01*
Y8835D01*
Y8838D01*
X11174Y8841D01*
X11171D01*
X11168Y8838D01*
Y8831D01*
X11171Y8828D01*
X11184Y8848D02*
X11188Y8851D01*
Y8858D01*
X11184Y8861D01*
X11181D01*
X11178Y8858D01*
X11174Y8861D01*
X11171D01*
X11168Y8858D01*
Y8851D01*
X11171Y8848D01*
X11174D01*
X11178Y8851D01*
X11181Y8848D01*
X11184D01*
X11178Y8851D02*
Y8858D01*
X11740Y9315D02*
X11743Y9318D01*
X11750D01*
X11753Y9315D01*
Y9301D01*
X11750Y9298D01*
X11743D01*
X11740Y9301D01*
X11720Y9298D02*
X11733D01*
X11720Y9311D01*
Y9315D01*
X11723Y9318D01*
X11730D01*
X11733Y9315D01*
X11713D02*
X11710Y9318D01*
X11703D01*
X11700Y9315D01*
Y9311D01*
X11703Y9308D01*
X11706D01*
X11703D01*
X11700Y9305D01*
Y9301D01*
X11703Y9298D01*
X11710D01*
X11713Y9301D01*
X11693D02*
X11690Y9298D01*
X11683D01*
X11680Y9301D01*
Y9315D01*
X11683Y9318D01*
X11690D01*
X11693Y9315D01*
Y9311D01*
X11690Y9308D01*
X11680D01*
X11051Y9357D02*
X11054Y9360D01*
X11061D01*
X11064Y9357D01*
Y9343D01*
X11061Y9340D01*
X11054D01*
X11051Y9343D01*
X11031Y9340D02*
X11044D01*
X11031Y9353D01*
Y9357D01*
X11034Y9360D01*
X11041D01*
X11044Y9357D01*
X11014Y9340D02*
Y9360D01*
X11024Y9350D01*
X11011D01*
X11004Y9357D02*
X11001Y9360D01*
X10994D01*
X10991Y9357D01*
Y9343D01*
X10994Y9340D01*
X11001D01*
X11004Y9343D01*
Y9357D01*
X11438Y9101D02*
X11441Y9098D01*
Y9091D01*
X11438Y9088D01*
X11424D01*
X11421Y9091D01*
Y9098D01*
X11424Y9101D01*
X11421Y9121D02*
Y9108D01*
X11434Y9121D01*
X11438D01*
X11441Y9118D01*
Y9111D01*
X11438Y9108D01*
X11421Y9138D02*
X11441D01*
X11431Y9128D01*
Y9141D01*
X11421Y9148D02*
Y9155D01*
Y9151D01*
X11441D01*
X11438Y9148D01*
X11152Y9561D02*
X11149Y9564D01*
Y9571D01*
X11152Y9574D01*
X11166D01*
X11169Y9571D01*
Y9564D01*
X11166Y9561D01*
X11169Y9541D02*
Y9554D01*
X11156Y9541D01*
X11152D01*
X11149Y9544D01*
Y9551D01*
X11152Y9554D01*
X11169Y9524D02*
X11149D01*
X11159Y9534D01*
Y9521D01*
X11169Y9501D02*
Y9514D01*
X11156Y9501D01*
X11152D01*
X11149Y9504D01*
Y9511D01*
X11152Y9514D01*
X11206Y9551D02*
X11203Y9554D01*
Y9561D01*
X11206Y9564D01*
X11220D01*
X11223Y9561D01*
Y9554D01*
X11220Y9551D01*
X11223Y9531D02*
Y9544D01*
X11210Y9531D01*
X11206D01*
X11203Y9534D01*
Y9541D01*
X11206Y9544D01*
X11223Y9514D02*
X11203D01*
X11213Y9524D01*
Y9511D01*
X11223Y9494D02*
X11203D01*
X11213Y9504D01*
Y9491D01*
X10963Y8993D02*
X10960Y8990D01*
X10953D01*
X10950Y8993D01*
Y9007D01*
X10953Y9010D01*
X10960D01*
X10963Y9007D01*
X10983Y9010D02*
X10970D01*
X10983Y8997D01*
Y8993D01*
X10980Y8990D01*
X10973D01*
X10970Y8993D01*
X11000Y9010D02*
Y8990D01*
X10990Y9000D01*
X11003D01*
X11023Y8990D02*
X11010D01*
Y9000D01*
X11017Y8997D01*
X11020D01*
X11023Y9000D01*
Y9007D01*
X11020Y9010D01*
X11013D01*
X11010Y9007D01*
X11504Y9534D02*
X11501Y9537D01*
Y9544D01*
X11504Y9547D01*
X11518D01*
X11521Y9544D01*
Y9537D01*
X11518Y9534D01*
X11521Y9514D02*
Y9527D01*
X11508Y9514D01*
X11504D01*
X11501Y9517D01*
Y9524D01*
X11504Y9527D01*
X11521Y9497D02*
X11501D01*
X11511Y9507D01*
Y9494D01*
X11501Y9487D02*
Y9474D01*
X11504D01*
X11518Y9487D01*
X11521D01*
X11293Y9569D02*
X11290Y9572D01*
Y9579D01*
X11293Y9582D01*
X11307D01*
X11310Y9579D01*
Y9572D01*
X11307Y9569D01*
X11310Y9549D02*
Y9562D01*
X11297Y9549D01*
X11293D01*
X11290Y9552D01*
Y9559D01*
X11293Y9562D01*
X11310Y9532D02*
X11290D01*
X11300Y9542D01*
Y9529D01*
X11293Y9522D02*
X11290Y9519D01*
Y9512D01*
X11293Y9509D01*
X11297D01*
X11300Y9512D01*
X11303Y9509D01*
X11307D01*
X11310Y9512D01*
Y9519D01*
X11307Y9522D01*
X11303D01*
X11300Y9519D01*
X11297Y9522D01*
X11293D01*
X11300Y9519D02*
Y9512D01*
X11427Y8878D02*
X11430Y8875D01*
Y8868D01*
X11427Y8865D01*
X11414D01*
X11410Y8868D01*
Y8875D01*
X11414Y8878D01*
X11410Y8898D02*
Y8885D01*
X11424Y8898D01*
X11427D01*
X11430Y8895D01*
Y8888D01*
X11427Y8885D01*
X11410Y8915D02*
X11430D01*
X11420Y8905D01*
Y8918D01*
X11414Y8925D02*
X11410Y8928D01*
Y8935D01*
X11414Y8938D01*
X11427D01*
X11430Y8935D01*
Y8928D01*
X11427Y8925D01*
X11424D01*
X11420Y8928D01*
Y8938D01*
X11385Y8881D02*
X11388Y8878D01*
Y8871D01*
X11385Y8868D01*
X11371D01*
X11368Y8871D01*
Y8878D01*
X11371Y8881D01*
X11368Y8901D02*
Y8888D01*
X11381Y8901D01*
X11385D01*
X11388Y8898D01*
Y8891D01*
X11385Y8888D01*
X11388Y8921D02*
Y8908D01*
X11378D01*
X11381Y8915D01*
Y8918D01*
X11378Y8921D01*
X11371D01*
X11368Y8918D01*
Y8911D01*
X11371Y8908D01*
X11385Y8928D02*
X11388Y8931D01*
Y8938D01*
X11385Y8941D01*
X11371D01*
X11368Y8938D01*
Y8931D01*
X11371Y8928D01*
X11385D01*
X11724Y9353D02*
X11727Y9356D01*
X11734D01*
X11737Y9353D01*
Y9339D01*
X11734Y9336D01*
X11727D01*
X11724Y9339D01*
X11704Y9336D02*
X11717D01*
X11704Y9349D01*
Y9353D01*
X11707Y9356D01*
X11714D01*
X11717Y9353D01*
X11684Y9356D02*
X11697D01*
Y9346D01*
X11690Y9349D01*
X11687D01*
X11684Y9346D01*
Y9339D01*
X11687Y9336D01*
X11694D01*
X11697Y9339D01*
X11677Y9336D02*
X11670D01*
X11674D01*
Y9356D01*
X11677Y9353D01*
X11354Y9588D02*
X11351Y9591D01*
Y9598D01*
X11354Y9601D01*
X11368D01*
X11371Y9598D01*
Y9591D01*
X11368Y9588D01*
X11371Y9568D02*
Y9581D01*
X11358Y9568D01*
X11354D01*
X11351Y9571D01*
Y9578D01*
X11354Y9581D01*
X11351Y9548D02*
Y9561D01*
X11361D01*
X11358Y9554D01*
Y9551D01*
X11361Y9548D01*
X11368D01*
X11371Y9551D01*
Y9558D01*
X11368Y9561D01*
X11371Y9528D02*
Y9541D01*
X11358Y9528D01*
X11354D01*
X11351Y9531D01*
Y9538D01*
X11354Y9541D01*
X11810Y9059D02*
X11814Y9062D01*
X11820D01*
X11824Y9059D01*
Y9046D01*
X11820Y9042D01*
X11814D01*
X11810Y9046D01*
X11790Y9042D02*
X11804D01*
X11790Y9056D01*
Y9059D01*
X11794Y9062D01*
X11800D01*
X11804Y9059D01*
X11771Y9062D02*
X11784D01*
Y9052D01*
X11777Y9056D01*
X11774D01*
X11771Y9052D01*
Y9046D01*
X11774Y9042D01*
X11781D01*
X11784Y9046D01*
X11754Y9042D02*
Y9062D01*
X11764Y9052D01*
X11751D01*
X11810Y9152D02*
X11814Y9156D01*
X11820D01*
X11824Y9152D01*
Y9139D01*
X11820Y9136D01*
X11814D01*
X11810Y9139D01*
X11790Y9136D02*
X11804D01*
X11790Y9149D01*
Y9152D01*
X11794Y9156D01*
X11800D01*
X11804Y9152D01*
X11771Y9156D02*
X11784D01*
Y9146D01*
X11777Y9149D01*
X11774D01*
X11771Y9146D01*
Y9139D01*
X11774Y9136D01*
X11781D01*
X11784Y9139D01*
X11751Y9156D02*
X11764D01*
Y9146D01*
X11757Y9149D01*
X11754D01*
X11751Y9146D01*
Y9139D01*
X11754Y9136D01*
X11761D01*
X11764Y9139D01*
X10847Y9322D02*
X10844Y9319D01*
X10837D01*
X10834Y9322D01*
Y9336D01*
X10837Y9339D01*
X10844D01*
X10847Y9336D01*
X10867Y9339D02*
X10854D01*
X10867Y9326D01*
Y9322D01*
X10864Y9319D01*
X10857D01*
X10854Y9322D01*
X10887Y9319D02*
X10874D01*
Y9329D01*
X10881Y9326D01*
X10884D01*
X10887Y9329D01*
Y9336D01*
X10884Y9339D01*
X10877D01*
X10874Y9336D01*
X10907Y9319D02*
X10901Y9322D01*
X10894Y9329D01*
Y9336D01*
X10897Y9339D01*
X10904D01*
X10907Y9336D01*
Y9332D01*
X10904Y9329D01*
X10894D01*
X11815Y9100D02*
X11818Y9103D01*
X11825D01*
X11828Y9100D01*
Y9086D01*
X11825Y9083D01*
X11818D01*
X11815Y9086D01*
X11795Y9083D02*
X11808D01*
X11795Y9096D01*
Y9100D01*
X11798Y9103D01*
X11805D01*
X11808Y9100D01*
X11775Y9103D02*
X11788D01*
Y9093D01*
X11781Y9096D01*
X11778D01*
X11775Y9093D01*
Y9086D01*
X11778Y9083D01*
X11785D01*
X11788Y9086D01*
X11768Y9103D02*
X11755D01*
Y9100D01*
X11768Y9086D01*
Y9083D01*
X11491Y9114D02*
X11494Y9111D01*
Y9104D01*
X11491Y9101D01*
X11477D01*
X11474Y9104D01*
Y9111D01*
X11477Y9114D01*
X11474Y9134D02*
Y9121D01*
X11487Y9134D01*
X11491D01*
X11494Y9131D01*
Y9124D01*
X11491Y9121D01*
X11494Y9154D02*
X11491Y9148D01*
X11484Y9141D01*
X11477D01*
X11474Y9144D01*
Y9151D01*
X11477Y9154D01*
X11481D01*
X11484Y9151D01*
Y9141D01*
X11494Y9174D02*
Y9161D01*
X11484D01*
X11487Y9168D01*
Y9171D01*
X11484Y9174D01*
X11477D01*
X11474Y9171D01*
Y9164D01*
X11477Y9161D01*
X11098Y9543D02*
X11095Y9546D01*
Y9553D01*
X11098Y9556D01*
X11112D01*
X11115Y9553D01*
Y9546D01*
X11112Y9543D01*
X11115Y9523D02*
Y9536D01*
X11102Y9523D01*
X11098D01*
X11095Y9526D01*
Y9533D01*
X11098Y9536D01*
X11095Y9503D02*
X11098Y9509D01*
X11105Y9516D01*
X11112D01*
X11115Y9513D01*
Y9506D01*
X11112Y9503D01*
X11108D01*
X11105Y9506D01*
Y9516D01*
X11095Y9483D02*
X11098Y9489D01*
X11105Y9496D01*
X11112D01*
X11115Y9493D01*
Y9486D01*
X11112Y9483D01*
X11108D01*
X11105Y9486D01*
Y9496D01*
X11266Y9180D02*
X11269Y9177D01*
Y9170D01*
X11266Y9167D01*
X11253D01*
X11249Y9170D01*
Y9177D01*
X11253Y9180D01*
X11249Y9200D02*
Y9187D01*
X11263Y9200D01*
X11266D01*
X11269Y9197D01*
Y9190D01*
X11266Y9187D01*
X11269Y9220D02*
X11266Y9214D01*
X11259Y9207D01*
X11253D01*
X11249Y9210D01*
Y9217D01*
X11253Y9220D01*
X11256D01*
X11259Y9217D01*
Y9207D01*
X11269Y9227D02*
Y9240D01*
X11266D01*
X11253Y9227D01*
X11249D01*
X11560Y9089D02*
X11564Y9093D01*
X11570D01*
X11574Y9089D01*
Y9076D01*
X11570Y9073D01*
X11564D01*
X11560Y9076D01*
X11540Y9073D02*
X11554D01*
X11540Y9086D01*
Y9089D01*
X11544Y9093D01*
X11550D01*
X11554Y9089D01*
X11521Y9093D02*
X11527Y9089D01*
X11534Y9083D01*
Y9076D01*
X11531Y9073D01*
X11524D01*
X11521Y9076D01*
Y9079D01*
X11524Y9083D01*
X11534D01*
X11514Y9089D02*
X11511Y9093D01*
X11504D01*
X11501Y9089D01*
Y9086D01*
X11504Y9083D01*
X11501Y9079D01*
Y9076D01*
X11504Y9073D01*
X11511D01*
X11514Y9076D01*
Y9079D01*
X11511Y9083D01*
X11514Y9086D01*
Y9089D01*
X11511Y9083D02*
X11504D01*
X8167Y8987D02*
X8164Y8984D01*
X8157D01*
X8154Y8987D01*
Y9001D01*
X8157Y9004D01*
X8164D01*
X8167Y9001D01*
X8184Y9004D02*
Y8984D01*
X8174Y8994D01*
X8187D01*
X8207Y8984D02*
X8200Y8987D01*
X8194Y8994D01*
Y9001D01*
X8197Y9004D01*
X8204D01*
X8207Y9001D01*
Y8997D01*
X8204Y8994D01*
X8194D01*
X9161Y9258D02*
X9157Y9262D01*
Y9268D01*
X9161Y9272D01*
X9174D01*
X9177Y9268D01*
Y9262D01*
X9174Y9258D01*
X9177Y9242D02*
X9157D01*
X9167Y9252D01*
Y9238D01*
X9157Y9232D02*
Y9218D01*
X9161D01*
X9174Y9232D01*
X9177D01*
X8557Y9113D02*
X8560Y9110D01*
Y9103D01*
X8557Y9100D01*
X8543D01*
X8540Y9103D01*
Y9110D01*
X8543Y9113D01*
X8540Y9130D02*
X8560D01*
X8550Y9120D01*
Y9133D01*
X8557Y9140D02*
X8560Y9143D01*
Y9150D01*
X8557Y9153D01*
X8553D01*
X8550Y9150D01*
X8547Y9153D01*
X8543D01*
X8540Y9150D01*
Y9143D01*
X8543Y9140D01*
X8547D01*
X8550Y9143D01*
X8553Y9140D01*
X8557D01*
X8550Y9143D02*
Y9150D01*
X8487Y8777D02*
X8490Y8780D01*
X8497D01*
X8500Y8777D01*
Y8763D01*
X8497Y8760D01*
X8490D01*
X8487Y8763D01*
X8470Y8760D02*
Y8780D01*
X8480Y8770D01*
X8467D01*
X8460Y8763D02*
X8457Y8760D01*
X8450D01*
X8447Y8763D01*
Y8777D01*
X8450Y8780D01*
X8457D01*
X8460Y8777D01*
Y8773D01*
X8457Y8770D01*
X8447D01*
X8603Y9347D02*
X8600Y9350D01*
Y9357D01*
X8603Y9360D01*
X8617D01*
X8620Y9357D01*
Y9350D01*
X8617Y9347D01*
X8600Y9327D02*
Y9340D01*
X8610D01*
X8607Y9333D01*
Y9330D01*
X8610Y9327D01*
X8617D01*
X8620Y9330D01*
Y9337D01*
X8617Y9340D01*
X8603Y9320D02*
X8600Y9317D01*
Y9310D01*
X8603Y9307D01*
X8617D01*
X8620Y9310D01*
Y9317D01*
X8617Y9320D01*
X8603D01*
X8137Y9144D02*
X8134Y9147D01*
Y9154D01*
X8137Y9157D01*
X8150D01*
X8154Y9154D01*
Y9147D01*
X8150Y9144D01*
X8134Y9124D02*
Y9137D01*
X8144D01*
X8140Y9131D01*
Y9127D01*
X8144Y9124D01*
X8150D01*
X8154Y9127D01*
Y9134D01*
X8150Y9137D01*
X8154Y9117D02*
Y9111D01*
Y9114D01*
X8134D01*
X8137Y9117D01*
X8162Y9616D02*
X8166Y9612D01*
Y9606D01*
X8162Y9602D01*
X8149D01*
X8146Y9606D01*
Y9612D01*
X8149Y9616D01*
X8166Y9636D02*
Y9622D01*
X8156D01*
X8159Y9629D01*
Y9632D01*
X8156Y9636D01*
X8149D01*
X8146Y9632D01*
Y9626D01*
X8149Y9622D01*
X8146Y9656D02*
Y9642D01*
X8159Y9656D01*
X8162D01*
X8166Y9652D01*
Y9646D01*
X8162Y9642D01*
X7703Y9261D02*
X7707Y9264D01*
X7713D01*
X7717Y9261D01*
Y9247D01*
X7713Y9244D01*
X7707D01*
X7703Y9247D01*
X7683Y9264D02*
X7697D01*
Y9254D01*
X7690Y9257D01*
X7687D01*
X7683Y9254D01*
Y9247D01*
X7687Y9244D01*
X7693D01*
X7697Y9247D01*
X7677Y9261D02*
X7673Y9264D01*
X7667D01*
X7663Y9261D01*
Y9257D01*
X7667Y9254D01*
X7670D01*
X7667D01*
X7663Y9251D01*
Y9247D01*
X7667Y9244D01*
X7673D01*
X7677Y9247D01*
X8282Y9108D02*
X8285Y9105D01*
Y9098D01*
X8282Y9095D01*
X8268D01*
X8265Y9098D01*
Y9105D01*
X8268Y9108D01*
X8285Y9128D02*
Y9115D01*
X8275D01*
X8278Y9122D01*
Y9125D01*
X8275Y9128D01*
X8268D01*
X8265Y9125D01*
Y9118D01*
X8268Y9115D01*
X8265Y9145D02*
X8285D01*
X8275Y9135D01*
Y9148D01*
X8455Y9138D02*
X8452Y9135D01*
X8445D01*
X8442Y9138D01*
Y9152D01*
X8445Y9155D01*
X8452D01*
X8455Y9152D01*
X8475Y9135D02*
X8462D01*
Y9145D01*
X8469Y9142D01*
X8472D01*
X8475Y9145D01*
Y9152D01*
X8472Y9155D01*
X8465D01*
X8462Y9152D01*
X8495Y9135D02*
X8482D01*
Y9145D01*
X8489Y9142D01*
X8492D01*
X8495Y9145D01*
Y9152D01*
X8492Y9155D01*
X8485D01*
X8482Y9152D01*
X8805Y8820D02*
X8802Y8824D01*
Y8830D01*
X8805Y8834D01*
X8819D01*
X8822Y8830D01*
Y8824D01*
X8819Y8820D01*
X8802Y8800D02*
Y8814D01*
X8812D01*
X8809Y8807D01*
Y8804D01*
X8812Y8800D01*
X8819D01*
X8822Y8804D01*
Y8810D01*
X8819Y8814D01*
X8802Y8780D02*
X8805Y8787D01*
X8812Y8794D01*
X8819D01*
X8822Y8790D01*
Y8784D01*
X8819Y8780D01*
X8815D01*
X8812Y8784D01*
Y8794D01*
X8875Y8856D02*
X8878Y8859D01*
X8885D01*
X8888Y8856D01*
Y8842D01*
X8885Y8839D01*
X8878D01*
X8875Y8842D01*
X8855Y8859D02*
X8868D01*
Y8849D01*
X8861Y8852D01*
X8858D01*
X8855Y8849D01*
Y8842D01*
X8858Y8839D01*
X8865D01*
X8868Y8842D01*
X8848Y8859D02*
X8835D01*
Y8856D01*
X8848Y8842D01*
Y8839D01*
X8990Y9072D02*
X8993Y9069D01*
Y9062D01*
X8990Y9059D01*
X8976D01*
X8973Y9062D01*
Y9069D01*
X8976Y9072D01*
X8993Y9092D02*
Y9079D01*
X8983D01*
X8986Y9086D01*
Y9089D01*
X8983Y9092D01*
X8976D01*
X8973Y9089D01*
Y9082D01*
X8976Y9079D01*
X8990Y9099D02*
X8993Y9102D01*
Y9109D01*
X8990Y9112D01*
X8986D01*
X8983Y9109D01*
X8980Y9112D01*
X8976D01*
X8973Y9109D01*
Y9102D01*
X8976Y9099D01*
X8980D01*
X8983Y9102D01*
X8986Y9099D01*
X8990D01*
X8983Y9102D02*
Y9109D01*
X8836Y9105D02*
X8833Y9102D01*
X8826D01*
X8823Y9105D01*
Y9119D01*
X8826Y9122D01*
X8833D01*
X8836Y9119D01*
X8856Y9102D02*
X8843D01*
Y9112D01*
X8849Y9109D01*
X8853D01*
X8856Y9112D01*
Y9119D01*
X8853Y9122D01*
X8846D01*
X8843Y9119D01*
X8863D02*
X8866Y9122D01*
X8873D01*
X8876Y9119D01*
Y9105D01*
X8873Y9102D01*
X8866D01*
X8863Y9105D01*
Y9109D01*
X8866Y9112D01*
X8876D01*
X8976Y8936D02*
X8979Y8939D01*
X8986D01*
X8989Y8936D01*
Y8922D01*
X8986Y8919D01*
X8979D01*
X8976Y8922D01*
X8956Y8939D02*
X8962Y8936D01*
X8969Y8929D01*
Y8922D01*
X8966Y8919D01*
X8959D01*
X8956Y8922D01*
Y8926D01*
X8959Y8929D01*
X8969D01*
X8949Y8936D02*
X8946Y8939D01*
X8939D01*
X8936Y8936D01*
Y8922D01*
X8939Y8919D01*
X8946D01*
X8949Y8922D01*
Y8936D01*
X9225Y8887D02*
X9228Y8890D01*
X9235D01*
X9238Y8887D01*
Y8873D01*
X9235Y8870D01*
X9228D01*
X9225Y8873D01*
X9205Y8890D02*
X9212Y8887D01*
X9218Y8880D01*
Y8873D01*
X9215Y8870D01*
X9208D01*
X9205Y8873D01*
Y8877D01*
X9208Y8880D01*
X9218D01*
X9198Y8870D02*
X9192D01*
X9195D01*
Y8890D01*
X9198Y8887D01*
X8609Y9471D02*
X8606Y9474D01*
Y9481D01*
X8609Y9484D01*
X8623D01*
X8626Y9481D01*
Y9474D01*
X8623Y9471D01*
X8606Y9451D02*
X8609Y9458D01*
X8616Y9464D01*
X8623D01*
X8626Y9461D01*
Y9454D01*
X8623Y9451D01*
X8619D01*
X8616Y9454D01*
Y9464D01*
X8626Y9431D02*
Y9444D01*
X8613Y9431D01*
X8609D01*
X8606Y9434D01*
Y9441D01*
X8609Y9444D01*
X9239Y9166D02*
X9242Y9170D01*
X9249D01*
X9252Y9166D01*
Y9153D01*
X9249Y9150D01*
X9242D01*
X9239Y9153D01*
X9219Y9170D02*
X9225Y9166D01*
X9232Y9160D01*
Y9153D01*
X9229Y9150D01*
X9222D01*
X9219Y9153D01*
Y9156D01*
X9222Y9160D01*
X9232D01*
X9212Y9166D02*
X9209Y9170D01*
X9202D01*
X9199Y9166D01*
Y9163D01*
X9202Y9160D01*
X9205D01*
X9202D01*
X9199Y9156D01*
Y9153D01*
X9202Y9150D01*
X9209D01*
X9212Y9153D01*
X9096Y9101D02*
X9093Y9098D01*
X9086D01*
X9083Y9101D01*
Y9115D01*
X9086Y9118D01*
X9093D01*
X9096Y9115D01*
X9116Y9098D02*
X9109Y9101D01*
X9103Y9108D01*
Y9115D01*
X9106Y9118D01*
X9113D01*
X9116Y9115D01*
Y9111D01*
X9113Y9108D01*
X9103D01*
X9133Y9118D02*
Y9098D01*
X9123Y9108D01*
X9136D01*
X9219Y9032D02*
X9215Y9035D01*
Y9042D01*
X9219Y9045D01*
X9232D01*
X9235Y9042D01*
Y9035D01*
X9232Y9032D01*
X9215Y9012D02*
X9219Y9019D01*
X9225Y9025D01*
X9232D01*
X9235Y9022D01*
Y9015D01*
X9232Y9012D01*
X9229D01*
X9225Y9015D01*
Y9025D01*
X9215Y8992D02*
Y9005D01*
X9225D01*
X9222Y8999D01*
Y8995D01*
X9225Y8992D01*
X9232D01*
X9235Y8995D01*
Y9002D01*
X9232Y9005D01*
X9078Y8833D02*
X9074Y8829D01*
X9068D01*
X9064Y8833D01*
Y8846D01*
X9068Y8849D01*
X9074D01*
X9078Y8846D01*
X9098Y8829D02*
X9091Y8833D01*
X9084Y8839D01*
Y8846D01*
X9088Y8849D01*
X9094D01*
X9098Y8846D01*
Y8843D01*
X9094Y8839D01*
X9084D01*
X9118Y8829D02*
X9111Y8833D01*
X9104Y8839D01*
Y8846D01*
X9108Y8849D01*
X9114D01*
X9118Y8846D01*
Y8843D01*
X9114Y8839D01*
X9104D01*
X8158Y8362D02*
X8161Y8359D01*
Y8352D01*
X8158Y8349D01*
X8144D01*
X8141Y8352D01*
Y8359D01*
X8144Y8362D01*
X8161Y8382D02*
X8158Y8376D01*
X8151Y8369D01*
X8144D01*
X8141Y8372D01*
Y8379D01*
X8144Y8382D01*
X8148D01*
X8151Y8379D01*
Y8369D01*
X8161Y8389D02*
Y8402D01*
X8158D01*
X8144Y8389D01*
X8141D01*
X8070Y8422D02*
X8073Y8425D01*
X8080D01*
X8083Y8422D01*
Y8408D01*
X8080Y8405D01*
X8073D01*
X8070Y8408D01*
X8050Y8425D02*
X8056Y8422D01*
X8063Y8415D01*
Y8408D01*
X8060Y8405D01*
X8053D01*
X8050Y8408D01*
Y8412D01*
X8053Y8415D01*
X8063D01*
X8043Y8422D02*
X8040Y8425D01*
X8033D01*
X8030Y8422D01*
Y8418D01*
X8033Y8415D01*
X8030Y8412D01*
Y8408D01*
X8033Y8405D01*
X8040D01*
X8043Y8408D01*
Y8412D01*
X8040Y8415D01*
X8043Y8418D01*
Y8422D01*
X8040Y8415D02*
X8033D01*
X7927Y8675D02*
X7930Y8672D01*
Y8665D01*
X7927Y8662D01*
X7913D01*
X7910Y8665D01*
Y8672D01*
X7913Y8675D01*
X7930Y8695D02*
X7927Y8689D01*
X7920Y8682D01*
X7913D01*
X7910Y8685D01*
Y8692D01*
X7913Y8695D01*
X7917D01*
X7920Y8692D01*
Y8682D01*
X7913Y8702D02*
X7910Y8705D01*
Y8712D01*
X7913Y8715D01*
X7927D01*
X7930Y8712D01*
Y8705D01*
X7927Y8702D01*
X7923D01*
X7920Y8705D01*
Y8715D01*
X8290Y8518D02*
X8287Y8521D01*
Y8528D01*
X8290Y8531D01*
X8304D01*
X8307Y8528D01*
Y8521D01*
X8304Y8518D01*
X8287Y8512D02*
Y8498D01*
X8290D01*
X8304Y8512D01*
X8307D01*
X8290Y8492D02*
X8287Y8488D01*
Y8482D01*
X8290Y8478D01*
X8304D01*
X8307Y8482D01*
Y8488D01*
X8304Y8492D01*
X8290D01*
X7973Y8598D02*
X7970Y8601D01*
Y8608D01*
X7973Y8611D01*
X7987D01*
X7990Y8608D01*
Y8601D01*
X7987Y8598D01*
X7970Y8591D02*
Y8578D01*
X7973D01*
X7987Y8591D01*
X7990D01*
Y8571D02*
Y8564D01*
Y8568D01*
X7970D01*
X7973Y8571D01*
X8400Y8399D02*
X8403Y8396D01*
Y8389D01*
X8400Y8386D01*
X8386D01*
X8383Y8389D01*
Y8396D01*
X8386Y8399D01*
X8403Y8406D02*
Y8419D01*
X8400D01*
X8386Y8406D01*
X8383D01*
Y8439D02*
Y8426D01*
X8396Y8439D01*
X8400D01*
X8403Y8436D01*
Y8429D01*
X8400Y8426D01*
X8002Y8147D02*
X8006Y8150D01*
X8012D01*
X8016Y8147D01*
Y8133D01*
X8012Y8130D01*
X8006D01*
X8002Y8133D01*
X7996Y8150D02*
X7982D01*
Y8147D01*
X7996Y8133D01*
Y8130D01*
X7976Y8147D02*
X7972Y8150D01*
X7966D01*
X7962Y8147D01*
Y8143D01*
X7966Y8140D01*
X7969D01*
X7966D01*
X7962Y8137D01*
Y8133D01*
X7966Y8130D01*
X7972D01*
X7976Y8133D01*
X8186Y7927D02*
X8189Y7923D01*
Y7917D01*
X8186Y7913D01*
X8173D01*
X8169Y7917D01*
Y7923D01*
X8173Y7927D01*
X8189Y7933D02*
Y7947D01*
X8186D01*
X8173Y7933D01*
X8169D01*
Y7963D02*
X8189D01*
X8179Y7953D01*
Y7967D01*
X8151Y8462D02*
X8154Y8465D01*
X8161D01*
X8164Y8462D01*
Y8448D01*
X8161Y8445D01*
X8154D01*
X8151Y8448D01*
X8144Y8465D02*
X8131D01*
Y8462D01*
X8144Y8448D01*
Y8445D01*
X8111Y8465D02*
X8124D01*
Y8455D01*
X8117Y8458D01*
X8114D01*
X8111Y8455D01*
Y8448D01*
X8114Y8445D01*
X8121D01*
X8124Y8448D01*
X8013Y8650D02*
X8010Y8653D01*
Y8660D01*
X8013Y8663D01*
X8027D01*
X8030Y8660D01*
Y8653D01*
X8027Y8650D01*
X8010Y8643D02*
Y8630D01*
X8013D01*
X8027Y8643D01*
X8030D01*
X8010Y8610D02*
X8013Y8616D01*
X8020Y8623D01*
X8027D01*
X8030Y8620D01*
Y8613D01*
X8027Y8610D01*
X8023D01*
X8020Y8613D01*
Y8623D01*
X8603Y8282D02*
X8600Y8285D01*
Y8292D01*
X8603Y8295D01*
X8617D01*
X8620Y8292D01*
Y8285D01*
X8617Y8282D01*
X8600Y8275D02*
Y8262D01*
X8603D01*
X8617Y8275D01*
X8620D01*
X8600Y8255D02*
Y8242D01*
X8603D01*
X8617Y8255D01*
X8620D01*
X8557Y8480D02*
X8560Y8476D01*
Y8470D01*
X8557Y8466D01*
X8543D01*
X8540Y8470D01*
Y8476D01*
X8543Y8480D01*
X8560Y8486D02*
Y8500D01*
X8557D01*
X8543Y8486D01*
X8540D01*
X8557Y8506D02*
X8560Y8510D01*
Y8516D01*
X8557Y8520D01*
X8553D01*
X8550Y8516D01*
X8547Y8520D01*
X8543D01*
X8540Y8516D01*
Y8510D01*
X8543Y8506D01*
X8547D01*
X8550Y8510D01*
X8553Y8506D01*
X8557D01*
X8550Y8510D02*
Y8516D01*
X9056Y8620D02*
X9059Y8623D01*
X9066D01*
X9069Y8620D01*
Y8606D01*
X9066Y8603D01*
X9059D01*
X9056Y8606D01*
X9049Y8623D02*
X9036D01*
Y8620D01*
X9049Y8606D01*
Y8603D01*
X9029Y8606D02*
X9026Y8603D01*
X9019D01*
X9016Y8606D01*
Y8620D01*
X9019Y8623D01*
X9026D01*
X9029Y8620D01*
Y8616D01*
X9026Y8613D01*
X9016D01*
X9140Y8699D02*
X9143Y8702D01*
X9150D01*
X9153Y8699D01*
Y8685D01*
X9150Y8682D01*
X9143D01*
X9140Y8685D01*
X9133Y8699D02*
X9130Y8702D01*
X9123D01*
X9120Y8699D01*
Y8695D01*
X9123Y8692D01*
X9120Y8689D01*
Y8685D01*
X9123Y8682D01*
X9130D01*
X9133Y8685D01*
Y8689D01*
X9130Y8692D01*
X9133Y8695D01*
Y8699D01*
X9130Y8692D02*
X9123D01*
X9113Y8699D02*
X9110Y8702D01*
X9103D01*
X9100Y8699D01*
Y8685D01*
X9103Y8682D01*
X9110D01*
X9113Y8685D01*
Y8699D01*
X8963Y8771D02*
X8966Y8774D01*
X8973D01*
X8976Y8771D01*
Y8757D01*
X8973Y8754D01*
X8966D01*
X8963Y8757D01*
X8956Y8771D02*
X8953Y8774D01*
X8946D01*
X8943Y8771D01*
Y8767D01*
X8946Y8764D01*
X8943Y8761D01*
Y8757D01*
X8946Y8754D01*
X8953D01*
X8956Y8757D01*
Y8761D01*
X8953Y8764D01*
X8956Y8767D01*
Y8771D01*
X8953Y8764D02*
X8946D01*
X8936Y8754D02*
X8930D01*
X8933D01*
Y8774D01*
X8936Y8771D01*
X9212Y8795D02*
X9215Y8791D01*
Y8785D01*
X9212Y8781D01*
X9198D01*
X9195Y8785D01*
Y8791D01*
X9198Y8795D01*
X9212Y8801D02*
X9215Y8805D01*
Y8811D01*
X9212Y8815D01*
X9208D01*
X9205Y8811D01*
X9202Y8815D01*
X9198D01*
X9195Y8811D01*
Y8805D01*
X9198Y8801D01*
X9202D01*
X9205Y8805D01*
X9208Y8801D01*
X9212D01*
X9205Y8805D02*
Y8811D01*
X9195Y8835D02*
Y8821D01*
X9208Y8835D01*
X9212D01*
X9215Y8831D01*
Y8825D01*
X9212Y8821D01*
X9218Y8143D02*
X9221Y8140D01*
Y8133D01*
X9218Y8130D01*
X9204D01*
X9201Y8133D01*
Y8140D01*
X9204Y8143D01*
X9218Y8150D02*
X9221Y8153D01*
Y8160D01*
X9218Y8163D01*
X9214D01*
X9211Y8160D01*
X9208Y8163D01*
X9204D01*
X9201Y8160D01*
Y8153D01*
X9204Y8150D01*
X9208D01*
X9211Y8153D01*
X9214Y8150D01*
X9218D01*
X9211Y8153D02*
Y8160D01*
X9218Y8170D02*
X9221Y8173D01*
Y8180D01*
X9218Y8183D01*
X9214D01*
X9211Y8180D01*
Y8176D01*
Y8180D01*
X9208Y8183D01*
X9204D01*
X9201Y8180D01*
Y8173D01*
X9204Y8170D01*
X9588Y8176D02*
X9591Y8179D01*
X9598D01*
X9601Y8176D01*
Y8163D01*
X9598Y8159D01*
X9591D01*
X9588Y8163D01*
X9581Y8176D02*
X9578Y8179D01*
X9571D01*
X9568Y8176D01*
Y8173D01*
X9571Y8169D01*
X9568Y8166D01*
Y8163D01*
X9571Y8159D01*
X9578D01*
X9581Y8163D01*
Y8166D01*
X9578Y8169D01*
X9581Y8173D01*
Y8176D01*
X9578Y8169D02*
X9571D01*
X9551Y8159D02*
Y8179D01*
X9561Y8169D01*
X9548D01*
X9588Y8142D02*
X9591Y8145D01*
X9598D01*
X9601Y8142D01*
Y8128D01*
X9598Y8125D01*
X9591D01*
X9588Y8128D01*
X9581Y8142D02*
X9578Y8145D01*
X9571D01*
X9568Y8142D01*
Y8138D01*
X9571Y8135D01*
X9568Y8132D01*
Y8128D01*
X9571Y8125D01*
X9578D01*
X9581Y8128D01*
Y8132D01*
X9578Y8135D01*
X9581Y8138D01*
Y8142D01*
X9578Y8135D02*
X9571D01*
X9548Y8145D02*
X9561D01*
Y8135D01*
X9555Y8138D01*
X9551D01*
X9548Y8135D01*
Y8128D01*
X9551Y8125D01*
X9558D01*
X9561Y8128D01*
X8784Y7942D02*
X8788Y7939D01*
Y7932D01*
X8784Y7929D01*
X8771D01*
X8768Y7932D01*
Y7939D01*
X8771Y7942D01*
X8784Y7949D02*
X8788Y7952D01*
Y7959D01*
X8784Y7962D01*
X8781D01*
X8778Y7959D01*
X8774Y7962D01*
X8771D01*
X8768Y7959D01*
Y7952D01*
X8771Y7949D01*
X8774D01*
X8778Y7952D01*
X8781Y7949D01*
X8784D01*
X8778Y7952D02*
Y7959D01*
X8788Y7982D02*
X8784Y7976D01*
X8778Y7969D01*
X8771D01*
X8768Y7972D01*
Y7979D01*
X8771Y7982D01*
X8774D01*
X8778Y7979D01*
Y7969D01*
X9163Y8705D02*
X9160Y8702D01*
X9153D01*
X9150Y8705D01*
Y8719D01*
X9153Y8722D01*
X9160D01*
X9163Y8719D01*
X9170Y8705D02*
X9173Y8702D01*
X9180D01*
X9183Y8705D01*
Y8709D01*
X9180Y8712D01*
X9183Y8715D01*
Y8719D01*
X9180Y8722D01*
X9173D01*
X9170Y8719D01*
Y8715D01*
X9173Y8712D01*
X9170Y8709D01*
Y8705D01*
X9173Y8712D02*
X9180D01*
X9190Y8702D02*
X9203D01*
Y8705D01*
X9190Y8719D01*
Y8722D01*
X7844Y9342D02*
X7841Y9338D01*
X7834D01*
X7831Y9342D01*
Y9355D01*
X7834Y9358D01*
X7841D01*
X7844Y9355D01*
X7851Y9342D02*
X7854Y9338D01*
X7861D01*
X7864Y9342D01*
Y9345D01*
X7861Y9348D01*
X7864Y9352D01*
Y9355D01*
X7861Y9358D01*
X7854D01*
X7851Y9355D01*
Y9352D01*
X7854Y9348D01*
X7851Y9345D01*
Y9342D01*
X7854Y9348D02*
X7861D01*
X7871Y9342D02*
X7874Y9338D01*
X7881D01*
X7884Y9342D01*
Y9345D01*
X7881Y9348D01*
X7884Y9352D01*
Y9355D01*
X7881Y9358D01*
X7874D01*
X7871Y9355D01*
Y9352D01*
X7874Y9348D01*
X7871Y9345D01*
Y9342D01*
X7874Y9348D02*
X7881D01*
X7635Y9286D02*
X7632Y9283D01*
X7625D01*
X7622Y9286D01*
Y9300D01*
X7625Y9303D01*
X7632D01*
X7635Y9300D01*
X7642Y9286D02*
X7645Y9283D01*
X7652D01*
X7655Y9286D01*
Y9290D01*
X7652Y9293D01*
X7655Y9296D01*
Y9300D01*
X7652Y9303D01*
X7645D01*
X7642Y9300D01*
Y9296D01*
X7645Y9293D01*
X7642Y9290D01*
Y9286D01*
X7645Y9293D02*
X7652D01*
X7662Y9300D02*
X7665Y9303D01*
X7672D01*
X7675Y9300D01*
Y9286D01*
X7672Y9283D01*
X7665D01*
X7662Y9286D01*
Y9290D01*
X7665Y9293D01*
X7675D01*
X7844Y9200D02*
X7841Y9197D01*
X7834D01*
X7831Y9200D01*
Y9213D01*
X7834Y9217D01*
X7841D01*
X7844Y9213D01*
X7851D02*
X7854Y9217D01*
X7861D01*
X7864Y9213D01*
Y9200D01*
X7861Y9197D01*
X7854D01*
X7851Y9200D01*
Y9203D01*
X7854Y9207D01*
X7864D01*
X7871Y9200D02*
X7874Y9197D01*
X7881D01*
X7884Y9200D01*
Y9213D01*
X7881Y9217D01*
X7874D01*
X7871Y9213D01*
Y9200D01*
X7895Y8409D02*
X7892Y8405D01*
X7885D01*
X7882Y8409D01*
Y8422D01*
X7885Y8425D01*
X7892D01*
X7895Y8422D01*
X7902D02*
X7905Y8425D01*
X7912D01*
X7915Y8422D01*
Y8409D01*
X7912Y8405D01*
X7905D01*
X7902Y8409D01*
Y8412D01*
X7905Y8415D01*
X7915D01*
X7922Y8425D02*
X7929D01*
X7925D01*
Y8405D01*
X7922Y8409D01*
X7706Y8227D02*
X7703Y8224D01*
X7696D01*
X7693Y8227D01*
Y8241D01*
X7696Y8244D01*
X7703D01*
X7706Y8241D01*
X7713D02*
X7716Y8244D01*
X7723D01*
X7726Y8241D01*
Y8227D01*
X7723Y8224D01*
X7716D01*
X7713Y8227D01*
Y8231D01*
X7716Y8234D01*
X7726D01*
X7746Y8244D02*
X7733D01*
X7746Y8231D01*
Y8227D01*
X7743Y8224D01*
X7736D01*
X7733Y8227D01*
X7706Y8176D02*
X7703Y8173D01*
X7696D01*
X7693Y8176D01*
Y8190D01*
X7696Y8193D01*
X7703D01*
X7706Y8190D01*
X7713D02*
X7716Y8193D01*
X7723D01*
X7726Y8190D01*
Y8176D01*
X7723Y8173D01*
X7716D01*
X7713Y8176D01*
Y8180D01*
X7716Y8183D01*
X7726D01*
X7733Y8176D02*
X7736Y8173D01*
X7743D01*
X7746Y8176D01*
Y8180D01*
X7743Y8183D01*
X7740D01*
X7743D01*
X7746Y8186D01*
Y8190D01*
X7743Y8193D01*
X7736D01*
X7733Y8190D01*
X9415Y9444D02*
X9412Y9441D01*
X9405D01*
X9402Y9444D01*
Y9457D01*
X9405Y9461D01*
X9412D01*
X9415Y9457D01*
X9422D02*
X9425Y9461D01*
X9432D01*
X9435Y9457D01*
Y9444D01*
X9432Y9441D01*
X9425D01*
X9422Y9444D01*
Y9447D01*
X9425Y9451D01*
X9435D01*
X9452Y9461D02*
Y9441D01*
X9442Y9451D01*
X9455D01*
X9415Y9393D02*
X9412Y9389D01*
X9405D01*
X9402Y9393D01*
Y9406D01*
X9405Y9409D01*
X9412D01*
X9415Y9406D01*
X9422D02*
X9425Y9409D01*
X9432D01*
X9435Y9406D01*
Y9393D01*
X9432Y9389D01*
X9425D01*
X9422Y9393D01*
Y9396D01*
X9425Y9399D01*
X9435D01*
X9455Y9389D02*
X9442D01*
Y9399D01*
X9448Y9396D01*
X9452D01*
X9455Y9399D01*
Y9406D01*
X9452Y9409D01*
X9445D01*
X9442Y9406D01*
X9415Y9334D02*
X9412Y9330D01*
X9405D01*
X9402Y9334D01*
Y9347D01*
X9405Y9350D01*
X9412D01*
X9415Y9347D01*
X9422D02*
X9425Y9350D01*
X9432D01*
X9435Y9347D01*
Y9334D01*
X9432Y9330D01*
X9425D01*
X9422Y9334D01*
Y9337D01*
X9425Y9340D01*
X9435D01*
X9455Y9330D02*
X9448Y9334D01*
X9442Y9340D01*
Y9347D01*
X9445Y9350D01*
X9452D01*
X9455Y9347D01*
Y9344D01*
X9452Y9340D01*
X9442D01*
X9478Y8378D02*
X9481Y8381D01*
X9488D01*
X9491Y8378D01*
Y8365D01*
X9488Y8361D01*
X9481D01*
X9478Y8365D01*
X9471D02*
X9468Y8361D01*
X9461D01*
X9458Y8365D01*
Y8378D01*
X9461Y8381D01*
X9468D01*
X9471Y8378D01*
Y8375D01*
X9468Y8371D01*
X9458D01*
X9451Y8381D02*
X9438D01*
Y8378D01*
X9451Y8365D01*
Y8361D01*
X9452Y8269D02*
X9456Y8272D01*
X9462D01*
X9466Y8269D01*
Y8255D01*
X9462Y8252D01*
X9456D01*
X9452Y8255D01*
X9446D02*
X9442Y8252D01*
X9436D01*
X9432Y8255D01*
Y8269D01*
X9436Y8272D01*
X9442D01*
X9446Y8269D01*
Y8265D01*
X9442Y8262D01*
X9432D01*
X9426Y8269D02*
X9422Y8272D01*
X9416D01*
X9412Y8269D01*
Y8265D01*
X9416Y8262D01*
X9412Y8259D01*
Y8255D01*
X9416Y8252D01*
X9422D01*
X9426Y8255D01*
Y8259D01*
X9422Y8262D01*
X9426Y8265D01*
Y8269D01*
X9422Y8262D02*
X9416D01*
X9453Y8216D02*
X9457Y8220D01*
X9463D01*
X9467Y8216D01*
Y8203D01*
X9463Y8200D01*
X9457D01*
X9453Y8203D01*
X9447D02*
X9443Y8200D01*
X9437D01*
X9433Y8203D01*
Y8216D01*
X9437Y8220D01*
X9443D01*
X9447Y8216D01*
Y8213D01*
X9443Y8210D01*
X9433D01*
X9427Y8203D02*
X9423Y8200D01*
X9417D01*
X9413Y8203D01*
Y8216D01*
X9417Y8220D01*
X9423D01*
X9427Y8216D01*
Y8213D01*
X9423Y8210D01*
X9413D01*
X8094Y9695D02*
X8090Y9699D01*
Y9705D01*
X8094Y9709D01*
X8107D01*
X8110Y9705D01*
Y9699D01*
X8107Y9695D01*
X8110Y9689D02*
Y9682D01*
Y9685D01*
X8090D01*
X8094Y9689D01*
Y9672D02*
X8090Y9669D01*
Y9662D01*
X8094Y9659D01*
X8107D01*
X8110Y9662D01*
Y9669D01*
X8107Y9672D01*
X8094D01*
Y9652D02*
X8090Y9649D01*
Y9642D01*
X8094Y9639D01*
X8107D01*
X8110Y9642D01*
Y9649D01*
X8107Y9652D01*
X8094D01*
X7844Y9385D02*
X7841Y9382D01*
X7834D01*
X7831Y9385D01*
Y9398D01*
X7834Y9402D01*
X7841D01*
X7844Y9398D01*
X7851Y9402D02*
X7857D01*
X7854D01*
Y9382D01*
X7851Y9385D01*
X7867D02*
X7871Y9382D01*
X7877D01*
X7881Y9385D01*
Y9398D01*
X7877Y9402D01*
X7871D01*
X7867Y9398D01*
Y9385D01*
X7887Y9402D02*
X7894D01*
X7891D01*
Y9382D01*
X7887Y9385D01*
X7671Y8783D02*
X7667Y8779D01*
X7661D01*
X7657Y8783D01*
Y8796D01*
X7661Y8799D01*
X7667D01*
X7671Y8796D01*
X7677Y8799D02*
X7684D01*
X7681D01*
Y8779D01*
X7677Y8783D01*
X7694D02*
X7697Y8779D01*
X7704D01*
X7707Y8783D01*
Y8796D01*
X7704Y8799D01*
X7697D01*
X7694Y8796D01*
Y8783D01*
X7727Y8799D02*
X7714D01*
X7727Y8786D01*
Y8783D01*
X7724Y8779D01*
X7717D01*
X7714Y8783D01*
X8535Y9841D02*
X8531Y9844D01*
Y9851D01*
X8535Y9854D01*
X8548D01*
X8551Y9851D01*
Y9844D01*
X8548Y9841D01*
X8551Y9834D02*
Y9828D01*
Y9831D01*
X8531D01*
X8535Y9834D01*
Y9818D02*
X8531Y9814D01*
Y9808D01*
X8535Y9804D01*
X8548D01*
X8551Y9808D01*
Y9814D01*
X8548Y9818D01*
X8535D01*
Y9798D02*
X8531Y9794D01*
Y9788D01*
X8535Y9784D01*
X8538D01*
X8541Y9788D01*
Y9791D01*
Y9788D01*
X8545Y9784D01*
X8548D01*
X8551Y9788D01*
Y9794D01*
X8548Y9798D01*
X9483Y9217D02*
X9486Y9221D01*
X9493D01*
X9496Y9217D01*
Y9204D01*
X9493Y9201D01*
X9486D01*
X9483Y9204D01*
X9476Y9201D02*
X9469D01*
X9473D01*
Y9221D01*
X9476Y9217D01*
X9459D02*
X9456Y9221D01*
X9449D01*
X9446Y9217D01*
Y9204D01*
X9449Y9201D01*
X9456D01*
X9459Y9204D01*
Y9217D01*
X9429Y9201D02*
Y9221D01*
X9439Y9211D01*
X9426D01*
X9497Y9116D02*
X9501Y9119D01*
X9507D01*
X9511Y9116D01*
Y9103D01*
X9507Y9099D01*
X9501D01*
X9497Y9103D01*
X9491Y9099D02*
X9484D01*
X9488D01*
Y9119D01*
X9491Y9116D01*
X9474D02*
X9471Y9119D01*
X9464D01*
X9461Y9116D01*
Y9103D01*
X9464Y9099D01*
X9471D01*
X9474Y9103D01*
Y9116D01*
X9441Y9119D02*
X9454D01*
Y9109D01*
X9448Y9113D01*
X9444D01*
X9441Y9109D01*
Y9103D01*
X9444Y9099D01*
X9451D01*
X9454Y9103D01*
X7793Y8310D02*
X7790Y8307D01*
X7783D01*
X7780Y8310D01*
Y8323D01*
X7783Y8327D01*
X7790D01*
X7793Y8323D01*
X7800Y8327D02*
X7806D01*
X7803D01*
Y8307D01*
X7800Y8310D01*
X7816D02*
X7820Y8307D01*
X7826D01*
X7830Y8310D01*
Y8323D01*
X7826Y8327D01*
X7820D01*
X7816Y8323D01*
Y8310D01*
X7850Y8307D02*
X7843Y8310D01*
X7836Y8317D01*
Y8323D01*
X7840Y8327D01*
X7846D01*
X7850Y8323D01*
Y8320D01*
X7846Y8317D01*
X7836D01*
X9494Y8444D02*
X9497Y8447D01*
X9504D01*
X9507Y8444D01*
Y8430D01*
X9504Y8427D01*
X9497D01*
X9494Y8430D01*
X9487Y8427D02*
X9480D01*
X9484D01*
Y8447D01*
X9487Y8444D01*
X9470D02*
X9467Y8447D01*
X9460D01*
X9457Y8444D01*
Y8430D01*
X9460Y8427D01*
X9467D01*
X9470Y8430D01*
Y8444D01*
X9450Y8447D02*
X9437D01*
Y8444D01*
X9450Y8430D01*
Y8427D01*
X8135Y7899D02*
X8138Y7896D01*
Y7889D01*
X8135Y7886D01*
X8121D01*
X8118Y7889D01*
Y7896D01*
X8121Y7899D01*
X8118Y7906D02*
Y7912D01*
Y7909D01*
X8138D01*
X8135Y7906D01*
Y7922D02*
X8138Y7926D01*
Y7932D01*
X8135Y7936D01*
X8121D01*
X8118Y7932D01*
Y7926D01*
X8121Y7922D01*
X8135D01*
Y7942D02*
X8138Y7946D01*
Y7952D01*
X8135Y7956D01*
X8131D01*
X8128Y7952D01*
X8125Y7956D01*
X8121D01*
X8118Y7952D01*
Y7946D01*
X8121Y7942D01*
X8125D01*
X8128Y7946D01*
X8131Y7942D01*
X8135D01*
X8128Y7946D02*
Y7952D01*
X8694Y8029D02*
X8697Y8026D01*
Y8019D01*
X8694Y8016D01*
X8680D01*
X8677Y8019D01*
Y8026D01*
X8680Y8029D01*
X8677Y8036D02*
Y8043D01*
Y8039D01*
X8697D01*
X8694Y8036D01*
Y8053D02*
X8697Y8056D01*
Y8063D01*
X8694Y8066D01*
X8680D01*
X8677Y8063D01*
Y8056D01*
X8680Y8053D01*
X8694D01*
X8680Y8073D02*
X8677Y8076D01*
Y8083D01*
X8680Y8086D01*
X8694D01*
X8697Y8083D01*
Y8076D01*
X8694Y8073D01*
X8690D01*
X8687Y8076D01*
Y8086D01*
X9491Y8495D02*
X9494Y8498D01*
X9501D01*
X9504Y8495D01*
Y8482D01*
X9501Y8478D01*
X9494D01*
X9491Y8482D01*
X9484Y8478D02*
X9477D01*
X9481D01*
Y8498D01*
X9484Y8495D01*
X9467Y8478D02*
X9461D01*
X9464D01*
Y8498D01*
X9467Y8495D01*
X9451D02*
X9447Y8498D01*
X9441D01*
X9437Y8495D01*
Y8482D01*
X9441Y8478D01*
X9447D01*
X9451Y8482D01*
Y8495D01*
X9482Y8326D02*
X9485Y8329D01*
X9492D01*
X9495Y8326D01*
Y8312D01*
X9492Y8309D01*
X9485D01*
X9482Y8312D01*
X9475Y8309D02*
X9468D01*
X9472D01*
Y8329D01*
X9475Y8326D01*
X9458Y8309D02*
X9452D01*
X9455D01*
Y8329D01*
X9458Y8326D01*
X9442Y8309D02*
X9435D01*
X9438D01*
Y8329D01*
X9442Y8326D01*
X8357Y8837D02*
X8360Y8840D01*
X8367D01*
X8370Y8837D01*
Y8823D01*
X8367Y8820D01*
X8360D01*
X8357Y8823D01*
X8350Y8820D02*
X8343D01*
X8347D01*
Y8840D01*
X8350Y8837D01*
X8333Y8820D02*
X8327D01*
X8330D01*
Y8840D01*
X8333Y8837D01*
X8303Y8820D02*
X8317D01*
X8303Y8833D01*
Y8837D01*
X8307Y8840D01*
X8313D01*
X8317Y8837D01*
X7963Y8891D02*
X7966Y8894D01*
X7973D01*
X7976Y8891D01*
Y8877D01*
X7973Y8874D01*
X7966D01*
X7963Y8877D01*
X7956Y8874D02*
X7950D01*
X7953D01*
Y8894D01*
X7956Y8891D01*
X7940Y8874D02*
X7933D01*
X7936D01*
Y8894D01*
X7940Y8891D01*
X7923D02*
X7920Y8894D01*
X7913D01*
X7910Y8891D01*
Y8887D01*
X7913Y8884D01*
X7916D01*
X7913D01*
X7910Y8881D01*
Y8877D01*
X7913Y8874D01*
X7920D01*
X7923Y8877D01*
X8191Y8763D02*
X8187Y8760D01*
X8181D01*
X8177Y8763D01*
Y8777D01*
X8181Y8780D01*
X8187D01*
X8191Y8777D01*
X8197Y8780D02*
X8204D01*
X8201D01*
Y8760D01*
X8197Y8763D01*
X8214Y8780D02*
X8221D01*
X8217D01*
Y8760D01*
X8214Y8763D01*
X8241Y8780D02*
Y8760D01*
X8231Y8770D01*
X8244D01*
X7907Y8991D02*
X7904Y8988D01*
X7897D01*
X7894Y8991D01*
Y9005D01*
X7897Y9008D01*
X7904D01*
X7907Y9005D01*
X7914Y9008D02*
X7920D01*
X7917D01*
Y8988D01*
X7914Y8991D01*
X7930Y9008D02*
X7937D01*
X7934D01*
Y8988D01*
X7930Y8991D01*
X7960Y8988D02*
X7947D01*
Y8998D01*
X7954Y8995D01*
X7957D01*
X7960Y8998D01*
Y9005D01*
X7957Y9008D01*
X7950D01*
X7947Y9005D01*
X8072Y9076D02*
X8075Y9073D01*
Y9066D01*
X8072Y9063D01*
X8058D01*
X8055Y9066D01*
Y9073D01*
X8058Y9076D01*
X8055Y9083D02*
Y9090D01*
Y9086D01*
X8075D01*
X8072Y9083D01*
X8055Y9100D02*
Y9106D01*
Y9103D01*
X8075D01*
X8072Y9100D01*
X8075Y9130D02*
X8072Y9123D01*
X8065Y9116D01*
X8058D01*
X8055Y9120D01*
Y9126D01*
X8058Y9130D01*
X8062D01*
X8065Y9126D01*
Y9116D01*
X8544Y8626D02*
X8541Y8630D01*
Y8636D01*
X8544Y8640D01*
X8558D01*
X8561Y8636D01*
Y8630D01*
X8558Y8626D01*
X8561Y8620D02*
Y8613D01*
Y8616D01*
X8541D01*
X8544Y8620D01*
X8561Y8603D02*
Y8596D01*
Y8600D01*
X8541D01*
X8544Y8603D01*
X8541Y8586D02*
Y8573D01*
X8544D01*
X8558Y8586D01*
X8561D01*
X9010Y9348D02*
X9013Y9351D01*
X9020D01*
X9023Y9348D01*
Y9334D01*
X9020Y9331D01*
X9013D01*
X9010Y9334D01*
X9003Y9331D02*
X8996D01*
X9000D01*
Y9351D01*
X9003Y9348D01*
X8986Y9331D02*
X8980D01*
X8983D01*
Y9351D01*
X8986Y9348D01*
X8970D02*
X8966Y9351D01*
X8960D01*
X8956Y9348D01*
Y9344D01*
X8960Y9341D01*
X8956Y9338D01*
Y9334D01*
X8960Y9331D01*
X8966D01*
X8970Y9334D01*
Y9338D01*
X8966Y9341D01*
X8970Y9344D01*
Y9348D01*
X8966Y9341D02*
X8960D01*
X8852Y9180D02*
X8849Y9177D01*
X8842D01*
X8839Y9180D01*
Y9194D01*
X8842Y9197D01*
X8849D01*
X8852Y9194D01*
X8859Y9197D02*
X8865D01*
X8862D01*
Y9177D01*
X8859Y9180D01*
X8875Y9197D02*
X8882D01*
X8879D01*
Y9177D01*
X8875Y9180D01*
X8892Y9194D02*
X8895Y9197D01*
X8902D01*
X8905Y9194D01*
Y9180D01*
X8902Y9177D01*
X8895D01*
X8892Y9180D01*
Y9184D01*
X8895Y9187D01*
X8905D01*
X8701Y9221D02*
X8698Y9224D01*
Y9231D01*
X8701Y9234D01*
X8715D01*
X8718Y9231D01*
Y9224D01*
X8715Y9221D01*
X8718Y9214D02*
Y9207D01*
Y9211D01*
X8698D01*
X8701Y9214D01*
X8718Y9184D02*
Y9197D01*
X8705Y9184D01*
X8701D01*
X8698Y9187D01*
Y9194D01*
X8701Y9197D01*
Y9177D02*
X8698Y9174D01*
Y9167D01*
X8701Y9164D01*
X8715D01*
X8718Y9167D01*
Y9174D01*
X8715Y9177D01*
X8701D01*
X8773Y8603D02*
X8776Y8599D01*
Y8593D01*
X8773Y8589D01*
X8759D01*
X8756Y8593D01*
Y8599D01*
X8759Y8603D01*
X8756Y8609D02*
Y8616D01*
Y8613D01*
X8776D01*
X8773Y8609D01*
X8756Y8639D02*
Y8626D01*
X8769Y8639D01*
X8773D01*
X8776Y8636D01*
Y8629D01*
X8773Y8626D01*
X8756Y8646D02*
Y8653D01*
Y8649D01*
X8776D01*
X8773Y8646D01*
X9175Y9388D02*
X9179Y9391D01*
X9185D01*
X9189Y9388D01*
Y9374D01*
X9185Y9371D01*
X9179D01*
X9175Y9374D01*
X9169Y9371D02*
X9162D01*
X9165D01*
Y9391D01*
X9169Y9388D01*
X9139Y9371D02*
X9152D01*
X9139Y9384D01*
Y9388D01*
X9142Y9391D01*
X9149D01*
X9152Y9388D01*
X9119Y9371D02*
X9132D01*
X9119Y9384D01*
Y9388D01*
X9122Y9391D01*
X9129D01*
X9132Y9388D01*
X8700Y9070D02*
X8697Y9074D01*
Y9080D01*
X8700Y9084D01*
X8714D01*
X8717Y9080D01*
Y9074D01*
X8714Y9070D01*
X8717Y9064D02*
Y9057D01*
Y9060D01*
X8697D01*
X8700Y9064D01*
X8717Y9034D02*
Y9047D01*
X8704Y9034D01*
X8700D01*
X8697Y9037D01*
Y9044D01*
X8700Y9047D01*
Y9027D02*
X8697Y9024D01*
Y9017D01*
X8700Y9014D01*
X8704D01*
X8707Y9017D01*
Y9020D01*
Y9017D01*
X8710Y9014D01*
X8714D01*
X8717Y9017D01*
Y9024D01*
X8714Y9027D01*
X8931Y8573D02*
X8934Y8576D01*
X8941D01*
X8944Y8573D01*
Y8559D01*
X8941Y8556D01*
X8934D01*
X8931Y8559D01*
X8924Y8556D02*
X8917D01*
X8921D01*
Y8576D01*
X8924Y8573D01*
X8894Y8556D02*
X8907D01*
X8894Y8569D01*
Y8573D01*
X8897Y8576D01*
X8904D01*
X8907Y8573D01*
X8877Y8556D02*
Y8576D01*
X8887Y8566D01*
X8874D01*
X8814Y8482D02*
X8818Y8485D01*
X8824D01*
X8828Y8482D01*
Y8468D01*
X8824Y8465D01*
X8818D01*
X8814Y8468D01*
X8808Y8465D02*
X8801D01*
X8804D01*
Y8485D01*
X8808Y8482D01*
X8778Y8465D02*
X8791D01*
X8778Y8478D01*
Y8482D01*
X8781Y8485D01*
X8788D01*
X8791Y8482D01*
X8758Y8485D02*
X8771D01*
Y8475D01*
X8764Y8478D01*
X8761D01*
X8758Y8475D01*
Y8468D01*
X8761Y8465D01*
X8768D01*
X8771Y8468D01*
X8852Y8330D02*
X8848Y8327D01*
X8842D01*
X8838Y8330D01*
Y8344D01*
X8842Y8347D01*
X8848D01*
X8852Y8344D01*
X8858Y8347D02*
X8865D01*
X8862D01*
Y8327D01*
X8858Y8330D01*
X8888Y8347D02*
X8875D01*
X8888Y8334D01*
Y8330D01*
X8885Y8327D01*
X8878D01*
X8875Y8330D01*
X8908Y8327D02*
X8902Y8330D01*
X8895Y8337D01*
Y8344D01*
X8898Y8347D01*
X8905D01*
X8908Y8344D01*
Y8340D01*
X8905Y8337D01*
X8895D01*
X9086Y8173D02*
X9082Y8170D01*
X9076D01*
X9072Y8173D01*
Y8187D01*
X9076Y8190D01*
X9082D01*
X9086Y8187D01*
X9092Y8190D02*
X9099D01*
X9096D01*
Y8170D01*
X9092Y8173D01*
X9122Y8190D02*
X9109D01*
X9122Y8177D01*
Y8173D01*
X9119Y8170D01*
X9112D01*
X9109Y8173D01*
X9129Y8170D02*
X9142D01*
Y8173D01*
X9129Y8187D01*
Y8190D01*
X8859Y8325D02*
X8863Y8328D01*
X8869D01*
X8873Y8325D01*
Y8311D01*
X8869Y8308D01*
X8863D01*
X8859Y8311D01*
X8853Y8308D02*
X8846D01*
X8849D01*
Y8328D01*
X8853Y8325D01*
X8823Y8308D02*
X8836D01*
X8823Y8321D01*
Y8325D01*
X8826Y8328D01*
X8833D01*
X8836Y8325D01*
X8816D02*
X8813Y8328D01*
X8806D01*
X8803Y8325D01*
Y8321D01*
X8806Y8318D01*
X8803Y8315D01*
Y8311D01*
X8806Y8308D01*
X8813D01*
X8816Y8311D01*
Y8315D01*
X8813Y8318D01*
X8816Y8321D01*
Y8325D01*
X8813Y8318D02*
X8806D01*
X8896Y8247D02*
X8899Y8250D01*
X8906D01*
X8909Y8247D01*
Y8233D01*
X8906Y8230D01*
X8899D01*
X8896Y8233D01*
X8889Y8230D02*
X8882D01*
X8886D01*
Y8250D01*
X8889Y8247D01*
X8859Y8230D02*
X8872D01*
X8859Y8243D01*
Y8247D01*
X8862Y8250D01*
X8869D01*
X8872Y8247D01*
X8852Y8233D02*
X8849Y8230D01*
X8842D01*
X8839Y8233D01*
Y8247D01*
X8842Y8250D01*
X8849D01*
X8852Y8247D01*
Y8243D01*
X8849Y8240D01*
X8839D01*
X9547Y9049D02*
X9550Y9052D01*
X9557D01*
X9560Y9049D01*
Y9036D01*
X9557Y9032D01*
X9550D01*
X9547Y9036D01*
X9540Y9032D02*
X9533D01*
X9537D01*
Y9052D01*
X9540Y9049D01*
X9523D02*
X9520Y9052D01*
X9513D01*
X9510Y9049D01*
Y9046D01*
X9513Y9042D01*
X9517D01*
X9513D01*
X9510Y9039D01*
Y9036D01*
X9513Y9032D01*
X9520D01*
X9523Y9036D01*
X9503Y9049D02*
X9500Y9052D01*
X9493D01*
X9490Y9049D01*
Y9036D01*
X9493Y9032D01*
X9500D01*
X9503Y9036D01*
Y9049D01*
X9541Y8968D02*
X9544Y8972D01*
X9551D01*
X9554Y8968D01*
Y8955D01*
X9551Y8952D01*
X9544D01*
X9541Y8955D01*
X9534Y8952D02*
X9527D01*
X9531D01*
Y8972D01*
X9534Y8968D01*
X9517D02*
X9514Y8972D01*
X9507D01*
X9504Y8968D01*
Y8965D01*
X9507Y8962D01*
X9511D01*
X9507D01*
X9504Y8958D01*
Y8955D01*
X9507Y8952D01*
X9514D01*
X9517Y8955D01*
X9497Y8952D02*
X9491D01*
X9494D01*
Y8972D01*
X9497Y8968D01*
X9546Y8886D02*
X9549Y8889D01*
X9556D01*
X9559Y8886D01*
Y8872D01*
X9556Y8869D01*
X9549D01*
X9546Y8872D01*
X9539Y8869D02*
X9532D01*
X9536D01*
Y8889D01*
X9539Y8886D01*
X9522D02*
X9519Y8889D01*
X9512D01*
X9509Y8886D01*
Y8882D01*
X9512Y8879D01*
X9516D01*
X9512D01*
X9509Y8876D01*
Y8872D01*
X9512Y8869D01*
X9519D01*
X9522Y8872D01*
X9489Y8869D02*
X9502D01*
X9489Y8882D01*
Y8886D01*
X9492Y8889D01*
X9499D01*
X9502Y8886D01*
X9407Y8787D02*
X9410Y8790D01*
X9417D01*
X9420Y8787D01*
Y8773D01*
X9417Y8770D01*
X9410D01*
X9407Y8773D01*
X9400Y8770D02*
X9393D01*
X9397D01*
Y8790D01*
X9400Y8787D01*
X9383D02*
X9380Y8790D01*
X9373D01*
X9370Y8787D01*
Y8783D01*
X9373Y8780D01*
X9377D01*
X9373D01*
X9370Y8777D01*
Y8773D01*
X9373Y8770D01*
X9380D01*
X9383Y8773D01*
X9363Y8787D02*
X9360Y8790D01*
X9353D01*
X9350Y8787D01*
Y8783D01*
X9353Y8780D01*
X9357D01*
X9353D01*
X9350Y8777D01*
Y8773D01*
X9353Y8770D01*
X9360D01*
X9363Y8773D01*
X9547Y8645D02*
X9550Y8648D01*
X9557D01*
X9560Y8645D01*
Y8631D01*
X9557Y8628D01*
X9550D01*
X9547Y8631D01*
X9540Y8628D02*
X9533D01*
X9537D01*
Y8648D01*
X9540Y8645D01*
X9523D02*
X9520Y8648D01*
X9513D01*
X9510Y8645D01*
Y8641D01*
X9513Y8638D01*
X9517D01*
X9513D01*
X9510Y8635D01*
Y8631D01*
X9513Y8628D01*
X9520D01*
X9523Y8631D01*
X9493Y8628D02*
Y8648D01*
X9503Y8638D01*
X9490D01*
X7908Y9062D02*
X7911Y9065D01*
X7918D01*
X7921Y9062D01*
Y9049D01*
X7918Y9045D01*
X7911D01*
X7908Y9049D01*
X7901Y9045D02*
X7895D01*
X7898D01*
Y9065D01*
X7901Y9062D01*
X7885D02*
X7881Y9065D01*
X7875D01*
X7871Y9062D01*
Y9059D01*
X7875Y9055D01*
X7878D01*
X7875D01*
X7871Y9052D01*
Y9049D01*
X7875Y9045D01*
X7881D01*
X7885Y9049D01*
X7851Y9065D02*
X7865D01*
Y9055D01*
X7858Y9059D01*
X7855D01*
X7851Y9055D01*
Y9049D01*
X7855Y9045D01*
X7861D01*
X7865Y9049D01*
X7761Y8931D02*
X7764Y8934D01*
X7771D01*
X7774Y8931D01*
Y8917D01*
X7771Y8914D01*
X7764D01*
X7761Y8917D01*
X7754Y8914D02*
X7747D01*
X7751D01*
Y8934D01*
X7754Y8931D01*
X7737D02*
X7734Y8934D01*
X7727D01*
X7724Y8931D01*
Y8927D01*
X7727Y8924D01*
X7731D01*
X7727D01*
X7724Y8921D01*
Y8917D01*
X7727Y8914D01*
X7734D01*
X7737Y8917D01*
X7704Y8934D02*
X7711Y8931D01*
X7717Y8924D01*
Y8917D01*
X7714Y8914D01*
X7707D01*
X7704Y8917D01*
Y8921D01*
X7707Y8924D01*
X7717D01*
X7682Y8740D02*
X7685Y8743D01*
X7692D01*
X7695Y8740D01*
Y8726D01*
X7692Y8723D01*
X7685D01*
X7682Y8726D01*
X7675Y8723D02*
X7668D01*
X7672D01*
Y8743D01*
X7675Y8740D01*
X7658D02*
X7655Y8743D01*
X7648D01*
X7645Y8740D01*
Y8736D01*
X7648Y8733D01*
X7652D01*
X7648D01*
X7645Y8730D01*
Y8726D01*
X7648Y8723D01*
X7655D01*
X7658Y8726D01*
X7638Y8743D02*
X7625D01*
Y8740D01*
X7638Y8726D01*
Y8723D01*
X7682Y8648D02*
X7685Y8651D01*
X7692D01*
X7695Y8648D01*
Y8634D01*
X7692Y8631D01*
X7685D01*
X7682Y8634D01*
X7675Y8631D02*
X7668D01*
X7672D01*
Y8651D01*
X7675Y8648D01*
X7658D02*
X7655Y8651D01*
X7648D01*
X7645Y8648D01*
Y8644D01*
X7648Y8641D01*
X7652D01*
X7648D01*
X7645Y8638D01*
Y8634D01*
X7648Y8631D01*
X7655D01*
X7658Y8634D01*
X7638Y8648D02*
X7635Y8651D01*
X7628D01*
X7625Y8648D01*
Y8644D01*
X7628Y8641D01*
X7625Y8638D01*
Y8634D01*
X7628Y8631D01*
X7635D01*
X7638Y8634D01*
Y8638D01*
X7635Y8641D01*
X7638Y8644D01*
Y8648D01*
X7635Y8641D02*
X7628D01*
X7682Y8577D02*
X7685Y8580D01*
X7692D01*
X7695Y8577D01*
Y8563D01*
X7692Y8560D01*
X7685D01*
X7682Y8563D01*
X7675Y8560D02*
X7668D01*
X7672D01*
Y8580D01*
X7675Y8577D01*
X7658D02*
X7655Y8580D01*
X7648D01*
X7645Y8577D01*
Y8573D01*
X7648Y8570D01*
X7652D01*
X7648D01*
X7645Y8567D01*
Y8563D01*
X7648Y8560D01*
X7655D01*
X7658Y8563D01*
X7638D02*
X7635Y8560D01*
X7628D01*
X7625Y8563D01*
Y8577D01*
X7628Y8580D01*
X7635D01*
X7638Y8577D01*
Y8573D01*
X7635Y8570D01*
X7625D01*
X8216Y9754D02*
X8212Y9758D01*
Y9764D01*
X8216Y9768D01*
X8229D01*
X8232Y9764D01*
Y9758D01*
X8229Y9754D01*
X8232Y9748D02*
Y9741D01*
Y9744D01*
X8212D01*
X8216Y9748D01*
X8232Y9721D02*
X8212D01*
X8222Y9731D01*
Y9718D01*
X8216Y9711D02*
X8212Y9708D01*
Y9701D01*
X8216Y9698D01*
X8229D01*
X8232Y9701D01*
Y9708D01*
X8229Y9711D01*
X8216D01*
X8798Y9962D02*
X8795Y9965D01*
Y9972D01*
X8798Y9975D01*
X8812D01*
X8815Y9972D01*
Y9965D01*
X8812Y9962D01*
X8815Y9955D02*
Y9949D01*
Y9952D01*
X8795D01*
X8798Y9955D01*
X8815Y9929D02*
X8795D01*
X8805Y9939D01*
Y9925D01*
X8815Y9919D02*
Y9912D01*
Y9915D01*
X8795D01*
X8798Y9919D01*
X8598Y9786D02*
X8594Y9789D01*
Y9796D01*
X8598Y9799D01*
X8611D01*
X8614Y9796D01*
Y9789D01*
X8611Y9786D01*
X8614Y9779D02*
Y9773D01*
Y9776D01*
X8594D01*
X8598Y9779D01*
X8614Y9753D02*
X8594D01*
X8604Y9763D01*
Y9749D01*
X8614Y9729D02*
Y9743D01*
X8601Y9729D01*
X8598D01*
X8594Y9733D01*
Y9739D01*
X8598Y9743D01*
X8553Y8056D02*
X8550Y8059D01*
Y8066D01*
X8553Y8069D01*
X8567D01*
X8570Y8066D01*
Y8059D01*
X8567Y8056D01*
X8570Y8049D02*
Y8042D01*
Y8046D01*
X8550D01*
X8553Y8049D01*
X8570Y8022D02*
X8550D01*
X8560Y8032D01*
Y8019D01*
X8553Y8012D02*
X8550Y8009D01*
Y8002D01*
X8553Y7999D01*
X8557D01*
X8560Y8002D01*
Y8006D01*
Y8002D01*
X8563Y7999D01*
X8567D01*
X8570Y8002D01*
Y8009D01*
X8567Y8012D01*
X9522Y9277D02*
X9525Y9280D01*
X9532D01*
X9535Y9277D01*
Y9263D01*
X9532Y9260D01*
X9525D01*
X9522Y9263D01*
X9515Y9260D02*
X9509D01*
X9512D01*
Y9280D01*
X9515Y9277D01*
X9489Y9260D02*
Y9280D01*
X9499Y9270D01*
X9485D01*
X9469Y9260D02*
Y9280D01*
X9479Y9270D01*
X9465D01*
X9548Y8563D02*
X9551Y8566D01*
X9558D01*
X9561Y8563D01*
Y8550D01*
X9558Y8546D01*
X9551D01*
X9548Y8550D01*
X9541Y8546D02*
X9534D01*
X9538D01*
Y8566D01*
X9541Y8563D01*
X9514Y8546D02*
Y8566D01*
X9524Y8556D01*
X9511D01*
X9491Y8566D02*
X9504D01*
Y8556D01*
X9498Y8560D01*
X9494D01*
X9491Y8556D01*
Y8550D01*
X9494Y8546D01*
X9501D01*
X9504Y8550D01*
X7599Y9153D02*
X7602Y9157D01*
X7609D01*
X7612Y9153D01*
Y9140D01*
X7609Y9137D01*
X7602D01*
X7599Y9140D01*
X7592Y9137D02*
X7586D01*
X7589D01*
Y9157D01*
X7592Y9153D01*
X7566Y9137D02*
Y9157D01*
X7576Y9147D01*
X7562D01*
X7542Y9157D02*
X7549Y9153D01*
X7556Y9147D01*
Y9140D01*
X7552Y9137D01*
X7546D01*
X7542Y9140D01*
Y9143D01*
X7546Y9147D01*
X7556D01*
X7672Y8485D02*
X7675Y8488D01*
X7682D01*
X7685Y8485D01*
Y8471D01*
X7682Y8468D01*
X7675D01*
X7672Y8471D01*
X7665Y8468D02*
X7658D01*
X7662D01*
Y8488D01*
X7665Y8485D01*
X7638Y8468D02*
Y8488D01*
X7648Y8478D01*
X7635D01*
X7628Y8488D02*
X7615D01*
Y8485D01*
X7628Y8471D01*
Y8468D01*
X8707Y8847D02*
X8710Y8850D01*
X8717D01*
X8720Y8847D01*
Y8833D01*
X8717Y8830D01*
X8710D01*
X8707Y8833D01*
X8700Y8830D02*
X8693D01*
X8697D01*
Y8850D01*
X8700Y8847D01*
X8673Y8830D02*
Y8850D01*
X8683Y8840D01*
X8670D01*
X8663Y8833D02*
X8660Y8830D01*
X8653D01*
X8650Y8833D01*
Y8847D01*
X8653Y8850D01*
X8660D01*
X8663Y8847D01*
Y8843D01*
X8660Y8840D01*
X8650D01*
X7627Y8869D02*
X7630Y8866D01*
Y8859D01*
X7627Y8856D01*
X7613D01*
X7610Y8859D01*
Y8866D01*
X7613Y8869D01*
X7610Y8876D02*
Y8883D01*
Y8879D01*
X7630D01*
X7627Y8876D01*
X7630Y8906D02*
Y8893D01*
X7620D01*
X7623Y8899D01*
Y8903D01*
X7620Y8906D01*
X7613D01*
X7610Y8903D01*
Y8896D01*
X7613Y8893D01*
X7627Y8913D02*
X7630Y8916D01*
Y8923D01*
X7627Y8926D01*
X7613D01*
X7610Y8923D01*
Y8916D01*
X7613Y8913D01*
X7627D01*
X8533Y9020D02*
X8530Y9024D01*
Y9030D01*
X8533Y9034D01*
X8547D01*
X8550Y9030D01*
Y9024D01*
X8547Y9020D01*
X8550Y9014D02*
Y9007D01*
Y9010D01*
X8530D01*
X8533Y9014D01*
X8530Y8984D02*
Y8997D01*
X8540D01*
X8537Y8990D01*
Y8987D01*
X8540Y8984D01*
X8547D01*
X8550Y8987D01*
Y8994D01*
X8547Y8997D01*
X8550Y8977D02*
Y8970D01*
Y8974D01*
X8530D01*
X8533Y8977D01*
X9028Y7907D02*
X9032Y7904D01*
Y7897D01*
X9028Y7894D01*
X9015D01*
X9012Y7897D01*
Y7904D01*
X9015Y7907D01*
X9012Y7914D02*
Y7920D01*
Y7917D01*
X9032D01*
X9028Y7914D01*
X9032Y7944D02*
Y7930D01*
X9022D01*
X9025Y7937D01*
Y7940D01*
X9022Y7944D01*
X9015D01*
X9012Y7940D01*
Y7934D01*
X9015Y7930D01*
X9012Y7964D02*
Y7950D01*
X9025Y7964D01*
X9028D01*
X9032Y7960D01*
Y7954D01*
X9028Y7950D01*
X9549Y8051D02*
X9545Y8048D01*
X9539D01*
X9535Y8051D01*
Y8065D01*
X9539Y8068D01*
X9545D01*
X9549Y8065D01*
X9555Y8068D02*
X9562D01*
X9559D01*
Y8048D01*
X9555Y8051D01*
X9585Y8048D02*
X9572D01*
Y8058D01*
X9579Y8055D01*
X9582D01*
X9585Y8058D01*
Y8065D01*
X9582Y8068D01*
X9575D01*
X9572Y8065D01*
X9592Y8051D02*
X9595Y8048D01*
X9602D01*
X9605Y8051D01*
Y8055D01*
X9602Y8058D01*
X9599D01*
X9602D01*
X9605Y8061D01*
Y8065D01*
X9602Y8068D01*
X9595D01*
X9592Y8065D01*
X9548Y8017D02*
X9544Y8013D01*
X9538D01*
X9534Y8017D01*
Y8030D01*
X9538Y8033D01*
X9544D01*
X9548Y8030D01*
X9554Y8033D02*
X9561D01*
X9558D01*
Y8013D01*
X9554Y8017D01*
X9584Y8013D02*
X9571D01*
Y8023D01*
X9578Y8020D01*
X9581D01*
X9584Y8023D01*
Y8030D01*
X9581Y8033D01*
X9574D01*
X9571Y8030D01*
X9601Y8033D02*
Y8013D01*
X9591Y8023D01*
X9604D01*
X8243Y9241D02*
X8246Y9244D01*
X8253D01*
X8256Y9241D01*
Y9228D01*
X8253Y9224D01*
X8246D01*
X8243Y9228D01*
X8236Y9224D02*
X8229D01*
X8233D01*
Y9244D01*
X8236Y9241D01*
X8206Y9244D02*
X8219D01*
Y9234D01*
X8213Y9238D01*
X8209D01*
X8206Y9234D01*
Y9228D01*
X8209Y9224D01*
X8216D01*
X8219Y9228D01*
X8186Y9244D02*
X8199D01*
Y9234D01*
X8193Y9238D01*
X8189D01*
X8186Y9234D01*
Y9228D01*
X8189Y9224D01*
X8196D01*
X8199Y9228D01*
X8155Y9306D02*
X8158Y9303D01*
Y9296D01*
X8155Y9293D01*
X8141D01*
X8138Y9296D01*
Y9303D01*
X8141Y9306D01*
X8138Y9313D02*
Y9319D01*
Y9316D01*
X8158D01*
X8155Y9313D01*
X8158Y9343D02*
Y9329D01*
X8148D01*
X8151Y9336D01*
Y9339D01*
X8148Y9343D01*
X8141D01*
X8138Y9339D01*
Y9333D01*
X8141Y9329D01*
X8158Y9363D02*
X8155Y9356D01*
X8148Y9349D01*
X8141D01*
X8138Y9353D01*
Y9359D01*
X8141Y9363D01*
X8145D01*
X8148Y9359D01*
Y9349D01*
X8843Y9343D02*
X8840Y9340D01*
X8833D01*
X8830Y9343D01*
Y9357D01*
X8833Y9360D01*
X8840D01*
X8843Y9357D01*
X8850Y9360D02*
X8856D01*
X8853D01*
Y9340D01*
X8850Y9343D01*
X8880Y9340D02*
X8866D01*
Y9350D01*
X8873Y9347D01*
X8876D01*
X8880Y9350D01*
Y9357D01*
X8876Y9360D01*
X8870D01*
X8866Y9357D01*
X8886Y9340D02*
X8900D01*
Y9343D01*
X8886Y9357D01*
Y9360D01*
X8452Y9932D02*
X8449Y9935D01*
Y9942D01*
X8452Y9945D01*
X8465D01*
X8469Y9942D01*
Y9935D01*
X8465Y9932D01*
X8469Y9925D02*
Y9918D01*
Y9922D01*
X8449D01*
X8452Y9925D01*
X8449Y9895D02*
X8452Y9902D01*
X8459Y9908D01*
X8465D01*
X8469Y9905D01*
Y9898D01*
X8465Y9895D01*
X8462D01*
X8459Y9898D01*
Y9908D01*
X8465Y9888D02*
X8469Y9885D01*
Y9878D01*
X8465Y9875D01*
X8452D01*
X8449Y9878D01*
Y9885D01*
X8452Y9888D01*
X8455D01*
X8459Y9885D01*
Y9875D01*
X8452Y7893D02*
X8455Y7890D01*
Y7883D01*
X8452Y7880D01*
X8438D01*
X8435Y7883D01*
Y7890D01*
X8438Y7893D01*
X8435Y7900D02*
Y7907D01*
Y7903D01*
X8455D01*
X8452Y7900D01*
X8455Y7917D02*
Y7930D01*
X8452D01*
X8438Y7917D01*
X8435D01*
X8452Y7937D02*
X8455Y7940D01*
Y7947D01*
X8452Y7950D01*
X8438D01*
X8435Y7947D01*
Y7940D01*
X8438Y7937D01*
X8452D01*
X9498Y8118D02*
X9495Y8121D01*
Y8128D01*
X9498Y8131D01*
X9511D01*
X9515Y8128D01*
Y8121D01*
X9511Y8118D01*
X9515Y8111D02*
Y8104D01*
Y8108D01*
X9495D01*
X9498Y8111D01*
X9495Y8094D02*
Y8081D01*
X9498D01*
X9511Y8094D01*
X9515D01*
Y8061D02*
Y8074D01*
X9501Y8061D01*
X9498D01*
X9495Y8064D01*
Y8071D01*
X9498Y8074D01*
X7672Y9473D02*
X7675Y9477D01*
X7682D01*
X7685Y9473D01*
Y9460D01*
X7682Y9457D01*
X7675D01*
X7672Y9460D01*
X7665Y9457D02*
X7658D01*
X7662D01*
Y9477D01*
X7665Y9473D01*
X7648Y9477D02*
X7635D01*
Y9473D01*
X7648Y9460D01*
Y9457D01*
X7628Y9473D02*
X7625Y9477D01*
X7618D01*
X7615Y9473D01*
Y9470D01*
X7618Y9467D01*
X7622D01*
X7618D01*
X7615Y9463D01*
Y9460D01*
X7618Y9457D01*
X7625D01*
X7628Y9460D01*
X8909Y9747D02*
X8905Y9750D01*
Y9757D01*
X8909Y9760D01*
X8922D01*
X8925Y9757D01*
Y9750D01*
X8922Y9747D01*
X8925Y9740D02*
Y9733D01*
Y9737D01*
X8905D01*
X8909Y9740D01*
X8905Y9723D02*
Y9710D01*
X8909D01*
X8922Y9723D01*
X8925D01*
Y9693D02*
X8905D01*
X8915Y9703D01*
Y9690D01*
X8755Y7848D02*
X8752Y7845D01*
X8745D01*
X8742Y7848D01*
Y7862D01*
X8745Y7865D01*
X8752D01*
X8755Y7862D01*
X8762Y7865D02*
X8769D01*
X8765D01*
Y7845D01*
X8762Y7848D01*
X8779Y7845D02*
X8792D01*
Y7848D01*
X8779Y7862D01*
Y7865D01*
X8812Y7845D02*
X8805Y7848D01*
X8799Y7855D01*
Y7862D01*
X8802Y7865D01*
X8809D01*
X8812Y7862D01*
Y7858D01*
X8809Y7855D01*
X8799D01*
X7684Y8839D02*
X7687Y8843D01*
X7694D01*
X7697Y8839D01*
Y8826D01*
X7694Y8823D01*
X7687D01*
X7684Y8826D01*
X7677Y8823D02*
X7670D01*
X7674D01*
Y8843D01*
X7677Y8839D01*
X7660Y8843D02*
X7647D01*
Y8839D01*
X7660Y8826D01*
Y8823D01*
X7640Y8843D02*
X7627D01*
Y8839D01*
X7640Y8826D01*
Y8823D01*
X10314Y7936D02*
X10311Y7933D01*
X10304D01*
X10301Y7936D01*
Y7950D01*
X10304Y7953D01*
X10311D01*
X10314Y7950D01*
X10321Y7953D02*
Y7933D01*
X10331D01*
X10334Y7936D01*
Y7943D01*
X10331Y7946D01*
X10321D01*
X10327D02*
X10334Y7953D01*
X10341Y7933D02*
X10354D01*
X10347D01*
Y7953D01*
X10361D02*
X10367D01*
X10364D01*
Y7933D01*
X10361Y7936D01*
X10377Y7956D02*
X10391D01*
X10397Y7953D02*
X10404D01*
X10401D01*
Y7933D01*
X10397Y7936D01*
X10067Y9607D02*
X10070Y9610D01*
X10077D01*
X10080Y9607D01*
Y9593D01*
X10077Y9590D01*
X10070D01*
X10067Y9593D01*
X10060Y9590D02*
Y9610D01*
X10050D01*
X10047Y9607D01*
Y9600D01*
X10050Y9597D01*
X10060D01*
X10053D02*
X10047Y9590D01*
X10040Y9610D02*
X10027D01*
X10033D01*
Y9590D01*
X10020D02*
X10013D01*
X10017D01*
Y9610D01*
X10020Y9607D01*
X10003Y9587D02*
X9990D01*
X9970Y9590D02*
X9983D01*
X9970Y9603D01*
Y9607D01*
X9973Y9610D01*
X9980D01*
X9983Y9607D01*
X9607Y8755D02*
X9604Y8752D01*
X9597D01*
X9594Y8755D01*
Y8769D01*
X9597Y8772D01*
X9604D01*
X9607Y8769D01*
X9614Y8772D02*
Y8752D01*
X9624D01*
X9627Y8755D01*
Y8762D01*
X9624Y8765D01*
X9614D01*
X9621D02*
X9627Y8772D01*
X9634Y8752D02*
X9647D01*
X9641D01*
Y8772D01*
X9654D02*
X9661D01*
X9657D01*
Y8752D01*
X9654Y8755D01*
X9671Y8775D02*
X9684D01*
X9691Y8755D02*
X9694Y8752D01*
X9701D01*
X9704Y8755D01*
Y8759D01*
X9701Y8762D01*
X9697D01*
X9701D01*
X9704Y8765D01*
Y8769D01*
X9701Y8772D01*
X9694D01*
X9691Y8769D01*
X12815Y8951D02*
Y8971D01*
X12805D01*
X12802Y8968D01*
Y8961D01*
X12805Y8958D01*
X12815D01*
X12808D02*
X12802Y8951D01*
X12795Y8971D02*
X12782D01*
X12788D01*
Y8951D01*
X12775Y8954D02*
X12772Y8951D01*
X12765D01*
X12762Y8954D01*
Y8968D01*
X12765Y8971D01*
X12772D01*
X12775Y8968D01*
Y8964D01*
X12772Y8961D01*
X12762D01*
X10088Y8568D02*
X10085Y8571D01*
Y8578D01*
X10088Y8581D01*
X10102D01*
X10105Y8578D01*
Y8571D01*
X10102Y8568D01*
X10088Y8561D02*
X10085Y8558D01*
Y8551D01*
X10088Y8548D01*
X10092D01*
X10095Y8551D01*
Y8554D01*
Y8551D01*
X10098Y8548D01*
X10102D01*
X10105Y8551D01*
Y8558D01*
X10102Y8561D01*
X10088Y8541D02*
X10085Y8538D01*
Y8531D01*
X10088Y8528D01*
X10102D01*
X10105Y8531D01*
Y8538D01*
X10102Y8541D01*
X10088D01*
Y9295D02*
X10085Y9298D01*
Y9305D01*
X10088Y9308D01*
X10102D01*
X10105Y9305D01*
Y9298D01*
X10102Y9295D01*
X10088Y9288D02*
X10085Y9285D01*
Y9278D01*
X10088Y9275D01*
X10092D01*
X10095Y9278D01*
Y9281D01*
Y9278D01*
X10098Y9275D01*
X10102D01*
X10105Y9278D01*
Y9285D01*
X10102Y9288D01*
X10105Y9268D02*
Y9261D01*
Y9265D01*
X10085D01*
X10088Y9268D01*
X9679Y8367D02*
X9676Y8370D01*
Y8377D01*
X9679Y8380D01*
X9693D01*
X9696Y8377D01*
Y8370D01*
X9693Y8367D01*
X9679Y8360D02*
X9676Y8357D01*
Y8350D01*
X9679Y8347D01*
X9683D01*
X9686Y8350D01*
Y8353D01*
Y8350D01*
X9689Y8347D01*
X9693D01*
X9696Y8350D01*
Y8357D01*
X9693Y8360D01*
X9696Y8327D02*
Y8340D01*
X9683Y8327D01*
X9679D01*
X9676Y8330D01*
Y8337D01*
X9679Y8340D01*
X9857Y8361D02*
X9854Y8364D01*
Y8371D01*
X9857Y8374D01*
X9871D01*
X9874Y8371D01*
Y8364D01*
X9871Y8361D01*
X9857Y8354D02*
X9854Y8351D01*
Y8344D01*
X9857Y8341D01*
X9861D01*
X9864Y8344D01*
Y8347D01*
Y8344D01*
X9867Y8341D01*
X9871D01*
X9874Y8344D01*
Y8351D01*
X9871Y8354D01*
X9857Y8334D02*
X9854Y8331D01*
Y8324D01*
X9857Y8321D01*
X9861D01*
X9864Y8324D01*
Y8327D01*
Y8324D01*
X9867Y8321D01*
X9871D01*
X9874Y8324D01*
Y8331D01*
X9871Y8334D01*
X10049Y8407D02*
X10046Y8410D01*
Y8417D01*
X10049Y8420D01*
X10063D01*
X10066Y8417D01*
Y8410D01*
X10063Y8407D01*
X10049Y8400D02*
X10046Y8397D01*
Y8390D01*
X10049Y8387D01*
X10053D01*
X10056Y8390D01*
Y8393D01*
Y8390D01*
X10059Y8387D01*
X10063D01*
X10066Y8390D01*
Y8397D01*
X10063Y8400D01*
X10066Y8370D02*
X10046D01*
X10056Y8380D01*
Y8367D01*
X9891Y8570D02*
X9888Y8573D01*
Y8580D01*
X9891Y8583D01*
X9905D01*
X9908Y8580D01*
Y8573D01*
X9905Y8570D01*
X9891Y8563D02*
X9888Y8560D01*
Y8553D01*
X9891Y8550D01*
X9895D01*
X9898Y8553D01*
Y8556D01*
Y8553D01*
X9901Y8550D01*
X9905D01*
X9908Y8553D01*
Y8560D01*
X9905Y8563D01*
X9888Y8530D02*
Y8543D01*
X9898D01*
X9895Y8536D01*
Y8533D01*
X9898Y8530D01*
X9905D01*
X9908Y8533D01*
Y8540D01*
X9905Y8543D01*
X10053Y7137D02*
X10033D01*
Y7127D01*
X10036Y7123D01*
X10043D01*
X10046Y7127D01*
Y7137D01*
Y7130D02*
X10053Y7123D01*
X10056Y7117D02*
Y7103D01*
X10033Y7097D02*
Y7090D01*
Y7093D01*
X10053D01*
Y7097D01*
Y7090D01*
X10033Y7080D02*
Y7067D01*
Y7073D01*
X10053D01*
X10033Y7060D02*
X10053D01*
X10043D01*
Y7047D01*
X10033D01*
X10053D01*
Y7040D02*
Y7033D01*
Y7037D01*
X10033D01*
X10036Y7040D01*
X10056Y7023D02*
Y7010D01*
X10036Y7003D02*
X10033Y7000D01*
Y6993D01*
X10036Y6990D01*
X10039D01*
X10043Y6993D01*
Y6997D01*
Y6993D01*
X10046Y6990D01*
X10049D01*
X10053Y6993D01*
Y7000D01*
X10049Y7003D01*
X7343Y7145D02*
X7323D01*
Y7135D01*
X7327Y7131D01*
X7333D01*
X7337Y7135D01*
Y7145D01*
Y7138D02*
X7343Y7131D01*
X7347Y7125D02*
Y7111D01*
X7323Y7105D02*
Y7098D01*
Y7101D01*
X7343D01*
Y7105D01*
Y7098D01*
X7323Y7088D02*
Y7075D01*
Y7081D01*
X7343D01*
X7323Y7068D02*
X7343D01*
X7333D01*
Y7055D01*
X7323D01*
X7343D01*
Y7048D02*
Y7041D01*
Y7045D01*
X7323D01*
X7327Y7048D01*
X7347Y7031D02*
Y7018D01*
X7343Y6998D02*
Y7011D01*
X7330Y6998D01*
X7327D01*
X7323Y7001D01*
Y7008D01*
X7327Y7011D01*
X6088Y7163D02*
X6068D01*
Y7153D01*
X6071Y7150D01*
X6078D01*
X6081Y7153D01*
Y7163D01*
Y7156D02*
X6088Y7150D01*
X6091Y7143D02*
Y7130D01*
X6068Y7123D02*
Y7116D01*
Y7120D01*
X6088D01*
Y7123D01*
Y7116D01*
X6068Y7106D02*
Y7093D01*
Y7100D01*
X6088D01*
X6068Y7086D02*
X6088D01*
X6078D01*
Y7073D01*
X6068D01*
X6088D01*
Y7066D02*
Y7060D01*
Y7063D01*
X6068D01*
X6071Y7066D01*
X6091Y7050D02*
Y7036D01*
X6088Y7030D02*
Y7023D01*
Y7026D01*
X6068D01*
X6071Y7030D01*
X10291Y6914D02*
Y6934D01*
X10281D01*
X10278Y6931D01*
Y6924D01*
X10281Y6921D01*
X10291D01*
X10285D02*
X10278Y6914D01*
X10262D02*
Y6934D01*
X10271Y6924D01*
X10258D01*
X10252Y6931D02*
X10248Y6934D01*
X10242D01*
X10238Y6931D01*
Y6927D01*
X10242Y6924D01*
X10245D01*
X10242D01*
X10238Y6921D01*
Y6917D01*
X10242Y6914D01*
X10248D01*
X10252Y6917D01*
X10232Y6911D02*
X10218D01*
X10212Y6931D02*
X10208Y6934D01*
X10202D01*
X10198Y6931D01*
Y6927D01*
X10202Y6924D01*
X10205D01*
X10202D01*
X10198Y6921D01*
Y6917D01*
X10202Y6914D01*
X10208D01*
X10212Y6917D01*
X7582Y6922D02*
Y6942D01*
X7572D01*
X7569Y6939D01*
Y6932D01*
X7572Y6929D01*
X7582D01*
X7575D02*
X7569Y6922D01*
X7552D02*
Y6942D01*
X7562Y6932D01*
X7549D01*
X7542Y6939D02*
X7539Y6942D01*
X7532D01*
X7529Y6939D01*
Y6935D01*
X7532Y6932D01*
X7535D01*
X7532D01*
X7529Y6929D01*
Y6925D01*
X7532Y6922D01*
X7539D01*
X7542Y6925D01*
X7522Y6919D02*
X7509D01*
X7489Y6922D02*
X7502D01*
X7489Y6935D01*
Y6939D01*
X7492Y6942D01*
X7499D01*
X7502Y6939D01*
X6419Y6963D02*
Y6983D01*
X6409D01*
X6406Y6980D01*
Y6973D01*
X6409Y6970D01*
X6419D01*
X6412D02*
X6406Y6963D01*
X6389D02*
Y6983D01*
X6399Y6973D01*
X6386D01*
X6379Y6980D02*
X6376Y6983D01*
X6369D01*
X6366Y6980D01*
Y6976D01*
X6369Y6973D01*
X6372D01*
X6369D01*
X6366Y6970D01*
Y6966D01*
X6369Y6963D01*
X6376D01*
X6379Y6966D01*
X6359Y6960D02*
X6346D01*
X6339Y6963D02*
X6332D01*
X6336D01*
Y6983D01*
X6339Y6980D01*
X10034Y6983D02*
X10014D01*
Y6973D01*
X10017Y6970D01*
X10024D01*
X10027Y6973D01*
Y6983D01*
Y6976D02*
X10034Y6970D01*
Y6953D02*
X10014D01*
X10024Y6963D01*
Y6950D01*
X10034Y6930D02*
Y6943D01*
X10020Y6930D01*
X10017D01*
X10014Y6933D01*
Y6940D01*
X10017Y6943D01*
X10037Y6923D02*
Y6910D01*
X10017Y6903D02*
X10014Y6900D01*
Y6893D01*
X10017Y6890D01*
X10020D01*
X10024Y6893D01*
Y6896D01*
Y6893D01*
X10027Y6890D01*
X10030D01*
X10034Y6893D01*
Y6900D01*
X10030Y6903D01*
X7324Y6991D02*
X7304D01*
Y6981D01*
X7308Y6978D01*
X7314D01*
X7318Y6981D01*
Y6991D01*
Y6984D02*
X7324Y6978D01*
Y6961D02*
X7304D01*
X7314Y6971D01*
Y6958D01*
X7324Y6938D02*
Y6951D01*
X7311Y6938D01*
X7308D01*
X7304Y6941D01*
Y6948D01*
X7308Y6951D01*
X7328Y6931D02*
Y6918D01*
X7324Y6898D02*
Y6911D01*
X7311Y6898D01*
X7308D01*
X7304Y6901D01*
Y6908D01*
X7308Y6911D01*
X6168Y7022D02*
X6148D01*
Y7012D01*
X6151Y7009D01*
X6158D01*
X6161Y7012D01*
Y7022D01*
Y7015D02*
X6168Y7009D01*
Y6992D02*
X6148D01*
X6158Y7002D01*
Y6989D01*
X6168Y6969D02*
Y6982D01*
X6155Y6969D01*
X6151D01*
X6148Y6972D01*
Y6979D01*
X6151Y6982D01*
X6171Y6962D02*
Y6949D01*
X6168Y6942D02*
Y6935D01*
Y6939D01*
X6148D01*
X6151Y6942D01*
X10289Y6967D02*
Y6987D01*
X10279D01*
X10276Y6984D01*
Y6977D01*
X10279Y6974D01*
X10289D01*
X10283D02*
X10276Y6967D01*
X10260D02*
Y6987D01*
X10269Y6977D01*
X10256D01*
X10250Y6967D02*
X10243D01*
X10246D01*
Y6987D01*
X10250Y6984D01*
X10233Y6964D02*
X10220D01*
X10213Y6984D02*
X10210Y6987D01*
X10203D01*
X10200Y6984D01*
Y6980D01*
X10203Y6977D01*
X10206D01*
X10203D01*
X10200Y6974D01*
Y6970D01*
X10203Y6967D01*
X10210D01*
X10213Y6970D01*
X7580Y6975D02*
Y6995D01*
X7570D01*
X7567Y6992D01*
Y6985D01*
X7570Y6982D01*
X7580D01*
X7573D02*
X7567Y6975D01*
X7550D02*
Y6995D01*
X7560Y6985D01*
X7547D01*
X7540Y6975D02*
X7533D01*
X7537D01*
Y6995D01*
X7540Y6992D01*
X7523Y6972D02*
X7510D01*
X7490Y6975D02*
X7503D01*
X7490Y6988D01*
Y6992D01*
X7493Y6995D01*
X7500D01*
X7503Y6992D01*
X6417Y7016D02*
Y7036D01*
X6407D01*
X6404Y7033D01*
Y7026D01*
X6407Y7023D01*
X6417D01*
X6410D02*
X6404Y7016D01*
X6387D02*
Y7036D01*
X6397Y7026D01*
X6384D01*
X6377Y7016D02*
X6370D01*
X6374D01*
Y7036D01*
X6377Y7033D01*
X6360Y7013D02*
X6347D01*
X6340Y7016D02*
X6334D01*
X6337D01*
Y7036D01*
X6340Y7033D01*
X10125Y7031D02*
X10129Y7028D01*
Y7021D01*
X10125Y7018D01*
X10112D01*
X10109Y7021D01*
Y7028D01*
X10112Y7031D01*
X10109Y7051D02*
Y7038D01*
X10122Y7051D01*
X10125D01*
X10129Y7048D01*
Y7041D01*
X10125Y7038D01*
X10109Y7071D02*
Y7058D01*
X10122Y7071D01*
X10125D01*
X10129Y7068D01*
Y7061D01*
X10125Y7058D01*
X10105Y7078D02*
Y7091D01*
X10125Y7098D02*
X10129Y7101D01*
Y7108D01*
X10125Y7111D01*
X10122D01*
X10119Y7108D01*
Y7105D01*
Y7108D01*
X10115Y7111D01*
X10112D01*
X10109Y7108D01*
Y7101D01*
X10112Y7098D01*
X7416Y7039D02*
X7419Y7036D01*
Y7029D01*
X7416Y7026D01*
X7403D01*
X7399Y7029D01*
Y7036D01*
X7403Y7039D01*
X7399Y7059D02*
Y7046D01*
X7413Y7059D01*
X7416D01*
X7419Y7056D01*
Y7049D01*
X7416Y7046D01*
X7399Y7079D02*
Y7066D01*
X7413Y7079D01*
X7416D01*
X7419Y7076D01*
Y7069D01*
X7416Y7066D01*
X7396Y7086D02*
Y7099D01*
X7399Y7119D02*
Y7106D01*
X7413Y7119D01*
X7416D01*
X7419Y7116D01*
Y7109D01*
X7416Y7106D01*
X6260Y7080D02*
X6263Y7077D01*
Y7070D01*
X6260Y7067D01*
X6246D01*
X6243Y7070D01*
Y7077D01*
X6246Y7080D01*
X6243Y7100D02*
Y7087D01*
X6256Y7100D01*
X6260D01*
X6263Y7097D01*
Y7090D01*
X6260Y7087D01*
X6243Y7120D02*
Y7107D01*
X6256Y7120D01*
X6260D01*
X6263Y7117D01*
Y7110D01*
X6260Y7107D01*
X6240Y7127D02*
Y7140D01*
X6243Y7147D02*
Y7154D01*
Y7150D01*
X6263D01*
X6260Y7147D01*
X10048Y7249D02*
X10045Y7253D01*
Y7259D01*
X10048Y7263D01*
X10061D01*
X10065Y7259D01*
Y7253D01*
X10061Y7249D01*
X10065Y7229D02*
Y7243D01*
X10051Y7229D01*
X10048D01*
X10045Y7233D01*
Y7239D01*
X10048Y7243D01*
X10065Y7223D02*
Y7216D01*
Y7219D01*
X10045D01*
X10048Y7223D01*
X10068Y7206D02*
Y7193D01*
X10048Y7186D02*
X10045Y7183D01*
Y7176D01*
X10048Y7173D01*
X10051D01*
X10055Y7176D01*
Y7179D01*
Y7176D01*
X10058Y7173D01*
X10061D01*
X10065Y7176D01*
Y7183D01*
X10061Y7186D01*
X7339Y7257D02*
X7335Y7261D01*
Y7267D01*
X7339Y7271D01*
X7352D01*
X7355Y7267D01*
Y7261D01*
X7352Y7257D01*
X7355Y7237D02*
Y7251D01*
X7342Y7237D01*
X7339D01*
X7335Y7241D01*
Y7247D01*
X7339Y7251D01*
X7355Y7231D02*
Y7224D01*
Y7227D01*
X7335D01*
X7339Y7231D01*
X7359Y7214D02*
Y7201D01*
X7355Y7181D02*
Y7194D01*
X7342Y7181D01*
X7339D01*
X7335Y7184D01*
Y7191D01*
X7339Y7194D01*
X6182Y7292D02*
X6179Y7295D01*
Y7302D01*
X6182Y7305D01*
X6196D01*
X6199Y7302D01*
Y7295D01*
X6196Y7292D01*
X6199Y7272D02*
Y7285D01*
X6186Y7272D01*
X6182D01*
X6179Y7275D01*
Y7282D01*
X6182Y7285D01*
X6199Y7265D02*
Y7258D01*
Y7262D01*
X6179D01*
X6182Y7265D01*
X6202Y7248D02*
Y7235D01*
X6199Y7228D02*
Y7222D01*
Y7225D01*
X6179D01*
X6182Y7228D01*
X9851Y7270D02*
X9848Y7267D01*
X9841D01*
X9838Y7270D01*
Y7284D01*
X9841Y7287D01*
X9848D01*
X9851Y7284D01*
X9858Y7287D02*
X9864D01*
X9861D01*
Y7267D01*
X9858Y7270D01*
X9888Y7267D02*
X9881Y7270D01*
X9874Y7277D01*
Y7284D01*
X9878Y7287D01*
X9884D01*
X9888Y7284D01*
Y7280D01*
X9884Y7277D01*
X9874D01*
X9894Y7290D02*
X9908D01*
X9914Y7270D02*
X9918Y7267D01*
X9924D01*
X9928Y7270D01*
Y7274D01*
X9924Y7277D01*
X9921D01*
X9924D01*
X9928Y7280D01*
Y7284D01*
X9924Y7287D01*
X9918D01*
X9914Y7284D01*
X7142Y7278D02*
X7138Y7275D01*
X7132D01*
X7128Y7278D01*
Y7292D01*
X7132Y7295D01*
X7138D01*
X7142Y7292D01*
X7148Y7295D02*
X7155D01*
X7151D01*
Y7275D01*
X7148Y7278D01*
X7178Y7275D02*
X7171Y7278D01*
X7165Y7285D01*
Y7292D01*
X7168Y7295D01*
X7175D01*
X7178Y7292D01*
Y7288D01*
X7175Y7285D01*
X7165D01*
X7185Y7298D02*
X7198D01*
X7218Y7295D02*
X7205D01*
X7218Y7282D01*
Y7278D01*
X7215Y7275D01*
X7208D01*
X7205Y7278D01*
X5985Y7319D02*
X5982Y7316D01*
X5975D01*
X5972Y7319D01*
Y7333D01*
X5975Y7336D01*
X5982D01*
X5985Y7333D01*
X5992Y7336D02*
X5999D01*
X5995D01*
Y7316D01*
X5992Y7319D01*
X6022Y7316D02*
X6015Y7319D01*
X6009Y7326D01*
Y7333D01*
X6012Y7336D01*
X6019D01*
X6022Y7333D01*
Y7329D01*
X6019Y7326D01*
X6009D01*
X6029Y7339D02*
X6042D01*
X6049Y7336D02*
X6055D01*
X6052D01*
Y7316D01*
X6049Y7319D01*
X12087Y7137D02*
X12090Y7140D01*
X12097D01*
X12100Y7137D01*
Y7123D01*
X12097Y7120D01*
X12090D01*
X12087Y7123D01*
X12080Y7137D02*
X12077Y7140D01*
X12070D01*
X12067Y7137D01*
Y7133D01*
X12070Y7130D01*
X12073D01*
X12070D01*
X12067Y7127D01*
Y7123D01*
X12070Y7120D01*
X12077D01*
X12080Y7123D01*
X11497Y7077D02*
X11500Y7080D01*
X11507D01*
X11510Y7077D01*
Y7063D01*
X11507Y7060D01*
X11500D01*
X11497Y7063D01*
X11477Y7060D02*
X11490D01*
X11477Y7073D01*
Y7077D01*
X11480Y7080D01*
X11487D01*
X11490Y7077D01*
X11176Y7215D02*
X11179Y7218D01*
X11186D01*
X11189Y7215D01*
Y7201D01*
X11186Y7198D01*
X11179D01*
X11176Y7201D01*
X11169Y7198D02*
X11162D01*
X11166D01*
Y7218D01*
X11169Y7215D01*
X11781Y6510D02*
X11801D01*
Y6520D01*
X11798Y6524D01*
X11791D01*
X11788Y6520D01*
Y6510D01*
Y6517D02*
X11781Y6524D01*
X11801Y6530D02*
Y6544D01*
Y6537D01*
X11781D01*
Y6550D02*
Y6557D01*
Y6554D01*
X11801D01*
X11798Y6550D01*
X11801Y6580D02*
X11798Y6574D01*
X11791Y6567D01*
X11784D01*
X11781Y6570D01*
Y6577D01*
X11784Y6580D01*
X11788D01*
X11791Y6577D01*
Y6567D01*
X8697Y8917D02*
X8700Y8920D01*
X8707D01*
X8710Y8917D01*
Y8903D01*
X8707Y8900D01*
X8700D01*
X8697Y8903D01*
X8690Y8900D02*
X8683D01*
X8687D01*
Y8920D01*
X8690Y8917D01*
X8660Y8920D02*
X8673D01*
Y8910D01*
X8667Y8913D01*
X8663D01*
X8660Y8910D01*
Y8903D01*
X8663Y8900D01*
X8670D01*
X8673Y8903D01*
X8653Y8917D02*
X8650Y8920D01*
X8643D01*
X8640Y8917D01*
Y8913D01*
X8643Y8910D01*
X8640Y8907D01*
Y8903D01*
X8643Y8900D01*
X8650D01*
X8653Y8903D01*
Y8907D01*
X8650Y8910D01*
X8653Y8913D01*
Y8917D01*
X8650Y8910D02*
X8643D01*
X8298Y8426D02*
X8295Y8423D01*
X8288D01*
X8285Y8426D01*
Y8440D01*
X8288Y8443D01*
X8295D01*
X8298Y8440D01*
X8305Y8443D02*
X8312D01*
X8308D01*
Y8423D01*
X8305Y8426D01*
X8335Y8423D02*
X8322D01*
Y8433D01*
X8328Y8430D01*
X8332D01*
X8335Y8433D01*
Y8440D01*
X8332Y8443D01*
X8325D01*
X8322Y8440D01*
X8342D02*
X8345Y8443D01*
X8352D01*
X8355Y8440D01*
Y8426D01*
X8352Y8423D01*
X8345D01*
X8342Y8426D01*
Y8430D01*
X8345Y8433D01*
X8355D01*
X7814Y7888D02*
X7811Y7892D01*
Y7898D01*
X7814Y7902D01*
X7827D01*
X7831Y7898D01*
Y7892D01*
X7827Y7888D01*
X7831Y7882D02*
Y7875D01*
Y7878D01*
X7811D01*
X7814Y7882D01*
X7811Y7852D02*
X7814Y7858D01*
X7821Y7865D01*
X7827D01*
X7831Y7862D01*
Y7855D01*
X7827Y7852D01*
X7824D01*
X7821Y7855D01*
Y7865D01*
X7814Y7845D02*
X7811Y7842D01*
Y7835D01*
X7814Y7832D01*
X7827D01*
X7831Y7835D01*
Y7842D01*
X7827Y7845D01*
X7814D01*
X8790Y8708D02*
X8787Y8704D01*
X8780D01*
X8777Y8708D01*
Y8721D01*
X8780Y8724D01*
X8787D01*
X8790Y8721D01*
X8797Y8724D02*
X8803D01*
X8800D01*
Y8704D01*
X8797Y8708D01*
X8827Y8704D02*
X8820Y8708D01*
X8813Y8714D01*
Y8721D01*
X8817Y8724D01*
X8823D01*
X8827Y8721D01*
Y8718D01*
X8823Y8714D01*
X8813D01*
X8833Y8724D02*
X8840D01*
X8837D01*
Y8704D01*
X8833Y8708D01*
X8900Y8758D02*
X8903Y8755D01*
Y8748D01*
X8900Y8745D01*
X8886D01*
X8883Y8748D01*
Y8755D01*
X8886Y8758D01*
X8883Y8765D02*
Y8772D01*
Y8768D01*
X8903D01*
X8900Y8765D01*
X8903Y8795D02*
X8900Y8788D01*
X8893Y8782D01*
X8886D01*
X8883Y8785D01*
Y8792D01*
X8886Y8795D01*
X8890D01*
X8893Y8792D01*
Y8782D01*
X8883Y8815D02*
Y8802D01*
X8896Y8815D01*
X8900D01*
X8903Y8812D01*
Y8805D01*
X8900Y8802D01*
X9044Y8707D02*
X9041Y8704D01*
X9034D01*
X9031Y8707D01*
Y8721D01*
X9034Y8724D01*
X9041D01*
X9044Y8721D01*
X9051Y8724D02*
X9058D01*
X9054D01*
Y8704D01*
X9051Y8707D01*
X9081Y8704D02*
X9074Y8707D01*
X9068Y8714D01*
Y8721D01*
X9071Y8724D01*
X9078D01*
X9081Y8721D01*
Y8717D01*
X9078Y8714D01*
X9068D01*
X9088Y8707D02*
X9091Y8704D01*
X9098D01*
X9101Y8707D01*
Y8711D01*
X9098Y8714D01*
X9094D01*
X9098D01*
X9101Y8717D01*
Y8721D01*
X9098Y8724D01*
X9091D01*
X9088Y8721D01*
X8898Y8620D02*
X8901Y8617D01*
Y8610D01*
X8898Y8607D01*
X8884D01*
X8881Y8610D01*
Y8617D01*
X8884Y8620D01*
X8881Y8627D02*
Y8634D01*
Y8630D01*
X8901D01*
X8898Y8627D01*
X8901Y8657D02*
X8898Y8650D01*
X8891Y8644D01*
X8884D01*
X8881Y8647D01*
Y8654D01*
X8884Y8657D01*
X8888D01*
X8891Y8654D01*
Y8644D01*
X8881Y8674D02*
X8901D01*
X8891Y8664D01*
Y8677D01*
X9312Y7850D02*
X9308Y7847D01*
X9302D01*
X9298Y7850D01*
Y7864D01*
X9302Y7867D01*
X9308D01*
X9312Y7864D01*
X9318Y7867D02*
X9325D01*
X9322D01*
Y7847D01*
X9318Y7850D01*
X9348Y7847D02*
X9342Y7850D01*
X9335Y7857D01*
Y7864D01*
X9338Y7867D01*
X9345D01*
X9348Y7864D01*
Y7860D01*
X9345Y7857D01*
X9335D01*
X9368Y7847D02*
X9355D01*
Y7857D01*
X9362Y7854D01*
X9365D01*
X9368Y7857D01*
Y7864D01*
X9365Y7867D01*
X9358D01*
X9355Y7864D01*
X9398Y7949D02*
X9395Y7946D01*
X9388D01*
X9385Y7949D01*
Y7962D01*
X9388Y7966D01*
X9395D01*
X9398Y7962D01*
X9405Y7966D02*
X9412D01*
X9408D01*
Y7946D01*
X9405Y7949D01*
X9435Y7946D02*
X9428Y7949D01*
X9421Y7956D01*
Y7962D01*
X9425Y7966D01*
X9431D01*
X9435Y7962D01*
Y7959D01*
X9431Y7956D01*
X9421D01*
X9455Y7946D02*
X9448Y7949D01*
X9441Y7956D01*
Y7962D01*
X9445Y7966D01*
X9451D01*
X9455Y7962D01*
Y7959D01*
X9451Y7956D01*
X9441D01*
X8861Y7951D02*
X8858Y7955D01*
Y7961D01*
X8861Y7965D01*
X8875D01*
X8878Y7961D01*
Y7955D01*
X8875Y7951D01*
X8878Y7945D02*
Y7938D01*
Y7941D01*
X8858D01*
X8861Y7945D01*
X8858Y7915D02*
X8861Y7921D01*
X8868Y7928D01*
X8875D01*
X8878Y7925D01*
Y7918D01*
X8875Y7915D01*
X8871D01*
X8868Y7918D01*
Y7928D01*
X8858Y7908D02*
Y7895D01*
X8861D01*
X8875Y7908D01*
X8878D01*
X8899Y8515D02*
X8896Y8512D01*
X8889D01*
X8886Y8515D01*
Y8528D01*
X8889Y8531D01*
X8896D01*
X8899Y8528D01*
X8906Y8531D02*
X8912D01*
X8909D01*
Y8512D01*
X8906Y8515D01*
X8936Y8512D02*
X8929Y8515D01*
X8922Y8521D01*
Y8528D01*
X8926Y8531D01*
X8932D01*
X8936Y8528D01*
Y8525D01*
X8932Y8521D01*
X8922D01*
X8942Y8515D02*
X8946Y8512D01*
X8952D01*
X8956Y8515D01*
Y8518D01*
X8952Y8521D01*
X8956Y8525D01*
Y8528D01*
X8952Y8531D01*
X8946D01*
X8942Y8528D01*
Y8525D01*
X8946Y8521D01*
X8942Y8518D01*
Y8515D01*
X8946Y8521D02*
X8952D01*
X9399Y7915D02*
X9396Y7912D01*
X9389D01*
X9386Y7915D01*
Y7929D01*
X9389Y7932D01*
X9396D01*
X9399Y7929D01*
X9406Y7932D02*
X9412D01*
X9409D01*
Y7912D01*
X9406Y7915D01*
X9422Y7912D02*
X9436D01*
Y7915D01*
X9422Y7929D01*
Y7932D01*
X9442D02*
X9449D01*
X9446D01*
Y7912D01*
X9442Y7915D01*
X8366Y8727D02*
X8363Y8730D01*
Y8737D01*
X8366Y8740D01*
X8380D01*
X8383Y8737D01*
Y8730D01*
X8380Y8727D01*
X8383Y8720D02*
Y8713D01*
Y8717D01*
X8363D01*
X8366Y8720D01*
X8363Y8703D02*
Y8690D01*
X8366D01*
X8380Y8703D01*
X8383D01*
X8363Y8670D02*
Y8683D01*
X8373D01*
X8370Y8677D01*
Y8673D01*
X8373Y8670D01*
X8380D01*
X8383Y8673D01*
Y8680D01*
X8380Y8683D01*
X8373Y8590D02*
X8377Y8594D01*
X8383D01*
X8387Y8590D01*
Y8577D01*
X8383Y8574D01*
X8377D01*
X8373Y8577D01*
X8367Y8574D02*
X8360D01*
X8363D01*
Y8594D01*
X8367Y8590D01*
X8350Y8594D02*
X8337D01*
Y8590D01*
X8350Y8577D01*
Y8574D01*
X8330Y8590D02*
X8327Y8594D01*
X8320D01*
X8317Y8590D01*
Y8587D01*
X8320Y8584D01*
X8317Y8580D01*
Y8577D01*
X8320Y8574D01*
X8327D01*
X8330Y8577D01*
Y8580D01*
X8327Y8584D01*
X8330Y8587D01*
Y8590D01*
X8327Y8584D02*
X8320D01*
X8955Y8941D02*
X8952Y8938D01*
X8945D01*
X8942Y8941D01*
Y8955D01*
X8945Y8958D01*
X8952D01*
X8955Y8955D01*
X8962Y8958D02*
X8969D01*
X8965D01*
Y8938D01*
X8962Y8941D01*
X8979Y8938D02*
X8992D01*
Y8941D01*
X8979Y8955D01*
Y8958D01*
X8999Y8955D02*
X9002Y8958D01*
X9009D01*
X9012Y8955D01*
Y8941D01*
X9009Y8938D01*
X9002D01*
X8999Y8941D01*
Y8945D01*
X9002Y8948D01*
X9012D01*
X8880Y9006D02*
X8877Y9010D01*
Y9016D01*
X8880Y9020D01*
X8894D01*
X8897Y9016D01*
Y9010D01*
X8894Y9006D01*
X8897Y9000D02*
Y8993D01*
Y8996D01*
X8877D01*
X8880Y9000D01*
Y8983D02*
X8877Y8980D01*
Y8973D01*
X8880Y8970D01*
X8884D01*
X8887Y8973D01*
X8890Y8970D01*
X8894D01*
X8897Y8973D01*
Y8980D01*
X8894Y8983D01*
X8890D01*
X8887Y8980D01*
X8884Y8983D01*
X8880D01*
X8887Y8980D02*
Y8973D01*
X8880Y8963D02*
X8877Y8960D01*
Y8953D01*
X8880Y8950D01*
X8894D01*
X8897Y8953D01*
Y8960D01*
X8894Y8963D01*
X8880D01*
X7739Y7995D02*
X7736Y7998D01*
Y8005D01*
X7739Y8008D01*
X7753D01*
X7756Y8005D01*
Y7998D01*
X7753Y7995D01*
X7756Y7988D02*
Y7981D01*
Y7985D01*
X7736D01*
X7739Y7988D01*
Y7971D02*
X7736Y7968D01*
Y7961D01*
X7739Y7958D01*
X7743D01*
X7746Y7961D01*
X7749Y7958D01*
X7753D01*
X7756Y7961D01*
Y7968D01*
X7753Y7971D01*
X7749D01*
X7746Y7968D01*
X7743Y7971D01*
X7739D01*
X7746Y7968D02*
Y7961D01*
X7756Y7951D02*
Y7945D01*
Y7948D01*
X7736D01*
X7739Y7951D01*
X8249Y8691D02*
X8246Y8695D01*
Y8701D01*
X8249Y8705D01*
X8263D01*
X8266Y8701D01*
Y8695D01*
X8263Y8691D01*
X8266Y8685D02*
Y8678D01*
Y8681D01*
X8246D01*
X8249Y8685D01*
Y8668D02*
X8246Y8665D01*
Y8658D01*
X8249Y8655D01*
X8253D01*
X8256Y8658D01*
X8259Y8655D01*
X8263D01*
X8266Y8658D01*
Y8665D01*
X8263Y8668D01*
X8259D01*
X8256Y8665D01*
X8253Y8668D01*
X8249D01*
X8256Y8665D02*
Y8658D01*
X8266Y8635D02*
Y8648D01*
X8253Y8635D01*
X8249D01*
X8246Y8638D01*
Y8645D01*
X8249Y8648D01*
X8702Y9423D02*
X8705Y9419D01*
Y9413D01*
X8702Y9409D01*
X8688D01*
X8685Y9413D01*
Y9419D01*
X8688Y9423D01*
X8685Y9429D02*
Y9436D01*
Y9433D01*
X8705D01*
X8702Y9429D01*
Y9446D02*
X8705Y9449D01*
Y9456D01*
X8702Y9459D01*
X8698D01*
X8695Y9456D01*
X8692Y9459D01*
X8688D01*
X8685Y9456D01*
Y9449D01*
X8688Y9446D01*
X8692D01*
X8695Y9449D01*
X8698Y9446D01*
X8702D01*
X8695Y9449D02*
Y9456D01*
X8702Y9466D02*
X8705Y9469D01*
Y9476D01*
X8702Y9479D01*
X8698D01*
X8695Y9476D01*
Y9473D01*
Y9476D01*
X8692Y9479D01*
X8688D01*
X8685Y9476D01*
Y9469D01*
X8688Y9466D01*
X7727Y8109D02*
X7724Y8112D01*
Y8119D01*
X7727Y8122D01*
X7741D01*
X7744Y8119D01*
Y8112D01*
X7741Y8109D01*
X7744Y8102D02*
Y8095D01*
Y8099D01*
X7724D01*
X7727Y8102D01*
Y8085D02*
X7724Y8082D01*
Y8075D01*
X7727Y8072D01*
X7731D01*
X7734Y8075D01*
X7737Y8072D01*
X7741D01*
X7744Y8075D01*
Y8082D01*
X7741Y8085D01*
X7737D01*
X7734Y8082D01*
X7731Y8085D01*
X7727D01*
X7734Y8082D02*
Y8075D01*
X7724Y8052D02*
Y8065D01*
X7734D01*
X7731Y8059D01*
Y8055D01*
X7734Y8052D01*
X7741D01*
X7744Y8055D01*
Y8062D01*
X7741Y8065D01*
X8095Y7903D02*
X8099Y7900D01*
Y7893D01*
X8095Y7890D01*
X8082D01*
X8079Y7893D01*
Y7900D01*
X8082Y7903D01*
X8079Y7910D02*
Y7916D01*
Y7913D01*
X8099D01*
X8095Y7910D01*
Y7926D02*
X8099Y7930D01*
Y7936D01*
X8095Y7940D01*
X8092D01*
X8089Y7936D01*
X8085Y7940D01*
X8082D01*
X8079Y7936D01*
Y7930D01*
X8082Y7926D01*
X8085D01*
X8089Y7930D01*
X8092Y7926D01*
X8095D01*
X8089Y7930D02*
Y7936D01*
X8099Y7960D02*
X8095Y7953D01*
X8089Y7946D01*
X8082D01*
X8079Y7950D01*
Y7956D01*
X8082Y7960D01*
X8085D01*
X8089Y7956D01*
Y7946D01*
X7935Y8822D02*
X7932Y8819D01*
X7925D01*
X7922Y8822D01*
Y8836D01*
X7925Y8839D01*
X7932D01*
X7935Y8836D01*
X7942Y8839D02*
X7949D01*
X7945D01*
Y8819D01*
X7942Y8822D01*
X7959D02*
X7962Y8819D01*
X7969D01*
X7972Y8822D01*
Y8826D01*
X7969Y8829D01*
X7972Y8832D01*
Y8836D01*
X7969Y8839D01*
X7962D01*
X7959Y8836D01*
Y8832D01*
X7962Y8829D01*
X7959Y8826D01*
Y8822D01*
X7962Y8829D02*
X7969D01*
X7979Y8819D02*
X7992D01*
Y8822D01*
X7979Y8836D01*
Y8839D01*
X8470Y8619D02*
X8473Y8622D01*
X8480D01*
X8483Y8619D01*
Y8605D01*
X8480Y8602D01*
X8473D01*
X8470Y8605D01*
X8463Y8602D02*
X8456D01*
X8460D01*
Y8622D01*
X8463Y8619D01*
X8446D02*
X8443Y8622D01*
X8436D01*
X8433Y8619D01*
Y8615D01*
X8436Y8612D01*
X8433Y8609D01*
Y8605D01*
X8436Y8602D01*
X8443D01*
X8446Y8605D01*
Y8609D01*
X8443Y8612D01*
X8446Y8615D01*
Y8619D01*
X8443Y8612D02*
X8436D01*
X8426Y8619D02*
X8423Y8622D01*
X8416D01*
X8413Y8619D01*
Y8615D01*
X8416Y8612D01*
X8413Y8609D01*
Y8605D01*
X8416Y8602D01*
X8423D01*
X8426Y8605D01*
Y8609D01*
X8423Y8612D01*
X8426Y8615D01*
Y8619D01*
X8423Y8612D02*
X8416D01*
X8604Y8395D02*
X8601Y8398D01*
Y8405D01*
X8604Y8408D01*
X8618D01*
X8621Y8405D01*
Y8398D01*
X8618Y8395D01*
X8621Y8388D02*
Y8381D01*
Y8385D01*
X8601D01*
X8604Y8388D01*
Y8371D02*
X8601Y8368D01*
Y8361D01*
X8604Y8358D01*
X8608D01*
X8611Y8361D01*
X8614Y8358D01*
X8618D01*
X8621Y8361D01*
Y8368D01*
X8618Y8371D01*
X8614D01*
X8611Y8368D01*
X8608Y8371D01*
X8604D01*
X8611Y8368D02*
Y8361D01*
X8618Y8351D02*
X8621Y8348D01*
Y8341D01*
X8618Y8338D01*
X8604D01*
X8601Y8341D01*
Y8348D01*
X8604Y8351D01*
X8608D01*
X8611Y8348D01*
Y8338D01*
X8603Y8747D02*
X8600Y8750D01*
Y8757D01*
X8603Y8760D01*
X8617D01*
X8620Y8757D01*
Y8750D01*
X8617Y8747D01*
X8620Y8740D02*
Y8733D01*
Y8737D01*
X8600D01*
X8603Y8740D01*
X8617Y8723D02*
X8620Y8720D01*
Y8713D01*
X8617Y8710D01*
X8603D01*
X8600Y8713D01*
Y8720D01*
X8603Y8723D01*
X8607D01*
X8610Y8720D01*
Y8710D01*
X8603Y8703D02*
X8600Y8700D01*
Y8693D01*
X8603Y8690D01*
X8617D01*
X8620Y8693D01*
Y8700D01*
X8617Y8703D01*
X8603D01*
X7802Y9699D02*
X7799Y9703D01*
Y9709D01*
X7802Y9713D01*
X7816D01*
X7819Y9709D01*
Y9703D01*
X7816Y9699D01*
X7819Y9693D02*
Y9686D01*
Y9689D01*
X7799D01*
X7802Y9693D01*
X7816Y9676D02*
X7819Y9673D01*
Y9666D01*
X7816Y9663D01*
X7802D01*
X7799Y9666D01*
Y9673D01*
X7802Y9676D01*
X7806D01*
X7809Y9673D01*
Y9663D01*
X7819Y9656D02*
Y9649D01*
Y9653D01*
X7799D01*
X7802Y9656D01*
X9261Y7773D02*
X9264Y7770D01*
Y7763D01*
X9261Y7760D01*
X9247D01*
X9244Y7763D01*
Y7770D01*
X9247Y7773D01*
X9244Y7780D02*
Y7787D01*
Y7783D01*
X9264D01*
X9261Y7780D01*
X9247Y7796D02*
X9244Y7800D01*
Y7806D01*
X9247Y7810D01*
X9261D01*
X9264Y7806D01*
Y7800D01*
X9261Y7796D01*
X9257D01*
X9254Y7800D01*
Y7810D01*
X9244Y7830D02*
Y7816D01*
X9257Y7830D01*
X9261D01*
X9264Y7826D01*
Y7820D01*
X9261Y7816D01*
X8308Y8897D02*
X8311Y8900D01*
X8318D01*
X8321Y8897D01*
Y8884D01*
X8318Y8880D01*
X8311D01*
X8308Y8884D01*
X8301Y8880D02*
X8294D01*
X8298D01*
Y8900D01*
X8301Y8897D01*
X8284Y8884D02*
X8281Y8880D01*
X8274D01*
X8271Y8884D01*
Y8897D01*
X8274Y8900D01*
X8281D01*
X8284Y8897D01*
Y8894D01*
X8281Y8890D01*
X8271D01*
X8264Y8897D02*
X8261Y8900D01*
X8254D01*
X8251Y8897D01*
Y8894D01*
X8254Y8890D01*
X8258D01*
X8254D01*
X8251Y8887D01*
Y8884D01*
X8254Y8880D01*
X8261D01*
X8264Y8884D01*
X8175Y9031D02*
X8171Y9027D01*
X8165D01*
X8161Y9031D01*
Y9044D01*
X8165Y9047D01*
X8171D01*
X8175Y9044D01*
X8181Y9047D02*
X8188D01*
X8185D01*
Y9027D01*
X8181Y9031D01*
X8198Y9044D02*
X8201Y9047D01*
X8208D01*
X8211Y9044D01*
Y9031D01*
X8208Y9027D01*
X8201D01*
X8198Y9031D01*
Y9034D01*
X8201Y9037D01*
X8211D01*
X8228Y9047D02*
Y9027D01*
X8218Y9037D01*
X8231D01*
X8487Y8937D02*
X8490Y8940D01*
X8497D01*
X8500Y8937D01*
Y8923D01*
X8497Y8920D01*
X8490D01*
X8487Y8923D01*
X8480Y8920D02*
X8473D01*
X8477D01*
Y8940D01*
X8480Y8937D01*
X8463Y8923D02*
X8460Y8920D01*
X8453D01*
X8450Y8923D01*
Y8937D01*
X8453Y8940D01*
X8460D01*
X8463Y8937D01*
Y8933D01*
X8460Y8930D01*
X8450D01*
X8430Y8940D02*
X8443D01*
Y8930D01*
X8437Y8933D01*
X8433D01*
X8430Y8930D01*
Y8923D01*
X8433Y8920D01*
X8440D01*
X8443Y8923D01*
X8978Y8975D02*
X8981Y8978D01*
X8988D01*
X8991Y8975D01*
Y8962D01*
X8988Y8958D01*
X8981D01*
X8978Y8962D01*
X8971Y8958D02*
X8964D01*
X8968D01*
Y8978D01*
X8971Y8975D01*
X8954Y8962D02*
X8951Y8958D01*
X8944D01*
X8941Y8962D01*
Y8975D01*
X8944Y8978D01*
X8951D01*
X8954Y8975D01*
Y8972D01*
X8951Y8968D01*
X8941D01*
X8921Y8978D02*
X8928Y8975D01*
X8934Y8968D01*
Y8962D01*
X8931Y8958D01*
X8924D01*
X8921Y8962D01*
Y8965D01*
X8924Y8968D01*
X8934D01*
X9145Y9695D02*
X9141Y9699D01*
Y9705D01*
X9145Y9709D01*
X9158D01*
X9161Y9705D01*
Y9699D01*
X9158Y9695D01*
X9161Y9689D02*
Y9682D01*
Y9685D01*
X9141D01*
X9145Y9689D01*
X9158Y9672D02*
X9161Y9669D01*
Y9662D01*
X9158Y9659D01*
X9145D01*
X9141Y9662D01*
Y9669D01*
X9145Y9672D01*
X9148D01*
X9151Y9669D01*
Y9659D01*
X9141Y9652D02*
Y9639D01*
X9145D01*
X9158Y9652D01*
X9161D01*
X7684Y8105D02*
X7681Y8108D01*
Y8115D01*
X7684Y8118D01*
X7697D01*
X7701Y8115D01*
Y8108D01*
X7697Y8105D01*
X7701Y8098D02*
Y8091D01*
Y8095D01*
X7681D01*
X7684Y8098D01*
X7697Y8081D02*
X7701Y8078D01*
Y8071D01*
X7697Y8068D01*
X7684D01*
X7681Y8071D01*
Y8078D01*
X7684Y8081D01*
X7687D01*
X7691Y8078D01*
Y8068D01*
X7684Y8061D02*
X7681Y8058D01*
Y8051D01*
X7684Y8048D01*
X7687D01*
X7691Y8051D01*
X7694Y8048D01*
X7697D01*
X7701Y8051D01*
Y8058D01*
X7697Y8061D01*
X7694D01*
X7691Y8058D01*
X7687Y8061D01*
X7684D01*
X7691Y8058D02*
Y8051D01*
X8742Y8881D02*
X8738Y8878D01*
X8732D01*
X8728Y8881D01*
Y8895D01*
X8732Y8898D01*
X8738D01*
X8742Y8895D01*
X8748Y8898D02*
X8755D01*
X8752D01*
Y8878D01*
X8748Y8881D01*
X8765Y8895D02*
X8768Y8898D01*
X8775D01*
X8778Y8895D01*
Y8881D01*
X8775Y8878D01*
X8768D01*
X8765Y8881D01*
Y8885D01*
X8768Y8888D01*
X8778D01*
X8785Y8895D02*
X8788Y8898D01*
X8795D01*
X8798Y8895D01*
Y8881D01*
X8795Y8878D01*
X8788D01*
X8785Y8881D01*
Y8885D01*
X8788Y8888D01*
X8798D01*
X7763Y9711D02*
X7760Y9714D01*
Y9721D01*
X7763Y9724D01*
X7776D01*
X7780Y9721D01*
Y9714D01*
X7776Y9711D01*
X7780Y9691D02*
Y9704D01*
X7766Y9691D01*
X7763D01*
X7760Y9694D01*
Y9701D01*
X7763Y9704D01*
Y9684D02*
X7760Y9681D01*
Y9674D01*
X7763Y9671D01*
X7776D01*
X7780Y9674D01*
Y9681D01*
X7776Y9684D01*
X7763D01*
Y9664D02*
X7760Y9661D01*
Y9654D01*
X7763Y9651D01*
X7776D01*
X7780Y9654D01*
Y9661D01*
X7776Y9664D01*
X7763D01*
X8053Y8823D02*
X8050Y8820D01*
X8043D01*
X8040Y8823D01*
Y8837D01*
X8043Y8840D01*
X8050D01*
X8053Y8837D01*
X8073Y8840D02*
X8060D01*
X8073Y8827D01*
Y8823D01*
X8070Y8820D01*
X8063D01*
X8060Y8823D01*
X8080D02*
X8083Y8820D01*
X8090D01*
X8093Y8823D01*
Y8837D01*
X8090Y8840D01*
X8083D01*
X8080Y8837D01*
Y8823D01*
X8100Y8840D02*
X8107D01*
X8103D01*
Y8820D01*
X8100Y8823D01*
X8808Y9283D02*
X8805Y9280D01*
X8798D01*
X8795Y9283D01*
Y9296D01*
X8798Y9300D01*
X8805D01*
X8808Y9296D01*
X8828Y9300D02*
X8815D01*
X8828Y9286D01*
Y9283D01*
X8825Y9280D01*
X8818D01*
X8815Y9283D01*
X8835D02*
X8838Y9280D01*
X8845D01*
X8848Y9283D01*
Y9296D01*
X8845Y9300D01*
X8838D01*
X8835Y9296D01*
Y9283D01*
X8868Y9300D02*
X8855D01*
X8868Y9286D01*
Y9283D01*
X8865Y9280D01*
X8858D01*
X8855Y9283D01*
X8972Y9687D02*
X8968Y9691D01*
Y9697D01*
X8972Y9701D01*
X8985D01*
X8988Y9697D01*
Y9691D01*
X8985Y9687D01*
X8988Y9667D02*
Y9681D01*
X8975Y9667D01*
X8972D01*
X8968Y9671D01*
Y9677D01*
X8972Y9681D01*
Y9661D02*
X8968Y9657D01*
Y9651D01*
X8972Y9647D01*
X8985D01*
X8988Y9651D01*
Y9657D01*
X8985Y9661D01*
X8972D01*
Y9641D02*
X8968Y9637D01*
Y9631D01*
X8972Y9627D01*
X8975D01*
X8978Y9631D01*
Y9634D01*
Y9631D01*
X8982Y9627D01*
X8985D01*
X8988Y9631D01*
Y9637D01*
X8985Y9641D01*
X11006Y8579D02*
X11003Y8583D01*
Y8589D01*
X11006Y8593D01*
X11020D01*
X11023Y8589D01*
Y8583D01*
X11020Y8579D01*
X11003Y8573D02*
Y8559D01*
Y8566D01*
X11023D01*
Y8543D02*
Y8549D01*
X11020Y8553D01*
X11013D01*
X11010Y8549D01*
Y8543D01*
X11013Y8539D01*
X11016D01*
Y8553D01*
X11023Y8533D02*
X11010D01*
Y8529D01*
X11013Y8526D01*
X11023D01*
X11013D01*
X11010Y8523D01*
X11013Y8519D01*
X11023D01*
X11030Y8513D02*
X11010D01*
Y8503D01*
X11013Y8499D01*
X11020D01*
X11023Y8503D01*
Y8513D01*
X11026Y8493D02*
Y8479D01*
X11023Y8459D02*
Y8473D01*
X11010Y8459D01*
X11006D01*
X11003Y8463D01*
Y8469D01*
X11006Y8473D01*
X8533Y7010D02*
X8530Y7014D01*
Y7020D01*
X8533Y7024D01*
X8547D01*
X8550Y7020D01*
Y7014D01*
X8547Y7010D01*
X8530Y7004D02*
Y6990D01*
Y6997D01*
X8550D01*
Y6974D02*
Y6980D01*
X8547Y6984D01*
X8540D01*
X8537Y6980D01*
Y6974D01*
X8540Y6970D01*
X8543D01*
Y6984D01*
X8550Y6964D02*
X8537D01*
Y6960D01*
X8540Y6957D01*
X8550D01*
X8540D01*
X8537Y6954D01*
X8540Y6950D01*
X8550D01*
X8557Y6944D02*
X8537D01*
Y6934D01*
X8540Y6930D01*
X8547D01*
X8550Y6934D01*
Y6944D01*
X8553Y6924D02*
Y6910D01*
X8550Y6904D02*
Y6897D01*
Y6900D01*
X8530D01*
X8533Y6904D01*
X7928Y9695D02*
X7925Y9699D01*
Y9705D01*
X7928Y9709D01*
X7942D01*
X7945Y9705D01*
Y9699D01*
X7942Y9695D01*
X7945Y9675D02*
Y9689D01*
X7932Y9675D01*
X7928D01*
X7925Y9679D01*
Y9685D01*
X7928Y9689D01*
Y9669D02*
X7925Y9665D01*
Y9659D01*
X7928Y9655D01*
X7942D01*
X7945Y9659D01*
Y9665D01*
X7942Y9669D01*
X7928D01*
X7945Y9639D02*
X7925D01*
X7935Y9649D01*
Y9635D01*
X8499Y9479D02*
X8496Y9482D01*
Y9489D01*
X8499Y9492D01*
X8512D01*
X8516Y9489D01*
Y9482D01*
X8512Y9479D01*
X8516Y9459D02*
Y9472D01*
X8502Y9459D01*
X8499D01*
X8496Y9462D01*
Y9469D01*
X8499Y9472D01*
Y9452D02*
X8496Y9449D01*
Y9442D01*
X8499Y9439D01*
X8512D01*
X8516Y9442D01*
Y9449D01*
X8512Y9452D01*
X8499D01*
X8496Y9419D02*
Y9432D01*
X8506D01*
X8502Y9425D01*
Y9422D01*
X8506Y9419D01*
X8512D01*
X8516Y9422D01*
Y9429D01*
X8512Y9432D01*
X7672Y9609D02*
X7669Y9612D01*
Y9619D01*
X7672Y9622D01*
X7686D01*
X7689Y9619D01*
Y9612D01*
X7686Y9609D01*
X7689Y9589D02*
Y9602D01*
X7676Y9589D01*
X7672D01*
X7669Y9592D01*
Y9599D01*
X7672Y9602D01*
Y9582D02*
X7669Y9579D01*
Y9572D01*
X7672Y9569D01*
X7686D01*
X7689Y9572D01*
Y9579D01*
X7686Y9582D01*
X7672D01*
X7669Y9549D02*
X7672Y9555D01*
X7679Y9562D01*
X7686D01*
X7689Y9559D01*
Y9552D01*
X7686Y9549D01*
X7682D01*
X7679Y9552D01*
Y9562D01*
X8361Y9495D02*
X8358Y9498D01*
Y9505D01*
X8361Y9508D01*
X8375D01*
X8378Y9505D01*
Y9498D01*
X8375Y9495D01*
X8378Y9475D02*
Y9488D01*
X8365Y9475D01*
X8361D01*
X8358Y9478D01*
Y9485D01*
X8361Y9488D01*
Y9468D02*
X8358Y9465D01*
Y9458D01*
X8361Y9455D01*
X8375D01*
X8378Y9458D01*
Y9465D01*
X8375Y9468D01*
X8361D01*
X8358Y9448D02*
Y9435D01*
X8361D01*
X8375Y9448D01*
X8378D01*
X8731Y9471D02*
X8728Y9474D01*
Y9481D01*
X8731Y9484D01*
X8745D01*
X8748Y9481D01*
Y9474D01*
X8745Y9471D01*
X8748Y9451D02*
Y9464D01*
X8735Y9451D01*
X8731D01*
X8728Y9454D01*
Y9461D01*
X8731Y9464D01*
Y9444D02*
X8728Y9441D01*
Y9434D01*
X8731Y9431D01*
X8745D01*
X8748Y9434D01*
Y9441D01*
X8745Y9444D01*
X8731D01*
Y9424D02*
X8728Y9421D01*
Y9414D01*
X8731Y9411D01*
X8735D01*
X8738Y9414D01*
X8741Y9411D01*
X8745D01*
X8748Y9414D01*
Y9421D01*
X8745Y9424D01*
X8741D01*
X8738Y9421D01*
X8735Y9424D01*
X8731D01*
X8738Y9421D02*
Y9414D01*
X8775Y9483D02*
X8771Y9486D01*
Y9493D01*
X8775Y9496D01*
X8788D01*
X8791Y9493D01*
Y9486D01*
X8788Y9483D01*
X8791Y9463D02*
Y9476D01*
X8778Y9463D01*
X8775D01*
X8771Y9466D01*
Y9473D01*
X8775Y9476D01*
Y9456D02*
X8771Y9453D01*
Y9446D01*
X8775Y9443D01*
X8788D01*
X8791Y9446D01*
Y9453D01*
X8788Y9456D01*
X8775D01*
X8788Y9436D02*
X8791Y9433D01*
Y9426D01*
X8788Y9423D01*
X8775D01*
X8771Y9426D01*
Y9433D01*
X8775Y9436D01*
X8778D01*
X8781Y9433D01*
Y9423D01*
X8838Y9699D02*
X8834Y9703D01*
Y9709D01*
X8838Y9713D01*
X8851D01*
X8854Y9709D01*
Y9703D01*
X8851Y9699D01*
X8854Y9679D02*
Y9693D01*
X8841Y9679D01*
X8838D01*
X8834Y9683D01*
Y9689D01*
X8838Y9693D01*
X8854Y9673D02*
Y9666D01*
Y9669D01*
X8834D01*
X8838Y9673D01*
Y9656D02*
X8834Y9653D01*
Y9646D01*
X8838Y9643D01*
X8851D01*
X8854Y9646D01*
Y9653D01*
X8851Y9656D01*
X8838D01*
X9015Y9699D02*
X9012Y9703D01*
Y9709D01*
X9015Y9713D01*
X9028D01*
X9031Y9709D01*
Y9703D01*
X9028Y9699D01*
X9031Y9679D02*
Y9693D01*
X9018Y9679D01*
X9015D01*
X9012Y9683D01*
Y9689D01*
X9015Y9693D01*
X9031Y9673D02*
Y9666D01*
Y9669D01*
X9012D01*
X9015Y9673D01*
X9031Y9656D02*
Y9649D01*
Y9653D01*
X9012D01*
X9015Y9656D01*
X8609Y8896D02*
X8606Y8899D01*
Y8906D01*
X8609Y8909D01*
X8623D01*
X8626Y8906D01*
Y8899D01*
X8623Y8896D01*
X8626Y8876D02*
Y8889D01*
X8613Y8876D01*
X8609D01*
X8606Y8879D01*
Y8886D01*
X8609Y8889D01*
X8626Y8869D02*
Y8863D01*
Y8866D01*
X8606D01*
X8609Y8869D01*
X8626Y8839D02*
Y8853D01*
X8613Y8839D01*
X8609D01*
X8606Y8843D01*
Y8849D01*
X8609Y8853D01*
X7875Y7872D02*
X7878Y7868D01*
Y7862D01*
X7875Y7858D01*
X7862D01*
X7858Y7862D01*
Y7868D01*
X7862Y7872D01*
X7858Y7892D02*
Y7878D01*
X7872Y7892D01*
X7875D01*
X7878Y7888D01*
Y7882D01*
X7875Y7878D01*
X7858Y7898D02*
Y7905D01*
Y7902D01*
X7878D01*
X7875Y7898D01*
Y7915D02*
X7878Y7918D01*
Y7925D01*
X7875Y7928D01*
X7872D01*
X7868Y7925D01*
Y7922D01*
Y7925D01*
X7865Y7928D01*
X7862D01*
X7858Y7925D01*
Y7918D01*
X7862Y7915D01*
X8233Y8120D02*
X8237Y8116D01*
Y8110D01*
X8233Y8106D01*
X8220D01*
X8217Y8110D01*
Y8116D01*
X8220Y8120D01*
X8217Y8140D02*
Y8126D01*
X8230Y8140D01*
X8233D01*
X8237Y8136D01*
Y8130D01*
X8233Y8126D01*
X8217Y8146D02*
Y8153D01*
Y8150D01*
X8237D01*
X8233Y8146D01*
X8217Y8173D02*
X8237D01*
X8227Y8163D01*
Y8176D01*
X8304Y8120D02*
X8307Y8116D01*
Y8110D01*
X8304Y8106D01*
X8291D01*
X8287Y8110D01*
Y8116D01*
X8291Y8120D01*
X8287Y8140D02*
Y8126D01*
X8301Y8140D01*
X8304D01*
X8307Y8136D01*
Y8130D01*
X8304Y8126D01*
X8287Y8146D02*
Y8153D01*
Y8150D01*
X8307D01*
X8304Y8146D01*
X8307Y8176D02*
Y8163D01*
X8297D01*
X8301Y8170D01*
Y8173D01*
X8297Y8176D01*
X8291D01*
X8287Y8173D01*
Y8166D01*
X8291Y8163D01*
X8359Y8120D02*
X8363Y8116D01*
Y8110D01*
X8359Y8106D01*
X8346D01*
X8343Y8110D01*
Y8116D01*
X8346Y8120D01*
X8343Y8140D02*
Y8126D01*
X8356Y8140D01*
X8359D01*
X8363Y8136D01*
Y8130D01*
X8359Y8126D01*
X8343Y8146D02*
Y8153D01*
Y8150D01*
X8363D01*
X8359Y8146D01*
X8363Y8176D02*
X8359Y8170D01*
X8353Y8163D01*
X8346D01*
X8343Y8166D01*
Y8173D01*
X8346Y8176D01*
X8349D01*
X8353Y8173D01*
Y8163D01*
X8410Y8120D02*
X8414Y8116D01*
Y8110D01*
X8410Y8106D01*
X8397D01*
X8394Y8110D01*
Y8116D01*
X8397Y8120D01*
X8394Y8140D02*
Y8126D01*
X8407Y8140D01*
X8410D01*
X8414Y8136D01*
Y8130D01*
X8410Y8126D01*
X8394Y8146D02*
Y8153D01*
Y8150D01*
X8414D01*
X8410Y8146D01*
X8414Y8163D02*
Y8176D01*
X8410D01*
X8397Y8163D01*
X8394D01*
X8828Y7895D02*
X8831Y7892D01*
Y7885D01*
X8828Y7882D01*
X8814D01*
X8811Y7885D01*
Y7892D01*
X8814Y7895D01*
X8811Y7915D02*
Y7902D01*
X8824Y7915D01*
X8828D01*
X8831Y7912D01*
Y7905D01*
X8828Y7902D01*
X8811Y7922D02*
Y7929D01*
Y7925D01*
X8831D01*
X8828Y7922D01*
Y7939D02*
X8831Y7942D01*
Y7949D01*
X8828Y7952D01*
X8824D01*
X8821Y7949D01*
X8818Y7952D01*
X8814D01*
X8811Y7949D01*
Y7942D01*
X8814Y7939D01*
X8818D01*
X8821Y7942D01*
X8824Y7939D01*
X8828D01*
X8821Y7942D02*
Y7949D01*
X8926Y7903D02*
X8929Y7900D01*
Y7893D01*
X8926Y7890D01*
X8913D01*
X8909Y7893D01*
Y7900D01*
X8913Y7903D01*
X8909Y7923D02*
Y7910D01*
X8923Y7923D01*
X8926D01*
X8929Y7920D01*
Y7913D01*
X8926Y7910D01*
X8909Y7930D02*
Y7936D01*
Y7933D01*
X8929D01*
X8926Y7930D01*
X8913Y7946D02*
X8909Y7950D01*
Y7956D01*
X8913Y7960D01*
X8926D01*
X8929Y7956D01*
Y7950D01*
X8926Y7946D01*
X8923D01*
X8919Y7950D01*
Y7960D01*
X8969Y7899D02*
X8973Y7896D01*
Y7889D01*
X8969Y7886D01*
X8956D01*
X8953Y7889D01*
Y7896D01*
X8956Y7899D01*
X8953Y7919D02*
Y7906D01*
X8966Y7919D01*
X8969D01*
X8973Y7916D01*
Y7909D01*
X8969Y7906D01*
X8953Y7939D02*
Y7926D01*
X8966Y7939D01*
X8969D01*
X8973Y7936D01*
Y7929D01*
X8969Y7926D01*
Y7946D02*
X8973Y7949D01*
Y7956D01*
X8969Y7959D01*
X8956D01*
X8953Y7956D01*
Y7949D01*
X8956Y7946D01*
X8969D01*
X7865Y9766D02*
X7862Y9770D01*
Y9776D01*
X7865Y9780D01*
X7879D01*
X7882Y9776D01*
Y9770D01*
X7879Y9766D01*
X7882Y9746D02*
Y9760D01*
X7869Y9746D01*
X7865D01*
X7862Y9750D01*
Y9756D01*
X7865Y9760D01*
X7882Y9726D02*
Y9740D01*
X7869Y9726D01*
X7865D01*
X7862Y9730D01*
Y9736D01*
X7865Y9740D01*
X7882Y9720D02*
Y9713D01*
Y9716D01*
X7862D01*
X7865Y9720D01*
X7999Y9754D02*
X7996Y9758D01*
Y9764D01*
X7999Y9768D01*
X8012D01*
X8016Y9764D01*
Y9758D01*
X8012Y9754D01*
X8016Y9734D02*
Y9748D01*
X8002Y9734D01*
X7999D01*
X7996Y9738D01*
Y9744D01*
X7999Y9748D01*
X8016Y9714D02*
Y9728D01*
X8002Y9714D01*
X7999D01*
X7996Y9718D01*
Y9724D01*
X7999Y9728D01*
X8016Y9694D02*
Y9708D01*
X8002Y9694D01*
X7999D01*
X7996Y9698D01*
Y9704D01*
X7999Y9708D01*
X9086Y9750D02*
X9082Y9754D01*
Y9760D01*
X9086Y9764D01*
X9099D01*
X9102Y9760D01*
Y9754D01*
X9099Y9750D01*
X9102Y9730D02*
Y9744D01*
X9089Y9730D01*
X9086D01*
X9082Y9734D01*
Y9740D01*
X9086Y9744D01*
X9102Y9710D02*
Y9724D01*
X9089Y9710D01*
X9086D01*
X9082Y9714D01*
Y9720D01*
X9086Y9724D01*
Y9704D02*
X9082Y9700D01*
Y9694D01*
X9086Y9690D01*
X9089D01*
X9092Y9694D01*
Y9697D01*
Y9694D01*
X9096Y9690D01*
X9099D01*
X9102Y9694D01*
Y9700D01*
X9099Y9704D01*
X9200Y9750D02*
X9197Y9754D01*
Y9760D01*
X9200Y9764D01*
X9213D01*
X9217Y9760D01*
Y9754D01*
X9213Y9750D01*
X9217Y9730D02*
Y9744D01*
X9203Y9730D01*
X9200D01*
X9197Y9734D01*
Y9740D01*
X9200Y9744D01*
X9217Y9710D02*
Y9724D01*
X9203Y9710D01*
X9200D01*
X9197Y9714D01*
Y9720D01*
X9200Y9724D01*
X9217Y9694D02*
X9197D01*
X9207Y9704D01*
Y9690D01*
X7938Y7840D02*
X7941Y7837D01*
Y7830D01*
X7938Y7827D01*
X7925D01*
X7921Y7830D01*
Y7837D01*
X7925Y7840D01*
X7921Y7860D02*
Y7847D01*
X7935Y7860D01*
X7938D01*
X7941Y7857D01*
Y7850D01*
X7938Y7847D01*
X7921Y7880D02*
Y7867D01*
X7935Y7880D01*
X7938D01*
X7941Y7877D01*
Y7870D01*
X7938Y7867D01*
X7941Y7900D02*
Y7887D01*
X7931D01*
X7935Y7893D01*
Y7897D01*
X7931Y7900D01*
X7925D01*
X7921Y7897D01*
Y7890D01*
X7925Y7887D01*
X8028Y7848D02*
X8032Y7845D01*
Y7838D01*
X8028Y7835D01*
X8015D01*
X8012Y7838D01*
Y7845D01*
X8015Y7848D01*
X8012Y7868D02*
Y7855D01*
X8025Y7868D01*
X8028D01*
X8032Y7865D01*
Y7858D01*
X8028Y7855D01*
X8012Y7888D02*
Y7875D01*
X8025Y7888D01*
X8028D01*
X8032Y7885D01*
Y7878D01*
X8028Y7875D01*
X8032Y7908D02*
X8028Y7901D01*
X8022Y7895D01*
X8015D01*
X8012Y7898D01*
Y7905D01*
X8015Y7908D01*
X8018D01*
X8022Y7905D01*
Y7895D01*
X9099Y7844D02*
X9103Y7841D01*
Y7834D01*
X9099Y7831D01*
X9086D01*
X9083Y7834D01*
Y7841D01*
X9086Y7844D01*
X9083Y7864D02*
Y7851D01*
X9096Y7864D01*
X9099D01*
X9103Y7861D01*
Y7854D01*
X9099Y7851D01*
X9083Y7884D02*
Y7871D01*
X9096Y7884D01*
X9099D01*
X9103Y7881D01*
Y7874D01*
X9099Y7871D01*
X9103Y7891D02*
Y7904D01*
X9099D01*
X9086Y7891D01*
X9083D01*
X9178Y7840D02*
X9181Y7837D01*
Y7830D01*
X9178Y7827D01*
X9165D01*
X9161Y7830D01*
Y7837D01*
X9165Y7840D01*
X9161Y7860D02*
Y7847D01*
X9175Y7860D01*
X9178D01*
X9181Y7857D01*
Y7850D01*
X9178Y7847D01*
X9161Y7880D02*
Y7867D01*
X9175Y7880D01*
X9178D01*
X9181Y7877D01*
Y7870D01*
X9178Y7867D01*
Y7887D02*
X9181Y7890D01*
Y7897D01*
X9178Y7900D01*
X9175D01*
X9171Y7897D01*
X9168Y7900D01*
X9165D01*
X9161Y7897D01*
Y7890D01*
X9165Y7887D01*
X9168D01*
X9171Y7890D01*
X9175Y7887D01*
X9178D01*
X9171Y7890D02*
Y7897D01*
X8286Y9754D02*
X8283Y9758D01*
Y9764D01*
X8286Y9768D01*
X8300D01*
X8303Y9764D01*
Y9758D01*
X8300Y9754D01*
X8303Y9734D02*
Y9748D01*
X8290Y9734D01*
X8286D01*
X8283Y9738D01*
Y9744D01*
X8286Y9748D01*
X8303Y9714D02*
Y9728D01*
X8290Y9714D01*
X8286D01*
X8283Y9718D01*
Y9724D01*
X8286Y9728D01*
X8300Y9708D02*
X8303Y9704D01*
Y9698D01*
X8300Y9694D01*
X8286D01*
X8283Y9698D01*
Y9704D01*
X8286Y9708D01*
X8290D01*
X8293Y9704D01*
Y9694D01*
X8439Y9466D02*
X8436Y9469D01*
Y9476D01*
X8439Y9479D01*
X8452D01*
X8456Y9476D01*
Y9469D01*
X8452Y9466D01*
X8456Y9446D02*
Y9459D01*
X8442Y9446D01*
X8439D01*
X8436Y9449D01*
Y9456D01*
X8439Y9459D01*
Y9439D02*
X8436Y9436D01*
Y9429D01*
X8439Y9426D01*
X8442D01*
X8446Y9429D01*
Y9433D01*
Y9429D01*
X8449Y9426D01*
X8452D01*
X8456Y9429D01*
Y9436D01*
X8452Y9439D01*
X8439Y9419D02*
X8436Y9416D01*
Y9409D01*
X8439Y9406D01*
X8452D01*
X8456Y9409D01*
Y9416D01*
X8452Y9419D01*
X8439D01*
X8704Y9888D02*
X8700Y9892D01*
Y9898D01*
X8704Y9902D01*
X8717D01*
X8720Y9898D01*
Y9892D01*
X8717Y9888D01*
X8720Y9868D02*
Y9882D01*
X8707Y9868D01*
X8704D01*
X8700Y9872D01*
Y9878D01*
X8704Y9882D01*
Y9862D02*
X8700Y9858D01*
Y9852D01*
X8704Y9848D01*
X8707D01*
X8710Y9852D01*
Y9855D01*
Y9852D01*
X8714Y9848D01*
X8717D01*
X8720Y9852D01*
Y9858D01*
X8717Y9862D01*
X8720Y9842D02*
Y9835D01*
Y9838D01*
X8700D01*
X8704Y9842D01*
X8210Y7820D02*
X8213Y7817D01*
Y7810D01*
X8210Y7807D01*
X8196D01*
X8193Y7810D01*
Y7817D01*
X8196Y7820D01*
X8193Y7840D02*
Y7827D01*
X8206Y7840D01*
X8210D01*
X8213Y7837D01*
Y7830D01*
X8210Y7827D01*
Y7847D02*
X8213Y7850D01*
Y7857D01*
X8210Y7860D01*
X8206D01*
X8203Y7857D01*
Y7854D01*
Y7857D01*
X8200Y7860D01*
X8196D01*
X8193Y7857D01*
Y7850D01*
X8196Y7847D01*
X8193Y7880D02*
Y7867D01*
X8206Y7880D01*
X8210D01*
X8213Y7877D01*
Y7870D01*
X8210Y7867D01*
X9408Y9591D02*
X9411Y9595D01*
X9418D01*
X9421Y9591D01*
Y9578D01*
X9418Y9575D01*
X9411D01*
X9408Y9578D01*
X9388Y9575D02*
X9401D01*
X9388Y9588D01*
Y9591D01*
X9391Y9595D01*
X9398D01*
X9401Y9591D01*
X9381D02*
X9378Y9595D01*
X9371D01*
X9368Y9591D01*
Y9588D01*
X9371Y9585D01*
X9375D01*
X9371D01*
X9368Y9581D01*
Y9578D01*
X9371Y9575D01*
X9378D01*
X9381Y9578D01*
X9361Y9591D02*
X9358Y9595D01*
X9351D01*
X9348Y9591D01*
Y9588D01*
X9351Y9585D01*
X9355D01*
X9351D01*
X9348Y9581D01*
Y9578D01*
X9351Y9575D01*
X9358D01*
X9361Y9578D01*
X8410Y7835D02*
X8413Y7832D01*
Y7825D01*
X8410Y7822D01*
X8396D01*
X8393Y7825D01*
Y7832D01*
X8396Y7835D01*
X8393Y7855D02*
Y7842D01*
X8406Y7855D01*
X8410D01*
X8413Y7852D01*
Y7845D01*
X8410Y7842D01*
Y7862D02*
X8413Y7865D01*
Y7872D01*
X8410Y7875D01*
X8406D01*
X8403Y7872D01*
Y7869D01*
Y7872D01*
X8400Y7875D01*
X8396D01*
X8393Y7872D01*
Y7865D01*
X8396Y7862D01*
X8393Y7892D02*
X8413D01*
X8403Y7882D01*
Y7895D01*
X9689Y9474D02*
X9686Y9471D01*
X9679D01*
X9676Y9474D01*
Y9488D01*
X9679Y9491D01*
X9686D01*
X9689Y9488D01*
X9696Y9491D02*
Y9471D01*
X9706D01*
X9709Y9474D01*
Y9481D01*
X9706Y9484D01*
X9696D01*
X9703D02*
X9709Y9491D01*
X9716Y9471D02*
X9729D01*
X9723D01*
Y9491D01*
X9736D02*
X9743D01*
X9739D01*
Y9471D01*
X9736Y9474D01*
X9753Y9494D02*
X9766D01*
X9783Y9491D02*
Y9471D01*
X9773Y9481D01*
X9786D01*
X10377Y9607D02*
X10380Y9610D01*
X10387D01*
X10390Y9607D01*
Y9593D01*
X10387Y9590D01*
X10380D01*
X10377Y9593D01*
X10370Y9590D02*
Y9610D01*
X10360D01*
X10357Y9607D01*
Y9600D01*
X10360Y9597D01*
X10370D01*
X10363D02*
X10357Y9590D01*
X10350Y9610D02*
X10337D01*
X10343D01*
Y9590D01*
X10330D02*
X10323D01*
X10327D01*
Y9610D01*
X10330Y9607D01*
X10313Y9587D02*
X10300D01*
X10280Y9610D02*
X10293D01*
Y9600D01*
X10287Y9603D01*
X10283D01*
X10280Y9600D01*
Y9593D01*
X10283Y9590D01*
X10290D01*
X10293Y9593D01*
X10225Y8049D02*
X10228Y8052D01*
X10235D01*
X10238Y8049D01*
Y8035D01*
X10235Y8032D01*
X10228D01*
X10225Y8035D01*
X10218Y8032D02*
Y8052D01*
X10208D01*
X10205Y8049D01*
Y8042D01*
X10208Y8039D01*
X10218D01*
X10211D02*
X10205Y8032D01*
X10198Y8052D02*
X10185D01*
X10191D01*
Y8032D01*
X10178D02*
X10171D01*
X10175D01*
Y8052D01*
X10178Y8049D01*
X10161Y8029D02*
X10148D01*
X10128Y8052D02*
X10135Y8049D01*
X10141Y8042D01*
Y8035D01*
X10138Y8032D01*
X10131D01*
X10128Y8035D01*
Y8039D01*
X10131Y8042D01*
X10141D01*
X9907Y8869D02*
X9910Y8872D01*
X9917D01*
X9920Y8869D01*
Y8855D01*
X9917Y8852D01*
X9910D01*
X9907Y8855D01*
X9900Y8852D02*
Y8872D01*
X9890D01*
X9887Y8869D01*
Y8862D01*
X9890Y8859D01*
X9900D01*
X9893D02*
X9887Y8852D01*
X9880Y8872D02*
X9867D01*
X9873D01*
Y8852D01*
X9860D02*
X9853D01*
X9857D01*
Y8872D01*
X9860Y8869D01*
X9843Y8849D02*
X9830D01*
X9823Y8872D02*
X9810D01*
Y8869D01*
X9823Y8855D01*
Y8852D01*
X9892Y7953D02*
X9895Y7950D01*
Y7943D01*
X9892Y7940D01*
X9878D01*
X9875Y7943D01*
Y7950D01*
X9878Y7953D01*
X9875Y7960D02*
X9895D01*
Y7970D01*
X9892Y7973D01*
X9885D01*
X9882Y7970D01*
Y7960D01*
Y7967D02*
X9875Y7973D01*
X9895Y7980D02*
Y7993D01*
Y7987D01*
X9875D01*
Y8000D02*
Y8007D01*
Y8003D01*
X9895D01*
X9892Y8000D01*
X9872Y8017D02*
Y8030D01*
X9892Y8037D02*
X9895Y8040D01*
Y8047D01*
X9892Y8050D01*
X9888D01*
X9885Y8047D01*
X9882Y8050D01*
X9878D01*
X9875Y8047D01*
Y8040D01*
X9878Y8037D01*
X9882D01*
X9885Y8040D01*
X9888Y8037D01*
X9892D01*
X9885Y8040D02*
Y8047D01*
X9679Y9075D02*
X9676Y9079D01*
Y9085D01*
X9679Y9089D01*
X9693D01*
X9696Y9085D01*
Y9079D01*
X9693Y9075D01*
X9679Y9069D02*
X9676Y9065D01*
Y9059D01*
X9679Y9055D01*
X9683D01*
X9686Y9059D01*
Y9062D01*
Y9059D01*
X9689Y9055D01*
X9693D01*
X9696Y9059D01*
Y9065D01*
X9693Y9069D01*
X9676Y9035D02*
X9679Y9042D01*
X9686Y9049D01*
X9693D01*
X9696Y9045D01*
Y9039D01*
X9693Y9035D01*
X9689D01*
X9686Y9039D01*
Y9049D01*
X9857Y9072D02*
X9854Y9075D01*
Y9082D01*
X9857Y9085D01*
X9871D01*
X9874Y9082D01*
Y9075D01*
X9871Y9072D01*
X9857Y9065D02*
X9854Y9062D01*
Y9055D01*
X9857Y9052D01*
X9861D01*
X9864Y9055D01*
Y9058D01*
Y9055D01*
X9867Y9052D01*
X9871D01*
X9874Y9055D01*
Y9062D01*
X9871Y9065D01*
X9854Y9045D02*
Y9032D01*
X9857D01*
X9871Y9045D01*
X9874D01*
X10051Y9075D02*
X10048Y9079D01*
Y9085D01*
X10051Y9089D01*
X10065D01*
X10068Y9085D01*
Y9079D01*
X10065Y9075D01*
X10051Y9069D02*
X10048Y9065D01*
Y9059D01*
X10051Y9055D01*
X10055D01*
X10058Y9059D01*
Y9062D01*
Y9059D01*
X10061Y9055D01*
X10065D01*
X10068Y9059D01*
Y9065D01*
X10065Y9069D01*
X10051Y9049D02*
X10048Y9045D01*
Y9039D01*
X10051Y9035D01*
X10055D01*
X10058Y9039D01*
X10061Y9035D01*
X10065D01*
X10068Y9039D01*
Y9045D01*
X10065Y9049D01*
X10061D01*
X10058Y9045D01*
X10055Y9049D01*
X10051D01*
X10058Y9045D02*
Y9039D01*
X9857Y9295D02*
X9854Y9298D01*
Y9305D01*
X9857Y9308D01*
X9871D01*
X9874Y9305D01*
Y9298D01*
X9871Y9295D01*
X9857Y9288D02*
X9854Y9285D01*
Y9278D01*
X9857Y9275D01*
X9861D01*
X9864Y9278D01*
Y9281D01*
Y9278D01*
X9867Y9275D01*
X9871D01*
X9874Y9278D01*
Y9285D01*
X9871Y9288D01*
Y9268D02*
X9874Y9265D01*
Y9258D01*
X9871Y9255D01*
X9857D01*
X9854Y9258D01*
Y9265D01*
X9857Y9268D01*
X9861D01*
X9864Y9265D01*
Y9255D01*
X12638Y8197D02*
X12635Y8194D01*
X12628D01*
X12625Y8197D01*
Y8211D01*
X12628Y8214D01*
X12635D01*
X12638Y8211D01*
X12655Y8214D02*
Y8194D01*
X12645Y8204D01*
X12658D01*
X12678Y8194D02*
X12665D01*
Y8204D01*
X12672Y8201D01*
X12675D01*
X12678Y8204D01*
Y8211D01*
X12675Y8214D01*
X12668D01*
X12665Y8211D01*
X12461Y6685D02*
X12464Y6688D01*
X12471D01*
X12474Y6685D01*
Y6671D01*
X12471Y6668D01*
X12464D01*
X12461Y6671D01*
X12454Y6688D02*
X12441D01*
X12447D01*
Y6668D01*
X12424D02*
Y6688D01*
X12434Y6678D01*
X12421D01*
X12793Y6571D02*
X12773D01*
Y6561D01*
X12777Y6558D01*
X12783D01*
X12787Y6561D01*
Y6571D01*
Y6564D02*
X12793Y6558D01*
Y6551D02*
Y6544D01*
Y6548D01*
X12773D01*
X12777Y6551D01*
X12793Y6521D02*
Y6534D01*
X12780Y6521D01*
X12777D01*
X12773Y6524D01*
Y6531D01*
X12777Y6534D01*
X12793Y6514D02*
Y6508D01*
Y6511D01*
X12773D01*
X12777Y6514D01*
X9020Y8251D02*
X9000D01*
Y8241D01*
X9003Y8238D01*
X9010D01*
X9013Y8241D01*
Y8251D01*
Y8244D02*
X9020Y8238D01*
Y8231D02*
Y8224D01*
Y8228D01*
X9000D01*
X9003Y8231D01*
X9020Y8201D02*
Y8214D01*
X9007Y8201D01*
X9003D01*
X9000Y8204D01*
Y8211D01*
X9003Y8214D01*
X9020Y8181D02*
Y8194D01*
X9007Y8181D01*
X9003D01*
X9000Y8184D01*
Y8191D01*
X9003Y8194D01*
X9020Y8357D02*
Y8377D01*
X9010D01*
X9007Y8374D01*
Y8367D01*
X9010Y8364D01*
X9020D01*
X9013D02*
X9007Y8357D01*
X9000D02*
X8993D01*
X8997D01*
Y8377D01*
X9000Y8374D01*
X8970Y8357D02*
X8983D01*
X8970Y8370D01*
Y8374D01*
X8973Y8377D01*
X8980D01*
X8983Y8374D01*
X8963D02*
X8960Y8377D01*
X8953D01*
X8950Y8374D01*
Y8370D01*
X8953Y8367D01*
X8957D01*
X8953D01*
X8950Y8364D01*
Y8360D01*
X8953Y8357D01*
X8960D01*
X8963Y8360D01*
X9652Y11026D02*
X9649Y11023D01*
X9642D01*
X9639Y11026D01*
Y11040D01*
X9642Y11043D01*
X9649D01*
X9652Y11040D01*
X9672Y11023D02*
X9665Y11026D01*
X9659Y11033D01*
Y11040D01*
X9662Y11043D01*
X9669D01*
X9672Y11040D01*
Y11036D01*
X9669Y11033D01*
X9659D01*
X9442Y11086D02*
X9445Y11089D01*
X9452D01*
X9455Y11086D01*
Y11072D01*
X9452Y11069D01*
X9445D01*
X9442Y11072D01*
X9422Y11089D02*
X9435D01*
Y11079D01*
X9428Y11082D01*
X9425D01*
X9422Y11079D01*
Y11072D01*
X9425Y11069D01*
X9432D01*
X9435Y11072D01*
X12585Y6657D02*
X12588Y6654D01*
Y6647D01*
X12585Y6644D01*
X12571D01*
X12568Y6647D01*
Y6654D01*
X12571Y6657D01*
X12588Y6664D02*
Y6677D01*
Y6670D01*
X12568D01*
Y6697D02*
Y6684D01*
X12581Y6697D01*
X12585D01*
X12588Y6694D01*
Y6687D01*
X12585Y6684D01*
X11173Y9277D02*
X11170Y9281D01*
Y9287D01*
X11173Y9291D01*
X11187D01*
X11190Y9287D01*
Y9281D01*
X11187Y9277D01*
X11190Y9257D02*
Y9271D01*
X11177Y9257D01*
X11173D01*
X11170Y9261D01*
Y9267D01*
X11173Y9271D01*
X11170Y9237D02*
X11173Y9244D01*
X11180Y9251D01*
X11187D01*
X11190Y9247D01*
Y9241D01*
X11187Y9237D01*
X11183D01*
X11180Y9241D01*
Y9251D01*
X11187Y9231D02*
X11190Y9227D01*
Y9221D01*
X11187Y9217D01*
X11173D01*
X11170Y9221D01*
Y9227D01*
X11173Y9231D01*
X11177D01*
X11180Y9227D01*
Y9217D01*
D128*
X12381Y6662D02*
Y6694D01*
X11047Y8596D02*
X11079D01*
X8564Y7027D02*
X8596D01*
X9348Y9494D02*
Y9556D01*
X9356Y9494D02*
Y9556D01*
X9332Y9494D02*
X9356D01*
X9332Y9556D02*
X9356D01*
X8230Y7868D02*
X8292D01*
X8230Y7860D02*
X8292D01*
X8230D02*
Y7884D01*
X8292Y7860D02*
Y7884D01*
X8667Y9733D02*
X8729D01*
X8667Y9741D02*
X8729D01*
Y9717D02*
Y9741D01*
X8667Y9717D02*
Y9741D01*
X8407Y9584D02*
X8469D01*
X8407Y9592D02*
X8469D01*
Y9568D02*
Y9592D01*
X8407Y9568D02*
Y9592D01*
X8263Y9585D02*
X8325D01*
X8263Y9593D02*
X8325D01*
Y9569D02*
Y9593D01*
X8263Y9569D02*
Y9593D01*
X9151Y8006D02*
X9213D01*
X9151Y7998D02*
X9213D01*
X9151D02*
Y8022D01*
X9213Y7998D02*
Y8022D01*
X9057Y8006D02*
X9119D01*
X9057Y7998D02*
X9119D01*
X9057D02*
Y8022D01*
X9119Y7998D02*
Y8022D01*
X7989Y8006D02*
X8051D01*
X7989Y7998D02*
X8051D01*
X7989D02*
Y8022D01*
X8051Y7998D02*
Y8022D01*
X7905Y8006D02*
X7967D01*
X7905Y7998D02*
X7967D01*
X7905D02*
Y8022D01*
X7967Y7998D02*
Y8022D01*
X9179Y9584D02*
X9241D01*
X9179Y9592D02*
X9241D01*
Y9568D02*
Y9592D01*
X9179Y9568D02*
Y9592D01*
X9059Y9584D02*
X9121D01*
X9059Y9592D02*
X9121D01*
Y9568D02*
Y9592D01*
X9059Y9568D02*
Y9592D01*
X7973Y9586D02*
X8035D01*
X7973Y9594D02*
X8035D01*
Y9570D02*
Y9594D01*
X7973Y9570D02*
Y9594D01*
X7840Y9604D02*
X7902D01*
X7840Y9612D02*
X7902D01*
Y9588D02*
Y9612D01*
X7840Y9588D02*
Y9612D01*
X9917Y8796D02*
Y8828D01*
X9679Y9515D02*
Y9547D01*
X8970Y9606D02*
X8990D01*
X8781Y9250D02*
Y9270D01*
X8025Y8790D02*
Y8810D01*
X7762Y9625D02*
X7782D01*
X8813Y8909D02*
Y8929D01*
X7769Y8133D02*
X7789D01*
X9140Y9605D02*
X9160D01*
X9005Y8988D02*
Y9008D01*
X8515Y8950D02*
Y8970D01*
X8257Y9027D02*
Y9047D01*
X8335Y8910D02*
Y8930D01*
X9237Y7850D02*
X9257D01*
X7801Y9625D02*
X7821D01*
X8570Y8775D02*
X8590D01*
X8571Y8423D02*
X8591D01*
X8498Y8632D02*
Y8652D01*
X7907Y8789D02*
Y8809D01*
X8072Y7985D02*
X8092D01*
X7807Y8133D02*
X7827D01*
X8726Y9497D02*
X8746D01*
X8216Y8716D02*
X8236D01*
X8847Y9031D02*
X8867D01*
X8927Y8908D02*
Y8928D01*
X8305Y8568D02*
Y8588D01*
X8333Y8755D02*
X8353D01*
X9277Y7921D02*
Y7941D01*
X8780Y8515D02*
Y8535D01*
X8857Y8076D02*
X8877D01*
X9277Y7961D02*
Y7981D01*
X9276Y7882D02*
Y7902D01*
X8911Y8592D02*
X8931D01*
X9016Y8674D02*
Y8694D01*
X8845Y8730D02*
X8865D01*
X8765Y8672D02*
Y8692D01*
X7807Y8016D02*
X7827D01*
X8270Y8393D02*
Y8413D01*
X8625Y8870D02*
Y8890D01*
X11765Y6520D02*
Y6579D01*
X11580Y6528D02*
Y6574D01*
X7131Y7219D02*
Y7251D01*
X7279Y7261D02*
X7311D01*
X7354Y7138D02*
X7386D01*
X9841Y7211D02*
Y7243D01*
X9989Y7253D02*
X10021D01*
X10064Y7130D02*
X10096D01*
X12748Y8921D02*
X12794D01*
X12740Y8736D02*
X12799D01*
X10297Y7977D02*
Y8009D01*
X10077Y9534D02*
Y9566D01*
X9597Y8796D02*
Y8828D01*
X8226Y8987D02*
Y9007D01*
X9121Y9293D02*
X9141D01*
X8570Y9085D02*
X8590D01*
X8515Y8790D02*
Y8810D01*
X8570Y9375D02*
X8590D01*
X8097Y9190D02*
X8117D01*
X8140Y9484D02*
X8160D01*
X7829Y9242D02*
Y9262D01*
X8295Y9080D02*
X8315D01*
X8427Y9105D02*
Y9125D01*
X8770Y8855D02*
X8790D01*
X8903Y8869D02*
Y8889D01*
X9003Y9044D02*
X9023D01*
X8816Y9065D02*
Y9085D01*
X9004Y8949D02*
Y8969D01*
X9238Y8908D02*
Y8928D01*
X8570Y9515D02*
X8590D01*
X9174Y9144D02*
Y9164D01*
X9048Y9064D02*
Y9084D01*
X9258Y9035D02*
X9278D01*
X9030Y8790D02*
Y8810D01*
X8171Y8334D02*
X8191D01*
X8098Y8435D02*
Y8455D01*
X7940Y8647D02*
X7960D01*
X8253Y8549D02*
X8273D01*
X7940Y8626D02*
X7960D01*
X8413Y8371D02*
X8433D01*
X7945Y8129D02*
Y8149D01*
X8165Y7997D02*
X8185D01*
X8179Y8475D02*
Y8495D01*
X7980Y8678D02*
X8000D01*
X8570Y8310D02*
X8590D01*
X8570Y8445D02*
X8590D01*
X9084Y8633D02*
Y8653D01*
X9168Y8712D02*
Y8732D01*
X9010Y8790D02*
Y8810D01*
X9160Y8750D02*
X9180D01*
X9238Y8102D02*
X9258D01*
X9387Y8155D02*
Y8175D01*
Y8116D02*
Y8136D01*
X8761Y7999D02*
X8781D01*
X9135Y8672D02*
Y8692D01*
X9384Y9010D02*
Y9072D01*
X9392Y9010D02*
Y9072D01*
X9368Y9010D02*
X9392D01*
X9368Y9072D02*
X9392D01*
X9384Y8929D02*
Y8991D01*
X9392Y8929D02*
Y8991D01*
X9368Y8929D02*
X9392D01*
X9368Y8991D02*
X9392D01*
X9384Y8846D02*
Y8908D01*
X9392Y8846D02*
Y8908D01*
X9368Y8846D02*
X9392D01*
X9368Y8908D02*
X9392D01*
X9384Y8689D02*
Y8751D01*
X9392Y8689D02*
Y8751D01*
X9368Y8689D02*
X9392D01*
X9368Y8751D02*
X9392D01*
X9384Y8607D02*
Y8669D01*
X9392Y8607D02*
Y8669D01*
X9368Y8607D02*
X9392D01*
X9368Y8669D02*
X9392D01*
X7738Y9028D02*
Y9090D01*
X7730Y9028D02*
Y9090D01*
X7754D01*
X7730Y9028D02*
X7754D01*
X7738Y8943D02*
Y9005D01*
X7730Y8943D02*
Y9005D01*
X7754D01*
X7730Y8943D02*
X7754D01*
X7791Y8692D02*
Y8754D01*
X7783Y8692D02*
Y8754D01*
X7807D01*
X7783Y8692D02*
X7807D01*
X7791Y8610D02*
Y8672D01*
X7783Y8610D02*
Y8672D01*
X7807D01*
X7783Y8610D02*
X7807D01*
X7791Y8529D02*
Y8591D01*
X7783Y8529D02*
Y8591D01*
X7807D01*
X7783Y8529D02*
X7807D01*
X8182Y9586D02*
X8244D01*
X8182Y9594D02*
X8244D01*
Y9570D02*
Y9594D01*
X8182Y9570D02*
Y9594D01*
X8761Y9810D02*
X8823D01*
X8761Y9818D02*
X8823D01*
Y9794D02*
Y9818D01*
X8761Y9794D02*
Y9818D01*
X8574Y9621D02*
X8636D01*
X8574Y9629D02*
X8636D01*
Y9605D02*
Y9629D01*
X8574Y9605D02*
Y9629D01*
X8589Y8015D02*
X8651D01*
X8589Y8007D02*
X8651D01*
X8589D02*
Y8031D01*
X8651Y8007D02*
Y8031D01*
X9356Y9243D02*
Y9305D01*
X9364Y9243D02*
Y9305D01*
X9340Y9243D02*
X9364D01*
X9340Y9305D02*
X9364D01*
X9384Y8523D02*
Y8585D01*
X9392Y8523D02*
Y8585D01*
X9368Y8523D02*
X9392D01*
X9368Y8585D02*
X9392D01*
X7737Y9110D02*
Y9172D01*
X7729Y9110D02*
Y9172D01*
X7753D01*
X7729Y9110D02*
X7753D01*
X7791Y8447D02*
Y8509D01*
X7783Y8447D02*
Y8509D01*
X7807D01*
X7783Y8447D02*
X7807D01*
X8395Y8790D02*
Y8810D01*
X7979Y8907D02*
Y8927D01*
X8156Y8790D02*
Y8810D01*
X7870Y8947D02*
Y8967D01*
X8019Y9040D02*
X8039D01*
X8571Y8661D02*
X8591D01*
X9048Y9301D02*
Y9321D01*
X8817Y9144D02*
Y9164D01*
X8728Y9259D02*
X8748D01*
X8726Y8568D02*
X8746D01*
X9210Y9341D02*
Y9361D01*
X8727Y9105D02*
X8747D01*
X8860Y8554D02*
Y8574D01*
X8849Y8435D02*
Y8455D01*
X8817Y8357D02*
Y8377D01*
X9051Y8200D02*
Y8220D01*
X8894Y8278D02*
Y8298D01*
X8930Y8200D02*
Y8220D01*
X8406Y9769D02*
X8468D01*
X8406Y9777D02*
X8468D01*
Y9753D02*
Y9777D01*
X8406Y9753D02*
Y9777D01*
X8469Y8016D02*
X8531D01*
X8469Y8008D02*
X8531D01*
X8469D02*
Y8032D01*
X8531Y8008D02*
Y8032D01*
X9416Y8098D02*
X9478D01*
X9416Y8106D02*
X9478D01*
Y8082D02*
Y8106D01*
X9416Y8082D02*
Y8106D01*
X7782Y9435D02*
Y9497D01*
X7774Y9435D02*
Y9497D01*
X7798D01*
X7774Y9435D02*
X7798D01*
X8866Y9582D02*
X8928D01*
X8866Y9590D02*
X8928D01*
Y9566D02*
Y9590D01*
X8866Y9566D02*
Y9590D01*
X8786Y7884D02*
Y7946D01*
X8794Y7884D02*
Y7946D01*
X8770Y7884D02*
X8794D01*
X8770Y7946D02*
X8794D01*
X7791Y8825D02*
Y8887D01*
X7783Y8825D02*
Y8887D01*
X7807D01*
X7783Y8825D02*
X7807D01*
X11736Y9037D02*
Y9057D01*
Y9128D02*
Y9148D01*
X11501Y9462D02*
X11521D01*
X11290Y9497D02*
X11310D01*
X11404Y8953D02*
X11424D01*
X11363D02*
X11383D01*
X11657Y9336D02*
Y9356D01*
X11203Y9479D02*
X11223D01*
X11079Y9335D02*
Y9355D01*
X11045Y8990D02*
Y9010D01*
X11622Y8989D02*
Y9009D01*
X11296Y8950D02*
X11316D01*
X11668Y9298D02*
Y9318D01*
X11474Y9186D02*
X11494D01*
X11100Y9471D02*
X11120D01*
X11622Y9035D02*
Y9055D01*
X7769Y8016D02*
X7789D01*
X11164Y9204D02*
X11196D01*
X12525Y6608D02*
X12557D01*
X9337Y11005D02*
Y11037D01*
X9721Y11007D02*
Y11039D01*
X12498Y8188D02*
Y8220D01*
X9808Y9221D02*
X9840D01*
X10002Y9122D02*
X10034D01*
X9808D02*
X9840D01*
X9630D02*
X9662D01*
X9819Y7943D02*
X9851D01*
X10235Y7976D02*
Y8008D01*
X10387Y9534D02*
Y9566D01*
X8374Y7860D02*
Y7884D01*
X8312Y7860D02*
Y7884D01*
Y7860D02*
X8374D01*
X8312Y7868D02*
X8374D01*
X8951Y7975D02*
X8983D01*
X8901Y7975D02*
X8933D01*
X8801D02*
X8833D01*
X8386Y7973D02*
X8418D01*
X8336D02*
X8368D01*
X8284D02*
X8316D01*
X8206D02*
X8238D01*
X7848Y7952D02*
X7880D01*
X8564Y8927D02*
X8596D01*
X9008Y9626D02*
X9040D01*
X8814Y9627D02*
X8846D01*
X8764D02*
X8796D01*
X8676D02*
X8708D01*
X8349Y9679D02*
X8381D01*
X7710Y9645D02*
X7742D01*
X8488Y9625D02*
X8520D01*
X7922Y9617D02*
X7954D01*
X11071Y7134D02*
Y7166D01*
X11478Y7030D02*
X11510D01*
X12068Y7090D02*
X12100D01*
X5975Y7260D02*
Y7292D01*
X6123Y7302D02*
X6155D01*
X6198Y7179D02*
X6230D01*
X9842Y8486D02*
X9874D01*
X10000Y8457D02*
X10032D01*
X9808Y8411D02*
X9840D01*
X9630Y8417D02*
X9662D01*
X10039Y9221D02*
X10071D01*
X10039Y8484D02*
X10071D01*
X8933Y9374D02*
Y9406D01*
X8092Y9386D02*
X8124D01*
X8041Y9216D02*
Y9248D01*
X9261Y8001D02*
Y8033D01*
Y8052D02*
Y8084D01*
X9004Y7975D02*
X9036D01*
X8564Y9067D02*
X8596D01*
X7601Y8936D02*
X7633D01*
X8747Y8784D02*
Y8816D01*
X9424Y8304D02*
Y8336D01*
X9425Y8471D02*
Y8503D01*
X8711Y7979D02*
X8743D01*
X8114Y7977D02*
X8146D01*
X9425Y8421D02*
Y8453D01*
X7749Y8346D02*
Y8378D01*
X9424Y9092D02*
Y9124D01*
X9397Y9190D02*
Y9222D01*
X8522Y9763D02*
X8554D01*
X7749Y8774D02*
Y8806D01*
X7696Y9380D02*
Y9412D01*
X8086Y9614D02*
X8118D01*
X9400Y8195D02*
Y8227D01*
Y8246D02*
Y8278D01*
X9426Y8355D02*
Y8387D01*
X9386Y9332D02*
Y9364D01*
Y9382D02*
Y9414D01*
X9387Y9433D02*
Y9465D01*
X7760Y8168D02*
Y8200D01*
Y8219D02*
Y8251D01*
X7749Y8396D02*
Y8428D01*
X7696Y9192D02*
Y9224D01*
X7696Y9280D02*
Y9312D01*
Y9330D02*
Y9362D01*
X11242Y9250D02*
X11274D01*
X11740Y9077D02*
Y9109D01*
X10817Y9358D02*
Y9390D01*
X11345Y9518D02*
X11377D01*
X11143Y9491D02*
X11175D01*
X11415Y9166D02*
X11447D01*
X11164Y8873D02*
X11196D01*
X9692Y10024D02*
Y10056D01*
X6193Y9152D02*
Y9184D01*
X6818Y9065D02*
X6850D01*
X6084Y8487D02*
X6116D01*
X6818Y8656D02*
X6850D01*
X6785Y8803D02*
X6817D01*
X6475Y9063D02*
X6507D01*
X6176Y8652D02*
X6208D01*
X6302Y8857D02*
Y8889D01*
X6632Y8656D02*
X6664D01*
X6632Y9064D02*
X6664D01*
M02*
