%FSLAX23Y23*%
%MOIN*%
G70*
G01*
G75*
G04 Layer_Physical_Order=7*
G04 Layer_Color=16737945*
%ADD10C,0.010*%
%ADD11R,0.039X0.043*%
%ADD12C,0.040*%
%ADD13R,0.102X0.087*%
%ADD14R,0.087X0.102*%
%ADD15R,0.024X0.094*%
%ADD16R,0.043X0.039*%
%ADD17R,0.039X0.043*%
%ADD18R,0.010X0.039*%
%ADD19R,0.020X0.039*%
%ADD20R,0.028X0.035*%
%ADD21R,0.106X0.063*%
%ADD22R,0.157X0.138*%
%ADD23R,0.041X0.083*%
%ADD24R,0.413X0.406*%
%ADD25R,0.051X0.063*%
%ADD26R,0.033X0.039*%
%ADD27O,0.016X0.063*%
%ADD28R,0.134X0.085*%
%ADD29R,0.041X0.085*%
%ADD30R,0.033X0.039*%
%ADD31R,0.041X0.085*%
%ADD32R,0.026X0.075*%
%ADD33R,0.138X0.079*%
%ADD34R,0.047X0.039*%
%ADD35R,0.134X0.075*%
%ADD36R,0.138X0.157*%
%ADD37R,0.079X0.138*%
%ADD38R,0.016X0.063*%
%ADD39R,0.063X0.051*%
%ADD40R,0.063X0.106*%
%ADD41R,0.014X0.053*%
%ADD42O,0.250X0.080*%
%ADD43R,0.124X0.202*%
%ADD44O,0.031X0.010*%
%ADD45R,0.031X0.010*%
%ADD46R,0.010X0.031*%
%ADD47O,0.080X0.250*%
%ADD48R,0.024X0.087*%
%ADD49R,0.024X0.087*%
%ADD50C,0.020*%
%ADD51R,0.039X0.047*%
%ADD52R,0.018X0.081*%
%ADD53R,0.047X0.102*%
%ADD54R,0.081X0.018*%
%ADD55R,0.047X0.043*%
%ADD56R,0.047X0.043*%
%ADD57R,0.059X0.020*%
%ADD58R,0.059X0.020*%
%ADD59R,0.035X0.028*%
%ADD60R,0.083X0.041*%
%ADD61R,0.406X0.413*%
%ADD62R,0.039X0.033*%
%ADD63R,0.039X0.033*%
%ADD64R,0.059X0.014*%
%ADD65R,0.087X0.024*%
%ADD66R,0.012X0.065*%
%ADD67R,0.087X0.024*%
%ADD68R,0.049X0.015*%
%ADD69R,0.213X0.118*%
%ADD70R,0.138X0.016*%
%ADD71R,0.057X0.022*%
%ADD72R,0.012X0.063*%
%ADD73R,0.063X0.012*%
%ADD74R,0.102X0.047*%
%ADD75R,0.014X0.053*%
%ADD76R,0.010X0.065*%
%ADD77R,0.012X0.016*%
%ADD78R,0.228X0.189*%
%ADD79R,0.016X0.012*%
%ADD80O,0.014X0.059*%
%ADD81R,0.014X0.059*%
%ADD82C,0.005*%
%ADD83C,0.008*%
%ADD84C,0.020*%
%ADD85C,0.004*%
%ADD86C,0.012*%
%ADD87C,0.006*%
%ADD88C,0.015*%
%ADD89C,0.009*%
%ADD90C,0.130*%
%ADD91C,0.050*%
%ADD92C,0.039*%
%ADD93R,0.039X0.039*%
%ADD94C,0.059*%
%ADD95R,0.059X0.059*%
%ADD96R,0.091X0.091*%
%ADD97C,0.091*%
%ADD98C,0.060*%
%ADD99R,0.059X0.059*%
%ADD100C,0.065*%
%ADD101R,0.060X0.060*%
%ADD102C,0.068*%
%ADD103R,0.059X0.059*%
%ADD104C,0.059*%
%ADD105R,0.100X0.050*%
%ADD106O,0.100X0.050*%
%ADD107C,0.150*%
%ADD108C,0.098*%
%ADD109C,0.083*%
%ADD110C,0.082*%
%ADD111C,0.067*%
%ADD112R,0.067X0.067*%
%ADD113C,0.187*%
%ADD114O,0.050X0.100*%
%ADD115R,0.050X0.100*%
%ADD116C,0.144*%
%ADD117C,0.055*%
%ADD118C,0.016*%
%ADD119C,0.036*%
%ADD120C,0.160*%
%ADD121C,0.020*%
D82*
X11267Y6851D02*
X11343Y6927D01*
X10937Y6851D02*
X11267D01*
X10931Y6846D02*
X10937Y6851D01*
X8301Y6846D02*
X10931D01*
X11270Y6841D02*
X11346Y6916D01*
X10940Y6841D02*
X11270D01*
X11313Y6883D02*
Y6883D01*
X10935Y6836D02*
X10940Y6841D01*
X8120Y6836D02*
X10935D01*
X11870Y6594D02*
X11917D01*
X11734Y6731D02*
X11871Y6594D01*
X11708Y6731D02*
X11734D01*
X11557Y6883D02*
X11708Y6731D01*
X11440Y6883D02*
X11557D01*
X10916Y6798D02*
X10946Y6829D01*
X11911Y6742D02*
X11953Y6701D01*
X11712Y6742D02*
X11911D01*
X11558Y6896D02*
X11712Y6742D01*
X11439Y6896D02*
X11558D01*
X11426Y6883D02*
X11439Y6896D01*
X11367Y6883D02*
X11426D01*
X11313Y6829D02*
X11367Y6883D01*
X10946Y6829D02*
X11313D01*
X9544Y6798D02*
X10916D01*
X9533Y6787D02*
X9544Y6798D01*
X9047Y6787D02*
X9533D01*
X9017Y6817D02*
X9047Y6787D01*
X8995Y6817D02*
X9017D01*
X8966Y6788D02*
X8995Y6817D01*
X8695Y6788D02*
X8966D01*
X8666Y6817D02*
X8695Y6788D01*
X8553Y6817D02*
X8666D01*
X8869Y7736D02*
X11531D01*
X11574Y7603D02*
X11756Y7421D01*
X11574Y7603D02*
Y7693D01*
X11531Y7736D02*
X11574Y7693D01*
X8844Y9529D02*
X9866D01*
X10233Y9557D02*
X11849D01*
X10205Y9586D02*
X10233Y9557D01*
X10167Y9586D02*
X10205D01*
X10141Y9559D02*
X10167Y9586D01*
X9896Y9559D02*
X10141D01*
X9866Y9529D02*
X9896Y9559D01*
X8799Y9483D02*
X8844Y9529D01*
X8799Y9448D02*
Y9483D01*
Y9448D02*
X8815Y9432D01*
Y9429D02*
Y9432D01*
X11316Y6818D02*
X11371Y6873D01*
X9555Y6739D02*
X10728D01*
X10949Y6818D02*
X11316D01*
X10816Y6684D02*
X10949Y6818D01*
X10782Y6684D02*
X10816D01*
X10728Y6739D02*
X10782Y6684D01*
X10820Y6674D02*
X10857Y6712D01*
X10655Y6674D02*
X10820D01*
X10601Y6729D02*
X10655Y6674D01*
X9546Y6729D02*
X10601D01*
X9517Y6777D02*
X9555Y6739D01*
X9039Y6777D02*
X9517D01*
X9011Y6805D02*
X9039Y6777D01*
X8997Y6805D02*
X9011D01*
X8969Y6778D02*
X8997Y6805D01*
X8882Y6778D02*
X8969D01*
X8799Y6695D02*
X8882Y6778D01*
X11371Y6873D02*
X11430D01*
X11440Y6883D01*
X12227Y6893D02*
X12252Y6868D01*
X11621Y6893D02*
X12227D01*
X11587Y6927D02*
X11621Y6893D01*
X11343Y6927D02*
X11587D01*
X11616Y6883D02*
X12172D01*
X11583Y6916D02*
X11616Y6883D01*
X11346Y6916D02*
X11583D01*
X10953Y6807D02*
X11358D01*
X10858Y6713D02*
X10953Y6807D01*
X8839Y6622D02*
Y6652D01*
X10893Y6719D02*
X11150D01*
X10839Y6664D02*
X10893Y6719D01*
X10651Y6664D02*
X10839D01*
X10596Y6719D02*
X10651Y6664D01*
X9539Y6719D02*
X10596D01*
X8611Y6695D02*
X8799D01*
X8575Y6658D02*
X8611Y6695D01*
X8575Y6602D02*
Y6658D01*
X11631Y6556D02*
X11720Y6646D01*
X10952Y6556D02*
X11631D01*
X10885Y6490D02*
X10952Y6556D01*
X10460Y6490D02*
X10885D01*
X10454Y6483D02*
X10460Y6490D01*
X10454Y6474D02*
Y6483D01*
X10427Y6448D02*
X10454Y6474D01*
X10353Y6448D02*
X10427D01*
X10324Y6476D02*
X10353Y6448D01*
X8932Y6476D02*
X10324D01*
X8830Y6579D02*
X8932Y6476D01*
X8763Y6579D02*
X8830D01*
X9390Y8114D02*
X11653D01*
X11691Y8076D01*
X9236Y8268D02*
X9390Y8114D01*
X8891Y8268D02*
X9236D01*
X8836Y8323D02*
X8891Y8268D01*
X8836Y8323D02*
Y8356D01*
X8808Y8384D02*
X8836Y8356D01*
X8808Y8384D02*
Y8438D01*
X8743Y8503D02*
X8808Y8438D01*
X8728Y8503D02*
X8743D01*
X8719Y8513D02*
X8728Y8503D01*
X8719Y8513D02*
Y8583D01*
X8892Y8307D02*
X9499D01*
X8878Y8321D02*
X8892Y8307D01*
X8878Y8321D02*
Y8329D01*
X8818Y8389D02*
X8878Y8329D01*
X8818Y8389D02*
Y8442D01*
X8736Y8524D02*
X8818Y8442D01*
X8736Y8524D02*
Y8526D01*
X8828Y8395D02*
X8877Y8345D01*
X8828Y8395D02*
Y8449D01*
X8799Y8477D02*
X8828Y8449D01*
X8799Y8477D02*
Y8556D01*
X8786Y8569D02*
X8799Y8556D01*
X8759Y8569D02*
X8786D01*
X8701Y8600D02*
X8719Y8583D01*
X8865Y9518D02*
X9869D01*
X11443Y9547D02*
X11449Y9541D01*
X9899Y9547D02*
X11443D01*
X9869Y9518D02*
X9899Y9547D01*
X8815Y9468D02*
X8865Y9518D01*
X8815Y9468D02*
X8815D01*
X10193Y9486D02*
X10234Y9527D01*
X10144Y9486D02*
X10193D01*
X10123Y9507D02*
X10144Y9486D01*
X8891Y9507D02*
X10123D01*
X8837Y9453D02*
X8891Y9507D01*
X8837Y9425D02*
Y9453D01*
X8820Y9408D02*
X8837Y9425D01*
X8610Y9408D02*
X8820D01*
X8586Y9384D02*
X8610Y9408D01*
X8574Y9384D02*
X8586D01*
X8958Y9496D02*
X10116D01*
X10136Y9476D01*
X8834Y9372D02*
X8958Y9496D01*
X8584Y9372D02*
X8834D01*
X8965Y9486D02*
X10112D01*
X8915Y9437D02*
X8965Y9486D01*
X8915Y9344D02*
Y9437D01*
X8902Y9331D02*
X8915Y9344D01*
X8643Y9331D02*
X8902D01*
X8622Y9310D02*
X8643Y9331D01*
X8620Y9310D02*
X8622D01*
X9508Y6767D02*
X9546Y6729D01*
X8885Y6767D02*
X9508D01*
X8781Y6662D02*
X8885Y6767D01*
X8628Y6662D02*
X8781D01*
X10666Y8245D02*
X11307D01*
X10631Y8210D02*
X10666Y8245D01*
X9596Y8210D02*
X10631D01*
X9499Y8307D02*
X9596Y8210D01*
X11191Y6760D02*
X11280D01*
X11150Y6719D02*
X11191Y6760D01*
X9502Y6756D02*
X9539Y6719D01*
X8943Y6756D02*
X9502D01*
X8839Y6652D02*
X8943Y6756D01*
X10167Y6541D02*
X10244Y6618D01*
X9103Y6541D02*
X10167D01*
X9071Y6574D02*
X9103Y6541D01*
X9071Y6574D02*
X9071D01*
X10035Y6552D02*
X10101Y6618D01*
X9134Y6552D02*
X10035D01*
X9063Y6623D02*
X9134Y6552D01*
X9053Y6623D02*
X9063D01*
X9944Y6614D02*
X9983D01*
X10000Y6631D02*
Y6657D01*
X9983Y6614D02*
X10000Y6631D01*
X9929Y6629D02*
X9944Y6614D01*
X9071Y6629D02*
X9929D01*
X9060Y6641D02*
X9071Y6629D01*
X8981Y6641D02*
X9060D01*
X8971Y6631D02*
X8981Y6641D01*
X8955Y6631D02*
X8971D01*
X8939Y6647D02*
X8955Y6631D01*
X8886Y6647D02*
X8939D01*
X8880Y6641D02*
X8886Y6647D01*
X8854Y6641D02*
X8880D01*
X8956Y6663D02*
X9051D01*
X9938Y6634D02*
X9961D01*
X9932Y6640D02*
X9938Y6634D01*
X9075Y6640D02*
X9932D01*
X9051Y6663D02*
X9075Y6640D01*
X8952Y6658D02*
X8956Y6663D01*
X8871Y6658D02*
X8952D01*
X11522Y9297D02*
X12674D01*
X12697Y9320D01*
X11517Y9303D02*
X11522Y9297D01*
X11503Y9303D02*
X11517D01*
X11476Y9277D02*
X11503Y9303D01*
X11369Y9277D02*
X11476D01*
X11356Y9289D02*
X11369Y9277D01*
X11101Y9289D02*
X11356D01*
X11083Y9271D02*
X11101Y9289D01*
X11046Y9271D02*
X11083D01*
X11017Y9300D02*
X11046Y9271D01*
X10899Y9300D02*
X11017D01*
X10866Y9268D02*
X10899Y9300D01*
X10746Y9268D02*
X10866D01*
X11345Y9346D02*
X11577D01*
X11601Y9370D01*
X11059Y9398D02*
X11292D01*
X11345Y9346D01*
X11575Y9362D02*
X11598Y9386D01*
X11559Y9362D02*
X11575D01*
X11557Y9364D02*
X11559Y9362D01*
X11557Y9364D02*
X11557D01*
X11502Y9419D02*
X11557Y9364D01*
X11369Y9419D02*
X11502D01*
X11336Y9386D02*
X11369Y9419D01*
X11319Y9386D02*
X11336D01*
X11609Y9402D02*
X11636Y9429D01*
X11574Y9402D02*
X11609D01*
X11546Y9429D02*
X11574Y9402D01*
X11363Y9429D02*
X11546D01*
X11332Y9398D02*
X11363Y9429D01*
X11321Y9398D02*
X11332D01*
X10388Y9384D02*
X11044D01*
X11059Y9398D01*
X11296Y9408D02*
X11319Y9386D01*
X9645Y9429D02*
X10393D01*
X10414Y9408D02*
X11296D01*
X10393Y9429D02*
X10414Y9408D01*
X11300Y9419D02*
X11321Y9398D01*
X10417Y9419D02*
X11300D01*
X10389Y9448D02*
X10417Y9419D01*
X10363Y9448D02*
X10389D01*
X8934Y9351D02*
X8954Y9371D01*
X8934Y9351D02*
Y9351D01*
X9051Y9468D02*
X9108D01*
X11598Y9386D02*
X12637D01*
X9625Y9449D02*
X9645Y9429D01*
X9127Y9449D02*
X9625D01*
X9108Y9468D02*
X9127Y9449D01*
X11115Y9258D02*
X11115Y9259D01*
X11017Y9258D02*
X11115D01*
X11013Y9262D02*
X11017Y9258D01*
X10896Y9262D02*
X11013D01*
X10363Y9408D02*
X10388Y9384D01*
X8986Y9408D02*
X10363D01*
X8971Y9424D02*
X8986Y9408D01*
X8971Y9424D02*
Y9428D01*
X11601Y9370D02*
X12728D01*
X8971Y9428D02*
X8977D01*
X12172Y6883D02*
X12205Y6850D01*
X12252Y6850D02*
Y6868D01*
X8279Y6868D02*
X8301Y6846D01*
X8258Y6868D02*
X8279D01*
X8246Y6856D02*
X8258Y6868D01*
X7765Y6856D02*
X8246D01*
X9170Y6651D02*
X9932D01*
X11024Y6638D02*
X11039Y6622D01*
X10985Y6638D02*
X11024D01*
X10961Y6613D02*
X10985Y6638D01*
X10685Y6613D02*
X10961D01*
X10593Y6706D02*
X10685Y6613D01*
X9987Y6706D02*
X10593D01*
X9932Y6651D02*
X9987Y6706D01*
X9072Y6664D02*
X9156D01*
X9170Y6651D01*
X9023Y6622D02*
X9071Y6574D01*
X9023Y6622D02*
Y6623D01*
X7207Y7243D02*
X8467D01*
X8527Y7303D02*
Y7660D01*
X8467Y7243D02*
X8527Y7303D01*
X9984Y8773D02*
X9993Y8782D01*
X9435Y8773D02*
X9984D01*
X9265Y8604D02*
X9435Y8773D01*
X9120Y8604D02*
X9265D01*
X9098Y8583D02*
X9120Y8604D01*
X9070Y8583D02*
X9098D01*
X9052Y8565D02*
X9070Y8583D01*
X9051Y8565D02*
X9052D01*
X9260Y8614D02*
X9430Y8783D01*
X8991Y8544D02*
Y8623D01*
X9136Y8614D02*
X9260D01*
X8973Y8526D02*
Y8526D01*
X9099Y8651D02*
X9136Y8614D01*
X9020Y8651D02*
X9099D01*
X8991Y8623D02*
X9020Y8651D01*
X9257Y8625D02*
X9510Y8878D01*
X8957Y8513D02*
Y8602D01*
X9204Y8625D02*
X9257D01*
X9194Y8635D02*
X9204Y8625D01*
X9194Y8635D02*
Y8651D01*
X9183Y8661D02*
X9194Y8651D01*
X9016Y8661D02*
X9183D01*
X8957Y8602D02*
X9016Y8661D01*
X9405Y8801D02*
X9555Y8950D01*
X9194Y8801D02*
X9405D01*
X9136Y8743D02*
X9194Y8801D01*
X9097Y8743D02*
X9136D01*
X9055Y8701D02*
X9097Y8743D01*
X9010Y8701D02*
X9055D01*
X9300Y8465D02*
X9653D01*
X9295Y8469D02*
X9300Y8465D01*
X9276Y8469D02*
X9295D01*
X9271Y8465D02*
X9276Y8469D01*
X8877Y8465D02*
X9271D01*
X8857Y8485D02*
X8877Y8465D01*
X8856Y8485D02*
X8857D01*
X7100Y9087D02*
X7133Y9054D01*
X7135D01*
X7714Y9053D01*
X7773Y9113D01*
X7952D01*
X6983Y9045D02*
X6992Y9054D01*
Y9058D01*
X7072D01*
X7087Y9043D01*
X7757D01*
X7808Y9094D01*
X8208D01*
X8227Y9114D01*
X10423Y9430D02*
X11321D01*
X10419Y9434D02*
Y9450D01*
Y9434D02*
X10423Y9430D01*
X9158Y9164D02*
X9836D01*
X9954Y9155D02*
X9977Y9131D01*
X9892Y9155D02*
X9954D01*
X9876Y9170D02*
X9892Y9155D01*
X9842Y9170D02*
X9876D01*
X9836Y9164D02*
X9842Y9170D01*
X9949Y9144D02*
X9971Y9121D01*
X9921Y9144D02*
X9949D01*
X9909Y9131D02*
X9921Y9144D01*
X9828Y9131D02*
X9909D01*
X9806Y9154D02*
X9828Y9131D01*
X9153Y9154D02*
X9806D01*
X9924Y9133D02*
X9945D01*
X9913Y9121D02*
X9924Y9133D01*
X9823Y9121D02*
X9913D01*
X9811Y9133D02*
X9823Y9121D01*
X9811Y9133D02*
Y9133D01*
X5336Y8192D02*
X5339Y8189D01*
X7894D02*
X8445D01*
X8463Y8207D01*
Y8211D01*
X11465Y8783D02*
X11476D01*
X8327Y9067D02*
X8378Y9016D01*
X8327Y9067D02*
Y9130D01*
X8268Y9189D02*
X8327Y9130D01*
X8268Y9189D02*
Y9190D01*
X8366Y9071D02*
X8382Y9055D01*
X8366Y9071D02*
Y9114D01*
X8344Y9136D02*
X8366Y9114D01*
X8344Y9136D02*
Y9154D01*
X7972Y9343D02*
Y10142D01*
X8441Y9138D02*
X8484Y9094D01*
X8441Y9138D02*
Y9177D01*
X8428Y9190D02*
X8441Y9177D01*
X8425Y9190D02*
X8428D01*
X8501Y9154D02*
X8524Y9134D01*
X8500Y9155D02*
X8502D01*
X8500Y9155D02*
Y9155D01*
X7953Y10106D02*
Y10157D01*
X7933Y10087D02*
X7953Y10106D01*
X7933Y9366D02*
Y10087D01*
Y9366D02*
X7992Y9307D01*
Y9272D02*
Y9307D01*
X7972Y9343D02*
X7984Y9331D01*
X8031D01*
X8047Y9315D01*
Y9264D02*
Y9315D01*
Y9264D02*
X8078Y9233D01*
X8187D01*
X8075Y9213D02*
X8228D01*
X7992Y9272D02*
X8012Y9252D01*
X8035D01*
X8075Y9213D01*
X8228D02*
X8248Y9232D01*
Y9240D01*
X8260Y9252D01*
X8287D01*
X8306Y9271D01*
Y9271D01*
X8031Y10079D02*
Y10374D01*
X8012Y10059D02*
X8031Y10079D01*
X8012Y9386D02*
Y10059D01*
Y9386D02*
X8028Y9370D01*
X8039D01*
X8110Y9299D01*
Y9272D02*
Y9299D01*
Y9272D02*
X8130Y9252D01*
X8209D01*
X8229Y9272D01*
X8266D01*
X8071Y10339D02*
X8087Y10354D01*
X8071Y10256D02*
Y10339D01*
X8047Y10232D02*
X8071Y10256D01*
X8047Y9382D02*
Y10232D01*
Y9382D02*
X8138Y9291D01*
X8366D01*
X8484Y9185D02*
X8496Y9173D01*
X8484Y9185D02*
Y9240D01*
X8472Y9252D02*
X8484Y9240D01*
X8445Y9252D02*
X8472D01*
X8427Y9270D02*
X8445Y9252D01*
X8425Y9270D02*
X8427D01*
X8540Y9309D02*
X8557Y9292D01*
X8540Y9309D02*
Y9310D01*
X10132Y9466D02*
X10461D01*
X10479Y9448D01*
X10112Y9486D02*
X10132Y9466D01*
X10834Y9464D02*
X12067D01*
X10136Y9476D02*
X10822D01*
X10834Y9464D01*
X8543Y9331D02*
X8584Y9372D01*
X8327Y9331D02*
X8543D01*
X8306Y9310D02*
X8327Y9331D01*
X8540Y9350D02*
X8574Y9384D01*
X8617Y10000D02*
X8673D01*
X8563Y9946D02*
X8617Y10000D01*
X8563Y9421D02*
Y9946D01*
X8552Y9410D02*
X8563Y9421D01*
X8532Y9410D02*
X8552D01*
X8521Y9399D02*
X8532Y9410D01*
X8521Y9387D02*
Y9399D01*
X8505Y9371D02*
X8521Y9387D01*
X8445Y9371D02*
X8505D01*
X8424Y9350D02*
X8445Y9371D01*
X8349Y10178D02*
X8396Y10131D01*
Y9928D02*
Y10131D01*
X8369Y9901D02*
X8396Y9928D01*
X8369Y9877D02*
Y9901D01*
X8382Y9690D02*
X8396Y9704D01*
X8382Y9517D02*
Y9690D01*
X8363Y9498D02*
X8382Y9517D01*
X8363Y9368D02*
Y9498D01*
X8345Y9350D02*
X8363Y9368D01*
X8520Y9450D02*
Y10120D01*
X8546Y10146D01*
X8520Y9450D02*
X8540Y9430D01*
X8221Y9682D02*
X8221Y9807D01*
X8207Y9668D02*
X8221Y9682D01*
X8207Y9330D02*
Y9668D01*
Y9330D02*
X8226Y9311D01*
X8227D01*
X8406Y9407D02*
X8425Y9388D01*
X8246Y9370D02*
Y10079D01*
Y9370D02*
X8266Y9350D01*
X8286Y9369D02*
Y10081D01*
Y9369D02*
X8305Y9350D01*
X11524Y9695D02*
X11536Y9683D01*
X11435Y9695D02*
X11524D01*
X11429Y9689D02*
X11435Y9695D01*
X11287Y9689D02*
X11429D01*
X8088Y10046D02*
X8104Y10062D01*
X8088Y9425D02*
Y10046D01*
Y9425D02*
X8099Y9414D01*
X8109D01*
X8126Y9397D01*
Y9374D02*
Y9397D01*
Y9374D02*
X8150Y9350D01*
X4272Y10311D02*
Y10367D01*
X4305Y10400D01*
X4334D01*
X4384Y10351D01*
Y9273D02*
Y10351D01*
Y9273D02*
X4472Y9184D01*
X6730D01*
X6746Y9201D01*
Y9234D01*
X6154Y8491D02*
X6194D01*
X6211Y8508D01*
X6230D01*
X6253Y8485D01*
Y8479D02*
Y8485D01*
X6223Y8491D02*
X6248Y8466D01*
X6151Y8546D02*
X8623D01*
X6241Y8584D02*
X8630D01*
X8637Y8577D01*
Y8560D02*
Y8577D01*
Y8560D02*
X8650Y8547D01*
X8664D01*
X8678Y8533D01*
Y8477D02*
Y8533D01*
Y8477D02*
X8697Y8458D01*
Y8447D02*
Y8458D01*
X8623Y8546D02*
X8638Y8531D01*
Y8517D02*
Y8531D01*
Y8517D02*
X8644Y8511D01*
X8637Y8481D02*
Y8495D01*
X6253Y8479D02*
X6826D01*
X6856Y8509D01*
X8623D01*
X8637Y8495D01*
Y8481D02*
X8651Y8467D01*
X8668D01*
X8678Y8457D01*
Y8427D02*
Y8457D01*
X6248Y8466D02*
X8625D01*
X8678Y8427D02*
X8698Y8407D01*
X8625Y8466D02*
X8657Y8447D01*
X8644Y8511D02*
X8658Y8485D01*
X8757Y7687D02*
Y8229D01*
X8736Y8250D02*
X8757Y8229D01*
X8699Y7682D02*
Y8130D01*
X8717Y7726D02*
Y8230D01*
X8699Y8248D02*
X8717Y8230D01*
X8676Y7708D02*
Y8185D01*
X8699Y8208D01*
X8612Y7764D02*
X8637Y7789D01*
Y8266D01*
X8659Y8288D01*
X8585Y7924D02*
X8594Y7933D01*
Y8419D01*
X8620Y8445D01*
X8604Y8389D02*
X8620Y8405D01*
X5492Y7607D02*
X5513Y7627D01*
X5075Y7607D02*
X5492D01*
X5058Y7624D02*
X5075Y7607D01*
X5058Y7624D02*
Y7648D01*
X5053Y7653D02*
X5058Y7648D01*
X5053Y7653D02*
Y7791D01*
X5067Y7805D01*
Y7977D01*
X5053Y7991D02*
X5067Y7977D01*
X5053Y7991D02*
Y8299D01*
X5085Y8331D01*
X5253D01*
X5262Y8322D01*
X6445D01*
X6470Y8347D01*
X8522D01*
X8540Y8365D01*
X5141Y8132D02*
X5516D01*
X5140Y7995D02*
X5431D01*
X4942Y8728D02*
X5748D01*
X5772Y8704D01*
X8089D01*
X8110Y8720D01*
X8084Y8819D02*
X8105Y8840D01*
X7292Y8819D02*
X8084D01*
X4922Y8704D02*
X5064D01*
X8125Y8859D02*
X8144Y8840D01*
X7270Y8859D02*
X8125D01*
X5355Y8241D02*
X5548D01*
X5316Y8167D02*
X5511D01*
X5259Y8347D02*
X6438D01*
X8483Y8309D02*
X8501Y8327D01*
X5237Y8309D02*
X8483D01*
X8444Y8231D02*
X8463Y8250D01*
X8367Y8153D02*
X8386Y8172D01*
X5543Y8150D02*
X5667Y8026D01*
X5158Y8150D02*
X5543D01*
X8404Y8388D02*
X8424Y8368D01*
X7729Y8388D02*
X8404D01*
X7710Y8369D02*
X7729Y8388D01*
X8285Y8111D02*
X8305Y8131D01*
X7908Y8111D02*
X8285D01*
X7613Y7816D02*
X7908Y8111D01*
X7418Y7816D02*
X7613D01*
X7406Y7804D02*
X7418Y7816D01*
X7406Y7647D02*
Y7804D01*
Y7647D02*
X7425Y7628D01*
X8540Y8760D02*
Y8761D01*
X8519Y8782D02*
X8540Y8761D01*
X4399Y8782D02*
X8519D01*
X7987Y8645D02*
X8031D01*
X7938Y8694D02*
X7987Y8645D01*
X5844Y8694D02*
X7938D01*
X5555Y8405D02*
X5844Y8694D01*
X5555Y8368D02*
Y8405D01*
X7031Y7800D02*
X7049Y7782D01*
X8130Y9410D02*
X8150Y9390D01*
X8130Y9410D02*
Y9655D01*
X8141Y9666D01*
X8169Y9408D02*
X8188Y9389D01*
X8169Y9408D02*
Y9568D01*
X8326Y9409D02*
X8345Y9390D01*
X8326Y9566D02*
X8332Y9572D01*
Y9718D01*
X8312Y9738D02*
X8332Y9718D01*
X8312Y9738D02*
Y10024D01*
X8326Y9409D02*
Y9566D01*
X8483Y9447D02*
X8500Y9430D01*
X8483Y9447D02*
Y9752D01*
X8465Y9770D02*
X8483Y9752D01*
X8465Y9770D02*
Y9797D01*
X8487Y9819D01*
X8446Y9409D02*
X8465Y9390D01*
X8446Y9409D02*
Y9564D01*
X8451Y9569D01*
Y10164D01*
X8500Y9310D02*
X8520Y9290D01*
Y9264D02*
Y9290D01*
Y9264D02*
X8532Y9252D01*
X11321Y9430D02*
X11330Y9439D01*
X12431D01*
X12461Y9409D01*
X11636Y9429D02*
X12262D01*
X12284Y9407D01*
X8225Y8880D02*
X8230D01*
X8248Y8862D01*
Y8831D02*
Y8862D01*
Y8831D02*
X8260Y8819D01*
X11201Y8878D02*
X11339Y8740D01*
Y8630D02*
Y8740D01*
X8366Y9291D02*
X8386Y9272D01*
X11207Y8888D02*
X11311Y8783D01*
X11476D01*
X10496Y8905D02*
Y8909D01*
Y8905D02*
X10503Y8898D01*
X11253D01*
X11275Y8876D01*
Y8873D02*
Y8876D01*
Y8873D02*
X11278Y8870D01*
Y8837D02*
Y8870D01*
Y8837D02*
X11290Y8824D01*
X11456D01*
X11470Y8810D01*
X8382Y9055D02*
X9106D01*
X10504Y8926D02*
X10522Y8908D01*
X11257D01*
X11292Y8874D01*
Y8851D02*
Y8874D01*
Y8851D02*
X11309Y8834D01*
X11799D01*
X10268Y8983D02*
Y8988D01*
Y8983D02*
X10373Y8878D01*
X11201D01*
X10402Y8999D02*
X10464Y8936D01*
X10510D01*
X10528Y8918D01*
X11263D01*
X11302Y8879D01*
Y8855D02*
Y8879D01*
Y8855D02*
X11313Y8844D01*
X11517D01*
X11575Y8902D01*
X10402Y8999D02*
Y9000D01*
Y9039D02*
X10422D01*
X10534Y8928D01*
X11269D01*
X11314Y8883D01*
Y8861D02*
Y8883D01*
Y8861D02*
X11321Y8854D01*
X11502D01*
X11566Y8917D01*
X12249Y8874D02*
X12299Y8924D01*
X12338D01*
X11990Y8874D02*
X12249D01*
X10402Y9075D02*
X10403D01*
X10539Y8938D01*
X11274D01*
X11318Y8894D01*
X11528D01*
X11563Y8928D01*
X12039Y8884D02*
X12224D01*
X12231Y8892D01*
X10408Y9091D02*
X10551Y8948D01*
X11279D01*
X11324Y8904D01*
X11524D01*
X11559Y8939D01*
X12045Y8894D02*
X12194D01*
X12214Y8913D01*
X9053Y9173D02*
X9093Y9134D01*
X8496Y9173D02*
X9053D01*
X9078Y9134D02*
X9116Y9096D01*
X9179D01*
X9207Y9124D01*
X9783D01*
X9788Y9118D01*
X8501Y9154D02*
X8502Y9155D01*
X8524Y9134D02*
X9078D01*
X9103Y9094D02*
X9138Y9060D01*
X9177D01*
X9231Y9114D01*
X9767D01*
X9780Y9101D01*
X10302D01*
X10313Y9091D01*
X10408D01*
X8484Y9094D02*
X9103D01*
X9108Y9055D02*
X9129D01*
X9135Y9048D01*
X9180D01*
X9236Y9104D01*
X9763D01*
X9776Y9091D01*
X10299D01*
X10315Y9075D01*
X10373D01*
X10384Y9064D01*
Y8993D02*
Y9064D01*
Y8993D02*
X10451Y8926D01*
X10504D01*
X9179Y9016D02*
X9257Y9094D01*
X9759D01*
X9773Y9080D01*
X10296D01*
X8378Y9016D02*
X9179D01*
X10296Y9080D02*
X10311Y9064D01*
X10362D01*
X10374Y9052D01*
Y8988D02*
Y9052D01*
Y8988D02*
X10474Y8888D01*
X11207D01*
X8500Y9262D02*
Y9270D01*
Y9262D02*
X8520Y9242D01*
Y9220D02*
Y9242D01*
Y9220D02*
X8527Y9214D01*
X9028D01*
X9097Y9144D01*
X9966Y9111D02*
X10358D01*
X8532Y9252D02*
X9055D01*
X9153Y9154D01*
X10295Y9121D02*
X10323Y9150D01*
X9093Y9134D02*
X9795D01*
X9818Y9111D01*
X9928D01*
X9934Y9117D01*
X9097Y9144D02*
X9800D01*
X9811Y9133D01*
X9945D02*
X9966Y9111D01*
X9971Y9121D02*
X10295D01*
X8557Y9292D02*
X9053D01*
X9071Y9275D01*
Y9251D02*
Y9275D01*
Y9251D02*
X9158Y9164D01*
X9977Y9131D02*
X10274D01*
X10308Y9165D01*
X10348D01*
X10403Y9111D01*
X10246Y8337D02*
X10266D01*
X10217Y8366D02*
X10246Y8337D01*
X10217Y8366D02*
Y8423D01*
X10134Y8506D02*
X10217Y8423D01*
X10134Y8506D02*
Y9023D01*
X10172Y9061D01*
X10285Y8278D02*
X10294Y8286D01*
Y8370D01*
X10144Y8521D02*
X10294Y8370D01*
X10144Y8521D02*
Y8965D01*
X10195Y9016D01*
X9090Y8526D02*
Y8528D01*
X9105Y8543D01*
X9497D01*
X9594Y8640D01*
X10183Y9039D02*
X10198D01*
X10224Y9013D01*
Y8984D02*
Y9013D01*
X10154Y8914D02*
X10224Y8984D01*
X10154Y8592D02*
Y8914D01*
Y8592D02*
X10306Y8440D01*
Y8275D02*
Y8440D01*
X10293Y8262D02*
X10306Y8275D01*
X10278Y8262D02*
X10293D01*
X10261Y8279D02*
X10278Y8262D01*
X10261Y8279D02*
Y8292D01*
X10276Y8307D01*
X10011Y8761D02*
Y8797D01*
X8973Y8526D02*
X8991Y8544D01*
X8895Y8840D02*
Y8880D01*
X9186Y8504D02*
X9250D01*
X9279Y8533D01*
X9615D01*
X9648Y8566D01*
X8894Y8445D02*
Y8447D01*
Y8445D02*
X8913Y8425D01*
X9680D01*
X9816Y8561D01*
X9168Y8485D02*
Y8486D01*
X9186Y8504D01*
X9055Y8880D02*
Y8881D01*
X9072Y8898D01*
X9098D01*
X9114Y8873D02*
Y8880D01*
X9099Y8858D02*
X9114Y8873D01*
X8926Y8858D02*
X9099D01*
X8916Y8848D02*
X8926Y8858D01*
X8916Y8835D02*
Y8848D01*
X8901Y8819D02*
X8916Y8835D01*
X8260Y8819D02*
X8901D01*
X8997Y8525D02*
X9052D01*
X8976Y8504D02*
X8997Y8525D01*
X8966Y8504D02*
X8976D01*
X8957Y8513D02*
X8966Y8504D01*
X9510Y8878D02*
X9528D01*
X9746Y8832D02*
Y8882D01*
X9430Y8783D02*
X9457D01*
X9211Y8642D02*
Y8645D01*
X9227Y8661D01*
X9280D01*
X9512Y8894D01*
X9548D01*
X9558Y8884D01*
Y8884D02*
Y8884D01*
Y8884D02*
X9563Y8879D01*
X9580D01*
X9601Y8901D01*
X9614D01*
X9635Y8880D01*
X9457Y8783D02*
Y8784D01*
X9539Y8867D01*
X9598D01*
X9611Y8880D01*
X9922Y9038D02*
X9968D01*
X9899Y9015D02*
X9922Y9038D01*
X9838Y8970D02*
X10011Y8797D01*
X9177Y8978D02*
X9214Y9015D01*
X8993Y8978D02*
X9177D01*
X9214Y9015D02*
X9899D01*
X9219Y8978D02*
X9227Y8970D01*
X9191Y8978D02*
X9219D01*
X9179Y8967D02*
X9191Y8978D01*
X9167Y8967D02*
X9179D01*
X9098Y8898D02*
X9167Y8967D01*
X9227Y8970D02*
X9838D01*
X9667Y8960D02*
X9714Y8914D01*
X9235Y8960D02*
X9667D01*
X9217Y8942D02*
X9235Y8960D01*
X9176Y8942D02*
X9217D01*
X9114Y8880D02*
X9176Y8942D01*
X9713Y8915D02*
X9746Y8882D01*
X8932Y8527D02*
Y8528D01*
X8917Y8542D02*
X8932Y8528D01*
X8917Y8542D02*
Y8608D01*
X9010Y8701D01*
X9555Y8950D02*
X9663D01*
X9722Y8891D01*
Y8825D02*
Y8891D01*
Y8825D02*
X9760Y8787D01*
X9961D01*
X9975Y8802D01*
X8068Y9155D02*
Y9155D01*
X8047Y9134D02*
X8068Y9155D01*
X7770Y9134D02*
X8047D01*
X7763Y9141D02*
X7770Y9134D01*
X7727Y9141D02*
X7763D01*
X7694Y9107D02*
X7727Y9141D01*
X6915Y9107D02*
X7694D01*
X6890Y9082D02*
X6915Y9107D01*
X7898Y9076D02*
X7918D01*
X7939Y9055D01*
X8090D01*
X8110Y9075D01*
X9090Y9271D02*
X9090D01*
X9109Y9252D01*
X10886D01*
X10896Y9262D01*
X11117Y9257D02*
X11531D01*
X11535Y9262D01*
X9678Y9192D02*
Y9196D01*
Y9192D02*
X9696Y9174D01*
X11212Y9094D02*
X11486D01*
X11522Y9130D01*
X11540D01*
X11557Y9147D01*
Y9246D01*
X9646Y9188D02*
Y9210D01*
X9657Y9221D01*
X11127Y9179D02*
X11212Y9094D01*
X9657Y9221D02*
X10123D01*
X10133Y9212D01*
X11027D01*
X11032Y9206D01*
X11063D01*
X11080Y9222D01*
X11496D01*
X11511Y9237D01*
X9712Y9205D02*
X9849D01*
X9855Y9211D01*
X10119D01*
Y9210D02*
Y9211D01*
Y9210D02*
X10150Y9179D01*
X10163D01*
X10186Y9202D01*
X11022D01*
X11029Y9195D01*
X11205D01*
X11218Y9182D01*
X11491D01*
X11496Y9187D01*
X11530D01*
X11535Y9193D01*
X9832Y9174D02*
X9859Y9201D01*
X10109D01*
X10143Y9167D01*
X10168D01*
X10193Y9192D01*
X11018D01*
X11031Y9179D01*
X11127D01*
X9696Y9174D02*
X9832D01*
X9170Y8996D02*
X9181D01*
X9242Y9057D01*
X9505D01*
X9515Y9067D01*
X7991Y8681D02*
Y8683D01*
Y8681D02*
X8011Y8661D01*
X8721D01*
X8741Y8642D01*
X12843Y8914D02*
X12869D01*
X12926Y8972D01*
X8031Y8761D02*
Y8763D01*
Y8761D02*
X8052Y8740D01*
X8761D01*
X8838Y8663D01*
X8741Y8587D02*
X8759Y8569D01*
X9739Y8383D02*
X9776D01*
X8741Y8587D02*
Y8642D01*
X9776Y8383D02*
X9914Y8245D01*
X8838Y8400D02*
X8851Y8386D01*
X9728D01*
X9736Y8394D01*
X9781D01*
X9832Y8343D01*
X10023D01*
X8838Y8400D02*
Y8663D01*
X10133Y8232D02*
X10302D01*
X10495Y8425D01*
X10023Y8343D02*
X10133Y8232D01*
X9914Y8245D02*
X10106D01*
X10130Y8221D01*
X10328D01*
X10702Y8595D01*
X12524D01*
X12843Y8914D01*
X10495Y8425D02*
X10517D01*
X10698Y8606D01*
X12520D01*
X12790Y8876D01*
Y8958D01*
X12850Y9018D01*
X12956D01*
X12995Y8978D01*
Y8841D02*
Y8978D01*
X12926Y8772D02*
X12995Y8841D01*
X7049Y7619D02*
Y7781D01*
Y7619D02*
X7120Y7548D01*
X7959D01*
X8096Y7686D01*
Y7773D01*
X8146Y7822D01*
X7809Y8026D02*
X7936Y8153D01*
X8367D01*
X5667Y8026D02*
X7809D01*
X7805Y8036D02*
X7870Y8102D01*
X5990Y8036D02*
X7805D01*
X7870Y8102D02*
Y8166D01*
X5339Y8189D02*
X5837D01*
X5990Y8036D01*
X7868Y8163D02*
X7894Y8189D01*
X7920Y8231D02*
X8444D01*
X7735Y8046D02*
X7920Y8231D01*
X5994Y8046D02*
X7735D01*
X5826Y8214D02*
X5994Y8046D01*
X5826Y8214D02*
Y8215D01*
X5218D02*
X5826D01*
X7944Y8270D02*
X8482D01*
X7730Y8056D02*
X7944Y8270D01*
X5999Y8056D02*
X7730D01*
X5793Y8262D02*
X5999Y8056D01*
X5198Y8262D02*
X5793D01*
X10101Y6618D02*
X10142D01*
X8737Y6647D02*
X8790D01*
X8906Y6531D01*
X10412D01*
X10499Y6617D01*
X8706Y6645D02*
Y6647D01*
Y6645D02*
X8719Y6631D01*
X8792D01*
X8903Y6520D01*
X10429D01*
X10528Y6618D01*
X9028Y6499D02*
X9061D01*
X9072Y6510D01*
X10319D01*
X10348Y6480D01*
X10359D01*
X10389Y6510D01*
X10454D01*
X10555Y6611D01*
Y6630D01*
X9114Y6493D02*
X9132D01*
X9138Y6500D01*
X10315D01*
X10354Y6461D01*
X10391D01*
X10430Y6500D01*
X10474D01*
X10583Y6608D01*
Y6642D01*
X9054Y9314D02*
X9071Y9331D01*
X9584D02*
X9597Y9318D01*
X10179D01*
X9071Y9331D02*
X9584D01*
X9581Y9371D02*
X9621Y9331D01*
X8954Y9371D02*
X9581D01*
X10179Y9318D02*
Y9318D01*
X10189Y9328D01*
X10558D01*
X9054Y9312D02*
Y9314D01*
X10558Y9328D02*
X10609Y9277D01*
X9621Y9331D02*
X10171D01*
X10183Y9343D01*
X10671D01*
X10746Y9268D01*
X8095Y6920D02*
X8407D01*
X8422Y6906D01*
X11292D01*
X11340Y6953D01*
X11607D01*
X11644Y6916D01*
X12446D01*
X12484Y6955D01*
X12565D01*
X12610Y6909D01*
Y6843D02*
Y6909D01*
X8895Y8880D02*
X8993Y8978D01*
X4220Y10236D02*
X4363Y10093D01*
Y8706D02*
Y10093D01*
Y8706D02*
X4764Y8305D01*
Y7622D02*
Y8305D01*
Y7622D02*
X4865Y7521D01*
X4220Y10236D02*
Y10260D01*
Y10259D02*
X4272Y10311D01*
X4865Y7521D02*
X6929D01*
X7207Y7243D01*
X11839Y8873D02*
Y8885D01*
X11799Y8834D02*
X11839Y8873D01*
X11566Y8917D02*
X11947D01*
X11990Y8874D01*
X11995Y8928D02*
X12039Y8884D01*
X11563Y8928D02*
X11995D01*
X11634Y8939D02*
X11674Y8979D01*
X11960D01*
X11559Y8939D02*
X11634D01*
X11960Y8979D02*
X12045Y8894D01*
X8396Y9704D02*
Y9704D01*
X8406Y9714D01*
Y9842D01*
X8396Y9851D02*
X8406Y9842D01*
X8369Y9877D02*
X8395Y9851D01*
X8396D01*
X8406Y9407D02*
Y9694D01*
X8430Y9718D01*
Y9943D01*
X8108Y9699D02*
X8143D01*
X8162Y9680D01*
Y9575D02*
Y9680D01*
X8161Y9576D02*
X8169Y9568D01*
X8604Y7868D02*
X8611Y7861D01*
X8604Y7868D02*
Y8389D01*
X8585Y7924D02*
X8585D01*
X8565Y7905D02*
X8585Y7924D01*
X8565Y7856D02*
Y7905D01*
Y7856D02*
X8591Y7830D01*
X8611D01*
X9320Y8345D02*
X9340Y8325D01*
X9385D01*
X9422Y8362D01*
X9718D01*
X8877Y8345D02*
X9320D01*
X9718Y8362D02*
X9739Y8383D01*
D83*
X8144Y8840D02*
X8145D01*
X8438Y7945D02*
X8484D01*
X8551Y7878D01*
Y7734D02*
Y7878D01*
Y7734D02*
X8638Y7648D01*
Y7345D02*
X8680Y7303D01*
X10165D01*
X10226Y7242D01*
X11552D01*
X11584Y7210D01*
X8638Y7345D02*
Y7648D01*
D84*
X13185Y6000D02*
Y12300D01*
X3999Y6000D02*
Y12299D01*
Y6000D02*
X13185D01*
X4575Y12150D02*
Y12299D01*
Y12150D02*
X6200D01*
Y12300D01*
X9350Y12150D02*
Y12300D01*
Y12150D02*
X10975D01*
Y12300D01*
X3999Y12299D02*
X4574D01*
X6200Y12300D02*
X9349D01*
X10975D02*
X13185D01*
D87*
X4320Y10360D02*
X4373Y10307D01*
Y8716D02*
Y10307D01*
Y8716D02*
X4782Y8307D01*
X4843D01*
X7238Y8873D02*
X7292Y8819D01*
X7168Y8873D02*
X7238D01*
X7221Y8908D02*
X7270Y8859D01*
X7134Y8908D02*
X7221D01*
X8482Y8270D02*
X8502Y8250D01*
D89*
X12888Y12453D02*
X12886Y12451D01*
X12888Y12449D01*
X12890Y12451D01*
X12888Y12453D01*
X12927Y12479D02*
X12925Y12483D01*
X12921Y12487D01*
X12918Y12489D01*
X12910D01*
X12906Y12487D01*
X12902Y12483D01*
X12900Y12479D01*
X12899Y12474D01*
Y12464D01*
X12900Y12459D01*
X12902Y12455D01*
X12906Y12451D01*
X12910Y12449D01*
X12918D01*
X12921Y12451D01*
X12925Y12455D01*
X12927Y12459D01*
Y12464D01*
X12918D02*
X12927D01*
X12959Y12483D02*
X12957Y12487D01*
X12952Y12489D01*
X12948D01*
X12942Y12487D01*
X12938Y12481D01*
X12936Y12472D01*
Y12462D01*
X12938Y12455D01*
X12942Y12451D01*
X12948Y12449D01*
X12950D01*
X12955Y12451D01*
X12959Y12455D01*
X12961Y12460D01*
Y12462D01*
X12959Y12468D01*
X12955Y12472D01*
X12950Y12474D01*
X12948D01*
X12942Y12472D01*
X12938Y12468D01*
X12936Y12462D01*
D93*
X12926Y8772D02*
D03*
Y8972D02*
D03*
D94*
X4320Y10360D02*
D03*
D95*
X4220Y10260D02*
D03*
D118*
X8553Y6817D02*
D03*
X11756Y7421D02*
D03*
X8869Y7736D02*
D03*
X11849Y9557D02*
D03*
X8575Y6602D02*
D03*
X8763Y6579D02*
D03*
X11691Y8076D02*
D03*
X11449Y9541D02*
D03*
X8628Y6662D02*
D03*
X11307Y8245D02*
D03*
X8839Y6623D02*
D03*
X8854Y6641D02*
D03*
X8871Y6658D02*
D03*
X12697Y9320D02*
D03*
X12637Y9386D02*
D03*
X12728Y9370D02*
D03*
X7765Y6856D02*
D03*
X9072Y6664D02*
D03*
X9023Y6623D02*
D03*
X8527Y7660D02*
D03*
X9653Y8465D02*
D03*
X7100Y9087D02*
D03*
X6983Y9045D02*
D03*
X10266Y8337D02*
D03*
X10276Y8307D02*
D03*
X10285Y8278D02*
D03*
X11476Y8783D02*
D03*
X11575Y8902D02*
D03*
X7972Y10142D02*
D03*
X12214Y8913D02*
D03*
X9788Y9118D02*
D03*
X9934Y9117D02*
D03*
X7953Y10157D02*
D03*
X8031Y10374D02*
D03*
X8087Y10354D02*
D03*
X10479Y9448D02*
D03*
X12067Y9464D02*
D03*
X8673Y10000D02*
D03*
X8349Y10178D02*
D03*
X8546Y10146D02*
D03*
X8221Y9807D02*
D03*
X8430Y9943D02*
D03*
X8246Y10079D02*
D03*
X8286Y10081D02*
D03*
X11287Y9689D02*
D03*
X11536Y9683D02*
D03*
X8104Y10062D02*
D03*
X4843Y8307D02*
D03*
X6746Y9234D02*
D03*
X6154Y8491D02*
D03*
X6223D02*
D03*
X6151Y8546D02*
D03*
X6241Y8584D02*
D03*
X8757Y7687D02*
D03*
X8699Y7682D02*
D03*
X8717Y7726D02*
D03*
X8676Y7708D02*
D03*
X8612Y7764D02*
D03*
X8611Y7830D02*
D03*
Y7861D02*
D03*
X5513Y7627D02*
D03*
X5141Y8132D02*
D03*
X5516Y8132D02*
D03*
X5140Y7995D02*
D03*
X5431D02*
D03*
X11584Y7210D02*
D03*
X11535Y9193D02*
D03*
X11511Y9237D02*
D03*
X11557Y9246D02*
D03*
X11535Y9262D02*
D03*
X7425Y7628D02*
D03*
X8894Y8447D02*
D03*
X8973Y8526D02*
D03*
X9052Y8525D02*
D03*
X9090Y8526D02*
D03*
X9051Y8565D02*
D03*
X8932Y8527D02*
D03*
X8856Y8485D02*
D03*
X8699Y8130D02*
D03*
Y8208D02*
D03*
Y8248D02*
D03*
X8736Y8250D02*
D03*
X8659Y8288D02*
D03*
X8698Y8407D02*
D03*
X8697Y8447D02*
D03*
X8657D02*
D03*
X8658Y8485D02*
D03*
X8736Y8526D02*
D03*
X9090Y9271D02*
D03*
X9051Y9468D02*
D03*
X9053Y9312D02*
D03*
X8971Y9428D02*
D03*
X8934Y9351D02*
D03*
X8815Y9429D02*
D03*
Y9468D02*
D03*
X9170Y8996D02*
D03*
X8031Y8645D02*
D03*
X8305Y8131D02*
D03*
X8386Y8172D02*
D03*
X8463Y8211D02*
D03*
X8031Y8763D02*
D03*
X7991Y8683D02*
D03*
X8502Y8250D02*
D03*
X8463D02*
D03*
X8501Y8327D02*
D03*
X8424Y8368D02*
D03*
X8266Y9350D02*
D03*
X8188Y9389D02*
D03*
X8227Y9311D02*
D03*
X8187Y9233D02*
D03*
X8068Y9155D02*
D03*
X7952Y9113D02*
D03*
X8305Y9350D02*
D03*
X8345D02*
D03*
X8424D02*
D03*
X8425Y9388D02*
D03*
X8345Y9390D02*
D03*
X8385Y9271D02*
D03*
X8306D02*
D03*
X8266Y9272D02*
D03*
X8306Y9310D02*
D03*
X8268Y9190D02*
D03*
X8344Y9154D02*
D03*
X8227Y9114D02*
D03*
X8145Y8840D02*
D03*
X8105D02*
D03*
X8540Y9310D02*
D03*
X8620D02*
D03*
X8540Y9350D02*
D03*
Y9430D02*
D03*
X8225Y8880D02*
D03*
X8540Y8760D02*
D03*
X8620Y8445D02*
D03*
X8540Y8365D02*
D03*
X8620Y8405D02*
D03*
X8500Y9430D02*
D03*
X8150Y9390D02*
D03*
Y9350D02*
D03*
X8465Y9390D02*
D03*
X8500Y9155D02*
D03*
X8425Y9190D02*
D03*
X8500Y9270D02*
D03*
X8425D02*
D03*
X8500Y9310D02*
D03*
X8110Y9075D02*
D03*
X8895Y8840D02*
D03*
X9055Y8880D02*
D03*
X8700Y8600D02*
D03*
X8110Y8720D02*
D03*
X9211Y8642D02*
D03*
X9169Y8486D02*
D03*
X9611Y8880D02*
D03*
X9635D02*
D03*
X7168Y8873D02*
D03*
X4922Y8704D02*
D03*
X4942Y8728D02*
D03*
X5064Y8704D02*
D03*
X7134Y8908D02*
D03*
X5548Y8241D02*
D03*
X5355Y8241D02*
D03*
X5336Y8192D02*
D03*
X5511Y8167D02*
D03*
X5316D02*
D03*
X6438Y8347D02*
D03*
X5259D02*
D03*
X5237Y8309D02*
D03*
X5218Y8215D02*
D03*
X5198Y8262D02*
D03*
X5158Y8150D02*
D03*
X7031Y7800D02*
D03*
X7710Y8369D02*
D03*
X4399Y8782D02*
D03*
X5555Y8368D02*
D03*
X8147Y7822D02*
D03*
X8142Y9666D02*
D03*
X8108Y9699D02*
D03*
X8312Y10024D02*
D03*
X8487Y9819D02*
D03*
X8451Y10164D02*
D03*
X10234Y9527D02*
D03*
X10403Y9111D02*
D03*
X10323Y9150D02*
D03*
X10358Y9111D02*
D03*
X10419Y9450D02*
D03*
X12461Y9409D02*
D03*
X10363Y9448D02*
D03*
X12284Y9407D02*
D03*
X11470Y8810D02*
D03*
X10496Y8909D02*
D03*
X10402Y9075D02*
D03*
X12231Y8892D02*
D03*
X10402Y9039D02*
D03*
X12338Y8924D02*
D03*
X10402Y9000D02*
D03*
X9746Y8832D02*
D03*
X10268Y8988D02*
D03*
X11339Y8630D02*
D03*
X12205Y6850D02*
D03*
X12252Y6850D02*
D03*
X10172Y9061D02*
D03*
X10183Y9039D02*
D03*
X10195Y9016D02*
D03*
X9968Y9038D02*
D03*
X9975Y8802D02*
D03*
X9993Y8782D02*
D03*
X10011Y8761D02*
D03*
X9594Y8640D02*
D03*
X9648Y8566D02*
D03*
X9816Y8561D02*
D03*
X9528Y8878D02*
D03*
X9646Y9188D02*
D03*
X9678Y9196D02*
D03*
X9712Y9205D02*
D03*
X6890Y9082D02*
D03*
X7898Y9076D02*
D03*
X8438Y7945D02*
D03*
X9515Y9067D02*
D03*
X11917Y6594D02*
D03*
X11953Y6701D02*
D03*
X12610Y6843D02*
D03*
X11720Y6646D02*
D03*
X11358Y6807D02*
D03*
X11280Y6760D02*
D03*
X11039Y6622D02*
D03*
X10500Y6618D02*
D03*
X10528D02*
D03*
X10555Y6630D02*
D03*
X10583Y6642D02*
D03*
X10244Y6618D02*
D03*
X10142D02*
D03*
X10000Y6657D02*
D03*
X9961Y6634D02*
D03*
X8120Y6836D02*
D03*
X9053Y6623D02*
D03*
X8737Y6647D02*
D03*
X8706D02*
D03*
X9028Y6499D02*
D03*
X9114Y6493D02*
D03*
X10608Y9278D02*
D03*
X8095Y6920D02*
D03*
X11839Y8885D02*
D03*
M02*
