%FSLAX23Y23*%
%MOIN*%
G70*
G01*
G75*
G04 Layer_Color=16711935*
%ADD10C,0.010*%
%ADD11R,0.039X0.043*%
%ADD12C,0.040*%
%ADD13R,0.102X0.087*%
%ADD14R,0.087X0.102*%
%ADD15R,0.024X0.094*%
%ADD16R,0.043X0.039*%
%ADD17R,0.039X0.043*%
%ADD18R,0.010X0.039*%
%ADD19R,0.020X0.039*%
%ADD20R,0.028X0.035*%
%ADD21R,0.106X0.063*%
%ADD22R,0.157X0.138*%
%ADD23R,0.041X0.083*%
%ADD24R,0.413X0.406*%
%ADD25R,0.051X0.063*%
%ADD26R,0.033X0.039*%
%ADD27O,0.016X0.063*%
%ADD28R,0.134X0.085*%
%ADD29R,0.041X0.085*%
%ADD30R,0.033X0.039*%
%ADD31R,0.041X0.085*%
%ADD32R,0.026X0.075*%
%ADD33R,0.138X0.079*%
%ADD34R,0.047X0.039*%
%ADD35R,0.134X0.075*%
%ADD36R,0.138X0.157*%
%ADD37R,0.079X0.138*%
%ADD38R,0.016X0.063*%
%ADD39R,0.063X0.051*%
%ADD40R,0.063X0.106*%
%ADD41R,0.014X0.053*%
%ADD42O,0.250X0.080*%
%ADD43R,0.124X0.202*%
%ADD44O,0.031X0.010*%
%ADD45R,0.031X0.010*%
%ADD46R,0.010X0.031*%
%ADD47O,0.080X0.250*%
%ADD48R,0.024X0.087*%
%ADD49R,0.024X0.087*%
%ADD50C,0.020*%
%ADD51R,0.039X0.047*%
%ADD52R,0.018X0.081*%
%ADD53R,0.047X0.102*%
%ADD54R,0.081X0.018*%
%ADD55R,0.047X0.043*%
%ADD56R,0.047X0.043*%
%ADD57R,0.059X0.020*%
%ADD58R,0.059X0.020*%
%ADD59R,0.035X0.028*%
%ADD60R,0.083X0.041*%
%ADD61R,0.406X0.413*%
%ADD62R,0.039X0.033*%
%ADD63R,0.039X0.033*%
%ADD64R,0.059X0.014*%
%ADD65R,0.087X0.024*%
%ADD66R,0.012X0.065*%
%ADD67R,0.087X0.024*%
%ADD68R,0.049X0.015*%
%ADD69R,0.213X0.118*%
%ADD70R,0.138X0.016*%
%ADD71R,0.057X0.022*%
%ADD72R,0.012X0.063*%
%ADD73R,0.063X0.012*%
%ADD74R,0.102X0.047*%
%ADD75R,0.014X0.053*%
%ADD76R,0.010X0.065*%
%ADD77R,0.012X0.016*%
%ADD78R,0.228X0.189*%
%ADD79R,0.016X0.012*%
%ADD80O,0.014X0.059*%
%ADD81R,0.014X0.059*%
%ADD82C,0.005*%
%ADD83C,0.008*%
%ADD84C,0.020*%
%ADD85C,0.004*%
%ADD86C,0.012*%
%ADD87C,0.006*%
%ADD88C,0.015*%
%ADD89C,0.009*%
%ADD90C,0.130*%
%ADD91C,0.050*%
%ADD92C,0.039*%
%ADD93R,0.039X0.039*%
%ADD94C,0.059*%
%ADD95R,0.059X0.059*%
%ADD96R,0.091X0.091*%
%ADD97C,0.091*%
%ADD98C,0.060*%
%ADD99R,0.059X0.059*%
%ADD100C,0.065*%
%ADD101R,0.060X0.060*%
%ADD102C,0.068*%
%ADD103R,0.059X0.059*%
%ADD104C,0.059*%
%ADD105R,0.100X0.050*%
%ADD106O,0.100X0.050*%
%ADD107C,0.150*%
%ADD108C,0.098*%
%ADD109C,0.083*%
%ADD110C,0.082*%
%ADD111C,0.067*%
%ADD112R,0.067X0.067*%
%ADD113C,0.187*%
%ADD114O,0.050X0.100*%
%ADD115R,0.050X0.100*%
%ADD116C,0.144*%
%ADD117C,0.055*%
%ADD118C,0.016*%
%ADD119C,0.036*%
%ADD120C,0.160*%
%ADD121C,0.020*%
%ADD122C,0.030*%
%ADD123R,0.063X0.071*%
%ADD124R,0.071X0.063*%
%ADD125R,0.039X0.020*%
%ADD126R,0.039X0.010*%
%ADD127C,0.010*%
%ADD128C,0.008*%
%ADD129C,0.004*%
%ADD130C,0.001*%
%ADD131C,0.001*%
%ADD132C,0.007*%
%ADD133C,0.006*%
%ADD134R,0.146X0.031*%
%ADD135R,0.110X0.410*%
%ADD136R,0.110X0.405*%
%ADD137R,0.043X0.047*%
%ADD138C,0.044*%
%ADD139R,0.106X0.091*%
%ADD140R,0.091X0.106*%
%ADD141R,0.028X0.098*%
%ADD142R,0.047X0.043*%
%ADD143R,0.043X0.047*%
%ADD144R,0.014X0.043*%
%ADD145R,0.024X0.043*%
%ADD146R,0.032X0.039*%
%ADD147R,0.110X0.067*%
%ADD148R,0.161X0.142*%
%ADD149R,0.045X0.087*%
%ADD150R,0.417X0.410*%
%ADD151R,0.055X0.067*%
%ADD152R,0.037X0.043*%
%ADD153O,0.020X0.067*%
%ADD154R,0.138X0.089*%
%ADD155R,0.045X0.089*%
%ADD156R,0.037X0.043*%
%ADD157R,0.045X0.089*%
%ADD158R,0.030X0.079*%
%ADD159R,0.142X0.083*%
%ADD160R,0.051X0.043*%
%ADD161R,0.138X0.079*%
%ADD162R,0.142X0.161*%
%ADD163R,0.083X0.142*%
%ADD164R,0.020X0.067*%
%ADD165R,0.067X0.055*%
%ADD166R,0.067X0.110*%
%ADD167R,0.018X0.057*%
%ADD168O,0.254X0.084*%
%ADD169R,0.128X0.206*%
%ADD170O,0.035X0.014*%
%ADD171R,0.035X0.014*%
%ADD172R,0.014X0.035*%
%ADD173O,0.084X0.254*%
%ADD174R,0.028X0.091*%
%ADD175R,0.028X0.091*%
%ADD176C,0.024*%
%ADD177R,0.043X0.051*%
%ADD178R,0.022X0.085*%
%ADD179R,0.051X0.106*%
%ADD180R,0.085X0.022*%
%ADD181R,0.051X0.047*%
%ADD182R,0.051X0.047*%
%ADD183R,0.063X0.024*%
%ADD184R,0.063X0.024*%
%ADD185R,0.039X0.032*%
%ADD186R,0.087X0.045*%
%ADD187R,0.410X0.417*%
%ADD188R,0.043X0.037*%
%ADD189R,0.043X0.037*%
%ADD190R,0.063X0.018*%
%ADD191R,0.091X0.028*%
%ADD192R,0.016X0.069*%
%ADD193R,0.091X0.028*%
%ADD194R,0.053X0.019*%
%ADD195R,0.217X0.122*%
%ADD196R,0.142X0.020*%
%ADD197R,0.061X0.026*%
%ADD198R,0.016X0.067*%
%ADD199R,0.067X0.016*%
%ADD200R,0.106X0.051*%
%ADD201R,0.018X0.057*%
%ADD202R,0.014X0.069*%
%ADD203R,0.016X0.020*%
%ADD204R,0.232X0.193*%
%ADD205R,0.020X0.016*%
%ADD206O,0.018X0.063*%
%ADD207R,0.018X0.063*%
%ADD208C,0.134*%
%ADD209C,0.054*%
%ADD210C,0.043*%
%ADD211R,0.043X0.043*%
%ADD212C,0.063*%
%ADD213R,0.063X0.063*%
%ADD214R,0.095X0.095*%
%ADD215C,0.095*%
%ADD216C,0.064*%
%ADD217R,0.063X0.063*%
%ADD218C,0.069*%
%ADD219R,0.064X0.064*%
%ADD220C,0.072*%
%ADD221R,0.063X0.063*%
%ADD222C,0.063*%
%ADD223R,0.104X0.054*%
%ADD224O,0.104X0.054*%
%ADD225C,0.154*%
%ADD226C,0.102*%
%ADD227C,0.087*%
%ADD228C,0.086*%
%ADD229C,0.071*%
%ADD230R,0.071X0.071*%
%ADD231C,0.191*%
%ADD232O,0.054X0.104*%
%ADD233R,0.054X0.104*%
%ADD234C,0.148*%
%ADD235C,0.059*%
%ADD236R,0.067X0.075*%
%ADD237R,0.075X0.067*%
%ADD238R,0.043X0.024*%
%ADD239R,0.043X0.014*%
D84*
X13185Y6000D02*
Y12300D01*
X3999Y6000D02*
Y12299D01*
Y6000D02*
X13185D01*
X4575Y12150D02*
Y12299D01*
Y12150D02*
X6200D01*
Y12300D01*
X9350Y12150D02*
Y12300D01*
Y12150D02*
X10975D01*
Y12300D01*
X3999Y12299D02*
X4574D01*
X6200Y12300D02*
X9349D01*
X10975D02*
X13185D01*
D89*
X12888Y12453D02*
X12886Y12451D01*
X12888Y12449D01*
X12890Y12451D01*
X12888Y12453D01*
X12927Y12479D02*
X12925Y12483D01*
X12921Y12487D01*
X12918Y12489D01*
X12910D01*
X12906Y12487D01*
X12902Y12483D01*
X12900Y12479D01*
X12899Y12474D01*
Y12464D01*
X12900Y12459D01*
X12902Y12455D01*
X12906Y12451D01*
X12910Y12449D01*
X12918D01*
X12921Y12451D01*
X12925Y12455D01*
X12927Y12459D01*
Y12464D01*
X12918D02*
X12927D01*
X12936Y12489D02*
Y12449D01*
Y12489D02*
X12953D01*
X12959Y12487D01*
X12961Y12485D01*
X12963Y12481D01*
Y12478D01*
X12961Y12474D01*
X12959Y12472D01*
X12953Y12470D01*
X12936D02*
X12953D01*
X12959Y12468D01*
X12961Y12466D01*
X12963Y12462D01*
Y12457D01*
X12961Y12453D01*
X12959Y12451D01*
X12953Y12449D01*
X12936D01*
X12999Y12483D02*
X12995Y12487D01*
X12989Y12489D01*
X12981D01*
X12976Y12487D01*
X12972Y12483D01*
Y12479D01*
X12974Y12476D01*
X12976Y12474D01*
X12980Y12472D01*
X12991Y12468D01*
X12995Y12466D01*
X12997Y12464D01*
X12999Y12460D01*
Y12455D01*
X12995Y12451D01*
X12989Y12449D01*
X12981D01*
X12976Y12451D01*
X12972Y12455D01*
D137*
X12743Y6505D02*
D03*
Y6571D02*
D03*
X8972Y8251D02*
D03*
Y8185D02*
D03*
X11063Y8562D02*
D03*
Y8496D02*
D03*
X8580Y6993D02*
D03*
Y6927D02*
D03*
X7295Y7227D02*
D03*
Y7160D02*
D03*
X7370Y7104D02*
D03*
Y7037D02*
D03*
X7264Y6887D02*
D03*
Y6954D02*
D03*
X7295Y7037D02*
D03*
Y7104D02*
D03*
X10005Y7219D02*
D03*
Y7152D02*
D03*
X10080Y7096D02*
D03*
Y7029D02*
D03*
X9974Y6879D02*
D03*
Y6946D02*
D03*
X10005Y7029D02*
D03*
Y7096D02*
D03*
X6108Y6929D02*
D03*
Y6995D02*
D03*
X6022Y8964D02*
D03*
Y9030D02*
D03*
X6202Y8799D02*
D03*
Y8733D02*
D03*
X6020Y9173D02*
D03*
Y9107D02*
D03*
X11180Y9170D02*
D03*
Y9104D02*
D03*
X12541Y6641D02*
D03*
Y6708D02*
D03*
X9824Y9255D02*
D03*
Y9321D02*
D03*
X10018Y9088D02*
D03*
Y9022D02*
D03*
X9824Y9088D02*
D03*
Y9022D02*
D03*
X9646Y9088D02*
D03*
Y9022D02*
D03*
X9835Y7977D02*
D03*
Y8043D02*
D03*
X8967Y8009D02*
D03*
Y8075D02*
D03*
X8917Y8009D02*
D03*
Y8075D02*
D03*
X8817Y8009D02*
D03*
Y8075D02*
D03*
X8402Y8007D02*
D03*
Y8073D02*
D03*
X8352Y8007D02*
D03*
Y8073D02*
D03*
X8300Y8007D02*
D03*
Y8073D02*
D03*
X8222Y8007D02*
D03*
Y8073D02*
D03*
X7864Y7986D02*
D03*
Y8052D02*
D03*
X8580Y8893D02*
D03*
Y8827D02*
D03*
X9024Y9592D02*
D03*
Y9526D02*
D03*
X8830Y9593D02*
D03*
Y9527D02*
D03*
X8780Y9593D02*
D03*
Y9527D02*
D03*
X8692Y9593D02*
D03*
Y9527D02*
D03*
X8365Y9645D02*
D03*
Y9579D02*
D03*
X7726Y9611D02*
D03*
Y9545D02*
D03*
X8504Y9591D02*
D03*
Y9525D02*
D03*
X7938Y9583D02*
D03*
Y9517D02*
D03*
X11494Y6929D02*
D03*
Y6996D02*
D03*
X12084Y6989D02*
D03*
Y7056D02*
D03*
X6139Y7202D02*
D03*
Y7268D02*
D03*
X6214Y7079D02*
D03*
Y7145D02*
D03*
X6139D02*
D03*
Y7079D02*
D03*
X9858Y8520D02*
D03*
Y8586D02*
D03*
X10016Y8423D02*
D03*
Y8357D02*
D03*
X9824Y8377D02*
D03*
Y8311D02*
D03*
X9646Y8383D02*
D03*
Y8317D02*
D03*
X10055Y9255D02*
D03*
Y9321D02*
D03*
Y8518D02*
D03*
Y8584D02*
D03*
X8108Y9352D02*
D03*
Y9286D02*
D03*
X9020Y8009D02*
D03*
Y8075D02*
D03*
X8580Y9033D02*
D03*
Y8967D02*
D03*
X7617Y8970D02*
D03*
Y9036D02*
D03*
X8727Y8013D02*
D03*
Y8079D02*
D03*
X8130Y8011D02*
D03*
Y8077D02*
D03*
X8538Y9729D02*
D03*
Y9663D02*
D03*
X8102Y9580D02*
D03*
Y9514D02*
D03*
X11258Y9284D02*
D03*
Y9350D02*
D03*
X11361Y9484D02*
D03*
Y9418D02*
D03*
X11159Y9457D02*
D03*
Y9391D02*
D03*
X11431Y9200D02*
D03*
Y9266D02*
D03*
X11180Y8907D02*
D03*
Y8973D02*
D03*
X6834Y9165D02*
D03*
Y9099D02*
D03*
X6100Y8387D02*
D03*
Y8453D02*
D03*
X6834Y8556D02*
D03*
Y8622D02*
D03*
X6801Y8903D02*
D03*
Y8837D02*
D03*
X6491Y9163D02*
D03*
Y9097D02*
D03*
X6192Y8552D02*
D03*
Y8618D02*
D03*
X6648Y8556D02*
D03*
Y8622D02*
D03*
Y9164D02*
D03*
Y9098D02*
D03*
D138*
X12952Y11614D02*
D03*
X12975Y7380D02*
D03*
X4137Y6549D02*
D03*
D142*
X12281Y6678D02*
D03*
X12347D02*
D03*
X8948Y8325D02*
D03*
X9014D02*
D03*
X9817Y8812D02*
D03*
X9883D02*
D03*
X9779Y9531D02*
D03*
X9713D02*
D03*
X7165Y7235D02*
D03*
X7232D02*
D03*
X7454Y6985D02*
D03*
X7387D02*
D03*
X7387Y6932D02*
D03*
X7454D02*
D03*
X9874Y7227D02*
D03*
X9941D02*
D03*
X10163Y6977D02*
D03*
X10096D02*
D03*
X10096Y6924D02*
D03*
X10163D02*
D03*
X6231Y6973D02*
D03*
X6297D02*
D03*
X6297Y7026D02*
D03*
X6231D02*
D03*
X10397Y7993D02*
D03*
X10331D02*
D03*
X9977Y9550D02*
D03*
X10043D02*
D03*
X9697Y8812D02*
D03*
X9631D02*
D03*
X5983Y8837D02*
D03*
X6049D02*
D03*
X5983Y8737D02*
D03*
X6049D02*
D03*
X9437Y11021D02*
D03*
X9371D02*
D03*
X9821Y11023D02*
D03*
X9755D02*
D03*
X12532Y8204D02*
D03*
X12598D02*
D03*
X10201Y7992D02*
D03*
X10135D02*
D03*
X10353Y9550D02*
D03*
X10287D02*
D03*
X11171Y7150D02*
D03*
X11105D02*
D03*
X6075Y7276D02*
D03*
X6009D02*
D03*
X8899Y9390D02*
D03*
X8833D02*
D03*
X8075Y9232D02*
D03*
X8141D02*
D03*
X9295Y8017D02*
D03*
X9361D02*
D03*
X9295Y8068D02*
D03*
X9361D02*
D03*
X8713Y8800D02*
D03*
X8647D02*
D03*
X9390Y8320D02*
D03*
X9324D02*
D03*
X9391Y8487D02*
D03*
X9325D02*
D03*
X9391Y8437D02*
D03*
X9325D02*
D03*
X7783Y8362D02*
D03*
X7849D02*
D03*
X9390Y9108D02*
D03*
X9324D02*
D03*
X9363Y9206D02*
D03*
X9297D02*
D03*
X7783Y8790D02*
D03*
X7849D02*
D03*
X7730Y9396D02*
D03*
X7796D02*
D03*
X9366Y8211D02*
D03*
X9300D02*
D03*
X9366Y8262D02*
D03*
X9300D02*
D03*
X9392Y8371D02*
D03*
X9326D02*
D03*
X9352Y9348D02*
D03*
X9286D02*
D03*
X9352Y9398D02*
D03*
X9286D02*
D03*
X9353Y9449D02*
D03*
X9287D02*
D03*
X7794Y8184D02*
D03*
X7860D02*
D03*
X7794Y8235D02*
D03*
X7860D02*
D03*
X7783Y8412D02*
D03*
X7849D02*
D03*
X7730Y9208D02*
D03*
X7796D02*
D03*
X7730Y9296D02*
D03*
X7796D02*
D03*
X7730Y9346D02*
D03*
X7796D02*
D03*
X11706Y9093D02*
D03*
X11640D02*
D03*
X10851Y9374D02*
D03*
X10917D02*
D03*
X9792Y10040D02*
D03*
X9726D02*
D03*
X6293Y9168D02*
D03*
X6227D02*
D03*
X6202Y8873D02*
D03*
X6268D02*
D03*
D144*
X11702Y6579D02*
D03*
X11721Y6520D02*
D03*
X11702D02*
D03*
X11682D02*
D03*
X11662D02*
D03*
X11643D02*
D03*
X11623D02*
D03*
X11721Y6579D02*
D03*
X11682D02*
D03*
X11662D02*
D03*
X11643D02*
D03*
X11623D02*
D03*
D145*
X11746Y6520D02*
D03*
X11598D02*
D03*
Y6579D02*
D03*
X11746D02*
D03*
D146*
X8980Y9525D02*
D03*
Y9577D02*
D03*
X7772Y9544D02*
D03*
Y9596D02*
D03*
X7779Y8052D02*
D03*
Y8104D02*
D03*
X9150Y9524D02*
D03*
Y9576D02*
D03*
X9247Y7931D02*
D03*
Y7879D02*
D03*
X7811Y9544D02*
D03*
Y9596D02*
D03*
X8580Y8694D02*
D03*
Y8746D02*
D03*
X8581Y8342D02*
D03*
Y8394D02*
D03*
X8082Y8066D02*
D03*
Y8014D02*
D03*
X7817Y8052D02*
D03*
Y8104D02*
D03*
X8736Y9578D02*
D03*
Y9526D02*
D03*
X8226Y8635D02*
D03*
Y8687D02*
D03*
X8857Y8950D02*
D03*
Y9002D02*
D03*
X8343Y8674D02*
D03*
Y8726D02*
D03*
X8867Y7995D02*
D03*
Y8047D02*
D03*
X8921Y8673D02*
D03*
Y8621D02*
D03*
X8855Y8811D02*
D03*
Y8759D02*
D03*
X7817Y7935D02*
D03*
Y7987D02*
D03*
X9131Y9212D02*
D03*
Y9264D02*
D03*
X8580Y9166D02*
D03*
Y9114D02*
D03*
Y9294D02*
D03*
Y9346D02*
D03*
X8107Y9109D02*
D03*
Y9161D02*
D03*
X8150Y9565D02*
D03*
Y9513D02*
D03*
X8305Y9161D02*
D03*
Y9109D02*
D03*
X8780Y8774D02*
D03*
Y8826D02*
D03*
X9013Y9125D02*
D03*
Y9073D02*
D03*
X8580Y9434D02*
D03*
Y9486D02*
D03*
X9268Y8954D02*
D03*
Y9006D02*
D03*
X8181Y8415D02*
D03*
Y8363D02*
D03*
X7950Y8728D02*
D03*
Y8676D02*
D03*
X8263Y8468D02*
D03*
Y8520D02*
D03*
X7950Y8545D02*
D03*
Y8597D02*
D03*
X8423Y8452D02*
D03*
Y8400D02*
D03*
X8175Y8078D02*
D03*
Y8026D02*
D03*
X7990Y8597D02*
D03*
Y8649D02*
D03*
X8580Y8229D02*
D03*
Y8281D02*
D03*
Y8526D02*
D03*
Y8474D02*
D03*
X9170Y8831D02*
D03*
Y8779D02*
D03*
X9248Y8183D02*
D03*
Y8131D02*
D03*
X8771Y8080D02*
D03*
Y8028D02*
D03*
X8029Y9121D02*
D03*
Y9069D02*
D03*
X8581Y8580D02*
D03*
Y8632D02*
D03*
X8738Y9178D02*
D03*
Y9230D02*
D03*
X8736Y8649D02*
D03*
Y8597D02*
D03*
X8737Y9024D02*
D03*
Y9076D02*
D03*
X11511Y9381D02*
D03*
Y9433D02*
D03*
X11300Y9416D02*
D03*
Y9468D02*
D03*
X11414Y9034D02*
D03*
Y8982D02*
D03*
X11373Y9034D02*
D03*
Y8982D02*
D03*
X11213Y9398D02*
D03*
Y9450D02*
D03*
X11306Y9031D02*
D03*
Y8979D02*
D03*
X11484Y9267D02*
D03*
Y9215D02*
D03*
X11110Y9390D02*
D03*
Y9442D02*
D03*
X7779Y7987D02*
D03*
Y7935D02*
D03*
D185*
X8862Y9260D02*
D03*
X8810D02*
D03*
X8106Y8800D02*
D03*
X8054D02*
D03*
X8732Y8919D02*
D03*
X8784D02*
D03*
X8924Y8998D02*
D03*
X8976D02*
D03*
X8434Y8960D02*
D03*
X8486D02*
D03*
X8338Y9037D02*
D03*
X8286D02*
D03*
X8254Y8920D02*
D03*
X8306D02*
D03*
X8417Y8642D02*
D03*
X8469D02*
D03*
X7988Y8799D02*
D03*
X7936D02*
D03*
X9008Y8918D02*
D03*
X8956D02*
D03*
X8224Y8578D02*
D03*
X8276D02*
D03*
X9358Y7931D02*
D03*
X9306D02*
D03*
X8861Y8525D02*
D03*
X8809D02*
D03*
X9358Y7971D02*
D03*
X9306D02*
D03*
X9357Y7892D02*
D03*
X9305D02*
D03*
X9097Y8684D02*
D03*
X9045D02*
D03*
X8846Y8682D02*
D03*
X8794D02*
D03*
X8351Y8403D02*
D03*
X8299D02*
D03*
X8706Y8880D02*
D03*
X8654D02*
D03*
X8307Y8997D02*
D03*
X8255D02*
D03*
X8434Y8800D02*
D03*
X8486D02*
D03*
X7748Y9252D02*
D03*
X7800D02*
D03*
X8508Y9115D02*
D03*
X8456D02*
D03*
X8822Y8879D02*
D03*
X8874D02*
D03*
X8897Y9075D02*
D03*
X8845D02*
D03*
X8923Y8959D02*
D03*
X8975D02*
D03*
X9157Y8918D02*
D03*
X9209D02*
D03*
X9093Y9154D02*
D03*
X9145D02*
D03*
X9129Y9074D02*
D03*
X9077D02*
D03*
X9111Y8800D02*
D03*
X9059D02*
D03*
X8017Y8445D02*
D03*
X8069D02*
D03*
X7864Y8139D02*
D03*
X7916D02*
D03*
X8098Y8485D02*
D03*
X8150D02*
D03*
X9003Y8643D02*
D03*
X9055D02*
D03*
X9087Y8722D02*
D03*
X9139D02*
D03*
X8929Y8800D02*
D03*
X8981D02*
D03*
X9306Y8165D02*
D03*
X9358D02*
D03*
X9306Y8126D02*
D03*
X9358D02*
D03*
X9216Y8682D02*
D03*
X9164D02*
D03*
X8314Y8800D02*
D03*
X8366D02*
D03*
X7898Y8917D02*
D03*
X7950D02*
D03*
X8237Y8800D02*
D03*
X8185D02*
D03*
X7951Y8957D02*
D03*
X7899D02*
D03*
X8967Y9311D02*
D03*
X9019D02*
D03*
X8898Y9154D02*
D03*
X8846D02*
D03*
X9129Y9351D02*
D03*
X9181D02*
D03*
X8779Y8564D02*
D03*
X8831D02*
D03*
X8768Y8445D02*
D03*
X8820D02*
D03*
X8898Y8367D02*
D03*
X8846D02*
D03*
X9132Y8210D02*
D03*
X9080D02*
D03*
X8813Y8288D02*
D03*
X8865D02*
D03*
X8850Y8210D02*
D03*
X8901D02*
D03*
X11655Y9047D02*
D03*
X11707D02*
D03*
X11655Y9138D02*
D03*
X11707D02*
D03*
X11576Y9346D02*
D03*
X11628D02*
D03*
X11160Y9345D02*
D03*
X11108D02*
D03*
X11126Y9000D02*
D03*
X11074D02*
D03*
X11541Y8999D02*
D03*
X11593D02*
D03*
X11587Y9308D02*
D03*
X11639D02*
D03*
X11541Y9045D02*
D03*
X11593D02*
D03*
D208*
X4114Y6890D02*
D03*
Y8228D02*
D03*
Y8780D02*
D03*
Y9843D02*
D03*
Y10738D02*
D03*
X4500Y11630D02*
D03*
Y10557D02*
D03*
X7925Y11630D02*
D03*
X4500Y7630D02*
D03*
X7925D02*
D03*
X9261D02*
D03*
X12686D02*
D03*
X9261Y11630D02*
D03*
X12686D02*
D03*
Y9950D02*
D03*
X4114Y11594D02*
D03*
D209*
X9467Y6109D02*
D03*
X12967D02*
D03*
X4216Y12159D02*
D03*
X12966D02*
D03*
X7717Y6109D02*
D03*
X4217D02*
D03*
D210*
X12876Y8572D02*
D03*
Y8672D02*
D03*
Y8772D02*
D03*
Y8872D02*
D03*
Y8972D02*
D03*
Y9072D02*
D03*
Y9172D02*
D03*
Y8472D02*
D03*
D211*
X12926Y8572D02*
D03*
Y8672D02*
D03*
Y8772D02*
D03*
Y8872D02*
D03*
Y8972D02*
D03*
Y9072D02*
D03*
Y9172D02*
D03*
Y8472D02*
D03*
D212*
X4320Y10360D02*
D03*
Y10260D02*
D03*
X11290Y7074D02*
D03*
X11684Y7063D02*
D03*
X12309Y7102D02*
D03*
X10617Y7053D02*
D03*
X12980Y7720D02*
D03*
Y7820D02*
D03*
Y8140D02*
D03*
Y8040D02*
D03*
X12434Y7102D02*
D03*
X4220Y10940D02*
D03*
X4320Y11040D02*
D03*
X4220D02*
D03*
X4320Y11140D02*
D03*
X4220D02*
D03*
X4320Y11240D02*
D03*
X4220D02*
D03*
X4320Y11340D02*
D03*
X4220D02*
D03*
X4260Y7540D02*
D03*
Y7440D02*
D03*
Y7340D02*
D03*
Y7240D02*
D03*
Y7140D02*
D03*
D213*
X4220Y10360D02*
D03*
Y10260D02*
D03*
D214*
X6089Y11025D02*
D03*
X7269Y10417D02*
D03*
D215*
X6089D02*
D03*
X7269Y11025D02*
D03*
D216*
X9767Y6309D02*
D03*
X11950Y12058D02*
D03*
X12051D02*
D03*
X11967Y6209D02*
D03*
X11767D02*
D03*
X11367D02*
D03*
X11167D02*
D03*
X10967D02*
D03*
X9767D02*
D03*
X9667D02*
D03*
X10867Y6309D02*
D03*
X10567D02*
D03*
X9667D02*
D03*
X11967Y6409D02*
D03*
X9767D02*
D03*
X9667D02*
D03*
X11867Y6209D02*
D03*
X12667Y6309D02*
D03*
X12567D02*
D03*
X12467D02*
D03*
X12367D02*
D03*
X12267D02*
D03*
X12167D02*
D03*
X12067D02*
D03*
X11967D02*
D03*
X11867D02*
D03*
X11767D02*
D03*
X11667D02*
D03*
X11567D02*
D03*
X11467D02*
D03*
X11367D02*
D03*
X11267D02*
D03*
X11167D02*
D03*
X11067D02*
D03*
X10967D02*
D03*
X10467D02*
D03*
X10367D02*
D03*
X10267D02*
D03*
X10167D02*
D03*
X10067D02*
D03*
X9967D02*
D03*
X9867D02*
D03*
X11867Y6409D02*
D03*
X11767D02*
D03*
X11667D02*
D03*
X11567D02*
D03*
X11467D02*
D03*
X11367D02*
D03*
X11267D02*
D03*
X11167D02*
D03*
X11067D02*
D03*
X10967D02*
D03*
X10867D02*
D03*
X10767D02*
D03*
X10667D02*
D03*
X10567D02*
D03*
X10467D02*
D03*
X10367D02*
D03*
X10267D02*
D03*
X10167D02*
D03*
X10067D02*
D03*
X9967D02*
D03*
X9867D02*
D03*
X12667Y6209D02*
D03*
X12567D02*
D03*
X12467D02*
D03*
X12367D02*
D03*
X12267D02*
D03*
X12167D02*
D03*
X12067D02*
D03*
X11667D02*
D03*
X11567D02*
D03*
X11467D02*
D03*
X11267D02*
D03*
X11067D02*
D03*
X10867D02*
D03*
X10767D02*
D03*
X10667D02*
D03*
X10567D02*
D03*
X10467D02*
D03*
X10367D02*
D03*
X10267D02*
D03*
X10167D02*
D03*
X10067D02*
D03*
X9967D02*
D03*
X9867D02*
D03*
X12667Y6409D02*
D03*
X12567D02*
D03*
X12467D02*
D03*
X12367D02*
D03*
X12267D02*
D03*
X12167D02*
D03*
X12067D02*
D03*
X10667Y6309D02*
D03*
X10767D02*
D03*
X12051Y11958D02*
D03*
Y12158D02*
D03*
X11951Y11958D02*
D03*
Y12158D02*
D03*
X11250Y11930D02*
D03*
X11450D02*
D03*
X11400Y11830D02*
D03*
X11350Y11930D02*
D03*
X11500Y11830D02*
D03*
X11550Y11930D02*
D03*
X11600Y11830D02*
D03*
X11650Y11930D02*
D03*
X11300Y11830D02*
D03*
X8814Y11793D02*
D03*
X8764Y11893D02*
D03*
X8714Y11793D02*
D03*
X8664Y11893D02*
D03*
X8514Y11793D02*
D03*
X8564Y11893D02*
D03*
X8614Y11793D02*
D03*
X9231Y11958D02*
D03*
X9131D02*
D03*
X9231Y12058D02*
D03*
Y12158D02*
D03*
X9130Y12058D02*
D03*
X9131Y12158D02*
D03*
X4617Y6309D02*
D03*
X4717D02*
D03*
X4817D02*
D03*
X4917D02*
D03*
X5017D02*
D03*
X5117D02*
D03*
X5217D02*
D03*
X5317D02*
D03*
X5517D02*
D03*
X5617D02*
D03*
X5717D02*
D03*
X5817D02*
D03*
X5917D02*
D03*
X6017D02*
D03*
X6117D02*
D03*
X6217D02*
D03*
X6517D02*
D03*
X6617D02*
D03*
X6717D02*
D03*
X6817D02*
D03*
X6917D02*
D03*
X7017D02*
D03*
X7217D02*
D03*
X7317D02*
D03*
X7017Y6409D02*
D03*
X7117D02*
D03*
X7217D02*
D03*
X7317D02*
D03*
X7417D02*
D03*
X4417Y6309D02*
D03*
X4517D02*
D03*
X5417D02*
D03*
X6317D02*
D03*
X6417D02*
D03*
X7417D02*
D03*
X5117Y6409D02*
D03*
X5217D02*
D03*
X5317D02*
D03*
X5417D02*
D03*
X5517D02*
D03*
X5617D02*
D03*
X5717D02*
D03*
X5817D02*
D03*
X5917D02*
D03*
X6017D02*
D03*
X6117D02*
D03*
X6217D02*
D03*
X6317D02*
D03*
X6417D02*
D03*
X6517D02*
D03*
X6617D02*
D03*
X6717D02*
D03*
X6817D02*
D03*
X6917D02*
D03*
X7117Y6309D02*
D03*
X4817Y6409D02*
D03*
X4917D02*
D03*
X5017D02*
D03*
X4717D02*
D03*
X4617D02*
D03*
X4517D02*
D03*
X4417D02*
D03*
Y6209D02*
D03*
X4517D02*
D03*
X4617D02*
D03*
X4717D02*
D03*
X4817D02*
D03*
X4917D02*
D03*
X5017D02*
D03*
X5117D02*
D03*
X5217D02*
D03*
X5317D02*
D03*
X5417D02*
D03*
X5517D02*
D03*
X5617D02*
D03*
X5717D02*
D03*
X5817D02*
D03*
X5917D02*
D03*
X6017D02*
D03*
X6117D02*
D03*
X6217D02*
D03*
X6317D02*
D03*
X6417D02*
D03*
X6517D02*
D03*
X6617D02*
D03*
X6717D02*
D03*
X6817D02*
D03*
X6917D02*
D03*
X7017D02*
D03*
X7117D02*
D03*
X7217D02*
D03*
X7317D02*
D03*
X7417D02*
D03*
D217*
X11290Y6974D02*
D03*
X11684Y6963D02*
D03*
X12309Y7002D02*
D03*
X10617Y6953D02*
D03*
X12980Y7920D02*
D03*
X12954Y11216D02*
D03*
X12831Y7422D02*
D03*
X12980Y8240D02*
D03*
X12434Y7002D02*
D03*
X4320Y10940D02*
D03*
X4260Y7040D02*
D03*
D218*
X9189Y7391D02*
D03*
Y6691D02*
D03*
X7970Y7370D02*
D03*
Y6670D02*
D03*
D219*
X12767Y6309D02*
D03*
Y6209D02*
D03*
Y6409D02*
D03*
X11700Y11830D02*
D03*
X8864Y11893D02*
D03*
X7517Y6409D02*
D03*
Y6309D02*
D03*
Y6209D02*
D03*
D220*
X7807Y7629D02*
D03*
X6453D02*
D03*
X6367D02*
D03*
X4619D02*
D03*
X9379D02*
D03*
X11127D02*
D03*
X11213D02*
D03*
X12567D02*
D03*
D221*
X9190Y6132D02*
D03*
X7971Y6131D02*
D03*
D222*
X9190Y6363D02*
D03*
X7228Y9997D02*
D03*
Y10228D02*
D03*
X6105Y9846D02*
D03*
Y10077D02*
D03*
X7971Y6362D02*
D03*
D223*
X10789Y7053D02*
D03*
D224*
Y6753D02*
D03*
X11089Y7053D02*
D03*
Y6753D02*
D03*
D225*
X11250Y12180D02*
D03*
X11700D02*
D03*
X8914Y12143D02*
D03*
X8464D02*
D03*
D226*
X11780Y12060D02*
D03*
X11170D02*
D03*
X8994Y12023D02*
D03*
X8384D02*
D03*
D227*
X8310Y6200D02*
D03*
X8510D02*
D03*
X8410D02*
D03*
X8610D02*
D03*
X8710D02*
D03*
X8810D02*
D03*
D228*
X12671Y12197D02*
D03*
X12471D02*
D03*
Y11997D02*
D03*
X12671D02*
D03*
D229*
X7686Y11925D02*
D03*
X7741Y12037D02*
D03*
X7904Y11925D02*
D03*
X7849Y12037D02*
D03*
X7795Y11925D02*
D03*
X7632Y12037D02*
D03*
X7578Y11925D02*
D03*
X7523Y12037D02*
D03*
X7469Y11925D02*
D03*
X7415Y12037D02*
D03*
X7360Y11925D02*
D03*
X7306Y12037D02*
D03*
X7251Y11925D02*
D03*
X7197Y12037D02*
D03*
X7143Y11925D02*
D03*
X7088Y12037D02*
D03*
X7034Y11925D02*
D03*
X6980Y12037D02*
D03*
X6925Y11925D02*
D03*
X6871Y12037D02*
D03*
X6817Y11925D02*
D03*
X6762Y12037D02*
D03*
X6708Y11925D02*
D03*
X6654Y12037D02*
D03*
D230*
X6599Y11925D02*
D03*
D231*
X6325Y11981D02*
D03*
X8178D02*
D03*
D232*
X8460Y7650D02*
D03*
X8160D02*
D03*
X8460Y7350D02*
D03*
D233*
X8160D02*
D03*
D234*
X5765Y9691D02*
D03*
X5765Y8109D02*
D03*
D235*
X5647D02*
D03*
Y9691D02*
D03*
D236*
X9289Y9525D02*
D03*
X9399D02*
D03*
X9325Y9041D02*
D03*
X9435D02*
D03*
X9325Y8960D02*
D03*
X9435D02*
D03*
X9325Y8877D02*
D03*
X9435D02*
D03*
X9325Y8720D02*
D03*
X9435D02*
D03*
X9325Y8638D02*
D03*
X9435D02*
D03*
X7797Y9059D02*
D03*
X7687D02*
D03*
X7797Y8974D02*
D03*
X7687D02*
D03*
X7850Y8723D02*
D03*
X7740D02*
D03*
X7850Y8641D02*
D03*
X7740D02*
D03*
X7850Y8560D02*
D03*
X7740D02*
D03*
X9297Y9274D02*
D03*
X9407D02*
D03*
X9325Y8554D02*
D03*
X9435D02*
D03*
X7796Y9141D02*
D03*
X7686D02*
D03*
X7850Y8478D02*
D03*
X7740D02*
D03*
X7841Y9466D02*
D03*
X7731D02*
D03*
X8727Y7915D02*
D03*
X8837D02*
D03*
X7850Y8856D02*
D03*
X7740D02*
D03*
D237*
X8261Y7927D02*
D03*
Y7817D02*
D03*
X8698Y9674D02*
D03*
Y9784D02*
D03*
X8438Y9525D02*
D03*
Y9635D02*
D03*
X8294Y9526D02*
D03*
Y9636D02*
D03*
X9182Y8065D02*
D03*
Y7955D02*
D03*
X9088Y8065D02*
D03*
Y7955D02*
D03*
X8020Y8065D02*
D03*
Y7955D02*
D03*
X7936Y8065D02*
D03*
Y7955D02*
D03*
X9210Y9525D02*
D03*
Y9635D02*
D03*
X9090Y9525D02*
D03*
Y9635D02*
D03*
X8004Y9527D02*
D03*
Y9637D02*
D03*
X7871Y9545D02*
D03*
Y9655D02*
D03*
X8213Y9527D02*
D03*
Y9637D02*
D03*
X8792Y9751D02*
D03*
Y9861D02*
D03*
X8605Y9562D02*
D03*
Y9672D02*
D03*
X8620Y8074D02*
D03*
Y7964D02*
D03*
X8437Y9710D02*
D03*
Y9820D02*
D03*
X8500Y8075D02*
D03*
Y7965D02*
D03*
X9447Y8039D02*
D03*
Y8149D02*
D03*
X8897Y9523D02*
D03*
Y9633D02*
D03*
X8343Y7817D02*
D03*
Y7927D02*
D03*
D238*
X12799Y8903D02*
D03*
Y8755D02*
D03*
X12740Y8903D02*
D03*
Y8755D02*
D03*
D239*
X12799Y8878D02*
D03*
Y8858D02*
D03*
Y8839D02*
D03*
Y8819D02*
D03*
Y8799D02*
D03*
Y8780D02*
D03*
X12740Y8878D02*
D03*
Y8858D02*
D03*
Y8839D02*
D03*
Y8819D02*
D03*
Y8799D02*
D03*
Y8780D02*
D03*
M02*
