%FSLAX23Y23*%
%MOIN*%
G70*
G01*
G75*
G04 Layer_Physical_Order=13*
G04 Layer_Color=65535*
%ADD10C,0.010*%
%ADD11R,0.039X0.043*%
%ADD12C,0.040*%
%ADD13R,0.102X0.087*%
%ADD14R,0.087X0.102*%
%ADD15R,0.024X0.094*%
%ADD16R,0.043X0.039*%
%ADD17R,0.039X0.043*%
%ADD18R,0.010X0.039*%
%ADD19R,0.020X0.039*%
%ADD20R,0.028X0.035*%
%ADD21R,0.106X0.063*%
%ADD22R,0.157X0.138*%
%ADD23R,0.041X0.083*%
%ADD24R,0.413X0.406*%
%ADD25R,0.051X0.063*%
%ADD26R,0.033X0.039*%
%ADD27O,0.016X0.063*%
%ADD28R,0.134X0.085*%
%ADD29R,0.041X0.085*%
%ADD30R,0.033X0.039*%
%ADD31R,0.041X0.085*%
%ADD32R,0.026X0.075*%
%ADD33R,0.138X0.079*%
%ADD34R,0.047X0.039*%
%ADD35R,0.134X0.075*%
%ADD36R,0.138X0.157*%
%ADD37R,0.079X0.138*%
%ADD38R,0.016X0.063*%
%ADD39R,0.063X0.051*%
%ADD40R,0.063X0.106*%
%ADD41R,0.014X0.053*%
%ADD42O,0.250X0.080*%
%ADD43R,0.124X0.202*%
%ADD44O,0.031X0.010*%
%ADD45R,0.031X0.010*%
%ADD46R,0.010X0.031*%
%ADD47O,0.080X0.250*%
%ADD48R,0.024X0.087*%
%ADD49R,0.024X0.087*%
%ADD50C,0.020*%
%ADD51R,0.039X0.047*%
%ADD52R,0.018X0.081*%
%ADD53R,0.047X0.102*%
%ADD54R,0.081X0.018*%
%ADD55R,0.047X0.043*%
%ADD56R,0.047X0.043*%
%ADD57R,0.059X0.020*%
%ADD58R,0.059X0.020*%
%ADD59R,0.035X0.028*%
%ADD60R,0.083X0.041*%
%ADD61R,0.406X0.413*%
%ADD62R,0.039X0.033*%
%ADD63R,0.039X0.033*%
%ADD64R,0.059X0.014*%
%ADD65R,0.087X0.024*%
%ADD66R,0.012X0.065*%
%ADD67R,0.087X0.024*%
%ADD68R,0.049X0.015*%
%ADD69R,0.213X0.118*%
%ADD70R,0.138X0.016*%
%ADD71R,0.057X0.022*%
%ADD72R,0.012X0.063*%
%ADD73R,0.063X0.012*%
%ADD74R,0.102X0.047*%
%ADD75R,0.014X0.053*%
%ADD76R,0.010X0.065*%
%ADD77R,0.012X0.016*%
%ADD78R,0.228X0.189*%
%ADD79R,0.016X0.012*%
%ADD80O,0.014X0.059*%
%ADD81R,0.014X0.059*%
%ADD82C,0.005*%
%ADD83C,0.008*%
%ADD84C,0.020*%
%ADD85C,0.004*%
%ADD86C,0.012*%
%ADD87C,0.006*%
%ADD88C,0.015*%
%ADD89C,0.009*%
%ADD90C,0.130*%
%ADD91C,0.050*%
%ADD92C,0.039*%
%ADD93R,0.039X0.039*%
%ADD94C,0.059*%
%ADD95R,0.059X0.059*%
%ADD96R,0.091X0.091*%
%ADD97C,0.091*%
%ADD98C,0.060*%
%ADD99R,0.059X0.059*%
%ADD100C,0.065*%
%ADD101R,0.060X0.060*%
%ADD102C,0.068*%
%ADD103R,0.059X0.059*%
%ADD104C,0.059*%
%ADD105R,0.100X0.050*%
%ADD106O,0.100X0.050*%
%ADD107C,0.150*%
%ADD108C,0.098*%
%ADD109C,0.083*%
%ADD110C,0.082*%
%ADD111C,0.067*%
%ADD112R,0.067X0.067*%
%ADD113C,0.187*%
%ADD114O,0.050X0.100*%
%ADD115R,0.050X0.100*%
%ADD116C,0.144*%
%ADD117C,0.055*%
%ADD118C,0.016*%
%ADD119C,0.036*%
%ADD120C,0.160*%
%ADD121C,0.020*%
%ADD122C,0.030*%
D82*
X12005Y11926D02*
Y12020D01*
X11170Y9578D02*
X11202Y9609D01*
X11950Y12060D02*
X11965D01*
X11171Y9115D02*
Y9579D01*
X11965Y12060D02*
X12005Y12020D01*
X11764Y8862D02*
Y9655D01*
X11742Y9676D02*
X11764Y9655D01*
X11752Y8860D02*
Y9619D01*
X11696Y9675D02*
X11752Y9619D01*
X11682Y9675D02*
X11696D01*
X11740Y8858D02*
Y9597D01*
X11701Y9637D02*
X11740Y9597D01*
X11685Y9637D02*
X11701D01*
X11665Y9657D02*
X11685Y9637D01*
X11665Y9657D02*
Y9660D01*
X11641Y9660D02*
X11670Y9631D01*
X11728Y8855D02*
Y9549D01*
X11670Y9607D02*
X11728Y9549D01*
X11670Y9607D02*
Y9631D01*
X11519Y10218D02*
X11541Y10195D01*
Y9761D02*
Y10195D01*
X11519Y9738D02*
X11541Y9761D01*
X11519Y9668D02*
Y9738D01*
X11268Y10156D02*
X11428D01*
X11485Y9736D02*
X11523Y9774D01*
Y10061D01*
X11428Y10156D02*
X11523Y10061D01*
X11228Y10116D02*
X11268Y10156D01*
X11228Y9727D02*
Y10116D01*
Y9727D02*
X11251Y9705D01*
X11252D01*
X11212Y9721D02*
X11251Y9682D01*
X11212Y9721D02*
Y10180D01*
X11235Y10204D01*
Y10204D01*
X11511Y9808D02*
Y9875D01*
X11399Y9987D02*
Y10059D01*
Y9987D02*
X11511Y9875D01*
X11356Y10102D02*
X11378Y10124D01*
X11356Y10004D02*
Y10102D01*
Y10004D02*
X11500Y9860D01*
Y9811D02*
Y9860D01*
X11323Y9602D02*
Y9787D01*
X11483Y9821D02*
Y9832D01*
X11465Y9850D02*
X11483Y9832D01*
X11386Y9850D02*
X11465D01*
X11323Y9787D02*
X11386Y9850D01*
X11342Y9790D02*
X11391Y9839D01*
X11342Y9605D02*
Y9790D01*
X11445Y9839D02*
X11462Y9822D01*
X11391Y9839D02*
X11445D01*
X11398Y9695D02*
X11511Y9808D01*
X11398Y9463D02*
Y9695D01*
X11388Y9699D02*
X11500Y9811D01*
X11388Y9393D02*
Y9699D01*
X11319Y7785D02*
Y7787D01*
X11313Y9612D02*
Y9687D01*
X11299Y9598D02*
X11313Y9612D01*
X11299Y9114D02*
Y9598D01*
X11319Y7628D02*
Y7653D01*
X12225Y7342D02*
X12228Y7339D01*
Y6850D02*
Y7339D01*
X11787Y6831D02*
X11941Y6677D01*
X11787Y6831D02*
Y7161D01*
X11756Y7193D02*
X11787Y7161D01*
X11756Y7193D02*
Y7421D01*
X8869Y7736D02*
X8914Y7781D01*
Y8341D01*
X8892Y8363D02*
X8914Y8341D01*
X8874Y8363D02*
X8892D01*
X8798Y8439D02*
X8874Y8363D01*
X8798Y8439D02*
Y9243D01*
X8816Y9261D01*
Y9313D01*
X8871Y7510D02*
X8906Y7544D01*
Y7633D01*
X8845Y7694D02*
X8906Y7633D01*
X8845Y7694D02*
Y8215D01*
X8877Y8247D01*
Y8333D01*
X8863Y8346D02*
X8877Y8333D01*
X8801Y8346D02*
X8863D01*
X8777Y8322D02*
X8801Y8346D01*
X8777Y8288D02*
Y8322D01*
X8763Y6579D02*
Y7433D01*
X8891Y7561D01*
Y7634D01*
X8835Y7690D02*
X8891Y7634D01*
X8835Y7690D02*
Y8307D01*
X8855Y8328D01*
Y8328D01*
X10351Y7790D02*
X10351Y7790D01*
X10351Y7790D02*
Y7790D01*
X10611Y7800D02*
X10714Y7903D01*
X10611Y7621D02*
Y7800D01*
X10595Y7855D02*
X10606Y7844D01*
X10595Y7855D02*
Y8622D01*
X10728Y6634D02*
Y7504D01*
X10611Y7621D02*
X10728Y7504D01*
X10595Y8622D02*
X10614Y8642D01*
Y9156D01*
X11386Y6823D02*
Y6976D01*
X11675Y8763D02*
Y8949D01*
X11634Y8721D02*
X11675Y8763D01*
X11634Y7673D02*
Y8721D01*
X11614Y7654D02*
X11634Y7673D01*
X11614Y7205D02*
Y7654D01*
X11386Y6976D02*
X11614Y7205D01*
X11715Y7850D02*
Y8717D01*
X11653Y7788D02*
X11715Y7850D01*
X11653Y7610D02*
Y7788D01*
Y7610D02*
X11723Y7539D01*
Y6918D02*
Y7539D01*
X11677Y6872D02*
X11723Y6918D01*
X11677Y6681D02*
Y6872D01*
X11386Y6823D02*
X11386D01*
X9918Y7791D02*
X9918D01*
X9879Y7628D02*
Y7653D01*
X11170Y7627D02*
Y8223D01*
X11168Y7625D02*
X11170Y7627D01*
X11168Y7589D02*
Y7625D01*
Y7589D02*
X11181Y7576D01*
Y6708D02*
Y7576D01*
Y6708D02*
X11201Y6688D01*
Y6663D02*
Y6688D01*
X11118Y8144D02*
X11141Y8166D01*
X11118Y7749D02*
Y8144D01*
X11095Y7726D02*
X11118Y7749D01*
X11095Y7657D02*
Y7726D01*
X11082Y7643D02*
X11095Y7657D01*
X11082Y7605D02*
Y7643D01*
Y7605D02*
X11170Y7517D01*
Y6724D02*
Y7517D01*
X11040Y7152D02*
Y7582D01*
X11126Y9070D02*
X11171Y9115D01*
X11126Y8535D02*
Y9070D01*
X11106Y8516D02*
X11126Y8535D01*
X11106Y7751D02*
Y8516D01*
X11085Y7730D02*
X11106Y7751D01*
X11085Y7660D02*
Y7730D01*
X11072Y7647D02*
X11085Y7660D01*
X11072Y7613D02*
Y7647D01*
X11040Y7582D02*
X11072Y7613D01*
X11161Y6716D02*
X11170Y6724D01*
X11161Y6663D02*
Y6716D01*
X8812Y6661D02*
X8854Y6704D01*
Y7330D01*
X8821Y7363D02*
X8854Y7330D01*
X9092Y6456D02*
Y6587D01*
X9112Y6607D01*
Y7629D01*
X8979Y7763D02*
X9112Y7629D01*
X8979Y7763D02*
Y8186D01*
X9012Y8220D01*
Y8250D01*
X10592Y9463D02*
Y9685D01*
Y9463D02*
X10648Y9406D01*
Y9173D02*
Y9406D01*
Y9173D02*
X10714Y9107D01*
Y7903D02*
Y9107D01*
X10669Y9180D02*
Y9655D01*
X10627Y7628D02*
Y7653D01*
X10681Y9182D02*
Y9675D01*
X8934Y8209D02*
X8935D01*
X10272Y6618D02*
Y6658D01*
X10213Y6717D02*
X10272Y6658D01*
X10213Y6717D02*
Y8031D01*
X10236Y8054D01*
Y8067D01*
X10165Y6681D02*
X10177Y6693D01*
Y7653D01*
X10203Y7678D01*
Y8066D01*
X8764Y7821D02*
Y8136D01*
X8609Y6627D02*
Y7267D01*
X8648Y7305D01*
Y7705D01*
X8764Y7821D01*
X8814Y8161D02*
Y8172D01*
X8697Y7655D02*
X8781Y7739D01*
Y8128D01*
X8814Y8161D01*
X8759Y8201D02*
Y8388D01*
X8764Y8136D02*
X8792Y8164D01*
Y8180D01*
X8783Y8189D02*
X8792Y8180D01*
X8771Y8189D02*
X8783D01*
X8759Y8201D02*
X8771Y8189D01*
X8759Y8388D02*
X8777Y8406D01*
Y8406D01*
X8871Y6658D02*
Y7510D01*
X10154Y7628D02*
Y7654D01*
X12728Y8977D02*
Y9370D01*
X12732Y7505D02*
X12800Y7573D01*
Y8906D01*
X12728Y8977D02*
X12800Y8906D01*
X12713Y6606D02*
Y7105D01*
X12677Y7141D02*
X12713Y7105D01*
X12677Y7141D02*
Y7157D01*
X12683Y7164D01*
Y7489D01*
X12789Y7595D01*
Y8823D01*
X12697Y8916D02*
X12789Y8823D01*
X12697Y8916D02*
Y9320D01*
X12721Y7807D02*
Y8834D01*
X12637Y8918D02*
X12721Y8834D01*
X12637Y8918D02*
Y9386D01*
X12732Y6628D02*
Y7505D01*
X7765Y6856D02*
Y7742D01*
X7883Y7861D01*
Y8303D01*
X7908Y8328D01*
X7912D01*
X7850Y6838D02*
Y7671D01*
X7789Y7732D02*
X7850Y7671D01*
X7789Y7732D02*
Y7753D01*
X7894Y7857D01*
Y8273D01*
X7950Y8329D01*
X7952D01*
X9003Y6788D02*
Y7615D01*
X8957Y7661D02*
X9003Y7615D01*
X8957Y7661D02*
Y8187D01*
X8935Y8209D02*
X8957Y8187D01*
X9094Y6723D02*
Y7522D01*
X9072Y6664D02*
Y7636D01*
X9023Y6623D02*
X9033Y6633D01*
Y7624D01*
X9485Y8890D02*
Y10738D01*
X9487Y11686D02*
X9633D01*
X9887Y11432D01*
Y11140D02*
Y11432D01*
X9485Y10738D02*
X9887Y11140D01*
X9485Y8890D02*
X9527Y8848D01*
Y7618D02*
Y8848D01*
X9387Y7478D02*
X9527Y7618D01*
X9387Y7239D02*
Y7478D01*
X9360Y7213D02*
X9387Y7239D01*
X9360Y7074D02*
Y7213D01*
X8051Y7822D02*
Y8231D01*
X8069Y8249D01*
Y8250D01*
X6894Y8287D02*
Y8327D01*
Y8287D02*
X6952Y8229D01*
Y7863D02*
Y8229D01*
X6893Y7804D02*
X6952Y7863D01*
X6893Y7701D02*
Y7804D01*
X6913Y8291D02*
X6962Y8243D01*
Y7858D02*
Y8243D01*
X6913Y7809D02*
X6962Y7858D01*
X6913Y7800D02*
Y7809D01*
X6933Y8286D02*
Y8327D01*
Y8286D02*
X6972Y8247D01*
Y7841D02*
Y8247D01*
X6933Y7802D02*
X6972Y7841D01*
X6933Y7699D02*
Y7802D01*
X6953Y8291D02*
X6982Y8262D01*
Y7836D02*
Y8262D01*
X6953Y7807D02*
X6982Y7836D01*
X6953Y7799D02*
Y7807D01*
X6972Y8288D02*
Y8327D01*
Y8288D02*
X6992Y8269D01*
Y7832D02*
Y8269D01*
X6973Y7813D02*
X6992Y7832D01*
X6973Y7698D02*
Y7813D01*
X6992Y8291D02*
X7002Y8281D01*
Y7827D02*
Y8281D01*
X6992Y7817D02*
X7002Y7827D01*
X6992Y7800D02*
Y7817D01*
X7130Y8288D02*
Y8327D01*
X7081Y8240D02*
X7130Y8288D01*
X7081Y7852D02*
Y8240D01*
Y7852D02*
X7130Y7803D01*
Y7698D02*
Y7803D01*
X7071Y8252D02*
X7110Y8291D01*
X7071Y7842D02*
Y8252D01*
Y7842D02*
X7110Y7803D01*
Y7800D02*
Y7803D01*
X7091Y8287D02*
Y8327D01*
X7061Y8258D02*
X7091Y8287D01*
X7061Y7836D02*
Y8258D01*
Y7836D02*
X7091Y7807D01*
Y7696D02*
Y7807D01*
X7051Y8272D02*
X7071Y8291D01*
X7051Y7828D02*
Y8272D01*
Y7828D02*
X7071Y7808D01*
Y7800D02*
Y7808D01*
X7051Y8287D02*
Y8327D01*
X7041Y8278D02*
X7051Y8287D01*
X7041Y7818D02*
Y8278D01*
Y7818D02*
X7051Y7808D01*
Y7699D02*
Y7808D01*
X7429Y8401D02*
Y8445D01*
X7316Y8287D02*
X7429Y8401D01*
X7316Y7965D02*
Y8287D01*
X7150Y7799D02*
X7316Y7965D01*
X7149Y7799D02*
X7150D01*
X7457Y8413D02*
Y8445D01*
X7326Y8283D02*
X7457Y8413D01*
X7326Y7918D02*
Y8283D01*
X7228Y7820D02*
X7326Y7918D01*
X7228Y7800D02*
Y7820D01*
X7480Y8421D02*
Y8445D01*
X7336Y8277D02*
X7480Y8421D01*
X7336Y7885D02*
Y8277D01*
X7268Y7816D02*
X7336Y7885D01*
X7268Y7800D02*
Y7816D01*
X7504Y8430D02*
Y8443D01*
X7346Y8272D02*
X7504Y8430D01*
X7346Y7849D02*
Y8272D01*
X7307Y7810D02*
X7346Y7849D01*
X7307Y7800D02*
Y7810D01*
X7526Y8437D02*
Y8445D01*
X7356Y8267D02*
X7526Y8437D01*
X7356Y7825D02*
Y8267D01*
X7346Y7815D02*
X7356Y7825D01*
X7346Y7800D02*
Y7815D01*
X12616Y8079D02*
Y8766D01*
X12609Y8773D02*
X12616Y8766D01*
X12609Y8773D02*
Y8793D01*
X12619Y8803D01*
Y8861D01*
X8487Y7243D02*
X8539D01*
X8351Y7379D02*
X8487Y7243D01*
X8351Y7379D02*
Y7737D01*
X8366Y7752D01*
X11430Y9009D02*
Y9301D01*
X11495Y8779D02*
Y8944D01*
X11430Y9009D02*
X11495Y8944D01*
X11423Y8833D02*
Y8928D01*
X11393Y8982D02*
Y9086D01*
Y8982D02*
X11418Y8957D01*
Y8933D02*
Y8957D01*
Y8933D02*
X11423Y8928D01*
X10220Y8291D02*
Y8396D01*
X10241Y8417D01*
X10279D01*
X10292Y8431D01*
Y8436D01*
X10207Y8278D02*
X10220Y8291D01*
X10292Y8436D02*
X10293Y8929D01*
X10281Y8942D02*
X10293Y8929D01*
X10243Y8942D02*
X10281D01*
X10207Y8978D02*
X10243Y8942D01*
X10207Y8978D02*
Y8990D01*
X9552Y8565D02*
X9653Y8465D01*
X9552Y8565D02*
Y8766D01*
X9574Y8787D01*
Y8812D01*
X9542Y8209D02*
Y8772D01*
X9563Y8792D01*
Y8809D01*
X9567Y8819D02*
X9574Y8812D01*
X9567Y8819D02*
Y8861D01*
X9594Y8888D01*
Y8929D01*
X9587Y8935D02*
X9594Y8929D01*
X9587Y8935D02*
Y9268D01*
X9578Y8910D02*
Y8931D01*
X9577Y8931D02*
X9578Y8931D01*
X9577Y8931D02*
Y9272D01*
X9587Y9268D02*
X9637Y9318D01*
X9656D01*
X9557Y8815D02*
X9563Y8809D01*
X9557Y8815D02*
Y8867D01*
X9583Y8893D01*
Y8906D01*
X9578Y8910D02*
X9583Y8906D01*
X9577Y9272D02*
X9646Y9340D01*
Y9357D01*
X9656Y9318D02*
X9695Y9358D01*
X9697D01*
X6911Y9040D02*
Y9223D01*
X6892Y9243D02*
X6911Y9223D01*
X6878Y9165D02*
Y9220D01*
X6869Y9760D02*
X6929Y9820D01*
X6869Y9229D02*
Y9760D01*
Y9229D02*
X6878Y9220D01*
X6892Y9021D02*
X6911Y9040D01*
X6892Y8988D02*
Y9021D01*
X7117Y8730D02*
X7127Y8720D01*
X7117Y8730D02*
Y9003D01*
X7100Y9020D02*
X7117Y9003D01*
X7100Y9020D02*
Y9087D01*
X7093Y8723D02*
X7095Y8720D01*
X7093Y8723D02*
Y8987D01*
X7101Y8996D01*
X7063Y8730D02*
X7083Y8750D01*
Y9040D01*
X7072Y9051D02*
X7083Y9040D01*
X7072Y9051D02*
Y9249D01*
X6983Y8735D02*
X6993Y8725D01*
X6983Y8735D02*
Y9045D01*
X7057Y8810D02*
X7067Y8820D01*
Y9031D01*
X7041Y9006D02*
X7048Y9016D01*
X7041Y8673D02*
X7041Y9006D01*
X7041Y8673D02*
X7070Y8644D01*
X7070D01*
X7031Y8624D02*
X7041Y8614D01*
X7031Y8624D02*
Y9183D01*
X7041Y9193D01*
X7041D01*
X9658Y8856D02*
Y8895D01*
Y8856D02*
X9667Y8847D01*
X9753D01*
X9776Y8825D01*
Y8803D02*
Y8825D01*
X10146Y9677D02*
X10201Y9622D01*
X10195Y9334D02*
X10210Y9319D01*
X10273Y7790D02*
Y7792D01*
X10273Y7790D02*
X10273Y7790D01*
X10195Y9410D02*
X10201Y9416D01*
X10195Y9334D02*
Y9410D01*
X10220Y9299D02*
Y9324D01*
X10206Y9407D02*
X10212Y9413D01*
X10206Y9338D02*
Y9407D01*
Y9338D02*
X10220Y9324D01*
X10222Y9515D02*
X10234Y9527D01*
X10222Y9410D02*
Y9515D01*
X10217Y9404D02*
X10222Y9410D01*
X10217Y9342D02*
Y9404D01*
Y9342D02*
X10230Y9328D01*
X10231D01*
X10201Y9416D02*
Y9622D01*
X10158Y9718D02*
Y10165D01*
X10135Y8067D02*
Y9319D01*
X10191Y9420D02*
Y9541D01*
X10150Y9380D02*
X10191Y9420D01*
X10150Y9335D02*
Y9380D01*
X10135Y9319D02*
X10150Y9335D01*
X10125Y8060D02*
Y9323D01*
X10181Y9425D02*
Y9536D01*
X10140Y9383D02*
X10181Y9425D01*
X10140Y9338D02*
Y9383D01*
X10125Y9323D02*
X10140Y9338D01*
X10231Y9296D02*
Y9328D01*
X10151Y9438D02*
Y9478D01*
X10085Y9372D02*
X10151Y9438D01*
X10085Y8085D02*
Y9372D01*
X10123Y9528D02*
X10161Y9490D01*
Y9434D02*
Y9490D01*
X10117Y9847D02*
Y9849D01*
X10095Y9368D02*
X10161Y9434D01*
X10095Y8081D02*
Y9368D01*
X10061Y9971D02*
X10133Y9899D01*
X10105Y9363D02*
X10171Y9429D01*
X10105Y8074D02*
Y9363D01*
X10157Y9560D02*
X10181Y9536D01*
X10130Y9689D02*
X10158Y9718D01*
X10130Y9669D02*
Y9689D01*
Y9669D02*
X10168Y9631D01*
Y9563D02*
Y9631D01*
Y9563D02*
X10191Y9541D01*
X10376Y9077D02*
Y9119D01*
X10224Y9288D02*
X10231Y9296D01*
X10224Y9249D02*
Y9288D01*
Y9249D02*
X10307Y9165D01*
X10330D01*
X10376Y9119D01*
X10214Y9244D02*
X10256Y9202D01*
X10214Y9292D02*
X10220Y9299D01*
X10214Y9244D02*
Y9292D01*
X10204Y9240D02*
X10244Y9200D01*
X10210Y9302D02*
Y9319D01*
X10204Y9296D02*
X10210Y9302D01*
X10204Y9240D02*
Y9296D01*
X10421Y9702D02*
Y10108D01*
Y9702D02*
X10447Y9676D01*
Y9023D02*
Y9676D01*
X10421Y8998D02*
X10447Y9023D01*
X10421Y8264D02*
Y8998D01*
X10457Y8988D02*
Y9689D01*
X10437Y9709D02*
X10457Y9689D01*
X10469Y7628D02*
Y7652D01*
X10477Y9686D02*
X10495Y9668D01*
Y9441D02*
Y9668D01*
X10478Y9424D02*
X10495Y9441D01*
X10478Y8982D02*
Y9424D01*
X10451Y8954D02*
X10478Y8982D01*
X10451Y8777D02*
Y8954D01*
X10512Y8737D02*
Y9245D01*
X10461Y8686D02*
X10512Y8737D01*
X10524Y8735D02*
Y9242D01*
X10509Y7628D02*
Y7653D01*
X10471Y8682D02*
X10524Y8735D01*
X10535Y8732D02*
Y9239D01*
X10546Y7791D02*
X10548D01*
X10481Y8678D02*
X10535Y8732D01*
X10547Y8730D02*
Y9226D01*
X10549Y7628D02*
Y7652D01*
X10491Y8674D02*
X10547Y8730D01*
X10502Y8932D02*
Y9310D01*
X10496Y8926D02*
X10502Y8932D01*
X10496Y8909D02*
Y8926D01*
X10511Y9686D02*
X10524Y9673D01*
Y9257D02*
Y9673D01*
X10512Y9245D02*
X10524Y9257D01*
X10539Y9258D02*
Y9361D01*
X10524Y9242D02*
X10539Y9258D01*
X10535Y9239D02*
X10565Y9269D01*
X10547Y9226D02*
X10581Y9260D01*
X9566Y8283D02*
X9567Y8282D01*
Y8137D02*
Y8282D01*
X10351Y7628D02*
Y7653D01*
X9900Y9170D02*
X9908Y9162D01*
Y9015D02*
Y9162D01*
X9886Y8992D02*
X9908Y9015D01*
X9886Y8965D02*
Y8992D01*
X9878Y8957D02*
X9886Y8965D01*
X9878Y8257D02*
Y8957D01*
X9845Y9076D02*
Y9152D01*
Y9076D02*
X9853Y9069D01*
Y8260D02*
Y9069D01*
X9866Y9146D02*
X9871Y9151D01*
X9866Y8259D02*
Y9146D01*
X10312Y7790D02*
Y7792D01*
Y7628D02*
Y7653D01*
X10115Y8065D02*
Y9328D01*
X10102Y8054D02*
X10115Y8067D01*
X11821Y9106D02*
X11829Y9114D01*
X11821Y8876D02*
Y9106D01*
Y8876D02*
X11869Y8828D01*
X12026Y9154D02*
X12047Y9132D01*
Y8852D02*
Y9132D01*
X11969Y8774D02*
X12047Y8852D01*
X11979Y7856D02*
Y8770D01*
X12046Y9172D02*
X12057Y9162D01*
Y8848D02*
Y9162D01*
X11979Y8770D02*
X12057Y8848D01*
X10155Y8076D02*
Y9173D01*
X10153Y9227D02*
X10171Y9209D01*
Y9189D02*
Y9209D01*
X10155Y9173D02*
X10171Y9189D01*
X10155Y8076D02*
X10170Y8061D01*
Y8027D02*
Y8061D01*
X10155Y8012D02*
X10170Y8027D01*
X10155Y7813D02*
Y8012D01*
Y7813D02*
X10172Y7795D01*
Y7671D02*
Y7795D01*
X10154Y7654D02*
X10172Y7671D01*
X10145Y8016D02*
X10159Y8030D01*
X10145Y7805D02*
Y8016D01*
Y7805D02*
X10155Y7795D01*
Y7790D02*
Y7795D01*
X10183Y9233D02*
X10222Y9193D01*
X10152Y9273D02*
X10170D01*
X10183Y9260D01*
Y9233D02*
Y9260D01*
X11622Y9423D02*
Y9501D01*
X11622Y9041D02*
Y9422D01*
X11622Y9423D02*
X11622Y9422D01*
X11632Y9427D02*
Y9545D01*
X11632Y9037D02*
Y9427D01*
X11632Y9427D02*
X11632Y9427D01*
X11642Y9431D02*
Y9571D01*
X11642Y9031D02*
Y9431D01*
X11642Y9431D02*
X11642Y9431D01*
X11652Y8970D02*
Y9435D01*
X11652Y9435D02*
X11652Y9435D01*
X11452Y9677D02*
X11478D01*
X11522Y9633D01*
Y9601D02*
Y9633D01*
Y9601D02*
X11622Y9501D01*
X11536Y9683D02*
X11560Y9659D01*
Y9616D02*
Y9659D01*
Y9616D02*
X11632Y9545D01*
X11595Y10079D02*
X11606Y10068D01*
Y9606D02*
Y10068D01*
Y9606D02*
X11642Y9571D01*
X11752Y9940D02*
Y10059D01*
X11623Y9811D02*
X11752Y9940D01*
X11623Y9660D02*
Y9811D01*
Y9660D02*
X11652Y9632D01*
Y9435D02*
Y9632D01*
X11398Y9463D02*
X11483Y9378D01*
Y9354D02*
Y9378D01*
X11430Y9301D02*
X11483Y9354D01*
X11641Y9660D02*
Y9682D01*
X12383Y8904D02*
X12423Y8944D01*
X12421Y9720D02*
X12430Y9712D01*
Y9414D02*
Y9712D01*
X12423Y9407D02*
X12430Y9414D01*
X12423Y8944D02*
Y9407D01*
X11899Y7805D02*
Y9625D01*
X11890Y9634D02*
Y9764D01*
Y9634D02*
X11899Y9625D01*
X12102Y8836D02*
Y9448D01*
X12128Y9474D02*
Y9630D01*
X12102Y9448D02*
X12128Y9474D01*
X10942Y7628D02*
Y7653D01*
X10222Y8979D02*
Y9193D01*
Y8979D02*
X10249Y8952D01*
X10284D01*
X10194Y9236D02*
Y9310D01*
Y9236D02*
X10233Y9197D01*
Y8984D02*
Y9197D01*
Y8984D02*
X10254Y8962D01*
X10289D01*
X10564Y9361D02*
X10581Y9344D01*
Y9260D02*
Y9344D01*
X10468Y9437D02*
X10479Y9448D01*
X10468Y8985D02*
Y9437D01*
X11021Y7628D02*
Y7652D01*
X10934Y8742D02*
X10961Y8769D01*
X10960Y8769D02*
Y8791D01*
X10948Y9308D02*
X10976Y9280D01*
X10977Y9279D01*
Y9142D02*
Y9279D01*
X10934Y8817D02*
Y9098D01*
X10977Y9142D01*
X10924Y8812D02*
Y9106D01*
X10962Y9144D01*
X10944Y9297D02*
X10964Y9278D01*
Y9233D02*
Y9278D01*
X10946Y9216D02*
X10964Y9233D01*
X10946Y9143D02*
Y9216D01*
X10914Y7881D02*
Y9111D01*
X10946Y9143D01*
X10934Y8817D02*
X10960Y8791D01*
X10924Y8812D02*
X10949Y8787D01*
Y8772D02*
Y8787D01*
X10904Y7872D02*
Y9123D01*
X10930Y9149D01*
X10894Y7862D02*
Y9188D01*
X10948Y9242D01*
X10884Y7856D02*
Y9212D01*
X10915Y9243D01*
X10995Y9799D02*
X11041Y9845D01*
X10935Y9799D02*
X10995D01*
X10899Y9762D02*
X10935Y9799D01*
X10899Y9479D02*
Y9762D01*
X10883Y9464D02*
X10899Y9479D01*
X10883Y9325D02*
Y9464D01*
Y9325D02*
X10900Y9308D01*
X10948D01*
X10971Y9809D02*
X10991Y9829D01*
X10931Y9809D02*
X10971D01*
X10887Y9765D02*
X10931Y9809D01*
X10887Y9482D02*
Y9765D01*
X10873Y9468D02*
X10887Y9482D01*
X10873Y9321D02*
Y9468D01*
Y9321D02*
X10897Y9297D01*
X10944D01*
X10903Y7790D02*
Y7794D01*
X10864Y7833D02*
Y9259D01*
X10876Y9768D02*
X10933Y9825D01*
X10876Y9485D02*
Y9768D01*
X10863Y9472D02*
X10876Y9485D01*
X10863Y9315D02*
Y9472D01*
Y9315D02*
X10872Y9306D01*
Y9268D02*
Y9306D01*
X10864Y9259D02*
X10872Y9268D01*
X10854Y7823D02*
Y9263D01*
X10865Y9952D02*
X10900Y9987D01*
X10865Y9488D02*
Y9952D01*
X10853Y9476D02*
X10865Y9488D01*
X10853Y9310D02*
Y9476D01*
Y9310D02*
X10860Y9303D01*
Y9302D02*
Y9303D01*
Y9302D02*
X10861Y9301D01*
Y9271D02*
Y9301D01*
X10854Y9263D02*
X10861Y9271D01*
X10843Y9306D02*
Y9488D01*
X10844Y7818D02*
Y9268D01*
X10843Y9306D02*
X10850Y9298D01*
Y9274D02*
Y9298D01*
X10844Y9268D02*
X10850Y9274D01*
X10834Y7812D02*
Y9272D01*
X10824Y7628D02*
Y7653D01*
X10823Y9310D02*
Y9338D01*
Y9310D02*
X10840Y9293D01*
Y9278D02*
Y9293D01*
X10834Y9272D02*
X10840Y9278D01*
X10874Y7843D02*
Y9233D01*
X10922Y9281D02*
X10937D01*
X10874Y9233D02*
X10922Y9281D01*
X10784Y7831D02*
Y9260D01*
X10764Y9280D02*
Y9314D01*
Y9280D02*
X10784Y9260D01*
X10824Y7790D02*
Y9286D01*
X10620Y9460D02*
X10620Y9460D01*
X11501Y9618D02*
X11502Y9617D01*
X10284Y8952D02*
X10303Y8934D01*
Y8240D02*
Y8934D01*
Y8240D02*
X10328Y8216D01*
Y7887D02*
Y8216D01*
X10233Y7792D02*
X10328Y7887D01*
X10233Y7791D02*
Y7792D01*
X10289Y8962D02*
X10315Y8936D01*
Y8243D02*
Y8936D01*
Y8243D02*
X10338Y8220D01*
Y7877D02*
Y8220D01*
X10253Y7792D02*
X10338Y7877D01*
X10253Y7672D02*
Y7792D01*
X10244Y8988D02*
Y9200D01*
Y8988D02*
X10260Y8972D01*
X10293D01*
X10327Y8938D01*
Y8245D02*
Y8938D01*
Y8245D02*
X10348Y8224D01*
Y7868D02*
Y8224D01*
X10273Y7792D02*
X10348Y7868D01*
X10256Y9023D02*
Y9202D01*
Y9023D02*
X10339Y8941D01*
Y8247D02*
Y8941D01*
Y8247D02*
X10358Y8228D01*
Y7858D02*
Y8228D01*
X10292Y7792D02*
X10358Y7858D01*
X10292Y7672D02*
Y7792D01*
X10350Y8250D02*
Y8943D01*
Y8250D02*
X10368Y8232D01*
Y7848D02*
Y8232D01*
X10312Y7792D02*
X10368Y7848D01*
X10362Y8252D02*
Y8945D01*
X10374Y8254D02*
Y8948D01*
X10362Y8252D02*
X10378Y8236D01*
Y7843D02*
Y8236D01*
X10332Y7797D02*
X10378Y7843D01*
X10332Y7673D02*
Y7797D01*
X10374Y8254D02*
X10390Y8238D01*
Y7835D02*
Y8238D01*
X10352Y7797D02*
X10390Y7835D01*
X10352Y7790D02*
Y7797D01*
X10386Y8257D02*
Y8950D01*
Y8257D02*
X10400Y8242D01*
Y7825D02*
Y8242D01*
X10371Y7796D02*
X10400Y7825D01*
X10371Y7672D02*
Y7796D01*
X10398Y8259D02*
Y8952D01*
Y8259D02*
X10410Y8247D01*
Y7820D02*
Y8247D01*
X10391Y7800D02*
X10410Y7820D01*
X10409Y8261D02*
X10420Y8251D01*
Y7810D02*
Y8251D01*
X10410Y7800D02*
X10420Y7810D01*
X10410Y7672D02*
Y7800D01*
X10491Y8348D02*
Y8674D01*
Y8348D02*
X10528Y8311D01*
Y8258D02*
Y8311D01*
X10500Y8230D02*
X10528Y8258D01*
X10500Y8130D02*
Y8230D01*
Y8130D02*
X10539Y8091D01*
Y8043D02*
Y8091D01*
X10500Y8004D02*
X10539Y8043D01*
X10500Y7862D02*
Y8004D01*
Y7862D02*
X10568Y7794D01*
Y7671D02*
Y7794D01*
X10481Y8342D02*
Y8678D01*
Y8342D02*
X10516Y8307D01*
Y8260D02*
Y8307D01*
X10490Y8234D02*
X10516Y8260D01*
X10490Y8124D02*
Y8234D01*
Y8124D02*
X10528Y8087D01*
Y8046D02*
Y8087D01*
X10490Y8008D02*
X10528Y8046D01*
X10490Y7847D02*
Y8008D01*
Y7847D02*
X10546Y7791D01*
X10471Y8336D02*
Y8682D01*
Y8336D02*
X10504Y8303D01*
Y8262D02*
Y8303D01*
X10480Y8238D02*
X10504Y8262D01*
X10480Y8118D02*
Y8238D01*
Y8118D02*
X10516Y8083D01*
Y8048D02*
Y8083D01*
X10480Y8012D02*
X10516Y8048D01*
X10480Y7843D02*
Y8012D01*
Y7843D02*
X10528Y7795D01*
Y7672D02*
Y7795D01*
X10461Y8330D02*
Y8686D01*
Y8330D02*
X10492Y8299D01*
Y8265D02*
Y8299D01*
X10470Y8243D02*
X10492Y8265D01*
X10470Y8113D02*
Y8243D01*
Y8113D02*
X10504Y8079D01*
Y8050D02*
Y8079D01*
X10470Y8017D02*
X10504Y8050D01*
X10470Y7829D02*
Y8017D01*
Y7829D02*
X10509Y7790D01*
Y7790D02*
Y7790D01*
X10451Y8777D02*
X10480Y8748D01*
Y8720D02*
Y8748D01*
X10451Y8690D02*
X10480Y8720D01*
X10451Y8325D02*
Y8690D01*
Y8325D02*
X10480Y8295D01*
Y8267D02*
Y8295D01*
X10460Y8247D02*
X10480Y8267D01*
X10460Y8107D02*
Y8247D01*
Y8107D02*
X10492Y8075D01*
Y8053D02*
Y8075D01*
X10460Y8021D02*
X10492Y8053D01*
X10460Y7823D02*
Y8021D01*
Y7823D02*
X10489Y7794D01*
Y7672D02*
Y7794D01*
X10441Y8958D02*
X10468Y8985D01*
X10441Y8772D02*
Y8958D01*
Y8772D02*
X10469Y8744D01*
Y8722D02*
Y8744D01*
X10441Y8695D02*
X10469Y8722D01*
X10441Y8320D02*
Y8695D01*
Y8320D02*
X10469Y8292D01*
Y8269D02*
Y8292D01*
X10450Y8251D02*
X10469Y8269D01*
X10450Y8101D02*
Y8251D01*
Y8101D02*
X10479Y8072D01*
Y8054D02*
Y8072D01*
X10450Y8025D02*
X10479Y8054D01*
X10450Y7818D02*
Y8025D01*
Y7818D02*
X10469Y7798D01*
Y7791D02*
Y7798D01*
X10440Y7808D02*
Y8255D01*
X10431Y8962D02*
X10457Y8988D01*
X10431Y8766D02*
Y8962D01*
Y8766D02*
X10457Y8740D01*
Y8724D02*
Y8740D01*
X10431Y8699D02*
X10457Y8724D01*
X10431Y8313D02*
Y8699D01*
Y8313D02*
X10457Y8287D01*
Y8272D02*
Y8287D01*
X10440Y8255D02*
X10457Y8272D01*
X10440Y7808D02*
X10450Y7798D01*
Y7673D02*
Y7798D01*
X10934Y7901D02*
Y8742D01*
Y7901D02*
X11040Y7795D01*
Y7672D02*
Y7795D01*
X10924Y8747D02*
X10949Y8772D01*
X10924Y7895D02*
Y8747D01*
Y7895D02*
X11021Y7798D01*
Y7790D02*
Y7798D01*
X10914Y7881D02*
X11000Y7795D01*
Y7671D02*
Y7795D01*
X10904Y7872D02*
X10981Y7795D01*
Y7790D02*
Y7795D01*
X10894Y7862D02*
X10961Y7795D01*
Y7672D02*
Y7795D01*
X10884Y7856D02*
X10941Y7799D01*
Y7791D02*
Y7799D01*
X10874Y7843D02*
X10922Y7795D01*
Y7672D02*
Y7795D01*
X10864Y7833D02*
X10903Y7794D01*
X10854Y7823D02*
X10883Y7794D01*
Y7673D02*
Y7794D01*
X10844Y7818D02*
X10863Y7798D01*
Y7790D02*
Y7798D01*
X10834Y7812D02*
X10844Y7802D01*
Y7673D02*
Y7802D01*
X10627Y7796D02*
X10724Y7893D01*
X10627Y7791D02*
Y7796D01*
X10647Y7793D02*
X10734Y7879D01*
X10647Y7673D02*
Y7793D01*
X10667Y7793D02*
X10744Y7870D01*
X10667Y7790D02*
Y7793D01*
X10693Y9184D02*
X10754Y9123D01*
Y7860D02*
Y9123D01*
X10686Y7792D02*
X10754Y7860D01*
X10686Y7672D02*
Y7792D01*
X10764Y7846D02*
Y9128D01*
X10707Y7790D02*
X10764Y7846D01*
X10706Y7790D02*
X10707D01*
X10774Y7841D02*
Y9132D01*
X10725Y7792D02*
X10774Y7841D01*
X10725Y7672D02*
Y7792D01*
X10745Y7792D02*
X10784Y7831D01*
X10745Y7790D02*
Y7792D01*
X10765Y9493D02*
X10780Y9478D01*
Y9279D02*
Y9478D01*
Y9279D02*
X10794Y9265D01*
Y7825D02*
Y9265D01*
X10765Y7796D02*
X10794Y7825D01*
X10765Y7673D02*
Y7796D01*
X10784Y9940D02*
Y9947D01*
Y9940D02*
X10791Y9933D01*
Y9305D02*
Y9933D01*
Y9305D02*
X10795Y9301D01*
Y9277D02*
Y9301D01*
Y9277D02*
X10804Y9269D01*
Y7820D02*
Y9269D01*
X10794Y7810D02*
X10804Y7820D01*
X10794Y7799D02*
Y7810D01*
X10785Y7790D02*
X10794Y7799D01*
X10804Y9306D02*
Y9965D01*
Y9306D02*
X10807Y9303D01*
Y9280D02*
Y9303D01*
Y9280D02*
X10814Y9273D01*
Y7814D02*
Y9273D01*
X10804Y7804D02*
X10814Y7814D01*
X10804Y7672D02*
Y7804D01*
X5888Y8245D02*
X5934Y8291D01*
X6834Y7800D02*
Y8328D01*
X7012Y7700D02*
Y8329D01*
X11256Y9744D02*
Y10091D01*
X10145Y9185D02*
X10156Y9196D01*
X10145Y8072D02*
Y9185D01*
Y8072D02*
X10159Y8057D01*
Y8030D02*
Y8057D01*
X10135Y8067D02*
X10149Y8053D01*
Y8034D02*
Y8053D01*
X10115Y8050D02*
X10125Y8060D01*
X10115Y9328D02*
X10119Y9332D01*
Y9332D01*
X11771Y10373D02*
X11772Y10374D01*
X10430Y7791D02*
Y8255D01*
X10421Y8264D02*
X10430Y8255D01*
X7218Y8804D02*
Y9453D01*
X11094Y8556D02*
X11107Y8543D01*
X11094Y8556D02*
Y9718D01*
X8775Y9428D02*
X8796Y9449D01*
X8737Y9351D02*
X8757Y9371D01*
X8737Y9351D02*
Y9352D01*
X9545Y10003D02*
X9567Y9981D01*
Y8899D02*
Y9981D01*
X9547Y8800D02*
Y9969D01*
X8735Y9565D02*
Y9983D01*
X8717Y9547D02*
X8735Y9565D01*
X8717Y9465D02*
Y9547D01*
Y9465D02*
X8736Y9446D01*
Y9428D02*
Y9446D01*
X8714Y9563D02*
Y9965D01*
X8682Y9531D02*
X8714Y9563D01*
X8682Y9461D02*
Y9531D01*
Y9461D02*
X8691Y9452D01*
X8705D01*
X8715Y9442D01*
Y9407D02*
Y9442D01*
X8697Y9389D02*
X8715Y9407D01*
X10784Y9947D02*
X10784Y9947D01*
X8694Y9557D02*
Y9943D01*
X8685Y9548D02*
X8694Y9557D01*
X8685Y9548D02*
Y9548D01*
X8671Y9534D02*
X8685Y9548D01*
X8671Y9458D02*
Y9534D01*
Y9458D02*
X8698Y9431D01*
Y9430D02*
Y9431D01*
X8673Y9550D02*
Y9924D01*
X8657Y9534D02*
X8673Y9550D01*
X8657Y9453D02*
Y9534D01*
Y9453D02*
X8674Y9436D01*
Y9406D02*
Y9436D01*
X8658Y9390D02*
X8674Y9406D01*
X8267Y9483D02*
X8348Y9564D01*
X8267Y9467D02*
Y9483D01*
X8363Y9471D02*
X8393Y9501D01*
X8363Y9411D02*
Y9471D01*
Y9411D02*
X8385Y9389D01*
X8385Y9428D02*
X8386D01*
X8324Y9555D02*
X8338Y9569D01*
X8295Y9555D02*
X8324D01*
X8245Y9505D02*
X8295Y9555D01*
X8245Y9407D02*
Y9505D01*
X8227Y9389D02*
X8245Y9407D01*
X8318Y9565D02*
X8328Y9575D01*
X8291Y9565D02*
X8318D01*
X8225Y9499D02*
X8291Y9565D01*
X8225Y9469D02*
Y9499D01*
X8202Y9519D02*
Y9690D01*
X8187Y9504D02*
X8202Y9519D01*
X8187Y9468D02*
Y9504D01*
X6805Y8799D02*
Y9130D01*
X7021Y8567D02*
Y9214D01*
X6988Y9187D02*
X6999Y9176D01*
Y8911D02*
Y9176D01*
X8500Y9470D02*
Y9676D01*
X8639Y9531D02*
Y11313D01*
Y9531D02*
X8647Y9523D01*
X8600Y8888D02*
X8610Y8898D01*
X8600Y8661D02*
Y8888D01*
Y8661D02*
X8620Y8641D01*
Y8640D02*
Y8641D01*
X11280Y7653D02*
X11299Y7672D01*
X11280Y7627D02*
Y7653D01*
X11319Y7653D02*
X11338Y7672D01*
X11358Y7653D02*
X11378Y7673D01*
X11358Y7628D02*
Y7653D01*
X11398D02*
X11417Y7672D01*
X11398Y7628D02*
Y7653D01*
X11437D02*
X11457Y7673D01*
X11437Y7628D02*
Y7653D01*
X11476D02*
X11496Y7673D01*
X11476Y7628D02*
Y7653D01*
X11516D02*
X11535Y7672D01*
X11516Y7628D02*
Y7653D01*
X11555D02*
X11575Y7673D01*
X11555Y7628D02*
Y7653D01*
X11594D02*
X11614Y7673D01*
X11594Y7628D02*
Y7653D01*
X11673D02*
X11693Y7673D01*
X11673Y7628D02*
Y7653D01*
X11713D02*
X11732Y7672D01*
X11713Y7628D02*
Y7653D01*
X11752Y7653D02*
X11771Y7672D01*
X11791Y7653D02*
X11811Y7673D01*
X11791Y7628D02*
Y7653D01*
X11831D02*
X11850Y7672D01*
X11831Y7628D02*
Y7653D01*
X11870D02*
X11890Y7673D01*
X11870Y7628D02*
Y7653D01*
X11909D02*
X11929Y7673D01*
X11909Y7628D02*
Y7653D01*
X11950D02*
X11969Y7672D01*
X11950Y7628D02*
Y7653D01*
X11988Y7628D02*
Y7653D01*
X12027D02*
X12047Y7673D01*
X12027Y7628D02*
Y7653D01*
X12067Y7653D02*
X12087Y7673D01*
X5786Y8968D02*
X6055D01*
X5755Y8999D02*
X5786Y8968D01*
X5755Y8999D02*
Y9102D01*
X5775Y9123D01*
Y9163D01*
X5761Y8642D02*
X6044D01*
X5737Y8666D02*
X5761Y8642D01*
X5737Y8666D02*
Y9163D01*
X12106Y7653D02*
X12126Y7673D01*
X12106Y7628D02*
Y7653D01*
X12185Y7684D02*
X12205Y7704D01*
X12185Y7628D02*
Y7684D01*
X12225Y7681D02*
X12244Y7700D01*
X12225Y7628D02*
Y7681D01*
X12264Y7680D02*
X12284Y7700D01*
X12303Y7680D02*
X12323Y7700D01*
X12303Y7628D02*
Y7680D01*
X12343Y7681D02*
X12362Y7700D01*
X12343Y7628D02*
Y7681D01*
X12382Y7682D02*
X12401Y7701D01*
X12421Y7680D02*
X12440Y7699D01*
X12421Y7628D02*
Y7680D01*
X12461Y7681D02*
X12480Y7700D01*
X12461Y7628D02*
Y7681D01*
X8126Y9315D02*
Y10325D01*
X8088Y9277D02*
X8126Y9315D01*
X8088Y9212D02*
Y9277D01*
X8069Y9193D02*
X8088Y9212D01*
Y9291D02*
Y10300D01*
X8069Y9272D02*
X8088Y9291D01*
X8048Y9017D02*
Y10269D01*
Y9017D02*
X8070Y8995D01*
X8009Y9017D02*
Y10086D01*
Y9017D02*
X8030Y8996D01*
X7931Y9409D02*
Y10126D01*
Y9409D02*
X7950Y9390D01*
X8862Y11143D02*
X9033D01*
X9047Y11129D01*
Y11106D02*
Y11129D01*
X9038Y11097D02*
X9047Y11106D01*
X9038Y10862D02*
Y11097D01*
Y10862D02*
X9070Y10830D01*
Y9057D02*
Y10830D01*
Y9057D02*
X9091Y9036D01*
X9033Y9096D02*
X9053Y9076D01*
Y9008D02*
Y9076D01*
Y9008D02*
X9064Y8997D01*
X9092D01*
X9393Y8819D02*
Y9968D01*
X8187Y9311D02*
X8205Y9329D01*
Y9493D01*
X8293Y9581D01*
X8312D01*
X8169Y9290D02*
X8188Y9271D01*
X8169Y9290D02*
Y9514D01*
X8184Y9529D01*
Y9583D01*
X7017Y6409D02*
X7068Y6358D01*
Y6303D02*
Y6358D01*
Y6303D02*
X7100Y6271D01*
X8264Y8344D02*
X8286Y8366D01*
Y8429D01*
X8304Y8447D01*
X7217Y6409D02*
X7278Y6348D01*
X8218Y8343D02*
X8225D01*
X8244Y8362D01*
Y8385D01*
X8267Y8408D01*
X7317Y6409D02*
X7367Y6359D01*
X7417Y6409D02*
X7457Y6369D01*
X8206Y8347D02*
X8228Y8369D01*
X7517Y6409D02*
Y6411D01*
X8013Y8898D02*
X8031Y8916D01*
X7218Y8804D02*
X7231Y8791D01*
X7243D01*
X7271Y8819D01*
X8479D01*
X8500Y8840D01*
X8520Y8745D02*
Y8762D01*
X8559Y8801D01*
X8580Y10008D02*
Y10811D01*
Y10008D02*
X8596Y9992D01*
X8541Y8739D02*
X8569Y8767D01*
X8533Y8739D02*
X8541D01*
X8520Y8726D02*
X8533Y8739D01*
X8520Y8701D02*
Y8726D01*
X8503Y8684D02*
X8520Y8701D01*
X8570Y10781D02*
X8570Y10003D01*
X8586Y9987D01*
X8500Y8724D02*
X8520Y8745D01*
X8500Y9350D02*
X8520Y9370D01*
Y9496D01*
X8544Y9520D01*
X8431Y9580D02*
X8446Y9565D01*
Y9369D02*
Y9565D01*
Y9369D02*
X8465Y9350D01*
X7237Y8807D02*
X7252Y8822D01*
Y8838D01*
X7237Y8853D02*
X7252Y8838D01*
X7237Y8853D02*
Y9233D01*
X6162Y7719D02*
Y8483D01*
X6154Y8491D02*
X6162Y8483D01*
X6221Y7797D02*
Y8489D01*
X6223Y8491D01*
X6151Y8522D02*
X6182Y8491D01*
X6151Y8522D02*
Y8546D01*
X6219Y8510D02*
Y8591D01*
X6236Y8608D01*
X6241Y7719D02*
Y8584D01*
X6280Y7719D02*
Y8664D01*
X6261Y7700D02*
X6280Y7719D01*
X6261Y7628D02*
Y7700D01*
Y7800D02*
Y8624D01*
X6221Y7700D02*
X6241Y7719D01*
X6221Y7627D02*
Y7700D01*
X6201Y8492D02*
X6219Y8510D01*
X6201Y7719D02*
Y8492D01*
X6182Y7700D02*
X6201Y7719D01*
X6182Y7628D02*
Y7700D01*
Y7799D02*
Y8491D01*
X6143Y7699D02*
X6162Y7719D01*
X6143Y7627D02*
Y7699D01*
X7735Y7816D02*
Y8369D01*
X8406Y7479D02*
X8754Y7827D01*
Y8192D01*
X8736Y8210D02*
X8754Y8192D01*
X8416Y7511D02*
X8718Y7813D01*
Y8270D01*
X8737Y8289D01*
X8370Y7727D02*
X8532D01*
X8675Y7871D01*
Y8232D01*
X8659Y8248D02*
X8675Y8232D01*
X8488Y7755D02*
X8499Y7744D01*
X8488Y7755D02*
Y7837D01*
X8509Y7858D01*
X8577Y7952D02*
Y8274D01*
X8509Y7858D02*
X8542Y7891D01*
Y7931D01*
X8548Y7937D01*
X8562D01*
X8577Y7952D01*
Y8274D02*
X8607Y8304D01*
X8632D01*
X8530Y7906D02*
Y8120D01*
X8632Y8304D02*
X8657Y8329D01*
X8620Y8285D02*
X8637Y8268D01*
X8587Y8212D02*
X8620Y8245D01*
X8452Y7851D02*
X8520Y7919D01*
Y8150D01*
X8540Y8170D01*
X8495Y7871D02*
X8530Y7906D01*
X8599Y8189D02*
X8620Y8210D01*
X8540Y7975D02*
X8551Y7955D01*
X8540Y7975D02*
Y8095D01*
X8559Y8114D01*
Y8467D01*
X8540Y8486D02*
X8559Y8467D01*
X8540Y8486D02*
X8540D01*
X8559Y8020D02*
Y8091D01*
X8530Y8120D02*
X8540Y8130D01*
X7701Y7628D02*
Y7700D01*
X7718Y7717D01*
Y8353D01*
Y8361D01*
X7710Y8369D02*
X7718Y8361D01*
X7701Y7800D02*
Y8320D01*
X7692Y8328D02*
X7701Y8320D01*
X7692Y8328D02*
X7692D01*
X7687Y8333D02*
X7692Y8328D01*
X7687Y8333D02*
Y8369D01*
X7661Y7628D02*
Y7700D01*
X7681Y7719D01*
Y8325D01*
X7671Y8335D02*
X7681Y8325D01*
X7671Y8335D02*
Y8526D01*
X7648D02*
X7660Y8514D01*
Y7800D02*
Y8514D01*
X7622Y7628D02*
Y7700D01*
X7641Y7719D01*
Y8253D01*
X7583Y7627D02*
Y7700D01*
X7603Y7720D01*
Y8483D01*
X7583Y7800D02*
Y8445D01*
X7543Y7629D02*
Y7700D01*
X7564Y7721D01*
X7465Y8174D02*
X7543Y8096D01*
Y7800D02*
Y8096D01*
X7504Y7628D02*
Y7700D01*
X7523Y7719D01*
Y8102D01*
X7443Y8174D02*
X7490Y8127D01*
X7498D01*
X7523Y8102D01*
X7488Y8174D02*
X7564Y8098D01*
Y7721D02*
Y8098D01*
X7504Y7800D02*
Y8089D01*
X7419Y8174D02*
X7504Y8089D01*
X7464Y7627D02*
Y7700D01*
X7485Y7720D01*
Y8086D01*
X7397Y8174D02*
X7485Y8086D01*
X7397Y8174D02*
Y8179D01*
X7409Y8191D01*
X7467D01*
X7489Y8213D01*
Y8254D01*
X7464Y7800D02*
Y8093D01*
X7387Y8170D02*
X7464Y8093D01*
X7387Y8170D02*
Y8259D01*
X7421Y8293D01*
X5985Y6646D02*
Y7166D01*
X6023Y7204D01*
Y7479D01*
X6005Y7497D02*
X6023Y7479D01*
X6005Y7497D02*
Y8244D01*
X5921Y6645D02*
Y7019D01*
X5894Y7046D02*
X5921Y7019D01*
X5894Y7046D02*
Y7180D01*
X5869Y7205D02*
X5894Y7180D01*
X5869Y7205D02*
Y7249D01*
X5990Y7370D01*
Y7465D01*
X5888Y7567D02*
X5990Y7465D01*
X5888Y7567D02*
Y8245D01*
X5934Y8291D02*
X6005D01*
X5901Y7024D02*
X5902Y6656D01*
X5840Y7086D02*
X5901Y7024D01*
X5840Y7086D02*
Y7235D01*
X5980Y7375D01*
Y7461D01*
X5846Y7595D02*
X5980Y7461D01*
X5846Y7595D02*
Y8109D01*
X5861Y8124D01*
X5882Y6643D02*
Y6904D01*
X5891Y6913D01*
Y7020D01*
X5829Y7083D02*
X5891Y7020D01*
X5829Y7083D02*
Y7594D01*
X5809Y7614D02*
X5829Y7594D01*
X5809Y7614D02*
Y7846D01*
X5602Y8053D02*
X5809Y7846D01*
X5602Y8053D02*
Y8369D01*
X5862Y6901D02*
X5862Y6656D01*
X5808Y6955D02*
X5862Y6901D01*
X5808Y6955D02*
Y7572D01*
X5769Y7611D02*
X5808Y7572D01*
X5769Y7611D02*
Y7872D01*
X5577Y8064D02*
X5769Y7872D01*
X5837Y6644D02*
Y6912D01*
X5798Y6951D02*
X5837Y6912D01*
X5798Y6951D02*
Y7550D01*
X5729Y7619D02*
X5798Y7550D01*
X5729Y7619D02*
Y7898D01*
X5567Y8060D02*
X5729Y7898D01*
X5567Y8060D02*
Y8356D01*
X5555Y8368D02*
X5567Y8356D01*
X7347Y7628D02*
X7366Y7647D01*
Y8262D01*
X7549Y8445D01*
X8227Y7724D02*
Y8132D01*
X8147Y7823D02*
Y8131D01*
X8110Y7718D02*
Y8133D01*
Y7718D02*
X8121Y7707D01*
X8070Y7697D02*
Y8132D01*
Y7410D02*
Y7697D01*
X6736Y7441D02*
X6767Y7410D01*
X6736Y7441D02*
Y7780D01*
X6756Y7800D01*
X8030Y7501D02*
Y8132D01*
X6580Y7487D02*
Y7781D01*
X6598Y7800D01*
X7149Y7626D02*
Y7679D01*
X7130Y7698D02*
X7149Y7679D01*
X7110Y8290D02*
X7110Y8290D01*
Y7627D02*
Y7677D01*
X7091Y7696D02*
X7110Y7677D01*
X7071Y7627D02*
Y7679D01*
X7051Y7699D02*
X7071Y7679D01*
X7031Y7800D02*
Y8289D01*
Y7628D02*
Y7681D01*
X7012Y7700D02*
X7031Y7681D01*
X6992Y7628D02*
Y7679D01*
X6973Y7698D02*
X6992Y7679D01*
X6953Y7627D02*
Y7679D01*
X6933Y7699D02*
X6953Y7679D01*
X6913Y7627D02*
Y7681D01*
X6893Y7701D02*
X6913Y7681D01*
X6834Y7628D02*
Y7680D01*
X6812Y7702D02*
X6834Y7680D01*
X6812Y7702D02*
Y8208D01*
X6773Y8247D02*
X6812Y8208D01*
X6795Y7800D02*
Y8198D01*
X6747Y8246D02*
X6795Y8198D01*
X6756Y7628D02*
Y7774D01*
X6776Y7794D01*
Y8187D01*
X6718Y8245D02*
X6776Y8187D01*
X6677Y7628D02*
Y7699D01*
X6697Y7719D01*
Y8328D01*
X6638Y7627D02*
Y7680D01*
X6657Y7699D01*
Y8328D01*
X6638Y7799D02*
Y8246D01*
X6638Y8246D01*
X6598Y7628D02*
Y7680D01*
X6619Y7701D01*
Y8329D01*
X6559Y7800D02*
Y8247D01*
X6520Y7627D02*
Y7680D01*
X6539Y7699D01*
X6539Y8256D01*
X6520Y7799D02*
Y8246D01*
X4917Y6635D02*
Y7188D01*
X4743Y7362D02*
X4917Y7188D01*
X4743Y7362D02*
Y11336D01*
X4919Y11512D01*
X8388D01*
X8500Y11400D01*
X9364D01*
X4941Y6654D02*
X4942Y7179D01*
X4966Y7203D01*
Y7236D01*
X4753Y7449D02*
X4966Y7236D01*
X4753Y7449D02*
Y11332D01*
X4923Y11502D01*
X8384D01*
X8503Y11383D01*
X9428D01*
X9445Y11400D01*
X4962Y6635D02*
Y7185D01*
X4977Y7200D01*
Y7241D01*
X4763Y7455D02*
X4977Y7241D01*
X4763Y7455D02*
Y11328D01*
X4927Y11492D01*
X8380D01*
X8501Y11371D01*
X9716D01*
X9744Y11400D01*
X4980Y6654D02*
Y7181D01*
X4988Y7189D01*
Y7244D01*
X4773Y7461D02*
X4988Y7244D01*
X4773Y7461D02*
Y11324D01*
X4931Y11482D01*
X8376D01*
X8497Y11361D01*
X9786D01*
X9824Y11400D01*
X11021Y7652D02*
X11040Y7672D01*
X10982Y7628D02*
Y7653D01*
X11000Y7671D01*
X10942Y7653D02*
X10961Y7672D01*
X10903Y7628D02*
Y7653D01*
X10922Y7672D01*
X10863Y7628D02*
Y7653D01*
X10883Y7673D01*
X10824Y7653D02*
X10844Y7673D01*
X10785Y7628D02*
Y7653D01*
X10804Y7672D01*
X10745Y7628D02*
Y7653D01*
X10765Y7673D01*
X10706Y7653D02*
X10725Y7672D01*
X10666Y7653D02*
X10686Y7672D01*
X10627Y7653D02*
X10647Y7673D01*
X10549Y7652D02*
X10568Y7671D01*
X10509Y7653D02*
X10528Y7672D01*
X10469Y7652D02*
X10489Y7672D01*
X10430Y7628D02*
Y7653D01*
X10450Y7673D01*
X10391Y7628D02*
Y7653D01*
X10410Y7672D01*
X10351Y7653D02*
X10371Y7672D01*
X10312Y7653D02*
X10332Y7673D01*
X10273Y7652D02*
X10292Y7672D01*
X10233Y7628D02*
Y7652D01*
X10253Y7672D01*
X10115Y7628D02*
Y7653D01*
X10135Y7673D01*
X10075Y7628D02*
Y7652D01*
X10096Y7673D01*
X10036Y7628D02*
Y7653D01*
X10056Y7673D01*
X9997Y7628D02*
Y7652D01*
X10017Y7672D01*
X9958Y7628D02*
Y7653D01*
X9977Y7672D01*
X9918Y7628D02*
Y7653D01*
X9938Y7673D01*
X9879Y7653D02*
X9899Y7673D01*
X9840Y7628D02*
Y7653D01*
X9859Y7672D01*
X9761Y7653D02*
X9780Y7672D01*
X9721Y7628D02*
Y7652D01*
X9741Y7672D01*
X9682Y7628D02*
Y7653D01*
X9702Y7673D01*
X9643Y7628D02*
Y7653D01*
X9663Y7673D01*
X11909Y7785D02*
Y9641D01*
X8775Y9389D02*
X8796Y9410D01*
Y9432D01*
X8814Y9450D01*
X8820D01*
X8833Y9463D01*
X8776Y9350D02*
X8832Y9406D01*
Y9446D01*
X8897Y9511D01*
Y9809D01*
X8697Y9271D02*
X8760Y9334D01*
X8782D01*
X8800Y9352D01*
Y9359D01*
X8848Y9408D01*
X8858D01*
X8875Y9425D01*
Y9475D01*
X8908Y9508D01*
Y9797D01*
X8915Y9804D01*
Y9825D01*
X8266Y9389D02*
Y9436D01*
X8287Y9457D01*
Y9489D01*
X8358Y9560D01*
X8365Y9862D02*
Y9886D01*
X8371Y9892D01*
X8385Y9867D02*
Y9885D01*
X8371Y9892D02*
Y9926D01*
X8465Y9470D02*
Y9828D01*
X8488Y9851D01*
X8465Y9430D02*
X8483Y9448D01*
Y9777D01*
X9611Y8880D02*
Y8901D01*
X9697Y8987D01*
X9635Y8880D02*
Y8900D01*
X9722Y8988D01*
X10135Y8020D02*
X10149Y8034D01*
X10135Y7673D02*
Y8020D01*
X10119Y9332D02*
X10123Y9336D01*
Y9358D01*
X11457Y8797D02*
X11470Y8810D01*
X11457Y7673D02*
Y8797D01*
X11594Y8984D02*
X11642Y9031D01*
X11516Y8936D02*
X11516D01*
X11622Y9041D01*
X9728Y8815D02*
X9746Y8832D01*
X9732Y8256D02*
X9741Y8247D01*
Y7672D02*
Y8247D01*
X9738Y8766D02*
X9776Y8803D01*
X9760Y8252D02*
X9776Y8276D01*
X9760Y8252D02*
X9761Y7790D01*
X9732Y8256D02*
Y8598D01*
X9738Y8679D02*
Y8766D01*
X9780Y8260D02*
X9791Y8272D01*
Y8622D01*
X9761Y7628D02*
Y7653D01*
X9780Y7672D02*
Y8260D01*
X9732Y8598D02*
X9742Y8609D01*
X9764Y8630D01*
Y8654D01*
X9738Y8679D02*
X9764Y8654D01*
X9776Y8638D02*
X9783Y8646D01*
X9815D01*
X9823Y8638D01*
Y8622D02*
Y8638D01*
X9776Y8276D02*
Y8638D01*
X12362Y7700D02*
Y7792D01*
X12353Y7801D02*
X12362Y7792D01*
X12363Y7814D02*
X12382Y7795D01*
X12401Y7701D02*
Y7792D01*
X12373Y7820D02*
X12401Y7792D01*
X12420Y7785D02*
Y7797D01*
X12383Y7834D02*
X12420Y7797D01*
X12383Y7834D02*
Y8904D01*
X12440Y7699D02*
Y7792D01*
X12393Y7839D02*
X12440Y7792D01*
X12393Y7839D02*
Y8900D01*
X12433Y8940D01*
Y9400D01*
X12440Y9407D01*
Y9968D01*
X12461Y7785D02*
Y7787D01*
X12403Y7845D02*
X12461Y7787D01*
X12403Y7845D02*
Y8896D01*
X12445Y8938D01*
Y9393D01*
X12461Y9409D01*
X12480Y7700D02*
Y7792D01*
X12413Y7859D02*
X12480Y7792D01*
X12413Y7859D02*
Y8892D01*
X12457Y8936D01*
Y9382D01*
X12480Y9406D01*
Y10354D01*
X12480Y10354D02*
X12480Y10354D01*
X12323Y7700D02*
Y7792D01*
X12333Y7802D01*
Y8842D01*
X12323Y8852D02*
X12333Y8842D01*
X12303Y7785D02*
Y7795D01*
X12323Y7815D01*
Y8827D01*
X12303Y8846D02*
X12323Y8827D01*
X12303Y8846D02*
Y8882D01*
X12284Y7700D02*
Y7792D01*
X12313Y7821D01*
Y8822D01*
X12284Y8851D02*
X12313Y8822D01*
X12284Y8851D02*
Y9407D01*
X12264Y7791D02*
X12303Y7831D01*
Y8818D01*
X12272Y8850D02*
X12303Y8818D01*
X12272Y8850D02*
Y9398D01*
X12264Y9406D02*
X12272Y9398D01*
X12264Y9406D02*
Y10185D01*
X12244Y7700D02*
Y7787D01*
X12293Y7836D01*
Y8814D01*
X12260Y8847D02*
X12293Y8814D01*
X12260Y8847D02*
Y9395D01*
X12244Y9411D02*
X12260Y9395D01*
X12244Y9411D02*
X12244Y9657D01*
X12225Y7785D02*
Y7788D01*
X12283Y7846D01*
Y8810D01*
X12248Y8845D02*
X12283Y8810D01*
X12248Y8845D02*
Y9393D01*
X12225Y9416D02*
X12248Y9393D01*
X12225Y9416D02*
Y9908D01*
X12205Y7704D02*
Y7788D01*
X12273Y7856D01*
Y8806D01*
X12236Y8843D02*
X12273Y8806D01*
X12185Y7785D02*
Y7795D01*
X12263Y7873D01*
Y8802D01*
X12224Y8840D02*
X12263Y8802D01*
X11929Y7673D02*
Y7795D01*
X11919Y7805D02*
X11929Y7795D01*
X11919Y7805D02*
Y9628D01*
X11929Y9638D01*
Y9754D01*
X11949Y7785D02*
Y7795D01*
X11929Y7815D02*
X11949Y7795D01*
X11929Y7815D02*
Y9624D01*
X11941Y9635D01*
Y9732D01*
X11945Y9736D01*
Y10139D01*
X11949Y10143D01*
X11969Y7672D02*
Y7791D01*
X11939Y7821D02*
X11969Y7791D01*
X11939Y7821D02*
Y9619D01*
X11953Y9633D01*
Y9730D01*
X11957Y9734D01*
Y10122D01*
X11969Y10134D01*
Y10163D01*
X11988Y7785D02*
Y7788D01*
X11949Y7827D02*
X11988Y7788D01*
X11949Y7827D02*
Y8792D01*
X11990Y8833D01*
X11959Y7836D02*
X12007Y7788D01*
X11959Y7836D02*
Y8778D01*
X12008Y8827D01*
Y8890D01*
X12007Y7672D02*
X12007Y7788D01*
X11988Y7653D02*
X12007Y7672D01*
X12026Y7785D02*
X12027D01*
X11969Y7842D02*
X12026Y7785D01*
X11969Y7842D02*
Y8774D01*
X12047Y7673D02*
Y7787D01*
X11979Y7856D02*
X12047Y7787D01*
X12067Y7785D02*
Y7787D01*
X11989Y7865D02*
X12067Y7787D01*
X11989Y7865D02*
Y8765D01*
X12067Y8843D01*
Y9464D01*
X12087Y7673D02*
Y7787D01*
X11999Y7875D02*
X12087Y7787D01*
X11999Y7875D02*
Y8761D01*
X12079Y8841D01*
Y9453D01*
X12087Y9461D01*
Y10169D01*
X12106Y7785D02*
Y7788D01*
X12009Y7885D02*
X12106Y7788D01*
X12009Y7885D02*
Y8757D01*
X12091Y8839D01*
Y9450D01*
X12106Y9466D01*
Y10003D01*
X12126Y7673D02*
Y7787D01*
X12019Y7894D02*
X12126Y7787D01*
X12019Y7894D02*
Y8753D01*
X12102Y8836D01*
X11890Y7673D02*
Y7796D01*
X11899Y7805D01*
X11870Y7785D02*
Y7791D01*
X11889Y7810D01*
Y9485D01*
X11870Y9504D02*
X11889Y9485D01*
X11870Y9504D02*
X11870Y9662D01*
X11850Y7672D02*
Y7787D01*
X11879Y7816D01*
X11831Y7783D02*
Y7795D01*
X11869Y7834D01*
Y8828D01*
X11811Y7673D02*
Y7791D01*
X11859Y7839D01*
Y8824D01*
X11811Y8872D02*
X11859Y8824D01*
X11811Y8872D02*
Y9926D01*
X11791Y7785D02*
Y7787D01*
X11849Y7845D01*
Y8820D01*
X11799Y8869D02*
X11849Y8820D01*
X11799Y8869D02*
Y9869D01*
X11791Y9877D02*
X11799Y9869D01*
X11771Y7672D02*
Y7791D01*
X11839Y7859D01*
Y8815D01*
X11787Y8867D02*
X11839Y8815D01*
X11787Y8867D02*
Y9858D01*
X11772Y9874D02*
X11787Y9858D01*
X11772Y9874D02*
Y10374D01*
X11752Y7628D02*
Y7653D01*
X11752Y7785D02*
Y7791D01*
X11829Y7868D01*
Y8811D01*
X11775Y8865D02*
X11829Y8811D01*
X11775Y8865D02*
Y9820D01*
X11716Y9881D02*
X11776Y9821D01*
X11732Y7672D02*
Y7787D01*
X11819Y7874D01*
Y8807D01*
X11764Y8862D02*
X11819Y8807D01*
X11713Y7785D02*
Y7788D01*
X11809Y7884D01*
Y8803D01*
X11752Y8860D02*
X11809Y8803D01*
X11693Y7673D02*
Y7787D01*
X11799Y7893D01*
Y8799D01*
X11740Y8858D02*
X11799Y8799D01*
X11673Y7787D02*
X11789Y7903D01*
Y8795D01*
X11728Y8855D02*
X11789Y8795D01*
X11467Y7805D02*
X11476Y7795D01*
X11467Y7805D02*
Y8774D01*
X11476Y8783D01*
X11496Y7673D02*
Y7791D01*
X11477Y7810D02*
X11496Y7791D01*
X11477Y7810D02*
Y8760D01*
X11495Y8779D01*
X11516Y7785D02*
Y7787D01*
X11487Y7816D02*
X11516Y7787D01*
X11487Y7816D02*
Y8756D01*
X11508Y8777D02*
Y8928D01*
X11516Y8936D01*
X11487Y8756D02*
X11508Y8777D01*
X11535Y7672D02*
Y7792D01*
X11497Y7830D02*
X11535Y7792D01*
X11497Y7830D02*
Y8752D01*
X11520Y8775D02*
Y8925D01*
X11497Y8752D02*
X11520Y8775D01*
Y8925D02*
X11632Y9037D01*
X11555Y7785D02*
Y7788D01*
X11507Y7836D02*
X11555Y7788D01*
X11507Y7836D02*
Y8735D01*
X11555Y8783D01*
X11575Y7673D02*
Y7787D01*
X11517Y7845D02*
X11575Y7787D01*
X11517Y7845D02*
Y8722D01*
X11575Y8780D01*
Y8902D01*
X11527Y7855D02*
X11594Y7787D01*
X11527Y7855D02*
Y8718D01*
X11587Y8777D01*
Y8892D01*
X11594Y8899D01*
Y8984D01*
X11614Y7673D02*
Y7791D01*
X11537Y7868D02*
X11614Y7791D01*
X11537Y7868D02*
Y8713D01*
X11598Y8775D01*
Y8889D01*
X11606Y8897D01*
Y8924D01*
X11652Y8970D01*
X11437Y7785D02*
Y7795D01*
X11447Y7805D01*
X11417Y7672D02*
Y7791D01*
X11437Y7811D01*
X11398Y7785D02*
Y7788D01*
X11427Y7817D01*
Y8723D01*
X11378Y7673D02*
Y7787D01*
X11417Y7826D01*
Y8718D01*
X11386Y8750D02*
X11417Y8718D01*
X11386Y8750D02*
Y8775D01*
X11373Y8788D02*
X11386Y8775D01*
X11359Y7785D02*
Y7788D01*
X11407Y7836D01*
Y8714D01*
X11374Y8747D02*
X11407Y8714D01*
X11374Y8747D02*
Y8773D01*
X11362Y8785D02*
X11374Y8773D01*
X11338Y7672D02*
Y7787D01*
X11397Y7846D01*
Y8572D01*
X11339Y8630D02*
X11397Y8572D01*
X11319Y7787D02*
X11387Y7856D01*
Y8558D01*
X11323Y8622D02*
X11387Y8558D01*
X11323Y8622D02*
Y8728D01*
X11350Y8756D01*
Y9063D01*
X11299Y9114D02*
X11350Y9063D01*
X11358Y9287D02*
X11373Y9273D01*
X11339Y9362D02*
X11358Y9343D01*
X11339Y9362D02*
Y9374D01*
X11358Y9394D01*
Y9589D01*
X11342Y9605D02*
X11358Y9589D01*
Y9287D02*
Y9343D01*
X11373Y8788D02*
Y9273D01*
X11339Y9114D02*
X11362Y9091D01*
X11339Y9114D02*
Y9348D01*
X11311Y9376D02*
X11339Y9348D01*
X11311Y9590D02*
X11316Y9595D01*
X11311Y9376D02*
Y9591D01*
X11362Y8785D02*
Y9091D01*
X11299Y7672D02*
Y7787D01*
X11377Y7865D01*
Y8466D01*
X11299Y8543D02*
X11377Y8466D01*
X11280Y7787D02*
X11367Y7875D01*
Y8452D01*
X11283Y8535D02*
X11367Y8452D01*
X11283Y8535D02*
Y8591D01*
X11311Y8618D01*
X11260Y9087D02*
X11311Y9035D01*
Y8618D02*
Y9035D01*
X10115Y7790D02*
Y7800D01*
X10125Y7810D01*
Y8025D01*
X10115Y8035D02*
X10125Y8025D01*
X10115Y8035D02*
Y8050D01*
X10096Y7673D02*
Y7797D01*
X10115Y7816D01*
Y8020D01*
X10102Y8033D02*
X10115Y8020D01*
X10102Y8033D02*
Y8054D01*
X10076Y7790D02*
Y7793D01*
X10105Y7822D01*
Y8016D01*
X10091Y8031D02*
X10105Y8016D01*
X10091Y8031D02*
Y8059D01*
X10105Y8074D01*
X10056Y7673D02*
Y7794D01*
X10095Y7833D01*
Y8012D01*
X10079Y8028D02*
X10095Y8012D01*
X10079Y8028D02*
Y8064D01*
X10095Y8081D01*
X10036Y7792D02*
X10085Y7841D01*
Y8008D01*
X10067Y8026D02*
X10085Y8008D01*
X10067Y8026D02*
Y8067D01*
X10085Y8085D01*
X10017Y7672D02*
Y7794D01*
X10075Y7852D01*
Y8004D01*
X10055Y8024D02*
X10075Y8004D01*
X10055Y8024D02*
Y8075D01*
X10075Y8095D01*
X9997Y7790D02*
Y7792D01*
X10065Y7860D01*
Y8000D01*
X10043Y8021D02*
X10065Y8000D01*
X10043Y8021D02*
Y8079D01*
X10065Y8100D01*
Y8600D01*
X10039Y8626D02*
X10065Y8600D01*
X10039Y8626D02*
Y8646D01*
X10065Y8671D01*
Y8955D01*
X10039Y8980D02*
X10065Y8955D01*
X10039Y8980D02*
Y8996D01*
X10065Y9022D01*
Y9321D01*
X10039Y9346D02*
X10065Y9321D01*
X9977Y7672D02*
Y7794D01*
X10055Y7872D01*
Y7996D01*
X10031Y8019D02*
X10055Y7996D01*
X10031Y8019D02*
Y8083D01*
X10055Y8106D01*
Y8596D01*
X10028Y8624D02*
X10055Y8596D01*
X10028Y8624D02*
Y8650D01*
X10055Y8677D01*
Y8951D01*
X10028Y8978D02*
X10055Y8951D01*
X10028Y8978D02*
Y9000D01*
X10055Y9027D01*
Y9317D01*
X10028Y9344D02*
X10055Y9317D01*
X9958Y7792D02*
X10045Y7880D01*
Y7991D01*
X10020Y8017D02*
X10045Y7991D01*
X10020Y8017D02*
Y8087D01*
X10045Y8112D01*
Y8592D01*
X10016Y8621D02*
X10045Y8592D01*
X10016Y8621D02*
Y8654D01*
X10045Y8683D01*
X10016Y8976D02*
X10045Y8946D01*
X10016Y8976D02*
Y9008D01*
X10045Y9037D01*
Y9294D01*
X9980Y9358D02*
X10045Y9294D01*
X9980Y9358D02*
Y9516D01*
X9967Y9529D02*
X9980Y9516D01*
X9912Y9529D02*
X9967D01*
X9958Y7790D02*
Y7792D01*
X10045Y8683D02*
Y8946D01*
X9839Y7790D02*
Y8260D01*
X9843Y8264D01*
X9859Y7672D02*
Y7798D01*
X9849Y7808D02*
X9859Y7798D01*
X9849Y7808D02*
Y8256D01*
X9853Y8260D01*
X9879Y7790D02*
Y7794D01*
X9859Y7814D02*
X9879Y7794D01*
X9859Y7814D02*
Y8252D01*
X9866Y8259D01*
X9899Y7673D02*
Y7794D01*
X9869Y7824D02*
X9899Y7794D01*
X9869Y7824D02*
Y8248D01*
X9878Y8257D01*
X9879Y7830D02*
X9918Y7791D01*
X9879Y7830D02*
Y8244D01*
X9890Y8254D01*
Y8602D01*
X9917Y8630D02*
Y8646D01*
X9888Y8675D02*
X9917Y8646D01*
X9938Y7673D02*
Y7794D01*
X9889Y7843D02*
X9938Y7794D01*
X9889Y7843D02*
Y8145D01*
X9913Y8169D01*
Y8181D01*
X9889Y8205D02*
X9913Y8181D01*
X9889Y8205D02*
Y8240D01*
X9902Y8252D01*
Y8596D01*
X9929Y8624D01*
Y8650D01*
X9898Y8681D02*
X9929Y8650D01*
X9721Y7800D02*
X9731Y7810D01*
Y8243D01*
X9720Y8254D02*
X9731Y8243D01*
X9720Y8254D02*
Y8602D01*
X9728Y8610D01*
Y8815D01*
X9702Y7673D02*
Y7796D01*
X9721Y7815D01*
Y8239D01*
X9709Y8251D02*
X9721Y8239D01*
X9709Y8251D02*
Y8622D01*
X9682Y7790D02*
Y7792D01*
X9711Y7821D01*
Y8235D01*
X9697Y8249D02*
Y8612D01*
X9693Y8616D02*
X9697Y8612D01*
X9693Y8616D02*
Y8709D01*
X9669Y8732D02*
X9693Y8709D01*
X9697Y8249D02*
X9711Y8235D01*
X9663Y7673D02*
Y7793D01*
X9701Y7831D01*
Y8231D01*
X9685Y8247D02*
X9701Y8231D01*
X9685Y8247D02*
Y8610D01*
X9677Y8618D02*
X9685Y8610D01*
X9677Y8618D02*
Y8638D01*
X9643Y7792D02*
X9691Y7841D01*
Y8226D01*
X9673Y8244D02*
X9691Y8226D01*
X9673Y8244D02*
Y8607D01*
X9661Y8619D02*
X9673Y8607D01*
X9661Y8619D02*
Y8650D01*
X9683Y8671D01*
Y8705D01*
X9675Y8713D02*
X9683Y8705D01*
X9614Y8713D02*
X9675D01*
X9587Y8740D02*
X9614Y8713D01*
X11396Y8754D02*
Y8782D01*
X11409Y8795D01*
Y8815D01*
X11396Y8754D02*
X11427Y8723D01*
X10703Y9188D02*
Y9707D01*
X10709Y9713D01*
Y9906D01*
X10706Y9908D02*
X10709Y9906D01*
X10706Y9908D02*
Y9924D01*
X10703Y9188D02*
X10764Y9128D01*
X10713Y9193D02*
X10774Y9132D01*
X9268Y8276D02*
Y8583D01*
X9260Y8268D02*
X9268Y8276D01*
X11398Y8827D02*
X11409Y8815D01*
X11398Y8827D02*
Y8878D01*
X12294Y9392D02*
X12303Y9402D01*
Y9618D01*
X12280Y9642D02*
X12303Y9618D01*
X12304Y9388D02*
X12315Y9399D01*
Y9689D01*
X12362Y9736D01*
X12343Y7785D02*
Y8858D01*
X12319Y8882D02*
X12343Y8858D01*
X12353Y7801D02*
Y8864D01*
X12329Y8888D02*
X12353Y8864D01*
X12363Y7814D02*
Y8869D01*
X12339Y8893D02*
X12363Y8869D01*
X12319Y8882D02*
Y8890D01*
X12294Y8915D02*
X12319Y8890D01*
X12294Y8915D02*
Y9392D01*
X12329Y8888D02*
Y8896D01*
X12304Y8920D02*
X12329Y8896D01*
X12304Y8920D02*
Y9388D01*
X12373Y7820D02*
Y8887D01*
X12358Y8902D02*
X12373Y8887D01*
X11437Y7811D02*
Y8728D01*
X11421Y8744D02*
X11437Y8728D01*
X11421Y8744D02*
Y8819D01*
X11413Y8827D02*
X11421Y8819D01*
X11413Y8827D02*
Y8886D01*
X11383Y8916D02*
X11413Y8886D01*
X11383Y8916D02*
Y9273D01*
X11394Y9283D01*
Y9307D01*
X11378Y9323D02*
X11394Y9307D01*
X11378Y9323D02*
Y9799D01*
X11402Y9823D01*
X11447Y7805D02*
Y8734D01*
X11431Y8750D02*
X11447Y8734D01*
X11431Y8750D02*
Y8825D01*
X11423Y8833D02*
X11431Y8825D01*
X11393Y9086D02*
X11417Y9110D01*
Y9363D01*
X11388Y9393D02*
X11417Y9363D01*
X10681Y9182D02*
X10744Y9119D01*
Y7870D02*
Y9119D01*
X10669Y9180D02*
X10734Y9115D01*
Y7879D02*
Y9115D01*
X10637Y9686D02*
X10669Y9655D01*
X10658Y9176D02*
X10724Y9111D01*
X10658Y9176D02*
Y9421D01*
X10620Y9460D02*
X10658Y9421D01*
X10724Y7893D02*
Y9111D01*
X10676Y9687D02*
X10681Y9675D01*
X12338Y8924D02*
X12339Y8923D01*
Y8893D02*
Y8923D01*
X12236Y8843D02*
Y8887D01*
X12231Y8892D02*
X12236Y8887D01*
X12224Y8840D02*
Y8841D01*
X12214Y8851D02*
X12224Y8841D01*
X12214Y8851D02*
Y8913D01*
X9888Y8948D02*
X9918Y8978D01*
Y9184D01*
X9888Y8675D02*
Y8948D01*
X9890Y8602D02*
X9917Y8630D01*
X9898Y8944D02*
X9934Y8980D01*
Y9117D01*
X9898Y8681D02*
Y8944D01*
X9788Y9118D02*
X9843Y9064D01*
Y8264D02*
Y9064D01*
X11476Y7785D02*
Y7795D01*
X10338Y9012D02*
X10398Y8952D01*
X10338Y9012D02*
Y9036D01*
X10409Y8261D02*
Y8955D01*
X10358Y9006D02*
X10409Y8955D01*
X10358Y9006D02*
Y9031D01*
X10321Y9015D02*
X10386Y8950D01*
X10321Y9015D02*
Y9043D01*
X10331Y9053D01*
X10373D01*
X10386Y9066D01*
Y9094D01*
X10403Y9111D01*
X10310Y9012D02*
X10374Y8948D01*
X10310Y9012D02*
Y9048D01*
X10327Y9065D01*
X10364D01*
X10376Y9077D01*
X10299Y9008D02*
X10362Y8945D01*
X10299Y9008D02*
Y9052D01*
X10358Y9111D01*
X10287Y9006D02*
X10350Y8943D01*
X10287Y9006D02*
Y9057D01*
X10323Y9093D01*
Y9150D01*
X8856Y8445D02*
Y8446D01*
X8839Y8464D02*
X8856Y8446D01*
X8839Y8464D02*
Y9089D01*
X8837Y9091D02*
X8839Y9089D01*
X8837Y9091D02*
Y9382D01*
X8852Y9398D01*
X8864D01*
X8918Y9453D01*
X8894Y8525D02*
Y8576D01*
X8878Y8593D02*
X8894Y8576D01*
X8878Y8593D02*
Y9091D01*
X8872Y9096D02*
X8878Y9091D01*
X8872Y9096D02*
Y9388D01*
X8929Y9445D01*
X9850Y9354D02*
Y9388D01*
X9823Y9415D02*
X9850Y9388D01*
X9764Y10059D02*
X9823Y10000D01*
Y9415D02*
Y10000D01*
X9874Y9354D02*
Y9380D01*
X9833Y9421D02*
X9874Y9380D01*
X9833Y9421D02*
Y10029D01*
X9803Y10059D02*
X9833Y10029D01*
X8918Y9453D02*
Y9791D01*
X8929Y9788D02*
X9003Y9862D01*
Y10112D01*
X8929Y9445D02*
Y9788D01*
X8918Y9791D02*
X8980Y9853D01*
Y10120D01*
X9764Y10059D02*
Y10079D01*
X9803Y10059D02*
Y10079D01*
X9093Y8880D02*
X9095D01*
X9076Y8863D02*
X9093Y8880D01*
X9076Y8779D02*
Y8863D01*
Y8779D02*
X9095Y8760D01*
X9951Y9009D02*
Y9437D01*
X9895Y9493D02*
X9951Y9437D01*
X9895Y9493D02*
Y9543D01*
X9904Y9552D01*
X9971D01*
X9999Y9525D01*
Y9470D02*
Y9525D01*
X9721Y7790D02*
Y7800D01*
X9130Y8447D02*
X9130D01*
X9150Y8467D01*
Y8577D01*
X9175Y8602D01*
X9468D01*
X9509Y8644D01*
X7505Y8914D02*
X7521Y8898D01*
X8013D01*
X7532Y8929D02*
X7546Y8916D01*
X7992D01*
X8570Y10781D02*
Y10792D01*
X8554Y10808D02*
X8570Y10792D01*
X8554Y10808D02*
Y10910D01*
X8540Y8680D02*
X8540D01*
X8580Y8719D01*
X8619Y8995D02*
X8620D01*
X8624Y9457D02*
Y9513D01*
X8559Y9505D02*
X8570Y9516D01*
Y9956D01*
X8586Y9972D01*
Y9987D01*
X8559Y8801D02*
Y9505D01*
X8569Y9501D02*
X8582Y9513D01*
Y9953D01*
X8596Y9968D01*
Y9992D01*
X8569Y8767D02*
Y9501D01*
X8580Y9497D02*
X8593Y9510D01*
Y9950D01*
X8606Y9964D01*
Y9996D01*
X8590Y10012D02*
X8606Y9996D01*
X8590Y10012D02*
Y10269D01*
X8614Y10293D01*
Y10308D01*
X8590Y10332D02*
X8614Y10308D01*
X8590Y10332D02*
Y10798D01*
X8598Y10806D01*
Y10967D01*
X8554Y11011D02*
X8598Y10967D01*
X8580Y8719D02*
Y9497D01*
X9090Y8956D02*
Y8957D01*
X9112Y8979D01*
Y10202D01*
X11316Y9595D02*
Y9596D01*
X11323Y9602D01*
X11256Y9744D02*
X11313Y9687D01*
X11260Y9593D02*
X11271Y9603D01*
X11260Y9087D02*
Y9593D01*
X11271Y9603D02*
Y9686D01*
X11252Y9705D02*
X11271Y9686D01*
X11251Y9617D02*
Y9682D01*
X9130Y8957D02*
Y8958D01*
X9150Y8977D01*
X8893Y9191D02*
Y9192D01*
X8912Y9212D01*
Y9414D02*
X8940Y9442D01*
Y9785D01*
X9014Y9859D01*
X8912Y9212D02*
Y9414D01*
X9033Y9096D02*
Y9473D01*
X9060Y9500D01*
Y10826D01*
X9028Y10858D02*
X9060Y10826D01*
X9028Y10858D02*
Y11096D01*
X9023Y11101D02*
X9028Y11096D01*
X9014Y10102D02*
X9020Y10108D01*
Y10194D01*
X9036Y10211D01*
X9014Y9859D02*
Y10102D01*
X11539Y9618D02*
Y9648D01*
X11519Y9668D02*
X11539Y9648D01*
X8662Y8898D02*
X8680Y8916D01*
Y9358D01*
X8666Y9371D02*
X8680Y9358D01*
X8653Y9371D02*
X8666D01*
X8610Y8898D02*
X8662D01*
X8642Y9435D02*
X8647Y9440D01*
X8642Y9382D02*
Y9435D01*
Y9382D02*
X8653Y9371D01*
X8647Y9440D02*
Y9523D01*
X8624Y9457D02*
X8624D01*
X8604Y9437D02*
X8624Y9457D01*
X8604Y9011D02*
Y9437D01*
Y9011D02*
X8620Y8995D01*
X8614Y8915D02*
X8615D01*
X8590Y8939D02*
X8614Y8915D01*
X8590Y8939D02*
Y9493D01*
X8603Y9507D01*
Y9947D01*
X8617Y9961D02*
Y10000D01*
X8600Y10017D02*
X8617Y10000D01*
X8600Y10017D02*
Y10265D01*
X8625Y10290D01*
Y10313D01*
X8600Y10338D02*
X8625Y10313D01*
X8600Y10338D02*
Y10794D01*
X8609Y10803D01*
Y11296D01*
X8603Y9947D02*
X8617Y9961D01*
X9150Y8977D02*
Y9274D01*
X9166Y9290D01*
X9179D01*
X9131Y9367D02*
X9150Y9386D01*
X9131Y9312D02*
Y9367D01*
X9150Y9386D02*
Y9955D01*
X9229Y9341D02*
Y10138D01*
X9179Y9290D02*
X9229Y9341D01*
X9150Y10218D02*
X9229Y10138D01*
X9171Y9369D02*
X9190Y9388D01*
Y9954D01*
X9171Y9312D02*
Y9369D01*
X11202Y9609D02*
Y11184D01*
X11900Y11882D01*
X11961D01*
X12005Y11926D01*
X5577Y8064D02*
Y8369D01*
X9015Y8841D02*
X9037Y8863D01*
Y8887D01*
X9048Y8898D01*
X9107D01*
X9193Y8983D01*
Y9290D01*
X9272Y9369D01*
Y10073D02*
X9290Y10092D01*
X9341D01*
X9272Y9369D02*
Y10073D01*
X8110Y8955D02*
Y8956D01*
X8090Y8976D02*
X8110Y8956D01*
X8024Y8976D02*
X8090D01*
X7972Y9028D02*
X8024Y8976D01*
X12607Y8049D02*
X12607D01*
X12599Y8057D02*
X12607Y8049D01*
X12599Y8057D02*
Y8076D01*
X12606Y8082D01*
Y8762D01*
X12598Y8769D02*
X12606Y8762D01*
X7972Y10105D02*
X7993Y10126D01*
Y10180D01*
X7972Y9028D02*
Y10105D01*
X12598Y8769D02*
Y10124D01*
X12067Y7628D02*
Y7653D01*
X8173Y6776D02*
X8216Y6818D01*
X8173Y6343D02*
Y6776D01*
X8102Y6271D02*
X8173Y6343D01*
X7100Y6271D02*
X8102D01*
X8161Y6778D02*
X8206Y6823D01*
X8161Y6417D02*
Y6778D01*
X8206Y6823D02*
Y7689D01*
X8151Y6781D02*
X8193Y6824D01*
X8151Y6421D02*
Y6781D01*
X8193Y6824D02*
Y7688D01*
X8183Y6828D02*
Y7232D01*
X8138Y6783D02*
X8183Y6828D01*
X8138Y6422D02*
Y6783D01*
X8126Y6785D02*
X8173Y6832D01*
X8126Y6493D02*
Y6785D01*
X8042Y6409D02*
X8126Y6493D01*
X7517Y6409D02*
X8042D01*
X8173Y6832D02*
Y7228D01*
X8070Y7314D02*
Y7369D01*
Y7314D02*
X8163Y7221D01*
Y6836D02*
Y7221D01*
X8115Y6788D02*
X8163Y6836D01*
X8115Y6573D02*
Y6788D01*
X8005Y6463D02*
X8115Y6573D01*
X7171Y6463D02*
X8005D01*
X7117Y6409D02*
X7171Y6463D01*
X8060Y7309D02*
Y7364D01*
Y7309D02*
X8153Y7216D01*
Y6869D02*
Y7216D01*
X8120Y6836D02*
X8153Y6869D01*
X6677Y8246D02*
X6677Y8246D01*
Y7799D02*
Y8246D01*
X8180Y8347D02*
X8206D01*
X8247Y8335D02*
X8257Y8344D01*
X8247Y8127D02*
Y8335D01*
X8237Y8117D02*
X8247Y8127D01*
X8237Y7740D02*
Y8117D01*
Y7740D02*
X8244Y7733D01*
Y7710D02*
Y7733D01*
X8216Y7682D02*
X8244Y7710D01*
X8257Y8344D02*
X8264D01*
X8216Y6818D02*
Y7682D01*
X8208Y8333D02*
X8218Y8343D01*
X8208Y7691D02*
Y8333D01*
X8206Y7689D02*
X8208Y7691D01*
X8180Y8346D02*
Y8347D01*
X8169Y8336D02*
X8180Y8346D01*
X8169Y7712D02*
X8193Y7688D01*
X8169Y7712D02*
Y8336D01*
X8108Y8328D02*
X8109D01*
X8129Y8308D01*
Y7730D02*
Y8308D01*
Y7730D02*
X8141Y7719D01*
Y7702D02*
Y7719D01*
X8124Y7685D02*
X8141Y7702D01*
X8124Y7291D02*
Y7685D01*
Y7291D02*
X8183Y7232D01*
X8070Y8327D02*
Y8327D01*
Y8327D02*
X8091Y8306D01*
Y7310D02*
Y8306D01*
Y7310D02*
X8173Y7228D01*
X8051Y8248D02*
Y8330D01*
X8033Y8230D02*
X8051Y8248D01*
X8028Y8230D02*
X8033D01*
X8014Y8217D02*
X8028Y8230D01*
X8014Y7425D02*
Y8217D01*
Y7425D02*
X8070Y7369D01*
X8210Y8412D02*
X8227Y8430D01*
X8210Y8368D02*
Y8412D01*
X8199Y8357D02*
X8210Y8368D01*
X8174Y8357D02*
X8199D01*
X8163Y8346D02*
X8174Y8357D01*
X8067Y8346D02*
X8163D01*
X8051Y8330D02*
X8067Y8346D01*
X8227Y8430D02*
Y8447D01*
X8024Y8425D02*
X8129D01*
X8012Y8413D02*
X8024Y8425D01*
X8012Y8244D02*
Y8413D01*
X7997Y8229D02*
X8012Y8244D01*
X8129Y8425D02*
X8146Y8408D01*
X7987Y8229D02*
X7997D01*
X7973Y8216D02*
X7987Y8229D01*
X7973Y7818D02*
Y8216D01*
Y7818D02*
X8004Y7788D01*
Y7421D02*
Y7788D01*
Y7421D02*
X8060Y7364D01*
X7990Y8251D02*
X7992D01*
X7934Y8195D02*
X7990Y8251D01*
X7934Y8038D02*
Y8195D01*
Y8038D02*
X7963Y8009D01*
Y7903D02*
Y8009D01*
X7805Y7745D02*
X7963Y7903D01*
X8069Y8367D02*
Y8369D01*
X8087Y8387D01*
X8161D01*
X8207Y8432D01*
Y8453D01*
X8219Y8465D01*
X8314D01*
X8327Y8452D01*
Y8321D02*
Y8452D01*
X8313Y8307D02*
X8327Y8321D01*
X8297Y8307D02*
X8313D01*
X8287Y8297D02*
X8297Y8307D01*
X8287Y8055D02*
Y8297D01*
X8276Y8043D02*
X8287Y8055D01*
X8276Y7633D02*
Y8043D01*
X8268Y7625D02*
X8276Y7633D01*
X8268Y7625D02*
X8268Y6852D01*
X8891Y6641D02*
Y7505D01*
Y6641D02*
X8905Y6627D01*
X8697Y6811D02*
Y7655D01*
X9336Y6803D02*
X9337Y6802D01*
X8923Y7551D02*
Y7553D01*
Y7551D02*
X8938Y7536D01*
X8918Y6644D02*
X8928Y6634D01*
Y6616D02*
Y6634D01*
X8918Y6606D02*
X8928Y6616D01*
X8918Y6644D02*
Y7520D01*
X8938Y6670D02*
X8962Y6647D01*
X8938Y6670D02*
Y7536D01*
X8954Y6757D02*
Y7586D01*
Y6757D02*
X8970Y6740D01*
X8974Y6769D02*
Y7604D01*
Y6769D02*
X8995Y6748D01*
X8995Y6590D01*
X9053Y6623D02*
Y7504D01*
X8933Y9259D02*
Y9311D01*
Y9259D02*
X8952Y9240D01*
Y8219D02*
Y9240D01*
Y8219D02*
X8969Y8203D01*
Y7664D02*
Y8203D01*
Y7664D02*
X9014Y7618D01*
Y6810D02*
Y7618D01*
Y6810D02*
X9021Y6803D01*
Y6645D02*
Y6803D01*
X9005Y6629D02*
X9021Y6645D01*
X9005Y6612D02*
Y6629D01*
Y6612D02*
X9028Y6590D01*
Y6499D02*
Y6590D01*
X12435Y7856D02*
Y8372D01*
Y7856D02*
X12499Y7792D01*
Y7678D02*
Y7792D01*
X12389Y6899D02*
Y7147D01*
Y6899D02*
X12409Y6878D01*
Y6850D02*
Y6878D01*
X12453Y7853D02*
Y8389D01*
Y7853D02*
X12510Y7796D01*
X12491Y7159D02*
Y7594D01*
X12434Y7102D02*
X12491Y7159D01*
X12500Y8122D02*
Y8353D01*
X12493Y8115D02*
X12500Y8122D01*
X12493Y7827D02*
Y8115D01*
X12389Y7147D02*
X12477Y7235D01*
Y7656D01*
X12499Y7678D01*
X12510Y7674D02*
Y7796D01*
X12487Y7652D02*
X12510Y7674D01*
X12487Y7598D02*
Y7652D01*
Y7598D02*
X12491Y7594D01*
X12485Y6923D02*
X12525Y6963D01*
X12485Y6905D02*
Y6923D01*
Y6905D02*
X12502Y6888D01*
X10846Y6644D02*
Y6710D01*
X10925Y6788D01*
X11051Y7669D02*
Y7799D01*
X10944Y7906D02*
X11051Y7799D01*
X10944Y7906D02*
Y8738D01*
X10971Y8766D01*
Y8794D01*
X10944Y8822D02*
X10971Y8794D01*
X10944Y9053D02*
X10994Y9103D01*
X10944Y8822D02*
Y9053D01*
X10391Y7790D02*
X10391Y7790D01*
X10391Y7790D02*
Y7800D01*
X10866Y6663D02*
Y6715D01*
X10937Y6786D01*
X10954Y7910D02*
Y8589D01*
X10983Y8618D01*
Y8944D01*
X10976Y8951D02*
X10983Y8944D01*
X10976Y8951D02*
Y9060D01*
X11019Y9102D01*
Y9219D01*
X10998Y9240D02*
X11019Y9219D01*
X10998Y9240D02*
Y9284D01*
X10946Y9337D02*
X10998Y9284D01*
X10886Y6657D02*
Y6683D01*
X10842Y6613D02*
X10886Y6657D01*
X10702Y6613D02*
X10842D01*
X10567Y6748D02*
X10702Y6613D01*
X10567Y6748D02*
Y7647D01*
X10585Y7664D01*
Y9234D02*
X10608Y9258D01*
Y9278D01*
X10585Y7664D02*
Y9234D01*
X12264Y7628D02*
Y7680D01*
X10906Y6703D02*
Y6740D01*
X10948Y6783D01*
X10925Y7509D02*
X11038Y7622D01*
Y7656D01*
X11051Y7669D01*
X10925Y6788D02*
Y7509D01*
X10937Y7507D02*
X11049Y7619D01*
X10937Y6786D02*
Y7507D01*
X11049Y7619D02*
Y7653D01*
X11063Y7666D01*
Y7736D01*
X11085Y7758D01*
Y7780D01*
X10954Y7910D02*
X11085Y7780D01*
X10948Y7503D02*
X11060Y7615D01*
Y7649D01*
X11074Y7663D01*
Y7733D01*
X11095Y7755D01*
Y8465D01*
X11067Y8493D02*
X11095Y8465D01*
X11067Y8493D02*
Y9064D01*
X11036Y9094D02*
X11067Y9064D01*
X11036Y9094D02*
Y9190D01*
X11061Y9215D01*
Y9246D01*
X10932Y9375D02*
X11061Y9246D01*
X10932Y9375D02*
Y9490D01*
X10948Y6783D02*
Y7503D01*
X8069Y8544D02*
X8069Y8526D01*
X8069Y8544D02*
X8091Y8554D01*
X8385Y8760D02*
X8390D01*
X8406Y8744D01*
Y8667D02*
Y8744D01*
Y8667D02*
X8444Y8629D01*
Y7982D02*
Y8629D01*
X8366Y7905D02*
X8444Y7982D01*
X8366Y7752D02*
Y7905D01*
X8354Y7907D02*
X8406Y7958D01*
X8354Y7754D02*
Y7907D01*
X8341Y7741D02*
X8354Y7754D01*
X8341Y7628D02*
Y7741D01*
X8295Y7583D02*
X8341Y7628D01*
X8295Y7562D02*
Y7583D01*
Y7562D02*
X8341Y7516D01*
Y7201D02*
Y7516D01*
Y7201D02*
X8412Y7130D01*
Y6737D02*
Y7130D01*
X8109Y8526D02*
Y8526D01*
X8126Y8543D01*
X8091Y8554D02*
Y8571D01*
X8102Y8583D01*
X8391D01*
X8406Y8568D01*
Y7958D02*
Y8568D01*
X8351Y8543D02*
X8366Y8529D01*
Y7933D02*
Y8529D01*
X8344Y7910D02*
X8366Y7933D01*
X8344Y7758D02*
Y7910D01*
X8330Y7744D02*
X8344Y7758D01*
X8330Y7631D02*
Y7744D01*
X8284Y7586D02*
X8330Y7631D01*
X8284Y7558D02*
Y7586D01*
Y7558D02*
X8331Y7511D01*
Y7192D02*
Y7511D01*
X8314Y7174D02*
X8331Y7192D01*
X8314Y7153D02*
Y7174D01*
Y7153D02*
X8396Y7071D01*
Y6764D02*
Y7071D01*
X8126Y8543D02*
X8351D01*
X12525Y6889D02*
Y6938D01*
X12639Y7478D02*
X12769Y7608D01*
Y7760D01*
X12721Y7807D02*
X12769Y7760D01*
X12639Y6580D02*
Y7478D01*
X12629Y7042D02*
Y7569D01*
X12611Y7587D02*
X12629Y7569D01*
X12611Y7587D02*
Y8019D01*
X12525Y6938D02*
X12629Y7042D01*
X12525Y8106D02*
Y8568D01*
Y8106D02*
X12611Y8019D01*
X12525Y6963D02*
Y7795D01*
X12493Y7827D02*
X12525Y7795D01*
X7898Y8399D02*
Y8491D01*
X7854Y8355D02*
X7898Y8399D01*
X7854Y7866D02*
Y8355D01*
X7745Y7757D02*
X7854Y7866D01*
X7745Y7701D02*
Y7757D01*
X7721Y7677D02*
X7745Y7701D01*
X7721Y6827D02*
Y7677D01*
X7421Y8564D02*
X7788D01*
X7190Y8795D02*
X7421Y8564D01*
X7190Y8795D02*
Y9544D01*
X7982Y10337D01*
X8100D01*
X8132Y10368D01*
X8258D01*
X8325Y10301D01*
Y10036D02*
Y10301D01*
Y10036D02*
X8332Y10030D01*
Y9877D02*
Y10030D01*
X11839Y8885D02*
X11852D01*
X11879Y8858D01*
Y7816D02*
Y8858D01*
X12382Y7628D02*
Y7682D01*
Y7785D02*
Y7795D01*
X8328Y9575D02*
Y9708D01*
X8364Y9744D01*
X8338Y9569D02*
Y9694D01*
X8388Y9744D01*
Y9761D01*
X8348Y9564D02*
Y9656D01*
X8404Y9712D01*
Y9798D01*
X8352Y9850D02*
X8404Y9798D01*
X8352Y9850D02*
Y9908D01*
X8358Y9560D02*
Y9652D01*
X8414Y9708D01*
Y9813D01*
X8365Y9862D02*
X8414Y9813D01*
X8393Y9501D02*
Y9673D01*
X8425Y9705D01*
Y9827D01*
X8385Y9867D02*
X8425Y9827D01*
X8386Y9428D02*
X8406Y9448D01*
Y9671D01*
X8436Y9702D01*
Y9839D01*
X8403Y9872D02*
X8436Y9839D01*
X12264Y7785D02*
Y7791D01*
X11594Y7785D02*
Y7787D01*
X8796Y9449D02*
Y9658D01*
X8847Y9710D01*
X8833Y9463D02*
Y9608D01*
X8881Y9656D01*
Y9791D01*
X8757Y9371D02*
Y9677D01*
X8771Y9691D01*
X8587Y7924D02*
Y8212D01*
X8552Y7889D02*
X8587Y7924D01*
X8552Y7879D02*
Y7889D01*
X8506Y7833D02*
X8552Y7879D01*
X8586Y7898D02*
X8599Y7911D01*
Y8189D01*
X8622Y7885D02*
X8637Y7900D01*
X8599Y7885D02*
X8622D01*
X8586Y7871D02*
X8599Y7885D01*
X8637Y7900D02*
Y8268D01*
X10962Y9144D02*
Y9150D01*
X10212Y9413D02*
Y9651D01*
X10186Y9676D02*
X10212Y9651D01*
X10186Y9676D02*
Y9851D01*
X10214Y9879D01*
X10273Y7628D02*
Y7652D01*
X10028Y9344D02*
Y9370D01*
X10096Y9439D01*
Y9465D01*
X9978Y9583D02*
X10096Y9465D01*
X8386Y9428D02*
Y9428D01*
X9978Y9583D02*
Y9872D01*
X10039Y9368D02*
X10107Y9436D01*
Y9469D01*
X9998Y9578D02*
X10107Y9469D01*
X9998Y9578D02*
Y9833D01*
X10037Y9872D01*
X10039Y9346D02*
Y9368D01*
X10075Y9389D02*
X10118Y9432D01*
X10075Y8095D02*
Y9389D01*
X10118Y9432D02*
Y9472D01*
X10022Y9569D02*
X10118Y9472D01*
X10022Y9569D02*
Y9813D01*
X10097Y9888D01*
X10033Y9595D02*
X10151Y9478D01*
X10033Y9595D02*
Y9799D01*
X10083Y9849D01*
X10117D01*
X10036Y7790D02*
Y7792D01*
X10171Y9429D02*
Y9508D01*
X10049Y9630D02*
X10171Y9508D01*
X10049Y9630D02*
Y9792D01*
X10083Y9826D01*
X10121D01*
X10133Y9838D01*
Y9899D01*
X10157Y9560D02*
Y9560D01*
X10060Y9657D02*
X10157Y9560D01*
X10060Y9657D02*
Y9770D01*
X10073Y9782D01*
X10693Y9184D02*
Y9698D01*
X10669Y9721D02*
X10693Y9698D01*
X10551Y9721D02*
X10669D01*
X10666Y7628D02*
Y7653D01*
X10713Y9193D02*
Y9652D01*
X10753Y9692D01*
X10706Y7628D02*
Y7653D01*
X12649Y8127D02*
X12666Y8145D01*
Y8216D01*
X12646Y8236D02*
X12666Y8216D01*
X12646Y8236D02*
Y8796D01*
X12626Y8106D02*
Y8784D01*
Y8106D02*
X12632Y8100D01*
X9643Y7790D02*
Y7792D01*
X7457Y6369D02*
X7901D01*
X7945Y6325D01*
X8041D01*
X8138Y6422D01*
X7367Y6359D02*
X7897D01*
X7941Y6315D01*
X8045D01*
X8151Y6421D01*
X7278Y6348D02*
X7893D01*
X7937Y6305D01*
X8049D01*
X8161Y6417D01*
D83*
X8482Y7989D02*
Y8772D01*
X8438Y7945D02*
X8482Y7989D01*
Y8772D02*
X8521Y8810D01*
X8522D01*
X8008Y8858D02*
X8513D01*
Y8857D02*
X8522Y8848D01*
X11511Y7210D02*
X11584D01*
X11260Y7461D02*
X11511Y7210D01*
X11260Y7461D02*
Y8868D01*
X7990Y8840D02*
X8008Y8858D01*
X8522Y8810D02*
Y8848D01*
D84*
X13185Y6000D02*
Y12300D01*
X3999Y6000D02*
Y12299D01*
Y6000D02*
X13185D01*
X4575Y12150D02*
Y12299D01*
Y12150D02*
X6200D01*
Y12300D01*
X9350Y12150D02*
Y12300D01*
Y12150D02*
X10975D01*
Y12300D01*
X3999Y12299D02*
X4574D01*
X6200Y12300D02*
X9349D01*
X10975D02*
X13185D01*
D87*
X6861Y8592D02*
X6887Y8566D01*
X6861Y8592D02*
Y9205D01*
X5960Y6645D02*
Y7011D01*
X5917Y7054D02*
X5960Y7011D01*
X5917Y7054D02*
Y7188D01*
X5891Y7214D02*
X5917Y7188D01*
X5891Y7214D02*
Y7239D01*
X6012Y7360D01*
Y7474D01*
X5965Y7521D02*
X6012Y7474D01*
X5965Y7521D02*
Y8245D01*
X5941Y7015D02*
X5941Y6656D01*
X5905Y7050D02*
X5941Y7015D01*
X5905Y7050D02*
Y7184D01*
X5880Y7209D02*
X5905Y7184D01*
X5880Y7209D02*
Y7244D01*
X6001Y7365D01*
Y7470D01*
X5926Y7545D02*
X6001Y7470D01*
X5926Y7545D02*
Y8245D01*
X4260Y7140D02*
X4260D01*
X4399Y7279D01*
Y8782D01*
D89*
X12887Y12454D02*
X12885Y12452D01*
X12887Y12450D01*
X12889Y12452D01*
X12887Y12454D01*
X12926Y12480D02*
X12924Y12484D01*
X12920Y12488D01*
X12917Y12490D01*
X12909D01*
X12905Y12488D01*
X12901Y12484D01*
X12899Y12480D01*
X12898Y12475D01*
Y12465D01*
X12899Y12460D01*
X12901Y12456D01*
X12905Y12452D01*
X12909Y12450D01*
X12917D01*
X12920Y12452D01*
X12924Y12456D01*
X12926Y12460D01*
Y12465D01*
X12917D02*
X12926D01*
X12935Y12482D02*
X12939Y12484D01*
X12945Y12490D01*
Y12450D01*
X12967Y12480D02*
Y12482D01*
X12968Y12486D01*
X12970Y12488D01*
X12974Y12490D01*
X12982D01*
X12986Y12488D01*
X12987Y12486D01*
X12989Y12482D01*
Y12479D01*
X12987Y12475D01*
X12984Y12469D01*
X12965Y12450D01*
X12991D01*
D94*
X12434Y7102D02*
D03*
X4260Y7140D02*
D03*
D98*
X11950Y12058D02*
D03*
X7017Y6409D02*
D03*
X7117D02*
D03*
X7217D02*
D03*
X7317D02*
D03*
X7417D02*
D03*
X7517D02*
D03*
D118*
X11485Y9736D02*
D03*
X7788Y8564D02*
D03*
X7898Y8491D02*
D03*
X8332Y9877D02*
D03*
X12225Y7342D02*
D03*
X11756Y7421D02*
D03*
X8869Y7736D02*
D03*
X8763Y6579D02*
D03*
X10606Y7844D02*
D03*
X10614Y9156D02*
D03*
X11675Y8949D02*
D03*
X11715Y8717D02*
D03*
X11170Y8223D02*
D03*
X11140Y8166D02*
D03*
X8812Y6661D02*
D03*
X8821Y7363D02*
D03*
X9092Y6456D02*
D03*
X10591Y9689D02*
D03*
X10236Y8067D02*
D03*
X10203Y8066D02*
D03*
X8609Y6627D02*
D03*
X8871Y6658D02*
D03*
X12697Y9320D02*
D03*
X12637Y9386D02*
D03*
X12728Y9370D02*
D03*
X7765Y6856D02*
D03*
X7850Y6838D02*
D03*
X9094Y6721D02*
D03*
X9072Y6664D02*
D03*
X9023Y6623D02*
D03*
X9487Y11686D02*
D03*
X9360Y7074D02*
D03*
X12619Y8861D02*
D03*
X8539Y7243D02*
D03*
X9653Y8465D02*
D03*
X9542Y8209D02*
D03*
X6892Y8988D02*
D03*
Y9243D02*
D03*
X7100Y9087D02*
D03*
X7101Y8996D02*
D03*
X7072Y9249D02*
D03*
X6983Y9045D02*
D03*
X7067Y9031D02*
D03*
X7048Y9016D02*
D03*
X8771Y9691D02*
D03*
X9874Y9354D02*
D03*
X9850D02*
D03*
X9566Y8283D02*
D03*
X9567Y8137D02*
D03*
X9900Y9170D02*
D03*
X10207Y8278D02*
D03*
X6539Y8256D02*
D03*
X7429Y8445D02*
D03*
X7457D02*
D03*
X7480D02*
D03*
X7504D02*
D03*
X7110Y8291D02*
D03*
X7130Y8327D02*
D03*
X7091D02*
D03*
X7071Y8291D02*
D03*
X7051Y8327D02*
D03*
X7031Y8291D02*
D03*
X7012Y8327D02*
D03*
X6992Y8291D02*
D03*
X6972Y8327D02*
D03*
X6953Y8291D02*
D03*
X6913D02*
D03*
X6933Y8327D02*
D03*
X6894D02*
D03*
X6835D02*
D03*
X6772Y8248D02*
D03*
X6744D02*
D03*
X6717D02*
D03*
X6677D02*
D03*
X6638D02*
D03*
X6697Y8331D02*
D03*
X6657D02*
D03*
X6618D02*
D03*
X6559Y8248D02*
D03*
X6520D02*
D03*
X11476Y8783D02*
D03*
X11575Y8902D02*
D03*
X9871Y9151D02*
D03*
X11256Y10091D02*
D03*
X12214Y8913D02*
D03*
X9788Y9118D02*
D03*
X9845Y9152D02*
D03*
X10156Y9196D02*
D03*
X9934Y9117D02*
D03*
X9918Y9184D02*
D03*
X12087Y10169D02*
D03*
X11772Y10374D02*
D03*
X12480Y10354D02*
D03*
X10479Y9448D02*
D03*
X12067Y9464D02*
D03*
X10061Y9971D02*
D03*
X10123Y9528D02*
D03*
X12264Y10185D02*
D03*
X10421Y10108D02*
D03*
X11716Y9881D02*
D03*
X10037Y9872D02*
D03*
X11969Y10163D02*
D03*
X11949Y10143D02*
D03*
X7218Y9453D02*
D03*
X11107Y8543D02*
D03*
X11094Y9718D02*
D03*
X11299Y8543D02*
D03*
X11462Y9822D02*
D03*
X11483Y9821D02*
D03*
X11452Y9677D02*
D03*
X11536Y9683D02*
D03*
X11378Y10124D02*
D03*
X10930Y9149D02*
D03*
X8847Y9710D02*
D03*
X10962Y9149D02*
D03*
X9567Y8899D02*
D03*
X9547Y8800D02*
D03*
X9545Y10003D02*
D03*
X9547Y9969D02*
D03*
X10900Y9987D02*
D03*
X8735Y9983D02*
D03*
X10804Y9965D02*
D03*
X8714D02*
D03*
X10784Y9947D02*
D03*
X8694Y9943D02*
D03*
X10706Y9924D02*
D03*
X8673D02*
D03*
X12225Y9908D02*
D03*
X8352D02*
D03*
X10097Y9888D02*
D03*
X8385Y9885D02*
D03*
X9978Y9872D02*
D03*
X8403D02*
D03*
X11791Y9877D02*
D03*
X8388Y9761D02*
D03*
X12244Y9657D02*
D03*
X8364Y9744D02*
D03*
X11870Y9662D02*
D03*
X8202Y9690D02*
D03*
X6805Y8799D02*
D03*
Y9130D02*
D03*
X7021Y9214D02*
D03*
Y8567D02*
D03*
X7041Y8614D02*
D03*
Y9193D02*
D03*
X6988Y9187D02*
D03*
X6999Y8911D02*
D03*
X10146Y9676D02*
D03*
X8500D02*
D03*
X8639Y11313D02*
D03*
X10765Y9493D02*
D03*
X5775Y9163D02*
D03*
X6055Y8968D02*
D03*
X5737Y9163D02*
D03*
X6044Y8642D02*
D03*
X8126Y10325D02*
D03*
X8088Y10300D02*
D03*
X8048Y10269D02*
D03*
X8009Y10083D02*
D03*
X7931Y10126D02*
D03*
X8862Y11143D02*
D03*
X9023Y11101D02*
D03*
X9393Y9968D02*
D03*
X9643Y7628D02*
D03*
X9682D02*
D03*
X9721D02*
D03*
X9761D02*
D03*
X9840D02*
D03*
X9879D02*
D03*
X9918D02*
D03*
X9958D02*
D03*
X9997D02*
D03*
X10036D02*
D03*
X10075D02*
D03*
X10115D02*
D03*
X10154D02*
D03*
X10233D02*
D03*
X10273D02*
D03*
X10312D02*
D03*
X10352D02*
D03*
X10391D02*
D03*
X10430D02*
D03*
X10470D02*
D03*
X10509D02*
D03*
X10548D02*
D03*
X10627D02*
D03*
X10667D02*
D03*
X10706D02*
D03*
X10745D02*
D03*
X10785D02*
D03*
X10824D02*
D03*
X10863D02*
D03*
X10903D02*
D03*
X10942D02*
D03*
X10982D02*
D03*
X11021D02*
D03*
X11280Y7627D02*
D03*
X11319Y7628D02*
D03*
X11358D02*
D03*
X11398D02*
D03*
X11437D02*
D03*
X11476D02*
D03*
X11516D02*
D03*
X11555D02*
D03*
X11594D02*
D03*
X11673D02*
D03*
X11713D02*
D03*
X11752D02*
D03*
X11791D02*
D03*
X11831D02*
D03*
X11870D02*
D03*
X11909D02*
D03*
X11950D02*
D03*
X11988D02*
D03*
X12027D02*
D03*
X12067D02*
D03*
X12106D02*
D03*
X12185D02*
D03*
X12225D02*
D03*
X12264D02*
D03*
X12303D02*
D03*
X12343D02*
D03*
X12382D02*
D03*
X12421D02*
D03*
X12461D02*
D03*
Y7785D02*
D03*
X12420D02*
D03*
X12382D02*
D03*
X12343D02*
D03*
X12303D02*
D03*
X12264D02*
D03*
X12225D02*
D03*
X12185D02*
D03*
X12106D02*
D03*
X12067D02*
D03*
X12027D02*
D03*
X11988D02*
D03*
X11949D02*
D03*
X11909D02*
D03*
X11870D02*
D03*
X11831Y7783D02*
D03*
X11791Y7785D02*
D03*
X11752D02*
D03*
X11713D02*
D03*
X11673D02*
D03*
X11595D02*
D03*
X11555D02*
D03*
X11516D02*
D03*
X11477D02*
D03*
X11437D02*
D03*
X11398D02*
D03*
X11359D02*
D03*
X11319D02*
D03*
X11280D02*
D03*
X11021Y7790D02*
D03*
X10981D02*
D03*
X10942D02*
D03*
X10903D02*
D03*
X10863Y7790D02*
D03*
X10824Y7790D02*
D03*
X10785D02*
D03*
X10745D02*
D03*
X10706D02*
D03*
X10667D02*
D03*
X10627Y7791D02*
D03*
X10548Y7790D02*
D03*
X10509D02*
D03*
X10469D02*
D03*
X10430D02*
D03*
X10391D02*
D03*
X10352D02*
D03*
X10312D02*
D03*
X10273D02*
D03*
X10234D02*
D03*
X10155D02*
D03*
X10115D02*
D03*
X10076D02*
D03*
X10036D02*
D03*
X9997D02*
D03*
X9958D02*
D03*
X9918D02*
D03*
X9879D02*
D03*
X9839D02*
D03*
X9761D02*
D03*
X9721D02*
D03*
X9682D02*
D03*
X9643D02*
D03*
X8312Y9581D02*
D03*
X8184Y9583D02*
D03*
X12502Y6888D02*
D03*
X12525Y6889D02*
D03*
X8624Y9513D02*
D03*
X8544Y9520D02*
D03*
X8431Y9580D02*
D03*
X7237Y9233D02*
D03*
X6861Y9205D02*
D03*
X6887Y8566D02*
D03*
X6154Y8491D02*
D03*
X6223D02*
D03*
X6151Y8546D02*
D03*
X6236Y8608D02*
D03*
X6241Y8584D02*
D03*
X6261Y8624D02*
D03*
X6280Y8664D02*
D03*
X7735Y7816D02*
D03*
Y8369D02*
D03*
X8406Y7479D02*
D03*
X8416Y7511D02*
D03*
X8051Y7822D02*
D03*
X8370Y7727D02*
D03*
X6143Y7627D02*
D03*
X6182Y7628D02*
D03*
X6221Y7627D02*
D03*
X6261Y7628D02*
D03*
X8499Y7744D02*
D03*
X8586Y7871D02*
D03*
X8506Y7833D02*
D03*
X8452Y7851D02*
D03*
X8495Y7871D02*
D03*
X8586Y7898D02*
D03*
X8551Y7955D02*
D03*
X8559Y8020D02*
D03*
Y8091D02*
D03*
X7237Y8807D02*
D03*
X11584Y7210D02*
D03*
X11260Y8868D02*
D03*
X11251Y9617D02*
D03*
X11539Y9618D02*
D03*
X11502Y9617D02*
D03*
X9393Y8819D02*
D03*
X7346Y7800D02*
D03*
X7307Y7800D02*
D03*
X7268Y7800D02*
D03*
X7228Y7800D02*
D03*
X7149Y7799D02*
D03*
X7110Y7800D02*
D03*
X7071Y7800D02*
D03*
X7504Y7800D02*
D03*
X7464Y7800D02*
D03*
X7543Y7800D02*
D03*
X7583Y7800D02*
D03*
X7660D02*
D03*
X7543Y7629D02*
D03*
X7504Y7628D02*
D03*
X7464Y7627D02*
D03*
X7583Y7627D02*
D03*
X7622Y7628D02*
D03*
X7661Y7628D02*
D03*
X7701Y7628D02*
D03*
X12620Y8075D02*
D03*
X12607Y8049D02*
D03*
X8855Y8328D02*
D03*
X8856Y8445D02*
D03*
X8894Y8525D02*
D03*
X8814Y8172D02*
D03*
X8736Y8210D02*
D03*
X8659Y8248D02*
D03*
X8777Y8288D02*
D03*
X8737Y8289D02*
D03*
X8657Y8329D02*
D03*
X8777Y8406D02*
D03*
X9131Y9312D02*
D03*
X9171D02*
D03*
X8933Y9311D02*
D03*
X8893Y9191D02*
D03*
X8776Y9350D02*
D03*
X8737Y9351D02*
D03*
X8775Y9389D02*
D03*
X8697D02*
D03*
X8658Y9390D02*
D03*
X8698Y9430D02*
D03*
X8736Y9428D02*
D03*
X8775D02*
D03*
X8816Y9313D02*
D03*
X8697Y9271D02*
D03*
X9091Y9036D02*
D03*
X9092Y8997D02*
D03*
X9130Y8957D02*
D03*
X9090Y8956D02*
D03*
X7912Y8328D02*
D03*
X7952Y8329D02*
D03*
X8069Y8367D02*
D03*
X8070Y8327D02*
D03*
X8108Y8328D02*
D03*
X8149Y8408D02*
D03*
X8304Y8447D02*
D03*
X8228Y8369D02*
D03*
X8267Y8408D02*
D03*
X8227Y8447D02*
D03*
X8109Y8526D02*
D03*
X8069D02*
D03*
Y8250D02*
D03*
X7992Y8251D02*
D03*
X8110Y8133D02*
D03*
X8147Y8131D02*
D03*
X8227Y8132D02*
D03*
X8503Y8684D02*
D03*
X8225Y9469D02*
D03*
X8187Y9468D02*
D03*
X8266Y9389D02*
D03*
X8227D02*
D03*
X8187Y9311D02*
D03*
X8188Y9271D02*
D03*
X8069Y9272D02*
D03*
Y9193D02*
D03*
X8030Y8996D02*
D03*
X8031Y8916D02*
D03*
X7992D02*
D03*
X8385Y9389D02*
D03*
X8385Y9428D02*
D03*
X8267Y9467D02*
D03*
X8500Y8840D02*
D03*
X7990D02*
D03*
X8615Y8915D02*
D03*
X8620Y8995D02*
D03*
X8500Y9470D02*
D03*
X8540Y8680D02*
D03*
X8620Y8640D02*
D03*
X8540Y8486D02*
D03*
X8620Y8285D02*
D03*
Y8245D02*
D03*
Y8210D02*
D03*
X8540Y8170D02*
D03*
Y8130D02*
D03*
X7950Y9390D02*
D03*
X8465Y9470D02*
D03*
Y9430D02*
D03*
X8500Y9350D02*
D03*
X8465D02*
D03*
X8110Y8955D02*
D03*
X8070Y8995D02*
D03*
X8500Y8724D02*
D03*
X9015Y8840D02*
D03*
X9095Y8880D02*
D03*
Y8760D02*
D03*
X8385D02*
D03*
X8030Y8132D02*
D03*
X8070D02*
D03*
X9130Y8447D02*
D03*
X9012Y8250D02*
D03*
X8934Y8209D02*
D03*
X9999Y9470D02*
D03*
X9697Y9358D02*
D03*
X9646Y9357D02*
D03*
X9611Y8880D02*
D03*
X9635D02*
D03*
X9697Y8987D02*
D03*
X9722Y8988D02*
D03*
X6261Y7800D02*
D03*
X6221Y7797D02*
D03*
X6182Y7799D02*
D03*
X7031Y7800D02*
D03*
X6992Y7800D02*
D03*
X6953Y7799D02*
D03*
X6913Y7800D02*
D03*
X6834Y7800D02*
D03*
X6795Y7800D02*
D03*
X6756Y7800D02*
D03*
X6520Y7799D02*
D03*
X6559Y7800D02*
D03*
X6598Y7800D02*
D03*
X6638Y7799D02*
D03*
X6677Y7799D02*
D03*
X6520Y7627D02*
D03*
X6598Y7628D02*
D03*
X6638Y7627D02*
D03*
X6677Y7628D02*
D03*
X6756Y7628D02*
D03*
X6834Y7628D02*
D03*
X6913Y7627D02*
D03*
X6953Y7627D02*
D03*
X6992Y7628D02*
D03*
X7031Y7628D02*
D03*
X7071Y7627D02*
D03*
X7110Y7627D02*
D03*
X7149Y7626D02*
D03*
X7346Y7628D02*
D03*
X7701Y7800D02*
D03*
X7710Y8369D02*
D03*
X7687D02*
D03*
X7671Y8526D02*
D03*
X7648D02*
D03*
X7641Y8253D02*
D03*
X7603Y8483D02*
D03*
X7583Y8445D02*
D03*
X7488Y8174D02*
D03*
X7465D02*
D03*
X7443D02*
D03*
X7419D02*
D03*
X7489Y8254D02*
D03*
X7421Y8293D02*
D03*
X5985Y6646D02*
D03*
X5960Y6645D02*
D03*
X5941Y6656D02*
D03*
X5921Y6645D02*
D03*
X5902Y6656D02*
D03*
X5882Y6643D02*
D03*
X5862Y6656D02*
D03*
X5837Y6644D02*
D03*
X6005Y8244D02*
D03*
X5965Y8245D02*
D03*
X5926D02*
D03*
X6005Y8291D02*
D03*
X4399Y8782D02*
D03*
X5861Y8124D02*
D03*
X5602Y8369D02*
D03*
X5577Y8368D02*
D03*
X5555D02*
D03*
X7549Y8445D02*
D03*
X7526D02*
D03*
X8227Y7724D02*
D03*
X8147Y7822D02*
D03*
X8121Y7707D02*
D03*
X8070Y7410D02*
D03*
X6768D02*
D03*
X8030Y7501D02*
D03*
X6580Y7487D02*
D03*
X7805Y7745D02*
D03*
X4980Y6654D02*
D03*
X4962Y6635D02*
D03*
X4941Y6654D02*
D03*
X4917Y6635D02*
D03*
X9824Y11400D02*
D03*
X9744D02*
D03*
X9445Y11400D02*
D03*
X9364Y11400D02*
D03*
X11742Y9677D02*
D03*
X11682Y9675D02*
D03*
X11641Y9682D02*
D03*
X11665Y9660D02*
D03*
X6878Y9165D02*
D03*
X6929Y9820D02*
D03*
X11909Y9641D02*
D03*
X8881Y9791D02*
D03*
X10991Y9829D02*
D03*
X8897Y9809D02*
D03*
X11041Y9845D02*
D03*
X8915Y9825D02*
D03*
X10933D02*
D03*
X8371Y9926D02*
D03*
X8488Y9851D02*
D03*
X10117Y9849D02*
D03*
X8483Y9777D02*
D03*
X10073Y9782D02*
D03*
X9912Y9529D02*
D03*
X10843Y9488D02*
D03*
X12280Y9642D02*
D03*
X10620Y9460D02*
D03*
X10823Y9338D02*
D03*
X10824Y9286D02*
D03*
X10764Y9314D02*
D03*
X10937Y9281D02*
D03*
X10948Y9242D02*
D03*
X10915Y9243D02*
D03*
X10539Y9361D02*
D03*
X10565Y9269D02*
D03*
X10564Y9361D02*
D03*
X10194Y9310D02*
D03*
X10152Y9273D02*
D03*
X12128Y9630D02*
D03*
X12008Y8890D02*
D03*
X11990Y8833D02*
D03*
X11890Y9764D02*
D03*
X12106Y10003D02*
D03*
X12362Y9736D02*
D03*
X12421Y9720D02*
D03*
X10551Y9721D02*
D03*
X10437Y9709D02*
D03*
X10753Y9692D02*
D03*
X10477Y9686D02*
D03*
X10637D02*
D03*
X10676Y9687D02*
D03*
X10338Y9036D02*
D03*
X10358Y9031D02*
D03*
X10511Y9686D02*
D03*
X12358Y8902D02*
D03*
X11398Y8878D02*
D03*
X12303Y8882D02*
D03*
X12323Y8852D02*
D03*
X11402Y9823D02*
D03*
X11929Y9754D02*
D03*
X11811Y9926D02*
D03*
X12440Y9968D02*
D03*
X10214Y9879D02*
D03*
X10159Y10164D02*
D03*
X10234Y9527D02*
D03*
X10403Y9111D02*
D03*
X10323Y9150D02*
D03*
X10358Y9111D02*
D03*
X10123Y9358D02*
D03*
X12461Y9409D02*
D03*
X12284Y9407D02*
D03*
X10503Y9311D02*
D03*
X11470Y8810D02*
D03*
X10496Y8909D02*
D03*
X12231Y8892D02*
D03*
X12338Y8924D02*
D03*
X10153Y9227D02*
D03*
X12046Y9172D02*
D03*
X11595Y10079D02*
D03*
X11752Y10059D02*
D03*
X12026Y9154D02*
D03*
X11829Y9114D02*
D03*
X11399Y10059D02*
D03*
X11555Y8783D02*
D03*
X9587Y8740D02*
D03*
X9669Y8732D02*
D03*
X9709Y8622D02*
D03*
X9677Y8638D02*
D03*
X9746Y8832D02*
D03*
X9658Y8895D02*
D03*
X11339Y8630D02*
D03*
X9823Y8622D02*
D03*
X9791D02*
D03*
X12228Y6850D02*
D03*
X12409D02*
D03*
X12639Y6580D02*
D03*
X12732Y6628D02*
D03*
X12713Y6606D02*
D03*
X9268Y8583D02*
D03*
X9260Y8268D02*
D03*
X10207Y8990D02*
D03*
X9951Y9009D02*
D03*
X7070Y8644D02*
D03*
X6993Y8725D02*
D03*
X7063Y8730D02*
D03*
X7095Y8720D02*
D03*
X7057Y8810D02*
D03*
X7127Y8720D02*
D03*
X9003Y10113D02*
D03*
X8980Y10120D02*
D03*
X9764Y10079D02*
D03*
X9803D02*
D03*
X9509Y8644D02*
D03*
X7532Y8929D02*
D03*
X7505Y8914D02*
D03*
X8580Y10811D02*
D03*
X8554Y10910D02*
D03*
Y11011D02*
D03*
X9112Y10202D02*
D03*
X11235Y10204D02*
D03*
X9150Y10218D02*
D03*
X9036Y10211D02*
D03*
X11519Y10218D02*
D03*
X8609Y11296D02*
D03*
X9150Y9955D02*
D03*
X9190Y9954D02*
D03*
X8438Y7945D02*
D03*
X11040Y7152D02*
D03*
X11941Y6677D02*
D03*
X11677Y6681D02*
D03*
X11386Y6823D02*
D03*
X11161Y6663D02*
D03*
X11201D02*
D03*
X10728Y6634D02*
D03*
X10846Y6644D02*
D03*
X10866Y6663D02*
D03*
X10886Y6683D02*
D03*
X10906Y6703D02*
D03*
X10272Y6618D02*
D03*
X10165Y6681D02*
D03*
X9341Y10092D02*
D03*
X7993Y10181D02*
D03*
X12598Y10124D02*
D03*
X8905Y6627D02*
D03*
X9336Y6803D02*
D03*
X8120Y6836D02*
D03*
X8268Y6852D02*
D03*
X8891Y7505D02*
D03*
X8923Y7553D02*
D03*
X8954Y7588D02*
D03*
X8974Y7605D02*
D03*
X9033Y7624D02*
D03*
X9072Y7636D02*
D03*
X9053Y7504D02*
D03*
X9094Y7523D02*
D03*
X8918Y7520D02*
D03*
X9003Y6788D02*
D03*
X8697Y6811D02*
D03*
X8918Y6606D02*
D03*
X8962Y6647D02*
D03*
X8970Y6740D02*
D03*
X8995Y6590D02*
D03*
X9053Y6623D02*
D03*
X9028Y6499D02*
D03*
X12435Y8372D02*
D03*
X12453Y8389D02*
D03*
X12500Y8353D02*
D03*
X10994Y9103D02*
D03*
X10946Y9337D02*
D03*
X10608Y9278D02*
D03*
X10932Y9490D02*
D03*
X8412Y6737D02*
D03*
X8396Y6764D02*
D03*
X12525Y8568D02*
D03*
X7721Y6827D02*
D03*
X11839Y8885D02*
D03*
X12646Y8796D02*
D03*
X12649Y8127D02*
D03*
X12626Y8784D02*
D03*
X12632Y8100D02*
D03*
M02*
