%FSLAX23Y23*%
%MOIN*%
G70*
G01*
G75*
G04 Layer_Color=16711935*
%ADD10C,0.010*%
%ADD11R,0.039X0.043*%
%ADD12C,0.040*%
%ADD13R,0.102X0.087*%
%ADD14R,0.087X0.102*%
%ADD15R,0.024X0.094*%
%ADD16R,0.043X0.039*%
%ADD17R,0.039X0.043*%
%ADD18R,0.010X0.039*%
%ADD19R,0.020X0.039*%
%ADD20R,0.028X0.035*%
%ADD21R,0.106X0.063*%
%ADD22R,0.157X0.138*%
%ADD23R,0.041X0.083*%
%ADD24R,0.413X0.406*%
%ADD25R,0.051X0.063*%
%ADD26R,0.033X0.039*%
%ADD27O,0.016X0.063*%
%ADD28R,0.134X0.085*%
%ADD29R,0.041X0.085*%
%ADD30R,0.033X0.039*%
%ADD31R,0.041X0.085*%
%ADD32R,0.026X0.075*%
%ADD33R,0.138X0.079*%
%ADD34R,0.047X0.039*%
%ADD35R,0.134X0.075*%
%ADD36R,0.138X0.157*%
%ADD37R,0.079X0.138*%
%ADD38R,0.016X0.063*%
%ADD39R,0.063X0.051*%
%ADD40R,0.063X0.106*%
%ADD41R,0.014X0.053*%
%ADD42O,0.250X0.080*%
%ADD43R,0.124X0.202*%
%ADD44O,0.031X0.010*%
%ADD45R,0.031X0.010*%
%ADD46R,0.010X0.031*%
%ADD47O,0.080X0.250*%
%ADD48R,0.024X0.087*%
%ADD49R,0.024X0.087*%
%ADD50C,0.020*%
%ADD51R,0.039X0.047*%
%ADD52R,0.018X0.081*%
%ADD53R,0.047X0.102*%
%ADD54R,0.081X0.018*%
%ADD55R,0.047X0.043*%
%ADD56R,0.047X0.043*%
%ADD57R,0.059X0.020*%
%ADD58R,0.059X0.020*%
%ADD59R,0.035X0.028*%
%ADD60R,0.083X0.041*%
%ADD61R,0.406X0.413*%
%ADD62R,0.039X0.033*%
%ADD63R,0.039X0.033*%
%ADD64R,0.059X0.014*%
%ADD65R,0.087X0.024*%
%ADD66R,0.012X0.065*%
%ADD67R,0.087X0.024*%
%ADD68R,0.049X0.015*%
%ADD69R,0.213X0.118*%
%ADD70R,0.138X0.016*%
%ADD71R,0.057X0.022*%
%ADD72R,0.012X0.063*%
%ADD73R,0.063X0.012*%
%ADD74R,0.102X0.047*%
%ADD75R,0.014X0.053*%
%ADD76R,0.010X0.065*%
%ADD77R,0.012X0.016*%
%ADD78R,0.228X0.189*%
%ADD79R,0.016X0.012*%
%ADD80O,0.014X0.059*%
%ADD81R,0.014X0.059*%
%ADD82C,0.005*%
%ADD83C,0.008*%
%ADD84C,0.020*%
%ADD85C,0.004*%
%ADD86C,0.012*%
%ADD87C,0.006*%
%ADD88C,0.015*%
%ADD89C,0.009*%
%ADD90C,0.130*%
%ADD91C,0.050*%
%ADD92C,0.039*%
%ADD93R,0.039X0.039*%
%ADD94C,0.059*%
%ADD95R,0.059X0.059*%
%ADD96R,0.091X0.091*%
%ADD97C,0.091*%
%ADD98C,0.060*%
%ADD99R,0.059X0.059*%
%ADD100C,0.065*%
%ADD101R,0.060X0.060*%
%ADD102C,0.068*%
%ADD103R,0.059X0.059*%
%ADD104C,0.059*%
%ADD105R,0.100X0.050*%
%ADD106O,0.100X0.050*%
%ADD107C,0.150*%
%ADD108C,0.098*%
%ADD109C,0.083*%
%ADD110C,0.082*%
%ADD111C,0.067*%
%ADD112R,0.067X0.067*%
%ADD113C,0.187*%
%ADD114O,0.050X0.100*%
%ADD115R,0.050X0.100*%
%ADD116C,0.144*%
%ADD117C,0.055*%
%ADD118C,0.016*%
%ADD119C,0.036*%
%ADD120C,0.160*%
%ADD121C,0.020*%
%ADD122C,0.030*%
%ADD123R,0.063X0.071*%
%ADD124R,0.071X0.063*%
%ADD125R,0.039X0.020*%
%ADD126R,0.039X0.010*%
%ADD127C,0.010*%
%ADD128C,0.008*%
%ADD129C,0.004*%
%ADD130C,0.001*%
%ADD131C,0.001*%
%ADD132C,0.007*%
%ADD133C,0.006*%
%ADD134R,0.146X0.031*%
%ADD135R,0.110X0.410*%
%ADD136R,0.110X0.405*%
%ADD137R,0.043X0.047*%
%ADD138C,0.044*%
%ADD139R,0.106X0.091*%
%ADD140R,0.091X0.106*%
%ADD141R,0.028X0.098*%
%ADD142R,0.047X0.043*%
%ADD143R,0.043X0.047*%
%ADD144R,0.014X0.043*%
%ADD145R,0.024X0.043*%
%ADD146R,0.032X0.039*%
%ADD147R,0.110X0.067*%
%ADD148R,0.161X0.142*%
%ADD149R,0.045X0.087*%
%ADD150R,0.417X0.410*%
%ADD151R,0.055X0.067*%
%ADD152R,0.037X0.043*%
%ADD153O,0.020X0.067*%
%ADD154R,0.138X0.089*%
%ADD155R,0.045X0.089*%
%ADD156R,0.037X0.043*%
%ADD157R,0.045X0.089*%
%ADD158R,0.030X0.079*%
%ADD159R,0.142X0.083*%
%ADD160R,0.051X0.043*%
%ADD161R,0.138X0.079*%
%ADD162R,0.142X0.161*%
%ADD163R,0.083X0.142*%
%ADD164R,0.020X0.067*%
%ADD165R,0.067X0.055*%
%ADD166R,0.067X0.110*%
%ADD167R,0.018X0.057*%
%ADD168O,0.254X0.084*%
%ADD169R,0.128X0.206*%
%ADD170O,0.035X0.014*%
%ADD171R,0.035X0.014*%
%ADD172R,0.014X0.035*%
%ADD173O,0.084X0.254*%
%ADD174R,0.028X0.091*%
%ADD175R,0.028X0.091*%
%ADD176C,0.024*%
%ADD177R,0.043X0.051*%
%ADD178R,0.022X0.085*%
%ADD179R,0.051X0.106*%
%ADD180R,0.085X0.022*%
%ADD181R,0.051X0.047*%
%ADD182R,0.051X0.047*%
%ADD183R,0.063X0.024*%
%ADD184R,0.063X0.024*%
%ADD185R,0.039X0.032*%
%ADD186R,0.087X0.045*%
%ADD187R,0.410X0.417*%
%ADD188R,0.043X0.037*%
%ADD189R,0.043X0.037*%
%ADD190R,0.063X0.018*%
%ADD191R,0.091X0.028*%
%ADD192R,0.016X0.069*%
%ADD193R,0.091X0.028*%
%ADD194R,0.053X0.019*%
%ADD195R,0.217X0.122*%
%ADD196R,0.142X0.020*%
%ADD197R,0.061X0.026*%
%ADD198R,0.016X0.067*%
%ADD199R,0.067X0.016*%
%ADD200R,0.106X0.051*%
%ADD201R,0.018X0.057*%
%ADD202R,0.014X0.069*%
%ADD203R,0.016X0.020*%
%ADD204R,0.232X0.193*%
%ADD205R,0.020X0.016*%
%ADD206O,0.018X0.063*%
%ADD207R,0.018X0.063*%
%ADD208C,0.134*%
%ADD209C,0.054*%
%ADD210C,0.043*%
%ADD211R,0.043X0.043*%
%ADD212C,0.063*%
%ADD213R,0.063X0.063*%
%ADD214R,0.095X0.095*%
%ADD215C,0.095*%
%ADD216C,0.064*%
%ADD217R,0.063X0.063*%
%ADD218C,0.069*%
%ADD219R,0.064X0.064*%
%ADD220C,0.072*%
%ADD221R,0.063X0.063*%
%ADD222C,0.063*%
%ADD223R,0.104X0.054*%
%ADD224O,0.104X0.054*%
%ADD225C,0.154*%
%ADD226C,0.102*%
%ADD227C,0.087*%
%ADD228C,0.086*%
%ADD229C,0.071*%
%ADD230R,0.071X0.071*%
%ADD231C,0.191*%
%ADD232O,0.054X0.104*%
%ADD233R,0.054X0.104*%
%ADD234C,0.148*%
%ADD235C,0.059*%
%ADD236R,0.067X0.075*%
%ADD237R,0.075X0.067*%
%ADD238R,0.043X0.024*%
%ADD239R,0.043X0.014*%
D83*
X12867Y6059D02*
Y6209D01*
X9567Y6059D02*
Y6209D01*
X9367Y6059D02*
Y6209D01*
X12867D02*
X13067D01*
X9567Y6059D02*
X12867D01*
X9367Y6209D02*
X9567D01*
X7817Y6059D02*
Y6209D01*
X7617D02*
X7817D01*
X4317Y6059D02*
X7617D01*
X4317Y12059D02*
Y12234D01*
X12867Y12059D02*
Y12234D01*
X13067Y6209D02*
Y12059D01*
X12867Y6059D02*
Y6209D01*
X9567Y6059D02*
Y6209D01*
X9367Y6059D02*
Y6209D01*
X7817Y6059D02*
Y6209D01*
X7617Y6059D02*
Y6209D01*
X4317Y6059D02*
Y6209D01*
X4009D02*
Y12059D01*
X4317D01*
X12867D02*
X13067D01*
X12867Y6209D02*
X13067D01*
X9567Y6059D02*
X12867D01*
X9367Y6209D02*
X9567D01*
X7817Y6059D02*
X9367D01*
X7617Y6209D02*
X7817D01*
X4317Y6059D02*
X7617D01*
X4009Y6209D02*
X4317D01*
Y12234D02*
X4491D01*
Y12084D02*
Y12234D01*
Y12084D02*
X6259D01*
Y12216D01*
X9291D01*
Y12084D02*
Y12216D01*
Y12084D02*
X11041D01*
Y12216D01*
Y12241D01*
X12860D01*
X12867Y12234D01*
D84*
X13185Y6000D02*
Y12300D01*
X3999Y6000D02*
Y12299D01*
Y6000D02*
X13185D01*
X4575Y12150D02*
Y12299D01*
Y12150D02*
X6200D01*
Y12300D01*
X9350Y12150D02*
Y12300D01*
Y12150D02*
X10975D01*
Y12300D01*
X3999Y12299D02*
X4574D01*
X6200Y12300D02*
X9349D01*
X10975D02*
X13185D01*
M02*
