%FSLAX23Y23*%
%MOIN*%
G70*
G01*
G75*
G04 Layer_Physical_Order=9*
G04 Layer_Color=16711935*
%ADD10C,0.010*%
%ADD11R,0.039X0.043*%
%ADD12C,0.040*%
%ADD13R,0.102X0.087*%
%ADD14R,0.087X0.102*%
%ADD15R,0.024X0.094*%
%ADD16R,0.043X0.039*%
%ADD17R,0.039X0.043*%
%ADD18R,0.010X0.039*%
%ADD19R,0.020X0.039*%
%ADD20R,0.028X0.035*%
%ADD21R,0.106X0.063*%
%ADD22R,0.157X0.138*%
%ADD23R,0.041X0.083*%
%ADD24R,0.413X0.406*%
%ADD25R,0.051X0.063*%
%ADD26R,0.033X0.039*%
%ADD27O,0.016X0.063*%
%ADD28R,0.134X0.085*%
%ADD29R,0.041X0.085*%
%ADD30R,0.033X0.039*%
%ADD31R,0.041X0.085*%
%ADD32R,0.026X0.075*%
%ADD33R,0.138X0.079*%
%ADD34R,0.047X0.039*%
%ADD35R,0.134X0.075*%
%ADD36R,0.138X0.157*%
%ADD37R,0.079X0.138*%
%ADD38R,0.016X0.063*%
%ADD39R,0.063X0.051*%
%ADD40R,0.063X0.106*%
%ADD41R,0.014X0.053*%
%ADD42O,0.250X0.080*%
%ADD43R,0.124X0.202*%
%ADD44O,0.031X0.010*%
%ADD45R,0.031X0.010*%
%ADD46R,0.010X0.031*%
%ADD47O,0.080X0.250*%
%ADD48R,0.024X0.087*%
%ADD49R,0.024X0.087*%
%ADD50C,0.020*%
%ADD51R,0.039X0.047*%
%ADD52R,0.018X0.081*%
%ADD53R,0.047X0.102*%
%ADD54R,0.081X0.018*%
%ADD55R,0.047X0.043*%
%ADD56R,0.047X0.043*%
%ADD57R,0.059X0.020*%
%ADD58R,0.059X0.020*%
%ADD59R,0.035X0.028*%
%ADD60R,0.083X0.041*%
%ADD61R,0.406X0.413*%
%ADD62R,0.039X0.033*%
%ADD63R,0.039X0.033*%
%ADD64R,0.059X0.014*%
%ADD65R,0.087X0.024*%
%ADD66R,0.012X0.065*%
%ADD67R,0.087X0.024*%
%ADD68R,0.049X0.015*%
%ADD69R,0.213X0.118*%
%ADD70R,0.138X0.016*%
%ADD71R,0.057X0.022*%
%ADD72R,0.012X0.063*%
%ADD73R,0.063X0.012*%
%ADD74R,0.102X0.047*%
%ADD75R,0.014X0.053*%
%ADD76R,0.010X0.065*%
%ADD77R,0.012X0.016*%
%ADD78R,0.228X0.189*%
%ADD79R,0.016X0.012*%
%ADD80O,0.014X0.059*%
%ADD81R,0.014X0.059*%
%ADD82C,0.005*%
%ADD83C,0.008*%
%ADD84C,0.020*%
%ADD85C,0.004*%
%ADD86C,0.012*%
%ADD87C,0.006*%
%ADD88C,0.015*%
%ADD89C,0.009*%
%ADD90C,0.130*%
%ADD91C,0.050*%
%ADD92C,0.039*%
%ADD93R,0.039X0.039*%
%ADD94C,0.059*%
%ADD95R,0.059X0.059*%
%ADD96R,0.091X0.091*%
%ADD97C,0.091*%
%ADD98C,0.060*%
%ADD99R,0.059X0.059*%
%ADD100C,0.065*%
%ADD101R,0.060X0.060*%
%ADD102C,0.068*%
%ADD103R,0.059X0.059*%
%ADD104C,0.059*%
%ADD105R,0.100X0.050*%
%ADD106O,0.100X0.050*%
%ADD107C,0.150*%
%ADD108C,0.098*%
%ADD109C,0.083*%
%ADD110C,0.082*%
%ADD111C,0.067*%
%ADD112R,0.067X0.067*%
%ADD113C,0.187*%
%ADD114O,0.050X0.100*%
%ADD115R,0.050X0.100*%
%ADD116C,0.144*%
%ADD117C,0.055*%
%ADD118C,0.016*%
%ADD119C,0.036*%
%ADD120C,0.160*%
%ADD121C,0.020*%
%ADD122C,0.030*%
D82*
X10062Y8847D02*
X10189D01*
X10030Y8815D02*
X10062Y8847D01*
X10000Y8815D02*
X10030D01*
X9968Y8847D02*
X10000Y8815D01*
X9380Y8847D02*
X9968D01*
X10770Y6840D02*
X11112D01*
X11236Y6716D01*
X10760Y6815D02*
X11122D01*
X11231Y6706D01*
X10698Y6735D02*
X10710Y6747D01*
Y6780D01*
X10770Y6840D01*
X10702Y6725D02*
X10720Y6743D01*
Y6775D01*
X10760Y6815D01*
X10956Y6709D02*
X11094D01*
X10892Y6734D02*
X10931D01*
X10956Y6709D01*
X10951Y6699D02*
X11087D01*
X10896Y6723D02*
X10927D01*
X10951Y6699D01*
X11273Y9717D02*
X11688D01*
X11715Y9744D02*
X11872D01*
X11688Y9717D02*
X11715Y9744D01*
X9194Y8937D02*
X9250Y8881D01*
X9072Y8937D02*
X9194D01*
X9053Y8918D02*
X9072Y8937D01*
X9052Y8918D02*
X9053D01*
X9300Y8917D02*
X9815D01*
X9204Y9014D02*
X9300Y8917D01*
X9075Y9014D02*
X9204D01*
X9055Y8994D02*
X9075Y9014D01*
X9055Y8971D02*
Y8994D01*
X9022Y8938D02*
X9055Y8971D01*
X8482Y8938D02*
X9022D01*
X9304Y8927D02*
X9821D01*
X9207Y9025D02*
X9304Y8927D01*
X9155Y9025D02*
X9207D01*
X9126Y9054D02*
X9155Y9025D01*
X9063Y9054D02*
X9126D01*
X9037Y9029D02*
X9063Y9054D01*
X9037Y8991D02*
Y9029D01*
X9023Y8977D02*
X9037Y8991D01*
X8609Y8977D02*
X9023D01*
X9310Y8937D02*
X9826D01*
X9211Y9036D02*
X9310Y8937D01*
X9158Y9036D02*
X9211D01*
X9130Y9064D02*
X9158Y9036D01*
X9055Y9064D02*
X9130D01*
X9006Y9016D02*
X9055Y9064D01*
X9006Y9016D02*
X9006D01*
X9320Y8816D02*
X9403Y8899D01*
X9098D02*
X9181Y8816D01*
X9320D01*
X9324Y8806D02*
X9378Y8860D01*
X8591Y8858D02*
X9109D01*
X9162Y8806D02*
X9324D01*
X9109Y8858D02*
X9162Y8806D01*
X9328Y8796D02*
X9380Y8847D01*
X9118Y8796D02*
X9328D01*
X9106Y8807D02*
X9118Y8796D01*
X9106Y8807D02*
Y8808D01*
X9334Y8786D02*
X9382Y8834D01*
X9084Y8786D02*
X9334D01*
X9072Y8798D02*
X9084Y8786D01*
X8999Y8798D02*
X9072D01*
X9350Y8776D02*
X9393Y8819D01*
X9079Y8776D02*
X9350D01*
X9067Y8788D02*
X9079Y8776D01*
X8965Y8788D02*
X9067D01*
X9403Y8899D02*
X9567D01*
X9036D02*
X9098D01*
X8551Y8898D02*
X8591Y8858D01*
X9378Y8860D02*
X11233D01*
X10189Y8847D02*
X10219Y8817D01*
X9095Y8819D02*
X9106Y8808D01*
X9095Y8819D02*
Y8840D01*
X9383Y8835D02*
X9512D01*
X9547Y8800D01*
X8975Y8821D02*
X8999Y8798D01*
X8975Y8821D02*
Y8840D01*
X8935Y8818D02*
Y8840D01*
Y8818D02*
X8965Y8788D01*
X11209Y9220D02*
X11530D01*
X11484Y9950D02*
X12377D01*
X11343Y9808D02*
X11484Y9950D01*
X8352Y9877D02*
X8473Y9756D01*
X8332Y9877D02*
X8352D01*
X8693Y7397D02*
X8727Y7362D01*
X8693Y7397D02*
Y7650D01*
X8758Y7715D01*
Y8330D01*
X8741Y8346D02*
X8758Y8330D01*
X8730Y8346D02*
X8741D01*
X8719Y8357D02*
X8730Y8346D01*
X8719Y8357D02*
Y8540D01*
X8676Y8584D02*
X8719Y8540D01*
X8539Y8584D02*
X8676D01*
X8538Y8585D02*
X8539Y8584D01*
X8025Y8585D02*
X8538D01*
X8004Y8605D02*
X8025Y8585D01*
X7912Y8605D02*
X8004D01*
X10985Y6551D02*
X11758D01*
X11856Y6650D01*
X10980Y6546D02*
X10985Y6551D01*
X9228Y6546D02*
X10980D01*
X12087Y6733D02*
Y6850D01*
X11849Y6496D02*
X12087Y6733D01*
X11319Y6496D02*
X11849D01*
X11275Y6540D02*
X11319Y6496D01*
X10998Y6540D02*
X11275D01*
X10990Y6532D02*
X10998Y6540D01*
X9229Y6532D02*
X10990D01*
X8998Y6429D02*
X9126D01*
X8977Y6450D02*
X8998Y6429D01*
X8947Y6450D02*
X8977D01*
X11856Y6650D02*
X11933D01*
X9122Y6440D02*
X9228Y6546D01*
X9001Y6440D02*
X9122D01*
X9222Y6556D02*
X10966D01*
X9122Y6456D02*
X9222Y6556D01*
X9093Y6456D02*
X9122D01*
X8880Y6561D02*
X9001Y6440D01*
X8812Y6561D02*
X8880D01*
X10964Y8425D02*
X10979Y8441D01*
X9894Y8425D02*
X10964D01*
X9842Y8373D02*
X9894Y8425D01*
X8976Y8367D02*
X8996Y8346D01*
X8974Y8367D02*
X8976D01*
X11087Y6699D02*
X11122Y6663D01*
X10876Y6704D02*
X10896Y6723D01*
X9980Y6704D02*
X10876D01*
X9916Y6640D02*
X9980Y6704D01*
X9166Y6640D02*
X9916D01*
X9120Y6686D02*
X9166Y6640D01*
X8837Y6686D02*
X9120D01*
X8812Y6661D02*
X8837Y6686D01*
X8812Y6661D02*
Y6661D01*
X10966Y6556D02*
X11014Y6604D01*
X8807Y9612D02*
X10619D01*
X10637Y9630D02*
Y9686D01*
X10619Y9612D02*
X10637Y9630D01*
X10676Y9633D02*
Y9687D01*
X10646Y9602D02*
X10676Y9633D01*
X8482Y6923D02*
X8535Y6976D01*
Y7034D01*
X9359Y7858D01*
X10423D01*
X11001Y8436D01*
Y8628D01*
X6938Y8777D02*
Y9115D01*
X6984Y9161D01*
X6885Y8723D02*
X6938Y8777D01*
X6984Y9161D02*
X7751D01*
X7818Y9094D01*
X7970D01*
X7990Y9114D01*
X6536Y9007D02*
X6881Y8662D01*
X8288D01*
X8306Y8680D01*
X7236Y8830D02*
X7422Y9016D01*
X8133D01*
X8150Y9033D01*
Y9035D01*
X7899Y10349D02*
Y10429D01*
Y10349D02*
X8041Y10206D01*
Y9511D02*
Y10206D01*
X8011Y9480D02*
X8041Y9511D01*
X8011Y9289D02*
Y9480D01*
Y9289D02*
X8030Y9270D01*
Y9270D02*
Y9270D01*
X7928Y10334D02*
Y10455D01*
Y10334D02*
X8051Y10211D01*
Y9213D02*
Y10211D01*
X8031Y9192D02*
X8051Y9213D01*
X8031Y9192D02*
Y9192D01*
X6892Y9243D02*
X6956D01*
X7027Y9172D01*
X7754D01*
X7792Y9135D01*
X8163D01*
X8184Y9114D01*
X8187D01*
X7990D02*
X7990D01*
X12356Y9720D02*
X12421D01*
X12352Y9724D02*
X12356Y9720D01*
X11891Y9724D02*
X12352D01*
X11872Y9744D02*
X11891Y9724D01*
X11252Y9738D02*
X11273Y9717D01*
X11894Y9736D02*
X12362D01*
X11876Y9754D02*
X11894Y9736D01*
X11321Y9754D02*
X11876D01*
X11295Y9728D02*
X11321Y9754D01*
X11276Y9728D02*
X11295D01*
X11256Y9748D02*
X11276Y9728D01*
X11282Y9764D02*
X11890D01*
X11279Y9760D02*
X11282Y9764D01*
X6677Y8248D02*
X6697Y8268D01*
X6677Y8244D02*
Y8248D01*
X6697Y8268D02*
X6811D01*
X5326Y8244D02*
X5375Y8195D01*
X8268Y8150D02*
X8287Y8169D01*
Y8189D01*
X8327Y8228D01*
X8366D01*
X8385Y8247D01*
Y8251D01*
X5870Y8091D02*
X8268D01*
X5179Y8232D02*
X5383Y8028D01*
X5807D01*
X5870Y8091D01*
X8268D02*
X8287Y8110D01*
Y8138D01*
X8299Y8150D01*
X8315D01*
X8327Y8161D01*
Y8177D01*
X8339Y8189D01*
X8366D01*
X8047D02*
X8070Y8212D01*
Y8212D01*
X6713Y8071D02*
X8287D01*
X6637Y7995D02*
X6713Y8071D01*
X8287D02*
X8366Y8150D01*
X8406D01*
X8425Y8169D01*
Y8172D01*
X8090Y8228D02*
X8108Y8210D01*
X8366Y8189D02*
X8385Y8207D01*
Y8212D01*
X5431Y7995D02*
X6637D01*
X7528Y8111D02*
X8245D01*
X7465Y8174D02*
X7528Y8111D01*
X8424Y8289D02*
X8424D01*
X8366Y8268D02*
X8384Y8286D01*
Y8289D01*
X8327Y8506D02*
X8346Y8487D01*
X7929Y8506D02*
X8327D01*
X7907Y8528D02*
X7929Y8506D01*
X7898Y8528D02*
X7907D01*
X8326Y8427D02*
X8344Y8445D01*
X7930Y8427D02*
X8326D01*
X7911Y8408D02*
X7930Y8427D01*
X7701Y8408D02*
X7911D01*
X7754Y8388D02*
X8677D01*
X7735Y8369D02*
X7754Y8388D01*
X8677D02*
X8698Y8367D01*
X8327Y7591D02*
X8510D01*
X8717Y7798D01*
Y8308D01*
X8737Y8328D01*
X8260Y7711D02*
X8615D01*
X8676Y7772D01*
Y8304D01*
X8699Y8327D01*
X8637Y7755D02*
Y8344D01*
X8659Y8366D01*
X5100Y8257D02*
X5177D01*
X5190Y8244D01*
X5326D01*
X8404Y8347D02*
X8423Y8328D01*
X7687Y8369D02*
X7709Y8347D01*
X8404D01*
X8483Y8546D02*
X8503Y8526D01*
X7691Y8546D02*
X8483D01*
X7671Y8526D02*
X7691Y8546D01*
X8245Y8111D02*
X8265Y8131D01*
X8406Y8466D02*
X8425Y8485D01*
X7570Y8466D02*
X8406D01*
X7549Y8445D02*
X7570Y8466D01*
X7307Y7627D02*
Y7628D01*
Y7627D02*
X7382Y7551D01*
X7268Y7625D02*
Y7627D01*
Y7625D02*
X7362Y7531D01*
X7228Y7626D02*
Y7627D01*
Y7626D02*
X7335Y7520D01*
X7190Y7627D02*
Y7628D01*
Y7627D02*
X7333Y7484D01*
X8244Y7484D01*
X9015Y8880D02*
X9017D01*
X9036Y8899D01*
X8620Y9275D02*
X8638Y9291D01*
X8620Y9195D02*
X8641Y9213D01*
X8460Y9075D02*
X8480Y9055D01*
X8569D01*
X8607Y9017D01*
X8425Y9035D02*
X8445Y9015D01*
X8571D01*
X8609Y8977D01*
X8425Y8995D02*
X8482Y8938D01*
X8500Y8920D02*
X8522Y8898D01*
X11233Y8860D02*
X11241Y8852D01*
X8070Y8839D02*
Y8840D01*
Y8839D02*
X8091Y8819D01*
X8150Y8765D02*
X8151D01*
X8165Y8780D01*
X8827D02*
X8902Y8705D01*
X8165Y8780D02*
X8827D01*
X8902Y8705D02*
Y8705D01*
Y8705D02*
X8906Y8701D01*
X8070Y8765D02*
Y8765D01*
Y8765D02*
X8094Y8740D01*
X8764D02*
X8843Y8661D01*
X8094Y8740D02*
X8764D01*
X8150Y8720D02*
X8169Y8701D01*
X8760D01*
X8839Y8622D01*
X9709D01*
X9669Y8720D02*
Y8732D01*
X9654Y8661D02*
X9677Y8638D01*
X8843Y8661D02*
X9654D01*
X8272Y7531D02*
X8287Y7516D01*
X7362Y7531D02*
X8272D01*
X8303Y7551D02*
X8311Y7559D01*
Y7571D01*
X7382Y7551D02*
X8303D01*
X8157Y7520D02*
X8169Y7508D01*
X7335Y7520D02*
X8157D01*
X8385Y8995D02*
Y8997D01*
X8366Y9016D02*
X8385Y8997D01*
X8366Y9016D02*
Y9394D01*
X8350Y9409D02*
X8366Y9394D01*
X8177Y9409D02*
X8350D01*
X8169Y9417D02*
X8177Y9409D01*
X11274Y9770D02*
X11280Y9776D01*
X11354D01*
X11402Y9823D01*
X8620Y9390D02*
Y9392D01*
X8602Y9409D02*
X8620Y9392D01*
X8540Y9390D02*
X8543D01*
X8563Y9370D01*
X8634D01*
X8642Y9378D01*
X8657Y9310D02*
Y9311D01*
X8677Y9331D01*
X10069Y8278D02*
X10207D01*
X10035Y8244D02*
X10069Y8278D01*
X9264Y8244D02*
X10035D01*
X9260Y8248D02*
X9264Y8244D01*
X9260Y8248D02*
Y8268D01*
X8522Y8898D02*
X8551D01*
X9815Y8917D02*
X9862Y8870D01*
X11232D01*
X11248Y8886D01*
X11268D01*
X11292Y8862D01*
X9821Y8927D02*
X9868Y8880D01*
X11228D01*
X11246Y8898D01*
X11272D01*
Y8896D02*
Y8898D01*
Y8896D02*
X11290Y8878D01*
X11398D01*
X9826Y8937D02*
X9874Y8890D01*
X11224D01*
X11243Y8909D01*
X11276D01*
X11291Y8894D01*
X11886Y8872D02*
X12254D01*
X12283Y8902D01*
X12358D01*
X12283Y8862D02*
X12303Y8882D01*
X11292Y8862D02*
X11817Y8862D01*
X11241Y8852D02*
X11811Y8851D01*
X8638Y9291D02*
X8701D01*
X8701Y9291D02*
X8720Y9311D01*
X8620Y9235D02*
Y9236D01*
X8637Y9253D01*
X8705D01*
X8719Y9268D01*
Y9286D01*
X8758Y9325D01*
X8540Y9115D02*
X8540D01*
X8522Y9133D02*
X8540Y9115D01*
X10414Y9623D02*
X10477Y9686D01*
X10400Y9634D02*
X10470Y9705D01*
X10397Y9646D02*
X10437Y9686D01*
Y9709D01*
X10361Y9657D02*
X10430Y9726D01*
X10445D01*
X10456Y9716D01*
X8758Y9563D02*
X8807Y9612D01*
X8758Y9325D02*
Y9563D01*
X8720Y9541D02*
X8802Y9623D01*
X8720Y9311D02*
Y9541D01*
X8802Y9623D02*
X10414D01*
X8677Y9514D02*
X8797Y9634D01*
X8677Y9331D02*
Y9514D01*
X8797Y9634D02*
X10400D01*
X8642Y9494D02*
X8793Y9646D01*
X8642Y9378D02*
Y9494D01*
X8793Y9646D02*
X10397D01*
X8706Y9574D02*
X8789Y9657D01*
X8653Y9574D02*
X8706D01*
X8602Y9524D02*
X8653Y9574D01*
X8602Y9409D02*
Y9524D01*
X8789Y9657D02*
X10361D01*
X8522Y9480D02*
X8539Y9498D01*
X8562D01*
X8649Y9585D01*
X8702D01*
X8787Y9669D01*
X10117D01*
X8522Y9133D02*
Y9480D01*
X8344Y9429D02*
X8344D01*
X8364Y9449D01*
X8473D01*
X8484Y9460D01*
Y9483D01*
X8537Y9536D01*
X8586D01*
X8645Y9595D01*
X8699D01*
X8784Y9680D01*
X10114D01*
X8308Y9428D02*
X8327Y9447D01*
Y9475D01*
X8341Y9489D01*
X8474D01*
X8532Y9547D01*
X8583D01*
X10427Y9738D02*
X11252D01*
X10154Y9748D02*
X11256D01*
X8208Y9450D02*
X8278D01*
X8288Y9461D01*
Y9480D01*
X8308Y9500D01*
X8471D01*
X8529Y9558D01*
X8580D01*
X8849Y9733D02*
X8882Y9701D01*
X10036D01*
X10094Y9760D01*
X8187Y9429D02*
X8208Y9450D01*
X10094Y9760D02*
X11279D01*
X8169Y9417D02*
Y9475D01*
X8180Y9486D01*
X8278D01*
X8335Y9543D01*
X8500D01*
X8526Y9569D01*
X8576D01*
X8854Y9744D02*
X8887Y9711D01*
X8641Y9213D02*
X8715D01*
X8757Y9255D01*
Y9279D01*
X8771Y9292D01*
X8540Y9155D02*
Y9155D01*
Y9155D02*
X8562Y9133D01*
Y9084D02*
Y9133D01*
Y9084D02*
X8591Y9055D01*
X8540Y9195D02*
X8541D01*
X8574Y9162D01*
Y9124D02*
Y9162D01*
Y9124D02*
X8603Y9094D01*
X9014Y9270D02*
Y9272D01*
X9031Y9288D01*
Y9561D01*
X9062Y9592D01*
X11143D01*
X11167Y9616D01*
X9091Y8250D02*
Y8251D01*
X9110Y8271D01*
X9237D01*
X9250Y8283D01*
X9267D01*
X9296Y8254D01*
X9605D01*
X9649Y8297D01*
X9754D01*
X9130Y8290D02*
Y8290D01*
X9148Y8308D01*
X9259D01*
X9303Y8264D01*
X9601D01*
X9662Y8326D01*
X9754D01*
X9101Y8612D02*
X9696D01*
X9092Y8603D02*
X9101Y8612D01*
X9696D02*
X9703Y8605D01*
X9742D01*
X9798Y8661D01*
X10158D01*
X10197Y8623D01*
Y8593D02*
Y8623D01*
X9958Y8619D02*
X9961D01*
X9955Y8622D02*
X9958Y8619D01*
X9847Y8622D02*
X9955D01*
X9820Y8594D02*
X9847Y8622D01*
X9356Y8594D02*
X9820D01*
X9169Y8486D02*
Y8487D01*
X9209Y8486D02*
X9248D01*
X9356Y8594D01*
X10219Y8750D02*
Y8817D01*
X8110Y8683D02*
Y8683D01*
X8093Y8701D02*
X8110Y8683D01*
X8069Y8701D02*
X8093D01*
X8051Y8719D02*
X8069Y8701D01*
X8051Y8719D02*
Y8882D01*
X8068Y8899D01*
X8200D01*
X8246Y8945D01*
Y9329D01*
X8204Y9371D02*
X8246Y9329D01*
X8144Y9371D02*
X8204D01*
X8131Y9384D02*
X8144Y9371D01*
X8131Y9384D02*
Y9648D01*
X8122Y9656D02*
X8131Y9648D01*
X7996Y10519D02*
X8149Y10366D01*
X7996Y10519D02*
Y11432D01*
X7978Y11450D02*
X7996Y11432D01*
X8030Y8683D02*
X8030D01*
X8013Y8700D02*
X8030Y8683D01*
X8013Y8700D02*
Y8781D01*
X7994Y8799D02*
X8013Y8781D01*
X7994Y8799D02*
Y8820D01*
X8011Y8837D01*
Y8924D01*
X8022Y8935D01*
X8195D01*
X8209Y8949D01*
Y9317D01*
X8196Y9330D02*
X8209Y9317D01*
X8136Y9330D02*
X8196D01*
X8091Y9375D02*
X8136Y9330D01*
X8091Y9375D02*
Y10040D01*
X8063Y10068D02*
X8091Y10040D01*
X8063Y10068D02*
Y10215D01*
X7947Y10331D02*
X8063Y10215D01*
X7947Y10331D02*
Y11415D01*
X7916Y11446D02*
X7947Y11415D01*
X7916Y11446D02*
Y11465D01*
X8148Y9113D02*
X8149D01*
X8131Y9095D02*
X8148Y9113D01*
X8131Y9069D02*
Y9095D01*
X8116Y9054D02*
X8131Y9069D01*
X7986Y9054D02*
X8116D01*
X7958Y9026D02*
X7986Y9054D01*
X7182Y9026D02*
X7958D01*
X7143Y8986D02*
X7182Y9026D01*
X9011Y9192D02*
X9061D01*
X9083Y9214D01*
X9255D01*
X9449Y9407D01*
X11287D01*
X11318Y9438D01*
X11434D01*
X11555Y9317D01*
Y9281D02*
Y9317D01*
X8973Y9232D02*
Y9234D01*
X8991Y9252D01*
X9056D01*
X9073Y9269D01*
Y9531D01*
X9124Y9582D01*
X9821D01*
X9850Y9553D01*
X9862D01*
X9891Y9582D01*
X10148D01*
X10176Y9554D01*
X10191D01*
X10219Y9582D01*
X11434D01*
X11469Y9617D01*
X8932Y9230D02*
Y9231D01*
Y9230D02*
X8950Y9213D01*
X9056D01*
X9112Y9269D01*
Y9556D01*
X9128Y9572D01*
X9817D01*
X9847Y9542D01*
X9869D01*
X9898Y9572D01*
X10144D01*
X10173Y9543D01*
X10195D01*
X10224Y9572D01*
X11577D01*
X11624Y9619D01*
X8972Y9192D02*
X8976D01*
X8995Y9173D01*
X9268D01*
X9492Y9397D01*
X11062D01*
X11077Y9383D01*
X9614Y9180D02*
Y9185D01*
X9677Y9248D01*
X10863D01*
X10906Y9205D01*
X11191D01*
X11209Y9220D01*
X11530D02*
X11535Y9226D01*
X9171Y9233D02*
X9225D01*
X9411Y9419D01*
X11285D01*
X11317Y9451D01*
X11438D01*
X11574Y9315D01*
Y9233D02*
Y9315D01*
X11549Y9209D02*
X11574Y9233D01*
X11515Y9209D02*
X11549D01*
X11512Y9206D02*
X11515Y9209D01*
X9992Y9156D02*
X10272D01*
X10295Y9179D01*
X11500D01*
X11512Y9167D01*
X8933Y9152D02*
Y9153D01*
Y9152D02*
X8951Y9134D01*
X11187Y9169D02*
X11216Y9141D01*
X11525D01*
X11535Y9152D01*
X9175Y9094D02*
X9205Y9124D01*
X9759D01*
X8603Y9094D02*
X9175D01*
X8591Y9055D02*
X8976D01*
X9006Y9084D01*
X9138D01*
X9163Y9059D01*
X9178D01*
X9233Y9114D01*
X9755D01*
X8895Y9037D02*
X8948D01*
X8967Y9019D01*
X8979D01*
X9035Y9074D01*
X9134D01*
X9160Y9048D01*
X8607Y9017D02*
X8928D01*
X8945Y9000D01*
X8990D01*
X9006Y9016D01*
X9217Y9048D02*
X9272Y9104D01*
X9160Y9048D02*
X9217D01*
X9751Y9104D02*
X9838Y9017D01*
X9272Y9104D02*
X9751D01*
X11525Y8933D02*
X11604Y9013D01*
Y9395D01*
X11582Y9417D02*
X11604Y9395D01*
X8091Y8819D02*
X8272D01*
X8301Y8790D01*
X8833D01*
X8882Y8740D01*
X8540Y8838D02*
Y8840D01*
X9055Y8760D02*
X9056D01*
X9672Y8756D02*
X9756Y8672D01*
X10550D01*
X10555Y8667D01*
X11521D01*
X11633Y8780D01*
X8882Y8740D02*
X9057D01*
X9086Y8711D01*
X9056Y8756D02*
X9091Y8721D01*
X8305Y8835D02*
Y8840D01*
Y8835D02*
X8340Y8800D01*
X8839D01*
X8861Y8778D01*
X9748Y8700D02*
X11509D01*
X11609Y8800D01*
X9580Y8756D02*
X9672D01*
X8861Y8778D02*
X9060D01*
X9080Y8758D01*
Y8748D02*
Y8758D01*
Y8748D02*
X9097Y8731D01*
X8906Y8701D02*
X9135D01*
X9164Y8671D01*
X9225D01*
X9251Y8697D01*
X9266D01*
X9291Y8671D01*
X9620D01*
X9669Y8720D01*
X9086Y8711D02*
X9140D01*
X9169Y8681D01*
X9221D01*
X9248Y8708D01*
X9271D01*
X9297Y8681D01*
X9528D01*
X9587Y8740D01*
X9091Y8721D02*
X9145D01*
X9174Y8691D01*
X9217D01*
X9244Y8719D01*
X9276D01*
X9303Y8691D01*
X9515D01*
X9056Y8756D02*
Y8760D01*
X9515Y8691D02*
X9580Y8756D01*
X9097Y8731D02*
X9150D01*
X9179Y8701D01*
X9213D01*
X9241Y8729D01*
X9539D01*
X9576Y8767D01*
X9681D01*
X9748Y8700D01*
X8345Y8837D02*
Y8840D01*
X12445Y8800D02*
X12778Y9133D01*
X12885D01*
X11609Y8800D02*
X12445D01*
X12885Y9133D02*
X12925Y9173D01*
X7946Y8150D02*
X8268D01*
X7917Y8121D02*
X7946Y8150D01*
X7572Y8121D02*
X7917D01*
X7498Y8195D02*
X7572Y8121D01*
X7592Y8131D02*
X7912D01*
X7518Y8205D02*
X7592Y8131D01*
X7596Y8141D02*
X7908D01*
X8025Y8189D02*
X8047D01*
X7995Y8160D02*
X8025Y8189D01*
X7941Y8160D02*
X7995D01*
X7912Y8131D02*
X7941Y8160D01*
X8027Y8228D02*
X8090D01*
X8012Y8214D02*
X8027Y8228D01*
X8012Y8190D02*
Y8214D01*
X7991Y8170D02*
X8012Y8190D01*
X7937Y8170D02*
X7991D01*
X7908Y8141D02*
X7937Y8170D01*
X8026Y8268D02*
X8366D01*
X8011Y8253D02*
X8026Y8268D01*
X8011Y8240D02*
Y8253D01*
X7998Y8227D02*
X8011Y8240D01*
X7667Y8227D02*
X7998D01*
X7643Y8251D02*
X7667Y8227D01*
X7641Y8253D02*
X7643D01*
X8305Y8324D02*
Y8328D01*
X8288Y8307D02*
X8305Y8324D01*
X7908Y8307D02*
X8288D01*
X7879Y8337D02*
X7908Y8307D01*
X7537Y8337D02*
X7879D01*
X7429Y8445D02*
X7537Y8337D01*
X7622Y7800D02*
Y7801D01*
X7660Y7840D01*
X8159D01*
X8443Y8123D01*
Y8270D01*
X8424Y8289D02*
X8443Y8270D01*
X6559Y7627D02*
Y7674D01*
X6630Y7745D01*
X7805D01*
X7417Y8195D02*
X7498D01*
X7323Y8101D02*
X7417Y8195D01*
X5911Y8101D02*
X7323D01*
X5817Y8195D02*
X5911Y8101D01*
X5375Y8195D02*
X5817D01*
X7412Y8205D02*
X7518D01*
X7318Y8111D02*
X7412Y8205D01*
X6882Y8111D02*
X7318D01*
X6744Y8248D02*
X6882Y8111D01*
X7521Y8216D02*
X7596Y8141D01*
X7408Y8216D02*
X7521D01*
X7313Y8121D02*
X7408Y8216D01*
X6958Y8121D02*
X7313D01*
X6811Y8268D02*
X6958Y8121D01*
X8110Y8644D02*
Y8645D01*
Y8644D02*
X8132Y8622D01*
X8823D01*
X8901Y8544D01*
X8987D01*
X9034Y8497D01*
Y8479D02*
Y8497D01*
Y8479D02*
X9049Y8465D01*
X9271D02*
X9333Y8527D01*
X10224D01*
X10264Y8487D01*
X10502D01*
X10618Y8603D01*
X9049Y8465D02*
X9271D01*
X8816Y9115D02*
Y9115D01*
Y9115D02*
X8817D01*
X8833Y9131D01*
X8901D01*
X8927Y9104D01*
X9020D01*
X9049Y9134D01*
X8951D02*
X9035D01*
X9056Y9155D01*
X9838Y9016D02*
Y9017D01*
Y9016D02*
X9921Y8933D01*
X11525D01*
X9864Y9005D02*
X9918D01*
X9954Y8969D01*
X10296D01*
X9755Y9114D02*
X9864Y9005D01*
X10296Y8969D02*
X10358Y9031D01*
X9802Y9081D02*
X10293D01*
X10338Y9036D01*
X9759Y9124D02*
X9802Y9081D01*
X9049Y9134D02*
X9795D01*
X9838Y9091D01*
X10981D01*
X10994Y9103D01*
X9820Y9155D02*
X9841Y9134D01*
X10886D01*
X10921Y9169D01*
X9056Y9155D02*
X9820D01*
X10920Y9169D02*
X11187D01*
X8697Y6765D02*
X9181D01*
X9231Y6715D01*
X10873D01*
X10892Y6734D01*
X11094Y6709D02*
X11107Y6696D01*
X11649D01*
X11824Y6871D01*
X12110D01*
X12226Y6755D01*
Y6644D02*
Y6755D01*
X8412Y6737D02*
X8646D01*
X8689Y6781D01*
X8967D01*
X8990Y6804D01*
X9013D01*
X9042Y6775D01*
X9186D01*
X9236Y6725D01*
X10702D01*
X11231Y6706D02*
X11644D01*
X11821Y6882D01*
X8396Y6764D02*
X8658D01*
X8686Y6791D01*
X8963D01*
X8987Y6815D01*
X9018D01*
X9048Y6785D01*
X9191D01*
X9241Y6735D01*
X10698D01*
X11236Y6716D02*
X11447D01*
X11478Y6747D01*
X11672D01*
X11817Y6893D01*
X12284D01*
X12327Y6850D01*
X12268Y6882D02*
X12299Y6850D01*
X11821Y6882D02*
X12268D01*
X9606Y8444D02*
X10249D01*
X10282Y8477D01*
X10782D01*
X10962Y8657D01*
X12435D02*
X12525Y8568D01*
X10962Y8657D02*
X12435D01*
X11817Y8862D02*
X11818D01*
X11828Y8852D01*
X11843D01*
X11852Y8862D01*
X12283D01*
X11811Y8851D02*
X11814D01*
X11824Y8842D01*
X11847D01*
X11858Y8852D01*
X12323D01*
X11418Y8894D02*
X11439Y8873D01*
X11291Y8894D02*
X11418D01*
X11802Y8873D02*
X11831Y8902D01*
X11857D01*
X11886Y8872D01*
X11439Y8873D02*
X11802D01*
X8122Y9656D02*
Y9677D01*
X8149Y9704D01*
Y10366D01*
X8960Y9292D02*
X8995Y9328D01*
Y9545D01*
X9052Y9602D01*
X10646D01*
X8771Y9292D02*
X8960D01*
X8752Y9744D02*
X8854D01*
X8576Y9569D02*
X8752Y9744D01*
X8580Y9558D02*
X8755Y9733D01*
X8849D01*
X8759Y9723D02*
X8805D01*
X8838Y9691D01*
X8583Y9547D02*
X8759Y9723D01*
X10400Y9711D02*
X10427Y9738D01*
X10096Y9691D02*
X10154Y9748D01*
X8838Y9691D02*
X10096D01*
X10114Y9680D02*
X10144Y9711D01*
X10400D01*
X10148Y9701D02*
X10352D01*
X10365Y9687D01*
X10117Y9669D02*
X10148Y9701D01*
X10031Y9711D02*
X10090Y9770D01*
X8887Y9711D02*
X10031D01*
X10090Y9770D02*
X11274D01*
X10014Y9756D02*
X10066Y9808D01*
X8473Y9756D02*
X10014D01*
X10066Y9808D02*
X11343D01*
X12377Y9950D02*
X12570Y9757D01*
X10545Y9716D02*
X10551Y9721D01*
X10456Y9716D02*
X10545D01*
X10740Y9705D02*
X10753Y9692D01*
X10470Y9705D02*
X10740D01*
X9126Y6429D02*
X9229Y6532D01*
X8996Y8346D02*
X9296D01*
X9323Y8373D01*
X9842D01*
X6536Y10876D02*
X6765Y11105D01*
X6536Y9007D02*
Y10876D01*
D84*
X13185Y6000D02*
Y12300D01*
X3999Y6000D02*
Y12299D01*
Y6000D02*
X13185D01*
X4575Y12150D02*
Y12299D01*
Y12150D02*
X6200D01*
Y12300D01*
X9350Y12150D02*
Y12300D01*
Y12150D02*
X10975D01*
Y12300D01*
X3999Y12299D02*
X4574D01*
X6200Y12300D02*
X9349D01*
X10975D02*
X13185D01*
D89*
X12888Y12453D02*
X12886Y12451D01*
X12888Y12449D01*
X12890Y12451D01*
X12888Y12453D01*
X12927Y12479D02*
X12925Y12483D01*
X12921Y12487D01*
X12918Y12489D01*
X12910D01*
X12906Y12487D01*
X12902Y12483D01*
X12900Y12479D01*
X12899Y12474D01*
Y12464D01*
X12900Y12459D01*
X12902Y12455D01*
X12906Y12451D01*
X12910Y12449D01*
X12918D01*
X12921Y12451D01*
X12925Y12455D01*
X12927Y12459D01*
Y12464D01*
X12918D02*
X12927D01*
X12946Y12489D02*
X12940Y12487D01*
X12938Y12483D01*
Y12479D01*
X12940Y12476D01*
X12944Y12474D01*
X12952Y12472D01*
X12957Y12470D01*
X12961Y12466D01*
X12963Y12462D01*
Y12457D01*
X12961Y12453D01*
X12959Y12451D01*
X12953Y12449D01*
X12946D01*
X12940Y12451D01*
X12938Y12453D01*
X12936Y12457D01*
Y12462D01*
X12938Y12466D01*
X12942Y12470D01*
X12948Y12472D01*
X12955Y12474D01*
X12959Y12476D01*
X12961Y12479D01*
Y12483D01*
X12959Y12487D01*
X12953Y12489D01*
X12946D01*
D93*
X12926Y9172D02*
D03*
D118*
X9250Y8881D02*
D03*
X9052Y8918D02*
D03*
X12226Y6644D02*
D03*
X12570Y9759D02*
D03*
X8332Y9877D02*
D03*
X8727Y7362D02*
D03*
X8947Y6450D02*
D03*
X8812Y6561D02*
D03*
X10979Y8441D02*
D03*
X8812Y6661D02*
D03*
X9092Y6456D02*
D03*
X8482Y6923D02*
D03*
X7143Y8986D02*
D03*
X7899Y10429D02*
D03*
X7928Y10455D02*
D03*
X6892Y9243D02*
D03*
X6885Y8723D02*
D03*
X10197Y8593D02*
D03*
X10207Y8278D02*
D03*
X9754Y8326D02*
D03*
Y8297D02*
D03*
X7429Y8445D02*
D03*
X6744Y8248D02*
D03*
X6677D02*
D03*
X7701Y8408D02*
D03*
X7898Y8528D02*
D03*
X9567Y8899D02*
D03*
X9547Y8800D02*
D03*
X7735Y8369D02*
D03*
X8327Y7591D02*
D03*
X8260Y7711D02*
D03*
X8637Y7755D02*
D03*
X5100Y8257D02*
D03*
X5431Y7995D02*
D03*
X7236Y8830D02*
D03*
X11535Y9152D02*
D03*
X11512Y9167D02*
D03*
Y9205D02*
D03*
X11535Y9226D02*
D03*
X11555Y9281D02*
D03*
X11167Y9616D02*
D03*
X11469Y9617D02*
D03*
X11624Y9619D02*
D03*
X9393Y8819D02*
D03*
X7622Y7800D02*
D03*
X8974Y8367D02*
D03*
X8737Y8328D02*
D03*
X8699Y8327D02*
D03*
X8659Y8366D02*
D03*
X8698Y8367D02*
D03*
X9171Y9233D02*
D03*
X9010Y9192D02*
D03*
X8972D02*
D03*
X8973Y9232D02*
D03*
X9014Y9270D02*
D03*
X8932Y9231D02*
D03*
X8933Y9153D02*
D03*
X8895Y9037D02*
D03*
X8816Y9115D02*
D03*
X8657Y9310D02*
D03*
X8305Y8328D02*
D03*
X8344Y8445D02*
D03*
X7912Y8605D02*
D03*
X8110Y8645D02*
D03*
X8108Y8210D02*
D03*
X8265Y8131D02*
D03*
X8385Y8251D02*
D03*
X8384Y8289D02*
D03*
X8425Y8172D02*
D03*
X8385Y8212D02*
D03*
X8030Y8683D02*
D03*
X8110D02*
D03*
X8424Y8289D02*
D03*
X8423Y8328D02*
D03*
X8425Y8485D02*
D03*
X8346Y8487D02*
D03*
X8503Y8526D02*
D03*
X8306Y8683D02*
D03*
X8187Y9429D02*
D03*
X8031Y9192D02*
D03*
X7990Y9114D02*
D03*
X8149Y9113D02*
D03*
X8187Y9114D02*
D03*
X8306Y9428D02*
D03*
X8344Y9429D02*
D03*
X8425Y9035D02*
D03*
X8540Y8840D02*
D03*
X8345Y8840D02*
D03*
X8305D02*
D03*
X8070D02*
D03*
X8540Y9115D02*
D03*
Y9155D02*
D03*
X8620Y9195D02*
D03*
X8540D02*
D03*
X8620Y9235D02*
D03*
Y9275D02*
D03*
X8540Y9390D02*
D03*
X8620D02*
D03*
X8425Y8995D02*
D03*
X8500Y8920D02*
D03*
X8385Y8995D02*
D03*
X8030Y9270D02*
D03*
X8150Y9035D02*
D03*
X8460Y9075D02*
D03*
X9015Y8880D02*
D03*
X8975Y8840D02*
D03*
X8935D02*
D03*
X9095D02*
D03*
X9055Y8760D02*
D03*
X8070Y8765D02*
D03*
X8150D02*
D03*
X8150Y8720D02*
D03*
X8070Y8212D02*
D03*
X9092Y8603D02*
D03*
X9169Y8486D02*
D03*
X9209D02*
D03*
X9091Y8250D02*
D03*
X9130Y8290D02*
D03*
X11077Y9383D02*
D03*
X5179Y8232D02*
D03*
X6559Y7627D02*
D03*
X7190Y7628D02*
D03*
X7228Y7627D02*
D03*
X7268Y7627D02*
D03*
X7307Y7628D02*
D03*
X7687Y8369D02*
D03*
X7671Y8526D02*
D03*
X7641Y8253D02*
D03*
X7465Y8174D02*
D03*
X7549Y8445D02*
D03*
X7805Y7745D02*
D03*
X11890Y9764D02*
D03*
X12362Y9736D02*
D03*
X12421Y9720D02*
D03*
X10551Y9721D02*
D03*
X10437Y9709D02*
D03*
X10753Y9692D02*
D03*
X10477Y9686D02*
D03*
X10637D02*
D03*
X10676Y9687D02*
D03*
X10338Y9036D02*
D03*
X10358Y9031D02*
D03*
X12358Y8902D02*
D03*
X11398Y8878D02*
D03*
X12303Y8882D02*
D03*
X12323Y8852D02*
D03*
X11402Y9823D02*
D03*
X9587Y8740D02*
D03*
X9669Y8732D02*
D03*
X9709Y8622D02*
D03*
X9677Y8638D02*
D03*
X8244Y7484D02*
D03*
X8287Y7516D02*
D03*
X8311Y7571D02*
D03*
X8169Y7508D02*
D03*
X12299Y6850D02*
D03*
X12327D02*
D03*
X9260Y8268D02*
D03*
X10365Y9687D02*
D03*
X10219Y8750D02*
D03*
X9961Y8619D02*
D03*
X11001Y8628D02*
D03*
X9614Y9180D02*
D03*
X9992Y9156D02*
D03*
X7916Y11465D02*
D03*
X7978Y11450D02*
D03*
X11582Y9417D02*
D03*
X11633Y8780D02*
D03*
X11933Y6650D02*
D03*
X12087Y6850D02*
D03*
X11122Y6663D02*
D03*
X11014Y6604D02*
D03*
X10618Y8603D02*
D03*
X10994Y9103D02*
D03*
X8697Y6765D02*
D03*
X8412Y6737D02*
D03*
X8396Y6764D02*
D03*
X9606Y8444D02*
D03*
X12525Y8568D02*
D03*
D121*
X6766Y11106D02*
D03*
M02*
