%FSLAX24Y24*%
%MOIN*%
G70*
G01*
G75*
G04 Layer_Physical_Order=1*
G04 Layer_Color=255*
%ADD10O,0.0236X0.0866*%
%ADD11C,0.0250*%
%ADD12C,0.1000*%
%ADD13C,0.0800*%
%ADD14R,0.0630X0.0630*%
%ADD15C,0.0630*%
%ADD16C,0.1700*%
D10*
X26300Y33505D02*
D03*
X26800D02*
D03*
X27300D02*
D03*
X27800D02*
D03*
X26300Y35395D02*
D03*
X26800D02*
D03*
X27300D02*
D03*
X27800D02*
D03*
X16550Y33505D02*
D03*
X17050D02*
D03*
X17550D02*
D03*
X18050D02*
D03*
X16550Y35395D02*
D03*
X17050D02*
D03*
X17550D02*
D03*
X18050D02*
D03*
X43800Y33505D02*
D03*
X44300D02*
D03*
X44800D02*
D03*
X45300D02*
D03*
X43800Y35395D02*
D03*
X44300D02*
D03*
X44800D02*
D03*
X45300D02*
D03*
X34050Y33505D02*
D03*
X34550D02*
D03*
X35050D02*
D03*
X35550D02*
D03*
X34050Y35395D02*
D03*
X34550D02*
D03*
X35050D02*
D03*
X35550D02*
D03*
X61300Y33505D02*
D03*
X61800D02*
D03*
X62300D02*
D03*
X62800D02*
D03*
X61300Y35395D02*
D03*
X61800D02*
D03*
X62300D02*
D03*
X62800D02*
D03*
X51550Y33505D02*
D03*
X52050D02*
D03*
X52550D02*
D03*
X53050D02*
D03*
X51550Y35395D02*
D03*
X52050D02*
D03*
X52550D02*
D03*
X53050D02*
D03*
D11*
X16050Y42100D02*
X16100Y42150D01*
X19925Y44728D02*
X19930Y44732D01*
X23200D02*
X23205Y44728D01*
X18622Y42850D02*
X19385Y43612D01*
X17050Y42100D02*
X17800Y42850D01*
X18622D01*
X19050Y42188D02*
X20475Y43612D01*
X19050Y42100D02*
Y42188D01*
X16562Y43612D02*
X18295D01*
X15050Y42100D02*
X16562Y43612D01*
X23200Y44732D02*
X23468D01*
X24300Y43900D01*
Y43842D02*
Y43900D01*
X24295Y43836D02*
X24300Y43842D01*
X24295Y42855D02*
Y43836D01*
Y42855D02*
X25050Y42100D01*
X24290Y44732D02*
X24518D01*
X25385Y43389D02*
Y43865D01*
X24518Y44732D02*
X25385Y43865D01*
Y43389D02*
X25873Y42900D01*
X26250D01*
X27050Y42100D01*
X25380Y44732D02*
X26418D01*
X29050Y42100D01*
X15550Y32950D02*
X16400D01*
X16550Y33100D01*
Y33505D01*
X18150Y32950D02*
X19050D01*
X18050Y33050D02*
X18150Y32950D01*
X18050Y33050D02*
Y33505D01*
X18250Y35950D02*
X19050D01*
X18050Y35750D02*
X18250Y35950D01*
X18050Y35395D02*
Y35750D01*
X15550Y35950D02*
X16350D01*
X16550Y35750D01*
Y35395D02*
Y35750D01*
X17050Y33505D02*
Y34050D01*
X16163Y34163D02*
X16937D01*
X15550Y33950D02*
X15950D01*
X16937Y34163D02*
X17050Y34050D01*
X15950Y33950D02*
X16163Y34163D01*
X17050Y34800D02*
Y35395D01*
X16950Y34700D02*
X17050Y34800D01*
X16300Y34700D02*
X16950D01*
X16050Y34950D02*
X16300Y34700D01*
X15550Y34950D02*
X16050D01*
X17550Y34850D02*
Y35395D01*
Y34850D02*
X17700Y34700D01*
X18300D01*
X18550Y34950D01*
X19050D01*
X17550Y33505D02*
Y34050D01*
X17700Y34200D01*
X18300D01*
X18550Y33950D01*
X19050D01*
X15050Y39100D02*
Y40100D01*
Y41100D01*
Y42100D01*
X16050Y39100D02*
Y40100D01*
Y41100D01*
Y42100D01*
X17050Y39100D02*
Y40100D01*
Y41100D01*
Y42100D01*
X18050Y39100D02*
Y40100D01*
Y41100D01*
Y42100D01*
X19050Y39100D02*
Y40100D01*
Y41100D01*
Y42100D01*
X20050Y39100D02*
Y40100D01*
Y41100D01*
Y42100D01*
X22050Y39100D02*
Y40100D01*
Y41100D01*
Y42100D01*
X24050Y39100D02*
Y40100D01*
Y41100D01*
Y42100D01*
X25050Y39100D02*
Y40100D01*
Y41100D01*
Y42100D01*
X26050Y39100D02*
Y40100D01*
Y41100D01*
Y42100D01*
X27050Y39100D02*
Y40100D01*
Y41100D01*
Y42100D01*
X28050Y39100D02*
Y40100D01*
Y41100D01*
Y42100D01*
X29050Y39100D02*
Y40100D01*
Y41100D01*
Y42100D01*
X14550Y37100D02*
X15550D01*
X16550D01*
X17550D01*
X18550D02*
X19550D01*
X20550D01*
X21550D01*
X22850D02*
X23850D01*
X24850D01*
X25850D01*
X26850D02*
X27850D01*
X28850D01*
X29850D01*
X21550Y32950D02*
Y33950D01*
Y34950D01*
Y35950D01*
X22850Y32950D02*
Y33950D01*
Y34950D01*
Y35950D01*
X27800Y33050D02*
X27900Y32950D01*
X27800Y33050D02*
Y33505D01*
X27900Y32950D02*
X28800D01*
X27800Y35750D02*
X28000Y35950D01*
X28800D01*
X25300Y32950D02*
X26150D01*
X26300Y33100D01*
Y33505D01*
X27300Y34850D02*
X27450Y34700D01*
X28050D01*
X27300Y34850D02*
Y35395D01*
X28050Y34700D02*
X28300Y34950D01*
X28800D01*
X27300Y33505D02*
Y34050D01*
X27450Y34200D01*
X28050D01*
X28300Y33950D01*
X28800D01*
X25300Y35950D02*
X26100D01*
X26300Y35750D01*
X25300Y33950D02*
X25700D01*
X26800Y33505D02*
Y34050D01*
X25700Y33950D02*
X25913Y34163D01*
X26687D02*
X26800Y34050D01*
X25913Y34163D02*
X26687D01*
X25300Y34950D02*
X25800D01*
X26050Y34700D01*
X26700D01*
X26800Y34800D01*
Y35395D01*
X26300D02*
Y35750D01*
X27800Y35395D02*
Y35750D01*
X22850Y31600D02*
X23850D01*
X24850D01*
X25850D01*
X18550D02*
X19550D01*
X20550D01*
X21550D01*
X33550Y42100D02*
X33600Y42150D01*
X37425Y44728D02*
X37430Y44732D01*
X40700D02*
X40705Y44728D01*
X36122Y42850D02*
X36885Y43612D01*
X34550Y42100D02*
X35300Y42850D01*
X36122D01*
X36550Y42188D02*
X37975Y43612D01*
X36550Y42100D02*
Y42188D01*
X34062Y43612D02*
X35795D01*
X32550Y42100D02*
X34062Y43612D01*
X40700Y44732D02*
X40967D01*
X41800Y43900D01*
Y43842D02*
Y43900D01*
X41795Y43836D02*
X41800Y43842D01*
X41795Y42855D02*
Y43836D01*
Y42855D02*
X42550Y42100D01*
X41790Y44732D02*
X42017D01*
X42885Y43389D02*
Y43865D01*
X42017Y44732D02*
X42885Y43865D01*
Y43389D02*
X43373Y42900D01*
X43750D01*
X44550Y42100D01*
X42880Y44732D02*
X43917D01*
X46550Y42100D01*
X33050Y32950D02*
X33900D01*
X34050Y33100D01*
Y33505D01*
X35650Y32950D02*
X36550D01*
X35550Y33050D02*
X35650Y32950D01*
X35550Y33050D02*
Y33505D01*
X35750Y35950D02*
X36550D01*
X35550Y35750D02*
X35750Y35950D01*
X35550Y35395D02*
Y35750D01*
X33050Y35950D02*
X33850D01*
X34050Y35750D01*
Y35395D02*
Y35750D01*
X34550Y33505D02*
Y34050D01*
X33663Y34163D02*
X34437D01*
X33050Y33950D02*
X33450D01*
X34437Y34163D02*
X34550Y34050D01*
X33450Y33950D02*
X33663Y34163D01*
X34550Y34800D02*
Y35395D01*
X34450Y34700D02*
X34550Y34800D01*
X33800Y34700D02*
X34450D01*
X33550Y34950D02*
X33800Y34700D01*
X33050Y34950D02*
X33550D01*
X35050Y34850D02*
Y35395D01*
Y34850D02*
X35200Y34700D01*
X35800D01*
X36050Y34950D01*
X36550D01*
X35050Y33505D02*
Y34050D01*
X35200Y34200D01*
X35800D01*
X36050Y33950D01*
X36550D01*
X32550Y39100D02*
Y40100D01*
Y41100D01*
Y42100D01*
X33550Y39100D02*
Y40100D01*
Y41100D01*
Y42100D01*
X34550Y39100D02*
Y40100D01*
Y41100D01*
Y42100D01*
X35550Y39100D02*
Y40100D01*
Y41100D01*
Y42100D01*
X36550Y39100D02*
Y40100D01*
Y41100D01*
Y42100D01*
X37550Y39100D02*
Y40100D01*
Y41100D01*
Y42100D01*
X39550Y39100D02*
Y40100D01*
Y41100D01*
Y42100D01*
X41550Y39100D02*
Y40100D01*
Y41100D01*
Y42100D01*
X42550Y39100D02*
Y40100D01*
Y41100D01*
Y42100D01*
X43550Y39100D02*
Y40100D01*
Y41100D01*
Y42100D01*
X44550Y39100D02*
Y40100D01*
Y41100D01*
Y42100D01*
X45550Y39100D02*
Y40100D01*
Y41100D01*
Y42100D01*
X46550Y39100D02*
Y40100D01*
Y41100D01*
Y42100D01*
X32050Y37100D02*
X33050D01*
X34050D01*
X35050D01*
X36050D02*
X37050D01*
X38050D01*
X39050D01*
X40350D02*
X41350D01*
X42350D01*
X43350D01*
X44350D02*
X45350D01*
X46350D01*
X47350D01*
X39050Y32950D02*
Y33950D01*
Y34950D01*
Y35950D01*
X40350Y32950D02*
Y33950D01*
Y34950D01*
Y35950D01*
X45300Y33050D02*
X45400Y32950D01*
X45300Y33050D02*
Y33505D01*
X45400Y32950D02*
X46300D01*
X45300Y35750D02*
X45500Y35950D01*
X46300D01*
X42800Y32950D02*
X43650D01*
X43800Y33100D01*
Y33505D01*
X44800Y34850D02*
X44950Y34700D01*
X45550D01*
X44800Y34850D02*
Y35395D01*
X45550Y34700D02*
X45800Y34950D01*
X46300D01*
X44800Y33505D02*
Y34050D01*
X44950Y34200D01*
X45550D01*
X45800Y33950D01*
X46300D01*
X42800Y35950D02*
X43600D01*
X43800Y35750D01*
X42800Y33950D02*
X43200D01*
X44300Y33505D02*
Y34050D01*
X43200Y33950D02*
X43413Y34163D01*
X44187D02*
X44300Y34050D01*
X43413Y34163D02*
X44187D01*
X42800Y34950D02*
X43300D01*
X43550Y34700D01*
X44200D01*
X44300Y34800D01*
Y35395D01*
X43800D02*
Y35750D01*
X45300Y35395D02*
Y35750D01*
X40350Y31600D02*
X41350D01*
X42350D01*
X43350D01*
X36050D02*
X37050D01*
X38050D01*
X39050D01*
X51050Y42100D02*
X51100Y42150D01*
X54925Y44728D02*
X54930Y44732D01*
X58200D02*
X58205Y44728D01*
X53622Y42850D02*
X54385Y43612D01*
X52050Y42100D02*
X52800Y42850D01*
X53622D01*
X54050Y42188D02*
X55475Y43612D01*
X54050Y42100D02*
Y42188D01*
X51562Y43612D02*
X53295D01*
X50050Y42100D02*
X51562Y43612D01*
X58200Y44732D02*
X58467D01*
X59300Y43900D01*
Y43842D02*
Y43900D01*
X59295Y43836D02*
X59300Y43842D01*
X59295Y42855D02*
Y43836D01*
Y42855D02*
X60050Y42100D01*
X59290Y44732D02*
X59517D01*
X60385Y43389D02*
Y43865D01*
X59517Y44732D02*
X60385Y43865D01*
Y43389D02*
X60873Y42900D01*
X61250D01*
X62050Y42100D01*
X60380Y44732D02*
X61417D01*
X64050Y42100D01*
X50550Y32950D02*
X51400D01*
X51550Y33100D01*
Y33505D01*
X53150Y32950D02*
X54050D01*
X53050Y33050D02*
X53150Y32950D01*
X53050Y33050D02*
Y33505D01*
X53250Y35950D02*
X54050D01*
X53050Y35750D02*
X53250Y35950D01*
X53050Y35395D02*
Y35750D01*
X50550Y35950D02*
X51350D01*
X51550Y35750D01*
Y35395D02*
Y35750D01*
X52050Y33505D02*
Y34050D01*
X51163Y34163D02*
X51937D01*
X50550Y33950D02*
X50950D01*
X51937Y34163D02*
X52050Y34050D01*
X50950Y33950D02*
X51163Y34163D01*
X52050Y34800D02*
Y35395D01*
X51950Y34700D02*
X52050Y34800D01*
X51300Y34700D02*
X51950D01*
X51050Y34950D02*
X51300Y34700D01*
X50550Y34950D02*
X51050D01*
X52550Y34850D02*
Y35395D01*
Y34850D02*
X52700Y34700D01*
X53300D01*
X53550Y34950D01*
X54050D01*
X52550Y33505D02*
Y34050D01*
X52700Y34200D01*
X53300D01*
X53550Y33950D01*
X54050D01*
X50050Y39100D02*
Y40100D01*
Y41100D01*
Y42100D01*
X51050Y39100D02*
Y40100D01*
Y41100D01*
Y42100D01*
X52050Y39100D02*
Y40100D01*
Y41100D01*
Y42100D01*
X53050Y39100D02*
Y40100D01*
Y41100D01*
Y42100D01*
X54050Y39100D02*
Y40100D01*
Y41100D01*
Y42100D01*
X55050Y39100D02*
Y40100D01*
Y41100D01*
Y42100D01*
X57050Y39100D02*
Y40100D01*
Y41100D01*
Y42100D01*
X59050Y39100D02*
Y40100D01*
Y41100D01*
Y42100D01*
X60050Y39100D02*
Y40100D01*
Y41100D01*
Y42100D01*
X61050Y39100D02*
Y40100D01*
Y41100D01*
Y42100D01*
X62050Y39100D02*
Y40100D01*
Y41100D01*
Y42100D01*
X63050Y39100D02*
Y40100D01*
Y41100D01*
Y42100D01*
X64050Y39100D02*
Y40100D01*
Y41100D01*
Y42100D01*
X49550Y37100D02*
X50550D01*
X51550D01*
X52550D01*
X53550D02*
X54550D01*
X55550D01*
X56550D01*
X57850D02*
X58850D01*
X59850D01*
X60850D01*
X61850D02*
X62850D01*
X63850D01*
X64850D01*
X56550Y32950D02*
Y33950D01*
Y34950D01*
Y35950D01*
X57850Y32950D02*
Y33950D01*
Y34950D01*
Y35950D01*
X62800Y33050D02*
X62900Y32950D01*
X62800Y33050D02*
Y33505D01*
X62900Y32950D02*
X63800D01*
X62800Y35750D02*
X63000Y35950D01*
X63800D01*
X60300Y32950D02*
X61150D01*
X61300Y33100D01*
Y33505D01*
X62300Y34850D02*
X62450Y34700D01*
X63050D01*
X62300Y34850D02*
Y35395D01*
X63050Y34700D02*
X63300Y34950D01*
X63800D01*
X62300Y33505D02*
Y34050D01*
X62450Y34200D01*
X63050D01*
X63300Y33950D01*
X63800D01*
X60300Y35950D02*
X61100D01*
X61300Y35750D01*
X60300Y33950D02*
X60700D01*
X61800Y33505D02*
Y34050D01*
X60700Y33950D02*
X60913Y34163D01*
X61687D02*
X61800Y34050D01*
X60913Y34163D02*
X61687D01*
X60300Y34950D02*
X60800D01*
X61050Y34700D01*
X61700D01*
X61800Y34800D01*
Y35395D01*
X61300D02*
Y35750D01*
X62800Y35395D02*
Y35750D01*
X57850Y31600D02*
X58850D01*
X59850D01*
X60850D01*
X53550D02*
X54550D01*
X55550D01*
X56550D01*
D12*
X29170Y31550D02*
D03*
X15050D02*
D03*
X46670D02*
D03*
X32550D02*
D03*
X64170D02*
D03*
X50050D02*
D03*
D13*
X22850Y31600D02*
D03*
X24850D02*
D03*
X25850D02*
D03*
X23850D02*
D03*
X18550D02*
D03*
X20550D02*
D03*
X21550D02*
D03*
X19550D02*
D03*
X25300Y32950D02*
D03*
X14550Y37100D02*
D03*
X26850D02*
D03*
X16550D02*
D03*
X28850D02*
D03*
X17550D02*
D03*
X29850D02*
D03*
X15550D02*
D03*
X27850D02*
D03*
X29800Y32950D02*
D03*
X20050D02*
D03*
X28800D02*
D03*
X19050D02*
D03*
X29800Y35950D02*
D03*
X20050D02*
D03*
X28800D02*
D03*
X19050D02*
D03*
X15550Y32950D02*
D03*
X24300D02*
D03*
X14550D02*
D03*
X28800Y34950D02*
D03*
X19050D02*
D03*
X29800Y33950D02*
D03*
X20050D02*
D03*
X29800Y34950D02*
D03*
X20050D02*
D03*
X28800Y33950D02*
D03*
X19050D02*
D03*
X24300Y35950D02*
D03*
X14550D02*
D03*
X25300D02*
D03*
X15550D02*
D03*
X25300Y33950D02*
D03*
X15550D02*
D03*
X24300D02*
D03*
X14550D02*
D03*
X24300Y34950D02*
D03*
X14550D02*
D03*
X25300D02*
D03*
X15550D02*
D03*
X22850Y32950D02*
D03*
X21550D02*
D03*
X18550Y37100D02*
D03*
X22850D02*
D03*
Y35950D02*
D03*
X21550Y33950D02*
D03*
X20550Y37100D02*
D03*
X24850D02*
D03*
X22850Y34950D02*
D03*
X21550D02*
D03*
Y37100D02*
D03*
X25850D02*
D03*
X22850Y33950D02*
D03*
X21550Y35950D02*
D03*
X19550Y37100D02*
D03*
X23850D02*
D03*
X28050Y41100D02*
D03*
X15050Y42100D02*
D03*
X17050D02*
D03*
X19050D02*
D03*
X24050D02*
D03*
X26050D02*
D03*
X16050D02*
D03*
X18050Y41100D02*
D03*
X20050Y42100D02*
D03*
X22050D02*
D03*
X25050D02*
D03*
X27050D02*
D03*
X29050Y41100D02*
D03*
X15050Y40100D02*
D03*
X17050Y41100D02*
D03*
X19050D02*
D03*
X24050D02*
D03*
X26050D02*
D03*
X28050Y42100D02*
D03*
X16050Y40100D02*
D03*
X18050D02*
D03*
X20050Y41100D02*
D03*
X22050D02*
D03*
X25050D02*
D03*
X27050Y40100D02*
D03*
X29050D02*
D03*
X15050Y39100D02*
D03*
X17050Y40100D02*
D03*
X19050D02*
D03*
X24050D02*
D03*
X26050D02*
D03*
X28050Y39100D02*
D03*
X16050D02*
D03*
X18050D02*
D03*
X20050Y40100D02*
D03*
X22050D02*
D03*
X25050D02*
D03*
X27050Y41100D02*
D03*
X29050Y39100D02*
D03*
X15050Y41100D02*
D03*
X17050Y39100D02*
D03*
X19050D02*
D03*
X24050D02*
D03*
X26050D02*
D03*
X28050Y40100D02*
D03*
X16050Y41100D02*
D03*
X18050Y42100D02*
D03*
X20050Y39100D02*
D03*
X22050D02*
D03*
X25050D02*
D03*
X27050D02*
D03*
X29050Y42100D02*
D03*
X40350Y31600D02*
D03*
X42350D02*
D03*
X43350D02*
D03*
X41350D02*
D03*
X36050D02*
D03*
X38050D02*
D03*
X39050D02*
D03*
X37050D02*
D03*
X42800Y32950D02*
D03*
X32050Y37100D02*
D03*
X44350D02*
D03*
X34050D02*
D03*
X46350D02*
D03*
X35050D02*
D03*
X47350D02*
D03*
X33050D02*
D03*
X45350D02*
D03*
X47300Y32950D02*
D03*
X37550D02*
D03*
X46300D02*
D03*
X36550D02*
D03*
X47300Y35950D02*
D03*
X37550D02*
D03*
X46300D02*
D03*
X36550D02*
D03*
X33050Y32950D02*
D03*
X41800D02*
D03*
X32050D02*
D03*
X46300Y34950D02*
D03*
X36550D02*
D03*
X47300Y33950D02*
D03*
X37550D02*
D03*
X47300Y34950D02*
D03*
X37550D02*
D03*
X46300Y33950D02*
D03*
X36550D02*
D03*
X41800Y35950D02*
D03*
X32050D02*
D03*
X42800D02*
D03*
X33050D02*
D03*
X42800Y33950D02*
D03*
X33050D02*
D03*
X41800D02*
D03*
X32050D02*
D03*
X41800Y34950D02*
D03*
X32050D02*
D03*
X42800D02*
D03*
X33050D02*
D03*
X40350Y32950D02*
D03*
X39050D02*
D03*
X36050Y37100D02*
D03*
X40350D02*
D03*
Y35950D02*
D03*
X39050Y33950D02*
D03*
X38050Y37100D02*
D03*
X42350D02*
D03*
X40350Y34950D02*
D03*
X39050D02*
D03*
Y37100D02*
D03*
X43350D02*
D03*
X40350Y33950D02*
D03*
X39050Y35950D02*
D03*
X37050Y37100D02*
D03*
X41350D02*
D03*
X45550Y41100D02*
D03*
X32550Y42100D02*
D03*
X34550D02*
D03*
X36550D02*
D03*
X41550D02*
D03*
X43550D02*
D03*
X33550D02*
D03*
X35550Y41100D02*
D03*
X37550Y42100D02*
D03*
X39550D02*
D03*
X42550D02*
D03*
X44550D02*
D03*
X46550Y41100D02*
D03*
X32550Y40100D02*
D03*
X34550Y41100D02*
D03*
X36550D02*
D03*
X41550D02*
D03*
X43550D02*
D03*
X45550Y42100D02*
D03*
X33550Y40100D02*
D03*
X35550D02*
D03*
X37550Y41100D02*
D03*
X39550D02*
D03*
X42550D02*
D03*
X44550Y40100D02*
D03*
X46550D02*
D03*
X32550Y39100D02*
D03*
X34550Y40100D02*
D03*
X36550D02*
D03*
X41550D02*
D03*
X43550D02*
D03*
X45550Y39100D02*
D03*
X33550D02*
D03*
X35550D02*
D03*
X37550Y40100D02*
D03*
X39550D02*
D03*
X42550D02*
D03*
X44550Y41100D02*
D03*
X46550Y39100D02*
D03*
X32550Y41100D02*
D03*
X34550Y39100D02*
D03*
X36550D02*
D03*
X41550D02*
D03*
X43550D02*
D03*
X45550Y40100D02*
D03*
X33550Y41100D02*
D03*
X35550Y42100D02*
D03*
X37550Y39100D02*
D03*
X39550D02*
D03*
X42550D02*
D03*
X44550D02*
D03*
X46550Y42100D02*
D03*
X57850Y31600D02*
D03*
X59850D02*
D03*
X60850D02*
D03*
X58850D02*
D03*
X53550D02*
D03*
X55550D02*
D03*
X56550D02*
D03*
X54550D02*
D03*
X60300Y32950D02*
D03*
X49550Y37100D02*
D03*
X61850D02*
D03*
X51550D02*
D03*
X63850D02*
D03*
X52550D02*
D03*
X64850D02*
D03*
X50550D02*
D03*
X62850D02*
D03*
X64800Y32950D02*
D03*
X55050D02*
D03*
X63800D02*
D03*
X54050D02*
D03*
X64800Y35950D02*
D03*
X55050D02*
D03*
X63800D02*
D03*
X54050D02*
D03*
X50550Y32950D02*
D03*
X59300D02*
D03*
X49550D02*
D03*
X63800Y34950D02*
D03*
X54050D02*
D03*
X64800Y33950D02*
D03*
X55050D02*
D03*
X64800Y34950D02*
D03*
X55050D02*
D03*
X63800Y33950D02*
D03*
X54050D02*
D03*
X59300Y35950D02*
D03*
X49550D02*
D03*
X60300D02*
D03*
X50550D02*
D03*
X60300Y33950D02*
D03*
X50550D02*
D03*
X59300D02*
D03*
X49550D02*
D03*
X59300Y34950D02*
D03*
X49550D02*
D03*
X60300D02*
D03*
X50550D02*
D03*
X57850Y32950D02*
D03*
X56550D02*
D03*
X53550Y37100D02*
D03*
X57850D02*
D03*
Y35950D02*
D03*
X56550Y33950D02*
D03*
X55550Y37100D02*
D03*
X59850D02*
D03*
X57850Y34950D02*
D03*
X56550D02*
D03*
Y37100D02*
D03*
X60850D02*
D03*
X57850Y33950D02*
D03*
X56550Y35950D02*
D03*
X54550Y37100D02*
D03*
X58850D02*
D03*
X63050Y41100D02*
D03*
X50050Y42100D02*
D03*
X52050D02*
D03*
X54050D02*
D03*
X59050D02*
D03*
X61050D02*
D03*
X51050D02*
D03*
X53050Y41100D02*
D03*
X55050Y42100D02*
D03*
X57050D02*
D03*
X60050D02*
D03*
X62050D02*
D03*
X64050Y41100D02*
D03*
X50050Y40100D02*
D03*
X52050Y41100D02*
D03*
X54050D02*
D03*
X59050D02*
D03*
X61050D02*
D03*
X63050Y42100D02*
D03*
X51050Y40100D02*
D03*
X53050D02*
D03*
X55050Y41100D02*
D03*
X57050D02*
D03*
X60050D02*
D03*
X62050Y40100D02*
D03*
X64050D02*
D03*
X50050Y39100D02*
D03*
X52050Y40100D02*
D03*
X54050D02*
D03*
X59050D02*
D03*
X61050D02*
D03*
X63050Y39100D02*
D03*
X51050D02*
D03*
X53050D02*
D03*
X55050Y40100D02*
D03*
X57050D02*
D03*
X60050D02*
D03*
X62050Y41100D02*
D03*
X64050Y39100D02*
D03*
X50050Y41100D02*
D03*
X52050Y39100D02*
D03*
X54050D02*
D03*
X59050D02*
D03*
X61050D02*
D03*
X63050Y40100D02*
D03*
X51050Y41100D02*
D03*
X53050Y42100D02*
D03*
X55050Y39100D02*
D03*
X57050D02*
D03*
X60050D02*
D03*
X62050D02*
D03*
X64050Y42100D02*
D03*
D14*
X18295Y43612D02*
D03*
X19930Y44732D02*
D03*
X35795Y43612D02*
D03*
X37430Y44732D02*
D03*
X53295Y43612D02*
D03*
X54930Y44732D02*
D03*
D15*
X19385Y43612D02*
D03*
X20475D02*
D03*
X21565D02*
D03*
X22655D02*
D03*
X23745D02*
D03*
X24835D02*
D03*
X25925D02*
D03*
X18840Y44732D02*
D03*
X21020D02*
D03*
X22110D02*
D03*
X23200D02*
D03*
X24290D02*
D03*
X25380D02*
D03*
X36885Y43612D02*
D03*
X37975D02*
D03*
X39065D02*
D03*
X40155D02*
D03*
X41245D02*
D03*
X42335D02*
D03*
X43425D02*
D03*
X36340Y44732D02*
D03*
X38520D02*
D03*
X39610D02*
D03*
X40700D02*
D03*
X41790D02*
D03*
X42880D02*
D03*
X54385Y43612D02*
D03*
X55475D02*
D03*
X56565D02*
D03*
X57655D02*
D03*
X58745D02*
D03*
X59835D02*
D03*
X60925D02*
D03*
X53840Y44732D02*
D03*
X56020D02*
D03*
X57110D02*
D03*
X58200D02*
D03*
X59290D02*
D03*
X60380D02*
D03*
D16*
X28670Y44173D02*
D03*
X15550D02*
D03*
X46170D02*
D03*
X33050D02*
D03*
X63670D02*
D03*
X50550D02*
D03*
M02*
