M48
;Layer_Color=9474304
;FILE_FORMAT=2:4
INCH,LZ
;TYPE=PLATED
T1F00S00C0.0400
T2F00S00C0.0420
T3F00S00C0.1000
T4F00S00C0.1200
%
T01
X01455Y03295
X01555
Y03395
X01455
Y03495
Y03595
X01555
Y03495
Y0371
X01455
X01505Y0391
Y0401
Y0411
Y0421
X01605
X01705
Y0411
X01805
X01905
Y0421
X02005
Y0411
Y0401
X01905
X01805
X01705
X01605
Y0391
X01705
X01805
X01905
X02005
X02205
Y0401
Y0411
Y0421
X02405
X02505
X02605
X02705
X02805
Y0411
X02905
Y0401
Y0391
X02805
Y0401
X02705
X02605
Y0411
X02505
X02405
Y0401
X02505
Y0391
X02405
X02605
X02705
Y0411
X02905Y0421
X02885Y0371
X02985
X0298Y03595
X0288
Y03495
X0298
Y03395
Y03295
X0288
Y03395
X0253
Y03295
X0243
Y03395
Y03495
Y03595
X0253
Y03495
X02285
Y03595
Y0371
X02385
X02485
X02585
X02685
X02785
X02155
X02055
X01955
X01855
X01755
X01655
X01905Y03595
X02005
Y03495
X01905
Y03395
Y03295
X02005
Y03395
X02155
Y03295
X02285
Y03395
X02155Y03495
Y03595
Y0316
X02055
X01955
X01855
X02285
X02385
X02485
X02585
X01805Y0421
X01605Y0411
X03255
Y0421
X03355
X03455
Y0411
X03555
X03655
Y0421
X03755
Y0411
Y0401
X03655
X03555
X03455
X03355
X03255
Y0391
X03355
X03455
X03555
X03655
X03755
X03955
Y0401
Y0411
Y0421
X04155
X04255
X04355
X04455
X04555
Y0411
X04655
Y0401
Y0391
X04555
Y0401
X04455
X04355
Y0411
X04255
X04155
Y0401
X04255
Y0391
X04155
X04355
X04455
Y0411
X04655Y0421
X04635Y0371
X04535
X04435
X04335
X04235
X04135
X04035
Y03595
Y03495
Y03395
Y03295
X03905
Y03395
Y03495
Y03595
Y0371
X03805
X03705
X03605
X03505
X03405
X03305
X03205
Y03595
X03305
Y03495
Y03395
Y03295
X03205
Y03395
Y03495
X03655
Y03595
X03755
Y03495
Y03395
Y03295
X03655
Y03395
X03605Y0316
X03705
X03805
X03905
X04035
X04135
X04235
X04335
X0428Y03295
X0418
Y03395
X0428
Y03495
Y03595
X0418
Y03495
X0463
Y03595
Y03395
Y03295
X03555Y0421
X03355Y0411
X05005
Y0421
X05105
X05205
Y0411
X05305
X05405
Y0421
X05505
Y0411
Y0401
X05405
X05305
X05205
X05105
X05005
Y0391
X05105
X05205
X05305
X05405
X05505
X05705
Y0401
Y0411
Y0421
X05905
X06005
X06105
X06205
Y0411
X06105
X06005
X05905
Y0401
X06005
X06105
X06205
Y0391
X06105
X06005
X05905
X05885Y0371
X05785
Y03595
Y03495
Y03395
Y03295
X05655
Y03395
Y03495
Y03595
Y0371
X05555
X05455
X05355
X05255
X05155
X05055
X04955
Y03595
X05055
Y03495
Y03395
Y03295
X04955
Y03395
Y03495
X0473
Y03595
X04735Y0371
X0473Y03395
Y03295
X05405
X05505
Y03395
Y03495
Y03595
X05405
Y03495
Y03395
X05355Y0316
X05455
X05555
X05655
X05785
X05885
X05985
X06085
X0603Y03295
X0593
Y03395
X0603
Y03495
Y03595
X0593
Y03495
X05985Y0371
X06085
X06185
X05305Y0421
X05105Y0411
X06305
X06405
Y0401
Y0391
X06305
Y0401
Y0421
X06405
X06385Y0371
X06485
X0648Y03595
X0638
Y03495
X0648
Y03395
Y03295
X0638
Y03395
X06285Y0371
T02
X018295Y043612
X019385
X020475
X021565
X022655
X023745
X024835
X025925
X02538Y044732
X02429
X0232
X02211
X02102
X01993
X01884
X03634
X03743
X03852
X03961
X0407
X04179
X04288
X042335Y043612
X041245
X040155
X039065
X037975
X036885
X035795
X043425
X053295
X054385
X055475
X056565
X057655
X058745
X059835
X060925
X06038Y044732
X05929
X0582
X05711
X05602
X05493
X05384
T03
X01505Y03155
X02917
X03255
X04667
X05005
X06417
T04
X01555Y044173
X02867
X03305
X04617
X05055
X06367
M30
