%FSLAX24Y24*%
%MOIN*%
G70*
G01*
G75*
G04 Layer_Color=65535*
%ADD10O,0.0236X0.0866*%
%ADD11C,0.0250*%
%ADD12C,0.1000*%
%ADD13C,0.0800*%
%ADD14R,0.0630X0.0630*%
%ADD15C,0.0630*%
%ADD16C,0.1700*%
%ADD17C,0.0098*%
%ADD18C,0.0080*%
%ADD19C,0.0079*%
%ADD20C,0.0050*%
D17*
X26015Y33505D02*
G03*
X26015Y33505I-49J0D01*
G01*
X16265D02*
G03*
X16265Y33505I-49J0D01*
G01*
X43515D02*
G03*
X43515Y33505I-49J0D01*
G01*
X33765D02*
G03*
X33765Y33505I-49J0D01*
G01*
X61015D02*
G03*
X61015Y33505I-49J0D01*
G01*
X51265D02*
G03*
X51265Y33505I-49J0D01*
G01*
D18*
X17110Y50233D02*
X27110D01*
X17110Y47983D02*
Y50233D01*
X14235Y47983D02*
X17110D01*
X14235Y42857D02*
Y47983D01*
Y42857D02*
X29985D01*
Y47983D01*
X27110D02*
X29985D01*
X27110D02*
Y50233D01*
X13600Y30450D02*
X30750D01*
X13600Y46300D02*
X30750D01*
Y30450D02*
Y46300D01*
X13600Y30450D02*
Y46300D01*
X17520Y43412D02*
X17645D01*
X17582D01*
Y43787D01*
X17520Y43725D01*
X14938Y45674D02*
X14875Y45736D01*
X14750D01*
X14688Y45674D01*
Y45611D01*
X14750Y45549D01*
X14875D01*
X14938Y45486D01*
Y45424D01*
X14875Y45361D01*
X14750D01*
X14688Y45424D01*
X15063Y45736D02*
Y45361D01*
Y45486D01*
X15313Y45736D01*
X15125Y45549D01*
X15313Y45361D01*
X15438Y45736D02*
X15688D01*
X15563D01*
Y45361D01*
X34610Y50233D02*
X44610D01*
X34610Y47983D02*
Y50233D01*
X31735Y47983D02*
X34610D01*
X31735Y42857D02*
Y47983D01*
Y42857D02*
X47485D01*
Y47983D01*
X44610D02*
X47485D01*
X44610D02*
Y50233D01*
X31100Y30450D02*
X48250D01*
X31100Y46300D02*
X48250D01*
Y30450D02*
Y46300D01*
X31100Y30450D02*
Y46300D01*
X35020Y43412D02*
X35145D01*
X35082D01*
Y43787D01*
X35020Y43725D01*
X32438Y45674D02*
X32375Y45736D01*
X32250D01*
X32188Y45674D01*
Y45611D01*
X32250Y45549D01*
X32375D01*
X32438Y45486D01*
Y45424D01*
X32375Y45361D01*
X32250D01*
X32188Y45424D01*
X32563Y45736D02*
Y45361D01*
Y45486D01*
X32813Y45736D01*
X32625Y45549D01*
X32813Y45361D01*
X32938Y45736D02*
X33188D01*
X33063D01*
Y45361D01*
X52110Y50233D02*
X62110D01*
X52110Y47983D02*
Y50233D01*
X49235Y47983D02*
X52110D01*
X49235Y42857D02*
Y47983D01*
Y42857D02*
X64985D01*
Y47983D01*
X62110D02*
X64985D01*
X62110D02*
Y50233D01*
X48600Y30450D02*
X65750D01*
X48600Y46300D02*
X65750D01*
Y30450D02*
Y46300D01*
X48600Y30450D02*
Y46300D01*
X52520Y43412D02*
X52645D01*
X52582D01*
Y43787D01*
X52520Y43725D01*
X49938Y45674D02*
X49875Y45736D01*
X49750D01*
X49688Y45674D01*
Y45611D01*
X49750Y45549D01*
X49875D01*
X49938Y45486D01*
Y45424D01*
X49875Y45361D01*
X49750D01*
X49688Y45424D01*
X50063Y45736D02*
Y45361D01*
Y45486D01*
X50313Y45736D01*
X50125Y45549D01*
X50313Y45361D01*
X50438Y45736D02*
X50688D01*
X50563D01*
Y45361D01*
D19*
X26066Y34096D02*
X28034D01*
X26066Y34804D02*
X28034D01*
X26066Y34096D02*
Y34804D01*
X28034Y34096D02*
Y34804D01*
X16316Y34096D02*
X18284D01*
X16316Y34804D02*
X18284D01*
X16316Y34096D02*
Y34804D01*
X18284Y34096D02*
Y34804D01*
X43566Y34096D02*
X45534D01*
X43566Y34804D02*
X45534D01*
X43566Y34096D02*
Y34804D01*
X45534Y34096D02*
Y34804D01*
X33816Y34096D02*
X35784D01*
X33816Y34804D02*
X35784D01*
X33816Y34096D02*
Y34804D01*
X35784Y34096D02*
Y34804D01*
X61066Y34096D02*
X63034D01*
X61066Y34804D02*
X63034D01*
X61066Y34096D02*
Y34804D01*
X63034Y34096D02*
Y34804D01*
X51316Y34096D02*
X53284D01*
X51316Y34804D02*
X53284D01*
X51316Y34096D02*
Y34804D01*
X53284Y34096D02*
Y34804D01*
D20*
X15050Y38200D02*
X15150D01*
X15100D01*
Y38500D01*
X15050Y38450D01*
X19050D02*
X19100Y38500D01*
X19200D01*
X19250Y38450D01*
Y38400D01*
X19200Y38350D01*
X19150D01*
X19200D01*
X19250Y38300D01*
Y38250D01*
X19200Y38200D01*
X19100D01*
X19050Y38250D01*
X16050D02*
X16100Y38200D01*
X16200D01*
X16250Y38250D01*
Y38450D01*
X16200Y38500D01*
X16100D01*
X16050Y38450D01*
Y38400D01*
X16100Y38350D01*
X16250D01*
X17250Y38200D02*
X17050D01*
X17250Y38400D01*
Y38450D01*
X17200Y38500D01*
X17100D01*
X17050Y38450D01*
X18050Y38200D02*
X18150D01*
X18100D01*
Y38500D01*
X18050Y38450D01*
X18300D02*
X18350Y38500D01*
X18450D01*
X18500Y38450D01*
Y38250D01*
X18450Y38200D01*
X18350D01*
X18300Y38250D01*
Y38450D01*
X20050Y38200D02*
X20150D01*
X20100D01*
Y38500D01*
X20050Y38450D01*
X20300Y38200D02*
X20400D01*
X20350D01*
Y38500D01*
X20300Y38450D01*
X22050Y38200D02*
X22150D01*
X22100D01*
Y38500D01*
X22050Y38450D01*
X22500Y38200D02*
X22300D01*
X22500Y38400D01*
Y38450D01*
X22450Y38500D01*
X22350D01*
X22300Y38450D01*
X24250Y38500D02*
X24150Y38450D01*
X24050Y38350D01*
Y38250D01*
X24100Y38200D01*
X24200D01*
X24250Y38250D01*
Y38300D01*
X24200Y38350D01*
X24050D01*
X25050Y38200D02*
X25150D01*
X25100D01*
Y38500D01*
X25050Y38450D01*
X25300D02*
X25350Y38500D01*
X25450D01*
X25500Y38450D01*
Y38400D01*
X25450Y38350D01*
X25400D01*
X25450D01*
X25500Y38300D01*
Y38250D01*
X25450Y38200D01*
X25350D01*
X25300Y38250D01*
X26050Y38500D02*
X26250D01*
Y38450D01*
X26050Y38250D01*
Y38200D01*
X27050D02*
X27150D01*
X27100D01*
Y38500D01*
X27050Y38450D01*
X27450Y38200D02*
Y38500D01*
X27300Y38350D01*
X27500D01*
X28050Y38450D02*
X28100Y38500D01*
X28200D01*
X28250Y38450D01*
Y38400D01*
X28200Y38350D01*
X28250Y38300D01*
Y38250D01*
X28200Y38200D01*
X28100D01*
X28050Y38250D01*
Y38300D01*
X28100Y38350D01*
X28050Y38400D01*
Y38450D01*
X28100Y38350D02*
X28200D01*
X29050Y38200D02*
X29150D01*
X29100D01*
Y38500D01*
X29050Y38450D01*
X29500Y38500D02*
X29300D01*
Y38350D01*
X29400Y38400D01*
X29450D01*
X29500Y38350D01*
Y38250D01*
X29450Y38200D01*
X29350D01*
X29300Y38250D01*
X29050Y37700D02*
Y38000D01*
X29250Y37700D01*
Y38000D01*
X29350Y37850D02*
X29550D01*
X28050Y37700D02*
Y38000D01*
X28250Y37700D01*
Y38000D01*
X28350Y37850D02*
X28550D01*
X28450Y37950D02*
Y37750D01*
X27250Y37950D02*
X27200Y38000D01*
X27100D01*
X27050Y37950D01*
Y37750D01*
X27100Y37700D01*
X27200D01*
X27250Y37750D01*
X27350Y37850D02*
X27550D01*
X26250Y37950D02*
X26200Y38000D01*
X26100D01*
X26050Y37950D01*
Y37750D01*
X26100Y37700D01*
X26200D01*
X26250Y37750D01*
X26350Y37850D02*
X26550D01*
X26450Y37950D02*
Y37750D01*
X25050Y38000D02*
Y37700D01*
X25200D01*
X25250Y37750D01*
Y37950D01*
X25200Y38000D01*
X25050D01*
X25350Y37850D02*
X25550D01*
X24050Y38000D02*
Y37700D01*
X24200D01*
X24250Y37750D01*
Y37950D01*
X24200Y38000D01*
X24050D01*
X24350Y37850D02*
X24550D01*
X24450Y37950D02*
Y37750D01*
X22250Y37950D02*
X22200Y38000D01*
X22100D01*
X22050Y37950D01*
Y37750D01*
X22100Y37700D01*
X22200D01*
X22250Y37750D01*
Y37850D01*
X22150D01*
X22350Y37700D02*
Y37900D01*
X22500D01*
X22550Y37850D01*
Y37700D01*
X22850Y38000D02*
Y37700D01*
X22700D01*
X22650Y37750D01*
Y37850D01*
X22700Y37900D01*
X22850D01*
X20050Y38000D02*
Y37700D01*
X20200D01*
X20250Y37750D01*
Y37950D01*
X20200Y38000D01*
X20050D01*
X20350Y37850D02*
X20550D01*
X18250Y37950D02*
X18200Y38000D01*
X18100D01*
X18050Y37950D01*
Y37750D01*
X18100Y37700D01*
X18200D01*
X18250Y37750D01*
X18350Y37850D02*
X18550D01*
X17250Y37950D02*
X17200Y38000D01*
X17100D01*
X17050Y37950D01*
Y37750D01*
X17100Y37700D01*
X17200D01*
X17250Y37750D01*
X17350Y37850D02*
X17550D01*
X17450Y37950D02*
Y37750D01*
X16050Y37700D02*
Y38000D01*
X16250Y37700D01*
Y38000D01*
X16350Y37850D02*
X16550D01*
X19050Y38000D02*
Y37700D01*
X19200D01*
X19250Y37750D01*
Y37950D01*
X19200Y38000D01*
X19050D01*
X19350Y37850D02*
X19550D01*
X19450Y37950D02*
Y37750D01*
X15050Y37700D02*
Y38000D01*
X15250Y37700D01*
Y38000D01*
X15350Y37850D02*
X15550D01*
X15450Y37950D02*
Y37750D01*
X14350Y40800D02*
Y40500D01*
X14500D01*
X14550Y40550D01*
Y40600D01*
X14500Y40650D01*
X14350D01*
X14500D01*
X14550Y40700D01*
Y40750D01*
X14500Y40800D01*
X14350D01*
X29550Y40500D02*
Y40700D01*
X29650Y40800D01*
X29750Y40700D01*
Y40500D01*
Y40650D01*
X29550D01*
X13900Y32800D02*
X14000D01*
X13950D01*
Y33100D01*
X13900Y33050D01*
X20700Y32800D02*
Y33100D01*
X20550Y32950D01*
X20750D01*
X13850Y36100D02*
X13900Y36150D01*
X14000D01*
X14050Y36100D01*
Y36050D01*
X14000Y36000D01*
X14050Y35950D01*
Y35900D01*
X14000Y35850D01*
X13900D01*
X13850Y35900D01*
Y35950D01*
X13900Y36000D01*
X13850Y36050D01*
Y36100D01*
X13900Y36000D02*
X14000D01*
X20800Y36100D02*
X20600D01*
Y35950D01*
X20700Y36000D01*
X20750D01*
X20800Y35950D01*
Y35850D01*
X20750Y35800D01*
X20650D01*
X20600Y35850D01*
X14050Y33800D02*
X13850D01*
X14050Y34000D01*
Y34050D01*
X14000Y34100D01*
X13900D01*
X13850Y34050D01*
X20550D02*
X20600Y34100D01*
X20700D01*
X20750Y34050D01*
Y34000D01*
X20700Y33950D01*
X20650D01*
X20700D01*
X20750Y33900D01*
Y33850D01*
X20700Y33800D01*
X20600D01*
X20550Y33850D01*
X20750Y35150D02*
X20650Y35100D01*
X20550Y35000D01*
Y34900D01*
X20600Y34850D01*
X20700D01*
X20750Y34900D01*
Y34950D01*
X20700Y35000D01*
X20550D01*
X13850Y35150D02*
X14050D01*
Y35100D01*
X13850Y34900D01*
Y34850D01*
X24050Y32800D02*
X24150D01*
X24100D01*
Y33100D01*
X24050Y33050D01*
X24000Y36100D02*
X24050Y36150D01*
X24150D01*
X24200Y36100D01*
Y36050D01*
X24150Y36000D01*
X24200Y35950D01*
Y35900D01*
X24150Y35850D01*
X24050D01*
X24000Y35900D01*
Y35950D01*
X24050Y36000D01*
X24000Y36050D01*
Y36100D01*
X24050Y36000D02*
X24150D01*
X24200Y33800D02*
X24000D01*
X24200Y34000D01*
Y34050D01*
X24150Y34100D01*
X24050D01*
X24000Y34050D01*
Y35150D02*
X24200D01*
Y35100D01*
X24000Y34900D01*
Y34850D01*
X23650Y32800D02*
X23750D01*
X23700D01*
Y33100D01*
X23650Y33050D01*
X23600Y36100D02*
X23650Y36150D01*
X23750D01*
X23800Y36100D01*
Y36050D01*
X23750Y36000D01*
X23800Y35950D01*
Y35900D01*
X23750Y35850D01*
X23650D01*
X23600Y35900D01*
Y35950D01*
X23650Y36000D01*
X23600Y36050D01*
Y36100D01*
X23650Y36000D02*
X23750D01*
X30450Y32800D02*
Y33100D01*
X30300Y32950D01*
X30500D01*
X30550Y36100D02*
X30350D01*
Y35950D01*
X30450Y36000D01*
X30500D01*
X30550Y35950D01*
Y35850D01*
X30500Y35800D01*
X30400D01*
X30350Y35850D01*
X23800Y33800D02*
X23600D01*
X23800Y34000D01*
Y34050D01*
X23750Y34100D01*
X23650D01*
X23600Y34050D01*
Y35150D02*
X23800D01*
Y35100D01*
X23600Y34900D01*
Y34850D01*
X30300Y34050D02*
X30350Y34100D01*
X30450D01*
X30500Y34050D01*
Y34000D01*
X30450Y33950D01*
X30400D01*
X30450D01*
X30500Y33900D01*
Y33850D01*
X30450Y33800D01*
X30350D01*
X30300Y33850D01*
X30500Y35150D02*
X30400Y35100D01*
X30300Y35000D01*
Y34900D01*
X30350Y34850D01*
X30450D01*
X30500Y34900D01*
Y34950D01*
X30450Y35000D01*
X30300D01*
X15800Y30650D02*
Y30950D01*
X15900Y30850D01*
X16000Y30950D01*
Y30650D01*
X16300Y30850D02*
X16150D01*
X16100Y30800D01*
Y30700D01*
X16150Y30650D01*
X16300D01*
X16600Y30900D02*
X16550Y30950D01*
X16450D01*
X16400Y30900D01*
Y30700D01*
X16450Y30650D01*
X16550D01*
X16600Y30700D01*
Y30800D01*
X16500D01*
X16700Y30650D02*
X16800D01*
X16750D01*
Y30850D01*
X16700D01*
X16950Y30650D02*
X17050D01*
X17000D01*
Y30950D01*
X16950D01*
X17200Y30650D02*
X17300D01*
X17250D01*
Y30950D01*
X17200D01*
X17749D02*
Y30700D01*
X17799Y30650D01*
X17899D01*
X17949Y30700D01*
Y30950D01*
X18049Y30650D02*
Y30850D01*
X18199D01*
X18249Y30800D01*
Y30650D01*
X18349D02*
X18449D01*
X18399D01*
Y30850D01*
X18349D01*
X18599D02*
X18699Y30650D01*
X18799Y30850D01*
X19049Y30650D02*
X18949D01*
X18899Y30700D01*
Y30800D01*
X18949Y30850D01*
X19049D01*
X19099Y30800D01*
Y30750D01*
X18899D01*
X19199Y30850D02*
Y30650D01*
Y30750D01*
X19249Y30800D01*
X19299Y30850D01*
X19349D01*
X19499Y30650D02*
X19649D01*
X19699Y30700D01*
X19649Y30750D01*
X19549D01*
X19499Y30800D01*
X19549Y30850D01*
X19699D01*
X19799Y30650D02*
X19899D01*
X19849D01*
Y30850D01*
X19799D01*
X20099Y30900D02*
Y30850D01*
X20049D01*
X20149D01*
X20099D01*
Y30700D01*
X20149Y30650D01*
X20299Y30850D02*
Y30700D01*
X20349Y30650D01*
X20498D01*
Y30600D01*
X20449Y30550D01*
X20399D01*
X20498Y30650D02*
Y30850D01*
X21048Y30650D02*
X20898Y30800D01*
X21048Y30950D01*
X21248Y30850D02*
X21348D01*
X21398Y30800D01*
Y30650D01*
X21248D01*
X21198Y30700D01*
X21248Y30750D01*
X21398D01*
X21698Y30950D02*
Y30650D01*
X21548D01*
X21498Y30700D01*
Y30800D01*
X21548Y30850D01*
X21698D01*
X21848D02*
X21948D01*
X21998Y30800D01*
Y30650D01*
X21848D01*
X21798Y30700D01*
X21848Y30750D01*
X21998D01*
X22098Y30650D02*
Y30850D01*
X22148D01*
X22198Y30800D01*
Y30650D01*
Y30800D01*
X22248Y30850D01*
X22298Y30800D01*
Y30650D01*
X22398Y30550D02*
X22448D01*
X22498Y30600D01*
Y30850D01*
X22748Y30650D02*
X22848D01*
X22898Y30700D01*
Y30800D01*
X22848Y30850D01*
X22748D01*
X22698Y30800D01*
Y30700D01*
X22748Y30650D01*
X22998Y30950D02*
Y30650D01*
Y30800D01*
X23048Y30850D01*
X23148D01*
X23198Y30800D01*
Y30650D01*
X23298D02*
Y30850D01*
X23448D01*
X23498Y30800D01*
Y30650D01*
X23697Y30550D02*
X23747D01*
X23797Y30600D01*
Y30850D01*
X23647D01*
X23597Y30800D01*
Y30700D01*
X23647Y30650D01*
X23797D01*
X23897D02*
X23997D01*
X23947D01*
Y30850D01*
X23897D01*
X24147Y30650D02*
X24247D01*
X24197D01*
Y30950D01*
X24147D01*
X24397D02*
Y30650D01*
X24547D01*
X24597Y30700D01*
Y30750D01*
Y30800D01*
X24547Y30850D01*
X24397D01*
X24847Y30650D02*
X24747D01*
X24697Y30700D01*
Y30800D01*
X24747Y30850D01*
X24847D01*
X24897Y30800D01*
Y30750D01*
X24697D01*
X24997Y30850D02*
Y30650D01*
Y30750D01*
X25047Y30800D01*
X25097Y30850D01*
X25147D01*
X25347Y30900D02*
Y30850D01*
X25297D01*
X25397D01*
X25347D01*
Y30700D01*
X25397Y30650D01*
X25697Y30750D02*
Y30800D01*
X25647D01*
Y30750D01*
X25697D01*
X25747Y30800D01*
Y30900D01*
X25697Y30950D01*
X25597D01*
X25547Y30900D01*
Y30700D01*
X25597Y30650D01*
X25747D01*
X25947Y30550D02*
X25997D01*
X26047Y30600D01*
Y30850D01*
X25897D01*
X25847Y30800D01*
Y30700D01*
X25897Y30650D01*
X26047D01*
X26147D02*
Y30850D01*
X26197D01*
X26247Y30800D01*
Y30650D01*
Y30800D01*
X26297Y30850D01*
X26347Y30800D01*
Y30650D01*
X26497Y30850D02*
X26597D01*
X26646Y30800D01*
Y30650D01*
X26497D01*
X26447Y30700D01*
X26497Y30750D01*
X26646D01*
X26746Y30650D02*
X26846D01*
X26796D01*
Y30850D01*
X26746D01*
X26996Y30650D02*
X27096D01*
X27046D01*
Y30950D01*
X26996D01*
X27246Y30650D02*
Y30700D01*
X27296D01*
Y30650D01*
X27246D01*
X27696Y30850D02*
X27546D01*
X27496Y30800D01*
Y30700D01*
X27546Y30650D01*
X27696D01*
X27846D02*
X27946D01*
X27996Y30700D01*
Y30800D01*
X27946Y30850D01*
X27846D01*
X27796Y30800D01*
Y30700D01*
X27846Y30650D01*
X28096D02*
Y30850D01*
X28146D01*
X28196Y30800D01*
Y30650D01*
Y30800D01*
X28246Y30850D01*
X28296Y30800D01*
Y30650D01*
X28396D02*
X28546Y30800D01*
X28396Y30950D01*
X32550Y38200D02*
X32650D01*
X32600D01*
Y38500D01*
X32550Y38450D01*
X36550D02*
X36600Y38500D01*
X36700D01*
X36750Y38450D01*
Y38400D01*
X36700Y38350D01*
X36650D01*
X36700D01*
X36750Y38300D01*
Y38250D01*
X36700Y38200D01*
X36600D01*
X36550Y38250D01*
X33550D02*
X33600Y38200D01*
X33700D01*
X33750Y38250D01*
Y38450D01*
X33700Y38500D01*
X33600D01*
X33550Y38450D01*
Y38400D01*
X33600Y38350D01*
X33750D01*
X34750Y38200D02*
X34550D01*
X34750Y38400D01*
Y38450D01*
X34700Y38500D01*
X34600D01*
X34550Y38450D01*
X35550Y38200D02*
X35650D01*
X35600D01*
Y38500D01*
X35550Y38450D01*
X35800D02*
X35850Y38500D01*
X35950D01*
X36000Y38450D01*
Y38250D01*
X35950Y38200D01*
X35850D01*
X35800Y38250D01*
Y38450D01*
X37550Y38200D02*
X37650D01*
X37600D01*
Y38500D01*
X37550Y38450D01*
X37800Y38200D02*
X37900D01*
X37850D01*
Y38500D01*
X37800Y38450D01*
X39550Y38200D02*
X39650D01*
X39600D01*
Y38500D01*
X39550Y38450D01*
X40000Y38200D02*
X39800D01*
X40000Y38400D01*
Y38450D01*
X39950Y38500D01*
X39850D01*
X39800Y38450D01*
X41750Y38500D02*
X41650Y38450D01*
X41550Y38350D01*
Y38250D01*
X41600Y38200D01*
X41700D01*
X41750Y38250D01*
Y38300D01*
X41700Y38350D01*
X41550D01*
X42550Y38200D02*
X42650D01*
X42600D01*
Y38500D01*
X42550Y38450D01*
X42800D02*
X42850Y38500D01*
X42950D01*
X43000Y38450D01*
Y38400D01*
X42950Y38350D01*
X42900D01*
X42950D01*
X43000Y38300D01*
Y38250D01*
X42950Y38200D01*
X42850D01*
X42800Y38250D01*
X43550Y38500D02*
X43750D01*
Y38450D01*
X43550Y38250D01*
Y38200D01*
X44550D02*
X44650D01*
X44600D01*
Y38500D01*
X44550Y38450D01*
X44950Y38200D02*
Y38500D01*
X44800Y38350D01*
X45000D01*
X45550Y38450D02*
X45600Y38500D01*
X45700D01*
X45750Y38450D01*
Y38400D01*
X45700Y38350D01*
X45750Y38300D01*
Y38250D01*
X45700Y38200D01*
X45600D01*
X45550Y38250D01*
Y38300D01*
X45600Y38350D01*
X45550Y38400D01*
Y38450D01*
X45600Y38350D02*
X45700D01*
X46550Y38200D02*
X46650D01*
X46600D01*
Y38500D01*
X46550Y38450D01*
X47000Y38500D02*
X46800D01*
Y38350D01*
X46900Y38400D01*
X46950D01*
X47000Y38350D01*
Y38250D01*
X46950Y38200D01*
X46850D01*
X46800Y38250D01*
X46550Y37700D02*
Y38000D01*
X46750Y37700D01*
Y38000D01*
X46850Y37850D02*
X47050D01*
X45550Y37700D02*
Y38000D01*
X45750Y37700D01*
Y38000D01*
X45850Y37850D02*
X46050D01*
X45950Y37950D02*
Y37750D01*
X44750Y37950D02*
X44700Y38000D01*
X44600D01*
X44550Y37950D01*
Y37750D01*
X44600Y37700D01*
X44700D01*
X44750Y37750D01*
X44850Y37850D02*
X45050D01*
X43750Y37950D02*
X43700Y38000D01*
X43600D01*
X43550Y37950D01*
Y37750D01*
X43600Y37700D01*
X43700D01*
X43750Y37750D01*
X43850Y37850D02*
X44050D01*
X43950Y37950D02*
Y37750D01*
X42550Y38000D02*
Y37700D01*
X42700D01*
X42750Y37750D01*
Y37950D01*
X42700Y38000D01*
X42550D01*
X42850Y37850D02*
X43050D01*
X41550Y38000D02*
Y37700D01*
X41700D01*
X41750Y37750D01*
Y37950D01*
X41700Y38000D01*
X41550D01*
X41850Y37850D02*
X42050D01*
X41950Y37950D02*
Y37750D01*
X39750Y37950D02*
X39700Y38000D01*
X39600D01*
X39550Y37950D01*
Y37750D01*
X39600Y37700D01*
X39700D01*
X39750Y37750D01*
Y37850D01*
X39650D01*
X39850Y37700D02*
Y37900D01*
X40000D01*
X40050Y37850D01*
Y37700D01*
X40350Y38000D02*
Y37700D01*
X40200D01*
X40150Y37750D01*
Y37850D01*
X40200Y37900D01*
X40350D01*
X37550Y38000D02*
Y37700D01*
X37700D01*
X37750Y37750D01*
Y37950D01*
X37700Y38000D01*
X37550D01*
X37850Y37850D02*
X38050D01*
X35750Y37950D02*
X35700Y38000D01*
X35600D01*
X35550Y37950D01*
Y37750D01*
X35600Y37700D01*
X35700D01*
X35750Y37750D01*
X35850Y37850D02*
X36050D01*
X34750Y37950D02*
X34700Y38000D01*
X34600D01*
X34550Y37950D01*
Y37750D01*
X34600Y37700D01*
X34700D01*
X34750Y37750D01*
X34850Y37850D02*
X35050D01*
X34950Y37950D02*
Y37750D01*
X33550Y37700D02*
Y38000D01*
X33750Y37700D01*
Y38000D01*
X33850Y37850D02*
X34050D01*
X36550Y38000D02*
Y37700D01*
X36700D01*
X36750Y37750D01*
Y37950D01*
X36700Y38000D01*
X36550D01*
X36850Y37850D02*
X37050D01*
X36950Y37950D02*
Y37750D01*
X32550Y37700D02*
Y38000D01*
X32750Y37700D01*
Y38000D01*
X32850Y37850D02*
X33050D01*
X32950Y37950D02*
Y37750D01*
X31850Y40800D02*
Y40500D01*
X32000D01*
X32050Y40550D01*
Y40600D01*
X32000Y40650D01*
X31850D01*
X32000D01*
X32050Y40700D01*
Y40750D01*
X32000Y40800D01*
X31850D01*
X47050Y40500D02*
Y40700D01*
X47150Y40800D01*
X47250Y40700D01*
Y40500D01*
Y40650D01*
X47050D01*
X31400Y32800D02*
X31500D01*
X31450D01*
Y33100D01*
X31400Y33050D01*
X38200Y32800D02*
Y33100D01*
X38050Y32950D01*
X38250D01*
X31350Y36100D02*
X31400Y36150D01*
X31500D01*
X31550Y36100D01*
Y36050D01*
X31500Y36000D01*
X31550Y35950D01*
Y35900D01*
X31500Y35850D01*
X31400D01*
X31350Y35900D01*
Y35950D01*
X31400Y36000D01*
X31350Y36050D01*
Y36100D01*
X31400Y36000D02*
X31500D01*
X38300Y36100D02*
X38100D01*
Y35950D01*
X38200Y36000D01*
X38250D01*
X38300Y35950D01*
Y35850D01*
X38250Y35800D01*
X38150D01*
X38100Y35850D01*
X31550Y33800D02*
X31350D01*
X31550Y34000D01*
Y34050D01*
X31500Y34100D01*
X31400D01*
X31350Y34050D01*
X38050D02*
X38100Y34100D01*
X38200D01*
X38250Y34050D01*
Y34000D01*
X38200Y33950D01*
X38150D01*
X38200D01*
X38250Y33900D01*
Y33850D01*
X38200Y33800D01*
X38100D01*
X38050Y33850D01*
X38250Y35150D02*
X38150Y35100D01*
X38050Y35000D01*
Y34900D01*
X38100Y34850D01*
X38200D01*
X38250Y34900D01*
Y34950D01*
X38200Y35000D01*
X38050D01*
X31350Y35150D02*
X31550D01*
Y35100D01*
X31350Y34900D01*
Y34850D01*
X41550Y32800D02*
X41650D01*
X41600D01*
Y33100D01*
X41550Y33050D01*
X41500Y36100D02*
X41550Y36150D01*
X41650D01*
X41700Y36100D01*
Y36050D01*
X41650Y36000D01*
X41700Y35950D01*
Y35900D01*
X41650Y35850D01*
X41550D01*
X41500Y35900D01*
Y35950D01*
X41550Y36000D01*
X41500Y36050D01*
Y36100D01*
X41550Y36000D02*
X41650D01*
X41700Y33800D02*
X41500D01*
X41700Y34000D01*
Y34050D01*
X41650Y34100D01*
X41550D01*
X41500Y34050D01*
Y35150D02*
X41700D01*
Y35100D01*
X41500Y34900D01*
Y34850D01*
X41150Y32800D02*
X41250D01*
X41200D01*
Y33100D01*
X41150Y33050D01*
X41100Y36100D02*
X41150Y36150D01*
X41250D01*
X41300Y36100D01*
Y36050D01*
X41250Y36000D01*
X41300Y35950D01*
Y35900D01*
X41250Y35850D01*
X41150D01*
X41100Y35900D01*
Y35950D01*
X41150Y36000D01*
X41100Y36050D01*
Y36100D01*
X41150Y36000D02*
X41250D01*
X47950Y32800D02*
Y33100D01*
X47800Y32950D01*
X48000D01*
X48050Y36100D02*
X47850D01*
Y35950D01*
X47950Y36000D01*
X48000D01*
X48050Y35950D01*
Y35850D01*
X48000Y35800D01*
X47900D01*
X47850Y35850D01*
X41300Y33800D02*
X41100D01*
X41300Y34000D01*
Y34050D01*
X41250Y34100D01*
X41150D01*
X41100Y34050D01*
Y35150D02*
X41300D01*
Y35100D01*
X41100Y34900D01*
Y34850D01*
X47800Y34050D02*
X47850Y34100D01*
X47950D01*
X48000Y34050D01*
Y34000D01*
X47950Y33950D01*
X47900D01*
X47950D01*
X48000Y33900D01*
Y33850D01*
X47950Y33800D01*
X47850D01*
X47800Y33850D01*
X48000Y35150D02*
X47900Y35100D01*
X47800Y35000D01*
Y34900D01*
X47850Y34850D01*
X47950D01*
X48000Y34900D01*
Y34950D01*
X47950Y35000D01*
X47800D01*
X33300Y30650D02*
Y30950D01*
X33400Y30850D01*
X33500Y30950D01*
Y30650D01*
X33800Y30850D02*
X33650D01*
X33600Y30800D01*
Y30700D01*
X33650Y30650D01*
X33800D01*
X34100Y30900D02*
X34050Y30950D01*
X33950D01*
X33900Y30900D01*
Y30700D01*
X33950Y30650D01*
X34050D01*
X34100Y30700D01*
Y30800D01*
X34000D01*
X34200Y30650D02*
X34300D01*
X34250D01*
Y30850D01*
X34200D01*
X34450Y30650D02*
X34550D01*
X34500D01*
Y30950D01*
X34450D01*
X34700Y30650D02*
X34800D01*
X34750D01*
Y30950D01*
X34700D01*
X35249D02*
Y30700D01*
X35299Y30650D01*
X35399D01*
X35449Y30700D01*
Y30950D01*
X35549Y30650D02*
Y30850D01*
X35699D01*
X35749Y30800D01*
Y30650D01*
X35849D02*
X35949D01*
X35899D01*
Y30850D01*
X35849D01*
X36099D02*
X36199Y30650D01*
X36299Y30850D01*
X36549Y30650D02*
X36449D01*
X36399Y30700D01*
Y30800D01*
X36449Y30850D01*
X36549D01*
X36599Y30800D01*
Y30750D01*
X36399D01*
X36699Y30850D02*
Y30650D01*
Y30750D01*
X36749Y30800D01*
X36799Y30850D01*
X36849D01*
X36999Y30650D02*
X37149D01*
X37199Y30700D01*
X37149Y30750D01*
X37049D01*
X36999Y30800D01*
X37049Y30850D01*
X37199D01*
X37299Y30650D02*
X37399D01*
X37349D01*
Y30850D01*
X37299D01*
X37599Y30900D02*
Y30850D01*
X37549D01*
X37649D01*
X37599D01*
Y30700D01*
X37649Y30650D01*
X37799Y30850D02*
Y30700D01*
X37849Y30650D01*
X37998D01*
Y30600D01*
X37949Y30550D01*
X37899D01*
X37998Y30650D02*
Y30850D01*
X38548Y30650D02*
X38398Y30800D01*
X38548Y30950D01*
X38748Y30850D02*
X38848D01*
X38898Y30800D01*
Y30650D01*
X38748D01*
X38698Y30700D01*
X38748Y30750D01*
X38898D01*
X39198Y30950D02*
Y30650D01*
X39048D01*
X38998Y30700D01*
Y30800D01*
X39048Y30850D01*
X39198D01*
X39348D02*
X39448D01*
X39498Y30800D01*
Y30650D01*
X39348D01*
X39298Y30700D01*
X39348Y30750D01*
X39498D01*
X39598Y30650D02*
Y30850D01*
X39648D01*
X39698Y30800D01*
Y30650D01*
Y30800D01*
X39748Y30850D01*
X39798Y30800D01*
Y30650D01*
X39898Y30550D02*
X39948D01*
X39998Y30600D01*
Y30850D01*
X40248Y30650D02*
X40348D01*
X40398Y30700D01*
Y30800D01*
X40348Y30850D01*
X40248D01*
X40198Y30800D01*
Y30700D01*
X40248Y30650D01*
X40498Y30950D02*
Y30650D01*
Y30800D01*
X40548Y30850D01*
X40648D01*
X40698Y30800D01*
Y30650D01*
X40798D02*
Y30850D01*
X40948D01*
X40998Y30800D01*
Y30650D01*
X41197Y30550D02*
X41247D01*
X41297Y30600D01*
Y30850D01*
X41147D01*
X41097Y30800D01*
Y30700D01*
X41147Y30650D01*
X41297D01*
X41397D02*
X41497D01*
X41447D01*
Y30850D01*
X41397D01*
X41647Y30650D02*
X41747D01*
X41697D01*
Y30950D01*
X41647D01*
X41897D02*
Y30650D01*
X42047D01*
X42097Y30700D01*
Y30750D01*
Y30800D01*
X42047Y30850D01*
X41897D01*
X42347Y30650D02*
X42247D01*
X42197Y30700D01*
Y30800D01*
X42247Y30850D01*
X42347D01*
X42397Y30800D01*
Y30750D01*
X42197D01*
X42497Y30850D02*
Y30650D01*
Y30750D01*
X42547Y30800D01*
X42597Y30850D01*
X42647D01*
X42847Y30900D02*
Y30850D01*
X42797D01*
X42897D01*
X42847D01*
Y30700D01*
X42897Y30650D01*
X43197Y30750D02*
Y30800D01*
X43147D01*
Y30750D01*
X43197D01*
X43247Y30800D01*
Y30900D01*
X43197Y30950D01*
X43097D01*
X43047Y30900D01*
Y30700D01*
X43097Y30650D01*
X43247D01*
X43447Y30550D02*
X43497D01*
X43547Y30600D01*
Y30850D01*
X43397D01*
X43347Y30800D01*
Y30700D01*
X43397Y30650D01*
X43547D01*
X43647D02*
Y30850D01*
X43697D01*
X43747Y30800D01*
Y30650D01*
Y30800D01*
X43797Y30850D01*
X43847Y30800D01*
Y30650D01*
X43997Y30850D02*
X44097D01*
X44146Y30800D01*
Y30650D01*
X43997D01*
X43947Y30700D01*
X43997Y30750D01*
X44146D01*
X44246Y30650D02*
X44346D01*
X44296D01*
Y30850D01*
X44246D01*
X44496Y30650D02*
X44596D01*
X44546D01*
Y30950D01*
X44496D01*
X44746Y30650D02*
Y30700D01*
X44796D01*
Y30650D01*
X44746D01*
X45196Y30850D02*
X45046D01*
X44996Y30800D01*
Y30700D01*
X45046Y30650D01*
X45196D01*
X45346D02*
X45446D01*
X45496Y30700D01*
Y30800D01*
X45446Y30850D01*
X45346D01*
X45296Y30800D01*
Y30700D01*
X45346Y30650D01*
X45596D02*
Y30850D01*
X45646D01*
X45696Y30800D01*
Y30650D01*
Y30800D01*
X45746Y30850D01*
X45796Y30800D01*
Y30650D01*
X45896D02*
X46046Y30800D01*
X45896Y30950D01*
X50050Y38200D02*
X50150D01*
X50100D01*
Y38500D01*
X50050Y38450D01*
X54050D02*
X54100Y38500D01*
X54200D01*
X54250Y38450D01*
Y38400D01*
X54200Y38350D01*
X54150D01*
X54200D01*
X54250Y38300D01*
Y38250D01*
X54200Y38200D01*
X54100D01*
X54050Y38250D01*
X51050D02*
X51100Y38200D01*
X51200D01*
X51250Y38250D01*
Y38450D01*
X51200Y38500D01*
X51100D01*
X51050Y38450D01*
Y38400D01*
X51100Y38350D01*
X51250D01*
X52250Y38200D02*
X52050D01*
X52250Y38400D01*
Y38450D01*
X52200Y38500D01*
X52100D01*
X52050Y38450D01*
X53050Y38200D02*
X53150D01*
X53100D01*
Y38500D01*
X53050Y38450D01*
X53300D02*
X53350Y38500D01*
X53450D01*
X53500Y38450D01*
Y38250D01*
X53450Y38200D01*
X53350D01*
X53300Y38250D01*
Y38450D01*
X55050Y38200D02*
X55150D01*
X55100D01*
Y38500D01*
X55050Y38450D01*
X55300Y38200D02*
X55400D01*
X55350D01*
Y38500D01*
X55300Y38450D01*
X57050Y38200D02*
X57150D01*
X57100D01*
Y38500D01*
X57050Y38450D01*
X57500Y38200D02*
X57300D01*
X57500Y38400D01*
Y38450D01*
X57450Y38500D01*
X57350D01*
X57300Y38450D01*
X59250Y38500D02*
X59150Y38450D01*
X59050Y38350D01*
Y38250D01*
X59100Y38200D01*
X59200D01*
X59250Y38250D01*
Y38300D01*
X59200Y38350D01*
X59050D01*
X60050Y38200D02*
X60150D01*
X60100D01*
Y38500D01*
X60050Y38450D01*
X60300D02*
X60350Y38500D01*
X60450D01*
X60500Y38450D01*
Y38400D01*
X60450Y38350D01*
X60400D01*
X60450D01*
X60500Y38300D01*
Y38250D01*
X60450Y38200D01*
X60350D01*
X60300Y38250D01*
X61050Y38500D02*
X61250D01*
Y38450D01*
X61050Y38250D01*
Y38200D01*
X62050D02*
X62150D01*
X62100D01*
Y38500D01*
X62050Y38450D01*
X62450Y38200D02*
Y38500D01*
X62300Y38350D01*
X62500D01*
X63050Y38450D02*
X63100Y38500D01*
X63200D01*
X63250Y38450D01*
Y38400D01*
X63200Y38350D01*
X63250Y38300D01*
Y38250D01*
X63200Y38200D01*
X63100D01*
X63050Y38250D01*
Y38300D01*
X63100Y38350D01*
X63050Y38400D01*
Y38450D01*
X63100Y38350D02*
X63200D01*
X64050Y38200D02*
X64150D01*
X64100D01*
Y38500D01*
X64050Y38450D01*
X64500Y38500D02*
X64300D01*
Y38350D01*
X64400Y38400D01*
X64450D01*
X64500Y38350D01*
Y38250D01*
X64450Y38200D01*
X64350D01*
X64300Y38250D01*
X64050Y37700D02*
Y38000D01*
X64250Y37700D01*
Y38000D01*
X64350Y37850D02*
X64550D01*
X63050Y37700D02*
Y38000D01*
X63250Y37700D01*
Y38000D01*
X63350Y37850D02*
X63550D01*
X63450Y37950D02*
Y37750D01*
X62250Y37950D02*
X62200Y38000D01*
X62100D01*
X62050Y37950D01*
Y37750D01*
X62100Y37700D01*
X62200D01*
X62250Y37750D01*
X62350Y37850D02*
X62550D01*
X61250Y37950D02*
X61200Y38000D01*
X61100D01*
X61050Y37950D01*
Y37750D01*
X61100Y37700D01*
X61200D01*
X61250Y37750D01*
X61350Y37850D02*
X61550D01*
X61450Y37950D02*
Y37750D01*
X60050Y38000D02*
Y37700D01*
X60200D01*
X60250Y37750D01*
Y37950D01*
X60200Y38000D01*
X60050D01*
X60350Y37850D02*
X60550D01*
X59050Y38000D02*
Y37700D01*
X59200D01*
X59250Y37750D01*
Y37950D01*
X59200Y38000D01*
X59050D01*
X59350Y37850D02*
X59550D01*
X59450Y37950D02*
Y37750D01*
X57250Y37950D02*
X57200Y38000D01*
X57100D01*
X57050Y37950D01*
Y37750D01*
X57100Y37700D01*
X57200D01*
X57250Y37750D01*
Y37850D01*
X57150D01*
X57350Y37700D02*
Y37900D01*
X57500D01*
X57550Y37850D01*
Y37700D01*
X57850Y38000D02*
Y37700D01*
X57700D01*
X57650Y37750D01*
Y37850D01*
X57700Y37900D01*
X57850D01*
X55050Y38000D02*
Y37700D01*
X55200D01*
X55250Y37750D01*
Y37950D01*
X55200Y38000D01*
X55050D01*
X55350Y37850D02*
X55550D01*
X53250Y37950D02*
X53200Y38000D01*
X53100D01*
X53050Y37950D01*
Y37750D01*
X53100Y37700D01*
X53200D01*
X53250Y37750D01*
X53350Y37850D02*
X53550D01*
X52250Y37950D02*
X52200Y38000D01*
X52100D01*
X52050Y37950D01*
Y37750D01*
X52100Y37700D01*
X52200D01*
X52250Y37750D01*
X52350Y37850D02*
X52550D01*
X52450Y37950D02*
Y37750D01*
X51050Y37700D02*
Y38000D01*
X51250Y37700D01*
Y38000D01*
X51350Y37850D02*
X51550D01*
X54050Y38000D02*
Y37700D01*
X54200D01*
X54250Y37750D01*
Y37950D01*
X54200Y38000D01*
X54050D01*
X54350Y37850D02*
X54550D01*
X54450Y37950D02*
Y37750D01*
X50050Y37700D02*
Y38000D01*
X50250Y37700D01*
Y38000D01*
X50350Y37850D02*
X50550D01*
X50450Y37950D02*
Y37750D01*
X49350Y40800D02*
Y40500D01*
X49500D01*
X49550Y40550D01*
Y40600D01*
X49500Y40650D01*
X49350D01*
X49500D01*
X49550Y40700D01*
Y40750D01*
X49500Y40800D01*
X49350D01*
X64550Y40500D02*
Y40700D01*
X64650Y40800D01*
X64750Y40700D01*
Y40500D01*
Y40650D01*
X64550D01*
X48900Y32800D02*
X49000D01*
X48950D01*
Y33100D01*
X48900Y33050D01*
X55700Y32800D02*
Y33100D01*
X55550Y32950D01*
X55750D01*
X48850Y36100D02*
X48900Y36150D01*
X49000D01*
X49050Y36100D01*
Y36050D01*
X49000Y36000D01*
X49050Y35950D01*
Y35900D01*
X49000Y35850D01*
X48900D01*
X48850Y35900D01*
Y35950D01*
X48900Y36000D01*
X48850Y36050D01*
Y36100D01*
X48900Y36000D02*
X49000D01*
X55800Y36100D02*
X55600D01*
Y35950D01*
X55700Y36000D01*
X55750D01*
X55800Y35950D01*
Y35850D01*
X55750Y35800D01*
X55650D01*
X55600Y35850D01*
X49050Y33800D02*
X48850D01*
X49050Y34000D01*
Y34050D01*
X49000Y34100D01*
X48900D01*
X48850Y34050D01*
X55550D02*
X55600Y34100D01*
X55700D01*
X55750Y34050D01*
Y34000D01*
X55700Y33950D01*
X55650D01*
X55700D01*
X55750Y33900D01*
Y33850D01*
X55700Y33800D01*
X55600D01*
X55550Y33850D01*
X55750Y35150D02*
X55650Y35100D01*
X55550Y35000D01*
Y34900D01*
X55600Y34850D01*
X55700D01*
X55750Y34900D01*
Y34950D01*
X55700Y35000D01*
X55550D01*
X48850Y35150D02*
X49050D01*
Y35100D01*
X48850Y34900D01*
Y34850D01*
X59050Y32800D02*
X59150D01*
X59100D01*
Y33100D01*
X59050Y33050D01*
X59000Y36100D02*
X59050Y36150D01*
X59150D01*
X59200Y36100D01*
Y36050D01*
X59150Y36000D01*
X59200Y35950D01*
Y35900D01*
X59150Y35850D01*
X59050D01*
X59000Y35900D01*
Y35950D01*
X59050Y36000D01*
X59000Y36050D01*
Y36100D01*
X59050Y36000D02*
X59150D01*
X59200Y33800D02*
X59000D01*
X59200Y34000D01*
Y34050D01*
X59150Y34100D01*
X59050D01*
X59000Y34050D01*
Y35150D02*
X59200D01*
Y35100D01*
X59000Y34900D01*
Y34850D01*
X58650Y32800D02*
X58750D01*
X58700D01*
Y33100D01*
X58650Y33050D01*
X58600Y36100D02*
X58650Y36150D01*
X58750D01*
X58800Y36100D01*
Y36050D01*
X58750Y36000D01*
X58800Y35950D01*
Y35900D01*
X58750Y35850D01*
X58650D01*
X58600Y35900D01*
Y35950D01*
X58650Y36000D01*
X58600Y36050D01*
Y36100D01*
X58650Y36000D02*
X58750D01*
X65450Y32800D02*
Y33100D01*
X65300Y32950D01*
X65500D01*
X65550Y36100D02*
X65350D01*
Y35950D01*
X65450Y36000D01*
X65500D01*
X65550Y35950D01*
Y35850D01*
X65500Y35800D01*
X65400D01*
X65350Y35850D01*
X58800Y33800D02*
X58600D01*
X58800Y34000D01*
Y34050D01*
X58750Y34100D01*
X58650D01*
X58600Y34050D01*
Y35150D02*
X58800D01*
Y35100D01*
X58600Y34900D01*
Y34850D01*
X65300Y34050D02*
X65350Y34100D01*
X65450D01*
X65500Y34050D01*
Y34000D01*
X65450Y33950D01*
X65400D01*
X65450D01*
X65500Y33900D01*
Y33850D01*
X65450Y33800D01*
X65350D01*
X65300Y33850D01*
X65500Y35150D02*
X65400Y35100D01*
X65300Y35000D01*
Y34900D01*
X65350Y34850D01*
X65450D01*
X65500Y34900D01*
Y34950D01*
X65450Y35000D01*
X65300D01*
X50800Y30650D02*
Y30950D01*
X50900Y30850D01*
X51000Y30950D01*
Y30650D01*
X51300Y30850D02*
X51150D01*
X51100Y30800D01*
Y30700D01*
X51150Y30650D01*
X51300D01*
X51600Y30900D02*
X51550Y30950D01*
X51450D01*
X51400Y30900D01*
Y30700D01*
X51450Y30650D01*
X51550D01*
X51600Y30700D01*
Y30800D01*
X51500D01*
X51700Y30650D02*
X51800D01*
X51750D01*
Y30850D01*
X51700D01*
X51950Y30650D02*
X52050D01*
X52000D01*
Y30950D01*
X51950D01*
X52200Y30650D02*
X52300D01*
X52250D01*
Y30950D01*
X52200D01*
X52749D02*
Y30700D01*
X52799Y30650D01*
X52899D01*
X52949Y30700D01*
Y30950D01*
X53049Y30650D02*
Y30850D01*
X53199D01*
X53249Y30800D01*
Y30650D01*
X53349D02*
X53449D01*
X53399D01*
Y30850D01*
X53349D01*
X53599D02*
X53699Y30650D01*
X53799Y30850D01*
X54049Y30650D02*
X53949D01*
X53899Y30700D01*
Y30800D01*
X53949Y30850D01*
X54049D01*
X54099Y30800D01*
Y30750D01*
X53899D01*
X54199Y30850D02*
Y30650D01*
Y30750D01*
X54249Y30800D01*
X54299Y30850D01*
X54349D01*
X54499Y30650D02*
X54649D01*
X54699Y30700D01*
X54649Y30750D01*
X54549D01*
X54499Y30800D01*
X54549Y30850D01*
X54699D01*
X54799Y30650D02*
X54899D01*
X54849D01*
Y30850D01*
X54799D01*
X55099Y30900D02*
Y30850D01*
X55049D01*
X55149D01*
X55099D01*
Y30700D01*
X55149Y30650D01*
X55299Y30850D02*
Y30700D01*
X55349Y30650D01*
X55498D01*
Y30600D01*
X55448Y30550D01*
X55399D01*
X55498Y30650D02*
Y30850D01*
X56048Y30650D02*
X55898Y30800D01*
X56048Y30950D01*
X56248Y30850D02*
X56348D01*
X56398Y30800D01*
Y30650D01*
X56248D01*
X56198Y30700D01*
X56248Y30750D01*
X56398D01*
X56698Y30950D02*
Y30650D01*
X56548D01*
X56498Y30700D01*
Y30800D01*
X56548Y30850D01*
X56698D01*
X56848D02*
X56948D01*
X56998Y30800D01*
Y30650D01*
X56848D01*
X56798Y30700D01*
X56848Y30750D01*
X56998D01*
X57098Y30650D02*
Y30850D01*
X57148D01*
X57198Y30800D01*
Y30650D01*
Y30800D01*
X57248Y30850D01*
X57298Y30800D01*
Y30650D01*
X57398Y30550D02*
X57448D01*
X57498Y30600D01*
Y30850D01*
X57748Y30650D02*
X57848D01*
X57898Y30700D01*
Y30800D01*
X57848Y30850D01*
X57748D01*
X57698Y30800D01*
Y30700D01*
X57748Y30650D01*
X57998Y30950D02*
Y30650D01*
Y30800D01*
X58048Y30850D01*
X58148D01*
X58198Y30800D01*
Y30650D01*
X58298D02*
Y30850D01*
X58448D01*
X58498Y30800D01*
Y30650D01*
X58697Y30550D02*
X58747D01*
X58797Y30600D01*
Y30850D01*
X58647D01*
X58597Y30800D01*
Y30700D01*
X58647Y30650D01*
X58797D01*
X58897D02*
X58997D01*
X58947D01*
Y30850D01*
X58897D01*
X59147Y30650D02*
X59247D01*
X59197D01*
Y30950D01*
X59147D01*
X59397D02*
Y30650D01*
X59547D01*
X59597Y30700D01*
Y30750D01*
Y30800D01*
X59547Y30850D01*
X59397D01*
X59847Y30650D02*
X59747D01*
X59697Y30700D01*
Y30800D01*
X59747Y30850D01*
X59847D01*
X59897Y30800D01*
Y30750D01*
X59697D01*
X59997Y30850D02*
Y30650D01*
Y30750D01*
X60047Y30800D01*
X60097Y30850D01*
X60147D01*
X60347Y30900D02*
Y30850D01*
X60297D01*
X60397D01*
X60347D01*
Y30700D01*
X60397Y30650D01*
X60697Y30750D02*
Y30800D01*
X60647D01*
Y30750D01*
X60697D01*
X60747Y30800D01*
Y30900D01*
X60697Y30950D01*
X60597D01*
X60547Y30900D01*
Y30700D01*
X60597Y30650D01*
X60747D01*
X60947Y30550D02*
X60997D01*
X61047Y30600D01*
Y30850D01*
X60897D01*
X60847Y30800D01*
Y30700D01*
X60897Y30650D01*
X61047D01*
X61147D02*
Y30850D01*
X61197D01*
X61247Y30800D01*
Y30650D01*
Y30800D01*
X61297Y30850D01*
X61347Y30800D01*
Y30650D01*
X61497Y30850D02*
X61597D01*
X61646Y30800D01*
Y30650D01*
X61497D01*
X61447Y30700D01*
X61497Y30750D01*
X61646D01*
X61746Y30650D02*
X61846D01*
X61796D01*
Y30850D01*
X61746D01*
X61996Y30650D02*
X62096D01*
X62046D01*
Y30950D01*
X61996D01*
X62246Y30650D02*
Y30700D01*
X62296D01*
Y30650D01*
X62246D01*
X62696Y30850D02*
X62546D01*
X62496Y30800D01*
Y30700D01*
X62546Y30650D01*
X62696D01*
X62846D02*
X62946D01*
X62996Y30700D01*
Y30800D01*
X62946Y30850D01*
X62846D01*
X62796Y30800D01*
Y30700D01*
X62846Y30650D01*
X63096D02*
Y30850D01*
X63146D01*
X63196Y30800D01*
Y30650D01*
Y30800D01*
X63246Y30850D01*
X63296Y30800D01*
Y30650D01*
X63396D02*
X63546Y30800D01*
X63396Y30950D01*
M02*
