%FSLAX24Y24*%
%MOIN*%
G70*
G01*
G75*
G04 Layer_Color=8388736*
%ADD10O,0.0236X0.0866*%
%ADD11C,0.0250*%
%ADD12C,0.1000*%
%ADD13C,0.0800*%
%ADD14R,0.0630X0.0630*%
%ADD15C,0.0630*%
%ADD16C,0.1700*%
%ADD17C,0.0098*%
%ADD18C,0.0080*%
%ADD19C,0.0079*%
%ADD20C,0.0050*%
%ADD21O,0.0316X0.0946*%
%ADD22C,0.1080*%
%ADD23C,0.0880*%
%ADD24R,0.0710X0.0710*%
%ADD25C,0.0710*%
%ADD26C,0.1780*%
D21*
X26300Y33505D02*
D03*
X26800D02*
D03*
X27300D02*
D03*
X27800D02*
D03*
X26300Y35395D02*
D03*
X26800D02*
D03*
X27300D02*
D03*
X27800D02*
D03*
X16550Y33505D02*
D03*
X17050D02*
D03*
X17550D02*
D03*
X18050D02*
D03*
X16550Y35395D02*
D03*
X17050D02*
D03*
X17550D02*
D03*
X18050D02*
D03*
X43800Y33505D02*
D03*
X44300D02*
D03*
X44800D02*
D03*
X45300D02*
D03*
X43800Y35395D02*
D03*
X44300D02*
D03*
X44800D02*
D03*
X45300D02*
D03*
X34050Y33505D02*
D03*
X34550D02*
D03*
X35050D02*
D03*
X35550D02*
D03*
X34050Y35395D02*
D03*
X34550D02*
D03*
X35050D02*
D03*
X35550D02*
D03*
X61300Y33505D02*
D03*
X61800D02*
D03*
X62300D02*
D03*
X62800D02*
D03*
X61300Y35395D02*
D03*
X61800D02*
D03*
X62300D02*
D03*
X62800D02*
D03*
X51550Y33505D02*
D03*
X52050D02*
D03*
X52550D02*
D03*
X53050D02*
D03*
X51550Y35395D02*
D03*
X52050D02*
D03*
X52550D02*
D03*
X53050D02*
D03*
D22*
X29170Y31550D02*
D03*
X15050D02*
D03*
X46670D02*
D03*
X32550D02*
D03*
X64170D02*
D03*
X50050D02*
D03*
D23*
X22850Y31600D02*
D03*
X24850D02*
D03*
X25850D02*
D03*
X23850D02*
D03*
X18550D02*
D03*
X20550D02*
D03*
X21550D02*
D03*
X19550D02*
D03*
X25300Y32950D02*
D03*
X14550Y37100D02*
D03*
X26850D02*
D03*
X16550D02*
D03*
X28850D02*
D03*
X17550D02*
D03*
X29850D02*
D03*
X15550D02*
D03*
X27850D02*
D03*
X29800Y32950D02*
D03*
X20050D02*
D03*
X28800D02*
D03*
X19050D02*
D03*
X29800Y35950D02*
D03*
X20050D02*
D03*
X28800D02*
D03*
X19050D02*
D03*
X15550Y32950D02*
D03*
X24300D02*
D03*
X14550D02*
D03*
X28800Y34950D02*
D03*
X19050D02*
D03*
X29800Y33950D02*
D03*
X20050D02*
D03*
X29800Y34950D02*
D03*
X20050D02*
D03*
X28800Y33950D02*
D03*
X19050D02*
D03*
X24300Y35950D02*
D03*
X14550D02*
D03*
X25300D02*
D03*
X15550D02*
D03*
X25300Y33950D02*
D03*
X15550D02*
D03*
X24300D02*
D03*
X14550D02*
D03*
X24300Y34950D02*
D03*
X14550D02*
D03*
X25300D02*
D03*
X15550D02*
D03*
X22850Y32950D02*
D03*
X21550D02*
D03*
X18550Y37100D02*
D03*
X22850D02*
D03*
Y35950D02*
D03*
X21550Y33950D02*
D03*
X20550Y37100D02*
D03*
X24850D02*
D03*
X22850Y34950D02*
D03*
X21550D02*
D03*
Y37100D02*
D03*
X25850D02*
D03*
X22850Y33950D02*
D03*
X21550Y35950D02*
D03*
X19550Y37100D02*
D03*
X23850D02*
D03*
X28050Y41100D02*
D03*
X15050Y42100D02*
D03*
X17050D02*
D03*
X19050D02*
D03*
X24050D02*
D03*
X26050D02*
D03*
X16050D02*
D03*
X18050Y41100D02*
D03*
X20050Y42100D02*
D03*
X22050D02*
D03*
X25050D02*
D03*
X27050D02*
D03*
X29050Y41100D02*
D03*
X15050Y40100D02*
D03*
X17050Y41100D02*
D03*
X19050D02*
D03*
X24050D02*
D03*
X26050D02*
D03*
X28050Y42100D02*
D03*
X16050Y40100D02*
D03*
X18050D02*
D03*
X20050Y41100D02*
D03*
X22050D02*
D03*
X25050D02*
D03*
X27050Y40100D02*
D03*
X29050D02*
D03*
X15050Y39100D02*
D03*
X17050Y40100D02*
D03*
X19050D02*
D03*
X24050D02*
D03*
X26050D02*
D03*
X28050Y39100D02*
D03*
X16050D02*
D03*
X18050D02*
D03*
X20050Y40100D02*
D03*
X22050D02*
D03*
X25050D02*
D03*
X27050Y41100D02*
D03*
X29050Y39100D02*
D03*
X15050Y41100D02*
D03*
X17050Y39100D02*
D03*
X19050D02*
D03*
X24050D02*
D03*
X26050D02*
D03*
X28050Y40100D02*
D03*
X16050Y41100D02*
D03*
X18050Y42100D02*
D03*
X20050Y39100D02*
D03*
X22050D02*
D03*
X25050D02*
D03*
X27050D02*
D03*
X29050Y42100D02*
D03*
X40350Y31600D02*
D03*
X42350D02*
D03*
X43350D02*
D03*
X41350D02*
D03*
X36050D02*
D03*
X38050D02*
D03*
X39050D02*
D03*
X37050D02*
D03*
X42800Y32950D02*
D03*
X32050Y37100D02*
D03*
X44350D02*
D03*
X34050D02*
D03*
X46350D02*
D03*
X35050D02*
D03*
X47350D02*
D03*
X33050D02*
D03*
X45350D02*
D03*
X47300Y32950D02*
D03*
X37550D02*
D03*
X46300D02*
D03*
X36550D02*
D03*
X47300Y35950D02*
D03*
X37550D02*
D03*
X46300D02*
D03*
X36550D02*
D03*
X33050Y32950D02*
D03*
X41800D02*
D03*
X32050D02*
D03*
X46300Y34950D02*
D03*
X36550D02*
D03*
X47300Y33950D02*
D03*
X37550D02*
D03*
X47300Y34950D02*
D03*
X37550D02*
D03*
X46300Y33950D02*
D03*
X36550D02*
D03*
X41800Y35950D02*
D03*
X32050D02*
D03*
X42800D02*
D03*
X33050D02*
D03*
X42800Y33950D02*
D03*
X33050D02*
D03*
X41800D02*
D03*
X32050D02*
D03*
X41800Y34950D02*
D03*
X32050D02*
D03*
X42800D02*
D03*
X33050D02*
D03*
X40350Y32950D02*
D03*
X39050D02*
D03*
X36050Y37100D02*
D03*
X40350D02*
D03*
Y35950D02*
D03*
X39050Y33950D02*
D03*
X38050Y37100D02*
D03*
X42350D02*
D03*
X40350Y34950D02*
D03*
X39050D02*
D03*
Y37100D02*
D03*
X43350D02*
D03*
X40350Y33950D02*
D03*
X39050Y35950D02*
D03*
X37050Y37100D02*
D03*
X41350D02*
D03*
X45550Y41100D02*
D03*
X32550Y42100D02*
D03*
X34550D02*
D03*
X36550D02*
D03*
X41550D02*
D03*
X43550D02*
D03*
X33550D02*
D03*
X35550Y41100D02*
D03*
X37550Y42100D02*
D03*
X39550D02*
D03*
X42550D02*
D03*
X44550D02*
D03*
X46550Y41100D02*
D03*
X32550Y40100D02*
D03*
X34550Y41100D02*
D03*
X36550D02*
D03*
X41550D02*
D03*
X43550D02*
D03*
X45550Y42100D02*
D03*
X33550Y40100D02*
D03*
X35550D02*
D03*
X37550Y41100D02*
D03*
X39550D02*
D03*
X42550D02*
D03*
X44550Y40100D02*
D03*
X46550D02*
D03*
X32550Y39100D02*
D03*
X34550Y40100D02*
D03*
X36550D02*
D03*
X41550D02*
D03*
X43550D02*
D03*
X45550Y39100D02*
D03*
X33550D02*
D03*
X35550D02*
D03*
X37550Y40100D02*
D03*
X39550D02*
D03*
X42550D02*
D03*
X44550Y41100D02*
D03*
X46550Y39100D02*
D03*
X32550Y41100D02*
D03*
X34550Y39100D02*
D03*
X36550D02*
D03*
X41550D02*
D03*
X43550D02*
D03*
X45550Y40100D02*
D03*
X33550Y41100D02*
D03*
X35550Y42100D02*
D03*
X37550Y39100D02*
D03*
X39550D02*
D03*
X42550D02*
D03*
X44550D02*
D03*
X46550Y42100D02*
D03*
X57850Y31600D02*
D03*
X59850D02*
D03*
X60850D02*
D03*
X58850D02*
D03*
X53550D02*
D03*
X55550D02*
D03*
X56550D02*
D03*
X54550D02*
D03*
X60300Y32950D02*
D03*
X49550Y37100D02*
D03*
X61850D02*
D03*
X51550D02*
D03*
X63850D02*
D03*
X52550D02*
D03*
X64850D02*
D03*
X50550D02*
D03*
X62850D02*
D03*
X64800Y32950D02*
D03*
X55050D02*
D03*
X63800D02*
D03*
X54050D02*
D03*
X64800Y35950D02*
D03*
X55050D02*
D03*
X63800D02*
D03*
X54050D02*
D03*
X50550Y32950D02*
D03*
X59300D02*
D03*
X49550D02*
D03*
X63800Y34950D02*
D03*
X54050D02*
D03*
X64800Y33950D02*
D03*
X55050D02*
D03*
X64800Y34950D02*
D03*
X55050D02*
D03*
X63800Y33950D02*
D03*
X54050D02*
D03*
X59300Y35950D02*
D03*
X49550D02*
D03*
X60300D02*
D03*
X50550D02*
D03*
X60300Y33950D02*
D03*
X50550D02*
D03*
X59300D02*
D03*
X49550D02*
D03*
X59300Y34950D02*
D03*
X49550D02*
D03*
X60300D02*
D03*
X50550D02*
D03*
X57850Y32950D02*
D03*
X56550D02*
D03*
X53550Y37100D02*
D03*
X57850D02*
D03*
Y35950D02*
D03*
X56550Y33950D02*
D03*
X55550Y37100D02*
D03*
X59850D02*
D03*
X57850Y34950D02*
D03*
X56550D02*
D03*
Y37100D02*
D03*
X60850D02*
D03*
X57850Y33950D02*
D03*
X56550Y35950D02*
D03*
X54550Y37100D02*
D03*
X58850D02*
D03*
X63050Y41100D02*
D03*
X50050Y42100D02*
D03*
X52050D02*
D03*
X54050D02*
D03*
X59050D02*
D03*
X61050D02*
D03*
X51050D02*
D03*
X53050Y41100D02*
D03*
X55050Y42100D02*
D03*
X57050D02*
D03*
X60050D02*
D03*
X62050D02*
D03*
X64050Y41100D02*
D03*
X50050Y40100D02*
D03*
X52050Y41100D02*
D03*
X54050D02*
D03*
X59050D02*
D03*
X61050D02*
D03*
X63050Y42100D02*
D03*
X51050Y40100D02*
D03*
X53050D02*
D03*
X55050Y41100D02*
D03*
X57050D02*
D03*
X60050D02*
D03*
X62050Y40100D02*
D03*
X64050D02*
D03*
X50050Y39100D02*
D03*
X52050Y40100D02*
D03*
X54050D02*
D03*
X59050D02*
D03*
X61050D02*
D03*
X63050Y39100D02*
D03*
X51050D02*
D03*
X53050D02*
D03*
X55050Y40100D02*
D03*
X57050D02*
D03*
X60050D02*
D03*
X62050Y41100D02*
D03*
X64050Y39100D02*
D03*
X50050Y41100D02*
D03*
X52050Y39100D02*
D03*
X54050D02*
D03*
X59050D02*
D03*
X61050D02*
D03*
X63050Y40100D02*
D03*
X51050Y41100D02*
D03*
X53050Y42100D02*
D03*
X55050Y39100D02*
D03*
X57050D02*
D03*
X60050D02*
D03*
X62050D02*
D03*
X64050Y42100D02*
D03*
D24*
X18295Y43612D02*
D03*
X19930Y44732D02*
D03*
X35795Y43612D02*
D03*
X37430Y44732D02*
D03*
X53295Y43612D02*
D03*
X54930Y44732D02*
D03*
D25*
X19385Y43612D02*
D03*
X20475D02*
D03*
X21565D02*
D03*
X22655D02*
D03*
X23745D02*
D03*
X24835D02*
D03*
X25925D02*
D03*
X18840Y44732D02*
D03*
X21020D02*
D03*
X22110D02*
D03*
X23200D02*
D03*
X24290D02*
D03*
X25380D02*
D03*
X36885Y43612D02*
D03*
X37975D02*
D03*
X39065D02*
D03*
X40155D02*
D03*
X41245D02*
D03*
X42335D02*
D03*
X43425D02*
D03*
X36340Y44732D02*
D03*
X38520D02*
D03*
X39610D02*
D03*
X40700D02*
D03*
X41790D02*
D03*
X42880D02*
D03*
X54385Y43612D02*
D03*
X55475D02*
D03*
X56565D02*
D03*
X57655D02*
D03*
X58745D02*
D03*
X59835D02*
D03*
X60925D02*
D03*
X53840Y44732D02*
D03*
X56020D02*
D03*
X57110D02*
D03*
X58200D02*
D03*
X59290D02*
D03*
X60380D02*
D03*
D26*
X28670Y44173D02*
D03*
X15550D02*
D03*
X46170D02*
D03*
X33050D02*
D03*
X63670D02*
D03*
X50550D02*
D03*
M02*
