%FSLAX24Y24*%
%MOIN*%
G70*
G01*
G75*
G04 Layer_Color=16711935*
%ADD10R,0.0320X0.0360*%
%ADD11O,0.0236X0.0866*%
%ADD12R,0.0385X0.0520*%
%ADD13R,0.0360X0.0320*%
%ADD14R,0.0800X0.0260*%
%ADD15C,0.0250*%
%ADD16C,0.1250*%
%ADD17C,0.0591*%
%ADD18R,0.0591X0.0591*%
%ADD19R,0.0591X0.0591*%
%ADD20C,0.0500*%
%ADD21R,0.0600X0.0600*%
%ADD22C,0.0100*%
%ADD23C,0.0098*%
%ADD24C,0.0080*%
%ADD25C,0.0079*%
%ADD26C,0.0050*%
%ADD27R,0.0400X0.0440*%
%ADD28O,0.0316X0.0946*%
%ADD29R,0.0465X0.0600*%
%ADD30R,0.0440X0.0400*%
%ADD31R,0.0880X0.0340*%
%ADD32C,0.1330*%
%ADD33C,0.0671*%
%ADD34R,0.0671X0.0671*%
%ADD35R,0.0671X0.0671*%
%ADD36C,0.0580*%
%ADD37R,0.0680X0.0680*%
D27*
X45350Y21650D02*
D03*
Y22250D02*
D03*
X42950Y19450D02*
D03*
Y18850D02*
D03*
X45350Y32650D02*
D03*
Y33250D02*
D03*
X42950Y30450D02*
D03*
Y29850D02*
D03*
X45350Y43650D02*
D03*
Y44250D02*
D03*
X42950Y41450D02*
D03*
Y40850D02*
D03*
D30*
X29750Y18850D02*
D03*
X30350D02*
D03*
X30750Y25250D02*
D03*
X30150D02*
D03*
Y23850D02*
D03*
X30750D02*
D03*
X29750Y29850D02*
D03*
X30350D02*
D03*
X30750Y36250D02*
D03*
X30150D02*
D03*
Y34850D02*
D03*
X30750D02*
D03*
X29750Y40850D02*
D03*
X30350D02*
D03*
X30750Y47250D02*
D03*
X30150D02*
D03*
Y45850D02*
D03*
X30750D02*
D03*
D32*
X48250Y17750D02*
D03*
Y25950D02*
D03*
X24250Y17750D02*
D03*
Y25950D02*
D03*
X48250Y28750D02*
D03*
Y36950D02*
D03*
X24250Y28750D02*
D03*
Y36950D02*
D03*
X48250Y39750D02*
D03*
Y47950D02*
D03*
X24250Y39750D02*
D03*
Y47950D02*
D03*
D33*
X36550Y24250D02*
D03*
X37550D02*
D03*
X39550D02*
D03*
X42550D02*
D03*
X41550D02*
D03*
X38550D02*
D03*
X33550Y24650D02*
D03*
X31550D02*
D03*
X29550D02*
D03*
X46150D02*
D03*
Y25650D02*
D03*
Y20450D02*
D03*
Y21450D02*
D03*
X25850Y20250D02*
D03*
Y21250D02*
D03*
X34750Y20450D02*
D03*
Y19450D02*
D03*
X25850Y24650D02*
D03*
Y25650D02*
D03*
X44450Y22250D02*
D03*
X36550Y35250D02*
D03*
X37550D02*
D03*
X39550D02*
D03*
X42550D02*
D03*
X41550D02*
D03*
X38550D02*
D03*
X33550Y35650D02*
D03*
X31550D02*
D03*
X29550D02*
D03*
X46150D02*
D03*
Y36650D02*
D03*
Y31450D02*
D03*
Y32450D02*
D03*
X25850Y31250D02*
D03*
Y32250D02*
D03*
X34750Y31450D02*
D03*
Y30450D02*
D03*
X25850Y35650D02*
D03*
Y36650D02*
D03*
X44450Y33250D02*
D03*
X36550Y46250D02*
D03*
X37550D02*
D03*
X39550D02*
D03*
X42550D02*
D03*
X41550D02*
D03*
X38550D02*
D03*
X33550Y46650D02*
D03*
X31550D02*
D03*
X29550D02*
D03*
X46150D02*
D03*
Y47650D02*
D03*
Y42450D02*
D03*
Y43450D02*
D03*
X25850Y42250D02*
D03*
Y43250D02*
D03*
X34750Y42450D02*
D03*
Y41450D02*
D03*
X25850Y46650D02*
D03*
Y47650D02*
D03*
X44450Y44250D02*
D03*
D34*
X43550Y24250D02*
D03*
X34550Y24650D02*
D03*
X43450Y22250D02*
D03*
X43550Y35250D02*
D03*
X34550Y35650D02*
D03*
X43450Y33250D02*
D03*
X43550Y46250D02*
D03*
X34550Y46650D02*
D03*
X43450Y44250D02*
D03*
D35*
X46150Y23650D02*
D03*
Y19450D02*
D03*
X46750Y17750D02*
D03*
X25850Y19250D02*
D03*
X34750Y18450D02*
D03*
X25850Y23650D02*
D03*
X46150Y34650D02*
D03*
Y30450D02*
D03*
X46750Y28750D02*
D03*
X25850Y30250D02*
D03*
X34750Y29450D02*
D03*
X25850Y34650D02*
D03*
X46150Y45650D02*
D03*
Y41450D02*
D03*
X46750Y39750D02*
D03*
X25850Y41250D02*
D03*
X34750Y40450D02*
D03*
X25850Y45650D02*
D03*
D36*
X44550Y20050D02*
D03*
X27950Y20850D02*
D03*
X37650Y17750D02*
D03*
X32250Y17850D02*
D03*
X34050Y21350D02*
D03*
X27805Y19795D02*
D03*
X33750Y22850D02*
D03*
X39050Y21050D02*
D03*
X39950Y18050D02*
D03*
X43950Y21050D02*
D03*
X41450Y20050D02*
D03*
X41050Y17950D02*
D03*
X42650Y17450D02*
D03*
X43150Y21050D02*
D03*
X44550Y31050D02*
D03*
X27950Y31850D02*
D03*
X37650Y28750D02*
D03*
X32250Y28850D02*
D03*
X34050Y32350D02*
D03*
X27805Y30795D02*
D03*
X33750Y33850D02*
D03*
X39050Y32050D02*
D03*
X39950Y29050D02*
D03*
X43950Y32050D02*
D03*
X41450Y31050D02*
D03*
X41050Y28950D02*
D03*
X42650Y28450D02*
D03*
X43150Y32050D02*
D03*
X44550Y42050D02*
D03*
X27950Y42850D02*
D03*
X37650Y39750D02*
D03*
X32250Y39850D02*
D03*
X34050Y43350D02*
D03*
X27805Y41795D02*
D03*
X33750Y44850D02*
D03*
X39050Y43050D02*
D03*
X39950Y40050D02*
D03*
X43950Y43050D02*
D03*
X41450Y42050D02*
D03*
X41050Y39950D02*
D03*
X42650Y39450D02*
D03*
X43150Y43050D02*
D03*
D37*
X29946Y26048D02*
D03*
X31246D02*
D03*
X42346Y25648D02*
D03*
X43646D02*
D03*
X38554Y25652D02*
D03*
X37254D02*
D03*
X29946Y37048D02*
D03*
X31246D02*
D03*
X42346Y36648D02*
D03*
X43646D02*
D03*
X38554Y36652D02*
D03*
X37254D02*
D03*
X29946Y48048D02*
D03*
X31246D02*
D03*
X42346Y47648D02*
D03*
X43646D02*
D03*
X38554Y47652D02*
D03*
X37254D02*
D03*
M02*
