%FSLAX24Y24*%
%MOIN*%
G70*
G01*
G75*
G04 Layer_Color=65535*
%ADD10R,0.0320X0.0360*%
%ADD11O,0.0236X0.0866*%
%ADD12R,0.0385X0.0520*%
%ADD13R,0.0360X0.0320*%
%ADD14R,0.0800X0.0260*%
%ADD15C,0.0250*%
%ADD16C,0.1250*%
%ADD17C,0.0591*%
%ADD18R,0.0591X0.0591*%
%ADD19R,0.0591X0.0591*%
%ADD20C,0.0500*%
%ADD21R,0.0600X0.0600*%
%ADD22C,0.0100*%
%ADD23C,0.0098*%
%ADD24C,0.0080*%
%ADD25C,0.0079*%
%ADD26C,0.0050*%
D22*
X23000Y27350D02*
X49550D01*
X23000Y38350D02*
X49550D01*
X44337Y22970D02*
Y26612D01*
X35774D02*
X44337D01*
X35774Y22970D02*
Y26612D01*
Y22970D02*
X44337D01*
X35337Y24059D02*
Y26520D01*
X27562D02*
X35337D01*
X27562Y24059D02*
Y26520D01*
Y24059D02*
X35337D01*
X44337Y33970D02*
Y37612D01*
X35774D02*
X44337D01*
X35774Y33970D02*
Y37612D01*
Y33970D02*
X44337D01*
X35337Y35059D02*
Y37520D01*
X27562D02*
X35337D01*
X27562Y35059D02*
Y37520D01*
Y35059D02*
X35337D01*
X44337Y44970D02*
Y48612D01*
X35774D02*
X44337D01*
X35774Y44970D02*
Y48612D01*
Y44970D02*
X44337D01*
X35337Y46059D02*
Y48520D01*
X27562D02*
X35337D01*
X27562Y46059D02*
Y48520D01*
Y46059D02*
X35337D01*
D23*
X28365Y17905D02*
G03*
X28365Y17905I-49J0D01*
G01*
X41915Y18305D02*
G03*
X41915Y18305I-49J0D01*
G01*
X29165Y21305D02*
G03*
X29165Y21305I-49J0D01*
G01*
X28365Y28905D02*
G03*
X28365Y28905I-49J0D01*
G01*
X41915Y29305D02*
G03*
X41915Y29305I-49J0D01*
G01*
X29165Y32305D02*
G03*
X29165Y32305I-49J0D01*
G01*
X28365Y39905D02*
G03*
X28365Y39905I-49J0D01*
G01*
X41915Y40305D02*
G03*
X41915Y40305I-49J0D01*
G01*
X29165Y43305D02*
G03*
X29165Y43305I-49J0D01*
G01*
D24*
X36775Y22150D02*
G03*
X37575Y22150I400J0D01*
G01*
X38950Y19180D02*
X39550D01*
Y17920D02*
Y19180D01*
X38950Y17920D02*
Y19180D01*
Y17920D02*
X39550D01*
X34650Y22780D02*
X35250D01*
Y21520D02*
Y22780D01*
X34650Y21520D02*
Y22780D01*
Y21520D02*
X35250D01*
X42725Y21850D02*
Y22650D01*
X41400Y21850D02*
X42725D01*
X41400Y22650D02*
X42725D01*
X41400Y21850D02*
Y22650D01*
X33450Y20380D02*
X34050D01*
Y19120D02*
Y20380D01*
X33450Y19120D02*
Y20380D01*
Y19120D02*
X34050D01*
X42680Y20950D02*
Y21550D01*
X41420Y20950D02*
X42680D01*
X41420Y21550D02*
X42680D01*
X41420Y20950D02*
Y21550D01*
X41080Y21650D02*
Y22250D01*
X39820Y21650D02*
X41080D01*
X39820Y22250D02*
X41080D01*
X39820Y21650D02*
Y22250D01*
X32650Y20380D02*
X33250D01*
Y19120D02*
Y20380D01*
X32650Y19120D02*
Y20380D01*
Y19120D02*
X33250D01*
X41080Y19250D02*
Y19850D01*
X39820Y19250D02*
X41080D01*
X39820Y19850D02*
X41080D01*
X39820Y19250D02*
Y19850D01*
X41080Y20050D02*
Y20650D01*
X39820Y20050D02*
X41080D01*
X39820Y20650D02*
X41080D01*
X39820Y20050D02*
Y20650D01*
X37575Y22150D02*
X38725D01*
X35625D02*
X36775D01*
X35625Y18050D02*
X38725D01*
Y22150D01*
X35625Y18050D02*
Y22150D01*
X36020Y17250D02*
Y17850D01*
X37280D01*
X36020Y17250D02*
X37280D01*
Y17850D01*
X41080Y20850D02*
Y21450D01*
X39820Y20850D02*
X41080D01*
X39820Y21450D02*
X41080D01*
X39820Y20850D02*
Y21450D01*
X45280Y17350D02*
Y17950D01*
X44020Y17350D02*
X45280D01*
X44020Y17950D02*
X45280D01*
X44020Y17350D02*
Y17950D01*
X44250Y18320D02*
X44850D01*
X44250D02*
Y19580D01*
X44850Y18320D02*
Y19580D01*
X44250D02*
X44850D01*
X41080Y18450D02*
Y19050D01*
X39820Y18450D02*
X41080D01*
X39820Y19050D02*
X41080D01*
X39820Y18450D02*
Y19050D01*
X27550Y22520D02*
X28150D01*
X27550D02*
Y23780D01*
X28150Y22520D02*
Y23780D01*
X27550D02*
X28150D01*
X33050Y21980D02*
X33650D01*
Y20720D02*
Y21980D01*
X33050Y20720D02*
Y21980D01*
Y20720D02*
X33650D01*
X28350Y22520D02*
X28950D01*
X28350D02*
Y23780D01*
X28950Y22520D02*
Y23780D01*
X28350D02*
X28950D01*
X36775Y33150D02*
G03*
X37575Y33150I400J0D01*
G01*
X38950Y30180D02*
X39550D01*
Y28920D02*
Y30180D01*
X38950Y28920D02*
Y30180D01*
Y28920D02*
X39550D01*
X34650Y33780D02*
X35250D01*
Y32520D02*
Y33780D01*
X34650Y32520D02*
Y33780D01*
Y32520D02*
X35250D01*
X42725Y32850D02*
Y33650D01*
X41400Y32850D02*
X42725D01*
X41400Y33650D02*
X42725D01*
X41400Y32850D02*
Y33650D01*
X33450Y31380D02*
X34050D01*
Y30120D02*
Y31380D01*
X33450Y30120D02*
Y31380D01*
Y30120D02*
X34050D01*
X42680Y31950D02*
Y32550D01*
X41420Y31950D02*
X42680D01*
X41420Y32550D02*
X42680D01*
X41420Y31950D02*
Y32550D01*
X41080Y32650D02*
Y33250D01*
X39820Y32650D02*
X41080D01*
X39820Y33250D02*
X41080D01*
X39820Y32650D02*
Y33250D01*
X32650Y31380D02*
X33250D01*
Y30120D02*
Y31380D01*
X32650Y30120D02*
Y31380D01*
Y30120D02*
X33250D01*
X41080Y30250D02*
Y30850D01*
X39820Y30250D02*
X41080D01*
X39820Y30850D02*
X41080D01*
X39820Y30250D02*
Y30850D01*
X41080Y31050D02*
Y31650D01*
X39820Y31050D02*
X41080D01*
X39820Y31650D02*
X41080D01*
X39820Y31050D02*
Y31650D01*
X37575Y33150D02*
X38725D01*
X35625D02*
X36775D01*
X35625Y29050D02*
X38725D01*
Y33150D01*
X35625Y29050D02*
Y33150D01*
X36020Y28250D02*
Y28850D01*
X37280D01*
X36020Y28250D02*
X37280D01*
Y28850D01*
X41080Y31850D02*
Y32450D01*
X39820Y31850D02*
X41080D01*
X39820Y32450D02*
X41080D01*
X39820Y31850D02*
Y32450D01*
X45280Y28350D02*
Y28950D01*
X44020Y28350D02*
X45280D01*
X44020Y28950D02*
X45280D01*
X44020Y28350D02*
Y28950D01*
X44250Y29320D02*
X44850D01*
X44250D02*
Y30580D01*
X44850Y29320D02*
Y30580D01*
X44250D02*
X44850D01*
X41080Y29450D02*
Y30050D01*
X39820Y29450D02*
X41080D01*
X39820Y30050D02*
X41080D01*
X39820Y29450D02*
Y30050D01*
X27550Y33520D02*
X28150D01*
X27550D02*
Y34780D01*
X28150Y33520D02*
Y34780D01*
X27550D02*
X28150D01*
X33050Y32980D02*
X33650D01*
Y31720D02*
Y32980D01*
X33050Y31720D02*
Y32980D01*
Y31720D02*
X33650D01*
X28350Y33520D02*
X28950D01*
X28350D02*
Y34780D01*
X28950Y33520D02*
Y34780D01*
X28350D02*
X28950D01*
X36775Y44150D02*
G03*
X37575Y44150I400J0D01*
G01*
X38950Y41180D02*
X39550D01*
Y39920D02*
Y41180D01*
X38950Y39920D02*
Y41180D01*
Y39920D02*
X39550D01*
X34650Y44780D02*
X35250D01*
Y43520D02*
Y44780D01*
X34650Y43520D02*
Y44780D01*
Y43520D02*
X35250D01*
X42725Y43850D02*
Y44650D01*
X41400Y43850D02*
X42725D01*
X41400Y44650D02*
X42725D01*
X41400Y43850D02*
Y44650D01*
X33450Y42380D02*
X34050D01*
Y41120D02*
Y42380D01*
X33450Y41120D02*
Y42380D01*
Y41120D02*
X34050D01*
X42680Y42950D02*
Y43550D01*
X41420Y42950D02*
X42680D01*
X41420Y43550D02*
X42680D01*
X41420Y42950D02*
Y43550D01*
X41080Y43650D02*
Y44250D01*
X39820Y43650D02*
X41080D01*
X39820Y44250D02*
X41080D01*
X39820Y43650D02*
Y44250D01*
X32650Y42380D02*
X33250D01*
Y41120D02*
Y42380D01*
X32650Y41120D02*
Y42380D01*
Y41120D02*
X33250D01*
X41080Y41250D02*
Y41850D01*
X39820Y41250D02*
X41080D01*
X39820Y41850D02*
X41080D01*
X39820Y41250D02*
Y41850D01*
X41080Y42050D02*
Y42650D01*
X39820Y42050D02*
X41080D01*
X39820Y42650D02*
X41080D01*
X39820Y42050D02*
Y42650D01*
X37575Y44150D02*
X38725D01*
X35625D02*
X36775D01*
X35625Y40050D02*
X38725D01*
Y44150D01*
X35625Y40050D02*
Y44150D01*
X36020Y39250D02*
Y39850D01*
X37280D01*
X36020Y39250D02*
X37280D01*
Y39850D01*
X41080Y42850D02*
Y43450D01*
X39820Y42850D02*
X41080D01*
X39820Y43450D02*
X41080D01*
X39820Y42850D02*
Y43450D01*
X45280Y39350D02*
Y39950D01*
X44020Y39350D02*
X45280D01*
X44020Y39950D02*
X45280D01*
X44020Y39350D02*
Y39950D01*
X44250Y40320D02*
X44850D01*
X44250D02*
Y41580D01*
X44850Y40320D02*
Y41580D01*
X44250D02*
X44850D01*
X41080Y40450D02*
Y41050D01*
X39820Y40450D02*
X41080D01*
X39820Y41050D02*
X41080D01*
X39820Y40450D02*
Y41050D01*
X27550Y44520D02*
X28150D01*
X27550D02*
Y45780D01*
X28150Y44520D02*
Y45780D01*
X27550D02*
X28150D01*
X33050Y43980D02*
X33650D01*
Y42720D02*
Y43980D01*
X33050Y42720D02*
Y43980D01*
Y42720D02*
X33650D01*
X28350Y44520D02*
X28950D01*
X28350D02*
Y45780D01*
X28950Y44520D02*
Y45780D01*
X28350D02*
X28950D01*
D25*
X45470Y22650D02*
X47340D01*
X45470D02*
Y26650D01*
X47340D01*
Y22650D02*
Y26650D01*
X45470Y18450D02*
X47340D01*
X45470D02*
Y22450D01*
X47340D01*
Y18450D02*
Y22450D01*
X31882Y18496D02*
Y19204D01*
X28418Y18496D02*
Y19204D01*
X31882D01*
X28418Y18496D02*
X31882D01*
X46250Y17250D02*
X47250D01*
X46250D02*
Y18250D01*
X47250Y17250D02*
Y18250D01*
X46250D02*
X47250D01*
X25170D02*
X27040D01*
X25170D02*
Y22250D01*
X27040D01*
Y18250D02*
Y22250D01*
X41966Y18896D02*
X43934D01*
X41966Y19604D02*
X43934D01*
X41966Y18896D02*
Y19604D01*
X43934Y18896D02*
Y19604D01*
X35250Y17950D02*
Y20950D01*
X34250D02*
X35250D01*
X34250Y17950D02*
Y20950D01*
Y17950D02*
X35250D01*
X32682Y21896D02*
Y22604D01*
X29218Y21896D02*
Y22604D01*
X32682D01*
X29218Y21896D02*
X32682D01*
X25170Y22650D02*
X27040D01*
X25170D02*
Y26650D01*
X27040D01*
Y22650D02*
Y26650D01*
X42950Y22750D02*
X44950D01*
X42950Y21750D02*
Y22750D01*
Y21750D02*
X44950D01*
Y22750D01*
X45470Y33650D02*
X47340D01*
X45470D02*
Y37650D01*
X47340D01*
Y33650D02*
Y37650D01*
X45470Y29450D02*
X47340D01*
X45470D02*
Y33450D01*
X47340D01*
Y29450D02*
Y33450D01*
X31882Y29496D02*
Y30204D01*
X28418Y29496D02*
Y30204D01*
X31882D01*
X28418Y29496D02*
X31882D01*
X46250Y28250D02*
X47250D01*
X46250D02*
Y29250D01*
X47250Y28250D02*
Y29250D01*
X46250D02*
X47250D01*
X25170D02*
X27040D01*
X25170D02*
Y33250D01*
X27040D01*
Y29250D02*
Y33250D01*
X41966Y29896D02*
X43934D01*
X41966Y30604D02*
X43934D01*
X41966Y29896D02*
Y30604D01*
X43934Y29896D02*
Y30604D01*
X35250Y28950D02*
Y31950D01*
X34250D02*
X35250D01*
X34250Y28950D02*
Y31950D01*
Y28950D02*
X35250D01*
X32682Y32896D02*
Y33604D01*
X29218Y32896D02*
Y33604D01*
X32682D01*
X29218Y32896D02*
X32682D01*
X25170Y33650D02*
X27040D01*
X25170D02*
Y37650D01*
X27040D01*
Y33650D02*
Y37650D01*
X42950Y33750D02*
X44950D01*
X42950Y32750D02*
Y33750D01*
Y32750D02*
X44950D01*
Y33750D01*
X45470Y44650D02*
X47340D01*
X45470D02*
Y48650D01*
X47340D01*
Y44650D02*
Y48650D01*
X45470Y40450D02*
X47340D01*
X45470D02*
Y44450D01*
X47340D01*
Y40450D02*
Y44450D01*
X31882Y40496D02*
Y41204D01*
X28418Y40496D02*
Y41204D01*
X31882D01*
X28418Y40496D02*
X31882D01*
X46250Y39250D02*
X47250D01*
X46250D02*
Y40250D01*
X47250Y39250D02*
Y40250D01*
X46250D02*
X47250D01*
X25170D02*
X27040D01*
X25170D02*
Y44250D01*
X27040D01*
Y40250D02*
Y44250D01*
X41966Y40896D02*
X43934D01*
X41966Y41604D02*
X43934D01*
X41966Y40896D02*
Y41604D01*
X43934Y40896D02*
Y41604D01*
X35250Y39950D02*
Y42950D01*
X34250D02*
X35250D01*
X34250Y39950D02*
Y42950D01*
Y39950D02*
X35250D01*
X32682Y43896D02*
Y44604D01*
X29218Y43896D02*
Y44604D01*
X32682D01*
X29218Y43896D02*
X32682D01*
X25170Y44650D02*
X27040D01*
X25170D02*
Y48650D01*
X27040D01*
Y44650D02*
Y48650D01*
X42950Y44750D02*
X44950D01*
X42950Y43750D02*
Y44750D01*
Y43750D02*
X44950D01*
Y44750D01*
D26*
X24750Y18300D02*
Y18400D01*
X24800Y18450D01*
X24950D01*
Y18300D01*
X24900Y18250D01*
X24850Y18300D01*
Y18450D01*
X24650Y18750D02*
X24950D01*
Y18600D01*
X24900Y18550D01*
X24800D01*
X24750Y18600D01*
Y18750D01*
Y18900D02*
Y19000D01*
X24800Y19050D01*
X24950D01*
Y18900D01*
X24900Y18850D01*
X24850Y18900D01*
Y19050D01*
X24950Y19150D02*
X24750D01*
Y19200D01*
X24800Y19250D01*
X24950D01*
X24800D01*
X24750Y19300D01*
X24800Y19350D01*
X24950D01*
X25050Y19450D02*
Y19500D01*
X25000Y19550D01*
X24750D01*
X24950Y19799D02*
Y19899D01*
X24900Y19949D01*
X24800D01*
X24750Y19899D01*
Y19799D01*
X24800Y19750D01*
X24900D01*
X24950Y19799D01*
X24650Y20049D02*
X24950D01*
X24800D01*
X24750Y20099D01*
Y20199D01*
X24800Y20249D01*
X24950D01*
Y20349D02*
X24750D01*
Y20499D01*
X24800Y20549D01*
X24950D01*
X25050Y20749D02*
Y20799D01*
X25000Y20849D01*
X24750D01*
Y20699D01*
X24800Y20649D01*
X24900D01*
X24950Y20699D01*
Y20849D01*
Y20949D02*
Y21049D01*
Y20999D01*
X24750D01*
Y20949D01*
X24950Y21199D02*
Y21299D01*
Y21249D01*
X24650D01*
Y21199D01*
Y21449D02*
X24950D01*
Y21599D01*
X24900Y21649D01*
X24850D01*
X24800D01*
X24750Y21599D01*
Y21449D01*
X24950Y21899D02*
Y21799D01*
X24900Y21749D01*
X24800D01*
X24750Y21799D01*
Y21899D01*
X24800Y21949D01*
X24850D01*
Y21749D01*
X24750Y22049D02*
X24950D01*
X24850D01*
X24800Y22099D01*
X24750Y22149D01*
Y22199D01*
X24700Y22399D02*
X24750D01*
Y22349D01*
Y22449D01*
Y22399D01*
X24900D01*
X24950Y22449D01*
X24850Y22749D02*
X24800D01*
Y22699D01*
X24850D01*
Y22749D01*
X24800Y22799D01*
X24700D01*
X24650Y22749D01*
Y22649D01*
X24700Y22599D01*
X24900D01*
X24950Y22649D01*
Y22799D01*
X25050Y22998D02*
Y23048D01*
X25000Y23098D01*
X24750D01*
Y22948D01*
X24800Y22898D01*
X24900D01*
X24950Y22948D01*
Y23098D01*
Y23198D02*
X24750D01*
Y23248D01*
X24800Y23298D01*
X24950D01*
X24800D01*
X24750Y23348D01*
X24800Y23398D01*
X24950D01*
X24750Y23548D02*
Y23648D01*
X24800Y23698D01*
X24950D01*
Y23548D01*
X24900Y23498D01*
X24850Y23548D01*
Y23698D01*
X24950Y23798D02*
Y23898D01*
Y23848D01*
X24750D01*
Y23798D01*
X24950Y24048D02*
Y24148D01*
Y24098D01*
X24650D01*
Y24048D01*
X24950Y24298D02*
X24900D01*
Y24348D01*
X24950D01*
Y24298D01*
X24750Y24748D02*
Y24598D01*
X24800Y24548D01*
X24900D01*
X24950Y24598D01*
Y24748D01*
Y24898D02*
Y24998D01*
X24900Y25048D01*
X24800D01*
X24750Y24998D01*
Y24898D01*
X24800Y24848D01*
X24900D01*
X24950Y24898D01*
Y25148D02*
X24750D01*
Y25198D01*
X24800Y25248D01*
X24950D01*
X24800D01*
X24750Y25298D01*
X24800Y25348D01*
X24950D01*
X24450Y18950D02*
X24150D01*
X24250Y19050D01*
X24150Y19150D01*
X24450D01*
X24250Y19450D02*
Y19300D01*
X24300Y19250D01*
X24400D01*
X24450Y19300D01*
Y19450D01*
X24200Y19750D02*
X24150Y19700D01*
Y19600D01*
X24200Y19550D01*
X24400D01*
X24450Y19600D01*
Y19700D01*
X24400Y19750D01*
X24300D01*
Y19650D01*
X24450Y19850D02*
Y19950D01*
Y19900D01*
X24250D01*
Y19850D01*
X24450Y20100D02*
Y20200D01*
Y20150D01*
X24150D01*
Y20100D01*
X24450Y20350D02*
Y20450D01*
Y20400D01*
X24150D01*
Y20350D01*
Y20899D02*
X24400D01*
X24450Y20949D01*
Y21049D01*
X24400Y21099D01*
X24150D01*
X24450Y21199D02*
X24250D01*
Y21349D01*
X24300Y21399D01*
X24450D01*
Y21499D02*
Y21599D01*
Y21549D01*
X24250D01*
Y21499D01*
X24450Y21749D02*
X24400D01*
Y21799D01*
X24450D01*
Y21749D01*
X24150Y22499D02*
Y22399D01*
Y22449D01*
X24400D01*
X24450Y22399D01*
Y22349D01*
X24400Y22299D01*
X24250Y22649D02*
Y22749D01*
X24300Y22799D01*
X24450D01*
Y22649D01*
X24400Y22599D01*
X24350Y22649D01*
Y22799D01*
X24450Y22899D02*
X24250D01*
Y23049D01*
X24300Y23099D01*
X24450D01*
Y23698D02*
Y23499D01*
X24250Y23698D01*
X24200D01*
X24150Y23648D01*
Y23549D01*
X24200Y23499D01*
Y23798D02*
X24150Y23848D01*
Y23948D01*
X24200Y23998D01*
X24400D01*
X24450Y23948D01*
Y23848D01*
X24400Y23798D01*
X24200D01*
X24450Y24098D02*
Y24198D01*
Y24148D01*
X24150D01*
X24200Y24098D01*
X24450Y24348D02*
Y24448D01*
Y24398D01*
X24150D01*
X24200Y24348D01*
X23650Y18550D02*
X23950D01*
X23850D01*
X23650Y18750D01*
X23800Y18600D01*
X23950Y18750D01*
Y19000D02*
Y18900D01*
X23900Y18850D01*
X23800D01*
X23750Y18900D01*
Y19000D01*
X23800Y19050D01*
X23850D01*
Y18850D01*
X23750Y19150D02*
X23950Y19250D01*
X23750Y19350D01*
X23950Y19450D02*
Y19550D01*
Y19500D01*
X23750D01*
Y19450D01*
X23950Y19700D02*
X23750D01*
Y19850D01*
X23800Y19900D01*
X23950D01*
Y20000D02*
Y20149D01*
X23900Y20199D01*
X23850Y20149D01*
Y20050D01*
X23800Y20000D01*
X23750Y20050D01*
Y20199D01*
X23950Y20599D02*
X23650D01*
Y20749D01*
X23700Y20799D01*
X23800D01*
X23850Y20749D01*
Y20599D01*
X23750Y20899D02*
X23900D01*
X23950Y20949D01*
Y21099D01*
X23750D01*
X23950Y21199D02*
X23750D01*
Y21249D01*
X23800Y21299D01*
X23950D01*
X23800D01*
X23750Y21349D01*
X23800Y21399D01*
X23950D01*
X24050Y21499D02*
X23750D01*
Y21649D01*
X23800Y21699D01*
X23900D01*
X23950Y21649D01*
Y21499D01*
X23700Y22299D02*
X23650Y22249D01*
Y22149D01*
X23700Y22099D01*
X23900D01*
X23950Y22149D01*
Y22249D01*
X23900Y22299D01*
X23700Y22449D02*
X23750D01*
Y22399D01*
Y22499D01*
Y22449D01*
X23900D01*
X23950Y22499D01*
X23750Y22649D02*
X23950D01*
X23850D01*
X23800Y22699D01*
X23750Y22749D01*
Y22799D01*
X23950Y22949D02*
Y23049D01*
Y22999D01*
X23650D01*
Y22949D01*
X23950Y23198D02*
X23900D01*
Y23248D01*
X23950D01*
Y23198D01*
X23650Y23748D02*
X23950D01*
Y23898D01*
X23900Y23948D01*
X23850D01*
X23800Y23898D01*
Y23748D01*
Y23898D01*
X23750Y23948D01*
X23700D01*
X23650Y23898D01*
Y23748D01*
X23950Y24098D02*
Y24198D01*
X23900Y24248D01*
X23800D01*
X23750Y24198D01*
Y24098D01*
X23800Y24048D01*
X23900D01*
X23950Y24098D01*
X23750Y24398D02*
Y24498D01*
X23800Y24548D01*
X23950D01*
Y24398D01*
X23900Y24348D01*
X23850Y24398D01*
Y24548D01*
X23750Y24648D02*
X23950D01*
X23850D01*
X23800Y24698D01*
X23750Y24748D01*
Y24798D01*
X23650Y25148D02*
X23950D01*
Y24998D01*
X23900Y24948D01*
X23800D01*
X23750Y24998D01*
Y25148D01*
X28650Y20750D02*
X28900D01*
X28950Y20800D01*
Y20900D01*
X28900Y20950D01*
X28650D01*
Y21250D02*
X28700Y21150D01*
X28800Y21050D01*
X28900D01*
X28950Y21100D01*
Y21200D01*
X28900Y21250D01*
X28850D01*
X28800Y21200D01*
Y21050D01*
X27850Y17450D02*
X28100D01*
X28150Y17500D01*
Y17600D01*
X28100Y17650D01*
X27850D01*
Y17950D02*
Y17750D01*
X28000D01*
X27950Y17850D01*
Y17900D01*
X28000Y17950D01*
X28100D01*
X28150Y17900D01*
Y17800D01*
X28100Y17750D01*
X41450Y17850D02*
X41700D01*
X41750Y17900D01*
Y18000D01*
X41700Y18050D01*
X41450D01*
X41750Y18300D02*
X41450D01*
X41600Y18150D01*
Y18350D01*
X36950Y22550D02*
Y22300D01*
X37000Y22250D01*
X37100D01*
X37150Y22300D01*
Y22550D01*
X37250Y22500D02*
X37300Y22550D01*
X37400D01*
X37450Y22500D01*
Y22450D01*
X37400Y22400D01*
X37350D01*
X37400D01*
X37450Y22350D01*
Y22300D01*
X37400Y22250D01*
X37300D01*
X37250Y22300D01*
X34750Y23950D02*
Y23700D01*
X34800Y23650D01*
X34900D01*
X34950Y23700D01*
Y23950D01*
X35250Y23650D02*
X35050D01*
X35250Y23850D01*
Y23900D01*
X35200Y23950D01*
X35100D01*
X35050Y23900D01*
X35250Y23450D02*
Y23200D01*
X35300Y23150D01*
X35400D01*
X35450Y23200D01*
Y23450D01*
X35550Y23150D02*
X35650D01*
X35600D01*
Y23450D01*
X35550Y23400D01*
X45450Y17750D02*
X45650D01*
X45550D01*
Y17450D01*
X45750D02*
Y17750D01*
X45900D01*
X45950Y17700D01*
Y17600D01*
X45900Y17550D01*
X45750D01*
X46050Y17450D02*
X46150D01*
X46100D01*
Y17750D01*
X46050Y17700D01*
X28950Y21650D02*
X28650D01*
Y21800D01*
X28700Y21850D01*
X28800D01*
X28850Y21800D01*
Y21650D01*
Y21750D02*
X28950Y21850D01*
Y21950D02*
Y22050D01*
Y22000D01*
X28650D01*
X28700Y21950D01*
X28650Y22400D02*
Y22200D01*
X28800D01*
X28750Y22300D01*
Y22350D01*
X28800Y22400D01*
X28900D01*
X28950Y22350D01*
Y22250D01*
X28900Y22200D01*
X41550Y18450D02*
X41250D01*
Y18600D01*
X41300Y18650D01*
X41400D01*
X41450Y18600D01*
Y18450D01*
Y18550D02*
X41550Y18650D01*
Y18750D02*
Y18850D01*
Y18800D01*
X41250D01*
X41300Y18750D01*
X41550Y19150D02*
X41250D01*
X41400Y19000D01*
Y19200D01*
X28150Y21650D02*
X27850D01*
Y21800D01*
X27900Y21850D01*
X28000D01*
X28050Y21800D01*
Y21650D01*
Y21750D02*
X28150Y21850D01*
Y21950D02*
Y22050D01*
Y22000D01*
X27850D01*
X27900Y21950D01*
Y22200D02*
X27850Y22250D01*
Y22350D01*
X27900Y22400D01*
X27950D01*
X28000Y22350D01*
Y22300D01*
Y22350D01*
X28050Y22400D01*
X28100D01*
X28150Y22350D01*
Y22250D01*
X28100Y22200D01*
X33050Y22150D02*
Y22450D01*
X33200D01*
X33250Y22400D01*
Y22300D01*
X33200Y22250D01*
X33050D01*
X33150D02*
X33250Y22150D01*
X33350D02*
X33450D01*
X33400D01*
Y22450D01*
X33350Y22400D01*
X33800Y22150D02*
X33600D01*
X33800Y22350D01*
Y22400D01*
X33750Y22450D01*
X33650D01*
X33600Y22400D01*
X44750Y18050D02*
Y18350D01*
X44900D01*
X44950Y18300D01*
Y18200D01*
X44900Y18150D01*
X44750D01*
X44850D02*
X44950Y18050D01*
X45050D02*
X45150D01*
X45100D01*
Y18350D01*
X45050Y18300D01*
X45300Y18050D02*
X45400D01*
X45350D01*
Y18350D01*
X45300Y18300D01*
X43150Y17450D02*
Y17750D01*
X43300D01*
X43350Y17700D01*
Y17600D01*
X43300Y17550D01*
X43150D01*
X43250D02*
X43350Y17450D01*
X43450D02*
X43550D01*
X43500D01*
Y17750D01*
X43450Y17700D01*
X43700D02*
X43750Y17750D01*
X43850D01*
X43900Y17700D01*
Y17500D01*
X43850Y17450D01*
X43750D01*
X43700Y17500D01*
Y17700D01*
X39350Y21350D02*
X39650D01*
Y21200D01*
X39600Y21150D01*
X39500D01*
X39450Y21200D01*
Y21350D01*
Y21250D02*
X39350Y21150D01*
X39400Y21050D02*
X39350Y21000D01*
Y20900D01*
X39400Y20850D01*
X39600D01*
X39650Y20900D01*
Y21000D01*
X39600Y21050D01*
X39550D01*
X39500Y21000D01*
Y20850D01*
X39350Y20650D02*
X39650D01*
Y20500D01*
X39600Y20450D01*
X39500D01*
X39450Y20500D01*
Y20650D01*
Y20550D02*
X39350Y20450D01*
X39600Y20350D02*
X39650Y20300D01*
Y20200D01*
X39600Y20150D01*
X39550D01*
X39500Y20200D01*
X39450Y20150D01*
X39400D01*
X39350Y20200D01*
Y20300D01*
X39400Y20350D01*
X39450D01*
X39500Y20300D01*
X39550Y20350D01*
X39600D01*
X39500Y20300D02*
Y20200D01*
X35725Y17255D02*
X35425D01*
Y17405D01*
X35475Y17455D01*
X35575D01*
X35625Y17405D01*
Y17255D01*
Y17355D02*
X35725Y17455D01*
X35425Y17555D02*
Y17755D01*
X35475D01*
X35675Y17555D01*
X35725D01*
X39350Y19850D02*
X39650D01*
Y19700D01*
X39600Y19650D01*
X39500D01*
X39450Y19700D01*
Y19850D01*
Y19750D02*
X39350Y19650D01*
X39650Y19350D02*
X39600Y19450D01*
X39500Y19550D01*
X39400D01*
X39350Y19500D01*
Y19400D01*
X39400Y19350D01*
X39450D01*
X39500Y19400D01*
Y19550D01*
X32650Y18750D02*
Y19050D01*
X32800D01*
X32850Y19000D01*
Y18900D01*
X32800Y18850D01*
X32650D01*
X32750D02*
X32850Y18750D01*
X33150Y19050D02*
X32950D01*
Y18900D01*
X33050Y18950D01*
X33100D01*
X33150Y18900D01*
Y18800D01*
X33100Y18750D01*
X33000D01*
X32950Y18800D01*
X41250Y20450D02*
Y20750D01*
X41400D01*
X41450Y20700D01*
Y20600D01*
X41400Y20550D01*
X41250D01*
X41350D02*
X41450Y20450D01*
X41700D02*
Y20750D01*
X41550Y20600D01*
X41750D01*
X39350Y22150D02*
X39650D01*
Y22000D01*
X39600Y21950D01*
X39500D01*
X39450Y22000D01*
Y22150D01*
Y22050D02*
X39350Y21950D01*
X39600Y21850D02*
X39650Y21800D01*
Y21700D01*
X39600Y21650D01*
X39550D01*
X39500Y21700D01*
Y21750D01*
Y21700D01*
X39450Y21650D01*
X39400D01*
X39350Y21700D01*
Y21800D01*
X39400Y21850D01*
X33550Y18750D02*
Y19050D01*
X33700D01*
X33750Y19000D01*
Y18900D01*
X33700Y18850D01*
X33550D01*
X33650D02*
X33750Y18750D01*
X34050D02*
X33850D01*
X34050Y18950D01*
Y19000D01*
X34000Y19050D01*
X33900D01*
X33850Y19000D01*
X44450Y21650D02*
X44350D01*
X44400D01*
Y21400D01*
X44350Y21350D01*
X44300D01*
X44250Y21400D01*
X44750Y21650D02*
X44650Y21600D01*
X44550Y21500D01*
Y21400D01*
X44600Y21350D01*
X44700D01*
X44750Y21400D01*
Y21450D01*
X44700Y21500D01*
X44550D01*
X27150Y22350D02*
Y22250D01*
Y22300D01*
X27400D01*
X27450Y22250D01*
Y22200D01*
X27400Y22150D01*
X27150Y22650D02*
Y22450D01*
X27300D01*
X27250Y22550D01*
Y22600D01*
X27300Y22650D01*
X27400D01*
X27450Y22600D01*
Y22500D01*
X27400Y22450D01*
X34750Y17850D02*
X34650D01*
X34700D01*
Y17600D01*
X34650Y17550D01*
X34600D01*
X34550Y17600D01*
X35000Y17550D02*
Y17850D01*
X34850Y17700D01*
X35050D01*
X45850Y18350D02*
X45750D01*
X45800D01*
Y18100D01*
X45750Y18050D01*
X45700D01*
X45650Y18100D01*
X45950Y18300D02*
X46000Y18350D01*
X46100D01*
X46150Y18300D01*
Y18250D01*
X46100Y18200D01*
X46050D01*
X46100D01*
X46150Y18150D01*
Y18100D01*
X46100Y18050D01*
X46000D01*
X45950Y18100D01*
X26050Y18150D02*
X25950D01*
X26000D01*
Y17900D01*
X25950Y17850D01*
X25900D01*
X25850Y17900D01*
X26350Y17850D02*
X26150D01*
X26350Y18050D01*
Y18100D01*
X26300Y18150D01*
X26200D01*
X26150Y18100D01*
X44950Y26450D02*
Y26550D01*
Y26500D01*
X44700D01*
X44650Y26550D01*
Y26600D01*
X44700Y26650D01*
X44650Y26350D02*
Y26250D01*
Y26300D01*
X44950D01*
X44900Y26350D01*
X40950Y22700D02*
X40900Y22750D01*
X40800D01*
X40750Y22700D01*
Y22500D01*
X40800Y22450D01*
X40900D01*
X40950Y22500D01*
X41050Y22700D02*
X41100Y22750D01*
X41200D01*
X41250Y22700D01*
Y22650D01*
X41200Y22600D01*
X41250Y22550D01*
Y22500D01*
X41200Y22450D01*
X41100D01*
X41050Y22500D01*
Y22550D01*
X41100Y22600D01*
X41050Y22650D01*
Y22700D01*
X41100Y22600D02*
X41200D01*
X34300Y22150D02*
X34250Y22100D01*
Y22000D01*
X34300Y21950D01*
X34500D01*
X34550Y22000D01*
Y22100D01*
X34500Y22150D01*
X34250Y22450D02*
X34300Y22350D01*
X34400Y22250D01*
X34500D01*
X34550Y22300D01*
Y22400D01*
X34500Y22450D01*
X34450D01*
X34400Y22400D01*
Y22250D01*
X39350Y17700D02*
X39300Y17750D01*
X39200D01*
X39150Y17700D01*
Y17500D01*
X39200Y17450D01*
X39300D01*
X39350Y17500D01*
X39450Y17450D02*
X39550D01*
X39500D01*
Y17750D01*
X39450Y17700D01*
X45300Y22050D02*
X45350Y22100D01*
Y22200D01*
X45300Y22250D01*
X45100D01*
X45050Y22200D01*
Y22100D01*
X45100Y22050D01*
X45300Y21900D02*
X45250D01*
Y21950D01*
Y21850D01*
Y21900D01*
X45100D01*
X45050Y21850D01*
X45250Y21700D02*
X45050D01*
X45150D01*
X45200Y21650D01*
X45250Y21600D01*
Y21550D01*
X45050Y21400D02*
Y21300D01*
Y21350D01*
X45350D01*
Y21400D01*
Y20850D02*
Y20651D01*
Y20750D01*
X45050D01*
X45250Y20501D02*
Y20401D01*
X45200Y20351D01*
X45050D01*
Y20501D01*
X45100Y20551D01*
X45150Y20501D01*
Y20351D01*
X45250Y20051D02*
Y20201D01*
X45200Y20251D01*
X45100D01*
X45050Y20201D01*
Y20051D01*
X45350Y19951D02*
X45050D01*
X45200D01*
X45250Y19901D01*
Y19801D01*
X45200Y19751D01*
X45050D01*
X45350Y19351D02*
X45050D01*
Y19201D01*
X45100Y19151D01*
X45300D01*
X45350Y19201D01*
Y19351D01*
X45050Y19051D02*
Y18951D01*
Y19001D01*
X45250D01*
Y19051D01*
Y18801D02*
X45050D01*
X45150D01*
X45200Y18751D01*
X45250Y18701D01*
Y18651D01*
X45350Y26550D02*
X45150D01*
X45050Y26450D01*
X45150Y26350D01*
X45350D01*
X45050Y26250D02*
X45250D01*
Y26200D01*
X45200Y26150D01*
X45050D01*
X45200D01*
X45250Y26100D01*
X45200Y26050D01*
X45050D01*
Y25900D02*
Y25800D01*
X45100Y25750D01*
X45200D01*
X45250Y25800D01*
Y25900D01*
X45200Y25950D01*
X45100D01*
X45050Y25900D01*
X45300Y25600D02*
X45250D01*
Y25650D01*
Y25550D01*
Y25600D01*
X45100D01*
X45050Y25550D01*
X45350Y25100D02*
X45050Y24901D01*
X45350D02*
X45050Y25100D01*
X45300Y24301D02*
X45350Y24351D01*
Y24451D01*
X45300Y24501D01*
X45100D01*
X45050Y24451D01*
Y24351D01*
X45100Y24301D01*
X45200D01*
Y24401D01*
X45050Y24201D02*
X45250D01*
Y24051D01*
X45200Y24001D01*
X45050D01*
X45350Y23701D02*
X45050D01*
Y23851D01*
X45100Y23901D01*
X45200D01*
X45250Y23851D01*
Y23701D01*
X45050Y23601D02*
X45350D01*
X45250Y23501D01*
X45350Y23401D01*
X45050D01*
Y23251D02*
Y23151D01*
X45100Y23101D01*
X45200D01*
X45250Y23151D01*
Y23251D01*
X45200Y23301D01*
X45100D01*
X45050Y23251D01*
X45300Y22951D02*
X45250D01*
Y23001D01*
Y22901D01*
Y22951D01*
X45100D01*
X45050Y22901D01*
X27200Y23050D02*
X27150Y23000D01*
Y22900D01*
X27200Y22850D01*
X27400D01*
X27450Y22900D01*
Y23000D01*
X27400Y23050D01*
X27300D01*
Y22950D01*
X27450Y23150D02*
X27250D01*
Y23300D01*
X27300Y23350D01*
X27450D01*
X27150Y23650D02*
X27450D01*
Y23500D01*
X27400Y23450D01*
X27300D01*
X27250Y23500D01*
Y23650D01*
X27150Y23750D02*
Y23850D01*
Y23800D01*
X27450D01*
Y23750D01*
Y23850D01*
Y24000D02*
Y24150D01*
X27400Y24200D01*
X27350Y24150D01*
Y24050D01*
X27300Y24000D01*
X27250Y24050D01*
Y24200D01*
X27450Y24350D02*
Y24449D01*
X27400Y24499D01*
X27300D01*
X27250Y24449D01*
Y24350D01*
X27300Y24300D01*
X27400D01*
X27450Y24350D01*
X27150Y24899D02*
Y25099D01*
Y24999D01*
X27450D01*
X27250Y25249D02*
Y25349D01*
X27300Y25399D01*
X27450D01*
Y25249D01*
X27400Y25199D01*
X27350Y25249D01*
Y25399D01*
X27250Y25699D02*
Y25549D01*
X27300Y25499D01*
X27400D01*
X27450Y25549D01*
Y25699D01*
X27150Y25799D02*
X27450D01*
X27300D01*
X27250Y25849D01*
Y25949D01*
X27300Y25999D01*
X27450D01*
X27150Y26399D02*
X27450Y26599D01*
X27150D02*
X27450Y26399D01*
X27150Y17850D02*
X27450D01*
Y18000D01*
X27400Y18050D01*
X27200D01*
X27150Y18000D01*
Y17850D01*
X27550Y18250D02*
Y18300D01*
X27500Y18350D01*
X27250D01*
Y18200D01*
X27300Y18150D01*
X27400D01*
X27450Y18200D01*
Y18350D01*
Y18450D02*
X27250D01*
Y18600D01*
X27300Y18650D01*
X27450D01*
X27150Y18950D02*
X27450D01*
Y18800D01*
X27400Y18750D01*
X27300D01*
X27250Y18800D01*
Y18950D01*
X27450Y19350D02*
X27150D01*
Y19499D01*
X27200Y19549D01*
X27300D01*
X27350Y19499D01*
Y19350D01*
X27150Y19649D02*
X27450D01*
X27350Y19749D01*
X27450Y19849D01*
X27150D01*
X27450Y19949D02*
X27150D01*
X27250Y20049D01*
X27150Y20149D01*
X27450D01*
X27150Y20749D02*
Y20549D01*
X27300D01*
X27250Y20649D01*
Y20699D01*
X27300Y20749D01*
X27400D01*
X27450Y20699D01*
Y20599D01*
X27400Y20549D01*
X27150Y20849D02*
X27350D01*
X27450Y20949D01*
X27350Y21049D01*
X27150D01*
Y21149D02*
X27450D01*
Y21299D01*
X27400Y21349D01*
X27200D01*
X27150Y21299D01*
Y21149D01*
X27450Y21449D02*
Y21549D01*
Y21499D01*
X27250D01*
Y21449D01*
X27550Y21799D02*
Y21849D01*
X27500Y21899D01*
X27250D01*
Y21749D01*
X27300Y21699D01*
X27400D01*
X27450Y21749D01*
Y21899D01*
X24750Y29300D02*
Y29400D01*
X24800Y29450D01*
X24950D01*
Y29300D01*
X24900Y29250D01*
X24850Y29300D01*
Y29450D01*
X24650Y29750D02*
X24950D01*
Y29600D01*
X24900Y29550D01*
X24800D01*
X24750Y29600D01*
Y29750D01*
Y29900D02*
Y30000D01*
X24800Y30050D01*
X24950D01*
Y29900D01*
X24900Y29850D01*
X24850Y29900D01*
Y30050D01*
X24950Y30150D02*
X24750D01*
Y30200D01*
X24800Y30250D01*
X24950D01*
X24800D01*
X24750Y30300D01*
X24800Y30350D01*
X24950D01*
X25050Y30450D02*
Y30500D01*
X25000Y30550D01*
X24750D01*
X24950Y30800D02*
Y30899D01*
X24900Y30949D01*
X24800D01*
X24750Y30899D01*
Y30800D01*
X24800Y30750D01*
X24900D01*
X24950Y30800D01*
X24650Y31049D02*
X24950D01*
X24800D01*
X24750Y31099D01*
Y31199D01*
X24800Y31249D01*
X24950D01*
Y31349D02*
X24750D01*
Y31499D01*
X24800Y31549D01*
X24950D01*
X25050Y31749D02*
Y31799D01*
X25000Y31849D01*
X24750D01*
Y31699D01*
X24800Y31649D01*
X24900D01*
X24950Y31699D01*
Y31849D01*
Y31949D02*
Y32049D01*
Y31999D01*
X24750D01*
Y31949D01*
X24950Y32199D02*
Y32299D01*
Y32249D01*
X24650D01*
Y32199D01*
Y32449D02*
X24950D01*
Y32599D01*
X24900Y32649D01*
X24850D01*
X24800D01*
X24750Y32599D01*
Y32449D01*
X24950Y32899D02*
Y32799D01*
X24900Y32749D01*
X24800D01*
X24750Y32799D01*
Y32899D01*
X24800Y32949D01*
X24850D01*
Y32749D01*
X24750Y33049D02*
X24950D01*
X24850D01*
X24800Y33099D01*
X24750Y33149D01*
Y33199D01*
X24700Y33399D02*
X24750D01*
Y33349D01*
Y33449D01*
Y33399D01*
X24900D01*
X24950Y33449D01*
X24850Y33749D02*
X24800D01*
Y33699D01*
X24850D01*
Y33749D01*
X24800Y33799D01*
X24700D01*
X24650Y33749D01*
Y33649D01*
X24700Y33599D01*
X24900D01*
X24950Y33649D01*
Y33799D01*
X25050Y33998D02*
Y34048D01*
X25000Y34098D01*
X24750D01*
Y33948D01*
X24800Y33898D01*
X24900D01*
X24950Y33948D01*
Y34098D01*
Y34198D02*
X24750D01*
Y34248D01*
X24800Y34298D01*
X24950D01*
X24800D01*
X24750Y34348D01*
X24800Y34398D01*
X24950D01*
X24750Y34548D02*
Y34648D01*
X24800Y34698D01*
X24950D01*
Y34548D01*
X24900Y34498D01*
X24850Y34548D01*
Y34698D01*
X24950Y34798D02*
Y34898D01*
Y34848D01*
X24750D01*
Y34798D01*
X24950Y35048D02*
Y35148D01*
Y35098D01*
X24650D01*
Y35048D01*
X24950Y35298D02*
X24900D01*
Y35348D01*
X24950D01*
Y35298D01*
X24750Y35748D02*
Y35598D01*
X24800Y35548D01*
X24900D01*
X24950Y35598D01*
Y35748D01*
Y35898D02*
Y35998D01*
X24900Y36048D01*
X24800D01*
X24750Y35998D01*
Y35898D01*
X24800Y35848D01*
X24900D01*
X24950Y35898D01*
Y36148D02*
X24750D01*
Y36198D01*
X24800Y36248D01*
X24950D01*
X24800D01*
X24750Y36298D01*
X24800Y36348D01*
X24950D01*
X24450Y29950D02*
X24150D01*
X24250Y30050D01*
X24150Y30150D01*
X24450D01*
X24250Y30450D02*
Y30300D01*
X24300Y30250D01*
X24400D01*
X24450Y30300D01*
Y30450D01*
X24200Y30750D02*
X24150Y30700D01*
Y30600D01*
X24200Y30550D01*
X24400D01*
X24450Y30600D01*
Y30700D01*
X24400Y30750D01*
X24300D01*
Y30650D01*
X24450Y30850D02*
Y30950D01*
Y30900D01*
X24250D01*
Y30850D01*
X24450Y31100D02*
Y31200D01*
Y31150D01*
X24150D01*
Y31100D01*
X24450Y31350D02*
Y31450D01*
Y31400D01*
X24150D01*
Y31350D01*
Y31899D02*
X24400D01*
X24450Y31949D01*
Y32049D01*
X24400Y32099D01*
X24150D01*
X24450Y32199D02*
X24250D01*
Y32349D01*
X24300Y32399D01*
X24450D01*
Y32499D02*
Y32599D01*
Y32549D01*
X24250D01*
Y32499D01*
X24450Y32749D02*
X24400D01*
Y32799D01*
X24450D01*
Y32749D01*
X24150Y33499D02*
Y33399D01*
Y33449D01*
X24400D01*
X24450Y33399D01*
Y33349D01*
X24400Y33299D01*
X24250Y33649D02*
Y33749D01*
X24300Y33799D01*
X24450D01*
Y33649D01*
X24400Y33599D01*
X24350Y33649D01*
Y33799D01*
X24450Y33899D02*
X24250D01*
Y34049D01*
X24300Y34099D01*
X24450D01*
Y34698D02*
Y34499D01*
X24250Y34698D01*
X24200D01*
X24150Y34648D01*
Y34549D01*
X24200Y34499D01*
Y34798D02*
X24150Y34848D01*
Y34948D01*
X24200Y34998D01*
X24400D01*
X24450Y34948D01*
Y34848D01*
X24400Y34798D01*
X24200D01*
X24450Y35098D02*
Y35198D01*
Y35148D01*
X24150D01*
X24200Y35098D01*
X24450Y35348D02*
Y35448D01*
Y35398D01*
X24150D01*
X24200Y35348D01*
X23650Y29550D02*
X23950D01*
X23850D01*
X23650Y29750D01*
X23800Y29600D01*
X23950Y29750D01*
Y30000D02*
Y29900D01*
X23900Y29850D01*
X23800D01*
X23750Y29900D01*
Y30000D01*
X23800Y30050D01*
X23850D01*
Y29850D01*
X23750Y30150D02*
X23950Y30250D01*
X23750Y30350D01*
X23950Y30450D02*
Y30550D01*
Y30500D01*
X23750D01*
Y30450D01*
X23950Y30700D02*
X23750D01*
Y30850D01*
X23800Y30900D01*
X23950D01*
Y31000D02*
Y31149D01*
X23900Y31199D01*
X23850Y31149D01*
Y31050D01*
X23800Y31000D01*
X23750Y31050D01*
Y31199D01*
X23950Y31599D02*
X23650D01*
Y31749D01*
X23700Y31799D01*
X23800D01*
X23850Y31749D01*
Y31599D01*
X23750Y31899D02*
X23900D01*
X23950Y31949D01*
Y32099D01*
X23750D01*
X23950Y32199D02*
X23750D01*
Y32249D01*
X23800Y32299D01*
X23950D01*
X23800D01*
X23750Y32349D01*
X23800Y32399D01*
X23950D01*
X24050Y32499D02*
X23750D01*
Y32649D01*
X23800Y32699D01*
X23900D01*
X23950Y32649D01*
Y32499D01*
X23700Y33299D02*
X23650Y33249D01*
Y33149D01*
X23700Y33099D01*
X23900D01*
X23950Y33149D01*
Y33249D01*
X23900Y33299D01*
X23700Y33449D02*
X23750D01*
Y33399D01*
Y33499D01*
Y33449D01*
X23900D01*
X23950Y33499D01*
X23750Y33649D02*
X23950D01*
X23850D01*
X23800Y33699D01*
X23750Y33749D01*
Y33799D01*
X23950Y33949D02*
Y34049D01*
Y33999D01*
X23650D01*
Y33949D01*
X23950Y34199D02*
X23900D01*
Y34248D01*
X23950D01*
Y34199D01*
X23650Y34748D02*
X23950D01*
Y34898D01*
X23900Y34948D01*
X23850D01*
X23800Y34898D01*
Y34748D01*
Y34898D01*
X23750Y34948D01*
X23700D01*
X23650Y34898D01*
Y34748D01*
X23950Y35098D02*
Y35198D01*
X23900Y35248D01*
X23800D01*
X23750Y35198D01*
Y35098D01*
X23800Y35048D01*
X23900D01*
X23950Y35098D01*
X23750Y35398D02*
Y35498D01*
X23800Y35548D01*
X23950D01*
Y35398D01*
X23900Y35348D01*
X23850Y35398D01*
Y35548D01*
X23750Y35648D02*
X23950D01*
X23850D01*
X23800Y35698D01*
X23750Y35748D01*
Y35798D01*
X23650Y36148D02*
X23950D01*
Y35998D01*
X23900Y35948D01*
X23800D01*
X23750Y35998D01*
Y36148D01*
X28650Y31750D02*
X28900D01*
X28950Y31800D01*
Y31900D01*
X28900Y31950D01*
X28650D01*
Y32250D02*
X28700Y32150D01*
X28800Y32050D01*
X28900D01*
X28950Y32100D01*
Y32200D01*
X28900Y32250D01*
X28850D01*
X28800Y32200D01*
Y32050D01*
X27850Y28450D02*
X28100D01*
X28150Y28500D01*
Y28600D01*
X28100Y28650D01*
X27850D01*
Y28950D02*
Y28750D01*
X28000D01*
X27950Y28850D01*
Y28900D01*
X28000Y28950D01*
X28100D01*
X28150Y28900D01*
Y28800D01*
X28100Y28750D01*
X41450Y28850D02*
X41700D01*
X41750Y28900D01*
Y29000D01*
X41700Y29050D01*
X41450D01*
X41750Y29300D02*
X41450D01*
X41600Y29150D01*
Y29350D01*
X36950Y33550D02*
Y33300D01*
X37000Y33250D01*
X37100D01*
X37150Y33300D01*
Y33550D01*
X37250Y33500D02*
X37300Y33550D01*
X37400D01*
X37450Y33500D01*
Y33450D01*
X37400Y33400D01*
X37350D01*
X37400D01*
X37450Y33350D01*
Y33300D01*
X37400Y33250D01*
X37300D01*
X37250Y33300D01*
X34750Y34950D02*
Y34700D01*
X34800Y34650D01*
X34900D01*
X34950Y34700D01*
Y34950D01*
X35250Y34650D02*
X35050D01*
X35250Y34850D01*
Y34900D01*
X35200Y34950D01*
X35100D01*
X35050Y34900D01*
X35250Y34450D02*
Y34200D01*
X35300Y34150D01*
X35400D01*
X35450Y34200D01*
Y34450D01*
X35550Y34150D02*
X35650D01*
X35600D01*
Y34450D01*
X35550Y34400D01*
X45450Y28750D02*
X45650D01*
X45550D01*
Y28450D01*
X45750D02*
Y28750D01*
X45900D01*
X45950Y28700D01*
Y28600D01*
X45900Y28550D01*
X45750D01*
X46050Y28450D02*
X46150D01*
X46100D01*
Y28750D01*
X46050Y28700D01*
X28950Y32650D02*
X28650D01*
Y32800D01*
X28700Y32850D01*
X28800D01*
X28850Y32800D01*
Y32650D01*
Y32750D02*
X28950Y32850D01*
Y32950D02*
Y33050D01*
Y33000D01*
X28650D01*
X28700Y32950D01*
X28650Y33400D02*
Y33200D01*
X28800D01*
X28750Y33300D01*
Y33350D01*
X28800Y33400D01*
X28900D01*
X28950Y33350D01*
Y33250D01*
X28900Y33200D01*
X41550Y29450D02*
X41250D01*
Y29600D01*
X41300Y29650D01*
X41400D01*
X41450Y29600D01*
Y29450D01*
Y29550D02*
X41550Y29650D01*
Y29750D02*
Y29850D01*
Y29800D01*
X41250D01*
X41300Y29750D01*
X41550Y30150D02*
X41250D01*
X41400Y30000D01*
Y30200D01*
X28150Y32650D02*
X27850D01*
Y32800D01*
X27900Y32850D01*
X28000D01*
X28050Y32800D01*
Y32650D01*
Y32750D02*
X28150Y32850D01*
Y32950D02*
Y33050D01*
Y33000D01*
X27850D01*
X27900Y32950D01*
Y33200D02*
X27850Y33250D01*
Y33350D01*
X27900Y33400D01*
X27950D01*
X28000Y33350D01*
Y33300D01*
Y33350D01*
X28050Y33400D01*
X28100D01*
X28150Y33350D01*
Y33250D01*
X28100Y33200D01*
X33050Y33150D02*
Y33450D01*
X33200D01*
X33250Y33400D01*
Y33300D01*
X33200Y33250D01*
X33050D01*
X33150D02*
X33250Y33150D01*
X33350D02*
X33450D01*
X33400D01*
Y33450D01*
X33350Y33400D01*
X33800Y33150D02*
X33600D01*
X33800Y33350D01*
Y33400D01*
X33750Y33450D01*
X33650D01*
X33600Y33400D01*
X44750Y29050D02*
Y29350D01*
X44900D01*
X44950Y29300D01*
Y29200D01*
X44900Y29150D01*
X44750D01*
X44850D02*
X44950Y29050D01*
X45050D02*
X45150D01*
X45100D01*
Y29350D01*
X45050Y29300D01*
X45300Y29050D02*
X45400D01*
X45350D01*
Y29350D01*
X45300Y29300D01*
X43150Y28450D02*
Y28750D01*
X43300D01*
X43350Y28700D01*
Y28600D01*
X43300Y28550D01*
X43150D01*
X43250D02*
X43350Y28450D01*
X43450D02*
X43550D01*
X43500D01*
Y28750D01*
X43450Y28700D01*
X43700D02*
X43750Y28750D01*
X43850D01*
X43900Y28700D01*
Y28500D01*
X43850Y28450D01*
X43750D01*
X43700Y28500D01*
Y28700D01*
X39350Y32350D02*
X39650D01*
Y32200D01*
X39600Y32150D01*
X39500D01*
X39450Y32200D01*
Y32350D01*
Y32250D02*
X39350Y32150D01*
X39400Y32050D02*
X39350Y32000D01*
Y31900D01*
X39400Y31850D01*
X39600D01*
X39650Y31900D01*
Y32000D01*
X39600Y32050D01*
X39550D01*
X39500Y32000D01*
Y31850D01*
X39350Y31650D02*
X39650D01*
Y31500D01*
X39600Y31450D01*
X39500D01*
X39450Y31500D01*
Y31650D01*
Y31550D02*
X39350Y31450D01*
X39600Y31350D02*
X39650Y31300D01*
Y31200D01*
X39600Y31150D01*
X39550D01*
X39500Y31200D01*
X39450Y31150D01*
X39400D01*
X39350Y31200D01*
Y31300D01*
X39400Y31350D01*
X39450D01*
X39500Y31300D01*
X39550Y31350D01*
X39600D01*
X39500Y31300D02*
Y31200D01*
X35725Y28255D02*
X35425D01*
Y28405D01*
X35475Y28455D01*
X35575D01*
X35625Y28405D01*
Y28255D01*
Y28355D02*
X35725Y28455D01*
X35425Y28555D02*
Y28755D01*
X35475D01*
X35675Y28555D01*
X35725D01*
X39350Y30850D02*
X39650D01*
Y30700D01*
X39600Y30650D01*
X39500D01*
X39450Y30700D01*
Y30850D01*
Y30750D02*
X39350Y30650D01*
X39650Y30350D02*
X39600Y30450D01*
X39500Y30550D01*
X39400D01*
X39350Y30500D01*
Y30400D01*
X39400Y30350D01*
X39450D01*
X39500Y30400D01*
Y30550D01*
X32650Y29750D02*
Y30050D01*
X32800D01*
X32850Y30000D01*
Y29900D01*
X32800Y29850D01*
X32650D01*
X32750D02*
X32850Y29750D01*
X33150Y30050D02*
X32950D01*
Y29900D01*
X33050Y29950D01*
X33100D01*
X33150Y29900D01*
Y29800D01*
X33100Y29750D01*
X33000D01*
X32950Y29800D01*
X41250Y31450D02*
Y31750D01*
X41400D01*
X41450Y31700D01*
Y31600D01*
X41400Y31550D01*
X41250D01*
X41350D02*
X41450Y31450D01*
X41700D02*
Y31750D01*
X41550Y31600D01*
X41750D01*
X39350Y33150D02*
X39650D01*
Y33000D01*
X39600Y32950D01*
X39500D01*
X39450Y33000D01*
Y33150D01*
Y33050D02*
X39350Y32950D01*
X39600Y32850D02*
X39650Y32800D01*
Y32700D01*
X39600Y32650D01*
X39550D01*
X39500Y32700D01*
Y32750D01*
Y32700D01*
X39450Y32650D01*
X39400D01*
X39350Y32700D01*
Y32800D01*
X39400Y32850D01*
X33550Y29750D02*
Y30050D01*
X33700D01*
X33750Y30000D01*
Y29900D01*
X33700Y29850D01*
X33550D01*
X33650D02*
X33750Y29750D01*
X34050D02*
X33850D01*
X34050Y29950D01*
Y30000D01*
X34000Y30050D01*
X33900D01*
X33850Y30000D01*
X44450Y32650D02*
X44350D01*
X44400D01*
Y32400D01*
X44350Y32350D01*
X44300D01*
X44250Y32400D01*
X44750Y32650D02*
X44650Y32600D01*
X44550Y32500D01*
Y32400D01*
X44600Y32350D01*
X44700D01*
X44750Y32400D01*
Y32450D01*
X44700Y32500D01*
X44550D01*
X27150Y33350D02*
Y33250D01*
Y33300D01*
X27400D01*
X27450Y33250D01*
Y33200D01*
X27400Y33150D01*
X27150Y33650D02*
Y33450D01*
X27300D01*
X27250Y33550D01*
Y33600D01*
X27300Y33650D01*
X27400D01*
X27450Y33600D01*
Y33500D01*
X27400Y33450D01*
X34750Y28850D02*
X34650D01*
X34700D01*
Y28600D01*
X34650Y28550D01*
X34600D01*
X34550Y28600D01*
X35000Y28550D02*
Y28850D01*
X34850Y28700D01*
X35050D01*
X45850Y29350D02*
X45750D01*
X45800D01*
Y29100D01*
X45750Y29050D01*
X45700D01*
X45650Y29100D01*
X45950Y29300D02*
X46000Y29350D01*
X46100D01*
X46150Y29300D01*
Y29250D01*
X46100Y29200D01*
X46050D01*
X46100D01*
X46150Y29150D01*
Y29100D01*
X46100Y29050D01*
X46000D01*
X45950Y29100D01*
X26050Y29150D02*
X25950D01*
X26000D01*
Y28900D01*
X25950Y28850D01*
X25900D01*
X25850Y28900D01*
X26350Y28850D02*
X26150D01*
X26350Y29050D01*
Y29100D01*
X26300Y29150D01*
X26200D01*
X26150Y29100D01*
X44950Y37450D02*
Y37550D01*
Y37500D01*
X44700D01*
X44650Y37550D01*
Y37600D01*
X44700Y37650D01*
X44650Y37350D02*
Y37250D01*
Y37300D01*
X44950D01*
X44900Y37350D01*
X40950Y33700D02*
X40900Y33750D01*
X40800D01*
X40750Y33700D01*
Y33500D01*
X40800Y33450D01*
X40900D01*
X40950Y33500D01*
X41050Y33700D02*
X41100Y33750D01*
X41200D01*
X41250Y33700D01*
Y33650D01*
X41200Y33600D01*
X41250Y33550D01*
Y33500D01*
X41200Y33450D01*
X41100D01*
X41050Y33500D01*
Y33550D01*
X41100Y33600D01*
X41050Y33650D01*
Y33700D01*
X41100Y33600D02*
X41200D01*
X34300Y33150D02*
X34250Y33100D01*
Y33000D01*
X34300Y32950D01*
X34500D01*
X34550Y33000D01*
Y33100D01*
X34500Y33150D01*
X34250Y33450D02*
X34300Y33350D01*
X34400Y33250D01*
X34500D01*
X34550Y33300D01*
Y33400D01*
X34500Y33450D01*
X34450D01*
X34400Y33400D01*
Y33250D01*
X39350Y28700D02*
X39300Y28750D01*
X39200D01*
X39150Y28700D01*
Y28500D01*
X39200Y28450D01*
X39300D01*
X39350Y28500D01*
X39450Y28450D02*
X39550D01*
X39500D01*
Y28750D01*
X39450Y28700D01*
X45300Y33050D02*
X45350Y33100D01*
Y33200D01*
X45300Y33250D01*
X45100D01*
X45050Y33200D01*
Y33100D01*
X45100Y33050D01*
X45300Y32900D02*
X45250D01*
Y32950D01*
Y32850D01*
Y32900D01*
X45100D01*
X45050Y32850D01*
X45250Y32700D02*
X45050D01*
X45150D01*
X45200Y32650D01*
X45250Y32600D01*
Y32550D01*
X45050Y32400D02*
Y32300D01*
Y32350D01*
X45350D01*
Y32400D01*
Y31850D02*
Y31651D01*
Y31750D01*
X45050D01*
X45250Y31501D02*
Y31401D01*
X45200Y31351D01*
X45050D01*
Y31501D01*
X45100Y31551D01*
X45150Y31501D01*
Y31351D01*
X45250Y31051D02*
Y31201D01*
X45200Y31251D01*
X45100D01*
X45050Y31201D01*
Y31051D01*
X45350Y30951D02*
X45050D01*
X45200D01*
X45250Y30901D01*
Y30801D01*
X45200Y30751D01*
X45050D01*
X45350Y30351D02*
X45050D01*
Y30201D01*
X45100Y30151D01*
X45300D01*
X45350Y30201D01*
Y30351D01*
X45050Y30051D02*
Y29951D01*
Y30001D01*
X45250D01*
Y30051D01*
Y29801D02*
X45050D01*
X45150D01*
X45200Y29751D01*
X45250Y29701D01*
Y29651D01*
X45350Y37550D02*
X45150D01*
X45050Y37450D01*
X45150Y37350D01*
X45350D01*
X45050Y37250D02*
X45250D01*
Y37200D01*
X45200Y37150D01*
X45050D01*
X45200D01*
X45250Y37100D01*
X45200Y37050D01*
X45050D01*
Y36900D02*
Y36800D01*
X45100Y36750D01*
X45200D01*
X45250Y36800D01*
Y36900D01*
X45200Y36950D01*
X45100D01*
X45050Y36900D01*
X45300Y36600D02*
X45250D01*
Y36650D01*
Y36550D01*
Y36600D01*
X45100D01*
X45050Y36550D01*
X45350Y36100D02*
X45050Y35901D01*
X45350D02*
X45050Y36100D01*
X45300Y35301D02*
X45350Y35351D01*
Y35451D01*
X45300Y35501D01*
X45100D01*
X45050Y35451D01*
Y35351D01*
X45100Y35301D01*
X45200D01*
Y35401D01*
X45050Y35201D02*
X45250D01*
Y35051D01*
X45200Y35001D01*
X45050D01*
X45350Y34701D02*
X45050D01*
Y34851D01*
X45100Y34901D01*
X45200D01*
X45250Y34851D01*
Y34701D01*
X45050Y34601D02*
X45350D01*
X45250Y34501D01*
X45350Y34401D01*
X45050D01*
Y34251D02*
Y34151D01*
X45100Y34101D01*
X45200D01*
X45250Y34151D01*
Y34251D01*
X45200Y34301D01*
X45100D01*
X45050Y34251D01*
X45300Y33951D02*
X45250D01*
Y34001D01*
Y33901D01*
Y33951D01*
X45100D01*
X45050Y33901D01*
X27200Y34050D02*
X27150Y34000D01*
Y33900D01*
X27200Y33850D01*
X27400D01*
X27450Y33900D01*
Y34000D01*
X27400Y34050D01*
X27300D01*
Y33950D01*
X27450Y34150D02*
X27250D01*
Y34300D01*
X27300Y34350D01*
X27450D01*
X27150Y34650D02*
X27450D01*
Y34500D01*
X27400Y34450D01*
X27300D01*
X27250Y34500D01*
Y34650D01*
X27150Y34750D02*
Y34850D01*
Y34800D01*
X27450D01*
Y34750D01*
Y34850D01*
Y35000D02*
Y35150D01*
X27400Y35200D01*
X27350Y35150D01*
Y35050D01*
X27300Y35000D01*
X27250Y35050D01*
Y35200D01*
X27450Y35350D02*
Y35449D01*
X27400Y35499D01*
X27300D01*
X27250Y35449D01*
Y35350D01*
X27300Y35300D01*
X27400D01*
X27450Y35350D01*
X27150Y35899D02*
Y36099D01*
Y35999D01*
X27450D01*
X27250Y36249D02*
Y36349D01*
X27300Y36399D01*
X27450D01*
Y36249D01*
X27400Y36199D01*
X27350Y36249D01*
Y36399D01*
X27250Y36699D02*
Y36549D01*
X27300Y36499D01*
X27400D01*
X27450Y36549D01*
Y36699D01*
X27150Y36799D02*
X27450D01*
X27300D01*
X27250Y36849D01*
Y36949D01*
X27300Y36999D01*
X27450D01*
X27150Y37399D02*
X27450Y37599D01*
X27150D02*
X27450Y37399D01*
X27150Y28850D02*
X27450D01*
Y29000D01*
X27400Y29050D01*
X27200D01*
X27150Y29000D01*
Y28850D01*
X27550Y29250D02*
Y29300D01*
X27500Y29350D01*
X27250D01*
Y29200D01*
X27300Y29150D01*
X27400D01*
X27450Y29200D01*
Y29350D01*
Y29450D02*
X27250D01*
Y29600D01*
X27300Y29650D01*
X27450D01*
X27150Y29950D02*
X27450D01*
Y29800D01*
X27400Y29750D01*
X27300D01*
X27250Y29800D01*
Y29950D01*
X27450Y30350D02*
X27150D01*
Y30499D01*
X27200Y30549D01*
X27300D01*
X27350Y30499D01*
Y30350D01*
X27150Y30649D02*
X27450D01*
X27350Y30749D01*
X27450Y30849D01*
X27150D01*
X27450Y30949D02*
X27150D01*
X27250Y31049D01*
X27150Y31149D01*
X27450D01*
X27150Y31749D02*
Y31549D01*
X27300D01*
X27250Y31649D01*
Y31699D01*
X27300Y31749D01*
X27400D01*
X27450Y31699D01*
Y31599D01*
X27400Y31549D01*
X27150Y31849D02*
X27350D01*
X27450Y31949D01*
X27350Y32049D01*
X27150D01*
Y32149D02*
X27450D01*
Y32299D01*
X27400Y32349D01*
X27200D01*
X27150Y32299D01*
Y32149D01*
X27450Y32449D02*
Y32549D01*
Y32499D01*
X27250D01*
Y32449D01*
X27550Y32799D02*
Y32849D01*
X27500Y32899D01*
X27250D01*
Y32749D01*
X27300Y32699D01*
X27400D01*
X27450Y32749D01*
Y32899D01*
X24750Y40300D02*
Y40400D01*
X24800Y40450D01*
X24950D01*
Y40300D01*
X24900Y40250D01*
X24850Y40300D01*
Y40450D01*
X24650Y40750D02*
X24950D01*
Y40600D01*
X24900Y40550D01*
X24800D01*
X24750Y40600D01*
Y40750D01*
Y40900D02*
Y41000D01*
X24800Y41050D01*
X24950D01*
Y40900D01*
X24900Y40850D01*
X24850Y40900D01*
Y41050D01*
X24950Y41150D02*
X24750D01*
Y41200D01*
X24800Y41250D01*
X24950D01*
X24800D01*
X24750Y41300D01*
X24800Y41350D01*
X24950D01*
X25050Y41450D02*
Y41500D01*
X25000Y41550D01*
X24750D01*
X24950Y41800D02*
Y41899D01*
X24900Y41949D01*
X24800D01*
X24750Y41899D01*
Y41800D01*
X24800Y41750D01*
X24900D01*
X24950Y41800D01*
X24650Y42049D02*
X24950D01*
X24800D01*
X24750Y42099D01*
Y42199D01*
X24800Y42249D01*
X24950D01*
Y42349D02*
X24750D01*
Y42499D01*
X24800Y42549D01*
X24950D01*
X25050Y42749D02*
Y42799D01*
X25000Y42849D01*
X24750D01*
Y42699D01*
X24800Y42649D01*
X24900D01*
X24950Y42699D01*
Y42849D01*
Y42949D02*
Y43049D01*
Y42999D01*
X24750D01*
Y42949D01*
X24950Y43199D02*
Y43299D01*
Y43249D01*
X24650D01*
Y43199D01*
Y43449D02*
X24950D01*
Y43599D01*
X24900Y43649D01*
X24850D01*
X24800D01*
X24750Y43599D01*
Y43449D01*
X24950Y43899D02*
Y43799D01*
X24900Y43749D01*
X24800D01*
X24750Y43799D01*
Y43899D01*
X24800Y43949D01*
X24850D01*
Y43749D01*
X24750Y44049D02*
X24950D01*
X24850D01*
X24800Y44099D01*
X24750Y44149D01*
Y44199D01*
X24700Y44399D02*
X24750D01*
Y44349D01*
Y44449D01*
Y44399D01*
X24900D01*
X24950Y44449D01*
X24850Y44749D02*
X24800D01*
Y44699D01*
X24850D01*
Y44749D01*
X24800Y44799D01*
X24700D01*
X24650Y44749D01*
Y44649D01*
X24700Y44599D01*
X24900D01*
X24950Y44649D01*
Y44799D01*
X25050Y44998D02*
Y45048D01*
X25000Y45098D01*
X24750D01*
Y44948D01*
X24800Y44899D01*
X24900D01*
X24950Y44948D01*
Y45098D01*
Y45198D02*
X24750D01*
Y45248D01*
X24800Y45298D01*
X24950D01*
X24800D01*
X24750Y45348D01*
X24800Y45398D01*
X24950D01*
X24750Y45548D02*
Y45648D01*
X24800Y45698D01*
X24950D01*
Y45548D01*
X24900Y45498D01*
X24850Y45548D01*
Y45698D01*
X24950Y45798D02*
Y45898D01*
Y45848D01*
X24750D01*
Y45798D01*
X24950Y46048D02*
Y46148D01*
Y46098D01*
X24650D01*
Y46048D01*
X24950Y46298D02*
X24900D01*
Y46348D01*
X24950D01*
Y46298D01*
X24750Y46748D02*
Y46598D01*
X24800Y46548D01*
X24900D01*
X24950Y46598D01*
Y46748D01*
Y46898D02*
Y46998D01*
X24900Y47048D01*
X24800D01*
X24750Y46998D01*
Y46898D01*
X24800Y46848D01*
X24900D01*
X24950Y46898D01*
Y47148D02*
X24750D01*
Y47198D01*
X24800Y47248D01*
X24950D01*
X24800D01*
X24750Y47298D01*
X24800Y47348D01*
X24950D01*
X24450Y40950D02*
X24150D01*
X24250Y41050D01*
X24150Y41150D01*
X24450D01*
X24250Y41450D02*
Y41300D01*
X24300Y41250D01*
X24400D01*
X24450Y41300D01*
Y41450D01*
X24200Y41750D02*
X24150Y41700D01*
Y41600D01*
X24200Y41550D01*
X24400D01*
X24450Y41600D01*
Y41700D01*
X24400Y41750D01*
X24300D01*
Y41650D01*
X24450Y41850D02*
Y41950D01*
Y41900D01*
X24250D01*
Y41850D01*
X24450Y42100D02*
Y42200D01*
Y42150D01*
X24150D01*
Y42100D01*
X24450Y42350D02*
Y42450D01*
Y42400D01*
X24150D01*
Y42350D01*
Y42899D02*
X24400D01*
X24450Y42949D01*
Y43049D01*
X24400Y43099D01*
X24150D01*
X24450Y43199D02*
X24250D01*
Y43349D01*
X24300Y43399D01*
X24450D01*
Y43499D02*
Y43599D01*
Y43549D01*
X24250D01*
Y43499D01*
X24450Y43749D02*
X24400D01*
Y43799D01*
X24450D01*
Y43749D01*
X24150Y44499D02*
Y44399D01*
Y44449D01*
X24400D01*
X24450Y44399D01*
Y44349D01*
X24400Y44299D01*
X24250Y44649D02*
Y44749D01*
X24300Y44799D01*
X24450D01*
Y44649D01*
X24400Y44599D01*
X24350Y44649D01*
Y44799D01*
X24450Y44899D02*
X24250D01*
Y45049D01*
X24300Y45099D01*
X24450D01*
Y45698D02*
Y45499D01*
X24250Y45698D01*
X24200D01*
X24150Y45648D01*
Y45549D01*
X24200Y45499D01*
Y45798D02*
X24150Y45848D01*
Y45948D01*
X24200Y45998D01*
X24400D01*
X24450Y45948D01*
Y45848D01*
X24400Y45798D01*
X24200D01*
X24450Y46098D02*
Y46198D01*
Y46148D01*
X24150D01*
X24200Y46098D01*
X24450Y46348D02*
Y46448D01*
Y46398D01*
X24150D01*
X24200Y46348D01*
X23650Y40550D02*
X23950D01*
X23850D01*
X23650Y40750D01*
X23800Y40600D01*
X23950Y40750D01*
Y41000D02*
Y40900D01*
X23900Y40850D01*
X23800D01*
X23750Y40900D01*
Y41000D01*
X23800Y41050D01*
X23850D01*
Y40850D01*
X23750Y41150D02*
X23950Y41250D01*
X23750Y41350D01*
X23950Y41450D02*
Y41550D01*
Y41500D01*
X23750D01*
Y41450D01*
X23950Y41700D02*
X23750D01*
Y41850D01*
X23800Y41900D01*
X23950D01*
Y42000D02*
Y42149D01*
X23900Y42199D01*
X23850Y42149D01*
Y42050D01*
X23800Y42000D01*
X23750Y42050D01*
Y42199D01*
X23950Y42599D02*
X23650D01*
Y42749D01*
X23700Y42799D01*
X23800D01*
X23850Y42749D01*
Y42599D01*
X23750Y42899D02*
X23900D01*
X23950Y42949D01*
Y43099D01*
X23750D01*
X23950Y43199D02*
X23750D01*
Y43249D01*
X23800Y43299D01*
X23950D01*
X23800D01*
X23750Y43349D01*
X23800Y43399D01*
X23950D01*
X24050Y43499D02*
X23750D01*
Y43649D01*
X23800Y43699D01*
X23900D01*
X23950Y43649D01*
Y43499D01*
X23700Y44299D02*
X23650Y44249D01*
Y44149D01*
X23700Y44099D01*
X23900D01*
X23950Y44149D01*
Y44249D01*
X23900Y44299D01*
X23700Y44449D02*
X23750D01*
Y44399D01*
Y44499D01*
Y44449D01*
X23900D01*
X23950Y44499D01*
X23750Y44649D02*
X23950D01*
X23850D01*
X23800Y44699D01*
X23750Y44749D01*
Y44799D01*
X23950Y44949D02*
Y45049D01*
Y44999D01*
X23650D01*
Y44949D01*
X23950Y45198D02*
X23900D01*
Y45248D01*
X23950D01*
Y45198D01*
X23650Y45748D02*
X23950D01*
Y45898D01*
X23900Y45948D01*
X23850D01*
X23800Y45898D01*
Y45748D01*
Y45898D01*
X23750Y45948D01*
X23700D01*
X23650Y45898D01*
Y45748D01*
X23950Y46098D02*
Y46198D01*
X23900Y46248D01*
X23800D01*
X23750Y46198D01*
Y46098D01*
X23800Y46048D01*
X23900D01*
X23950Y46098D01*
X23750Y46398D02*
Y46498D01*
X23800Y46548D01*
X23950D01*
Y46398D01*
X23900Y46348D01*
X23850Y46398D01*
Y46548D01*
X23750Y46648D02*
X23950D01*
X23850D01*
X23800Y46698D01*
X23750Y46748D01*
Y46798D01*
X23650Y47148D02*
X23950D01*
Y46998D01*
X23900Y46948D01*
X23800D01*
X23750Y46998D01*
Y47148D01*
X28650Y42750D02*
X28900D01*
X28950Y42800D01*
Y42900D01*
X28900Y42950D01*
X28650D01*
Y43250D02*
X28700Y43150D01*
X28800Y43050D01*
X28900D01*
X28950Y43100D01*
Y43200D01*
X28900Y43250D01*
X28850D01*
X28800Y43200D01*
Y43050D01*
X27850Y39450D02*
X28100D01*
X28150Y39500D01*
Y39600D01*
X28100Y39650D01*
X27850D01*
Y39950D02*
Y39750D01*
X28000D01*
X27950Y39850D01*
Y39900D01*
X28000Y39950D01*
X28100D01*
X28150Y39900D01*
Y39800D01*
X28100Y39750D01*
X41450Y39850D02*
X41700D01*
X41750Y39900D01*
Y40000D01*
X41700Y40050D01*
X41450D01*
X41750Y40300D02*
X41450D01*
X41600Y40150D01*
Y40350D01*
X36950Y44550D02*
Y44300D01*
X37000Y44250D01*
X37100D01*
X37150Y44300D01*
Y44550D01*
X37250Y44500D02*
X37300Y44550D01*
X37400D01*
X37450Y44500D01*
Y44450D01*
X37400Y44400D01*
X37350D01*
X37400D01*
X37450Y44350D01*
Y44300D01*
X37400Y44250D01*
X37300D01*
X37250Y44300D01*
X34750Y45950D02*
Y45700D01*
X34800Y45650D01*
X34900D01*
X34950Y45700D01*
Y45950D01*
X35250Y45650D02*
X35050D01*
X35250Y45850D01*
Y45900D01*
X35200Y45950D01*
X35100D01*
X35050Y45900D01*
X35250Y45450D02*
Y45200D01*
X35300Y45150D01*
X35400D01*
X35450Y45200D01*
Y45450D01*
X35550Y45150D02*
X35650D01*
X35600D01*
Y45450D01*
X35550Y45400D01*
X45450Y39750D02*
X45650D01*
X45550D01*
Y39450D01*
X45750D02*
Y39750D01*
X45900D01*
X45950Y39700D01*
Y39600D01*
X45900Y39550D01*
X45750D01*
X46050Y39450D02*
X46150D01*
X46100D01*
Y39750D01*
X46050Y39700D01*
X28950Y43650D02*
X28650D01*
Y43800D01*
X28700Y43850D01*
X28800D01*
X28850Y43800D01*
Y43650D01*
Y43750D02*
X28950Y43850D01*
Y43950D02*
Y44050D01*
Y44000D01*
X28650D01*
X28700Y43950D01*
X28650Y44400D02*
Y44200D01*
X28800D01*
X28750Y44300D01*
Y44350D01*
X28800Y44400D01*
X28900D01*
X28950Y44350D01*
Y44250D01*
X28900Y44200D01*
X41550Y40450D02*
X41250D01*
Y40600D01*
X41300Y40650D01*
X41400D01*
X41450Y40600D01*
Y40450D01*
Y40550D02*
X41550Y40650D01*
Y40750D02*
Y40850D01*
Y40800D01*
X41250D01*
X41300Y40750D01*
X41550Y41150D02*
X41250D01*
X41400Y41000D01*
Y41200D01*
X28150Y43650D02*
X27850D01*
Y43800D01*
X27900Y43850D01*
X28000D01*
X28050Y43800D01*
Y43650D01*
Y43750D02*
X28150Y43850D01*
Y43950D02*
Y44050D01*
Y44000D01*
X27850D01*
X27900Y43950D01*
Y44200D02*
X27850Y44250D01*
Y44350D01*
X27900Y44400D01*
X27950D01*
X28000Y44350D01*
Y44300D01*
Y44350D01*
X28050Y44400D01*
X28100D01*
X28150Y44350D01*
Y44250D01*
X28100Y44200D01*
X33050Y44150D02*
Y44450D01*
X33200D01*
X33250Y44400D01*
Y44300D01*
X33200Y44250D01*
X33050D01*
X33150D02*
X33250Y44150D01*
X33350D02*
X33450D01*
X33400D01*
Y44450D01*
X33350Y44400D01*
X33800Y44150D02*
X33600D01*
X33800Y44350D01*
Y44400D01*
X33750Y44450D01*
X33650D01*
X33600Y44400D01*
X44750Y40050D02*
Y40350D01*
X44900D01*
X44950Y40300D01*
Y40200D01*
X44900Y40150D01*
X44750D01*
X44850D02*
X44950Y40050D01*
X45050D02*
X45150D01*
X45100D01*
Y40350D01*
X45050Y40300D01*
X45300Y40050D02*
X45400D01*
X45350D01*
Y40350D01*
X45300Y40300D01*
X43150Y39450D02*
Y39750D01*
X43300D01*
X43350Y39700D01*
Y39600D01*
X43300Y39550D01*
X43150D01*
X43250D02*
X43350Y39450D01*
X43450D02*
X43550D01*
X43500D01*
Y39750D01*
X43450Y39700D01*
X43700D02*
X43750Y39750D01*
X43850D01*
X43900Y39700D01*
Y39500D01*
X43850Y39450D01*
X43750D01*
X43700Y39500D01*
Y39700D01*
X39350Y43350D02*
X39650D01*
Y43200D01*
X39600Y43150D01*
X39500D01*
X39450Y43200D01*
Y43350D01*
Y43250D02*
X39350Y43150D01*
X39400Y43050D02*
X39350Y43000D01*
Y42900D01*
X39400Y42850D01*
X39600D01*
X39650Y42900D01*
Y43000D01*
X39600Y43050D01*
X39550D01*
X39500Y43000D01*
Y42850D01*
X39350Y42650D02*
X39650D01*
Y42500D01*
X39600Y42450D01*
X39500D01*
X39450Y42500D01*
Y42650D01*
Y42550D02*
X39350Y42450D01*
X39600Y42350D02*
X39650Y42300D01*
Y42200D01*
X39600Y42150D01*
X39550D01*
X39500Y42200D01*
X39450Y42150D01*
X39400D01*
X39350Y42200D01*
Y42300D01*
X39400Y42350D01*
X39450D01*
X39500Y42300D01*
X39550Y42350D01*
X39600D01*
X39500Y42300D02*
Y42200D01*
X35725Y39255D02*
X35425D01*
Y39405D01*
X35475Y39455D01*
X35575D01*
X35625Y39405D01*
Y39255D01*
Y39355D02*
X35725Y39455D01*
X35425Y39555D02*
Y39755D01*
X35475D01*
X35675Y39555D01*
X35725D01*
X39350Y41850D02*
X39650D01*
Y41700D01*
X39600Y41650D01*
X39500D01*
X39450Y41700D01*
Y41850D01*
Y41750D02*
X39350Y41650D01*
X39650Y41350D02*
X39600Y41450D01*
X39500Y41550D01*
X39400D01*
X39350Y41500D01*
Y41400D01*
X39400Y41350D01*
X39450D01*
X39500Y41400D01*
Y41550D01*
X32650Y40750D02*
Y41050D01*
X32800D01*
X32850Y41000D01*
Y40900D01*
X32800Y40850D01*
X32650D01*
X32750D02*
X32850Y40750D01*
X33150Y41050D02*
X32950D01*
Y40900D01*
X33050Y40950D01*
X33100D01*
X33150Y40900D01*
Y40800D01*
X33100Y40750D01*
X33000D01*
X32950Y40800D01*
X41250Y42450D02*
Y42750D01*
X41400D01*
X41450Y42700D01*
Y42600D01*
X41400Y42550D01*
X41250D01*
X41350D02*
X41450Y42450D01*
X41700D02*
Y42750D01*
X41550Y42600D01*
X41750D01*
X39350Y44150D02*
X39650D01*
Y44000D01*
X39600Y43950D01*
X39500D01*
X39450Y44000D01*
Y44150D01*
Y44050D02*
X39350Y43950D01*
X39600Y43850D02*
X39650Y43800D01*
Y43700D01*
X39600Y43650D01*
X39550D01*
X39500Y43700D01*
Y43750D01*
Y43700D01*
X39450Y43650D01*
X39400D01*
X39350Y43700D01*
Y43800D01*
X39400Y43850D01*
X33550Y40750D02*
Y41050D01*
X33700D01*
X33750Y41000D01*
Y40900D01*
X33700Y40850D01*
X33550D01*
X33650D02*
X33750Y40750D01*
X34050D02*
X33850D01*
X34050Y40950D01*
Y41000D01*
X34000Y41050D01*
X33900D01*
X33850Y41000D01*
X44450Y43650D02*
X44350D01*
X44400D01*
Y43400D01*
X44350Y43350D01*
X44300D01*
X44250Y43400D01*
X44750Y43650D02*
X44650Y43600D01*
X44550Y43500D01*
Y43400D01*
X44600Y43350D01*
X44700D01*
X44750Y43400D01*
Y43450D01*
X44700Y43500D01*
X44550D01*
X27150Y44350D02*
Y44250D01*
Y44300D01*
X27400D01*
X27450Y44250D01*
Y44200D01*
X27400Y44150D01*
X27150Y44650D02*
Y44450D01*
X27300D01*
X27250Y44550D01*
Y44600D01*
X27300Y44650D01*
X27400D01*
X27450Y44600D01*
Y44500D01*
X27400Y44450D01*
X34750Y39850D02*
X34650D01*
X34700D01*
Y39600D01*
X34650Y39550D01*
X34600D01*
X34550Y39600D01*
X35000Y39550D02*
Y39850D01*
X34850Y39700D01*
X35050D01*
X45850Y40350D02*
X45750D01*
X45800D01*
Y40100D01*
X45750Y40050D01*
X45700D01*
X45650Y40100D01*
X45950Y40300D02*
X46000Y40350D01*
X46100D01*
X46150Y40300D01*
Y40250D01*
X46100Y40200D01*
X46050D01*
X46100D01*
X46150Y40150D01*
Y40100D01*
X46100Y40050D01*
X46000D01*
X45950Y40100D01*
X26050Y40150D02*
X25950D01*
X26000D01*
Y39900D01*
X25950Y39850D01*
X25900D01*
X25850Y39900D01*
X26350Y39850D02*
X26150D01*
X26350Y40050D01*
Y40100D01*
X26300Y40150D01*
X26200D01*
X26150Y40100D01*
X44950Y48450D02*
Y48550D01*
Y48500D01*
X44700D01*
X44650Y48550D01*
Y48600D01*
X44700Y48650D01*
X44650Y48350D02*
Y48250D01*
Y48300D01*
X44950D01*
X44900Y48350D01*
X40950Y44700D02*
X40900Y44750D01*
X40800D01*
X40750Y44700D01*
Y44500D01*
X40800Y44450D01*
X40900D01*
X40950Y44500D01*
X41050Y44700D02*
X41100Y44750D01*
X41200D01*
X41250Y44700D01*
Y44650D01*
X41200Y44600D01*
X41250Y44550D01*
Y44500D01*
X41200Y44450D01*
X41100D01*
X41050Y44500D01*
Y44550D01*
X41100Y44600D01*
X41050Y44650D01*
Y44700D01*
X41100Y44600D02*
X41200D01*
X34300Y44150D02*
X34250Y44100D01*
Y44000D01*
X34300Y43950D01*
X34500D01*
X34550Y44000D01*
Y44100D01*
X34500Y44150D01*
X34250Y44450D02*
X34300Y44350D01*
X34400Y44250D01*
X34500D01*
X34550Y44300D01*
Y44400D01*
X34500Y44450D01*
X34450D01*
X34400Y44400D01*
Y44250D01*
X39350Y39700D02*
X39300Y39750D01*
X39200D01*
X39150Y39700D01*
Y39500D01*
X39200Y39450D01*
X39300D01*
X39350Y39500D01*
X39450Y39450D02*
X39550D01*
X39500D01*
Y39750D01*
X39450Y39700D01*
X45300Y44050D02*
X45350Y44100D01*
Y44200D01*
X45300Y44250D01*
X45100D01*
X45050Y44200D01*
Y44100D01*
X45100Y44050D01*
X45300Y43900D02*
X45250D01*
Y43950D01*
Y43850D01*
Y43900D01*
X45100D01*
X45050Y43850D01*
X45250Y43700D02*
X45050D01*
X45150D01*
X45200Y43650D01*
X45250Y43600D01*
Y43550D01*
X45050Y43400D02*
Y43300D01*
Y43350D01*
X45350D01*
Y43400D01*
Y42850D02*
Y42651D01*
Y42750D01*
X45050D01*
X45250Y42501D02*
Y42401D01*
X45200Y42351D01*
X45050D01*
Y42501D01*
X45100Y42551D01*
X45150Y42501D01*
Y42351D01*
X45250Y42051D02*
Y42201D01*
X45200Y42251D01*
X45100D01*
X45050Y42201D01*
Y42051D01*
X45350Y41951D02*
X45050D01*
X45200D01*
X45250Y41901D01*
Y41801D01*
X45200Y41751D01*
X45050D01*
X45350Y41351D02*
X45050D01*
Y41201D01*
X45100Y41151D01*
X45300D01*
X45350Y41201D01*
Y41351D01*
X45050Y41051D02*
Y40951D01*
Y41001D01*
X45250D01*
Y41051D01*
Y40801D02*
X45050D01*
X45150D01*
X45200Y40751D01*
X45250Y40701D01*
Y40651D01*
X45350Y48550D02*
X45150D01*
X45050Y48450D01*
X45150Y48350D01*
X45350D01*
X45050Y48250D02*
X45250D01*
Y48200D01*
X45200Y48150D01*
X45050D01*
X45200D01*
X45250Y48100D01*
X45200Y48050D01*
X45050D01*
Y47900D02*
Y47800D01*
X45100Y47750D01*
X45200D01*
X45250Y47800D01*
Y47900D01*
X45200Y47950D01*
X45100D01*
X45050Y47900D01*
X45300Y47600D02*
X45250D01*
Y47650D01*
Y47550D01*
Y47600D01*
X45100D01*
X45050Y47550D01*
X45350Y47100D02*
X45050Y46901D01*
X45350D02*
X45050Y47100D01*
X45300Y46301D02*
X45350Y46351D01*
Y46451D01*
X45300Y46501D01*
X45100D01*
X45050Y46451D01*
Y46351D01*
X45100Y46301D01*
X45200D01*
Y46401D01*
X45050Y46201D02*
X45250D01*
Y46051D01*
X45200Y46001D01*
X45050D01*
X45350Y45701D02*
X45050D01*
Y45851D01*
X45100Y45901D01*
X45200D01*
X45250Y45851D01*
Y45701D01*
X45050Y45601D02*
X45350D01*
X45250Y45501D01*
X45350Y45401D01*
X45050D01*
Y45251D02*
Y45151D01*
X45100Y45101D01*
X45200D01*
X45250Y45151D01*
Y45251D01*
X45200Y45301D01*
X45100D01*
X45050Y45251D01*
X45300Y44951D02*
X45250D01*
Y45001D01*
Y44901D01*
Y44951D01*
X45100D01*
X45050Y44901D01*
X27200Y45050D02*
X27150Y45000D01*
Y44900D01*
X27200Y44850D01*
X27400D01*
X27450Y44900D01*
Y45000D01*
X27400Y45050D01*
X27300D01*
Y44950D01*
X27450Y45150D02*
X27250D01*
Y45300D01*
X27300Y45350D01*
X27450D01*
X27150Y45650D02*
X27450D01*
Y45500D01*
X27400Y45450D01*
X27300D01*
X27250Y45500D01*
Y45650D01*
X27150Y45750D02*
Y45850D01*
Y45800D01*
X27450D01*
Y45750D01*
Y45850D01*
Y46000D02*
Y46150D01*
X27400Y46200D01*
X27350Y46150D01*
Y46050D01*
X27300Y46000D01*
X27250Y46050D01*
Y46200D01*
X27450Y46350D02*
Y46449D01*
X27400Y46499D01*
X27300D01*
X27250Y46449D01*
Y46350D01*
X27300Y46300D01*
X27400D01*
X27450Y46350D01*
X27150Y46899D02*
Y47099D01*
Y46999D01*
X27450D01*
X27250Y47249D02*
Y47349D01*
X27300Y47399D01*
X27450D01*
Y47249D01*
X27400Y47199D01*
X27350Y47249D01*
Y47399D01*
X27250Y47699D02*
Y47549D01*
X27300Y47499D01*
X27400D01*
X27450Y47549D01*
Y47699D01*
X27150Y47799D02*
X27450D01*
X27300D01*
X27250Y47849D01*
Y47949D01*
X27300Y47999D01*
X27450D01*
X27150Y48399D02*
X27450Y48599D01*
X27150D02*
X27450Y48399D01*
X27150Y39850D02*
X27450D01*
Y40000D01*
X27400Y40050D01*
X27200D01*
X27150Y40000D01*
Y39850D01*
X27550Y40250D02*
Y40300D01*
X27500Y40350D01*
X27250D01*
Y40200D01*
X27300Y40150D01*
X27400D01*
X27450Y40200D01*
Y40350D01*
Y40450D02*
X27250D01*
Y40600D01*
X27300Y40650D01*
X27450D01*
X27150Y40950D02*
X27450D01*
Y40800D01*
X27400Y40750D01*
X27300D01*
X27250Y40800D01*
Y40950D01*
X27450Y41350D02*
X27150D01*
Y41499D01*
X27200Y41549D01*
X27300D01*
X27350Y41499D01*
Y41350D01*
X27150Y41649D02*
X27450D01*
X27350Y41749D01*
X27450Y41849D01*
X27150D01*
X27450Y41949D02*
X27150D01*
X27250Y42049D01*
X27150Y42149D01*
X27450D01*
X27150Y42749D02*
Y42549D01*
X27300D01*
X27250Y42649D01*
Y42699D01*
X27300Y42749D01*
X27400D01*
X27450Y42699D01*
Y42599D01*
X27400Y42549D01*
X27150Y42849D02*
X27350D01*
X27450Y42949D01*
X27350Y43049D01*
X27150D01*
Y43149D02*
X27450D01*
Y43299D01*
X27400Y43349D01*
X27200D01*
X27150Y43299D01*
Y43149D01*
X27450Y43449D02*
Y43549D01*
Y43499D01*
X27250D01*
Y43449D01*
X27550Y43799D02*
Y43849D01*
X27500Y43899D01*
X27250D01*
Y43749D01*
X27300Y43699D01*
X27400D01*
X27450Y43749D01*
Y43899D01*
M02*
