M48
;Layer_Color=9474304
;FILE_FORMAT=2:4
INCH,LZ
;TYPE=PLATED
T1F00S00C0.0280
T2F00S00C0.0315
T3F00S00C0.0350
T4F00S00C0.1250
%
T01
X03225Y01785
X03405Y02135
X03375Y02285
X03905Y02105
X04145Y02005
X04105Y01795
X03995Y01805
X03765Y01775
X04265Y01745
X04315Y02105
X04395
X04455Y02005
X04265Y02845
X04105Y02895
X03995Y02905
X03765Y02875
X03225Y02885
X04145Y03105
X04455
X027805Y030795
X02795Y02085
X027805Y019795
X02795Y03185
X027805Y041795
X02795Y04285
X03405Y04335
X03375Y04485
X03225Y03985
X03765Y03975
X03995Y04005
X04105Y03995
X04265Y03945
X04145Y04205
X04315Y04305
X04395
X04455Y04205
X03905Y04305
Y03205
X04315
X04395
X03405Y03235
X03375Y03385
T02
X03155Y02465
X03355
X03455
X03655Y02425
X03755
X03855
X03955
X04155
X04255
X04355
X02955Y02465
Y03565
Y04665
X03155
X03355
X03455
X03655Y04625
X03755
X03855
X03955
X04155
X04255
X04355
Y03525
X04255
X04155
X03955
X03855
X03755
X03655
X03455Y03565
X03355
X03155
T03
X03475Y01845
Y01945
Y02045
Y02945
Y03045
X04615
X04675Y02875
X04615Y02565
Y02465
Y02365
Y02145
Y02045
Y01945
X04675Y01775
X04445Y02225
X04345
X02585Y02125
Y02025
Y01925
Y02365
Y02465
Y02565
Y03025
Y03125
Y03225
Y03465
Y03565
Y03665
Y04125
Y04225
Y04325
Y04565
Y04665
X03475Y04245
Y04145
Y04045
Y03145
X04345Y03325
X04445
X04615Y03245
Y03145
Y03465
Y03565
Y03665
X04675Y03975
X04615Y04145
Y04245
Y04345
Y04565
Y04665
X04445Y04425
X04345
X04615Y04765
X02585
T04
X04825Y01775
Y02595
Y02875
X02425
Y02595
Y01775
Y03695
Y03975
X04825
Y03695
Y04795
X02425
M30
