%FSLAX24Y24*%
%MOIN*%
G70*
G01*
G75*
G04 Layer_Color=65535*
%ADD10R,0.0140X0.0400*%
%ADD11R,0.0450X0.0600*%
%ADD12R,0.0320X0.0360*%
%ADD13R,0.0394X0.1063*%
%ADD14R,0.0394X0.1063*%
%ADD15R,0.1004X0.1063*%
%ADD16R,0.0360X0.0320*%
%ADD17R,0.0260X0.0800*%
%ADD18O,0.0138X0.0669*%
%ADD19R,0.1063X0.1102*%
%ADD20C,0.1000*%
%ADD21C,0.0500*%
%ADD22C,0.0200*%
%ADD23C,0.0100*%
%ADD24C,0.0750*%
%ADD25R,0.0260X0.0500*%
%ADD26R,0.1063X0.0866*%
%ADD27C,0.0600*%
%ADD28R,0.0394X0.0394*%
%ADD29R,0.1028X0.0339*%
%ADD30R,0.0650X0.0701*%
%ADD31R,0.1402X0.1799*%
%ADD32R,0.0598X0.0598*%
%ADD33R,0.0385X0.0520*%
%ADD34R,0.0520X0.0385*%
%ADD35R,0.0846X0.0532*%
%ADD36R,0.0532X0.0846*%
%ADD37R,0.0400X0.0140*%
%ADD38R,0.0700X0.0700*%
%ADD39C,0.0700*%
%ADD40C,0.0200*%
%ADD41C,0.0280*%
%ADD42C,0.0500*%
%ADD43C,0.0260*%
%ADD44C,0.1000*%
%ADD45C,0.1100*%
%ADD46C,0.0600*%
%ADD47C,0.0591*%
%ADD48R,0.0591X0.0591*%
%ADD49C,0.0252*%
%ADD50C,0.1024*%
%ADD51R,0.0800X0.0260*%
%ADD52C,0.0400*%
%ADD53C,0.0250*%
%ADD54C,0.0079*%
%ADD55C,0.0098*%
%ADD56C,0.0060*%
%ADD57C,0.0080*%
%ADD58C,0.0050*%
%ADD59R,0.4000X0.0500*%
D23*
X29870Y12870D02*
Y39730D01*
X17390Y12870D02*
Y39740D01*
X23580Y12890D02*
Y39710D01*
X29052Y23542D02*
X29032Y23522D01*
X26256D02*
X29032D01*
X29052Y24309D02*
Y23542D01*
Y26278D02*
Y25471D01*
X26256Y26278D02*
Y25491D01*
Y24309D02*
Y23522D01*
Y26278D02*
X29032D01*
X43200Y10250D02*
X42200D01*
X44400Y16550D02*
X41000D01*
X44400Y10250D02*
Y16550D01*
Y10250D02*
X43200D01*
X42200D02*
X41000D01*
Y16550D01*
X38625Y22360D02*
X36775D01*
Y15667D02*
Y22360D01*
X38625Y15667D02*
Y22360D01*
Y15667D02*
X36775D01*
X44400Y36200D02*
Y42500D01*
X43200D01*
X42200D02*
X41000D01*
Y36200D02*
Y42500D01*
X44400Y36200D02*
X41000D01*
X43200Y42500D02*
X42200D01*
X35242Y23542D02*
X35222Y23522D01*
X32446D02*
X35222D01*
X35242Y24309D02*
Y23542D01*
Y26278D02*
Y25471D01*
X32446Y26278D02*
Y25491D01*
Y24309D02*
Y23522D01*
Y26278D02*
X35222D01*
D54*
X18737Y26061D02*
G03*
X18737Y26061I0J50D01*
G01*
X22350Y27370D02*
G03*
X22350Y27370I0J79D01*
G01*
X22250Y26795D02*
G03*
X22250Y25995I0J-400D01*
G01*
X18280Y25780D02*
X18780Y25280D01*
X17530Y25780D02*
X18780D01*
Y24630D01*
X17530Y25780D02*
Y24630D01*
X18780D01*
X18480Y21580D02*
Y20380D01*
X21230Y19980D02*
X22480D01*
X18480Y20380D02*
X18880Y19980D01*
X19730D01*
X22480Y21980D02*
Y19980D01*
X21230Y21980D02*
X22480D01*
X18880D02*
X18480Y21580D01*
X18880Y21980D02*
X19730D01*
X18480Y23720D02*
Y22520D01*
X21230Y22120D02*
X22480D01*
X18480Y22520D02*
X18880Y22120D01*
X19730D01*
X22480Y24120D02*
Y22120D01*
X21230Y24120D02*
X22480D01*
X18880D02*
X18480Y23720D01*
X18880Y24120D02*
X19730D01*
X18910Y36500D02*
Y35300D01*
X21660Y34900D02*
X22910D01*
X18910Y35300D02*
X19310Y34900D01*
X20160D01*
X22910Y36900D02*
Y34900D01*
X21660Y36900D02*
X22910D01*
X19310D02*
X18910Y36500D01*
X19310Y36900D02*
X20160D01*
X20150Y27945D02*
X22250D01*
X20150D02*
Y24845D01*
X22250D01*
Y27945D02*
Y26795D01*
Y25995D02*
Y24845D01*
X21404Y32150D02*
Y30890D01*
X19396Y32150D02*
Y30890D01*
X27620Y34431D02*
G03*
X27620Y34431I0J79D01*
G01*
X27470Y34120D02*
X27470Y33900D01*
X27570Y34120D02*
X27570Y33900D01*
X27630Y34120D02*
X27630Y33900D01*
X27410Y33900D02*
X27630Y33900D01*
X27410Y34120D02*
X27410Y33900D01*
X27410Y34120D02*
X27630Y34120D01*
X27520Y34510D02*
X27520Y33510D01*
X26220Y34510D02*
X26220Y33510D01*
X25716Y30440D02*
Y29180D01*
X27724Y30440D02*
Y29180D01*
X25670Y37060D02*
X26520D01*
X25670D02*
X25270Y36660D01*
X28020Y37060D02*
X29270D01*
Y35060D01*
X25670D02*
X26520D01*
X25270Y35460D02*
X25670Y35060D01*
X28020D02*
X29270D01*
X25270Y36660D02*
Y35460D01*
X27920Y21360D02*
X28770D01*
X29170Y21760D02*
X28770Y21360D01*
X25170D02*
X26420D01*
X25170Y23360D02*
Y21360D01*
X27920Y23360D02*
X28770D01*
X29170Y22960D01*
X25170Y23360D02*
X26420D01*
X29170Y22960D02*
Y21760D01*
X27920Y19160D02*
X28770D01*
X29170Y19560D02*
X28770Y19160D01*
X25170D02*
X26420D01*
X25170Y21160D02*
Y19160D01*
X27920Y21160D02*
X28770D01*
X29170Y20760D01*
X25170Y21160D02*
X26420D01*
X29170Y20760D02*
Y19560D01*
X37643Y28419D02*
G03*
X37643Y28419I0J-50D01*
G01*
X39431Y35343D02*
G03*
X39431Y35343I0J-50D01*
G01*
X39149Y17554D02*
X39424Y17830D01*
X39149Y15432D02*
Y17554D01*
X40251Y15432D02*
Y17554D01*
X39972Y17833D02*
X39424D01*
X40251Y17554D02*
X39976Y17830D01*
X40251Y15432D02*
X39149D01*
X39446Y25299D02*
X39170Y25574D01*
X41568Y25299D02*
X39446D01*
X41568Y26401D02*
X39446D01*
X39167Y25574D02*
Y26122D01*
X39170Y26126D02*
X39446Y26401D01*
X41568Y25299D02*
Y26401D01*
X39546Y32949D02*
X39270Y33224D01*
X41668Y32949D02*
X39546D01*
X41668Y34051D02*
X39546D01*
X39267Y33224D02*
Y33772D01*
X39270Y33776D02*
X39546Y34051D01*
X41668Y32949D02*
Y34051D01*
X38850Y29850D02*
X37600D01*
X38850Y28700D02*
Y29850D01*
X37600Y28700D02*
Y29850D01*
X38850Y28700D02*
X37600D01*
X38100D02*
X37600Y29200D01*
X37950Y35250D02*
Y36500D01*
X39100D02*
X37950D01*
X39100Y35250D02*
X37950D01*
X39100D02*
Y36500D01*
X38600Y35250D02*
X39100Y35750D01*
X40650Y39190D02*
X36650D01*
Y37320D02*
Y39190D01*
X40650Y37320D02*
X36650D01*
X40650D02*
Y39190D01*
X33810Y34431D02*
G03*
X33810Y34431I0J79D01*
G01*
X33660Y34120D02*
X33660Y33900D01*
X33760Y34120D02*
X33760Y33900D01*
X33820Y34120D02*
X33820Y33900D01*
X33600Y33900D02*
X33820Y33900D01*
X33600Y34120D02*
X33600Y33900D01*
X33600Y34120D02*
X33820Y34120D01*
X33710Y34510D02*
X33710Y33510D01*
X32410Y34510D02*
X32410Y33510D01*
X31906Y30440D02*
Y29180D01*
X33914Y30440D02*
Y29180D01*
X31860Y37060D02*
X32710D01*
X31860D02*
X31460Y36660D01*
X34210Y37060D02*
X35460D01*
Y35060D01*
X31860D02*
X32710D01*
X31460Y35460D02*
X31860Y35060D01*
X34210D02*
X35460D01*
X31460Y36660D02*
Y35460D01*
X34110Y21360D02*
X34960D01*
X35360Y21760D02*
X34960Y21360D01*
X31360D02*
X32610D01*
X31360Y23360D02*
Y21360D01*
X34110Y23360D02*
X34960D01*
X35360Y22960D01*
X31360Y23360D02*
X32610D01*
X35360Y22960D02*
Y21760D01*
X34110Y19160D02*
X34960D01*
X35360Y19560D02*
X34960Y19160D01*
X31360D02*
X32610D01*
X31360Y21160D02*
Y19160D01*
X34110Y21160D02*
X34960D01*
X35360Y20760D01*
X31360Y21160D02*
X32610D01*
X35360Y20760D02*
Y19560D01*
X12687Y26061D02*
G03*
X12687Y26061I0J50D01*
G01*
X16300Y27370D02*
G03*
X16300Y27370I0J79D01*
G01*
X16200Y26795D02*
G03*
X16200Y25995I0J-400D01*
G01*
X12230Y25780D02*
X12730Y25280D01*
X11480Y25780D02*
X12730D01*
Y24630D01*
X11480Y25780D02*
Y24630D01*
X12730D01*
X12430Y21580D02*
Y20380D01*
X15180Y19980D02*
X16430D01*
X12430Y20380D02*
X12830Y19980D01*
X13680D01*
X16430Y21980D02*
Y19980D01*
X15180Y21980D02*
X16430D01*
X12830D02*
X12430Y21580D01*
X12830Y21980D02*
X13680D01*
X12430Y23720D02*
Y22520D01*
X15180Y22120D02*
X16430D01*
X12430Y22520D02*
X12830Y22120D01*
X13680D01*
X16430Y24120D02*
Y22120D01*
X15180Y24120D02*
X16430D01*
X12830D02*
X12430Y23720D01*
X12830Y24120D02*
X13680D01*
X12860Y36500D02*
Y35300D01*
X15610Y34900D02*
X16860D01*
X12860Y35300D02*
X13260Y34900D01*
X14110D01*
X16860Y36900D02*
Y34900D01*
X15610Y36900D02*
X16860D01*
X13260D02*
X12860Y36500D01*
X13260Y36900D02*
X14110D01*
X14100Y27945D02*
X16200D01*
X14100D02*
Y24845D01*
X16200D01*
Y27945D02*
Y26795D01*
Y25995D02*
Y24845D01*
X15354Y32150D02*
Y30890D01*
X13346Y32150D02*
Y30890D01*
D55*
X21581Y32593D02*
G03*
X21581Y32593I0J49D01*
G01*
X27901Y30883D02*
G03*
X27901Y30883I0J49D01*
G01*
X34091D02*
G03*
X34091Y30883I0J49D01*
G01*
X15531Y32593D02*
G03*
X15531Y32593I0J49D01*
G01*
D56*
X18320Y16270D02*
X22320D01*
X18320Y18270D02*
Y15770D01*
Y18270D02*
X22320D01*
X18320Y15770D02*
X22320D01*
Y18270D02*
Y15770D01*
X18410Y39020D02*
X22410D01*
Y39520D02*
Y37020D01*
X18410D02*
X22410D01*
X18410Y39520D02*
X22410D01*
X18410D02*
Y37020D01*
X24670Y14710D02*
X28670D01*
X24670Y16710D02*
Y14210D01*
Y16710D02*
X28670D01*
X24670Y14210D02*
X28670D01*
Y16710D02*
Y14210D01*
X24730Y39150D02*
X28730D01*
Y39650D02*
Y37150D01*
X24730D02*
X28730D01*
X24730Y39650D02*
X28730D01*
X24730D02*
Y37150D01*
X30860Y14710D02*
X34860D01*
X30860Y16710D02*
Y14210D01*
Y16710D02*
X34860D01*
X30860Y14210D02*
X34860D01*
Y16710D02*
Y14210D01*
X30920Y39150D02*
X34920D01*
Y39650D02*
Y37150D01*
X30920D02*
X34920D01*
X30920Y39650D02*
X34920D01*
X30920D02*
Y37150D01*
X12270Y16270D02*
X16270D01*
X12270Y18270D02*
Y15770D01*
Y18270D02*
X16270D01*
X12270Y15770D02*
X16270D01*
Y18270D02*
Y15770D01*
X12360Y39020D02*
X16360D01*
Y39520D02*
Y37020D01*
X12360D02*
X16360D01*
X12360Y39520D02*
X16360D01*
X12360D02*
Y37020D01*
D57*
X18646Y18558D02*
X20457D01*
X18646Y19582D02*
X20457D01*
X18646D02*
Y18558D01*
X20457Y19582D02*
Y18558D01*
X18590Y31380D02*
X19190D01*
Y30120D01*
X18590Y31380D02*
Y30120D01*
X19190D01*
X18590Y32780D02*
X19190D01*
Y31520D01*
X18590Y32780D02*
Y31520D01*
X19190D01*
X20665Y18391D02*
X22476D01*
X20665Y19809D02*
X22476D01*
X20665D02*
Y18391D01*
X22476Y19809D02*
Y18391D01*
X18640Y33120D02*
X19240D01*
X18640Y34380D02*
Y33120D01*
X19240Y34380D02*
Y33120D01*
X18640Y34380D02*
X19240D01*
X19340D02*
X19940D01*
Y33120D01*
X19340Y34380D02*
Y33120D01*
X19940D01*
X20120Y34730D02*
X20720D01*
Y33470D01*
X20120Y34730D02*
Y33470D01*
X20720D01*
X19490Y29330D02*
X20090D01*
Y28070D01*
X19490Y29330D02*
Y28070D01*
X20090D01*
X20190Y29330D02*
X20790D01*
Y28070D01*
X20190Y29330D02*
Y28070D01*
X20790D01*
X20940Y33170D02*
X21540D01*
X20940Y34430D02*
Y33170D01*
X21540Y34430D02*
Y33170D01*
X20940Y34430D02*
X21540D01*
X21640D02*
X22240D01*
Y33170D01*
X21640Y34430D02*
Y33170D01*
X22240D01*
X21590Y31020D02*
X22190D01*
X21590Y32280D02*
Y31020D01*
X22190Y32280D02*
Y31020D01*
X21590Y32280D02*
X22190D01*
X21390Y29730D02*
X21990D01*
Y28470D01*
X21390Y29730D02*
Y28470D01*
X21990D01*
X18890Y27140D02*
Y26540D01*
X17630D02*
X18890D01*
X17630Y27140D02*
X18890D01*
X17630D02*
Y26540D01*
X27840Y34210D02*
Y33610D01*
Y34210D02*
X29100D01*
X27840Y33610D02*
X29100D01*
Y34210D02*
Y33610D01*
Y33510D02*
Y32910D01*
X27840D02*
X29100D01*
X27840Y33510D02*
X29100D01*
X27840D02*
Y32910D01*
X24790Y34310D02*
Y33710D01*
Y34310D02*
X26050D01*
X24790Y33710D02*
X26050D01*
Y34310D02*
Y33710D01*
X27840Y34910D02*
Y34310D01*
Y34910D02*
X29100D01*
X27840Y34310D02*
X29100D01*
Y34910D02*
Y34310D01*
X27720Y26830D02*
X28320D01*
X27720Y28090D02*
Y26830D01*
X28320Y28090D02*
Y26830D01*
X27720Y28090D02*
X28320D01*
X27920Y30640D02*
X28520D01*
Y29380D01*
X27920Y30640D02*
Y29380D01*
X28520D01*
X27970Y31530D02*
X28570D01*
X27970Y32790D02*
Y31530D01*
X28570Y32790D02*
Y31530D01*
X27970Y32790D02*
X28570D01*
X27270D02*
X27870D01*
Y31530D01*
X27270Y32790D02*
Y31530D01*
X27870D01*
X26520Y26430D02*
X27120D01*
X26520Y27690D02*
Y26430D01*
X27120Y27690D02*
Y26430D01*
X26520Y27690D02*
X27120D01*
X25820Y26430D02*
X26420D01*
X25820Y27690D02*
Y26430D01*
X26420Y27690D02*
Y26430D01*
X25820Y27690D02*
X26420D01*
X25420Y23530D02*
X26020D01*
X25420Y24790D02*
Y23530D01*
X26020Y24790D02*
Y23530D01*
X25420Y24790D02*
X26020D01*
X24720Y23530D02*
X25320D01*
X24720Y24790D02*
Y23530D01*
X25320Y24790D02*
Y23530D01*
X24720Y24790D02*
X25320D01*
X26570Y31830D02*
X27170D01*
X26570Y33090D02*
Y31830D01*
X27170Y33090D02*
Y31830D01*
X26570Y33090D02*
X27170D01*
X24740Y25910D02*
Y25310D01*
Y25910D02*
X26000D01*
X24740Y25310D02*
X26000D01*
Y25910D02*
Y25310D01*
X25670Y31480D02*
X26270D01*
X25670Y32740D02*
Y31480D01*
X26270Y32740D02*
Y31480D01*
X25670Y32740D02*
X26270D01*
X24970D02*
X25570D01*
Y31480D01*
X24970Y32740D02*
Y31480D01*
X25570D01*
X27324Y18219D02*
Y16801D01*
X29135Y18219D02*
Y16801D01*
X27324D02*
X29135D01*
X27324Y18219D02*
X29135D01*
X24920Y29880D02*
X25520D01*
X24920Y31140D02*
Y29880D01*
X25520Y31140D02*
Y29880D01*
X24920Y31140D02*
X25520D01*
X24920Y28480D02*
X25520D01*
X24920Y29740D02*
Y28480D01*
X25520Y29740D02*
Y28480D01*
X24920Y29740D02*
X25520D01*
X27050Y18310D02*
Y17710D01*
X25790D02*
X27050D01*
X25790Y18310D02*
X27050D01*
X25790D02*
Y17710D01*
Y19010D02*
Y18410D01*
Y19010D02*
X27050D01*
X25790Y18410D02*
X27050D01*
Y19010D02*
Y18410D01*
X36347Y13001D02*
Y39700D01*
X36350Y12950D02*
X36347Y13001D01*
X44600Y39700D02*
X36347D01*
X44600Y12950D02*
X36350D01*
X44600D02*
Y39700D01*
X44480Y16950D02*
Y17550D01*
Y16950D02*
X43220D01*
X44480Y17550D02*
X43220D01*
Y16950D02*
Y17550D01*
X44480Y19750D02*
Y20350D01*
Y19750D02*
X43220D01*
X44480Y20350D02*
X43220D01*
Y19750D02*
Y20350D01*
X44480Y18200D02*
Y18800D01*
Y18200D02*
X43220D01*
X44480Y18800D02*
X43220D01*
Y18200D02*
Y18800D01*
X43175Y25600D02*
Y26400D01*
X44500D02*
X43175D01*
X44500Y25600D02*
X43175D01*
X44500D02*
Y26400D01*
X43175Y27200D02*
Y28000D01*
X44500D02*
X43175D01*
X44500Y27200D02*
X43175D01*
X44500D02*
Y28000D01*
X43175Y33350D02*
Y34150D01*
X44500D02*
X43175D01*
X44500Y33350D02*
X43175D01*
X44500D02*
Y34150D01*
X43175Y34800D02*
Y35600D01*
X44500D02*
X43175D01*
X44500Y34800D02*
X43175D01*
X44500D02*
Y35600D01*
X43630Y18950D02*
Y19550D01*
Y18950D02*
X42370D01*
X43630Y19550D02*
X42370D01*
Y18950D02*
Y19550D01*
X43050Y26125D02*
X42250D01*
Y27450D01*
X43050Y26125D02*
Y27450D01*
X42250D01*
X43050Y33775D02*
X42250D01*
Y35100D01*
X43050Y33775D02*
Y35100D01*
X42250D01*
X43000Y17570D02*
X42400D01*
Y18830D01*
X43000Y17570D02*
Y18830D01*
X42400D01*
X43000Y19720D02*
X42400D01*
Y20980D01*
X43000Y19720D02*
Y20980D01*
X42400D01*
X43000Y24670D02*
X42400D01*
Y25930D01*
X43000Y24670D02*
Y25930D01*
X42400D01*
X43000Y27620D02*
X42400D01*
Y28880D01*
X43000Y27620D02*
Y28880D01*
X42400D01*
X43000Y32370D02*
X42400D01*
Y33630D01*
X43000Y32370D02*
Y33630D01*
X42400D01*
X41725Y23600D02*
Y24400D01*
X43050D02*
X41725D01*
X43050Y23600D02*
X41725D01*
X43050D02*
Y24400D01*
X41725Y31350D02*
Y32150D01*
X43050D02*
X41725D01*
X43050Y31350D02*
X41725D01*
X43050D02*
Y32150D01*
X40700Y24980D02*
X40100D01*
X40700Y23720D02*
Y24980D01*
X40100Y23720D02*
Y24980D01*
X40700Y23720D02*
X40100D01*
X41500Y32780D02*
X40900D01*
X41500Y31520D02*
Y32780D01*
X40900Y31520D02*
Y32780D01*
X41500Y31520D02*
X40900D01*
X41500Y24980D02*
X40900D01*
X41500Y23720D02*
Y24980D01*
X40900Y23720D02*
Y24980D01*
X41500Y23720D02*
X40900D01*
X40700Y32780D02*
X40100D01*
X40700Y31520D02*
Y32780D01*
X40100Y31520D02*
Y32780D01*
X40700Y31520D02*
X40100D01*
X39950Y25025D02*
X39150D01*
X39950Y23700D02*
Y25025D01*
X39150Y23700D02*
Y25025D01*
X39950Y23700D02*
X39150D01*
X39950Y32780D02*
X39350D01*
X39950Y31520D02*
Y32780D01*
X39350Y31520D02*
Y32780D01*
X39950Y31520D02*
X39350D01*
X39200Y32825D02*
X38400D01*
X39200Y31500D02*
Y32825D01*
X38400Y31500D02*
Y32825D01*
X39200Y31500D02*
X38400D01*
X37300Y28480D02*
X36700D01*
X37300Y27220D02*
Y28480D01*
X36700Y27220D02*
Y28480D01*
X37300Y27220D02*
X36700D01*
X39320Y34400D02*
Y35000D01*
X40580D02*
X39320D01*
X40580Y34400D02*
X39320D01*
X40580D02*
Y35000D01*
X37450Y29930D02*
X36850D01*
X37450Y28670D02*
Y29930D01*
X36850Y28670D02*
Y29930D01*
X37450Y28670D02*
X36850D01*
X38830Y30600D02*
Y31200D01*
Y30600D02*
X37570D01*
X38830Y31200D02*
X37570D01*
Y30600D02*
Y31200D01*
X38780Y27350D02*
Y27950D01*
Y27350D02*
X37520D01*
X38780Y27950D02*
X37520D01*
Y27350D02*
Y27950D01*
X37200Y36480D02*
X36600D01*
X37200Y35220D02*
Y36480D01*
X36600Y35220D02*
Y36480D01*
X37200Y35220D02*
X36600D01*
X40450Y36430D02*
X39850D01*
X40450Y35170D02*
Y36430D01*
X39850Y35170D02*
Y36430D01*
X40450Y35170D02*
X39850D01*
X37870Y34500D02*
Y35100D01*
X39130D02*
X37870D01*
X39130Y34500D02*
X37870D01*
X39130D02*
Y35100D01*
X34030Y34210D02*
Y33610D01*
Y34210D02*
X35290D01*
X34030Y33610D02*
X35290D01*
Y34210D02*
Y33610D01*
Y33510D02*
Y32910D01*
X34030D02*
X35290D01*
X34030Y33510D02*
X35290D01*
X34030D02*
Y32910D01*
X30980Y34310D02*
Y33710D01*
Y34310D02*
X32240D01*
X30980Y33710D02*
X32240D01*
Y34310D02*
Y33710D01*
X34030Y34910D02*
Y34310D01*
Y34910D02*
X35290D01*
X34030Y34310D02*
X35290D01*
Y34910D02*
Y34310D01*
X33910Y26830D02*
X34510D01*
X33910Y28090D02*
Y26830D01*
X34510Y28090D02*
Y26830D01*
X33910Y28090D02*
X34510D01*
X34110Y30640D02*
X34710D01*
Y29380D01*
X34110Y30640D02*
Y29380D01*
X34710D01*
X34160Y31530D02*
X34760D01*
X34160Y32790D02*
Y31530D01*
X34760Y32790D02*
Y31530D01*
X34160Y32790D02*
X34760D01*
X33460D02*
X34060D01*
Y31530D01*
X33460Y32790D02*
Y31530D01*
X34060D01*
X32710Y26430D02*
X33310D01*
X32710Y27690D02*
Y26430D01*
X33310Y27690D02*
Y26430D01*
X32710Y27690D02*
X33310D01*
X32010Y26430D02*
X32610D01*
X32010Y27690D02*
Y26430D01*
X32610Y27690D02*
Y26430D01*
X32010Y27690D02*
X32610D01*
X31610Y23530D02*
X32210D01*
X31610Y24790D02*
Y23530D01*
X32210Y24790D02*
Y23530D01*
X31610Y24790D02*
X32210D01*
X30910Y23530D02*
X31510D01*
X30910Y24790D02*
Y23530D01*
X31510Y24790D02*
Y23530D01*
X30910Y24790D02*
X31510D01*
X32760Y31830D02*
X33360D01*
X32760Y33090D02*
Y31830D01*
X33360Y33090D02*
Y31830D01*
X32760Y33090D02*
X33360D01*
X30930Y25910D02*
Y25310D01*
Y25910D02*
X32190D01*
X30930Y25310D02*
X32190D01*
Y25910D02*
Y25310D01*
X31860Y31480D02*
X32460D01*
X31860Y32740D02*
Y31480D01*
X32460Y32740D02*
Y31480D01*
X31860Y32740D02*
X32460D01*
X31160D02*
X31760D01*
Y31480D01*
X31160Y32740D02*
Y31480D01*
X31760D01*
X33514Y18219D02*
Y16801D01*
X35325Y18219D02*
Y16801D01*
X33514D02*
X35325D01*
X33514Y18219D02*
X35325D01*
X31110Y29880D02*
X31710D01*
X31110Y31140D02*
Y29880D01*
X31710Y31140D02*
Y29880D01*
X31110Y31140D02*
X31710D01*
X31110Y28480D02*
X31710D01*
X31110Y29740D02*
Y28480D01*
X31710Y29740D02*
Y28480D01*
X31110Y29740D02*
X31710D01*
X33240Y18310D02*
Y17710D01*
X31980D02*
X33240D01*
X31980Y18310D02*
X33240D01*
X31980D02*
Y17710D01*
Y19010D02*
Y18410D01*
Y19010D02*
X33240D01*
X31980Y18410D02*
X33240D01*
Y19010D02*
Y18410D01*
X12596Y18558D02*
X14407D01*
X12596Y19582D02*
X14407D01*
X12596D02*
Y18558D01*
X14407Y19582D02*
Y18558D01*
X12540Y31380D02*
X13140D01*
Y30120D01*
X12540Y31380D02*
Y30120D01*
X13140D01*
X12540Y32780D02*
X13140D01*
Y31520D01*
X12540Y32780D02*
Y31520D01*
X13140D01*
X14615Y18391D02*
X16426D01*
X14615Y19809D02*
X16426D01*
X14615D02*
Y18391D01*
X16426Y19809D02*
Y18391D01*
X12590Y33120D02*
X13190D01*
X12590Y34380D02*
Y33120D01*
X13190Y34380D02*
Y33120D01*
X12590Y34380D02*
X13190D01*
X13290D02*
X13890D01*
Y33120D01*
X13290Y34380D02*
Y33120D01*
X13890D01*
X14070Y34730D02*
X14670D01*
Y33470D01*
X14070Y34730D02*
Y33470D01*
X14670D01*
X13440Y29330D02*
X14040D01*
Y28070D01*
X13440Y29330D02*
Y28070D01*
X14040D01*
X14140Y29330D02*
X14740D01*
Y28070D01*
X14140Y29330D02*
Y28070D01*
X14740D01*
X14890Y33170D02*
X15490D01*
X14890Y34430D02*
Y33170D01*
X15490Y34430D02*
Y33170D01*
X14890Y34430D02*
X15490D01*
X15590D02*
X16190D01*
Y33170D01*
X15590Y34430D02*
Y33170D01*
X16190D01*
X15540Y31020D02*
X16140D01*
X15540Y32280D02*
Y31020D01*
X16140Y32280D02*
Y31020D01*
X15540Y32280D02*
X16140D01*
X15340Y29730D02*
X15940D01*
Y28470D01*
X15340Y29730D02*
Y28470D01*
X15940D01*
X12840Y27140D02*
Y26540D01*
X11580D02*
X12840D01*
X11580Y27140D02*
X12840D01*
X11580D02*
Y26540D01*
D58*
X19530Y34750D02*
X19480Y34800D01*
X19380D01*
X19330Y34750D01*
Y34550D01*
X19380Y34500D01*
X19480D01*
X19530Y34550D01*
X19630Y34500D02*
X19730D01*
X19680D01*
Y34800D01*
X19630Y34750D01*
X18390Y32150D02*
X18440Y32200D01*
Y32300D01*
X18390Y32350D01*
X18190D01*
X18140Y32300D01*
Y32200D01*
X18190Y32150D01*
X18140Y31850D02*
Y32050D01*
X18340Y31850D01*
X18390D01*
X18440Y31900D01*
Y32000D01*
X18390Y32050D01*
X18210Y27490D02*
X18160Y27540D01*
X18060D01*
X18010Y27490D01*
Y27290D01*
X18060Y27240D01*
X18160D01*
X18210Y27290D01*
X18460Y27240D02*
Y27540D01*
X18310Y27390D01*
X18510D01*
X18760Y36540D02*
X18810Y36590D01*
Y36690D01*
X18760Y36740D01*
X18560D01*
X18510Y36690D01*
Y36590D01*
X18560Y36540D01*
X18810Y36440D02*
Y36240D01*
X18760D01*
X18560Y36440D01*
X18510D01*
X21140Y34770D02*
X21090Y34820D01*
X20990D01*
X20940Y34770D01*
Y34570D01*
X20990Y34520D01*
X21090D01*
X21140Y34570D01*
X21240Y34770D02*
X21290Y34820D01*
X21390D01*
X21440Y34770D01*
Y34720D01*
X21390Y34670D01*
X21440Y34620D01*
Y34570D01*
X21390Y34520D01*
X21290D01*
X21240Y34570D01*
Y34620D01*
X21290Y34670D01*
X21240Y34720D01*
Y34770D01*
X21290Y34670D02*
X21390D01*
X22830Y23370D02*
X22880Y23420D01*
Y23520D01*
X22830Y23570D01*
X22630D01*
X22580Y23520D01*
Y23420D01*
X22630Y23370D01*
X22580Y23270D02*
Y23170D01*
Y23220D01*
X22880D01*
X22830Y23270D01*
X22580Y23020D02*
Y22920D01*
Y22970D01*
X22880D01*
X22830Y23020D01*
X20170Y33350D02*
X20120Y33400D01*
X20020D01*
X19970Y33350D01*
Y33150D01*
X20020Y33100D01*
X20120D01*
X20170Y33150D01*
X20270Y33100D02*
X20370D01*
X20320D01*
Y33400D01*
X20270Y33350D01*
X20720Y33100D02*
X20520D01*
X20720Y33300D01*
Y33350D01*
X20670Y33400D01*
X20570D01*
X20520Y33350D01*
X22830Y21030D02*
X22880Y21080D01*
Y21180D01*
X22830Y21230D01*
X22630D01*
X22580Y21180D01*
Y21080D01*
X22630Y21030D01*
X22580Y20930D02*
Y20830D01*
Y20880D01*
X22880D01*
X22830Y20930D01*
X22580Y20530D02*
X22880D01*
X22730Y20680D01*
Y20480D01*
X22810Y18990D02*
X22860Y19040D01*
Y19140D01*
X22810Y19190D01*
X22610D01*
X22560Y19140D01*
Y19040D01*
X22610Y18990D01*
X22560Y18890D02*
Y18790D01*
Y18840D01*
X22860D01*
X22810Y18890D01*
X22860Y18440D02*
X22810Y18540D01*
X22710Y18640D01*
X22610D01*
X22560Y18590D01*
Y18490D01*
X22610Y18440D01*
X22660D01*
X22710Y18490D01*
Y18640D01*
X19830Y26050D02*
X20030D01*
X20080Y26100D01*
Y26200D01*
X20030Y26250D01*
X19830D01*
X19780Y26200D01*
Y26100D01*
X19880Y26150D02*
X19780Y26050D01*
Y26100D02*
X19830Y26050D01*
X19780Y25950D02*
Y25850D01*
Y25900D01*
X20080D01*
X20030Y25950D01*
X19980Y19680D02*
Y19980D01*
X20130D01*
X20180Y19930D01*
Y19830D01*
X20130Y19780D01*
X19980D01*
X20080D02*
X20180Y19680D01*
X20280D02*
X20380D01*
X20330D01*
Y19980D01*
X20280Y19930D01*
X18670Y34500D02*
Y34800D01*
X18820D01*
X18870Y34750D01*
Y34650D01*
X18820Y34600D01*
X18670D01*
X18770D02*
X18870Y34500D01*
X19170D02*
X18970D01*
X19170Y34700D01*
Y34750D01*
X19120Y34800D01*
X19020D01*
X18970Y34750D01*
X20880Y28080D02*
Y28380D01*
X21030D01*
X21080Y28330D01*
Y28230D01*
X21030Y28180D01*
X20880D01*
X20980D02*
X21080Y28080D01*
X21380Y28380D02*
X21180D01*
Y28230D01*
X21280Y28280D01*
X21330D01*
X21380Y28230D01*
Y28130D01*
X21330Y28080D01*
X21230D01*
X21180Y28130D01*
X19080Y29110D02*
X19380D01*
Y28960D01*
X19330Y28910D01*
X19230D01*
X19180Y28960D01*
Y29110D01*
Y29010D02*
X19080Y28910D01*
X19380Y28610D02*
X19330Y28710D01*
X19230Y28810D01*
X19130D01*
X19080Y28760D01*
Y28660D01*
X19130Y28610D01*
X19180D01*
X19230Y28660D01*
Y28810D01*
X18140Y31150D02*
X18440D01*
Y31000D01*
X18390Y30950D01*
X18290D01*
X18240Y31000D01*
Y31150D01*
Y31050D02*
X18140Y30950D01*
X18440Y30850D02*
X18140D01*
Y30700D01*
X18190Y30650D01*
X18240D01*
X18290D01*
X18340Y30700D01*
Y30850D01*
X18440Y30550D02*
X18140D01*
Y30400D01*
X18190Y30350D01*
X18240D01*
X18290D01*
X18340Y30400D01*
Y30550D01*
X22090Y29750D02*
X22390D01*
Y29600D01*
X22340Y29550D01*
X22240D01*
X22190Y29600D01*
Y29750D01*
Y29650D02*
X22090Y29550D01*
Y29450D02*
Y29350D01*
Y29400D01*
X22290D01*
Y29450D01*
X22090Y29200D02*
Y29100D01*
Y29150D01*
X22390D01*
Y29200D01*
X22090Y28950D02*
Y28850D01*
Y28900D01*
X22290D01*
Y28950D01*
X22090Y28700D02*
X22290D01*
Y28650D01*
X22240Y28600D01*
X22090D01*
X22240D01*
X22290Y28550D01*
X22240Y28500D01*
X22090D01*
X22310Y32140D02*
X22610D01*
Y31990D01*
X22560Y31940D01*
X22460D01*
X22410Y31990D01*
Y32140D01*
Y32040D02*
X22310Y31940D01*
Y31840D02*
X22610D01*
X22410D02*
X22510Y31690D01*
X22410Y31840D02*
X22310Y31690D01*
Y31490D02*
X22560D01*
X22460D01*
Y31540D01*
Y31440D01*
Y31490D01*
X22560D01*
X22610Y31440D01*
X22310Y31240D02*
X22560D01*
X22460D01*
Y31290D01*
Y31190D01*
Y31240D01*
X22560D01*
X22610Y31190D01*
X21750Y34510D02*
Y34810D01*
X21900D01*
X21950Y34760D01*
Y34660D01*
X21900Y34610D01*
X21750D01*
X21850D02*
X21950Y34510D01*
X22100Y34760D02*
Y34710D01*
X22050D01*
X22150D01*
X22100D01*
Y34560D01*
X22150Y34510D01*
X18300Y37460D02*
Y37560D01*
Y37510D01*
X18050D01*
X18000Y37560D01*
Y37610D01*
X18050Y37660D01*
X18000Y37360D02*
Y37260D01*
Y37310D01*
X18300D01*
X18250Y37360D01*
X23190Y17090D02*
Y17190D01*
Y17140D01*
X22940D01*
X22890Y17190D01*
Y17240D01*
X22940Y17290D01*
X22890Y16790D02*
Y16990D01*
X23090Y16790D01*
X23140D01*
X23190Y16840D01*
Y16940D01*
X23140Y16990D01*
X19160Y25610D02*
X18910D01*
X18860Y25560D01*
Y25460D01*
X18910Y25410D01*
X19160D01*
X18860Y25310D02*
Y25210D01*
Y25260D01*
X19160D01*
X19110Y25310D01*
X22010Y32940D02*
X21760D01*
X21710Y32890D01*
Y32790D01*
X21760Y32740D01*
X22010D01*
X21710Y32440D02*
Y32640D01*
X21910Y32440D01*
X21960D01*
X22010Y32490D01*
Y32590D01*
X21960Y32640D01*
X17630Y36230D02*
Y36130D01*
Y36180D01*
X17930D01*
X17880Y36230D01*
X17630Y35780D02*
Y35980D01*
X17830Y35780D01*
X17880D01*
X17930Y35830D01*
Y35930D01*
X17880Y35980D01*
X17930Y35680D02*
X17730D01*
X17630Y35580D01*
X17730Y35480D01*
X17930D01*
X17630Y35080D02*
Y34980D01*
Y35030D01*
X17830D01*
Y35080D01*
X17630Y34830D02*
X17830D01*
Y34681D01*
X17780Y34631D01*
X17630D01*
X17580Y34481D02*
X17630Y34431D01*
X17680D01*
Y34481D01*
X17630D01*
Y34431D01*
X17580Y34481D01*
X17530Y34531D01*
X17930Y33731D02*
X17880Y33831D01*
X17780Y33931D01*
X17680D01*
X17630Y33881D01*
Y33781D01*
X17680Y33731D01*
X17730D01*
X17780Y33781D01*
Y33931D01*
X17630Y33631D02*
X17830D01*
X17930Y33531D01*
X17830Y33431D01*
X17630D01*
X17780D01*
Y33631D01*
X17630Y32981D02*
Y32881D01*
X17680Y32831D01*
X17780D01*
X17830Y32881D01*
Y32981D01*
X17780Y33031D01*
X17680D01*
X17630Y32981D01*
X17830Y32731D02*
X17680D01*
X17630Y32681D01*
Y32531D01*
X17830D01*
X17880Y32381D02*
X17830D01*
Y32431D01*
Y32331D01*
Y32381D01*
X17680D01*
X17630Y32331D01*
X17580Y32131D02*
X17630Y32081D01*
X17680D01*
Y32131D01*
X17630D01*
Y32081D01*
X17580Y32131D01*
X17530Y32181D01*
X17930Y31581D02*
X17630D01*
Y31432D01*
X17680Y31382D01*
X17730D01*
X17780D01*
X17830Y31432D01*
Y31581D01*
Y31282D02*
X17680D01*
X17630Y31232D01*
Y31082D01*
X17830D01*
Y30782D02*
Y30932D01*
X17780Y30982D01*
X17680D01*
X17630Y30932D01*
Y30782D01*
Y30682D02*
X17930D01*
X17730D02*
X17830Y30532D01*
X17730Y30682D02*
X17630Y30532D01*
X17830Y30082D02*
X17630D01*
X17730D01*
X17780Y30032D01*
X17830Y29982D01*
Y29932D01*
X17630Y29632D02*
Y29732D01*
X17680Y29782D01*
X17780D01*
X17830Y29732D01*
Y29632D01*
X17780Y29582D01*
X17730D01*
Y29782D01*
X17530Y29382D02*
Y29332D01*
X17580Y29282D01*
X17830D01*
Y29432D01*
X17780Y29482D01*
X17680D01*
X17630Y29432D01*
Y29282D01*
X17830Y29182D02*
X17680D01*
X17630Y29132D01*
Y28982D01*
X17830D01*
X17630Y28882D02*
Y28782D01*
Y28832D01*
X17930D01*
Y28882D01*
X17830Y28582D02*
Y28483D01*
X17780Y28433D01*
X17630D01*
Y28582D01*
X17680Y28632D01*
X17730Y28582D01*
Y28433D01*
X17880Y28283D02*
X17830D01*
Y28333D01*
Y28233D01*
Y28283D01*
X17680D01*
X17630Y28233D01*
Y28033D02*
Y27933D01*
X17680Y27883D01*
X17780D01*
X17830Y27933D01*
Y28033D01*
X17780Y28083D01*
X17680D01*
X17630Y28033D01*
X17830Y27783D02*
X17630D01*
X17730D01*
X17780Y27733D01*
X17830Y27683D01*
Y27633D01*
X27170Y35160D02*
Y34910D01*
X27220Y34860D01*
X27320D01*
X27370Y34910D01*
Y35160D01*
X27470Y34860D02*
X27570D01*
X27520D01*
Y35160D01*
X27470Y35110D01*
X29540Y15890D02*
Y15990D01*
Y15940D01*
X29290D01*
X29240Y15990D01*
Y16040D01*
X29290Y16090D01*
X29240Y15590D02*
Y15790D01*
X29440Y15590D01*
X29490D01*
X29540Y15640D01*
Y15740D01*
X29490Y15790D01*
X24620Y37590D02*
Y37690D01*
Y37640D01*
X24370D01*
X24320Y37690D01*
Y37740D01*
X24370Y37790D01*
X24320Y37490D02*
Y37390D01*
Y37440D01*
X24620D01*
X24570Y37490D01*
X28370Y31280D02*
X28120D01*
X28070Y31230D01*
Y31130D01*
X28120Y31080D01*
X28370D01*
X28070Y30780D02*
Y30980D01*
X28270Y30780D01*
X28320D01*
X28370Y30830D01*
Y30930D01*
X28320Y30980D01*
X28670Y32210D02*
X28970D01*
Y32060D01*
X28920Y32010D01*
X28820D01*
X28770Y32060D01*
Y32210D01*
Y32110D02*
X28670Y32010D01*
X28920Y31860D02*
X28870D01*
Y31910D01*
Y31810D01*
Y31860D01*
X28720D01*
X28670Y31810D01*
X28640Y30500D02*
X28940D01*
Y30350D01*
X28890Y30300D01*
X28790D01*
X28740Y30350D01*
Y30500D01*
Y30400D02*
X28640Y30300D01*
Y30200D02*
X28940D01*
X28740D02*
X28840Y30050D01*
X28740Y30200D02*
X28640Y30050D01*
Y29850D02*
X28890D01*
X28790D01*
Y29900D01*
Y29800D01*
Y29850D01*
X28890D01*
X28940Y29800D01*
X28640Y29600D02*
X28890D01*
X28790D01*
Y29650D01*
Y29550D01*
Y29600D01*
X28890D01*
X28940Y29550D01*
X28420Y28110D02*
X28720D01*
Y27960D01*
X28670Y27910D01*
X28570D01*
X28520Y27960D01*
Y28110D01*
Y28010D02*
X28420Y27910D01*
Y27810D02*
Y27710D01*
Y27760D01*
X28620D01*
Y27810D01*
X28420Y27560D02*
Y27460D01*
Y27510D01*
X28720D01*
Y27560D01*
X28420Y27310D02*
Y27210D01*
Y27260D01*
X28620D01*
Y27310D01*
X28420Y27060D02*
X28620D01*
Y27010D01*
X28570Y26960D01*
X28420D01*
X28570D01*
X28620Y26910D01*
X28570Y26860D01*
X28420D01*
X26010Y25180D02*
Y24880D01*
X25860D01*
X25810Y24930D01*
Y25030D01*
X25860Y25080D01*
X26010D01*
X25910D02*
X25810Y25180D01*
X25710Y24880D02*
Y25180D01*
X25560D01*
X25510Y25130D01*
Y25080D01*
Y25030D01*
X25560Y24980D01*
X25710D01*
X25360Y24930D02*
Y24980D01*
X25410D01*
X25310D01*
X25360D01*
Y25130D01*
X25310Y25180D01*
X24470Y29510D02*
X24770D01*
Y29360D01*
X24720Y29310D01*
X24620D01*
X24570Y29360D01*
Y29510D01*
Y29410D02*
X24470Y29310D01*
X24770Y29210D02*
X24470D01*
Y29060D01*
X24520Y29010D01*
X24570D01*
X24620D01*
X24670Y29060D01*
Y29210D01*
X24770Y28910D02*
X24470D01*
Y28760D01*
X24520Y28710D01*
X24570D01*
X24620D01*
X24670Y28760D01*
Y28910D01*
X25420Y27690D02*
X25720D01*
Y27540D01*
X25670Y27490D01*
X25570D01*
X25520Y27540D01*
Y27690D01*
Y27590D02*
X25420Y27490D01*
X25720Y27190D02*
X25670Y27290D01*
X25570Y27390D01*
X25470D01*
X25420Y27340D01*
Y27240D01*
X25470Y27190D01*
X25520D01*
X25570Y27240D01*
Y27390D01*
X26570Y27860D02*
Y28160D01*
X26720D01*
X26770Y28110D01*
Y28010D01*
X26720Y27960D01*
X26570D01*
X26670D02*
X26770Y27860D01*
X27070Y28160D02*
X26870D01*
Y28010D01*
X26970Y28060D01*
X27020D01*
X27070Y28010D01*
Y27910D01*
X27020Y27860D01*
X26920D01*
X26870Y27910D01*
X29170Y34860D02*
X29470D01*
Y34710D01*
X29420Y34660D01*
X29320D01*
X29270Y34710D01*
Y34860D01*
Y34760D02*
X29170Y34660D01*
Y34410D02*
X29470D01*
X29320Y34560D01*
Y34360D01*
X25120Y25180D02*
Y24880D01*
X24970D01*
X24920Y24930D01*
Y25030D01*
X24970Y25080D01*
X25120D01*
X25020D02*
X24920Y25180D01*
X24820Y24930D02*
X24770Y24880D01*
X24670D01*
X24620Y24930D01*
Y24980D01*
X24670Y25030D01*
X24720D01*
X24670D01*
X24620Y25080D01*
Y25130D01*
X24670Y25180D01*
X24770D01*
X24820Y25130D01*
X24570Y32260D02*
X24870D01*
Y32110D01*
X24820Y32060D01*
X24720D01*
X24670Y32110D01*
Y32260D01*
Y32160D02*
X24570Y32060D01*
Y31760D02*
Y31960D01*
X24770Y31760D01*
X24820D01*
X24870Y31810D01*
Y31910D01*
X24820Y31960D01*
X24720Y33860D02*
X24420D01*
Y34010D01*
X24470Y34060D01*
X24570D01*
X24620Y34010D01*
Y33860D01*
Y33960D02*
X24720Y34060D01*
Y34160D02*
Y34260D01*
Y34210D01*
X24420D01*
X24470Y34160D01*
X29020Y26780D02*
X28720D01*
Y26580D01*
Y26480D02*
Y26380D01*
Y26430D01*
X29020D01*
X28970Y26480D01*
X25640Y18780D02*
X25690Y18830D01*
Y18930D01*
X25640Y18980D01*
X25440D01*
X25390Y18930D01*
Y18830D01*
X25440Y18780D01*
X25390Y18680D02*
Y18580D01*
Y18630D01*
X25690D01*
X25640Y18680D01*
Y18430D02*
X25690Y18380D01*
Y18280D01*
X25640Y18230D01*
X25590D01*
X25540Y18280D01*
X25490Y18230D01*
X25440D01*
X25390Y18280D01*
Y18380D01*
X25440Y18430D01*
X25490D01*
X25540Y18380D01*
X25590Y18430D01*
X25640D01*
X25540Y18380D02*
Y18280D01*
X28570Y18560D02*
X28520Y18610D01*
X28420D01*
X28370Y18560D01*
Y18360D01*
X28420Y18310D01*
X28520D01*
X28570Y18360D01*
X28670Y18310D02*
X28770D01*
X28720D01*
Y18610D01*
X28670Y18560D01*
X29120Y18610D02*
X29020Y18560D01*
X28920Y18460D01*
Y18360D01*
X28970Y18310D01*
X29070D01*
X29120Y18360D01*
Y18410D01*
X29070Y18460D01*
X28920D01*
X24820Y20110D02*
X24770Y20060D01*
Y19960D01*
X24820Y19910D01*
X25020D01*
X25070Y19960D01*
Y20060D01*
X25020Y20110D01*
X25070Y20210D02*
Y20310D01*
Y20260D01*
X24770D01*
X24820Y20210D01*
X25070Y20610D02*
X24770D01*
X24920Y20460D01*
Y20660D01*
X26620Y31710D02*
X26570Y31760D01*
X26470D01*
X26420Y31710D01*
Y31510D01*
X26470Y31460D01*
X26570D01*
X26620Y31510D01*
X26720Y31460D02*
X26820D01*
X26770D01*
Y31760D01*
X26720Y31710D01*
X27170Y31460D02*
X26970D01*
X27170Y31660D01*
Y31710D01*
X27120Y31760D01*
X27020D01*
X26970Y31710D01*
X24820Y22110D02*
X24770Y22060D01*
Y21960D01*
X24820Y21910D01*
X25020D01*
X25070Y21960D01*
Y22060D01*
X25020Y22110D01*
X25070Y22210D02*
Y22310D01*
Y22260D01*
X24770D01*
X24820Y22210D01*
X25070Y22460D02*
Y22560D01*
Y22510D01*
X24770D01*
X24820Y22460D01*
X27470Y33110D02*
X27420Y33160D01*
X27320D01*
X27270Y33110D01*
Y32910D01*
X27320Y32860D01*
X27420D01*
X27470Y32910D01*
X27570Y33110D02*
X27620Y33160D01*
X27720D01*
X27770Y33110D01*
Y33060D01*
X27720Y33010D01*
X27770Y32960D01*
Y32910D01*
X27720Y32860D01*
X27620D01*
X27570Y32910D01*
Y32960D01*
X27620Y33010D01*
X27570Y33060D01*
Y33110D01*
X27620Y33010D02*
X27720D01*
X25120Y36700D02*
X25170Y36750D01*
Y36850D01*
X25120Y36900D01*
X24920D01*
X24870Y36850D01*
Y36750D01*
X24920Y36700D01*
X25170Y36600D02*
Y36400D01*
X25120D01*
X24920Y36600D01*
X24870D01*
X29420Y33960D02*
X29470Y34010D01*
Y34110D01*
X29420Y34160D01*
X29220D01*
X29170Y34110D01*
Y34010D01*
X29220Y33960D01*
X29470Y33660D02*
Y33860D01*
X29320D01*
X29370Y33760D01*
Y33710D01*
X29320Y33660D01*
X29220D01*
X29170Y33710D01*
Y33810D01*
X29220Y33860D01*
X29420Y33260D02*
X29470Y33310D01*
Y33410D01*
X29420Y33460D01*
X29220D01*
X29170Y33410D01*
Y33310D01*
X29220Y33260D01*
X29170Y33010D02*
X29470D01*
X29320Y33160D01*
Y32960D01*
X25070Y26070D02*
X25120Y26020D01*
X25220D01*
X25270Y26070D01*
Y26270D01*
X25220Y26320D01*
X25120D01*
X25070Y26270D01*
X24970Y26070D02*
X24920Y26020D01*
X24820D01*
X24770Y26070D01*
Y26120D01*
X24820Y26170D01*
X24870D01*
X24820D01*
X24770Y26220D01*
Y26270D01*
X24820Y26320D01*
X24920D01*
X24970Y26270D01*
X24720Y30510D02*
X24770Y30560D01*
Y30660D01*
X24720Y30710D01*
X24520D01*
X24470Y30660D01*
Y30560D01*
X24520Y30510D01*
X24470Y30210D02*
Y30410D01*
X24670Y30210D01*
X24720D01*
X24770Y30260D01*
Y30360D01*
X24720Y30410D01*
X26870Y17360D02*
X26920Y17310D01*
X27020D01*
X27070Y17360D01*
Y17560D01*
X27020Y17610D01*
X26920D01*
X26870Y17560D01*
X26770Y17610D02*
X26670D01*
X26720D01*
Y17310D01*
X26770Y17360D01*
X26520Y17560D02*
X26470Y17610D01*
X26370D01*
X26320Y17560D01*
Y17360D01*
X26370Y17310D01*
X26470D01*
X26520Y17360D01*
Y17410D01*
X26470Y17460D01*
X26320D01*
X25930Y33120D02*
X25880Y33170D01*
X25780D01*
X25730Y33120D01*
Y32920D01*
X25780Y32870D01*
X25880D01*
X25930Y32920D01*
X26030Y32870D02*
X26130D01*
X26080D01*
Y33170D01*
X26030Y33120D01*
X23900Y38080D02*
Y37980D01*
Y38030D01*
X24200D01*
X24150Y38080D01*
X23900Y37630D02*
Y37830D01*
X24100Y37630D01*
X24150D01*
X24200Y37680D01*
Y37780D01*
X24150Y37830D01*
X24200Y37530D02*
X24000D01*
X23900Y37430D01*
X24000Y37330D01*
X24200D01*
X23900Y36930D02*
Y36830D01*
Y36880D01*
X24100D01*
Y36930D01*
X23900Y36680D02*
X24100D01*
Y36530D01*
X24050Y36481D01*
X23900D01*
X23850Y36331D02*
X23900Y36281D01*
X23950D01*
Y36331D01*
X23900D01*
Y36281D01*
X23850Y36331D01*
X23800Y36381D01*
X24200Y35581D02*
X24150Y35681D01*
X24050Y35781D01*
X23950D01*
X23900Y35731D01*
Y35631D01*
X23950Y35581D01*
X24000D01*
X24050Y35631D01*
Y35781D01*
X23900Y35481D02*
X24100D01*
X24200Y35381D01*
X24100Y35281D01*
X23900D01*
X24050D01*
Y35481D01*
X23900Y34831D02*
Y34731D01*
X23950Y34681D01*
X24050D01*
X24100Y34731D01*
Y34831D01*
X24050Y34881D01*
X23950D01*
X23900Y34831D01*
X24100Y34581D02*
X23950D01*
X23900Y34531D01*
Y34381D01*
X24100D01*
X24150Y34231D02*
X24100D01*
Y34281D01*
Y34181D01*
Y34231D01*
X23950D01*
X23900Y34181D01*
X23850Y33981D02*
X23900Y33931D01*
X23950D01*
Y33981D01*
X23900D01*
Y33931D01*
X23850Y33981D01*
X23800Y34031D01*
X24200Y33431D02*
X23900D01*
Y33282D01*
X23950Y33232D01*
X24000D01*
X24050D01*
X24100Y33282D01*
Y33431D01*
Y33132D02*
X23950D01*
X23900Y33082D01*
Y32932D01*
X24100D01*
Y32632D02*
Y32782D01*
X24050Y32832D01*
X23950D01*
X23900Y32782D01*
Y32632D01*
Y32532D02*
X24200D01*
X24000D02*
X24100Y32382D01*
X24000Y32532D02*
X23900Y32382D01*
X24050Y32232D02*
Y32032D01*
X24200Y31932D02*
X23900D01*
Y31782D01*
X23950Y31732D01*
X24000D01*
X24050D01*
X24100Y31782D01*
Y31932D01*
X23900Y31582D02*
Y31482D01*
X23950Y31432D01*
X24050D01*
X24100Y31482D01*
Y31582D01*
X24050Y31632D01*
X23950D01*
X23900Y31582D01*
Y31282D02*
Y31182D01*
X23950Y31132D01*
X24050D01*
X24100Y31182D01*
Y31282D01*
X24050Y31332D01*
X23950D01*
X23900Y31282D01*
Y31032D02*
Y30882D01*
X23950Y30832D01*
X24000Y30882D01*
Y30982D01*
X24050Y31032D01*
X24100Y30982D01*
Y30832D01*
X24150Y30682D02*
X24100D01*
Y30732D01*
Y30632D01*
Y30682D01*
X23950D01*
X23900Y30632D01*
X24100Y30183D02*
X23900D01*
X24000D01*
X24050Y30133D01*
X24100Y30083D01*
Y30033D01*
X23900Y29733D02*
Y29833D01*
X23950Y29883D01*
X24050D01*
X24100Y29833D01*
Y29733D01*
X24050Y29683D01*
X24000D01*
Y29883D01*
X23800Y29483D02*
Y29433D01*
X23850Y29383D01*
X24100D01*
Y29533D01*
X24050Y29583D01*
X23950D01*
X23900Y29533D01*
Y29383D01*
X24100Y29283D02*
X23950D01*
X23900Y29233D01*
Y29083D01*
X24100D01*
X23900Y28983D02*
Y28883D01*
Y28933D01*
X24200D01*
Y28983D01*
X24100Y28683D02*
Y28583D01*
X24050Y28533D01*
X23900D01*
Y28683D01*
X23950Y28733D01*
X24000Y28683D01*
Y28533D01*
X24150Y28383D02*
X24100D01*
Y28433D01*
Y28333D01*
Y28383D01*
X23950D01*
X23900Y28333D01*
Y28133D02*
Y28033D01*
X23950Y27983D01*
X24050D01*
X24100Y28033D01*
Y28133D01*
X24050Y28183D01*
X23950D01*
X23900Y28133D01*
X24100Y27883D02*
X23900D01*
X24000D01*
X24050Y27833D01*
X24100Y27783D01*
Y27733D01*
X23890Y27090D02*
X24190D01*
X24090Y26990D01*
X24190Y26890D01*
X23890D01*
X24090Y26590D02*
Y26740D01*
X24040Y26790D01*
X23940D01*
X23890Y26740D01*
Y26590D01*
X24140Y26290D02*
X24190Y26340D01*
Y26440D01*
X24140Y26490D01*
X23940D01*
X23890Y26440D01*
Y26340D01*
X23940Y26290D01*
X24040D01*
Y26390D01*
X23890Y26190D02*
Y26090D01*
Y26140D01*
X24090D01*
Y26190D01*
X23890Y25940D02*
Y25840D01*
Y25890D01*
X24190D01*
Y25940D01*
X23890Y25690D02*
Y25590D01*
Y25640D01*
X24190D01*
Y25690D01*
X24140Y24941D02*
X24190Y24991D01*
Y25091D01*
X24140Y25141D01*
X23940D01*
X23890Y25091D01*
Y24991D01*
X23940Y24941D01*
X23890Y24791D02*
Y24691D01*
X23940Y24641D01*
X24040D01*
X24090Y24691D01*
Y24791D01*
X24040Y24841D01*
X23940D01*
X23890Y24791D01*
Y24541D02*
Y24391D01*
X23940Y24341D01*
X23990Y24391D01*
Y24491D01*
X24040Y24541D01*
X24090Y24491D01*
Y24341D01*
X23890Y24241D02*
X24090D01*
Y24191D01*
X24040Y24141D01*
X23890D01*
X24040D01*
X24090Y24091D01*
X24040Y24041D01*
X23890D01*
Y23891D02*
Y23791D01*
X23940Y23741D01*
X24040D01*
X24090Y23791D01*
Y23891D01*
X24040Y23941D01*
X23940D01*
X23890Y23891D01*
Y23641D02*
Y23541D01*
Y23591D01*
X24190D01*
Y23641D01*
X23890Y23341D02*
Y23241D01*
X23940Y23191D01*
X24040D01*
X24090Y23241D01*
Y23341D01*
X24040Y23391D01*
X23940D01*
X23890Y23341D01*
X23790Y22991D02*
Y22941D01*
X23840Y22891D01*
X24090D01*
Y23041D01*
X24040Y23091D01*
X23940D01*
X23890Y23041D01*
Y22891D01*
X24090Y22791D02*
X23940D01*
X23890Y22741D01*
Y22591D01*
X23840D01*
X23790Y22641D01*
Y22691D01*
X23890Y22591D02*
X24090D01*
X24140Y21992D02*
X24190Y22042D01*
Y22142D01*
X24140Y22192D01*
X24090D01*
X24040Y22142D01*
Y22042D01*
X23990Y21992D01*
X23940D01*
X23890Y22042D01*
Y22142D01*
X23940Y22192D01*
X23890Y21742D02*
Y21842D01*
X23940Y21892D01*
X24040D01*
X24090Y21842D01*
Y21742D01*
X24040Y21692D01*
X23990D01*
Y21892D01*
X23790Y21592D02*
X24090D01*
Y21442D01*
X24040Y21392D01*
X23940D01*
X23890Y21442D01*
Y21592D01*
X24140Y21242D02*
X24090D01*
Y21292D01*
Y21192D01*
Y21242D01*
X23940D01*
X23890Y21192D01*
Y20542D02*
Y20742D01*
X24090Y20542D01*
X24140D01*
X24190Y20592D01*
Y20692D01*
X24140Y20742D01*
Y20442D02*
X24190Y20392D01*
Y20292D01*
X24140Y20242D01*
X23940D01*
X23890Y20292D01*
Y20392D01*
X23940Y20442D01*
X24140D01*
X23890Y20142D02*
Y20042D01*
Y20092D01*
X24190D01*
X24140Y20142D01*
X23890Y19892D02*
Y19792D01*
Y19842D01*
X24190D01*
X24140Y19892D01*
X37250Y22600D02*
X37000D01*
X37100D01*
Y22550D01*
Y22650D01*
Y22600D01*
X37000D01*
X36950Y22650D01*
X37250Y22850D02*
Y22950D01*
X37200Y23000D01*
X37100D01*
X37050Y22950D01*
Y22850D01*
X37100Y22800D01*
X37200D01*
X37250Y22850D01*
X37050Y23100D02*
X37250D01*
X37150D01*
X37100Y23150D01*
X37050Y23200D01*
Y23250D01*
X36950Y23900D02*
Y23700D01*
X37100D01*
Y23800D01*
Y23700D01*
X37250D01*
Y24000D02*
X36950D01*
Y24149D01*
X37000Y24199D01*
X37100D01*
X37150Y24149D01*
Y24000D01*
X37250Y24599D02*
Y24699D01*
Y24649D01*
X36950D01*
Y24599D01*
X37050Y24899D02*
Y24999D01*
X37100Y25049D01*
X37250D01*
Y24899D01*
X37200Y24849D01*
X37150Y24899D01*
Y25049D01*
X37250Y25149D02*
Y25299D01*
X37200Y25349D01*
X37150Y25299D01*
Y25199D01*
X37100Y25149D01*
X37050Y25199D01*
Y25349D01*
X37250Y25599D02*
Y25499D01*
X37200Y25449D01*
X37100D01*
X37050Y25499D01*
Y25599D01*
X37100Y25649D01*
X37150D01*
Y25449D01*
X37050Y25749D02*
X37250D01*
X37150D01*
X37100Y25799D01*
X37050Y25849D01*
Y25899D01*
X36800Y22500D02*
X36500D01*
Y22650D01*
X36550Y22700D01*
X36650D01*
X36700Y22650D01*
Y22500D01*
Y22600D02*
X36800Y22700D01*
Y22950D02*
Y22850D01*
X36750Y22800D01*
X36650D01*
X36600Y22850D01*
Y22950D01*
X36650Y23000D01*
X36700D01*
Y22800D01*
X36600Y23300D02*
Y23150D01*
X36650Y23100D01*
X36750D01*
X36800Y23150D01*
Y23300D01*
Y23550D02*
Y23450D01*
X36750Y23400D01*
X36650D01*
X36600Y23450D01*
Y23550D01*
X36650Y23600D01*
X36700D01*
Y23400D01*
X36800Y23700D02*
Y23800D01*
Y23750D01*
X36600D01*
Y23700D01*
Y23950D02*
X36800Y24049D01*
X36600Y24149D01*
X36800Y24399D02*
Y24299D01*
X36750Y24249D01*
X36650D01*
X36600Y24299D01*
Y24399D01*
X36650Y24449D01*
X36700D01*
Y24249D01*
X36600Y24549D02*
X36800D01*
X36700D01*
X36650Y24599D01*
X36600Y24649D01*
Y24699D01*
Y25349D02*
Y25199D01*
X36650Y25149D01*
X36750D01*
X36800Y25199D01*
Y25349D01*
Y25449D02*
Y25549D01*
Y25499D01*
X36600D01*
Y25449D01*
Y25699D02*
X36800D01*
X36700D01*
X36650Y25749D01*
X36600Y25799D01*
Y25849D01*
Y26199D02*
Y26049D01*
X36650Y25999D01*
X36750D01*
X36800Y26049D01*
Y26199D01*
X36600Y26299D02*
X36750D01*
X36800Y26349D01*
Y26499D01*
X36600D01*
X36800Y26599D02*
Y26699D01*
Y26649D01*
X36600D01*
Y26599D01*
X36550Y26899D02*
X36600D01*
Y26849D01*
Y26949D01*
Y26899D01*
X36750D01*
X36800Y26949D01*
X43750Y23000D02*
X43700Y22950D01*
Y22850D01*
X43750Y22800D01*
X43800D01*
X43850Y22850D01*
Y22950D01*
X43900Y23000D01*
X43950D01*
X44000Y22950D01*
Y22850D01*
X43950Y22800D01*
X44000Y23250D02*
Y23150D01*
X43950Y23100D01*
X43850D01*
X43800Y23150D01*
Y23250D01*
X43850Y23300D01*
X43900D01*
Y23100D01*
X44100Y23400D02*
X43800D01*
Y23550D01*
X43850Y23600D01*
X43950D01*
X44000Y23550D01*
Y23400D01*
X43750Y23750D02*
X43800D01*
Y23700D01*
Y23800D01*
Y23750D01*
X43950D01*
X44000Y23800D01*
Y24449D02*
Y24250D01*
X43800Y24449D01*
X43750D01*
X43700Y24399D01*
Y24300D01*
X43750Y24250D01*
Y24549D02*
X43700Y24599D01*
Y24699D01*
X43750Y24749D01*
X43950D01*
X44000Y24699D01*
Y24599D01*
X43950Y24549D01*
X43750D01*
X44000Y24849D02*
Y24949D01*
Y24899D01*
X43700D01*
X43750Y24849D01*
X44000Y25099D02*
Y25199D01*
Y25149D01*
X43700D01*
X43750Y25099D01*
X44400Y20500D02*
X44100D01*
X44200Y20600D01*
X44100Y20700D01*
X44400D01*
X44200Y21000D02*
Y20850D01*
X44250Y20800D01*
X44350D01*
X44400Y20850D01*
Y21000D01*
X44150Y21300D02*
X44100Y21250D01*
Y21150D01*
X44150Y21100D01*
X44350D01*
X44400Y21150D01*
Y21250D01*
X44350Y21300D01*
X44250D01*
Y21200D01*
X44400Y21400D02*
Y21500D01*
Y21450D01*
X44200D01*
Y21400D01*
X44400Y21650D02*
Y21750D01*
Y21700D01*
X44100D01*
Y21650D01*
X44400Y21900D02*
Y22000D01*
Y21950D01*
X44100D01*
Y21900D01*
X44150Y22649D02*
X44100Y22599D01*
Y22499D01*
X44150Y22449D01*
X44350D01*
X44400Y22499D01*
Y22599D01*
X44350Y22649D01*
X44400Y22799D02*
Y22899D01*
X44350Y22949D01*
X44250D01*
X44200Y22899D01*
Y22799D01*
X44250Y22749D01*
X44350D01*
X44400Y22799D01*
Y23049D02*
Y23199D01*
X44350Y23249D01*
X44300Y23199D01*
Y23099D01*
X44250Y23049D01*
X44200Y23099D01*
Y23249D01*
X44400Y23349D02*
X44200D01*
Y23399D01*
X44250Y23449D01*
X44400D01*
X44250D01*
X44200Y23499D01*
X44250Y23549D01*
X44400D01*
Y23699D02*
Y23799D01*
X44350Y23849D01*
X44250D01*
X44200Y23799D01*
Y23699D01*
X44250Y23649D01*
X44350D01*
X44400Y23699D01*
Y23949D02*
Y24049D01*
Y23999D01*
X44100D01*
Y23949D01*
X44400Y24249D02*
Y24349D01*
X44350Y24399D01*
X44250D01*
X44200Y24349D01*
Y24249D01*
X44250Y24199D01*
X44350D01*
X44400Y24249D01*
X44500Y24599D02*
Y24649D01*
X44450Y24699D01*
X44200D01*
Y24549D01*
X44250Y24499D01*
X44350D01*
X44400Y24549D01*
Y24699D01*
X44200Y24799D02*
X44350D01*
X44400Y24849D01*
Y24999D01*
X44450D01*
X44500Y24949D01*
Y24899D01*
X44400Y24999D02*
X44200D01*
X39605Y29055D02*
X39855D01*
X39905Y29105D01*
Y29205D01*
X39855Y29255D01*
X39605D01*
X39905Y29555D02*
Y29355D01*
X39705Y29555D01*
X39655D01*
X39605Y29505D01*
Y29405D01*
X39655Y29355D01*
X39605Y21205D02*
X39855D01*
X39905Y21255D01*
Y21355D01*
X39855Y21405D01*
X39605D01*
X39655Y21505D02*
X39605Y21555D01*
Y21655D01*
X39655Y21705D01*
X39705D01*
X39755Y21655D01*
Y21605D01*
Y21655D01*
X39805Y21705D01*
X39855D01*
X39905Y21655D01*
Y21555D01*
X39855Y21505D01*
X39050Y26950D02*
X39100Y26900D01*
X39200D01*
X39250Y26950D01*
Y27150D01*
X39200Y27200D01*
X39100D01*
X39050Y27150D01*
X38750Y27200D02*
X38950D01*
X38750Y27000D01*
Y26950D01*
X38800Y26900D01*
X38900D01*
X38950Y26950D01*
X38650Y27250D02*
X38450D01*
X38350Y27200D02*
Y26900D01*
X38200D01*
X38150Y26950D01*
Y27050D01*
X38200Y27100D01*
X38350D01*
X38050Y27200D02*
X37950D01*
X38000D01*
Y26900D01*
X38050Y26950D01*
X40600Y35350D02*
X40550Y35300D01*
Y35200D01*
X40600Y35150D01*
X40800D01*
X40850Y35200D01*
Y35300D01*
X40800Y35350D01*
X40850Y35650D02*
Y35450D01*
X40650Y35650D01*
X40600D01*
X40550Y35600D01*
Y35500D01*
X40600Y35450D01*
X40900Y35750D02*
Y35950D01*
X40850Y36050D02*
X40550D01*
Y36200D01*
X40600Y36250D01*
X40700D01*
X40750Y36200D01*
Y36050D01*
X40850Y36550D02*
Y36350D01*
X40650Y36550D01*
X40600D01*
X40550Y36500D01*
Y36400D01*
X40600Y36350D01*
X40250Y23350D02*
X40300Y23300D01*
X40400D01*
X40450Y23350D01*
Y23550D01*
X40400Y23600D01*
X40300D01*
X40250Y23550D01*
X40000Y23600D02*
Y23300D01*
X40150Y23450D01*
X39950D01*
X41900Y32450D02*
X41950Y32400D01*
X42050D01*
X42100Y32450D01*
Y32650D01*
X42050Y32700D01*
X41950D01*
X41900Y32650D01*
X41600Y32400D02*
X41800D01*
Y32550D01*
X41700Y32500D01*
X41650D01*
X41600Y32550D01*
Y32650D01*
X41650Y32700D01*
X41750D01*
X41800Y32650D01*
X42050Y20650D02*
X42000Y20600D01*
Y20500D01*
X42050Y20450D01*
X42250D01*
X42300Y20500D01*
Y20600D01*
X42250Y20650D01*
X42000Y20950D02*
X42050Y20850D01*
X42150Y20750D01*
X42250D01*
X42300Y20800D01*
Y20900D01*
X42250Y20950D01*
X42200D01*
X42150Y20900D01*
Y20750D01*
X42050Y25750D02*
X42000Y25700D01*
Y25600D01*
X42050Y25550D01*
X42250D01*
X42300Y25600D01*
Y25700D01*
X42250Y25750D01*
X42000Y25850D02*
Y26050D01*
X42050D01*
X42250Y25850D01*
X42300D01*
X42000Y28150D02*
X41950Y28100D01*
Y28000D01*
X42000Y27950D01*
X42200D01*
X42250Y28000D01*
Y28100D01*
X42200Y28150D01*
X42000Y28250D02*
X41950Y28300D01*
Y28400D01*
X42000Y28450D01*
X42050D01*
X42100Y28400D01*
X42150Y28450D01*
X42200D01*
X42250Y28400D01*
Y28300D01*
X42200Y28250D01*
X42150D01*
X42100Y28300D01*
X42050Y28250D01*
X42000D01*
X42100Y28300D02*
Y28400D01*
X42000Y33350D02*
X41950Y33300D01*
Y33200D01*
X42000Y33150D01*
X42200D01*
X42250Y33200D01*
Y33300D01*
X42200Y33350D01*
Y33450D02*
X42250Y33500D01*
Y33600D01*
X42200Y33650D01*
X42000D01*
X41950Y33600D01*
Y33500D01*
X42000Y33450D01*
X42050D01*
X42100Y33500D01*
Y33650D01*
X44300Y19400D02*
X44350Y19350D01*
X44450D01*
X44500Y19400D01*
Y19600D01*
X44450Y19650D01*
X44350D01*
X44300Y19600D01*
X44200Y19650D02*
X44100D01*
X44150D01*
Y19350D01*
X44200Y19400D01*
X43950D02*
X43900Y19350D01*
X43800D01*
X43750Y19400D01*
Y19600D01*
X43800Y19650D01*
X43900D01*
X43950Y19600D01*
Y19400D01*
X38900Y33350D02*
X38850Y33300D01*
Y33200D01*
X38900Y33150D01*
X39100D01*
X39150Y33200D01*
Y33300D01*
X39100Y33350D01*
X39150Y33450D02*
Y33550D01*
Y33500D01*
X38850D01*
X38900Y33450D01*
X39150Y33700D02*
Y33800D01*
Y33750D01*
X38850D01*
X38900Y33700D01*
X38800Y25650D02*
X38750Y25600D01*
Y25500D01*
X38800Y25450D01*
X39000D01*
X39050Y25500D01*
Y25600D01*
X39000Y25650D01*
X39050Y25750D02*
Y25850D01*
Y25800D01*
X38750D01*
X38800Y25750D01*
X39050Y26200D02*
Y26000D01*
X38850Y26200D01*
X38800D01*
X38750Y26150D01*
Y26050D01*
X38800Y26000D01*
X39850Y14950D02*
X39900Y14900D01*
X40000D01*
X40050Y14950D01*
Y15150D01*
X40000Y15200D01*
X39900D01*
X39850Y15150D01*
X39750Y15200D02*
X39650D01*
X39700D01*
Y14900D01*
X39750Y14950D01*
X39500D02*
X39450Y14900D01*
X39350D01*
X39300Y14950D01*
Y15000D01*
X39350Y15050D01*
X39400D01*
X39350D01*
X39300Y15100D01*
Y15150D01*
X39350Y15200D01*
X39450D01*
X39500Y15150D01*
X39350Y30900D02*
X39300Y30850D01*
Y30750D01*
X39350Y30700D01*
X39550D01*
X39600Y30750D01*
Y30850D01*
X39550Y30900D01*
X39600Y31000D02*
Y31100D01*
Y31050D01*
X39300D01*
X39350Y31000D01*
X39600Y31400D02*
X39300D01*
X39450Y31250D01*
Y31450D01*
X42150Y24550D02*
X42200Y24500D01*
X42300D01*
X42350Y24550D01*
Y24750D01*
X42300Y24800D01*
X42200D01*
X42150Y24750D01*
X42050Y24800D02*
X41950D01*
X42000D01*
Y24500D01*
X42050Y24550D01*
X41600Y24500D02*
X41800D01*
Y24650D01*
X41700Y24600D01*
X41650D01*
X41600Y24650D01*
Y24750D01*
X41650Y24800D01*
X41750D01*
X41800Y24750D01*
X40600Y31150D02*
X40650Y31100D01*
X40750D01*
X40800Y31150D01*
Y31350D01*
X40750Y31400D01*
X40650D01*
X40600Y31350D01*
X40500Y31400D02*
X40400D01*
X40450D01*
Y31100D01*
X40500Y31150D01*
X40050Y31100D02*
X40150Y31150D01*
X40250Y31250D01*
Y31350D01*
X40200Y31400D01*
X40100D01*
X40050Y31350D01*
Y31300D01*
X40100Y31250D01*
X40250D01*
X42097Y18100D02*
X42047Y18050D01*
Y17950D01*
X42097Y17900D01*
X42297D01*
X42347Y17950D01*
Y18050D01*
X42297Y18100D01*
X42347Y18200D02*
Y18300D01*
Y18250D01*
X42047D01*
X42097Y18200D01*
X42047Y18450D02*
Y18650D01*
X42097D01*
X42297Y18450D01*
X42347D01*
X42350Y35900D02*
Y35800D01*
Y35850D01*
X42600D01*
X42650Y35800D01*
Y35750D01*
X42600Y35700D01*
X42650Y36000D02*
Y36100D01*
Y36050D01*
X42350D01*
X42400Y36000D01*
X40550Y14550D02*
Y14450D01*
Y14500D01*
X40800D01*
X40850Y14450D01*
Y14400D01*
X40800Y14350D01*
X40600Y14650D02*
X40550Y14700D01*
Y14800D01*
X40600Y14850D01*
X40650D01*
X40700Y14800D01*
Y14750D01*
Y14800D01*
X40750Y14850D01*
X40800D01*
X40850Y14800D01*
Y14700D01*
X40800Y14650D01*
X43150Y23800D02*
X43450D01*
Y24000D01*
Y24100D02*
Y24200D01*
Y24150D01*
X43150D01*
X43200Y24100D01*
X43200Y31500D02*
X43500D01*
Y31700D01*
Y32000D02*
Y31800D01*
X43300Y32000D01*
X43250D01*
X43200Y31950D01*
Y31850D01*
X43250Y31800D01*
X37400Y30200D02*
X37100D01*
Y30350D01*
X37150Y30400D01*
X37250D01*
X37300Y30350D01*
Y30200D01*
Y30300D02*
X37400Y30400D01*
Y30500D02*
Y30600D01*
Y30550D01*
X37100D01*
X37150Y30500D01*
X37450Y30750D02*
Y30950D01*
X37400Y31050D02*
X37100D01*
Y31200D01*
X37150Y31250D01*
X37250D01*
X37300Y31200D01*
Y31050D01*
X37400Y31350D02*
Y31450D01*
Y31400D01*
X37100D01*
X37150Y31350D01*
X36500Y36650D02*
Y36950D01*
X36650D01*
X36700Y36900D01*
Y36800D01*
X36650Y36750D01*
X36500D01*
X36600D02*
X36700Y36650D01*
X36800D02*
X36900D01*
X36850D01*
Y36950D01*
X36800Y36900D01*
X37050Y36600D02*
X37250D01*
X37350Y36650D02*
Y36950D01*
X37500D01*
X37550Y36900D01*
Y36800D01*
X37500Y36750D01*
X37350D01*
X37850Y36650D02*
X37650D01*
X37850Y36850D01*
Y36900D01*
X37800Y36950D01*
X37700D01*
X37650Y36900D01*
X36750Y28650D02*
X36450D01*
Y28800D01*
X36500Y28850D01*
X36600D01*
X36650Y28800D01*
Y28650D01*
Y28750D02*
X36750Y28850D01*
Y29150D02*
Y28950D01*
X36550Y29150D01*
X36500D01*
X36450Y29100D01*
Y29000D01*
X36500Y28950D01*
X36800Y29250D02*
Y29450D01*
X36750Y29550D02*
X36450D01*
Y29700D01*
X36500Y29750D01*
X36600D01*
X36650Y29700D01*
Y29550D01*
X36750Y29850D02*
Y29950D01*
Y29900D01*
X36450D01*
X36500Y29850D01*
X38100Y34350D02*
Y34050D01*
X37950D01*
X37900Y34100D01*
Y34200D01*
X37950Y34250D01*
X38100D01*
X38000D02*
X37900Y34350D01*
X37600D02*
X37800D01*
X37600Y34150D01*
Y34100D01*
X37650Y34050D01*
X37750D01*
X37800Y34100D01*
X37500Y34400D02*
X37300D01*
X37200Y34350D02*
Y34050D01*
X37050D01*
X37000Y34100D01*
Y34200D01*
X37050Y34250D01*
X37200D01*
X36700Y34350D02*
X36900D01*
X36700Y34150D01*
Y34100D01*
X36750Y34050D01*
X36850D01*
X36900Y34100D01*
X37650Y27100D02*
Y26800D01*
X37500D01*
X37450Y26850D01*
Y26950D01*
X37500Y27000D01*
X37650D01*
X37550D02*
X37450Y27100D01*
X37350Y26850D02*
X37300Y26800D01*
X37200D01*
X37150Y26850D01*
Y26900D01*
X37200Y26950D01*
X37250D01*
X37200D01*
X37150Y27000D01*
Y27050D01*
X37200Y27100D01*
X37300D01*
X37350Y27050D01*
X42250Y19050D02*
X41950D01*
Y19200D01*
X42000Y19250D01*
X42100D01*
X42150Y19200D01*
Y19050D01*
Y19150D02*
X42250Y19250D01*
Y19500D02*
X41950D01*
X42100Y19350D01*
Y19550D01*
X42050Y26550D02*
X41750D01*
Y26700D01*
X41800Y26750D01*
X41900D01*
X41950Y26700D01*
Y26550D01*
Y26650D02*
X42050Y26750D01*
X41750Y27050D02*
X41800Y26950D01*
X41900Y26850D01*
X42000D01*
X42050Y26900D01*
Y27000D01*
X42000Y27050D01*
X41950D01*
X41900Y27000D01*
Y26850D01*
X43900Y18850D02*
Y19150D01*
X44050D01*
X44100Y19100D01*
Y19000D01*
X44050Y18950D01*
X43900D01*
X44000D02*
X44100Y18850D01*
X44200Y19150D02*
X44400D01*
Y19100D01*
X44200Y18900D01*
Y18850D01*
X40700Y34950D02*
X41000D01*
Y34800D01*
X40950Y34750D01*
X40850D01*
X40800Y34800D01*
Y34950D01*
Y34850D02*
X40700Y34750D01*
X40950Y34650D02*
X41000Y34600D01*
Y34500D01*
X40950Y34450D01*
X40900D01*
X40850Y34500D01*
X40800Y34450D01*
X40750D01*
X40700Y34500D01*
Y34600D01*
X40750Y34650D01*
X40800D01*
X40850Y34600D01*
X40900Y34650D01*
X40950D01*
X40850Y34600D02*
Y34500D01*
X38300Y31950D02*
X38000D01*
Y32100D01*
X38050Y32150D01*
X38150D01*
X38200Y32100D01*
Y31950D01*
Y32050D02*
X38300Y32150D01*
X38250Y32250D02*
X38300Y32300D01*
Y32400D01*
X38250Y32450D01*
X38050D01*
X38000Y32400D01*
Y32300D01*
X38050Y32250D01*
X38100D01*
X38150Y32300D01*
Y32450D01*
X39000Y24000D02*
X38700D01*
Y24150D01*
X38750Y24200D01*
X38850D01*
X38900Y24150D01*
Y24000D01*
Y24100D02*
X39000Y24200D01*
Y24300D02*
Y24400D01*
Y24350D01*
X38700D01*
X38750Y24300D01*
Y24550D02*
X38700Y24600D01*
Y24700D01*
X38750Y24750D01*
X38950D01*
X39000Y24700D01*
Y24600D01*
X38950Y24550D01*
X38750D01*
X42050Y34150D02*
X41750D01*
Y34300D01*
X41800Y34350D01*
X41900D01*
X41950Y34300D01*
Y34150D01*
Y34250D02*
X42050Y34350D01*
Y34450D02*
Y34550D01*
Y34500D01*
X41750D01*
X41800Y34450D01*
X42050Y34700D02*
Y34800D01*
Y34750D01*
X41750D01*
X41800Y34700D01*
X43500Y17650D02*
Y17950D01*
X43650D01*
X43700Y17900D01*
Y17800D01*
X43650Y17750D01*
X43500D01*
X43600D02*
X43700Y17650D01*
X43800D02*
X43900D01*
X43850D01*
Y17950D01*
X43800Y17900D01*
X44250Y17650D02*
X44050D01*
X44250Y17850D01*
Y17900D01*
X44200Y17950D01*
X44100D01*
X44050Y17900D01*
X44350Y36000D02*
Y35700D01*
X44200D01*
X44150Y35750D01*
Y35850D01*
X44200Y35900D01*
X44350D01*
X44250D02*
X44150Y36000D01*
X44050D02*
X43950D01*
X44000D01*
Y35700D01*
X44050Y35750D01*
X43800D02*
X43750Y35700D01*
X43650D01*
X43600Y35750D01*
Y35800D01*
X43650Y35850D01*
X43700D01*
X43650D01*
X43600Y35900D01*
Y35950D01*
X43650Y36000D01*
X43750D01*
X43800Y35950D01*
X44450Y28150D02*
X44150D01*
Y28300D01*
X44200Y28350D01*
X44300D01*
X44350Y28300D01*
Y28150D01*
Y28250D02*
X44450Y28350D01*
Y28450D02*
Y28550D01*
Y28500D01*
X44150D01*
X44200Y28450D01*
X44150Y28900D02*
Y28700D01*
X44300D01*
X44250Y28800D01*
Y28850D01*
X44300Y28900D01*
X44400D01*
X44450Y28850D01*
Y28750D01*
X44400Y28700D01*
X44485Y33065D02*
Y32765D01*
X44335D01*
X44285Y32815D01*
Y32915D01*
X44335Y32965D01*
X44485D01*
X44385D02*
X44285Y33065D01*
X43985Y32765D02*
X44185D01*
Y32915D01*
X44085Y32865D01*
X44035D01*
X43985Y32915D01*
Y33015D01*
X44035Y33065D01*
X44135D01*
X44185Y33015D01*
X44500Y25600D02*
Y25300D01*
X44350D01*
X44300Y25350D01*
Y25450D01*
X44350Y25500D01*
X44500D01*
X44400D02*
X44300Y25600D01*
X44200D02*
X44100D01*
X44150D01*
Y25300D01*
X44200Y25350D01*
X43800Y25600D02*
Y25300D01*
X43950Y25450D01*
X43750D01*
X39000Y28550D02*
X39250D01*
X39300Y28600D01*
Y28700D01*
X39250Y28750D01*
X39000D01*
X39300Y28850D02*
Y28950D01*
Y28900D01*
X39000D01*
X39050Y28850D01*
X39350Y29100D02*
Y29300D01*
X39300Y29400D02*
X39000D01*
Y29550D01*
X39050Y29600D01*
X39150D01*
X39200Y29550D01*
Y29400D01*
X39300Y29700D02*
Y29800D01*
Y29750D01*
X39000D01*
X39050Y29700D01*
X39650Y36650D02*
Y36900D01*
X39600Y36950D01*
X39500D01*
X39450Y36900D01*
Y36650D01*
X39350Y36950D02*
X39250D01*
X39300D01*
Y36650D01*
X39350Y36700D01*
X39100Y37000D02*
X38900D01*
X38800Y36950D02*
Y36650D01*
X38650D01*
X38600Y36700D01*
Y36800D01*
X38650Y36850D01*
X38800D01*
X38300Y36950D02*
X38500D01*
X38300Y36750D01*
Y36700D01*
X38350Y36650D01*
X38450D01*
X38500Y36700D01*
X38850Y21850D02*
X39150D01*
Y22000D01*
X39100Y22050D01*
X38900D01*
X38850Y22000D01*
Y21850D01*
X39150Y22150D02*
Y22250D01*
Y22200D01*
X38850D01*
X38900Y22150D01*
X40300Y36950D02*
Y36850D01*
Y36900D01*
X40550D01*
X40600Y36850D01*
Y36800D01*
X40550Y36750D01*
X40600Y37250D02*
Y37050D01*
X40400Y37250D01*
X40350D01*
X40300Y37200D01*
Y37100D01*
X40350Y37050D01*
X33360Y35160D02*
Y34910D01*
X33410Y34860D01*
X33510D01*
X33560Y34910D01*
Y35160D01*
X33660Y34860D02*
X33760D01*
X33710D01*
Y35160D01*
X33660Y35110D01*
X35730Y15890D02*
Y15990D01*
Y15940D01*
X35480D01*
X35430Y15990D01*
Y16040D01*
X35480Y16090D01*
X35430Y15590D02*
Y15790D01*
X35630Y15590D01*
X35680D01*
X35730Y15640D01*
Y15740D01*
X35680Y15790D01*
X30810Y37590D02*
Y37690D01*
Y37640D01*
X30560D01*
X30510Y37690D01*
Y37740D01*
X30560Y37790D01*
X30510Y37490D02*
Y37390D01*
Y37440D01*
X30810D01*
X30760Y37490D01*
X34560Y31280D02*
X34310D01*
X34260Y31230D01*
Y31130D01*
X34310Y31080D01*
X34560D01*
X34260Y30780D02*
Y30980D01*
X34460Y30780D01*
X34510D01*
X34560Y30830D01*
Y30930D01*
X34510Y30980D01*
X34860Y32210D02*
X35160D01*
Y32060D01*
X35110Y32010D01*
X35010D01*
X34960Y32060D01*
Y32210D01*
Y32110D02*
X34860Y32010D01*
X35110Y31860D02*
X35060D01*
Y31910D01*
Y31810D01*
Y31860D01*
X34910D01*
X34860Y31810D01*
X34830Y30500D02*
X35130D01*
Y30350D01*
X35080Y30300D01*
X34980D01*
X34930Y30350D01*
Y30500D01*
Y30400D02*
X34830Y30300D01*
Y30200D02*
X35130D01*
X34930D02*
X35030Y30050D01*
X34930Y30200D02*
X34830Y30050D01*
Y29850D02*
X35080D01*
X34980D01*
Y29900D01*
Y29800D01*
Y29850D01*
X35080D01*
X35130Y29800D01*
X34830Y29600D02*
X35080D01*
X34980D01*
Y29650D01*
Y29550D01*
Y29600D01*
X35080D01*
X35130Y29550D01*
X34610Y28110D02*
X34910D01*
Y27960D01*
X34860Y27910D01*
X34760D01*
X34710Y27960D01*
Y28110D01*
Y28010D02*
X34610Y27910D01*
Y27810D02*
Y27710D01*
Y27760D01*
X34810D01*
Y27810D01*
X34610Y27560D02*
Y27460D01*
Y27510D01*
X34910D01*
Y27560D01*
X34610Y27310D02*
Y27210D01*
Y27260D01*
X34810D01*
Y27310D01*
X34610Y27060D02*
X34810D01*
Y27010D01*
X34760Y26960D01*
X34610D01*
X34760D01*
X34810Y26910D01*
X34760Y26860D01*
X34610D01*
X32200Y25180D02*
Y24880D01*
X32050D01*
X32000Y24930D01*
Y25030D01*
X32050Y25080D01*
X32200D01*
X32100D02*
X32000Y25180D01*
X31900Y24880D02*
Y25180D01*
X31750D01*
X31700Y25130D01*
Y25080D01*
Y25030D01*
X31750Y24980D01*
X31900D01*
X31550Y24930D02*
Y24980D01*
X31600D01*
X31500D01*
X31550D01*
Y25130D01*
X31500Y25180D01*
X30660Y29510D02*
X30960D01*
Y29360D01*
X30910Y29310D01*
X30810D01*
X30760Y29360D01*
Y29510D01*
Y29410D02*
X30660Y29310D01*
X30960Y29210D02*
X30660D01*
Y29060D01*
X30710Y29010D01*
X30760D01*
X30810D01*
X30860Y29060D01*
Y29210D01*
X30960Y28910D02*
X30660D01*
Y28760D01*
X30710Y28710D01*
X30760D01*
X30810D01*
X30860Y28760D01*
Y28910D01*
X31610Y27690D02*
X31910D01*
Y27540D01*
X31860Y27490D01*
X31760D01*
X31710Y27540D01*
Y27690D01*
Y27590D02*
X31610Y27490D01*
X31910Y27190D02*
X31860Y27290D01*
X31760Y27390D01*
X31660D01*
X31610Y27340D01*
Y27240D01*
X31660Y27190D01*
X31710D01*
X31760Y27240D01*
Y27390D01*
X32760Y27860D02*
Y28160D01*
X32910D01*
X32960Y28110D01*
Y28010D01*
X32910Y27960D01*
X32760D01*
X32860D02*
X32960Y27860D01*
X33260Y28160D02*
X33060D01*
Y28010D01*
X33160Y28060D01*
X33210D01*
X33260Y28010D01*
Y27910D01*
X33210Y27860D01*
X33110D01*
X33060Y27910D01*
X35360Y34860D02*
X35660D01*
Y34710D01*
X35610Y34660D01*
X35510D01*
X35460Y34710D01*
Y34860D01*
Y34760D02*
X35360Y34660D01*
Y34410D02*
X35660D01*
X35510Y34560D01*
Y34360D01*
X31310Y25180D02*
Y24880D01*
X31160D01*
X31110Y24930D01*
Y25030D01*
X31160Y25080D01*
X31310D01*
X31210D02*
X31110Y25180D01*
X31010Y24930D02*
X30960Y24880D01*
X30860D01*
X30810Y24930D01*
Y24980D01*
X30860Y25030D01*
X30910D01*
X30860D01*
X30810Y25080D01*
Y25130D01*
X30860Y25180D01*
X30960D01*
X31010Y25130D01*
X30760Y32260D02*
X31060D01*
Y32110D01*
X31010Y32060D01*
X30910D01*
X30860Y32110D01*
Y32260D01*
Y32160D02*
X30760Y32060D01*
Y31760D02*
Y31960D01*
X30960Y31760D01*
X31010D01*
X31060Y31810D01*
Y31910D01*
X31010Y31960D01*
X30910Y33860D02*
X30610D01*
Y34010D01*
X30660Y34060D01*
X30760D01*
X30810Y34010D01*
Y33860D01*
Y33960D02*
X30910Y34060D01*
Y34160D02*
Y34260D01*
Y34210D01*
X30610D01*
X30660Y34160D01*
X35210Y26780D02*
X34910D01*
Y26580D01*
Y26480D02*
Y26380D01*
Y26430D01*
X35210D01*
X35160Y26480D01*
X31830Y18780D02*
X31880Y18830D01*
Y18930D01*
X31830Y18980D01*
X31630D01*
X31580Y18930D01*
Y18830D01*
X31630Y18780D01*
X31580Y18680D02*
Y18580D01*
Y18630D01*
X31880D01*
X31830Y18680D01*
Y18430D02*
X31880Y18380D01*
Y18280D01*
X31830Y18230D01*
X31780D01*
X31730Y18280D01*
X31680Y18230D01*
X31630D01*
X31580Y18280D01*
Y18380D01*
X31630Y18430D01*
X31680D01*
X31730Y18380D01*
X31780Y18430D01*
X31830D01*
X31730Y18380D02*
Y18280D01*
X34760Y18560D02*
X34710Y18610D01*
X34610D01*
X34560Y18560D01*
Y18360D01*
X34610Y18310D01*
X34710D01*
X34760Y18360D01*
X34860Y18310D02*
X34960D01*
X34910D01*
Y18610D01*
X34860Y18560D01*
X35310Y18610D02*
X35210Y18560D01*
X35110Y18460D01*
Y18360D01*
X35160Y18310D01*
X35260D01*
X35310Y18360D01*
Y18410D01*
X35260Y18460D01*
X35110D01*
X31010Y20110D02*
X30960Y20060D01*
Y19960D01*
X31010Y19910D01*
X31210D01*
X31260Y19960D01*
Y20060D01*
X31210Y20110D01*
X31260Y20210D02*
Y20310D01*
Y20260D01*
X30960D01*
X31010Y20210D01*
X31260Y20610D02*
X30960D01*
X31110Y20460D01*
Y20660D01*
X32810Y31710D02*
X32760Y31760D01*
X32660D01*
X32610Y31710D01*
Y31510D01*
X32660Y31460D01*
X32760D01*
X32810Y31510D01*
X32910Y31460D02*
X33010D01*
X32960D01*
Y31760D01*
X32910Y31710D01*
X33360Y31460D02*
X33160D01*
X33360Y31660D01*
Y31710D01*
X33310Y31760D01*
X33210D01*
X33160Y31710D01*
X31010Y22110D02*
X30960Y22060D01*
Y21960D01*
X31010Y21910D01*
X31210D01*
X31260Y21960D01*
Y22060D01*
X31210Y22110D01*
X31260Y22210D02*
Y22310D01*
Y22260D01*
X30960D01*
X31010Y22210D01*
X31260Y22460D02*
Y22560D01*
Y22510D01*
X30960D01*
X31010Y22460D01*
X33660Y33110D02*
X33610Y33160D01*
X33510D01*
X33460Y33110D01*
Y32910D01*
X33510Y32860D01*
X33610D01*
X33660Y32910D01*
X33760Y33110D02*
X33810Y33160D01*
X33910D01*
X33960Y33110D01*
Y33060D01*
X33910Y33010D01*
X33960Y32960D01*
Y32910D01*
X33910Y32860D01*
X33810D01*
X33760Y32910D01*
Y32960D01*
X33810Y33010D01*
X33760Y33060D01*
Y33110D01*
X33810Y33010D02*
X33910D01*
X31310Y36700D02*
X31360Y36750D01*
Y36850D01*
X31310Y36900D01*
X31110D01*
X31060Y36850D01*
Y36750D01*
X31110Y36700D01*
X31360Y36600D02*
Y36400D01*
X31310D01*
X31110Y36600D01*
X31060D01*
X35610Y33960D02*
X35660Y34010D01*
Y34110D01*
X35610Y34160D01*
X35410D01*
X35360Y34110D01*
Y34010D01*
X35410Y33960D01*
X35660Y33660D02*
Y33860D01*
X35510D01*
X35560Y33760D01*
Y33710D01*
X35510Y33660D01*
X35410D01*
X35360Y33710D01*
Y33810D01*
X35410Y33860D01*
X35610Y33260D02*
X35660Y33310D01*
Y33410D01*
X35610Y33460D01*
X35410D01*
X35360Y33410D01*
Y33310D01*
X35410Y33260D01*
X35360Y33010D02*
X35660D01*
X35510Y33160D01*
Y32960D01*
X31260Y26070D02*
X31310Y26020D01*
X31410D01*
X31460Y26070D01*
Y26270D01*
X31410Y26320D01*
X31310D01*
X31260Y26270D01*
X31160Y26070D02*
X31110Y26020D01*
X31010D01*
X30960Y26070D01*
Y26120D01*
X31010Y26170D01*
X31060D01*
X31010D01*
X30960Y26220D01*
Y26270D01*
X31010Y26320D01*
X31110D01*
X31160Y26270D01*
X30910Y30510D02*
X30960Y30560D01*
Y30660D01*
X30910Y30710D01*
X30710D01*
X30660Y30660D01*
Y30560D01*
X30710Y30510D01*
X30660Y30210D02*
Y30410D01*
X30860Y30210D01*
X30910D01*
X30960Y30260D01*
Y30360D01*
X30910Y30410D01*
X33060Y17360D02*
X33110Y17310D01*
X33210D01*
X33260Y17360D01*
Y17560D01*
X33210Y17610D01*
X33110D01*
X33060Y17560D01*
X32960Y17610D02*
X32860D01*
X32910D01*
Y17310D01*
X32960Y17360D01*
X32710Y17560D02*
X32660Y17610D01*
X32560D01*
X32510Y17560D01*
Y17360D01*
X32560Y17310D01*
X32660D01*
X32710Y17360D01*
Y17410D01*
X32660Y17460D01*
X32510D01*
X32120Y33120D02*
X32070Y33170D01*
X31970D01*
X31920Y33120D01*
Y32920D01*
X31970Y32870D01*
X32070D01*
X32120Y32920D01*
X32220Y32870D02*
X32320D01*
X32270D01*
Y33170D01*
X32220Y33120D01*
X30090Y38080D02*
Y37980D01*
Y38030D01*
X30390D01*
X30340Y38080D01*
X30090Y37630D02*
Y37830D01*
X30290Y37630D01*
X30340D01*
X30390Y37680D01*
Y37780D01*
X30340Y37830D01*
X30390Y37530D02*
X30190D01*
X30090Y37430D01*
X30190Y37330D01*
X30390D01*
X30090Y36930D02*
Y36830D01*
Y36880D01*
X30290D01*
Y36930D01*
X30090Y36680D02*
X30290D01*
Y36530D01*
X30240Y36481D01*
X30090D01*
X30040Y36331D02*
X30090Y36281D01*
X30140D01*
Y36331D01*
X30090D01*
Y36281D01*
X30040Y36331D01*
X29990Y36381D01*
X30390Y35581D02*
X30340Y35681D01*
X30240Y35781D01*
X30140D01*
X30090Y35731D01*
Y35631D01*
X30140Y35581D01*
X30190D01*
X30240Y35631D01*
Y35781D01*
X30090Y35481D02*
X30290D01*
X30390Y35381D01*
X30290Y35281D01*
X30090D01*
X30240D01*
Y35481D01*
X30090Y34831D02*
Y34731D01*
X30140Y34681D01*
X30240D01*
X30290Y34731D01*
Y34831D01*
X30240Y34881D01*
X30140D01*
X30090Y34831D01*
X30290Y34581D02*
X30140D01*
X30090Y34531D01*
Y34381D01*
X30290D01*
X30340Y34231D02*
X30290D01*
Y34281D01*
Y34181D01*
Y34231D01*
X30140D01*
X30090Y34181D01*
X30040Y33981D02*
X30090Y33931D01*
X30140D01*
Y33981D01*
X30090D01*
Y33931D01*
X30040Y33981D01*
X29990Y34031D01*
X30390Y33431D02*
X30090D01*
Y33282D01*
X30140Y33232D01*
X30190D01*
X30240D01*
X30290Y33282D01*
Y33431D01*
Y33132D02*
X30140D01*
X30090Y33082D01*
Y32932D01*
X30290D01*
Y32632D02*
Y32782D01*
X30240Y32832D01*
X30140D01*
X30090Y32782D01*
Y32632D01*
Y32532D02*
X30390D01*
X30190D02*
X30290Y32382D01*
X30190Y32532D02*
X30090Y32382D01*
X30240Y32232D02*
Y32032D01*
X30390Y31932D02*
X30090D01*
Y31782D01*
X30140Y31732D01*
X30190D01*
X30240D01*
X30290Y31782D01*
Y31932D01*
X30090Y31582D02*
Y31482D01*
X30140Y31432D01*
X30240D01*
X30290Y31482D01*
Y31582D01*
X30240Y31632D01*
X30140D01*
X30090Y31582D01*
Y31282D02*
Y31182D01*
X30140Y31132D01*
X30240D01*
X30290Y31182D01*
Y31282D01*
X30240Y31332D01*
X30140D01*
X30090Y31282D01*
Y31032D02*
Y30882D01*
X30140Y30832D01*
X30190Y30882D01*
Y30982D01*
X30240Y31032D01*
X30290Y30982D01*
Y30832D01*
X30340Y30682D02*
X30290D01*
Y30732D01*
Y30632D01*
Y30682D01*
X30140D01*
X30090Y30632D01*
X30290Y30183D02*
X30090D01*
X30190D01*
X30240Y30133D01*
X30290Y30083D01*
Y30033D01*
X30090Y29733D02*
Y29833D01*
X30140Y29883D01*
X30240D01*
X30290Y29833D01*
Y29733D01*
X30240Y29683D01*
X30190D01*
Y29883D01*
X29990Y29483D02*
Y29433D01*
X30040Y29383D01*
X30290D01*
Y29533D01*
X30240Y29583D01*
X30140D01*
X30090Y29533D01*
Y29383D01*
X30290Y29283D02*
X30140D01*
X30090Y29233D01*
Y29083D01*
X30290D01*
X30090Y28983D02*
Y28883D01*
Y28933D01*
X30390D01*
Y28983D01*
X30290Y28683D02*
Y28583D01*
X30240Y28533D01*
X30090D01*
Y28683D01*
X30140Y28733D01*
X30190Y28683D01*
Y28533D01*
X30340Y28383D02*
X30290D01*
Y28433D01*
Y28333D01*
Y28383D01*
X30140D01*
X30090Y28333D01*
Y28133D02*
Y28033D01*
X30140Y27983D01*
X30240D01*
X30290Y28033D01*
Y28133D01*
X30240Y28183D01*
X30140D01*
X30090Y28133D01*
X30290Y27883D02*
X30090D01*
X30190D01*
X30240Y27833D01*
X30290Y27783D01*
Y27733D01*
X30080Y27090D02*
X30380D01*
X30280Y26990D01*
X30380Y26890D01*
X30080D01*
X30280Y26590D02*
Y26740D01*
X30230Y26790D01*
X30130D01*
X30080Y26740D01*
Y26590D01*
X30330Y26290D02*
X30380Y26340D01*
Y26440D01*
X30330Y26490D01*
X30130D01*
X30080Y26440D01*
Y26340D01*
X30130Y26290D01*
X30230D01*
Y26390D01*
X30080Y26190D02*
Y26090D01*
Y26140D01*
X30280D01*
Y26190D01*
X30080Y25940D02*
Y25840D01*
Y25890D01*
X30380D01*
Y25940D01*
X30080Y25690D02*
Y25590D01*
Y25640D01*
X30380D01*
Y25690D01*
X30330Y24941D02*
X30380Y24991D01*
Y25091D01*
X30330Y25141D01*
X30130D01*
X30080Y25091D01*
Y24991D01*
X30130Y24941D01*
X30080Y24791D02*
Y24691D01*
X30130Y24641D01*
X30230D01*
X30280Y24691D01*
Y24791D01*
X30230Y24841D01*
X30130D01*
X30080Y24791D01*
Y24541D02*
Y24391D01*
X30130Y24341D01*
X30180Y24391D01*
Y24491D01*
X30230Y24541D01*
X30280Y24491D01*
Y24341D01*
X30080Y24241D02*
X30280D01*
Y24191D01*
X30230Y24141D01*
X30080D01*
X30230D01*
X30280Y24091D01*
X30230Y24041D01*
X30080D01*
Y23891D02*
Y23791D01*
X30130Y23741D01*
X30230D01*
X30280Y23791D01*
Y23891D01*
X30230Y23941D01*
X30130D01*
X30080Y23891D01*
Y23641D02*
Y23541D01*
Y23591D01*
X30380D01*
Y23641D01*
X30080Y23341D02*
Y23241D01*
X30130Y23191D01*
X30230D01*
X30280Y23241D01*
Y23341D01*
X30230Y23391D01*
X30130D01*
X30080Y23341D01*
X29980Y22991D02*
Y22941D01*
X30030Y22891D01*
X30280D01*
Y23041D01*
X30230Y23091D01*
X30130D01*
X30080Y23041D01*
Y22891D01*
X30280Y22791D02*
X30130D01*
X30080Y22741D01*
Y22591D01*
X30030D01*
X29980Y22641D01*
Y22691D01*
X30080Y22591D02*
X30280D01*
X30330Y21992D02*
X30380Y22042D01*
Y22142D01*
X30330Y22192D01*
X30280D01*
X30230Y22142D01*
Y22042D01*
X30180Y21992D01*
X30130D01*
X30080Y22042D01*
Y22142D01*
X30130Y22192D01*
X30080Y21742D02*
Y21842D01*
X30130Y21892D01*
X30230D01*
X30280Y21842D01*
Y21742D01*
X30230Y21692D01*
X30180D01*
Y21892D01*
X29980Y21592D02*
X30280D01*
Y21442D01*
X30230Y21392D01*
X30130D01*
X30080Y21442D01*
Y21592D01*
X30330Y21242D02*
X30280D01*
Y21292D01*
Y21192D01*
Y21242D01*
X30130D01*
X30080Y21192D01*
Y20542D02*
Y20742D01*
X30280Y20542D01*
X30330D01*
X30380Y20592D01*
Y20692D01*
X30330Y20742D01*
Y20442D02*
X30380Y20392D01*
Y20292D01*
X30330Y20242D01*
X30130D01*
X30080Y20292D01*
Y20392D01*
X30130Y20442D01*
X30330D01*
X30080Y20142D02*
Y20042D01*
Y20092D01*
X30380D01*
X30330Y20142D01*
X30080Y19892D02*
Y19792D01*
Y19842D01*
X30380D01*
X30330Y19892D01*
X13480Y34750D02*
X13430Y34800D01*
X13330D01*
X13280Y34750D01*
Y34550D01*
X13330Y34500D01*
X13430D01*
X13480Y34550D01*
X13580Y34500D02*
X13680D01*
X13630D01*
Y34800D01*
X13580Y34750D01*
X12340Y32150D02*
X12390Y32200D01*
Y32300D01*
X12340Y32350D01*
X12140D01*
X12090Y32300D01*
Y32200D01*
X12140Y32150D01*
X12090Y31850D02*
Y32050D01*
X12290Y31850D01*
X12340D01*
X12390Y31900D01*
Y32000D01*
X12340Y32050D01*
X12160Y27490D02*
X12110Y27540D01*
X12010D01*
X11960Y27490D01*
Y27290D01*
X12010Y27240D01*
X12110D01*
X12160Y27290D01*
X12410Y27240D02*
Y27540D01*
X12260Y27390D01*
X12460D01*
X12710Y36540D02*
X12760Y36590D01*
Y36690D01*
X12710Y36740D01*
X12510D01*
X12460Y36690D01*
Y36590D01*
X12510Y36540D01*
X12760Y36440D02*
Y36240D01*
X12710D01*
X12510Y36440D01*
X12460D01*
X15090Y34770D02*
X15040Y34820D01*
X14940D01*
X14890Y34770D01*
Y34570D01*
X14940Y34520D01*
X15040D01*
X15090Y34570D01*
X15190Y34770D02*
X15240Y34820D01*
X15340D01*
X15390Y34770D01*
Y34720D01*
X15340Y34670D01*
X15390Y34620D01*
Y34570D01*
X15340Y34520D01*
X15240D01*
X15190Y34570D01*
Y34620D01*
X15240Y34670D01*
X15190Y34720D01*
Y34770D01*
X15240Y34670D02*
X15340D01*
X16780Y23370D02*
X16830Y23420D01*
Y23520D01*
X16780Y23570D01*
X16580D01*
X16530Y23520D01*
Y23420D01*
X16580Y23370D01*
X16530Y23270D02*
Y23170D01*
Y23220D01*
X16830D01*
X16780Y23270D01*
X16530Y23020D02*
Y22920D01*
Y22970D01*
X16830D01*
X16780Y23020D01*
X14120Y33350D02*
X14070Y33400D01*
X13970D01*
X13920Y33350D01*
Y33150D01*
X13970Y33100D01*
X14070D01*
X14120Y33150D01*
X14220Y33100D02*
X14320D01*
X14270D01*
Y33400D01*
X14220Y33350D01*
X14670Y33100D02*
X14470D01*
X14670Y33300D01*
Y33350D01*
X14620Y33400D01*
X14520D01*
X14470Y33350D01*
X16780Y21030D02*
X16830Y21080D01*
Y21180D01*
X16780Y21230D01*
X16580D01*
X16530Y21180D01*
Y21080D01*
X16580Y21030D01*
X16530Y20930D02*
Y20830D01*
Y20880D01*
X16830D01*
X16780Y20930D01*
X16530Y20530D02*
X16830D01*
X16680Y20680D01*
Y20480D01*
X16760Y18990D02*
X16810Y19040D01*
Y19140D01*
X16760Y19190D01*
X16560D01*
X16510Y19140D01*
Y19040D01*
X16560Y18990D01*
X16510Y18890D02*
Y18790D01*
Y18840D01*
X16810D01*
X16760Y18890D01*
X16810Y18440D02*
X16760Y18540D01*
X16660Y18640D01*
X16560D01*
X16510Y18590D01*
Y18490D01*
X16560Y18440D01*
X16610D01*
X16660Y18490D01*
Y18640D01*
X13780Y26050D02*
X13980D01*
X14030Y26100D01*
Y26200D01*
X13980Y26250D01*
X13780D01*
X13730Y26200D01*
Y26100D01*
X13830Y26150D02*
X13730Y26050D01*
Y26100D02*
X13780Y26050D01*
X13730Y25950D02*
Y25850D01*
Y25900D01*
X14030D01*
X13980Y25950D01*
X13930Y19680D02*
Y19980D01*
X14080D01*
X14130Y19930D01*
Y19830D01*
X14080Y19780D01*
X13930D01*
X14030D02*
X14130Y19680D01*
X14230D02*
X14330D01*
X14280D01*
Y19980D01*
X14230Y19930D01*
X12620Y34500D02*
Y34800D01*
X12770D01*
X12820Y34750D01*
Y34650D01*
X12770Y34600D01*
X12620D01*
X12720D02*
X12820Y34500D01*
X13120D02*
X12920D01*
X13120Y34700D01*
Y34750D01*
X13070Y34800D01*
X12970D01*
X12920Y34750D01*
X14830Y28080D02*
Y28380D01*
X14980D01*
X15030Y28330D01*
Y28230D01*
X14980Y28180D01*
X14830D01*
X14930D02*
X15030Y28080D01*
X15330Y28380D02*
X15130D01*
Y28230D01*
X15230Y28280D01*
X15280D01*
X15330Y28230D01*
Y28130D01*
X15280Y28080D01*
X15180D01*
X15130Y28130D01*
X13030Y29110D02*
X13330D01*
Y28960D01*
X13280Y28910D01*
X13180D01*
X13130Y28960D01*
Y29110D01*
Y29010D02*
X13030Y28910D01*
X13330Y28610D02*
X13280Y28710D01*
X13180Y28810D01*
X13080D01*
X13030Y28760D01*
Y28660D01*
X13080Y28610D01*
X13130D01*
X13180Y28660D01*
Y28810D01*
X12090Y31150D02*
X12390D01*
Y31000D01*
X12340Y30950D01*
X12240D01*
X12190Y31000D01*
Y31150D01*
Y31050D02*
X12090Y30950D01*
X12390Y30850D02*
X12090D01*
Y30700D01*
X12140Y30650D01*
X12190D01*
X12240D01*
X12290Y30700D01*
Y30850D01*
X12390Y30550D02*
X12090D01*
Y30400D01*
X12140Y30350D01*
X12190D01*
X12240D01*
X12290Y30400D01*
Y30550D01*
X16040Y29750D02*
X16340D01*
Y29600D01*
X16290Y29550D01*
X16190D01*
X16140Y29600D01*
Y29750D01*
Y29650D02*
X16040Y29550D01*
Y29450D02*
Y29350D01*
Y29400D01*
X16240D01*
Y29450D01*
X16040Y29200D02*
Y29100D01*
Y29150D01*
X16340D01*
Y29200D01*
X16040Y28950D02*
Y28850D01*
Y28900D01*
X16240D01*
Y28950D01*
X16040Y28700D02*
X16240D01*
Y28650D01*
X16190Y28600D01*
X16040D01*
X16190D01*
X16240Y28550D01*
X16190Y28500D01*
X16040D01*
X16260Y32140D02*
X16560D01*
Y31990D01*
X16510Y31940D01*
X16410D01*
X16360Y31990D01*
Y32140D01*
Y32040D02*
X16260Y31940D01*
Y31840D02*
X16560D01*
X16360D02*
X16460Y31690D01*
X16360Y31840D02*
X16260Y31690D01*
Y31490D02*
X16510D01*
X16410D01*
Y31540D01*
Y31440D01*
Y31490D01*
X16510D01*
X16560Y31440D01*
X16260Y31240D02*
X16510D01*
X16410D01*
Y31290D01*
Y31190D01*
Y31240D01*
X16510D01*
X16560Y31190D01*
X15700Y34510D02*
Y34810D01*
X15850D01*
X15900Y34760D01*
Y34660D01*
X15850Y34610D01*
X15700D01*
X15800D02*
X15900Y34510D01*
X16050Y34760D02*
Y34710D01*
X16000D01*
X16100D01*
X16050D01*
Y34560D01*
X16100Y34510D01*
X12250Y37460D02*
Y37560D01*
Y37510D01*
X12000D01*
X11950Y37560D01*
Y37610D01*
X12000Y37660D01*
X11950Y37360D02*
Y37260D01*
Y37310D01*
X12250D01*
X12200Y37360D01*
X17140Y17090D02*
Y17190D01*
Y17140D01*
X16890D01*
X16840Y17190D01*
Y17240D01*
X16890Y17290D01*
X16840Y16790D02*
Y16990D01*
X17040Y16790D01*
X17090D01*
X17140Y16840D01*
Y16940D01*
X17090Y16990D01*
X13110Y25610D02*
X12860D01*
X12810Y25560D01*
Y25460D01*
X12860Y25410D01*
X13110D01*
X12810Y25310D02*
Y25210D01*
Y25260D01*
X13110D01*
X13060Y25310D01*
X15960Y32940D02*
X15710D01*
X15660Y32890D01*
Y32790D01*
X15710Y32740D01*
X15960D01*
X15660Y32440D02*
Y32640D01*
X15860Y32440D01*
X15910D01*
X15960Y32490D01*
Y32590D01*
X15910Y32640D01*
X11580Y36230D02*
Y36130D01*
Y36180D01*
X11880D01*
X11830Y36230D01*
X11580Y35780D02*
Y35980D01*
X11780Y35780D01*
X11830D01*
X11880Y35830D01*
Y35930D01*
X11830Y35980D01*
X11880Y35680D02*
X11680D01*
X11580Y35580D01*
X11680Y35480D01*
X11880D01*
X11580Y35080D02*
Y34980D01*
Y35030D01*
X11780D01*
Y35080D01*
X11580Y34830D02*
X11780D01*
Y34681D01*
X11730Y34631D01*
X11580D01*
X11530Y34481D02*
X11580Y34431D01*
X11630D01*
Y34481D01*
X11580D01*
Y34431D01*
X11530Y34481D01*
X11480Y34531D01*
X11880Y33731D02*
X11830Y33831D01*
X11730Y33931D01*
X11630D01*
X11580Y33881D01*
Y33781D01*
X11630Y33731D01*
X11680D01*
X11730Y33781D01*
Y33931D01*
X11580Y33631D02*
X11780D01*
X11880Y33531D01*
X11780Y33431D01*
X11580D01*
X11730D01*
Y33631D01*
X11580Y32981D02*
Y32881D01*
X11630Y32831D01*
X11730D01*
X11780Y32881D01*
Y32981D01*
X11730Y33031D01*
X11630D01*
X11580Y32981D01*
X11780Y32731D02*
X11630D01*
X11580Y32681D01*
Y32531D01*
X11780D01*
X11830Y32381D02*
X11780D01*
Y32431D01*
Y32331D01*
Y32381D01*
X11630D01*
X11580Y32331D01*
X11530Y32131D02*
X11580Y32081D01*
X11630D01*
Y32131D01*
X11580D01*
Y32081D01*
X11530Y32131D01*
X11480Y32181D01*
X11880Y31581D02*
X11580D01*
Y31432D01*
X11630Y31382D01*
X11680D01*
X11730D01*
X11780Y31432D01*
Y31581D01*
Y31282D02*
X11630D01*
X11580Y31232D01*
Y31082D01*
X11780D01*
Y30782D02*
Y30932D01*
X11730Y30982D01*
X11630D01*
X11580Y30932D01*
Y30782D01*
Y30682D02*
X11880D01*
X11680D02*
X11780Y30532D01*
X11680Y30682D02*
X11580Y30532D01*
X11780Y30082D02*
X11580D01*
X11680D01*
X11730Y30032D01*
X11780Y29982D01*
Y29932D01*
X11580Y29632D02*
Y29732D01*
X11630Y29782D01*
X11730D01*
X11780Y29732D01*
Y29632D01*
X11730Y29582D01*
X11680D01*
Y29782D01*
X11480Y29382D02*
Y29332D01*
X11530Y29282D01*
X11780D01*
Y29432D01*
X11730Y29482D01*
X11630D01*
X11580Y29432D01*
Y29282D01*
X11780Y29182D02*
X11630D01*
X11580Y29132D01*
Y28982D01*
X11780D01*
X11580Y28882D02*
Y28782D01*
Y28832D01*
X11880D01*
Y28882D01*
X11780Y28582D02*
Y28483D01*
X11730Y28433D01*
X11580D01*
Y28582D01*
X11630Y28632D01*
X11680Y28582D01*
Y28433D01*
X11830Y28283D02*
X11780D01*
Y28333D01*
Y28233D01*
Y28283D01*
X11630D01*
X11580Y28233D01*
Y28033D02*
Y27933D01*
X11630Y27883D01*
X11730D01*
X11780Y27933D01*
Y28033D01*
X11730Y28083D01*
X11630D01*
X11580Y28033D01*
X11780Y27783D02*
X11580D01*
X11680D01*
X11730Y27733D01*
X11780Y27683D01*
Y27633D01*
D59*
X20320Y16020D02*
D03*
X20410Y39270D02*
D03*
X26670Y14460D02*
D03*
X26730Y39400D02*
D03*
X32860Y14460D02*
D03*
X32920Y39400D02*
D03*
X14270Y16020D02*
D03*
X14360Y39270D02*
D03*
M02*
