%FSLAX24Y24*%
%MOIN*%
G70*
G01*
G75*
G04 Layer_Color=16711935*
%ADD10R,0.0140X0.0400*%
%ADD11R,0.0450X0.0600*%
%ADD12R,0.0320X0.0360*%
%ADD13R,0.0394X0.1063*%
%ADD14R,0.0394X0.1063*%
%ADD15R,0.1004X0.1063*%
%ADD16R,0.0360X0.0320*%
%ADD17R,0.0260X0.0800*%
%ADD18O,0.0138X0.0669*%
%ADD19R,0.1063X0.1102*%
%ADD20C,0.1000*%
%ADD21C,0.0500*%
%ADD22C,0.0200*%
%ADD23C,0.0100*%
%ADD24C,0.0750*%
%ADD25R,0.0260X0.0500*%
%ADD26R,0.1063X0.0866*%
%ADD27C,0.0600*%
%ADD28R,0.0394X0.0394*%
%ADD29R,0.1028X0.0339*%
%ADD30R,0.0650X0.0701*%
%ADD31R,0.1402X0.1799*%
%ADD32R,0.0598X0.0598*%
%ADD33R,0.0385X0.0520*%
%ADD34R,0.0520X0.0385*%
%ADD35R,0.0846X0.0532*%
%ADD36R,0.0532X0.0846*%
%ADD37R,0.0400X0.0140*%
%ADD38R,0.0700X0.0700*%
%ADD39C,0.0700*%
%ADD40C,0.0200*%
%ADD41C,0.0280*%
%ADD42C,0.0500*%
%ADD43C,0.0260*%
%ADD44C,0.1000*%
%ADD45C,0.1100*%
%ADD46C,0.0600*%
%ADD47C,0.0591*%
%ADD48R,0.0591X0.0591*%
%ADD49C,0.0252*%
%ADD50C,0.1024*%
%ADD51R,0.0800X0.0260*%
%ADD52C,0.0400*%
%ADD53C,0.0250*%
%ADD54C,0.0079*%
%ADD55C,0.0098*%
%ADD56C,0.0060*%
%ADD57C,0.0080*%
%ADD58C,0.0050*%
%ADD59R,0.4000X0.0500*%
%ADD60R,0.0220X0.0480*%
%ADD61R,0.0530X0.0680*%
%ADD62R,0.0400X0.0440*%
%ADD63R,0.0474X0.1143*%
%ADD64R,0.0474X0.1143*%
%ADD65R,0.1084X0.1143*%
%ADD66R,0.0440X0.0400*%
%ADD67R,0.0340X0.0880*%
%ADD68O,0.0218X0.0749*%
%ADD69R,0.1143X0.1182*%
%ADD70R,0.0340X0.0580*%
%ADD71R,0.1143X0.0946*%
%ADD72R,0.0474X0.0474*%
%ADD73R,0.1108X0.0419*%
%ADD74R,0.0730X0.0781*%
%ADD75R,0.1482X0.1879*%
%ADD76R,0.0678X0.0678*%
%ADD77R,0.0465X0.0600*%
%ADD78R,0.0600X0.0465*%
%ADD79R,0.0926X0.0612*%
%ADD80R,0.0612X0.0926*%
%ADD81R,0.0480X0.0220*%
%ADD82R,0.0780X0.0780*%
%ADD83C,0.0780*%
%ADD84C,0.0360*%
%ADD85C,0.0580*%
%ADD86C,0.1080*%
%ADD87C,0.1180*%
%ADD88C,0.0680*%
%ADD89C,0.0671*%
%ADD90R,0.0671X0.0671*%
%ADD91C,0.0332*%
%ADD92C,0.1104*%
%ADD93R,0.0880X0.0340*%
%ADD94C,0.0340*%
D41*
X20490Y33100D02*
D03*
X19065Y30075D02*
D03*
X20518Y29822D02*
D03*
X20006Y29834D02*
D03*
X19530Y32010D02*
D03*
X18110Y25370D02*
D03*
X19980Y27400D02*
D03*
X19510Y27920D02*
D03*
X25860Y30370D02*
D03*
Y16980D02*
D03*
X26420Y25710D02*
D03*
X26430Y26210D02*
D03*
X24020Y19260D02*
D03*
X25420Y33210D02*
D03*
X26336Y28194D02*
D03*
X26848Y28182D02*
D03*
X25720Y18610D02*
D03*
X26120Y17610D02*
D03*
X27670Y18710D02*
D03*
X25395Y28435D02*
D03*
X27670Y33410D02*
D03*
X26870Y33360D02*
D03*
Y35060D02*
D03*
X26820Y31460D02*
D03*
X26370Y33060D02*
D03*
X38800Y13850D02*
D03*
X37700Y15050D02*
D03*
X40050Y13800D02*
D03*
X37650Y13700D02*
D03*
X37300Y31900D02*
D03*
X38900Y19050D02*
D03*
Y17950D02*
D03*
X38850Y16650D02*
D03*
X40700Y16550D02*
D03*
X44400Y17850D02*
D03*
Y25150D02*
D03*
X44450Y22200D02*
D03*
X44350Y31150D02*
D03*
X44400Y29300D02*
D03*
X44300Y32150D02*
D03*
X36950Y38600D02*
D03*
X39902Y38837D02*
D03*
X38300Y38747D02*
D03*
X38800Y39400D02*
D03*
X37300D02*
D03*
X38900Y34050D02*
D03*
X37300Y33200D02*
D03*
X38450Y25100D02*
D03*
X42100Y16800D02*
D03*
X43800Y14900D02*
D03*
X42700Y13850D02*
D03*
X41650Y14800D02*
D03*
X42750Y38900D02*
D03*
X43850Y37850D02*
D03*
X41700D02*
D03*
X41800Y33500D02*
D03*
X41050Y34300D02*
D03*
X39420Y32903D02*
D03*
X40850Y32850D02*
D03*
X40600Y25150D02*
D03*
X40350Y26650D02*
D03*
X41650Y25150D02*
D03*
X38950Y15050D02*
D03*
X40500D02*
D03*
X40650Y15700D02*
D03*
X39750Y14700D02*
D03*
X38850Y15750D02*
D03*
Y20450D02*
D03*
X42100Y23000D02*
D03*
X41800Y18100D02*
D03*
X42050Y20200D02*
D03*
X41800Y20750D02*
D03*
X41400Y20250D02*
D03*
X40400D02*
D03*
X41450Y19050D02*
D03*
X40400D02*
D03*
X42100Y17350D02*
D03*
X41950Y18800D02*
D03*
X40900Y17300D02*
D03*
X40800Y39400D02*
D03*
Y38050D02*
D03*
X41200Y27150D02*
D03*
X40250Y28000D02*
D03*
X39650Y27000D02*
D03*
X38700Y22950D02*
D03*
X37300Y23200D02*
D03*
X37850Y24150D02*
D03*
X37650Y25550D02*
D03*
X37700Y32400D02*
D03*
X37850Y33600D02*
D03*
X38200Y31750D02*
D03*
X38900Y23800D02*
D03*
X42200Y25250D02*
D03*
X42050Y26350D02*
D03*
X42100Y27700D02*
D03*
X42200Y32950D02*
D03*
X42000Y33900D02*
D03*
X41950Y35000D02*
D03*
X41550Y35300D02*
D03*
X42100Y35800D02*
D03*
X43750Y26750D02*
D03*
X43350D02*
D03*
X43700Y34450D02*
D03*
X43250D02*
D03*
X43350Y33150D02*
D03*
Y32700D02*
D03*
Y32200D02*
D03*
Y31200D02*
D03*
X43750Y28950D02*
D03*
Y28350D02*
D03*
X43350D02*
D03*
Y28950D02*
D03*
X43750Y20600D02*
D03*
X43350Y21050D02*
D03*
X43400Y24400D02*
D03*
Y23550D02*
D03*
Y24900D02*
D03*
Y25350D02*
D03*
X43777Y21003D02*
D03*
X43350Y20600D02*
D03*
X44400Y16700D02*
D03*
X43247Y16703D02*
D03*
X43300Y17950D02*
D03*
X41750Y23450D02*
D03*
X41300D02*
D03*
X40550D02*
D03*
X39850Y23400D02*
D03*
X39854Y22797D02*
D03*
X39850Y22200D02*
D03*
Y21550D02*
D03*
Y20900D02*
D03*
X40550D02*
D03*
X41100D02*
D03*
X41550Y20950D02*
D03*
X42050Y21200D02*
D03*
X43350Y21600D02*
D03*
X43400Y22950D02*
D03*
X43350Y30700D02*
D03*
Y29450D02*
D03*
X42025Y30950D02*
D03*
X41350Y31300D02*
D03*
X40950D02*
D03*
X39900D02*
D03*
X39800Y30750D02*
D03*
Y30100D02*
D03*
Y29450D02*
D03*
Y28750D02*
D03*
X40450D02*
D03*
X41050D02*
D03*
X41550D02*
D03*
X42050Y28950D02*
D03*
X43900Y30050D02*
D03*
X43750Y30450D02*
D03*
Y29700D02*
D03*
X43700Y22650D02*
D03*
X43850Y22200D02*
D03*
X43700Y21750D02*
D03*
X38850Y35200D02*
D03*
X38100Y35400D02*
D03*
X38500Y36342D02*
D03*
X37750Y29700D02*
D03*
X38692Y29300D02*
D03*
X37550Y28950D02*
D03*
X32050Y30370D02*
D03*
Y16980D02*
D03*
X32610Y25710D02*
D03*
X32620Y26210D02*
D03*
X30210Y19260D02*
D03*
X31610Y33210D02*
D03*
X32526Y28194D02*
D03*
X33038Y28182D02*
D03*
X31910Y18610D02*
D03*
X32310Y17610D02*
D03*
X33860Y18710D02*
D03*
X31585Y28435D02*
D03*
X33860Y33410D02*
D03*
X33060Y33360D02*
D03*
Y35060D02*
D03*
X33010Y31460D02*
D03*
X32560Y33060D02*
D03*
X14440Y33100D02*
D03*
X13015Y30075D02*
D03*
X14468Y29822D02*
D03*
X13956Y29834D02*
D03*
X13480Y32010D02*
D03*
X12060Y25370D02*
D03*
X13930Y27400D02*
D03*
X13460Y27920D02*
D03*
D62*
X18070Y21210D02*
D03*
Y20610D02*
D03*
X18060Y19180D02*
D03*
Y19780D02*
D03*
Y22480D02*
D03*
Y23080D02*
D03*
X12020Y21210D02*
D03*
Y20610D02*
D03*
X12010Y19180D02*
D03*
Y19780D02*
D03*
Y22480D02*
D03*
Y23080D02*
D03*
D65*
X19230Y23120D02*
D03*
X21730D02*
D03*
X19230Y20990D02*
D03*
X21730D02*
D03*
X19660Y35900D02*
D03*
X22160D02*
D03*
X28520Y36060D02*
D03*
X26020D02*
D03*
X25920Y20160D02*
D03*
X28420D02*
D03*
X25920Y22360D02*
D03*
X28420D02*
D03*
X34710Y36060D02*
D03*
X32210D02*
D03*
X32110Y20160D02*
D03*
X34610D02*
D03*
X32110Y22360D02*
D03*
X34610D02*
D03*
X13180Y23120D02*
D03*
X15680D02*
D03*
X13180Y20990D02*
D03*
X15680D02*
D03*
X13610Y35900D02*
D03*
X16110D02*
D03*
D66*
X20490Y29250D02*
D03*
X21090D02*
D03*
X20340Y30400D02*
D03*
X19740D02*
D03*
X21690D02*
D03*
X21090D02*
D03*
X27420Y28760D02*
D03*
X28020D02*
D03*
X26070D02*
D03*
X26670D02*
D03*
X27420Y27610D02*
D03*
X26820D02*
D03*
X33610Y28760D02*
D03*
X34210D02*
D03*
X32260D02*
D03*
X32860D02*
D03*
X33610Y27610D02*
D03*
X33010D02*
D03*
X14440Y29250D02*
D03*
X15040D02*
D03*
X14290Y30400D02*
D03*
X13690D02*
D03*
X15640D02*
D03*
X15040D02*
D03*
D70*
X26195Y34610D02*
D03*
X25445D02*
D03*
X26195Y33610D02*
D03*
X25445D02*
D03*
X25820Y34610D02*
D03*
X32385D02*
D03*
X31635D02*
D03*
X32385Y33610D02*
D03*
X31635D02*
D03*
X32010Y34610D02*
D03*
D71*
X21500Y25630D02*
D03*
X19492D02*
D03*
X15450D02*
D03*
X13442D02*
D03*
D79*
X37550Y36342D02*
D03*
Y35200D02*
D03*
X39500Y36342D02*
D03*
Y35200D02*
D03*
D80*
X38692Y28300D02*
D03*
X37550D02*
D03*
X38692Y30250D02*
D03*
X37550D02*
D03*
D82*
X18820Y17020D02*
D03*
X21910Y38270D02*
D03*
X25170Y15460D02*
D03*
X28230Y38400D02*
D03*
X31360Y15460D02*
D03*
X34420Y38400D02*
D03*
X12770Y17020D02*
D03*
X15860Y38270D02*
D03*
D83*
X19820Y17020D02*
D03*
X20820D02*
D03*
X21820D02*
D03*
X20910Y38270D02*
D03*
X19910D02*
D03*
X18910D02*
D03*
X26170Y15460D02*
D03*
X27170D02*
D03*
X28170D02*
D03*
X27230Y38400D02*
D03*
X26230D02*
D03*
X25230D02*
D03*
X32360Y15460D02*
D03*
X33360D02*
D03*
X34360D02*
D03*
X33420Y38400D02*
D03*
X32420D02*
D03*
X31420D02*
D03*
X13770Y17020D02*
D03*
X14770D02*
D03*
X15770D02*
D03*
X14860Y38270D02*
D03*
X13860D02*
D03*
X12860D02*
D03*
D84*
X21040Y28800D02*
D03*
X27370Y27160D02*
D03*
X33560D02*
D03*
X14990Y28800D02*
D03*
D85*
X22890Y34180D02*
D03*
Y32680D02*
D03*
Y30770D02*
D03*
Y28740D02*
D03*
Y26590D02*
D03*
Y23970D02*
D03*
Y21770D02*
D03*
Y19290D02*
D03*
X18140Y17640D02*
D03*
X18790Y35880D02*
D03*
X18190Y33080D02*
D03*
Y28180D02*
D03*
X18140Y30000D02*
D03*
X21830Y24550D02*
D03*
X21170D02*
D03*
X20470Y24540D02*
D03*
X19210Y24720D02*
D03*
X19200Y22040D02*
D03*
X19060Y19850D02*
D03*
X25150Y36040D02*
D03*
X24470Y16000D02*
D03*
X29220Y17650D02*
D03*
Y20130D02*
D03*
Y22330D02*
D03*
Y24950D02*
D03*
Y27100D02*
D03*
Y29130D02*
D03*
Y31040D02*
D03*
Y32540D02*
D03*
X27070Y25790D02*
D03*
X27080Y23980D02*
D03*
X25920Y21310D02*
D03*
X25270Y19510D02*
D03*
X27860Y23960D02*
D03*
Y26460D02*
D03*
X31340Y36040D02*
D03*
X30660Y16000D02*
D03*
X35410Y17650D02*
D03*
Y20130D02*
D03*
Y22330D02*
D03*
Y24950D02*
D03*
Y27100D02*
D03*
Y29130D02*
D03*
Y31040D02*
D03*
Y32540D02*
D03*
X33260Y25790D02*
D03*
X33270Y23980D02*
D03*
X32110Y21310D02*
D03*
X31460Y19510D02*
D03*
X34050Y23960D02*
D03*
Y26460D02*
D03*
X16840Y34180D02*
D03*
Y32680D02*
D03*
Y30770D02*
D03*
Y28740D02*
D03*
Y26590D02*
D03*
Y23970D02*
D03*
Y21770D02*
D03*
Y19290D02*
D03*
X12090Y17640D02*
D03*
X12740Y35880D02*
D03*
X12140Y33080D02*
D03*
Y28180D02*
D03*
X12090Y30000D02*
D03*
X15780Y24550D02*
D03*
X15120D02*
D03*
X14420Y24540D02*
D03*
X13160Y24720D02*
D03*
X13150Y22040D02*
D03*
X13010Y19850D02*
D03*
D86*
X42700Y14850D02*
D03*
Y37900D02*
D03*
D87*
X43700Y13850D02*
D03*
X41700D02*
D03*
Y15850D02*
D03*
X43700D02*
D03*
X41700Y36900D02*
D03*
X43700D02*
D03*
Y38900D02*
D03*
X41700D02*
D03*
D88*
X39700Y18423D02*
D03*
Y19604D02*
D03*
X40881Y18423D02*
D03*
D89*
X37650Y38000D02*
D03*
X38650D02*
D03*
D90*
X39650D02*
D03*
D91*
X41028Y30341D02*
D03*
Y29759D02*
D03*
X40565Y29471D02*
D03*
Y30629D02*
D03*
Y30050D02*
D03*
X42061D02*
D03*
X41599D02*
D03*
X43469D02*
D03*
X41028Y22491D02*
D03*
Y21909D02*
D03*
X40565Y21621D02*
D03*
Y22779D02*
D03*
Y22200D02*
D03*
X42061D02*
D03*
X41599D02*
D03*
X43469D02*
D03*
D92*
X37700Y21278D02*
D03*
Y16750D02*
D03*
D93*
X24870Y18210D02*
D03*
X26920Y18710D02*
D03*
Y18210D02*
D03*
Y17710D02*
D03*
X24870Y17210D02*
D03*
Y17710D02*
D03*
Y18710D02*
D03*
X26920Y17210D02*
D03*
X25820Y25460D02*
D03*
X27870Y25960D02*
D03*
Y25460D02*
D03*
Y24960D02*
D03*
X25820Y24460D02*
D03*
Y24960D02*
D03*
Y25960D02*
D03*
X27870Y24460D02*
D03*
X31060Y18210D02*
D03*
X33110Y18710D02*
D03*
Y18210D02*
D03*
Y17710D02*
D03*
X31060Y17210D02*
D03*
Y17710D02*
D03*
Y18710D02*
D03*
X33110Y17210D02*
D03*
X32010Y25460D02*
D03*
X34060Y25960D02*
D03*
Y25460D02*
D03*
Y24960D02*
D03*
X32010Y24460D02*
D03*
Y24960D02*
D03*
Y25960D02*
D03*
X34060Y24460D02*
D03*
D94*
X20636Y31756D02*
D03*
Y31284D02*
D03*
X20164Y31756D02*
D03*
Y31284D02*
D03*
X26484Y29574D02*
D03*
Y30046D02*
D03*
X26956Y29574D02*
D03*
Y30046D02*
D03*
X32674Y29574D02*
D03*
Y30046D02*
D03*
X33146Y29574D02*
D03*
Y30046D02*
D03*
X14586Y31756D02*
D03*
Y31284D02*
D03*
X14114Y31756D02*
D03*
Y31284D02*
D03*
M02*
