%FSLAX24Y24*%
%MOIN*%
G70*
G01*
G75*
G04 Layer_Color=8388736*
%ADD10R,0.0140X0.0400*%
%ADD11R,0.0450X0.0600*%
%ADD12R,0.0320X0.0360*%
%ADD13R,0.0394X0.1063*%
%ADD14R,0.0394X0.1063*%
%ADD15R,0.1004X0.1063*%
%ADD16R,0.0360X0.0320*%
%ADD17R,0.0260X0.0800*%
%ADD18O,0.0138X0.0669*%
%ADD19R,0.1063X0.1102*%
%ADD20C,0.1000*%
%ADD21C,0.0500*%
%ADD22C,0.0200*%
%ADD23C,0.0100*%
%ADD24C,0.0750*%
%ADD25R,0.0260X0.0500*%
%ADD26R,0.1063X0.0866*%
%ADD27C,0.0600*%
%ADD28R,0.0394X0.0394*%
%ADD29R,0.1028X0.0339*%
%ADD30R,0.0650X0.0701*%
%ADD31R,0.1402X0.1799*%
%ADD32R,0.0598X0.0598*%
%ADD33R,0.0385X0.0520*%
%ADD34R,0.0520X0.0385*%
%ADD35R,0.0846X0.0532*%
%ADD36R,0.0532X0.0846*%
%ADD37R,0.0400X0.0140*%
%ADD38R,0.0700X0.0700*%
%ADD39C,0.0700*%
%ADD40C,0.0200*%
%ADD41C,0.0280*%
%ADD42C,0.0500*%
%ADD43C,0.0260*%
%ADD44C,0.1000*%
%ADD45C,0.1100*%
%ADD46C,0.0600*%
%ADD47C,0.0591*%
%ADD48R,0.0591X0.0591*%
%ADD49C,0.0252*%
%ADD50C,0.1024*%
%ADD51R,0.0800X0.0260*%
%ADD52C,0.0400*%
%ADD53C,0.0250*%
%ADD54C,0.0079*%
%ADD55C,0.0098*%
%ADD56C,0.0060*%
%ADD57C,0.0080*%
%ADD58C,0.0050*%
%ADD59R,0.4000X0.0500*%
%ADD60R,0.0220X0.0480*%
%ADD61R,0.0530X0.0680*%
%ADD62R,0.0400X0.0440*%
%ADD63R,0.0474X0.1143*%
%ADD64R,0.0474X0.1143*%
%ADD65R,0.1084X0.1143*%
%ADD66R,0.0440X0.0400*%
%ADD67R,0.0340X0.0880*%
%ADD68O,0.0218X0.0749*%
%ADD69R,0.1143X0.1182*%
%ADD70R,0.0340X0.0580*%
%ADD71R,0.1143X0.0946*%
%ADD72R,0.0474X0.0474*%
%ADD73R,0.1108X0.0419*%
%ADD74R,0.0730X0.0781*%
%ADD75R,0.1482X0.1879*%
%ADD76R,0.0678X0.0678*%
%ADD77R,0.0465X0.0600*%
%ADD78R,0.0600X0.0465*%
%ADD79R,0.0926X0.0612*%
%ADD80R,0.0612X0.0926*%
%ADD81R,0.0480X0.0220*%
%ADD82R,0.0780X0.0780*%
%ADD83C,0.0780*%
%ADD84C,0.0360*%
%ADD85C,0.0580*%
%ADD86C,0.1080*%
%ADD87C,0.1180*%
%ADD88C,0.0680*%
%ADD89C,0.0671*%
%ADD90R,0.0671X0.0671*%
%ADD91C,0.0332*%
%ADD92C,0.1104*%
D41*
X20490Y33100D02*
D03*
X19065Y30075D02*
D03*
X20518Y29822D02*
D03*
X20006Y29834D02*
D03*
X19530Y32010D02*
D03*
X18110Y25370D02*
D03*
X19980Y27400D02*
D03*
X19510Y27920D02*
D03*
X25860Y30370D02*
D03*
Y16980D02*
D03*
X26420Y25710D02*
D03*
X26430Y26210D02*
D03*
X24020Y19260D02*
D03*
X25420Y33210D02*
D03*
X26336Y28194D02*
D03*
X26848Y28182D02*
D03*
X25720Y18610D02*
D03*
X26120Y17610D02*
D03*
X27670Y18710D02*
D03*
X25395Y28435D02*
D03*
X27670Y33410D02*
D03*
X26870Y33360D02*
D03*
Y35060D02*
D03*
X26820Y31460D02*
D03*
X26370Y33060D02*
D03*
X38800Y13850D02*
D03*
X37700Y15050D02*
D03*
X40050Y13800D02*
D03*
X37650Y13700D02*
D03*
X37300Y31900D02*
D03*
X38900Y19050D02*
D03*
Y17950D02*
D03*
X38850Y16650D02*
D03*
X40700Y16550D02*
D03*
X44400Y17850D02*
D03*
Y25150D02*
D03*
X44450Y22200D02*
D03*
X44350Y31150D02*
D03*
X44400Y29300D02*
D03*
X44300Y32150D02*
D03*
X36950Y38600D02*
D03*
X39902Y38837D02*
D03*
X38300Y38747D02*
D03*
X38800Y39400D02*
D03*
X37300D02*
D03*
X38900Y34050D02*
D03*
X37300Y33200D02*
D03*
X38450Y25100D02*
D03*
X42100Y16800D02*
D03*
X43800Y14900D02*
D03*
X42700Y13850D02*
D03*
X41650Y14800D02*
D03*
X42750Y38900D02*
D03*
X43850Y37850D02*
D03*
X41700D02*
D03*
X41800Y33500D02*
D03*
X41050Y34300D02*
D03*
X39420Y32903D02*
D03*
X40850Y32850D02*
D03*
X40600Y25150D02*
D03*
X40350Y26650D02*
D03*
X41650Y25150D02*
D03*
X38950Y15050D02*
D03*
X40500D02*
D03*
X40650Y15700D02*
D03*
X39750Y14700D02*
D03*
X38850Y15750D02*
D03*
Y20450D02*
D03*
X42100Y23000D02*
D03*
X41800Y18100D02*
D03*
X42050Y20200D02*
D03*
X41800Y20750D02*
D03*
X41400Y20250D02*
D03*
X40400D02*
D03*
X41450Y19050D02*
D03*
X40400D02*
D03*
X42100Y17350D02*
D03*
X41950Y18800D02*
D03*
X40900Y17300D02*
D03*
X40800Y39400D02*
D03*
Y38050D02*
D03*
X41200Y27150D02*
D03*
X40250Y28000D02*
D03*
X39650Y27000D02*
D03*
X38700Y22950D02*
D03*
X37300Y23200D02*
D03*
X37850Y24150D02*
D03*
X37650Y25550D02*
D03*
X37700Y32400D02*
D03*
X37850Y33600D02*
D03*
X38200Y31750D02*
D03*
X38900Y23800D02*
D03*
X42200Y25250D02*
D03*
X42050Y26350D02*
D03*
X42100Y27700D02*
D03*
X42200Y32950D02*
D03*
X42000Y33900D02*
D03*
X41950Y35000D02*
D03*
X41550Y35300D02*
D03*
X42100Y35800D02*
D03*
X43750Y26750D02*
D03*
X43350D02*
D03*
X43700Y34450D02*
D03*
X43250D02*
D03*
X43350Y33150D02*
D03*
Y32700D02*
D03*
Y32200D02*
D03*
Y31200D02*
D03*
X43750Y28950D02*
D03*
Y28350D02*
D03*
X43350D02*
D03*
Y28950D02*
D03*
X43750Y20600D02*
D03*
X43350Y21050D02*
D03*
X43400Y24400D02*
D03*
Y23550D02*
D03*
Y24900D02*
D03*
Y25350D02*
D03*
X43777Y21003D02*
D03*
X43350Y20600D02*
D03*
X44400Y16700D02*
D03*
X43247Y16703D02*
D03*
X43300Y17950D02*
D03*
X41750Y23450D02*
D03*
X41300D02*
D03*
X40550D02*
D03*
X39850Y23400D02*
D03*
X39854Y22797D02*
D03*
X39850Y22200D02*
D03*
Y21550D02*
D03*
Y20900D02*
D03*
X40550D02*
D03*
X41100D02*
D03*
X41550Y20950D02*
D03*
X42050Y21200D02*
D03*
X43350Y21600D02*
D03*
X43400Y22950D02*
D03*
X43350Y30700D02*
D03*
Y29450D02*
D03*
X42025Y30950D02*
D03*
X41350Y31300D02*
D03*
X40950D02*
D03*
X39900D02*
D03*
X39800Y30750D02*
D03*
Y30100D02*
D03*
Y29450D02*
D03*
Y28750D02*
D03*
X40450D02*
D03*
X41050D02*
D03*
X41550D02*
D03*
X42050Y28950D02*
D03*
X43900Y30050D02*
D03*
X43750Y30450D02*
D03*
Y29700D02*
D03*
X43700Y22650D02*
D03*
X43850Y22200D02*
D03*
X43700Y21750D02*
D03*
X38850Y35200D02*
D03*
X38100Y35400D02*
D03*
X38500Y36342D02*
D03*
X37750Y29700D02*
D03*
X38692Y29300D02*
D03*
X37550Y28950D02*
D03*
X32050Y30370D02*
D03*
Y16980D02*
D03*
X32610Y25710D02*
D03*
X32620Y26210D02*
D03*
X30210Y19260D02*
D03*
X31610Y33210D02*
D03*
X32526Y28194D02*
D03*
X33038Y28182D02*
D03*
X31910Y18610D02*
D03*
X32310Y17610D02*
D03*
X33860Y18710D02*
D03*
X31585Y28435D02*
D03*
X33860Y33410D02*
D03*
X33060Y33360D02*
D03*
Y35060D02*
D03*
X33010Y31460D02*
D03*
X32560Y33060D02*
D03*
X14440Y33100D02*
D03*
X13015Y30075D02*
D03*
X14468Y29822D02*
D03*
X13956Y29834D02*
D03*
X13480Y32010D02*
D03*
X12060Y25370D02*
D03*
X13930Y27400D02*
D03*
X13460Y27920D02*
D03*
D60*
X18280Y24280D02*
D03*
X18030D02*
D03*
X18530Y26130D02*
D03*
X18030D02*
D03*
X18280D02*
D03*
X17780Y24280D02*
D03*
Y26130D02*
D03*
X18530Y24280D02*
D03*
X37850Y30200D02*
D03*
X38600Y28350D02*
D03*
Y30200D02*
D03*
X38100Y28350D02*
D03*
X38350D02*
D03*
X37850D02*
D03*
X38350Y30200D02*
D03*
X38100D02*
D03*
X12230Y24280D02*
D03*
X11980D02*
D03*
X12480Y26130D02*
D03*
X11980D02*
D03*
X12230D02*
D03*
X11730Y24280D02*
D03*
Y26130D02*
D03*
X12480Y24280D02*
D03*
D61*
X19020Y19070D02*
D03*
X20070D02*
D03*
X12970D02*
D03*
X14020D02*
D03*
D62*
X18890Y31050D02*
D03*
Y30450D02*
D03*
Y32450D02*
D03*
Y31850D02*
D03*
X18940Y33450D02*
D03*
Y34050D02*
D03*
X19640D02*
D03*
Y33450D02*
D03*
X20420Y34400D02*
D03*
Y33800D02*
D03*
X19790Y29000D02*
D03*
Y28400D02*
D03*
X20490Y29000D02*
D03*
Y28400D02*
D03*
X21240Y33500D02*
D03*
Y34100D02*
D03*
X21940D02*
D03*
Y33500D02*
D03*
X21890Y31350D02*
D03*
Y31950D02*
D03*
X21690Y29400D02*
D03*
Y28800D02*
D03*
X28020Y27160D02*
D03*
Y27760D02*
D03*
X28220Y30310D02*
D03*
Y29710D02*
D03*
X28270Y31860D02*
D03*
Y32460D02*
D03*
X27570D02*
D03*
Y31860D02*
D03*
X26820Y26760D02*
D03*
Y27360D02*
D03*
X26120Y26760D02*
D03*
Y27360D02*
D03*
X25720Y23860D02*
D03*
Y24460D02*
D03*
X25020Y23860D02*
D03*
Y24460D02*
D03*
X26870Y32160D02*
D03*
Y32760D02*
D03*
X25970Y31810D02*
D03*
Y32410D02*
D03*
X25270D02*
D03*
Y31810D02*
D03*
X25220Y30210D02*
D03*
Y30810D02*
D03*
Y28810D02*
D03*
Y29410D02*
D03*
X42700Y17900D02*
D03*
Y18500D02*
D03*
Y20050D02*
D03*
Y20650D02*
D03*
Y25000D02*
D03*
Y25600D02*
D03*
Y27950D02*
D03*
Y28550D02*
D03*
Y32700D02*
D03*
Y33300D02*
D03*
X40400Y24650D02*
D03*
Y24050D02*
D03*
X41200Y32450D02*
D03*
Y31850D02*
D03*
Y24650D02*
D03*
Y24050D02*
D03*
X40400Y32450D02*
D03*
Y31850D02*
D03*
X39650Y32450D02*
D03*
Y31850D02*
D03*
X37000Y28150D02*
D03*
Y27550D02*
D03*
X37150Y29600D02*
D03*
Y29000D02*
D03*
X36900Y36150D02*
D03*
Y35550D02*
D03*
X40150Y36100D02*
D03*
Y35500D02*
D03*
X34210Y27160D02*
D03*
Y27760D02*
D03*
X34410Y30310D02*
D03*
Y29710D02*
D03*
X34460Y31860D02*
D03*
Y32460D02*
D03*
X33760D02*
D03*
Y31860D02*
D03*
X33010Y26760D02*
D03*
Y27360D02*
D03*
X32310Y26760D02*
D03*
Y27360D02*
D03*
X31910Y23860D02*
D03*
Y24460D02*
D03*
X31210Y23860D02*
D03*
Y24460D02*
D03*
X33060Y32160D02*
D03*
Y32760D02*
D03*
X32160Y31810D02*
D03*
Y32410D02*
D03*
X31460D02*
D03*
Y31810D02*
D03*
X31410Y30210D02*
D03*
Y30810D02*
D03*
Y28810D02*
D03*
Y29410D02*
D03*
X12840Y31050D02*
D03*
Y30450D02*
D03*
Y32450D02*
D03*
Y31850D02*
D03*
X12890Y33450D02*
D03*
Y34050D02*
D03*
X13590D02*
D03*
Y33450D02*
D03*
X14370Y34400D02*
D03*
Y33800D02*
D03*
X13740Y29000D02*
D03*
Y28400D02*
D03*
X14440Y29000D02*
D03*
Y28400D02*
D03*
X15190Y33500D02*
D03*
Y34100D02*
D03*
X15890D02*
D03*
Y33500D02*
D03*
X15840Y31350D02*
D03*
Y31950D02*
D03*
X15640Y29400D02*
D03*
Y28800D02*
D03*
D63*
X20980Y19100D02*
D03*
X28820Y17510D02*
D03*
X35010D02*
D03*
X14930Y19100D02*
D03*
D64*
X22161D02*
D03*
X27639Y17510D02*
D03*
X33829D02*
D03*
X16111Y19100D02*
D03*
D65*
X19230Y20980D02*
D03*
X21730D02*
D03*
X19230Y23120D02*
D03*
X21730D02*
D03*
X19660Y35900D02*
D03*
X22160D02*
D03*
X28520Y36060D02*
D03*
X26020D02*
D03*
X25920Y22360D02*
D03*
X28420D02*
D03*
X25920Y20160D02*
D03*
X28420D02*
D03*
X34710Y36060D02*
D03*
X32210D02*
D03*
X32110Y22360D02*
D03*
X34610D02*
D03*
X32110Y20160D02*
D03*
X34610D02*
D03*
X13180Y20980D02*
D03*
X15680D02*
D03*
X13180Y23120D02*
D03*
X15680D02*
D03*
X13610Y35900D02*
D03*
X16110D02*
D03*
D66*
X18560Y26840D02*
D03*
X17960D02*
D03*
X28170Y33910D02*
D03*
X28770D02*
D03*
Y33210D02*
D03*
X28170D02*
D03*
X25120Y34010D02*
D03*
X25720D02*
D03*
X28170Y34610D02*
D03*
X28770D02*
D03*
X25070Y25610D02*
D03*
X25670D02*
D03*
X26720Y18010D02*
D03*
X26120D02*
D03*
Y18710D02*
D03*
X26720D02*
D03*
X44150Y17250D02*
D03*
X43550D02*
D03*
X44150Y20050D02*
D03*
X43550D02*
D03*
X44150Y18500D02*
D03*
X43550D02*
D03*
X43300Y19250D02*
D03*
X42700D02*
D03*
X39650Y34700D02*
D03*
X40250D02*
D03*
X38500Y30900D02*
D03*
X37900D02*
D03*
X38450Y27650D02*
D03*
X37850D02*
D03*
X38200Y34800D02*
D03*
X38800D02*
D03*
X34360Y33910D02*
D03*
X34960D02*
D03*
Y33210D02*
D03*
X34360D02*
D03*
X31310Y34010D02*
D03*
X31910D02*
D03*
X34360Y34610D02*
D03*
X34960D02*
D03*
X31260Y25610D02*
D03*
X31860D02*
D03*
X32910Y18010D02*
D03*
X32310D02*
D03*
Y18710D02*
D03*
X32910D02*
D03*
X12510Y26840D02*
D03*
X11910D02*
D03*
D67*
X21950Y25370D02*
D03*
X20450Y27420D02*
D03*
X21450D02*
D03*
X21950D02*
D03*
X21450Y25370D02*
D03*
X20950D02*
D03*
X20450D02*
D03*
X20950Y27420D02*
D03*
X15900Y25370D02*
D03*
X14400Y27420D02*
D03*
X15400D02*
D03*
X15900D02*
D03*
X15400Y25370D02*
D03*
X14900D02*
D03*
X14400D02*
D03*
X14900Y27420D02*
D03*
D68*
X21296Y32642D02*
D03*
X21040D02*
D03*
X20784D02*
D03*
X20528D02*
D03*
X20272D02*
D03*
X20016D02*
D03*
X19760D02*
D03*
X19504D02*
D03*
X21296Y30398D02*
D03*
X21040D02*
D03*
X20784D02*
D03*
X20528D02*
D03*
X20272D02*
D03*
X20016D02*
D03*
X19760D02*
D03*
X19504D02*
D03*
X25824Y28688D02*
D03*
X26080D02*
D03*
X26336D02*
D03*
X26592D02*
D03*
X26848D02*
D03*
X27104D02*
D03*
X27360D02*
D03*
X27616D02*
D03*
X25824Y30932D02*
D03*
X26080D02*
D03*
X26336D02*
D03*
X26592D02*
D03*
X26848D02*
D03*
X27104D02*
D03*
X27360D02*
D03*
X27616D02*
D03*
X32014Y28688D02*
D03*
X32270D02*
D03*
X32526D02*
D03*
X32782D02*
D03*
X33038D02*
D03*
X33294D02*
D03*
X33550D02*
D03*
X33806D02*
D03*
X32014Y30932D02*
D03*
X32270D02*
D03*
X32526D02*
D03*
X32782D02*
D03*
X33038D02*
D03*
X33294D02*
D03*
X33550D02*
D03*
X33806D02*
D03*
X15246Y32642D02*
D03*
X14990D02*
D03*
X14734D02*
D03*
X14478D02*
D03*
X14222D02*
D03*
X13966D02*
D03*
X13710D02*
D03*
X13454D02*
D03*
X15246Y30398D02*
D03*
X14990D02*
D03*
X14734D02*
D03*
X14478D02*
D03*
X14222D02*
D03*
X13966D02*
D03*
X13710D02*
D03*
X13454D02*
D03*
D69*
X20400Y31520D02*
D03*
X26720Y29810D02*
D03*
X32910D02*
D03*
X14350Y31520D02*
D03*
D70*
X26495Y34510D02*
D03*
X27245D02*
D03*
X26495Y33510D02*
D03*
X27245D02*
D03*
X26870Y34510D02*
D03*
X32685D02*
D03*
X33435D02*
D03*
X32685Y33510D02*
D03*
X33435D02*
D03*
X33060Y34510D02*
D03*
D71*
X28658Y24900D02*
D03*
X26650D02*
D03*
X34848D02*
D03*
X32840D02*
D03*
D72*
X43469Y30050D02*
D03*
Y22200D02*
D03*
D73*
X42760Y30050D02*
D03*
Y22200D02*
D03*
D74*
X41926Y30050D02*
D03*
Y22200D02*
D03*
D75*
X40900Y30050D02*
D03*
Y22200D02*
D03*
D76*
X42721Y30751D02*
D03*
X42721Y29349D02*
D03*
X42721Y22901D02*
D03*
X42721Y21499D02*
D03*
D77*
X44150Y26000D02*
D03*
X43525D02*
D03*
X44150Y27600D02*
D03*
X43525D02*
D03*
X44150Y33750D02*
D03*
X43525D02*
D03*
X44150Y35200D02*
D03*
X43525D02*
D03*
X42700Y24000D02*
D03*
X42075D02*
D03*
X42700Y31750D02*
D03*
X42075D02*
D03*
D78*
X42650Y27100D02*
D03*
Y26475D02*
D03*
Y34750D02*
D03*
Y34125D02*
D03*
X39550Y24050D02*
D03*
Y24675D02*
D03*
X38800Y31850D02*
D03*
Y32475D02*
D03*
D79*
X39700Y16058D02*
D03*
Y17200D02*
D03*
D80*
X40942Y25850D02*
D03*
X39800D02*
D03*
X41042Y33500D02*
D03*
X39900D02*
D03*
D81*
X37600Y35500D02*
D03*
X39450Y36250D02*
D03*
X37600D02*
D03*
X39450Y35750D02*
D03*
Y36000D02*
D03*
Y35500D02*
D03*
X37600Y36000D02*
D03*
Y35750D02*
D03*
D82*
X18820Y17020D02*
D03*
X21910Y38270D02*
D03*
X25170Y15460D02*
D03*
X28230Y38400D02*
D03*
X31360Y15460D02*
D03*
X34420Y38400D02*
D03*
X12770Y17020D02*
D03*
X15860Y38270D02*
D03*
D83*
X19820Y17020D02*
D03*
X20820D02*
D03*
X21820D02*
D03*
X20910Y38270D02*
D03*
X19910D02*
D03*
X18910D02*
D03*
X26170Y15460D02*
D03*
X27170D02*
D03*
X28170D02*
D03*
X27230Y38400D02*
D03*
X26230D02*
D03*
X25230D02*
D03*
X32360Y15460D02*
D03*
X33360D02*
D03*
X34360D02*
D03*
X33420Y38400D02*
D03*
X32420D02*
D03*
X31420D02*
D03*
X13770Y17020D02*
D03*
X14770D02*
D03*
X15770D02*
D03*
X14860Y38270D02*
D03*
X13860D02*
D03*
X12860D02*
D03*
D84*
X21040Y28800D02*
D03*
X27370Y27160D02*
D03*
X33560D02*
D03*
X14990Y28800D02*
D03*
D85*
X22890Y34180D02*
D03*
Y32680D02*
D03*
Y30770D02*
D03*
Y28740D02*
D03*
Y26590D02*
D03*
Y23970D02*
D03*
Y21770D02*
D03*
Y19290D02*
D03*
X18140Y17640D02*
D03*
X18790Y35880D02*
D03*
X18190Y33080D02*
D03*
Y28180D02*
D03*
X18140Y30000D02*
D03*
X21830Y24550D02*
D03*
X21170D02*
D03*
X20470Y24540D02*
D03*
X19210Y24720D02*
D03*
X19200Y22040D02*
D03*
X19060Y19850D02*
D03*
X25150Y36040D02*
D03*
X24470Y16000D02*
D03*
X29220Y17650D02*
D03*
Y20130D02*
D03*
Y22330D02*
D03*
Y24950D02*
D03*
Y27100D02*
D03*
Y29130D02*
D03*
Y31040D02*
D03*
Y32540D02*
D03*
X27070Y25790D02*
D03*
X27080Y23980D02*
D03*
X25920Y21310D02*
D03*
X25270Y19510D02*
D03*
X27860Y23960D02*
D03*
Y26460D02*
D03*
X31340Y36040D02*
D03*
X30660Y16000D02*
D03*
X35410Y17650D02*
D03*
Y20130D02*
D03*
Y22330D02*
D03*
Y24950D02*
D03*
Y27100D02*
D03*
Y29130D02*
D03*
Y31040D02*
D03*
Y32540D02*
D03*
X33260Y25790D02*
D03*
X33270Y23980D02*
D03*
X32110Y21310D02*
D03*
X31460Y19510D02*
D03*
X34050Y23960D02*
D03*
Y26460D02*
D03*
X16840Y34180D02*
D03*
Y32680D02*
D03*
Y30770D02*
D03*
Y28740D02*
D03*
Y26590D02*
D03*
Y23970D02*
D03*
Y21770D02*
D03*
Y19290D02*
D03*
X12090Y17640D02*
D03*
X12740Y35880D02*
D03*
X12140Y33080D02*
D03*
Y28180D02*
D03*
X12090Y30000D02*
D03*
X15780Y24550D02*
D03*
X15120D02*
D03*
X14420Y24540D02*
D03*
X13160Y24720D02*
D03*
X13150Y22040D02*
D03*
X13010Y19850D02*
D03*
D86*
X42700Y14850D02*
D03*
Y37900D02*
D03*
D87*
X43700Y13850D02*
D03*
X41700D02*
D03*
Y15850D02*
D03*
X43700D02*
D03*
X41700Y36900D02*
D03*
X43700D02*
D03*
Y38900D02*
D03*
X41700D02*
D03*
D88*
X39700Y18423D02*
D03*
Y19604D02*
D03*
X40881Y18423D02*
D03*
D89*
X37650Y38000D02*
D03*
X38650D02*
D03*
D90*
X39650D02*
D03*
D91*
X41028Y30341D02*
D03*
Y29759D02*
D03*
X40565Y29471D02*
D03*
Y30629D02*
D03*
Y30050D02*
D03*
X42061D02*
D03*
X41599D02*
D03*
X43469D02*
D03*
X41028Y22491D02*
D03*
Y21909D02*
D03*
X40565Y21621D02*
D03*
Y22779D02*
D03*
Y22200D02*
D03*
X42061D02*
D03*
X41599D02*
D03*
X43469D02*
D03*
D92*
X37700Y21278D02*
D03*
Y16750D02*
D03*
M02*
