%FSLAX24Y24*%
%MOIN*%
G70*
G01*
G75*
G04 Layer_Physical_Order=1*
G04 Layer_Color=255*
%ADD10O,0.0940X0.0250*%
%ADD11R,0.0940X0.0250*%
%ADD12R,0.0385X0.0520*%
%ADD13R,0.0520X0.0385*%
%ADD14R,0.0787X0.0315*%
%ADD15R,0.1102X0.0315*%
%ADD16R,0.0315X0.0787*%
%ADD17R,0.0748X0.1339*%
%ADD18O,0.0138X0.0512*%
%ADD19O,0.0512X0.0138*%
%ADD20R,0.0906X0.0906*%
%ADD21R,0.0270X0.0270*%
%ADD22R,0.0320X0.0360*%
%ADD23R,0.0400X0.0140*%
%ADD24R,0.0600X0.0600*%
%ADD25C,0.0250*%
%ADD26C,0.0120*%
%ADD27R,0.0591X0.0591*%
%ADD28C,0.0591*%
%ADD29C,0.2000*%
%ADD30C,0.0551*%
%ADD31C,0.0394*%
%ADD32R,0.0591X0.0591*%
%ADD33C,0.0665*%
%ADD34R,0.0665X0.0665*%
%ADD35C,0.1874*%
%ADD36C,0.0500*%
D10*
X29062Y14184D02*
D03*
Y13684D02*
D03*
Y13184D02*
D03*
Y12684D02*
D03*
X27102D02*
D03*
Y13184D02*
D03*
Y13684D02*
D03*
X51062Y14184D02*
D03*
Y13684D02*
D03*
Y13184D02*
D03*
Y12684D02*
D03*
X49102D02*
D03*
Y13184D02*
D03*
Y13684D02*
D03*
X73062Y14184D02*
D03*
Y13684D02*
D03*
Y13184D02*
D03*
Y12684D02*
D03*
X71102D02*
D03*
Y13184D02*
D03*
Y13684D02*
D03*
D11*
X27102Y14184D02*
D03*
X49102D02*
D03*
X71102D02*
D03*
D12*
X15240Y16660D02*
D03*
X15865D02*
D03*
X21855Y13725D02*
D03*
X22480D02*
D03*
X25400Y12780D02*
D03*
X26025D02*
D03*
X23390Y13560D02*
D03*
X24015D02*
D03*
X14010Y20180D02*
D03*
X14635D02*
D03*
X16210Y20140D02*
D03*
X15585D02*
D03*
X37240Y16660D02*
D03*
X37865D02*
D03*
X43855Y13725D02*
D03*
X44480D02*
D03*
X47400Y12780D02*
D03*
X48025D02*
D03*
X45390Y13560D02*
D03*
X46015D02*
D03*
X36010Y20180D02*
D03*
X36635D02*
D03*
X38210Y20140D02*
D03*
X37585D02*
D03*
X59240Y16660D02*
D03*
X59865D02*
D03*
X65855Y13725D02*
D03*
X66480D02*
D03*
X69400Y12780D02*
D03*
X70025D02*
D03*
X67390Y13560D02*
D03*
X68015D02*
D03*
X58010Y20180D02*
D03*
X58635D02*
D03*
X60210Y20140D02*
D03*
X59585D02*
D03*
D13*
X18300Y15980D02*
D03*
Y16605D02*
D03*
X17300Y15980D02*
D03*
Y16605D02*
D03*
X24300Y12380D02*
D03*
Y11755D02*
D03*
X23300Y12370D02*
D03*
Y11745D02*
D03*
X17250Y18850D02*
D03*
Y19475D02*
D03*
X23855Y15125D02*
D03*
Y14500D02*
D03*
X20300Y15180D02*
D03*
Y14555D02*
D03*
X40300Y15980D02*
D03*
Y16605D02*
D03*
X39300Y15980D02*
D03*
Y16605D02*
D03*
X46300Y12380D02*
D03*
Y11755D02*
D03*
X45300Y12370D02*
D03*
Y11745D02*
D03*
X39250Y18850D02*
D03*
Y19475D02*
D03*
X45855Y15125D02*
D03*
Y14500D02*
D03*
X42300Y15180D02*
D03*
Y14555D02*
D03*
X62300Y15980D02*
D03*
Y16605D02*
D03*
X61300Y15980D02*
D03*
Y16605D02*
D03*
X68300Y12380D02*
D03*
Y11755D02*
D03*
X67300Y12370D02*
D03*
Y11745D02*
D03*
X61250Y18850D02*
D03*
Y19475D02*
D03*
X67855Y15125D02*
D03*
Y14500D02*
D03*
X64300Y15180D02*
D03*
Y14555D02*
D03*
D14*
X29162Y18580D02*
D03*
X51162D02*
D03*
X73162D02*
D03*
D15*
X27587D02*
D03*
X49587D02*
D03*
X71587D02*
D03*
D16*
X28800Y19580D02*
D03*
X28300D02*
D03*
X27800D02*
D03*
X28800Y17577D02*
D03*
X28300Y17580D02*
D03*
X27800D02*
D03*
X50800Y19580D02*
D03*
X50300D02*
D03*
X49800D02*
D03*
X50800Y17577D02*
D03*
X50300Y17580D02*
D03*
X49800D02*
D03*
X72800Y19580D02*
D03*
X72300D02*
D03*
X71800D02*
D03*
X72800Y17577D02*
D03*
X72300Y17580D02*
D03*
X71800D02*
D03*
D17*
X22132Y16730D02*
D03*
X23668D02*
D03*
X21088D02*
D03*
X19552D02*
D03*
X44132D02*
D03*
X45668D02*
D03*
X43088D02*
D03*
X41552D02*
D03*
X66132D02*
D03*
X67668D02*
D03*
X65088D02*
D03*
X63552D02*
D03*
D18*
X15076Y17642D02*
D03*
X15332D02*
D03*
X15588D02*
D03*
X15844D02*
D03*
Y19258D02*
D03*
X15588D02*
D03*
X15332D02*
D03*
X15076D02*
D03*
X37076Y17642D02*
D03*
X37332D02*
D03*
X37588D02*
D03*
X37844D02*
D03*
Y19258D02*
D03*
X37588D02*
D03*
X37332D02*
D03*
X37076D02*
D03*
X59076Y17642D02*
D03*
X59332D02*
D03*
X59588D02*
D03*
X59844D02*
D03*
Y19258D02*
D03*
X59588D02*
D03*
X59332D02*
D03*
X59076D02*
D03*
D19*
X16268Y18066D02*
D03*
Y18322D02*
D03*
Y18578D02*
D03*
Y18834D02*
D03*
X14652D02*
D03*
Y18578D02*
D03*
Y18322D02*
D03*
Y18066D02*
D03*
X38268D02*
D03*
Y18322D02*
D03*
Y18578D02*
D03*
Y18834D02*
D03*
X36652D02*
D03*
Y18578D02*
D03*
Y18322D02*
D03*
Y18066D02*
D03*
X60268D02*
D03*
Y18322D02*
D03*
Y18578D02*
D03*
Y18834D02*
D03*
X58652D02*
D03*
Y18578D02*
D03*
Y18322D02*
D03*
Y18066D02*
D03*
D20*
X15460Y18450D02*
D03*
X37460D02*
D03*
X59460D02*
D03*
D21*
X18110Y14280D02*
D03*
Y14820D02*
D03*
X17310Y14280D02*
D03*
Y14820D02*
D03*
X40110Y14280D02*
D03*
Y14820D02*
D03*
X39310Y14280D02*
D03*
Y14820D02*
D03*
X62110Y14280D02*
D03*
Y14820D02*
D03*
X61310Y14280D02*
D03*
Y14820D02*
D03*
D22*
X25500Y20380D02*
D03*
Y19780D02*
D03*
X26500Y20380D02*
D03*
Y19780D02*
D03*
X47500Y20380D02*
D03*
Y19780D02*
D03*
X48500Y20380D02*
D03*
Y19780D02*
D03*
X69500Y20380D02*
D03*
Y19780D02*
D03*
X70500Y20380D02*
D03*
Y19780D02*
D03*
D23*
X23025Y15315D02*
D03*
Y14565D02*
D03*
X21175D02*
D03*
X23025Y15065D02*
D03*
Y14815D02*
D03*
X21175D02*
D03*
Y15315D02*
D03*
Y15065D02*
D03*
X45025Y15315D02*
D03*
Y14565D02*
D03*
X43175D02*
D03*
X45025Y15065D02*
D03*
Y14815D02*
D03*
X43175D02*
D03*
Y15315D02*
D03*
Y15065D02*
D03*
X67025Y15315D02*
D03*
Y14565D02*
D03*
X65175D02*
D03*
X67025Y15065D02*
D03*
Y14815D02*
D03*
X65175D02*
D03*
Y15315D02*
D03*
Y15065D02*
D03*
D24*
X25038Y14026D02*
D03*
Y15326D02*
D03*
X47038Y14026D02*
D03*
Y15326D02*
D03*
X69038Y14026D02*
D03*
Y15326D02*
D03*
D25*
X22450Y22048D02*
X22457Y22041D01*
X22450Y22048D02*
Y23540D01*
X22160Y23830D02*
X22450Y23540D01*
X14430Y23830D02*
X22160D01*
X23001Y21081D02*
Y23159D01*
X13670Y23070D02*
X14430Y23830D01*
X13670Y21840D02*
Y23070D01*
X12930Y21100D02*
X13670Y21840D01*
X11500Y21100D02*
X12930D01*
X11050Y20650D02*
X11500Y21100D01*
X11050Y17050D02*
Y20650D01*
Y17050D02*
X11570Y16530D01*
X12469D01*
X13390Y15609D01*
Y12600D02*
Y15609D01*
X12900Y20180D02*
X14010D01*
X13390Y12600D02*
X14910Y11080D01*
X27220D01*
X27520Y11380D01*
X27700D01*
X15920Y12340D02*
X24040D01*
X15490Y12770D02*
X15920Y12340D01*
X24040D02*
X24480Y12780D01*
X26590Y11470D02*
X27102Y11982D01*
X23790Y11470D02*
X26590D01*
X27102Y11982D02*
Y12684D01*
X23505Y11755D02*
X23790Y11470D01*
X25750Y11970D02*
X26230D01*
X25400Y12320D02*
X25750Y11970D01*
X31100Y18170D02*
Y18180D01*
X29720Y16790D02*
X31100Y18170D01*
X28520Y16790D02*
X29720D01*
X31100Y17060D02*
Y17180D01*
X30420Y16380D02*
X31100Y17060D01*
X27250Y16380D02*
X30420D01*
X19552Y17762D02*
X19920Y18130D01*
X19552Y16730D02*
Y17762D01*
X27000Y17270D02*
X27800Y18070D01*
Y18080D01*
X26440Y17190D02*
X27250Y16380D01*
X26440Y17190D02*
Y18190D01*
X25980Y17030D02*
Y18650D01*
X25040Y17350D02*
Y21363D01*
X16520Y15670D02*
Y16130D01*
X14630Y13780D02*
X16520Y15670D01*
X14500Y13780D02*
X14630D01*
X14230Y12780D02*
X15120D01*
X13900Y13110D02*
X14230Y12780D01*
X18110Y14820D02*
X18270Y14980D01*
X17300Y14830D02*
X17310Y14820D01*
X25038Y15322D02*
X25580Y14780D01*
Y14249D02*
Y14780D01*
Y14249D02*
X26025Y13804D01*
Y12780D02*
Y13804D01*
X25038Y15322D02*
Y15326D01*
X16540Y16130D02*
Y17370D01*
X13900Y13110D02*
Y17069D01*
X13830Y17140D02*
X13900Y17069D01*
X24690Y13320D02*
X25038Y13668D01*
Y14026D01*
X24480Y12780D02*
X24690Y12990D01*
X24480Y12780D02*
X25400D01*
X24690Y12990D02*
Y13320D01*
X13900Y17950D02*
X14420Y18470D01*
X13900Y17210D02*
Y17950D01*
X13830Y17140D02*
X13900Y17210D01*
X21855Y13795D02*
Y15625D01*
X28010Y13860D02*
X28334Y14184D01*
X28010Y12700D02*
Y13860D01*
X27994Y12684D02*
X29062D01*
X28334Y14184D02*
X29062D01*
X25400Y12320D02*
Y12780D01*
X26121Y12684D02*
X27102D01*
X25038Y15326D02*
X25134D01*
X25500Y18120D02*
Y19780D01*
X14420Y18470D02*
X14652D01*
X17300Y14830D02*
Y15980D01*
X18300Y17490D02*
X18900Y18090D01*
X18300Y16786D02*
Y17490D01*
X18270Y14980D02*
Y15824D01*
X21930Y15700D02*
X22360D01*
X21620Y16010D02*
X21930Y15700D01*
X21620Y16010D02*
Y16730D01*
X22132D01*
X21088D02*
X21620D01*
X20545Y14480D02*
X21250D01*
X20340Y14685D02*
X20545Y14480D01*
X20335Y14680D02*
X20340Y14685D01*
X19800Y14680D02*
X20335D01*
X19552Y14928D02*
X19800Y14680D01*
X19552Y14928D02*
Y16730D01*
X26500Y19780D02*
X27190D01*
X27200Y19790D01*
X27800Y19580D02*
Y20260D01*
X27040Y21020D02*
X27800Y20260D01*
X25040Y21363D02*
X25718Y22041D01*
X25040Y17350D02*
X27210Y15180D01*
X24631Y16889D02*
Y22041D01*
Y16889D02*
X26630Y14890D01*
X27210Y15180D02*
X31100D01*
X27050Y15960D02*
X30880D01*
X25980Y17030D02*
X27050Y15960D01*
X26500Y20380D02*
Y21640D01*
X25990Y21130D02*
X26500Y21640D01*
X25990Y21110D02*
Y21130D01*
X26805Y21945D02*
Y22041D01*
X26500Y21640D02*
X26805Y21945D01*
X30880Y15960D02*
X31100Y16180D01*
X26440Y18190D02*
X26830Y18580D01*
X27587D01*
X28797Y17327D02*
X29430Y17320D01*
X28790Y17327D02*
X28797Y17327D01*
X31260Y21200D02*
X31690Y20770D01*
X30420Y21200D02*
X31260D01*
X28800Y19580D02*
X30420Y21200D01*
X28300Y17010D02*
X28520Y16790D01*
X28300Y17010D02*
Y17580D01*
X25500Y19780D02*
X26500D01*
X25500Y21823D02*
X25718Y22041D01*
X25500Y20380D02*
Y21823D01*
X15460Y18450D02*
X16540Y17370D01*
X17650Y14240D02*
X17690Y14280D01*
X18110D01*
X17310D02*
X17690D01*
X17650Y13640D02*
Y14240D01*
X17820Y18150D02*
Y19780D01*
X17300Y17630D02*
X17820Y18150D01*
X17300Y16580D02*
Y17630D01*
X18900Y18090D02*
Y18110D01*
X18910Y18120D02*
Y19850D01*
X18900Y18110D02*
X18910Y18120D01*
Y19850D02*
X19010Y19950D01*
Y19970D01*
X19400Y20360D01*
X17820Y19780D02*
X18400Y20360D01*
X18652Y20612D01*
Y23159D01*
X28290Y19590D02*
X28300Y19580D01*
X28290Y19590D02*
Y20460D01*
X26805Y21945D02*
X28290Y20460D01*
X28800Y18218D02*
X29162Y18580D01*
X28800Y18080D02*
Y18218D01*
X31690Y19770D02*
Y20770D01*
X31100Y19180D02*
X31690Y19770D01*
X29500Y18580D02*
X31100Y20180D01*
X29162Y18580D02*
X29500D01*
X23668Y16730D02*
Y17582D01*
X23120Y18130D02*
X23668Y17582D01*
X19910Y19870D02*
Y20810D01*
X19400Y19360D02*
X19910Y19870D01*
X22900Y20980D02*
X23001Y21081D01*
X22900Y19860D02*
Y20980D01*
X22400Y19360D02*
X22900Y19860D01*
X23400Y20360D02*
X24088Y21048D01*
Y23159D01*
X22400Y20360D02*
X22457Y20417D01*
Y22041D01*
X21400Y19360D02*
X21914Y19874D01*
Y23159D01*
X20400Y19360D02*
Y19590D01*
X20900Y20090D01*
Y20800D01*
X20826Y20873D02*
X20900Y20800D01*
X20826Y20873D02*
Y23159D01*
X19739Y20981D02*
X19910Y20810D01*
X19739Y20981D02*
Y23159D01*
X21370Y20390D02*
X21400Y20360D01*
X20283Y20477D02*
Y22041D01*
Y20477D02*
X20400Y20360D01*
X19196Y20564D02*
X19400Y20360D01*
X19196Y20564D02*
Y22041D01*
X24088Y23159D02*
X24100Y23146D01*
X24088Y23159D02*
X24159D01*
X24664Y15700D02*
X25038Y15326D01*
X22360Y15700D02*
X24664D01*
X24564Y14500D02*
X25038Y14026D01*
X23855Y14500D02*
X24564D01*
X22360Y15700D02*
X22745Y15315D01*
X24015Y13560D02*
Y14340D01*
X21088Y16730D02*
Y17962D01*
X20920Y18130D02*
X21088Y17962D01*
X21340Y22011D02*
X21370Y22041D01*
X20283D02*
X20340Y21984D01*
X23090Y14500D02*
X23855D01*
X44450Y22048D02*
X44457Y22041D01*
X44450Y22048D02*
Y23540D01*
X44160Y23830D02*
X44450Y23540D01*
X36430Y23830D02*
X44160D01*
X45001Y21081D02*
Y23159D01*
X35670Y23070D02*
X36430Y23830D01*
X35670Y21840D02*
Y23070D01*
X34930Y21100D02*
X35670Y21840D01*
X33500Y21100D02*
X34930D01*
X33050Y20650D02*
X33500Y21100D01*
X33050Y17050D02*
Y20650D01*
Y17050D02*
X33570Y16530D01*
X34469D01*
X35390Y15609D01*
Y12600D02*
Y15609D01*
X34900Y20180D02*
X36010D01*
X35390Y12600D02*
X36910Y11080D01*
X49220D01*
X49520Y11380D01*
X49700D01*
X37920Y12340D02*
X46040D01*
X37490Y12770D02*
X37920Y12340D01*
X46040D02*
X46480Y12780D01*
X48590Y11470D02*
X49102Y11982D01*
X45790Y11470D02*
X48590D01*
X49102Y11982D02*
Y12684D01*
X45505Y11755D02*
X45790Y11470D01*
X47750Y11970D02*
X48230D01*
X47400Y12320D02*
X47750Y11970D01*
X53100Y18170D02*
Y18180D01*
X51720Y16790D02*
X53100Y18170D01*
X50520Y16790D02*
X51720D01*
X53100Y17060D02*
Y17180D01*
X52420Y16380D02*
X53100Y17060D01*
X49250Y16380D02*
X52420D01*
X41552Y17762D02*
X41920Y18130D01*
X41552Y16730D02*
Y17762D01*
X49000Y17270D02*
X49800Y18070D01*
Y18080D01*
X48440Y17190D02*
X49250Y16380D01*
X48440Y17190D02*
Y18190D01*
X47980Y17030D02*
Y18650D01*
X47040Y17350D02*
Y21363D01*
X38520Y15670D02*
Y16130D01*
X36630Y13780D02*
X38520Y15670D01*
X36500Y13780D02*
X36630D01*
X36230Y12780D02*
X37120D01*
X35900Y13110D02*
X36230Y12780D01*
X40110Y14820D02*
X40270Y14980D01*
X39300Y14830D02*
X39310Y14820D01*
X47038Y15322D02*
X47580Y14780D01*
Y14249D02*
Y14780D01*
Y14249D02*
X48025Y13804D01*
Y12780D02*
Y13804D01*
X47038Y15322D02*
Y15326D01*
X38540Y16130D02*
Y17370D01*
X35900Y13110D02*
Y17069D01*
X35830Y17140D02*
X35900Y17069D01*
X46690Y13320D02*
X47038Y13668D01*
Y14026D01*
X46480Y12780D02*
X46690Y12990D01*
X46480Y12780D02*
X47400D01*
X46690Y12990D02*
Y13320D01*
X35900Y17950D02*
X36420Y18470D01*
X35900Y17210D02*
Y17950D01*
X35830Y17140D02*
X35900Y17210D01*
X43855Y13795D02*
Y15625D01*
X50010Y13860D02*
X50334Y14184D01*
X50010Y12700D02*
Y13860D01*
X49994Y12684D02*
X51062D01*
X50334Y14184D02*
X51062D01*
X47400Y12320D02*
Y12780D01*
X48121Y12684D02*
X49102D01*
X47038Y15326D02*
X47134D01*
X47500Y18120D02*
Y19780D01*
X36420Y18470D02*
X36652D01*
X39300Y14830D02*
Y15980D01*
X40300Y17490D02*
X40900Y18090D01*
X40300Y16786D02*
Y17490D01*
X40270Y14980D02*
Y15824D01*
X43930Y15700D02*
X44360D01*
X43620Y16010D02*
X43930Y15700D01*
X43620Y16010D02*
Y16730D01*
X44132D01*
X43088D02*
X43620D01*
X42545Y14480D02*
X43250D01*
X42340Y14685D02*
X42545Y14480D01*
X42335Y14680D02*
X42340Y14685D01*
X41800Y14680D02*
X42335D01*
X41552Y14928D02*
X41800Y14680D01*
X41552Y14928D02*
Y16730D01*
X48500Y19780D02*
X49190D01*
X49200Y19790D01*
X49800Y19580D02*
Y20260D01*
X49040Y21020D02*
X49800Y20260D01*
X47040Y21363D02*
X47718Y22041D01*
X47040Y17350D02*
X49210Y15180D01*
X46631Y16889D02*
Y22041D01*
Y16889D02*
X48630Y14890D01*
X49210Y15180D02*
X53100D01*
X49050Y15960D02*
X52880D01*
X47980Y17030D02*
X49050Y15960D01*
X48500Y20380D02*
Y21640D01*
X47990Y21130D02*
X48500Y21640D01*
X47990Y21110D02*
Y21130D01*
X48805Y21945D02*
Y22041D01*
X48500Y21640D02*
X48805Y21945D01*
X52880Y15960D02*
X53100Y16180D01*
X48440Y18190D02*
X48830Y18580D01*
X49587D01*
X50797Y17327D02*
X51430Y17320D01*
X50790Y17327D02*
X50797Y17327D01*
X53260Y21200D02*
X53690Y20770D01*
X52420Y21200D02*
X53260D01*
X50800Y19580D02*
X52420Y21200D01*
X50300Y17010D02*
X50520Y16790D01*
X50300Y17010D02*
Y17580D01*
X47500Y19780D02*
X48500D01*
X47500Y21823D02*
X47718Y22041D01*
X47500Y20380D02*
Y21823D01*
X37460Y18450D02*
X38540Y17370D01*
X39650Y14240D02*
X39690Y14280D01*
X40110D01*
X39310D02*
X39690D01*
X39650Y13640D02*
Y14240D01*
X39820Y18150D02*
Y19780D01*
X39300Y17630D02*
X39820Y18150D01*
X39300Y16580D02*
Y17630D01*
X40900Y18090D02*
Y18110D01*
X40910Y18120D02*
Y19850D01*
X40900Y18110D02*
X40910Y18120D01*
Y19850D02*
X41010Y19950D01*
Y19970D01*
X41400Y20360D01*
X39820Y19780D02*
X40400Y20360D01*
X40652Y20612D01*
Y23159D01*
X50290Y19590D02*
X50300Y19580D01*
X50290Y19590D02*
Y20460D01*
X48805Y21945D02*
X50290Y20460D01*
X50800Y18218D02*
X51162Y18580D01*
X50800Y18080D02*
Y18218D01*
X53690Y19770D02*
Y20770D01*
X53100Y19180D02*
X53690Y19770D01*
X51500Y18580D02*
X53100Y20180D01*
X51162Y18580D02*
X51500D01*
X45668Y16730D02*
Y17582D01*
X45120Y18130D02*
X45668Y17582D01*
X41910Y19870D02*
Y20810D01*
X41400Y19360D02*
X41910Y19870D01*
X44900Y20980D02*
X45001Y21081D01*
X44900Y19860D02*
Y20980D01*
X44400Y19360D02*
X44900Y19860D01*
X45400Y20360D02*
X46088Y21048D01*
Y23159D01*
X44400Y20360D02*
X44457Y20417D01*
Y22041D01*
X43400Y19360D02*
X43913Y19874D01*
Y23159D01*
X42400Y19360D02*
Y19590D01*
X42900Y20090D01*
Y20800D01*
X42826Y20873D02*
X42900Y20800D01*
X42826Y20873D02*
Y23159D01*
X41739Y20981D02*
X41910Y20810D01*
X41739Y20981D02*
Y23159D01*
X43370Y20390D02*
X43400Y20360D01*
X42283Y20477D02*
Y22041D01*
Y20477D02*
X42400Y20360D01*
X41196Y20564D02*
X41400Y20360D01*
X41196Y20564D02*
Y22041D01*
X46088Y23159D02*
X46100Y23146D01*
X46088Y23159D02*
X46159D01*
X46664Y15700D02*
X47038Y15326D01*
X44360Y15700D02*
X46664D01*
X46564Y14500D02*
X47038Y14026D01*
X45855Y14500D02*
X46564D01*
X44360Y15700D02*
X44745Y15315D01*
X46015Y13560D02*
Y14340D01*
X43088Y16730D02*
Y17962D01*
X42920Y18130D02*
X43088Y17962D01*
X43340Y22011D02*
X43370Y22041D01*
X42283D02*
X42340Y21984D01*
X45090Y14500D02*
X45855D01*
X66450Y22048D02*
X66457Y22041D01*
X66450Y22048D02*
Y23540D01*
X66160Y23830D02*
X66450Y23540D01*
X58430Y23830D02*
X66160D01*
X67001Y21081D02*
Y23159D01*
X57670Y23070D02*
X58430Y23830D01*
X57670Y21840D02*
Y23070D01*
X56930Y21100D02*
X57670Y21840D01*
X55500Y21100D02*
X56930D01*
X55050Y20650D02*
X55500Y21100D01*
X55050Y17050D02*
Y20650D01*
Y17050D02*
X55570Y16530D01*
X56469D01*
X57390Y15609D01*
Y12600D02*
Y15609D01*
X56900Y20180D02*
X58010D01*
X57390Y12600D02*
X58910Y11080D01*
X71220D01*
X71520Y11380D01*
X71700D01*
X59920Y12340D02*
X68040D01*
X59490Y12770D02*
X59920Y12340D01*
X68040D02*
X68480Y12780D01*
X70590Y11470D02*
X71102Y11982D01*
X67790Y11470D02*
X70590D01*
X71102Y11982D02*
Y12684D01*
X67505Y11755D02*
X67790Y11470D01*
X69750Y11970D02*
X70230D01*
X69400Y12320D02*
X69750Y11970D01*
X75100Y18170D02*
Y18180D01*
X73720Y16790D02*
X75100Y18170D01*
X72520Y16790D02*
X73720D01*
X75100Y17060D02*
Y17180D01*
X74420Y16380D02*
X75100Y17060D01*
X71250Y16380D02*
X74420D01*
X63552Y17762D02*
X63920Y18130D01*
X63552Y16730D02*
Y17762D01*
X71000Y17270D02*
X71800Y18070D01*
Y18080D01*
X70440Y17190D02*
X71250Y16380D01*
X70440Y17190D02*
Y18190D01*
X69980Y17030D02*
Y18650D01*
X69040Y17350D02*
Y21363D01*
X60520Y15670D02*
Y16130D01*
X58630Y13780D02*
X60520Y15670D01*
X58500Y13780D02*
X58630D01*
X58230Y12780D02*
X59120D01*
X57900Y13110D02*
X58230Y12780D01*
X62110Y14820D02*
X62270Y14980D01*
X61300Y14830D02*
X61310Y14820D01*
X69038Y15322D02*
X69580Y14780D01*
Y14249D02*
Y14780D01*
Y14249D02*
X70025Y13804D01*
Y12780D02*
Y13804D01*
X69038Y15322D02*
Y15326D01*
X60540Y16130D02*
Y17370D01*
X57900Y13110D02*
Y17069D01*
X57830Y17140D02*
X57900Y17069D01*
X68690Y13320D02*
X69038Y13668D01*
Y14026D01*
X68480Y12780D02*
X68690Y12990D01*
X68480Y12780D02*
X69400D01*
X68690Y12990D02*
Y13320D01*
X57900Y17950D02*
X58420Y18470D01*
X57900Y17210D02*
Y17950D01*
X57830Y17140D02*
X57900Y17210D01*
X65855Y13795D02*
Y15625D01*
X72010Y13860D02*
X72334Y14184D01*
X72010Y12700D02*
Y13860D01*
X71994Y12684D02*
X73062D01*
X72334Y14184D02*
X73062D01*
X69400Y12320D02*
Y12780D01*
X70121Y12684D02*
X71102D01*
X69038Y15326D02*
X69134D01*
X69500Y18120D02*
Y19780D01*
X58420Y18470D02*
X58652D01*
X61300Y14830D02*
Y15980D01*
X62300Y17490D02*
X62900Y18090D01*
X62300Y16786D02*
Y17490D01*
X62270Y14980D02*
Y15824D01*
X65930Y15700D02*
X66360D01*
X65620Y16010D02*
X65930Y15700D01*
X65620Y16010D02*
Y16730D01*
X66132D01*
X65088D02*
X65620D01*
X64545Y14480D02*
X65250D01*
X64340Y14685D02*
X64545Y14480D01*
X64335Y14680D02*
X64340Y14685D01*
X63800Y14680D02*
X64335D01*
X63552Y14928D02*
X63800Y14680D01*
X63552Y14928D02*
Y16730D01*
X70500Y19780D02*
X71190D01*
X71200Y19790D01*
X71800Y19580D02*
Y20260D01*
X71040Y21020D02*
X71800Y20260D01*
X69040Y21363D02*
X69718Y22041D01*
X69040Y17350D02*
X71210Y15180D01*
X68631Y16889D02*
Y22041D01*
Y16889D02*
X70630Y14890D01*
X71210Y15180D02*
X75100D01*
X71050Y15960D02*
X74880D01*
X69980Y17030D02*
X71050Y15960D01*
X70500Y20380D02*
Y21640D01*
X69990Y21130D02*
X70500Y21640D01*
X69990Y21110D02*
Y21130D01*
X70805Y21945D02*
Y22041D01*
X70500Y21640D02*
X70805Y21945D01*
X74880Y15960D02*
X75100Y16180D01*
X70440Y18190D02*
X70830Y18580D01*
X71587D01*
X72797Y17327D02*
X73430Y17320D01*
X72790Y17327D02*
X72797Y17327D01*
X75260Y21200D02*
X75690Y20770D01*
X74420Y21200D02*
X75260D01*
X72800Y19580D02*
X74420Y21200D01*
X72300Y17010D02*
X72520Y16790D01*
X72300Y17010D02*
Y17580D01*
X69500Y19780D02*
X70500D01*
X69500Y21823D02*
X69718Y22041D01*
X69500Y20380D02*
Y21823D01*
X59460Y18450D02*
X60540Y17370D01*
X61650Y14240D02*
X61690Y14280D01*
X62110D01*
X61310D02*
X61690D01*
X61650Y13640D02*
Y14240D01*
X61820Y18150D02*
Y19780D01*
X61300Y17630D02*
X61820Y18150D01*
X61300Y16580D02*
Y17630D01*
X62900Y18090D02*
Y18110D01*
X62910Y18120D02*
Y19850D01*
X62900Y18110D02*
X62910Y18120D01*
Y19850D02*
X63010Y19950D01*
Y19970D01*
X63400Y20360D01*
X61820Y19780D02*
X62400Y20360D01*
X62652Y20612D01*
Y23159D01*
X72290Y19590D02*
X72300Y19580D01*
X72290Y19590D02*
Y20460D01*
X70805Y21945D02*
X72290Y20460D01*
X72800Y18218D02*
X73162Y18580D01*
X72800Y18080D02*
Y18218D01*
X75690Y19770D02*
Y20770D01*
X75100Y19180D02*
X75690Y19770D01*
X73500Y18580D02*
X75100Y20180D01*
X73162Y18580D02*
X73500D01*
X67668Y16730D02*
Y17582D01*
X67120Y18130D02*
X67668Y17582D01*
X63910Y19870D02*
Y20810D01*
X63400Y19360D02*
X63910Y19870D01*
X66900Y20980D02*
X67001Y21081D01*
X66900Y19860D02*
Y20980D01*
X66400Y19360D02*
X66900Y19860D01*
X67400Y20360D02*
X68088Y21048D01*
Y23159D01*
X66400Y20360D02*
X66457Y20417D01*
Y22041D01*
X65400Y19360D02*
X65914Y19874D01*
Y23159D01*
X64400Y19360D02*
Y19590D01*
X64900Y20090D01*
Y20800D01*
X64826Y20873D02*
X64900Y20800D01*
X64826Y20873D02*
Y23159D01*
X63739Y20981D02*
X63910Y20810D01*
X63739Y20981D02*
Y23159D01*
X65370Y20390D02*
X65400Y20360D01*
X64283Y20477D02*
Y22041D01*
Y20477D02*
X64400Y20360D01*
X63196Y20564D02*
X63400Y20360D01*
X63196Y20564D02*
Y22041D01*
X68088Y23159D02*
X68100Y23146D01*
X68088Y23159D02*
X68159D01*
X68664Y15700D02*
X69038Y15326D01*
X66360Y15700D02*
X68664D01*
X68564Y14500D02*
X69038Y14026D01*
X67855Y14500D02*
X68564D01*
X66360Y15700D02*
X66745Y15315D01*
X68015Y13560D02*
Y14340D01*
X65088Y16730D02*
Y17962D01*
X64920Y18130D02*
X65088Y17962D01*
X65340Y22011D02*
X65370Y22041D01*
X64283D02*
X64340Y21984D01*
X67090Y14500D02*
X67855D01*
D26*
X22170Y12790D02*
X23340D01*
X16310Y12780D02*
X23350D01*
X23340Y12790D02*
X23350Y12780D01*
X15438Y13652D02*
X16310Y12780D01*
X15438Y13652D02*
X15460Y13675D01*
Y13650D02*
Y13675D01*
X16210Y20500D02*
X16580Y20870D01*
X16210Y20140D02*
Y20500D01*
X27096Y14190D02*
X27102Y14184D01*
X26240Y14190D02*
X27096D01*
X21855Y15625D02*
X21930Y15700D01*
X26025Y12780D02*
X26121Y12684D01*
X14010Y19770D02*
Y20180D01*
Y19770D02*
X14652Y19128D01*
Y18834D02*
Y19128D01*
X15076Y20170D02*
Y20386D01*
Y19258D02*
Y20170D01*
X15066Y20180D02*
X15076Y20170D01*
X14635Y20180D02*
X15066D01*
X22645Y13560D02*
X23390D01*
X22480Y13725D02*
X22645Y13560D01*
X14652Y18470D02*
Y18578D01*
Y18322D02*
Y18470D01*
X15240Y16700D02*
X15332Y16792D01*
X15240Y16010D02*
Y16700D01*
Y15810D02*
Y15970D01*
X15260Y15990D01*
X15240Y16010D02*
X15260Y15990D01*
X15332Y16792D02*
Y17642D01*
X15840Y16700D02*
X15844Y16704D01*
Y17642D01*
X20340Y15310D02*
X20345Y15315D01*
X21175D01*
X15076Y20386D02*
X15935Y21245D01*
Y22041D01*
X15580Y20145D02*
X15585Y20140D01*
X15580Y20145D02*
Y20520D01*
X16478Y21418D01*
Y23159D01*
X17250Y21182D02*
X18109Y22041D01*
X17250Y19475D02*
Y21182D01*
X22745Y15315D02*
X23025D01*
X23855Y14500D02*
X24015Y14340D01*
X23795Y15065D02*
X23855Y15125D01*
X23025Y15065D02*
X23795D01*
X23025Y14565D02*
X23090Y14500D01*
X22625Y14815D02*
X23025D01*
X22455Y14645D02*
X22625Y14815D01*
X22455Y13795D02*
Y14645D01*
X18109Y22041D02*
X18110Y22040D01*
X16978Y18578D02*
X17250Y18850D01*
X16268Y18578D02*
X16978D01*
X16909Y19475D02*
X17250D01*
X16268Y18834D02*
X16909Y19475D01*
X15844Y19258D02*
X16210Y19624D01*
Y20140D01*
X15935Y22041D02*
X15936Y22040D01*
X16445Y23125D02*
X16478Y23159D01*
X15585Y20140D02*
X15588Y20137D01*
Y19258D02*
Y20137D01*
X15076Y18834D02*
X15460Y18450D01*
X14652Y18834D02*
X15076D01*
X15460Y18450D02*
X15844Y18066D01*
Y17642D02*
Y18066D01*
X15076D02*
X15460Y18450D01*
X14652Y18066D02*
X15076D01*
Y17642D02*
Y18066D01*
X15844D02*
X16268D01*
X15588Y18578D02*
X16268D01*
X15460Y18450D02*
X15588Y18578D01*
X15460Y18450D02*
X15588Y18322D01*
X16268D01*
X15844Y18834D02*
Y19258D01*
X15332Y18578D02*
X15460Y18450D01*
X15332Y18578D02*
Y19258D01*
X15588Y17642D02*
Y18322D01*
X44170Y12790D02*
X45340D01*
X38310Y12780D02*
X45350D01*
X45340Y12790D02*
X45350Y12780D01*
X37438Y13652D02*
X38310Y12780D01*
X37438Y13652D02*
X37460Y13675D01*
Y13650D02*
Y13675D01*
X38210Y20500D02*
X38580Y20870D01*
X38210Y20140D02*
Y20500D01*
X49096Y14190D02*
X49102Y14184D01*
X48240Y14190D02*
X49096D01*
X43855Y15625D02*
X43930Y15700D01*
X48025Y12780D02*
X48121Y12684D01*
X36010Y19770D02*
Y20180D01*
Y19770D02*
X36652Y19128D01*
Y18834D02*
Y19128D01*
X37076Y20170D02*
Y20386D01*
Y19258D02*
Y20170D01*
X37066Y20180D02*
X37076Y20170D01*
X36635Y20180D02*
X37066D01*
X44645Y13560D02*
X45390D01*
X44480Y13725D02*
X44645Y13560D01*
X36652Y18470D02*
Y18578D01*
Y18322D02*
Y18470D01*
X37240Y16700D02*
X37332Y16792D01*
X37240Y16010D02*
Y16700D01*
Y15810D02*
Y15970D01*
X37260Y15990D01*
X37240Y16010D02*
X37260Y15990D01*
X37332Y16792D02*
Y17642D01*
X37840Y16700D02*
X37844Y16704D01*
Y17642D01*
X42340Y15310D02*
X42345Y15315D01*
X43175D01*
X37076Y20386D02*
X37935Y21245D01*
Y22041D01*
X37580Y20145D02*
X37585Y20140D01*
X37580Y20145D02*
Y20520D01*
X38478Y21418D01*
Y23159D01*
X39250Y21182D02*
X40109Y22041D01*
X39250Y19475D02*
Y21182D01*
X44745Y15315D02*
X45025D01*
X45855Y14500D02*
X46015Y14340D01*
X45795Y15065D02*
X45855Y15125D01*
X45025Y15065D02*
X45795D01*
X45025Y14565D02*
X45090Y14500D01*
X44625Y14815D02*
X45025D01*
X44455Y14645D02*
X44625Y14815D01*
X44455Y13795D02*
Y14645D01*
X40109Y22041D02*
X40110Y22040D01*
X38978Y18578D02*
X39250Y18850D01*
X38268Y18578D02*
X38978D01*
X38909Y19475D02*
X39250D01*
X38268Y18834D02*
X38909Y19475D01*
X37844Y19258D02*
X38210Y19624D01*
Y20140D01*
X37935Y22041D02*
X37936Y22040D01*
X38445Y23125D02*
X38478Y23159D01*
X37585Y20140D02*
X37588Y20137D01*
Y19258D02*
Y20137D01*
X37076Y18834D02*
X37460Y18450D01*
X36652Y18834D02*
X37076D01*
X37460Y18450D02*
X37844Y18066D01*
Y17642D02*
Y18066D01*
X37076D02*
X37460Y18450D01*
X36652Y18066D02*
X37076D01*
Y17642D02*
Y18066D01*
X37844D02*
X38268D01*
X37588Y18578D02*
X38268D01*
X37460Y18450D02*
X37588Y18578D01*
X37460Y18450D02*
X37588Y18322D01*
X38268D01*
X37844Y18834D02*
Y19258D01*
X37332Y18578D02*
X37460Y18450D01*
X37332Y18578D02*
Y19258D01*
X37588Y17642D02*
Y18322D01*
X66170Y12790D02*
X67340D01*
X60310Y12780D02*
X67350D01*
X67340Y12790D02*
X67350Y12780D01*
X59438Y13652D02*
X60310Y12780D01*
X59438Y13652D02*
X59460Y13675D01*
Y13650D02*
Y13675D01*
X60210Y20500D02*
X60580Y20870D01*
X60210Y20140D02*
Y20500D01*
X71096Y14190D02*
X71102Y14184D01*
X70240Y14190D02*
X71096D01*
X65855Y15625D02*
X65930Y15700D01*
X70025Y12780D02*
X70121Y12684D01*
X58010Y19770D02*
Y20180D01*
Y19770D02*
X58652Y19128D01*
Y18834D02*
Y19128D01*
X59076Y20170D02*
Y20386D01*
Y19258D02*
Y20170D01*
X59066Y20180D02*
X59076Y20170D01*
X58635Y20180D02*
X59066D01*
X66645Y13560D02*
X67390D01*
X66480Y13725D02*
X66645Y13560D01*
X58652Y18470D02*
Y18578D01*
Y18322D02*
Y18470D01*
X59240Y16700D02*
X59332Y16792D01*
X59240Y16010D02*
Y16700D01*
Y15810D02*
Y15970D01*
X59260Y15990D01*
X59240Y16010D02*
X59260Y15990D01*
X59332Y16792D02*
Y17642D01*
X59840Y16700D02*
X59844Y16704D01*
Y17642D01*
X64340Y15310D02*
X64345Y15315D01*
X65175D01*
X59076Y20386D02*
X59935Y21245D01*
Y22041D01*
X59580Y20145D02*
X59585Y20140D01*
X59580Y20145D02*
Y20520D01*
X60478Y21418D01*
Y23159D01*
X61250Y21182D02*
X62109Y22041D01*
X61250Y19475D02*
Y21182D01*
X66745Y15315D02*
X67025D01*
X67855Y14500D02*
X68015Y14340D01*
X67795Y15065D02*
X67855Y15125D01*
X67025Y15065D02*
X67795D01*
X67025Y14565D02*
X67090Y14500D01*
X66625Y14815D02*
X67025D01*
X66455Y14645D02*
X66625Y14815D01*
X66455Y13795D02*
Y14645D01*
X62109Y22041D02*
X62110Y22040D01*
X60978Y18578D02*
X61250Y18850D01*
X60268Y18578D02*
X60978D01*
X60909Y19475D02*
X61250D01*
X60268Y18834D02*
X60909Y19475D01*
X59844Y19258D02*
X60210Y19624D01*
Y20140D01*
X59935Y22041D02*
X59936Y22040D01*
X60445Y23125D02*
X60478Y23159D01*
X59585Y20140D02*
X59588Y20137D01*
Y19258D02*
Y20137D01*
X59076Y18834D02*
X59460Y18450D01*
X58652Y18834D02*
X59076D01*
X59460Y18450D02*
X59844Y18066D01*
Y17642D02*
Y18066D01*
X59076D02*
X59460Y18450D01*
X58652Y18066D02*
X59076D01*
Y17642D02*
Y18066D01*
X59844D02*
X60268D01*
X59588Y18578D02*
X60268D01*
X59460Y18450D02*
X59588Y18578D01*
X59460Y18450D02*
X59588Y18322D01*
X60268D01*
X59844Y18834D02*
Y19258D01*
X59332Y18578D02*
X59460Y18450D01*
X59332Y18578D02*
Y19258D01*
X59588Y17642D02*
Y18322D01*
D27*
X28700Y11380D02*
D03*
X20870Y18180D02*
D03*
X18400Y19360D02*
D03*
X12900Y20180D02*
D03*
X50700Y11380D02*
D03*
X42870Y18180D02*
D03*
X40400Y19360D02*
D03*
X34900Y20180D02*
D03*
X72700Y11380D02*
D03*
X64870Y18180D02*
D03*
X62400Y19360D02*
D03*
X56900Y20180D02*
D03*
D28*
X27700Y11380D02*
D03*
X31100Y19180D02*
D03*
Y18180D02*
D03*
Y17180D02*
D03*
Y16180D02*
D03*
Y15180D02*
D03*
X19870Y18180D02*
D03*
X23400Y20360D02*
D03*
X22400D02*
D03*
X21400D02*
D03*
X20400D02*
D03*
X19400D02*
D03*
X18400D02*
D03*
X23400Y19360D02*
D03*
X22400D02*
D03*
X21400D02*
D03*
X19400D02*
D03*
X20400D02*
D03*
X11900Y20180D02*
D03*
X49700Y11380D02*
D03*
X53100Y19180D02*
D03*
Y18180D02*
D03*
Y17180D02*
D03*
Y16180D02*
D03*
Y15180D02*
D03*
X41870Y18180D02*
D03*
X45400Y20360D02*
D03*
X44400D02*
D03*
X43400D02*
D03*
X42400D02*
D03*
X41400D02*
D03*
X40400D02*
D03*
X45400Y19360D02*
D03*
X44400D02*
D03*
X43400D02*
D03*
X41400D02*
D03*
X42400D02*
D03*
X33900Y20180D02*
D03*
X71700Y11380D02*
D03*
X75100Y19180D02*
D03*
Y18180D02*
D03*
Y17180D02*
D03*
Y16180D02*
D03*
Y15180D02*
D03*
X63870Y18180D02*
D03*
X67400Y20360D02*
D03*
X66400D02*
D03*
X65400D02*
D03*
X64400D02*
D03*
X63400D02*
D03*
X62400D02*
D03*
X67400Y19360D02*
D03*
X66400D02*
D03*
X65400D02*
D03*
X63400D02*
D03*
X64400D02*
D03*
X55900Y20180D02*
D03*
D29*
X30732Y12900D02*
D03*
X12008D02*
D03*
X52732D02*
D03*
X34008D02*
D03*
X74732D02*
D03*
X56008D02*
D03*
D30*
X11680Y17697D02*
D03*
X12340D02*
D03*
X12999D02*
D03*
Y18347D02*
D03*
X12340D02*
D03*
X11680D02*
D03*
X33680Y17697D02*
D03*
X34340D02*
D03*
X34999D02*
D03*
Y18347D02*
D03*
X34340D02*
D03*
X33680D02*
D03*
X55680Y17697D02*
D03*
X56340D02*
D03*
X56999D02*
D03*
Y18347D02*
D03*
X56340D02*
D03*
X55680D02*
D03*
D31*
X28800Y18580D02*
D03*
X28040D02*
D03*
X28300Y19080D02*
D03*
Y18080D02*
D03*
X28800D02*
D03*
Y19080D02*
D03*
X27800Y18080D02*
D03*
Y19080D02*
D03*
X50800Y18580D02*
D03*
X50040D02*
D03*
X50300Y19080D02*
D03*
Y18080D02*
D03*
X50800D02*
D03*
Y19080D02*
D03*
X49800Y18080D02*
D03*
Y19080D02*
D03*
X72800Y18580D02*
D03*
X72040D02*
D03*
X72300Y19080D02*
D03*
Y18080D02*
D03*
X72800D02*
D03*
Y19080D02*
D03*
X71800Y18080D02*
D03*
Y19080D02*
D03*
D32*
X31100Y20180D02*
D03*
X14500Y13780D02*
D03*
X53100Y20180D02*
D03*
X36500Y13780D02*
D03*
X75100Y20180D02*
D03*
X58500Y13780D02*
D03*
D33*
X27892Y22041D02*
D03*
X27349Y23159D02*
D03*
X26805Y22041D02*
D03*
X26262Y23159D02*
D03*
X25718Y22041D02*
D03*
X25175Y23159D02*
D03*
X24631Y22041D02*
D03*
X24088Y23159D02*
D03*
X23544Y22041D02*
D03*
X23001Y23159D02*
D03*
X22457Y22041D02*
D03*
X21914Y23159D02*
D03*
X21370Y22041D02*
D03*
X20826Y23159D02*
D03*
X20283Y22041D02*
D03*
X19739Y23159D02*
D03*
X19196Y22041D02*
D03*
X18652Y23159D02*
D03*
X18109Y22041D02*
D03*
X17565Y23159D02*
D03*
X17022Y22041D02*
D03*
X16478Y23159D02*
D03*
X15935Y22041D02*
D03*
X15391Y23159D02*
D03*
X49892Y22041D02*
D03*
X49349Y23159D02*
D03*
X48805Y22041D02*
D03*
X48262Y23159D02*
D03*
X47718Y22041D02*
D03*
X47175Y23159D02*
D03*
X46631Y22041D02*
D03*
X46088Y23159D02*
D03*
X45544Y22041D02*
D03*
X45001Y23159D02*
D03*
X44457Y22041D02*
D03*
X43913Y23159D02*
D03*
X43370Y22041D02*
D03*
X42826Y23159D02*
D03*
X42283Y22041D02*
D03*
X41739Y23159D02*
D03*
X41196Y22041D02*
D03*
X40652Y23159D02*
D03*
X40109Y22041D02*
D03*
X39565Y23159D02*
D03*
X39022Y22041D02*
D03*
X38478Y23159D02*
D03*
X37935Y22041D02*
D03*
X37391Y23159D02*
D03*
X71892Y22041D02*
D03*
X71349Y23159D02*
D03*
X70805Y22041D02*
D03*
X70262Y23159D02*
D03*
X69718Y22041D02*
D03*
X69175Y23159D02*
D03*
X68631Y22041D02*
D03*
X68088Y23159D02*
D03*
X67544Y22041D02*
D03*
X67001Y23159D02*
D03*
X66457Y22041D02*
D03*
X65914Y23159D02*
D03*
X65370Y22041D02*
D03*
X64826Y23159D02*
D03*
X64283Y22041D02*
D03*
X63739Y23159D02*
D03*
X63196Y22041D02*
D03*
X62652Y23159D02*
D03*
X62109Y22041D02*
D03*
X61565Y23159D02*
D03*
X61022Y22041D02*
D03*
X60478Y23159D02*
D03*
X59935Y22041D02*
D03*
X59391Y23159D02*
D03*
D34*
X14848Y22041D02*
D03*
X36848D02*
D03*
X58848D02*
D03*
D35*
X12108Y22600D02*
D03*
X30632D02*
D03*
X34108D02*
D03*
X52632D02*
D03*
X56108D02*
D03*
X74632D02*
D03*
D36*
X23120Y18130D02*
D03*
X22170Y12790D02*
D03*
X15460Y13650D02*
D03*
X16580Y20870D02*
D03*
X27000Y17270D02*
D03*
X25510Y18120D02*
D03*
X26440Y18100D02*
D03*
X26240Y14190D02*
D03*
X15260Y12790D02*
D03*
X28000Y12660D02*
D03*
X26230Y11970D02*
D03*
X13900Y17210D02*
D03*
X24690Y13320D02*
D03*
X17650Y13640D02*
D03*
X15240Y15810D02*
D03*
X27200Y19790D02*
D03*
X26630Y14890D02*
D03*
X25990Y21020D02*
D03*
Y18650D02*
D03*
X29430Y17320D02*
D03*
X27020Y21000D02*
D03*
X16520Y16130D02*
D03*
X45120Y18130D02*
D03*
X44170Y12790D02*
D03*
X37460Y13650D02*
D03*
X38580Y20870D02*
D03*
X49000Y17270D02*
D03*
X47510Y18120D02*
D03*
X48440Y18100D02*
D03*
X48240Y14190D02*
D03*
X37260Y12790D02*
D03*
X50000Y12660D02*
D03*
X48230Y11970D02*
D03*
X35900Y17210D02*
D03*
X46690Y13320D02*
D03*
X39650Y13640D02*
D03*
X37240Y15810D02*
D03*
X49200Y19790D02*
D03*
X48630Y14890D02*
D03*
X47990Y21020D02*
D03*
Y18650D02*
D03*
X51430Y17320D02*
D03*
X49020Y21000D02*
D03*
X38520Y16130D02*
D03*
X67120Y18130D02*
D03*
X66170Y12790D02*
D03*
X59460Y13650D02*
D03*
X60580Y20870D02*
D03*
X71000Y17270D02*
D03*
X69510Y18120D02*
D03*
X70440Y18100D02*
D03*
X70240Y14190D02*
D03*
X59260Y12790D02*
D03*
X72000Y12660D02*
D03*
X70230Y11970D02*
D03*
X57900Y17210D02*
D03*
X68690Y13320D02*
D03*
X61650Y13640D02*
D03*
X59240Y15810D02*
D03*
X71200Y19790D02*
D03*
X70630Y14890D02*
D03*
X69990Y21020D02*
D03*
Y18650D02*
D03*
X73430Y17320D02*
D03*
X71020Y21000D02*
D03*
X60520Y16130D02*
D03*
M02*
