%FSLAX24Y24*%
%MOIN*%
G70*
G01*
G75*
G04 Layer_Color=16711935*
%ADD10O,0.0940X0.0250*%
%ADD11R,0.0940X0.0250*%
%ADD12R,0.0385X0.0520*%
%ADD13R,0.0520X0.0385*%
%ADD14R,0.0787X0.0315*%
%ADD15R,0.1102X0.0315*%
%ADD16R,0.0315X0.0787*%
%ADD17R,0.0748X0.1339*%
%ADD18O,0.0138X0.0512*%
%ADD19O,0.0512X0.0138*%
%ADD20R,0.0906X0.0906*%
%ADD21R,0.0270X0.0270*%
%ADD22R,0.0320X0.0360*%
%ADD23R,0.0400X0.0140*%
%ADD24R,0.0600X0.0600*%
%ADD25C,0.0250*%
%ADD26C,0.0120*%
%ADD27R,0.0591X0.0591*%
%ADD28C,0.0591*%
%ADD29C,0.2000*%
%ADD30C,0.0551*%
%ADD31C,0.0394*%
%ADD32R,0.0591X0.0591*%
%ADD33C,0.0665*%
%ADD34R,0.0665X0.0665*%
%ADD35C,0.1874*%
%ADD36C,0.0500*%
%ADD37R,0.0480X0.0787*%
%ADD38C,0.0030*%
%ADD39C,0.0098*%
%ADD40C,0.0080*%
%ADD41C,0.0079*%
%ADD42C,0.0197*%
%ADD43C,0.0100*%
%ADD44C,0.0050*%
%ADD45C,0.0059*%
%ADD46O,0.1020X0.0330*%
%ADD47R,0.1020X0.0330*%
%ADD48R,0.0465X0.0600*%
%ADD49R,0.0600X0.0465*%
%ADD50R,0.0867X0.0395*%
%ADD51R,0.1182X0.0395*%
%ADD52R,0.0395X0.0867*%
%ADD53R,0.0828X0.1419*%
%ADD54O,0.0218X0.0592*%
%ADD55O,0.0592X0.0218*%
%ADD56R,0.0986X0.0986*%
%ADD57R,0.0350X0.0350*%
%ADD58R,0.0400X0.0440*%
%ADD59R,0.0480X0.0220*%
%ADD60R,0.0680X0.0680*%
%ADD61R,0.0671X0.0671*%
%ADD62C,0.0671*%
%ADD63C,0.2080*%
%ADD64C,0.0631*%
%ADD65C,0.0474*%
%ADD66R,0.0671X0.0671*%
%ADD67C,0.0745*%
%ADD68R,0.0745X0.0745*%
%ADD69C,0.1954*%
%ADD70C,0.0580*%
%ADD71R,0.0560X0.0867*%
D48*
X12500Y15180D02*
D03*
X13125D02*
D03*
X11700Y16180D02*
D03*
X12325D02*
D03*
X13900D02*
D03*
X13275D02*
D03*
X27900Y16780D02*
D03*
X28525D02*
D03*
X34500Y15180D02*
D03*
X35125D02*
D03*
X33700Y16180D02*
D03*
X34325D02*
D03*
X35900D02*
D03*
X35275D02*
D03*
X49900Y16780D02*
D03*
X50525D02*
D03*
X56500Y15180D02*
D03*
X57125D02*
D03*
X55700Y16180D02*
D03*
X56325D02*
D03*
X57900D02*
D03*
X57275D02*
D03*
X71900Y16780D02*
D03*
X72525D02*
D03*
D58*
X13900Y18780D02*
D03*
Y18180D02*
D03*
X35900Y18780D02*
D03*
Y18180D02*
D03*
X57900Y18780D02*
D03*
Y18180D02*
D03*
D61*
X28700Y11380D02*
D03*
X20870Y18180D02*
D03*
X18400Y19360D02*
D03*
X12900Y20180D02*
D03*
X50700Y11380D02*
D03*
X42870Y18180D02*
D03*
X40400Y19360D02*
D03*
X34900Y20180D02*
D03*
X72700Y11380D02*
D03*
X64870Y18180D02*
D03*
X62400Y19360D02*
D03*
X56900Y20180D02*
D03*
D62*
X27700Y11380D02*
D03*
X31100Y19180D02*
D03*
Y18180D02*
D03*
Y17180D02*
D03*
Y16180D02*
D03*
Y15180D02*
D03*
X19870Y18180D02*
D03*
X23400Y20360D02*
D03*
X22400D02*
D03*
X21400D02*
D03*
X20400D02*
D03*
X19400D02*
D03*
X18400D02*
D03*
X23400Y19360D02*
D03*
X22400D02*
D03*
X21400D02*
D03*
X19400D02*
D03*
X20400D02*
D03*
X11900Y20180D02*
D03*
X49700Y11380D02*
D03*
X53100Y19180D02*
D03*
Y18180D02*
D03*
Y17180D02*
D03*
Y16180D02*
D03*
Y15180D02*
D03*
X41870Y18180D02*
D03*
X45400Y20360D02*
D03*
X44400D02*
D03*
X43400D02*
D03*
X42400D02*
D03*
X41400D02*
D03*
X40400D02*
D03*
X45400Y19360D02*
D03*
X44400D02*
D03*
X43400D02*
D03*
X41400D02*
D03*
X42400D02*
D03*
X33900Y20180D02*
D03*
X71700Y11380D02*
D03*
X75100Y19180D02*
D03*
Y18180D02*
D03*
Y17180D02*
D03*
Y16180D02*
D03*
Y15180D02*
D03*
X63870Y18180D02*
D03*
X67400Y20360D02*
D03*
X66400D02*
D03*
X65400D02*
D03*
X64400D02*
D03*
X63400D02*
D03*
X62400D02*
D03*
X67400Y19360D02*
D03*
X66400D02*
D03*
X65400D02*
D03*
X63400D02*
D03*
X64400D02*
D03*
X55900Y20180D02*
D03*
D63*
X30732Y12900D02*
D03*
X12008D02*
D03*
X52732D02*
D03*
X34008D02*
D03*
X74732D02*
D03*
X56008D02*
D03*
D64*
X11680Y17697D02*
D03*
X12340D02*
D03*
X12999D02*
D03*
Y18347D02*
D03*
X12340D02*
D03*
X11680D02*
D03*
X33680Y17697D02*
D03*
X34340D02*
D03*
X34999D02*
D03*
Y18347D02*
D03*
X34340D02*
D03*
X33680D02*
D03*
X55680Y17697D02*
D03*
X56340D02*
D03*
X56999D02*
D03*
Y18347D02*
D03*
X56340D02*
D03*
X55680D02*
D03*
D65*
X28800Y18580D02*
D03*
X28040D02*
D03*
X28300Y19080D02*
D03*
Y18080D02*
D03*
X28800D02*
D03*
Y19080D02*
D03*
X27800Y18080D02*
D03*
Y19080D02*
D03*
X50800Y18580D02*
D03*
X50040D02*
D03*
X50300Y19080D02*
D03*
Y18080D02*
D03*
X50800D02*
D03*
Y19080D02*
D03*
X49800Y18080D02*
D03*
Y19080D02*
D03*
X72800Y18580D02*
D03*
X72040D02*
D03*
X72300Y19080D02*
D03*
Y18080D02*
D03*
X72800D02*
D03*
Y19080D02*
D03*
X71800Y18080D02*
D03*
Y19080D02*
D03*
D66*
X31100Y20180D02*
D03*
X14500Y13780D02*
D03*
X53100Y20180D02*
D03*
X36500Y13780D02*
D03*
X75100Y20180D02*
D03*
X58500Y13780D02*
D03*
D67*
X27892Y22041D02*
D03*
X27349Y23159D02*
D03*
X26805Y22041D02*
D03*
X26262Y23159D02*
D03*
X25718Y22041D02*
D03*
X25175Y23159D02*
D03*
X24631Y22041D02*
D03*
X24088Y23159D02*
D03*
X23544Y22041D02*
D03*
X23001Y23159D02*
D03*
X22457Y22041D02*
D03*
X21914Y23159D02*
D03*
X21370Y22041D02*
D03*
X20826Y23159D02*
D03*
X20283Y22041D02*
D03*
X19739Y23159D02*
D03*
X19196Y22041D02*
D03*
X18652Y23159D02*
D03*
X18109Y22041D02*
D03*
X17565Y23159D02*
D03*
X17022Y22041D02*
D03*
X16478Y23159D02*
D03*
X15935Y22041D02*
D03*
X15391Y23159D02*
D03*
X49892Y22041D02*
D03*
X49349Y23159D02*
D03*
X48805Y22041D02*
D03*
X48262Y23159D02*
D03*
X47718Y22041D02*
D03*
X47175Y23159D02*
D03*
X46631Y22041D02*
D03*
X46088Y23159D02*
D03*
X45544Y22041D02*
D03*
X45001Y23159D02*
D03*
X44457Y22041D02*
D03*
X43913Y23159D02*
D03*
X43370Y22041D02*
D03*
X42826Y23159D02*
D03*
X42283Y22041D02*
D03*
X41739Y23159D02*
D03*
X41196Y22041D02*
D03*
X40652Y23159D02*
D03*
X40109Y22041D02*
D03*
X39565Y23159D02*
D03*
X39022Y22041D02*
D03*
X38478Y23159D02*
D03*
X37935Y22041D02*
D03*
X37391Y23159D02*
D03*
X71892Y22041D02*
D03*
X71349Y23159D02*
D03*
X70805Y22041D02*
D03*
X70262Y23159D02*
D03*
X69718Y22041D02*
D03*
X69175Y23159D02*
D03*
X68631Y22041D02*
D03*
X68088Y23159D02*
D03*
X67544Y22041D02*
D03*
X67001Y23159D02*
D03*
X66457Y22041D02*
D03*
X65914Y23159D02*
D03*
X65370Y22041D02*
D03*
X64826Y23159D02*
D03*
X64283Y22041D02*
D03*
X63739Y23159D02*
D03*
X63196Y22041D02*
D03*
X62652Y23159D02*
D03*
X62109Y22041D02*
D03*
X61565Y23159D02*
D03*
X61022Y22041D02*
D03*
X60478Y23159D02*
D03*
X59935Y22041D02*
D03*
X59391Y23159D02*
D03*
D68*
X14848Y22041D02*
D03*
X36848D02*
D03*
X58848D02*
D03*
D69*
X12108Y22600D02*
D03*
X30632D02*
D03*
X34108D02*
D03*
X52632D02*
D03*
X56108D02*
D03*
X74632D02*
D03*
D70*
X23120Y18130D02*
D03*
X22170Y12790D02*
D03*
X15460Y13650D02*
D03*
X16580Y20870D02*
D03*
X27000Y17270D02*
D03*
X25510Y18120D02*
D03*
X26440Y18100D02*
D03*
X26240Y14190D02*
D03*
X15260Y12790D02*
D03*
X28000Y12660D02*
D03*
X26230Y11970D02*
D03*
X13900Y17210D02*
D03*
X24690Y13320D02*
D03*
X17650Y13640D02*
D03*
X15240Y15810D02*
D03*
X27200Y19790D02*
D03*
X26630Y14890D02*
D03*
X25990Y21020D02*
D03*
Y18650D02*
D03*
X29430Y17320D02*
D03*
X27020Y21000D02*
D03*
X16520Y16130D02*
D03*
X45120Y18130D02*
D03*
X44170Y12790D02*
D03*
X37460Y13650D02*
D03*
X38580Y20870D02*
D03*
X49000Y17270D02*
D03*
X47510Y18120D02*
D03*
X48440Y18100D02*
D03*
X48240Y14190D02*
D03*
X37260Y12790D02*
D03*
X50000Y12660D02*
D03*
X48230Y11970D02*
D03*
X35900Y17210D02*
D03*
X46690Y13320D02*
D03*
X39650Y13640D02*
D03*
X37240Y15810D02*
D03*
X49200Y19790D02*
D03*
X48630Y14890D02*
D03*
X47990Y21020D02*
D03*
Y18650D02*
D03*
X51430Y17320D02*
D03*
X49020Y21000D02*
D03*
X38520Y16130D02*
D03*
X67120Y18130D02*
D03*
X66170Y12790D02*
D03*
X59460Y13650D02*
D03*
X60580Y20870D02*
D03*
X71000Y17270D02*
D03*
X69510Y18120D02*
D03*
X70440Y18100D02*
D03*
X70240Y14190D02*
D03*
X59260Y12790D02*
D03*
X72000Y12660D02*
D03*
X70230Y11970D02*
D03*
X57900Y17210D02*
D03*
X68690Y13320D02*
D03*
X61650Y13640D02*
D03*
X59240Y15810D02*
D03*
X71200Y19790D02*
D03*
X70630Y14890D02*
D03*
X69990Y21020D02*
D03*
Y18650D02*
D03*
X73430Y17320D02*
D03*
X71020Y21000D02*
D03*
X60520Y16130D02*
D03*
D71*
X11700Y17223D02*
D03*
X12338D02*
D03*
X12976D02*
D03*
Y18819D02*
D03*
X12338D02*
D03*
X11700D02*
D03*
X33700Y17223D02*
D03*
X34338D02*
D03*
X34976D02*
D03*
Y18819D02*
D03*
X34338D02*
D03*
X33700D02*
D03*
X55700Y17223D02*
D03*
X56338D02*
D03*
X56976D02*
D03*
Y18819D02*
D03*
X56338D02*
D03*
X55700D02*
D03*
M02*
