G04 Layer_Color=8388736*
%FSLAX25Y25*%
%MOIN*%
G70*
G01*
G75*
%ADD59R,0.04400X0.04000*%
%ADD60R,0.03400X0.08800*%
%ADD61R,0.04000X0.04400*%
%ADD62R,0.04650X0.06000*%
%ADD63R,0.03792X0.08674*%
%ADD64R,0.05800X0.05800*%
%ADD65R,0.05300X0.06800*%
%ADD66O,0.06902X0.02572*%
%ADD67R,0.03400X0.05800*%
%ADD68R,0.05800X0.03400*%
%ADD69C,0.01800*%
%ADD70R,0.07453X0.07453*%
%ADD71C,0.07453*%
%ADD72C,0.19540*%
%ADD73C,0.06706*%
%ADD74R,0.06706X0.06706*%
%ADD75C,0.10642*%
%ADD76C,0.08674*%
D59*
X303000Y351500D02*
D03*
X297000D02*
D03*
X143000Y367000D02*
D03*
X149000D02*
D03*
X159000Y326500D02*
D03*
X153000D02*
D03*
X269500Y365000D02*
D03*
X275500D02*
D03*
X120000Y327500D02*
D03*
X114000D02*
D03*
X186000Y362500D02*
D03*
X180000D02*
D03*
X297000Y358500D02*
D03*
X303000D02*
D03*
X133500Y362000D02*
D03*
X127500D02*
D03*
X297000Y366000D02*
D03*
X303000D02*
D03*
X428100Y437600D02*
D03*
X434100D02*
D03*
X482400D02*
D03*
X488400D02*
D03*
X525900D02*
D03*
X531900D02*
D03*
X580200D02*
D03*
X586200D02*
D03*
X596500Y328500D02*
D03*
X602500D02*
D03*
X609000Y403000D02*
D03*
X615000D02*
D03*
X589000D02*
D03*
X583000D02*
D03*
X542100Y328500D02*
D03*
X548100D02*
D03*
X554600Y403000D02*
D03*
X560600D02*
D03*
X534600D02*
D03*
X528600D02*
D03*
X498650Y328500D02*
D03*
X504650D02*
D03*
X511150Y403000D02*
D03*
X517150D02*
D03*
X491150D02*
D03*
X485150D02*
D03*
X444400Y328500D02*
D03*
X450400D02*
D03*
X456900Y403000D02*
D03*
X462900D02*
D03*
X436900D02*
D03*
X430900D02*
D03*
D60*
X175500Y349000D02*
D03*
X190500Y328500D02*
D03*
X180500D02*
D03*
X175500D02*
D03*
X180500Y349000D02*
D03*
X185500D02*
D03*
X190500D02*
D03*
X185500Y328500D02*
D03*
X144000Y357000D02*
D03*
X159000Y336500D02*
D03*
X149000D02*
D03*
X144000D02*
D03*
X149000Y357000D02*
D03*
X154000D02*
D03*
X159000D02*
D03*
X154000Y336500D02*
D03*
D61*
X256000Y358500D02*
D03*
Y352500D02*
D03*
X247000Y355500D02*
D03*
Y361500D02*
D03*
X346500Y332000D02*
D03*
Y338000D02*
D03*
X207500Y331500D02*
D03*
Y337500D02*
D03*
X201500Y331500D02*
D03*
Y337500D02*
D03*
X214000Y331500D02*
D03*
Y337500D02*
D03*
X220500Y331500D02*
D03*
Y337500D02*
D03*
X240500Y331500D02*
D03*
Y337500D02*
D03*
X234000Y331500D02*
D03*
Y337500D02*
D03*
X247000Y331500D02*
D03*
Y337500D02*
D03*
X253500Y331500D02*
D03*
Y337500D02*
D03*
X284000Y331500D02*
D03*
Y337500D02*
D03*
X277500Y331500D02*
D03*
Y337500D02*
D03*
X290500Y331500D02*
D03*
Y337500D02*
D03*
X297000Y331500D02*
D03*
Y337500D02*
D03*
X317000Y331500D02*
D03*
Y337500D02*
D03*
X310500Y331500D02*
D03*
Y337500D02*
D03*
X323500Y331500D02*
D03*
Y337500D02*
D03*
X330000Y331500D02*
D03*
Y337500D02*
D03*
X211500Y355500D02*
D03*
Y361500D02*
D03*
X136500Y343500D02*
D03*
Y337500D02*
D03*
X168000Y341500D02*
D03*
Y335500D02*
D03*
X264500Y339000D02*
D03*
Y333000D02*
D03*
X128500Y343500D02*
D03*
Y349500D02*
D03*
X288000Y432500D02*
D03*
Y438500D02*
D03*
X281000Y432500D02*
D03*
Y438500D02*
D03*
X190500Y432500D02*
D03*
Y438500D02*
D03*
X183500Y432500D02*
D03*
Y438500D02*
D03*
X198500Y356000D02*
D03*
Y362000D02*
D03*
D62*
X113000D02*
D03*
X120000D02*
D03*
X111500Y335500D02*
D03*
X118500D02*
D03*
D63*
X534600Y341256D02*
D03*
X544600D02*
D03*
X554600Y388500D02*
D03*
X534600D02*
D03*
X544600D02*
D03*
X554600Y341256D02*
D03*
X511150D02*
D03*
X501150Y388500D02*
D03*
X491150D02*
D03*
X511150D02*
D03*
X501150Y341256D02*
D03*
X491150D02*
D03*
X436900D02*
D03*
X446900D02*
D03*
X456900Y388500D02*
D03*
X436900D02*
D03*
X446900D02*
D03*
X456900Y341256D02*
D03*
X609000D02*
D03*
X599000Y388500D02*
D03*
X589000D02*
D03*
X609000D02*
D03*
X599000Y341256D02*
D03*
X589000D02*
D03*
D64*
X309902Y366018D02*
D03*
X318302D02*
D03*
D65*
X311500Y432500D02*
D03*
X301000D02*
D03*
D66*
X280866Y350161D02*
D03*
Y352720D02*
D03*
Y355279D02*
D03*
Y357839D02*
D03*
X264134Y350161D02*
D03*
Y352720D02*
D03*
Y355279D02*
D03*
Y357839D02*
D03*
D67*
X112750Y353500D02*
D03*
X120250D02*
D03*
X112750Y343500D02*
D03*
X116500D02*
D03*
X120250D02*
D03*
D68*
X234000Y359500D02*
D03*
Y363250D02*
D03*
Y355750D02*
D03*
X224000Y359500D02*
D03*
X224000Y363250D02*
D03*
Y355750D02*
D03*
D69*
X668500Y271500D02*
D03*
Y275000D02*
D03*
Y278500D02*
D03*
Y282000D02*
D03*
Y285500D02*
D03*
Y289000D02*
D03*
Y292500D02*
D03*
Y296000D02*
D03*
Y299500D02*
D03*
Y303000D02*
D03*
Y306500D02*
D03*
Y310000D02*
D03*
Y313500D02*
D03*
Y317000D02*
D03*
Y320500D02*
D03*
Y324000D02*
D03*
Y327500D02*
D03*
Y331000D02*
D03*
Y334500D02*
D03*
Y338000D02*
D03*
Y341500D02*
D03*
Y345000D02*
D03*
Y348500D02*
D03*
Y352000D02*
D03*
Y355500D02*
D03*
Y359000D02*
D03*
Y362500D02*
D03*
Y366000D02*
D03*
Y369500D02*
D03*
Y373000D02*
D03*
Y376500D02*
D03*
Y380000D02*
D03*
Y383500D02*
D03*
Y387000D02*
D03*
Y390500D02*
D03*
Y394000D02*
D03*
Y397500D02*
D03*
Y401000D02*
D03*
Y404500D02*
D03*
Y408000D02*
D03*
Y411500D02*
D03*
Y415000D02*
D03*
Y418500D02*
D03*
Y422000D02*
D03*
Y425500D02*
D03*
Y429000D02*
D03*
Y432500D02*
D03*
Y436000D02*
D03*
Y439500D02*
D03*
Y443000D02*
D03*
Y446500D02*
D03*
Y450000D02*
D03*
Y453500D02*
D03*
Y457000D02*
D03*
Y460500D02*
D03*
Y464000D02*
D03*
Y467500D02*
D03*
Y471000D02*
D03*
Y474500D02*
D03*
Y478000D02*
D03*
Y481500D02*
D03*
Y485000D02*
D03*
Y488500D02*
D03*
Y492000D02*
D03*
Y495500D02*
D03*
X385000D02*
D03*
Y492000D02*
D03*
Y488500D02*
D03*
Y485000D02*
D03*
Y481500D02*
D03*
Y478000D02*
D03*
Y474500D02*
D03*
Y471000D02*
D03*
Y467500D02*
D03*
Y464000D02*
D03*
Y460500D02*
D03*
Y457000D02*
D03*
Y453500D02*
D03*
Y450000D02*
D03*
Y446500D02*
D03*
Y443000D02*
D03*
Y439500D02*
D03*
Y436000D02*
D03*
Y432500D02*
D03*
Y429000D02*
D03*
Y425500D02*
D03*
Y422000D02*
D03*
Y418500D02*
D03*
Y415000D02*
D03*
Y411500D02*
D03*
Y408000D02*
D03*
Y404500D02*
D03*
Y401000D02*
D03*
Y397500D02*
D03*
Y394000D02*
D03*
Y390500D02*
D03*
Y387000D02*
D03*
Y383500D02*
D03*
Y380000D02*
D03*
Y376500D02*
D03*
Y373000D02*
D03*
Y369500D02*
D03*
Y366000D02*
D03*
Y362500D02*
D03*
Y359000D02*
D03*
Y355500D02*
D03*
Y352000D02*
D03*
Y348500D02*
D03*
Y345000D02*
D03*
Y341500D02*
D03*
Y338000D02*
D03*
Y334500D02*
D03*
Y331000D02*
D03*
Y327500D02*
D03*
Y324000D02*
D03*
Y320500D02*
D03*
Y317000D02*
D03*
Y313500D02*
D03*
Y310000D02*
D03*
Y306500D02*
D03*
Y303000D02*
D03*
Y299500D02*
D03*
Y296000D02*
D03*
Y292500D02*
D03*
Y289000D02*
D03*
Y285500D02*
D03*
Y282000D02*
D03*
Y278500D02*
D03*
Y275000D02*
D03*
Y271500D02*
D03*
D70*
X335287Y454409D02*
D03*
X623688Y454009D02*
D03*
X428613Y312591D02*
D03*
X712220Y312500D02*
D03*
X712205Y454000D02*
D03*
X147138Y312492D02*
D03*
D71*
X139697Y454409D02*
D03*
X324421D02*
D03*
X313555D02*
D03*
X302689D02*
D03*
X291823D02*
D03*
X280957D02*
D03*
X270091D02*
D03*
X259225D02*
D03*
X248358D02*
D03*
X237492D02*
D03*
X226626D02*
D03*
X215760D02*
D03*
X204894D02*
D03*
X194028D02*
D03*
X183161D02*
D03*
X172295D02*
D03*
X161429D02*
D03*
X150563D02*
D03*
X329858Y465590D02*
D03*
X318992D02*
D03*
X308126D02*
D03*
X297260D02*
D03*
X286394D02*
D03*
X275528D02*
D03*
X264662D02*
D03*
X253795D02*
D03*
X242929D02*
D03*
X232063D02*
D03*
X221197D02*
D03*
X210331D02*
D03*
X199465D02*
D03*
X188599D02*
D03*
X177732D02*
D03*
X166866D02*
D03*
X156000D02*
D03*
X145134D02*
D03*
X433534Y465191D02*
D03*
X444400D02*
D03*
X455266D02*
D03*
X466132D02*
D03*
X476999D02*
D03*
X487865D02*
D03*
X498731D02*
D03*
X509597D02*
D03*
X520463D02*
D03*
X531329D02*
D03*
X542195D02*
D03*
X553061D02*
D03*
X563928D02*
D03*
X574794D02*
D03*
X585660D02*
D03*
X596526D02*
D03*
X607392D02*
D03*
X618258D02*
D03*
X438963Y454009D02*
D03*
X449829D02*
D03*
X460695D02*
D03*
X471561D02*
D03*
X482428D02*
D03*
X493294D02*
D03*
X504160D02*
D03*
X515026D02*
D03*
X525892D02*
D03*
X536758D02*
D03*
X547624D02*
D03*
X558491D02*
D03*
X569357D02*
D03*
X580223D02*
D03*
X591089D02*
D03*
X601955D02*
D03*
X612821D02*
D03*
X428097D02*
D03*
X624203Y312591D02*
D03*
X439479D02*
D03*
X450345D02*
D03*
X461211D02*
D03*
X472077D02*
D03*
X482943D02*
D03*
X493809D02*
D03*
X504675D02*
D03*
X515542D02*
D03*
X526408D02*
D03*
X537274D02*
D03*
X548140D02*
D03*
X559006D02*
D03*
X569872D02*
D03*
X580738D02*
D03*
X591605D02*
D03*
X602471D02*
D03*
X613337D02*
D03*
X434042Y301410D02*
D03*
X444908D02*
D03*
X455774D02*
D03*
X466640D02*
D03*
X477506D02*
D03*
X488372D02*
D03*
X499238D02*
D03*
X510105D02*
D03*
X520971D02*
D03*
X531837D02*
D03*
X542703D02*
D03*
X553569D02*
D03*
X564435D02*
D03*
X575302D02*
D03*
X586168D02*
D03*
X597034D02*
D03*
X607900D02*
D03*
X618766D02*
D03*
X902374Y301319D02*
D03*
X891508D02*
D03*
X880642D02*
D03*
X869775D02*
D03*
X858909D02*
D03*
X848043D02*
D03*
X837177D02*
D03*
X826311D02*
D03*
X815445D02*
D03*
X804579D02*
D03*
X793713D02*
D03*
X782846D02*
D03*
X771980D02*
D03*
X761114D02*
D03*
X750248D02*
D03*
X739382D02*
D03*
X728516D02*
D03*
X717650D02*
D03*
X896945Y312500D02*
D03*
X886079D02*
D03*
X875212D02*
D03*
X864346D02*
D03*
X853480D02*
D03*
X842614D02*
D03*
X831748D02*
D03*
X820882D02*
D03*
X810016D02*
D03*
X799150D02*
D03*
X788283D02*
D03*
X777417D02*
D03*
X766551D02*
D03*
X755685D02*
D03*
X744819D02*
D03*
X733953D02*
D03*
X723087D02*
D03*
X907811D02*
D03*
X902358Y465181D02*
D03*
X891492D02*
D03*
X880626D02*
D03*
X869760D02*
D03*
X858894D02*
D03*
X848028D02*
D03*
X837161D02*
D03*
X826295D02*
D03*
X815429D02*
D03*
X804563D02*
D03*
X793697D02*
D03*
X782831D02*
D03*
X771965D02*
D03*
X761098D02*
D03*
X750232D02*
D03*
X739366D02*
D03*
X728500D02*
D03*
X717634D02*
D03*
X896929Y454000D02*
D03*
X886063D02*
D03*
X875197D02*
D03*
X864331D02*
D03*
X853465D02*
D03*
X842598D02*
D03*
X831732D02*
D03*
X820866D02*
D03*
X810000D02*
D03*
X799134D02*
D03*
X788268D02*
D03*
X777402D02*
D03*
X766535D02*
D03*
X755669D02*
D03*
X744803D02*
D03*
X733937D02*
D03*
X723071D02*
D03*
X907795D02*
D03*
X337291Y301311D02*
D03*
X326425D02*
D03*
X315559D02*
D03*
X304693D02*
D03*
X293827D02*
D03*
X282961D02*
D03*
X272094D02*
D03*
X261228D02*
D03*
X250362D02*
D03*
X239496D02*
D03*
X228630D02*
D03*
X217764D02*
D03*
X206898D02*
D03*
X196031D02*
D03*
X185165D02*
D03*
X174299D02*
D03*
X163433D02*
D03*
X152567D02*
D03*
X331862Y312492D02*
D03*
X320996D02*
D03*
X310130D02*
D03*
X299264D02*
D03*
X288398D02*
D03*
X277531D02*
D03*
X266665D02*
D03*
X255799D02*
D03*
X244933D02*
D03*
X234067D02*
D03*
X223201D02*
D03*
X212335D02*
D03*
X201468D02*
D03*
X190602D02*
D03*
X179736D02*
D03*
X168870D02*
D03*
X158004D02*
D03*
X342728D02*
D03*
D72*
X112500Y460000D02*
D03*
X362500D02*
D03*
X650900Y459600D02*
D03*
X400900D02*
D03*
X651400Y307000D02*
D03*
X401400D02*
D03*
X685008Y306909D02*
D03*
X935008D02*
D03*
X685008Y459591D02*
D03*
X935008D02*
D03*
X119925Y306902D02*
D03*
X369925D02*
D03*
D73*
X834000Y364000D02*
D03*
Y374000D02*
D03*
X866000Y364000D02*
D03*
Y374000D02*
D03*
D74*
X834000Y354000D02*
D03*
X866000D02*
D03*
D75*
X252823Y392677D02*
D03*
X228177D02*
D03*
Y417323D02*
D03*
X252823D02*
D03*
X931323Y370677D02*
D03*
Y395323D02*
D03*
X906677D02*
D03*
Y370677D02*
D03*
D76*
X240500Y405000D02*
D03*
X919000Y383000D02*
D03*
M02*
