M48
;Layer_Color=9474304
;FILE_FORMAT=2:5
INCH,TZ
;TYPE=PLATED
T1F00S00C0.01000
T2F00S00C0.03500
T3F00S00C0.04291
T4F00S00C0.04331
T5F00S00C0.06299
T6F00S00C0.12835
;TYPE=NON_PLATED
T7F00S00C0.02500
%
T01
X125500Y327500
X124000Y334000
X129500Y337000
X136500Y331000
Y350000
X144000Y350500
X149000
X153500Y345500
X133500Y355500
X106250Y353500
X106500Y362000
X112750Y368250
X159000Y350500
X169000Y349000
X175500Y357500
X190500
X205000Y355500
Y361500
X217500Y355750
X214839Y344000
X221339
X234437
X247437
X253937
X271000Y339000
Y333000
X270634Y350161
X270866Y355279
X274366Y352720
X277902Y344000
X290902
X297402
X310500
X309500Y358500
X288500Y361000
Y366000
X282000Y365000
X288000Y351500
X256000Y365000
X247000Y368000
X240500Y363250
Y359500
X201839Y344000
X190500Y335000
X169000Y328500
X266500Y432500
X327000Y366000
X330000Y344000
X323500
X346500Y344500
X430900Y397500
X436900
X456900
X485150
X491150
X511150
X528600
X534600
X554600
X583000
X589000
X609000
X880500Y364000
T02
X834000Y354000
Y364000
Y374000
X866000
Y364000
Y354000
T03
X782846Y301319
X793713
X804579
X815445
X826311
X837177
X848043
X858909
X869775
X880642
X891508
X902374
X771980
X761114
X750248
X739382
X728516
X717650
X618766Y301410
X607900
X597034
X586168
X575302
X564435
X553569
X542703
X531837
X520971
X510105
X499238
X488372
X477506
X466640
X455774
X444908
X434042
X337291Y301311
X326425
X315559
X320996Y312492
X331862
X342728
X310130
X299264
X288398
X277531
X266665
X255799
X244933
X234067
X223201
X212335
X201468
X190602
X179736
X168870
X158004
X163433Y301311
X174299
X185165
X196031
X206898
X217764
X228630
X239496
X250362
X261228
X272094
X282961
X293827
X304693
X152567
X147138Y312492
X150563Y454409
X139697
X145134Y465590
X156000
X166866
X177732
X188599
X199465
X210331
X221197
X232063
X242929
X253795
X264662
X275528
X286394
X297260
X308126
X302689Y454409
X291823
X280957
X270091
X259225
X248358
X237492
X226626
X215760
X204894
X194028
X183161
X172295
X161429
X313555
X324421
X335287
X329858Y465590
X318992
X433534Y465191
X444400
X455266
X466132
X460695Y454009
X449829
X438963
X428097
X428613Y312591
X439479
X450345
X461211
X472077
X482943
X493809
X504675
X515542
X526408
X537274
X548140
X559006
X569872
X580738
X591605
X602471
X613337
X624203
X623688Y454009
X612821
X601955
X591089
X580223
X569357
X558491
X547624
X536758
X525892
X515026
X504160
X493294
X482428
X471561
X476999Y465191
X487865
X498731
X509597
X520463
X531329
X542195
X553061
X563928
X574794
X585660
X596526
X607392
X618258
X717634Y465181
X728500
X739366
X750232
X761098
X771965
X766535Y454000
X777402
X755669
X744803
X733937
X723071
X712205
X712220Y312500
X723087
X733953
X744819
X755685
X766551
X777417
X788283
X799150
X810016
X820882
X831748
X842614
X853480
X864346
X875212
X886079
X896945
X907811
X907795Y454000
X896929
X886063
X875197
X864331
X853465
X842598
X831732
X820866
X810000
X799134
X788268
X793697Y465181
X804563
X815429
X826295
X837161
X848028
X858894
X869760
X880626
X891492
X902358
X782831
T04
X240500Y405000
X919000Y383000
T05
X228177Y392677
X252823
Y417323
X228177
X906677Y395323
X931323
Y370677
X906677
T06
X935008Y306909
X685008
X651400Y307000
X401400
X369925Y306902
X119925
X112500Y460000
X362500
X400900Y459600
X650900
X685008Y459591
X935008
T07
X668500Y271500
Y275000
Y278500
Y282000
Y285500
Y289000
Y292500
Y296000
Y299500
Y303000
Y306500
Y310000
X385000
Y306500
Y303000
Y299500
Y296000
Y292500
Y289000
Y285500
Y282000
Y278500
Y275000
Y271500
Y313500
Y317000
Y320500
Y324000
Y327500
Y331000
Y334500
Y338000
Y341500
Y345000
Y348500
Y352000
Y355500
Y359000
Y362500
Y366000
Y369500
Y373000
Y376500
Y380000
Y383500
Y387000
Y390500
Y394000
Y397500
Y401000
Y404500
Y408000
Y411500
Y415000
Y418500
Y422000
Y425500
Y429000
Y432500
Y436000
Y439500
Y443000
Y446500
Y450000
Y453500
Y457000
Y460500
Y464000
Y467500
X668500
Y464000
Y460500
Y457000
Y453500
Y450000
Y446500
Y443000
Y439500
Y436000
Y432500
Y429000
Y425500
Y422000
Y418500
Y415000
Y411500
Y408000
Y404500
Y401000
Y397500
Y394000
Y390500
Y387000
Y383500
Y380000
Y376500
Y373000
Y369500
Y366000
Y362500
Y359000
Y355500
Y352000
Y348500
Y345000
Y341500
Y338000
Y334500
Y331000
Y327500
Y324000
Y320500
Y317000
Y313500
Y471000
Y474500
Y478000
Y481500
Y485000
Y488500
Y492000
Y495500
X385000
Y492000
Y488500
Y485000
Y481500
Y478000
Y474500
Y471000
M30
