%FSLAX24Y24*%
%MOIN*%
G70*
G01*
G75*
G04 Layer_Color=255*
%ADD10R,0.0320X0.0360*%
%ADD11R,0.0450X0.0600*%
%ADD12C,0.0100*%
%ADD13C,0.0250*%
%ADD14C,0.0600*%
%ADD15C,0.1700*%
%ADD16C,0.0591*%
%ADD17R,0.0591X0.0591*%
%ADD18R,0.0591X0.0591*%
%ADD19R,0.0630X0.0630*%
%ADD20C,0.0630*%
%ADD21R,0.0630X0.0630*%
%ADD22C,0.0500*%
%ADD23R,0.0360X0.0320*%
D10*
X40800Y46400D02*
D03*
Y47000D02*
D03*
X41400Y31200D02*
D03*
Y30600D02*
D03*
D14*
X28000Y27200D02*
D03*
X25000D02*
D03*
Y28200D02*
D03*
X28000D02*
D03*
Y30200D02*
D03*
X25000D02*
D03*
Y29200D02*
D03*
X28000D02*
D03*
X25000Y31200D02*
D03*
X28000D02*
D03*
Y26200D02*
D03*
X25000D02*
D03*
X28000Y24200D02*
D03*
X25000D02*
D03*
Y25200D02*
D03*
X28000D02*
D03*
Y23200D02*
D03*
X25000D02*
D03*
Y22200D02*
D03*
X28000D02*
D03*
Y38200D02*
D03*
X25000D02*
D03*
Y39200D02*
D03*
X28000D02*
D03*
Y41200D02*
D03*
X25000D02*
D03*
Y40200D02*
D03*
X28000D02*
D03*
X25000Y42200D02*
D03*
X28000D02*
D03*
Y37200D02*
D03*
X25000D02*
D03*
X28000Y35200D02*
D03*
X25000D02*
D03*
Y36200D02*
D03*
X28000D02*
D03*
Y34200D02*
D03*
X25000D02*
D03*
Y33200D02*
D03*
X28000D02*
D03*
X33600Y27200D02*
D03*
X30600D02*
D03*
Y28200D02*
D03*
X33600D02*
D03*
Y30200D02*
D03*
X30600D02*
D03*
Y29200D02*
D03*
X33600D02*
D03*
X30600Y31200D02*
D03*
X33600D02*
D03*
Y26200D02*
D03*
X30600D02*
D03*
X33600Y24200D02*
D03*
X30600D02*
D03*
Y25200D02*
D03*
X33600D02*
D03*
Y23200D02*
D03*
X30600D02*
D03*
Y22200D02*
D03*
X33600D02*
D03*
Y38200D02*
D03*
X30600D02*
D03*
Y39200D02*
D03*
X33600D02*
D03*
Y41200D02*
D03*
X30600D02*
D03*
Y40200D02*
D03*
X33600D02*
D03*
X30600Y42200D02*
D03*
X33600D02*
D03*
Y37200D02*
D03*
X30600D02*
D03*
X33600Y35200D02*
D03*
X30600D02*
D03*
Y36200D02*
D03*
X33600D02*
D03*
Y34200D02*
D03*
X30600D02*
D03*
Y33200D02*
D03*
X33600D02*
D03*
X39000Y27200D02*
D03*
X36000D02*
D03*
Y28200D02*
D03*
X39000D02*
D03*
Y30200D02*
D03*
X36000D02*
D03*
Y29200D02*
D03*
X39000D02*
D03*
X36000Y31200D02*
D03*
X39000D02*
D03*
Y26200D02*
D03*
X36000D02*
D03*
X39000Y24200D02*
D03*
X36000D02*
D03*
Y25200D02*
D03*
X39000D02*
D03*
Y23200D02*
D03*
X36000D02*
D03*
Y22200D02*
D03*
X39000D02*
D03*
Y38200D02*
D03*
X36000D02*
D03*
Y39200D02*
D03*
X39000D02*
D03*
Y41200D02*
D03*
X36000D02*
D03*
Y40200D02*
D03*
X39000D02*
D03*
X36000Y42200D02*
D03*
X39000D02*
D03*
Y37200D02*
D03*
X36000D02*
D03*
X39000Y35200D02*
D03*
X36000D02*
D03*
Y36200D02*
D03*
X39000D02*
D03*
Y34200D02*
D03*
X36000D02*
D03*
Y33200D02*
D03*
X39000D02*
D03*
X14600Y22525D02*
D03*
X15600Y23000D02*
D03*
Y40100D02*
D03*
Y42000D02*
D03*
Y41050D02*
D03*
Y39150D02*
D03*
Y38200D02*
D03*
Y33450D02*
D03*
Y34400D02*
D03*
Y36300D02*
D03*
Y37250D02*
D03*
Y35350D02*
D03*
Y25850D02*
D03*
Y27750D02*
D03*
Y26800D02*
D03*
Y24900D02*
D03*
Y23950D02*
D03*
Y28700D02*
D03*
Y29650D02*
D03*
Y31550D02*
D03*
Y32500D02*
D03*
Y30600D02*
D03*
X14600Y39625D02*
D03*
Y41525D02*
D03*
Y40575D02*
D03*
Y38675D02*
D03*
Y37725D02*
D03*
Y32975D02*
D03*
Y33925D02*
D03*
Y35825D02*
D03*
Y36775D02*
D03*
Y34875D02*
D03*
Y25375D02*
D03*
Y27275D02*
D03*
Y26325D02*
D03*
Y24425D02*
D03*
Y23475D02*
D03*
Y28225D02*
D03*
Y29175D02*
D03*
Y31075D02*
D03*
Y32025D02*
D03*
Y30125D02*
D03*
X13600Y29650D02*
D03*
Y31550D02*
D03*
Y30600D02*
D03*
Y28700D02*
D03*
Y27750D02*
D03*
Y23000D02*
D03*
Y23950D02*
D03*
Y25850D02*
D03*
Y26800D02*
D03*
Y24900D02*
D03*
Y34400D02*
D03*
Y36300D02*
D03*
Y35350D02*
D03*
Y33450D02*
D03*
Y32500D02*
D03*
Y37250D02*
D03*
Y38200D02*
D03*
Y40100D02*
D03*
Y41050D02*
D03*
Y39150D02*
D03*
D15*
X14600Y19770D02*
D03*
Y44770D02*
D03*
X24420Y19238D02*
D03*
X37540D02*
D03*
X43362Y17420D02*
D03*
Y30540D02*
D03*
Y34020D02*
D03*
Y47140D02*
D03*
X37580Y45163D02*
D03*
X24460D02*
D03*
D16*
X18900Y28600D02*
D03*
Y27600D02*
D03*
Y26600D02*
D03*
Y25600D02*
D03*
Y24600D02*
D03*
Y30600D02*
D03*
Y31600D02*
D03*
Y32600D02*
D03*
Y33600D02*
D03*
Y34600D02*
D03*
Y36600D02*
D03*
Y37600D02*
D03*
Y38600D02*
D03*
Y39600D02*
D03*
Y40600D02*
D03*
Y29600D02*
D03*
Y35600D02*
D03*
X20000Y19800D02*
D03*
X20900Y28600D02*
D03*
Y27600D02*
D03*
Y26600D02*
D03*
Y25600D02*
D03*
Y24600D02*
D03*
Y30600D02*
D03*
Y31600D02*
D03*
Y32600D02*
D03*
Y33600D02*
D03*
Y34600D02*
D03*
Y36600D02*
D03*
Y37600D02*
D03*
Y38600D02*
D03*
Y39600D02*
D03*
Y40600D02*
D03*
Y29600D02*
D03*
Y35600D02*
D03*
X22900Y28600D02*
D03*
Y27600D02*
D03*
Y26600D02*
D03*
Y25600D02*
D03*
Y24600D02*
D03*
Y30600D02*
D03*
Y31600D02*
D03*
Y32600D02*
D03*
Y33600D02*
D03*
Y34600D02*
D03*
Y36600D02*
D03*
Y37600D02*
D03*
Y38600D02*
D03*
Y39600D02*
D03*
Y40600D02*
D03*
Y29600D02*
D03*
Y35600D02*
D03*
D17*
X18900Y23600D02*
D03*
X19000Y21400D02*
D03*
X20900Y23600D02*
D03*
X22900D02*
D03*
D18*
X19000Y19800D02*
D03*
D19*
X34795Y19798D02*
D03*
X33160Y18678D02*
D03*
X27205Y44602D02*
D03*
X28840Y45722D02*
D03*
D20*
X33705Y19798D02*
D03*
X32615D02*
D03*
X31525D02*
D03*
X30435D02*
D03*
X29345D02*
D03*
X28255D02*
D03*
X27165D02*
D03*
X34250Y18678D02*
D03*
X32070D02*
D03*
X30980D02*
D03*
X29890D02*
D03*
X28800D02*
D03*
X27710D02*
D03*
X42803Y26705D02*
D03*
Y25615D02*
D03*
Y24525D02*
D03*
Y23435D02*
D03*
Y22345D02*
D03*
Y21255D02*
D03*
Y20165D02*
D03*
X43923Y27250D02*
D03*
Y25070D02*
D03*
Y23980D02*
D03*
Y22890D02*
D03*
Y21800D02*
D03*
Y20710D02*
D03*
X42803Y43305D02*
D03*
Y42215D02*
D03*
Y41125D02*
D03*
Y40035D02*
D03*
Y38945D02*
D03*
Y37855D02*
D03*
Y36765D02*
D03*
X43923Y43850D02*
D03*
Y41670D02*
D03*
Y40580D02*
D03*
Y39490D02*
D03*
Y38400D02*
D03*
Y37310D02*
D03*
X28295Y44602D02*
D03*
X29385D02*
D03*
X30475D02*
D03*
X31565D02*
D03*
X32655D02*
D03*
X33745D02*
D03*
X34835D02*
D03*
X27750Y45722D02*
D03*
X29930D02*
D03*
X31020D02*
D03*
X32110D02*
D03*
X33200D02*
D03*
X34290D02*
D03*
D21*
X42803Y27795D02*
D03*
X43923Y26160D02*
D03*
X42803Y44395D02*
D03*
X43923Y42760D02*
D03*
D23*
X25000Y43400D02*
D03*
X24400D02*
D03*
M02*
