M48
;Layer_Color=9474304
;FILE_FORMAT=2:4
INCH,LZ
;TYPE=PLATED
T1F00S00C0.0280
T2F00S00C0.0300
T3F00S00C0.0350
T4F00S00C0.0354
T5F00S00C0.0370
T6F00S00C0.0420
T7F00S00C0.1200
%
T01
X0351Y0246
X0459Y022
X0292Y0215
X0273Y0211
X0268Y0323
X0318Y032
X032Y0329
X0336Y032
X041Y0324
T02
X0336Y0222
Y0232
Y0242
Y0252
Y0262
Y0272
Y0282
Y0292
Y0302
Y0312
X036
Y0302
Y0292
Y0282
Y0272
Y0262
Y0252
Y0242
Y0232
Y0222
X039
Y0232
Y0242
Y0252
Y0262
Y0272
Y0282
Y0292
Y0302
Y0312
X0306
Y0302
Y0292
Y0282
Y0272
Y0262
Y0252
Y0242
Y0232
Y0222
X028
Y0232
Y0242
Y0252
Y0262
Y0272
Y0282
Y0292
Y0302
Y0312
X025
Y0302
Y0292
Y0282
Y0272
Y0262
Y0252
Y0242
Y0232
Y0222
Y0332
Y0342
Y0352
Y0362
Y0372
Y0382
Y0392
Y0402
Y0412
Y0422
X028
Y0412
Y0402
Y0392
Y0382
Y0372
Y0362
Y0352
Y0342
Y0332
X0306
Y0342
Y0352
Y0362
Y0372
Y0382
Y0392
Y0402
Y0412
Y0422
X0336
Y0412
Y0402
Y0392
Y0382
Y0372
Y0362
Y0352
Y0342
Y0332
X036
Y0342
Y0352
Y0362
Y0372
Y0382
Y0392
Y0402
Y0412
Y0422
X039
Y0412
Y0402
Y0392
Y0382
Y0372
Y0362
Y0352
Y0342
Y0332
T03
X019Y0198
X02
X019Y0214
T04
X0189Y0236
Y0246
Y0256
Y0266
Y0276
Y0286
Y0296
Y0306
X0209
Y0296
Y0286
Y0276
Y0266
Y0256
Y0246
Y0236
X0229
Y0246
Y0256
Y0266
Y0276
Y0286
Y0296
Y0306
Y0316
Y0326
Y0336
Y0346
Y0356
Y0366
Y0376
Y0386
Y0396
Y0406
X0209
Y0396
Y0386
Y0376
Y0366
Y0356
Y0346
Y0336
Y0326
Y0316
X0189
Y0326
Y0336
Y0346
Y0356
Y0366
Y0376
Y0386
Y0396
Y0406
T05
X0136Y023
Y02395
Y0249
Y02585
Y0268
Y02775
Y0287
Y02965
Y0306
X0146Y031075
Y030125
Y029175
Y028225
Y027275
Y026325
Y025375
Y024425
Y023475
Y022525
X0156Y023
Y02395
Y0249
Y02585
Y0268
Y02775
Y0287
Y02965
Y0306
Y03155
Y0325
Y03345
Y0344
Y03535
Y0363
Y03725
Y0382
Y03915
Y0401
Y04105
Y042
X0146Y041525
Y040575
Y039625
Y038675
Y037725
Y036775
Y035825
Y034875
Y033925
Y032975
Y032025
X0136Y03155
Y0325
Y03345
Y0344
Y03535
Y0363
Y03725
Y0382
Y03915
Y0401
Y04105
T06
X03207Y018678
X03316
X03425
X034795Y019798
X033705
X032615
X031525
X042803Y020165
Y021255
Y022345
Y023435
Y024525
Y025615
Y026705
Y027795
X043923Y02725
Y02616
Y02507
Y02398
Y02289
Y0218
Y02071
X030435Y019798
X029345
X028255
X027165
X02771Y018678
X0288
X02989
X03098
X030475Y044602
X029385
X028295
X027205
X02775Y045722
X02884
X02993
X03102
X03211
X0332
X03429
X033745Y044602
X032655
X031565
X034835
X042803Y044395
Y043305
Y042215
Y041125
Y040035
Y038945
Y037855
Y036765
X043923Y03731
Y0384
Y03949
Y04058
Y04167
Y04276
Y04385
T07
X03754Y019238
X043362Y01742
Y03054
X02442Y019238
X0146Y01977
Y04477
X02446Y045163
X03758
X043362Y03402
Y04714
M30
