%FSLAX24Y24*%
%MOIN*%
G70*
G01*
G75*
G04 Layer_Color=2752767*
%ADD10R,0.0320X0.0360*%
%ADD11R,0.0450X0.0600*%
%ADD12C,0.0100*%
%ADD13C,0.0250*%
%ADD14C,0.0600*%
%ADD15C,0.1700*%
%ADD16C,0.0591*%
%ADD17R,0.0591X0.0591*%
%ADD18R,0.0591X0.0591*%
%ADD19R,0.0630X0.0630*%
%ADD20C,0.0630*%
%ADD21R,0.0630X0.0630*%
%ADD22C,0.0500*%
%ADD23R,0.0360X0.0320*%
%ADD24C,0.0079*%
%ADD25C,0.0080*%
%ADD26C,0.0070*%
%ADD27C,0.0050*%
%ADD28R,0.0400X0.0440*%
%ADD29R,0.0530X0.0680*%
%ADD30C,0.0680*%
%ADD31C,0.1780*%
%ADD32C,0.0671*%
%ADD33R,0.0671X0.0671*%
%ADD34R,0.0671X0.0671*%
%ADD35R,0.0710X0.0710*%
%ADD36C,0.0710*%
%ADD37R,0.0710X0.0710*%
%ADD38C,0.0580*%
%ADD39R,0.0440X0.0400*%
%ADD40C,0.0067*%
D27*
X27800Y27000D02*
Y27400D01*
X28200D01*
Y27000D01*
X27800D01*
X24800D02*
Y27400D01*
X25200D01*
Y27000D01*
X24800D01*
Y28000D02*
Y28400D01*
X25200D01*
Y28000D01*
X24800D01*
X27800D02*
Y28400D01*
X28200D01*
Y28000D01*
X27800D01*
Y30000D02*
Y30400D01*
X28200D01*
Y30000D01*
X27800D01*
X24800D02*
Y30400D01*
X25200D01*
Y30000D01*
X24800D01*
Y29000D02*
Y29400D01*
X25200D01*
Y29000D01*
X24800D01*
X27800D02*
Y29400D01*
X28200D01*
Y29000D01*
X27800D01*
X24800Y31000D02*
Y31400D01*
X25200D01*
Y31000D01*
X24800D01*
X27800D02*
Y31400D01*
X28200D01*
Y31000D01*
X27800D01*
Y26000D02*
Y26400D01*
X28200D01*
Y26000D01*
X27800D01*
X24800D02*
Y26400D01*
X25200D01*
Y26000D01*
X24800D01*
X27800Y24000D02*
Y24400D01*
X28200D01*
Y24000D01*
X27800D01*
X24800D02*
Y24400D01*
X25200D01*
Y24000D01*
X24800D01*
Y25000D02*
Y25400D01*
X25200D01*
Y25000D01*
X24800D01*
X27800D02*
Y25400D01*
X28200D01*
Y25000D01*
X27800D01*
Y23000D02*
Y23400D01*
X28200D01*
Y23000D01*
X27800D01*
X24800D02*
Y23400D01*
X25200D01*
Y23000D01*
X24800D01*
Y22000D02*
Y22400D01*
X25200D01*
Y22000D01*
X24800D01*
X27800D02*
Y22400D01*
X28200D01*
Y22000D01*
X27800D01*
Y38000D02*
Y38400D01*
X28200D01*
Y38000D01*
X27800D01*
X24800D02*
Y38400D01*
X25200D01*
Y38000D01*
X24800D01*
Y39000D02*
Y39400D01*
X25200D01*
Y39000D01*
X24800D01*
X27800D02*
Y39400D01*
X28200D01*
Y39000D01*
X27800D01*
Y41000D02*
Y41400D01*
X28200D01*
Y41000D01*
X27800D01*
X24800D02*
Y41400D01*
X25200D01*
Y41000D01*
X24800D01*
Y40000D02*
Y40400D01*
X25200D01*
Y40000D01*
X24800D01*
X27800D02*
Y40400D01*
X28200D01*
Y40000D01*
X27800D01*
X24800Y42000D02*
Y42400D01*
X25200D01*
Y42000D01*
X24800D01*
X27800D02*
Y42400D01*
X28200D01*
Y42000D01*
X27800D01*
Y37000D02*
Y37400D01*
X28200D01*
Y37000D01*
X27800D01*
X24800D02*
Y37400D01*
X25200D01*
Y37000D01*
X24800D01*
X27800Y35000D02*
Y35400D01*
X28200D01*
Y35000D01*
X27800D01*
X24800D02*
Y35400D01*
X25200D01*
Y35000D01*
X24800D01*
Y36000D02*
Y36400D01*
X25200D01*
Y36000D01*
X24800D01*
X27800D02*
Y36400D01*
X28200D01*
Y36000D01*
X27800D01*
Y34000D02*
Y34400D01*
X28200D01*
Y34000D01*
X27800D01*
X24800D02*
Y34400D01*
X25200D01*
Y34000D01*
X24800D01*
Y33000D02*
Y33400D01*
X25200D01*
Y33000D01*
X24800D01*
X27800D02*
Y33400D01*
X28200D01*
Y33000D01*
X27800D01*
X33400Y27000D02*
Y27400D01*
X33800D01*
Y27000D01*
X33400D01*
X30400D02*
Y27400D01*
X30800D01*
Y27000D01*
X30400D01*
Y28000D02*
Y28400D01*
X30800D01*
Y28000D01*
X30400D01*
X33400D02*
Y28400D01*
X33800D01*
Y28000D01*
X33400D01*
Y30000D02*
Y30400D01*
X33800D01*
Y30000D01*
X33400D01*
X30400D02*
Y30400D01*
X30800D01*
Y30000D01*
X30400D01*
Y29000D02*
Y29400D01*
X30800D01*
Y29000D01*
X30400D01*
X33400D02*
Y29400D01*
X33800D01*
Y29000D01*
X33400D01*
X30400Y31000D02*
Y31400D01*
X30800D01*
Y31000D01*
X30400D01*
X33400D02*
Y31400D01*
X33800D01*
Y31000D01*
X33400D01*
Y26000D02*
Y26400D01*
X33800D01*
Y26000D01*
X33400D01*
X30400D02*
Y26400D01*
X30800D01*
Y26000D01*
X30400D01*
X33400Y24000D02*
Y24400D01*
X33800D01*
Y24000D01*
X33400D01*
X30400D02*
Y24400D01*
X30800D01*
Y24000D01*
X30400D01*
Y25000D02*
Y25400D01*
X30800D01*
Y25000D01*
X30400D01*
X33400D02*
Y25400D01*
X33800D01*
Y25000D01*
X33400D01*
Y23000D02*
Y23400D01*
X33800D01*
Y23000D01*
X33400D01*
X30400D02*
Y23400D01*
X30800D01*
Y23000D01*
X30400D01*
Y22000D02*
Y22400D01*
X30800D01*
Y22000D01*
X30400D01*
X33400D02*
Y22400D01*
X33800D01*
Y22000D01*
X33400D01*
Y38000D02*
Y38400D01*
X33800D01*
Y38000D01*
X33400D01*
X30400D02*
Y38400D01*
X30800D01*
Y38000D01*
X30400D01*
Y39000D02*
Y39400D01*
X30800D01*
Y39000D01*
X30400D01*
X33400D02*
Y39400D01*
X33800D01*
Y39000D01*
X33400D01*
Y41000D02*
Y41400D01*
X33800D01*
Y41000D01*
X33400D01*
X30400D02*
Y41400D01*
X30800D01*
Y41000D01*
X30400D01*
Y40000D02*
Y40400D01*
X30800D01*
Y40000D01*
X30400D01*
X33400D02*
Y40400D01*
X33800D01*
Y40000D01*
X33400D01*
X30400Y42000D02*
Y42400D01*
X30800D01*
Y42000D01*
X30400D01*
X33400D02*
Y42400D01*
X33800D01*
Y42000D01*
X33400D01*
Y37000D02*
Y37400D01*
X33800D01*
Y37000D01*
X33400D01*
X30400D02*
Y37400D01*
X30800D01*
Y37000D01*
X30400D01*
X33400Y35000D02*
Y35400D01*
X33800D01*
Y35000D01*
X33400D01*
X30400D02*
Y35400D01*
X30800D01*
Y35000D01*
X30400D01*
Y36000D02*
Y36400D01*
X30800D01*
Y36000D01*
X30400D01*
X33400D02*
Y36400D01*
X33800D01*
Y36000D01*
X33400D01*
Y34000D02*
Y34400D01*
X33800D01*
Y34000D01*
X33400D01*
X30400D02*
Y34400D01*
X30800D01*
Y34000D01*
X30400D01*
Y33000D02*
Y33400D01*
X30800D01*
Y33000D01*
X30400D01*
X33400D02*
Y33400D01*
X33800D01*
Y33000D01*
X33400D01*
X38800Y27000D02*
Y27400D01*
X39200D01*
Y27000D01*
X38800D01*
X35800D02*
Y27400D01*
X36200D01*
Y27000D01*
X35800D01*
Y28000D02*
Y28400D01*
X36200D01*
Y28000D01*
X35800D01*
X38800D02*
Y28400D01*
X39200D01*
Y28000D01*
X38800D01*
Y30000D02*
Y30400D01*
X39200D01*
Y30000D01*
X38800D01*
X35800D02*
Y30400D01*
X36200D01*
Y30000D01*
X35800D01*
Y29000D02*
Y29400D01*
X36200D01*
Y29000D01*
X35800D01*
X38800D02*
Y29400D01*
X39200D01*
Y29000D01*
X38800D01*
X35800Y31000D02*
Y31400D01*
X36200D01*
Y31000D01*
X35800D01*
X38800D02*
Y31400D01*
X39200D01*
Y31000D01*
X38800D01*
Y26000D02*
Y26400D01*
X39200D01*
Y26000D01*
X38800D01*
X35800D02*
Y26400D01*
X36200D01*
Y26000D01*
X35800D01*
X38800Y24000D02*
Y24400D01*
X39200D01*
Y24000D01*
X38800D01*
X35800D02*
Y24400D01*
X36200D01*
Y24000D01*
X35800D01*
Y25000D02*
Y25400D01*
X36200D01*
Y25000D01*
X35800D01*
X38800D02*
Y25400D01*
X39200D01*
Y25000D01*
X38800D01*
Y23000D02*
Y23400D01*
X39200D01*
Y23000D01*
X38800D01*
X35800D02*
Y23400D01*
X36200D01*
Y23000D01*
X35800D01*
Y22000D02*
Y22400D01*
X36200D01*
Y22000D01*
X35800D01*
X38800D02*
Y22400D01*
X39200D01*
Y22000D01*
X38800D01*
Y38000D02*
Y38400D01*
X39200D01*
Y38000D01*
X38800D01*
X35800D02*
Y38400D01*
X36200D01*
Y38000D01*
X35800D01*
Y39000D02*
Y39400D01*
X36200D01*
Y39000D01*
X35800D01*
X38800D02*
Y39400D01*
X39200D01*
Y39000D01*
X38800D01*
Y41000D02*
Y41400D01*
X39200D01*
Y41000D01*
X38800D01*
X35800D02*
Y41400D01*
X36200D01*
Y41000D01*
X35800D01*
Y40000D02*
Y40400D01*
X36200D01*
Y40000D01*
X35800D01*
X38800D02*
Y40400D01*
X39200D01*
Y40000D01*
X38800D01*
X35800Y42000D02*
Y42400D01*
X36200D01*
Y42000D01*
X35800D01*
X38800D02*
Y42400D01*
X39200D01*
Y42000D01*
X38800D01*
Y37000D02*
Y37400D01*
X39200D01*
Y37000D01*
X38800D01*
X35800D02*
Y37400D01*
X36200D01*
Y37000D01*
X35800D01*
X38800Y35000D02*
Y35400D01*
X39200D01*
Y35000D01*
X38800D01*
X35800D02*
Y35400D01*
X36200D01*
Y35000D01*
X35800D01*
Y36000D02*
Y36400D01*
X36200D01*
Y36000D01*
X35800D01*
X38800D02*
Y36400D01*
X39200D01*
Y36000D01*
X38800D01*
Y34000D02*
Y34400D01*
X39200D01*
Y34000D01*
X38800D01*
X35800D02*
Y34400D01*
X36200D01*
Y34000D01*
X35800D01*
Y33000D02*
Y33400D01*
X36200D01*
Y33000D01*
X35800D01*
X38800D02*
Y33400D01*
X39200D01*
Y33000D01*
X38800D01*
X14600Y19570D02*
X14400Y19970D01*
X14800D01*
X14600Y19570D01*
Y44570D02*
X14400Y44970D01*
X14800D01*
X14600Y44570D01*
X18900Y28400D02*
X19000Y28500D01*
X19100D01*
X19000Y28600D01*
X19100Y28700D01*
X19000D01*
X18900Y28800D01*
X18800Y28700D01*
X18700D01*
X18800Y28600D01*
X18700Y28500D01*
X18800D01*
X18900Y28400D01*
Y27400D02*
X19000Y27500D01*
X19100D01*
X19000Y27600D01*
X19100Y27700D01*
X19000D01*
X18900Y27800D01*
X18800Y27700D01*
X18700D01*
X18800Y27600D01*
X18700Y27500D01*
X18800D01*
X18900Y27400D01*
Y26400D02*
X19000Y26500D01*
X19100D01*
X19000Y26600D01*
X19100Y26700D01*
X19000D01*
X18900Y26800D01*
X18800Y26700D01*
X18700D01*
X18800Y26600D01*
X18700Y26500D01*
X18800D01*
X18900Y26400D01*
Y25400D02*
X19000Y25500D01*
X19100D01*
X19000Y25600D01*
X19100Y25700D01*
X19000D01*
X18900Y25800D01*
X18800Y25700D01*
X18700D01*
X18800Y25600D01*
X18700Y25500D01*
X18800D01*
X18900Y25400D01*
Y24400D02*
X19000Y24500D01*
X19100D01*
X19000Y24600D01*
X19100Y24700D01*
X19000D01*
X18900Y24800D01*
X18800Y24700D01*
X18700D01*
X18800Y24600D01*
X18700Y24500D01*
X18800D01*
X18900Y24400D01*
Y23400D02*
X19000Y23500D01*
X19100D01*
X19000Y23600D01*
X19100Y23700D01*
X19000D01*
X18900Y23800D01*
X18800Y23700D01*
X18700D01*
X18800Y23600D01*
X18700Y23500D01*
X18800D01*
X18900Y23400D01*
Y30400D02*
X19000Y30500D01*
X19100D01*
X19000Y30600D01*
X19100Y30700D01*
X19000D01*
X18900Y30800D01*
X18800Y30700D01*
X18700D01*
X18800Y30600D01*
X18700Y30500D01*
X18800D01*
X18900Y30400D01*
Y31400D02*
X19000Y31500D01*
X19100D01*
X19000Y31600D01*
X19100Y31700D01*
X19000D01*
X18900Y31800D01*
X18800Y31700D01*
X18700D01*
X18800Y31600D01*
X18700Y31500D01*
X18800D01*
X18900Y31400D01*
Y32400D02*
X19000Y32500D01*
X19100D01*
X19000Y32600D01*
X19100Y32700D01*
X19000D01*
X18900Y32800D01*
X18800Y32700D01*
X18700D01*
X18800Y32600D01*
X18700Y32500D01*
X18800D01*
X18900Y32400D01*
Y33400D02*
X19000Y33500D01*
X19100D01*
X19000Y33600D01*
X19100Y33700D01*
X19000D01*
X18900Y33800D01*
X18800Y33700D01*
X18700D01*
X18800Y33600D01*
X18700Y33500D01*
X18800D01*
X18900Y33400D01*
Y34400D02*
X19000Y34500D01*
X19100D01*
X19000Y34600D01*
X19100Y34700D01*
X19000D01*
X18900Y34800D01*
X18800Y34700D01*
X18700D01*
X18800Y34600D01*
X18700Y34500D01*
X18800D01*
X18900Y34400D01*
Y36400D02*
X19000Y36500D01*
X19100D01*
X19000Y36600D01*
X19100Y36700D01*
X19000D01*
X18900Y36800D01*
X18800Y36700D01*
X18700D01*
X18800Y36600D01*
X18700Y36500D01*
X18800D01*
X18900Y36400D01*
Y37400D02*
X19000Y37500D01*
X19100D01*
X19000Y37600D01*
X19100Y37700D01*
X19000D01*
X18900Y37800D01*
X18800Y37700D01*
X18700D01*
X18800Y37600D01*
X18700Y37500D01*
X18800D01*
X18900Y37400D01*
Y38400D02*
X19000Y38500D01*
X19100D01*
X19000Y38600D01*
X19100Y38700D01*
X19000D01*
X18900Y38800D01*
X18800Y38700D01*
X18700D01*
X18800Y38600D01*
X18700Y38500D01*
X18800D01*
X18900Y38400D01*
Y39400D02*
X19000Y39500D01*
X19100D01*
X19000Y39600D01*
X19100Y39700D01*
X19000D01*
X18900Y39800D01*
X18800Y39700D01*
X18700D01*
X18800Y39600D01*
X18700Y39500D01*
X18800D01*
X18900Y39400D01*
Y40400D02*
X19000Y40500D01*
X19100D01*
X19000Y40600D01*
X19100Y40700D01*
X19000D01*
X18900Y40800D01*
X18800Y40700D01*
X18700D01*
X18800Y40600D01*
X18700Y40500D01*
X18800D01*
X18900Y40400D01*
Y29400D02*
X19000Y29500D01*
X19100D01*
X19000Y29600D01*
X19100Y29700D01*
X19000D01*
X18900Y29800D01*
X18800Y29700D01*
X18700D01*
X18800Y29600D01*
X18700Y29500D01*
X18800D01*
X18900Y29400D01*
Y35400D02*
X19000Y35500D01*
X19100D01*
X19000Y35600D01*
X19100Y35700D01*
X19000D01*
X18900Y35800D01*
X18800Y35700D01*
X18700D01*
X18800Y35600D01*
X18700Y35500D01*
X18800D01*
X18900Y35400D01*
X18800Y21200D02*
X18900Y21400D01*
X18800Y21600D01*
X19000Y21500D01*
X19200Y21600D01*
X19100Y21400D01*
X19200Y21200D01*
X19000Y21300D01*
X18800Y21200D01*
X19800Y19600D02*
X19900Y19800D01*
X19800Y20000D01*
X20000Y19900D01*
X20200Y20000D01*
X20100Y19800D01*
X20200Y19600D01*
X20000Y19700D01*
X19800Y19600D01*
X18800D02*
X18900Y19800D01*
X18800Y20000D01*
X19000Y19900D01*
X19200Y20000D01*
X19100Y19800D01*
X19200Y19600D01*
X19000Y19700D01*
X18800Y19600D01*
X20900Y28400D02*
X21000Y28500D01*
X21100D01*
X21000Y28600D01*
X21100Y28700D01*
X21000D01*
X20900Y28800D01*
X20800Y28700D01*
X20700D01*
X20800Y28600D01*
X20700Y28500D01*
X20800D01*
X20900Y28400D01*
Y27400D02*
X21000Y27500D01*
X21100D01*
X21000Y27600D01*
X21100Y27700D01*
X21000D01*
X20900Y27800D01*
X20800Y27700D01*
X20700D01*
X20800Y27600D01*
X20700Y27500D01*
X20800D01*
X20900Y27400D01*
Y26400D02*
X21000Y26500D01*
X21100D01*
X21000Y26600D01*
X21100Y26700D01*
X21000D01*
X20900Y26800D01*
X20800Y26700D01*
X20700D01*
X20800Y26600D01*
X20700Y26500D01*
X20800D01*
X20900Y26400D01*
Y25400D02*
X21000Y25500D01*
X21100D01*
X21000Y25600D01*
X21100Y25700D01*
X21000D01*
X20900Y25800D01*
X20800Y25700D01*
X20700D01*
X20800Y25600D01*
X20700Y25500D01*
X20800D01*
X20900Y25400D01*
Y24400D02*
X21000Y24500D01*
X21100D01*
X21000Y24600D01*
X21100Y24700D01*
X21000D01*
X20900Y24800D01*
X20800Y24700D01*
X20700D01*
X20800Y24600D01*
X20700Y24500D01*
X20800D01*
X20900Y24400D01*
Y23400D02*
X21000Y23500D01*
X21100D01*
X21000Y23600D01*
X21100Y23700D01*
X21000D01*
X20900Y23800D01*
X20800Y23700D01*
X20700D01*
X20800Y23600D01*
X20700Y23500D01*
X20800D01*
X20900Y23400D01*
Y30400D02*
X21000Y30500D01*
X21100D01*
X21000Y30600D01*
X21100Y30700D01*
X21000D01*
X20900Y30800D01*
X20800Y30700D01*
X20700D01*
X20800Y30600D01*
X20700Y30500D01*
X20800D01*
X20900Y30400D01*
Y31400D02*
X21000Y31500D01*
X21100D01*
X21000Y31600D01*
X21100Y31700D01*
X21000D01*
X20900Y31800D01*
X20800Y31700D01*
X20700D01*
X20800Y31600D01*
X20700Y31500D01*
X20800D01*
X20900Y31400D01*
Y32400D02*
X21000Y32500D01*
X21100D01*
X21000Y32600D01*
X21100Y32700D01*
X21000D01*
X20900Y32800D01*
X20800Y32700D01*
X20700D01*
X20800Y32600D01*
X20700Y32500D01*
X20800D01*
X20900Y32400D01*
Y33400D02*
X21000Y33500D01*
X21100D01*
X21000Y33600D01*
X21100Y33700D01*
X21000D01*
X20900Y33800D01*
X20800Y33700D01*
X20700D01*
X20800Y33600D01*
X20700Y33500D01*
X20800D01*
X20900Y33400D01*
Y34400D02*
X21000Y34500D01*
X21100D01*
X21000Y34600D01*
X21100Y34700D01*
X21000D01*
X20900Y34800D01*
X20800Y34700D01*
X20700D01*
X20800Y34600D01*
X20700Y34500D01*
X20800D01*
X20900Y34400D01*
Y36400D02*
X21000Y36500D01*
X21100D01*
X21000Y36600D01*
X21100Y36700D01*
X21000D01*
X20900Y36800D01*
X20800Y36700D01*
X20700D01*
X20800Y36600D01*
X20700Y36500D01*
X20800D01*
X20900Y36400D01*
Y37400D02*
X21000Y37500D01*
X21100D01*
X21000Y37600D01*
X21100Y37700D01*
X21000D01*
X20900Y37800D01*
X20800Y37700D01*
X20700D01*
X20800Y37600D01*
X20700Y37500D01*
X20800D01*
X20900Y37400D01*
Y38400D02*
X21000Y38500D01*
X21100D01*
X21000Y38600D01*
X21100Y38700D01*
X21000D01*
X20900Y38800D01*
X20800Y38700D01*
X20700D01*
X20800Y38600D01*
X20700Y38500D01*
X20800D01*
X20900Y38400D01*
Y39400D02*
X21000Y39500D01*
X21100D01*
X21000Y39600D01*
X21100Y39700D01*
X21000D01*
X20900Y39800D01*
X20800Y39700D01*
X20700D01*
X20800Y39600D01*
X20700Y39500D01*
X20800D01*
X20900Y39400D01*
Y40400D02*
X21000Y40500D01*
X21100D01*
X21000Y40600D01*
X21100Y40700D01*
X21000D01*
X20900Y40800D01*
X20800Y40700D01*
X20700D01*
X20800Y40600D01*
X20700Y40500D01*
X20800D01*
X20900Y40400D01*
Y29400D02*
X21000Y29500D01*
X21100D01*
X21000Y29600D01*
X21100Y29700D01*
X21000D01*
X20900Y29800D01*
X20800Y29700D01*
X20700D01*
X20800Y29600D01*
X20700Y29500D01*
X20800D01*
X20900Y29400D01*
Y35400D02*
X21000Y35500D01*
X21100D01*
X21000Y35600D01*
X21100Y35700D01*
X21000D01*
X20900Y35800D01*
X20800Y35700D01*
X20700D01*
X20800Y35600D01*
X20700Y35500D01*
X20800D01*
X20900Y35400D01*
X22900Y28400D02*
X23000Y28500D01*
X23100D01*
X23000Y28600D01*
X23100Y28700D01*
X23000D01*
X22900Y28800D01*
X22800Y28700D01*
X22700D01*
X22800Y28600D01*
X22700Y28500D01*
X22800D01*
X22900Y28400D01*
Y27400D02*
X23000Y27500D01*
X23100D01*
X23000Y27600D01*
X23100Y27700D01*
X23000D01*
X22900Y27800D01*
X22800Y27700D01*
X22700D01*
X22800Y27600D01*
X22700Y27500D01*
X22800D01*
X22900Y27400D01*
Y26400D02*
X23000Y26500D01*
X23100D01*
X23000Y26600D01*
X23100Y26700D01*
X23000D01*
X22900Y26800D01*
X22800Y26700D01*
X22700D01*
X22800Y26600D01*
X22700Y26500D01*
X22800D01*
X22900Y26400D01*
Y25400D02*
X23000Y25500D01*
X23100D01*
X23000Y25600D01*
X23100Y25700D01*
X23000D01*
X22900Y25800D01*
X22800Y25700D01*
X22700D01*
X22800Y25600D01*
X22700Y25500D01*
X22800D01*
X22900Y25400D01*
Y24400D02*
X23000Y24500D01*
X23100D01*
X23000Y24600D01*
X23100Y24700D01*
X23000D01*
X22900Y24800D01*
X22800Y24700D01*
X22700D01*
X22800Y24600D01*
X22700Y24500D01*
X22800D01*
X22900Y24400D01*
Y23400D02*
X23000Y23500D01*
X23100D01*
X23000Y23600D01*
X23100Y23700D01*
X23000D01*
X22900Y23800D01*
X22800Y23700D01*
X22700D01*
X22800Y23600D01*
X22700Y23500D01*
X22800D01*
X22900Y23400D01*
Y30400D02*
X23000Y30500D01*
X23100D01*
X23000Y30600D01*
X23100Y30700D01*
X23000D01*
X22900Y30800D01*
X22800Y30700D01*
X22700D01*
X22800Y30600D01*
X22700Y30500D01*
X22800D01*
X22900Y30400D01*
Y31400D02*
X23000Y31500D01*
X23100D01*
X23000Y31600D01*
X23100Y31700D01*
X23000D01*
X22900Y31800D01*
X22800Y31700D01*
X22700D01*
X22800Y31600D01*
X22700Y31500D01*
X22800D01*
X22900Y31400D01*
Y32400D02*
X23000Y32500D01*
X23100D01*
X23000Y32600D01*
X23100Y32700D01*
X23000D01*
X22900Y32800D01*
X22800Y32700D01*
X22700D01*
X22800Y32600D01*
X22700Y32500D01*
X22800D01*
X22900Y32400D01*
Y33400D02*
X23000Y33500D01*
X23100D01*
X23000Y33600D01*
X23100Y33700D01*
X23000D01*
X22900Y33800D01*
X22800Y33700D01*
X22700D01*
X22800Y33600D01*
X22700Y33500D01*
X22800D01*
X22900Y33400D01*
Y34400D02*
X23000Y34500D01*
X23100D01*
X23000Y34600D01*
X23100Y34700D01*
X23000D01*
X22900Y34800D01*
X22800Y34700D01*
X22700D01*
X22800Y34600D01*
X22700Y34500D01*
X22800D01*
X22900Y34400D01*
Y36400D02*
X23000Y36500D01*
X23100D01*
X23000Y36600D01*
X23100Y36700D01*
X23000D01*
X22900Y36800D01*
X22800Y36700D01*
X22700D01*
X22800Y36600D01*
X22700Y36500D01*
X22800D01*
X22900Y36400D01*
Y37400D02*
X23000Y37500D01*
X23100D01*
X23000Y37600D01*
X23100Y37700D01*
X23000D01*
X22900Y37800D01*
X22800Y37700D01*
X22700D01*
X22800Y37600D01*
X22700Y37500D01*
X22800D01*
X22900Y37400D01*
Y38400D02*
X23000Y38500D01*
X23100D01*
X23000Y38600D01*
X23100Y38700D01*
X23000D01*
X22900Y38800D01*
X22800Y38700D01*
X22700D01*
X22800Y38600D01*
X22700Y38500D01*
X22800D01*
X22900Y38400D01*
Y39400D02*
X23000Y39500D01*
X23100D01*
X23000Y39600D01*
X23100Y39700D01*
X23000D01*
X22900Y39800D01*
X22800Y39700D01*
X22700D01*
X22800Y39600D01*
X22700Y39500D01*
X22800D01*
X22900Y39400D01*
Y40400D02*
X23000Y40500D01*
X23100D01*
X23000Y40600D01*
X23100Y40700D01*
X23000D01*
X22900Y40800D01*
X22800Y40700D01*
X22700D01*
X22800Y40600D01*
X22700Y40500D01*
X22800D01*
X22900Y40400D01*
Y29400D02*
X23000Y29500D01*
X23100D01*
X23000Y29600D01*
X23100Y29700D01*
X23000D01*
X22900Y29800D01*
X22800Y29700D01*
X22700D01*
X22800Y29600D01*
X22700Y29500D01*
X22800D01*
X22900Y29400D01*
Y35400D02*
X23000Y35500D01*
X23100D01*
X23000Y35600D01*
X23100Y35700D01*
X23000D01*
X22900Y35800D01*
X22800Y35700D01*
X22700D01*
X22800Y35600D01*
X22700Y35500D01*
X22800D01*
X22900Y35400D01*
X34695Y19698D02*
Y19598D01*
X34895D01*
Y19698D01*
X34995D01*
Y19898D01*
X34895D01*
Y19998D01*
X34695D01*
Y19898D01*
X34595D01*
Y19698D01*
X34695D01*
X33605D02*
Y19598D01*
X33805D01*
Y19698D01*
X33905D01*
Y19898D01*
X33805D01*
Y19998D01*
X33605D01*
Y19898D01*
X33505D01*
Y19698D01*
X33605D01*
X32515D02*
Y19598D01*
X32715D01*
Y19698D01*
X32815D01*
Y19898D01*
X32715D01*
Y19998D01*
X32515D01*
Y19898D01*
X32415D01*
Y19698D01*
X32515D01*
X31425D02*
Y19598D01*
X31625D01*
Y19698D01*
X31725D01*
Y19898D01*
X31625D01*
Y19998D01*
X31425D01*
Y19898D01*
X31325D01*
Y19698D01*
X31425D01*
X30335D02*
Y19598D01*
X30535D01*
Y19698D01*
X30635D01*
Y19898D01*
X30535D01*
Y19998D01*
X30335D01*
Y19898D01*
X30235D01*
Y19698D01*
X30335D01*
X29245D02*
Y19598D01*
X29445D01*
Y19698D01*
X29545D01*
Y19898D01*
X29445D01*
Y19998D01*
X29245D01*
Y19898D01*
X29145D01*
Y19698D01*
X29245D01*
X28155D02*
Y19598D01*
X28355D01*
Y19698D01*
X28455D01*
Y19898D01*
X28355D01*
Y19998D01*
X28155D01*
Y19898D01*
X28055D01*
Y19698D01*
X28155D01*
X27065D02*
Y19598D01*
X27265D01*
Y19698D01*
X27365D01*
Y19898D01*
X27265D01*
Y19998D01*
X27065D01*
Y19898D01*
X26965D01*
Y19698D01*
X27065D01*
X34150Y18578D02*
Y18477D01*
X34350D01*
Y18578D01*
X34450D01*
Y18778D01*
X34350D01*
Y18878D01*
X34150D01*
Y18778D01*
X34050D01*
Y18578D01*
X34150D01*
X33060D02*
Y18477D01*
X33260D01*
Y18578D01*
X33360D01*
Y18778D01*
X33260D01*
Y18878D01*
X33060D01*
Y18778D01*
X32960D01*
Y18578D01*
X33060D01*
X31970D02*
Y18477D01*
X32170D01*
Y18578D01*
X32270D01*
Y18778D01*
X32170D01*
Y18878D01*
X31970D01*
Y18778D01*
X31870D01*
Y18578D01*
X31970D01*
X30880D02*
Y18477D01*
X31080D01*
Y18578D01*
X31180D01*
Y18778D01*
X31080D01*
Y18878D01*
X30880D01*
Y18778D01*
X30780D01*
Y18578D01*
X30880D01*
X29790D02*
Y18477D01*
X29990D01*
Y18578D01*
X30090D01*
Y18778D01*
X29990D01*
Y18878D01*
X29790D01*
Y18778D01*
X29690D01*
Y18578D01*
X29790D01*
X28700D02*
Y18477D01*
X28900D01*
Y18578D01*
X29000D01*
Y18778D01*
X28900D01*
Y18878D01*
X28700D01*
Y18778D01*
X28600D01*
Y18578D01*
X28700D01*
X27610D02*
Y18477D01*
X27810D01*
Y18578D01*
X27910D01*
Y18778D01*
X27810D01*
Y18878D01*
X27610D01*
Y18778D01*
X27510D01*
Y18578D01*
X27610D01*
X24420Y19037D02*
X24220Y19438D01*
X24620D01*
X24420Y19037D01*
X37540D02*
X37340Y19438D01*
X37740D01*
X37540Y19037D01*
X42702Y27695D02*
Y27595D01*
X42902D01*
Y27695D01*
X43003D01*
Y27895D01*
X42902D01*
Y27995D01*
X42702D01*
Y27895D01*
X42603D01*
Y27695D01*
X42702D01*
Y26605D02*
Y26505D01*
X42902D01*
Y26605D01*
X43003D01*
Y26805D01*
X42902D01*
Y26905D01*
X42702D01*
Y26805D01*
X42603D01*
Y26605D01*
X42702D01*
Y25515D02*
Y25415D01*
X42902D01*
Y25515D01*
X43003D01*
Y25715D01*
X42902D01*
Y25815D01*
X42702D01*
Y25715D01*
X42603D01*
Y25515D01*
X42702D01*
Y24425D02*
Y24325D01*
X42902D01*
Y24425D01*
X43003D01*
Y24625D01*
X42902D01*
Y24725D01*
X42702D01*
Y24625D01*
X42603D01*
Y24425D01*
X42702D01*
Y23335D02*
Y23235D01*
X42902D01*
Y23335D01*
X43003D01*
Y23535D01*
X42902D01*
Y23635D01*
X42702D01*
Y23535D01*
X42603D01*
Y23335D01*
X42702D01*
Y22245D02*
Y22145D01*
X42902D01*
Y22245D01*
X43003D01*
Y22445D01*
X42902D01*
Y22545D01*
X42702D01*
Y22445D01*
X42603D01*
Y22245D01*
X42702D01*
Y21155D02*
Y21055D01*
X42902D01*
Y21155D01*
X43003D01*
Y21355D01*
X42902D01*
Y21455D01*
X42702D01*
Y21355D01*
X42603D01*
Y21155D01*
X42702D01*
Y20065D02*
Y19965D01*
X42902D01*
Y20065D01*
X43003D01*
Y20265D01*
X42902D01*
Y20365D01*
X42702D01*
Y20265D01*
X42603D01*
Y20065D01*
X42702D01*
X43822Y27150D02*
Y27050D01*
X44022D01*
Y27150D01*
X44123D01*
Y27350D01*
X44022D01*
Y27450D01*
X43822D01*
Y27350D01*
X43723D01*
Y27150D01*
X43822D01*
Y26060D02*
Y25960D01*
X44022D01*
Y26060D01*
X44123D01*
Y26260D01*
X44022D01*
Y26360D01*
X43822D01*
Y26260D01*
X43723D01*
Y26060D01*
X43822D01*
Y24970D02*
Y24870D01*
X44022D01*
Y24970D01*
X44123D01*
Y25170D01*
X44022D01*
Y25270D01*
X43822D01*
Y25170D01*
X43723D01*
Y24970D01*
X43822D01*
Y23880D02*
Y23780D01*
X44022D01*
Y23880D01*
X44123D01*
Y24080D01*
X44022D01*
Y24180D01*
X43822D01*
Y24080D01*
X43723D01*
Y23880D01*
X43822D01*
Y22790D02*
Y22690D01*
X44022D01*
Y22790D01*
X44123D01*
Y22990D01*
X44022D01*
Y23090D01*
X43822D01*
Y22990D01*
X43723D01*
Y22790D01*
X43822D01*
Y21700D02*
Y21600D01*
X44022D01*
Y21700D01*
X44123D01*
Y21900D01*
X44022D01*
Y22000D01*
X43822D01*
Y21900D01*
X43723D01*
Y21700D01*
X43822D01*
Y20610D02*
Y20510D01*
X44022D01*
Y20610D01*
X44123D01*
Y20810D01*
X44022D01*
Y20910D01*
X43822D01*
Y20810D01*
X43723D01*
Y20610D01*
X43822D01*
X43362Y17220D02*
X43162Y17620D01*
X43562D01*
X43362Y17220D01*
Y30340D02*
X43162Y30740D01*
X43562D01*
X43362Y30340D01*
X42702Y44295D02*
Y44195D01*
X42902D01*
Y44295D01*
X43003D01*
Y44495D01*
X42902D01*
Y44595D01*
X42702D01*
Y44495D01*
X42603D01*
Y44295D01*
X42702D01*
Y43205D02*
Y43105D01*
X42902D01*
Y43205D01*
X43003D01*
Y43405D01*
X42902D01*
Y43505D01*
X42702D01*
Y43405D01*
X42603D01*
Y43205D01*
X42702D01*
Y42115D02*
Y42015D01*
X42902D01*
Y42115D01*
X43003D01*
Y42315D01*
X42902D01*
Y42415D01*
X42702D01*
Y42315D01*
X42603D01*
Y42115D01*
X42702D01*
Y41025D02*
Y40925D01*
X42902D01*
Y41025D01*
X43003D01*
Y41225D01*
X42902D01*
Y41325D01*
X42702D01*
Y41225D01*
X42603D01*
Y41025D01*
X42702D01*
Y39935D02*
Y39835D01*
X42902D01*
Y39935D01*
X43003D01*
Y40135D01*
X42902D01*
Y40235D01*
X42702D01*
Y40135D01*
X42603D01*
Y39935D01*
X42702D01*
Y38845D02*
Y38745D01*
X42902D01*
Y38845D01*
X43003D01*
Y39045D01*
X42902D01*
Y39145D01*
X42702D01*
Y39045D01*
X42603D01*
Y38845D01*
X42702D01*
Y37755D02*
Y37655D01*
X42902D01*
Y37755D01*
X43003D01*
Y37955D01*
X42902D01*
Y38055D01*
X42702D01*
Y37955D01*
X42603D01*
Y37755D01*
X42702D01*
Y36665D02*
Y36565D01*
X42902D01*
Y36665D01*
X43003D01*
Y36865D01*
X42902D01*
Y36965D01*
X42702D01*
Y36865D01*
X42603D01*
Y36665D01*
X42702D01*
X43822Y43750D02*
Y43650D01*
X44022D01*
Y43750D01*
X44123D01*
Y43950D01*
X44022D01*
Y44050D01*
X43822D01*
Y43950D01*
X43723D01*
Y43750D01*
X43822D01*
Y42660D02*
Y42560D01*
X44022D01*
Y42660D01*
X44123D01*
Y42860D01*
X44022D01*
Y42960D01*
X43822D01*
Y42860D01*
X43723D01*
Y42660D01*
X43822D01*
Y41570D02*
Y41470D01*
X44022D01*
Y41570D01*
X44123D01*
Y41770D01*
X44022D01*
Y41870D01*
X43822D01*
Y41770D01*
X43723D01*
Y41570D01*
X43822D01*
Y40480D02*
Y40380D01*
X44022D01*
Y40480D01*
X44123D01*
Y40680D01*
X44022D01*
Y40780D01*
X43822D01*
Y40680D01*
X43723D01*
Y40480D01*
X43822D01*
Y39390D02*
Y39290D01*
X44022D01*
Y39390D01*
X44123D01*
Y39590D01*
X44022D01*
Y39690D01*
X43822D01*
Y39590D01*
X43723D01*
Y39390D01*
X43822D01*
Y38300D02*
Y38200D01*
X44022D01*
Y38300D01*
X44123D01*
Y38500D01*
X44022D01*
Y38600D01*
X43822D01*
Y38500D01*
X43723D01*
Y38300D01*
X43822D01*
Y37210D02*
Y37110D01*
X44022D01*
Y37210D01*
X44123D01*
Y37410D01*
X44022D01*
Y37510D01*
X43822D01*
Y37410D01*
X43723D01*
Y37210D01*
X43822D01*
X43362Y33820D02*
X43162Y34220D01*
X43562D01*
X43362Y33820D01*
Y46940D02*
X43162Y47340D01*
X43562D01*
X43362Y46940D01*
X27105Y44503D02*
Y44402D01*
X27305D01*
Y44503D01*
X27405D01*
Y44703D01*
X27305D01*
Y44802D01*
X27105D01*
Y44703D01*
X27005D01*
Y44503D01*
X27105D01*
X28195D02*
Y44402D01*
X28395D01*
Y44503D01*
X28495D01*
Y44703D01*
X28395D01*
Y44802D01*
X28195D01*
Y44703D01*
X28095D01*
Y44503D01*
X28195D01*
X29285D02*
Y44402D01*
X29485D01*
Y44503D01*
X29585D01*
Y44703D01*
X29485D01*
Y44802D01*
X29285D01*
Y44703D01*
X29185D01*
Y44503D01*
X29285D01*
X30375D02*
Y44402D01*
X30575D01*
Y44503D01*
X30675D01*
Y44703D01*
X30575D01*
Y44802D01*
X30375D01*
Y44703D01*
X30275D01*
Y44503D01*
X30375D01*
X31465D02*
Y44402D01*
X31665D01*
Y44503D01*
X31765D01*
Y44703D01*
X31665D01*
Y44802D01*
X31465D01*
Y44703D01*
X31365D01*
Y44503D01*
X31465D01*
X32555D02*
Y44402D01*
X32755D01*
Y44503D01*
X32855D01*
Y44703D01*
X32755D01*
Y44802D01*
X32555D01*
Y44703D01*
X32455D01*
Y44503D01*
X32555D01*
X33645D02*
Y44402D01*
X33845D01*
Y44503D01*
X33945D01*
Y44703D01*
X33845D01*
Y44802D01*
X33645D01*
Y44703D01*
X33545D01*
Y44503D01*
X33645D01*
X34735D02*
Y44402D01*
X34935D01*
Y44503D01*
X35035D01*
Y44703D01*
X34935D01*
Y44802D01*
X34735D01*
Y44703D01*
X34635D01*
Y44503D01*
X34735D01*
X27650Y45623D02*
Y45522D01*
X27850D01*
Y45623D01*
X27950D01*
Y45823D01*
X27850D01*
Y45922D01*
X27650D01*
Y45823D01*
X27550D01*
Y45623D01*
X27650D01*
X28740D02*
Y45522D01*
X28940D01*
Y45623D01*
X29040D01*
Y45823D01*
X28940D01*
Y45922D01*
X28740D01*
Y45823D01*
X28640D01*
Y45623D01*
X28740D01*
X29830D02*
Y45522D01*
X30030D01*
Y45623D01*
X30130D01*
Y45823D01*
X30030D01*
Y45922D01*
X29830D01*
Y45823D01*
X29730D01*
Y45623D01*
X29830D01*
X30920D02*
Y45522D01*
X31120D01*
Y45623D01*
X31220D01*
Y45823D01*
X31120D01*
Y45922D01*
X30920D01*
Y45823D01*
X30820D01*
Y45623D01*
X30920D01*
X32010D02*
Y45522D01*
X32210D01*
Y45623D01*
X32310D01*
Y45823D01*
X32210D01*
Y45922D01*
X32010D01*
Y45823D01*
X31910D01*
Y45623D01*
X32010D01*
X33100D02*
Y45522D01*
X33300D01*
Y45623D01*
X33400D01*
Y45823D01*
X33300D01*
Y45922D01*
X33100D01*
Y45823D01*
X33000D01*
Y45623D01*
X33100D01*
X34190D02*
Y45522D01*
X34390D01*
Y45623D01*
X34490D01*
Y45823D01*
X34390D01*
Y45922D01*
X34190D01*
Y45823D01*
X34090D01*
Y45623D01*
X34190D01*
X37580Y44963D02*
X37380Y45363D01*
X37780D01*
X37580Y44963D01*
X24460D02*
X24260Y45363D01*
X24660D01*
X24460Y44963D01*
X31600Y31800D02*
X31700D01*
X31800Y31900D01*
X31900Y31800D01*
X32000D01*
Y31900D01*
X31900Y32000D01*
X32000Y32100D01*
Y32200D01*
X31900D01*
X31800Y32100D01*
X31700Y32200D01*
X31600D01*
Y32100D01*
X31700Y32000D01*
X31600Y31900D01*
Y31800D01*
X33400D02*
X33500D01*
X33600Y31900D01*
X33700Y31800D01*
X33800D01*
Y31900D01*
X33700Y32000D01*
X33800Y32100D01*
Y32200D01*
X33700D01*
X33600Y32100D01*
X33500Y32200D01*
X33400D01*
Y32100D01*
X33500Y32000D01*
X33400Y31900D01*
Y31800D01*
X31800Y32700D02*
X31900D01*
X32000Y32800D01*
X32100Y32700D01*
X32200D01*
Y32800D01*
X32100Y32900D01*
X32200Y33000D01*
Y33100D01*
X32100D01*
X32000Y33000D01*
X31900Y33100D01*
X31800D01*
Y33000D01*
X31900Y32900D01*
X31800Y32800D01*
Y32700D01*
X45700Y21800D02*
X45800D01*
X45900Y21900D01*
X46000Y21800D01*
X46100D01*
Y21900D01*
X46000Y22000D01*
X46100Y22100D01*
Y22200D01*
X46000D01*
X45900Y22100D01*
X45800Y22200D01*
X45700D01*
Y22100D01*
X45800Y22000D01*
X45700Y21900D01*
Y21800D01*
X26600Y32100D02*
X26700D01*
X26800Y32200D01*
X26900Y32100D01*
X27000D01*
Y32200D01*
X26900Y32300D01*
X27000Y32400D01*
Y32500D01*
X26900D01*
X26800Y32400D01*
X26700Y32500D01*
X26600D01*
Y32400D01*
X26700Y32300D01*
X26600Y32200D01*
Y32100D01*
X27100Y20900D02*
X27200D01*
X27300Y21000D01*
X27400Y20900D01*
X27500D01*
Y21000D01*
X27400Y21100D01*
X27500Y21200D01*
Y21300D01*
X27400D01*
X27300Y21200D01*
X27200Y21300D01*
X27100D01*
Y21200D01*
X27200Y21100D01*
X27100Y21000D01*
Y20900D01*
X29000Y21300D02*
X29100D01*
X29200Y21400D01*
X29300Y21300D01*
X29400D01*
Y21400D01*
X29300Y21500D01*
X29400Y21600D01*
Y21700D01*
X29300D01*
X29200Y21600D01*
X29100Y21700D01*
X29000D01*
Y21600D01*
X29100Y21500D01*
X29000Y21400D01*
Y21300D01*
X40800Y32200D02*
X40900D01*
X41000Y32300D01*
X41100Y32200D01*
X41200D01*
Y32300D01*
X41100Y32400D01*
X41200Y32500D01*
Y32600D01*
X41100D01*
X41000Y32500D01*
X40900Y32600D01*
X40800D01*
Y32500D01*
X40900Y32400D01*
X40800Y32300D01*
Y32200D01*
X34900Y24400D02*
X35000D01*
X35100Y24500D01*
X35200Y24400D01*
X35300D01*
Y24500D01*
X35200Y24600D01*
X35300Y24700D01*
Y24800D01*
X35200D01*
X35100Y24700D01*
X35000Y24800D01*
X34900D01*
Y24700D01*
X35000Y24600D01*
X34900Y24500D01*
Y24400D01*
D40*
X14800Y22525D02*
G03*
X14800Y22525I-200J0D01*
G01*
X15800Y23000D02*
G03*
X15800Y23000I-200J0D01*
G01*
Y40100D02*
G03*
X15800Y40100I-200J0D01*
G01*
Y42000D02*
G03*
X15800Y42000I-200J0D01*
G01*
Y41050D02*
G03*
X15800Y41050I-200J0D01*
G01*
Y39150D02*
G03*
X15800Y39150I-200J0D01*
G01*
Y38200D02*
G03*
X15800Y38200I-200J0D01*
G01*
Y33450D02*
G03*
X15800Y33450I-200J0D01*
G01*
Y34400D02*
G03*
X15800Y34400I-200J0D01*
G01*
Y36300D02*
G03*
X15800Y36300I-200J0D01*
G01*
Y37250D02*
G03*
X15800Y37250I-200J0D01*
G01*
Y35350D02*
G03*
X15800Y35350I-200J0D01*
G01*
Y25850D02*
G03*
X15800Y25850I-200J0D01*
G01*
Y27750D02*
G03*
X15800Y27750I-200J0D01*
G01*
Y26800D02*
G03*
X15800Y26800I-200J0D01*
G01*
Y24900D02*
G03*
X15800Y24900I-200J0D01*
G01*
Y23950D02*
G03*
X15800Y23950I-200J0D01*
G01*
Y28700D02*
G03*
X15800Y28700I-200J0D01*
G01*
Y29650D02*
G03*
X15800Y29650I-200J0D01*
G01*
Y31550D02*
G03*
X15800Y31550I-200J0D01*
G01*
Y32500D02*
G03*
X15800Y32500I-200J0D01*
G01*
Y30600D02*
G03*
X15800Y30600I-200J0D01*
G01*
X14800Y39625D02*
G03*
X14800Y39625I-200J0D01*
G01*
Y41525D02*
G03*
X14800Y41525I-200J0D01*
G01*
Y40575D02*
G03*
X14800Y40575I-200J0D01*
G01*
Y38675D02*
G03*
X14800Y38675I-200J0D01*
G01*
Y37725D02*
G03*
X14800Y37725I-200J0D01*
G01*
Y32975D02*
G03*
X14800Y32975I-200J0D01*
G01*
Y33925D02*
G03*
X14800Y33925I-200J0D01*
G01*
Y35825D02*
G03*
X14800Y35825I-200J0D01*
G01*
Y36775D02*
G03*
X14800Y36775I-200J0D01*
G01*
Y34875D02*
G03*
X14800Y34875I-200J0D01*
G01*
Y25375D02*
G03*
X14800Y25375I-200J0D01*
G01*
Y27275D02*
G03*
X14800Y27275I-200J0D01*
G01*
Y26325D02*
G03*
X14800Y26325I-200J0D01*
G01*
Y24425D02*
G03*
X14800Y24425I-200J0D01*
G01*
Y23475D02*
G03*
X14800Y23475I-200J0D01*
G01*
Y28225D02*
G03*
X14800Y28225I-200J0D01*
G01*
Y29175D02*
G03*
X14800Y29175I-200J0D01*
G01*
Y31075D02*
G03*
X14800Y31075I-200J0D01*
G01*
Y32025D02*
G03*
X14800Y32025I-200J0D01*
G01*
Y30125D02*
G03*
X14800Y30125I-200J0D01*
G01*
X13800Y29650D02*
G03*
X13800Y29650I-200J0D01*
G01*
Y31550D02*
G03*
X13800Y31550I-200J0D01*
G01*
Y30600D02*
G03*
X13800Y30600I-200J0D01*
G01*
Y28700D02*
G03*
X13800Y28700I-200J0D01*
G01*
Y27750D02*
G03*
X13800Y27750I-200J0D01*
G01*
Y23000D02*
G03*
X13800Y23000I-200J0D01*
G01*
Y23950D02*
G03*
X13800Y23950I-200J0D01*
G01*
Y25850D02*
G03*
X13800Y25850I-200J0D01*
G01*
Y26800D02*
G03*
X13800Y26800I-200J0D01*
G01*
Y24900D02*
G03*
X13800Y24900I-200J0D01*
G01*
Y34400D02*
G03*
X13800Y34400I-200J0D01*
G01*
Y36300D02*
G03*
X13800Y36300I-200J0D01*
G01*
Y35350D02*
G03*
X13800Y35350I-200J0D01*
G01*
Y33450D02*
G03*
X13800Y33450I-200J0D01*
G01*
Y32500D02*
G03*
X13800Y32500I-200J0D01*
G01*
Y37250D02*
G03*
X13800Y37250I-200J0D01*
G01*
Y38200D02*
G03*
X13800Y38200I-200J0D01*
G01*
Y40100D02*
G03*
X13800Y40100I-200J0D01*
G01*
Y41050D02*
G03*
X13800Y41050I-200J0D01*
G01*
Y39150D02*
G03*
X13800Y39150I-200J0D01*
G01*
M02*
