%FSLAX24Y24*%
%MOIN*%
G70*
G01*
G75*
%ADD10R,0.0320X0.0360*%
%ADD11R,0.0450X0.0600*%
%ADD12C,0.0100*%
%ADD13C,0.0250*%
%ADD14C,0.0600*%
%ADD15C,0.1700*%
%ADD16C,0.0591*%
%ADD17R,0.0591X0.0591*%
%ADD18R,0.0591X0.0591*%
%ADD19R,0.0630X0.0630*%
%ADD20C,0.0630*%
%ADD21R,0.0630X0.0630*%
%ADD22C,0.0500*%
%ADD23R,0.0360X0.0320*%
%ADD24C,0.0079*%
%ADD25C,0.0080*%
%ADD26C,0.0070*%
%ADD27C,0.0050*%
%ADD28R,0.0400X0.0440*%
%ADD29R,0.0530X0.0680*%
%ADD30C,0.0680*%
%ADD31C,0.1780*%
%ADD32C,0.0671*%
%ADD33R,0.0671X0.0671*%
%ADD34R,0.0671X0.0671*%
%ADD35R,0.0710X0.0710*%
%ADD36C,0.0710*%
%ADD37R,0.0710X0.0710*%
%ADD38C,0.0580*%
%ADD39R,0.0440X0.0400*%
%ADD40C,0.0067*%
D27*
X27850Y27200D02*
X28150D01*
X28000Y27050D02*
Y27350D01*
X24850Y27200D02*
X25150D01*
X25000Y27050D02*
Y27350D01*
X24850Y28200D02*
X25150D01*
X25000Y28050D02*
Y28350D01*
X27850Y28200D02*
X28150D01*
X28000Y28050D02*
Y28350D01*
X27850Y30200D02*
X28150D01*
X28000Y30050D02*
Y30350D01*
X24850Y30200D02*
X25150D01*
X25000Y30050D02*
Y30350D01*
X24850Y29200D02*
X25150D01*
X25000Y29050D02*
Y29350D01*
X27850Y29200D02*
X28150D01*
X28000Y29050D02*
Y29350D01*
X24850Y31200D02*
X25150D01*
X25000Y31050D02*
Y31350D01*
X27850Y31200D02*
X28150D01*
X28000Y31050D02*
Y31350D01*
X27850Y26200D02*
X28150D01*
X28000Y26050D02*
Y26350D01*
X24850Y26200D02*
X25150D01*
X25000Y26050D02*
Y26350D01*
X27850Y24200D02*
X28150D01*
X28000Y24050D02*
Y24350D01*
X24850Y24200D02*
X25150D01*
X25000Y24050D02*
Y24350D01*
X24850Y25200D02*
X25150D01*
X25000Y25050D02*
Y25350D01*
X27850Y25200D02*
X28150D01*
X28000Y25050D02*
Y25350D01*
X27850Y23200D02*
X28150D01*
X28000Y23050D02*
Y23350D01*
X24850Y23200D02*
X25150D01*
X25000Y23050D02*
Y23350D01*
X24850Y22200D02*
X25150D01*
X25000Y22050D02*
Y22350D01*
X27850Y22200D02*
X28150D01*
X28000Y22050D02*
Y22350D01*
X27850Y38200D02*
X28150D01*
X28000Y38050D02*
Y38350D01*
X24850Y38200D02*
X25150D01*
X25000Y38050D02*
Y38350D01*
X24850Y39200D02*
X25150D01*
X25000Y39050D02*
Y39350D01*
X27850Y39200D02*
X28150D01*
X28000Y39050D02*
Y39350D01*
X27850Y41200D02*
X28150D01*
X28000Y41050D02*
Y41350D01*
X24850Y41200D02*
X25150D01*
X25000Y41050D02*
Y41350D01*
X24850Y40200D02*
X25150D01*
X25000Y40050D02*
Y40350D01*
X27850Y40200D02*
X28150D01*
X28000Y40050D02*
Y40350D01*
X24850Y42200D02*
X25150D01*
X25000Y42050D02*
Y42350D01*
X27850Y42200D02*
X28150D01*
X28000Y42050D02*
Y42350D01*
X27850Y37200D02*
X28150D01*
X28000Y37050D02*
Y37350D01*
X24850Y37200D02*
X25150D01*
X25000Y37050D02*
Y37350D01*
X27850Y35200D02*
X28150D01*
X28000Y35050D02*
Y35350D01*
X24850Y35200D02*
X25150D01*
X25000Y35050D02*
Y35350D01*
X24850Y36200D02*
X25150D01*
X25000Y36050D02*
Y36350D01*
X27850Y36200D02*
X28150D01*
X28000Y36050D02*
Y36350D01*
X27850Y34200D02*
X28150D01*
X28000Y34050D02*
Y34350D01*
X24850Y34200D02*
X25150D01*
X25000Y34050D02*
Y34350D01*
X24850Y33200D02*
X25150D01*
X25000Y33050D02*
Y33350D01*
X27850Y33200D02*
X28150D01*
X28000Y33050D02*
Y33350D01*
X33450Y27200D02*
X33750D01*
X33600Y27050D02*
Y27350D01*
X30450Y27200D02*
X30750D01*
X30600Y27050D02*
Y27350D01*
X30450Y28200D02*
X30750D01*
X30600Y28050D02*
Y28350D01*
X33450Y28200D02*
X33750D01*
X33600Y28050D02*
Y28350D01*
X33450Y30200D02*
X33750D01*
X33600Y30050D02*
Y30350D01*
X30450Y30200D02*
X30750D01*
X30600Y30050D02*
Y30350D01*
X30450Y29200D02*
X30750D01*
X30600Y29050D02*
Y29350D01*
X33450Y29200D02*
X33750D01*
X33600Y29050D02*
Y29350D01*
X30450Y31200D02*
X30750D01*
X30600Y31050D02*
Y31350D01*
X33450Y31200D02*
X33750D01*
X33600Y31050D02*
Y31350D01*
X33450Y26200D02*
X33750D01*
X33600Y26050D02*
Y26350D01*
X30450Y26200D02*
X30750D01*
X30600Y26050D02*
Y26350D01*
X33450Y24200D02*
X33750D01*
X33600Y24050D02*
Y24350D01*
X30450Y24200D02*
X30750D01*
X30600Y24050D02*
Y24350D01*
X30450Y25200D02*
X30750D01*
X30600Y25050D02*
Y25350D01*
X33450Y25200D02*
X33750D01*
X33600Y25050D02*
Y25350D01*
X33450Y23200D02*
X33750D01*
X33600Y23050D02*
Y23350D01*
X30450Y23200D02*
X30750D01*
X30600Y23050D02*
Y23350D01*
X30450Y22200D02*
X30750D01*
X30600Y22050D02*
Y22350D01*
X33450Y22200D02*
X33750D01*
X33600Y22050D02*
Y22350D01*
X33450Y38200D02*
X33750D01*
X33600Y38050D02*
Y38350D01*
X30450Y38200D02*
X30750D01*
X30600Y38050D02*
Y38350D01*
X30450Y39200D02*
X30750D01*
X30600Y39050D02*
Y39350D01*
X33450Y39200D02*
X33750D01*
X33600Y39050D02*
Y39350D01*
X33450Y41200D02*
X33750D01*
X33600Y41050D02*
Y41350D01*
X30450Y41200D02*
X30750D01*
X30600Y41050D02*
Y41350D01*
X30450Y40200D02*
X30750D01*
X30600Y40050D02*
Y40350D01*
X33450Y40200D02*
X33750D01*
X33600Y40050D02*
Y40350D01*
X30450Y42200D02*
X30750D01*
X30600Y42050D02*
Y42350D01*
X33450Y42200D02*
X33750D01*
X33600Y42050D02*
Y42350D01*
X33450Y37200D02*
X33750D01*
X33600Y37050D02*
Y37350D01*
X30450Y37200D02*
X30750D01*
X30600Y37050D02*
Y37350D01*
X33450Y35200D02*
X33750D01*
X33600Y35050D02*
Y35350D01*
X30450Y35200D02*
X30750D01*
X30600Y35050D02*
Y35350D01*
X30450Y36200D02*
X30750D01*
X30600Y36050D02*
Y36350D01*
X33450Y36200D02*
X33750D01*
X33600Y36050D02*
Y36350D01*
X33450Y34200D02*
X33750D01*
X33600Y34050D02*
Y34350D01*
X30450Y34200D02*
X30750D01*
X30600Y34050D02*
Y34350D01*
X30450Y33200D02*
X30750D01*
X30600Y33050D02*
Y33350D01*
X33450Y33200D02*
X33750D01*
X33600Y33050D02*
Y33350D01*
X38850Y27200D02*
X39150D01*
X39000Y27050D02*
Y27350D01*
X35850Y27200D02*
X36150D01*
X36000Y27050D02*
Y27350D01*
X35850Y28200D02*
X36150D01*
X36000Y28050D02*
Y28350D01*
X38850Y28200D02*
X39150D01*
X39000Y28050D02*
Y28350D01*
X38850Y30200D02*
X39150D01*
X39000Y30050D02*
Y30350D01*
X35850Y30200D02*
X36150D01*
X36000Y30050D02*
Y30350D01*
X35850Y29200D02*
X36150D01*
X36000Y29050D02*
Y29350D01*
X38850Y29200D02*
X39150D01*
X39000Y29050D02*
Y29350D01*
X35850Y31200D02*
X36150D01*
X36000Y31050D02*
Y31350D01*
X38850Y31200D02*
X39150D01*
X39000Y31050D02*
Y31350D01*
X38850Y26200D02*
X39150D01*
X39000Y26050D02*
Y26350D01*
X35850Y26200D02*
X36150D01*
X36000Y26050D02*
Y26350D01*
X38850Y24200D02*
X39150D01*
X39000Y24050D02*
Y24350D01*
X35850Y24200D02*
X36150D01*
X36000Y24050D02*
Y24350D01*
X35850Y25200D02*
X36150D01*
X36000Y25050D02*
Y25350D01*
X38850Y25200D02*
X39150D01*
X39000Y25050D02*
Y25350D01*
X38850Y23200D02*
X39150D01*
X39000Y23050D02*
Y23350D01*
X35850Y23200D02*
X36150D01*
X36000Y23050D02*
Y23350D01*
X35850Y22200D02*
X36150D01*
X36000Y22050D02*
Y22350D01*
X38850Y22200D02*
X39150D01*
X39000Y22050D02*
Y22350D01*
X38850Y38200D02*
X39150D01*
X39000Y38050D02*
Y38350D01*
X35850Y38200D02*
X36150D01*
X36000Y38050D02*
Y38350D01*
X35850Y39200D02*
X36150D01*
X36000Y39050D02*
Y39350D01*
X38850Y39200D02*
X39150D01*
X39000Y39050D02*
Y39350D01*
X38850Y41200D02*
X39150D01*
X39000Y41050D02*
Y41350D01*
X35850Y41200D02*
X36150D01*
X36000Y41050D02*
Y41350D01*
X35850Y40200D02*
X36150D01*
X36000Y40050D02*
Y40350D01*
X38850Y40200D02*
X39150D01*
X39000Y40050D02*
Y40350D01*
X35850Y42200D02*
X36150D01*
X36000Y42050D02*
Y42350D01*
X38850Y42200D02*
X39150D01*
X39000Y42050D02*
Y42350D01*
X38850Y37200D02*
X39150D01*
X39000Y37050D02*
Y37350D01*
X35850Y37200D02*
X36150D01*
X36000Y37050D02*
Y37350D01*
X38850Y35200D02*
X39150D01*
X39000Y35050D02*
Y35350D01*
X35850Y35200D02*
X36150D01*
X36000Y35050D02*
Y35350D01*
X35850Y36200D02*
X36150D01*
X36000Y36050D02*
Y36350D01*
X38850Y36200D02*
X39150D01*
X39000Y36050D02*
Y36350D01*
X38850Y34200D02*
X39150D01*
X39000Y34050D02*
Y34350D01*
X35850Y34200D02*
X36150D01*
X36000Y34050D02*
Y34350D01*
X35850Y33200D02*
X36150D01*
X36000Y33050D02*
Y33350D01*
X38850Y33200D02*
X39150D01*
X39000Y33050D02*
Y33350D01*
X14415Y22525D02*
X14785D01*
X14600Y22340D02*
Y22710D01*
X15415Y23000D02*
X15785D01*
X15600Y22815D02*
Y23185D01*
X15415Y40100D02*
X15785D01*
X15600Y39915D02*
Y40285D01*
X15415Y42000D02*
X15785D01*
X15600Y41815D02*
Y42185D01*
X15415Y41050D02*
X15785D01*
X15600Y40865D02*
Y41235D01*
X15415Y39150D02*
X15785D01*
X15600Y38965D02*
Y39335D01*
X15415Y38200D02*
X15785D01*
X15600Y38015D02*
Y38385D01*
X15415Y33450D02*
X15785D01*
X15600Y33265D02*
Y33635D01*
X15415Y34400D02*
X15785D01*
X15600Y34215D02*
Y34585D01*
X15415Y36300D02*
X15785D01*
X15600Y36115D02*
Y36485D01*
X15415Y37250D02*
X15785D01*
X15600Y37065D02*
Y37435D01*
X15415Y35350D02*
X15785D01*
X15600Y35165D02*
Y35535D01*
X15415Y25850D02*
X15785D01*
X15600Y25665D02*
Y26035D01*
X15415Y27750D02*
X15785D01*
X15600Y27565D02*
Y27935D01*
X15415Y26800D02*
X15785D01*
X15600Y26615D02*
Y26985D01*
X15415Y24900D02*
X15785D01*
X15600Y24715D02*
Y25085D01*
X15415Y23950D02*
X15785D01*
X15600Y23765D02*
Y24135D01*
X15415Y28700D02*
X15785D01*
X15600Y28515D02*
Y28885D01*
X15415Y29650D02*
X15785D01*
X15600Y29465D02*
Y29835D01*
X15415Y31550D02*
X15785D01*
X15600Y31365D02*
Y31735D01*
X15415Y32500D02*
X15785D01*
X15600Y32315D02*
Y32685D01*
X15415Y30600D02*
X15785D01*
X15600Y30415D02*
Y30785D01*
X14415Y39625D02*
X14785D01*
X14600Y39440D02*
Y39810D01*
X14415Y41525D02*
X14785D01*
X14600Y41340D02*
Y41710D01*
X14415Y40575D02*
X14785D01*
X14600Y40390D02*
Y40760D01*
X14415Y38675D02*
X14785D01*
X14600Y38490D02*
Y38860D01*
X14415Y37725D02*
X14785D01*
X14600Y37540D02*
Y37910D01*
X14415Y32975D02*
X14785D01*
X14600Y32790D02*
Y33160D01*
X14415Y33925D02*
X14785D01*
X14600Y33740D02*
Y34110D01*
X14415Y35825D02*
X14785D01*
X14600Y35640D02*
Y36010D01*
X14415Y36775D02*
X14785D01*
X14600Y36590D02*
Y36960D01*
X14415Y34875D02*
X14785D01*
X14600Y34690D02*
Y35060D01*
X14415Y25375D02*
X14785D01*
X14600Y25190D02*
Y25560D01*
X14415Y27275D02*
X14785D01*
X14600Y27090D02*
Y27460D01*
X14415Y26325D02*
X14785D01*
X14600Y26140D02*
Y26510D01*
X14415Y24425D02*
X14785D01*
X14600Y24240D02*
Y24610D01*
X14415Y23475D02*
X14785D01*
X14600Y23290D02*
Y23660D01*
X14415Y28225D02*
X14785D01*
X14600Y28040D02*
Y28410D01*
X14415Y29175D02*
X14785D01*
X14600Y28990D02*
Y29360D01*
X14415Y31075D02*
X14785D01*
X14600Y30890D02*
Y31260D01*
X14415Y32025D02*
X14785D01*
X14600Y31840D02*
Y32210D01*
X14415Y30125D02*
X14785D01*
X14600Y29940D02*
Y30310D01*
X13415Y29650D02*
X13785D01*
X13600Y29465D02*
Y29835D01*
X13415Y31550D02*
X13785D01*
X13600Y31365D02*
Y31735D01*
X13415Y30600D02*
X13785D01*
X13600Y30415D02*
Y30785D01*
X13415Y28700D02*
X13785D01*
X13600Y28515D02*
Y28885D01*
X13415Y27750D02*
X13785D01*
X13600Y27565D02*
Y27935D01*
X13415Y23000D02*
X13785D01*
X13600Y22815D02*
Y23185D01*
X13415Y23950D02*
X13785D01*
X13600Y23765D02*
Y24135D01*
X13415Y25850D02*
X13785D01*
X13600Y25665D02*
Y26035D01*
X13415Y26800D02*
X13785D01*
X13600Y26615D02*
Y26985D01*
X13415Y24900D02*
X13785D01*
X13600Y24715D02*
Y25085D01*
X13415Y34400D02*
X13785D01*
X13600Y34215D02*
Y34585D01*
X13415Y36300D02*
X13785D01*
X13600Y36115D02*
Y36485D01*
X13415Y35350D02*
X13785D01*
X13600Y35165D02*
Y35535D01*
X13415Y33450D02*
X13785D01*
X13600Y33265D02*
Y33635D01*
X13415Y32500D02*
X13785D01*
X13600Y32315D02*
Y32685D01*
X13415Y37250D02*
X13785D01*
X13600Y37065D02*
Y37435D01*
X13415Y38200D02*
X13785D01*
X13600Y38015D02*
Y38385D01*
X13415Y40100D02*
X13785D01*
X13600Y39915D02*
Y40285D01*
X13415Y41050D02*
X13785D01*
X13600Y40865D02*
Y41235D01*
X13415Y39150D02*
X13785D01*
X13600Y38965D02*
Y39335D01*
X14000Y19770D02*
X15200D01*
X14600Y19170D02*
Y20370D01*
X14000Y44770D02*
X15200D01*
X14600Y44170D02*
Y45370D01*
X18723Y28600D02*
X19077D01*
X18900Y28423D02*
Y28777D01*
X18723Y27600D02*
X19077D01*
X18900Y27423D02*
Y27777D01*
X18723Y26600D02*
X19077D01*
X18900Y26423D02*
Y26777D01*
X18723Y25600D02*
X19077D01*
X18900Y25423D02*
Y25777D01*
X18723Y24600D02*
X19077D01*
X18900Y24423D02*
Y24777D01*
X18723Y23600D02*
X19077D01*
X18900Y23423D02*
Y23777D01*
X18723Y30600D02*
X19077D01*
X18900Y30423D02*
Y30777D01*
X18723Y31600D02*
X19077D01*
X18900Y31423D02*
Y31777D01*
X18723Y32600D02*
X19077D01*
X18900Y32423D02*
Y32777D01*
X18723Y33600D02*
X19077D01*
X18900Y33423D02*
Y33777D01*
X18723Y34600D02*
X19077D01*
X18900Y34423D02*
Y34777D01*
X18723Y36600D02*
X19077D01*
X18900Y36423D02*
Y36777D01*
X18723Y37600D02*
X19077D01*
X18900Y37423D02*
Y37777D01*
X18723Y38600D02*
X19077D01*
X18900Y38423D02*
Y38777D01*
X18723Y39600D02*
X19077D01*
X18900Y39423D02*
Y39777D01*
X18723Y40600D02*
X19077D01*
X18900Y40423D02*
Y40777D01*
X18723Y29600D02*
X19077D01*
X18900Y29423D02*
Y29777D01*
X18723Y35600D02*
X19077D01*
X18900Y35423D02*
Y35777D01*
X18825Y21400D02*
X19175D01*
X19000Y21225D02*
Y21575D01*
X19825Y19800D02*
X20175D01*
X20000Y19625D02*
Y19975D01*
X18825Y19800D02*
X19175D01*
X19000Y19625D02*
Y19975D01*
X20723Y28600D02*
X21077D01*
X20900Y28423D02*
Y28777D01*
X20723Y27600D02*
X21077D01*
X20900Y27423D02*
Y27777D01*
X20723Y26600D02*
X21077D01*
X20900Y26423D02*
Y26777D01*
X20723Y25600D02*
X21077D01*
X20900Y25423D02*
Y25777D01*
X20723Y24600D02*
X21077D01*
X20900Y24423D02*
Y24777D01*
X20723Y23600D02*
X21077D01*
X20900Y23423D02*
Y23777D01*
X20723Y30600D02*
X21077D01*
X20900Y30423D02*
Y30777D01*
X20723Y31600D02*
X21077D01*
X20900Y31423D02*
Y31777D01*
X20723Y32600D02*
X21077D01*
X20900Y32423D02*
Y32777D01*
X20723Y33600D02*
X21077D01*
X20900Y33423D02*
Y33777D01*
X20723Y34600D02*
X21077D01*
X20900Y34423D02*
Y34777D01*
X20723Y36600D02*
X21077D01*
X20900Y36423D02*
Y36777D01*
X20723Y37600D02*
X21077D01*
X20900Y37423D02*
Y37777D01*
X20723Y38600D02*
X21077D01*
X20900Y38423D02*
Y38777D01*
X20723Y39600D02*
X21077D01*
X20900Y39423D02*
Y39777D01*
X20723Y40600D02*
X21077D01*
X20900Y40423D02*
Y40777D01*
X20723Y29600D02*
X21077D01*
X20900Y29423D02*
Y29777D01*
X20723Y35600D02*
X21077D01*
X20900Y35423D02*
Y35777D01*
X22723Y28600D02*
X23077D01*
X22900Y28423D02*
Y28777D01*
X22723Y27600D02*
X23077D01*
X22900Y27423D02*
Y27777D01*
X22723Y26600D02*
X23077D01*
X22900Y26423D02*
Y26777D01*
X22723Y25600D02*
X23077D01*
X22900Y25423D02*
Y25777D01*
X22723Y24600D02*
X23077D01*
X22900Y24423D02*
Y24777D01*
X22723Y23600D02*
X23077D01*
X22900Y23423D02*
Y23777D01*
X22723Y30600D02*
X23077D01*
X22900Y30423D02*
Y30777D01*
X22723Y31600D02*
X23077D01*
X22900Y31423D02*
Y31777D01*
X22723Y32600D02*
X23077D01*
X22900Y32423D02*
Y32777D01*
X22723Y33600D02*
X23077D01*
X22900Y33423D02*
Y33777D01*
X22723Y34600D02*
X23077D01*
X22900Y34423D02*
Y34777D01*
X22723Y36600D02*
X23077D01*
X22900Y36423D02*
Y36777D01*
X22723Y37600D02*
X23077D01*
X22900Y37423D02*
Y37777D01*
X22723Y38600D02*
X23077D01*
X22900Y38423D02*
Y38777D01*
X22723Y39600D02*
X23077D01*
X22900Y39423D02*
Y39777D01*
X22723Y40600D02*
X23077D01*
X22900Y40423D02*
Y40777D01*
X22723Y29600D02*
X23077D01*
X22900Y29423D02*
Y29777D01*
X22723Y35600D02*
X23077D01*
X22900Y35423D02*
Y35777D01*
X34585Y19798D02*
X35005D01*
X34795Y19588D02*
Y20008D01*
X33495Y19798D02*
X33915D01*
X33705Y19588D02*
Y20008D01*
X32405Y19798D02*
X32825D01*
X32615Y19588D02*
Y20008D01*
X31315Y19798D02*
X31735D01*
X31525Y19588D02*
Y20008D01*
X30225Y19798D02*
X30645D01*
X30435Y19588D02*
Y20008D01*
X29135Y19798D02*
X29555D01*
X29345Y19588D02*
Y20008D01*
X28045Y19798D02*
X28465D01*
X28255Y19588D02*
Y20008D01*
X26955Y19798D02*
X27375D01*
X27165Y19588D02*
Y20008D01*
X34040Y18678D02*
X34460D01*
X34250Y18468D02*
Y18887D01*
X32950Y18678D02*
X33370D01*
X33160Y18468D02*
Y18887D01*
X31860Y18678D02*
X32280D01*
X32070Y18468D02*
Y18887D01*
X30770Y18678D02*
X31190D01*
X30980Y18468D02*
Y18887D01*
X29680Y18678D02*
X30100D01*
X29890Y18468D02*
Y18887D01*
X28590Y18678D02*
X29010D01*
X28800Y18468D02*
Y18887D01*
X27500Y18678D02*
X27920D01*
X27710Y18468D02*
Y18887D01*
X23820Y19238D02*
X25020D01*
X24420Y18637D02*
Y19837D01*
X36940Y19238D02*
X38140D01*
X37540Y18637D02*
Y19837D01*
X42593Y27795D02*
X43012D01*
X42803Y27585D02*
Y28005D01*
X42593Y26705D02*
X43012D01*
X42803Y26495D02*
Y26915D01*
X42593Y25615D02*
X43012D01*
X42803Y25405D02*
Y25825D01*
X42593Y24525D02*
X43012D01*
X42803Y24315D02*
Y24735D01*
X42593Y23435D02*
X43012D01*
X42803Y23225D02*
Y23645D01*
X42593Y22345D02*
X43012D01*
X42803Y22135D02*
Y22555D01*
X42593Y21255D02*
X43012D01*
X42803Y21045D02*
Y21465D01*
X42593Y20165D02*
X43012D01*
X42803Y19955D02*
Y20375D01*
X43713Y27250D02*
X44132D01*
X43923Y27040D02*
Y27460D01*
X43713Y26160D02*
X44132D01*
X43923Y25950D02*
Y26370D01*
X43713Y25070D02*
X44132D01*
X43923Y24860D02*
Y25280D01*
X43713Y23980D02*
X44132D01*
X43923Y23770D02*
Y24190D01*
X43713Y22890D02*
X44132D01*
X43923Y22680D02*
Y23100D01*
X43713Y21800D02*
X44132D01*
X43923Y21590D02*
Y22010D01*
X43713Y20710D02*
X44132D01*
X43923Y20500D02*
Y20920D01*
X42762Y17420D02*
X43962D01*
X43362Y16820D02*
Y18020D01*
X42762Y30540D02*
X43962D01*
X43362Y29940D02*
Y31140D01*
X42593Y44395D02*
X43012D01*
X42803Y44185D02*
Y44605D01*
X42593Y43305D02*
X43012D01*
X42803Y43095D02*
Y43515D01*
X42593Y42215D02*
X43012D01*
X42803Y42005D02*
Y42425D01*
X42593Y41125D02*
X43012D01*
X42803Y40915D02*
Y41335D01*
X42593Y40035D02*
X43012D01*
X42803Y39825D02*
Y40245D01*
X42593Y38945D02*
X43012D01*
X42803Y38735D02*
Y39155D01*
X42593Y37855D02*
X43012D01*
X42803Y37645D02*
Y38065D01*
X42593Y36765D02*
X43012D01*
X42803Y36555D02*
Y36975D01*
X43713Y43850D02*
X44132D01*
X43923Y43640D02*
Y44060D01*
X43713Y42760D02*
X44132D01*
X43923Y42550D02*
Y42970D01*
X43713Y41670D02*
X44132D01*
X43923Y41460D02*
Y41880D01*
X43713Y40580D02*
X44132D01*
X43923Y40370D02*
Y40790D01*
X43713Y39490D02*
X44132D01*
X43923Y39280D02*
Y39700D01*
X43713Y38400D02*
X44132D01*
X43923Y38190D02*
Y38610D01*
X43713Y37310D02*
X44132D01*
X43923Y37100D02*
Y37520D01*
X42762Y34020D02*
X43962D01*
X43362Y33420D02*
Y34620D01*
X42762Y47140D02*
X43962D01*
X43362Y46540D02*
Y47740D01*
X26995Y44602D02*
X27415D01*
X27205Y44392D02*
Y44812D01*
X28085Y44602D02*
X28505D01*
X28295Y44392D02*
Y44812D01*
X29175Y44602D02*
X29595D01*
X29385Y44392D02*
Y44812D01*
X30265Y44602D02*
X30685D01*
X30475Y44392D02*
Y44812D01*
X31355Y44602D02*
X31775D01*
X31565Y44392D02*
Y44812D01*
X32445Y44602D02*
X32865D01*
X32655Y44392D02*
Y44812D01*
X33535Y44602D02*
X33955D01*
X33745Y44392D02*
Y44812D01*
X34625Y44602D02*
X35045D01*
X34835Y44392D02*
Y44812D01*
X27540Y45722D02*
X27960D01*
X27750Y45512D02*
Y45932D01*
X28630Y45722D02*
X29050D01*
X28840Y45512D02*
Y45932D01*
X29720Y45722D02*
X30140D01*
X29930Y45512D02*
Y45932D01*
X30810Y45722D02*
X31230D01*
X31020Y45512D02*
Y45932D01*
X31900Y45722D02*
X32320D01*
X32110Y45512D02*
Y45932D01*
X32990Y45722D02*
X33410D01*
X33200Y45512D02*
Y45932D01*
X34080Y45722D02*
X34500D01*
X34290Y45512D02*
Y45932D01*
X36980Y45163D02*
X38180D01*
X37580Y44563D02*
Y45763D01*
X23860Y45163D02*
X25060D01*
X24460Y44563D02*
Y45763D01*
X31660Y32000D02*
X31940D01*
X31800Y31860D02*
Y32140D01*
X33460Y32000D02*
X33740D01*
X33600Y31860D02*
Y32140D01*
X31860Y32900D02*
X32140D01*
X32000Y32760D02*
Y33040D01*
X45760Y22000D02*
X46040D01*
X45900Y21860D02*
Y22140D01*
X26660Y32300D02*
X26940D01*
X26800Y32160D02*
Y32440D01*
X27160Y21100D02*
X27440D01*
X27300Y20960D02*
Y21240D01*
X29060Y21500D02*
X29340D01*
X29200Y21360D02*
Y21640D01*
X40860Y32400D02*
X41140D01*
X41000Y32260D02*
Y32540D01*
X34960Y24600D02*
X35240D01*
X35100Y24460D02*
Y24740D01*
M02*
