G04 Layer_Color=65535*
%FSLAX25Y25*%
%MOIN*%
G70*
G01*
G75*
%ADD11C,0.00500*%
%ADD27C,0.00100*%
%ADD28C,0.01000*%
%ADD29C,0.00050*%
G36*
X536270Y245404D02*
Y245395D01*
Y245387D01*
Y245337D01*
Y245262D01*
X536279Y245170D01*
X536287Y245079D01*
X536295Y244979D01*
X536312Y244904D01*
X536337Y244837D01*
X536345Y244829D01*
X536362Y244804D01*
X536395Y244770D01*
X536437Y244737D01*
X536504Y244695D01*
X536587Y244662D01*
X536695Y244637D01*
X536828Y244620D01*
Y244437D01*
X534321D01*
Y244620D01*
X534338D01*
X534371Y244629D01*
X534429D01*
X534496Y244645D01*
X534571Y244670D01*
X534646Y244695D01*
X534721Y244737D01*
X534779Y244795D01*
X534788Y244804D01*
X534796Y244820D01*
X534813Y244862D01*
X534829Y244912D01*
X534846Y244995D01*
X534863Y245095D01*
X534879Y245229D01*
Y245312D01*
Y245395D01*
Y250193D01*
Y250202D01*
Y250210D01*
Y250260D01*
Y250335D01*
X534871Y250427D01*
X534863Y250518D01*
X534846Y250610D01*
X534829Y250693D01*
X534804Y250751D01*
X534796Y250760D01*
X534779Y250785D01*
X534746Y250818D01*
X534704Y250851D01*
X534638Y250893D01*
X534554Y250935D01*
X534446Y250960D01*
X534321Y250976D01*
Y251168D01*
X536270D01*
Y245404D01*
D02*
G37*
G36*
X533446D02*
Y245395D01*
Y245387D01*
Y245337D01*
Y245262D01*
X533455Y245170D01*
X533463Y245079D01*
X533471Y244979D01*
X533488Y244904D01*
X533513Y244837D01*
X533521Y244829D01*
X533538Y244804D01*
X533571Y244770D01*
X533613Y244737D01*
X533680Y244695D01*
X533763Y244662D01*
X533871Y244637D01*
X534005Y244620D01*
Y244437D01*
X531497D01*
Y244620D01*
X531514D01*
X531547Y244629D01*
X531605D01*
X531672Y244645D01*
X531747Y244670D01*
X531822Y244695D01*
X531897Y244737D01*
X531955Y244795D01*
X531964Y244804D01*
X531972Y244820D01*
X531989Y244862D01*
X532005Y244912D01*
X532022Y244995D01*
X532039Y245095D01*
X532055Y245229D01*
Y245312D01*
Y245395D01*
Y250193D01*
Y250202D01*
Y250210D01*
Y250260D01*
Y250335D01*
X532047Y250427D01*
X532039Y250518D01*
X532022Y250610D01*
X532005Y250693D01*
X531980Y250751D01*
X531972Y250760D01*
X531955Y250785D01*
X531922Y250818D01*
X531880Y250851D01*
X531814Y250893D01*
X531731Y250935D01*
X531622Y250960D01*
X531497Y250976D01*
Y251168D01*
X533446D01*
Y245404D01*
D02*
G37*
G36*
X530614D02*
Y245395D01*
Y245387D01*
Y245337D01*
Y245262D01*
X530623Y245170D01*
X530631Y245079D01*
X530639Y244979D01*
X530656Y244904D01*
X530681Y244837D01*
X530689Y244829D01*
X530706Y244804D01*
X530739Y244770D01*
X530781Y244737D01*
X530848Y244695D01*
X530931Y244662D01*
X531039Y244637D01*
X531172Y244620D01*
Y244437D01*
X528665D01*
Y244620D01*
X528682D01*
X528715Y244629D01*
X528773D01*
X528840Y244645D01*
X528915Y244670D01*
X528990Y244695D01*
X529065Y244737D01*
X529123Y244795D01*
X529132Y244804D01*
X529140Y244820D01*
X529156Y244862D01*
X529173Y244912D01*
X529190Y244995D01*
X529207Y245095D01*
X529223Y245229D01*
Y245312D01*
Y245395D01*
Y248102D01*
Y248111D01*
Y248119D01*
Y248169D01*
Y248244D01*
X529215Y248336D01*
X529207Y248427D01*
X529190Y248519D01*
X529173Y248602D01*
X529148Y248660D01*
X529140Y248669D01*
X529123Y248694D01*
X529090Y248727D01*
X529048Y248761D01*
X528982Y248802D01*
X528898Y248844D01*
X528790Y248869D01*
X528665Y248885D01*
Y249077D01*
X530614D01*
Y245404D01*
D02*
G37*
G36*
X515870Y250976D02*
X515595D01*
X515562Y250968D01*
X515470Y250960D01*
X515370Y250935D01*
X515254Y250893D01*
X515145Y250835D01*
X515054Y250751D01*
X515012Y250693D01*
X514979Y250635D01*
Y250626D01*
X514970Y250610D01*
X514962Y250568D01*
X514954Y250518D01*
X514946Y250435D01*
X514937Y250326D01*
X514929Y250185D01*
Y250110D01*
Y250018D01*
Y245587D01*
Y245578D01*
Y245570D01*
Y245520D01*
Y245454D01*
Y245370D01*
Y245287D01*
Y245212D01*
X514937Y245145D01*
Y245104D01*
Y245095D01*
X514946Y245062D01*
X514962Y245012D01*
X514987Y244962D01*
X515021Y244895D01*
X515070Y244837D01*
X515129Y244770D01*
X515204Y244720D01*
X515212D01*
X515237Y244704D01*
X515270Y244695D01*
X515320Y244679D01*
X515387Y244662D01*
X515462Y244645D01*
X515545Y244637D01*
X515645Y244629D01*
X515870D01*
Y244437D01*
X512363D01*
Y244629D01*
X512630D01*
X512663Y244637D01*
X512755Y244645D01*
X512855Y244670D01*
X512971Y244712D01*
X513080Y244770D01*
X513180Y244854D01*
X513221Y244912D01*
X513254Y244970D01*
Y244979D01*
X513263Y244995D01*
X513271Y245037D01*
X513288Y245095D01*
X513296Y245179D01*
X513305Y245287D01*
X513313Y245428D01*
Y245503D01*
Y245595D01*
Y250585D01*
X510722Y244437D01*
X510606D01*
X507990Y250535D01*
Y245795D01*
Y245787D01*
Y245770D01*
Y245745D01*
Y245712D01*
Y245628D01*
Y245528D01*
X507998Y245420D01*
Y245328D01*
Y245245D01*
X508007Y245212D01*
Y245187D01*
Y245179D01*
X508015Y245162D01*
X508023Y245137D01*
X508040Y245104D01*
X508098Y245012D01*
X508132Y244962D01*
X508181Y244912D01*
X508240Y244854D01*
X508307Y244804D01*
X508382Y244762D01*
X508473Y244720D01*
X508573Y244679D01*
X508690Y244654D01*
X508823Y244637D01*
X508965Y244629D01*
Y244437D01*
X506666D01*
Y244629D01*
X506782D01*
X506815Y244637D01*
X506899Y244645D01*
X507007Y244662D01*
X507124Y244695D01*
X507240Y244745D01*
X507348Y244812D01*
X507440Y244904D01*
X507448Y244912D01*
X507457Y244929D01*
X507474Y244962D01*
X507499Y244995D01*
X507523Y245054D01*
X507549Y245112D01*
X507574Y245179D01*
X507590Y245262D01*
Y245279D01*
X507598Y245304D01*
Y245345D01*
Y245412D01*
X507607Y245495D01*
Y245553D01*
Y245620D01*
Y245687D01*
Y245770D01*
Y250018D01*
Y250027D01*
Y250035D01*
Y250085D01*
Y250152D01*
Y250235D01*
Y250318D01*
X507598Y250393D01*
Y250460D01*
X507590Y250501D01*
Y250510D01*
X507582Y250543D01*
X507565Y250585D01*
X507540Y250643D01*
X507507Y250701D01*
X507457Y250768D01*
X507399Y250826D01*
X507324Y250876D01*
X507315Y250885D01*
X507290Y250893D01*
X507257Y250910D01*
X507207Y250926D01*
X507140Y250943D01*
X507065Y250960D01*
X506974Y250976D01*
X506666D01*
Y251168D01*
X509414D01*
X511297Y246728D01*
X513130Y251168D01*
X515870D01*
Y250976D01*
D02*
G37*
G36*
X527574Y248944D02*
X527382D01*
Y248952D01*
X527365Y248985D01*
X527349Y249027D01*
X527324Y249085D01*
X527291Y249160D01*
X527257Y249252D01*
X527207Y249344D01*
X527157Y249444D01*
X527024Y249668D01*
X526866Y249902D01*
X526683Y250135D01*
X526466Y250343D01*
X526458Y250352D01*
X526433Y250368D01*
X526399Y250393D01*
X526349Y250435D01*
X526283Y250476D01*
X526208Y250526D01*
X526124Y250585D01*
X526024Y250635D01*
X525916Y250693D01*
X525800Y250743D01*
X525666Y250793D01*
X525533Y250835D01*
X525391Y250876D01*
X525241Y250901D01*
X525083Y250918D01*
X524925Y250926D01*
X524858D01*
X524783Y250918D01*
X524683Y250901D01*
X524558Y250876D01*
X524417Y250843D01*
X524267Y250793D01*
X524109Y250726D01*
X523942Y250643D01*
X523775Y250535D01*
X523609Y250401D01*
X523450Y250252D01*
X523301Y250068D01*
X523167Y249852D01*
X523101Y249727D01*
X523051Y249602D01*
X522992Y249468D01*
X522951Y249319D01*
Y249310D01*
X522942Y249285D01*
X522934Y249244D01*
X522917Y249185D01*
X522901Y249119D01*
X522884Y249035D01*
X522867Y248944D01*
X522851Y248844D01*
X522834Y248727D01*
X522817Y248602D01*
X522784Y248344D01*
X522759Y248061D01*
X522751Y247761D01*
Y247752D01*
Y247736D01*
Y247711D01*
Y247669D01*
Y247619D01*
X522759Y247561D01*
Y247494D01*
X522767Y247419D01*
X522784Y247253D01*
X522801Y247061D01*
X522834Y246845D01*
X522876Y246620D01*
X522926Y246395D01*
X522984Y246162D01*
X523067Y245928D01*
X523159Y245703D01*
X523267Y245495D01*
X523400Y245304D01*
X523550Y245137D01*
X523625Y245070D01*
X523717Y245004D01*
X523725D01*
X523742Y244987D01*
X523767Y244970D01*
X523809Y244954D01*
X523859Y244929D01*
X523917Y244895D01*
X523984Y244862D01*
X524067Y244837D01*
X524242Y244770D01*
X524450Y244712D01*
X524683Y244679D01*
X524933Y244662D01*
X525016D01*
X525058Y244670D01*
X525116D01*
X525241Y244687D01*
X525391Y244712D01*
X525566Y244745D01*
X525758Y244795D01*
X525966Y244862D01*
Y246253D01*
Y246270D01*
Y246303D01*
Y246361D01*
Y246428D01*
X525958Y246495D01*
Y246570D01*
X525949Y246628D01*
X525941Y246670D01*
Y246678D01*
X525933Y246703D01*
X525916Y246736D01*
X525891Y246778D01*
X525858Y246828D01*
X525808Y246878D01*
X525758Y246928D01*
X525683Y246970D01*
X525674Y246978D01*
X525650Y246986D01*
X525616Y247003D01*
X525566Y247020D01*
X525508Y247036D01*
X525433Y247053D01*
X525358Y247070D01*
X525100D01*
Y247261D01*
X528365D01*
Y247070D01*
X528348D01*
X528315Y247061D01*
X528257D01*
X528190Y247053D01*
X528049Y247028D01*
X527982Y247011D01*
X527924Y246994D01*
X527915D01*
X527890Y246978D01*
X527849Y246961D01*
X527807Y246928D01*
X527757Y246895D01*
X527699Y246845D01*
X527657Y246786D01*
X527615Y246711D01*
Y246703D01*
X527607Y246686D01*
X527599Y246661D01*
Y246620D01*
X527590Y246553D01*
X527582Y246478D01*
X527574Y246378D01*
Y246253D01*
Y244862D01*
X527557Y244854D01*
X527516Y244837D01*
X527441Y244812D01*
X527349Y244770D01*
X527224Y244729D01*
X527082Y244679D01*
X526916Y244629D01*
X526732Y244579D01*
X526533Y244520D01*
X526316Y244471D01*
X526083Y244421D01*
X525841Y244379D01*
X525591Y244337D01*
X525325Y244312D01*
X525050Y244296D01*
X524775Y244287D01*
X524700D01*
X524617Y244296D01*
X524508Y244304D01*
X524367Y244312D01*
X524200Y244337D01*
X524025Y244362D01*
X523825Y244404D01*
X523617Y244454D01*
X523400Y244520D01*
X523176Y244596D01*
X522951Y244687D01*
X522717Y244795D01*
X522493Y244920D01*
X522276Y245062D01*
X522068Y245229D01*
X522059Y245237D01*
X522018Y245270D01*
X521968Y245328D01*
X521893Y245404D01*
X521809Y245495D01*
X521718Y245612D01*
X521618Y245745D01*
X521518Y245903D01*
X521418Y246070D01*
X521318Y246262D01*
X521226Y246461D01*
X521143Y246686D01*
X521068Y246919D01*
X521018Y247169D01*
X520985Y247436D01*
X520968Y247711D01*
Y247719D01*
Y247727D01*
Y247752D01*
Y247778D01*
X520976Y247861D01*
X520985Y247969D01*
X521001Y248102D01*
X521026Y248261D01*
X521060Y248436D01*
X521101Y248619D01*
X521160Y248819D01*
X521235Y249035D01*
X521326Y249244D01*
X521426Y249468D01*
X521551Y249685D01*
X521701Y249893D01*
X521868Y250102D01*
X522059Y250302D01*
X522076Y250310D01*
X522109Y250343D01*
X522168Y250393D01*
X522251Y250460D01*
X522359Y250535D01*
X522484Y250626D01*
X522626Y250718D01*
X522792Y250810D01*
X522976Y250901D01*
X523184Y250993D01*
X523400Y251084D01*
X523634Y251160D01*
X523884Y251226D01*
X524150Y251276D01*
X524425Y251309D01*
X524717Y251318D01*
X524892D01*
X525016Y251309D01*
X525150Y251301D01*
X525300Y251285D01*
X525616Y251235D01*
X525625D01*
X525650Y251226D01*
X525691Y251218D01*
X525766Y251193D01*
X525858Y251168D01*
X525974Y251126D01*
X526124Y251076D01*
X526216Y251043D01*
X526308Y251010D01*
X526316D01*
X526333Y251001D01*
X526358Y250993D01*
X526391Y250985D01*
X526474Y250951D01*
X526574Y250918D01*
X526674Y250885D01*
X526774Y250851D01*
X526849Y250835D01*
X526882Y250826D01*
X526916D01*
X526949Y250835D01*
X527007Y250851D01*
X527074Y250885D01*
X527149Y250943D01*
X527191Y250985D01*
X527232Y251034D01*
X527274Y251093D01*
X527316Y251160D01*
X527349Y251235D01*
X527382Y251318D01*
X527574D01*
Y248944D01*
D02*
G37*
G36*
X530031Y251318D02*
X530106Y251301D01*
X530189Y251268D01*
X530281Y251235D01*
X530373Y251176D01*
X530464Y251101D01*
X530473Y251093D01*
X530498Y251060D01*
X530539Y251010D01*
X530581Y250951D01*
X530614Y250868D01*
X530656Y250776D01*
X530681Y250668D01*
X530689Y250551D01*
Y250535D01*
Y250501D01*
X530681Y250443D01*
X530664Y250368D01*
X530631Y250276D01*
X530589Y250193D01*
X530531Y250102D01*
X530456Y250010D01*
X530448Y250002D01*
X530414Y249977D01*
X530364Y249943D01*
X530306Y249902D01*
X530223Y249860D01*
X530131Y249827D01*
X530031Y249802D01*
X529915Y249793D01*
X529865D01*
X529806Y249802D01*
X529731Y249818D01*
X529640Y249843D01*
X529556Y249885D01*
X529465Y249935D01*
X529373Y250010D01*
X529365Y250018D01*
X529340Y250052D01*
X529306Y250102D01*
X529265Y250160D01*
X529223Y250243D01*
X529190Y250335D01*
X529165Y250435D01*
X529156Y250551D01*
Y250568D01*
Y250601D01*
X529165Y250660D01*
X529181Y250735D01*
X529207Y250826D01*
X529248Y250910D01*
X529298Y251001D01*
X529373Y251093D01*
X529381Y251101D01*
X529415Y251126D01*
X529465Y251168D01*
X529523Y251209D01*
X529606Y251251D01*
X529698Y251293D01*
X529798Y251318D01*
X529915Y251326D01*
X529973D01*
X530031Y251318D01*
D02*
G37*
G36*
X518727Y249202D02*
X518777D01*
X518836Y249194D01*
X518977Y249177D01*
X519136Y249135D01*
X519310Y249085D01*
X519494Y249019D01*
X519669Y248919D01*
X519677D01*
X519694Y248902D01*
X519719Y248885D01*
X519752Y248860D01*
X519835Y248785D01*
X519935Y248686D01*
X520035Y248561D01*
X520118Y248402D01*
X520152Y248319D01*
X520177Y248236D01*
X520193Y248136D01*
X520202Y248036D01*
Y248027D01*
Y248011D01*
Y247977D01*
X520193Y247936D01*
X520168Y247844D01*
X520127Y247727D01*
X520093Y247669D01*
X520052Y247611D01*
X520002Y247561D01*
X519935Y247519D01*
X519869Y247478D01*
X519785Y247444D01*
X519685Y247428D01*
X519577Y247419D01*
X519552D01*
X519519Y247428D01*
X519477Y247436D01*
X519369Y247469D01*
X519310Y247494D01*
X519244Y247528D01*
X519185Y247578D01*
X519119Y247636D01*
X519061Y247703D01*
X519002Y247786D01*
X518952Y247886D01*
X518911Y248002D01*
X518877Y248144D01*
X518861Y248294D01*
Y248302D01*
Y248319D01*
X518852Y248344D01*
X518844Y248386D01*
X518827Y248477D01*
X518794Y248577D01*
X518736Y248686D01*
X518661Y248769D01*
X518619Y248810D01*
X518569Y248835D01*
X518511Y248852D01*
X518444Y248860D01*
X518402D01*
X518361Y248844D01*
X518302Y248827D01*
X518244Y248794D01*
X518178Y248752D01*
X518103Y248686D01*
X518036Y248602D01*
Y248594D01*
X518028Y248586D01*
X518011Y248561D01*
X517994Y248527D01*
X517978Y248486D01*
X517961Y248444D01*
X517936Y248377D01*
X517911Y248311D01*
X517886Y248236D01*
X517869Y248152D01*
X517844Y248052D01*
X517828Y247952D01*
X517811Y247836D01*
X517794Y247711D01*
X517786Y247578D01*
Y247436D01*
Y247428D01*
Y247411D01*
Y247378D01*
Y247336D01*
X517794Y247278D01*
Y247219D01*
X517803Y247144D01*
X517811Y247070D01*
X517828Y246886D01*
X517861Y246695D01*
X517903Y246486D01*
X517961Y246278D01*
Y246270D01*
X517969Y246253D01*
X517986Y246212D01*
X518003Y246170D01*
X518019Y246111D01*
X518044Y246053D01*
X518111Y245903D01*
X518202Y245745D01*
X518302Y245587D01*
X518419Y245428D01*
X518561Y245295D01*
X518569Y245287D01*
X518611Y245262D01*
X518669Y245229D01*
X518744Y245195D01*
X518836Y245154D01*
X518944Y245120D01*
X519069Y245095D01*
X519210Y245087D01*
X519261D01*
X519294Y245095D01*
X519335Y245104D01*
X519385Y245120D01*
X519510Y245154D01*
X519652Y245220D01*
X519735Y245262D01*
X519819Y245320D01*
X519910Y245378D01*
X519993Y245454D01*
X520093Y245537D01*
X520185Y245637D01*
X520343Y245512D01*
X520335Y245495D01*
X520310Y245462D01*
X520277Y245404D01*
X520227Y245320D01*
X520160Y245229D01*
X520077Y245129D01*
X519977Y245020D01*
X519869Y244912D01*
X519744Y244795D01*
X519602Y244687D01*
X519452Y244587D01*
X519285Y244496D01*
X519102Y244412D01*
X518911Y244354D01*
X518702Y244321D01*
X518486Y244304D01*
X518444D01*
X518394Y244312D01*
X518328D01*
X518244Y244329D01*
X518153Y244346D01*
X518053Y244362D01*
X517936Y244395D01*
X517819Y244437D01*
X517694Y244479D01*
X517569Y244537D01*
X517445Y244612D01*
X517320Y244695D01*
X517195Y244787D01*
X517070Y244904D01*
X516961Y245029D01*
X516953Y245037D01*
X516936Y245062D01*
X516911Y245095D01*
X516878Y245154D01*
X516845Y245212D01*
X516795Y245295D01*
X516753Y245387D01*
X516703Y245487D01*
X516653Y245603D01*
X516611Y245728D01*
X516562Y245862D01*
X516528Y246012D01*
X516495Y246162D01*
X516470Y246328D01*
X516453Y246503D01*
X516445Y246678D01*
Y246686D01*
Y246720D01*
Y246770D01*
X516453Y246836D01*
X516462Y246919D01*
X516470Y247011D01*
X516487Y247119D01*
X516511Y247236D01*
X516537Y247361D01*
X516570Y247494D01*
X516611Y247636D01*
X516653Y247778D01*
X516712Y247919D01*
X516778Y248061D01*
X516853Y248202D01*
X516945Y248336D01*
X516953Y248344D01*
X516970Y248377D01*
X517011Y248419D01*
X517061Y248469D01*
X517120Y248536D01*
X517195Y248610D01*
X517286Y248694D01*
X517386Y248777D01*
X517503Y248852D01*
X517628Y248935D01*
X517761Y249010D01*
X517911Y249077D01*
X518078Y249127D01*
X518253Y249177D01*
X518436Y249202D01*
X518627Y249210D01*
X518686D01*
X518727Y249202D01*
D02*
G37*
D11*
X542077Y135201D02*
Y137200D01*
X542743Y136534D01*
X543410Y137200D01*
Y135201D01*
X545076D02*
Y137200D01*
X544076Y136201D01*
X545409D01*
X493692Y308457D02*
Y310456D01*
X494359Y309790D01*
X495025Y310456D01*
Y308457D01*
X495692Y310123D02*
X496025Y310456D01*
X496692D01*
X497025Y310123D01*
Y309790D01*
X496692Y309457D01*
X496358D01*
X496692D01*
X497025Y309124D01*
Y308790D01*
X496692Y308457D01*
X496025D01*
X495692Y308790D01*
X594899Y151757D02*
X594233D01*
X594566D01*
Y150091D01*
X594233Y149757D01*
X593899D01*
X593566Y150091D01*
X595565Y149757D02*
X596232D01*
X595899D01*
Y151757D01*
X595565Y151424D01*
X524490Y186901D02*
X523824D01*
X524157D01*
Y185235D01*
X523824Y184902D01*
X523490D01*
X523157Y185235D01*
X526489Y184902D02*
X525156D01*
X526489Y186235D01*
Y186568D01*
X526156Y186901D01*
X525490D01*
X525156Y186568D01*
X621665Y135382D02*
Y137381D01*
X622331Y136715D01*
X622998Y137381D01*
Y135382D01*
X624997D02*
X623664D01*
X624997Y136715D01*
Y137048D01*
X624664Y137381D01*
X623998D01*
X623664Y137048D01*
X620600Y308300D02*
Y310299D01*
X621266Y309633D01*
X621933Y310299D01*
Y308300D01*
X622599D02*
X623266D01*
X622933D01*
Y310299D01*
X622599Y309966D01*
X542190Y309092D02*
X541856Y309425D01*
X541190D01*
X540857Y309092D01*
Y308759D01*
X541190Y308425D01*
X541856D01*
X542190Y308092D01*
Y307759D01*
X541856Y307426D01*
X541190D01*
X540857Y307759D01*
X542856Y307426D02*
Y309425D01*
X543856D01*
X544189Y309092D01*
Y308425D01*
X543856Y308092D01*
X542856D01*
X544855Y309425D02*
X546188D01*
X545522D01*
Y307426D01*
X546855Y309092D02*
X547188Y309425D01*
X547854D01*
X548188Y309092D01*
Y308759D01*
X547854Y308425D01*
X547521D01*
X547854D01*
X548188Y308092D01*
Y307759D01*
X547854Y307426D01*
X547188D01*
X546855Y307759D01*
X550187Y309092D02*
X549854Y309425D01*
X549187D01*
X548854Y309092D01*
Y307759D01*
X549187Y307426D01*
X549854D01*
X550187Y307759D01*
Y308425D01*
X549520D01*
X552853Y307426D02*
Y308759D01*
X553519Y309425D01*
X554186Y308759D01*
Y307426D01*
Y308425D01*
X552853D01*
X556185Y309425D02*
Y307426D01*
X555185D01*
X554852Y307759D01*
Y308425D01*
X555185Y308759D01*
X556185D01*
X557185D02*
X557851D01*
X558184Y308425D01*
Y307426D01*
X557185D01*
X556851Y307759D01*
X557185Y308092D01*
X558184D01*
X558851Y306759D02*
Y308759D01*
X559851D01*
X560184Y308425D01*
Y307759D01*
X559851Y307426D01*
X558851D01*
X561183Y309092D02*
Y308759D01*
X560850D01*
X561517D01*
X561183D01*
Y307759D01*
X561517Y307426D01*
X563516D02*
X562850D01*
X562516Y307759D01*
Y308425D01*
X562850Y308759D01*
X563516D01*
X563849Y308425D01*
Y308092D01*
X562516D01*
X564516Y308759D02*
Y307426D01*
Y308092D01*
X564849Y308425D01*
X565182Y308759D01*
X565515D01*
X568514Y309425D02*
Y307426D01*
X569514D01*
X569847Y307759D01*
Y308092D01*
Y308425D01*
X569514Y308759D01*
X568514D01*
X570847Y307426D02*
X571513D01*
X571847Y307759D01*
Y308425D01*
X571513Y308759D01*
X570847D01*
X570514Y308425D01*
Y307759D01*
X570847Y307426D01*
X572846Y308759D02*
X573513D01*
X573846Y308425D01*
Y307426D01*
X572846D01*
X572513Y307759D01*
X572846Y308092D01*
X573846D01*
X574512Y308759D02*
Y307426D01*
Y308092D01*
X574846Y308425D01*
X575179Y308759D01*
X575512D01*
X577845Y309425D02*
Y307426D01*
X576845D01*
X576512Y307759D01*
Y308425D01*
X576845Y308759D01*
X577845D01*
X578844Y307093D02*
X579178Y307426D01*
Y307759D01*
X578844D01*
Y307426D01*
X579178D01*
X578844Y307093D01*
X578511Y306759D01*
X582510Y307426D02*
Y309425D01*
X583509D01*
X583843Y309092D01*
Y308425D01*
X583509Y308092D01*
X582510D01*
X583176D02*
X583843Y307426D01*
X585509D02*
X584842D01*
X584509Y307759D01*
Y308425D01*
X584842Y308759D01*
X585509D01*
X585842Y308425D01*
Y308092D01*
X584509D01*
X586508Y308759D02*
X587175Y307426D01*
X587841Y308759D01*
X590507Y309092D02*
X590840Y309425D01*
X591507D01*
X591840Y309092D01*
Y307759D01*
X591507Y307426D01*
X590840D01*
X590507Y307759D01*
Y309092D01*
X540890Y299259D02*
X541556D01*
X541889Y298925D01*
Y297926D01*
X540890D01*
X540557Y298259D01*
X540890Y298592D01*
X541889D01*
X543889Y299925D02*
Y297926D01*
X542889D01*
X542556Y298259D01*
Y298925D01*
X542889Y299259D01*
X543889D01*
X544889D02*
X545555D01*
X545888Y298925D01*
Y297926D01*
X544889D01*
X544555Y298259D01*
X544889Y298592D01*
X545888D01*
X546555Y297926D02*
Y299259D01*
X546888D01*
X547221Y298925D01*
Y297926D01*
Y298925D01*
X547554Y299259D01*
X547888Y298925D01*
Y297926D01*
X548554Y297259D02*
X548887D01*
X549221Y297593D01*
Y299259D01*
X550887Y297926D02*
X551553D01*
X551886Y298259D01*
Y298925D01*
X551553Y299259D01*
X550887D01*
X550553Y298925D01*
Y298259D01*
X550887Y297926D01*
X552553Y299925D02*
Y297926D01*
Y298925D01*
X552886Y299259D01*
X553552D01*
X553886Y298925D01*
Y297926D01*
X554552D02*
Y299259D01*
X555552D01*
X555885Y298925D01*
Y297926D01*
X557218Y297259D02*
X557551D01*
X557884Y297593D01*
Y299259D01*
X556885D01*
X556551Y298925D01*
Y298259D01*
X556885Y297926D01*
X557884D01*
X558551D02*
X559217D01*
X558884D01*
Y299259D01*
X558551D01*
X560217Y297926D02*
X560883D01*
X560550D01*
Y299925D01*
X560217D01*
X561883D02*
Y297926D01*
X562883D01*
X563216Y298259D01*
Y298592D01*
Y298925D01*
X562883Y299259D01*
X561883D01*
X564882Y297926D02*
X564216D01*
X563882Y298259D01*
Y298925D01*
X564216Y299259D01*
X564882D01*
X565215Y298925D01*
Y298592D01*
X563882D01*
X565882Y299259D02*
Y297926D01*
Y298592D01*
X566215Y298925D01*
X566548Y299259D01*
X566881D01*
X568214Y299592D02*
Y299259D01*
X567881D01*
X568547D01*
X568214D01*
Y298259D01*
X568547Y297926D01*
X570547Y298592D02*
Y298925D01*
X570214D01*
Y298592D01*
X570547D01*
X570880Y298925D01*
Y299592D01*
X570547Y299925D01*
X569880D01*
X569547Y299592D01*
Y298259D01*
X569880Y297926D01*
X570880D01*
X572213Y297259D02*
X572546D01*
X572880Y297593D01*
Y299259D01*
X571880D01*
X571547Y298925D01*
Y298259D01*
X571880Y297926D01*
X572880D01*
X573546D02*
Y299259D01*
X573879D01*
X574212Y298925D01*
Y297926D01*
Y298925D01*
X574546Y299259D01*
X574879Y298925D01*
Y297926D01*
X575878Y299259D02*
X576545D01*
X576878Y298925D01*
Y297926D01*
X575878D01*
X575545Y298259D01*
X575878Y298592D01*
X576878D01*
X577545Y297926D02*
X578211D01*
X577878D01*
Y299259D01*
X577545D01*
X579211Y297926D02*
X579877D01*
X579544D01*
Y299925D01*
X579211D01*
X580877Y297926D02*
Y298259D01*
X581210D01*
Y297926D01*
X580877D01*
X583876Y299259D02*
X582876D01*
X582543Y298925D01*
Y298259D01*
X582876Y297926D01*
X583876D01*
X584876D02*
X585542D01*
X585875Y298259D01*
Y298925D01*
X585542Y299259D01*
X584876D01*
X584542Y298925D01*
Y298259D01*
X584876Y297926D01*
X586542D02*
Y299259D01*
X586875D01*
X587208Y298925D01*
Y297926D01*
Y298925D01*
X587541Y299259D01*
X587875Y298925D01*
Y297926D01*
X540657Y302676D02*
Y304009D01*
X541323Y304675D01*
X541990Y304009D01*
Y302676D01*
Y303676D01*
X540657D01*
X542656Y302676D02*
Y304009D01*
X542989D01*
X543322Y303676D01*
Y302676D01*
Y303676D01*
X543656Y304009D01*
X543989Y303676D01*
Y302676D01*
X544655Y304009D02*
Y303009D01*
X544989Y302676D01*
X545988D01*
Y302343D01*
X545655Y302009D01*
X545322D01*
X545988Y302676D02*
Y304009D01*
X548654Y304675D02*
Y302676D01*
X549654D01*
X549987Y303009D01*
Y303342D01*
X549654Y303676D01*
X548654D01*
X549654D01*
X549987Y304009D01*
Y304342D01*
X549654Y304675D01*
X548654D01*
X551653Y302676D02*
X550987D01*
X550653Y303009D01*
Y303676D01*
X550987Y304009D01*
X551653D01*
X551986Y303676D01*
Y303342D01*
X550653D01*
X552653Y302676D02*
Y304009D01*
X553652D01*
X553986Y303676D01*
Y302676D01*
X555985Y304675D02*
Y302676D01*
X554985D01*
X554652Y303009D01*
Y303676D01*
X554985Y304009D01*
X555985D01*
X557651Y302676D02*
X556985D01*
X556651Y303009D01*
Y303676D01*
X556985Y304009D01*
X557651D01*
X557984Y303676D01*
Y303342D01*
X556651D01*
X558651Y304009D02*
Y302676D01*
Y303342D01*
X558984Y303676D01*
X559317Y304009D01*
X559651D01*
X569980Y304342D02*
X569647Y304675D01*
X568981D01*
X568647Y304342D01*
Y304009D01*
X568981Y303676D01*
X569647D01*
X569980Y303342D01*
Y303009D01*
X569647Y302676D01*
X568981D01*
X568647Y303009D01*
X571647Y302676D02*
X570980D01*
X570647Y303009D01*
Y303676D01*
X570980Y304009D01*
X571647D01*
X571980Y303676D01*
Y303342D01*
X570647D01*
X572646Y302009D02*
Y304009D01*
X573646D01*
X573979Y303676D01*
Y303009D01*
X573646Y302676D01*
X572646D01*
X574979Y304342D02*
Y304009D01*
X574646D01*
X575312D01*
X574979D01*
Y303009D01*
X575312Y302676D01*
X579644D02*
X578311D01*
X579644Y304009D01*
Y304342D01*
X579311Y304675D01*
X578644D01*
X578311Y304342D01*
X580310D02*
X580644Y304675D01*
X581310D01*
X581643Y304342D01*
Y303009D01*
X581310Y302676D01*
X580644D01*
X580310Y303009D01*
Y304342D01*
X582310Y302676D02*
X582976D01*
X582643D01*
Y304675D01*
X582310Y304342D01*
X585309Y304675D02*
X583976D01*
Y303676D01*
X584642Y304009D01*
X584976D01*
X585309Y303676D01*
Y303009D01*
X584976Y302676D01*
X584309D01*
X583976Y303009D01*
D27*
X498361Y272914D02*
X503361D01*
X497061Y272814D02*
X504661D01*
X496261Y272714D02*
X505661D01*
X495561Y272614D02*
X506261D01*
X495061Y272514D02*
X506961D01*
X494561Y272414D02*
X507461D01*
X494161Y272314D02*
X507961D01*
X493861Y272214D02*
X508361D01*
X493561Y272114D02*
X508761D01*
X493161Y272014D02*
X509061D01*
X492861Y271914D02*
X509461D01*
X492661Y271814D02*
X500361D01*
X501061D02*
X501261D01*
X501961D02*
X509661D01*
X492361Y271714D02*
X500061D01*
X501161D02*
X501261D01*
X502261D02*
X509961D01*
X492161Y271614D02*
X498761D01*
X498861D02*
X498961D01*
X499161D02*
X499761D01*
X501161D02*
X501261D01*
X502561D02*
X503161D01*
X503361D02*
X503461D01*
X503661D02*
X510261D01*
X491861Y271514D02*
X498661D01*
X498861D02*
X498961D01*
X501161D02*
X501261D01*
X503361D02*
X503461D01*
X503761D02*
X510461D01*
X491661Y271414D02*
X498461D01*
X498861D02*
X498961D01*
X501161D02*
X501261D01*
X503361D02*
X503461D01*
X503861D02*
X510661D01*
X491461Y271314D02*
X498361D01*
X498861D02*
X498961D01*
X501161D02*
X501261D01*
X503361D02*
X503461D01*
X503861D02*
X510861D01*
X491261Y271214D02*
X498361D01*
X498861D02*
X498961D01*
X501161D02*
X501261D01*
X503361D02*
X503461D01*
X503861D02*
X511061D01*
X491261Y271114D02*
X498361D01*
X498861D02*
X498961D01*
X501161D02*
X501261D01*
X503361D02*
X503461D01*
X503861D02*
X511061D01*
X491261Y271014D02*
X498361D01*
X498861D02*
X498961D01*
X499861D02*
X499961D01*
X501161D02*
X501261D01*
X501761D02*
X501861D01*
X503361D02*
X503461D01*
X503861D02*
X511061D01*
X491261Y270914D02*
X498361D01*
X498861D02*
X498961D01*
X499861D02*
X499961D01*
X501161D02*
X501261D01*
X501461D02*
X501561D01*
X502061D02*
X502161D01*
X502661D02*
X502761D01*
X502961D02*
X503061D01*
X503361D02*
X503461D01*
X503861D02*
X511061D01*
X491261Y270814D02*
X498361D01*
X498861D02*
X498961D01*
X499861D02*
X499961D01*
X501161D02*
X501261D01*
X501461D02*
X501561D01*
X502961D02*
X503061D01*
X503361D02*
X503461D01*
X503861D02*
X511061D01*
X491261Y270714D02*
X498361D01*
X498861D02*
X498961D01*
X499861D02*
X499961D01*
X500161D02*
X500261D01*
X501161D02*
X501261D01*
X501461D02*
X501561D01*
X502961D02*
X503061D01*
X503361D02*
X503461D01*
X503861D02*
X511061D01*
X491261Y270614D02*
X494461D01*
X494661D02*
X498361D01*
X498861D02*
X498961D01*
X501161D02*
X501261D01*
X502061D02*
X502161D01*
X502961D02*
X503061D01*
X503361D02*
X503461D01*
X503861D02*
X507761D01*
X508061D02*
X511061D01*
X491261Y270514D02*
X494361D01*
X494761D02*
X498361D01*
X498861D02*
X498961D01*
X501161D02*
X501261D01*
X503361D02*
X503461D01*
X503861D02*
X507761D01*
X508061D02*
X511161D01*
X491261Y270414D02*
X494361D01*
X494761D02*
X498361D01*
X498861D02*
X498961D01*
X501161D02*
X501261D01*
X503361D02*
X503461D01*
X503861D02*
X507661D01*
X508161D02*
X511161D01*
X491261Y270314D02*
X494361D01*
X494861D02*
X498361D01*
X498861D02*
X498961D01*
X501161D02*
X501261D01*
X503361D02*
X503461D01*
X503861D02*
X507661D01*
X508161D02*
X511161D01*
X491261Y270214D02*
X494261D01*
X494861D02*
X498361D01*
X498861D02*
X498961D01*
X501161D02*
X501261D01*
X503361D02*
X503461D01*
X503861D02*
X507661D01*
X508161D02*
X511161D01*
X491261Y270114D02*
X494261D01*
X494861D02*
X498361D01*
X498861D02*
X498961D01*
X501161D02*
X501261D01*
X503361D02*
X503461D01*
X503861D02*
X507661D01*
X508161D02*
X511161D01*
X491261Y270014D02*
X494261D01*
X494861D02*
X498361D01*
X498861D02*
X498961D01*
X500361D02*
X500461D01*
X500661D02*
X500761D01*
X501161D02*
X501261D01*
X503361D02*
X503461D01*
X503861D02*
X507661D01*
X508161D02*
X511161D01*
X491261Y269914D02*
X494261D01*
X494861D02*
X498361D01*
X498861D02*
X498961D01*
X499161D02*
X499261D01*
X499361D02*
X499461D01*
X500061D02*
X500161D01*
X501161D02*
X501261D01*
X503361D02*
X503461D01*
X503861D02*
X507661D01*
X508161D02*
X511161D01*
X491261Y269814D02*
X493961D01*
X495161D02*
X498361D01*
X498861D02*
X498961D01*
X499161D02*
X499261D01*
X501161D02*
X501261D01*
X502461D02*
X502561D01*
X503361D02*
X503461D01*
X503861D02*
X507361D01*
X508561D02*
X511161D01*
X491261Y269714D02*
X492161D01*
X492361D02*
X492861D01*
X493061D02*
X494061D01*
X495061D02*
X498361D01*
X498861D02*
X498961D01*
X499161D02*
X499261D01*
X501161D02*
X501261D01*
X502461D02*
X502561D01*
X503361D02*
X503461D01*
X503861D02*
X505461D01*
X505661D02*
X506261D01*
X506361D02*
X507461D01*
X508461D02*
X511161D01*
X491261Y269614D02*
X492161D01*
X492461D02*
X492761D01*
X493061D02*
X494161D01*
X494961D02*
X496061D01*
X496361D02*
X496661D01*
X496961D02*
X498361D01*
X498861D02*
X498961D01*
X499161D02*
X499261D01*
X500061D02*
X500161D01*
X501161D02*
X501261D01*
X502461D02*
X502561D01*
X503361D02*
X503461D01*
X503861D02*
X505461D01*
X505861D02*
X506061D01*
X506461D02*
X507561D01*
X508361D02*
X509361D01*
X509761D02*
X510061D01*
X510361D02*
X511161D01*
X491261Y269514D02*
X492161D01*
X492961D02*
X494261D01*
X494961D02*
X496161D01*
X496461D02*
X496561D01*
X496961D02*
X498361D01*
X498861D02*
X498961D01*
X499161D02*
X499261D01*
X499861D02*
X499961D01*
X501161D02*
X501261D01*
X502461D02*
X502561D01*
X503361D02*
X503461D01*
X503861D02*
X505561D01*
X506361D02*
X507561D01*
X508261D02*
X509461D01*
X510261D02*
X511161D01*
X491261Y269414D02*
X492261D01*
X492961D02*
X494261D01*
X494861D02*
X496261D01*
X496861D02*
X498361D01*
X498861D02*
X498961D01*
X501161D02*
X501261D01*
X503361D02*
X503461D01*
X503861D02*
X505561D01*
X506261D02*
X507661D01*
X508261D02*
X509561D01*
X510261D02*
X511161D01*
X491261Y269314D02*
X492261D01*
X492861D02*
X494261D01*
X494861D02*
X496361D01*
X496861D02*
X498361D01*
X498861D02*
X498961D01*
X501161D02*
X501261D01*
X503361D02*
X503461D01*
X503861D02*
X505661D01*
X506161D02*
X507661D01*
X508261D02*
X509661D01*
X510161D02*
X511161D01*
X491261Y269214D02*
X492361D01*
X492861D02*
X494261D01*
X494861D02*
X496361D01*
X496861D02*
X498361D01*
X498861D02*
X498961D01*
X501161D02*
X501261D01*
X503361D02*
X503461D01*
X503861D02*
X505661D01*
X506161D02*
X507561D01*
X508261D02*
X509661D01*
X510161D02*
X511161D01*
X491261Y269114D02*
X492361D01*
X492861D02*
X494161D01*
X494961D02*
X496361D01*
X496761D02*
X498361D01*
X498861D02*
X498961D01*
X501161D02*
X501261D01*
X503361D02*
X503461D01*
X503861D02*
X505761D01*
X506161D02*
X507561D01*
X508261D02*
X509661D01*
X510161D02*
X511161D01*
X491261Y269014D02*
X492461D01*
X492861D02*
X493961D01*
X495061D02*
X496361D01*
X496761D02*
X498361D01*
X498861D02*
X498961D01*
X501161D02*
X501261D01*
X503361D02*
X503461D01*
X503861D02*
X505761D01*
X506161D02*
X507361D01*
X507861D02*
X507961D01*
X508461D02*
X509661D01*
X510061D02*
X511161D01*
X491261Y268914D02*
X492461D01*
X492861D02*
X493561D01*
X494461D02*
X494661D01*
X495561D02*
X496261D01*
X496661D02*
X498361D01*
X498861D02*
X498961D01*
X501161D02*
X501261D01*
X503361D02*
X503461D01*
X503861D02*
X505861D01*
X506261D02*
X506861D01*
X507861D02*
X507961D01*
X508961D02*
X509661D01*
X510061D02*
X511161D01*
X491261Y268814D02*
X492561D01*
X492961D02*
X493461D01*
X494461D02*
X494661D01*
X495661D02*
X496161D01*
X496661D02*
X498361D01*
X498861D02*
X498961D01*
X499661D02*
X499761D01*
X501161D02*
X501261D01*
X501761D02*
X501861D01*
X501961D02*
X502061D01*
X503361D02*
X503461D01*
X503861D02*
X505861D01*
X506361D02*
X506861D01*
X507761D02*
X508061D01*
X509061D02*
X509461D01*
X509961D02*
X511161D01*
X491261Y268714D02*
X492561D01*
X494361D02*
X494761D01*
X496561D02*
X498361D01*
X498861D02*
X498961D01*
X499661D02*
X499761D01*
X501161D02*
X501261D01*
X502061D02*
X502161D01*
X502661D02*
X502761D01*
X503361D02*
X503461D01*
X503861D02*
X505861D01*
X507761D02*
X508061D01*
X509961D02*
X511261D01*
X491261Y268614D02*
X492561D01*
X493661D02*
X493761D01*
X494361D02*
X494761D01*
X495361D02*
X495561D01*
X496561D02*
X498361D01*
X498861D02*
X498961D01*
X499661D02*
X499761D01*
X501161D02*
X501261D01*
X502061D02*
X502161D01*
X502361D02*
X502461D01*
X503361D02*
X503461D01*
X503861D02*
X505961D01*
X506961D02*
X507161D01*
X507661D02*
X508161D01*
X508761D02*
X508861D01*
X509861D02*
X511261D01*
X491161Y268514D02*
X492661D01*
X493561D02*
X493761D01*
X495361D02*
X495661D01*
X496461D02*
X498361D01*
X498861D02*
X498961D01*
X499661D02*
X499761D01*
X501161D02*
X501261D01*
X502061D02*
X502161D01*
X502761D02*
X502861D01*
X503361D02*
X503461D01*
X503861D02*
X505961D01*
X506861D02*
X507161D01*
X508761D02*
X508961D01*
X509861D02*
X511261D01*
X491161Y268414D02*
X492661D01*
X496461D02*
X498361D01*
X498861D02*
X498961D01*
X499661D02*
X499761D01*
X499961D02*
X500061D01*
X500561D02*
X500661D01*
X501161D02*
X501261D01*
X502361D02*
X502461D01*
X503361D02*
X503461D01*
X503861D02*
X506061D01*
X509761D02*
X511261D01*
X491161Y268314D02*
X492761D01*
X494161D02*
X494861D01*
X496361D02*
X498361D01*
X498861D02*
X498961D01*
X501161D02*
X501261D01*
X503361D02*
X503461D01*
X503861D02*
X506061D01*
X507461D02*
X508261D01*
X509761D02*
X511261D01*
X491161Y268214D02*
X492761D01*
X493161D02*
X493861D01*
X495361D02*
X495761D01*
X496361D02*
X498361D01*
X498861D02*
X498961D01*
X501161D02*
X501261D01*
X503361D02*
X503461D01*
X503861D02*
X506161D01*
X506561D02*
X507161D01*
X508661D02*
X509161D01*
X509661D02*
X511261D01*
X491161Y268114D02*
X493261D01*
X495961D02*
X498361D01*
X498861D02*
X498961D01*
X501161D02*
X501261D01*
X503361D02*
X503461D01*
X503861D02*
X506561D01*
X509261D02*
X511261D01*
X491161Y268014D02*
X492961D01*
X494561D02*
X494661D01*
X496161D02*
X498361D01*
X498861D02*
X498961D01*
X501161D02*
X501261D01*
X503361D02*
X503461D01*
X503861D02*
X506361D01*
X507861D02*
X507961D01*
X509561D02*
X511261D01*
X491161Y267914D02*
X492961D01*
X493861D02*
X494061D01*
X494461D02*
X494761D01*
X495061D02*
X495361D01*
X496161D02*
X498361D01*
X498861D02*
X498961D01*
X501161D02*
X501261D01*
X503361D02*
X503461D01*
X503861D02*
X506361D01*
X507161D02*
X507461D01*
X507761D02*
X508061D01*
X508461D02*
X508661D01*
X509561D02*
X511261D01*
X491161Y267814D02*
X493061D01*
X493261D02*
X493461D01*
X493861D02*
X494061D01*
X494461D02*
X494661D01*
X495061D02*
X495361D01*
X495661D02*
X495861D01*
X496161D02*
X498361D01*
X498861D02*
X498961D01*
X501161D02*
X501261D01*
X503361D02*
X503461D01*
X503861D02*
X506361D01*
X506661D02*
X506861D01*
X507161D02*
X507461D01*
X507861D02*
X508061D01*
X508461D02*
X508661D01*
X509061D02*
X509261D01*
X509561D02*
X511261D01*
X491161Y267714D02*
X493061D01*
X493261D02*
X493561D01*
X495661D02*
X495961D01*
X496161D02*
X498361D01*
X498861D02*
X498961D01*
X501161D02*
X501261D01*
X503361D02*
X503461D01*
X503861D02*
X506461D01*
X506561D02*
X506861D01*
X509061D02*
X509261D01*
X509461D02*
X511261D01*
X491161Y267614D02*
X493161D01*
X493361D02*
X493461D01*
X495761D02*
X495861D01*
X496061D02*
X498361D01*
X498861D02*
X498961D01*
X500161D02*
X500361D01*
X501061D02*
X501361D01*
X502061D02*
X502161D01*
X503361D02*
X503461D01*
X503861D02*
X506461D01*
X506661D02*
X506761D01*
X509061D02*
X509261D01*
X509461D02*
X511261D01*
X491161Y267514D02*
X493161D01*
X494361D02*
X494661D01*
X496061D02*
X498361D01*
X498861D02*
X499061D01*
X501161D02*
X501261D01*
X503261D02*
X503561D01*
X503861D02*
X506561D01*
X507761D02*
X508061D01*
X509361D02*
X511261D01*
X491161Y267414D02*
X493261D01*
X493561D02*
X493761D01*
X495361D02*
X495561D01*
X496061D02*
X498361D01*
X498761D02*
X498861D01*
X500961D02*
X501061D01*
X503561D02*
X503661D01*
X503861D02*
X506561D01*
X506961D02*
X507161D01*
X508761D02*
X508861D01*
X509361D02*
X511261D01*
X491161Y267314D02*
X493361D01*
X495961D02*
X498361D01*
X498561D02*
X498661D01*
X500861D02*
X500961D01*
X501361D02*
X501461D01*
X503661D02*
X503761D01*
X503861D02*
X506761D01*
X509161D02*
X509261D01*
X509361D02*
X511261D01*
X491161Y267214D02*
X493261D01*
X495961D02*
X498561D01*
X500861D02*
X500961D01*
X501361D02*
X501461D01*
X503761D02*
X506661D01*
X509261D02*
X511261D01*
X491161Y267114D02*
X493461D01*
X495761D02*
X498561D01*
X500761D02*
X501061D01*
X501361D02*
X501561D01*
X503761D02*
X506861D01*
X509061D02*
X511261D01*
X491161Y267014D02*
X511261D01*
X491161Y266914D02*
X511261D01*
X491161Y266814D02*
X511261D01*
X491161Y266714D02*
X511261D01*
X491161Y266614D02*
X511261D01*
X491161Y266514D02*
X511261D01*
X491161Y266414D02*
X511261D01*
X491161Y266314D02*
X511261D01*
X491161Y266214D02*
X511261D01*
X491161Y266114D02*
X494561D01*
X494761D02*
X501061D01*
X501161D02*
X507561D01*
X507761D02*
X511261D01*
X491161Y266014D02*
X494561D01*
X494861D02*
X501061D01*
X501261D02*
X507461D01*
X507761D02*
X511261D01*
X491161Y265914D02*
X494461D01*
X494961D02*
X500961D01*
X501361D02*
X507361D01*
X507861D02*
X511261D01*
X491161Y265814D02*
X494361D01*
X495061D02*
X500861D01*
X501461D02*
X507261D01*
X507961D02*
X511261D01*
X491161Y265714D02*
X494261D01*
X495161D02*
X500761D01*
X501561D02*
X507161D01*
X508061D02*
X511261D01*
X491161Y265614D02*
X494161D01*
X495261D02*
X500661D01*
X501661D02*
X507061D01*
X508161D02*
X511261D01*
X491161Y265514D02*
X494061D01*
X495361D02*
X500561D01*
X501761D02*
X506961D01*
X508261D02*
X511261D01*
X491161Y265414D02*
X493961D01*
X495461D02*
X500461D01*
X501861D02*
X506861D01*
X508361D02*
X511261D01*
X491161Y265314D02*
X493861D01*
X495561D02*
X500361D01*
X501961D02*
X506761D01*
X508461D02*
X511261D01*
X491161Y265214D02*
X493761D01*
X495661D02*
X500261D01*
X502061D02*
X506661D01*
X508561D02*
X511161D01*
X491161Y265114D02*
X493661D01*
X495761D02*
X500161D01*
X502061D02*
X506561D01*
X508661D02*
X511161D01*
X491161Y265014D02*
X493561D01*
X495861D02*
X500061D01*
X502161D02*
X506461D01*
X508761D02*
X511161D01*
X491161Y264914D02*
X493461D01*
X495961D02*
X499961D01*
X502261D02*
X506361D01*
X508861D02*
X511161D01*
X491161Y264814D02*
X493461D01*
X496061D02*
X499861D01*
X502361D02*
X506261D01*
X508861D02*
X511161D01*
X491161Y264714D02*
X493361D01*
X496161D02*
X499861D01*
X502461D02*
X506161D01*
X508961D02*
X511161D01*
X491161Y264614D02*
X493261D01*
X496261D02*
X499761D01*
X502561D02*
X506061D01*
X509061D02*
X511161D01*
X491161Y264514D02*
X493161D01*
X496361D02*
X499661D01*
X502661D02*
X505961D01*
X509161D02*
X511161D01*
X491161Y264414D02*
X493061D01*
X496461D02*
X499561D01*
X502761D02*
X505861D01*
X509261D02*
X511161D01*
X491161Y264314D02*
X492961D01*
X496561D02*
X499461D01*
X502861D02*
X505761D01*
X509361D02*
X511161D01*
X491161Y264214D02*
X492861D01*
X496661D02*
X499361D01*
X502961D02*
X505661D01*
X509461D02*
X511161D01*
X491161Y264114D02*
X492761D01*
X496761D02*
X499261D01*
X503061D02*
X505561D01*
X509561D02*
X511161D01*
X491161Y264014D02*
X492661D01*
X496861D02*
X499161D01*
X503161D02*
X505461D01*
X509661D02*
X511061D01*
X491261Y263914D02*
X492561D01*
X496961D02*
X499061D01*
X503161D02*
X505361D01*
X509761D02*
X511061D01*
X491261Y263814D02*
X492461D01*
X497061D02*
X498961D01*
X503261D02*
X505261D01*
X509861D02*
X511061D01*
X491261Y263714D02*
X492361D01*
X497161D02*
X498861D01*
X503361D02*
X505161D01*
X509861D02*
X511061D01*
X491261Y263614D02*
X492261D01*
X497261D02*
X498761D01*
X503461D02*
X505061D01*
X509961D02*
X511061D01*
X491261Y263514D02*
X492261D01*
X497361D02*
X498661D01*
X503561D02*
X504961D01*
X510061D02*
X511061D01*
X491261Y263414D02*
X492161D01*
X497461D02*
X498561D01*
X503661D02*
X504961D01*
X510161D02*
X511061D01*
X491261Y263314D02*
X492061D01*
X497561D02*
X498561D01*
X503761D02*
X504861D01*
X510261D02*
X511061D01*
X491261Y263214D02*
X491961D01*
X497661D02*
X498461D01*
X503861D02*
X504761D01*
X510361D02*
X510961D01*
X491261Y263114D02*
X491861D01*
X497761D02*
X498361D01*
X503961D02*
X504661D01*
X510461D02*
X510961D01*
X491361Y263014D02*
X491761D01*
X497861D02*
X498261D01*
X504061D02*
X504561D01*
X510561D02*
X510961D01*
X491361Y262914D02*
X491661D01*
X497961D02*
X498161D01*
X504161D02*
X504461D01*
X510661D02*
X510961D01*
X491361Y262814D02*
X491561D01*
X504261D02*
X504361D01*
X510761D02*
X510961D01*
X491361Y262714D02*
X491461D01*
X510761D02*
X510961D01*
X491361Y262614D02*
X491461D01*
X510761D02*
X510961D01*
X491361Y262514D02*
X491561D01*
X510661D02*
X510861D01*
X491461Y262414D02*
X491561D01*
X510661D02*
X510861D01*
X491461Y262314D02*
X491561D01*
X510661D02*
X510861D01*
X491461Y262214D02*
X491561D01*
X510661D02*
X510861D01*
X491461Y262114D02*
X491661D01*
X510661D02*
X510861D01*
X491461Y262014D02*
X491661D01*
X510661D02*
X510861D01*
X491561Y261914D02*
X491661D01*
X510561D02*
X510761D01*
X491561Y261814D02*
X491661D01*
X510561D02*
X510761D01*
X491561Y261714D02*
X491761D01*
X510561D02*
X510761D01*
X491561Y261614D02*
X491761D01*
X494861D02*
X495461D01*
X510561D02*
X510761D01*
X491661Y261514D02*
X491761D01*
X494661D02*
X495761D01*
X510561D02*
X510761D01*
X491661Y261414D02*
X491761D01*
X494561D02*
X494961D01*
X495061D02*
X495861D01*
X502261D02*
X503161D01*
X510461D02*
X510661D01*
X491661Y261314D02*
X491861D01*
X494461D02*
X494861D01*
X495161D02*
X495961D01*
X502161D02*
X503361D01*
X510461D02*
X510661D01*
X491661Y261214D02*
X491861D01*
X494261D02*
X494861D01*
X495161D02*
X496061D01*
X502061D02*
X502461D01*
X502661D02*
X503461D01*
X510461D02*
X510661D01*
X491761Y261114D02*
X491861D01*
X494161D02*
X496061D01*
X501861D02*
X502461D01*
X502761D02*
X503561D01*
X510461D02*
X510661D01*
X491761Y261014D02*
X491861D01*
X494361D02*
X496061D01*
X501761D02*
X502461D01*
X502661D02*
X503661D01*
X510461D02*
X510661D01*
X491761Y260914D02*
X491961D01*
X494461D02*
X496061D01*
X501861D02*
X503661D01*
X510361D02*
X510561D01*
X491861Y260814D02*
X491961D01*
X494361D02*
X496061D01*
X502061D02*
X503661D01*
X510361D02*
X510561D01*
X491861Y260714D02*
X491961D01*
X494361D02*
X496161D01*
X498561D02*
X498761D01*
X502061D02*
X503661D01*
X510361D02*
X510561D01*
X491861Y260614D02*
X492061D01*
X494261D02*
X496061D01*
X498261D02*
X498661D01*
X501961D02*
X503761D01*
X510361D02*
X510561D01*
X491861Y260514D02*
X492061D01*
X494461D02*
X496061D01*
X498061D02*
X498661D01*
X501861D02*
X503661D01*
X506061D02*
X506361D01*
X510261D02*
X510461D01*
X491961Y260414D02*
X492061D01*
X494461D02*
X496161D01*
X497861D02*
X498561D01*
X501961D02*
X503661D01*
X505761D02*
X506261D01*
X510261D02*
X510461D01*
X491961Y260314D02*
X492061D01*
X494461D02*
X496161D01*
X497561D02*
X498561D01*
X502061D02*
X503661D01*
X505561D02*
X506161D01*
X510261D02*
X510461D01*
X491961Y260214D02*
X492161D01*
X494461D02*
X496361D01*
X497361D02*
X498461D01*
X502061D02*
X503761D01*
X505361D02*
X506161D01*
X510261D02*
X510461D01*
X492061Y260114D02*
X492161D01*
X494361D02*
X496561D01*
X496861D02*
X498561D01*
X498861D02*
X498961D01*
X502061D02*
X503861D01*
X505061D02*
X506061D01*
X510161D02*
X510361D01*
X492061Y260014D02*
X492161D01*
X494361D02*
X498961D01*
X501961D02*
X503961D01*
X504761D02*
X506061D01*
X510161D02*
X510361D01*
X492061Y259914D02*
X492261D01*
X494261D02*
X498861D01*
X501961D02*
X506561D01*
X510161D02*
X510361D01*
X492161Y259814D02*
X492261D01*
X494261D02*
X498761D01*
X501961D02*
X506461D01*
X510061D02*
X510261D01*
X492161Y259714D02*
X492261D01*
X494261D02*
X498761D01*
X501861D02*
X506461D01*
X510061D02*
X510261D01*
X492161Y259614D02*
X492361D01*
X494261D02*
X498661D01*
X501861D02*
X506361D01*
X510061D02*
X510261D01*
X492261Y259514D02*
X492361D01*
X494261D02*
X498561D01*
X501861D02*
X506261D01*
X510061D02*
X510161D01*
X492261Y259414D02*
X492361D01*
X494261D02*
X498461D01*
X501861D02*
X506161D01*
X509961D02*
X510161D01*
X492261Y259314D02*
X492461D01*
X494261D02*
X498361D01*
X501861D02*
X506061D01*
X509961D02*
X510161D01*
X492361Y259214D02*
X492461D01*
X494361D02*
X498261D01*
X501861D02*
X505961D01*
X509961D02*
X510161D01*
X492361Y259114D02*
X492461D01*
X494361D02*
X498261D01*
X501961D02*
X505861D01*
X509861D02*
X510061D01*
X492361Y259014D02*
X492561D01*
X494461D02*
X498361D01*
X501961D02*
X505861D01*
X509861D02*
X510061D01*
X492461Y258914D02*
X492561D01*
X494461D02*
X498361D01*
X501961D02*
X505861D01*
X509861D02*
X510061D01*
X492461Y258814D02*
X492661D01*
X494561D02*
X498461D01*
X502061D02*
X505961D01*
X509761D02*
X509961D01*
X492461Y258714D02*
X492661D01*
X494661D02*
X498661D01*
X500161D02*
X500361D01*
X502161D02*
X506061D01*
X509761D02*
X509961D01*
X492561Y258614D02*
X492661D01*
X494761D02*
X500261D01*
X502161D02*
X506161D01*
X509761D02*
X509961D01*
X492561Y258514D02*
X492761D01*
X494861D02*
X500061D01*
X502261D02*
X506361D01*
X507461D02*
X507861D01*
X509661D02*
X509861D01*
X492661Y258414D02*
X492761D01*
X495061D02*
X499861D01*
X502461D02*
X507761D01*
X509661D02*
X509861D01*
X492661Y258314D02*
X492761D01*
X495161D02*
X499761D01*
X502561D02*
X507561D01*
X509661D02*
X509761D01*
X492661Y258214D02*
X492861D01*
X495261D02*
X499761D01*
X502661D02*
X507461D01*
X509561D02*
X509761D01*
X492761Y258114D02*
X492861D01*
X495361D02*
X499861D01*
X502861D02*
X507361D01*
X509561D02*
X509761D01*
X492761Y258014D02*
X492961D01*
X495461D02*
X499961D01*
X502961D02*
X507361D01*
X509461D02*
X509661D01*
X492861Y257914D02*
X492961D01*
X495461D02*
X497761D01*
X498361D02*
X500061D01*
X503061D02*
X507461D01*
X509461D02*
X509661D01*
X492861Y257814D02*
X493061D01*
X495361D02*
X497161D01*
X498961D02*
X500061D01*
X503061D02*
X507561D01*
X509461D02*
X509561D01*
X492861Y257714D02*
X493061D01*
X495161D02*
X496961D01*
X499261D02*
X500161D01*
X503061D02*
X505061D01*
X506261D02*
X507661D01*
X509361D02*
X509561D01*
X492961Y257614D02*
X493061D01*
X495361D02*
X496961D01*
X499561D02*
X500261D01*
X502761D02*
X504561D01*
X506661D02*
X507761D01*
X509361D02*
X509561D01*
X492961Y257514D02*
X493161D01*
X495561D02*
X497061D01*
X499761D02*
X500361D01*
X502861D02*
X504561D01*
X506961D02*
X507761D01*
X509261D02*
X509461D01*
X493061Y257414D02*
X493161D01*
X495661D02*
X497261D01*
X500061D02*
X500361D01*
X502961D02*
X504661D01*
X507261D02*
X507861D01*
X509261D02*
X509461D01*
X493061Y257314D02*
X493261D01*
X495661D02*
X497361D01*
X500261D02*
X500461D01*
X503161D02*
X504761D01*
X507461D02*
X507961D01*
X509161D02*
X509361D01*
X493161Y257214D02*
X493261D01*
X495561D02*
X496261D01*
X496361D02*
X497361D01*
X503261D02*
X504861D01*
X507761D02*
X508061D01*
X509161D02*
X509361D01*
X493161Y257114D02*
X493361D01*
X495461D02*
X496061D01*
X496661D02*
X497261D01*
X503161D02*
X504961D01*
X507961D02*
X508061D01*
X509161D02*
X509261D01*
X493161Y257014D02*
X493361D01*
X503061D02*
X503861D01*
X504061D02*
X504961D01*
X509061D02*
X509261D01*
X493261Y256914D02*
X493461D01*
X503161D02*
X503561D01*
X504461D02*
X504761D01*
X509061D02*
X509261D01*
X493261Y256814D02*
X493461D01*
X508961D02*
X509161D01*
X493361Y256714D02*
X493561D01*
X508961D02*
X509161D01*
X493361Y256614D02*
X493561D01*
X508861D02*
X509061D01*
X493461Y256514D02*
X493661D01*
X508861D02*
X509061D01*
X493461Y256414D02*
X493661D01*
X508761D02*
X508961D01*
X493561Y256314D02*
X493661D01*
X508761D02*
X508961D01*
X493561Y256214D02*
X493761D01*
X508661D02*
X508861D01*
X493661Y256114D02*
X493861D01*
X498861D02*
X499361D01*
X508661D02*
X508861D01*
X493661Y256014D02*
X493861D01*
X498561D02*
X499661D01*
X508561D02*
X508761D01*
X493761Y255914D02*
X493961D01*
X498461D02*
X499761D01*
X508561D02*
X508761D01*
X493761Y255814D02*
X493961D01*
X498461D02*
X498861D01*
X499061D02*
X499861D01*
X508461D02*
X508661D01*
X493861Y255714D02*
X494061D01*
X498161D02*
X498861D01*
X499061D02*
X499961D01*
X508461D02*
X508661D01*
X493861Y255614D02*
X494061D01*
X498161D02*
X500061D01*
X508361D02*
X508561D01*
X493961Y255514D02*
X494161D01*
X498361D02*
X500061D01*
X508361D02*
X508561D01*
X494061Y255414D02*
X494161D01*
X498361D02*
X500061D01*
X508261D02*
X508461D01*
X494061Y255314D02*
X494261D01*
X498361D02*
X500061D01*
X508161D02*
X508361D01*
X494161Y255214D02*
X494361D01*
X498261D02*
X500061D01*
X502561D02*
X502661D01*
X508161D02*
X508361D01*
X494161Y255114D02*
X494361D01*
X498261D02*
X500061D01*
X502261D02*
X502661D01*
X508061D02*
X508261D01*
X494261Y255014D02*
X494461D01*
X498361D02*
X500061D01*
X502061D02*
X502561D01*
X508061D02*
X508261D01*
X494261Y254914D02*
X494461D01*
X498461D02*
X500061D01*
X501861D02*
X502561D01*
X507961D02*
X508161D01*
X494361Y254814D02*
X494561D01*
X498461D02*
X500161D01*
X501561D02*
X502461D01*
X507961D02*
X508161D01*
X494461Y254714D02*
X494661D01*
X498361D02*
X500261D01*
X501361D02*
X502461D01*
X507861D02*
X508061D01*
X494461Y254614D02*
X494661D01*
X498361D02*
X500461D01*
X500961D02*
X502461D01*
X507761D02*
X507961D01*
X494561Y254514D02*
X494761D01*
X498361D02*
X502861D01*
X507761D02*
X507961D01*
X494561Y254414D02*
X494761D01*
X498261D02*
X502861D01*
X507661D02*
X507861D01*
X494661Y254314D02*
X494861D01*
X498261D02*
X502761D01*
X507561D02*
X507761D01*
X494761Y254214D02*
X494961D01*
X498261D02*
X502761D01*
X507561D02*
X507761D01*
X494761Y254114D02*
X494961D01*
X498261D02*
X502661D01*
X507461D02*
X507661D01*
X494861Y254014D02*
X495061D01*
X498261D02*
X502561D01*
X507361D02*
X507561D01*
X494961Y253914D02*
X495161D01*
X498261D02*
X502461D01*
X507361D02*
X507561D01*
X494961Y253814D02*
X495161D01*
X498261D02*
X502261D01*
X507261D02*
X507461D01*
X495061Y253714D02*
X495261D01*
X498261D02*
X502161D01*
X507161D02*
X507361D01*
X495161Y253614D02*
X495361D01*
X498361D02*
X502261D01*
X507161D02*
X507361D01*
X495161Y253514D02*
X495461D01*
X498361D02*
X502261D01*
X507061D02*
X507261D01*
X495261Y253414D02*
X495461D01*
X498461D02*
X502361D01*
X506961D02*
X507161D01*
X495361Y253314D02*
X495561D01*
X498561D02*
X502361D01*
X506961D02*
X507161D01*
X495461Y253214D02*
X495661D01*
X498561D02*
X502561D01*
X506861D02*
X507061D01*
X495461Y253114D02*
X495661D01*
X498761D02*
X502861D01*
X503461D02*
X504161D01*
X506761D02*
X506961D01*
X495561Y253014D02*
X495761D01*
X498861D02*
X504061D01*
X506661D02*
X506861D01*
X495661Y252914D02*
X495861D01*
X498961D02*
X503861D01*
X506661D02*
X506861D01*
X495761Y252814D02*
X495961D01*
X499061D02*
X503761D01*
X506561D02*
X506761D01*
X495761Y252714D02*
X496061D01*
X499261D02*
X503661D01*
X506461D02*
X506661D01*
X495861Y252614D02*
X496061D01*
X499361D02*
X503761D01*
X506361D02*
X506561D01*
X495961Y252514D02*
X496161D01*
X499461D02*
X503861D01*
X506361D02*
X506561D01*
X496061Y252414D02*
X496261D01*
X499461D02*
X503961D01*
X506261D02*
X506461D01*
X496161Y252314D02*
X496361D01*
X499361D02*
X501161D01*
X502861D02*
X504061D01*
X506161D02*
X506361D01*
X496161Y252214D02*
X496361D01*
X499161D02*
X500961D01*
X503161D02*
X504061D01*
X506061D02*
X506261D01*
X496261Y252114D02*
X496461D01*
X499261D02*
X500961D01*
X503461D02*
X504161D01*
X505961D02*
X506161D01*
X496361Y252014D02*
X496561D01*
X499461D02*
X501061D01*
X503661D02*
X504261D01*
X505861D02*
X506161D01*
X496461Y251914D02*
X496661D01*
X499561D02*
X501161D01*
X503961D02*
X504361D01*
X505861D02*
X506061D01*
X496561Y251814D02*
X496761D01*
X499561D02*
X501261D01*
X504161D02*
X504361D01*
X505761D02*
X505961D01*
X496661Y251714D02*
X496861D01*
X499461D02*
X501361D01*
X504361D02*
X504461D01*
X505661D02*
X505861D01*
X496761Y251614D02*
X496961D01*
X499461D02*
X500061D01*
X500561D02*
X501261D01*
X505561D02*
X505761D01*
X496861Y251514D02*
X497061D01*
X505461D02*
X505661D01*
X496861Y251414D02*
X497161D01*
X505361D02*
X505561D01*
X496961Y251314D02*
X497161D01*
X505261D02*
X505561D01*
X497061Y251214D02*
X497261D01*
X505161D02*
X505461D01*
X497161Y251114D02*
X497361D01*
X505061D02*
X505361D01*
X497261Y251014D02*
X497461D01*
X504961D02*
X505261D01*
X497361Y250914D02*
X497561D01*
X504961D02*
X505161D01*
X497461Y250814D02*
X497661D01*
X504861D02*
X505061D01*
X497561Y250714D02*
X497761D01*
X504761D02*
X504961D01*
X497661Y250614D02*
X497861D01*
X504661D02*
X504861D01*
X497761Y250514D02*
X497961D01*
X504561D02*
X504761D01*
X497861Y250414D02*
X498061D01*
X504461D02*
X504661D01*
X497961Y250314D02*
X498161D01*
X504361D02*
X504561D01*
X498161Y250214D02*
X498261D01*
X504261D02*
X504461D01*
X498261Y250114D02*
X498461D01*
X504061D02*
X504361D01*
X498361Y250014D02*
X498561D01*
X503961D02*
X504261D01*
X498461Y249914D02*
X498661D01*
X503861D02*
X504161D01*
X498561Y249814D02*
X498761D01*
X503761D02*
X504061D01*
X498661Y249714D02*
X498861D01*
X503661D02*
X503861D01*
X498761Y249614D02*
X498961D01*
X503561D02*
X503761D01*
X498861Y249514D02*
X499161D01*
X503461D02*
X503661D01*
X499061Y249414D02*
X499261D01*
X503361D02*
X503561D01*
X499161Y249314D02*
X499361D01*
X503261D02*
X503461D01*
X499261Y249214D02*
X499461D01*
X503061D02*
X503361D01*
X499361Y249114D02*
X499561D01*
X502961D02*
X503161D01*
X499561Y249014D02*
X499761D01*
X502861D02*
X503061D01*
X499661Y248914D02*
X499861D01*
X502661D02*
X502961D01*
X499761Y248814D02*
X499961D01*
X502561D02*
X502861D01*
X499861Y248714D02*
X500161D01*
X502461D02*
X502761D01*
X500061Y248614D02*
X500261D01*
X502361D02*
X502561D01*
X500161Y248514D02*
X500361D01*
X502161D02*
X502461D01*
X500361Y248414D02*
X500561D01*
X502061D02*
X502361D01*
X500461Y248314D02*
X500661D01*
X501961D02*
X502161D01*
X500561Y248214D02*
X500861D01*
X501761D02*
X502061D01*
X500761Y248114D02*
X500961D01*
X501661D02*
X501961D01*
X500861Y248014D02*
X501161D01*
X501561D02*
X501761D01*
X501061Y247914D02*
X501261D01*
X501361D02*
X501661D01*
X501161Y247814D02*
X501461D01*
X465999Y154053D02*
X466249Y153803D01*
D28*
X500999Y219303D02*
Y240353D01*
Y132753D02*
Y154053D01*
Y219303D02*
X521999D01*
X500999Y154053D02*
X521749D01*
X466249Y219303D02*
X484299D01*
X466249Y153803D02*
X484299D01*
Y240303D02*
X521999D01*
X484299Y132803D02*
X521999D01*
Y219303D02*
Y240303D01*
Y132803D02*
Y153803D01*
X484299Y132803D02*
Y240303D01*
X500999Y154053D02*
Y219303D01*
X465999Y153803D02*
Y219303D01*
X484299Y132803D02*
Y153803D01*
D29*
X533740Y267753D02*
X534090D01*
X526790D02*
X527090D01*
X537140Y267803D02*
X537490D01*
X535990D02*
X536440D01*
X535240D02*
X535590D01*
X533590D02*
X534240D01*
X532090D02*
X532440D01*
X531040D02*
X531390D01*
X529890D02*
X530240D01*
X529090D02*
X529490D01*
X528340D02*
X528640D01*
X526640D02*
X527290D01*
X524590D02*
X525390D01*
X523790D02*
X524140D01*
X522640D02*
X522990D01*
X521390D02*
X522290D01*
X537140Y267853D02*
X537490D01*
X535990D02*
X536390D01*
X535240D02*
X535590D01*
X533490D02*
X534340D01*
X532090D02*
X532440D01*
X531040D02*
X531390D01*
X529940D02*
X530240D01*
X529040D02*
X529440D01*
X528340D02*
X528640D01*
X526540D02*
X527390D01*
X524590D02*
X525540D01*
X523740D02*
X524140D01*
X522640D02*
X522990D01*
X521390D02*
X522290D01*
X537140Y267903D02*
X537490D01*
X535940D02*
X536340D01*
X535240D02*
X535590D01*
X533440D02*
X534440D01*
X532090D02*
X532440D01*
X530990D02*
X531390D01*
X529940D02*
X530290D01*
X528990D02*
X529440D01*
X528340D02*
X528640D01*
X526490D02*
X527490D01*
X524590D02*
X525590D01*
X523740D02*
X524090D01*
X522690D02*
X522990D01*
X521390D02*
X522290D01*
X537140Y267953D02*
X537490D01*
X535890D02*
X536290D01*
X535240D02*
X535590D01*
X533390D02*
X534490D01*
X532090D02*
X532440D01*
X530990D02*
X531340D01*
X529940D02*
X530290D01*
X528990D02*
X529390D01*
X528340D02*
X528640D01*
X526440D02*
X527540D01*
X524640D02*
X525640D01*
X523740D02*
X524090D01*
X522690D02*
X523040D01*
X521390D02*
X522290D01*
X537140Y268003D02*
X537490D01*
X535890D02*
X536290D01*
X535240D02*
X535590D01*
X533340D02*
X534540D01*
X532090D02*
X532440D01*
X530990D02*
X531340D01*
X529990D02*
X530290D01*
X528940D02*
X529340D01*
X528340D02*
X528640D01*
X526390D02*
X527590D01*
X524590D02*
X525690D01*
X523690D02*
X524090D01*
X522690D02*
X523040D01*
X521390D02*
X522290D01*
X537140Y268053D02*
X537490D01*
X535840D02*
X536240D01*
X535240D02*
X535590D01*
X534040D02*
X534590D01*
X533290D02*
X533840D01*
X532090D02*
X532440D01*
X530940D02*
X531340D01*
X529990D02*
X530340D01*
X528890D02*
X529340D01*
X528340D02*
X528640D01*
X527090D02*
X527640D01*
X526340D02*
X526890D01*
X525240D02*
X525690D01*
X524590D02*
X524940D01*
X523690D02*
X524040D01*
X522740D02*
X523040D01*
X521390D02*
X522240D01*
X537140Y268103D02*
X537490D01*
X535790D02*
X536190D01*
X535240D02*
X535590D01*
X534140D02*
X534590D01*
X533240D02*
X533740D01*
X532090D02*
X532440D01*
X529990D02*
X531290D01*
X528890D02*
X529290D01*
X528340D02*
X528640D01*
X527190D02*
X527640D01*
X526340D02*
X526790D01*
X525340D02*
X525740D01*
X524590D02*
X524940D01*
X523490D02*
X524040D01*
X522740D02*
X523440D01*
X521390D02*
X521740D01*
X537140Y268153D02*
X537490D01*
X535790D02*
X536190D01*
X535240D02*
X535590D01*
X534240D02*
X534640D01*
X533240D02*
X533640D01*
X532090D02*
X532440D01*
X530040D02*
X531290D01*
X528840D02*
X529240D01*
X528340D02*
X528640D01*
X527290D02*
X527690D01*
X526290D02*
X526740D01*
X525390D02*
X525740D01*
X524590D02*
X524940D01*
X522740D02*
X524040D01*
X521390D02*
X521740D01*
X537140Y268203D02*
X537490D01*
X535740D02*
X536140D01*
X535240D02*
X535590D01*
X534290D02*
X534640D01*
X533240D02*
X533640D01*
X532090D02*
X532440D01*
X530040D02*
X531290D01*
X528790D02*
X529190D01*
X528340D02*
X528640D01*
X527340D02*
X527690D01*
X526290D02*
X526690D01*
X525390D02*
X525740D01*
X524590D02*
X524940D01*
X522790D02*
X523990D01*
X521390D02*
X521740D01*
X537140Y268253D02*
X537490D01*
X535690D02*
X536090D01*
X535240D02*
X535590D01*
X534290D02*
X534690D01*
X533190D02*
X533590D01*
X532090D02*
X532440D01*
X530040D02*
X531240D01*
X528790D02*
X529190D01*
X528340D02*
X528640D01*
X527340D02*
X527740D01*
X526240D02*
X526640D01*
X525390D02*
X525740D01*
X524590D02*
X524940D01*
X522790D02*
X523990D01*
X521390D02*
X521740D01*
X537140Y268303D02*
X537490D01*
X535690D02*
X536040D01*
X535240D02*
X535590D01*
X534340D02*
X534690D01*
X533190D02*
X533590D01*
X532090D02*
X532440D01*
X530090D02*
X531240D01*
X528740D02*
X529140D01*
X528340D02*
X528640D01*
X527390D02*
X527740D01*
X526240D02*
X526640D01*
X525390D02*
X525740D01*
X524590D02*
X524940D01*
X522790D02*
X523940D01*
X521390D02*
X521740D01*
X537140Y268353D02*
X537490D01*
X535640D02*
X536040D01*
X535240D02*
X535590D01*
X534340D02*
X534690D01*
X533190D02*
X533540D01*
X532090D02*
X532440D01*
X530090D02*
X531190D01*
X528690D02*
X529090D01*
X528340D02*
X528640D01*
X527390D02*
X527740D01*
X526240D02*
X526590D01*
X525390D02*
X525740D01*
X524590D02*
X524940D01*
X522840D02*
X523940D01*
X521390D02*
X521740D01*
X537140Y268403D02*
X537490D01*
X535240D02*
X535990D01*
X534340D02*
X534690D01*
X533190D02*
X533540D01*
X532090D02*
X532440D01*
X530840D02*
X531190D01*
X530090D02*
X530440D01*
X528340D02*
X529040D01*
X527390D02*
X527740D01*
X526240D02*
X526590D01*
X525340D02*
X525740D01*
X524590D02*
X524940D01*
X523590D02*
X523940D01*
X522840D02*
X523190D01*
X521390D02*
X521740D01*
X537090Y268453D02*
X537540D01*
X535240D02*
X535940D01*
X534390D02*
X534740D01*
X533190D02*
X533540D01*
X532090D02*
X532440D01*
X530840D02*
X531190D01*
X530140D02*
X530440D01*
X528340D02*
X529040D01*
X527440D02*
X527790D01*
X526240D02*
X526590D01*
X525290D02*
X525740D01*
X524590D02*
X524940D01*
X523540D02*
X523890D01*
X522840D02*
X523190D01*
X521390D02*
X521740D01*
X537090Y268503D02*
X537540D01*
X535240D02*
X535940D01*
X534390D02*
X534740D01*
X533190D02*
X533540D01*
X532090D02*
X532440D01*
X530790D02*
X531140D01*
X530140D02*
X530490D01*
X528340D02*
X529040D01*
X527440D02*
X527790D01*
X526240D02*
X526590D01*
X524590D02*
X525690D01*
X523540D02*
X523890D01*
X522890D02*
X523190D01*
X521390D02*
X521740D01*
X537040Y268553D02*
X537590D01*
X535240D02*
X536090D01*
X534390D02*
X534740D01*
X533190D02*
X533540D01*
X532090D02*
X532440D01*
X530790D02*
X531140D01*
X530140D02*
X530490D01*
X528340D02*
X529140D01*
X527440D02*
X527790D01*
X526240D02*
X526590D01*
X524590D02*
X525640D01*
X523540D02*
X523890D01*
X522890D02*
X523240D01*
X521390D02*
X521740D01*
X537040Y268603D02*
X537590D01*
X535240D02*
X536140D01*
X534390D02*
X534740D01*
X533190D02*
X533540D01*
X532090D02*
X532440D01*
X530790D02*
X531140D01*
X530190D02*
X530490D01*
X528340D02*
X529240D01*
X527440D02*
X527790D01*
X526240D02*
X526590D01*
X524590D02*
X525590D01*
X523490D02*
X523840D01*
X522890D02*
X523240D01*
X521390D02*
X521740D01*
X536990Y268653D02*
X537640D01*
X535240D02*
X536190D01*
X534390D02*
X534740D01*
X533190D02*
X533540D01*
X532090D02*
X532440D01*
X530740D02*
X531090D01*
X530190D02*
X530540D01*
X528340D02*
X529290D01*
X527440D02*
X527790D01*
X526240D02*
X526590D01*
X524590D02*
X525490D01*
X523490D02*
X523840D01*
X522940D02*
X523240D01*
X521390D02*
X521740D01*
X536990Y268703D02*
X537640D01*
X535790D02*
X536240D01*
X535240D02*
X535590D01*
X534390D02*
X534740D01*
X533190D02*
X533540D01*
X532090D02*
X532440D01*
X530740D02*
X531090D01*
X530240D02*
X530540D01*
X528890D02*
X529340D01*
X528340D02*
X528640D01*
X527440D02*
X527790D01*
X526240D02*
X526590D01*
X524640D02*
X525590D01*
X523490D02*
X523840D01*
X522940D02*
X523290D01*
X521390D02*
X521740D01*
X537340Y268753D02*
X537690D01*
X536940D02*
X537290D01*
X535890D02*
X536290D01*
X535240D02*
X535590D01*
X534340D02*
X534740D01*
X533190D02*
X533540D01*
X532090D02*
X532440D01*
X530740D02*
X531090D01*
X530240D02*
X530540D01*
X528990D02*
X529340D01*
X528340D02*
X528640D01*
X527440D02*
X527790D01*
X526240D02*
X526590D01*
X525190D02*
X525640D01*
X524590D02*
X524940D01*
X523440D02*
X523790D01*
X522990D02*
X523290D01*
X521390D02*
X521740D01*
X537390Y268803D02*
X537690D01*
X536940D02*
X537290D01*
X535940D02*
X536290D01*
X535240D02*
X535590D01*
X534340D02*
X534740D01*
X533190D02*
X533540D01*
X532090D02*
X532440D01*
X530690D02*
X531040D01*
X530240D02*
X530590D01*
X529040D02*
X529390D01*
X528340D02*
X528640D01*
X527390D02*
X527790D01*
X526240D02*
X526590D01*
X525290D02*
X525640D01*
X524590D02*
X524940D01*
X523440D02*
X523790D01*
X522990D02*
X523290D01*
X521390D02*
X521740D01*
X537390Y268853D02*
X537740D01*
X536890D02*
X537240D01*
X535990D02*
X536290D01*
X535240D02*
X535590D01*
X534340D02*
X534690D01*
X533190D02*
X533540D01*
X532090D02*
X532440D01*
X530690D02*
X531040D01*
X530290D02*
X530590D01*
X529040D02*
X529390D01*
X528340D02*
X528640D01*
X527390D02*
X527790D01*
X526240D02*
X526640D01*
X525340D02*
X525690D01*
X524590D02*
X524940D01*
X523440D02*
X523790D01*
X522990D02*
X523340D01*
X521390D02*
X521740D01*
X537390Y268903D02*
X537740D01*
X536890D02*
X537240D01*
X535990D02*
X536340D01*
X535240D02*
X535590D01*
X534340D02*
X534690D01*
X533240D02*
X533590D01*
X532090D02*
X532440D01*
X530690D02*
X531040D01*
X530290D02*
X530590D01*
X529040D02*
X529390D01*
X528340D02*
X528640D01*
X527390D02*
X527740D01*
X526290D02*
X526640D01*
X525390D02*
X525690D01*
X524590D02*
X524940D01*
X523390D02*
X523740D01*
X523040D02*
X523340D01*
X521390D02*
X521740D01*
X537440Y268953D02*
X537790D01*
X536840D02*
X537190D01*
X535990D02*
X536340D01*
X535240D02*
X535590D01*
X534290D02*
X534690D01*
X533240D02*
X533590D01*
X532090D02*
X532440D01*
X530290D02*
X530990D01*
X529040D02*
X529390D01*
X528340D02*
X528640D01*
X527340D02*
X527740D01*
X526290D02*
X526690D01*
X525390D02*
X525740D01*
X524590D02*
X524940D01*
X523390D02*
X523740D01*
X523040D02*
X523340D01*
X521390D02*
X521740D01*
X537440Y269003D02*
X537790D01*
X536840D02*
X537190D01*
X535990D02*
X536340D01*
X535240D02*
X535590D01*
X534290D02*
X534690D01*
X533240D02*
X533640D01*
X532090D02*
X532440D01*
X530340D02*
X530990D01*
X529040D02*
X529390D01*
X528340D02*
X528640D01*
X527340D02*
X527740D01*
X526290D02*
X526690D01*
X525390D02*
X525740D01*
X524590D02*
X524940D01*
X523040D02*
X523690D01*
X521390D02*
X521740D01*
X537490Y269053D02*
X537840D01*
X536790D02*
X537140D01*
X535940D02*
X536340D01*
X535240D02*
X535590D01*
X534240D02*
X534640D01*
X533290D02*
X533690D01*
X532090D02*
X532440D01*
X530340D02*
X530940D01*
X529040D02*
X529390D01*
X528340D02*
X528640D01*
X527290D02*
X527690D01*
X526340D02*
X526740D01*
X525340D02*
X525740D01*
X524590D02*
X524940D01*
X523090D02*
X523690D01*
X521390D02*
X521740D01*
X537490Y269103D02*
X537840D01*
X536790D02*
X537140D01*
X535890D02*
X536290D01*
X535240D02*
X535590D01*
X534140D02*
X534640D01*
X533340D02*
X533790D01*
X532090D02*
X532440D01*
X530340D02*
X530940D01*
X528990D02*
X529390D01*
X528340D02*
X528640D01*
X527190D02*
X527690D01*
X526390D02*
X526840D01*
X525340D02*
X525740D01*
X524590D02*
X524940D01*
X523090D02*
X523690D01*
X521390D02*
X521740D01*
X537540Y269153D02*
X537890D01*
X536740D02*
X537140D01*
X535240D02*
X536290D01*
X533340D02*
X534590D01*
X531690D02*
X532840D01*
X530390D02*
X530940D01*
X528340D02*
X529390D01*
X526390D02*
X527640D01*
X524590D02*
X525690D01*
X523090D02*
X523640D01*
X521390D02*
X521740D01*
X537540Y269203D02*
X537890D01*
X536740D02*
X537090D01*
X535240D02*
X536290D01*
X533390D02*
X534540D01*
X531640D02*
X532840D01*
X530390D02*
X530890D01*
X528340D02*
X529340D01*
X526440D02*
X527590D01*
X524590D02*
X525690D01*
X523140D02*
X523640D01*
X521390D02*
X521740D01*
X537590Y269253D02*
X537940D01*
X536690D02*
X537090D01*
X535240D02*
X536240D01*
X533440D02*
X534490D01*
X531640D02*
X532840D01*
X530390D02*
X530890D01*
X528340D02*
X529290D01*
X526490D02*
X527540D01*
X524590D02*
X525640D01*
X523140D02*
X523640D01*
X521390D02*
X521740D01*
X537590Y269303D02*
X537940D01*
X536690D02*
X537040D01*
X535240D02*
X536190D01*
X533490D02*
X534440D01*
X531640D02*
X532840D01*
X530440D02*
X530890D01*
X528340D02*
X529240D01*
X526590D02*
X527490D01*
X524590D02*
X525590D01*
X523140D02*
X523590D01*
X521390D02*
X521740D01*
X537640Y269353D02*
X537990D01*
X536640D02*
X537040D01*
X535240D02*
X536090D01*
X533590D02*
X534390D01*
X531640D02*
X532840D01*
X530440D02*
X530840D01*
X528340D02*
X529190D01*
X526640D02*
X527440D01*
X524590D02*
X525540D01*
X523190D02*
X523590D01*
X521390D02*
X521740D01*
X537640Y269403D02*
X537990D01*
X536640D02*
X536990D01*
X535240D02*
X535990D01*
X533740D02*
X534240D01*
X531690D02*
X532840D01*
X530440D02*
X530840D01*
X528340D02*
X529040D01*
X526790D02*
X527290D01*
X524640D02*
X525390D01*
X523190D02*
X523590D01*
X521440D02*
X521740D01*
X533490Y271053D02*
X534340D01*
X532640D02*
X532990D01*
X531490D02*
X531790D01*
X530590D02*
X530990D01*
X529640D02*
X529940D01*
X527990D02*
X528540D01*
X526640D02*
X526940D01*
X525390D02*
X525690D01*
X524440D02*
X524790D01*
X523290D02*
X523590D01*
X522340D02*
X522790D01*
X521440D02*
X521740D01*
X533490Y271103D02*
X534340D01*
X532590D02*
X532990D01*
X531490D02*
X531790D01*
X530540D02*
X530990D01*
X529640D02*
X529940D01*
X527890D02*
X528690D01*
X526640D02*
X526990D01*
X525390D02*
X525690D01*
X524390D02*
X524740D01*
X523290D02*
X523590D01*
X522340D02*
X522790D01*
X521390D02*
X521740D01*
X533440Y271153D02*
X534340D01*
X532590D02*
X532940D01*
X531490D02*
X531840D01*
X530490D02*
X530990D01*
X529640D02*
X529940D01*
X527790D02*
X528740D01*
X526640D02*
X526990D01*
X525390D02*
X525690D01*
X524390D02*
X524740D01*
X523290D02*
X523640D01*
X522290D02*
X522790D01*
X521390D02*
X521740D01*
X533440Y271203D02*
X534340D01*
X532590D02*
X532940D01*
X531490D02*
X531840D01*
X530490D02*
X530990D01*
X529640D02*
X529940D01*
X527740D02*
X528790D01*
X526640D02*
X526990D01*
X525390D02*
X525690D01*
X524340D02*
X524740D01*
X523290D02*
X523640D01*
X522290D02*
X522790D01*
X521390D02*
X521740D01*
X533440Y271253D02*
X534340D01*
X532540D02*
X532890D01*
X531540D02*
X531840D01*
X530440D02*
X530990D01*
X529640D02*
X529940D01*
X527690D02*
X528890D01*
X526640D02*
X526990D01*
X525390D02*
X525690D01*
X524340D02*
X524690D01*
X523340D02*
X523640D01*
X522240D02*
X522790D01*
X521390D02*
X521740D01*
X533440Y271303D02*
X534340D01*
X532540D02*
X532890D01*
X531540D02*
X531890D01*
X530440D02*
X530990D01*
X529640D02*
X529940D01*
X527690D02*
X528890D01*
X526640D02*
X526990D01*
X525390D02*
X525690D01*
X524340D02*
X524690D01*
X523340D02*
X523690D01*
X522190D02*
X522790D01*
X521390D02*
X521740D01*
X533440Y271353D02*
X533790D01*
X532540D02*
X532890D01*
X531590D02*
X531890D01*
X530390D02*
X530990D01*
X529640D02*
X529940D01*
X528490D02*
X528940D01*
X527640D02*
X528140D01*
X526640D02*
X526990D01*
X525390D02*
X525690D01*
X524290D02*
X524690D01*
X523340D02*
X523690D01*
X522190D02*
X522790D01*
X521390D02*
X521740D01*
X533440Y271403D02*
X533790D01*
X531590D02*
X532840D01*
X530340D02*
X530990D01*
X529640D02*
X529940D01*
X528540D02*
X528990D01*
X527590D02*
X528040D01*
X526640D02*
X526990D01*
X525390D02*
X525690D01*
X523390D02*
X524640D01*
X522140D02*
X522790D01*
X521390D02*
X521740D01*
X533440Y271453D02*
X533790D01*
X531590D02*
X532840D01*
X530340D02*
X530990D01*
X529640D02*
X529940D01*
X528590D02*
X528990D01*
X527590D02*
X527990D01*
X526640D02*
X526990D01*
X525390D02*
X525690D01*
X523390D02*
X524640D01*
X522140D02*
X522790D01*
X521390D02*
X521740D01*
X533440Y271503D02*
X533790D01*
X531640D02*
X532840D01*
X530290D02*
X530990D01*
X529640D02*
X529940D01*
X528640D02*
X529040D01*
X527590D02*
X527940D01*
X526640D02*
X526990D01*
X525390D02*
X525690D01*
X523390D02*
X524640D01*
X522090D02*
X522790D01*
X521390D02*
X521740D01*
X533440Y271553D02*
X533790D01*
X531640D02*
X532790D01*
X530290D02*
X530990D01*
X529640D02*
X529940D01*
X528690D02*
X529040D01*
X527540D02*
X527940D01*
X526640D02*
X526990D01*
X525390D02*
X525690D01*
X523440D02*
X524590D01*
X522090D02*
X522790D01*
X521390D02*
X521740D01*
X533440Y271603D02*
X533790D01*
X531640D02*
X532790D01*
X530240D02*
X530990D01*
X529640D02*
X529940D01*
X528690D02*
X529040D01*
X527540D02*
X527940D01*
X526640D02*
X526990D01*
X525390D02*
X525690D01*
X523440D02*
X524590D01*
X522040D02*
X522790D01*
X521390D02*
X521740D01*
X533440Y271653D02*
X533790D01*
X532390D02*
X532790D01*
X531690D02*
X531990D01*
X530690D02*
X530990D01*
X530190D02*
X530640D01*
X529640D02*
X529940D01*
X528690D02*
X529090D01*
X527540D02*
X527890D01*
X526640D02*
X526990D01*
X525390D02*
X525690D01*
X524190D02*
X524590D01*
X523440D02*
X523790D01*
X522490D02*
X522790D01*
X521990D02*
X522440D01*
X521390D02*
X521740D01*
X533440Y271703D02*
X533790D01*
X532390D02*
X532740D01*
X531690D02*
X531990D01*
X530690D02*
X530990D01*
X530190D02*
X530640D01*
X529640D02*
X529940D01*
X528740D02*
X529090D01*
X527540D02*
X527890D01*
X526640D02*
X526990D01*
X525390D02*
X525690D01*
X524190D02*
X524540D01*
X523490D02*
X523790D01*
X522490D02*
X522790D01*
X521990D02*
X522390D01*
X521390D02*
X521740D01*
X533440Y271753D02*
X533790D01*
X532390D02*
X532740D01*
X531690D02*
X532040D01*
X530690D02*
X530990D01*
X530140D02*
X530590D01*
X529640D02*
X529940D01*
X528740D02*
X529090D01*
X527540D02*
X527890D01*
X526640D02*
X526990D01*
X525390D02*
X525690D01*
X524190D02*
X524540D01*
X523490D02*
X523840D01*
X522490D02*
X522790D01*
X521940D02*
X522390D01*
X521390D02*
X521740D01*
X516590D02*
X517740D01*
X533440Y271803D02*
X533790D01*
X532340D02*
X532740D01*
X531740D02*
X532040D01*
X530690D02*
X530990D01*
X530140D02*
X530540D01*
X529640D02*
X529940D01*
X528740D02*
X529090D01*
X527540D02*
X527890D01*
X526640D02*
X526990D01*
X525390D02*
X525690D01*
X524140D02*
X524490D01*
X523540D02*
X523840D01*
X522490D02*
X522790D01*
X521940D02*
X522340D01*
X521390D02*
X521740D01*
X516340D02*
X518040D01*
X533440Y271853D02*
X533790D01*
X532340D02*
X532690D01*
X531740D02*
X532090D01*
X530690D02*
X530990D01*
X530090D02*
X530540D01*
X529640D02*
X529940D01*
X528740D02*
X529090D01*
X527540D02*
X527890D01*
X526640D02*
X526990D01*
X525390D02*
X525690D01*
X524140D02*
X524490D01*
X523540D02*
X523840D01*
X522490D02*
X522790D01*
X521890D02*
X522340D01*
X521390D02*
X521740D01*
X516140D02*
X518240D01*
X533440Y271903D02*
X533790D01*
X532340D02*
X532690D01*
X531740D02*
X532090D01*
X530690D02*
X530990D01*
X530090D02*
X530490D01*
X529640D02*
X529940D01*
X528740D02*
X529090D01*
X527540D02*
X527890D01*
X526640D02*
X526990D01*
X525390D02*
X525690D01*
X524140D02*
X524490D01*
X523540D02*
X523890D01*
X522490D02*
X522790D01*
X521840D02*
X522290D01*
X521390D02*
X521740D01*
X516040D02*
X518390D01*
X533440Y271953D02*
X533790D01*
X532290D02*
X532640D01*
X531790D02*
X532090D01*
X530690D02*
X530990D01*
X530040D02*
X530490D01*
X529640D02*
X529940D01*
X528740D02*
X529090D01*
X527540D02*
X527890D01*
X526640D02*
X526990D01*
X525390D02*
X525690D01*
X524090D02*
X524440D01*
X523590D02*
X523890D01*
X522490D02*
X522790D01*
X521840D02*
X522290D01*
X521390D02*
X521740D01*
X515890D02*
X518540D01*
X533440Y272003D02*
X533790D01*
X532290D02*
X532640D01*
X531790D02*
X532140D01*
X530690D02*
X530990D01*
X530040D02*
X530440D01*
X529640D02*
X529940D01*
X528740D02*
X529090D01*
X527540D02*
X527890D01*
X526640D02*
X526990D01*
X525390D02*
X525690D01*
X524090D02*
X524440D01*
X523590D02*
X523890D01*
X522440D02*
X522790D01*
X521840D02*
X522240D01*
X521390D02*
X521740D01*
X515790D02*
X518640D01*
X533440Y272053D02*
X533790D01*
X532290D02*
X532640D01*
X531790D02*
X532140D01*
X530690D02*
X530990D01*
X529990D02*
X530440D01*
X529640D02*
X529940D01*
X528740D02*
X529090D01*
X527540D02*
X527890D01*
X526640D02*
X526990D01*
X525390D02*
X525690D01*
X524090D02*
X524440D01*
X523590D02*
X523940D01*
X522440D02*
X522790D01*
X521790D02*
X522240D01*
X521390D02*
X521740D01*
X515740D02*
X518740D01*
X533440Y272103D02*
X533790D01*
X532240D02*
X532590D01*
X531840D02*
X532140D01*
X530690D02*
X530990D01*
X529640D02*
X530390D01*
X528690D02*
X529090D01*
X527540D02*
X527940D01*
X526640D02*
X526990D01*
X525390D02*
X525690D01*
X524040D02*
X524390D01*
X523640D02*
X523940D01*
X522440D02*
X522790D01*
X521390D02*
X522190D01*
X515640D02*
X518840D01*
X533440Y272153D02*
X533790D01*
X532240D02*
X532590D01*
X531840D02*
X532190D01*
X530690D02*
X530990D01*
X529640D02*
X530340D01*
X528690D02*
X529090D01*
X527590D02*
X527940D01*
X526640D02*
X526990D01*
X525390D02*
X525690D01*
X524040D02*
X524390D01*
X523640D02*
X523940D01*
X522440D02*
X522790D01*
X521390D02*
X522140D01*
X515590D02*
X518940D01*
X533440Y272203D02*
X533790D01*
X532240D02*
X532590D01*
X531840D02*
X532190D01*
X530690D02*
X530990D01*
X529640D02*
X530340D01*
X528690D02*
X529040D01*
X527590D02*
X527940D01*
X526640D02*
X526990D01*
X525390D02*
X525690D01*
X524040D02*
X524390D01*
X523640D02*
X523990D01*
X522440D02*
X522790D01*
X521390D02*
X522140D01*
X515540D02*
X518990D01*
X533440Y272253D02*
X533790D01*
X531890D02*
X532540D01*
X530690D02*
X530990D01*
X529640D02*
X530290D01*
X528640D02*
X529040D01*
X527590D02*
X527990D01*
X526640D02*
X526990D01*
X525390D02*
X525690D01*
X523690D02*
X524340D01*
X522440D02*
X522790D01*
X521390D02*
X522090D01*
X515490D02*
X519090D01*
X533440Y272303D02*
X533790D01*
X531890D02*
X532540D01*
X530690D02*
X530990D01*
X529640D02*
X530290D01*
X528590D02*
X529040D01*
X527640D02*
X528040D01*
X526640D02*
X526990D01*
X525390D02*
X525690D01*
X523690D02*
X524340D01*
X522440D02*
X522790D01*
X521390D02*
X522090D01*
X515440D02*
X519140D01*
X533440Y272353D02*
X533790D01*
X531940D02*
X532540D01*
X530690D02*
X530990D01*
X529640D02*
X530240D01*
X528540D02*
X528990D01*
X527640D02*
X528090D01*
X526640D02*
X526990D01*
X525390D02*
X525690D01*
X523690D02*
X524340D01*
X522440D02*
X522790D01*
X521390D02*
X522040D01*
X517590D02*
X519190D01*
X515390D02*
X517040D01*
X533440Y272403D02*
X533790D01*
X531940D02*
X532490D01*
X530690D02*
X530990D01*
X529640D02*
X530190D01*
X528440D02*
X528990D01*
X527690D02*
X528190D01*
X526640D02*
X526990D01*
X525790D02*
X526090D01*
X524990D02*
X525740D01*
X523740D02*
X524290D01*
X522440D02*
X522790D01*
X521390D02*
X521990D01*
X517940D02*
X519240D01*
X515340D02*
X516740D01*
X533440Y272453D02*
X533790D01*
X531940D02*
X532490D01*
X530690D02*
X530990D01*
X529640D02*
X530190D01*
X527740D02*
X528940D01*
X526640D02*
X526990D01*
X524940D02*
X526140D01*
X523740D02*
X524290D01*
X522440D02*
X522790D01*
X521390D02*
X521990D01*
X518140D02*
X519290D01*
X515290D02*
X516540D01*
X533440Y272503D02*
X533790D01*
X531990D02*
X532490D01*
X530690D02*
X530990D01*
X529640D02*
X530140D01*
X527790D02*
X528890D01*
X526640D02*
X526990D01*
X524940D02*
X526140D01*
X523740D02*
X524240D01*
X522440D02*
X522790D01*
X521390D02*
X521940D01*
X518290D02*
X519340D01*
X515290D02*
X516440D01*
X533440Y272553D02*
X533790D01*
X531990D02*
X532440D01*
X530690D02*
X530990D01*
X529640D02*
X530140D01*
X527840D02*
X528840D01*
X526640D02*
X526990D01*
X524940D02*
X526140D01*
X523790D02*
X524240D01*
X522440D02*
X522790D01*
X521390D02*
X521940D01*
X518390D02*
X519390D01*
X515240D02*
X516340D01*
X533440Y272603D02*
X533790D01*
X531990D02*
X532440D01*
X530690D02*
X530990D01*
X529640D02*
X530090D01*
X527890D02*
X528790D01*
X526640D02*
X526990D01*
X524940D02*
X526140D01*
X523790D02*
X524240D01*
X522490D02*
X522790D01*
X521390D02*
X521890D01*
X518490D02*
X519440D01*
X515240D02*
X516240D01*
X533440Y272653D02*
X533790D01*
X532040D02*
X532390D01*
X530690D02*
X530990D01*
X529640D02*
X530040D01*
X527990D02*
X528690D01*
X526640D02*
X526990D01*
X524940D02*
X526140D01*
X523790D02*
X524190D01*
X522440D02*
X522790D01*
X521390D02*
X521890D01*
X518590D02*
X519490D01*
X515190D02*
X516190D01*
X528190Y272703D02*
X528540D01*
X518640D02*
X519490D01*
X515190D02*
X516140D01*
X518690Y272753D02*
X519540D01*
X515190D02*
X516090D01*
X518740Y272803D02*
X519590D01*
X515140D02*
X516040D01*
X518790Y272853D02*
X519590D01*
X515140D02*
X515990D01*
X518840Y272903D02*
X519640D01*
X515140D02*
X515990D01*
X518890Y272953D02*
X519640D01*
X515140D02*
X515940D01*
X518890Y273003D02*
X519690D01*
X515090D02*
X515940D01*
X518940Y273053D02*
X519690D01*
X515090D02*
X515890D01*
X518940Y273103D02*
X519690D01*
X515090D02*
X515890D01*
X518940Y273153D02*
X519740D01*
X515090D02*
X515890D01*
X518990Y273203D02*
X519740D01*
X515090D02*
X515890D01*
X518990Y273253D02*
X519740D01*
X515090D02*
X515890D01*
X518990Y273303D02*
X519740D01*
X515090D02*
X515890D01*
X518990Y273353D02*
X519740D01*
X515090D02*
X515890D01*
X518990Y273403D02*
X519790D01*
X515140D02*
X515890D01*
X518990Y273453D02*
X519790D01*
X515140D02*
X515890D01*
X518990Y273503D02*
X519790D01*
X515140D02*
X515890D01*
X518990Y273553D02*
X519790D01*
X515140D02*
X515890D01*
X518990Y273603D02*
X519790D01*
X515190D02*
X515940D01*
X518990Y273653D02*
X519790D01*
X515190D02*
X515940D01*
X518990Y273703D02*
X519790D01*
X515190D02*
X515940D01*
X518940Y273753D02*
X519740D01*
X515240D02*
X515990D01*
X518940Y273803D02*
X519740D01*
X515240D02*
X516040D01*
X518890Y273853D02*
X519740D01*
X515290D02*
X516040D01*
X518890Y273903D02*
X519740D01*
X515290D02*
X516090D01*
X518840Y273953D02*
X519740D01*
X515340D02*
X516140D01*
X518790Y274003D02*
X519690D01*
X515390D02*
X516190D01*
X518740Y274053D02*
X519690D01*
X515440D02*
X516240D01*
X518640Y274103D02*
X519690D01*
X515440D02*
X516290D01*
X518590Y274153D02*
X519640D01*
X515490D02*
X516340D01*
X518440Y274203D02*
X519640D01*
X515540D02*
X516440D01*
X538540Y274253D02*
X538590D01*
X537440D02*
X538490D01*
X521940D02*
X522840D01*
X518240D02*
X519590D01*
X515590D02*
X516490D01*
X537190Y274303D02*
X538890D01*
X521740D02*
X523040D01*
X515690D02*
X519590D01*
X537040Y274353D02*
X539090D01*
X533990D02*
X534790D01*
X530840D02*
X531590D01*
X528840D02*
X529640D01*
X525690D02*
X526440D01*
X521540D02*
X523240D01*
X515740D02*
X519540D01*
X512690D02*
X513440D01*
X511140D02*
X511990D01*
X506190D02*
X506990D01*
X536890Y274403D02*
X539290D01*
X533990D02*
X534790D01*
X530840D02*
X531590D01*
X528840D02*
X529640D01*
X525690D02*
X526440D01*
X521440D02*
X523340D01*
X515790D02*
X519490D01*
X512690D02*
X513440D01*
X511090D02*
X511990D01*
X506190D02*
X507040D01*
X536790Y274453D02*
X539440D01*
X533990D02*
X534790D01*
X530840D02*
X531590D01*
X528840D02*
X529640D01*
X525690D02*
X526440D01*
X521340D02*
X523490D01*
X515890D02*
X519440D01*
X512690D02*
X513440D01*
X511090D02*
X511940D01*
X506240D02*
X507040D01*
X536690Y274503D02*
X539590D01*
X533990D02*
X534790D01*
X530840D02*
X531590D01*
X528840D02*
X529640D01*
X525690D02*
X526440D01*
X521240D02*
X523540D01*
X515890D02*
X519390D01*
X512690D02*
X513440D01*
X511040D02*
X511940D01*
X506240D02*
X507040D01*
X536590Y274553D02*
X539590D01*
X533990D02*
X534790D01*
X530840D02*
X531590D01*
X528840D02*
X529640D01*
X525690D02*
X526440D01*
X521140D02*
X523640D01*
X515840D02*
X519340D01*
X512690D02*
X513440D01*
X511040D02*
X511940D01*
X506290D02*
X507090D01*
X536540Y274603D02*
X539590D01*
X533990D02*
X534790D01*
X530840D02*
X531590D01*
X528840D02*
X529640D01*
X525690D02*
X526440D01*
X521090D02*
X523740D01*
X515740D02*
X519290D01*
X512690D02*
X513440D01*
X511040D02*
X511890D01*
X506290D02*
X507090D01*
X536440Y274653D02*
X539590D01*
X533990D02*
X534790D01*
X530840D02*
X531590D01*
X528840D02*
X529640D01*
X525690D02*
X526440D01*
X521040D02*
X523790D01*
X515690D02*
X519240D01*
X512690D02*
X513440D01*
X510990D02*
X511890D01*
X506290D02*
X507090D01*
X536390Y274703D02*
X539590D01*
X533990D02*
X534790D01*
X530840D02*
X531590D01*
X528840D02*
X529640D01*
X525690D02*
X526440D01*
X520940D02*
X523840D01*
X515640D02*
X519140D01*
X512690D02*
X513440D01*
X510990D02*
X511890D01*
X506340D02*
X507140D01*
X536340Y274753D02*
X539590D01*
X533990D02*
X534790D01*
X530840D02*
X531590D01*
X528840D02*
X529640D01*
X525690D02*
X526440D01*
X520890D02*
X523890D01*
X515590D02*
X519040D01*
X512690D02*
X513440D01*
X510990D02*
X511840D01*
X506340D02*
X507140D01*
X536290Y274803D02*
X539590D01*
X533990D02*
X534790D01*
X530840D02*
X531590D01*
X528840D02*
X529640D01*
X525690D02*
X526440D01*
X520840D02*
X523990D01*
X515590D02*
X518940D01*
X512690D02*
X513440D01*
X510940D02*
X511840D01*
X506340D02*
X507140D01*
X536240Y274853D02*
X539590D01*
X533990D02*
X534790D01*
X530840D02*
X531590D01*
X528840D02*
X529640D01*
X525690D02*
X526440D01*
X520790D02*
X524040D01*
X515540D02*
X518790D01*
X512690D02*
X513440D01*
X510940D02*
X511790D01*
X506390D02*
X507190D01*
X538690Y274903D02*
X539590D01*
X536190D02*
X537590D01*
X533990D02*
X534790D01*
X530840D02*
X531590D01*
X528840D02*
X529640D01*
X525690D02*
X526440D01*
X522840D02*
X524090D01*
X520790D02*
X522190D01*
X515540D02*
X518590D01*
X512690D02*
X513440D01*
X510940D02*
X511790D01*
X506390D02*
X507190D01*
X538940Y274953D02*
X539540D01*
X536140D02*
X537440D01*
X533990D02*
X534790D01*
X530840D02*
X531590D01*
X528840D02*
X529640D01*
X525690D02*
X526440D01*
X522990D02*
X524140D01*
X520740D02*
X521990D01*
X515490D02*
X516890D01*
X512690D02*
X513440D01*
X510890D02*
X511790D01*
X506440D02*
X507190D01*
X539090Y275003D02*
X539540D01*
X536140D02*
X537290D01*
X533990D02*
X534790D01*
X530840D02*
X531590D01*
X528840D02*
X529640D01*
X525690D02*
X526440D01*
X523090D02*
X524140D01*
X520690D02*
X521890D01*
X515490D02*
X516590D01*
X512690D02*
X513440D01*
X510890D02*
X511740D01*
X506440D02*
X507240D01*
X539240Y275053D02*
X539540D01*
X536090D02*
X537190D01*
X533990D02*
X534790D01*
X530840D02*
X531590D01*
X528840D02*
X529640D01*
X525690D02*
X526440D01*
X523190D02*
X524190D01*
X520640D02*
X521790D01*
X515490D02*
X516440D01*
X512690D02*
X513440D01*
X510890D02*
X511740D01*
X506440D02*
X507240D01*
X539390Y275103D02*
X539540D01*
X536040D02*
X537090D01*
X533990D02*
X534790D01*
X530840D02*
X531590D01*
X528840D02*
X529640D01*
X525690D02*
X526440D01*
X523290D02*
X524240D01*
X520640D02*
X521690D01*
X515490D02*
X516390D01*
X512690D02*
X513440D01*
X510840D02*
X511740D01*
X506490D02*
X507290D01*
X539490Y275153D02*
X539540D01*
X536040D02*
X537040D01*
X533990D02*
X534790D01*
X530840D02*
X531590D01*
X528840D02*
X529640D01*
X525690D02*
X526440D01*
X523340D02*
X524290D01*
X520590D02*
X521640D01*
X515440D02*
X516340D01*
X512690D02*
X513440D01*
X510840D02*
X511690D01*
X506490D02*
X507290D01*
X535990Y275203D02*
X536990D01*
X533990D02*
X534790D01*
X530840D02*
X531590D01*
X528840D02*
X529640D01*
X525690D02*
X526440D01*
X523390D02*
X524290D01*
X520540D02*
X521590D01*
X515440D02*
X516290D01*
X512690D02*
X513440D01*
X510790D02*
X511690D01*
X506490D02*
X507290D01*
X535990Y275253D02*
X536940D01*
X533990D02*
X534790D01*
X530840D02*
X531590D01*
X528840D02*
X529640D01*
X525690D02*
X526440D01*
X523490D02*
X524340D01*
X520540D02*
X521540D01*
X515440D02*
X516290D01*
X512690D02*
X513440D01*
X510790D02*
X511640D01*
X506540D02*
X507340D01*
X535940Y275303D02*
X536890D01*
X533990D02*
X534790D01*
X530840D02*
X531590D01*
X528840D02*
X529640D01*
X525690D02*
X526440D01*
X523490D02*
X524390D01*
X520490D02*
X521490D01*
X515490D02*
X516240D01*
X512690D02*
X513440D01*
X510790D02*
X511640D01*
X506540D02*
X507340D01*
X535940Y275353D02*
X536840D01*
X533990D02*
X534790D01*
X530840D02*
X531590D01*
X528840D02*
X529640D01*
X525690D02*
X526440D01*
X523540D02*
X524390D01*
X520490D02*
X521440D01*
X515490D02*
X516240D01*
X512690D02*
X513440D01*
X510740D02*
X511640D01*
X506590D02*
X507340D01*
X535890Y275403D02*
X536790D01*
X533990D02*
X534790D01*
X530840D02*
X531590D01*
X528840D02*
X529640D01*
X525690D02*
X526440D01*
X523590D02*
X524440D01*
X520490D02*
X521390D01*
X515490D02*
X516240D01*
X512690D02*
X513440D01*
X510740D02*
X511590D01*
X506590D02*
X507390D01*
X535890Y275453D02*
X536790D01*
X533990D02*
X534790D01*
X530840D02*
X531590D01*
X528840D02*
X529640D01*
X525690D02*
X526440D01*
X523640D02*
X524440D01*
X520440D02*
X521340D01*
X515490D02*
X516290D01*
X512690D02*
X513440D01*
X510740D02*
X511590D01*
X506590D02*
X507390D01*
X535890Y275503D02*
X536740D01*
X533990D02*
X534790D01*
X530840D02*
X531590D01*
X528840D02*
X529640D01*
X525690D02*
X526440D01*
X523690D02*
X524490D01*
X520440D02*
X521340D01*
X515540D02*
X516290D01*
X512690D02*
X513440D01*
X510690D02*
X511590D01*
X506640D02*
X507390D01*
X535840Y275553D02*
X536740D01*
X533990D02*
X534790D01*
X530840D02*
X531590D01*
X528840D02*
X529640D01*
X525690D02*
X526440D01*
X523690D02*
X524490D01*
X520390D02*
X521290D01*
X515540D02*
X516290D01*
X512690D02*
X513440D01*
X510690D02*
X511540D01*
X506640D02*
X507440D01*
X535840Y275603D02*
X536690D01*
X533990D02*
X534790D01*
X530840D02*
X531590D01*
X528840D02*
X529640D01*
X525690D02*
X526440D01*
X523740D02*
X524540D01*
X520390D02*
X521290D01*
X515540D02*
X516340D01*
X512690D02*
X513440D01*
X510690D02*
X511540D01*
X506640D02*
X507440D01*
X535840Y275653D02*
X536640D01*
X533990D02*
X534790D01*
X530840D02*
X531590D01*
X528840D02*
X529640D01*
X525690D02*
X526440D01*
X523740D02*
X524540D01*
X520390D02*
X521240D01*
X515590D02*
X516390D01*
X512690D02*
X513440D01*
X510640D02*
X511490D01*
X506690D02*
X507490D01*
X535790Y275703D02*
X536640D01*
X533990D02*
X534790D01*
X530840D02*
X531590D01*
X528840D02*
X529640D01*
X525690D02*
X526440D01*
X523790D02*
X524590D01*
X520340D02*
X521240D01*
X515640D02*
X516440D01*
X512690D02*
X513440D01*
X510640D02*
X511490D01*
X506690D02*
X507490D01*
X535790Y275753D02*
X536640D01*
X533990D02*
X534790D01*
X530840D02*
X531590D01*
X528840D02*
X529640D01*
X525690D02*
X526440D01*
X523790D02*
X524590D01*
X520340D02*
X521190D01*
X516790D02*
X517790D01*
X515640D02*
X516540D01*
X512690D02*
X513440D01*
X510640D02*
X511490D01*
X506690D02*
X507490D01*
X535790Y275803D02*
X536590D01*
X533990D02*
X534790D01*
X530840D02*
X531590D01*
X528840D02*
X529640D01*
X525690D02*
X526440D01*
X523840D02*
X524590D01*
X520340D02*
X521190D01*
X515690D02*
X518040D01*
X512690D02*
X513440D01*
X510590D02*
X511440D01*
X506740D02*
X507540D01*
X535790Y275853D02*
X536590D01*
X533990D02*
X534790D01*
X530840D02*
X531590D01*
X528840D02*
X529640D01*
X525690D02*
X526440D01*
X523840D02*
X524640D01*
X520340D02*
X521140D01*
X515740D02*
X518190D01*
X512690D02*
X513440D01*
X510590D02*
X511440D01*
X506740D02*
X507540D01*
X535740Y275903D02*
X536590D01*
X533990D02*
X534790D01*
X530840D02*
X531590D01*
X528840D02*
X529640D01*
X525690D02*
X526440D01*
X523840D02*
X524640D01*
X520290D02*
X521140D01*
X515840D02*
X518340D01*
X512690D02*
X513440D01*
X510540D02*
X511440D01*
X506790D02*
X507540D01*
X535740Y275953D02*
X536540D01*
X533990D02*
X534790D01*
X530840D02*
X531590D01*
X528840D02*
X529640D01*
X525690D02*
X526440D01*
X523890D02*
X524640D01*
X520290D02*
X521140D01*
X515890D02*
X518440D01*
X512690D02*
X513440D01*
X510540D02*
X511390D01*
X506790D02*
X507590D01*
X535740Y276003D02*
X536540D01*
X533990D02*
X534790D01*
X530840D02*
X531590D01*
X528840D02*
X529640D01*
X525690D02*
X526440D01*
X523890D02*
X524690D01*
X520290D02*
X521140D01*
X515990D02*
X518540D01*
X512690D02*
X513440D01*
X506790D02*
X511390D01*
X535740Y276053D02*
X536540D01*
X533990D02*
X534790D01*
X530840D02*
X531590D01*
X528840D02*
X529640D01*
X525690D02*
X526440D01*
X523890D02*
X524690D01*
X520290D02*
X521090D01*
X515940D02*
X518640D01*
X512690D02*
X513440D01*
X506840D02*
X511340D01*
X535740Y276103D02*
X536540D01*
X533990D02*
X534790D01*
X530840D02*
X531590D01*
X528840D02*
X529640D01*
X525690D02*
X526440D01*
X523890D02*
X524690D01*
X520290D02*
X521090D01*
X515840D02*
X518690D01*
X512690D02*
X513440D01*
X506840D02*
X511340D01*
X535690Y276153D02*
X536540D01*
X533990D02*
X534790D01*
X530840D02*
X531590D01*
X528840D02*
X529640D01*
X525690D02*
X526440D01*
X523940D02*
X524690D01*
X520290D02*
X521090D01*
X515790D02*
X518790D01*
X512690D02*
X513440D01*
X506840D02*
X511340D01*
X535690Y276203D02*
X536490D01*
X533990D02*
X534790D01*
X530840D02*
X531590D01*
X528840D02*
X529640D01*
X525690D02*
X526440D01*
X523940D02*
X524740D01*
X520240D02*
X521090D01*
X515740D02*
X518840D01*
X512690D02*
X513440D01*
X506890D02*
X511290D01*
X535690Y276253D02*
X536490D01*
X533990D02*
X534790D01*
X530840D02*
X531590D01*
X528840D02*
X529640D01*
X525690D02*
X526440D01*
X523940D02*
X524740D01*
X520240D02*
X521040D01*
X515690D02*
X518890D01*
X512690D02*
X513440D01*
X506890D02*
X511290D01*
X535690Y276303D02*
X536490D01*
X533990D02*
X534790D01*
X530840D02*
X531590D01*
X528840D02*
X529640D01*
X525690D02*
X526440D01*
X523940D02*
X524740D01*
X520240D02*
X521040D01*
X517540D02*
X518940D01*
X515640D02*
X517090D01*
X512690D02*
X513440D01*
X506940D02*
X511290D01*
X535690Y276353D02*
X536490D01*
X533990D02*
X534790D01*
X530840D02*
X531590D01*
X528840D02*
X529640D01*
X525690D02*
X526440D01*
X523940D02*
X524740D01*
X520240D02*
X521040D01*
X517840D02*
X518990D01*
X515590D02*
X516840D01*
X512690D02*
X513440D01*
X506940D02*
X511240D01*
X535690Y276403D02*
X536490D01*
X533990D02*
X534790D01*
X530840D02*
X531590D01*
X528840D02*
X529640D01*
X525690D02*
X526440D01*
X523990D02*
X524740D01*
X520240D02*
X521040D01*
X517990D02*
X519040D01*
X515540D02*
X516690D01*
X512690D02*
X513440D01*
X506940D02*
X511240D01*
X535690Y276453D02*
X536490D01*
X533990D02*
X534790D01*
X530840D02*
X531590D01*
X528840D02*
X529640D01*
X525690D02*
X526440D01*
X523990D02*
X524740D01*
X520240D02*
X521040D01*
X518090D02*
X519090D01*
X515540D02*
X516590D01*
X512690D02*
X513440D01*
X506990D02*
X511240D01*
X535690Y276503D02*
X536490D01*
X533990D02*
X534790D01*
X530840D02*
X531590D01*
X528840D02*
X529640D01*
X525690D02*
X526440D01*
X523990D02*
X524790D01*
X520240D02*
X521040D01*
X518190D02*
X519140D01*
X515490D02*
X516540D01*
X512690D02*
X513440D01*
X506990D02*
X511190D01*
X535690Y276553D02*
X536490D01*
X533990D02*
X534790D01*
X530840D02*
X531590D01*
X528840D02*
X529640D01*
X525690D02*
X526440D01*
X523990D02*
X524790D01*
X520240D02*
X521040D01*
X518240D02*
X519140D01*
X515490D02*
X516440D01*
X512690D02*
X513490D01*
X506990D02*
X511190D01*
X535690Y276603D02*
X536490D01*
X533990D02*
X534790D01*
X530840D02*
X531590D01*
X528840D02*
X529640D01*
X525690D02*
X526440D01*
X523990D02*
X524790D01*
X520240D02*
X521040D01*
X518290D02*
X519190D01*
X515440D02*
X516390D01*
X512690D02*
X513490D01*
X510340D02*
X511140D01*
X507040D02*
X507790D01*
X535690Y276653D02*
X536490D01*
X533990D02*
X534790D01*
X530840D02*
X531590D01*
X528840D02*
X529640D01*
X525690D02*
X526440D01*
X523990D02*
X524790D01*
X520240D02*
X521040D01*
X518390D02*
X519240D01*
X515440D02*
X516340D01*
X512690D02*
X513490D01*
X510290D02*
X511140D01*
X507040D02*
X507840D01*
X535690Y276703D02*
X536490D01*
X533990D02*
X534790D01*
X530840D02*
X531590D01*
X528840D02*
X529640D01*
X525690D02*
X526440D01*
X523990D02*
X524790D01*
X520240D02*
X521040D01*
X518390D02*
X519240D01*
X515390D02*
X516290D01*
X512690D02*
X513490D01*
X510290D02*
X511140D01*
X507090D02*
X507840D01*
X535690Y276753D02*
X536490D01*
X533990D02*
X534790D01*
X530840D02*
X531590D01*
X528840D02*
X529640D01*
X525690D02*
X526440D01*
X523990D02*
X524790D01*
X520240D02*
X521040D01*
X518440D02*
X519290D01*
X515390D02*
X516240D01*
X512690D02*
X513490D01*
X510290D02*
X511090D01*
X507090D02*
X507840D01*
X535690Y276803D02*
X536490D01*
X533990D02*
X534790D01*
X530840D02*
X531590D01*
X528840D02*
X529640D01*
X525690D02*
X526440D01*
X523990D02*
X524790D01*
X520240D02*
X521040D01*
X518490D02*
X519290D01*
X515390D02*
X516240D01*
X512690D02*
X513490D01*
X510240D02*
X511090D01*
X507090D02*
X507890D01*
X535690Y276853D02*
X536490D01*
X533990D02*
X534790D01*
X530840D02*
X531590D01*
X528840D02*
X529640D01*
X525690D02*
X526440D01*
X523990D02*
X524790D01*
X520240D02*
X521040D01*
X518540D02*
X519290D01*
X515340D02*
X516190D01*
X512690D02*
X513490D01*
X510240D02*
X511090D01*
X507140D02*
X507890D01*
X535690Y276903D02*
X536490D01*
X533990D02*
X534790D01*
X530840D02*
X531590D01*
X528840D02*
X529640D01*
X525690D02*
X526440D01*
X523990D02*
X524790D01*
X520240D02*
X521040D01*
X518540D02*
X519340D01*
X515340D02*
X516140D01*
X512690D02*
X513490D01*
X510190D02*
X511040D01*
X507140D02*
X507890D01*
X535690Y276953D02*
X539790D01*
X533990D02*
X534790D01*
X530840D02*
X531590D01*
X528840D02*
X529640D01*
X525690D02*
X526440D01*
X523990D02*
X524790D01*
X520240D02*
X521040D01*
X518590D02*
X519340D01*
X515340D02*
X516140D01*
X512690D02*
X513490D01*
X510190D02*
X511040D01*
X507140D02*
X507940D01*
X535690Y277003D02*
X539790D01*
X533990D02*
X534790D01*
X530840D02*
X531640D01*
X528840D02*
X529640D01*
X525690D02*
X526440D01*
X523990D02*
X524790D01*
X520240D02*
X521040D01*
X518590D02*
X519340D01*
X515290D02*
X516140D01*
X512690D02*
X513490D01*
X510190D02*
X510990D01*
X507190D02*
X507940D01*
X535690Y277053D02*
X539790D01*
X533990D02*
X534790D01*
X530840D02*
X531640D01*
X528840D02*
X529640D01*
X525690D02*
X526440D01*
X523990D02*
X524790D01*
X520240D02*
X521040D01*
X518590D02*
X519390D01*
X515290D02*
X516090D01*
X512690D02*
X513490D01*
X510140D02*
X510990D01*
X507190D02*
X507940D01*
X535690Y277103D02*
X539790D01*
X533990D02*
X534790D01*
X530840D02*
X531640D01*
X528840D02*
X529640D01*
X525690D02*
X526440D01*
X523990D02*
X524790D01*
X520240D02*
X521040D01*
X518640D02*
X519390D01*
X515290D02*
X516090D01*
X512690D02*
X513490D01*
X510140D02*
X510990D01*
X507240D02*
X507990D01*
X535690Y277153D02*
X539790D01*
X533990D02*
X534790D01*
X530840D02*
X531640D01*
X528840D02*
X529640D01*
X525690D02*
X526490D01*
X523990D02*
X524790D01*
X520240D02*
X521040D01*
X518640D02*
X519390D01*
X515290D02*
X516090D01*
X512690D02*
X513540D01*
X510140D02*
X510940D01*
X507240D02*
X507990D01*
X535690Y277203D02*
X539790D01*
X533990D02*
X534790D01*
X530840D02*
X531640D01*
X528840D02*
X529640D01*
X525690D02*
X526490D01*
X523990D02*
X524790D01*
X520240D02*
X521040D01*
X518640D02*
X519390D01*
X515290D02*
X516090D01*
X512690D02*
X513540D01*
X510090D02*
X510940D01*
X507240D02*
X508040D01*
X535690Y277253D02*
X539790D01*
X533990D02*
X534790D01*
X530840D02*
X531640D01*
X528840D02*
X529640D01*
X525690D02*
X526490D01*
X523990D02*
X524740D01*
X520240D02*
X521040D01*
X518640D02*
X519440D01*
X515290D02*
X516040D01*
X512690D02*
X513540D01*
X510090D02*
X510940D01*
X507290D02*
X508040D01*
X535690Y277303D02*
X539790D01*
X533990D02*
X534790D01*
X530840D02*
X531640D01*
X528840D02*
X529640D01*
X525690D02*
X526490D01*
X523940D02*
X524790D01*
X520290D02*
X521040D01*
X518690D02*
X519440D01*
X515290D02*
X516040D01*
X512690D02*
X513540D01*
X510040D02*
X510890D01*
X507290D02*
X508040D01*
X535740Y277353D02*
X539790D01*
X533990D02*
X534790D01*
X530840D02*
X531690D01*
X528840D02*
X529640D01*
X525690D02*
X526490D01*
X523940D02*
X524740D01*
X520290D02*
X521090D01*
X518690D02*
X519440D01*
X515290D02*
X516040D01*
X512690D02*
X513540D01*
X510040D02*
X510890D01*
X507290D02*
X508090D01*
X535740Y277403D02*
X539790D01*
X533990D02*
X534790D01*
X530840D02*
X531690D01*
X528840D02*
X529640D01*
X525690D02*
X526540D01*
X523940D02*
X524740D01*
X520290D02*
X521090D01*
X518690D02*
X519440D01*
X515290D02*
X516040D01*
X512690D02*
X513540D01*
X510040D02*
X510840D01*
X507340D02*
X508090D01*
X535740Y277453D02*
X539790D01*
X533990D02*
X534790D01*
X530840D02*
X531690D01*
X528840D02*
X529640D01*
X525690D02*
X526540D01*
X523940D02*
X524740D01*
X520290D02*
X521090D01*
X518690D02*
X519440D01*
X515290D02*
X516040D01*
X512690D02*
X513590D01*
X509990D02*
X510840D01*
X507340D02*
X508090D01*
X535740Y277503D02*
X539790D01*
X533990D02*
X534790D01*
X530840D02*
X531690D01*
X528840D02*
X529640D01*
X525690D02*
X526540D01*
X523940D02*
X524740D01*
X520290D02*
X521090D01*
X518690D02*
X519440D01*
X515290D02*
X516040D01*
X512690D02*
X513590D01*
X509990D02*
X510840D01*
X507390D02*
X508140D01*
X538990Y277553D02*
X539790D01*
X535740D02*
X536540D01*
X533990D02*
X534790D01*
X530840D02*
X531740D01*
X528840D02*
X529640D01*
X525690D02*
X526540D01*
X523940D02*
X524740D01*
X520340D02*
X521090D01*
X518690D02*
X519440D01*
X515290D02*
X516040D01*
X512690D02*
X513590D01*
X509990D02*
X510790D01*
X507390D02*
X508140D01*
X538990Y277603D02*
X539790D01*
X535790D02*
X536540D01*
X533990D02*
X534790D01*
X530840D02*
X531740D01*
X528840D02*
X529640D01*
X525690D02*
X526590D01*
X523890D02*
X524740D01*
X520340D02*
X521140D01*
X518690D02*
X519440D01*
X515290D02*
X516040D01*
X512690D02*
X513590D01*
X509940D02*
X510790D01*
X507390D02*
X508190D01*
X538990Y277653D02*
X539790D01*
X535790D02*
X536540D01*
X533990D02*
X534790D01*
X530840D02*
X531740D01*
X528840D02*
X529640D01*
X525690D02*
X526590D01*
X523890D02*
X524690D01*
X520340D02*
X521140D01*
X518690D02*
X519440D01*
X515290D02*
X516040D01*
X512690D02*
X513640D01*
X509940D02*
X510790D01*
X507440D02*
X508190D01*
X538990Y277703D02*
X539740D01*
X535790D02*
X536540D01*
X533990D02*
X534790D01*
X530840D02*
X531790D01*
X528840D02*
X529640D01*
X525690D02*
X526590D01*
X523890D02*
X524690D01*
X520390D02*
X521140D01*
X518690D02*
X519440D01*
X515290D02*
X516040D01*
X512690D02*
X513640D01*
X509940D02*
X510740D01*
X507440D02*
X508190D01*
X538990Y277753D02*
X539740D01*
X535790D02*
X536540D01*
X533990D02*
X534790D01*
X530840D02*
X531790D01*
X528840D02*
X529590D01*
X525690D02*
X526640D01*
X523840D02*
X524690D01*
X520390D02*
X521190D01*
X518640D02*
X519440D01*
X515290D02*
X516040D01*
X512690D02*
X513640D01*
X509890D02*
X510740D01*
X507440D02*
X508240D01*
X538990Y277803D02*
X539740D01*
X535840D02*
X536590D01*
X533990D02*
X534790D01*
X530840D02*
X531840D01*
X528840D02*
X529640D01*
X525690D02*
X526640D01*
X523840D02*
X524690D01*
X520390D02*
X521190D01*
X518640D02*
X519440D01*
X515290D02*
X516090D01*
X512690D02*
X513690D01*
X509890D02*
X510690D01*
X507490D02*
X508240D01*
X538940Y277853D02*
X539740D01*
X535840D02*
X536590D01*
X533990D02*
X534790D01*
X530840D02*
X531840D01*
X528840D02*
X529640D01*
X525690D02*
X526690D01*
X523840D02*
X524690D01*
X520440D02*
X521240D01*
X518640D02*
X519440D01*
X515340D02*
X516090D01*
X512690D02*
X513690D01*
X509840D02*
X510690D01*
X507490D02*
X508240D01*
X538940Y277903D02*
X539740D01*
X535840D02*
X536640D01*
X533990D02*
X534790D01*
X530840D02*
X531890D01*
X528840D02*
X529590D01*
X525690D02*
X526690D01*
X523790D02*
X524640D01*
X520440D02*
X521240D01*
X518640D02*
X519390D01*
X515340D02*
X516090D01*
X512690D02*
X513740D01*
X509840D02*
X510690D01*
X507490D02*
X508290D01*
X538940Y277953D02*
X539690D01*
X535890D02*
X536640D01*
X533990D02*
X534790D01*
X530840D02*
X531890D01*
X528840D02*
X529590D01*
X525690D02*
X526740D01*
X523790D02*
X524640D01*
X520440D02*
X521290D01*
X518640D02*
X519390D01*
X515340D02*
X516090D01*
X512690D02*
X513740D01*
X509840D02*
X510640D01*
X507540D02*
X508290D01*
X538940Y278003D02*
X539690D01*
X535890D02*
X536640D01*
X533990D02*
X534790D01*
X530840D02*
X531940D01*
X528790D02*
X529590D01*
X525690D02*
X526740D01*
X523740D02*
X524640D01*
X520490D02*
X521290D01*
X518590D02*
X519390D01*
X515340D02*
X516140D01*
X512690D02*
X513790D01*
X509790D02*
X510640D01*
X507540D02*
X508290D01*
X538890Y278053D02*
X539690D01*
X535940D02*
X536690D01*
X533990D02*
X534790D01*
X530840D02*
X531940D01*
X528790D02*
X529590D01*
X525690D02*
X526790D01*
X523740D02*
X524590D01*
X520490D02*
X521340D01*
X518590D02*
X519390D01*
X515390D02*
X516140D01*
X512690D02*
X513790D01*
X509790D02*
X510640D01*
X507590D02*
X508340D01*
X538890Y278103D02*
X539690D01*
X535940D02*
X536690D01*
X533940D02*
X534740D01*
X530840D02*
X531990D01*
X528790D02*
X529590D01*
X525690D02*
X526840D01*
X523690D02*
X524590D01*
X520540D02*
X521340D01*
X518590D02*
X519340D01*
X515390D02*
X516190D01*
X512690D02*
X513840D01*
X509790D02*
X510590D01*
X507590D02*
X508340D01*
X538890Y278153D02*
X539640D01*
X535940D02*
X536740D01*
X533940D02*
X534740D01*
X530840D02*
X532040D01*
X528790D02*
X529590D01*
X525690D02*
X526840D01*
X523690D02*
X524540D01*
X520540D02*
X521390D01*
X518540D02*
X519340D01*
X515390D02*
X516190D01*
X512690D02*
X513840D01*
X509740D02*
X510590D01*
X507590D02*
X508390D01*
X538840Y278203D02*
X539640D01*
X535990D02*
X536790D01*
X533940D02*
X534740D01*
X530840D02*
X532040D01*
X528740D02*
X529590D01*
X525690D02*
X526890D01*
X523640D02*
X524540D01*
X520590D02*
X521440D01*
X518540D02*
X519340D01*
X515440D02*
X516240D01*
X512690D02*
X513890D01*
X509740D02*
X510590D01*
X507640D02*
X508390D01*
X538790Y278253D02*
X539640D01*
X535990D02*
X536790D01*
X533890D02*
X534740D01*
X530840D02*
X532090D01*
X528740D02*
X529590D01*
X526390D02*
X526940D01*
X525690D02*
X526340D01*
X523590D02*
X524540D01*
X520590D02*
X521490D01*
X518490D02*
X519290D01*
X515440D02*
X516240D01*
X512690D02*
X513940D01*
X509690D02*
X510540D01*
X507640D02*
X508390D01*
X538790Y278303D02*
X539590D01*
X536040D02*
X536840D01*
X533890D02*
X534740D01*
X531590D02*
X532140D01*
X530840D02*
X531540D01*
X528740D02*
X529540D01*
X525690D02*
X526990D01*
X523540D02*
X524490D01*
X520640D02*
X521540D01*
X518440D02*
X519290D01*
X515490D02*
X516290D01*
X513440D02*
X513990D01*
X512690D02*
X513390D01*
X509690D02*
X510540D01*
X507640D02*
X508440D01*
X538740Y278353D02*
X539590D01*
X536090D02*
X536890D01*
X533840D02*
X534690D01*
X531590D02*
X532190D01*
X530840D02*
X531540D01*
X528690D02*
X529540D01*
X526440D02*
X527040D01*
X525690D02*
X526390D01*
X523490D02*
X524490D01*
X520690D02*
X521590D01*
X518390D02*
X519240D01*
X515490D02*
X516340D01*
X513440D02*
X514040D01*
X512690D02*
X513390D01*
X509690D02*
X510490D01*
X507690D02*
X508440D01*
X538690Y278403D02*
X539540D01*
X536090D02*
X536940D01*
X533840D02*
X534690D01*
X531640D02*
X532240D01*
X530840D02*
X531540D01*
X528640D02*
X529540D01*
X526440D02*
X527090D01*
X525690D02*
X526390D01*
X523440D02*
X524440D01*
X520690D02*
X521640D01*
X518390D02*
X519190D01*
X515540D02*
X516390D01*
X513490D02*
X514090D01*
X512690D02*
X513390D01*
X509640D02*
X510490D01*
X507690D02*
X508440D01*
X538640Y278453D02*
X539540D01*
X536140D02*
X536990D01*
X533790D02*
X534690D01*
X531640D02*
X532290D01*
X530840D02*
X531540D01*
X528640D02*
X529540D01*
X526490D02*
X527140D01*
X525690D02*
X526390D01*
X523390D02*
X524390D01*
X520740D02*
X521690D01*
X518340D02*
X519190D01*
X515590D02*
X516440D01*
X513490D02*
X514190D01*
X512690D02*
X513390D01*
X509640D02*
X510490D01*
X507740D02*
X508490D01*
X538590Y278503D02*
X539490D01*
X536140D02*
X537040D01*
X533740D02*
X534690D01*
X531690D02*
X532390D01*
X530840D02*
X531540D01*
X528590D02*
X529490D01*
X526540D02*
X527240D01*
X525690D02*
X526390D01*
X523340D02*
X524390D01*
X520790D02*
X521740D01*
X518240D02*
X519140D01*
X515590D02*
X516490D01*
X513540D02*
X514240D01*
X512690D02*
X513390D01*
X509640D02*
X510440D01*
X507740D02*
X508490D01*
X538540Y278553D02*
X539490D01*
X536190D02*
X537090D01*
X533690D02*
X534640D01*
X531740D02*
X532440D01*
X530840D02*
X531540D01*
X528540D02*
X529490D01*
X526540D02*
X527290D01*
X525690D02*
X526390D01*
X523240D02*
X524340D01*
X520840D02*
X521840D01*
X518190D02*
X519090D01*
X515640D02*
X516590D01*
X513540D02*
X514340D01*
X512690D02*
X513390D01*
X509590D02*
X510440D01*
X507740D02*
X508540D01*
X538440Y278603D02*
X539440D01*
X536240D02*
X537190D01*
X533640D02*
X534640D01*
X531740D02*
X532540D01*
X530840D02*
X531540D01*
X528440D02*
X529490D01*
X526590D02*
X527390D01*
X525690D02*
X526390D01*
X523140D02*
X524290D01*
X520890D02*
X521940D01*
X518090D02*
X519040D01*
X515690D02*
X516690D01*
X513590D02*
X514540D01*
X512690D02*
X513440D01*
X509590D02*
X510440D01*
X507790D02*
X508540D01*
X538340Y278653D02*
X539390D01*
X536290D02*
X537290D01*
X533540D02*
X534590D01*
X531790D02*
X532690D01*
X530840D02*
X531590D01*
X528340D02*
X529440D01*
X526640D02*
X527490D01*
X525690D02*
X526390D01*
X522990D02*
X524290D01*
X520890D02*
X522090D01*
X517990D02*
X518990D01*
X515740D02*
X516790D01*
X513590D02*
X515090D01*
X512690D02*
X513440D01*
X509590D02*
X510390D01*
X507790D02*
X508540D01*
X538240Y278703D02*
X539340D01*
X536340D02*
X537390D01*
X533340D02*
X534590D01*
X531840D02*
X532840D01*
X530840D02*
X531590D01*
X528190D02*
X529440D01*
X526690D02*
X527690D01*
X525690D02*
X526390D01*
X522740D02*
X524240D01*
X520940D02*
X522340D01*
X517840D02*
X519890D01*
X515790D02*
X516940D01*
X513640D02*
X515090D01*
X512690D02*
X513440D01*
X509540D02*
X510390D01*
X507790D02*
X508590D01*
X538040Y278753D02*
X539340D01*
X536390D02*
X537640D01*
X531890D02*
X534540D01*
X530840D02*
X531590D01*
X526690D02*
X529390D01*
X525690D02*
X526390D01*
X520990D02*
X524190D01*
X517590D02*
X519890D01*
X517490D02*
X517540D01*
X517240D02*
X517290D01*
X515790D02*
X517190D01*
X513690D02*
X515090D01*
X512690D02*
X513440D01*
X509540D02*
X510340D01*
X507840D02*
X508590D01*
X536440Y278803D02*
X539290D01*
X531940D02*
X534540D01*
X530840D02*
X531590D01*
X526740D02*
X529340D01*
X525690D02*
X526390D01*
X521040D02*
X524140D01*
X515890D02*
X519890D01*
X513740D02*
X515090D01*
X512690D02*
X513440D01*
X509490D02*
X510340D01*
X507840D02*
X508590D01*
X536490Y278853D02*
X539240D01*
X531990D02*
X534490D01*
X530840D02*
X531590D01*
X526790D02*
X529340D01*
X525690D02*
X526440D01*
X521140D02*
X524090D01*
X515940D02*
X519890D01*
X513740D02*
X515090D01*
X512690D02*
X513440D01*
X509490D02*
X510340D01*
X507890D02*
X508640D01*
X536540Y278903D02*
X539190D01*
X532040D02*
X534440D01*
X530840D02*
X531590D01*
X526840D02*
X529290D01*
X525690D02*
X526440D01*
X521190D02*
X524040D01*
X515990D02*
X519890D01*
X513790D02*
X515090D01*
X512690D02*
X513440D01*
X509490D02*
X510290D01*
X507890D02*
X508640D01*
X536590Y278953D02*
X539140D01*
X532090D02*
X534390D01*
X530840D02*
X531590D01*
X526940D02*
X529240D01*
X525690D02*
X526440D01*
X521240D02*
X523940D01*
X516040D02*
X519890D01*
X513840D02*
X515090D01*
X512690D02*
X513440D01*
X509440D02*
X510290D01*
X507890D02*
X508640D01*
X536640Y279003D02*
X539040D01*
X532140D02*
X534340D01*
X530840D02*
X531590D01*
X526990D02*
X529190D01*
X525690D02*
X526440D01*
X521340D02*
X523890D01*
X516140D02*
X519890D01*
X513890D02*
X515090D01*
X512690D02*
X513440D01*
X509440D02*
X510290D01*
X507940D02*
X508690D01*
X536740Y279053D02*
X538990D01*
X532190D02*
X534290D01*
X530840D02*
X531590D01*
X527040D02*
X529140D01*
X525690D02*
X526440D01*
X521390D02*
X523790D01*
X516190D02*
X519840D01*
X513940D02*
X515090D01*
X512690D02*
X513440D01*
X509440D02*
X510240D01*
X507940D02*
X508690D01*
X536840Y279103D02*
X538890D01*
X532290D02*
X534240D01*
X530840D02*
X531590D01*
X527140D02*
X529090D01*
X525690D02*
X526440D01*
X521490D02*
X523740D01*
X516290D02*
X519890D01*
X514040D02*
X515090D01*
X512690D02*
X513440D01*
X509390D02*
X510240D01*
X507940D02*
X508740D01*
X536940Y279153D02*
X538790D01*
X532390D02*
X534190D01*
X530840D02*
X531590D01*
X527240D02*
X528990D01*
X525690D02*
X526440D01*
X521590D02*
X523590D01*
X516390D02*
X519890D01*
X514090D02*
X515090D01*
X512690D02*
X513440D01*
X509390D02*
X510190D01*
X507990D02*
X508740D01*
X537040Y279203D02*
X538690D01*
X532490D02*
X534090D01*
X530840D02*
X531590D01*
X527340D02*
X528940D01*
X525690D02*
X526440D01*
X521740D02*
X523490D01*
X516540D02*
X519890D01*
X514190D02*
X515090D01*
X512690D02*
X513440D01*
X509340D02*
X510190D01*
X507990D02*
X508740D01*
X537190Y279253D02*
X538540D01*
X532640D02*
X533940D01*
X530840D02*
X531590D01*
X527440D02*
X528790D01*
X525690D02*
X526440D01*
X521890D02*
X523340D01*
X516690D02*
X519840D01*
X514290D02*
X515090D01*
X512690D02*
X513440D01*
X509340D02*
X510190D01*
X508040D02*
X508790D01*
X537340Y279303D02*
X538340D01*
X532790D02*
X533790D01*
X527640D02*
X528640D01*
X522090D02*
X523140D01*
X516890D02*
X518090D01*
X514440D02*
X515090D01*
X509340D02*
X510140D01*
X508040D02*
X508790D01*
X537740Y279353D02*
X537990D01*
X533240D02*
X533540D01*
X533140D02*
X533190D01*
X533040D02*
X533090D01*
X528340D02*
X528390D01*
X528240D02*
X528290D01*
X527890D02*
X528190D01*
X522490D02*
X522740D01*
X517290D02*
X517540D01*
X514640D02*
X515090D01*
X509290D02*
X510140D01*
X508040D02*
X508790D01*
X509290Y279403D02*
X510140D01*
X508090D02*
X508840D01*
X509290Y279453D02*
X510090D01*
X508090D02*
X508840D01*
X509240Y279503D02*
X510090D01*
X508090D02*
X508840D01*
X509240Y279553D02*
X510040D01*
X508140D02*
X508890D01*
X509240Y279603D02*
X510040D01*
X508140D02*
X508890D01*
X509190Y279653D02*
X510040D01*
X508190D02*
X508890D01*
X509190Y279703D02*
X509990D01*
X508190D02*
X508940D01*
X509190Y279753D02*
X509990D01*
X508190D02*
X508940D01*
X509140Y279803D02*
X509990D01*
X508240D02*
X508940D01*
X509140Y279853D02*
X509940D01*
X508240D02*
X508990D01*
X509140Y279903D02*
X509940D01*
X508240D02*
X508990D01*
X509140Y279953D02*
X509940D01*
X508290D02*
X508990D01*
X509090Y280003D02*
X509890D01*
X508290D02*
X508990D01*
X509090Y280053D02*
X509890D01*
X508340D02*
X509040D01*
X509090Y280103D02*
X509840D01*
X508340D02*
X509040D01*
X508340Y280153D02*
X509840D01*
X508390Y280203D02*
X509840D01*
X508390Y280253D02*
X509790D01*
X508390Y280303D02*
X509790D01*
X508440Y280353D02*
X509790D01*
X508440Y280403D02*
X509740D01*
X508440Y280453D02*
X509740D01*
X508490Y280503D02*
X509690D01*
X508490Y280553D02*
X509690D01*
X508540Y280603D02*
X509690D01*
X508540Y280653D02*
X509640D01*
X508540Y280703D02*
X509640D01*
X508590Y280753D02*
X509640D01*
X508590Y280803D02*
X509590D01*
X508590Y280853D02*
X509590D01*
X508640Y280903D02*
X509540D01*
X508640Y280953D02*
X509540D01*
X508690Y281003D02*
X509540D01*
X516790Y282853D02*
X528240D01*
X516740Y282903D02*
X528290D01*
X516740Y282953D02*
X528290D01*
X516690Y283003D02*
X528340D01*
X516690Y283053D02*
X528340D01*
X516640Y283103D02*
X528390D01*
X516590Y283153D02*
X528440D01*
X516590Y283203D02*
X528440D01*
X516540Y283253D02*
X528490D01*
X516540Y283303D02*
X528490D01*
X516490Y283353D02*
X528540D01*
X516440Y283403D02*
X528540D01*
X516440Y283453D02*
X528590D01*
X516390Y283503D02*
X528640D01*
X516390Y283553D02*
X528640D01*
X516340Y283603D02*
X528690D01*
X516340Y283653D02*
X528690D01*
X516290Y283703D02*
X528740D01*
X516240Y283753D02*
X528740D01*
X516240Y283803D02*
X528790D01*
X516190Y283853D02*
X528840D01*
X516190Y283903D02*
X528840D01*
X516140Y283953D02*
X528890D01*
X516140Y284003D02*
X528890D01*
X516090Y284053D02*
X528940D01*
X516040Y284103D02*
X528990D01*
X516040Y284153D02*
X528990D01*
X515990Y284203D02*
X529040D01*
X515990Y284253D02*
X529040D01*
X515940Y284303D02*
X529090D01*
X515940Y284353D02*
X529090D01*
X515890Y284403D02*
X529140D01*
X515840Y284453D02*
X529190D01*
X515840Y284503D02*
X529190D01*
X515790Y284553D02*
X529240D01*
X515790Y284603D02*
X529240D01*
X515740Y284653D02*
X529290D01*
X515690Y284703D02*
X529290D01*
X515690Y284753D02*
X529340D01*
X515640Y284803D02*
X529390D01*
X515640Y284853D02*
X529390D01*
X515590Y284903D02*
X529440D01*
X515590Y284953D02*
X529440D01*
X515540Y285003D02*
X529490D01*
X515490Y285053D02*
X529540D01*
X515490Y285103D02*
X529540D01*
X515440Y285153D02*
X529590D01*
X515440Y285203D02*
X529590D01*
X515390Y285253D02*
X529640D01*
X515390Y285303D02*
X529640D01*
X515340Y285353D02*
X529690D01*
X515290Y285403D02*
X529740D01*
X515290Y285453D02*
X529740D01*
X515240Y285503D02*
X529790D01*
X515240Y285553D02*
X529790D01*
X515190Y285603D02*
X529840D01*
X515190Y285653D02*
X529840D01*
X515140Y285703D02*
X529890D01*
X515090Y285753D02*
X529940D01*
X515090Y285803D02*
X529940D01*
X515040Y285853D02*
X529990D01*
X515040Y285903D02*
X529990D01*
X514990Y285953D02*
X530040D01*
X514940Y286003D02*
X530040D01*
X514940Y286053D02*
X530090D01*
X514890Y286103D02*
X530140D01*
X514890Y286153D02*
X530140D01*
X514840Y286203D02*
X530190D01*
X514840Y286253D02*
X530190D01*
X514790Y286303D02*
X530240D01*
X514740Y286353D02*
X530290D01*
X514740Y286403D02*
X530290D01*
X514690Y286453D02*
X530340D01*
X514690Y286503D02*
X530340D01*
X514640Y286553D02*
X530390D01*
X514640Y286603D02*
X530390D01*
X514590Y286653D02*
X530440D01*
X514540Y286703D02*
X530490D01*
X514540Y286753D02*
X530490D01*
X514490Y286803D02*
X530540D01*
X514490Y286853D02*
X530540D01*
X514440Y286903D02*
X530590D01*
X514390Y286953D02*
X530590D01*
X514390Y287003D02*
X530640D01*
X514340Y287053D02*
X530690D01*
X514340Y287103D02*
X530690D01*
X514290Y287153D02*
X530740D01*
X514290Y287203D02*
X530740D01*
X514240Y287253D02*
X530790D01*
X514190Y287303D02*
X530790D01*
X514190Y287353D02*
X530840D01*
X514140Y287403D02*
X530890D01*
X514140Y287453D02*
X530890D01*
X514090Y287503D02*
X530940D01*
X514090Y287553D02*
X530940D01*
X514040Y287603D02*
X530990D01*
X513990Y287653D02*
X531040D01*
X513990Y287703D02*
X531040D01*
X513940Y287753D02*
X531090D01*
X525340Y287803D02*
X531090D01*
X513990D02*
X519640D01*
X525340Y287853D02*
X531040D01*
X513990D02*
X519690D01*
X525290Y287903D02*
X530990D01*
X514040D02*
X519690D01*
X525290Y287953D02*
X530990D01*
X514040D02*
X519740D01*
X525240Y288003D02*
X530940D01*
X514090D02*
X519790D01*
X525190Y288053D02*
X530940D01*
X514090D02*
X519790D01*
X525190Y288103D02*
X530890D01*
X514140D02*
X519840D01*
X525140Y288153D02*
X530890D01*
X514190D02*
X519840D01*
X525140Y288203D02*
X530840D01*
X514190D02*
X519890D01*
X525090Y288253D02*
X530790D01*
X514240D02*
X519940D01*
X525090Y288303D02*
X530790D01*
X514240D02*
X519940D01*
X525040Y288353D02*
X530740D01*
X514290D02*
X519990D01*
X524990Y288403D02*
X530740D01*
X514290D02*
X519990D01*
X524990Y288453D02*
X530690D01*
X514340D02*
X520040D01*
X524940Y288503D02*
X530690D01*
X514390D02*
X520040D01*
X524940Y288553D02*
X530640D01*
X514390D02*
X520090D01*
X524890Y288603D02*
X530590D01*
X514440D02*
X520140D01*
X524890Y288653D02*
X530590D01*
X514440D02*
X520140D01*
X524840Y288703D02*
X530540D01*
X514490D02*
X520190D01*
X524790Y288753D02*
X530540D01*
X514490D02*
X520190D01*
X524790Y288803D02*
X530490D01*
X514540D02*
X520240D01*
X524740Y288853D02*
X530440D01*
X514590D02*
X520240D01*
X524740Y288903D02*
X530440D01*
X514590D02*
X520290D01*
X524690Y288953D02*
X530390D01*
X514640D02*
X520340D01*
X524640Y289003D02*
X530390D01*
X514640D02*
X520340D01*
X524640Y289053D02*
X530340D01*
X514690D02*
X520390D01*
X524590Y289103D02*
X530340D01*
X514740D02*
X520390D01*
X524590Y289153D02*
X530290D01*
X514740D02*
X520440D01*
X524540Y289203D02*
X530240D01*
X514790D02*
X520440D01*
X524540Y289253D02*
X530240D01*
X514790D02*
X520490D01*
X524490Y289303D02*
X530190D01*
X514840D02*
X520540D01*
X524440Y289353D02*
X530190D01*
X514840D02*
X520540D01*
X524440Y289403D02*
X530140D01*
X514890D02*
X520590D01*
X524390Y289453D02*
X530140D01*
X514940D02*
X520590D01*
X524390Y289503D02*
X530090D01*
X514940D02*
X520640D01*
X524340Y289553D02*
X530040D01*
X514990D02*
X520690D01*
X524340Y289603D02*
X530040D01*
X514990D02*
X520690D01*
X524290Y289653D02*
X529990D01*
X515040D02*
X520740D01*
X524240Y289703D02*
X529990D01*
X515040D02*
X520740D01*
X524240Y289753D02*
X529940D01*
X515090D02*
X520790D01*
X524190Y289803D02*
X529940D01*
X515140D02*
X520790D01*
X524190Y289853D02*
X529890D01*
X515140D02*
X520840D01*
X524140Y289903D02*
X529840D01*
X515190D02*
X520890D01*
X524090Y289953D02*
X529840D01*
X515190D02*
X520890D01*
X524090Y290003D02*
X529790D01*
X515240D02*
X520940D01*
X524040Y290053D02*
X529790D01*
X515240D02*
X520940D01*
X524040Y290103D02*
X529740D01*
X515290D02*
X520990D01*
X523990Y290153D02*
X529690D01*
X515340D02*
X520990D01*
X523990Y290203D02*
X529690D01*
X515340D02*
X521040D01*
X523940Y290253D02*
X529640D01*
X515390D02*
X521090D01*
X523890Y290303D02*
X529640D01*
X515390D02*
X521090D01*
X523890Y290353D02*
X529590D01*
X515440D02*
X521140D01*
X523840Y290403D02*
X529590D01*
X515490D02*
X521140D01*
X523840Y290453D02*
X529540D01*
X515490D02*
X521190D01*
X523790Y290503D02*
X529490D01*
X515540D02*
X521190D01*
X523790Y290553D02*
X529490D01*
X515540D02*
X521240D01*
X523740Y290603D02*
X529440D01*
X515590D02*
X521290D01*
X523690Y290653D02*
X529440D01*
X515590D02*
X521290D01*
X523690Y290703D02*
X529390D01*
X515640D02*
X521340D01*
X523640Y290753D02*
X529390D01*
X515690D02*
X521340D01*
X523640Y290803D02*
X529340D01*
X515690D02*
X521390D01*
X523590Y290853D02*
X529290D01*
X515740D02*
X521440D01*
X523590Y290903D02*
X529290D01*
X515740D02*
X521440D01*
X523540Y290953D02*
X529240D01*
X515790D02*
X521490D01*
X523490Y291003D02*
X529240D01*
X515790D02*
X521490D01*
X523490Y291053D02*
X529190D01*
X515840D02*
X521540D01*
X523440Y291103D02*
X529190D01*
X515890D02*
X521540D01*
X523440Y291153D02*
X529140D01*
X515890D02*
X521590D01*
X523390Y291203D02*
X529090D01*
X515940D02*
X521640D01*
X523340Y291253D02*
X529090D01*
X515940D02*
X521640D01*
X523340Y291303D02*
X529040D01*
X515990D02*
X521690D01*
X523290Y291353D02*
X529040D01*
X516040D02*
X521690D01*
X523290Y291403D02*
X528990D01*
X516040D02*
X521740D01*
X523240Y291453D02*
X528940D01*
X516090D02*
X521740D01*
X523240Y291503D02*
X528940D01*
X516090D02*
X521790D01*
X523190Y291553D02*
X528890D01*
X516140D02*
X521840D01*
X523140Y291603D02*
X528890D01*
X516140D02*
X521840D01*
X523140Y291653D02*
X528840D01*
X516190D02*
X521890D01*
X523090Y291703D02*
X528840D01*
X516240D02*
X521890D01*
X523090Y291753D02*
X528790D01*
X516240D02*
X521940D01*
X523040Y291803D02*
X528740D01*
X516290D02*
X521940D01*
X523040Y291853D02*
X528740D01*
X516290D02*
X521990D01*
X522990Y291903D02*
X528690D01*
X516340D02*
X522040D01*
X522940Y291953D02*
X528690D01*
X516340D02*
X522040D01*
X522940Y292003D02*
X528640D01*
X516390D02*
X522090D01*
X522890Y292053D02*
X528640D01*
X516440D02*
X522090D01*
X522890Y292103D02*
X528590D01*
X516440D02*
X522140D01*
X522840Y292153D02*
X528540D01*
X516490D02*
X522190D01*
X522840Y292203D02*
X528540D01*
X516490D02*
X522190D01*
X522790Y292253D02*
X528490D01*
X516540D02*
X522240D01*
X522740Y292303D02*
X528490D01*
X516540D02*
X522240D01*
X522740Y292353D02*
X528440D01*
X516590D02*
X522290D01*
X522690Y292403D02*
X528390D01*
X516640D02*
X522290D01*
X522690Y292453D02*
X528390D01*
X516640D02*
X522340D01*
X522640Y292503D02*
X528340D01*
X516690D02*
X522390D01*
X522590Y292553D02*
X528340D01*
X516690D02*
X522390D01*
X522590Y292603D02*
X528290D01*
X516740D02*
X522440D01*
X522540Y292653D02*
X528290D01*
X516790D02*
X522440D01*
X522540Y292703D02*
X528240D01*
X516790D02*
X522490D01*
X516840Y292753D02*
X528190D01*
X516840Y292803D02*
X528190D01*
X516890Y292853D02*
X528140D01*
X516890Y292903D02*
X528140D01*
X516940Y292953D02*
X528090D01*
X516990Y293003D02*
X528040D01*
X516990Y293053D02*
X528040D01*
X517040Y293103D02*
X527990D01*
X517040Y293153D02*
X527990D01*
X517090Y293203D02*
X527940D01*
X517090Y293253D02*
X527940D01*
X517140Y293303D02*
X527890D01*
X517190Y293353D02*
X527890D01*
X517190Y293403D02*
X527840D01*
X517240Y293453D02*
X527790D01*
X517240Y293503D02*
X527790D01*
X517290Y293553D02*
X527740D01*
X517290Y293603D02*
X527740D01*
X517340Y293653D02*
X527690D01*
X517390Y293703D02*
X527640D01*
X517390Y293753D02*
X527640D01*
X517440Y293803D02*
X527590D01*
X517440Y293853D02*
X527590D01*
X517490Y293903D02*
X527540D01*
X517540Y293953D02*
X527540D01*
X517540Y294003D02*
X527490D01*
X517590Y294053D02*
X527440D01*
X517590Y294103D02*
X527440D01*
X517640Y294153D02*
X527390D01*
X517640Y294203D02*
X527390D01*
X517690Y294253D02*
X527340D01*
X517740Y294303D02*
X527340D01*
X517740Y294353D02*
X527290D01*
X517790Y294403D02*
X527240D01*
X517790Y294453D02*
X527240D01*
X517840Y294503D02*
X527190D01*
X517840Y294553D02*
X527190D01*
X517890Y294603D02*
X527140D01*
X517940Y294653D02*
X527140D01*
X517940Y294703D02*
X527090D01*
X517990Y294753D02*
X527040D01*
X517990Y294803D02*
X527040D01*
X518040Y294853D02*
X526990D01*
X518040Y294903D02*
X526990D01*
X518090Y294953D02*
X526940D01*
X518140Y295003D02*
X526890D01*
X518140Y295053D02*
X526890D01*
X518190Y295103D02*
X526840D01*
X518190Y295153D02*
X526840D01*
X518240Y295203D02*
X526790D01*
X518290Y295253D02*
X526790D01*
X518290Y295303D02*
X526740D01*
X518340Y295353D02*
X526690D01*
X518340Y295403D02*
X526690D01*
X518390Y295453D02*
X526640D01*
X518390Y295503D02*
X526640D01*
X518440Y295553D02*
X526590D01*
X518490Y295603D02*
X526590D01*
X518490Y295653D02*
X526540D01*
X518540Y295703D02*
X526490D01*
X518540Y295753D02*
X526490D01*
X518590Y295803D02*
X526440D01*
X518590Y295853D02*
X526440D01*
X518640Y295903D02*
X526390D01*
X518690Y295953D02*
X526390D01*
X518690Y296003D02*
X526340D01*
X518740Y296053D02*
X526290D01*
X518740Y296103D02*
X526290D01*
X518790Y296153D02*
X526240D01*
X518840Y296203D02*
X526240D01*
X518840Y296253D02*
X526190D01*
X518890Y296303D02*
X526140D01*
X518890Y296353D02*
X526140D01*
X518940Y296403D02*
X526090D01*
X518940Y296453D02*
X526090D01*
X518990Y296503D02*
X526040D01*
X519040Y296553D02*
X526040D01*
X519040Y296603D02*
X525990D01*
X519090Y296653D02*
X525940D01*
X519090Y296703D02*
X525940D01*
X519140Y296753D02*
X525890D01*
X519140Y296803D02*
X525890D01*
X519190Y296853D02*
X525840D01*
X519240Y296903D02*
X525840D01*
X519240Y296953D02*
X525790D01*
X519290Y297003D02*
X525740D01*
X519290Y297053D02*
X525740D01*
X519340Y297103D02*
X525690D01*
X519340Y297153D02*
X525690D01*
X519390Y297203D02*
X525640D01*
X519440Y297253D02*
X525590D01*
X519440Y297303D02*
X525590D01*
X519490Y297353D02*
X525540D01*
X519490Y297403D02*
X525540D01*
X519540Y297453D02*
X525490D01*
X519590Y297503D02*
X525490D01*
X519590Y297553D02*
X525440D01*
X519640Y297603D02*
X525390D01*
X519640Y297653D02*
X525390D01*
M02*
