G04 Layer_Color=8388736*
%FSLAX25Y25*%
%MOIN*%
G70*
G01*
G75*
%ADD30R,0.59655X0.08474*%
%ADD31C,0.18600*%
%ADD32C,0.04100*%
%ADD33C,0.13198*%
%ADD34C,0.02600*%
D30*
X570766Y161753D02*
D03*
Y177501D02*
D03*
Y197186D02*
D03*
Y212934D02*
D03*
Y232619D02*
D03*
Y248367D02*
D03*
Y268052D02*
D03*
Y283800D02*
D03*
D31*
X534206Y144057D02*
D03*
X506830Y301565D02*
D03*
X611236Y144057D02*
D03*
Y301496D02*
D03*
D32*
X512299Y211553D02*
D03*
X507299Y164053D02*
D03*
Y169053D02*
D03*
Y174053D02*
D03*
Y179053D02*
D03*
Y184053D02*
D03*
Y189053D02*
D03*
Y194053D02*
D03*
Y199053D02*
D03*
Y204053D02*
D03*
Y209053D02*
D03*
X512299Y206553D02*
D03*
Y201553D02*
D03*
Y196553D02*
D03*
Y191553D02*
D03*
Y186553D02*
D03*
Y181553D02*
D03*
Y176553D02*
D03*
Y171553D02*
D03*
Y166553D02*
D03*
Y161553D02*
D03*
D33*
Y143303D02*
D03*
Y229803D02*
D03*
D34*
X545166Y274043D02*
D03*
X598552Y274045D02*
D03*
Y238612D02*
D03*
Y203179D02*
D03*
Y167746D02*
D03*
X542962Y183494D02*
D03*
Y218927D02*
D03*
Y254360D02*
D03*
Y289793D02*
D03*
X598621Y155545D02*
D03*
Y190978D02*
D03*
Y226411D02*
D03*
Y261844D02*
D03*
X542892Y171293D02*
D03*
Y206726D02*
D03*
Y242160D02*
D03*
Y277592D02*
D03*
X553040Y274043D02*
D03*
X560914D02*
D03*
X568788D02*
D03*
X576662D02*
D03*
X584536D02*
D03*
X592410D02*
D03*
Y203176D02*
D03*
X584536D02*
D03*
X576662D02*
D03*
X568788D02*
D03*
X560914D02*
D03*
X553040D02*
D03*
X545166D02*
D03*
X592410Y238609D02*
D03*
X584536D02*
D03*
X576662D02*
D03*
X568788D02*
D03*
X560914D02*
D03*
X553040D02*
D03*
X545166D02*
D03*
X592410Y167743D02*
D03*
X584536D02*
D03*
X576662D02*
D03*
X568788D02*
D03*
X560914D02*
D03*
X553040D02*
D03*
X545166D02*
D03*
X553040Y155543D02*
D03*
X560914D02*
D03*
X568788D02*
D03*
X576662D02*
D03*
X584536D02*
D03*
X592410D02*
D03*
X545166D02*
D03*
X553040Y261842D02*
D03*
X560914D02*
D03*
X568788D02*
D03*
X576662D02*
D03*
X584536D02*
D03*
X592410D02*
D03*
X545166D02*
D03*
X549103Y277590D02*
D03*
X596347Y289791D02*
D03*
X588473D02*
D03*
X580599D02*
D03*
X572725D02*
D03*
X564851D02*
D03*
X556977D02*
D03*
X549103D02*
D03*
X596347Y277590D02*
D03*
X588473D02*
D03*
X580599D02*
D03*
X572725D02*
D03*
X564851D02*
D03*
X556977D02*
D03*
X553040Y226409D02*
D03*
X560914D02*
D03*
X568788D02*
D03*
X576662D02*
D03*
X584536D02*
D03*
X592410D02*
D03*
X545166D02*
D03*
X549103Y242158D02*
D03*
X596347Y254358D02*
D03*
X588473D02*
D03*
X580599D02*
D03*
X572725D02*
D03*
X564851D02*
D03*
X556977D02*
D03*
X549103D02*
D03*
X596347Y242158D02*
D03*
X588473D02*
D03*
X580599D02*
D03*
X572725D02*
D03*
X564851D02*
D03*
X556977D02*
D03*
X553040Y190976D02*
D03*
X560914D02*
D03*
X568788D02*
D03*
X576662D02*
D03*
X584536D02*
D03*
X592410D02*
D03*
X545166D02*
D03*
X549103Y206724D02*
D03*
X596347Y218924D02*
D03*
X588473D02*
D03*
X580599D02*
D03*
X572725D02*
D03*
X564851D02*
D03*
X556977D02*
D03*
X549103D02*
D03*
X596347Y206724D02*
D03*
X588473D02*
D03*
X580599D02*
D03*
X572725D02*
D03*
X564851D02*
D03*
X556977D02*
D03*
Y171291D02*
D03*
X564851D02*
D03*
X572725D02*
D03*
X580599D02*
D03*
X588473D02*
D03*
X596347D02*
D03*
X549103Y183491D02*
D03*
X556977D02*
D03*
X564851D02*
D03*
X572725D02*
D03*
X580599D02*
D03*
X588473D02*
D03*
X596347D02*
D03*
X549103Y171291D02*
D03*
M02*
