G04 Layer_Color=16711935*
%FSLAX25Y25*%
%MOIN*%
G70*
G01*
G75*
%ADD11C,0.00500*%
%ADD24C,0.02000*%
%ADD28C,0.01000*%
%ADD35C,0.00600*%
D11*
X541816Y287809D02*
Y286476D01*
X542482Y285809D01*
X543149Y286476D01*
Y287809D01*
X543815Y285809D02*
X544482D01*
X544148D01*
Y287142D01*
X543815D01*
X545815D02*
X546481D01*
X546814Y286809D01*
Y285809D01*
X545815D01*
X545481Y286143D01*
X545815Y286476D01*
X546814D01*
X547481Y285809D02*
X548480D01*
X548813Y286143D01*
X548480Y286476D01*
X547814D01*
X547481Y286809D01*
X547814Y287142D01*
X548813D01*
X552812D02*
X551813D01*
X551479Y286809D01*
Y286143D01*
X551813Y285809D01*
X552812D01*
X553812D02*
X554478D01*
X554811Y286143D01*
Y286809D01*
X554478Y287142D01*
X553812D01*
X553479Y286809D01*
Y286143D01*
X553812Y285809D01*
X555478D02*
Y287142D01*
X556478D01*
X556811Y286809D01*
Y285809D01*
X557477D02*
Y287142D01*
X558477D01*
X558810Y286809D01*
Y285809D01*
X560476D02*
X559810D01*
X559477Y286143D01*
Y286809D01*
X559810Y287142D01*
X560476D01*
X560810Y286809D01*
Y286476D01*
X559477D01*
X562809Y287142D02*
X561809D01*
X561476Y286809D01*
Y286143D01*
X561809Y285809D01*
X562809D01*
X563809Y287476D02*
Y287142D01*
X563475D01*
X564142D01*
X563809D01*
Y286143D01*
X564142Y285809D01*
X567141Y287809D02*
X568474D01*
X567807D01*
Y285809D01*
X569473D02*
X570140D01*
X570473Y286143D01*
Y286809D01*
X570140Y287142D01*
X569473D01*
X569140Y286809D01*
Y286143D01*
X569473Y285809D01*
X571140Y285143D02*
Y287142D01*
X572139D01*
X572472Y286809D01*
Y286143D01*
X572139Y285809D01*
X571140D01*
X575138D02*
X575805D01*
X575471D01*
Y287809D01*
X575138D01*
X577138Y287142D02*
X577804D01*
X578137Y286809D01*
Y285809D01*
X577138D01*
X576804Y286143D01*
X577138Y286476D01*
X578137D01*
X578804Y287142D02*
Y286143D01*
X579137Y285809D01*
X580137D01*
Y285476D01*
X579803Y285143D01*
X579470D01*
X580137Y285809D02*
Y287142D01*
X581803Y285809D02*
X581136D01*
X580803Y286143D01*
Y286809D01*
X581136Y287142D01*
X581803D01*
X582136Y286809D01*
Y286476D01*
X580803D01*
X582802Y287142D02*
Y285809D01*
Y286476D01*
X583136Y286809D01*
X583469Y287142D01*
X583802D01*
X587134Y287476D02*
Y287142D01*
X586801D01*
X587468D01*
X587134D01*
Y286143D01*
X587468Y285809D01*
X588800D02*
X589467D01*
X589800Y286143D01*
Y286809D01*
X589467Y287142D01*
X588800D01*
X588467Y286809D01*
Y286143D01*
X588800Y285809D01*
X592466D02*
Y287809D01*
X593132Y287142D01*
X593799Y287809D01*
Y285809D01*
X594465D02*
X595132D01*
X594799D01*
Y287142D01*
X594465D01*
X597464Y287809D02*
Y285809D01*
X596465D01*
X596132Y286143D01*
Y286809D01*
X596465Y287142D01*
X597464D01*
X600130Y285809D02*
X600797D01*
X600463D01*
Y287809D01*
X600130Y287476D01*
X541516Y282209D02*
Y280876D01*
X542182Y280209D01*
X542849Y280876D01*
Y282209D01*
X543515Y280209D02*
X544181D01*
X543848D01*
Y281542D01*
X543515D01*
X545514D02*
X546181D01*
X546514Y281209D01*
Y280209D01*
X545514D01*
X545181Y280543D01*
X545514Y280876D01*
X546514D01*
X547181Y280209D02*
X548180D01*
X548514Y280543D01*
X548180Y280876D01*
X547514D01*
X547181Y281209D01*
X547514Y281542D01*
X548514D01*
X552512D02*
X551512D01*
X551179Y281209D01*
Y280543D01*
X551512Y280209D01*
X552512D01*
X553512D02*
X554178D01*
X554511Y280543D01*
Y281209D01*
X554178Y281542D01*
X553512D01*
X553179Y281209D01*
Y280543D01*
X553512Y280209D01*
X555178D02*
Y281542D01*
X556178D01*
X556511Y281209D01*
Y280209D01*
X557177D02*
Y281542D01*
X558177D01*
X558510Y281209D01*
Y280209D01*
X560176D02*
X559510D01*
X559177Y280543D01*
Y281209D01*
X559510Y281542D01*
X560176D01*
X560510Y281209D01*
Y280876D01*
X559177D01*
X562509Y281542D02*
X561509D01*
X561176Y281209D01*
Y280543D01*
X561509Y280209D01*
X562509D01*
X563509Y281876D02*
Y281542D01*
X563175D01*
X563842D01*
X563509D01*
Y280543D01*
X563842Y280209D01*
X566841Y282209D02*
Y280209D01*
X567840D01*
X568174Y280543D01*
Y280876D01*
X567840Y281209D01*
X566841D01*
X567840D01*
X568174Y281542D01*
Y281876D01*
X567840Y282209D01*
X566841D01*
X569173Y280209D02*
X569840D01*
X570173Y280543D01*
Y281209D01*
X569840Y281542D01*
X569173D01*
X568840Y281209D01*
Y280543D01*
X569173Y280209D01*
X570840Y279543D02*
Y281542D01*
X571839D01*
X572172Y281209D01*
Y280543D01*
X571839Y280209D01*
X570840D01*
X574838D02*
X575505D01*
X575172D01*
Y282209D01*
X574838D01*
X576838Y281542D02*
X577504D01*
X577837Y281209D01*
Y280209D01*
X576838D01*
X576504Y280543D01*
X576838Y280876D01*
X577837D01*
X578504Y281542D02*
Y280543D01*
X578837Y280209D01*
X579837D01*
Y279876D01*
X579503Y279543D01*
X579170D01*
X579837Y280209D02*
Y281542D01*
X581503Y280209D02*
X580836D01*
X580503Y280543D01*
Y281209D01*
X580836Y281542D01*
X581503D01*
X581836Y281209D01*
Y280876D01*
X580503D01*
X582502Y281542D02*
Y280209D01*
Y280876D01*
X582836Y281209D01*
X583169Y281542D01*
X583502D01*
X586834Y281876D02*
Y281542D01*
X586501D01*
X587168D01*
X586834D01*
Y280543D01*
X587168Y280209D01*
X588500D02*
X589167D01*
X589500Y280543D01*
Y281209D01*
X589167Y281542D01*
X588500D01*
X588167Y281209D01*
Y280543D01*
X588500Y280209D01*
X592166D02*
Y282209D01*
X592832Y281542D01*
X593499Y282209D01*
Y280209D01*
X594165D02*
X594832D01*
X594498D01*
Y281542D01*
X594165D01*
X597164Y282209D02*
Y280209D01*
X596165D01*
X595831Y280543D01*
Y281209D01*
X596165Y281542D01*
X597164D01*
X601163Y280209D02*
X599830D01*
X601163Y281542D01*
Y281876D01*
X600830Y282209D01*
X600163D01*
X599830Y281876D01*
D24*
X602343Y155868D02*
Y289685D01*
X488175Y132195D02*
X629921D01*
X488175D02*
Y313307D01*
X629921D01*
Y289685D02*
Y313307D01*
X602500Y289685D02*
X629921D01*
X602500Y155868D02*
X629921D01*
Y132246D02*
Y155868D01*
D28*
X536800Y192600D02*
Y194600D01*
X535800Y181800D02*
X537100D01*
X536800Y171800D02*
Y181800D01*
Y193600D02*
Y203600D01*
X534800Y175800D02*
X536800Y181800D01*
X538800Y175800D01*
X536800Y193600D02*
X538800Y199600D01*
X534800D02*
X536800Y193600D01*
X488175Y313307D02*
X494000D01*
X490175Y132195D02*
X494000D01*
X493000Y242245D02*
Y313307D01*
Y132195D02*
Y200058D01*
X491000Y307307D02*
X493000Y313307D01*
X495000Y307307D01*
X493000Y132195D02*
X495000Y138195D01*
X491000D02*
X493000Y132195D01*
X629921Y313307D02*
X645700D01*
X621636Y301496D02*
X645700D01*
X644700Y291496D02*
Y301496D01*
Y313307D02*
Y323307D01*
X642700Y295496D02*
X644700Y301496D01*
X646700Y295496D01*
X644700Y313307D02*
X646700Y319307D01*
X642700D02*
X644700Y313307D01*
X629921Y132246D02*
X645700D01*
X611236Y144057D02*
X645700D01*
X644700D02*
Y154057D01*
Y122246D02*
Y132246D01*
Y144057D02*
X646700Y150057D01*
X642700D02*
X644700Y144057D01*
X642700Y126246D02*
X644700Y132246D01*
X646700Y126246D01*
X630000Y289685D02*
X670000D01*
X631921Y313307D02*
X670000D01*
X669000D02*
Y323307D01*
Y279685D02*
Y289685D01*
Y313307D02*
X671000Y319307D01*
X667000D02*
X669000Y313307D01*
X667000Y283685D02*
X669000Y289685D01*
X671000Y283685D01*
X611236Y143057D02*
Y145057D01*
Y300496D02*
Y302496D01*
Y144057D02*
Y200083D01*
Y242270D02*
Y301496D01*
Y144057D02*
X613236Y150057D01*
X609236D02*
X611236Y144057D01*
X609236Y295496D02*
X611236Y301496D01*
X613236Y295496D01*
X629921Y157868D02*
Y187500D01*
X602343Y157868D02*
Y187500D01*
X592343Y186500D02*
X602343D01*
X629921D02*
X639921D01*
X596343Y188500D02*
X602343Y186500D01*
X596343Y184500D02*
X602343Y186500D01*
X629921D02*
X635921Y184500D01*
X629921Y186500D02*
X635921Y188500D01*
X629921Y315307D02*
Y325500D01*
X488175Y315307D02*
Y325500D01*
X578542Y324500D02*
X629921D01*
X488175D02*
X536354D01*
X623921Y326500D02*
X629921Y324500D01*
X623921Y322500D02*
X629921Y324500D01*
X488175D02*
X494175Y322500D01*
X488175Y324500D02*
X494175Y326500D01*
X600500Y290500D02*
Y297100D01*
X541500Y292500D02*
Y297100D01*
X589994Y296100D02*
X600500D01*
X541500D02*
X548806D01*
X594500Y298100D02*
X600500Y296100D01*
X594500Y294100D02*
X600500Y296100D01*
X541500D02*
X547500Y294100D01*
X541500Y296100D02*
X547500Y298100D01*
X535000Y287800D02*
X538900D01*
X535000Y279800D02*
X538400D01*
X536000Y269800D02*
Y279800D01*
Y287800D02*
Y297800D01*
X534000Y273800D02*
X536000Y279800D01*
X538000Y273800D01*
X536000Y287800D02*
X538000Y293800D01*
X534000D02*
X536000Y287800D01*
X536800Y244500D02*
X540700D01*
X536800Y236500D02*
X540200D01*
X537800Y226500D02*
Y236500D01*
Y244500D02*
Y254500D01*
X535800Y230500D02*
X537800Y236500D01*
X539800Y230500D01*
X537800Y244500D02*
X539800Y250500D01*
X535800D02*
X537800Y244500D01*
D35*
X535401Y204600D02*
X534401Y205600D01*
Y207599D01*
X535401Y208599D01*
X536400D01*
X537400Y207599D01*
Y206599D01*
Y207599D01*
X538400Y208599D01*
X539399D01*
X540399Y207599D01*
Y205600D01*
X539399Y204600D01*
X540399Y210598D02*
X539399D01*
Y211598D01*
X540399D01*
Y210598D01*
X535401Y215596D02*
X534401Y216596D01*
Y218596D01*
X535401Y219595D01*
X539399D01*
X540399Y218596D01*
Y216596D01*
X539399Y215596D01*
X535401D01*
Y221595D02*
X534401Y222594D01*
Y224593D01*
X535401Y225593D01*
X539399D01*
X540399Y224593D01*
Y222594D01*
X539399Y221595D01*
X535401D01*
X496599Y204657D02*
X490601D01*
X493600Y201658D01*
Y205656D01*
X490601Y211654D02*
X491601Y209655D01*
X493600Y207656D01*
X495599D01*
X496599Y208655D01*
Y210655D01*
X495599Y211654D01*
X494600D01*
X493600Y210655D01*
Y207656D01*
X496599Y213654D02*
X495599D01*
Y214653D01*
X496599D01*
Y213654D01*
X491601Y218652D02*
X490601Y219652D01*
Y221651D01*
X491601Y222651D01*
X495599D01*
X496599Y221651D01*
Y219652D01*
X495599Y218652D01*
X491601D01*
Y224650D02*
X490601Y225650D01*
Y227649D01*
X491601Y228649D01*
X495599D01*
X496599Y227649D01*
Y225650D01*
X495599Y224650D01*
X491601D01*
X496599Y230648D02*
X492600D01*
Y231648D01*
X493600Y232647D01*
X496599D01*
X493600D01*
X492600Y233647D01*
X493600Y234647D01*
X496599D01*
Y236646D02*
X492600D01*
Y237646D01*
X493600Y238646D01*
X496599D01*
X493600D01*
X492600Y239645D01*
X493600Y240645D01*
X496599D01*
X654098Y289307D02*
X653098Y290307D01*
Y292306D01*
X654098Y293306D01*
X655097D01*
X656097Y292306D01*
Y291306D01*
Y292306D01*
X657097Y293306D01*
X658096D01*
X659096Y292306D01*
Y290307D01*
X658096Y289307D01*
X659096Y295305D02*
X658096D01*
Y296305D01*
X659096D01*
Y295305D01*
X654098Y300303D02*
X653098Y301303D01*
Y303302D01*
X654098Y304302D01*
X658096D01*
X659096Y303302D01*
Y301303D01*
X658096Y300303D01*
X654098D01*
Y306301D02*
X653098Y307301D01*
Y309300D01*
X654098Y310300D01*
X658096D01*
X659096Y309300D01*
Y307301D01*
X658096Y306301D01*
X654098D01*
X659096Y312299D02*
X655097D01*
Y313299D01*
X656097Y314299D01*
X659096D01*
X656097D01*
X655097Y315299D01*
X656097Y316298D01*
X659096D01*
Y318298D02*
X655097D01*
Y319297D01*
X656097Y320297D01*
X659096D01*
X656097D01*
X655097Y321297D01*
X656097Y322296D01*
X659096D01*
X654098Y120056D02*
X653098Y121056D01*
Y123056D01*
X654098Y124055D01*
X655097D01*
X656097Y123056D01*
Y122056D01*
Y123056D01*
X657097Y124055D01*
X658096D01*
X659096Y123056D01*
Y121056D01*
X658096Y120056D01*
X659096Y126055D02*
X658096D01*
Y127054D01*
X659096D01*
Y126055D01*
X654098Y131053D02*
X653098Y132053D01*
Y134052D01*
X654098Y135052D01*
X658096D01*
X659096Y134052D01*
Y132053D01*
X658096Y131053D01*
X654098D01*
Y137051D02*
X653098Y138051D01*
Y140050D01*
X654098Y141050D01*
X658096D01*
X659096Y140050D01*
Y138051D01*
X658096Y137051D01*
X654098D01*
X659096Y143049D02*
X655097D01*
Y144049D01*
X656097Y145048D01*
X659096D01*
X656097D01*
X655097Y146048D01*
X656097Y147048D01*
X659096D01*
Y149047D02*
X655097D01*
Y150047D01*
X656097Y151047D01*
X659096D01*
X656097D01*
X655097Y152046D01*
X656097Y153046D01*
X659096D01*
X677398Y287400D02*
X678398Y285401D01*
X680397Y283401D01*
X682396D01*
X683396Y284401D01*
Y286400D01*
X682396Y287400D01*
X681397D01*
X680397Y286400D01*
Y283401D01*
X683396Y289400D02*
X682396D01*
Y290399D01*
X683396D01*
Y289400D01*
X678398Y294398D02*
X677398Y295397D01*
Y297397D01*
X678398Y298396D01*
X682396D01*
X683396Y297397D01*
Y295397D01*
X682396Y294398D01*
X678398D01*
Y300396D02*
X677398Y301396D01*
Y303395D01*
X678398Y304395D01*
X682396D01*
X683396Y303395D01*
Y301396D01*
X682396Y300396D01*
X678398D01*
X683396Y306394D02*
X679397D01*
Y307394D01*
X680397Y308393D01*
X683396D01*
X680397D01*
X679397Y309393D01*
X680397Y310393D01*
X683396D01*
Y312392D02*
X679397D01*
Y313392D01*
X680397Y314391D01*
X683396D01*
X680397D01*
X679397Y315391D01*
X680397Y316391D01*
X683396D01*
X609837Y201683D02*
X608837Y202682D01*
Y204682D01*
X609837Y205681D01*
X610837D01*
X611836Y204682D01*
Y203682D01*
Y204682D01*
X612836Y205681D01*
X613836D01*
X614835Y204682D01*
Y202682D01*
X613836Y201683D01*
Y207681D02*
X614835Y208680D01*
Y210680D01*
X613836Y211679D01*
X609837D01*
X608837Y210680D01*
Y208680D01*
X609837Y207681D01*
X610837D01*
X611836Y208680D01*
Y211679D01*
X614835Y213679D02*
X613836D01*
Y214679D01*
X614835D01*
Y213679D01*
X613836Y218677D02*
X614835Y219677D01*
Y221676D01*
X613836Y222676D01*
X609837D01*
X608837Y221676D01*
Y219677D01*
X609837Y218677D01*
X610837D01*
X611836Y219677D01*
Y222676D01*
X613836Y224675D02*
X614835Y225675D01*
Y227674D01*
X613836Y228674D01*
X609837D01*
X608837Y227674D01*
Y225675D01*
X609837Y224675D01*
X610837D01*
X611836Y225675D01*
Y228674D01*
X614835Y230673D02*
X610837D01*
Y231673D01*
X611836Y232673D01*
X614835D01*
X611836D01*
X610837Y233672D01*
X611836Y234672D01*
X614835D01*
Y236671D02*
X610837D01*
Y237671D01*
X611836Y238671D01*
X614835D01*
X611836D01*
X610837Y239670D01*
X611836Y240670D01*
X614835D01*
X598037Y199696D02*
X602036D01*
Y198696D01*
X598037Y194698D01*
Y193698D01*
X604035D02*
Y194698D01*
X605035D01*
Y193698D01*
X604035D01*
X609034Y198696D02*
X610033Y199696D01*
X612033D01*
X613032Y198696D01*
Y194698D01*
X612033Y193698D01*
X610033D01*
X609034Y194698D01*
Y198696D01*
X615032D02*
X616031Y199696D01*
X618031D01*
X619030Y198696D01*
Y194698D01*
X618031Y193698D01*
X616031D01*
X615032Y194698D01*
Y198696D01*
X621030Y193698D02*
Y197697D01*
X622029D01*
X623029Y196697D01*
Y193698D01*
Y196697D01*
X624029Y197697D01*
X625029Y196697D01*
Y193698D01*
X627028D02*
Y197697D01*
X628027D01*
X629027Y196697D01*
Y193698D01*
Y196697D01*
X630027Y197697D01*
X631027Y196697D01*
Y193698D01*
X537954Y325899D02*
X538954Y326899D01*
X540953D01*
X541953Y325899D01*
Y324900D01*
X540953Y323900D01*
X539954D01*
X540953D01*
X541953Y322900D01*
Y321901D01*
X540953Y320901D01*
X538954D01*
X537954Y321901D01*
X547951Y326899D02*
X545952Y325899D01*
X543952Y323900D01*
Y321901D01*
X544952Y320901D01*
X546951D01*
X547951Y321901D01*
Y322900D01*
X546951Y323900D01*
X543952D01*
X549951Y320901D02*
Y321901D01*
X550950D01*
Y320901D01*
X549951D01*
X554949Y325899D02*
X555948Y326899D01*
X557948D01*
X558948Y325899D01*
Y321901D01*
X557948Y320901D01*
X555948D01*
X554949Y321901D01*
Y325899D01*
X560947D02*
X561947Y326899D01*
X563946D01*
X564946Y325899D01*
Y321901D01*
X563946Y320901D01*
X561947D01*
X560947Y321901D01*
Y325899D01*
X566945Y320901D02*
Y324900D01*
X567945D01*
X568944Y323900D01*
Y320901D01*
Y323900D01*
X569944Y324900D01*
X570944Y323900D01*
Y320901D01*
X572943D02*
Y324900D01*
X573943D01*
X574942Y323900D01*
Y320901D01*
Y323900D01*
X575942Y324900D01*
X576942Y323900D01*
Y320901D01*
X550406Y292501D02*
X552406D01*
X551406D01*
Y298499D01*
X550406Y297499D01*
X558403Y292501D02*
Y298499D01*
X555405Y295500D01*
X559403D01*
X561403Y292501D02*
Y293501D01*
X562402D01*
Y292501D01*
X561403D01*
X566401Y293501D02*
X567401Y292501D01*
X569400D01*
X570400Y293501D01*
Y297499D01*
X569400Y298499D01*
X567401D01*
X566401Y297499D01*
Y296500D01*
X567401Y295500D01*
X570400D01*
X572399Y293501D02*
X573399Y292501D01*
X575398D01*
X576398Y293501D01*
Y297499D01*
X575398Y298499D01*
X573399D01*
X572399Y297499D01*
Y296500D01*
X573399Y295500D01*
X576398D01*
X578397Y292501D02*
Y296500D01*
X579397D01*
X580396Y295500D01*
Y292501D01*
Y295500D01*
X581396Y296500D01*
X582396Y295500D01*
Y292501D01*
X584395D02*
Y296500D01*
X585395D01*
X586395Y295500D01*
Y292501D01*
Y295500D01*
X587394Y296500D01*
X588394Y295500D01*
Y292501D01*
X528802Y275702D02*
Y271703D01*
X524803Y275702D01*
X523804D01*
X522804Y274702D01*
Y272703D01*
X523804Y271703D01*
X528802Y277701D02*
X527802D01*
Y278701D01*
X528802D01*
Y277701D01*
X523804Y282700D02*
X522804Y283699D01*
Y285699D01*
X523804Y286699D01*
X527802D01*
X528802Y285699D01*
Y283699D01*
X527802Y282700D01*
X523804D01*
Y288698D02*
X522804Y289698D01*
Y291697D01*
X523804Y292697D01*
X524803D01*
X525803Y291697D01*
Y290697D01*
Y291697D01*
X526803Y292697D01*
X527802D01*
X528802Y291697D01*
Y289698D01*
X527802Y288698D01*
X530602Y232402D02*
Y228403D01*
X526603Y232402D01*
X525604D01*
X524604Y231402D01*
Y229403D01*
X525604Y228403D01*
X530602Y234401D02*
X529602D01*
Y235401D01*
X530602D01*
Y234401D01*
X525604Y239400D02*
X524604Y240400D01*
Y242399D01*
X525604Y243398D01*
X529602D01*
X530602Y242399D01*
Y240400D01*
X529602Y239400D01*
X525604D01*
Y245398D02*
X524604Y246398D01*
Y248397D01*
X525604Y249397D01*
X526603D01*
X527603Y248397D01*
Y247397D01*
Y248397D01*
X528603Y249397D01*
X529602D01*
X530602Y248397D01*
Y246398D01*
X529602Y245398D01*
M02*
