M48
;Layer_Color=9474304
;FILE_FORMAT=2:5
INCH,TZ
;TYPE=PLATED
T1F00S00C0.01000
T2F00S00C0.02500
T3F00S00C0.09606
T4F00S00C0.12000
%
T01
X545166Y155543
X553040
X560914
X568788
X576662
X584536
X592410
X598621Y155545
X598552Y167746
X596347Y171291
X592410Y167743
X588473Y171291
X584536Y167743
X580599Y171291
X576662Y167743
X572725Y171291
X568788Y167743
X564851Y171291
X560914Y167743
X556977Y171291
X553040Y167743
X549103Y171291
X542892Y171293
X545166Y167743
X542962Y183494
X549103Y183491
X556977
X564851
X572725
X580599
X588473
X596347
X598621Y190978
X592410Y190976
X584536
X576662
X568788
X560914
X553040
X545166
X545166Y203176
X542892Y206726
X549103Y206724
X553040Y203176
X556977Y206724
X560914Y203176
X564851Y206724
X568788Y203176
X572725Y206724
X576662Y203176
X580599Y206724
X584536Y203176
X588473Y206724
X592410Y203176
X598552Y203179
X596347Y206724
X596347Y218924
X588473
X580599
X572725
X564851
X556977
X549103
X542962Y218927
X545166Y226409
X553040
X560914
X568788
X576662
X584536
X592410
X598621Y226411
X598552Y238612
X596347Y242158
X592410Y238609
X588473Y242158
X584536Y238609
X580599Y242158
X576662Y238609
X572725Y242158
X568788Y238609
X564851Y242158
X560914Y238609
X556977Y242158
X553040Y238609
X549103Y242158
X542892Y242160
X545166Y238609
X542962Y254360
X549103Y254358
X556977
X564851
X572725
X580599
X588473
X596347
X598621Y261844
X592410Y261842
X584536
X576662
X568788
X560914
X553040
X545166
X545166Y274043
X542892Y277592
X549103Y277590
X553040Y274043
X556977Y277590
X560914Y274043
X564851Y277590
X568788Y274043
X572725Y277590
X576662Y274043
X580599Y277590
X584536Y274043
X588473Y277590
X592410Y274043
X598552Y274045
X596347Y277590
X596347Y289791
X588473
X580599
X572725
X564851
X556977
X549103
X542962Y289793
T02
X507299Y164053
Y169053
Y174053
Y179053
Y184053
Y189053
Y194053
Y199053
Y204053
Y209053
X512299Y211553
Y206553
Y201553
Y196553
Y191553
Y186553
Y181553
Y176553
Y171553
Y166553
Y161553
T03
X512299Y143303
Y229803
T04
X534206Y144057
X611236Y144057
Y301496
X506830Y301565
M30
