%FSLAX24Y24*%
%MOIN*%
G70*
G01*
G75*
G04 Layer_Color=8388736*
%ADD10R,0.1000X0.0300*%
%ADD11R,0.0360X0.0320*%
%ADD12R,0.0320X0.0360*%
%ADD13R,0.0118X0.0669*%
%ADD14C,0.0400*%
%ADD15C,0.0060*%
%ADD16C,0.0300*%
%ADD17C,0.0600*%
%ADD18C,0.1260*%
%ADD19C,0.1500*%
%ADD20C,0.0200*%
%ADD21C,0.0550*%
%ADD22C,0.0700*%
%ADD23C,0.1361*%
G04:AMPARAMS|DCode=24|XSize=188.5mil|YSize=188.5mil|CornerRadius=0mil|HoleSize=0mil|Usage=FLASHONLY|Rotation=0.000|XOffset=0mil|YOffset=0mil|HoleType=Round|Shape=Relief|Width=10mil|Gap=10mil|Entries=4|*
%AMTHD24*
7,0,0,0.1885,0.1685,0.0100,45*
%
%ADD24THD24*%
%ADD25C,0.0500*%
%ADD26C,0.0200*%
%ADD27C,0.0197*%
%ADD28C,0.0100*%
%ADD29C,0.0010*%
%ADD30C,0.0080*%
%ADD31C,0.0039*%
%ADD32C,0.0050*%
%ADD33R,0.0900X0.0100*%
%ADD34R,0.0430X0.0390*%
%ADD35R,0.0390X0.0430*%
%ADD36R,0.0188X0.0739*%
%ADD37C,0.0370*%
%ADD38C,0.0670*%
%ADD39C,0.1330*%
%ADD40C,0.1570*%
%ADD41C,0.0270*%
D34*
X-1000Y24300D02*
D03*
X-400D02*
D03*
D35*
X-2675Y22800D02*
D03*
Y23400D02*
D03*
X-1398Y22200D02*
D03*
Y22800D02*
D03*
D36*
X2382Y-4810D02*
D03*
X2146D02*
D03*
X1909D02*
D03*
X1673D02*
D03*
X1437D02*
D03*
X1201D02*
D03*
X964D02*
D03*
X728D02*
D03*
X492D02*
D03*
X256D02*
D03*
X20D02*
D03*
X-217D02*
D03*
X-453D02*
D03*
X-689D02*
D03*
X-925D02*
D03*
X-1161D02*
D03*
X-1398D02*
D03*
X-1634D02*
D03*
X-1870D02*
D03*
X-2106D02*
D03*
X-2343D02*
D03*
X-2579D02*
D03*
X-2815D02*
D03*
X-3051D02*
D03*
X-3287D02*
D03*
X-3524D02*
D03*
X-3760D02*
D03*
X-3996D02*
D03*
X-4232D02*
D03*
X-4469D02*
D03*
X-4705D02*
D03*
X-4941D02*
D03*
X-5177D02*
D03*
X-5413D02*
D03*
X-5650D02*
D03*
X-5886D02*
D03*
X-6122D02*
D03*
X-6358D02*
D03*
X-6595D02*
D03*
X-6831D02*
D03*
X-7067D02*
D03*
X-7303D02*
D03*
X-7539D02*
D03*
X-7776D02*
D03*
X-8012D02*
D03*
X2264Y-7035D02*
D03*
X2027D02*
D03*
X1791D02*
D03*
X1555D02*
D03*
X1319D02*
D03*
X1083D02*
D03*
X846D02*
D03*
X610D02*
D03*
X374D02*
D03*
X138D02*
D03*
X-99D02*
D03*
X-335D02*
D03*
X-571D02*
D03*
X-807D02*
D03*
X-1043D02*
D03*
X-1280D02*
D03*
X-1516D02*
D03*
X-1752D02*
D03*
X-1988D02*
D03*
X-2224D02*
D03*
X-2461D02*
D03*
X-2697D02*
D03*
X-2933D02*
D03*
X-3169D02*
D03*
X-3406D02*
D03*
X-3642D02*
D03*
X-3878D02*
D03*
X-4114D02*
D03*
X-4350D02*
D03*
X-4587D02*
D03*
X-4823D02*
D03*
X-5059D02*
D03*
X-5295D02*
D03*
X-5532D02*
D03*
X-5768D02*
D03*
X-6004D02*
D03*
X-6240D02*
D03*
X-6476D02*
D03*
X-6713D02*
D03*
X-6949D02*
D03*
X-7185D02*
D03*
X-7421D02*
D03*
X-7658D02*
D03*
X-7894D02*
D03*
X-8130D02*
D03*
D37*
X3509Y22100D02*
D03*
X-3275Y22800D02*
D03*
X0Y23400D02*
D03*
X-700D02*
D03*
X-1400D02*
D03*
X-2075D02*
D03*
X1437Y21500D02*
D03*
X700D02*
D03*
X1400Y23400D02*
D03*
X700D02*
D03*
D38*
X945Y26300D02*
D03*
X-55D02*
D03*
X-1055D02*
D03*
X-2055D02*
D03*
X-3055D02*
D03*
X-4055D02*
D03*
X-5055D02*
D03*
X-6055D02*
D03*
X-7055D02*
D03*
X-8055D02*
D03*
X1945D02*
D03*
X1445Y27300D02*
D03*
X445D02*
D03*
X-555D02*
D03*
X-1555D02*
D03*
X-2555D02*
D03*
X-3555D02*
D03*
X-4555D02*
D03*
X-5555D02*
D03*
X-6555D02*
D03*
X-7555D02*
D03*
D39*
X4195Y26800D02*
D03*
X-10305D02*
D03*
D40*
X3720Y23800D02*
D03*
X-9830D02*
D03*
X3720Y-8800D02*
D03*
X-9830D02*
D03*
D41*
X-1988Y-5854D02*
D03*
X-2382D02*
D03*
X-2776D02*
D03*
X-3169D02*
D03*
X-3563D02*
D03*
X-3957D02*
D03*
X-4350D02*
D03*
X-4744D02*
D03*
X-5138D02*
D03*
X-5532D02*
D03*
X-5925D02*
D03*
X-6319D02*
D03*
X-6713D02*
D03*
X-7106D02*
D03*
X-7500D02*
D03*
X-7900D02*
D03*
X-7700Y-7750D02*
D03*
X-6519D02*
D03*
X-6046D02*
D03*
X-5102D02*
D03*
X-4629D02*
D03*
X-4157D02*
D03*
X-2031D02*
D03*
X-1086D02*
D03*
X95D02*
D03*
X568D02*
D03*
X-6284Y-8116D02*
D03*
X-4867D02*
D03*
X-4394D02*
D03*
X-1796D02*
D03*
X330D02*
D03*
X803D02*
D03*
M02*
