%FSLAX24Y24*%
%MOIN*%
G70*
G01*
G75*
G04 Layer_Color=8388736*
%ADD10R,0.0118X0.0669*%
%ADD11R,0.1000X0.0300*%
%ADD12C,0.0060*%
%ADD13C,0.0400*%
%ADD14C,0.0200*%
%ADD15C,0.1500*%
%ADD16C,0.0500*%
%ADD17C,0.0600*%
%ADD18C,0.0200*%
G04:AMPARAMS|DCode=19|XSize=188.5mil|YSize=188.5mil|CornerRadius=0mil|HoleSize=0mil|Usage=FLASHONLY|Rotation=0.000|XOffset=0mil|YOffset=0mil|HoleType=Round|Shape=Relief|Width=10mil|Gap=10mil|Entries=4|*
%AMTHD19*
7,0,0,0.1885,0.1685,0.0100,45*
%
%ADD19THD19*%
%ADD20C,0.0650*%
%ADD21C,0.1360*%
%ADD22C,0.0197*%
%ADD23C,0.0100*%
%ADD24C,0.0050*%
%ADD25R,0.0188X0.0739*%
%ADD26R,0.1070X0.0370*%
%ADD27C,0.0270*%
%ADD28C,0.1570*%
%ADD29C,0.0570*%
%ADD30C,0.0670*%
D25*
X2382Y-4810D02*
D03*
X2146D02*
D03*
X1909D02*
D03*
X1673D02*
D03*
X1437D02*
D03*
X1201D02*
D03*
X964D02*
D03*
X728D02*
D03*
X492D02*
D03*
X256D02*
D03*
X20D02*
D03*
X-217D02*
D03*
X-453D02*
D03*
X-689D02*
D03*
X-925D02*
D03*
X-1161D02*
D03*
X-1398D02*
D03*
X-1634D02*
D03*
X-1870D02*
D03*
X-2106D02*
D03*
X-2343D02*
D03*
X-2579D02*
D03*
X-2815D02*
D03*
X-3051D02*
D03*
X-3287D02*
D03*
X-3524D02*
D03*
X-3760D02*
D03*
X-3996D02*
D03*
X-4232D02*
D03*
X-4469D02*
D03*
X-4705D02*
D03*
X-4941D02*
D03*
X-5177D02*
D03*
X-5413D02*
D03*
X-5650D02*
D03*
X-5886D02*
D03*
X-6122D02*
D03*
X-6358D02*
D03*
X-6595D02*
D03*
X-6831D02*
D03*
X-7067D02*
D03*
X-7303D02*
D03*
X-7539D02*
D03*
X-7776D02*
D03*
X-8012D02*
D03*
X2264Y-7035D02*
D03*
X2027D02*
D03*
X1791D02*
D03*
X1555D02*
D03*
X1319D02*
D03*
X1083D02*
D03*
X846D02*
D03*
X610D02*
D03*
X374D02*
D03*
X138D02*
D03*
X-99D02*
D03*
X-335D02*
D03*
X-571D02*
D03*
X-807D02*
D03*
X-1043D02*
D03*
X-1280D02*
D03*
X-1516D02*
D03*
X-1752D02*
D03*
X-1988D02*
D03*
X-2224D02*
D03*
X-2461D02*
D03*
X-2697D02*
D03*
X-2933D02*
D03*
X-3169D02*
D03*
X-3406D02*
D03*
X-3642D02*
D03*
X-3878D02*
D03*
X-4114D02*
D03*
X-4350D02*
D03*
X-4587D02*
D03*
X-4823D02*
D03*
X-5059D02*
D03*
X-5295D02*
D03*
X-5532D02*
D03*
X-5768D02*
D03*
X-6004D02*
D03*
X-6240D02*
D03*
X-6476D02*
D03*
X-6713D02*
D03*
X-6949D02*
D03*
X-7185D02*
D03*
X-7421D02*
D03*
X-7658D02*
D03*
X-7894D02*
D03*
X-8130D02*
D03*
D26*
X-1197Y14630D02*
D03*
X-4030D02*
D03*
X-6863D02*
D03*
X-9696D02*
D03*
X-1197Y19380D02*
D03*
X-4030D02*
D03*
X-6863D02*
D03*
X-9696D02*
D03*
X244Y9170D02*
D03*
X-2589D02*
D03*
X-5422D02*
D03*
X-8255D02*
D03*
X244Y13920D02*
D03*
X-2589D02*
D03*
X-5422D02*
D03*
X-8255D02*
D03*
X-6814Y8460D02*
D03*
X-3981D02*
D03*
X-1148D02*
D03*
X1685D02*
D03*
X-6814Y3710D02*
D03*
X-3981D02*
D03*
X-1148D02*
D03*
X1685D02*
D03*
X-5373Y3000D02*
D03*
X-2540D02*
D03*
X293D02*
D03*
X3126D02*
D03*
X-5373Y-1750D02*
D03*
X-2540D02*
D03*
X293D02*
D03*
X3126D02*
D03*
D27*
X-1988Y-5854D02*
D03*
X-2382D02*
D03*
X-2776D02*
D03*
X-3169D02*
D03*
X-3563D02*
D03*
X-3957D02*
D03*
X-4350D02*
D03*
X-4744D02*
D03*
X-5138D02*
D03*
X-5532D02*
D03*
X-5925D02*
D03*
X-6319D02*
D03*
X-6713D02*
D03*
X-7106D02*
D03*
X-7500D02*
D03*
X-7900D02*
D03*
X-7700Y-7750D02*
D03*
X-6519D02*
D03*
X-6046D02*
D03*
X-5102D02*
D03*
X-4629D02*
D03*
X-4157D02*
D03*
X-2031D02*
D03*
X-1086D02*
D03*
X95D02*
D03*
X568D02*
D03*
X-6284Y-8116D02*
D03*
X-4867D02*
D03*
X-4394D02*
D03*
X-1796D02*
D03*
X330D02*
D03*
X803D02*
D03*
D28*
X-9830Y23800D02*
D03*
X3720D02*
D03*
Y-8800D02*
D03*
X-9830D02*
D03*
D29*
X-6030Y22900D02*
D03*
X-6530Y21900D02*
D03*
X-5530D02*
D03*
X-4530D02*
D03*
X-3530D02*
D03*
X-2530D02*
D03*
X-1530D02*
D03*
X-530D02*
D03*
X470D02*
D03*
X-5030Y22900D02*
D03*
X-4030D02*
D03*
X-3030D02*
D03*
X-2030D02*
D03*
X-1030D02*
D03*
X-30D02*
D03*
X-5530Y23900D02*
D03*
X-4530D02*
D03*
X-3530D02*
D03*
X-2530D02*
D03*
X-1530D02*
D03*
X-530D02*
D03*
D30*
X-7360Y22700D02*
D03*
X1300D02*
D03*
M02*
