%FSLAX24Y24*%
%MOIN*%
G70*
G01*
G75*
G04 Layer_Color=65535*
%ADD10R,0.0118X0.0669*%
%ADD11R,0.1000X0.0300*%
%ADD12C,0.0060*%
%ADD13C,0.0400*%
%ADD14C,0.0200*%
%ADD15C,0.1500*%
%ADD16C,0.0500*%
%ADD17C,0.0600*%
%ADD18C,0.0200*%
G04:AMPARAMS|DCode=19|XSize=188.5mil|YSize=188.5mil|CornerRadius=0mil|HoleSize=0mil|Usage=FLASHONLY|Rotation=0.000|XOffset=0mil|YOffset=0mil|HoleType=Round|Shape=Relief|Width=10mil|Gap=10mil|Entries=4|*
%AMTHD19*
7,0,0,0.1885,0.1685,0.0100,45*
%
%ADD19THD19*%
%ADD20C,0.0650*%
%ADD21C,0.1360*%
%ADD22C,0.0197*%
%ADD23C,0.0100*%
%ADD24C,0.0050*%
D12*
X-9000Y22700D02*
X-9100D01*
X-9050D01*
Y22450D01*
X-9100Y22400D01*
X-9150D01*
X-9200Y22450D01*
X-8900Y22650D02*
X-8850Y22700D01*
X-8750D01*
X-8700Y22650D01*
Y22600D01*
X-8750Y22550D01*
X-8800D01*
X-8750D01*
X-8700Y22500D01*
Y22450D01*
X-8750Y22400D01*
X-8850D01*
X-8900Y22450D01*
X3570Y-4370D02*
X3470D01*
X3520D01*
Y-4620D01*
X3470Y-4670D01*
X3420D01*
X3370Y-4620D01*
X3670Y-4670D02*
X3770D01*
X3720D01*
Y-4370D01*
X3670Y-4420D01*
X-10500Y19700D02*
X-10750D01*
X-10800Y19650D01*
Y19550D01*
X-10750Y19500D01*
X-10500D01*
X-10800Y19400D02*
Y19300D01*
Y19350D01*
X-10500D01*
X-10550Y19400D01*
X-6100Y3300D02*
X-6350D01*
X-6400Y3250D01*
Y3150D01*
X-6350Y3100D01*
X-6100D01*
X-6400Y2850D02*
X-6100D01*
X-6250Y3000D01*
Y2800D01*
X-9000Y14200D02*
X-9250D01*
X-9300Y14150D01*
Y14050D01*
X-9250Y14000D01*
X-9000D01*
X-9300Y13700D02*
Y13900D01*
X-9100Y13700D01*
X-9050D01*
X-9000Y13750D01*
Y13850D01*
X-9050Y13900D01*
X-7600Y8700D02*
X-7850D01*
X-7900Y8650D01*
Y8550D01*
X-7850Y8500D01*
X-7600D01*
X-7650Y8400D02*
X-7600Y8350D01*
Y8250D01*
X-7650Y8200D01*
X-7700D01*
X-7750Y8250D01*
Y8300D01*
Y8250D01*
X-7800Y8200D01*
X-7850D01*
X-7900Y8250D01*
Y8350D01*
X-7850Y8400D01*
X4300Y24500D02*
Y24800D01*
X4400Y24700D01*
X4500Y24800D01*
Y24500D01*
X4600D02*
X4700D01*
X4650D01*
Y24800D01*
X4600Y24750D01*
X-10800Y24500D02*
Y24800D01*
X-10700Y24700D01*
X-10600Y24800D01*
Y24500D01*
X-10300D02*
X-10500D01*
X-10300Y24700D01*
Y24750D01*
X-10350Y24800D01*
X-10450D01*
X-10500Y24750D01*
X4300Y-8100D02*
Y-7800D01*
X4400Y-7900D01*
X4500Y-7800D01*
Y-8100D01*
X4600Y-7850D02*
X4650Y-7800D01*
X4750D01*
X4800Y-7850D01*
Y-7900D01*
X4750Y-7950D01*
X4700D01*
X4750D01*
X4800Y-8000D01*
Y-8050D01*
X4750Y-8100D01*
X4650D01*
X4600Y-8050D01*
X-10800Y-8000D02*
Y-7700D01*
X-10700Y-7800D01*
X-10600Y-7700D01*
Y-8000D01*
X-10350D02*
Y-7700D01*
X-10500Y-7850D01*
X-10300D01*
X-47Y19430D02*
Y19330D01*
Y19380D01*
X253D01*
X203Y19430D01*
X3Y14530D02*
X-47Y14580D01*
Y14680D01*
X3Y14730D01*
X53D01*
X103Y14680D01*
X153Y14730D01*
X203D01*
X253Y14680D01*
Y14580D01*
X203Y14530D01*
X153D01*
X103Y14580D01*
X53Y14530D01*
X3D01*
X103Y14580D02*
Y14680D01*
X1394Y13970D02*
Y13870D01*
Y13920D01*
X1694D01*
X1644Y13970D01*
X1444Y9070D02*
X1394Y9120D01*
Y9220D01*
X1444Y9270D01*
X1494D01*
X1544Y9220D01*
X1594Y9270D01*
X1644D01*
X1694Y9220D01*
Y9120D01*
X1644Y9070D01*
X1594D01*
X1544Y9120D01*
X1494Y9070D01*
X1444D01*
X1544Y9120D02*
Y9220D01*
X2885Y3610D02*
X2835Y3660D01*
Y3760D01*
X2885Y3810D01*
X2935D01*
X2985Y3760D01*
X3035Y3810D01*
X3085D01*
X3135Y3760D01*
Y3660D01*
X3085Y3610D01*
X3035D01*
X2985Y3660D01*
X2935Y3610D01*
X2885D01*
X2985Y3660D02*
Y3760D01*
X2835Y8510D02*
Y8410D01*
Y8460D01*
X3135D01*
X3085Y8510D01*
X4326Y-1850D02*
X4276Y-1800D01*
Y-1700D01*
X4326Y-1650D01*
X4376D01*
X4426Y-1700D01*
X4476Y-1650D01*
X4526D01*
X4576Y-1700D01*
Y-1800D01*
X4526Y-1850D01*
X4476D01*
X4426Y-1800D01*
X4376Y-1850D01*
X4326D01*
X4426Y-1800D02*
Y-1700D01*
X4276Y3050D02*
Y2950D01*
Y3000D01*
X4576D01*
X4526Y3050D01*
D22*
X-9036Y-7645D02*
D03*
D23*
X480Y25210D02*
Y25900D01*
X-6540Y25210D02*
Y25900D01*
X-8460Y25200D02*
X2400D01*
Y20950D02*
Y25200D01*
X-8460Y20950D02*
Y25200D01*
X-6540Y25900D02*
X480D01*
X-8460Y20950D02*
X2400D01*
X3209Y-7527D02*
Y-4298D01*
X-8957Y-7527D02*
Y-4298D01*
Y-7527D02*
X3209D01*
X-8957Y-4298D02*
X3209D01*
X-247Y14330D02*
Y19530D01*
X-10347Y14330D02*
X-247D01*
X-10347D02*
Y19730D01*
X-247D01*
Y19530D02*
Y19730D01*
X1194Y8870D02*
Y14070D01*
X-8906Y8870D02*
X1194D01*
X-8906D02*
Y14270D01*
X1194D01*
Y14070D02*
Y14270D01*
X2635Y8610D02*
Y8810D01*
X-7465D02*
X2635D01*
X-7465Y3410D02*
Y8810D01*
Y3410D02*
X2635D01*
Y8610D01*
X4076Y3150D02*
Y3350D01*
X-6024D02*
X4076D01*
X-6024Y-2050D02*
Y3350D01*
Y-2050D02*
X4076D01*
Y3150D01*
D24*
X-8700Y-8500D02*
Y-8800D01*
X-8500D01*
X-8200Y-8550D02*
X-8250Y-8500D01*
X-8350D01*
X-8400Y-8550D01*
Y-8750D01*
X-8350Y-8800D01*
X-8250D01*
X-8200Y-8750D01*
X-8100Y-8500D02*
Y-8800D01*
X-7950D01*
X-7900Y-8750D01*
Y-8700D01*
X-7950Y-8650D01*
X-8100D01*
X-7950D01*
X-7900Y-8600D01*
Y-8550D01*
X-7950Y-8500D01*
X-8100D01*
X-7750Y-8800D02*
X-7650D01*
X-7600Y-8750D01*
Y-8650D01*
X-7650Y-8600D01*
X-7750D01*
X-7800Y-8650D01*
Y-8750D01*
X-7750Y-8800D01*
X-7450Y-8600D02*
X-7350D01*
X-7300Y-8650D01*
Y-8800D01*
X-7450D01*
X-7500Y-8750D01*
X-7450Y-8700D01*
X-7300D01*
X-7200Y-8600D02*
Y-8800D01*
Y-8700D01*
X-7150Y-8650D01*
X-7101Y-8600D01*
X-7051D01*
X-6701Y-8500D02*
Y-8800D01*
X-6851D01*
X-6901Y-8750D01*
Y-8650D01*
X-6851Y-8600D01*
X-6701D01*
X-6301Y-8650D02*
X-6101D01*
X-5701Y-8800D02*
Y-8500D01*
X-5601Y-8600D01*
X-5501Y-8500D01*
Y-8800D01*
X-5201Y-8600D02*
X-5351D01*
X-5401Y-8650D01*
Y-8750D01*
X-5351Y-8800D01*
X-5201D01*
X-4901Y-8550D02*
X-4951Y-8500D01*
X-5051D01*
X-5101Y-8550D01*
Y-8750D01*
X-5051Y-8800D01*
X-4951D01*
X-4901Y-8750D01*
Y-8650D01*
X-5001D01*
X-4801Y-8800D02*
X-4701D01*
X-4751D01*
Y-8600D01*
X-4801D01*
X-4551Y-8800D02*
X-4451D01*
X-4501D01*
Y-8500D01*
X-4551D01*
X-4301Y-8800D02*
X-4201D01*
X-4251D01*
Y-8500D01*
X-4301D01*
X-3552Y-8550D02*
X-3602Y-8500D01*
X-3702D01*
X-3752Y-8550D01*
Y-8750D01*
X-3702Y-8800D01*
X-3602D01*
X-3552Y-8750D01*
X-3402Y-8800D02*
X-3302D01*
X-3252Y-8750D01*
Y-8650D01*
X-3302Y-8600D01*
X-3402D01*
X-3452Y-8650D01*
Y-8750D01*
X-3402Y-8800D01*
X-3152D02*
X-3002D01*
X-2952Y-8750D01*
X-3002Y-8700D01*
X-3102D01*
X-3152Y-8650D01*
X-3102Y-8600D01*
X-2952D01*
X-2852Y-8800D02*
Y-8600D01*
X-2802D01*
X-2752Y-8650D01*
Y-8800D01*
Y-8650D01*
X-2702Y-8600D01*
X-2652Y-8650D01*
Y-8800D01*
X-2502D02*
X-2402D01*
X-2352Y-8750D01*
Y-8650D01*
X-2402Y-8600D01*
X-2502D01*
X-2552Y-8650D01*
Y-8750D01*
X-2502Y-8800D01*
X-2252D02*
X-2152D01*
X-2202D01*
Y-8500D01*
X-2252D01*
X-1952Y-8800D02*
X-1852D01*
X-1802Y-8750D01*
Y-8650D01*
X-1852Y-8600D01*
X-1952D01*
X-2002Y-8650D01*
Y-8750D01*
X-1952Y-8800D01*
X-1602Y-8900D02*
X-1552D01*
X-1502Y-8850D01*
Y-8600D01*
X-1652D01*
X-1702Y-8650D01*
Y-8750D01*
X-1652Y-8800D01*
X-1502D01*
X-1402Y-8600D02*
Y-8750D01*
X-1352Y-8800D01*
X-1202D01*
Y-8850D01*
X-1252Y-8900D01*
X-1302D01*
X-1202Y-8800D02*
Y-8600D01*
X-803Y-8650D02*
X-603D01*
X-3Y-8500D02*
X-103D01*
X-53D01*
Y-8750D01*
X-103Y-8800D01*
X-153D01*
X-203Y-8750D01*
X97Y-8600D02*
Y-8750D01*
X147Y-8800D01*
X297D01*
Y-8600D01*
X397Y-8800D02*
Y-8600D01*
X547D01*
X597Y-8650D01*
Y-8800D01*
X847D02*
X747D01*
X697Y-8750D01*
Y-8650D01*
X747Y-8600D01*
X847D01*
X897Y-8650D01*
Y-8700D01*
X697D01*
X1497Y-8800D02*
X1297D01*
X1497Y-8600D01*
Y-8550D01*
X1447Y-8500D01*
X1347D01*
X1297Y-8550D01*
X1597D02*
X1647Y-8500D01*
X1747D01*
X1797Y-8550D01*
Y-8750D01*
X1747Y-8800D01*
X1647D01*
X1597Y-8750D01*
Y-8550D01*
X1897Y-8800D02*
X1997D01*
X1947D01*
Y-8500D01*
X1897Y-8550D01*
X2296Y-8800D02*
Y-8500D01*
X2146Y-8650D01*
X2346D01*
X-6900Y-9400D02*
Y-9200D01*
X-6800Y-9100D01*
X-6700Y-9200D01*
Y-9400D01*
Y-9250D01*
X-6900D01*
X-6600Y-9400D02*
Y-9200D01*
X-6550D01*
X-6500Y-9250D01*
Y-9400D01*
Y-9250D01*
X-6450Y-9200D01*
X-6400Y-9250D01*
Y-9400D01*
X-6300Y-9200D02*
Y-9350D01*
X-6250Y-9400D01*
X-6100D01*
Y-9450D01*
X-6150Y-9500D01*
X-6200D01*
X-6100Y-9400D02*
Y-9200D01*
X-5700Y-9100D02*
Y-9400D01*
X-5550D01*
X-5500Y-9350D01*
Y-9300D01*
X-5550Y-9250D01*
X-5700D01*
X-5550D01*
X-5500Y-9200D01*
Y-9150D01*
X-5550Y-9100D01*
X-5700D01*
X-5251Y-9400D02*
X-5350D01*
X-5400Y-9350D01*
Y-9250D01*
X-5350Y-9200D01*
X-5251D01*
X-5201Y-9250D01*
Y-9300D01*
X-5400D01*
X-5101Y-9400D02*
Y-9200D01*
X-4951D01*
X-4901Y-9250D01*
Y-9400D01*
X-4601Y-9100D02*
Y-9400D01*
X-4751D01*
X-4801Y-9350D01*
Y-9250D01*
X-4751Y-9200D01*
X-4601D01*
X-4351Y-9400D02*
X-4451D01*
X-4501Y-9350D01*
Y-9250D01*
X-4451Y-9200D01*
X-4351D01*
X-4301Y-9250D01*
Y-9300D01*
X-4501D01*
X-4201Y-9200D02*
Y-9400D01*
Y-9300D01*
X-4151Y-9250D01*
X-4101Y-9200D01*
X-4051D01*
X-3851Y-9450D02*
X-3801Y-9400D01*
Y-9350D01*
X-3851D01*
Y-9400D01*
X-3801D01*
X-3851Y-9450D01*
X-3901Y-9500D01*
X-3301Y-9400D02*
Y-9200D01*
X-3201Y-9100D01*
X-3101Y-9200D01*
Y-9400D01*
Y-9250D01*
X-3301D01*
X-2801Y-9100D02*
Y-9400D01*
X-2951D01*
X-3001Y-9350D01*
Y-9250D01*
X-2951Y-9200D01*
X-2801D01*
X-2651D02*
X-2551D01*
X-2501Y-9250D01*
Y-9400D01*
X-2651D01*
X-2701Y-9350D01*
X-2651Y-9300D01*
X-2501D01*
X-2401Y-9400D02*
Y-9200D01*
X-2351D01*
X-2301Y-9250D01*
Y-9400D01*
Y-9250D01*
X-2252Y-9200D01*
X-2202Y-9250D01*
Y-9400D01*
X-1602Y-9150D02*
X-1652Y-9100D01*
X-1752D01*
X-1802Y-9150D01*
Y-9350D01*
X-1752Y-9400D01*
X-1652D01*
X-1602Y-9350D01*
Y-9250D01*
X-1702D01*
X-1502Y-9400D02*
X-1402D01*
X-1452D01*
Y-9200D01*
X-1502D01*
X-1252Y-9400D02*
X-1152D01*
X-1202D01*
Y-9100D01*
X-1252D01*
X-1002D02*
Y-9400D01*
X-852D01*
X-802Y-9350D01*
Y-9300D01*
Y-9250D01*
X-852Y-9200D01*
X-1002D01*
X-552Y-9400D02*
X-652D01*
X-702Y-9350D01*
Y-9250D01*
X-652Y-9200D01*
X-552D01*
X-502Y-9250D01*
Y-9300D01*
X-702D01*
X-402Y-9200D02*
Y-9400D01*
Y-9300D01*
X-352Y-9250D01*
X-302Y-9200D01*
X-252D01*
X-52Y-9150D02*
Y-9200D01*
X-102D01*
X-2D01*
X-52D01*
Y-9350D01*
X-2Y-9400D01*
M02*
