%FSLAX24Y24*%
%MOIN*%
G70*
G01*
G75*
G04 Layer_Physical_Order=6*
G04 Layer_Color=16711680*
%ADD10R,0.1000X0.0300*%
%ADD11R,0.0360X0.0320*%
%ADD12R,0.0320X0.0360*%
%ADD13R,0.0118X0.0669*%
%ADD14C,0.0400*%
%ADD15C,0.0060*%
%ADD16C,0.0300*%
%ADD17C,0.0600*%
%ADD18C,0.1260*%
%ADD19C,0.1500*%
%ADD20C,0.0200*%
%ADD21C,0.0550*%
%ADD22C,0.0700*%
%ADD23C,0.1361*%
G04:AMPARAMS|DCode=24|XSize=188.5mil|YSize=188.5mil|CornerRadius=0mil|HoleSize=0mil|Usage=FLASHONLY|Rotation=0.000|XOffset=0mil|YOffset=0mil|HoleType=Round|Shape=Relief|Width=10mil|Gap=10mil|Entries=4|*
%AMTHD24*
7,0,0,0.1885,0.1685,0.0100,45*
%
%ADD24THD24*%
%ADD25C,0.0500*%
%ADD26C,0.0200*%
D10*
X-4990Y-1750D02*
D03*
X-2157D02*
D03*
X676D02*
D03*
X3509D02*
D03*
X-4990Y3000D02*
D03*
X-2157D02*
D03*
X676D02*
D03*
X3509D02*
D03*
X2079Y8460D02*
D03*
X-754D02*
D03*
X-3587D02*
D03*
X-6420D02*
D03*
X2079Y3710D02*
D03*
X-754D02*
D03*
X-3587D02*
D03*
X-6420D02*
D03*
X-7850Y9170D02*
D03*
X-5017D02*
D03*
X-2184D02*
D03*
X649D02*
D03*
X-7850Y13920D02*
D03*
X-5017D02*
D03*
X-2184D02*
D03*
X649D02*
D03*
X-781Y19380D02*
D03*
X-3614D02*
D03*
X-6447D02*
D03*
X-9280D02*
D03*
X-781Y14630D02*
D03*
X-3614D02*
D03*
X-6447D02*
D03*
X-9280D02*
D03*
D11*
X-1100Y22800D02*
D03*
X-1700D02*
D03*
D12*
X700Y22700D02*
D03*
Y22100D02*
D03*
X1387D02*
D03*
Y22700D02*
D03*
X683Y24600D02*
D03*
Y24000D02*
D03*
X-1400Y24600D02*
D03*
Y24000D02*
D03*
X-700Y24600D02*
D03*
Y24000D02*
D03*
X0Y24600D02*
D03*
Y24000D02*
D03*
X1391Y24600D02*
D03*
Y24000D02*
D03*
X-2075Y24600D02*
D03*
Y24000D02*
D03*
D13*
X2220Y-7035D02*
D03*
X1984D02*
D03*
X1748D02*
D03*
X1511D02*
D03*
X1275D02*
D03*
X1039D02*
D03*
X803D02*
D03*
X566D02*
D03*
X330D02*
D03*
X94D02*
D03*
X-142D02*
D03*
X-378D02*
D03*
X-615D02*
D03*
X-851D02*
D03*
X-1087D02*
D03*
X-1323D02*
D03*
X-1560D02*
D03*
X-1796D02*
D03*
X-2032D02*
D03*
X-2268D02*
D03*
X-2504D02*
D03*
X-2741D02*
D03*
X-2977D02*
D03*
X-3213D02*
D03*
X-3449D02*
D03*
X-3686D02*
D03*
X-3922D02*
D03*
X-4158D02*
D03*
X-4394D02*
D03*
X-4630D02*
D03*
X-4867D02*
D03*
X-5103D02*
D03*
X-5339D02*
D03*
X-5575D02*
D03*
X-5811D02*
D03*
X-6048D02*
D03*
X-6284D02*
D03*
X-6520D02*
D03*
X-6756D02*
D03*
X-6993D02*
D03*
X-7229D02*
D03*
X-7465D02*
D03*
X-7701D02*
D03*
X-7937D02*
D03*
X-8174D02*
D03*
X2102Y-4810D02*
D03*
X1866D02*
D03*
X1629D02*
D03*
X1393D02*
D03*
X1157D02*
D03*
X921D02*
D03*
X685D02*
D03*
X448D02*
D03*
X212D02*
D03*
X-24D02*
D03*
X-260D02*
D03*
X-497D02*
D03*
X-733D02*
D03*
X-969D02*
D03*
X-1205D02*
D03*
X-1441D02*
D03*
X-1678D02*
D03*
X-1914D02*
D03*
X-2150D02*
D03*
X-2386D02*
D03*
X-2623D02*
D03*
X-2859D02*
D03*
X-3095D02*
D03*
X-3331D02*
D03*
X-3567D02*
D03*
X-3804D02*
D03*
X-4040D02*
D03*
X-4276D02*
D03*
X-4512D02*
D03*
X-4748D02*
D03*
X-4985D02*
D03*
X-5221D02*
D03*
X-5457D02*
D03*
X-5693D02*
D03*
X-5930D02*
D03*
X-6166D02*
D03*
X-6402D02*
D03*
X-6638D02*
D03*
X-6874D02*
D03*
X-7111D02*
D03*
X-7347D02*
D03*
X-7583D02*
D03*
X-7819D02*
D03*
X-8056D02*
D03*
X-8292D02*
D03*
D14*
X-555Y25245D02*
Y25915D01*
X-700Y25100D02*
X-555Y25245D01*
X-700Y24600D02*
Y25100D01*
X620Y20600D02*
X740D01*
X774D01*
X1500D01*
X945Y25946D02*
Y26300D01*
Y25946D02*
X1393Y25498D01*
X445Y25655D02*
X683Y25417D01*
Y24600D02*
Y25417D01*
X-1055Y25545D02*
Y26300D01*
X-1400Y25200D02*
X-1055Y25545D01*
X-1400Y24600D02*
Y25200D01*
X1500Y20600D02*
X2220Y21320D01*
X3509Y21309D02*
Y22100D01*
X1391Y22746D02*
Y24000D01*
X2220Y21320D02*
Y22951D01*
X1771Y23400D02*
X2220Y22951D01*
X1400Y23400D02*
X1771D01*
X2667Y20270D02*
X2673Y20264D01*
X2700Y20500D02*
X3509Y21309D01*
X2700Y20300D02*
Y20500D01*
X683Y22717D02*
Y24000D01*
X-55Y25376D02*
Y26300D01*
X-1100Y22800D02*
X-851D01*
X-700Y22951D01*
Y23400D01*
X-1914Y22800D02*
X-1700D01*
X-2075Y22961D02*
X-1914Y22800D01*
X-2075Y22961D02*
Y23400D01*
X0D02*
Y24000D01*
X-700Y23400D02*
Y24000D01*
X-1400Y23400D02*
Y24000D01*
X-2075Y23400D02*
Y24000D01*
X2680Y20257D02*
X2685Y20252D01*
X2673Y20264D02*
X2680Y20257D01*
X2685Y20200D02*
Y20252D01*
X1437Y21500D02*
Y22100D01*
X700Y21500D02*
Y22100D01*
X683Y22717D02*
X700Y22700D01*
X-2075Y25439D02*
X-1600Y25914D01*
X-2075Y24600D02*
Y25439D01*
X445Y25655D02*
Y25900D01*
X0Y24600D02*
Y25276D01*
X1391Y24600D02*
X1393Y24602D01*
Y25498D01*
D15*
X-9280Y19820D02*
X-7770Y21330D01*
X200D01*
X-4130Y20400D02*
X-3400Y21130D01*
X200D01*
X-4000Y20100D02*
X-3170Y20930D01*
X200D01*
X-3686Y19794D02*
X-2750Y20730D01*
X200D01*
X-2930Y15670D02*
Y19100D01*
X-1500Y20530D01*
X200D01*
X-1989Y19520D02*
X-1180Y20330D01*
X200D01*
X-781Y19380D02*
Y19752D01*
X-403Y20130D01*
X200D01*
X649Y13920D02*
Y19000D01*
X200Y19449D02*
X649Y19000D01*
X200Y19449D02*
Y19930D01*
Y20530D02*
X620Y20600D01*
X200Y21330D02*
X739Y20702D01*
X800Y20630D01*
X200Y21130D02*
X709Y20706D01*
X200Y20930D02*
X668Y20696D01*
X200Y20330D02*
X644Y20552D01*
X740Y20600D01*
X200Y20730D02*
X630Y20658D01*
X800Y20630D01*
X709Y20524D02*
X774Y20600D01*
X200Y19930D02*
X709Y20524D01*
X200Y20130D02*
X679Y20529D01*
X2742Y20261D02*
X4100Y19000D01*
X2700Y20300D02*
X2742Y20261D01*
X2700Y20300D02*
X2743Y20246D01*
X3720Y19000D01*
X2659Y20212D02*
X2680Y20257D01*
X2100Y19000D02*
X2659Y20212D01*
X2642Y20246D02*
X2667Y20270D01*
X1300Y19000D02*
X2642Y20246D01*
X2646Y20230D02*
X2673Y20264D01*
X1700Y19000D02*
X2646Y20230D01*
X2685Y20200D02*
X2700Y20300D01*
X2500Y19000D02*
X2685Y20200D01*
X2700Y20300D02*
X2715Y20205D01*
X2900Y19000D01*
X2700Y20300D02*
X2735Y20223D01*
X3300Y19000D01*
X2900Y6234D02*
Y19000D01*
X2466Y5800D02*
X2900Y6234D01*
X2500Y-3800D02*
X3509Y-2791D01*
X2866Y5000D02*
X3720Y5854D01*
X2166Y5000D02*
X2866D01*
X2566Y5400D02*
X3300Y6134D01*
X1766Y5400D02*
X2566D01*
X1466Y5800D02*
X2466D01*
X2500Y12084D02*
Y19000D01*
X660Y8644D02*
Y9170D01*
X-2244Y5740D02*
X660Y8644D01*
X-6093Y5740D02*
X-2244D01*
X-5484Y11900D02*
X-3614Y13770D01*
X-7234Y11900D02*
X-5484D01*
X-7084Y11200D02*
X-3284D01*
X-6447Y13737D02*
Y14630D01*
X-3614Y13770D02*
Y14630D01*
X-781Y13703D02*
Y14630D01*
X-3284Y11200D02*
X-781Y13703D01*
X2101Y8460D02*
Y11685D01*
X-732Y8460D02*
Y9552D01*
X-2342Y10150D02*
X-784D01*
X-4784Y10500D02*
X-1034D01*
X-2173Y7010D02*
Y9170D01*
X-2993Y6190D02*
X-2173Y7010D01*
X-6793Y6190D02*
X-2993D01*
X-5006Y7041D02*
Y9170D01*
X-5357Y6690D02*
X-5006Y7041D01*
X-6989Y6690D02*
X-5357D01*
X-7839Y6694D02*
Y9170D01*
X-9280Y12154D02*
Y14630D01*
X466Y4800D02*
X1466Y5800D01*
X-3834Y4800D02*
X466D01*
X-4957Y3677D02*
X-3834Y4800D01*
X-4957Y3000D02*
Y3677D01*
X716Y4350D02*
X1766Y5400D01*
X-1334Y4350D02*
X716D01*
X-2124Y3560D02*
X-1334Y4350D01*
X-2124Y3000D02*
Y3560D01*
X709Y3543D02*
X2166Y5000D01*
X709Y3000D02*
Y3543D01*
X-6398Y8886D02*
X-4784Y10500D01*
X-3565Y8927D02*
X-2342Y10150D01*
X-6398Y8460D02*
Y8886D01*
X-3565Y8460D02*
Y8927D01*
X3542Y3000D02*
Y4926D01*
X-7839Y14845D02*
X-4784Y17900D01*
X-7839Y13920D02*
Y14845D01*
X-5006Y14368D02*
X-4094Y15280D01*
X-5006Y13920D02*
Y14368D01*
X-2173Y13920D02*
Y14421D01*
X-6748Y3710D02*
X-6198D01*
X-2173Y14421D02*
X-1989Y14605D01*
Y19520D01*
X-9280Y19380D02*
Y19820D01*
X-6447Y19380D02*
Y19803D01*
X-5850Y20400D01*
X-4784Y19900D02*
X-4584Y20100D01*
X-4784Y17900D02*
Y19900D01*
X-3686Y19452D02*
Y19794D01*
Y19452D02*
X-3614Y19380D01*
X-5221Y-4810D02*
Y-4379D01*
X-7654Y-4202D02*
X-6848D01*
X-6638Y-4412D01*
Y-4810D02*
Y-4412D01*
X-6750Y-3700D02*
X-6166Y-4284D01*
Y-4810D02*
Y-4284D01*
X-6402Y-4810D02*
Y-4349D01*
X-950Y-3200D02*
X-24Y-4126D01*
Y-4810D02*
Y-4126D01*
X-4990Y-1750D02*
X-4640D01*
X-2157Y-2493D02*
Y-1750D01*
X448Y-4810D02*
Y-4050D01*
X3509Y-2791D02*
Y-1750D01*
X685Y-4810D02*
Y-4365D01*
X-7756Y-4100D02*
X-7654Y-4202D01*
X-8650Y-4100D02*
X-7756D01*
X-8200Y-3700D02*
X-6750D01*
X-6000Y-1860D02*
X-5760Y-2100D01*
X-5100D01*
X-3700Y-3500D01*
X-7213Y-2254D02*
X-6767Y-2700D01*
X-7100Y-2900D02*
X-6000D01*
X-6200Y-3100D02*
X-5700Y-3600D01*
X-7942Y-3500D02*
X-6500D01*
X-7701Y-7749D02*
Y-7035D01*
Y-7749D02*
X-7700Y-7750D01*
X-6520Y-7749D02*
Y-7035D01*
X-6048Y-7749D02*
Y-7035D01*
X-5103Y-7749D02*
Y-7035D01*
X-4630Y-7749D02*
Y-7035D01*
X-4158Y-7749D02*
Y-7035D01*
X-2032Y-7749D02*
Y-7035D01*
X-1087Y-7749D02*
Y-7035D01*
X94Y-7749D02*
Y-7035D01*
X566Y-7749D02*
Y-7035D01*
X-6284Y-8116D02*
Y-7035D01*
X-4867Y-8116D02*
Y-7035D01*
X-4394Y-8116D02*
Y-7035D01*
X-1796Y-8116D02*
Y-7035D01*
X330Y-8116D02*
Y-7035D01*
X803Y-8116D02*
Y-7035D01*
X-4640Y-1750D02*
X-4550D01*
X-3100Y-3200D01*
X-950D01*
X3542Y4926D02*
X4100Y5484D01*
Y19000D01*
X3720Y5854D02*
Y19000D01*
X3300Y6134D02*
Y19000D01*
X2101Y11685D02*
X2500Y12084D01*
X-1034Y10500D02*
X1300Y12834D01*
Y19000D01*
X-784Y10150D02*
X1700Y12634D01*
Y19000D01*
X-732Y9552D02*
X2102Y12386D01*
Y19000D01*
X-5850Y20400D02*
X-4130D01*
X-4584Y20100D02*
X-4000D01*
X-4094Y15280D02*
X-3320D01*
X-2930Y15670D01*
X-10200Y-2900D02*
X-8800Y-4300D01*
X-10200Y-2900D02*
Y11234D01*
X-9280Y12154D01*
X-9800Y-2950D02*
X-8650Y-4100D01*
X-9800Y-2950D02*
Y10384D01*
X-6447Y13737D01*
X-9400Y9734D02*
X-7234Y11900D01*
X-9400Y-3000D02*
Y9734D01*
Y-3000D02*
X-8500Y-3900D01*
X-6852D01*
X-6402Y-4349D01*
X-8800Y-4300D02*
X-8000D01*
X-7819Y-4481D01*
Y-4810D02*
Y-4481D01*
X-8700Y-2742D02*
X-7942Y-3500D01*
X-8700Y-2742D02*
Y5833D01*
X-7839Y6694D01*
X-8300Y5379D02*
X-6989Y6690D01*
X-8300Y-2700D02*
Y5379D01*
Y-2700D02*
X-7700Y-3300D01*
X-9100Y-2800D02*
X-8200Y-3700D01*
X-9100Y-2800D02*
Y9184D01*
X-7084Y11200D01*
X-7900Y5083D02*
X-6793Y6190D01*
X-7600Y-2400D02*
X-7100Y-2900D01*
X-7600Y-2400D02*
Y4233D01*
X-6093Y5740D01*
X-7900Y-2700D02*
Y5083D01*
Y-2700D02*
X-7500Y-3100D01*
X-6200D01*
X-7700Y-3300D02*
X-6300D01*
X-5700Y-3900D01*
X-6500Y-3500D02*
X-5800Y-4200D01*
X-5400D01*
X-5221Y-4379D01*
X-5700Y-3900D02*
X-5350D01*
X-4985Y-4265D01*
Y-4810D02*
Y-4265D01*
X-5700Y-3600D02*
X-5328D01*
X-4748Y-4179D01*
Y-4810D02*
Y-4179D01*
X-4512Y-4810D02*
Y-4088D01*
X-6000Y-2900D02*
X-5600Y-3300D01*
X-5300D01*
X-4512Y-4088D01*
X-6767Y-2700D02*
X-5544D01*
X-4276Y-3968D01*
Y-4810D02*
Y-3968D01*
X-5450Y-2500D02*
X-3950Y-4000D01*
X-2482D01*
X-2150Y-4332D01*
Y-4810D02*
Y-4332D01*
X-5300Y-2300D02*
X-3900Y-3700D01*
X-3700Y-3500D02*
X-1794D01*
X-1205Y-4089D01*
Y-4810D02*
Y-4089D01*
X-3900Y-3700D02*
X-2338D01*
X-1914Y-4124D01*
Y-4810D02*
Y-4124D01*
X212Y-4810D02*
Y-3812D01*
X-2157Y-2493D02*
X-1750Y-2900D01*
X-700D01*
X212Y-3812D01*
X448Y-4050D02*
X676Y-3822D01*
Y-1750D01*
X685Y-4365D02*
X1250Y-3800D01*
X2500D01*
X-7213Y-2254D02*
Y400D01*
X-6398Y1215D01*
Y3710D01*
X-6900Y-100D02*
X-5570Y1230D01*
X-6900Y-1900D02*
Y-100D01*
Y-1900D02*
X-6300Y-2500D01*
X-5450D01*
X-6019Y-2300D02*
X-5300D01*
X-6500Y-1819D02*
X-6019Y-2300D01*
X-6500Y-1819D02*
Y-500D01*
X-5270Y730D01*
X-5570Y1230D02*
X-4970D01*
X-3565Y2635D01*
Y3710D01*
X-5270Y730D02*
X-2500D01*
X-732Y2498D01*
Y3710D01*
X780Y280D02*
X2101Y1601D01*
Y3710D01*
X-6000Y-1860D02*
Y-1450D01*
X-4270Y280D01*
X780D01*
D16*
X3509Y22100D02*
D03*
X-3275Y22800D02*
D03*
X0Y23400D02*
D03*
X-700D02*
D03*
X-1400D02*
D03*
X-2075D02*
D03*
X1437Y21500D02*
D03*
X700D02*
D03*
X1400Y23400D02*
D03*
X700D02*
D03*
D17*
X945Y26300D02*
D03*
X-55D02*
D03*
X-1055D02*
D03*
X-2055D02*
D03*
X-3055D02*
D03*
X-4055D02*
D03*
X-5055D02*
D03*
X-6055D02*
D03*
X-7055D02*
D03*
X-8055D02*
D03*
X1945D02*
D03*
X1445Y27300D02*
D03*
X445D02*
D03*
X-555D02*
D03*
X-1555D02*
D03*
X-2555D02*
D03*
X-3555D02*
D03*
X-4555D02*
D03*
X-5555D02*
D03*
X-6555D02*
D03*
X-7555D02*
D03*
D18*
X4195Y26800D02*
D03*
X-10305D02*
D03*
D19*
X3720Y23800D02*
D03*
X-9830D02*
D03*
X3720Y-8800D02*
D03*
X-9830D02*
D03*
D20*
X-1988Y-5854D02*
D03*
X-2382D02*
D03*
X-2776D02*
D03*
X-3169D02*
D03*
X-3563D02*
D03*
X-3957D02*
D03*
X-4350D02*
D03*
X-4744D02*
D03*
X-5138D02*
D03*
X-5532D02*
D03*
X-5925D02*
D03*
X-6319D02*
D03*
X-6713D02*
D03*
X-7106D02*
D03*
X-7500D02*
D03*
X-7900D02*
D03*
X-7700Y-7750D02*
D03*
X-6519D02*
D03*
X-6046D02*
D03*
X-5102D02*
D03*
X-4629D02*
D03*
X-4157D02*
D03*
X-2031D02*
D03*
X-1086D02*
D03*
X95D02*
D03*
X568D02*
D03*
X-6284Y-8116D02*
D03*
X-4867D02*
D03*
X-4394D02*
D03*
X-1796D02*
D03*
X330D02*
D03*
X803D02*
D03*
D26*
X-555Y25915D02*
Y27300D01*
X-1555Y25914D02*
Y27300D01*
X445Y25900D02*
Y27300D01*
M02*
