%FSLAX24Y24*%
%MOIN*%
G70*
G01*
G75*
G04 Layer_Physical_Order=4*
G04 Layer_Color=128*
%ADD10R,0.1000X0.0300*%
%ADD11R,0.0360X0.0320*%
%ADD12R,0.0320X0.0360*%
%ADD13R,0.0118X0.0669*%
%ADD14C,0.0400*%
%ADD15C,0.0060*%
%ADD16C,0.0300*%
%ADD17C,0.0600*%
%ADD18C,0.1260*%
%ADD19C,0.1500*%
%ADD20C,0.0200*%
%ADD21C,0.0550*%
%ADD22C,0.0700*%
%ADD23C,0.1361*%
G04:AMPARAMS|DCode=24|XSize=188.5mil|YSize=188.5mil|CornerRadius=0mil|HoleSize=0mil|Usage=FLASHONLY|Rotation=0.000|XOffset=0mil|YOffset=0mil|HoleType=Round|Shape=Relief|Width=10mil|Gap=10mil|Entries=4|*
%AMTHD24*
7,0,0,0.1885,0.1685,0.0100,45*
%
%ADD24THD24*%
%ADD25C,0.0500*%
D14*
X-11500Y-10000D02*
Y28450D01*
X5400D01*
Y-10000D02*
Y28450D01*
X-11500Y-10000D02*
X5400D01*
D21*
X3509Y22100D02*
D03*
X-3275Y22800D02*
D03*
X0Y23400D02*
D03*
X-700D02*
D03*
X-1400D02*
D03*
X-2075D02*
D03*
X1437Y21500D02*
D03*
X700D02*
D03*
X1400Y23400D02*
D03*
X700D02*
D03*
D22*
X945Y26300D02*
D03*
X-55D02*
D03*
X-1055D02*
D03*
X-2055D02*
D03*
X-3055D02*
D03*
X-4055D02*
D03*
X-5055D02*
D03*
X-6055D02*
D03*
X-7055D02*
D03*
X-8055D02*
D03*
X1945D02*
D03*
X1445Y27300D02*
D03*
X445D02*
D03*
X-555D02*
D03*
X-1555D02*
D03*
X-2555D02*
D03*
X-3555D02*
D03*
X-4555D02*
D03*
X-5555D02*
D03*
X-6555D02*
D03*
X-7555D02*
D03*
D23*
X4195Y26800D02*
D03*
X-10305D02*
D03*
D24*
X3720Y23800D02*
D03*
X-9830D02*
D03*
X3720Y-8800D02*
D03*
X-9830D02*
D03*
D25*
X-1988Y-5854D02*
D03*
X-2382D02*
D03*
X-2776D02*
D03*
X-3169D02*
D03*
X-3563D02*
D03*
X-3957D02*
D03*
X-4350D02*
D03*
X-4744D02*
D03*
X-5138D02*
D03*
X-5532D02*
D03*
X-5925D02*
D03*
X-6319D02*
D03*
X-6713D02*
D03*
X-7106D02*
D03*
X-7500D02*
D03*
X-7900D02*
D03*
X-7700Y-7750D02*
D03*
X-6519D02*
D03*
X-6046D02*
D03*
X-5102D02*
D03*
X-4629D02*
D03*
X-4157D02*
D03*
X-2031D02*
D03*
X-1086D02*
D03*
X95D02*
D03*
X568D02*
D03*
X-6284Y-8116D02*
D03*
X-4867D02*
D03*
X-4394D02*
D03*
X-1796D02*
D03*
X330D02*
D03*
X803D02*
D03*
M02*
