%FSLAX24Y24*%
%MOIN*%
G70*
G01*
G75*
G04 Layer_Physical_Order=2*
G04 Layer_Color=36540*
%ADD10R,0.1000X0.0300*%
%ADD11R,0.0360X0.0320*%
%ADD12R,0.0320X0.0360*%
%ADD13R,0.0118X0.0669*%
%ADD14C,0.0400*%
%ADD15C,0.0060*%
%ADD16C,0.0300*%
%ADD17C,0.0600*%
%ADD18C,0.1260*%
%ADD19C,0.1500*%
%ADD20C,0.0200*%
D14*
X2300Y22000D02*
X2500Y21800D01*
X495Y22000D02*
X2300D01*
X-700Y23195D02*
X495Y22000D01*
X-700Y23195D02*
Y23400D01*
X-2075Y22850D02*
Y23400D01*
D15*
X-1000Y7797D02*
Y21950D01*
X-1380Y22330D02*
X-1000Y21950D01*
X-2400Y15900D02*
X-1500Y16800D01*
Y22250D01*
X-1580Y22330D02*
X-1500Y22250D01*
X-4030Y16320D02*
X-1780Y18570D01*
Y22330D01*
X-2075Y22926D02*
X-1380Y22330D01*
X-2080Y22930D02*
X-2075Y22926D01*
X-2080Y22930D02*
X-2075Y22924D01*
X-1580Y22330D01*
X-2080Y22930D02*
X-2075Y22920D01*
X-1780Y22330D01*
X-2080Y22930D02*
X-2075Y22899D01*
X-1980Y22330D01*
X-5400Y16600D02*
X-1980Y20020D01*
Y22330D01*
X-6850Y16200D02*
X-2180Y20870D01*
Y22330D01*
X-2380Y21620D02*
Y22330D01*
X-4000Y20000D02*
X-2380Y21620D01*
X-7600Y20000D02*
X-4000D01*
X-8800Y20400D02*
X-4275D01*
X-2580Y22095D01*
Y22330D01*
X-9450Y20800D02*
X-4332D01*
X-2932Y22200D01*
X-7900Y-5854D02*
Y-5550D01*
X-7750Y-5400D01*
Y-4400D01*
X-10600Y-1550D02*
X-7750Y-4400D01*
X-7500Y-5854D02*
Y-4300D01*
X-10200Y-1600D02*
X-7500Y-4300D01*
X-7106Y-5854D02*
Y-5594D01*
X-7300Y-5400D02*
X-7106Y-5594D01*
X-7300Y-5400D02*
Y-4150D01*
X-9800Y-1650D02*
X-7300Y-4150D01*
X-6713Y-5854D02*
Y-5637D01*
X-7050Y-5300D02*
X-6713Y-5637D01*
X-7050Y-5300D02*
Y-4050D01*
X-9500Y-1600D02*
X-7050Y-4050D01*
X-9500Y-1600D02*
Y9200D01*
X-6319Y-5854D02*
Y-4444D01*
X-9150Y-1613D02*
X-6319Y-4444D01*
X-9150Y-1613D02*
Y5800D01*
X-5925Y-5854D02*
Y-4525D01*
X-8750Y-1700D02*
X-5925Y-4525D01*
X-8750Y-1700D02*
Y5350D01*
X-5532Y-5854D02*
Y-4468D01*
X-8350Y-1650D02*
X-5532Y-4468D01*
X-8350Y-1650D02*
Y5050D01*
X-5350Y-5642D02*
X-5138Y-5854D01*
X-5350Y-5642D02*
Y-4300D01*
X-7850Y-1800D02*
X-5350Y-4300D01*
X-4744Y-5854D02*
Y-5556D01*
X-5138Y-5162D02*
X-4744Y-5556D01*
X-5138Y-5162D02*
Y-4112D01*
X-7300Y-1950D02*
X-5138Y-4112D01*
X-7850Y-1800D02*
Y4400D01*
X-7300Y-1950D02*
Y750D01*
X-6800Y1250D01*
X-4350Y-5854D02*
Y-5650D01*
X-4700Y-5300D02*
X-4350Y-5650D01*
X-4700Y-5300D02*
Y-4188D01*
X-6950Y-1938D02*
X-4700Y-4188D01*
X-6950Y-1938D02*
Y250D01*
X-3957Y-5854D02*
Y-5743D01*
X-4450Y-5250D02*
X-3957Y-5743D01*
X-4450Y-5250D02*
Y-4050D01*
X-6600Y-1900D02*
X-4450Y-4050D01*
X-6600Y-1900D02*
Y-100D01*
X-3563Y-5854D02*
Y-5687D01*
X-4250Y-5000D02*
X-3563Y-5687D01*
X-4250Y-5000D02*
Y-3850D01*
X-6200Y-1900D02*
X-4250Y-3850D01*
X-6200Y-1900D02*
Y-850D01*
X-7850Y4400D02*
X-6500Y5750D01*
X-8350Y5050D02*
X-7200Y6200D01*
X-9150Y5800D02*
X-7650Y7300D01*
X-10600Y-1550D02*
Y19650D01*
X-9800Y-1650D02*
Y11750D01*
X-8250Y13300D01*
Y19350D01*
X-9750Y13700D02*
Y19450D01*
X-10200Y-1600D02*
Y13250D01*
X-9750Y13700D01*
X-9500Y9200D02*
X-6850Y11850D01*
Y16200D01*
X-5400Y8100D02*
Y16600D01*
X-6200Y7300D02*
X-5400Y8100D01*
X-7650Y7300D02*
X-6200D01*
X-8750Y5350D02*
X-7400Y6700D01*
X-4030Y7630D02*
Y16320D01*
X-4960Y6700D02*
X-4030Y7630D01*
X-7400Y6700D02*
X-4960D01*
X-7200Y6200D02*
X-4300D01*
X-2400Y8100D01*
Y15900D01*
X-6800Y1250D02*
Y4550D01*
X-6050Y5300D01*
X-6950Y250D02*
X-5950Y1250D01*
X-4300D01*
X-4000Y1550D01*
Y4213D01*
X-6600Y-100D02*
X-5750Y750D01*
X-1950D01*
X-1150Y1550D01*
Y5300D01*
X-6200Y-850D02*
X-5050Y300D01*
X-3169Y-5854D02*
Y-5469D01*
X-3050Y-5350D01*
Y-4050D01*
X-3650Y-3450D02*
X-3050Y-4050D01*
X-4150Y-3450D02*
X-3650D01*
X-5400Y-2200D02*
X-4150Y-3450D01*
X-5400Y-2200D02*
Y-1450D01*
X-4000Y-50D01*
X-2776Y-5854D02*
Y-5474D01*
X-2820Y-5430D02*
X-2776Y-5474D01*
X-2820Y-5430D02*
Y-2630D01*
X-2540Y-2350D01*
Y-990D01*
X-1900Y-350D01*
X-2382Y-5854D02*
Y-5430D01*
X-2100Y-5148D01*
Y-3000D01*
X-1600Y-2500D01*
X0D01*
X300Y-2200D01*
Y-1450D01*
X950Y-800D01*
X1450D01*
X2550Y300D01*
X-1988Y-5854D02*
Y-5338D01*
X-1850Y-5200D01*
Y-4050D01*
X-900Y-3100D01*
X2200D01*
X3150Y-2150D01*
X-4000Y4213D02*
X-3563Y4650D01*
X-2434D01*
X1000Y8084D01*
Y8600D01*
X-5050Y300D02*
X-1000D01*
X500Y1800D01*
X-150Y-50D02*
X1700Y1800D01*
X-1900Y-350D02*
X600D01*
X2150Y1200D01*
X2550Y300D02*
Y1850D01*
X3200Y2500D01*
X3150Y-2150D02*
Y1491D01*
X-6500Y5750D02*
X-3047D01*
X-1000Y7797D01*
X-6050Y5300D02*
X-2650D01*
X400Y8350D01*
Y15350D01*
X500Y1800D02*
Y5874D01*
X3200Y2500D02*
Y3700D01*
X2150Y1200D02*
Y4300D01*
X1700Y1800D02*
Y6200D01*
X500Y5874D02*
X2100Y7474D01*
Y9571D01*
X-1150Y5300D02*
X1800Y8250D01*
Y10200D01*
X1000Y8600D02*
X1500Y9100D01*
Y20500D01*
X1800Y10200D02*
X1909Y10309D01*
Y20500D01*
X2100Y9571D02*
X2300Y9771D01*
Y20500D01*
X1700Y6200D02*
X2700Y7200D01*
Y20500D01*
X2150Y4300D02*
X3100Y5250D01*
Y20500D01*
X3200Y3700D02*
X3500Y4000D01*
Y20500D01*
X3150Y1491D02*
X3900Y2241D01*
Y20500D01*
X400Y15350D02*
X1100Y16050D01*
Y20500D01*
X2500Y21800D01*
X1500Y20500D02*
X2500Y21800D01*
X2300Y20500D02*
X2500Y21800D01*
X2700Y20500D01*
X2500Y21800D02*
X3100Y20500D01*
X2500Y21800D02*
X3900Y20500D01*
X1909D02*
X2500Y21800D01*
X3500Y20500D01*
X-2580Y22330D02*
X-2080Y22930D01*
X-2380Y22330D02*
X-2080Y22930D01*
X-2180Y22330D02*
X-2080Y22930D01*
X-8250Y19350D02*
X-7600Y20000D01*
X-9750Y19450D02*
X-8800Y20400D01*
X-10600Y19650D02*
X-9450Y20800D01*
X-2932Y22200D02*
X-2080Y22930D01*
X-4000Y-50D02*
X-150D01*
D16*
X-700Y23400D02*
D03*
X-2075D02*
D03*
D20*
X-1988Y-5854D02*
D03*
X-2382D02*
D03*
X-2776D02*
D03*
X-3169D02*
D03*
X-3563D02*
D03*
X-3957D02*
D03*
X-4350D02*
D03*
X-4744D02*
D03*
X-5138D02*
D03*
X-5532D02*
D03*
X-5925D02*
D03*
X-6319D02*
D03*
X-6713D02*
D03*
X-7106D02*
D03*
X-7500D02*
D03*
X-7900D02*
D03*
M02*
