%FSLAX24Y24*%
%MOIN*%
G70*
G01*
G75*
G04 Layer_Color=32896*
%ADD10R,0.0118X0.0669*%
%ADD11R,0.1000X0.0300*%
%ADD12C,0.0060*%
%ADD13C,0.0400*%
%ADD14C,0.0200*%
%ADD15C,0.1500*%
%ADD16C,0.0500*%
%ADD17C,0.0600*%
%ADD18C,0.0200*%
G04:AMPARAMS|DCode=19|XSize=188.5mil|YSize=188.5mil|CornerRadius=0mil|HoleSize=0mil|Usage=FLASHONLY|Rotation=0.000|XOffset=0mil|YOffset=0mil|HoleType=Round|Shape=Relief|Width=10mil|Gap=10mil|Entries=4|*
%AMTHD19*
7,0,0,0.1885,0.1685,0.0100,45*
%
%ADD19THD19*%
%ADD20C,0.0650*%
%ADD21C,0.1360*%
%ADD22C,0.0197*%
%ADD23C,0.0100*%
%ADD24C,0.0050*%
%ADD25R,0.0188X0.0739*%
%ADD26R,0.1070X0.0370*%
%ADD27C,0.0270*%
%ADD28C,0.1570*%
%ADD29C,0.0570*%
%ADD30C,0.0670*%
D12*
X0Y15000D02*
X250D01*
X300Y14950D01*
Y14850D01*
X250Y14800D01*
X0D01*
Y14700D02*
Y14500D01*
X50D01*
X250Y14700D01*
X300D01*
X1400Y9500D02*
X1650D01*
X1700Y9450D01*
Y9350D01*
X1650Y9300D01*
X1400D01*
X1450Y9200D02*
X1400Y9150D01*
Y9050D01*
X1450Y9000D01*
X1500D01*
X1550Y9050D01*
X1600Y9000D01*
X1650D01*
X1700Y9050D01*
Y9150D01*
X1650Y9200D01*
X1600D01*
X1550Y9150D01*
X1500Y9200D01*
X1450D01*
X1550Y9150D02*
Y9050D01*
X2900Y4300D02*
X3150D01*
X3200Y4250D01*
Y4150D01*
X3150Y4100D01*
X2900D01*
X3200Y4000D02*
Y3900D01*
Y3950D01*
X2900D01*
X2950Y4000D01*
Y3750D02*
X2900Y3700D01*
Y3600D01*
X2950Y3550D01*
X3150D01*
X3200Y3600D01*
Y3700D01*
X3150Y3750D01*
X2950D01*
X4300Y-1500D02*
X4550D01*
X4600Y-1550D01*
Y-1650D01*
X4550Y-1700D01*
X4300D01*
X4550Y-1800D02*
X4600Y-1850D01*
Y-1950D01*
X4550Y-2000D01*
X4350D01*
X4300Y-1950D01*
Y-1850D01*
X4350Y-1800D01*
X4400D01*
X4450Y-1850D01*
Y-2000D01*
X-9480Y-4300D02*
X-9380D01*
X-9430D01*
Y-4550D01*
X-9380Y-4600D01*
X-9330D01*
X-9280Y-4550D01*
X-9780Y-4600D02*
X-9580D01*
X-9780Y-4400D01*
Y-4350D01*
X-9730Y-4300D01*
X-9630D01*
X-9580Y-4350D01*
X-7570Y8510D02*
Y8410D01*
Y8460D01*
X-7870D01*
X-7820Y8510D01*
X-7620Y3610D02*
X-7570Y3660D01*
Y3760D01*
X-7620Y3810D01*
X-7670D01*
X-7720Y3760D01*
X-7770Y3810D01*
X-7820D01*
X-7870Y3760D01*
Y3660D01*
X-7820Y3610D01*
X-7770D01*
X-7720Y3660D01*
X-7670Y3610D01*
X-7620D01*
X-7720Y3660D02*
Y3760D01*
X-10430Y19430D02*
Y19330D01*
Y19380D01*
X-10730D01*
X-10680Y19430D01*
X-10480Y14530D02*
X-10430Y14580D01*
Y14680D01*
X-10480Y14730D01*
X-10530D01*
X-10580Y14680D01*
X-10630Y14730D01*
X-10680D01*
X-10730Y14680D01*
Y14580D01*
X-10680Y14530D01*
X-10630D01*
X-10580Y14580D01*
X-10530Y14530D01*
X-10480D01*
X-10580Y14580D02*
Y14680D01*
X-9050Y9070D02*
X-9000Y9120D01*
Y9220D01*
X-9050Y9270D01*
X-9100D01*
X-9150Y9220D01*
X-9200Y9270D01*
X-9250D01*
X-9300Y9220D01*
Y9120D01*
X-9250Y9070D01*
X-9200D01*
X-9150Y9120D01*
X-9100Y9070D01*
X-9050D01*
X-9150Y9120D02*
Y9220D01*
X-9000Y13970D02*
Y13870D01*
Y13920D01*
X-9300D01*
X-9250Y13970D01*
X-6190Y-1850D02*
X-6140Y-1800D01*
Y-1700D01*
X-6190Y-1650D01*
X-6240D01*
X-6290Y-1700D01*
X-6340Y-1650D01*
X-6390D01*
X-6440Y-1700D01*
Y-1800D01*
X-6390Y-1850D01*
X-6340D01*
X-6290Y-1800D01*
X-6240Y-1850D01*
X-6190D01*
X-6290Y-1800D02*
Y-1700D01*
X-6140Y3050D02*
Y2950D01*
Y3000D01*
X-6440D01*
X-6390Y3050D01*
D22*
X3126Y-7645D02*
D03*
D23*
X-9119Y-4298D02*
X3047D01*
X-9119Y-7527D02*
X3047D01*
Y-4298D01*
X-9119Y-7527D02*
Y-4298D01*
X-7370Y3410D02*
Y8610D01*
Y3410D02*
X2730D01*
Y8810D01*
X-7370D02*
X2730D01*
X-7370Y8610D02*
Y8810D01*
X-10230Y14330D02*
Y19530D01*
Y14330D02*
X-130D01*
Y19730D01*
X-10230D02*
X-130D01*
X-10230Y19530D02*
Y19730D01*
X-8800Y14070D02*
Y14270D01*
X1300D01*
Y8870D02*
Y14270D01*
X-8800Y8870D02*
X1300D01*
X-8800D02*
Y14070D01*
X-5940Y3150D02*
Y3350D01*
X4160D01*
Y-2050D02*
Y3350D01*
X-5940Y-2050D02*
X4160D01*
X-5940D02*
Y3150D01*
M02*
