%FSLAX24Y24*%
%MOIN*%
G70*
G01*
G75*
G04 Layer_Color=32896*
%ADD10R,0.1000X0.0300*%
%ADD11R,0.0360X0.0320*%
%ADD12R,0.0320X0.0360*%
%ADD13R,0.0118X0.0669*%
%ADD14C,0.0400*%
%ADD15C,0.0060*%
%ADD16C,0.0300*%
%ADD17C,0.0600*%
%ADD18C,0.1260*%
%ADD19C,0.1500*%
%ADD20C,0.0200*%
%ADD21C,0.0550*%
%ADD22C,0.0700*%
%ADD23C,0.1361*%
G04:AMPARAMS|DCode=24|XSize=188.5mil|YSize=188.5mil|CornerRadius=0mil|HoleSize=0mil|Usage=FLASHONLY|Rotation=0.000|XOffset=0mil|YOffset=0mil|HoleType=Round|Shape=Relief|Width=10mil|Gap=10mil|Entries=4|*
%AMTHD24*
7,0,0,0.1885,0.1685,0.0100,45*
%
%ADD24THD24*%
%ADD25C,0.0500*%
%ADD26C,0.0200*%
%ADD27C,0.0197*%
%ADD28C,0.0100*%
%ADD29C,0.0010*%
%ADD30C,0.0080*%
%ADD31C,0.0039*%
%ADD32C,0.0050*%
%ADD33R,0.0900X0.0100*%
%ADD34R,0.0430X0.0390*%
%ADD35R,0.0390X0.0430*%
%ADD36R,0.0188X0.0739*%
%ADD37C,0.0370*%
%ADD38C,0.0670*%
%ADD39C,0.1330*%
%ADD40C,0.1570*%
%ADD41C,0.0270*%
D15*
X-130Y22400D02*
X-430D01*
Y22250D01*
X-380Y22200D01*
X-280D01*
X-230Y22250D01*
Y22400D01*
Y22300D02*
X-130Y22200D01*
Y21900D02*
Y22100D01*
X-330Y21900D01*
X-380D01*
X-430Y21950D01*
Y22050D01*
X-380Y22100D01*
X-2200Y22600D02*
Y22900D01*
X-2350D01*
X-2400Y22850D01*
Y22750D01*
X-2350Y22700D01*
X-2200D01*
X-2300D02*
X-2400Y22600D01*
X-2500D02*
X-2600D01*
X-2550D01*
Y22900D01*
X-2500Y22850D01*
X-2750D02*
X-2800Y22900D01*
X-2900D01*
X-2950Y22850D01*
Y22650D01*
X-2900Y22600D01*
X-2800D01*
X-2750Y22650D01*
Y22850D01*
X250Y22400D02*
X-50D01*
Y22250D01*
X0Y22200D01*
X100D01*
X150Y22250D01*
Y22400D01*
Y22300D02*
X250Y22200D01*
X0Y22100D02*
X-50Y22050D01*
Y21950D01*
X0Y21900D01*
X50D01*
X100Y21950D01*
Y22000D01*
Y21950D01*
X150Y21900D01*
X200D01*
X250Y21950D01*
Y22050D01*
X200Y22100D01*
X-3600Y24600D02*
X-3900D01*
Y24450D01*
X-3850Y24400D01*
X-3750D01*
X-3700Y24450D01*
Y24600D01*
Y24500D02*
X-3600Y24400D01*
Y24300D02*
Y24200D01*
Y24250D01*
X-3900D01*
X-3850Y24300D01*
X-4900Y24600D02*
X-5200D01*
Y24450D01*
X-5150Y24400D01*
X-5050D01*
X-5000Y24450D01*
Y24600D01*
Y24500D02*
X-4900Y24400D01*
X-5200Y24100D02*
X-5150Y24200D01*
X-5050Y24300D01*
X-4950D01*
X-4900Y24250D01*
Y24150D01*
X-4950Y24100D01*
X-5000D01*
X-5050Y24150D01*
Y24300D01*
X-4400Y24600D02*
X-4700D01*
Y24450D01*
X-4650Y24400D01*
X-4550D01*
X-4500Y24450D01*
Y24600D01*
Y24500D02*
X-4400Y24400D01*
X-4450Y24300D02*
X-4400Y24250D01*
Y24150D01*
X-4450Y24100D01*
X-4650D01*
X-4700Y24150D01*
Y24250D01*
X-4650Y24300D01*
X-4600D01*
X-4550Y24250D01*
Y24100D01*
X-4005Y24600D02*
X-4305D01*
Y24450D01*
X-4255Y24400D01*
X-4155D01*
X-4105Y24450D01*
Y24600D01*
Y24500D02*
X-4005Y24400D01*
Y24300D02*
Y24200D01*
Y24250D01*
X-4305D01*
X-4255Y24300D01*
X-4005Y23850D02*
Y24050D01*
X-4205Y23850D01*
X-4255D01*
X-4305Y23900D01*
Y24000D01*
X-4255Y24050D01*
X-3200Y24600D02*
X-3500D01*
Y24450D01*
X-3450Y24400D01*
X-3350D01*
X-3300Y24450D01*
Y24600D01*
Y24500D02*
X-3200Y24400D01*
Y24150D02*
X-3500D01*
X-3350Y24300D01*
Y24100D01*
X-5300Y24600D02*
X-5600D01*
Y24450D01*
X-5550Y24400D01*
X-5450D01*
X-5400Y24450D01*
Y24600D01*
Y24500D02*
X-5300Y24400D01*
X-5600Y24100D02*
Y24300D01*
X-5450D01*
X-5500Y24200D01*
Y24150D01*
X-5450Y24100D01*
X-5350D01*
X-5300Y24150D01*
Y24250D01*
X-5350Y24300D01*
X0Y15000D02*
X250D01*
X300Y14950D01*
Y14850D01*
X250Y14800D01*
X0D01*
Y14700D02*
Y14500D01*
X50D01*
X250Y14700D01*
X300D01*
X1400Y9500D02*
X1650D01*
X1700Y9450D01*
Y9350D01*
X1650Y9300D01*
X1400D01*
X1450Y9200D02*
X1400Y9150D01*
Y9050D01*
X1450Y9000D01*
X1500D01*
X1550Y9050D01*
X1600Y9000D01*
X1650D01*
X1700Y9050D01*
Y9150D01*
X1650Y9200D01*
X1600D01*
X1550Y9150D01*
X1500Y9200D01*
X1450D01*
X1550Y9150D02*
Y9050D01*
X2900Y4300D02*
X3150D01*
X3200Y4250D01*
Y4150D01*
X3150Y4100D01*
X2900D01*
X3200Y4000D02*
Y3900D01*
Y3950D01*
X2900D01*
X2950Y4000D01*
Y3750D02*
X2900Y3700D01*
Y3600D01*
X2950Y3550D01*
X3150D01*
X3200Y3600D01*
Y3700D01*
X3150Y3750D01*
X2950D01*
X4300Y-1500D02*
X4550D01*
X4600Y-1550D01*
Y-1650D01*
X4550Y-1700D01*
X4300D01*
X4550Y-1800D02*
X4600Y-1850D01*
Y-1950D01*
X4550Y-2000D01*
X4350D01*
X4300Y-1950D01*
Y-1850D01*
X4350Y-1800D01*
X4400D01*
X4450Y-1850D01*
Y-2000D01*
X-9480Y-4300D02*
X-9380D01*
X-9430D01*
Y-4550D01*
X-9380Y-4600D01*
X-9330D01*
X-9280Y-4550D01*
X-9780Y-4600D02*
X-9580D01*
X-9780Y-4400D01*
Y-4350D01*
X-9730Y-4300D01*
X-9630D01*
X-9580Y-4350D01*
D27*
X3126Y-7645D02*
D03*
D28*
X-5940Y-2050D02*
Y3150D01*
Y-2050D02*
X4160D01*
Y3350D01*
X-5940D02*
X4160D01*
X-5940Y3150D02*
Y3350D01*
X-7370Y8610D02*
Y8810D01*
X2730D01*
Y3410D02*
Y8810D01*
X-7370Y3410D02*
X2730D01*
X-7370D02*
Y8610D01*
X-8800Y8870D02*
Y14070D01*
Y8870D02*
X1300D01*
Y14270D01*
X-8800D02*
X1300D01*
X-8800Y14070D02*
Y14270D01*
X-10230Y19530D02*
Y19730D01*
X-130D01*
Y14330D02*
Y19730D01*
X-10230Y14330D02*
X-130D01*
X-10230D02*
Y19530D01*
X-9119Y-4298D02*
X3047D01*
X-9119Y-7527D02*
X3047D01*
Y-4298D01*
X-9119Y-7527D02*
Y-4298D01*
D30*
X400Y23030D02*
X1000D01*
X400Y21770D02*
Y23030D01*
X1000Y21770D02*
Y23030D01*
X400Y21770D02*
X1000D01*
X-770Y22500D02*
Y23100D01*
X-2030D02*
X-770D01*
X-2030Y22500D02*
X-770D01*
X-2030D02*
Y23100D01*
X1087Y21770D02*
X1687D01*
Y23030D01*
X1087Y21770D02*
Y23030D01*
X1687D01*
X383Y24930D02*
X983D01*
X383Y23670D02*
Y24930D01*
X983Y23670D02*
Y24930D01*
X383Y23670D02*
X983D01*
X-1700Y24930D02*
X-1100D01*
X-1700Y23670D02*
Y24930D01*
X-1100Y23670D02*
Y24930D01*
X-1700Y23670D02*
X-1100D01*
X-1000Y24930D02*
X-400D01*
X-1000Y23670D02*
Y24930D01*
X-400Y23670D02*
Y24930D01*
X-1000Y23670D02*
X-400D01*
X-300Y24930D02*
X300D01*
X-300Y23670D02*
Y24930D01*
X300Y23670D02*
Y24930D01*
X-300Y23670D02*
X300D01*
X1091Y24930D02*
X1691D01*
X1091Y23670D02*
Y24930D01*
X1691Y23670D02*
Y24930D01*
X1091Y23670D02*
X1691D01*
X-2375Y24930D02*
X-1775D01*
X-2375Y23670D02*
Y24930D01*
X-1775Y23670D02*
Y24930D01*
X-2375Y23670D02*
X-1775D01*
D32*
X-6140Y3050D02*
Y2950D01*
Y3000D01*
X-6440D01*
X-6390Y3050D01*
X-6190Y-1850D02*
X-6140Y-1800D01*
Y-1700D01*
X-6190Y-1650D01*
X-6240D01*
X-6290Y-1700D01*
X-6340Y-1650D01*
X-6390D01*
X-6440Y-1700D01*
Y-1800D01*
X-6390Y-1850D01*
X-6340D01*
X-6290Y-1800D01*
X-6240Y-1850D01*
X-6190D01*
X-6290Y-1800D02*
Y-1700D01*
X-7620Y3610D02*
X-7570Y3660D01*
Y3760D01*
X-7620Y3810D01*
X-7670D01*
X-7720Y3760D01*
X-7770Y3810D01*
X-7820D01*
X-7870Y3760D01*
Y3660D01*
X-7820Y3610D01*
X-7770D01*
X-7720Y3660D01*
X-7670Y3610D01*
X-7620D01*
X-7720Y3660D02*
Y3760D01*
X-7570Y8510D02*
Y8410D01*
Y8460D01*
X-7870D01*
X-7820Y8510D01*
X-9000Y13970D02*
Y13870D01*
Y13920D01*
X-9300D01*
X-9250Y13970D01*
X-9050Y9070D02*
X-9000Y9120D01*
Y9220D01*
X-9050Y9270D01*
X-9100D01*
X-9150Y9220D01*
X-9200Y9270D01*
X-9250D01*
X-9300Y9220D01*
Y9120D01*
X-9250Y9070D01*
X-9200D01*
X-9150Y9120D01*
X-9100Y9070D01*
X-9050D01*
X-9150Y9120D02*
Y9220D01*
X-10480Y14530D02*
X-10430Y14580D01*
Y14680D01*
X-10480Y14730D01*
X-10530D01*
X-10580Y14680D01*
X-10630Y14730D01*
X-10680D01*
X-10730Y14680D01*
Y14580D01*
X-10680Y14530D01*
X-10630D01*
X-10580Y14580D01*
X-10530Y14530D01*
X-10480D01*
X-10580Y14580D02*
Y14680D01*
X-10430Y19430D02*
Y19330D01*
Y19380D01*
X-10730D01*
X-10680Y19430D01*
D33*
X-4990Y-1500D02*
D03*
X-2157D02*
D03*
X676D02*
D03*
X3509D02*
D03*
X-4990Y2750D02*
D03*
X-2157D02*
D03*
X676D02*
D03*
X3509D02*
D03*
X2079Y8210D02*
D03*
X-754D02*
D03*
X-3587D02*
D03*
X-6420D02*
D03*
X2079Y3960D02*
D03*
X-754D02*
D03*
X-3587D02*
D03*
X-6420D02*
D03*
X-7850Y9420D02*
D03*
X-5017D02*
D03*
X-2184D02*
D03*
X649D02*
D03*
X-7850Y13670D02*
D03*
X-5017D02*
D03*
X-2184D02*
D03*
X649D02*
D03*
X-781Y19130D02*
D03*
X-3614D02*
D03*
X-6447D02*
D03*
X-9280D02*
D03*
X-781Y14880D02*
D03*
X-3614D02*
D03*
X-6447D02*
D03*
X-9280D02*
D03*
M02*
