%FSLAX24Y24*%
%MOIN*%
G70*
G01*
G75*
G04 Layer_Color=16711935*
%ADD10R,0.1000X0.0300*%
%ADD11R,0.0360X0.0320*%
%ADD12R,0.0320X0.0360*%
%ADD13R,0.0118X0.0669*%
%ADD14C,0.0400*%
%ADD15C,0.0060*%
%ADD16C,0.0300*%
%ADD17C,0.0600*%
%ADD18C,0.1260*%
%ADD19C,0.1500*%
%ADD20C,0.0200*%
%ADD21C,0.0550*%
%ADD22C,0.0700*%
%ADD23C,0.1361*%
G04:AMPARAMS|DCode=24|XSize=188.5mil|YSize=188.5mil|CornerRadius=0mil|HoleSize=0mil|Usage=FLASHONLY|Rotation=0.000|XOffset=0mil|YOffset=0mil|HoleType=Round|Shape=Relief|Width=10mil|Gap=10mil|Entries=4|*
%AMTHD24*
7,0,0,0.1885,0.1685,0.0100,45*
%
%ADD24THD24*%
%ADD25C,0.0500*%
%ADD26C,0.0200*%
%ADD27C,0.0197*%
%ADD28C,0.0100*%
%ADD29C,0.0010*%
%ADD30C,0.0080*%
%ADD31C,0.0039*%
%ADD32C,0.0050*%
%ADD33R,0.0900X0.0100*%
%ADD34R,0.0430X0.0390*%
%ADD35R,0.0390X0.0430*%
%ADD36R,0.0188X0.0739*%
%ADD37C,0.0370*%
%ADD38C,0.0670*%
%ADD39C,0.1330*%
%ADD40C,0.1570*%
%ADD41C,0.0270*%
D34*
X-1100Y22800D02*
D03*
X-1700D02*
D03*
D35*
X700Y22700D02*
D03*
Y22100D02*
D03*
X1387D02*
D03*
Y22700D02*
D03*
X683Y24600D02*
D03*
Y24000D02*
D03*
X-1400Y24600D02*
D03*
Y24000D02*
D03*
X-700Y24600D02*
D03*
Y24000D02*
D03*
X0Y24600D02*
D03*
Y24000D02*
D03*
X1391Y24600D02*
D03*
Y24000D02*
D03*
X-2075Y24600D02*
D03*
Y24000D02*
D03*
D36*
X2220Y-7035D02*
D03*
X1984D02*
D03*
X1748D02*
D03*
X1511D02*
D03*
X1275D02*
D03*
X1039D02*
D03*
X803D02*
D03*
X566D02*
D03*
X330D02*
D03*
X94D02*
D03*
X-142D02*
D03*
X-378D02*
D03*
X-615D02*
D03*
X-851D02*
D03*
X-1087D02*
D03*
X-1323D02*
D03*
X-1560D02*
D03*
X-1796D02*
D03*
X-2032D02*
D03*
X-2268D02*
D03*
X-2504D02*
D03*
X-2741D02*
D03*
X-2977D02*
D03*
X-3213D02*
D03*
X-3449D02*
D03*
X-3686D02*
D03*
X-3922D02*
D03*
X-4158D02*
D03*
X-4394D02*
D03*
X-4630D02*
D03*
X-4867D02*
D03*
X-5103D02*
D03*
X-5339D02*
D03*
X-5575D02*
D03*
X-5811D02*
D03*
X-6048D02*
D03*
X-6284D02*
D03*
X-6520D02*
D03*
X-6756D02*
D03*
X-6993D02*
D03*
X-7229D02*
D03*
X-7465D02*
D03*
X-7701D02*
D03*
X-7937D02*
D03*
X-8174D02*
D03*
X2102Y-4810D02*
D03*
X1866D02*
D03*
X1629D02*
D03*
X1393D02*
D03*
X1157D02*
D03*
X921D02*
D03*
X685D02*
D03*
X448D02*
D03*
X212D02*
D03*
X-24D02*
D03*
X-260D02*
D03*
X-497D02*
D03*
X-733D02*
D03*
X-969D02*
D03*
X-1205D02*
D03*
X-1441D02*
D03*
X-1678D02*
D03*
X-1914D02*
D03*
X-2150D02*
D03*
X-2386D02*
D03*
X-2623D02*
D03*
X-2859D02*
D03*
X-3095D02*
D03*
X-3331D02*
D03*
X-3567D02*
D03*
X-3804D02*
D03*
X-4040D02*
D03*
X-4276D02*
D03*
X-4512D02*
D03*
X-4748D02*
D03*
X-4985D02*
D03*
X-5221D02*
D03*
X-5457D02*
D03*
X-5693D02*
D03*
X-5930D02*
D03*
X-6166D02*
D03*
X-6402D02*
D03*
X-6638D02*
D03*
X-6874D02*
D03*
X-7111D02*
D03*
X-7347D02*
D03*
X-7583D02*
D03*
X-7819D02*
D03*
X-8056D02*
D03*
X-8292D02*
D03*
D37*
X3509Y22100D02*
D03*
X-3275Y22800D02*
D03*
X0Y23400D02*
D03*
X-700D02*
D03*
X-1400D02*
D03*
X-2075D02*
D03*
X1437Y21500D02*
D03*
X700D02*
D03*
X1400Y23400D02*
D03*
X700D02*
D03*
D38*
X945Y26300D02*
D03*
X-55D02*
D03*
X-1055D02*
D03*
X-2055D02*
D03*
X-3055D02*
D03*
X-4055D02*
D03*
X-5055D02*
D03*
X-6055D02*
D03*
X-7055D02*
D03*
X-8055D02*
D03*
X1945D02*
D03*
X1445Y27300D02*
D03*
X445D02*
D03*
X-555D02*
D03*
X-1555D02*
D03*
X-2555D02*
D03*
X-3555D02*
D03*
X-4555D02*
D03*
X-5555D02*
D03*
X-6555D02*
D03*
X-7555D02*
D03*
D39*
X4195Y26800D02*
D03*
X-10305D02*
D03*
D40*
X3720Y23800D02*
D03*
X-9830D02*
D03*
X3720Y-8800D02*
D03*
X-9830D02*
D03*
D41*
X-1988Y-5854D02*
D03*
X-2382D02*
D03*
X-2776D02*
D03*
X-3169D02*
D03*
X-3563D02*
D03*
X-3957D02*
D03*
X-4350D02*
D03*
X-4744D02*
D03*
X-5138D02*
D03*
X-5532D02*
D03*
X-5925D02*
D03*
X-6319D02*
D03*
X-6713D02*
D03*
X-7106D02*
D03*
X-7500D02*
D03*
X-7900D02*
D03*
X-7700Y-7750D02*
D03*
X-6519D02*
D03*
X-6046D02*
D03*
X-5102D02*
D03*
X-4629D02*
D03*
X-4157D02*
D03*
X-2031D02*
D03*
X-1086D02*
D03*
X95D02*
D03*
X568D02*
D03*
X-6284Y-8116D02*
D03*
X-4867D02*
D03*
X-4394D02*
D03*
X-1796D02*
D03*
X330D02*
D03*
X803D02*
D03*
M02*
