%FSLAX24Y24*%
%MOIN*%
G70*
G01*
G75*
G04 Layer_Physical_Order=5*
G04 Layer_Color=16440176*
%ADD10R,0.0118X0.0669*%
%ADD11R,0.1000X0.0300*%
%ADD12C,0.0060*%
%ADD13C,0.0400*%
%ADD14C,0.0200*%
%ADD15C,0.1500*%
%ADD16C,0.0500*%
%ADD17C,0.0600*%
%ADD18C,0.0200*%
G04:AMPARAMS|DCode=19|XSize=188.5mil|YSize=188.5mil|CornerRadius=0mil|HoleSize=0mil|Usage=FLASHONLY|Rotation=0.000|XOffset=0mil|YOffset=0mil|HoleType=Round|Shape=Relief|Width=10mil|Gap=10mil|Entries=4|*
%AMTHD19*
7,0,0,0.1885,0.1685,0.0100,45*
%
%ADD19THD19*%
%ADD20C,0.0650*%
%ADD21C,0.1360*%
D12*
X-7700Y-7750D02*
Y-5350D01*
X-7800Y-5250D02*
X-7700Y-5350D01*
X-6519Y-7750D02*
Y-6781D01*
X-6903Y-6397D02*
X-6519Y-6781D01*
X-6903Y-6397D02*
Y-5490D01*
X-6650Y-5237D01*
X-6284Y-8116D02*
Y-6285D01*
X-6519Y-6050D02*
X-6284Y-6285D01*
X-6519Y-6050D02*
Y-5369D01*
X-6400Y-5250D01*
X-6046Y-7750D02*
Y-6254D01*
X-6115Y-6185D02*
X-6046Y-6254D01*
X-6115Y-6185D02*
Y-5385D01*
X-6150Y-5350D02*
X-6115Y-5385D01*
X-6150Y-5350D02*
Y-4300D01*
X-5102Y-7750D02*
Y-6448D01*
X-5328Y-6222D02*
X-5102Y-6448D01*
X-5328Y-6222D02*
Y-5528D01*
X-5200Y-5400D01*
Y-4400D01*
X-4867Y-8116D02*
Y-6183D01*
X-4948Y-6102D02*
X-4867Y-6183D01*
X-4948Y-6102D02*
Y-5774D01*
X-4950Y-5771D02*
X-4948Y-5774D01*
X-4629Y-7750D02*
Y-6179D01*
X-4550Y-6100D01*
Y-5094D01*
X-4744Y-4900D02*
X-4550Y-5094D01*
X-4394Y-8116D02*
Y-6394D01*
X-4150Y-6150D01*
Y-5697D01*
X-4250Y-5597D02*
X-4150Y-5697D01*
X-4250Y-5597D02*
Y-5150D01*
X-4500Y-4900D02*
X-4250Y-5150D01*
X-4157Y-7750D02*
Y-6510D01*
X-3767Y-6120D01*
Y-5333D01*
X-2031Y-7750D02*
Y-6569D01*
X-2178Y-6422D02*
X-2031Y-6569D01*
X-2178Y-6422D02*
Y-5628D01*
X-2150Y-5600D01*
X-1796Y-8116D02*
Y-6296D01*
X-1750Y-6250D01*
Y-5600D01*
X-1900Y-5450D02*
X-1750Y-5600D01*
X-1086Y-7750D02*
Y-6264D01*
X-1200Y-6150D02*
X-1086Y-6264D01*
X95Y-7750D02*
Y-5895D01*
X-30Y-5770D02*
X95Y-5895D01*
X-30Y-5770D02*
Y-4100D01*
X330Y-8116D02*
Y-5430D01*
X250Y-5350D02*
X330Y-5430D01*
X568Y-7750D02*
Y-5168D01*
X450Y-5050D02*
X568Y-5168D01*
X803Y-8116D02*
Y-5003D01*
X700Y-4900D02*
X803Y-5003D01*
X-10200Y-2900D02*
X-8800Y-4300D01*
X-10200Y-2900D02*
Y11200D01*
X-9300Y12100D01*
X-6650Y-5237D02*
Y-4400D01*
X-6850Y-4200D02*
X-6650Y-4400D01*
X-7650Y-4200D02*
X-6850D01*
X-7750Y-4100D02*
X-7650Y-4200D01*
X-8650Y-4100D02*
X-7750D01*
X-9800Y-2950D02*
X-8650Y-4100D01*
X-9800Y-2950D02*
Y10400D01*
X-6400Y-5250D02*
Y-4350D01*
X-6850Y-3900D02*
X-6400Y-4350D01*
X-8500Y-3900D02*
X-6850D01*
X-9400Y-3000D02*
X-8500Y-3900D01*
X-9400Y-3000D02*
Y9700D01*
X-7950Y-3500D02*
X-6500D01*
X-6750Y-3700D02*
X-6150Y-4300D01*
X-8200Y-3700D02*
X-6750D01*
X-9100Y-2800D02*
X-8200Y-3700D01*
X-9100Y-2800D02*
Y9200D01*
X-8300Y-2700D02*
X-7700Y-3300D01*
X-8300Y-2700D02*
Y5400D01*
X-7000Y6700D01*
X-4744Y-4900D02*
Y-4184D01*
X-5328Y-3600D02*
X-4744Y-4184D01*
X-5700Y-3600D02*
X-5328D01*
X-6200Y-3100D02*
X-5700Y-3600D01*
X-7900Y5100D02*
X-6800Y6200D01*
X-4500Y-4900D02*
Y-4100D01*
X-5300Y-3300D02*
X-4500Y-4100D01*
X-5600Y-3300D02*
X-5300D01*
X-6000Y-2900D02*
X-5600Y-3300D01*
X-7100Y-2900D02*
X-6000D01*
X-7600Y-2400D02*
X-7100Y-2900D01*
X-7600Y-2400D02*
Y4200D01*
X-6100Y5700D01*
X-6764Y-2700D02*
X-5544D01*
X-7213Y-2251D02*
X-6764Y-2700D01*
X-7213Y-2251D02*
Y387D01*
X-2150Y-5600D02*
Y-4332D01*
X-6900Y-100D02*
X-5600Y1200D01*
X-5101Y-2100D02*
X-3701Y-3500D01*
X-5750Y-2100D02*
X-5101D01*
X-6000Y-1850D02*
X-5750Y-2100D01*
X-930Y-3200D02*
X-30Y-4100D01*
X450Y-5050D02*
Y-4050D01*
X3200Y1400D02*
Y4900D01*
X3500Y-2800D02*
Y4580D01*
X-2150Y-2500D02*
Y-920D01*
X-30Y1200D01*
X1000D01*
X2100Y2300D01*
Y4300D01*
X-3264Y-2636D02*
X-2700Y-3200D01*
X-3264Y-2636D02*
Y-464D01*
X-1100Y1700D01*
X-100D01*
X700Y2500D01*
Y5500D01*
X-2700Y-3200D02*
X-930D01*
X-1800Y1900D02*
X-1000Y2700D01*
Y4600D01*
X-7213Y387D02*
X-5500Y2100D01*
Y2107D02*
X200Y7807D01*
X-6100Y5700D02*
X-2700D01*
X-800Y7600D01*
X-6800Y6200D02*
X-3000D01*
X-2200Y7000D01*
X-7000Y6700D02*
X-4800D01*
X-3700Y7800D01*
X-3100Y2200D02*
X-2100D01*
X1900Y10300D02*
Y19000D01*
X2300Y10100D02*
Y19000D01*
X700Y5500D02*
X2700Y7500D01*
Y19000D01*
X2100Y4300D02*
X3100Y5300D01*
Y19000D01*
X3200Y4900D02*
X3500Y5200D01*
Y19000D01*
Y4580D02*
X3900Y4980D01*
Y19000D01*
X2500Y20300D02*
X3520Y19000D01*
X1900D02*
X2500Y20300D01*
X1100Y19000D02*
X2500Y20300D01*
X1500Y19000D02*
X2500Y20300D01*
X2700Y19000D01*
X2500Y20300D02*
X3100Y19000D01*
X2500Y20300D02*
X3900Y19000D01*
X2300D02*
X2500Y20300D01*
X-9300Y12100D02*
Y19800D01*
X-9100Y9200D02*
X-7100Y11200D01*
X-6600D01*
X-7100Y10300D02*
X-6167D01*
X-3700Y7800D02*
Y11400D01*
X-3730Y21000D02*
X-3030Y21600D01*
X-3530Y21000D02*
X-3030Y21600D01*
X-3330Y21000D02*
X-3030Y21600D01*
X-2330Y21000D01*
X-3030Y21600D02*
X-2530Y21000D01*
X-3030Y21600D02*
X-2730Y21000D01*
X-3130D02*
X-3030Y21600D01*
X-2930Y21000D01*
X-9300Y19800D02*
X-8100Y21000D01*
X-3730D01*
X-7200Y20600D02*
X-3930D01*
X-3530Y21000D01*
X-3330Y20800D02*
Y21000D01*
X-3730Y20400D02*
X-3330Y20800D01*
X-6330Y20400D02*
X-3730D01*
X-3630Y20100D02*
X-3130Y20600D01*
Y21000D01*
X-2930Y20400D02*
Y21000D01*
X-4344Y20100D02*
X-3630D01*
X-2730Y12370D02*
Y21000D01*
X-2200Y7000D02*
Y19918D01*
X-2400Y20118D02*
X-2200Y19918D01*
X-2400Y20118D02*
Y20870D01*
X-2530Y21000D02*
X-2400Y20870D01*
X-800Y7600D02*
Y19518D01*
X-1482Y20200D02*
X-800Y19518D01*
X-1800Y20200D02*
X-1482D01*
X-2200Y20600D02*
X-1800Y20200D01*
X-2200Y20600D02*
Y20870D01*
X-2330Y21000D02*
X-2200Y20870D01*
X-2100Y2200D02*
X-1500Y2800D01*
Y4700D01*
X-7800Y-5250D02*
Y-4500D01*
X-8800Y-4300D02*
X-8000D01*
X-7800Y-4500D01*
X-8700Y-2750D02*
X-7950Y-3500D01*
X-8700Y-2750D02*
Y5800D01*
X-7900Y-2700D02*
Y5100D01*
Y-2700D02*
X-7500Y-3100D01*
X-6200D01*
X-7700Y-3300D02*
X-6300D01*
X-5700Y-3900D01*
X-5350D01*
X-6500Y-3500D02*
X-5800Y-4200D01*
X-5400D01*
X-5200Y-4400D01*
X-5350Y-3900D02*
X-5000Y-4250D01*
Y-5237D02*
Y-4250D01*
Y-5237D02*
X-4950Y-5287D01*
Y-5771D02*
Y-5287D01*
X-4250Y-4850D02*
X-3767Y-5333D01*
X-4250Y-4850D02*
Y-3994D01*
X-5544Y-2700D02*
X-4250Y-3994D01*
X-5450Y-2500D02*
X-3950Y-4000D01*
X-2482D01*
X-2150Y-4332D01*
X-5300Y-2300D02*
X-3900Y-3700D01*
X-2338D01*
X-1900Y-4138D01*
Y-5450D02*
Y-4138D01*
X-3701Y-3500D02*
X-1800D01*
X-1200Y-4100D01*
Y-6150D02*
Y-4100D01*
X250Y-5350D02*
Y-3850D01*
X-2150Y-2500D02*
X-1750Y-2900D01*
X-700D01*
X250Y-3850D01*
X450Y-4050D02*
X700Y-3800D01*
Y-1100D01*
X3200Y1400D01*
X700Y-4900D02*
Y-4350D01*
X1250Y-3800D01*
X2500D01*
X3500Y-2800D01*
X-8700Y5800D02*
X-7800Y6700D01*
Y9600D01*
X-7100Y10300D01*
X-6900Y-1900D02*
Y-100D01*
Y-1900D02*
X-6300Y-2500D01*
X-5450D01*
X-6500Y-1819D02*
Y-500D01*
Y-1819D02*
X-6019Y-2300D01*
X-5300D01*
X-9800Y10400D02*
X-8500Y11700D01*
Y19300D01*
X-7200Y20600D01*
X-9400Y9700D02*
X-7200Y11900D01*
Y19530D01*
X-6330Y20400D01*
X-6600Y11200D02*
X-5700Y12100D01*
Y18744D01*
X-4344Y20100D01*
X-6167Y10300D02*
X-4400Y12067D01*
Y18930D01*
X-2930Y20400D01*
X-3700Y11400D02*
X-2730Y12370D01*
X200Y7807D02*
Y10000D01*
X1100Y10900D01*
Y19000D01*
X1500Y10579D02*
Y19000D01*
X-2300Y4500D02*
X1000Y7800D01*
Y10079D01*
X1500Y10579D01*
X-1500Y4700D02*
X1400Y7600D01*
Y9800D01*
X1900Y10300D01*
X-1000Y4600D02*
X1800Y7400D01*
Y9600D01*
X2300Y10100D01*
X-6500Y-500D02*
X-5200Y800D01*
X-4500D01*
X-3100Y2200D01*
X-5600Y1200D02*
X-4994D01*
X-5500Y2100D02*
Y2107D01*
X-4994Y1200D02*
X-2300Y3894D01*
Y4500D01*
X-6000Y-1850D02*
Y-1450D01*
X-2650Y1900D01*
X-1800D01*
D13*
X-1430Y20800D02*
X2300D01*
X2500Y20600D01*
Y20300D02*
Y20600D01*
D14*
X-7700Y-7750D02*
D03*
X-6519D02*
D03*
X-6046D02*
D03*
X-5102D02*
D03*
X-4629D02*
D03*
X-4157D02*
D03*
X-2031D02*
D03*
X-1086D02*
D03*
X95D02*
D03*
X568D02*
D03*
X-6284Y-8116D02*
D03*
X-4867D02*
D03*
X-4394D02*
D03*
X-1796D02*
D03*
X330D02*
D03*
X803D02*
D03*
M02*
