%FSLAX24Y24*%
%MOIN*%
G70*
G01*
G75*
G04 Layer_Color=32896*
%ADD10R,0.0320X0.0360*%
%ADD11R,0.0450X0.0600*%
%ADD12C,0.0100*%
%ADD13C,0.0250*%
%ADD14C,0.0600*%
%ADD15C,0.1700*%
%ADD16C,0.0591*%
%ADD17R,0.0591X0.0591*%
%ADD18R,0.0591X0.0591*%
%ADD19R,0.0630X0.0630*%
%ADD20C,0.0630*%
%ADD21R,0.0630X0.0630*%
%ADD22C,0.0500*%
%ADD23R,0.0360X0.0320*%
%ADD24C,0.0079*%
%ADD25C,0.0080*%
%ADD26C,0.0070*%
%ADD27C,0.0050*%
%ADD28R,0.0400X0.0440*%
%ADD29R,0.0530X0.0680*%
%ADD30C,0.0680*%
%ADD31C,0.1780*%
%ADD32C,0.0671*%
%ADD33R,0.0671X0.0671*%
%ADD34R,0.0671X0.0671*%
%ADD35R,0.0710X0.0710*%
%ADD36C,0.0710*%
%ADD37R,0.0710X0.0710*%
%ADD38C,0.0580*%
%ADD39R,0.0440X0.0400*%
D25*
X25330Y43100D02*
Y43700D01*
X24070D02*
X25330D01*
X24070Y43100D02*
X25330D01*
X24070D02*
Y43700D01*
X40500Y46070D02*
X41100D01*
Y47330D01*
X40500Y46070D02*
Y47330D01*
X41100D01*
Y31530D02*
X41700D01*
X41100Y30270D02*
Y31530D01*
X41700Y30270D02*
Y31530D01*
X41100Y30270D02*
X41700D01*
X27300Y18100D02*
X27425D01*
X27362D01*
Y17725D01*
X27300Y17788D01*
X27862Y17725D02*
X27612D01*
Y17913D01*
X27737Y17850D01*
X27800D01*
X27862Y17913D01*
Y18038D01*
X27800Y18100D01*
X27675D01*
X27612Y18038D01*
X26419Y19821D02*
X26482Y19759D01*
X26607D01*
X26669Y19821D01*
Y19884D01*
X26607Y19946D01*
X26669Y20009D01*
Y20071D01*
X26607Y20134D01*
X26482D01*
X26419Y20071D01*
Y20009D01*
X26482Y19946D01*
X26419Y19884D01*
Y19821D01*
X26482Y19946D02*
X26607D01*
X34369Y17746D02*
X34307Y17684D01*
X34182D01*
X34119Y17746D01*
Y17996D01*
X34182Y18059D01*
X34307D01*
X34369Y17996D01*
Y17934D01*
X34307Y17871D01*
X34119D01*
X44500Y20400D02*
Y20525D01*
Y20462D01*
X44875D01*
X44812Y20400D01*
X44875Y20962D02*
Y20712D01*
X44687D01*
X44750Y20837D01*
Y20900D01*
X44687Y20962D01*
X44562D01*
X44500Y20900D01*
Y20775D01*
X44562Y20712D01*
X42779Y19419D02*
X42841Y19482D01*
Y19607D01*
X42779Y19669D01*
X42716D01*
X42654Y19607D01*
X42591Y19669D01*
X42529D01*
X42466Y19607D01*
Y19482D01*
X42529Y19419D01*
X42591D01*
X42654Y19482D01*
X42716Y19419D01*
X42779D01*
X42654Y19482D02*
Y19607D01*
X44854Y27369D02*
X44916Y27307D01*
Y27182D01*
X44854Y27119D01*
X44604D01*
X44541Y27182D01*
Y27307D01*
X44604Y27369D01*
X44666D01*
X44729Y27307D01*
Y27119D01*
X44468Y36915D02*
Y37040D01*
Y36977D01*
X44842D01*
X44780Y36915D01*
X44842Y37477D02*
Y37227D01*
X44655D01*
X44717Y37352D01*
Y37415D01*
X44655Y37477D01*
X44530D01*
X44468Y37415D01*
Y37290D01*
X44530Y37227D01*
X42779Y36019D02*
X42841Y36082D01*
Y36207D01*
X42779Y36269D01*
X42716D01*
X42654Y36207D01*
X42591Y36269D01*
X42529D01*
X42466Y36207D01*
Y36082D01*
X42529Y36019D01*
X42591D01*
X42654Y36082D01*
X42716Y36019D01*
X42779D01*
X42654Y36082D02*
Y36207D01*
X44854Y43969D02*
X44916Y43907D01*
Y43782D01*
X44854Y43719D01*
X44604D01*
X44541Y43782D01*
Y43907D01*
X44604Y43969D01*
X44666D01*
X44729Y43907D01*
Y43719D01*
X34700Y46300D02*
X34575D01*
X34638D01*
Y46675D01*
X34700Y46612D01*
X34138Y46675D02*
X34388D01*
Y46487D01*
X34263Y46550D01*
X34200D01*
X34138Y46487D01*
Y46362D01*
X34200Y46300D01*
X34325D01*
X34388Y46362D01*
X35581Y44579D02*
X35518Y44641D01*
X35393D01*
X35331Y44579D01*
Y44516D01*
X35393Y44454D01*
X35331Y44391D01*
Y44329D01*
X35393Y44266D01*
X35518D01*
X35581Y44329D01*
Y44391D01*
X35518Y44454D01*
X35581Y44516D01*
Y44579D01*
X35518Y44454D02*
X35393D01*
X27631Y46654D02*
X27693Y46716D01*
X27818D01*
X27881Y46654D01*
Y46404D01*
X27818Y46341D01*
X27693D01*
X27631Y46404D01*
Y46466D01*
X27693Y46529D01*
X27881D01*
D27*
X41670Y29780D02*
Y30080D01*
X41520D01*
X41470Y30030D01*
Y29930D01*
X41520Y29880D01*
X41670D01*
X41570D02*
X41470Y29780D01*
X41370Y30030D02*
X41320Y30080D01*
X41220D01*
X41170Y30030D01*
Y29980D01*
X41220Y29930D01*
X41270D01*
X41220D01*
X41170Y29880D01*
Y29830D01*
X41220Y29780D01*
X41320D01*
X41370Y29830D01*
X41095Y47625D02*
Y47925D01*
X40945D01*
X40895Y47875D01*
Y47775D01*
X40945Y47725D01*
X41095D01*
X40995D02*
X40895Y47625D01*
X40645D02*
Y47925D01*
X40795Y47775D01*
X40595D01*
X23880Y43190D02*
Y43490D01*
X23730D01*
X23680Y43440D01*
Y43340D01*
X23730Y43290D01*
X23880D01*
X23780D02*
X23680Y43190D01*
X23380Y43490D02*
X23580D01*
Y43340D01*
X23480Y43390D01*
X23430D01*
X23380Y43340D01*
Y43240D01*
X23430Y43190D01*
X23530D01*
X23580Y43240D01*
M02*
