%FSLAX24Y24*%
%MOIN*%
G70*
G01*
G75*
G04 Layer_Physical_Order=1*
G04 Layer_Color=255*
%ADD10R,0.0320X0.0360*%
%ADD11R,0.0450X0.0600*%
%ADD12C,0.0100*%
%ADD13C,0.0250*%
%ADD14C,0.0600*%
%ADD15C,0.1700*%
%ADD16C,0.0591*%
%ADD17R,0.0591X0.0591*%
%ADD18R,0.0591X0.0591*%
%ADD19R,0.0630X0.0630*%
%ADD20C,0.0630*%
%ADD21R,0.0630X0.0630*%
%ADD22C,0.0500*%
D10*
X39600Y19800D02*
D03*
Y19200D02*
D03*
D11*
X21750Y21600D02*
D03*
X22800D02*
D03*
D12*
X19400Y40100D02*
X20900Y38600D01*
X14600Y37725D02*
X14625Y37750D01*
X19400Y38100D02*
X20900Y36600D01*
X19400Y37100D02*
X20900Y35600D01*
X19400Y36100D02*
X20900Y34600D01*
X19400Y35100D02*
X20900Y33600D01*
X19400Y34100D02*
X20900Y32600D01*
X19400Y33100D02*
X20900Y31600D01*
X20400Y31100D02*
X20900Y30600D01*
X20400Y30100D02*
X20900Y29600D01*
X20400Y29100D02*
X20900Y28600D01*
X17300Y28100D02*
X20400D01*
X20900Y27600D01*
X20400Y27100D02*
X20900Y26600D01*
X20400Y26100D02*
X20900Y25600D01*
X20400Y25100D02*
X20900Y24600D01*
X20400Y24100D02*
X20900Y23600D01*
X19442Y39058D02*
X20900Y37600D01*
X17300Y40100D02*
X19400D01*
X17300Y40600D02*
X18900D01*
X15600Y32500D02*
X16200D01*
X17300Y33600D01*
X18900D01*
X15600Y38200D02*
X16000D01*
X17400Y39600D01*
X18900D01*
X14625Y37750D02*
X16050D01*
X17358Y39058D01*
X19442D01*
X15600Y37250D02*
X16050D01*
X17400Y38600D01*
X18900D01*
X15600Y36300D02*
X15900D01*
X17200Y37600D01*
X18900D01*
X17300Y38100D02*
X19400D01*
X14600Y35825D02*
X15925D01*
X17200Y37100D01*
Y36100D02*
X19400D01*
X15600Y34400D02*
X16000D01*
X17200Y35600D01*
X18900D01*
X17200Y35100D02*
X19400D01*
X15600Y33450D02*
X16050D01*
X17200Y34600D01*
X18900D01*
X17300Y34100D02*
X19400D01*
X17400Y33100D02*
X19400D01*
X17500Y32600D02*
X18900D01*
X16450Y31550D02*
X17500Y32600D01*
X15600Y31550D02*
X16450D01*
X15600Y26800D02*
X16500D01*
X17300Y27600D01*
X18900D01*
X15600Y30600D02*
X16100D01*
X17100Y31600D01*
X18900D01*
X17200Y31100D02*
X20400D01*
X15600Y29650D02*
X16250D01*
X17200Y30600D01*
X18900D01*
X15600Y28700D02*
X16300D01*
X17200Y29600D01*
X18900D01*
X17200Y30100D02*
X20400D01*
X17300Y29100D02*
X20400D01*
X15600Y27750D02*
X16450D01*
X17300Y28600D01*
X18900D01*
X17300Y27100D02*
X20400D01*
X15600Y25850D02*
X16550D01*
X17300Y26600D02*
X18900D01*
X15600Y24900D02*
X16600D01*
X17300Y25600D01*
X18900D01*
X17300Y26100D02*
X20400D01*
X15600Y23000D02*
X16800D01*
X17400Y23600D01*
X18900D01*
X17300Y24100D02*
X20400D01*
X15600Y23950D02*
X16650D01*
X17300Y24600D01*
X18900D01*
X17300Y25100D02*
X20400D01*
X17200Y37100D02*
X18400D01*
X19400D01*
X15600Y35350D02*
X15950D01*
X17200Y36600D01*
X18900D01*
X14600Y36775D02*
X14625Y36800D01*
X16000D01*
X17300Y38100D01*
X14600Y38675D02*
X14625Y38700D01*
X14600Y34875D02*
X14625Y34900D01*
X16000D01*
X17200Y36100D01*
X14600Y33925D02*
X14625Y33900D01*
X16000D01*
X17200Y35100D01*
X14600Y32975D02*
X14625Y33000D01*
X16200D01*
X17300Y34100D01*
X14600Y32025D02*
X14625Y32000D01*
X16300D01*
X17400Y33100D01*
X14600Y30125D02*
X14625Y30100D01*
X16200D01*
X17200Y31100D01*
X14600Y28225D02*
X14625Y28200D01*
X16400D01*
X17300Y29100D01*
X14600Y27275D02*
X14625Y27300D01*
X16500D01*
X17300Y28100D01*
X14600Y26325D02*
X14625Y26300D01*
X16500D02*
X17300Y27100D01*
X14625Y26300D02*
X16500D01*
X16550Y25850D02*
X17300Y26600D01*
X14600Y25375D02*
X14625Y25400D01*
X16600D01*
X17300Y26100D01*
X14600Y24425D02*
X14625Y24400D01*
X16600D01*
X17300Y25100D01*
X14600Y23475D02*
X14625Y23500D01*
X16700D01*
X17300Y24100D01*
X14600Y29175D02*
X14625Y29200D01*
X16300D01*
X17200Y30100D01*
X43923Y26078D02*
Y26160D01*
X14625Y38700D02*
X15900D01*
X17300Y40100D01*
X15600Y39150D02*
X15850D01*
X17300Y40600D01*
X14600Y39625D02*
X15875D01*
X17450Y41200D01*
X17500D02*
X19300D01*
X20900Y39600D01*
X29385Y44602D02*
X29397D01*
X31250Y39750D02*
X33300Y37700D01*
X29930Y45722D02*
X30012D01*
X32655Y42145D02*
X33600Y41200D01*
X32110Y41690D02*
X33600Y40200D01*
X32110Y41690D02*
Y45722D01*
X32655Y42145D02*
Y44602D01*
X30542Y46200D02*
X31020Y45722D01*
X28523D02*
X28840D01*
X27483D02*
X27750D01*
X34290D02*
Y45910D01*
X27800Y44100D02*
X30200Y41700D01*
X27800Y44100D02*
Y45000D01*
X28523Y45722D01*
X27205Y42995D02*
X28000Y42200D01*
X27205Y42995D02*
Y44602D01*
X26600Y44840D02*
X27483Y45722D01*
X33600Y38200D02*
X34100Y38700D01*
X33600Y46600D02*
X34290Y45910D01*
X33900Y45200D02*
X34237D01*
X34835Y44602D01*
X33200Y45722D02*
X33280Y45642D01*
Y44138D02*
Y45642D01*
X33800Y39700D02*
X34100Y39400D01*
Y38700D02*
Y39400D01*
X33745Y44602D02*
X35100Y43247D01*
X33280Y44138D02*
X34800Y42617D01*
X35100Y40200D02*
Y43247D01*
Y40200D02*
X35650Y39650D01*
X34800Y39500D02*
Y42617D01*
Y39500D02*
X35600Y38700D01*
X37500D01*
X39000Y37200D01*
X35650Y39650D02*
X37450D01*
X38900Y38200D02*
X39000D01*
X38717Y42200D02*
X39000D01*
X43923Y42760D02*
Y42843D01*
X38300Y41300D02*
X38700Y41700D01*
X38100Y41583D02*
X38717Y42200D01*
X38300Y39900D02*
Y41300D01*
X38700Y41700D02*
X40300D01*
X39000Y40200D02*
X39697D01*
X38550Y40750D02*
X39000Y41200D01*
X38550Y40014D02*
Y40750D01*
Y40014D02*
X38914Y39650D01*
X39450D01*
X38300Y39900D02*
X39000Y39200D01*
X37450Y39650D02*
X38900Y38200D01*
X38500Y36200D02*
X39000D01*
X34150Y34750D02*
X35200Y33700D01*
X40737Y34700D02*
X42803Y36765D01*
X33600Y23200D02*
X34600Y24200D01*
X40300Y41700D02*
X42400Y43800D01*
X42965D01*
X39697Y40200D02*
X42803Y43305D01*
X43923Y38400D02*
Y38677D01*
Y37228D02*
Y37310D01*
X42965Y43800D02*
X43923Y42843D01*
X28000Y27200D02*
X29700Y28900D01*
X39121Y24321D02*
X40200D01*
X39000Y24200D02*
X39121Y24321D01*
X33600Y24200D02*
X34400Y25000D01*
X41805Y26705D02*
X42803D01*
X42040Y26160D02*
X43923D01*
X40200Y24321D02*
X42040Y26160D01*
X40780Y23980D02*
X43923D01*
X39000Y22200D02*
X40780Y23980D01*
X30414Y34750D02*
X34150D01*
X31050Y38950D02*
X33350Y36650D01*
X29700Y28900D02*
Y35500D01*
X33160Y18678D02*
X33377D01*
X34200Y19500D01*
Y20300D01*
X34600Y20700D01*
X34517Y20900D02*
X36700D01*
X37900Y22100D01*
X34600Y20700D02*
X36800D01*
X38100Y22000D01*
X38300Y21900D02*
Y22500D01*
X39000Y23200D01*
Y25200D02*
X40300D01*
X41805Y26705D01*
X39000Y26200D02*
X40100D01*
X42200Y28300D01*
X43800D01*
X44800Y27300D01*
Y22678D02*
Y27300D01*
X43923Y21800D02*
X44800Y22678D01*
X39000Y27200D02*
X40600D01*
X42100Y28700D01*
X43900D01*
X44255Y21255D02*
X45100Y22100D01*
X38100Y22000D02*
Y27300D01*
X39000Y28200D01*
X37900Y22100D02*
Y28100D01*
X39000Y29200D01*
X38100Y39300D02*
Y41583D01*
Y39300D02*
X38700Y38700D01*
X39400D01*
X37550Y36650D02*
X39000Y35200D01*
X35100Y34700D02*
X40737D01*
X35200Y33700D02*
X40395D01*
X32600Y19813D02*
X32615Y19798D01*
X32600Y30200D02*
X33600Y31200D01*
X30000Y34336D02*
X30414Y34750D01*
X28000Y26200D02*
X30000Y28200D01*
Y34336D01*
X32600Y19813D02*
Y30200D01*
X31800Y32000D02*
X33600D01*
X32000Y32900D02*
X32100D01*
X28173Y19798D02*
X28255D01*
X27100Y18725D02*
X28173Y19798D01*
X27100Y18100D02*
Y18725D01*
X42803Y21255D02*
X44255D01*
X39600Y31800D02*
X44600D01*
X39000Y31200D02*
X39600Y31800D01*
X43923Y39077D02*
Y39490D01*
Y39077D02*
X44900Y38100D01*
X40395Y33700D02*
X43923Y37228D01*
X39400Y38700D02*
X40245Y37855D01*
X42803D01*
X39450Y39650D02*
X39600Y39500D01*
X43100D01*
X43923Y38677D01*
X45100Y22100D02*
Y27500D01*
X43900Y28700D02*
X45100Y27500D01*
X44600Y31800D02*
X45400Y31000D01*
X44115Y41045D02*
X45900Y39260D01*
Y22000D02*
Y39260D01*
X26000Y24200D02*
X28000Y22200D01*
X26400Y32700D02*
X26800Y32300D01*
X34400Y25000D02*
Y31283D01*
X34600Y24200D02*
Y31200D01*
X20000Y19800D02*
X20200D01*
X24422Y45200D02*
X24460Y45163D01*
X43303Y47200D02*
X43362Y47140D01*
X42822Y30000D02*
X43362Y30540D01*
X37578Y19200D02*
X39600D01*
X37540Y19238D02*
X37578Y19200D01*
X27350Y35550D02*
X28000Y36200D01*
X26200Y25000D02*
X28000Y23200D01*
X27350Y25150D02*
Y35550D01*
X28800Y19500D02*
X29300Y19000D01*
Y18300D02*
Y19000D01*
X27100Y18100D02*
X27600Y17600D01*
X39500D02*
X41300Y19400D01*
X27600Y17600D02*
X39500D01*
X30980Y18678D02*
X31558Y18100D01*
X34500D01*
X38300Y21900D01*
X29300Y18300D02*
X29700Y17900D01*
X39200D01*
X40500Y19200D01*
Y19400D01*
X40100Y19800D02*
X40500Y19400D01*
X39600Y19800D02*
X40100D01*
X33300Y37700D02*
X37000D01*
X38500Y36200D01*
X33350Y36650D02*
X37550D01*
X34100Y35700D02*
X35100Y34700D01*
X29700Y35500D02*
X29900Y35700D01*
X34100D01*
X32100Y32900D02*
X32600Y32400D01*
X38200D02*
X39000Y33200D01*
X38449Y31800D02*
X38649Y32000D01*
X38366D02*
X38666Y32300D01*
X38283Y32200D02*
X38583Y32500D01*
X35100Y31300D02*
X35600Y31800D01*
X38449D01*
X34600Y31200D02*
X35400Y32000D01*
X38366D01*
X34400Y31283D02*
X35317Y32200D01*
X38283D01*
X32600Y32400D02*
X38200D01*
X20000Y19800D02*
X20100Y19900D01*
X38649Y32000D02*
X40700D01*
X41000Y32300D01*
X35100Y24600D02*
Y31300D01*
X26600Y42500D02*
Y44840D01*
Y42500D02*
X27900Y41200D01*
X28000D01*
X28295Y44602D02*
X28298D01*
X29900Y43000D01*
X30600D01*
X31250Y42350D01*
X30200Y41700D02*
X30900D01*
X31050Y41550D01*
Y38950D02*
Y41550D01*
X31250Y39750D02*
Y42350D01*
X31000Y44509D02*
Y44735D01*
X30012Y45722D02*
X31000Y44735D01*
X33750Y45350D02*
X33900Y45200D01*
X33750Y45350D02*
Y46150D01*
X33500Y46400D02*
X33750Y46150D01*
X31000Y44509D02*
X31750Y43759D01*
X31500Y40917D02*
Y42500D01*
X29397Y44602D02*
X31500Y42500D01*
X27350Y25150D02*
X27800Y24700D01*
X28250D01*
X28800Y24150D01*
Y19500D02*
Y24150D01*
X33700Y19803D02*
X33705Y19798D01*
X33700Y19803D02*
Y20083D01*
X34517Y20900D01*
X33200Y19600D02*
Y20000D01*
X32070Y18678D02*
X32643Y19250D01*
X32850D01*
X33200Y19600D01*
X38583Y32500D02*
X39900D01*
X39983Y32300D02*
X44900Y37217D01*
X38666Y32300D02*
X39983D01*
X44900Y37217D02*
Y38100D01*
X43550Y37850D02*
X44150D01*
X39900Y32500D02*
X44450Y37050D01*
Y37550D01*
X44150Y37850D02*
X44450Y37550D01*
X41300Y19400D02*
X43400D01*
X45400Y21400D01*
Y31000D01*
X31500Y40917D02*
X33217Y39200D01*
X33600D01*
X31750Y41200D02*
Y43759D01*
Y41200D02*
X33250Y39700D01*
X33800D01*
X42803Y41997D02*
Y42215D01*
Y41997D02*
X43755Y41045D01*
X44115D01*
X43350Y38050D02*
X43550Y37850D01*
X43350Y38050D02*
Y38398D01*
X42803Y38945D02*
X43350Y38398D01*
X33000Y20200D02*
X33200Y20000D01*
X33000Y20200D02*
Y29600D01*
X33600Y30200D01*
X26400Y45100D02*
X27500Y46200D01*
X30542D01*
X27400Y46400D02*
X33500D01*
X26200Y45200D02*
X27400Y46400D01*
X26400Y32700D02*
Y45100D01*
X27317Y46600D02*
X33600D01*
X26000Y24200D02*
Y45283D01*
X27317Y46600D01*
X26200Y25000D02*
Y45200D01*
D13*
X22800Y21600D02*
X24400D01*
X25000Y22200D01*
Y23200D01*
Y24200D01*
Y25200D01*
Y26200D01*
Y27200D01*
Y28200D01*
Y29200D01*
Y30200D01*
Y31200D01*
Y33200D01*
Y34200D01*
Y35200D01*
Y36200D01*
Y37200D01*
Y38200D01*
Y39200D01*
Y40200D01*
Y41200D01*
Y42200D01*
X36000Y22200D02*
Y23200D01*
Y24200D01*
Y25200D01*
Y26200D01*
Y27200D01*
Y28200D01*
Y29200D01*
Y30200D01*
Y31200D01*
Y35200D02*
Y36200D01*
X30600Y37200D02*
Y38200D01*
Y36200D02*
Y37200D01*
Y38200D02*
Y39200D01*
X26100Y21100D02*
X27300D01*
X25000Y22200D02*
X26100Y21100D01*
X30600Y34200D02*
X31600D01*
X33125Y32675D01*
X35475D01*
X36000Y33200D01*
X21000Y21600D02*
X21750D01*
X20100Y19900D02*
Y20700D01*
X21000Y21600D01*
X29200Y21500D02*
X29300D01*
X30000Y22200D01*
X30600D01*
D14*
X28000Y27200D02*
D03*
X25000D02*
D03*
Y28200D02*
D03*
X28000D02*
D03*
Y30200D02*
D03*
X25000D02*
D03*
Y29200D02*
D03*
X28000D02*
D03*
X25000Y31200D02*
D03*
X28000D02*
D03*
Y26200D02*
D03*
X25000D02*
D03*
X28000Y24200D02*
D03*
X25000D02*
D03*
Y25200D02*
D03*
X28000D02*
D03*
Y23200D02*
D03*
X25000D02*
D03*
Y22200D02*
D03*
X28000D02*
D03*
Y38200D02*
D03*
X25000D02*
D03*
Y39200D02*
D03*
X28000D02*
D03*
Y41200D02*
D03*
X25000D02*
D03*
Y40200D02*
D03*
X28000D02*
D03*
X25000Y42200D02*
D03*
X28000D02*
D03*
Y37200D02*
D03*
X25000D02*
D03*
X28000Y35200D02*
D03*
X25000D02*
D03*
Y36200D02*
D03*
X28000D02*
D03*
Y34200D02*
D03*
X25000D02*
D03*
Y33200D02*
D03*
X28000D02*
D03*
X33600Y27200D02*
D03*
X30600D02*
D03*
Y28200D02*
D03*
X33600D02*
D03*
Y30200D02*
D03*
X30600D02*
D03*
Y29200D02*
D03*
X33600D02*
D03*
X30600Y31200D02*
D03*
X33600D02*
D03*
Y26200D02*
D03*
X30600D02*
D03*
X33600Y24200D02*
D03*
X30600D02*
D03*
Y25200D02*
D03*
X33600D02*
D03*
Y23200D02*
D03*
X30600D02*
D03*
Y22200D02*
D03*
X33600D02*
D03*
Y38200D02*
D03*
X30600D02*
D03*
Y39200D02*
D03*
X33600D02*
D03*
Y41200D02*
D03*
X30600D02*
D03*
Y40200D02*
D03*
X33600D02*
D03*
X30600Y42200D02*
D03*
X33600D02*
D03*
Y37200D02*
D03*
X30600D02*
D03*
X33600Y35200D02*
D03*
X30600D02*
D03*
Y36200D02*
D03*
X33600D02*
D03*
Y34200D02*
D03*
X30600D02*
D03*
Y33200D02*
D03*
X33600D02*
D03*
X39000Y27200D02*
D03*
X36000D02*
D03*
Y28200D02*
D03*
X39000D02*
D03*
Y30200D02*
D03*
X36000D02*
D03*
Y29200D02*
D03*
X39000D02*
D03*
X36000Y31200D02*
D03*
X39000D02*
D03*
Y26200D02*
D03*
X36000D02*
D03*
X39000Y24200D02*
D03*
X36000D02*
D03*
Y25200D02*
D03*
X39000D02*
D03*
Y23200D02*
D03*
X36000D02*
D03*
Y22200D02*
D03*
X39000D02*
D03*
Y38200D02*
D03*
X36000D02*
D03*
Y39200D02*
D03*
X39000D02*
D03*
Y41200D02*
D03*
X36000D02*
D03*
Y40200D02*
D03*
X39000D02*
D03*
X36000Y42200D02*
D03*
X39000D02*
D03*
Y37200D02*
D03*
X36000D02*
D03*
X39000Y35200D02*
D03*
X36000D02*
D03*
Y36200D02*
D03*
X39000D02*
D03*
Y34200D02*
D03*
X36000D02*
D03*
Y33200D02*
D03*
X39000D02*
D03*
X14600Y22525D02*
D03*
X15600Y23000D02*
D03*
Y40100D02*
D03*
Y42000D02*
D03*
Y41050D02*
D03*
Y39150D02*
D03*
Y38200D02*
D03*
Y33450D02*
D03*
Y34400D02*
D03*
Y36300D02*
D03*
Y37250D02*
D03*
Y35350D02*
D03*
Y25850D02*
D03*
Y27750D02*
D03*
Y26800D02*
D03*
Y24900D02*
D03*
Y23950D02*
D03*
Y28700D02*
D03*
Y29650D02*
D03*
Y31550D02*
D03*
Y32500D02*
D03*
Y30600D02*
D03*
X14600Y39625D02*
D03*
Y41525D02*
D03*
Y40575D02*
D03*
Y38675D02*
D03*
Y37725D02*
D03*
Y32975D02*
D03*
Y33925D02*
D03*
Y35825D02*
D03*
Y36775D02*
D03*
Y34875D02*
D03*
Y25375D02*
D03*
Y27275D02*
D03*
Y26325D02*
D03*
Y24425D02*
D03*
Y23475D02*
D03*
Y28225D02*
D03*
Y29175D02*
D03*
Y31075D02*
D03*
Y32025D02*
D03*
Y30125D02*
D03*
X13600Y29650D02*
D03*
Y31550D02*
D03*
Y30600D02*
D03*
Y28700D02*
D03*
Y27750D02*
D03*
Y23000D02*
D03*
Y23950D02*
D03*
Y25850D02*
D03*
Y26800D02*
D03*
Y24900D02*
D03*
Y34400D02*
D03*
Y36300D02*
D03*
Y35350D02*
D03*
Y33450D02*
D03*
Y32500D02*
D03*
Y37250D02*
D03*
Y38200D02*
D03*
Y40100D02*
D03*
Y41050D02*
D03*
Y39150D02*
D03*
D15*
X14600Y19770D02*
D03*
Y44770D02*
D03*
X24420Y19238D02*
D03*
X37540D02*
D03*
X43362Y17420D02*
D03*
Y30540D02*
D03*
Y34020D02*
D03*
Y47140D02*
D03*
X37580Y45163D02*
D03*
X24460D02*
D03*
D16*
X18900Y28600D02*
D03*
Y27600D02*
D03*
Y26600D02*
D03*
Y25600D02*
D03*
Y24600D02*
D03*
Y30600D02*
D03*
Y31600D02*
D03*
Y32600D02*
D03*
Y33600D02*
D03*
Y34600D02*
D03*
Y36600D02*
D03*
Y37600D02*
D03*
Y38600D02*
D03*
Y39600D02*
D03*
Y40600D02*
D03*
Y29600D02*
D03*
Y35600D02*
D03*
X20000Y19800D02*
D03*
X20900Y28600D02*
D03*
Y27600D02*
D03*
Y26600D02*
D03*
Y25600D02*
D03*
Y24600D02*
D03*
Y30600D02*
D03*
Y31600D02*
D03*
Y32600D02*
D03*
Y33600D02*
D03*
Y34600D02*
D03*
Y36600D02*
D03*
Y37600D02*
D03*
Y38600D02*
D03*
Y39600D02*
D03*
Y40600D02*
D03*
Y29600D02*
D03*
Y35600D02*
D03*
X22900Y28600D02*
D03*
Y27600D02*
D03*
Y26600D02*
D03*
Y25600D02*
D03*
Y24600D02*
D03*
Y30600D02*
D03*
Y31600D02*
D03*
Y32600D02*
D03*
Y33600D02*
D03*
Y34600D02*
D03*
Y36600D02*
D03*
Y37600D02*
D03*
Y38600D02*
D03*
Y39600D02*
D03*
Y40600D02*
D03*
Y29600D02*
D03*
Y35600D02*
D03*
D17*
X18900Y23600D02*
D03*
X19000Y21400D02*
D03*
X20900Y23600D02*
D03*
X22900D02*
D03*
D18*
X19000Y19800D02*
D03*
D19*
X34795Y19798D02*
D03*
X33160Y18678D02*
D03*
X27205Y44602D02*
D03*
X28840Y45722D02*
D03*
D20*
X33705Y19798D02*
D03*
X32615D02*
D03*
X31525D02*
D03*
X30435D02*
D03*
X29345D02*
D03*
X28255D02*
D03*
X27165D02*
D03*
X34250Y18678D02*
D03*
X32070D02*
D03*
X30980D02*
D03*
X29890D02*
D03*
X28800D02*
D03*
X27710D02*
D03*
X42803Y26705D02*
D03*
Y25615D02*
D03*
Y24525D02*
D03*
Y23435D02*
D03*
Y22345D02*
D03*
Y21255D02*
D03*
Y20165D02*
D03*
X43923Y27250D02*
D03*
Y25070D02*
D03*
Y23980D02*
D03*
Y22890D02*
D03*
Y21800D02*
D03*
Y20710D02*
D03*
X42803Y43305D02*
D03*
Y42215D02*
D03*
Y41125D02*
D03*
Y40035D02*
D03*
Y38945D02*
D03*
Y37855D02*
D03*
Y36765D02*
D03*
X43923Y43850D02*
D03*
Y41670D02*
D03*
Y40580D02*
D03*
Y39490D02*
D03*
Y38400D02*
D03*
Y37310D02*
D03*
X28295Y44602D02*
D03*
X29385D02*
D03*
X30475D02*
D03*
X31565D02*
D03*
X32655D02*
D03*
X33745D02*
D03*
X34835D02*
D03*
X27750Y45722D02*
D03*
X29930D02*
D03*
X31020D02*
D03*
X32110D02*
D03*
X33200D02*
D03*
X34290D02*
D03*
D21*
X42803Y27795D02*
D03*
X43923Y26160D02*
D03*
X42803Y44395D02*
D03*
X43923Y42760D02*
D03*
D22*
X31800Y32000D02*
D03*
X33600D02*
D03*
X32000Y32900D02*
D03*
X45900Y22000D02*
D03*
X26800Y32300D02*
D03*
X27300Y21100D02*
D03*
X29200Y21500D02*
D03*
X41000Y32400D02*
D03*
X35100Y24600D02*
D03*
M02*
