%FSLAX24Y24*%
%MOIN*%
G70*
G01*
G75*
%ADD10R,0.0320X0.0360*%
%ADD11R,0.0450X0.0600*%
%ADD12C,0.0100*%
%ADD13C,0.0250*%
%ADD14C,0.0600*%
%ADD15C,0.1700*%
%ADD16C,0.0591*%
%ADD17R,0.0591X0.0591*%
%ADD18R,0.0591X0.0591*%
%ADD19R,0.0630X0.0630*%
%ADD20C,0.0630*%
%ADD21R,0.0630X0.0630*%
%ADD22C,0.0500*%
%ADD23R,0.0360X0.0320*%
%ADD24C,0.0079*%
%ADD25C,0.0080*%
%ADD26C,0.0070*%
%ADD27C,0.0050*%
D12*
X28839Y21480D02*
G03*
X28839Y21480I-139J0D01*
G01*
Y32480D02*
G03*
X28839Y32480I-139J0D01*
G01*
X34439Y21480D02*
G03*
X34439Y21480I-139J0D01*
G01*
Y32480D02*
G03*
X34439Y32480I-139J0D01*
G01*
X39839Y21480D02*
G03*
X39839Y21480I-139J0D01*
G01*
Y32480D02*
G03*
X39839Y32480I-139J0D01*
G01*
X28500Y21700D02*
Y31700D01*
X24500D02*
X28500D01*
X24500Y21700D02*
Y31700D01*
Y21700D02*
X28500D01*
Y32700D02*
Y42700D01*
X24500D02*
X28500D01*
X24500Y32700D02*
Y42700D01*
Y32700D02*
X28500D01*
X34100Y21700D02*
Y31700D01*
X30100D02*
X34100D01*
X30100Y21700D02*
Y31700D01*
Y21700D02*
X34100D01*
Y32700D02*
Y42700D01*
X30100D02*
X34100D01*
X30100Y32700D02*
Y42700D01*
Y32700D02*
X34100D01*
X39500Y21700D02*
Y31700D01*
X35500D02*
X39500D01*
X35500Y21700D02*
Y31700D01*
Y21700D02*
X39500D01*
Y32700D02*
Y42700D01*
X35500D02*
X39500D01*
X35500Y32700D02*
Y42700D01*
Y32700D02*
X39500D01*
X10100Y18500D02*
X16600D01*
Y46000D01*
X10100Y18500D02*
Y46000D01*
X7600Y20500D02*
Y44000D01*
Y20500D02*
X10100D01*
X7600Y44000D02*
X10100D01*
X10110Y46000D02*
X16600D01*
D24*
X19400Y23100D02*
Y29100D01*
X18400Y23100D02*
Y29100D01*
Y23100D02*
X19400D01*
X18400Y29100D02*
Y35100D01*
X19400Y29100D02*
Y35100D01*
X18400D02*
Y41600D01*
X19400Y35100D02*
Y41600D01*
X18400D02*
X19400D01*
X18500Y20900D02*
X19500D01*
X18500D02*
Y21900D01*
X19500Y20900D02*
Y21900D01*
X18500D02*
X19500D01*
X20500Y19300D02*
Y20300D01*
X18500Y19300D02*
X20500D01*
X18500D02*
Y20300D01*
X20500D01*
X21400Y23100D02*
Y29100D01*
X20400Y23100D02*
Y29100D01*
Y23100D02*
X21400D01*
X20400Y29100D02*
Y35100D01*
X21400Y29100D02*
Y35100D01*
X20400D02*
Y41600D01*
X21400Y35100D02*
Y41600D01*
X20400D02*
X21400D01*
X23400Y23100D02*
Y29100D01*
X22400Y23100D02*
Y29100D01*
Y23100D02*
X23400D01*
X22400Y29100D02*
Y35100D01*
X23400Y29100D02*
Y35100D01*
X22400D02*
Y41600D01*
X23400Y35100D02*
Y41600D01*
X22400D02*
X23400D01*
D25*
X39300Y20130D02*
X39900D01*
Y18870D02*
Y20130D01*
X39300Y18870D02*
Y20130D01*
Y18870D02*
X39900D01*
X25980Y13177D02*
X35980D01*
Y15428D01*
X38855D01*
Y20552D01*
X23105D02*
X38855D01*
X23105Y15428D02*
Y20552D01*
Y15428D02*
X25980D01*
Y13177D02*
Y15428D01*
X49422Y18980D02*
Y28980D01*
X47172D02*
X49422D01*
X47172D02*
Y31855D01*
X42048D02*
X47172D01*
X42048Y16105D02*
Y31855D01*
Y16105D02*
X47172D01*
Y18980D01*
X49422D01*
Y35580D02*
Y45580D01*
X47172D02*
X49422D01*
X47172D02*
Y48455D01*
X42048D02*
X47172D01*
X42048Y32705D02*
Y48455D01*
Y32705D02*
X47172D01*
Y35580D01*
X49422D01*
X26020Y51223D02*
X36020D01*
X26020Y48973D02*
Y51223D01*
X23145Y48973D02*
X26020D01*
X23145Y43847D02*
Y48973D01*
Y43847D02*
X38895D01*
Y48973D01*
X36020D02*
X38895D01*
X36020D02*
Y51223D01*
X21363Y21088D02*
Y22112D01*
X23174Y21088D02*
Y22112D01*
X21363Y21088D02*
X23174D01*
X21363Y22112D02*
X23174D01*
X35570Y19998D02*
X35445D01*
X35508D01*
Y19623D01*
X35570Y19685D01*
X38152Y17736D02*
X38215Y17674D01*
X38340D01*
X38402Y17736D01*
Y17799D01*
X38340Y17861D01*
X38215D01*
X38152Y17924D01*
Y17986D01*
X38215Y18049D01*
X38340D01*
X38402Y17986D01*
X38027Y17674D02*
Y18049D01*
Y17924D01*
X37777Y17674D01*
X37965Y17861D01*
X37777Y18049D01*
X37652Y17674D02*
X37402D01*
X37527D01*
Y18049D01*
X42603Y28570D02*
Y28445D01*
Y28508D01*
X42977D01*
X42915Y28570D01*
X44864Y31152D02*
X44926Y31215D01*
Y31340D01*
X44864Y31402D01*
X44801D01*
X44739Y31340D01*
Y31215D01*
X44676Y31152D01*
X44614D01*
X44551Y31215D01*
Y31340D01*
X44614Y31402D01*
X44926Y31027D02*
X44551D01*
X44676D01*
X44926Y30777D01*
X44739Y30965D01*
X44551Y30777D01*
X44926Y30652D02*
Y30402D01*
Y30527D01*
X44551D01*
X42603Y45170D02*
Y45045D01*
Y45108D01*
X42977D01*
X42915Y45170D01*
X44864Y47752D02*
X44926Y47815D01*
Y47940D01*
X44864Y48002D01*
X44801D01*
X44739Y47940D01*
Y47815D01*
X44676Y47752D01*
X44614D01*
X44551Y47815D01*
Y47940D01*
X44614Y48002D01*
X44926Y47627D02*
X44551D01*
X44676D01*
X44926Y47377D01*
X44739Y47565D01*
X44551Y47377D01*
X44926Y47252D02*
Y47002D01*
Y47127D01*
X44551D01*
X26430Y44402D02*
X26555D01*
X26492D01*
Y44777D01*
X26430Y44715D01*
X23848Y46664D02*
X23785Y46726D01*
X23660D01*
X23598Y46664D01*
Y46601D01*
X23660Y46539D01*
X23785D01*
X23848Y46476D01*
Y46414D01*
X23785Y46351D01*
X23660D01*
X23598Y46414D01*
X23973Y46726D02*
Y46351D01*
Y46476D01*
X24223Y46726D01*
X24035Y46539D01*
X24223Y46351D01*
X24348Y46726D02*
X24598D01*
X24473D01*
Y46351D01*
D26*
X12380Y16780D02*
Y17080D01*
X12480Y16980D01*
X12580Y17080D01*
Y16780D01*
X12680D02*
Y16830D01*
X12730D01*
Y16780D01*
X12680D01*
X13230Y17080D02*
Y16780D01*
X13380D01*
X13430Y16830D01*
Y17030D01*
X13380Y17080D01*
X13230D01*
X13580Y16780D02*
X13680D01*
X13730Y16830D01*
Y16930D01*
X13680Y16980D01*
X13580D01*
X13530Y16930D01*
Y16830D01*
X13580Y16780D01*
X13830Y17080D02*
Y16780D01*
X13979D01*
X14029Y16830D01*
Y16880D01*
Y16930D01*
X13979Y16980D01*
X13830D01*
X14129Y17080D02*
Y16780D01*
X14279D01*
X14329Y16830D01*
Y16880D01*
Y16930D01*
X14279Y16980D01*
X14129D01*
X14429Y16780D02*
X14579D01*
X14629Y16830D01*
X14579Y16880D01*
X14479D01*
X14429Y16930D01*
X14479Y16980D01*
X14629D01*
X15179Y16780D02*
X15029Y16930D01*
X15179Y17080D01*
X15329Y16780D02*
Y17080D01*
X15429Y16980D01*
X15529Y17080D01*
Y16780D01*
X15679Y16980D02*
X15779D01*
X15829Y16930D01*
Y16780D01*
X15679D01*
X15629Y16830D01*
X15679Y16880D01*
X15829D01*
X15979Y17030D02*
Y16980D01*
X15929D01*
X16029D01*
X15979D01*
Y16830D01*
X16029Y16780D01*
X16229Y17030D02*
Y16980D01*
X16179D01*
X16279D01*
X16229D01*
Y16830D01*
X16279Y16780D01*
X16429D02*
Y16830D01*
X16479D01*
Y16780D01*
X16429D01*
X16679Y17080D02*
Y16780D01*
X16829D01*
X16879Y16830D01*
Y17030D01*
X16829Y17080D01*
X16679D01*
X17028Y16780D02*
X17128D01*
X17178Y16830D01*
Y16930D01*
X17128Y16980D01*
X17028D01*
X16979Y16930D01*
Y16830D01*
X17028Y16780D01*
X17278Y17080D02*
Y16780D01*
X17428D01*
X17478Y16830D01*
Y16880D01*
Y16930D01*
X17428Y16980D01*
X17278D01*
X17578Y17080D02*
Y16780D01*
X17728D01*
X17778Y16830D01*
Y16880D01*
Y16930D01*
X17728Y16980D01*
X17578D01*
X17878Y16780D02*
X18028D01*
X18078Y16830D01*
X18028Y16880D01*
X17928D01*
X17878Y16930D01*
X17928Y16980D01*
X18078D01*
X18328Y16880D02*
Y16930D01*
X18278D01*
Y16880D01*
X18328D01*
X18378Y16930D01*
Y17030D01*
X18328Y17080D01*
X18228D01*
X18178Y17030D01*
Y16830D01*
X18228Y16780D01*
X18378D01*
X18478D02*
Y17080D01*
X18578Y16980D01*
X18678Y17080D01*
Y16780D01*
X18978Y16980D02*
X18828D01*
X18778Y16930D01*
Y16830D01*
X18828Y16780D01*
X18978D01*
X19278Y17030D02*
X19228Y17080D01*
X19128D01*
X19078Y17030D01*
Y16830D01*
X19128Y16780D01*
X19228D01*
X19278Y16830D01*
Y16930D01*
X19178D01*
X19378Y16780D02*
X19478D01*
X19428D01*
Y16980D01*
X19378D01*
X19628Y16780D02*
X19728D01*
X19678D01*
Y17080D01*
X19628D01*
X19878Y16780D02*
X19978D01*
X19928D01*
Y17080D01*
X19878D01*
X20127Y16780D02*
Y16830D01*
X20177D01*
Y16780D01*
X20127D01*
X20577Y16980D02*
X20427D01*
X20377Y16930D01*
Y16830D01*
X20427Y16780D01*
X20577D01*
X20727Y16980D02*
X20827D01*
X20877Y16930D01*
Y16780D01*
X20727D01*
X20677Y16830D01*
X20727Y16880D01*
X20877D01*
X20977Y16780D02*
X21127Y16930D01*
X20977Y17080D01*
X11670Y17290D02*
Y17590D01*
X11770Y17490D01*
X11870Y17590D01*
Y17290D01*
X12020Y17490D02*
X12120D01*
X12170Y17440D01*
Y17290D01*
X12020D01*
X11970Y17340D01*
X12020Y17390D01*
X12170D01*
X12470Y17590D02*
Y17290D01*
X12320D01*
X12270Y17340D01*
Y17440D01*
X12320Y17490D01*
X12470D01*
X12720Y17290D02*
X12620D01*
X12570Y17340D01*
Y17440D01*
X12620Y17490D01*
X12720D01*
X12770Y17440D01*
Y17390D01*
X12570D01*
X13170Y17290D02*
X13269D01*
X13219D01*
Y17490D01*
X13170D01*
X13419Y17290D02*
Y17490D01*
X13569D01*
X13619Y17440D01*
Y17290D01*
X14219Y17540D02*
X14169Y17590D01*
X14069D01*
X14019Y17540D01*
Y17340D01*
X14069Y17290D01*
X14169D01*
X14219Y17340D01*
X14319Y17290D02*
Y17490D01*
X14419Y17590D01*
X14519Y17490D01*
Y17290D01*
Y17440D01*
X14319D01*
X14619Y17290D02*
Y17590D01*
X14819Y17290D01*
Y17590D01*
X14919Y17290D02*
Y17490D01*
X15019Y17590D01*
X15119Y17490D01*
Y17290D01*
Y17440D01*
X14919D01*
X15219Y17590D02*
Y17290D01*
X15369D01*
X15419Y17340D01*
Y17540D01*
X15369Y17590D01*
X15219D01*
X15519Y17290D02*
Y17490D01*
X15619Y17590D01*
X15719Y17490D01*
Y17290D01*
Y17440D01*
X15519D01*
X16119D02*
X16319D01*
X16718Y17290D02*
Y17590D01*
X16818Y17490D01*
X16918Y17590D01*
Y17290D01*
X17068Y17490D02*
X17168D01*
X17218Y17440D01*
Y17290D01*
X17068D01*
X17018Y17340D01*
X17068Y17390D01*
X17218D01*
X17318Y17490D02*
Y17340D01*
X17368Y17290D01*
X17518D01*
Y17240D01*
X17468Y17190D01*
X17418D01*
X17518Y17290D02*
Y17490D01*
X18118Y17290D02*
X17918D01*
X18118Y17490D01*
Y17540D01*
X18068Y17590D01*
X17968D01*
X17918Y17540D01*
X18218D02*
X18268Y17590D01*
X18368D01*
X18418Y17540D01*
Y17340D01*
X18368Y17290D01*
X18268D01*
X18218Y17340D01*
Y17540D01*
X18518Y17290D02*
X18618D01*
X18568D01*
Y17590D01*
X18518Y17540D01*
X18768D02*
X18818Y17590D01*
X18918D01*
X18968Y17540D01*
Y17340D01*
X18918Y17290D01*
X18818D01*
X18768Y17340D01*
Y17540D01*
X19368Y17440D02*
X19567D01*
X19967Y17290D02*
Y17590D01*
X20067Y17490D01*
X20167Y17590D01*
Y17290D01*
X20317D02*
X20417D01*
X20467Y17340D01*
Y17440D01*
X20417Y17490D01*
X20317D01*
X20267Y17440D01*
Y17340D01*
X20317Y17290D01*
X20567D02*
Y17490D01*
X20717D01*
X20767Y17440D01*
Y17290D01*
X20917Y17540D02*
Y17490D01*
X20867D01*
X20967D01*
X20917D01*
Y17340D01*
X20967Y17290D01*
X21117Y17490D02*
Y17290D01*
Y17390D01*
X21167Y17440D01*
X21217Y17490D01*
X21267D01*
X21567Y17290D02*
X21467D01*
X21417Y17340D01*
Y17440D01*
X21467Y17490D01*
X21567D01*
X21617Y17440D01*
Y17390D01*
X21417D01*
X21767Y17490D02*
X21867D01*
X21917Y17440D01*
Y17290D01*
X21767D01*
X21717Y17340D01*
X21767Y17390D01*
X21917D01*
X22017Y17290D02*
X22117D01*
X22067D01*
Y17590D01*
X22017D01*
X11410Y17870D02*
Y18320D01*
X11560Y18170D01*
X11710Y18320D01*
Y17870D01*
X12160Y18170D02*
X11935D01*
X11860Y18095D01*
Y17945D01*
X11935Y17870D01*
X12160D01*
X12610Y18245D02*
X12535Y18320D01*
X12385D01*
X12310Y18245D01*
Y17945D01*
X12385Y17870D01*
X12535D01*
X12610Y17945D01*
Y18095D01*
X12460D01*
X12760Y17870D02*
X12910D01*
X12835D01*
Y18170D01*
X12760D01*
X13134Y17870D02*
X13284D01*
X13209D01*
Y18320D01*
X13134D01*
X13509Y17870D02*
X13659D01*
X13584D01*
Y18320D01*
X13509D01*
X14334Y17870D02*
Y18320D01*
X14484Y18170D01*
X14634Y18320D01*
Y17870D01*
X15009D02*
X14859D01*
X14784Y17945D01*
Y18095D01*
X14859Y18170D01*
X15009D01*
X15084Y18095D01*
Y18020D01*
X14784D01*
X15534Y18320D02*
Y17870D01*
X15309D01*
X15234Y17945D01*
Y18095D01*
X15309Y18170D01*
X15534D01*
X15684D02*
Y17945D01*
X15759Y17870D01*
X15984D01*
Y18170D01*
X16133Y17870D02*
X16358D01*
X16433Y17945D01*
X16358Y18020D01*
X16208D01*
X16133Y18095D01*
X16208Y18170D01*
X16433D01*
X16658D02*
X16808D01*
X16883Y18095D01*
Y17870D01*
X16658D01*
X16583Y17945D01*
X16658Y18020D01*
X16883D01*
X17783Y18245D02*
X17708Y18320D01*
X17558D01*
X17483Y18245D01*
Y17945D01*
X17558Y17870D01*
X17708D01*
X17783Y17945D01*
X18008Y18170D02*
X18158D01*
X18233Y18095D01*
Y17870D01*
X18008D01*
X17933Y17945D01*
X18008Y18020D01*
X18233D01*
X18383Y18320D02*
Y17870D01*
X18608D01*
X18683Y17945D01*
Y18020D01*
Y18095D01*
X18608Y18170D01*
X18383D01*
X18833Y17870D02*
X18983D01*
X18908D01*
Y18320D01*
X18833D01*
X19432Y17870D02*
X19282D01*
X19207Y17945D01*
Y18095D01*
X19282Y18170D01*
X19432D01*
X19507Y18095D01*
Y18020D01*
X19207D01*
X20107Y18320D02*
X20407D01*
X20257D01*
Y17870D01*
X20782D02*
X20632D01*
X20557Y17945D01*
Y18095D01*
X20632Y18170D01*
X20782D01*
X20857Y18095D01*
Y18020D01*
X20557D01*
X21007Y17870D02*
X21232D01*
X21307Y17945D01*
X21232Y18020D01*
X21082D01*
X21007Y18095D01*
X21082Y18170D01*
X21307D01*
X21532Y18245D02*
Y18170D01*
X21457D01*
X21607D01*
X21532D01*
Y17945D01*
X21607Y17870D01*
X22057D02*
X21907D01*
X21832Y17945D01*
Y18095D01*
X21907Y18170D01*
X22057D01*
X22132Y18095D01*
Y18020D01*
X21832D01*
X22281Y18170D02*
Y17870D01*
Y18020D01*
X22356Y18095D01*
X22431Y18170D01*
X22506D01*
X11270Y16310D02*
Y16510D01*
X11370Y16610D01*
X11470Y16510D01*
Y16310D01*
Y16460D01*
X11270D01*
X11770Y16610D02*
Y16310D01*
X11620D01*
X11570Y16360D01*
Y16460D01*
X11620Y16510D01*
X11770D01*
X11920D02*
X12020D01*
X12070Y16460D01*
Y16310D01*
X11920D01*
X11870Y16360D01*
X11920Y16410D01*
X12070D01*
X12170Y16310D02*
Y16510D01*
X12220D01*
X12270Y16460D01*
Y16310D01*
Y16460D01*
X12320Y16510D01*
X12370Y16460D01*
Y16310D01*
X12969Y16560D02*
X12919Y16610D01*
X12819D01*
X12770Y16560D01*
Y16360D01*
X12819Y16310D01*
X12919D01*
X12969Y16360D01*
Y16460D01*
X12869D01*
X13069Y16310D02*
X13169D01*
X13119D01*
Y16510D01*
X13069D01*
X13319Y16310D02*
X13419D01*
X13369D01*
Y16610D01*
X13319D01*
X13569D02*
Y16310D01*
X13719D01*
X13769Y16360D01*
Y16410D01*
Y16460D01*
X13719Y16510D01*
X13569D01*
X14019Y16310D02*
X13919D01*
X13869Y16360D01*
Y16460D01*
X13919Y16510D01*
X14019D01*
X14069Y16460D01*
Y16410D01*
X13869D01*
X14169Y16510D02*
Y16310D01*
Y16410D01*
X14219Y16460D01*
X14269Y16510D01*
X14319D01*
X14519Y16560D02*
Y16510D01*
X14469D01*
X14569D01*
X14519D01*
Y16360D01*
X14569Y16310D01*
X15169D02*
X15019Y16460D01*
X15169Y16610D01*
X15369Y16510D02*
X15469D01*
X15519Y16460D01*
Y16310D01*
X15369D01*
X15319Y16360D01*
X15369Y16410D01*
X15519D01*
X15819Y16610D02*
Y16310D01*
X15669D01*
X15619Y16360D01*
Y16460D01*
X15669Y16510D01*
X15819D01*
X15968D02*
X16068D01*
X16118Y16460D01*
Y16310D01*
X15968D01*
X15919Y16360D01*
X15968Y16410D01*
X16118D01*
X16218Y16310D02*
Y16510D01*
X16268D01*
X16318Y16460D01*
Y16310D01*
Y16460D01*
X16368Y16510D01*
X16418Y16460D01*
Y16310D01*
X16518Y16210D02*
X16568D01*
X16618Y16260D01*
Y16510D01*
X16868Y16310D02*
X16968D01*
X17018Y16360D01*
Y16460D01*
X16968Y16510D01*
X16868D01*
X16818Y16460D01*
Y16360D01*
X16868Y16310D01*
X17118Y16610D02*
Y16310D01*
Y16460D01*
X17168Y16510D01*
X17268D01*
X17318Y16460D01*
Y16310D01*
X17418D02*
Y16510D01*
X17568D01*
X17618Y16460D01*
Y16310D01*
X17818Y16210D02*
X17868D01*
X17918Y16260D01*
Y16510D01*
X17768D01*
X17718Y16460D01*
Y16360D01*
X17768Y16310D01*
X17918D01*
X18018D02*
X18118D01*
X18068D01*
Y16510D01*
X18018D01*
X18268Y16310D02*
X18368D01*
X18318D01*
Y16610D01*
X18268D01*
X18518D02*
Y16310D01*
X18668D01*
X18718Y16360D01*
Y16410D01*
Y16460D01*
X18668Y16510D01*
X18518D01*
X18968Y16310D02*
X18868D01*
X18818Y16360D01*
Y16460D01*
X18868Y16510D01*
X18968D01*
X19017Y16460D01*
Y16410D01*
X18818D01*
X19117Y16510D02*
Y16310D01*
Y16410D01*
X19167Y16460D01*
X19217Y16510D01*
X19267D01*
X19467Y16560D02*
Y16510D01*
X19417D01*
X19517D01*
X19467D01*
Y16360D01*
X19517Y16310D01*
X19817Y16410D02*
Y16460D01*
X19767D01*
Y16410D01*
X19817D01*
X19867Y16460D01*
Y16560D01*
X19817Y16610D01*
X19717D01*
X19667Y16560D01*
Y16360D01*
X19717Y16310D01*
X19867D01*
X20067Y16210D02*
X20117D01*
X20167Y16260D01*
Y16510D01*
X20017D01*
X19967Y16460D01*
Y16360D01*
X20017Y16310D01*
X20167D01*
X20267D02*
Y16510D01*
X20317D01*
X20367Y16460D01*
Y16310D01*
Y16460D01*
X20417Y16510D01*
X20467Y16460D01*
Y16310D01*
X20617Y16510D02*
X20717D01*
X20767Y16460D01*
Y16310D01*
X20617D01*
X20567Y16360D01*
X20617Y16410D01*
X20767D01*
X20867Y16310D02*
X20967D01*
X20917D01*
Y16510D01*
X20867D01*
X21117Y16310D02*
X21217D01*
X21167D01*
Y16610D01*
X21117D01*
X21367Y16310D02*
Y16360D01*
X21417D01*
Y16310D01*
X21367D01*
X21817Y16510D02*
X21667D01*
X21617Y16460D01*
Y16360D01*
X21667Y16310D01*
X21817D01*
X21967D02*
X22067D01*
X22116Y16360D01*
Y16460D01*
X22067Y16510D01*
X21967D01*
X21917Y16460D01*
Y16360D01*
X21967Y16310D01*
X22216D02*
Y16510D01*
X22266D01*
X22316Y16460D01*
Y16310D01*
Y16460D01*
X22366Y16510D01*
X22416Y16460D01*
Y16310D01*
X22516D02*
X22666Y16460D01*
X22516Y16610D01*
X20050Y23400D02*
Y23513D01*
Y23457D01*
X19710D01*
X19767Y23400D01*
X20050Y24590D02*
Y24363D01*
X19823Y24590D01*
X19767D01*
X19710Y24533D01*
Y24420D01*
X19767Y24363D01*
Y25383D02*
X19710Y25439D01*
Y25553D01*
X19767Y25609D01*
X19823D01*
X19880Y25553D01*
Y25496D01*
Y25553D01*
X19937Y25609D01*
X19993D01*
X20050Y25553D01*
Y25439D01*
X19993Y25383D01*
X20050Y26572D02*
X19710D01*
X19880Y26402D01*
Y26629D01*
X19710Y27649D02*
Y27422D01*
X19880D01*
X19823Y27535D01*
Y27592D01*
X19880Y27649D01*
X19993D01*
X20050Y27592D01*
Y27479D01*
X19993Y27422D01*
X19710Y28668D02*
X19767Y28555D01*
X19880Y28442D01*
X19993D01*
X20050Y28498D01*
Y28612D01*
X19993Y28668D01*
X19937D01*
X19880Y28612D01*
Y28442D01*
X19710Y29461D02*
Y29688D01*
X19767D01*
X19993Y29461D01*
X20050D01*
X19767Y30481D02*
X19710Y30538D01*
Y30651D01*
X19767Y30708D01*
X19823D01*
X19880Y30651D01*
X19937Y30708D01*
X19993D01*
X20050Y30651D01*
Y30538D01*
X19993Y30481D01*
X19937D01*
X19880Y30538D01*
X19823Y30481D01*
X19767D01*
X19880Y30538D02*
Y30651D01*
X19993Y31501D02*
X20050Y31557D01*
Y31671D01*
X19993Y31727D01*
X19767D01*
X19710Y31671D01*
Y31557D01*
X19767Y31501D01*
X19823D01*
X19880Y31557D01*
Y31727D01*
X20050Y32520D02*
Y32634D01*
Y32577D01*
X19710D01*
X19767Y32520D01*
Y32804D02*
X19710Y32860D01*
Y32974D01*
X19767Y33030D01*
X19993D01*
X20050Y32974D01*
Y32860D01*
X19993Y32804D01*
X19767D01*
X20050Y33483D02*
Y33597D01*
Y33540D01*
X19710D01*
X19767Y33483D01*
X20050Y33767D02*
Y33880D01*
Y33823D01*
X19710D01*
X19767Y33767D01*
X20050Y34390D02*
Y34503D01*
Y34446D01*
X19710D01*
X19767Y34390D01*
X20050Y34900D02*
Y34673D01*
X19823Y34900D01*
X19767D01*
X19710Y34843D01*
Y34730D01*
X19767Y34673D01*
X20050Y35353D02*
Y35466D01*
Y35409D01*
X19710D01*
X19767Y35353D01*
Y35636D02*
X19710Y35693D01*
Y35806D01*
X19767Y35863D01*
X19823D01*
X19880Y35806D01*
Y35749D01*
Y35806D01*
X19937Y35863D01*
X19993D01*
X20050Y35806D01*
Y35693D01*
X19993Y35636D01*
X20050Y36316D02*
Y36429D01*
Y36372D01*
X19710D01*
X19767Y36316D01*
X20050Y36769D02*
X19710D01*
X19880Y36599D01*
Y36826D01*
X20050Y37279D02*
Y37392D01*
Y37335D01*
X19710D01*
X19767Y37279D01*
X19710Y37789D02*
Y37562D01*
X19880D01*
X19823Y37675D01*
Y37732D01*
X19880Y37789D01*
X19993D01*
X20050Y37732D01*
Y37619D01*
X19993Y37562D01*
X20050Y38242D02*
Y38355D01*
Y38299D01*
X19710D01*
X19767Y38242D01*
X19710Y38752D02*
X19767Y38638D01*
X19880Y38525D01*
X19993D01*
X20050Y38582D01*
Y38695D01*
X19993Y38752D01*
X19937D01*
X19880Y38695D01*
Y38525D01*
X20050Y39205D02*
Y39318D01*
Y39262D01*
X19710D01*
X19767Y39205D01*
X19710Y39488D02*
Y39715D01*
X19767D01*
X19993Y39488D01*
X20050D01*
Y40168D02*
Y40281D01*
Y40225D01*
X19710D01*
X19767Y40168D01*
Y40451D02*
X19710Y40508D01*
Y40621D01*
X19767Y40678D01*
X19823D01*
X19880Y40621D01*
X19937Y40678D01*
X19993D01*
X20050Y40621D01*
Y40508D01*
X19993Y40451D01*
X19937D01*
X19880Y40508D01*
X19823Y40451D01*
X19767D01*
X19880Y40508D02*
Y40621D01*
X22000Y23327D02*
Y23100D01*
X21773Y23327D01*
X21717D01*
X21660Y23270D01*
Y23157D01*
X21717Y23100D01*
Y23440D02*
X21660Y23497D01*
Y23610D01*
X21717Y23666D01*
X21773D01*
X21830Y23610D01*
Y23553D01*
Y23610D01*
X21887Y23666D01*
X21943D01*
X22000Y23610D01*
Y23497D01*
X21943Y23440D01*
X22000Y24346D02*
Y24120D01*
X21773Y24346D01*
X21717D01*
X21660Y24290D01*
Y24176D01*
X21717Y24120D01*
X22000Y24629D02*
X21660D01*
X21830Y24460D01*
Y24686D01*
X22000Y25366D02*
Y25139D01*
X21773Y25366D01*
X21717D01*
X21660Y25309D01*
Y25196D01*
X21717Y25139D01*
X21660Y25706D02*
Y25479D01*
X21830D01*
X21773Y25593D01*
Y25649D01*
X21830Y25706D01*
X21943D01*
X22000Y25649D01*
Y25536D01*
X21943Y25479D01*
X22000Y26386D02*
Y26159D01*
X21773Y26386D01*
X21717D01*
X21660Y26329D01*
Y26216D01*
X21717Y26159D01*
X21660Y26725D02*
X21717Y26612D01*
X21830Y26499D01*
X21943D01*
X22000Y26556D01*
Y26669D01*
X21943Y26725D01*
X21887D01*
X21830Y26669D01*
Y26499D01*
X22000Y27405D02*
Y27179D01*
X21773Y27405D01*
X21717D01*
X21660Y27349D01*
Y27235D01*
X21717Y27179D01*
X21660Y27519D02*
Y27745D01*
X21717D01*
X21943Y27519D01*
X22000D01*
Y28425D02*
Y28198D01*
X21773Y28425D01*
X21717D01*
X21660Y28368D01*
Y28255D01*
X21717Y28198D01*
Y28538D02*
X21660Y28595D01*
Y28708D01*
X21717Y28765D01*
X21773D01*
X21830Y28708D01*
X21887Y28765D01*
X21943D01*
X22000Y28708D01*
Y28595D01*
X21943Y28538D01*
X21887D01*
X21830Y28595D01*
X21773Y28538D01*
X21717D01*
X21830Y28595D02*
Y28708D01*
X22000Y29445D02*
Y29218D01*
X21773Y29445D01*
X21717D01*
X21660Y29388D01*
Y29275D01*
X21717Y29218D01*
X21943Y29558D02*
X22000Y29615D01*
Y29728D01*
X21943Y29785D01*
X21717D01*
X21660Y29728D01*
Y29615D01*
X21717Y29558D01*
X21773D01*
X21830Y29615D01*
Y29785D01*
X21717Y30238D02*
X21660Y30294D01*
Y30408D01*
X21717Y30464D01*
X21773D01*
X21830Y30408D01*
Y30351D01*
Y30408D01*
X21887Y30464D01*
X21943D01*
X22000Y30408D01*
Y30294D01*
X21943Y30238D01*
X21717Y30578D02*
X21660Y30634D01*
Y30748D01*
X21717Y30804D01*
X21943D01*
X22000Y30748D01*
Y30634D01*
X21943Y30578D01*
X21717D01*
Y31257D02*
X21660Y31314D01*
Y31427D01*
X21717Y31484D01*
X21773D01*
X21830Y31427D01*
Y31371D01*
Y31427D01*
X21887Y31484D01*
X21943D01*
X22000Y31427D01*
Y31314D01*
X21943Y31257D01*
X22000Y31824D02*
Y31597D01*
X21773Y31824D01*
X21717D01*
X21660Y31767D01*
Y31654D01*
X21717Y31597D01*
Y32277D02*
X21660Y32334D01*
Y32447D01*
X21717Y32504D01*
X21773D01*
X21830Y32447D01*
Y32390D01*
Y32447D01*
X21887Y32504D01*
X21943D01*
X22000Y32447D01*
Y32334D01*
X21943Y32277D01*
X21717Y32617D02*
X21660Y32674D01*
Y32787D01*
X21717Y32844D01*
X21773D01*
X21830Y32787D01*
Y32730D01*
Y32787D01*
X21887Y32844D01*
X21943D01*
X22000Y32787D01*
Y32674D01*
X21943Y32617D01*
X21717Y33297D02*
X21660Y33353D01*
Y33467D01*
X21717Y33523D01*
X21773D01*
X21830Y33467D01*
Y33410D01*
Y33467D01*
X21887Y33523D01*
X21943D01*
X22000Y33467D01*
Y33353D01*
X21943Y33297D01*
X22000Y33807D02*
X21660D01*
X21830Y33637D01*
Y33863D01*
X21717Y34316D02*
X21660Y34373D01*
Y34486D01*
X21717Y34543D01*
X21773D01*
X21830Y34486D01*
Y34430D01*
Y34486D01*
X21887Y34543D01*
X21943D01*
X22000Y34486D01*
Y34373D01*
X21943Y34316D01*
X21660Y34883D02*
Y34656D01*
X21830D01*
X21773Y34770D01*
Y34826D01*
X21830Y34883D01*
X21943D01*
X22000Y34826D01*
Y34713D01*
X21943Y34656D01*
X21717Y35336D02*
X21660Y35393D01*
Y35506D01*
X21717Y35563D01*
X21773D01*
X21830Y35506D01*
Y35449D01*
Y35506D01*
X21887Y35563D01*
X21943D01*
X22000Y35506D01*
Y35393D01*
X21943Y35336D01*
X21660Y35903D02*
X21717Y35789D01*
X21830Y35676D01*
X21943D01*
X22000Y35733D01*
Y35846D01*
X21943Y35903D01*
X21887D01*
X21830Y35846D01*
Y35676D01*
X21717Y36356D02*
X21660Y36412D01*
Y36526D01*
X21717Y36582D01*
X21773D01*
X21830Y36526D01*
Y36469D01*
Y36526D01*
X21887Y36582D01*
X21943D01*
X22000Y36526D01*
Y36412D01*
X21943Y36356D01*
X21660Y36696D02*
Y36922D01*
X21717D01*
X21943Y36696D01*
X22000D01*
X21717Y37375D02*
X21660Y37432D01*
Y37545D01*
X21717Y37602D01*
X21773D01*
X21830Y37545D01*
Y37489D01*
Y37545D01*
X21887Y37602D01*
X21943D01*
X22000Y37545D01*
Y37432D01*
X21943Y37375D01*
X21717Y37715D02*
X21660Y37772D01*
Y37885D01*
X21717Y37942D01*
X21773D01*
X21830Y37885D01*
X21887Y37942D01*
X21943D01*
X22000Y37885D01*
Y37772D01*
X21943Y37715D01*
X21887D01*
X21830Y37772D01*
X21773Y37715D01*
X21717D01*
X21830Y37772D02*
Y37885D01*
X21717Y38395D02*
X21660Y38452D01*
Y38565D01*
X21717Y38622D01*
X21773D01*
X21830Y38565D01*
Y38508D01*
Y38565D01*
X21887Y38622D01*
X21943D01*
X22000Y38565D01*
Y38452D01*
X21943Y38395D01*
Y38735D02*
X22000Y38792D01*
Y38905D01*
X21943Y38962D01*
X21717D01*
X21660Y38905D01*
Y38792D01*
X21717Y38735D01*
X21773D01*
X21830Y38792D01*
Y38962D01*
X22000Y39585D02*
X21660D01*
X21830Y39415D01*
Y39641D01*
X21717Y39755D02*
X21660Y39811D01*
Y39925D01*
X21717Y39981D01*
X21943D01*
X22000Y39925D01*
Y39811D01*
X21943Y39755D01*
X21717D01*
X24000Y23270D02*
X23660D01*
X23830Y23100D01*
Y23327D01*
X23717Y23440D02*
X23660Y23497D01*
Y23610D01*
X23717Y23666D01*
X23773D01*
X23830Y23610D01*
Y23553D01*
Y23610D01*
X23887Y23666D01*
X23943D01*
X24000Y23610D01*
Y23497D01*
X23943Y23440D01*
X24000Y24290D02*
X23660D01*
X23830Y24120D01*
Y24346D01*
X24000Y24629D02*
X23660D01*
X23830Y24460D01*
Y24686D01*
X24000Y25309D02*
X23660D01*
X23830Y25139D01*
Y25366D01*
X23660Y25706D02*
Y25479D01*
X23830D01*
X23773Y25593D01*
Y25649D01*
X23830Y25706D01*
X23943D01*
X24000Y25649D01*
Y25536D01*
X23943Y25479D01*
X24000Y26329D02*
X23660D01*
X23830Y26159D01*
Y26386D01*
X23660Y26725D02*
X23717Y26612D01*
X23830Y26499D01*
X23943D01*
X24000Y26556D01*
Y26669D01*
X23943Y26725D01*
X23887D01*
X23830Y26669D01*
Y26499D01*
X24000Y27349D02*
X23660D01*
X23830Y27179D01*
Y27405D01*
X23660Y27519D02*
Y27745D01*
X23717D01*
X23943Y27519D01*
X24000D01*
Y28368D02*
X23660D01*
X23830Y28198D01*
Y28425D01*
X23717Y28538D02*
X23660Y28595D01*
Y28708D01*
X23717Y28765D01*
X23773D01*
X23830Y28708D01*
X23887Y28765D01*
X23943D01*
X24000Y28708D01*
Y28595D01*
X23943Y28538D01*
X23887D01*
X23830Y28595D01*
X23773Y28538D01*
X23717D01*
X23830Y28595D02*
Y28708D01*
X24000Y29388D02*
X23660D01*
X23830Y29218D01*
Y29445D01*
X23943Y29558D02*
X24000Y29615D01*
Y29728D01*
X23943Y29785D01*
X23717D01*
X23660Y29728D01*
Y29615D01*
X23717Y29558D01*
X23773D01*
X23830Y29615D01*
Y29785D01*
X23660Y30464D02*
Y30238D01*
X23830D01*
X23773Y30351D01*
Y30408D01*
X23830Y30464D01*
X23943D01*
X24000Y30408D01*
Y30294D01*
X23943Y30238D01*
X23717Y30578D02*
X23660Y30634D01*
Y30748D01*
X23717Y30804D01*
X23943D01*
X24000Y30748D01*
Y30634D01*
X23943Y30578D01*
X23717D01*
X23660Y31484D02*
Y31257D01*
X23830D01*
X23773Y31371D01*
Y31427D01*
X23830Y31484D01*
X23943D01*
X24000Y31427D01*
Y31314D01*
X23943Y31257D01*
X24000Y31824D02*
Y31597D01*
X23773Y31824D01*
X23717D01*
X23660Y31767D01*
Y31654D01*
X23717Y31597D01*
X23660Y32504D02*
Y32277D01*
X23830D01*
X23773Y32390D01*
Y32447D01*
X23830Y32504D01*
X23943D01*
X24000Y32447D01*
Y32334D01*
X23943Y32277D01*
X23717Y32617D02*
X23660Y32674D01*
Y32787D01*
X23717Y32844D01*
X23773D01*
X23830Y32787D01*
Y32730D01*
Y32787D01*
X23887Y32844D01*
X23943D01*
X24000Y32787D01*
Y32674D01*
X23943Y32617D01*
X23660Y33523D02*
Y33297D01*
X23830D01*
X23773Y33410D01*
Y33467D01*
X23830Y33523D01*
X23943D01*
X24000Y33467D01*
Y33353D01*
X23943Y33297D01*
X24000Y33807D02*
X23660D01*
X23830Y33637D01*
Y33863D01*
X23660Y34543D02*
Y34316D01*
X23830D01*
X23773Y34430D01*
Y34486D01*
X23830Y34543D01*
X23943D01*
X24000Y34486D01*
Y34373D01*
X23943Y34316D01*
X23660Y34883D02*
Y34656D01*
X23830D01*
X23773Y34770D01*
Y34826D01*
X23830Y34883D01*
X23943D01*
X24000Y34826D01*
Y34713D01*
X23943Y34656D01*
X23660Y35563D02*
Y35336D01*
X23830D01*
X23773Y35449D01*
Y35506D01*
X23830Y35563D01*
X23943D01*
X24000Y35506D01*
Y35393D01*
X23943Y35336D01*
X23660Y35903D02*
X23717Y35789D01*
X23830Y35676D01*
X23943D01*
X24000Y35733D01*
Y35846D01*
X23943Y35903D01*
X23887D01*
X23830Y35846D01*
Y35676D01*
X23660Y36582D02*
Y36356D01*
X23830D01*
X23773Y36469D01*
Y36526D01*
X23830Y36582D01*
X23943D01*
X24000Y36526D01*
Y36412D01*
X23943Y36356D01*
X23660Y36696D02*
Y36922D01*
X23717D01*
X23943Y36696D01*
X24000D01*
X23660Y37602D02*
Y37375D01*
X23830D01*
X23773Y37489D01*
Y37545D01*
X23830Y37602D01*
X23943D01*
X24000Y37545D01*
Y37432D01*
X23943Y37375D01*
X23717Y37715D02*
X23660Y37772D01*
Y37885D01*
X23717Y37942D01*
X23773D01*
X23830Y37885D01*
X23887Y37942D01*
X23943D01*
X24000Y37885D01*
Y37772D01*
X23943Y37715D01*
X23887D01*
X23830Y37772D01*
X23773Y37715D01*
X23717D01*
X23830Y37772D02*
Y37885D01*
X23660Y38622D02*
Y38395D01*
X23830D01*
X23773Y38508D01*
Y38565D01*
X23830Y38622D01*
X23943D01*
X24000Y38565D01*
Y38452D01*
X23943Y38395D01*
Y38735D02*
X24000Y38792D01*
Y38905D01*
X23943Y38962D01*
X23717D01*
X23660Y38905D01*
Y38792D01*
X23717Y38735D01*
X23773D01*
X23830Y38792D01*
Y38962D01*
X23660Y39641D02*
X23717Y39528D01*
X23830Y39415D01*
X23943D01*
X24000Y39471D01*
Y39585D01*
X23943Y39641D01*
X23887D01*
X23830Y39585D01*
Y39415D01*
X23717Y39755D02*
X23660Y39811D01*
Y39925D01*
X23717Y39981D01*
X23943D01*
X24000Y39925D01*
Y39811D01*
X23943Y39755D01*
X23717D01*
X24400Y43530D02*
Y43200D01*
X24565D01*
X24620Y43255D01*
Y43475D01*
X24565Y43530D01*
X24400D01*
X24730D02*
Y43200D01*
X24895D01*
X24950Y43255D01*
Y43310D01*
X24895Y43365D01*
X24730D01*
X24895D01*
X24950Y43420D01*
Y43475D01*
X24895Y43530D01*
X24730D01*
X25060Y43200D02*
X25170D01*
X25115D01*
Y43530D01*
X25060Y43475D01*
X25555Y43530D02*
X25335D01*
Y43365D01*
X25445Y43420D01*
X25500D01*
X25555Y43365D01*
Y43255D01*
X25500Y43200D01*
X25390D01*
X25335Y43255D01*
X25665Y43145D02*
X25885D01*
X26159Y43200D02*
Y43530D01*
X25994Y43365D01*
X26214D01*
X41730Y47200D02*
X41400D01*
Y47035D01*
X41455Y46980D01*
X41675D01*
X41730Y47035D01*
Y47200D01*
Y46870D02*
X41400D01*
Y46705D01*
X41455Y46650D01*
X41510D01*
X41565Y46705D01*
Y46870D01*
Y46705D01*
X41620Y46650D01*
X41675D01*
X41730Y46705D01*
Y46870D01*
X41400Y46540D02*
Y46430D01*
Y46485D01*
X41730D01*
X41675Y46540D01*
X41730Y46045D02*
Y46265D01*
X41565D01*
X41620Y46155D01*
Y46100D01*
X41565Y46045D01*
X41455D01*
X41400Y46100D01*
Y46210D01*
X41455Y46265D01*
X41345Y45935D02*
Y45715D01*
X41675Y45606D02*
X41730Y45551D01*
Y45441D01*
X41675Y45386D01*
X41620D01*
X41565Y45441D01*
Y45496D01*
Y45441D01*
X41510Y45386D01*
X41455D01*
X41400Y45441D01*
Y45551D01*
X41455Y45606D01*
X41630Y30800D02*
X41300D01*
Y30635D01*
X41355Y30580D01*
X41575D01*
X41630Y30635D01*
Y30800D01*
Y30470D02*
X41300D01*
Y30305D01*
X41355Y30250D01*
X41410D01*
X41465Y30305D01*
Y30470D01*
Y30305D01*
X41520Y30250D01*
X41575D01*
X41630Y30305D01*
Y30470D01*
X41300Y30140D02*
Y30030D01*
Y30085D01*
X41630D01*
X41575Y30140D01*
X41630Y29645D02*
Y29865D01*
X41465D01*
X41520Y29755D01*
Y29700D01*
X41465Y29645D01*
X41355D01*
X41300Y29700D01*
Y29810D01*
X41355Y29865D01*
X41245Y29535D02*
Y29315D01*
X41300Y28986D02*
Y29206D01*
X41520Y28986D01*
X41575D01*
X41630Y29041D01*
Y29151D01*
X41575Y29206D01*
X37100Y20770D02*
Y21100D01*
X36935D01*
X36880Y21045D01*
Y20825D01*
X36935Y20770D01*
X37100D01*
X36770D02*
Y21100D01*
X36605D01*
X36550Y21045D01*
Y20990D01*
X36605Y20935D01*
X36770D01*
X36605D01*
X36550Y20880D01*
Y20825D01*
X36605Y20770D01*
X36770D01*
X36440Y21100D02*
X36330D01*
X36385D01*
Y20770D01*
X36440Y20825D01*
X35945Y20770D02*
X36165D01*
Y20935D01*
X36055Y20880D01*
X36000D01*
X35945Y20935D01*
Y21045D01*
X36000Y21100D01*
X36110D01*
X36165Y21045D01*
X35835Y21155D02*
X35615D01*
X35506Y21100D02*
X35396D01*
X35451D01*
Y20770D01*
X35506Y20825D01*
X39700Y23000D02*
X39800D01*
X39750D01*
Y23300D01*
X39700Y23250D01*
X39950Y23150D02*
X40150D01*
X40250Y23000D02*
X40350D01*
X40300D01*
Y23300D01*
X40250Y23250D01*
X40700Y23000D02*
X40500D01*
X40700Y23200D01*
Y23250D01*
X40650Y23300D01*
X40550D01*
X40500Y23250D01*
X39900Y24000D02*
X39700D01*
X39900Y24200D01*
Y24250D01*
X39850Y24300D01*
X39750D01*
X39700Y24250D01*
X40000Y24150D02*
X40200D01*
X40300Y24000D02*
X40400D01*
X40350D01*
Y24300D01*
X40300Y24250D01*
X40550D02*
X40600Y24300D01*
X40700D01*
X40750Y24250D01*
Y24050D01*
X40700Y24000D01*
X40600D01*
X40550Y24050D01*
Y24250D01*
X39900Y25000D02*
X39700D01*
X39900Y25200D01*
Y25250D01*
X39850Y25300D01*
X39750D01*
X39700Y25250D01*
X40000Y25150D02*
X40200D01*
X40500Y25000D02*
X40300D01*
X40500Y25200D01*
Y25250D01*
X40450Y25300D01*
X40350D01*
X40300Y25250D01*
X39900Y26000D02*
X39700D01*
X39900Y26200D01*
Y26250D01*
X39850Y26300D01*
X39750D01*
X39700Y26250D01*
X40000Y26150D02*
X40200D01*
X40300Y26000D02*
X40400D01*
X40350D01*
Y26300D01*
X40300Y26250D01*
X40700Y26000D02*
Y26300D01*
X40550Y26150D01*
X40750D01*
X39900Y27000D02*
X39700D01*
X39900Y27200D01*
Y27250D01*
X39850Y27300D01*
X39750D01*
X39700Y27250D01*
X40000Y27150D02*
X40200D01*
X40300Y27300D02*
X40500D01*
Y27250D01*
X40300Y27050D01*
Y27000D01*
X39700Y28000D02*
X39800D01*
X39750D01*
Y28300D01*
X39700Y28250D01*
X39950Y28150D02*
X40150D01*
X40250Y28000D02*
X40350D01*
X40300D01*
Y28300D01*
X40250Y28250D01*
X40500D02*
X40550Y28300D01*
X40650D01*
X40700Y28250D01*
Y28050D01*
X40650Y28000D01*
X40550D01*
X40500Y28050D01*
Y28250D01*
X39700Y29000D02*
X39800D01*
X39750D01*
Y29300D01*
X39700Y29250D01*
X39950Y29150D02*
X40150D01*
X40450Y29000D02*
X40250D01*
X40450Y29200D01*
Y29250D01*
X40400Y29300D01*
X40300D01*
X40250Y29250D01*
X39700Y30000D02*
X39800D01*
X39750D01*
Y30300D01*
X39700Y30250D01*
X39950Y30150D02*
X40150D01*
X40250Y30000D02*
X40350D01*
X40300D01*
Y30300D01*
X40250Y30250D01*
X40650Y30000D02*
Y30300D01*
X40500Y30150D01*
X40700D01*
X39700Y31000D02*
X39800D01*
X39750D01*
Y31300D01*
X39700Y31250D01*
X39950Y31150D02*
X40150D01*
X40250Y31300D02*
X40450D01*
Y31250D01*
X40250Y31050D01*
Y31000D01*
X39900Y22000D02*
X39700D01*
X39900Y22200D01*
Y22250D01*
X39850Y22300D01*
X39750D01*
X39700Y22250D01*
X40000Y22150D02*
X40200D01*
X40300Y22000D02*
X40400D01*
X40350D01*
Y22300D01*
X40300Y22250D01*
X40750Y22000D02*
X40550D01*
X40750Y22200D01*
Y22250D01*
X40700Y22300D01*
X40600D01*
X40550Y22250D01*
X39700Y42250D02*
X39750Y42300D01*
X39850D01*
X39900Y42250D01*
Y42200D01*
X39850Y42150D01*
X39800D01*
X39850D01*
X39900Y42100D01*
Y42050D01*
X39850Y42000D01*
X39750D01*
X39700Y42050D01*
X40000Y42150D02*
X40200D01*
X40300Y42300D02*
X40500D01*
Y42250D01*
X40300Y42050D01*
Y42000D01*
X39700Y41250D02*
X39750Y41300D01*
X39850D01*
X39900Y41250D01*
Y41200D01*
X39850Y41150D01*
X39800D01*
X39850D01*
X39900Y41100D01*
Y41050D01*
X39850Y41000D01*
X39750D01*
X39700Y41050D01*
X40000Y41150D02*
X40200D01*
X40300Y41000D02*
X40400D01*
X40350D01*
Y41300D01*
X40300Y41250D01*
X40700Y41000D02*
Y41300D01*
X40550Y41150D01*
X40750D01*
X39700Y40250D02*
X39750Y40300D01*
X39850D01*
X39900Y40250D01*
Y40200D01*
X39850Y40150D01*
X39800D01*
X39850D01*
X39900Y40100D01*
Y40050D01*
X39850Y40000D01*
X39750D01*
X39700Y40050D01*
X40000Y40150D02*
X40200D01*
X40500Y40000D02*
X40300D01*
X40500Y40200D01*
Y40250D01*
X40450Y40300D01*
X40350D01*
X40300Y40250D01*
X39700Y39250D02*
X39750Y39300D01*
X39850D01*
X39900Y39250D01*
Y39200D01*
X39850Y39150D01*
X39800D01*
X39850D01*
X39900Y39100D01*
Y39050D01*
X39850Y39000D01*
X39750D01*
X39700Y39050D01*
X40000Y39150D02*
X40200D01*
X40300Y39000D02*
X40400D01*
X40350D01*
Y39300D01*
X40300Y39250D01*
X40550D02*
X40600Y39300D01*
X40700D01*
X40750Y39250D01*
Y39050D01*
X40700Y39000D01*
X40600D01*
X40550Y39050D01*
Y39250D01*
X39850Y38000D02*
Y38300D01*
X39700Y38150D01*
X39900D01*
X40000D02*
X40200D01*
X40300Y38300D02*
X40500D01*
Y38250D01*
X40300Y38050D01*
Y38000D01*
X39850Y37000D02*
Y37300D01*
X39700Y37150D01*
X39900D01*
X40000D02*
X40200D01*
X40300Y37000D02*
X40400D01*
X40350D01*
Y37300D01*
X40300Y37250D01*
X40700Y37000D02*
Y37300D01*
X40550Y37150D01*
X40750D01*
X39850Y36000D02*
Y36300D01*
X39700Y36150D01*
X39900D01*
X40000D02*
X40200D01*
X40500Y36000D02*
X40300D01*
X40500Y36200D01*
Y36250D01*
X40450Y36300D01*
X40350D01*
X40300Y36250D01*
X39850Y35000D02*
Y35300D01*
X39700Y35150D01*
X39900D01*
X40000D02*
X40200D01*
X40300Y35000D02*
X40400D01*
X40350D01*
Y35300D01*
X40300Y35250D01*
X40550D02*
X40600Y35300D01*
X40700D01*
X40750Y35250D01*
Y35050D01*
X40700Y35000D01*
X40600D01*
X40550Y35050D01*
Y35250D01*
X39700Y34000D02*
X39800D01*
X39750D01*
Y34300D01*
X39700Y34250D01*
X39950Y34150D02*
X40150D01*
X40450Y34300D02*
X40350Y34250D01*
X40250Y34150D01*
Y34050D01*
X40300Y34000D01*
X40400D01*
X40450Y34050D01*
Y34100D01*
X40400Y34150D01*
X40250D01*
X39700Y33000D02*
X39800D01*
X39750D01*
Y33300D01*
X39700Y33250D01*
X39950Y33150D02*
X40150D01*
X40250Y33000D02*
X40350D01*
X40300D01*
Y33300D01*
X40250Y33250D01*
X40500D02*
X40550Y33300D01*
X40650D01*
X40700Y33250D01*
Y33200D01*
X40650Y33150D01*
X40600D01*
X40650D01*
X40700Y33100D01*
Y33050D01*
X40650Y33000D01*
X40550D01*
X40500Y33050D01*
X34300Y31000D02*
X34400D01*
X34350D01*
Y31300D01*
X34300Y31250D01*
X34550Y31150D02*
X34750D01*
X34850Y31250D02*
X34900Y31300D01*
X35000D01*
X35050Y31250D01*
Y31200D01*
X35000Y31150D01*
X34950D01*
X35000D01*
X35050Y31100D01*
Y31050D01*
X35000Y31000D01*
X34900D01*
X34850Y31050D01*
X34300Y30000D02*
X34400D01*
X34350D01*
Y30300D01*
X34300Y30250D01*
X34550Y30150D02*
X34750D01*
X34850Y30000D02*
X34950D01*
X34900D01*
Y30300D01*
X34850Y30250D01*
X35100Y30000D02*
X35200D01*
X35150D01*
Y30300D01*
X35100Y30250D01*
X34500Y29000D02*
X34300D01*
X34500Y29200D01*
Y29250D01*
X34450Y29300D01*
X34350D01*
X34300Y29250D01*
X34600Y29150D02*
X34800D01*
X35100Y29300D02*
X35000Y29250D01*
X34900Y29150D01*
Y29050D01*
X34950Y29000D01*
X35050D01*
X35100Y29050D01*
Y29100D01*
X35050Y29150D01*
X34900D01*
X34500Y28000D02*
X34300D01*
X34500Y28200D01*
Y28250D01*
X34450Y28300D01*
X34350D01*
X34300Y28250D01*
X34600Y28150D02*
X34800D01*
X34900Y28000D02*
X35000D01*
X34950D01*
Y28300D01*
X34900Y28250D01*
X35150D02*
X35200Y28300D01*
X35300D01*
X35350Y28250D01*
Y28200D01*
X35300Y28150D01*
X35250D01*
X35300D01*
X35350Y28100D01*
Y28050D01*
X35300Y28000D01*
X35200D01*
X35150Y28050D01*
X34500Y27000D02*
X34300D01*
X34500Y27200D01*
Y27250D01*
X34450Y27300D01*
X34350D01*
X34300Y27250D01*
X34600Y27150D02*
X34800D01*
X34900Y27250D02*
X34950Y27300D01*
X35050D01*
X35100Y27250D01*
Y27200D01*
X35050Y27150D01*
X35000D01*
X35050D01*
X35100Y27100D01*
Y27050D01*
X35050Y27000D01*
X34950D01*
X34900Y27050D01*
X34500Y26000D02*
X34300D01*
X34500Y26200D01*
Y26250D01*
X34450Y26300D01*
X34350D01*
X34300Y26250D01*
X34600Y26150D02*
X34800D01*
X34900Y26000D02*
X35000D01*
X34950D01*
Y26300D01*
X34900Y26250D01*
X35150Y26000D02*
X35250D01*
X35200D01*
Y26300D01*
X35150Y26250D01*
X34300Y25250D02*
X34350Y25300D01*
X34450D01*
X34500Y25250D01*
Y25200D01*
X34450Y25150D01*
X34400D01*
X34450D01*
X34500Y25100D01*
Y25050D01*
X34450Y25000D01*
X34350D01*
X34300Y25050D01*
X34600Y25150D02*
X34800D01*
X34900Y25000D02*
X35000D01*
X34950D01*
Y25300D01*
X34900Y25250D01*
X35350Y25000D02*
X35150D01*
X35350Y25200D01*
Y25250D01*
X35300Y25300D01*
X35200D01*
X35150Y25250D01*
X34300Y24150D02*
X34350Y24200D01*
X34450D01*
X34500Y24150D01*
Y24100D01*
X34450Y24050D01*
X34400D01*
X34450D01*
X34500Y24000D01*
Y23950D01*
X34450Y23900D01*
X34350D01*
X34300Y23950D01*
X34600Y24050D02*
X34800D01*
X35100Y24200D02*
X35000Y24150D01*
X34900Y24050D01*
Y23950D01*
X34950Y23900D01*
X35050D01*
X35100Y23950D01*
Y24000D01*
X35050Y24050D01*
X34900D01*
X34300Y23250D02*
X34350Y23300D01*
X34450D01*
X34500Y23250D01*
Y23200D01*
X34450Y23150D01*
X34400D01*
X34450D01*
X34500Y23100D01*
Y23050D01*
X34450Y23000D01*
X34350D01*
X34300Y23050D01*
X34600Y23150D02*
X34800D01*
X34900Y23000D02*
X35000D01*
X34950D01*
Y23300D01*
X34900Y23250D01*
X35150D02*
X35200Y23300D01*
X35300D01*
X35350Y23250D01*
Y23200D01*
X35300Y23150D01*
X35250D01*
X35300D01*
X35350Y23100D01*
Y23050D01*
X35300Y23000D01*
X35200D01*
X35150Y23050D01*
X34300Y22250D02*
X34350Y22300D01*
X34450D01*
X34500Y22250D01*
Y22200D01*
X34450Y22150D01*
X34400D01*
X34450D01*
X34500Y22100D01*
Y22050D01*
X34450Y22000D01*
X34350D01*
X34300Y22050D01*
X34600Y22150D02*
X34800D01*
X34900Y22250D02*
X34950Y22300D01*
X35050D01*
X35100Y22250D01*
Y22200D01*
X35050Y22150D01*
X35000D01*
X35050D01*
X35100Y22100D01*
Y22050D01*
X35050Y22000D01*
X34950D01*
X34900Y22050D01*
X34300Y34000D02*
X34400D01*
X34350D01*
Y34300D01*
X34300Y34250D01*
X34550Y34150D02*
X34750D01*
X34850Y34050D02*
X34900Y34000D01*
X35000D01*
X35050Y34050D01*
Y34250D01*
X35000Y34300D01*
X34900D01*
X34850Y34250D01*
Y34200D01*
X34900Y34150D01*
X35050D01*
X34300Y35000D02*
X34400D01*
X34350D01*
Y35300D01*
X34300Y35250D01*
X34550Y35150D02*
X34750D01*
X34850Y35000D02*
X34950D01*
X34900D01*
Y35300D01*
X34850Y35250D01*
X34300Y36000D02*
X34400D01*
X34350D01*
Y36300D01*
X34300Y36250D01*
X34550Y36150D02*
X34750D01*
X34850Y36000D02*
X34950D01*
X34900D01*
Y36300D01*
X34850Y36250D01*
X35300Y36300D02*
X35100D01*
Y36150D01*
X35200Y36200D01*
X35250D01*
X35300Y36150D01*
Y36050D01*
X35250Y36000D01*
X35150D01*
X35100Y36050D01*
X34300Y37000D02*
X34400D01*
X34350D01*
Y37300D01*
X34300Y37250D01*
X34550Y37150D02*
X34750D01*
X34850Y37250D02*
X34900Y37300D01*
X35000D01*
X35050Y37250D01*
Y37200D01*
X35000Y37150D01*
X35050Y37100D01*
Y37050D01*
X35000Y37000D01*
X34900D01*
X34850Y37050D01*
Y37100D01*
X34900Y37150D01*
X34850Y37200D01*
Y37250D01*
X34900Y37150D02*
X35000D01*
X34450Y38000D02*
Y38300D01*
X34300Y38150D01*
X34500D01*
X34600D02*
X34800D01*
X34900Y38000D02*
X35000D01*
X34950D01*
Y38300D01*
X34900Y38250D01*
X35150Y38000D02*
X35250D01*
X35200D01*
Y38300D01*
X35150Y38250D01*
X34450Y39000D02*
Y39300D01*
X34300Y39150D01*
X34500D01*
X34600D02*
X34800D01*
X34900Y39250D02*
X34950Y39300D01*
X35050D01*
X35100Y39250D01*
Y39200D01*
X35050Y39150D01*
X35000D01*
X35050D01*
X35100Y39100D01*
Y39050D01*
X35050Y39000D01*
X34950D01*
X34900Y39050D01*
X34450Y40000D02*
Y40300D01*
X34300Y40150D01*
X34500D01*
X34600D02*
X34800D01*
X34900Y40000D02*
X35000D01*
X34950D01*
Y40300D01*
X34900Y40250D01*
X35150D02*
X35200Y40300D01*
X35300D01*
X35350Y40250D01*
Y40200D01*
X35300Y40150D01*
X35250D01*
X35300D01*
X35350Y40100D01*
Y40050D01*
X35300Y40000D01*
X35200D01*
X35150Y40050D01*
X34450Y41000D02*
Y41300D01*
X34300Y41150D01*
X34500D01*
X34600D02*
X34800D01*
X35100Y41300D02*
X35000Y41250D01*
X34900Y41150D01*
Y41050D01*
X34950Y41000D01*
X35050D01*
X35100Y41050D01*
Y41100D01*
X35050Y41150D01*
X34900D01*
X34300Y42250D02*
X34350Y42300D01*
X34450D01*
X34500Y42250D01*
Y42200D01*
X34450Y42150D01*
X34400D01*
X34450D01*
X34500Y42100D01*
Y42050D01*
X34450Y42000D01*
X34350D01*
X34300Y42050D01*
X34600Y42150D02*
X34800D01*
X34900Y42000D02*
X35000D01*
X34950D01*
Y42300D01*
X34900Y42250D01*
X35150Y42000D02*
X35250D01*
X35200D01*
Y42300D01*
X35150Y42250D01*
X34500Y33000D02*
X34300D01*
X34500Y33200D01*
Y33250D01*
X34450Y33300D01*
X34350D01*
X34300Y33250D01*
X34600Y33150D02*
X34800D01*
X34900Y33250D02*
X34950Y33300D01*
X35050D01*
X35100Y33250D01*
Y33200D01*
X35050Y33150D01*
X35100Y33100D01*
Y33050D01*
X35050Y33000D01*
X34950D01*
X34900Y33050D01*
Y33100D01*
X34950Y33150D01*
X34900Y33200D01*
Y33250D01*
X34950Y33150D02*
X35050D01*
X28700Y34250D02*
X28750Y34300D01*
X28850D01*
X28900Y34250D01*
Y34200D01*
X28850Y34150D01*
X28800D01*
X28850D01*
X28900Y34100D01*
Y34050D01*
X28850Y34000D01*
X28750D01*
X28700Y34050D01*
X29000Y34150D02*
X29200D01*
X29500Y34250D02*
X29450Y34300D01*
X29350D01*
X29300Y34250D01*
Y34200D01*
X29350Y34150D01*
X29450D01*
X29500Y34100D01*
Y34050D01*
X29450Y34000D01*
X29350D01*
X29300Y34050D01*
X29600Y34300D02*
Y34000D01*
Y34150D01*
X29650Y34200D01*
X29750D01*
X29800Y34150D01*
Y34000D01*
X28900Y35000D02*
X28700D01*
X28900Y35200D01*
Y35250D01*
X28850Y35300D01*
X28750D01*
X28700Y35250D01*
X29000Y35150D02*
X29200D01*
X29500Y35250D02*
X29450Y35300D01*
X29350D01*
X29300Y35250D01*
Y35200D01*
X29350Y35150D01*
X29450D01*
X29500Y35100D01*
Y35050D01*
X29450Y35000D01*
X29350D01*
X29300Y35050D01*
X29600Y35300D02*
Y35000D01*
Y35150D01*
X29650Y35200D01*
X29750D01*
X29800Y35150D01*
Y35000D01*
X28700Y36000D02*
X28800D01*
X28750D01*
Y36300D01*
X28700Y36250D01*
X28950Y36150D02*
X29150D01*
X29450Y36250D02*
X29400Y36300D01*
X29300D01*
X29250Y36250D01*
Y36200D01*
X29300Y36150D01*
X29400D01*
X29450Y36100D01*
Y36050D01*
X29400Y36000D01*
X29300D01*
X29250Y36050D01*
X29550Y36300D02*
Y36000D01*
Y36150D01*
X29600Y36200D01*
X29700D01*
X29750Y36150D01*
Y36000D01*
X28850Y41000D02*
Y41300D01*
X28700Y41150D01*
X28900D01*
X29000D02*
X29200D01*
X29300Y41050D02*
X29350Y41000D01*
X29450D01*
X29500Y41050D01*
Y41250D01*
X29450Y41300D01*
X29350D01*
X29300Y41250D01*
Y41200D01*
X29350Y41150D01*
X29500D01*
X28850Y42000D02*
Y42300D01*
X28700Y42150D01*
X28900D01*
X29000D02*
X29200D01*
X29300Y42000D02*
X29400D01*
X29350D01*
Y42300D01*
X29300Y42250D01*
X28850Y33000D02*
Y33300D01*
X28700Y33150D01*
X28900D01*
X29000D02*
X29200D01*
X29500Y33250D02*
X29450Y33300D01*
X29350D01*
X29300Y33250D01*
Y33200D01*
X29350Y33150D01*
X29450D01*
X29500Y33100D01*
Y33050D01*
X29450Y33000D01*
X29350D01*
X29300Y33050D01*
X29600Y33300D02*
Y33000D01*
Y33150D01*
X29650Y33200D01*
X29750D01*
X29800Y33150D01*
Y33000D01*
X28850Y23000D02*
Y23300D01*
X28700Y23150D01*
X28900D01*
X29000D02*
X29200D01*
X29300Y23250D02*
X29350Y23300D01*
X29450D01*
X29500Y23250D01*
Y23200D01*
X29450Y23150D01*
X29500Y23100D01*
Y23050D01*
X29450Y23000D01*
X29350D01*
X29300Y23050D01*
Y23100D01*
X29350Y23150D01*
X29300Y23200D01*
Y23250D01*
X29350Y23150D02*
X29450D01*
X28700Y24250D02*
X28750Y24300D01*
X28850D01*
X28900Y24250D01*
Y24200D01*
X28850Y24150D01*
X28800D01*
X28850D01*
X28900Y24100D01*
Y24050D01*
X28850Y24000D01*
X28750D01*
X28700Y24050D01*
X29000Y24150D02*
X29200D01*
X29300Y24050D02*
X29350Y24000D01*
X29450D01*
X29500Y24050D01*
Y24250D01*
X29450Y24300D01*
X29350D01*
X29300Y24250D01*
Y24200D01*
X29350Y24150D01*
X29500D01*
X28700Y25250D02*
X28750Y25300D01*
X28850D01*
X28900Y25250D01*
Y25200D01*
X28850Y25150D01*
X28800D01*
X28850D01*
X28900Y25100D01*
Y25050D01*
X28850Y25000D01*
X28750D01*
X28700Y25050D01*
X29000Y25150D02*
X29200D01*
X29300Y25000D02*
X29400D01*
X29350D01*
Y25300D01*
X29300Y25250D01*
X28700Y26250D02*
X28750Y26300D01*
X28850D01*
X28900Y26250D01*
Y26200D01*
X28850Y26150D01*
X28800D01*
X28850D01*
X28900Y26100D01*
Y26050D01*
X28850Y26000D01*
X28750D01*
X28700Y26050D01*
X29000Y26150D02*
X29200D01*
X29300Y26000D02*
X29400D01*
X29350D01*
Y26300D01*
X29300Y26250D01*
X29750Y26300D02*
X29550D01*
Y26150D01*
X29650Y26200D01*
X29700D01*
X29750Y26150D01*
Y26050D01*
X29700Y26000D01*
X29600D01*
X29550Y26050D01*
X28700Y27250D02*
X28750Y27300D01*
X28850D01*
X28900Y27250D01*
Y27200D01*
X28850Y27150D01*
X28800D01*
X28850D01*
X28900Y27100D01*
Y27050D01*
X28850Y27000D01*
X28750D01*
X28700Y27050D01*
X29000Y27150D02*
X29200D01*
X29300Y27250D02*
X29350Y27300D01*
X29450D01*
X29500Y27250D01*
Y27200D01*
X29450Y27150D01*
X29500Y27100D01*
Y27050D01*
X29450Y27000D01*
X29350D01*
X29300Y27050D01*
Y27100D01*
X29350Y27150D01*
X29300Y27200D01*
Y27250D01*
X29350Y27150D02*
X29450D01*
X28850Y28000D02*
Y28300D01*
X28700Y28150D01*
X28900D01*
X29000D02*
X29200D01*
X29300Y28000D02*
X29400D01*
X29350D01*
Y28300D01*
X29300Y28250D01*
X29750Y28000D02*
X29550D01*
X29750Y28200D01*
Y28250D01*
X29700Y28300D01*
X29600D01*
X29550Y28250D01*
X28900Y29000D02*
X28700D01*
X28900Y29200D01*
Y29250D01*
X28850Y29300D01*
X28750D01*
X28700Y29250D01*
X29000Y29150D02*
X29200D01*
X29300Y29050D02*
X29350Y29000D01*
X29450D01*
X29500Y29050D01*
Y29250D01*
X29450Y29300D01*
X29350D01*
X29300Y29250D01*
Y29200D01*
X29350Y29150D01*
X29500D01*
X28900Y30000D02*
X28700D01*
X28900Y30200D01*
Y30250D01*
X28850Y30300D01*
X28750D01*
X28700Y30250D01*
X29000Y30150D02*
X29200D01*
X29300Y30000D02*
X29400D01*
X29350D01*
Y30300D01*
X29300Y30250D01*
X28900Y31000D02*
X28700D01*
X28900Y31200D01*
Y31250D01*
X28850Y31300D01*
X28750D01*
X28700Y31250D01*
X29000Y31150D02*
X29200D01*
X29300Y31000D02*
X29400D01*
X29350D01*
Y31300D01*
X29300Y31250D01*
X29750Y31300D02*
X29550D01*
Y31150D01*
X29650Y31200D01*
X29700D01*
X29750Y31150D01*
Y31050D01*
X29700Y31000D01*
X29600D01*
X29550Y31050D01*
X28850Y22000D02*
Y22300D01*
X28700Y22150D01*
X28900D01*
X29000D02*
X29200D01*
X29300Y22000D02*
X29400D01*
X29350D01*
Y22300D01*
X29300Y22250D01*
X29750Y22300D02*
X29550D01*
Y22150D01*
X29650Y22200D01*
X29700D01*
X29750Y22150D01*
Y22050D01*
X29700Y22000D01*
X29600D01*
X29550Y22050D01*
D27*
X37800Y20800D02*
X37900D01*
X37850D01*
Y21050D01*
X37900Y21100D01*
X37950D01*
X38000Y21050D01*
X37700Y21100D02*
X37600D01*
X37650D01*
Y20800D01*
X37700Y20850D01*
X41600Y31700D02*
Y31800D01*
Y31750D01*
X41350D01*
X41300Y31800D01*
Y31850D01*
X41350Y31900D01*
X41300Y31400D02*
Y31600D01*
X41500Y31400D01*
X41550D01*
X41600Y31450D01*
Y31550D01*
X41550Y31600D01*
X41700Y48200D02*
Y48300D01*
Y48250D01*
X41450D01*
X41400Y48300D01*
Y48350D01*
X41450Y48400D01*
X41650Y48100D02*
X41700Y48050D01*
Y47950D01*
X41650Y47900D01*
X41600D01*
X41550Y47950D01*
Y48000D01*
Y47950D01*
X41500Y47900D01*
X41450D01*
X41400Y47950D01*
Y48050D01*
X41450Y48100D01*
X23400Y43500D02*
X23300D01*
X23350D01*
Y43250D01*
X23300Y43200D01*
X23250D01*
X23200Y43250D01*
X23650Y43200D02*
Y43500D01*
X23500Y43350D01*
X23700D01*
X16800Y20700D02*
Y20600D01*
Y20650D01*
X17050D01*
X17100Y20600D01*
Y20550D01*
X17050Y20500D01*
X16800Y21000D02*
Y20800D01*
X16950D01*
X16900Y20900D01*
Y20950D01*
X16950Y21000D01*
X17050D01*
X17100Y20950D01*
Y20850D01*
X17050Y20800D01*
X21085Y20085D02*
Y20185D01*
Y20135D01*
X20835D01*
X20785Y20185D01*
Y20235D01*
X20835Y20285D01*
X21085Y19785D02*
X21035Y19885D01*
X20935Y19985D01*
X20835D01*
X20785Y19935D01*
Y19835D01*
X20835Y19785D01*
X20885D01*
X20935Y19835D01*
Y19985D01*
X17915Y21115D02*
Y21015D01*
Y21065D01*
X18165D01*
X18215Y21015D01*
Y20965D01*
X18165Y20915D01*
X17915Y21215D02*
Y21415D01*
X17965D01*
X18165Y21215D01*
X18215D01*
X18800Y42200D02*
X18700D01*
X18750D01*
Y41950D01*
X18700Y41900D01*
X18650D01*
X18600Y41950D01*
X18900Y42150D02*
X18950Y42200D01*
X19050D01*
X19100Y42150D01*
Y42100D01*
X19050Y42050D01*
X19100Y42000D01*
Y41950D01*
X19050Y41900D01*
X18950D01*
X18900Y41950D01*
Y42000D01*
X18950Y42050D01*
X18900Y42100D01*
Y42150D01*
X18950Y42050D02*
X19050D01*
X20800Y42200D02*
X20700D01*
X20750D01*
Y41950D01*
X20700Y41900D01*
X20650D01*
X20600Y41950D01*
X20900D02*
X20950Y41900D01*
X21050D01*
X21100Y41950D01*
Y42150D01*
X21050Y42200D01*
X20950D01*
X20900Y42150D01*
Y42100D01*
X20950Y42050D01*
X21100D01*
X22615Y42185D02*
X22515D01*
X22565D01*
Y41935D01*
X22515Y41885D01*
X22465D01*
X22415Y41935D01*
X22715Y41885D02*
X22815D01*
X22765D01*
Y42185D01*
X22715Y42135D01*
X22965D02*
X23015Y42185D01*
X23115D01*
X23165Y42135D01*
Y41935D01*
X23115Y41885D01*
X23015D01*
X22965Y41935D01*
Y42135D01*
X22000Y20900D02*
X22300D01*
Y20750D01*
X22250Y20700D01*
X22150D01*
X22100Y20750D01*
Y20900D01*
Y20800D02*
X22000Y20700D01*
Y20600D02*
Y20500D01*
Y20550D01*
X22300D01*
X22250Y20600D01*
X39895Y18575D02*
Y18275D01*
X39745D01*
X39695Y18325D01*
Y18425D01*
X39745Y18475D01*
X39895D01*
X39795D02*
X39695Y18575D01*
X39395D02*
X39595D01*
X39395Y18375D01*
Y18325D01*
X39445Y18275D01*
X39545D01*
X39595Y18325D01*
X39300Y21200D02*
Y21450D01*
X39250Y21500D01*
X39150D01*
X39100Y21450D01*
Y21200D01*
X39000Y21500D02*
X38900D01*
X38950D01*
Y21200D01*
X39000Y21250D01*
X39300Y32200D02*
Y32450D01*
X39250Y32500D01*
X39150D01*
X39100Y32450D01*
Y32200D01*
X38800Y32500D02*
X39000D01*
X38800Y32300D01*
Y32250D01*
X38850Y32200D01*
X38950D01*
X39000Y32250D01*
X33800Y21200D02*
Y21450D01*
X33750Y21500D01*
X33650D01*
X33600Y21450D01*
Y21200D01*
X33500Y21250D02*
X33450Y21200D01*
X33350D01*
X33300Y21250D01*
Y21300D01*
X33350Y21350D01*
X33400D01*
X33350D01*
X33300Y21400D01*
Y21450D01*
X33350Y21500D01*
X33450D01*
X33500Y21450D01*
X33800Y32200D02*
Y32450D01*
X33750Y32500D01*
X33650D01*
X33600Y32450D01*
Y32200D01*
X33350Y32500D02*
Y32200D01*
X33500Y32350D01*
X33300D01*
X28200Y21200D02*
Y21450D01*
X28150Y21500D01*
X28050D01*
X28000Y21450D01*
Y21200D01*
X27700D02*
X27900D01*
Y21350D01*
X27800Y21300D01*
X27750D01*
X27700Y21350D01*
Y21450D01*
X27750Y21500D01*
X27850D01*
X27900Y21450D01*
X28300Y32200D02*
Y32450D01*
X28250Y32500D01*
X28150D01*
X28100Y32450D01*
Y32200D01*
X27800D02*
X27900Y32250D01*
X28000Y32350D01*
Y32450D01*
X27950Y32500D01*
X27850D01*
X27800Y32450D01*
Y32400D01*
X27850Y32350D01*
X28000D01*
M02*
